<svg xmlns="http://www.w3.org/2000/svg" xmlns:xlink="http://www.w3.org/1999/xlink" viewBox="0 0 256 148">
    <defs>
        <filter id="prefix__n" color-interpolation-filters="sRGB">
            <feGaussianBlur stdDeviation="1.504" />
        </filter>
        <filter id="prefix__k" height="1.209" width="1.065" color-interpolation-filters="sRGB" y="-.105" x="-.033">
            <feGaussianBlur stdDeviation="2.673" />
        </filter>
        <filter id="prefix__q" height="1.077" width="1.272" color-interpolation-filters="sRGB" y="-.038" x="-.136">
            <feGaussianBlur stdDeviation="1.033" />
        </filter>
        <filter id="prefix__t" color-interpolation-filters="sRGB">
            <feGaussianBlur stdDeviation=".205" />
        </filter>
        <filter id="prefix__f" height="1.202" width="1.089" color-interpolation-filters="sRGB" y="-.101" x="-.045">
            <feGaussianBlur stdDeviation="4.091" />
        </filter>
        <filter id="prefix__v" height="1.321" width="1.341" color-interpolation-filters="sRGB" y="-.161" x="-.171">
            <feGaussianBlur stdDeviation="3.505" />
        </filter>
        <filter id="prefix__o" height="1.3" width="1.376" color-interpolation-filters="sRGB" y="-.15" x="-.188">
            <feGaussianBlur stdDeviation="1.484" />
        </filter>
        <filter id="prefix__i" color-interpolation-filters="sRGB">
            <feGaussianBlur stdDeviation=".495" />
        </filter>
        <filter id="prefix__B" height="1.314" width="1.451" color-interpolation-filters="sRGB" y="-.157" x="-.225">
            <feGaussianBlur stdDeviation=".769" />
        </filter>
        <filter id="prefix__y" color-interpolation-filters="sRGB">
            <feGaussianBlur stdDeviation=".105" />
        </filter>
        <filter id="prefix__l" color-interpolation-filters="sRGB">
            <feGaussianBlur stdDeviation=".777" />
        </filter>
        <radialGradient id="prefix__d" xlink:href="#prefix__a" gradientUnits="userSpaceOnUse" cy="564.96" cx="-175.01"
            gradientTransform="matrix(1 0 0 .06102 0 530.49)" r="74.499" />
        <radialGradient id="prefix__e" xlink:href="#prefix__b" spreadMethod="reflect" gradientUnits="userSpaceOnUse"
            cy="504.83" cx="-203.61" gradientTransform="matrix(.61396 0 0 .4055 -80.677 281.38)" r="134.36" />
        <radialGradient id="prefix__h" xlink:href="#prefix__b" gradientUnits="userSpaceOnUse" cy="425.49" cx="-203.01"
            gradientTransform="matrix(1.7028 0 0 .8297 133.04 81.388)" r="116.33" />
        <radialGradient id="prefix__j" xlink:href="#prefix__b" gradientUnits="userSpaceOnUse" cy="449.03" cx="-77.912"
            gradientTransform="matrix(8.5296 4.9246 -10.596 19.387 5435.4 -7953.7)" r="14.368" />
        <radialGradient id="prefix__m" xlink:href="#prefix__c" spreadMethod="reflect" gradientUnits="userSpaceOnUse"
            cy="527.34" cx="-134.53" gradientTransform="matrix(1 0 0 .48228 0 248.48)" r="105.42" />
        <radialGradient id="prefix__p" xlink:href="#prefix__b" spreadMethod="reflect" gradientUnits="userSpaceOnUse"
            cy="473.51" cx="-96.422" gradientTransform="matrix(-5.6922 0 0 8.9068 -502.38 -4130.5)" r="17.506" />
        <radialGradient id="prefix__r" xlink:href="#prefix__b" gradientUnits="userSpaceOnUse" cy="11.712" cx="12.052"
            gradientTransform="matrix(2.4597 -1.4201 1.0598 1.8356 -30.52 10.792)" r="13.568" />
        <radialGradient id="prefix__s" xlink:href="#prefix__b" gradientUnits="userSpaceOnUse" cy="397.72" cx="-87.203"
            gradientTransform="matrix(-3.801 0 0 1.9727 -310.34 -796.02)" r="13.396" />
        <radialGradient id="prefix__u" xlink:href="#prefix__b" gradientUnits="userSpaceOnUse" cy="439.94" cx="-70.922"
            gradientTransform="matrix(3.2449 0 0 2.2167 159.21 -537.66)" r="12.549" />
        <radialGradient id="prefix__C" xlink:href="#prefix__b" spreadMethod="reflect" gradientUnits="userSpaceOnUse"
            cy="473.51" cx="-96.422" gradientTransform="matrix(-2.9615 .81849 .97917 3.7692 -697.59 -1650.6)"
            r="17.506" />
        <linearGradient id="prefix__c">
            <stop offset="0" stop-color="#fff" />
            <stop offset="1" stop-color="#f6d480" stop-opacity="0" />
        </linearGradient>
        <linearGradient id="prefix__b">
            <stop offset="0" stop-color="#594c06" />
            <stop offset=".467" stop-color="#908200" />
            <stop offset=".585" stop-color="#ffca2f" />
            <stop offset=".746" stop-color="#ffc44a" />
            <stop offset="1" stop-color="#cda942" />
        </linearGradient>
        <linearGradient id="prefix__a">
            <stop offset="0" stop-color="#1a1a1a" />
            <stop offset="1" stop-color="#1a1a1a" stop-opacity="0" />
        </linearGradient>
        <linearGradient id="prefix__g" y2="502.25" xlink:href="#prefix__b" spreadMethod="reflect"
            gradientUnits="userSpaceOnUse" x2="-248.42" y1="782.6" x1="-309.62" />
        <linearGradient id="prefix__w" y2="17.392" xlink:href="#prefix__c" gradientUnits="userSpaceOnUse" x2="169.48"
            gradientTransform="matrix(.905 0 0 .92952 29.126 .934)" y1="135.44" x1="291.07" />
        <linearGradient id="prefix__x" y2="481.77" xlink:href="#prefix__a" gradientUnits="userSpaceOnUse" x2="-312.3"
            gradientTransform="matrix(.64719 .197 -.28471 .71149 22.011 198.52)" y1="474.47" x1="-335.08" />
        <linearGradient id="prefix__z" y2="496.5" xlink:href="#prefix__b" spreadMethod="reflect"
            gradientUnits="userSpaceOnUse" x2="-275.28" gradientTransform="matrix(-.9771 0 0 1.0668 -57.786 -452.26)"
            y1="482.85" x1="-377.49" />
        <linearGradient id="prefix__A" y2="473.78" xlink:href="#prefix__a" gradientUnits="userSpaceOnUse" x2="-321.51"
            gradientTransform="matrix(.97625 0 0 1.0085 -7.815 -3.94)" y1="473.78" x1="-328.27" />
    </defs>
    <path
        d="M-100.51 564.96c0 2.51-33.354 4.546-74.499 4.546s-74.499-2.035-74.499-4.546 33.354-4.546 74.499-4.546 74.499 2.036 74.499 4.546z"
        transform="matrix(-1.04738 0 0 1.7047 -77.305 -822.827)" fill="url(#prefix__d)" />
    <path
        d="M-326.88 472.98c-11.419 9.783 1.288 24.934 8.295 34.921 5.556 7.919 46.615 51.894 115.81 56.945 71.022 5.184 129.95-33.369 129.95-81.189 0-6.21-12.688-27.856-.835-39.418 2.195-2.141 3.806-2.547 6.533-7.646 2.824-5.279 1.689-14.498 1.689-14.498s-7.256-1.32-10.854-1.237c-6.82.157-13.063 3.421-14.703 4.968-2.442 9.595.172 21.226-7.198 29.402-9.998 11.091-45.913 51.857-106.84 48.223-54.327-3.24-99.493-46.369-121.84-30.471z"
        fill-rule="evenodd" fill="url(#prefix__e)" transform="matrix(-.95888 0 0 .95888 -61.819 -401.476)" />
    <path
        d="M-307.06 450.81c-1.323.586-2.231 17.606 2.594 35.938 4.824 18.332 27.882 66.648 108.47 60.656 56.226-4.18 93.388-48.475 107.84-66.312-19.88 18.796-57.634 45.576-108 46.969-71.82 1.986-97.237-46.388-110.91-77.25z"
        transform="matrix(.93047 0 0 .85912 301.731 -340.32)" filter="url(#prefix__f)" fill-rule="evenodd"
        fill="url(#prefix__g)" />
    <path
        d="M-90.928 426.05c-1.956 9.43.152 20.515-6.917 28.417-10.013 11.194-45.987 52.333-107.01 48.665-48.417-2.91-95.404-39.704-113.83-32.571-2.08.805-5.242 3.943-5.128 4.298 5.165 16.071 50.417 58.43 114.79 61.105 101.1 4.203 111.74-58.303 120.81-94.586.693-2.772-1.077-8.55-2.723-15.328z"
        fill-rule="evenodd" fill="url(#prefix__h)" transform="matrix(-.95888 0 0 .95888 -61.819 -401.476)" />
    <path
        d="M-71.282 421.28c1.14.149 2.171.31 3.011.438.374.06.863.137 1.156.187.2.033.546.071.67.094-.038 3.587-.356 10.736-2.282 14.594-2.546 5.098-4.035 5.515-6.083 7.656-1.654 1.925-2.718 4.439-3.346 7.281-.009.032-.022.062-.03.094-.012.052-.02.104-.031.156-.104.402-.196.81-.274 1.219-.002.01.002.021 0 .031a21.47 21.47 0 00-.213 1.375c-.053.433-.092.874-.121 1.313-.003.03.002.062 0 .093a25.94 25.94 0 00-.03.563c-.013.29-.028.582-.031.875-.002.23-.004.456 0 .687-.274 9.531 2.391 20.367 3.832 25.47-2.012-5.603-7.513-16.366-19.224-12.782-.035-.24-.078-.482-.121-.719-2.633-12.832-8.06-6.544-8.943-8.562 2.295-2.46 4.165-4.597 5.505-6.125 7.174-8.176 4.62-19.811 6.996-29.406.998-.967 3.76-2.588 7.3-3.719 3.72.017 6.702.05 7.453.031 1.333-.032 3.127-.408 4.806-.843z"
        filter="url(#prefix__i)" fill="url(#prefix__j)" transform="matrix(-.95888 0 0 .95888 -61.819 -401.476)" />
    <path
        d="M-294.23 482.63c22.329 12.679 58.548 27.041 103.16 24.704 38.291-2.006 71.262-15.827 92.683-35.457-6.564 34.837-32.611 55.642-82.148 60.628-71.626 7.209-106.48-39.31-111.51-47.118-.6-.931-1.434-1.8-2.175-2.756z"
        transform="matrix(-.94092 0 0 .94677 -54.52 -393.593)" filter="url(#prefix__k)" fill-rule="evenodd"
        fill="#f5cc68" />
    <path
        d="M-88.193 436.68c2.458 47.2-52.241 96.545-109.23 91.947-46.778-6.917-77.186-11.527-110.48-55.082 22.901 10.648 78.787 33.385 113.26 35.197 35.522-.404 103.95-27.306 104.05-76.65-.228-4.252 2.16 4.944 2.392 4.588z"
        transform="matrix(-1.00174 0 0 1.00174 -65.519 -424.228)" opacity=".247" filter="url(#prefix__l)"
        fill-rule="evenodd" fill="url(#prefix__m)" />
    <path
        d="M-86.541 437.78c-.358 1.745-6.61 22.482-6.61 22.482-5.564 17.948-18.023 79.397-119.03 72.614-31.842-2.829-51.565-11.896-77.154-24.882 18.759 13.627 46.314 24.747 80.368 27.034 101.01 6.784 109.57-51.368 120.13-81.875.295-.855 2.658-17.117 2.3-15.372z"
        filter="url(#prefix__n)" fill-rule="evenodd" fill="#f8e2a9" fill-opacity=".888"
        transform="matrix(-.95888 0 0 .95888 -61.819 -401.476)" />
    <path
        d="M6.172 2.481c1.654.418 3.421.777 4.734.809 2.51.06 4.656.383 6.982.869 3.51.728 6.37 1.777 7.282 2.667 2.26 9.2-.173 20.357 6.652 28.197a258.74 258.74 0 005.304 5.903c-1.581.24-2.885 1.074-4.255 2.037-2.438 1.713-3.617 4.033-4.046 6.832C17.29 46.36 11.87 56.68 9.887 62.051c1.384-4.768 3.877-14.608 3.776-23.642v-.06c.098-2.462-.125-4.881-.81-7.162-.622-2.604-1.643-4.912-3.205-6.682-2.019-2.053-3.486-2.452-5.993-7.342C1.757 13.464 1.445 6.61 1.407 3.17c.663-.117 2.517-.404 4.765-.69zm3.625 59.84c-.465 1.59-.839 2.757-.839 2.757s.254-1.123.84-2.757z"
        fill="none" />
    <path
        d="M11.5 59.656c-.36 2.287-.385 4.675-.313 7.031 2.242-7.054 3.612-17.164 11.47-19.906 2.231-.771 6.083.397 7.437-.625-15.495-9.747-16.533 5.038-18.594 13.5z"
        transform="matrix(.98928 0 0 .78014 .013 12.185)" opacity=".309" filter="url(#prefix__o)"
        fill="url(#prefix__p)" />
    <path
        d="M18.5 1.313c-.375 3.2 1.103 12.026 2.5 22.125 1.689 12.202 15.656 42.28 15.656 42.28S28.4 44.049 24.937 32.345c-2.861-9.67-4.048-25.47-5.187-30.594a28.61 28.61 0 00-1.25-.438z"
        transform="translate(.72 2.06) scale(.95888)" filter="url(#prefix__q)" fill-opacity=".89" fill="#e6d7b3" />
    <path
        d="M11.094 0c-.244-.006-.539.025-.813.031-1.748.08-3.83.305-5.656.531C4.4.595 4.216.625 4 .656a139.27 139.27 0 00-3.75.594c-.005.037-.06.463-.094.781-.024.229-.036.216-.062.563-.008.104.007.072 0 .187-.03.408-.078.855-.094 1.375-.004.103.003.174 0 .282a32.73 32.73 0 000 1.656c.074 2.77.517 6.159 2.031 8.625 2 3.254 3.444 4.454 4.906 5.531 2.267-.106 4.607.229 6.563-1.469 3.616-1.907 7.743-.162 11.406-1.656a85.472 85.472 0 002.219-1.813c-.254-3.535-.509-7.064-1.344-10.343C24.154 3.434 18.008.204 11.25 0c-.053-.002-.103.001-.156 0z"
        transform="translate(.72 2.06) scale(.95888)" opacity=".596" fill-rule="evenodd" fill="url(#prefix__r)" />
    <path
        d="M9.969 1.063c-2.108.002-4.198.23-6.281.5-1.243.2-3.833.04-3.063 1.843 1.618 4.415 5.934 4.422 5.934 4.422s1.417 2.64 6.035 4.078c1.038 1.117 3.119-.185 4.437-.406 1.068.89 2.216 1.345 3.47 1.187.67-1.26 2.155-3.562 2.155-3.562s1.808-.108 1.625-1.313c-.332-1.199-.968-2.51-2.062-3.406-3.659-2.035-7.942-3.22-12.25-3.344z"
        transform="translate(.72 2.06) scale(.95888)" fill-rule="evenodd" fill="url(#prefix__s)" />
    <path
        d="M3.938 4.034c-.363.03-.615.22-.67.672-.093.749 1.517 1.79 3.136 3.013 1.708.602 1.168 1.402 2.418 1.738 3.295.886 6.404 2.78 8.643.51 2.273-3.657-.839-4.399-4.285-4.542l-1.916.208-1.34-.463-2.73-.046c-1.105-.436-2.46-1.153-3.256-1.09z"
        fill-rule="evenodd" fill="#fadf9f" />
    <path
        d="M-65.787 424.39c.393 5.58-1.168 11.967-5.942 15.341-4.081 1.762-8.473-.105-12.599-.704-2.21-.308-6.739-2.973-5.091-4.953 2.602 1.647 5.251 2.54 8.584 2.495 3.305.236 7.06 2.553 9.885.06 3.772-2.855 5.121-7.696 5.163-12.24z"
        transform="matrix(-1.0865 0 0 1.03914 -70.872 -435.021)" opacity=".8" filter="url(#prefix__t)"
        fill-rule="evenodd" fill="url(#prefix__u)" />
    <path
        d="M215.41 107.25c-.421 3.167 2.663 6.962 10.55 3.356 13.658-6.244 45.144-58.015 36.435-54.95 0 0-45.081 37.287-46.984 51.594z"
        transform="matrix(1.16974 0 0 .83097 -63.424 24.852)" filter="url(#prefix__v)" fill="url(#prefix__w)" />
    <path
        d="M-320.7 470.05c.639.045.555.792.712 1.166.16.897.406 2.097-1.021 2.45-1.535.338-.17 1.287-.31 1.975-1.19.793-1.431 2.057-2.165 3.07-.658.646-1.97-.709-2.692.19-.981.502-1.016 1.555-1.577 2.165-.695-.972-1.615.362-2.444-.238-.66-1.171-.204-3.186.247-4.36.293-1.153 1.454-1.363 1.609-2.54.45-.806 2.325-1.508 2.917-2.238.77-.623 1.983-.663 2.66-1.381.985-.06 1.069-.115 2.064-.259zm-7.858 3.902c.024.006-.008.02 0 .024-.046-.002-.088-.01 0-.024z"
        fill="url(#prefix__x)" transform="matrix(-.95888 0 0 .95888 -61.819 -401.476)" />
    <path
        d="M255.19 49.219c-.955.467-1.342 1.73-.906 2.719.307.911.902 1.682 1.562 2.344.165 1.93 1.143 3.77 2.594 4.968 1.244-.035 2.715.014 3.531 1.157.035.822 1.398 1.26 1 .156-.336-.847-1.045-1.862-2.031-1.719-1.148.548-2.424-.258-3-1.312-.57-.9-.91-1.92-1.375-2.875.08-1.684-2.034-2.47-1.812-4.188.027-.466.331-.81.437-1.25z"
        transform="translate(.72 2.06) scale(.95888)" filter="url(#prefix__y)" fill="url(#prefix__z)" />
    <path
        d="M-323.42 471.4c-.504.144-.758.961-1.39.626-.712-.265-1.112.415-1.612.761-.541.275-.726.75-1.113 1.121.062.741-.902.833-.722 1.59-.214.89.78.97 1.39.824.695.28.973-.864 1.662-.592.683.354 1.193-.356 1.68-.704.507-.27.62-.78 1.067-1.043-.035-.77.838-.89.747-1.643.19-.884-.714-1.011-1.34-.86-.133.02-.242-.107-.37-.08z"
        fill="url(#prefix__A)" transform="matrix(-.95888 0 0 .95888 -61.819 -401.476)" />
    <path
        d="M35.625 39.969c-5.913.009-5.095 5.326-5.219 8.719.064 1.02.328 2.044.625 3.031.39-3.308-.005-7.804 3.781-10.094 1.077-.647 3.19-.685 3.782-1.313-1.142-.237-2.125-.344-2.97-.343z"
        transform="matrix(.95888 0 0 .84909 .72 6.25)" opacity=".238" filter="url(#prefix__B)" fill="url(#prefix__C)" />
</svg>