<?xml version="1.0" encoding="utf-8"?>
<!-- Generator: Adobe Illustrator 25.0.0, SVG Export Plug-In . SVG Version: 6.00 Build 0)  -->
<svg version="1.1"
	 id="svg2" xmlns:cc="http://creativecommons.org/ns#" xmlns:dc="http://purl.org/dc/elements/1.1/" xmlns:inkscape="http://www.inkscape.org/namespaces/inkscape" xmlns:ns1="http://sozi.baierouge.fr" xmlns:rdf="http://www.w3.org/1999/02/22-rdf-syntax-ns#" xmlns:sodipodi="http://sodipodi.sourceforge.net/DTD/sodipodi-0.dtd"
	 xmlns="http://www.w3.org/2000/svg" xmlns:xlink="http://www.w3.org/1999/xlink" x="0px" y="0px" viewBox="0 0 24.2 40.4"
	 style="enable-background:new 0 0 24.2 40.4;" xml:space="preserve">
<style type="text/css">
	.st0{fill-rule:evenodd;clip-rule:evenodd;fill:url(#path30_1_);}
	.st1{fill-rule:evenodd;clip-rule:evenodd;fill:url(#path48_2_);}
	.st2{filter:url(#Adobe_OpacityMaskFilter);}
	.st3{clip-path:url(#SVGID_2_);fill-opacity:0.5781;}
	.st4{mask:url(#mask220_1_);}
	.st5{clip-path:url(#SVGID_4_);}
	.st6{clip-path:url(#SVGID_6_);}
	.st7{fill-rule:evenodd;clip-rule:evenodd;fill:url(#path270_1_);}
	.st8{filter:url(#Adobe_OpacityMaskFilter_1_);}
	.st9{clip-path:url(#SVGID_8_);fill-opacity:0.2109;}
	.st10{mask:url(#mask280_1_);}
	.st11{clip-path:url(#SVGID_10_);}
	.st12{clip-path:url(#SVGID_12_);}
	.st13{fill-rule:evenodd;clip-rule:evenodd;fill:url(#path330_1_);}
	.st14{filter:url(#Adobe_OpacityMaskFilter_2_);}
	.st15{clip-path:url(#SVGID_14_);fill-opacity:0.7695;}
	.st16{mask:url(#mask340_1_);}
	.st17{clip-path:url(#SVGID_16_);}
	.st18{clip-path:url(#SVGID_18_);}
	.st19{fill-rule:evenodd;clip-rule:evenodd;fill:#333362;}
	.st20{fill-rule:evenodd;clip-rule:evenodd;fill:url(#path392_1_);}
	.st21{fill-rule:evenodd;clip-rule:evenodd;fill:url(#path410_1_);}
	.st22{filter:url(#Adobe_OpacityMaskFilter_3_);}
	.st23{clip-path:url(#SVGID_20_);fill-opacity:0.4883;}
	.st24{mask:url(#mask420_1_);}
	.st25{clip-path:url(#SVGID_22_);}
	.st26{clip-path:url(#SVGID_24_);}
	.st27{fill-rule:evenodd;clip-rule:evenodd;fill:#3B4F6B;}
	.st28{fill-rule:evenodd;clip-rule:evenodd;fill:url(#path472_1_);}
	.st29{fill-rule:evenodd;clip-rule:evenodd;fill:url(#path494_1_);}
	.st30{fill-rule:evenodd;clip-rule:evenodd;fill:url(#path514_1_);}
	.st31{filter:url(#Adobe_OpacityMaskFilter_4_);}
	.st32{clip-path:url(#SVGID_26_);fill-opacity:0.4805;}
	.st33{mask:url(#mask524_1_);}
	.st34{clip-path:url(#SVGID_28_);}
	.st35{clip-path:url(#SVGID_30_);}
	.st36{fill-rule:evenodd;clip-rule:evenodd;fill:#FFFFFF;}
	.st37{fill-rule:evenodd;clip-rule:evenodd;fill:#F9E2C9;}
	.st38{fill-rule:evenodd;clip-rule:evenodd;fill:url(#path580_1_);}
	.st39{fill-rule:evenodd;clip-rule:evenodd;fill:url(#path598_1_);}
	.st40{fill-rule:evenodd;clip-rule:evenodd;fill:url(#path616_1_);}
	.st41{fill-rule:evenodd;clip-rule:evenodd;fill:url(#path634_1_);}
	.st42{fill-rule:evenodd;clip-rule:evenodd;fill:url(#path652_1_);}
	.st43{fill-rule:evenodd;clip-rule:evenodd;fill:url(#path670_1_);}
	.st44{fill-rule:evenodd;clip-rule:evenodd;fill:url(#path688_1_);}
	.st45{fill-rule:evenodd;clip-rule:evenodd;fill:url(#path706_1_);}
	.st46{fill-rule:evenodd;clip-rule:evenodd;fill:url(#path724_1_);}
	.st47{fill:url(#SVGID_31_);}
	.st48{fill-rule:evenodd;clip-rule:evenodd;fill:url(#path30_3_);}
	.st49{fill-rule:evenodd;clip-rule:evenodd;fill:#48498F;}
	.st50{filter:url(#Adobe_OpacityMaskFilter_5_);}
	.st51{clip-path:url(#SVGID_33_);fill-opacity:7.030000e-02;}
	.st52{mask:url(#mask42_1_);}
	.st53{clip-path:url(#SVGID_35_);}
	.st54{clip-path:url(#SVGID_37_);}
	.st55{filter:url(#Adobe_OpacityMaskFilter_6_);}
	.st56{clip-path:url(#SVGID_39_);fill-opacity:0.1484;}
	.st57{mask:url(#mask86_1_);}
	.st58{clip-path:url(#SVGID_41_);}
	.st59{clip-path:url(#SVGID_43_);}
	.st60{fill-rule:evenodd;clip-rule:evenodd;fill:url(#path138_2_);}
	.st61{fill-rule:evenodd;clip-rule:evenodd;fill:#664F35;}
	.st62{fill-rule:evenodd;clip-rule:evenodd;fill:url(#path158_2_);}
	.st63{fill-rule:evenodd;clip-rule:evenodd;fill:url(#path176_2_);}
	.st64{filter:url(#Adobe_OpacityMaskFilter_7_);}
	.st65{clip-path:url(#SVGID_45_);fill-opacity:7.030000e-02;}
	.st66{mask:url(#mask188_1_);}
	.st67{clip-path:url(#SVGID_47_);}
	.st68{clip-path:url(#SVGID_49_);}
	.st69{fill-rule:evenodd;clip-rule:evenodd;fill:url(#path240_2_);}
	.st70{fill-rule:evenodd;clip-rule:evenodd;fill:url(#path258_2_);}
	.st71{filter:url(#Adobe_OpacityMaskFilter_8_);}
	.st72{clip-path:url(#SVGID_51_);fill-opacity:0.1484;}
	.st73{mask:url(#mask268_1_);}
	.st74{clip-path:url(#SVGID_53_);}
	.st75{clip-path:url(#SVGID_55_);}
</style>
<g id="g12">
	<g id="g14">
		<g id="g16">
			<g id="g22">
				
					<linearGradient id="path30_1_" gradientUnits="userSpaceOnUse" x1="4.097819e-07" y1="18.5684" x2="24.1988" y2="18.5684" gradientTransform="matrix(1 0 0 -1 0 42.0003)">
					<stop  offset="0" style="stop-color:#D4D5FF"/>
					<stop  offset="1" style="stop-color:#2A2A54"/>
				</linearGradient>
				<path id="path30" inkscape:connector-curvature="0" class="st0" d="M22.3,10.2c0.7,0.7,1.2,1.4,1.4,2.1c0.3,0.8,0.5,1.9,0.5,3.3
					c0,1.3-0.1,4.5-0.4,9.6c-0.2,4.8-0.4,7.7-0.5,8.6c-0.1,1.1-0.6,2.1-1.4,3.1c-1.1,1.4-2.7,2.4-4.8,2.9c-1.7,0.5-3.4,0.7-5,0.6
					c-1.6,0.1-3.3-0.1-5-0.6c-2.1-0.6-3.8-1.6-4.8-2.9c-0.8-1-1.3-2-1.4-3.1c-0.1-0.9-0.3-3.8-0.5-8.6C0.1,20.1,0,16.9,0,15.6
					c0-1.4,0.2-2.5,0.5-3.3c0.2-0.6,0.7-1.3,1.4-2.1C3.1,8.9,4,7.7,4.6,6.5l7.5,0.4l7.5-0.4C20.3,7.7,21.2,9,22.3,10.2z"/>
			</g>
		</g>
	</g>
	<g id="g32">
		<g id="g34">
			<g id="g40">
				
					<linearGradient id="path48_2_" gradientUnits="userSpaceOnUse" x1="0.65" y1="18.7447" x2="23.35" y2="18.7447" gradientTransform="matrix(1 0 0 -1 0 42.0003)">
					<stop  offset="0" style="stop-color:#6E73E6"/>
					<stop  offset="1" style="stop-color:#373770"/>
				</linearGradient>
				<path id="path48" inkscape:connector-curvature="0" class="st1" d="M21.6,10.4c0.6,0.7,1.1,1.4,1.3,2c0.3,0.8,0.4,1.9,0.4,3.2
					c0,1.2-0.1,4.4-0.4,9.4c-0.2,4.4-0.3,7.2-0.4,8.3c-0.1,1.1-0.5,2.1-1.3,3c-1.1,1.3-2.6,2.3-4.6,2.9c-1.6,0.5-3.2,0.7-4.7,0.6
					c-1.5,0.1-3.1-0.1-4.7-0.6c-2-0.6-3.5-1.5-4.6-2.9c-0.8-1-1.2-2-1.3-3C1.4,32.5,1.2,29.7,1,25c-0.2-4.9-0.4-8-0.4-9.4
					c0-1.3,0.2-2.4,0.4-3.2c0.2-0.6,0.7-1.3,1.3-2C3.6,9,4.4,7.9,5,6.7L12,7.1l7-0.4C19.7,8,20.6,9.2,21.6,10.4z"/>
			</g>
		</g>
	</g>
	<g id="g212">
		<defs>
			<filter id="Adobe_OpacityMaskFilter" filterUnits="userSpaceOnUse" x="4.8" y="6.6" width="6.2" height="32.5">
				<feColorMatrix  type="matrix" values="1 0 0 0 0  0 1 0 0 0  0 0 1 0 0  0 0 0 1 0"/>
			</filter>
		</defs>
		<mask maskUnits="userSpaceOnUse" x="4.8" y="6.6" width="6.2" height="32.5" id="mask220_1_">
			<g id="g222_1_" class="st2">
				<g>
					<defs>
						<rect id="SVGID_1_" x="4.6" y="1.7" width="5" height="26"/>
					</defs>
					<clipPath id="SVGID_2_">
						<use xlink:href="#SVGID_1_"  style="overflow:visible;"/>
					</clipPath>
					<g id="g224_1_">
						<path id="path226_1_" inkscape:connector-curvature="0" class="st3" d="M4.6,1.7h5v26h-5C4.6,27.7,4.6,1.7,4.6,1.7z"/>
					</g>
				</g>
			</g>
		</mask>
		<g id="g228" class="st4">
			<g id="g250">
				<g>
					<defs>
						<rect id="SVGID_3_" x="4.8" y="6.6" width="6.2" height="32.5"/>
					</defs>
					<clipPath id="SVGID_4_">
						<use xlink:href="#SVGID_3_"  style="overflow:visible;"/>
					</clipPath>
					<g id="g252" class="st5">
						<g id="g254" transform="translate(0 -.66858)">
							<g id="g258">
								<g>
									<defs>
										<rect id="SVGID_5_" x="4.8" y="7.2" width="6.2" height="32.5"/>
									</defs>
									<clipPath id="SVGID_6_">
										<use xlink:href="#SVGID_5_"  style="overflow:visible;"/>
									</clipPath>
									<g id="g260" class="st6">
										<g id="g262">
											<g id="g264">
												<g id="g266">
													<g id="g268">
														
															<linearGradient id="path270_1_" gradientUnits="userSpaceOnUse" x1="-905.9334" y1="15404.0205" x2="-880.7734" y2="15404.0205" gradientTransform="matrix(6.960000e-02 0.9976 -0.9976 6.960000e-02 15437.9814 -157.4716)">
															<stop  offset="0" style="stop-color:#FFFFFF"/>
															<stop  offset="1" style="stop-color:#000000"/>
														</linearGradient>
														<path id="path270" inkscape:connector-curvature="0" class="st7" d="M9.1,8.3l1.9-0.6c0,0.3-0.2,1-0.6,2.2
															c-0.2,0.5-0.5,1.4-1.1,2.7c-0.5,1.1-0.7,1.9-0.8,2.3c-0.1,0.6-0.2,3.3-0.2,7.9c0,4.3,0,7.7,0.1,10.1
															c0,2.9,0.2,4.9,0.5,6.2c-0.3-0.2-0.8-0.7-1.4-1.5c-0.4-0.5-0.8-1-1.1-1.7l-0.4-0.8l-0.3-21c0-0.5,0.3-1.1,0.8-1.8
															c0.6-0.7,1-1.2,1.2-1.5C8.5,9.8,8.9,8.9,9.1,8.3z"/>
													</g>
												</g>
											</g>
										</g>
									</g>
								</g>
							</g>
						</g>
					</g>
				</g>
			</g>
		</g>
	</g>
	<g id="g272">
		<defs>
			<filter id="Adobe_OpacityMaskFilter_1_" filterUnits="userSpaceOnUse" x="16.2" y="6.2" width="6.2" height="32.5">
				<feColorMatrix  type="matrix" values="1 0 0 0 0  0 1 0 0 0  0 0 1 0 0  0 0 0 1 0"/>
			</filter>
		</defs>
		<mask maskUnits="userSpaceOnUse" x="16.2" y="6.2" width="6.2" height="32.5" id="mask280_1_">
			<g id="g282_1_" class="st8">
				<g>
					<defs>
						<rect id="SVGID_7_" x="13" y="1.3" width="5" height="26"/>
					</defs>
					<clipPath id="SVGID_8_">
						<use xlink:href="#SVGID_7_"  style="overflow:visible;"/>
					</clipPath>
					<g id="g284_1_">
						<path id="path286_1_" inkscape:connector-curvature="0" class="st9" d="M13,1.3h5v26h-5C13,27.3,13,1.3,13,1.3z"/>
					</g>
				</g>
			</g>
		</mask>
		<g id="g288" class="st10">
			<g id="g310">
				<g>
					<defs>
						<rect id="SVGID_9_" x="16.2" y="6.2" width="6.2" height="32.5"/>
					</defs>
					<clipPath id="SVGID_10_">
						<use xlink:href="#SVGID_9_"  style="overflow:visible;"/>
					</clipPath>
					<g id="g312" class="st11">
						<g id="g314" transform="translate(0 -.66858)">
							<g id="g318">
								<g>
									<defs>
										<rect id="SVGID_11_" x="16.2" y="6.9" width="6.2" height="32.5"/>
									</defs>
									<clipPath id="SVGID_12_">
										<use xlink:href="#SVGID_11_"  style="overflow:visible;"/>
									</clipPath>
									<g id="g320" class="st12">
										<g id="g322">
											<g id="g324">
												<g id="g326">
													<g id="g328">
														
															<linearGradient id="path330_1_" gradientUnits="userSpaceOnUse" x1="4.2164" y1="1108.1526" x2="2.4664" y2="1083.053" gradientTransform="matrix(1 0 0 1 16.9 -1073.2502)">
															<stop  offset="0" style="stop-color:#FFFFFF"/>
															<stop  offset="1" style="stop-color:#000000"/>
														</linearGradient>
														<path id="path330" inkscape:connector-curvature="0" class="st13" d="M18.8,8c0.2,0.6,0.6,1.5,1.4,2.7
															c0.2,0.3,0.6,0.8,1.1,1.5c0.5,0.7,0.8,1.3,0.8,1.8l-0.3,21l-0.4,0.8c-0.4,0.7-0.7,1.2-1.1,1.7
															c-0.6,0.7-1.1,1.2-1.4,1.5c0.4-1.3,0.6-3.3,0.6-6.2c0.1-10.5,0.1-16.5-0.2-18c-0.1-0.5-0.3-1.3-0.8-2.3
															c-0.5-1.3-0.9-2.2-1-2.7c-0.4-1.2-0.6-1.9-0.6-2.2L18.8,8z"/>
													</g>
												</g>
											</g>
										</g>
									</g>
								</g>
							</g>
						</g>
					</g>
				</g>
			</g>
		</g>
	</g>
	<g id="g332">
		<defs>
			<filter id="Adobe_OpacityMaskFilter_2_" filterUnits="userSpaceOnUse" x="2.5" y="6.2" width="20" height="6.3">
				<feColorMatrix  type="matrix" values="1 0 0 0 0  0 1 0 0 0  0 0 1 0 0  0 0 0 1 0"/>
			</filter>
		</defs>
		<mask maskUnits="userSpaceOnUse" x="2.5" y="6.2" width="20" height="6.3" id="mask340_1_">
			<g id="g342_1_" class="st14">
				<g>
					<defs>
						<rect id="SVGID_13_" x="2" y="22.3" width="16" height="5"/>
					</defs>
					<clipPath id="SVGID_14_">
						<use xlink:href="#SVGID_13_"  style="overflow:visible;"/>
					</clipPath>
					<g id="g344_1_">
						<path id="path346_1_" inkscape:connector-curvature="0" class="st15" d="M2,22.3h16v5H2V22.3z"/>
					</g>
				</g>
			</g>
		</mask>
		<g id="g348" class="st16">
			<g id="g360">
				<g>
					<defs>
						<rect id="SVGID_15_" x="2.5" y="6.3" width="20" height="6.2"/>
					</defs>
					<clipPath id="SVGID_16_">
						<use xlink:href="#SVGID_15_"  style="overflow:visible;"/>
					</clipPath>
					<g id="g362" class="st17">
						<g id="g364" transform="translate(0 -.66858)">
							<g id="g368">
								<g>
									<defs>
										<rect id="SVGID_17_" x="2.5" y="6.9" width="20" height="6.2"/>
									</defs>
									<clipPath id="SVGID_18_">
										<use xlink:href="#SVGID_17_"  style="overflow:visible;"/>
									</clipPath>
									<g id="g370" class="st18">
										<g id="g372">
											<path id="path374" inkscape:connector-curvature="0" class="st19" d="M20.6,8.3c0.2,0.6,0.7,1.3,1.5,2.3
												c-0.5,0.5-1,0.9-1.7,1.3c-0.4,0.2-1,0.4-1.8,0.4c-1,0.1-1.6,0.2-1.8,0.3c-0.4,0.1-1,0.2-1.8,0.1
												c-0.9-0.1-1.5-0.2-1.9-0.2c-0.2,0-0.8-0.2-1.6-0.5c-0.8-0.3-2-0.4-3.4-0.5c-1.3-0.1-2.3-0.2-2.9-0.5c0,0-0.4-0.2-1-0.8
												C3.8,10,3.3,9.9,2.7,9.9c0.5-1,1-1.7,1.4-2.2V7.4C14.9,7.4,20.4,7.7,20.6,8.3z"/>
										</g>
									</g>
								</g>
							</g>
						</g>
					</g>
				</g>
			</g>
		</g>
	</g>
	<g id="g376">
		<g id="g378">
			<g id="g384">
				
					<linearGradient id="path392_1_" gradientUnits="userSpaceOnUse" x1="1.65" y1="34.3494" x2="22.6512" y2="34.3494" gradientTransform="matrix(1 0 0 -1 0 42.0003)">
					<stop  offset="0" style="stop-color:#D6D8FF"/>
					<stop  offset="1" style="stop-color:#939AAD"/>
				</linearGradient>
				<path id="path392" inkscape:connector-curvature="0" class="st20" d="M20.4,6.2c0.2,0.6,0.6,1.1,1.3,1.3
					c0.3,0.1,0.6,0.2,0.9,0.2c0,0.2-0.1,0.3-0.2,0.5c-0.2,0.3-0.5,0.5-1.1,0.6c-0.2,0-0.4,0.1-0.6,0.4c-0.2,0.2-0.5,0.3-0.8,0.3
					c-0.8,0-1.7,0.1-2.5,0.3c-0.3,0.1-0.8,0.3-1.4,0.6c-0.6,0.3-1.1,0.5-1.4,0.5c-0.8-0.1-1.4-0.2-1.7-0.1c-0.6,0.1-1.1,0-1.7-0.2
					C9.9,10,8.7,10,7.5,10.2c-1,0.2-2,0-2.9-0.7C4.2,9.2,3.8,9.1,3.5,9C3,9,2.7,9,2.6,8.9C2.4,8.7,2.1,8.5,1.9,8.1L1.7,7.7
					c0.9-0.3,1.5-0.6,1.7-0.9c0.3-0.3,0.6-1,0.9-2.3c2.6,0,5.2,0.1,7.9,0.2C17.5,5.1,20.2,5.6,20.4,6.2z"/>
			</g>
		</g>
	</g>
	<g id="g394">
		<g id="g396">
			<g id="g402">
				
					<linearGradient id="path410_1_" gradientUnits="userSpaceOnUse" x1="2.0513" y1="33.4994" x2="22.6513" y2="33.4994" gradientTransform="matrix(1 0 0 -1 0 42.0003)">
					<stop  offset="0" style="stop-color:#8CADDE"/>
					<stop  offset="1" style="stop-color:#516D96"/>
				</linearGradient>
				<path id="path410" inkscape:connector-curvature="0" class="st21" d="M22.7,7.7c0,0.1-0.1,0.3-0.2,0.4c-0.2,0.3-0.5,0.5-1,0.6
					c-0.4-0.3-1-0.9-1.6-1.6c-0.2-0.2-0.5-0.2-1,0.1l-0.6,0.5l0.2,1.9l-1,0.2c-0.3,0.1-0.8,0.3-1.4,0.6c-0.6,0.3-1,0.4-1.3,0.5
					L15,10c0.3-0.7,0.5-1.3,0.6-2l-3.5,0c-0.1,0.4-0.4,0.9-0.9,1.5c-0.2,0.3-0.4,0.6-0.6,0.8c-1.1-0.3-2.2-0.3-3.1,0
					c-0.2,0.1-0.4,0.1-0.8,0.1L7.3,10c1-0.5,1.7-1.2,2.1-2.1L8.2,7.3L6.9,7.5l-1,0.7c-0.3,0.3-1,0.6-1.9,1c-0.6,0-1-0.1-1.3-0.3
					L2.1,8.3l0.7-0.2c0.9-0.2,1.8-0.8,2.9-1.9l15.1,0.5c0.4,0.6,0.9,0.9,1.5,0.9C22.3,7.6,22.7,7.7,22.7,7.7z"/>
			</g>
		</g>
	</g>
	<g id="g412">
		<defs>
			<filter id="Adobe_OpacityMaskFilter_3_" filterUnits="userSpaceOnUse" x="2.5" y="5" width="18.8" height="5">
				<feColorMatrix  type="matrix" values="1 0 0 0 0  0 1 0 0 0  0 0 1 0 0  0 0 0 1 0"/>
			</filter>
		</defs>
		<mask maskUnits="userSpaceOnUse" x="2.5" y="5" width="18.8" height="5" id="mask420_1_">
			<g id="g422_1_" class="st22">
				<g>
					<defs>
						<rect id="SVGID_19_" x="2" y="24.3" width="15" height="4"/>
					</defs>
					<clipPath id="SVGID_20_">
						<use xlink:href="#SVGID_19_"  style="overflow:visible;"/>
					</clipPath>
					<g id="g424_1_">
						<path id="path426_1_" inkscape:connector-curvature="0" class="st23" d="M2,24.3h15v4H2V24.3z"/>
					</g>
				</g>
			</g>
		</mask>
		<g id="g428" class="st24">
			<g id="g440">
				<g>
					<defs>
						<rect id="SVGID_21_" x="2.5" y="5" width="18.8" height="5"/>
					</defs>
					<clipPath id="SVGID_22_">
						<use xlink:href="#SVGID_21_"  style="overflow:visible;"/>
					</clipPath>
					<g id="g442" class="st25">
						<g id="g444" transform="translate(0 -.66858)">
							<g id="g448">
								<g>
									<defs>
										<rect id="SVGID_23_" x="2.5" y="5.7" width="18.8" height="5"/>
									</defs>
									<clipPath id="SVGID_24_">
										<use xlink:href="#SVGID_23_"  style="overflow:visible;"/>
									</clipPath>
									<g id="g450" class="st26">
										<g id="g452">
											<path id="path454" inkscape:connector-curvature="0" class="st27" d="M20.8,7.4c0.2,0.3,0.3,0.5,0.4,0.7
												c0,0.1-0.1,0.2-0.3,0.3c-0.1,0.2-0.4,0.3-0.7,0.4c-0.5,0.1-0.9,0.2-1.3,0.3c-1.8,0.2-2.9,0.3-3.4,0.5
												c-0.6,0.3-1.2,0.4-2,0.5c-0.2,0-0.5,0-0.9-0.2c-0.5-0.2-1-0.4-1.3-0.5c-1.1-0.3-2.1-0.2-3.1,0.2C7.7,9.9,7.2,9.7,6.8,9.2
												C6.8,9.1,6.4,9,5.8,8.9c-0.6-0.1-1-0.2-1.2-0.5c-0.8-0.6-1.1-1.3-1.1-2C14.7,6.6,20.4,6.9,20.8,7.4z"/>
										</g>
									</g>
								</g>
							</g>
						</g>
					</g>
				</g>
			</g>
		</g>
	</g>
	<g id="g456">
		<g id="g458">
			<g id="g464">
				
					<linearGradient id="path472_1_" gradientUnits="userSpaceOnUse" x1="3.3013" y1="35.5506" x2="20.7765" y2="35.5506" gradientTransform="matrix(1 0 0 -1 0 42.0003)">
					<stop  offset="0" style="stop-color:#FFE5A3"/>
					<stop  offset="1" style="stop-color:#87733D"/>
				</linearGradient>
				<path id="path472" inkscape:connector-curvature="0" class="st28" d="M20.8,6.5c0,0.6-0.9,1.1-2.5,1.4c-1.7,0.4-3.8,0.6-6.2,0.6
					c-2.4,0-4.5-0.2-6.2-0.6C4.2,7.5,3.3,7,3.3,6.5S4.2,5.4,5.9,5c1.7-0.4,3.8-0.6,6.2-0.6c2.4,0,4.5,0.2,6.2,0.6
					C20,5.4,20.8,5.9,20.8,6.5z"/>
			</g>
		</g>
	</g>
	<g id="g474">
		<g id="g476">
			<g id="g482">
				
					<linearGradient id="path494_1_" gradientUnits="userSpaceOnUse" x1="3.2525" y1="37.25" x2="20.9275" y2="37.25" gradientTransform="matrix(1 0 0 -1 0 42.0003)">
					<stop  offset="0" style="stop-color:#2B2BE2"/>
					<stop  offset="0.3255" style="stop-color:#3045FF"/>
					<stop  offset="0.6" style="stop-color:#3241F6"/>
					<stop  offset="1" style="stop-color:#3636E0"/>
				</linearGradient>
				<path id="path494" inkscape:connector-curvature="0" class="st29" d="M21,2.1v3.6c-0.1,0.4-1,0.8-2.7,1.2
					c-1.8,0.4-3.9,0.6-6.2,0.6c-2.3,0-4.4-0.2-6.2-0.6C4.2,6.5,3.3,6.1,3.3,5.6V2.1C3.3,2.1,21,2.1,21,2.1z"/>
			</g>
		</g>
	</g>
	<g id="g496">
		<g id="g498">
			<g id="g504">
				
					<linearGradient id="path514_1_" gradientUnits="userSpaceOnUse" x1="-1872.7202" y1="1151.1407" x2="-1856.7017" y2="1151.1407" gradientTransform="matrix(-0.9973 7.340000e-02 7.340000e-02 0.9973 -1932.6202 -1008.9752)">
					<stop  offset="0" style="stop-color:#3B5BFF"/>
					<stop  offset="0.8157" style="stop-color:#3B52FF"/>
					<stop  offset="1" style="stop-color:#3B4FFF"/>
				</linearGradient>
				<path id="path514" inkscape:connector-curvature="0" class="st30" d="M20.9,2.1c0,0.5-0.9,0.9-2.6,1.2c-1.7,0.3-3.8,0.5-6.2,0.5
					c-2.5,0-4.6-0.2-6.2-0.5C4.1,3,3.2,2.6,3.2,2.1c0-0.5,0.9-0.9,2.6-1.2c1.7-0.3,3.8-0.5,6.2-0.5c2.4,0,4.5,0.2,6.2,0.5
					C20,1.3,20.9,1.7,20.9,2.1z"/>
			</g>
		</g>
	</g>
	<g id="g516">
		<defs>
			<filter id="Adobe_OpacityMaskFilter_4_" filterUnits="userSpaceOnUse" x="3.8" y="6.2" width="11.2" height="2.5">
				<feColorMatrix  type="matrix" values="1 0 0 0 0  0 1 0 0 0  0 0 1 0 0  0 0 0 1 0"/>
			</filter>
		</defs>
		<mask maskUnits="userSpaceOnUse" x="3.8" y="6.2" width="11.2" height="2.5" id="mask524_1_">
			<g id="g526_1_" class="st31">
				<g>
					<defs>
						<rect id="SVGID_25_" x="3" y="25.3" width="9" height="2"/>
					</defs>
					<clipPath id="SVGID_26_">
						<use xlink:href="#SVGID_25_"  style="overflow:visible;"/>
					</clipPath>
					<g id="g528_1_">
						<path id="path530_1_" inkscape:connector-curvature="0" class="st32" d="M3,25.3h9v2H3V25.3z"/>
					</g>
				</g>
			</g>
		</mask>
		<g id="g532" class="st33">
			<g id="g544">
				<g>
					<defs>
						<rect id="SVGID_27_" x="3.8" y="6.3" width="11.2" height="2.5"/>
					</defs>
					<clipPath id="SVGID_28_">
						<use xlink:href="#SVGID_27_"  style="overflow:visible;"/>
					</clipPath>
					<g id="g546" class="st34">
						<g id="g548" transform="translate(0 -.66858)">
							<g id="g552">
								<g>
									<defs>
										<rect id="SVGID_29_" x="3.8" y="6.9" width="11.2" height="2.5"/>
									</defs>
									<clipPath id="SVGID_30_">
										<use xlink:href="#SVGID_29_"  style="overflow:visible;"/>
									</clipPath>
									<g id="g554" class="st35">
										<g id="g556">
											<path id="path558" inkscape:connector-curvature="0" class="st36" d="M4.8,8c0.6,0.2,1.7,0.4,3.1,0.6
												C9.6,8.8,11.6,9,13.8,9c-0.1,0.2-1.1,0.2-3.2,0.1C7.9,9,5.9,8.7,4.6,8.2C4.4,8.1,4.3,8,4.3,8C4.4,7.9,4.6,7.9,4.8,8z"/>
										</g>
									</g>
								</g>
							</g>
						</g>
					</g>
				</g>
			</g>
		</g>
	</g>
	<path id="path560" inkscape:connector-curvature="0" class="st37" d="M4.6,36.8c0.7,0.4,1.1,0.7,1.2,1.1c0.1,0.4,0,0.6-0.2,0.6
		c-0.4,0-1.1-0.4-1.9-1.2c-0.4-0.4-0.4-0.6-0.1-0.7C3.8,36.5,4.2,36.6,4.6,36.8z"/>
	<path id="path562" inkscape:connector-curvature="0" class="st37" d="M7.2,38.1c0.5,0.1,0.6,0.3,0.4,0.6C7.4,39,7.2,39,7,38.8
		c-0.2-0.1-0.3-0.3-0.3-0.5C6.7,38.1,6.9,38.1,7.2,38.1z"/>
	<g id="g564">
		<g id="g566">
			<g id="g572">
				
					<linearGradient id="path580_1_" gradientUnits="userSpaceOnUse" x1="2.8125" y1="38.1247" x2="21.3936" y2="38.1247" gradientTransform="matrix(1 0 0 -1 0 42.0003)">
					<stop  offset="0" style="stop-color:#D6D8FF"/>
					<stop  offset="1" style="stop-color:#7B8191"/>
				</linearGradient>
				<path id="path580" inkscape:connector-curvature="0" class="st38" d="M20.9,6c-0.3,0.4-1.1,0.8-2.3,1.1
					c-1.7,0.4-3.9,0.6-6.7,0.7C8,7.8,5.2,7.3,3.3,6.5C3,6.3,2.8,5.7,2.8,4.6c0-0.9,0-1.6,0.1-2.2c0.1-0.6,0.8-1.1,2-1.6
					C6.5,0.3,8.7,0,11.5,0c3.1,0,5.6,0.2,7.3,0.8c1.6,0.5,2.4,1.1,2.5,1.8C21.5,4.3,21.3,5.4,20.9,6z"/>
			</g>
		</g>
	</g>
	<g id="g582">
		<g id="g584">
			<g id="g590">
				
					<linearGradient id="path598_1_" gradientUnits="userSpaceOnUse" x1="2.75" y1="37.0519" x2="21.25" y2="37.0519" gradientTransform="matrix(1 0 0 -1 0 42.0003)">
					<stop  offset="0" style="stop-color:#8CADDE"/>
					<stop  offset="1" style="stop-color:#516D96"/>
				</linearGradient>
				<path id="path598" inkscape:connector-curvature="0" class="st39" d="M21.3,2.5l0,0.9c-1.4,1.3-2.3,2.3-2.7,3l-0.4,0.7
					c-0.9,0.2-1.7,0.3-2.5,0.4c1.7-2.1,3-3.5,4-4.1C20.5,3,21,2.6,21.2,2.3L21.3,2.5z"/>
			</g>
		</g>
	</g>
	<g id="g600">
		<g id="g602">
			<g id="g608">
				
					<linearGradient id="path616_1_" gradientUnits="userSpaceOnUse" x1="2.75" y1="39.0513" x2="21.25" y2="39.0513" gradientTransform="matrix(1 0 0 -1 0 42.0003)">
					<stop  offset="0" style="stop-color:#8CADDE"/>
					<stop  offset="1" style="stop-color:#516D96"/>
				</linearGradient>
				<path id="path616" inkscape:connector-curvature="0" class="st40" d="M4.2,2.7L9.6,0l2.9,0c-1.4,0.8-3,1.6-4.8,2.3
					C7,2.7,6.2,2.9,5.5,3.1C4.4,4,3.6,5,3,5.9C2.9,5.5,2.8,4.9,2.8,4C2.9,3.9,2.9,3.8,3,3.8C3.3,3.4,3.7,3,4.2,2.7z"/>
			</g>
		</g>
	</g>
	<g id="g618">
		<g id="g620">
			<g id="g626">
				
					<linearGradient id="path634_1_" gradientUnits="userSpaceOnUse" x1="2.75" y1="38.2256" x2="21.25" y2="38.2256" gradientTransform="matrix(1 0 0 -1 0 42.0003)">
					<stop  offset="0" style="stop-color:#8CADDE"/>
					<stop  offset="1" style="stop-color:#516D96"/>
				</linearGradient>
				<path id="path634" inkscape:connector-curvature="0" class="st41" d="M11.7,1.9c1-0.4,2.1-1,3.3-1.8l2.5,0.4
					c-2,1.2-3.3,1.9-3.8,2.1l-2.9,1.2C9.8,4.2,8.9,5,8.1,5.9L6.9,7.5C6.3,7.3,5.6,7.2,4.6,6.9c1-1.2,1.8-2.1,2.5-2.7
					c0.4-0.3,0.7-0.5,1-0.6C8,3.6,11.7,1.9,11.7,1.9z"/>
			</g>
		</g>
	</g>
	<g id="g636">
		<g id="g638">
			<g id="g644">
				
					<linearGradient id="path652_1_" gradientUnits="userSpaceOnUse" x1="2.75" y1="37.7012" x2="21.25" y2="37.7012" gradientTransform="matrix(1 0 0 -1 0 42.0003)">
					<stop  offset="0" style="stop-color:#8CADDE"/>
					<stop  offset="1" style="stop-color:#516D96"/>
				</linearGradient>
				<path id="path652" inkscape:connector-curvature="0" class="st42" d="M12.3,4.6l6.8-3.8c0.6,0.2,1.1,0.4,1.4,0.7l-3.8,2
					c-1.6,0.8-2.8,1.8-3.7,3.1l-0.8,1.1l-2.6,0C10.8,6.2,11.6,5.1,12.3,4.6z"/>
			</g>
		</g>
	</g>
	<g id="g654">
		<g id="g656">
			<g id="g662">
				
					<linearGradient id="path670_1_" gradientUnits="userSpaceOnUse" x1="-1877.551" y1="1146.2271" x2="-1858.5317" y2="1146.2271" gradientTransform="matrix(-0.9977 6.840000e-02 6.840000e-02 0.9977 -1930.1938 -1013.9347)">
					<stop  offset="0" style="stop-color:#D6D8FF"/>
					<stop  offset="1" style="stop-color:#939AAD"/>
				</linearGradient>
				<path id="path670" inkscape:connector-curvature="0" class="st43" d="M12.2,3.8C7.6,3.8,4.6,3.2,3,2.2c0.3-0.6,1-1.1,2.3-1.4
					C6.8,0.2,8.9,0,11.5,0c5.5,0,8.7,0.7,9.6,2.1C19.8,3.2,16.8,3.8,12.2,3.8z"/>
			</g>
		</g>
	</g>
	<g id="g672">
		<g id="g674">
			<g id="g680">
				
					<linearGradient id="path688_1_" gradientUnits="userSpaceOnUse" x1="-1653.9358" y1="1394.9395" x2="-1640.9604" y2="1394.9395" gradientTransform="matrix(-0.9306 0.3661 0.3661 0.9306 -2033.6598 -694.3697)">
					<stop  offset="0" style="stop-color:#8CADDE"/>
					<stop  offset="1" style="stop-color:#516D96"/>
				</linearGradient>
				<path id="path688" inkscape:connector-curvature="0" class="st44" d="M4.2,2.7L9.6,0l2.9,0c-1.4,0.8-3,1.6-4.8,2.3L5.5,3.1
					L4.2,2.7C4.1,2.7,4.2,2.7,4.2,2.7z"/>
			</g>
		</g>
	</g>
	<g id="g690">
		<g id="g692">
			<g id="g698">
				
					<linearGradient id="path706_1_" gradientUnits="userSpaceOnUse" x1="-1653.9308" y1="1397.1619" x2="-1640.9546" y2="1397.1619" gradientTransform="matrix(-0.9306 0.3661 0.3661 0.9306 -2033.6598 -694.3697)">
					<stop  offset="0" style="stop-color:#8CADDE"/>
					<stop  offset="1" style="stop-color:#516D96"/>
				</linearGradient>
				<path id="path706" inkscape:connector-curvature="0" class="st45" d="M17.5,0.4C17,0.6,16.2,1,15.2,1.5c-1.1,0.6-1.8,0.9-2,1
					l-2.4,1.2L8,3.5l3.8-1.6c1-0.4,2.1-1,3.3-1.8v0.1l1.4,0.1l0.9,0.2C17.3,0.4,17.5,0.4,17.5,0.4z"/>
			</g>
		</g>
	</g>
	<g id="g708">
		<g id="g710">
			<g id="g716">
				
					<linearGradient id="path724_1_" gradientUnits="userSpaceOnUse" x1="-1653.9608" y1="1399.2671" x2="-1640.9854" y2="1399.2671" gradientTransform="matrix(-0.9306 0.3661 0.3661 0.9306 -2033.6598 -694.3697)">
					<stop  offset="0" style="stop-color:#8CADDE"/>
					<stop  offset="1" style="stop-color:#516D96"/>
				</linearGradient>
				<path id="path724" inkscape:connector-curvature="0" class="st46" d="M13.8,3.7l5.3-2.9L20,1.2L20,1.2l0.5,0.3h0l-3.5,1.9
					C17.1,3.5,13.8,3.7,13.8,3.7z"/>
			</g>
		</g>
	</g>
	<linearGradient id="SVGID_31_" gradientUnits="userSpaceOnUse" x1="2.5491" y1="24.4453" x2="21.6059" y2="24.4453">
		<stop  offset="0" style="stop-color:#C2B294"/>
		<stop  offset="7.142900e-02" style="stop-color:#C7B89B"/>
		<stop  offset="0.1429" style="stop-color:#CBC1A3"/>
		<stop  offset="0.2143" style="stop-color:#D2C8AD"/>
		<stop  offset="0.2857" style="stop-color:#D8CFB6"/>
		<stop  offset="0.3571" style="stop-color:#D9D2B8"/>
		<stop  offset="0.4286" style="stop-color:#D9D2B8"/>
		<stop  offset="0.5" style="stop-color:#D9D2B8"/>
		<stop  offset="0.5714" style="stop-color:#D9D2B8"/>
		<stop  offset="0.6429" style="stop-color:#D6CFB5"/>
		<stop  offset="0.7143" style="stop-color:#D3C8AD"/>
		<stop  offset="0.7857" style="stop-color:#CDC1A6"/>
		<stop  offset="0.8571" style="stop-color:#C7B79C"/>
		<stop  offset="0.9286" style="stop-color:#BFAD8F"/>
		<stop  offset="1" style="stop-color:#BBAC89"/>
	</linearGradient>
	<path class="st47" d="M21.6,26.4c0-0.1,0-0.2,0-0.3c0-0.1,0-0.2,0-0.3c-0.1-0.2-0.2-0.5-0.1-0.8c0-0.1,0.1-0.2,0.1-0.3
		c0-0.1,0-0.1-0.1-0.2c-0.1-0.2-0.2-0.4-0.1-0.6c0-0.1,0.1-0.3,0.2-0.4c0-0.2,0-0.3,0-0.5c0-0.1,0-0.3,0-0.4c0-0.1,0-0.3,0-0.4
		c0,0,0,0,0-0.1c0-0.1,0-0.2,0-0.3c0-0.1-0.1-0.2-0.1-0.3c0-0.2,0.1-0.4,0.1-0.6c0-0.2,0-0.5,0-0.7c0-0.1,0-0.2,0.1-0.2
		c0.1-0.1,0.1-0.1,0.2-0.2c0-0.1-0.1-0.3-0.1-0.4c-0.1-0.2-0.1-0.3-0.1-0.5c0,0,0-0.1,0-0.1c0,0,0,0,0-0.1c0-0.1,0-0.2,0-0.3
		c0-0.1,0-0.1,0-0.2c0,0,0-0.1-0.1-0.1c-0.2-0.1-0.4,0-0.6-0.1c-0.2,0-0.4-0.1-0.6-0.1c-0.2,0-0.4,0.1-0.6,0.1
		c-0.2,0-0.4,0.1-0.6,0.1c-0.2,0-0.3-0.1-0.4-0.2c-0.2,0-0.4,0-0.5,0.1c-0.2,0.1-0.4,0.1-0.6,0.1c-0.1,0-0.1-0.1-0.1-0.1
		c-0.2,0.1-0.5,0.1-0.7,0.1c-0.2,0-0.3,0-0.5-0.1s-0.3-0.1-0.5-0.1c-0.2,0-0.3,0-0.5,0c-0.1,0-0.2,0.1-0.4,0.1c0,0,0,0,0,0
		s0,0-0.1,0c-0.3,0-0.7,0-1-0.1c0,0-0.1,0-0.1,0s0,0,0,0c0,0-0.1,0-0.1,0c-0.1,0-0.2-0.1-0.3,0c-0.1,0-0.1,0.1-0.2,0.1
		c-0.2,0.1-0.4,0.1-0.7,0c-0.1,0-0.2-0.1-0.4-0.1c-0.1,0-0.2,0.1-0.3,0.1c-0.2,0.1-0.5,0-0.7,0.1c0,0-0.1,0-0.1,0
		c-0.3,0.1-0.6,0.2-0.9,0.1c-0.2,0-0.4-0.1-0.5-0.1c-0.2,0-0.3,0-0.5,0c-0.4,0-0.8,0.1-1.1,0.1c-0.1,0-0.1-0.1-0.1-0.1c0,0,0,0,0,0
		c0,0,0-0.1,0-0.1c0,0,0,0,0,0c-0.2-0.1-0.4,0-0.6,0c-0.2,0-0.4,0.1-0.6,0.1c-0.2,0.1-0.3,0.1-0.5,0.2c-0.2,0-0.3,0-0.5-0.1
		c-0.1-0.1-0.2-0.2-0.4-0.2c0,0-0.1,0-0.1,0c-0.2,0-0.3,0.1-0.5,0.1c-0.2,0-0.3,0-0.5-0.1C4,18.2,4,18.2,4,18.1c0,0,0,0-0.1,0
		c0,0-0.1,0-0.1,0c-0.1,0-0.2,0-0.2,0c0,0.1,0,0.1-0.1,0.1c-0.2,0-0.4-0.1-0.6-0.1c0,0.1-0.1,0.2-0.1,0.4c0,0.2,0.1,0.3,0.1,0.5
		c0.1,0.3,0,0.5-0.1,0.8c0,0.1-0.1,0.3,0,0.4c0,0.1,0.1,0.2,0.1,0.4c0,0.1,0,0.3-0.1,0.4c0.2,0.3-0.1,0.6,0,0.9
		c0,0.2,0.1,0.4,0.1,0.6c0,0.2,0,0.4,0.1,0.6c0,0.2,0.1,0.4,0.1,0.6c0,0.1,0,0.2,0,0.3c0,0.1,0,0.2,0,0.3c0,0.3-0.1,0.6-0.3,0.8
		c0,0,0,0.1,0,0.1c0,0.1,0,0.2,0,0.4c0,0,0,0,0,0.1c0,0,0,0,0,0c0.1,0,0.1,0,0.1,0.1c0.1,0.1,0,0.3-0.1,0.4c0,0.1-0.1,0.1-0.1,0.2
		c0,0.1,0,0.2,0,0.3c0,0.1,0.1,0.2,0.2,0.3c0,0,0.1,0.1,0.1,0.1c0,0,0,0.1,0,0.1c0,0,0,0,0.1,0c0.1,0.1,0,0.3,0,0.4c0,0,0,0,0,0
		c0,0,0,0,0,0C3,27.6,3,27.7,3,27.8c0,0.1-0.2,0.3-0.2,0.4c0,0.1,0,0.2,0,0.3c0,0.1,0,0.2,0,0.2C2.9,28.7,3,28.8,3,28.9
		c0.2,0.2,0.1,0.5,0,0.7c0,0.1-0.1,0.3-0.1,0.4c0,0.1-0.1,0.1-0.2,0.2c0,0.1,0.1,0.2,0.1,0.2c0,0.1,0,0.1,0,0.2c0.1,0,0.1,0,0.2,0
		c0.1,0,0.2,0.1,0.3,0.1c0.2,0.1,0.5,0,0.7,0c0,0,0,0,0,0c0,0,0.1-0.1,0.1,0c0.2,0,0.3,0,0.5-0.1c0.1-0.1,0.2-0.1,0.3-0.1
		c0.1,0,0.3,0.1,0.4,0.1c0.2,0,0.3,0,0.5,0c0.2,0,0.4,0,0.5,0c0.2,0,0.3-0.1,0.5-0.1c0.1,0,0.3,0,0.4,0c0.1,0,0.2,0,0.4,0
		c0,0,0,0,0,0c0.1,0,0.3,0,0.4,0c0.1,0,0.2,0,0.3-0.1c0.2-0.1,0.4-0.1,0.6,0c0,0,0,0,0,0c0,0,0,0,0.1,0c0,0,0,0,0.1,0
		c0.5-0.2,1-0.2,1.5-0.2c0.1,0,0.1,0.1,0.1,0.1h0c0.2-0.2,0.6-0.2,0.8-0.1c0.2,0,0.3,0.1,0.5,0.1c0.3,0,0.5,0,0.8,0c0,0,0.1,0,0.1,0
		c0,0,0,0,0,0c0.2,0,0.3-0.1,0.5-0.1c0.2,0,0.4,0.2,0.6,0.2c0.2,0,0.4-0.1,0.5-0.1c0.2,0,0.4,0,0.5,0c0.1,0,0.1,0.1,0.1,0.2
		c0,0,0,0,0.1,0c0.2,0,0.3-0.1,0.4-0.1c0.1,0,0.3,0,0.4,0c0,0,0,0,0,0c0.1,0,0.2-0.1,0.4-0.1c0.2,0,0.3,0,0.4,0.1c0.2,0,0.3,0,0.5,0
		c0.1,0,0.3,0,0.4,0c0.2,0,0.5-0.1,0.7-0.1c0.1,0,0.3,0,0.4,0.1c0.3,0,0.7,0,1-0.1c0.2,0,0.4-0.1,0.6,0c0.2,0,0.3,0.1,0.5,0.1
		c0,0,0.1-0.1,0.1-0.1c0.1-0.1,0.2-0.1,0.3-0.1c0-0.1-0.1-0.2-0.1-0.4c0-0.1,0-0.2,0-0.3c0-0.1,0-0.2-0.1-0.4c0-0.2,0-0.4,0-0.6
		c0.1-0.2,0.2-0.4,0.1-0.6c0-0.2,0-0.3,0.1-0.5c0,0,0,0,0-0.1c0-0.1-0.1-0.1-0.1-0.2c0-0.1,0-0.3,0.1-0.4
		C21.6,26.7,21.6,26.5,21.6,26.4z"/>
	<g id="g12_2_">
		<g id="g14_2_">
			<g id="g16_2_">
				<g id="g22_2_">
					
						<radialGradient id="path30_3_" cx="178.2136" cy="286.3947" r="5.4683" gradientTransform="matrix(0.7174 0.6967 -0.6084 0.8212 60.5877 -337.1443)" gradientUnits="userSpaceOnUse">
						<stop  offset="0" style="stop-color:#8589FF"/>
						<stop  offset="1" style="stop-color:#404082"/>
					</radialGradient>
					<path id="path30_2_" inkscape:connector-curvature="0" class="st48" d="M18.8,21.9c0.5,1.3,0.4,2.4-0.3,3.3
						c-0.9,1.1-2,1.5-3.5,1.3c-1.5-0.2-2.4-0.8-2.9-1.8c-0.5-1.3-0.4-2.4,0.3-3.4c0.7-1,1.7-1.5,3-1.5
						C17.1,19.8,18.3,20.5,18.8,21.9z"/>
				</g>
			</g>
		</g>
		<path id="path32_1_" inkscape:connector-curvature="0" class="st49" d="M18.6,25.2c-0.8,1-2,1.5-3.4,1.4c-1.4-0.1-2.4-0.7-2.9-1.6
			c1,0.9,2.1,1.3,3.3,1.2c1-0.1,1.8-0.6,2.2-1.3c0.9-1.5,1-2.8,0.3-4c0.6,0.6,0.9,1.4,0.9,2.3C19.2,24,19,24.7,18.6,25.2z"/>
		<g id="g34_2_">
			<defs>
				<filter id="Adobe_OpacityMaskFilter_5_" filterUnits="userSpaceOnUse" x="12.2" y="19.8" width="5" height="3.5">
					<feColorMatrix  type="matrix" values="1 0 0 0 0  0 1 0 0 0  0 0 1 0 0  0 0 0 1 0"/>
				</filter>
			</defs>
			<mask maskUnits="userSpaceOnUse" x="12.2" y="19.8" width="5" height="3.5" id="mask42_1_">
				<g id="g44_1_" class="st50">
					<g>
						<defs>
							<rect id="SVGID_32_" x="10.9" y="24.4" width="4" height="2.8"/>
						</defs>
						<clipPath id="SVGID_33_">
							<use xlink:href="#SVGID_32_"  style="overflow:visible;"/>
						</clipPath>
						<g id="g46_1_">
							<path id="path48_1_" inkscape:connector-curvature="0" class="st51" d="M10.9,24.4h4v2.8h-4V24.4z"/>
						</g>
					</g>
				</g>
			</mask>
			<g id="g50_1_" class="st52">
				<g id="g62_1_">
					<g>
						<defs>
							<rect id="SVGID_34_" x="12.2" y="19.8" width="5" height="3.5"/>
						</defs>
						<clipPath id="SVGID_35_">
							<use xlink:href="#SVGID_34_"  style="overflow:visible;"/>
						</clipPath>
						<g id="g64_1_" class="st53">
							<g id="g66_1_" transform="translate(0 -.040792)">
								<g id="g70_1_">
									<g>
										<defs>
											<rect id="SVGID_36_" x="12.2" y="19.9" width="5" height="3.5"/>
										</defs>
										<clipPath id="SVGID_37_">
											<use xlink:href="#SVGID_36_"  style="overflow:visible;"/>
										</clipPath>
										<g id="g72_1_" class="st54">
											<g id="g74_1_">
												<path id="path76_1_" inkscape:connector-curvature="0" class="st36" d="M16.9,21.1c0.1,0.4,0,0.7-0.4,1
													c-0.5,0.4-1.2,0.7-2.3,0.9c-1.6,0.2-2.2-0.2-1.8-1.2c0.2-0.4,0.4-0.7,0.9-1c0.4-0.2,0.7-0.4,1.1-0.5
													C15.9,20,16.8,20.3,16.9,21.1z"/>
											</g>
										</g>
									</g>
								</g>
							</g>
						</g>
					</g>
				</g>
			</g>
		</g>
		<g id="g78_1_">
			<defs>
				<filter id="Adobe_OpacityMaskFilter_6_" filterUnits="userSpaceOnUse" x="12.9" y="19.8" width="2.8" height="2.1">
					<feColorMatrix  type="matrix" values="1 0 0 0 0  0 1 0 0 0  0 0 1 0 0  0 0 0 1 0"/>
				</filter>
			</defs>
			<mask maskUnits="userSpaceOnUse" x="12.9" y="19.8" width="2.8" height="2.1" id="mask86_1_">
				<g id="g88_1_" class="st55">
					<g>
						<defs>
							<rect id="SVGID_38_" x="11.5" y="25.5" width="2.3" height="1.7"/>
						</defs>
						<clipPath id="SVGID_39_">
							<use xlink:href="#SVGID_38_"  style="overflow:visible;"/>
						</clipPath>
						<g id="g90_1_">
							<path id="path92_1_" inkscape:connector-curvature="0" class="st56" d="M11.5,25.5h2.3v1.7h-2.3V25.5z"/>
						</g>
					</g>
				</g>
			</mask>
			<g id="g94_1_" class="st57">
				<g id="g106_1_">
					<g>
						<defs>
							<rect id="SVGID_40_" x="12.9" y="19.8" width="2.8" height="2.1"/>
						</defs>
						<clipPath id="SVGID_41_">
							<use xlink:href="#SVGID_40_"  style="overflow:visible;"/>
						</clipPath>
						<g id="g108_1_" class="st58">
							<g id="g110_1_" transform="translate(0 -.040792)">
								<g id="g114_1_">
									<g>
										<defs>
											<rect id="SVGID_42_" x="12.9" y="19.9" width="2.8" height="2.1"/>
										</defs>
										<clipPath id="SVGID_43_">
											<use xlink:href="#SVGID_42_"  style="overflow:visible;"/>
										</clipPath>
										<g id="g116_1_" class="st59">
											<g id="g118_1_">
												<path id="path120_1_" inkscape:connector-curvature="0" class="st36" d="M15.5,20.6c0.2,0.2,0.1,0.5-0.3,0.8
													c-0.3,0.3-0.7,0.5-1.3,0.5c-0.5,0.1-0.9,0-0.9-0.3c-0.1-0.2,0-0.4,0.2-0.6c0.2-0.2,0.5-0.4,0.8-0.5
													C14.9,20.4,15.4,20.4,15.5,20.6z"/>
											</g>
										</g>
									</g>
								</g>
							</g>
						</g>
					</g>
				</g>
			</g>
		</g>
		<g id="g122_1_">
			<g id="g124_1_">
				<g id="g130_1_">
					
						<linearGradient id="path138_2_" gradientUnits="userSpaceOnUse" x1="-1968.0143" y1="1030.8237" x2="-1961.9719" y2="1030.8237" gradientTransform="matrix(-0.9956 -9.390000e-02 -9.390000e-02 0.9956 -1845.3861 -1190.2559)">
						<stop  offset="0" style="stop-color:#4F52A8"/>
						<stop  offset="1" style="stop-color:#363670"/>
					</linearGradient>
					<path id="path138_1_" inkscape:connector-curvature="0" class="st60" d="M15.3,20.1c0.7,0,1.1,0.1,1.4,0.3
						c0.2,0.2,0.2,0.4,0,0.5c-0.2,0.1-0.6,0.2-1.2,0.3c-0.6,0.1-1.1,0-1.4-0.1c-0.3-0.2-0.2-0.4,0.1-0.6
						C14.6,20.2,14.9,20.1,15.3,20.1z"/>
				</g>
			</g>
		</g>
		<path id="path140_1_" inkscape:connector-curvature="0" class="st61" d="M14.8,20.6c0.6-0.2,1-0.2,1.4-0.1
			c0.2,0.1,0.3,0.2,0.3,0.3c0,0.1-0.1,0.2-0.3,0.3c-0.2,0.1-0.5,0.1-0.8,0.1c-0.3,0-0.6,0-0.8-0.1c-0.2-0.1-0.3-0.2-0.2-0.3
			C14.4,20.7,14.5,20.7,14.8,20.6z"/>
		<g id="g142_1_">
			<g id="g144_1_">
				<g id="g150_1_">
					
						<linearGradient id="path158_2_" gradientUnits="userSpaceOnUse" x1="-1911.9315" y1="1136.3103" x2="-1909.5763" y2="1136.3103" gradientTransform="matrix(-0.9999 1.200000e-02 1.200000e-02 0.9999 -1908.8683 -1092.3796)">
						<stop  offset="0" style="stop-color:#5C4820"/>
						<stop  offset="1" style="stop-color:#473819"/>
					</linearGradient>
					<path id="path158_1_" inkscape:connector-curvature="0" class="st62" d="M15.4,20.6c0.4,0,0.6,0,0.7,0.1c0.1,0.1,0,0.2-0.1,0.3
						c-0.3,0.2-0.7,0.2-1.1,0c-0.2-0.1-0.2-0.2-0.1-0.3C15,20.7,15.2,20.6,15.4,20.6z"/>
				</g>
			</g>
		</g>
		<g id="g160_1_">
			<g id="g162_1_">
				<g id="g168_1_">
					
						<radialGradient id="path176_2_" cx="175.0251" cy="269.8324" r="5.5785" gradientTransform="matrix(0.716 0.6981 -0.6091 0.8215 47.2746 -319.2943)" gradientUnits="userSpaceOnUse">
						<stop  offset="0" style="stop-color:#8589FF"/>
						<stop  offset="1" style="stop-color:#404082"/>
					</radialGradient>
					<path id="path176_1_" inkscape:connector-curvature="0" class="st63" d="M9.5,22.2c1.7,0,2.9,0.7,3.5,2.1
						c0.5,1.3,0.5,2.4-0.3,3.3c-0.9,1.1-2.1,1.5-3.6,1.4c-1.5-0.2-2.5-0.8-2.9-1.9c-0.5-1.3-0.4-2.4,0.3-3.5
						C7.1,22.7,8.1,22.2,9.5,22.2z"/>
				</g>
			</g>
		</g>
		<path id="path178_1_" inkscape:connector-curvature="0" class="st49" d="M12.7,27.6c-0.8,1-2,1.5-3.5,1.4c-1.4-0.1-2.4-0.7-3-1.7
			c1,1,2.2,1.4,3.4,1.2c1.1-0.1,1.8-0.6,2.3-1.3c0.9-1.5,1-2.9,0.3-4c0.6,0.6,0.9,1.4,1,2.3C13.3,26.4,13.1,27.1,12.7,27.6z"/>
		<g id="g180_1_">
			<defs>
				<filter id="Adobe_OpacityMaskFilter_7_" filterUnits="userSpaceOnUse" x="5.8" y="22" width="5.7" height="3.5">
					<feColorMatrix  type="matrix" values="1 0 0 0 0  0 1 0 0 0  0 0 1 0 0  0 0 0 1 0"/>
				</filter>
			</defs>
			<mask maskUnits="userSpaceOnUse" x="5.8" y="22" width="5.7" height="3.5" id="mask188_1_">
				<g id="g190_1_" class="st64">
					<g>
						<defs>
							<rect id="SVGID_44_" x="5.8" y="22.7" width="4.5" height="2.8"/>
						</defs>
						<clipPath id="SVGID_45_">
							<use xlink:href="#SVGID_44_"  style="overflow:visible;"/>
						</clipPath>
						<g id="g192_1_">
							<path id="path194_1_" inkscape:connector-curvature="0" class="st65" d="M5.8,22.7h4.5v2.8H5.8V22.7z"/>
						</g>
					</g>
				</g>
			</mask>
			<g id="g196_1_" class="st66">
				<g id="g208_1_">
					<g>
						<defs>
							<rect id="SVGID_46_" x="5.8" y="22" width="5.7" height="3.5"/>
						</defs>
						<clipPath id="SVGID_47_">
							<use xlink:href="#SVGID_46_"  style="overflow:visible;"/>
						</clipPath>
						<g id="g210_1_" class="st67">
							<g id="g212_2_" transform="translate(0 -.040792)">
								<g id="g216_1_">
									<g>
										<defs>
											<rect id="SVGID_48_" x="5.8" y="22" width="5.7" height="3.5"/>
										</defs>
										<clipPath id="SVGID_49_">
											<use xlink:href="#SVGID_48_"  style="overflow:visible;"/>
										</clipPath>
										<g id="g218_1_" class="st68">
											<g id="g220_1_">
												<path id="path222_1_" inkscape:connector-curvature="0" class="st36" d="M11,23.4c0.1,0.4,0,0.7-0.4,1
													c-0.5,0.4-1.2,0.7-2.3,0.9c-1.6,0.2-2.2-0.2-1.8-1.2c0.1-0.4,0.4-0.7,0.9-1c0.4-0.2,0.7-0.4,1.1-0.5
													C10,22.4,10.8,22.6,11,23.4z"/>
											</g>
										</g>
									</g>
								</g>
							</g>
						</g>
					</g>
				</g>
			</g>
		</g>
		<g id="g224_2_">
			<g id="g226_1_">
				<g id="g232_1_">
					
						<linearGradient id="path240_2_" gradientUnits="userSpaceOnUse" x1="45.395" y1="1075.3328" x2="48.6582" y2="1075.3328" gradientTransform="matrix(0.5304 0.8478 0.8478 -0.5304 -928.558 557.6213)">
						<stop  offset="0" style="stop-color:#4F52A8"/>
						<stop  offset="1" style="stop-color:#363670"/>
					</linearGradient>
					<path id="path240_1_" inkscape:connector-curvature="0" class="st69" d="M6.9,26.5c-0.3-0.1-0.4-0.3-0.2-0.6
						c0.1-0.2,0.3-0.3,0.4-0.2c0.1,0,0.2,0.1,0.3,0.2l0.1,0.2c0-0.1,0.1-0.2,0.1-0.3c0.1-0.1,0.2-0.2,0.4-0.3c0.4,0,0.6,0.1,0.6,0.4
						c0,0.2,0,0.3-0.1,0.4l0.3-0.1c0.2-0.1,0.3,0,0.5,0.1c0.2,0.1,0.2,0.3,0.2,0.5c0,0.1-0.1,0.2-0.2,0.3c-0.1,0.1-0.2,0.1-0.3,0.1
						l0.3,0.1c0.2,0.1,0.3,0.2,0.2,0.4c-0.1,0.3-0.2,0.3-0.5,0.3c0.1,0.4,0.1,0.6-0.3,0.7c-0.3,0.1-0.5,0-0.5-0.2
						c0,0.2-0.1,0.3-0.3,0.3c-0.1,0-0.2-0.1-0.3-0.2l-0.1-0.2c-0.1,0.2-0.2,0.2-0.5,0C7.1,28.2,7,28.1,7,28l0.1-0.1
						c-0.2,0.1-0.4,0-0.5-0.2c-0.1-0.1,0-0.2,0.1-0.3l0.2-0.1c-0.4,0-0.5-0.1-0.5-0.5c0-0.2,0.1-0.4,0.3-0.4
						C6.8,26.5,6.9,26.5,6.9,26.5z"/>
				</g>
			</g>
		</g>
		<g id="g242_1_">
			<g id="g244_1_">
				<g id="g250_2_">
					
						<linearGradient id="path258_2_" gradientUnits="userSpaceOnUse" x1="-1598.6793" y1="-349.7548" x2="-1596.5291" y2="-349.7548" gradientTransform="matrix(-8.580000e-02 -0.9963 -0.9963 8.580000e-02 -477.5591 -1534.4297)">
						<stop  offset="0" style="stop-color:#4F52A8"/>
						<stop  offset="1" style="stop-color:#363670"/>
					</linearGradient>
					<path id="path258_1_" inkscape:connector-curvature="0" class="st70" d="M8.2,26.5c0.7,0.5,0.8,1,0.5,1.4
						c-0.3,0.4-0.7,0.4-1.2,0c-0.5-0.4-0.6-0.8-0.4-1.2C7.4,26.2,7.8,26.1,8.2,26.5z"/>
				</g>
			</g>
		</g>
		<g id="g260_2_">
			<defs>
				<filter id="Adobe_OpacityMaskFilter_8_" filterUnits="userSpaceOnUse" x="6.5" y="22.7" width="3.5" height="2.1">
					<feColorMatrix  type="matrix" values="1 0 0 0 0  0 1 0 0 0  0 0 1 0 0  0 0 0 1 0"/>
				</filter>
			</defs>
			<mask maskUnits="userSpaceOnUse" x="6.5" y="22.7" width="3.5" height="2.1" id="mask268_1_">
				<g id="g270_1_" class="st71">
					<g>
						<defs>
							<rect id="SVGID_50_" x="6.4" y="23.2" width="2.8" height="1.7"/>
						</defs>
						<clipPath id="SVGID_51_">
							<use xlink:href="#SVGID_50_"  style="overflow:visible;"/>
						</clipPath>
						<g id="g272_1_">
							<path id="path274_1_" inkscape:connector-curvature="0" class="st72" d="M6.4,23.2h2.8v1.7H6.4V23.2z"/>
						</g>
					</g>
				</g>
			</mask>
			<g id="g276_1_" class="st73">
				<g id="g288_2_">
					<g>
						<defs>
							<rect id="SVGID_52_" x="6.5" y="22.7" width="3.5" height="2.1"/>
						</defs>
						<clipPath id="SVGID_53_">
							<use xlink:href="#SVGID_52_"  style="overflow:visible;"/>
						</clipPath>
						<g id="g290_1_" class="st74">
							<g id="g292_1_" transform="translate(0 -.040792)">
								<g id="g296_1_">
									<g>
										<defs>
											<rect id="SVGID_54_" x="6.5" y="22.7" width="3.5" height="2.1"/>
										</defs>
										<clipPath id="SVGID_55_">
											<use xlink:href="#SVGID_54_"  style="overflow:visible;"/>
										</clipPath>
										<g id="g298_1_" class="st75">
											<g id="g300_1_">
												<path id="path302_1_" inkscape:connector-curvature="0" class="st36" d="M8.1,22.9c0.8-0.2,1.3-0.2,1.5,0.1
													c0.1,0.2,0.1,0.5-0.3,0.8C9,24,8.5,24.2,8,24.3c-0.6,0.1-0.9-0.1-1-0.3c0-0.1,0-0.3,0.3-0.6C7.5,23.1,7.8,22.9,8.1,22.9
													z"/>
											</g>
										</g>
									</g>
								</g>
							</g>
						</g>
					</g>
				</g>
			</g>
		</g>
	</g>
</g>
</svg>
