<?xml version="1.0" encoding="utf-8"?>
<!-- Generator: Adobe Illustrator 25.0.0, SVG Export Plug-In . SVG Version: 6.00 Build 0)  -->
<svg version="1.1"
	 id="svg2" inkscape:version="0.91 r13725" xmlns:cc="http://creativecommons.org/ns#" xmlns:dc="http://purl.org/dc/elements/1.1/" xmlns:inkscape="http://www.inkscape.org/namespaces/inkscape" xmlns:ns1="http://sozi.baierouge.fr" xmlns:rdf="http://www.w3.org/1999/02/22-rdf-syntax-ns#" xmlns:sodipodi="http://sodipodi.sourceforge.net/DTD/sodipodi-0.dtd"
	 xmlns="http://www.w3.org/2000/svg" xmlns:xlink="http://www.w3.org/1999/xlink" x="0px" y="0px" viewBox="0 0 55.5 32.7"
	 style="enable-background:new 0 0 55.5 32.7;" xml:space="preserve">
<style type="text/css">
	.st0{fill-rule:evenodd;clip-rule:evenodd;fill:url(#path30_2_);}
	.st1{filter:url(#Adobe_OpacityMaskFilter);}
	.st2{clip-path:url(#SVGID_2_);fill-opacity:8.980000e-02;}
	.st3{mask:url(#mask40_1_);}
	.st4{clip-path:url(#SVGID_4_);}
	.st5{clip-path:url(#SVGID_6_);}
	.st6{fill-rule:evenodd;clip-rule:evenodd;fill:#FFE175;}
	.st7{filter:url(#Adobe_OpacityMaskFilter_1_);}
	.st8{clip-path:url(#SVGID_8_);fill-opacity:0.1797;}
	.st9{mask:url(#mask84_1_);}
	.st10{clip-path:url(#SVGID_10_);}
	.st11{clip-path:url(#SVGID_12_);}
	.st12{fill-rule:evenodd;clip-rule:evenodd;fill:url(#path138_2_);}
	.st13{fill-rule:evenodd;clip-rule:evenodd;fill:url(#path156_2_);}
	.st14{fill-rule:evenodd;clip-rule:evenodd;fill:url(#path174_2_);}
	.st15{fill-rule:evenodd;clip-rule:evenodd;fill:url(#path192_2_);}
	.st16{fill-rule:evenodd;clip-rule:evenodd;fill:url(#path210_2_);}
	.st17{fill-rule:evenodd;clip-rule:evenodd;fill:#CFB572;}
	.st18{fill-rule:evenodd;clip-rule:evenodd;fill:#FFE49E;}
	.st19{fill-rule:evenodd;clip-rule:evenodd;fill:url(#path240_2_);}
	.st20{fill-rule:evenodd;clip-rule:evenodd;fill:url(#path264_2_);}
	.st21{fill-rule:evenodd;clip-rule:evenodd;fill:url(#path282_1_);}
	.st22{filter:url(#Adobe_OpacityMaskFilter_2_);}
	.st23{clip-path:url(#SVGID_14_);fill-opacity:8.980000e-02;}
	.st24{mask:url(#mask40_2_);}
	.st25{clip-path:url(#SVGID_16_);}
	.st26{clip-path:url(#SVGID_18_);}
	.st27{filter:url(#Adobe_OpacityMaskFilter_3_);}
	.st28{clip-path:url(#SVGID_20_);fill-opacity:0.1797;}
	.st29{mask:url(#mask84_2_);}
	.st30{clip-path:url(#SVGID_22_);}
	.st31{clip-path:url(#SVGID_24_);}
	.st32{fill-rule:evenodd;clip-rule:evenodd;fill:url(#path138_3_);}
	.st33{fill-rule:evenodd;clip-rule:evenodd;fill:url(#path156_3_);}
	.st34{fill-rule:evenodd;clip-rule:evenodd;fill:url(#path174_3_);}
	.st35{fill-rule:evenodd;clip-rule:evenodd;fill:url(#path192_3_);}
	.st36{fill-rule:evenodd;clip-rule:evenodd;fill:url(#path210_3_);}
	.st37{fill-rule:evenodd;clip-rule:evenodd;fill:url(#path240_3_);}
	.st38{fill-rule:evenodd;clip-rule:evenodd;fill:url(#path264_3_);}
	.st39{fill-rule:evenodd;clip-rule:evenodd;fill:url(#path30_3_);}
</style>
<g id="g14">
	<g id="g16">
		<g id="g22">
			
				<radialGradient id="path30_2_" cx="-951.8651" cy="1638.7764" r="27.082" gradientTransform="matrix(-0.5129 0.8341 0.8426 0.5181 -1827.1023 -49.6997)" gradientUnits="userSpaceOnUse">
				<stop  offset="0" style="stop-color:#FFD66E"/>
				<stop  offset="1" style="stop-color:#806733"/>
			</radialGradient>
			<path id="path30" inkscape:connector-curvature="0" class="st0" d="M36.7,3.7c2.7-1.3,5.8-1.5,9.3-0.7c3.7,0.9,5.8,2.5,6.2,5
				c1,5.3-1.3,10.1-6.8,14.6c-3.8,3.1-7.4,5.2-10.8,6.1c-3.3,0.9-6,0.7-8-0.7c-0.8-0.6-1.4-1.7-2-3.5c-0.6-2.1-0.7-4.2-0.4-6.4
				C25.1,12,29.3,7.2,36.7,3.7z"/>
		</g>
	</g>
</g>
<g id="g32">
	<defs>
		<filter id="Adobe_OpacityMaskFilter" filterUnits="userSpaceOnUse" x="24.3" y="20.6" width="15" height="11.2">
			<feColorMatrix  type="matrix" values="1 0 0 0 0  0 1 0 0 0  0 0 1 0 0  0 0 0 1 0"/>
		</filter>
	</defs>
	<mask maskUnits="userSpaceOnUse" x="24.3" y="20.6" width="15" height="11.2" id="mask40_1_">
		<g id="g42_1_" class="st1">
			<g>
				<defs>
					<rect id="SVGID_1_" x="22.3" y="34.6" width="12" height="9"/>
				</defs>
				<clipPath id="SVGID_2_">
					<use xlink:href="#SVGID_1_"  style="overflow:visible;"/>
				</clipPath>
				<g id="g44_1_">
					<path id="path46_1_" inkscape:connector-curvature="0" class="st2" d="M22.3,34.6h12v9h-12V34.6z"/>
				</g>
			</g>
		</g>
	</mask>
	<g id="g48" class="st3">
		<g id="g60">
			<g>
				<defs>
					<rect id="SVGID_3_" x="24.3" y="20.6" width="15" height="11.2"/>
				</defs>
				<clipPath id="SVGID_4_">
					<use xlink:href="#SVGID_3_"  style="overflow:visible;"/>
				</clipPath>
				<g id="g62" class="st4">
					<g id="g64">
						<g id="g68">
							<g>
								<defs>
									<rect id="SVGID_5_" x="24.3" y="20.6" width="15" height="11.2"/>
								</defs>
								<clipPath id="SVGID_6_">
									<use xlink:href="#SVGID_5_"  style="overflow:visible;"/>
								</clipPath>
								<g id="g70" class="st5">
									<g id="g72">
										<path id="path74" inkscape:connector-curvature="0" class="st6" d="M36.7,25.4c-1.6,0.7-2.9,1.3-3.7,1.7
											c-1.8,0.8-3.5,1.9-5,3.1c-0.9,0.7-1.5,1-1.8,0.9c-0.5-0.3-0.8-0.7-0.9-1c-0.1-0.5,0.1-1.2,0.6-2.1
											c0.7-1.2,1.6-2.4,2.9-3.5c1.6-1.4,3.3-2.3,5.2-2.9c1.2-0.3,2.3-0.1,3.2,0.7c0.7,0.5,1.1,0.9,1.2,1c0,0.1,0,0.3,0,0.6
											C38.6,24.3,37.9,24.9,36.7,25.4z"/>
									</g>
								</g>
							</g>
						</g>
					</g>
				</g>
			</g>
		</g>
	</g>
</g>
<g id="g76">
	<defs>
		<filter id="Adobe_OpacityMaskFilter_1_" filterUnits="userSpaceOnUse" x="33.5" y="3.3" width="10" height="7.5">
			<feColorMatrix  type="matrix" values="1 0 0 0 0  0 1 0 0 0  0 0 1 0 0  0 0 0 1 0"/>
		</filter>
	</defs>
	<mask maskUnits="userSpaceOnUse" x="33.5" y="3.3" width="10" height="7.5" id="mask84_1_">
		<g id="g86_1_" class="st7">
			<g>
				<defs>
					<rect id="SVGID_7_" x="30.8" y="18.1" width="8" height="6"/>
				</defs>
				<clipPath id="SVGID_8_">
					<use xlink:href="#SVGID_7_"  style="overflow:visible;"/>
				</clipPath>
				<g id="g88_1_">
					<path id="path90_1_" inkscape:connector-curvature="0" class="st8" d="M30.8,18.1h8v6h-8V18.1z"/>
				</g>
			</g>
		</g>
	</mask>
	<g id="g92" class="st9">
		<g id="g104">
			<g>
				<defs>
					<rect id="SVGID_9_" x="33.5" y="3.3" width="10" height="7.5"/>
				</defs>
				<clipPath id="SVGID_10_">
					<use xlink:href="#SVGID_9_"  style="overflow:visible;"/>
				</clipPath>
				<g id="g106" class="st10">
					<g id="g108">
						<g id="g112">
							<g>
								<defs>
									<rect id="SVGID_11_" x="33.5" y="3.3" width="10" height="7.5"/>
								</defs>
								<clipPath id="SVGID_12_">
									<use xlink:href="#SVGID_11_"  style="overflow:visible;"/>
								</clipPath>
								<g id="g114" class="st11">
									<g id="g116">
										<path id="path118" inkscape:connector-curvature="0" class="st6" d="M41.7,7.4c-2,0.9-3.2,1.5-3.5,1.7
											C37,9.8,36,10,35.3,9.7c-0.7-0.3-0.9-0.9-0.7-1.8c0.2-0.8,0.6-1.6,1.4-2.3C36.5,5,37.3,4.5,38,4.1
											c0.8-0.4,1.4-0.6,1.8-0.6c0.5-0.1,1-0.1,1.7,0c0.7,0.1,1.2,0.4,1.5,1c0.2,0.5,0.2,1.1,0,1.7C42.8,6.7,42.4,7.1,41.7,7.4z"
											/>
									</g>
								</g>
							</g>
						</g>
					</g>
				</g>
			</g>
		</g>
	</g>
</g>
<path id="path120" inkscape:connector-curvature="0" class="st6" d="M39.3,4.1c0.4-0.2,0.8-0.2,1.3-0.1c0.6,0.1,0.8,0.5,0.7,1.1
	c-0.1,0.5-0.4,0.9-1,1.3c-0.6,0.4-1.2,0.6-1.8,0.7c-0.7,0.1-1-0.2-0.9-1C37.6,5.2,38.2,4.6,39.3,4.1z"/>
<g id="g122">
	<g id="g124">
		<g id="g130">
			
				<radialGradient id="path138_2_" cx="-1616.0381" cy="1110.5421" r="17.358" gradientTransform="matrix(-0.8772 0.4351 0.6346 1.5464 -2081.3267 -994.7743)" gradientUnits="userSpaceOnUse">
				<stop  offset="0" style="stop-color:#856D33"/>
				<stop  offset="1" style="stop-color:#876D35"/>
			</radialGradient>
			<path id="path138" inkscape:connector-curvature="0" class="st12" d="M51.3,8.6c0.3,1.6,0.1,3.5-0.4,5.5c-0.6,2.2-1.5,4-2.8,5.3
				c-1.6,1.7-3.5,3.3-5.6,4.6c-2.6,1.7-5,2.7-7.1,3c-2.1,0.3-3.6,0.2-4.4-0.2c-0.2-0.1-0.9-0.7-2-1.9c-1.8-1.8-1.1-4.8,2.1-9
				c1.5-2,3.1-3.7,4.6-4.9c2-1.6,4.3-3,7.1-4.2c1.9-0.8,3.7-1,5.4-0.7C50.1,6.4,51.1,7.2,51.3,8.6z"/>
		</g>
	</g>
</g>
<g id="g140">
	<g id="g142">
		<g id="g148">
			
				<radialGradient id="path156_2_" cx="-1744.67" cy="919.391" r="9.7304" gradientTransform="matrix(-0.9775 5.790000e-02 0.4177 1.6342 -2048.71 -1385.5223)" gradientUnits="userSpaceOnUse">
				<stop  offset="0" style="stop-color:#615024"/>
				<stop  offset="1" style="stop-color:#756337"/>
			</radialGradient>
			<path id="path156" inkscape:connector-curvature="0" class="st13" d="M51,11.1c-0.4,0.8-1.1,1.8-2.1,2.9
				c-0.8,0.9-1.8,1.4-2.9,1.8L44.4,16l2.6,0.1c1.2,0,2.2-0.3,2.9-0.7c-1,1-2,1.5-2.8,1.6c-0.5,0-1.1-0.1-1.8-0.3l-0.8-0.3l2,1.6
				c0.7,0.5,1.2,0.7,1.7,0.6c-0.2,0.1-0.6,0.1-1.2,0c-0.4,0-0.9-0.2-1.6-0.6l-1-0.6l0.7,1c0.5,0.7,1.2,1.3,1.9,2
				c-0.3,0-0.7-0.2-1.1-0.5L43.8,18c-0.5,0.5-1.1,1.1-1.6,1.8C41,21.1,40.3,22,40,22.6c-0.4,1-1.1,1.9-2,2.6
				c0.2-0.2,0.4-0.5,0.6-0.9c0.1-0.2,0.2-0.6,0.2-1.1v-0.7c-0.3,0.7-1,1.4-2.1,2.1c-1.1,0.7-2.6,0.8-4.6,0.4c1-0.2,2.3-0.6,3.8-1.3
				c0.9-0.4,1.6-1,2.1-1.8l0.4-1c-0.7,0.9-1.6,1.5-2.7,1.9c-1.2,0.4-3.1,0.3-5.9-0.1c2.2,0.2,4,0,5.5-0.6c0.9-0.4,1.6-0.8,2-1.3
				l0.3-0.7c-0.8,0.2-1.8,0.4-3,0.4c-1.2,0.1-2.6-0.2-4.1-0.8c0.6,0.2,1.8,0.2,3.8,0c1.2-0.1,2.2-0.4,2.8-0.8
				c0.3-0.2,0.5-0.4,0.6-0.6c-0.5,0.2-1.2,0.3-2.1,0.3c-0.6,0-1.3-0.1-2.4-0.5l-1.3-0.6c1,0.3,2.1,0.4,3.3,0.2
				c1.3-0.1,2.2-0.7,2.6-1.6c-0.5,0-1.1-0.1-1.8-0.3c-0.4-0.2-0.9-0.4-1.4-0.7l-0.7-0.5l0.9,0.4c0.8,0.3,1.6,0.4,2.4,0.3
				c1.3-0.1,1.8-0.2,1.6-0.5c-0.3-0.3-0.7-0.8-1-1.4l-0.9-2l1.5,2c0.5,0.6,0.8,0.8,0.8,0.7l0.2-0.5c0.1-0.3,0.4-1.9,0.7-4.7
				c0.2,1,0.2,2.1,0.1,3.2c-0.1,1.1-0.2,1.8-0.1,2c0.3-0.4,0.6-0.9,1.1-1.4c0.5-0.5,1.3-2.4,2.3-5.6l-0.3,3.2l-0.6,1.5
				c-0.4,1-0.9,1.8-1.4,2.4c0.7-0.2,1.6-0.8,2.8-1.8c1.2-1,2.7-3.1,4.4-6.1c-0.8,2.3-1.7,4.2-2.7,5.7c-0.8,1.1-1.6,1.8-2.4,2.3
				c0.5-0.2,1.3-0.6,2.2-1c1.9-0.8,3.8-2.6,5.6-5.3c-0.2,1-1,2.3-2.3,3.9c-0.8,0.9-1.9,1.8-3.4,2.6l-2,0.9c0.4,0,1.6-0.4,3.6-1.2
				c1.3-0.5,2.4-1.2,3.2-2.2C50.6,11.7,50.8,11.4,51,11.1z"/>
		</g>
	</g>
</g>
<g id="g158">
	<g id="g160">
		<g id="g166">
			
				<linearGradient id="path174_2_" gradientUnits="userSpaceOnUse" x1="66.4903" y1="12.9774" x2="59.3653" y2="5.2774" gradientTransform="matrix(0.9792 0 0 -0.9792 -14.8615 31.7777)">
				<stop  offset="0" style="stop-color:#FCDF95"/>
				<stop  offset="1" style="stop-color:#D4B46D"/>
			</linearGradient>
			<path id="path174" inkscape:connector-curvature="0" class="st14" d="M48.9,21.2c2.3,1.3,4.2,2,5.7,1.9l0.4,1.3
				c0.1,1.1-0.2,2.3-1,3.6c-0.9,1.4-2,2.4-3.3,2.9l-1.6,0.4c-1.5-0.6-3.1-1.9-4.7-3.8c-0.8-0.9-2.1-2.4-3.6-4.5l-2.1-2.8
				c0-0.7,0.2-1.4,0.6-2.2c0.7-1.5,2-2.2,3.8-2.3c0.6,0,1.4,0.6,2.3,1.9C46.6,19.4,47.8,20.5,48.9,21.2z"/>
		</g>
	</g>
</g>
<g id="g176">
	<g id="g178">
		<g id="g184">
			
				<linearGradient id="path192_2_" gradientUnits="userSpaceOnUse" x1="66.7546" y1="1.3798" x2="61.0546" y2="8.3048" gradientTransform="matrix(0.9792 0 0 -0.9792 -14.8615 31.7777)">
				<stop  offset="0" style="stop-color:#BDA262"/>
				<stop  offset="1" style="stop-color:#CFB46E"/>
			</linearGradient>
			<path id="path192" inkscape:connector-curvature="0" class="st15" d="M48.8,28.4c1.3,0.6,1.8,0.9,1.7,1.1c-0.3,0.2-0.9,0-1.8-0.5
				c-0.3-0.2-0.7-0.4-1.1-0.8c-0.4-0.4-0.5-0.5-0.2-0.4C47.8,27.8,48.2,28,48.8,28.4z"/>
		</g>
	</g>
</g>
<g id="g194">
	<g id="g196">
		<g id="g202">
			
				<linearGradient id="path210_2_" gradientUnits="userSpaceOnUse" x1="65.7526" y1="0.8496" x2="59.3026" y2="7.9256" gradientTransform="matrix(0.9792 0 0 -0.9792 -14.8615 31.7777)">
				<stop  offset="0" style="stop-color:#BDA262"/>
				<stop  offset="1" style="stop-color:#CFB46E"/>
			</linearGradient>
			<path id="path210" inkscape:connector-curvature="0" class="st16" d="M47,28.3c0.8,0.4,1.1,0.7,1,0.7c-0.1,0.1-0.4-0.1-0.9-0.5
				C46.6,28.1,46.6,28.1,47,28.3z"/>
		</g>
	</g>
</g>
<path id="path212" inkscape:connector-curvature="0" class="st17" d="M46.6,25.9c-0.1-0.2,0.2-0.1,0.9,0.4c0.4,0.3,1.6,0.7,3.5,1.3
	c0.1,0.1-0.1,0.1-0.8,0c-0.6-0.1-1-0.3-1.5-0.4c-0.3-0.1-0.7-0.3-1.2-0.6C47,26.2,46.7,26,46.6,25.9z"/>
<path id="path214" inkscape:connector-curvature="0" class="st17" d="M49.7,26.3c0.3,0.1,0.9,0.2,1.9,0.4c0.3,0.1,0.4,0.2,0.5,0.3
	c0.1,0.1,0.1,0.2-0.1,0.2c-0.2,0-0.7-0.1-1.5-0.5C49.5,26.3,49.3,26.2,49.7,26.3z"/>
<path id="path216" inkscape:connector-curvature="0" class="st17" d="M47.6,25.7c1.1,0.3,1.5,0.6,1.2,0.7c-0.1,0.1-0.4-0.1-0.9-0.3
	C47.5,25.7,47.4,25.6,47.6,25.7z"/>
<path id="path218" inkscape:connector-curvature="0" class="st18" d="M45.3,23c-0.3-0.4-0.3-0.6-0.1-0.7c0.2-0.1,0.4-0.1,0.6,0
	c0.2,0.1,0.8,0.5,1.9,1.2c1.4,0.9,2.2,1.4,2.3,1.5c0.4,0.6,0.2,0.8-0.5,0.6c-0.5-0.1-1.3-0.4-2.3-1C46.2,24,45.6,23.4,45.3,23z"/>
<path id="path220" inkscape:connector-curvature="0" class="st18" d="M50.9,25.9c-0.1,0-0.2-0.1-0.1-0.3c0-0.2,0.1-0.3,0.3-0.2
	c0.6,0.1,0.9,0.2,1.1,0.3c0.1,0.1,0.1,0.2,0.1,0.3c0,0.1-0.1,0.2-0.2,0.3c-0.2,0.1-0.4,0.1-0.7,0C51.2,26,51,25.9,50.9,25.9z"/>
<path id="path222" inkscape:connector-curvature="0" class="st18" d="M49.3,22.1c0.3,0.1,0.9,0.4,1.8,0.8c0.9,0.4,1.5,0.6,1.8,0.6
	l1.6,0.1l0.1,0.2c0.1,0.2,0.1,0.4,0,0.7c-0.1,0.5-0.2,0.8-0.4,1.1c0.1-0.6,0.1-1,0-1.2c-0.2-0.5-0.4-0.7-0.5-0.7
	c-0.1,0-0.3,0-0.8-0.1c-0.6-0.2-1.2-0.4-1.9-0.7C51,23,49.3,22.1,49.3,22.1z"/>
<g id="g224">
	<g id="g226">
		<g id="g232">
			
				<linearGradient id="path240_2_" gradientUnits="userSpaceOnUse" x1="69.2722" y1="12.3127" x2="57.5655" y2="6.1852" gradientTransform="matrix(0.9792 0 0 -0.9792 -14.8615 31.7777)">
				<stop  offset="0" style="stop-color:#BDA262"/>
				<stop  offset="1" style="stop-color:#CFB46E"/>
			</linearGradient>
			<path id="path240" inkscape:connector-curvature="0" class="st19" d="M55.3,24.1C55,25,54.5,26,53.9,27c-1.1,2.1-2.3,3.4-3.7,3.9
				c-1,0.4-2.8-0.6-5.3-3c-1.6-1.5-2.9-3-4-4.4l-2.3-3.3c-0.1-0.4-0.1-0.8,0-1.2c0.2-0.9,0.6-1.7,1.4-2.3c0.8-0.6,1.6-1,2.5-1
				c0.5,0,0.9,0,1.2,0l1.2,1.4c-0.4-0.4-0.8-0.6-1.3-0.6c-0.2-0.1-0.4-0.2-0.5-0.2c-0.2-0.1-0.2,0-0.1,0.2c0.5,0.8,1,1.5,1.6,2
				c0.5,0.5,0.8,0.8,1.1,0.9c-0.9-0.4-1.6-0.9-2.2-1.5c-0.4-0.5-0.8-0.8-1.1-1.1c-0.3-0.3-0.5-0.3-0.4-0.1c0.1,0.3,0.4,0.8,1,1.5
				c-0.3,0-0.7-0.2-1-0.5c-0.5-0.6-0.9-0.7-1-0.5c-0.2,0.2-0.4,0.3-0.5,0.4c-0.2,0.2-0.1,0.5,0.1,0.9c0.5,0.5,1.1,1.1,2,1.8
				c-0.5-0.2-1-0.5-1.4-0.8c-0.9-0.8-1.4-1-1.3-0.9c0.1,0.3,0.3,0.6,0.6,1c-0.2-0.2-0.4-0.3-0.6-0.4c-0.4-0.3-0.5-0.3-0.4-0.1
				c0.1,0.3,0.4,0.7,0.9,1.2c0.5,0.6,0.9,1,1.2,1.2c0.9,0.8,1.2,1.1,0.8,0.9c-0.2,0-0.5-0.2-1-0.4c-0.6-0.3-0.9-0.6-1.1-0.8
				c-0.2-0.2-0.4-0.4-0.7-0.6c-0.3-0.2-0.4-0.3-0.4-0.2c0.2,0.3,0.9,1.1,2,2.4c1.4,1.6,2.4,2.5,3,2.8c0.4,0.2,1.1,0.8,2.2,1.8
				c0.9,0.8,1.7,1.3,2.2,1.4c1.1,0.3,2.3,0,3.6-0.8c0.9-0.6,1.6-1.2,2-1.9C54.6,25.8,54.9,25,55.3,24.1z"/>
		</g>
	</g>
</g>
<path id="path242" inkscape:connector-curvature="0" class="st18" d="M45.8,20.1c0.3,0.3,1.3,1.1,2.9,2.3c1.5,1.1,2.2,1.8,2.2,2
	c0,0.2-0.8-0.1-2.3-0.9c-1-0.6-2-1.1-2.7-1.6c-0.3-0.2-0.6-0.6-1.1-1.3c-0.5-0.6-0.7-1.1-0.8-1.4c0-0.2,0.2-0.2,0.7,0
	C45,19.5,45.4,19.8,45.8,20.1z"/>
<path id="path244" inkscape:connector-curvature="0" class="st18" d="M51.9,24.8c0-0.4,0.4-0.5,1-0.2c0.7,0.3,0.9,0.6,0.8,0.8
	c-0.1,0.3-0.5,0.5-1,0.5C52.1,26,51.8,25.6,51.9,24.8z"/>
<path id="path246" inkscape:connector-curvature="0" class="st18" d="M43.7,22.1c0.3,0.4,0.2,0.5-0.4,0.2c-0.5-0.3-1-0.6-1.5-1.1
	c-0.5-0.5-0.4-0.6,0.3-0.3C42.7,21.3,43.3,21.7,43.7,22.1z"/>
<g id="g248">
	<g id="g250">
		<g id="g256">
			
				<linearGradient id="path264_2_" gradientUnits="userSpaceOnUse" x1="54.1718" y1="4.6428" x2="66.6217" y2="10.7928" gradientTransform="matrix(0.9792 0 0 -0.9792 -14.8615 31.7777)">
				<stop  offset="0" style="stop-color:#B3985D"/>
				<stop  offset="1" style="stop-color:#B39B5A"/>
			</linearGradient>
			<path id="path264" inkscape:connector-curvature="0" class="st20" d="M40.6,16.3c-0.2,0.1-0.4,0.2-0.6,0.4
				c-0.5,0.4-0.8,0.9-0.9,1.6c-0.2,0.8-0.2,1.5-0.1,2.1l1.6,2.2c1.3,1.6,2.3,2.9,3.2,3.8c2.1,2.1,3.3,3.2,3.7,3.3
				c1.1,0.3,1.6,0.3,1.6,0.1l1.1,1.1l-1,0.5c-1.7-0.8-3.3-1.9-4.8-3.6c-2.4-2.6-4-4.6-5-6.1l-0.8-1.5c-0.3-0.5-0.2-1.2,0.1-2.1
				c0.3-0.6,0.7-1.1,1.2-1.5C40.2,16.5,40.5,16.4,40.6,16.3z"/>
		</g>
	</g>
</g>
<g id="g266">
	<g id="g268">
		<g id="g274">
			
				<linearGradient id="path282_1_" gradientUnits="userSpaceOnUse" x1="68.5573" y1="-1.2017" x2="67.1573" y2="10.9763" gradientTransform="matrix(0.9792 0 0 -0.9792 -14.8615 31.7777)">
				<stop  offset="0" style="stop-color:#BDA262"/>
				<stop  offset="1" style="stop-color:#CFB46E"/>
			</linearGradient>
			<path id="path282" inkscape:connector-curvature="0" class="st21" d="M54.8,23.2l0.7,1.8c0.2,1.6-0.5,3.2-2.2,4.9
				c-1,1.1-2.1,1.6-3.2,1.6l-1.3-0.3c-0.4-0.4-0.7-0.9-0.9-1.5c-0.5-1.3-0.3-2.6,0.6-3.9c1-1.6,2.4-2.6,4.1-2.8
				C53.4,23,54.1,23,54.8,23.2z"/>
		</g>
	</g>
</g>
<g id="g32_1_">
	<defs>
		<filter id="Adobe_OpacityMaskFilter_2_" filterUnits="userSpaceOnUse" x="7.7" y="-3.3" width="17.6" height="15.1">
			<feColorMatrix  type="matrix" values="1 0 0 0 0  0 1 0 0 0  0 0 1 0 0  0 0 0 1 0"/>
		</filter>
	</defs>
	<mask maskUnits="userSpaceOnUse" x="7.7" y="-3.3" width="17.6" height="15.1" id="mask40_2_">
		<g id="g42_2_" class="st22">
			<g>
				<defs>
					
						<rect id="SVGID_13_" x="17.5" y="11.1" transform="matrix(0.9581 -0.2864 0.2864 0.9581 -3.474 7.3962)" width="12" height="9"/>
				</defs>
				<clipPath id="SVGID_14_">
					<use xlink:href="#SVGID_13_"  style="overflow:visible;"/>
				</clipPath>
				<g id="g44_2_">
					<path id="path46_2_" inkscape:connector-curvature="0" class="st23" d="M28,9.5L16.5,13l2.6,8.6l11.5-3.4L28,9.5z"/>
				</g>
			</g>
		</g>
	</mask>
	<g id="g48_1_" class="st24">
		<g id="g60_1_">
			<g>
				<defs>
					
						<rect id="SVGID_15_" x="9" y="-1.4" transform="matrix(0.9581 -0.2864 0.2864 0.9581 -0.5229 4.9046)" width="15" height="11.2"/>
				</defs>
				<clipPath id="SVGID_16_">
					<use xlink:href="#SVGID_15_"  style="overflow:visible;"/>
				</clipPath>
				<g id="g62_1_" class="st25">
					<g id="g64_1_">
						<g id="g68_1_">
							<g>
								<defs>
									
										<rect id="SVGID_17_" x="9" y="-1.4" transform="matrix(0.9581 -0.2864 0.2864 0.9581 -0.5229 4.9046)" width="15" height="11.2"/>
								</defs>
								<clipPath id="SVGID_18_">
									<use xlink:href="#SVGID_17_"  style="overflow:visible;"/>
								</clipPath>
								<g id="g70_1_" class="st26">
									<g id="g72_1_">
										<path id="path74_1_" inkscape:connector-curvature="0" class="st6" d="M11.6,4.9c1.8,0.2,3.1,0.4,4,0.5
											c2,0.3,3.8,0.8,5.7,1.5c1.1,0.4,1.8,0.6,1.9,0.3c0.4-0.5,0.6-0.9,0.6-1.2c0-0.5-0.4-1.2-1.2-1.9c-1-1-2.3-1.8-3.8-2.5
											C16.9,0.9,15,0.4,13,0.5c-1.2,0-2.2,0.6-2.9,1.6C9.6,2.7,9.3,3.2,9.3,3.4c0,0.1,0,0.3,0.1,0.6C9.5,4.4,10.3,4.7,11.6,4.9z
											"/>
									</g>
								</g>
							</g>
						</g>
					</g>
				</g>
			</g>
		</g>
	</g>
</g>
<g id="g76_1_">
	<defs>
		<filter id="Adobe_OpacityMaskFilter_3_" filterUnits="userSpaceOnUse" x="9.3" y="-1" width="11.7" height="10.1">
			<feColorMatrix  type="matrix" values="1 0 0 0 0  0 1 0 0 0  0 0 1 0 0  0 0 0 1 0"/>
		</filter>
	</defs>
	<mask maskUnits="userSpaceOnUse" x="9.3" y="-1" width="11.7" height="10.1" id="mask84_2_">
		<g id="g86_2_" class="st27">
			<g>
				<defs>
					
						<rect id="SVGID_19_" x="18.7" y="13.3" transform="matrix(0.9581 -0.2864 0.2864 0.9581 -3.7274 7.1949)" width="8" height="6"/>
				</defs>
				<clipPath id="SVGID_20_">
					<use xlink:href="#SVGID_19_"  style="overflow:visible;"/>
				</clipPath>
				<g id="g88_2_">
					<path id="path90_2_" inkscape:connector-curvature="0" class="st28" d="M25.7,12.3L18,14.6l1.7,5.7l7.7-2.3L25.7,12.3z"/>
				</g>
			</g>
		</g>
	</mask>
	<g id="g92_1_" class="st29">
		<g id="g104_1_">
			<g>
				<defs>
					
						<rect id="SVGID_21_" x="10.1" y="0.2" transform="matrix(0.9581 -0.2864 0.2864 0.9581 -0.5116 4.5002)" width="10" height="7.5"/>
				</defs>
				<clipPath id="SVGID_22_">
					<use xlink:href="#SVGID_21_"  style="overflow:visible;"/>
				</clipPath>
				<g id="g106_1_" class="st30">
					<g id="g108_1_">
						<g id="g112_1_">
							<g>
								<defs>
									
										<rect id="SVGID_23_" x="10.1" y="0.2" transform="matrix(0.9581 -0.2864 0.2864 0.9581 -0.5116 4.5002)" width="10" height="7.5"/>
								</defs>
								<clipPath id="SVGID_24_">
									<use xlink:href="#SVGID_23_"  style="overflow:visible;"/>
								</clipPath>
								<g id="g114_1_" class="st31">
									<g id="g116_1_">
										<path id="path118_1_" inkscape:connector-curvature="0" class="st6" d="M12.2,5.3c2.2,0.3,3.5,0.5,3.8,0.6
											c1.4,0.3,2.4,0.2,3-0.2c0.6-0.4,0.6-1.1,0.2-1.9c-0.4-0.7-1-1.3-2-1.8c-0.8-0.4-1.6-0.7-2.5-0.8c-0.9-0.1-1.5-0.2-1.9-0.1
											c-0.5,0-1,0.2-1.6,0.5c-0.7,0.3-1,0.8-1.1,1.4c0,0.5,0.1,1.1,0.5,1.6C10.9,4.9,11.5,5.1,12.2,5.3z"/>
									</g>
								</g>
							</g>
						</g>
					</g>
				</g>
			</g>
		</g>
	</g>
</g>
<path id="path120_1_" inkscape:connector-curvature="0" class="st6" d="M13.5,1.4c-0.5-0.1-0.9,0-1.3,0.2c-0.5,0.3-0.6,0.7-0.3,1.3
	c0.2,0.4,0.6,0.7,1.4,0.9C13.9,4,14.6,4.1,15.2,4c0.7-0.1,0.9-0.5,0.6-1.3C15.5,2,14.7,1.5,13.5,1.4z"/>
<g id="g122_1_">
	<g id="g124_1_">
		<g id="g130_1_">
			
				<radialGradient id="path138_3_" cx="-1567.215" cy="1097.4493" r="17.358" gradientTransform="matrix(0.9651 0.1656 -0.1651 1.6634 1709.9193 -1549.3597)" gradientUnits="userSpaceOnUse">
				<stop  offset="0" style="stop-color:#856D33"/>
				<stop  offset="1" style="stop-color:#876D35"/>
			</radialGradient>
			<path id="path138_1_" inkscape:connector-curvature="0" class="st32" d="M3.3,9.2c0.2,1.6,0.9,3.3,2,5.1c1.2,2,2.6,3.4,4.2,4.3
				c2.1,1.2,4.3,2.1,6.7,2.9c3,0.9,5.5,1.2,7.7,0.8c2.1-0.4,3.5-0.9,4.2-1.5c0.2-0.2,0.6-1,1.3-2.4c1.2-2.3-0.3-4.9-4.5-8
				c-2-1.5-4-2.6-5.8-3.4c-2.3-1-5-1.6-8-1.9c-2-0.2-3.8,0.1-5.4,0.8C3.9,6.7,3.1,7.8,3.3,9.2z"/>
		</g>
	</g>
</g>
<g id="g140_1_">
	<g id="g142_1_">
		<g id="g148_1_">
			
				<radialGradient id="path156_3_" cx="-1692.8802" cy="918.166" r="9.7304" gradientTransform="matrix(0.9531 -0.2245 6.790283e-02 1.6854 1566.7466 -1914.3933)" gradientUnits="userSpaceOnUse">
				<stop  offset="0" style="stop-color:#615024"/>
				<stop  offset="1" style="stop-color:#756337"/>
			</radialGradient>
			<path id="path156_1_" inkscape:connector-curvature="0" class="st33" d="M4.3,11.4c0.6,0.7,1.6,1.4,2.9,2.2
				c1,0.6,2.1,0.9,3.3,0.8l1.5-0.2l-2.5,0.9c-1.2,0.3-2.2,0.4-3,0.1c1.3,0.7,2.4,0.9,3.2,0.7c0.5-0.1,1-0.4,1.6-0.8l0.7-0.5
				l-1.5,2.1c-0.5,0.7-1,1-1.4,1c0.3,0.1,0.6,0,1.1-0.3c0.3-0.1,0.8-0.5,1.4-1.1l0.8-0.8L12,16.8c-0.3,0.8-0.7,1.6-1.3,2.4
				c0.3-0.1,0.6-0.3,0.9-0.8l1.6-2.4c0.7,0.4,1.3,0.8,2.1,1.2c1.5,0.9,2.4,1.6,2.9,2.2c0.7,0.8,1.6,1.5,2.7,2
				c-0.3-0.2-0.6-0.4-0.9-0.7c-0.2-0.2-0.4-0.5-0.6-1l-0.2-0.7c0.5,0.6,1.4,1,2.6,1.4c1.2,0.3,2.7,0,4.5-0.9c-1,0.1-2.4,0.1-4-0.1
				c-1-0.1-1.9-0.5-2.5-1.1l-0.7-0.9c0.9,0.6,2,1,3.2,1c1.2,0,3.1-0.6,5.6-1.8c-2,0.8-3.9,1.1-5.5,1c-1-0.1-1.8-0.3-2.3-0.7
				l-0.5-0.6c0.8,0,1.8-0.1,3-0.4c1.2-0.3,2.4-0.9,3.7-1.9c-0.5,0.3-1.7,0.7-3.6,1.1c-1.2,0.2-2.2,0.2-2.9,0
				c-0.4-0.1-0.6-0.2-0.7-0.4c0.5,0,1.2,0,2.1-0.3c0.5-0.1,1.2-0.5,2.1-1.1l1.1-0.9c-0.9,0.6-1.9,1-3.1,1.2c-1.3,0.2-2.3,0-3-0.8
				c0.5-0.1,1-0.4,1.6-0.8c0.3-0.3,0.7-0.6,1.2-1.1l0.5-0.7l-0.8,0.6c-0.7,0.5-1.4,0.8-2.2,1c-1.2,0.3-1.8,0.3-1.7-0.1
				c0.2-0.4,0.4-1,0.5-1.6l0.3-2.1l-0.8,2.3c-0.3,0.7-0.5,1-0.6,0.9L16,10.7c-0.2-0.2-0.9-1.7-2.1-4.3c0.1,1,0.4,2.1,0.9,3.1
				c0.4,1,0.7,1.7,0.7,1.9c-0.4-0.3-0.9-0.7-1.5-1c-0.6-0.3-1.9-1.9-3.8-4.7l1.2,2.9l1,1.3c0.7,0.9,1.3,1.5,2,1.8
				c-0.7,0-1.8-0.3-3.2-0.9c-1.4-0.6-3.4-2.2-5.9-4.6c1.4,2,2.9,3.5,4.3,4.7c1.1,0.8,2,1.3,2.9,1.5c-0.6-0.1-1.4-0.2-2.4-0.3
				c-2.1-0.3-4.4-1.4-6.9-3.5c0.5,0.9,1.6,2,3.3,3.1c1,0.7,2.4,1.2,4,1.6l2.1,0.3c-0.3,0.1-1.6,0.1-3.8-0.1
				c-1.4-0.1-2.6-0.5-3.7-1.2C4.8,11.9,4.6,11.6,4.3,11.4z"/>
		</g>
	</g>
</g>
<g id="g158_1_">
	<g id="g160_1_">
		<g id="g166_1_">
			
				<linearGradient id="path174_3_" gradientUnits="userSpaceOnUse" x1="16.2842" y1="10.1334" x2="9.1592" y2="2.4334" gradientTransform="matrix(-0.9382 0.2805 -0.2805 -0.9382 24.0753 26.082)">
				<stop  offset="0" style="stop-color:#FCDF95"/>
				<stop  offset="1" style="stop-color:#D4B46D"/>
			</linearGradient>
			<path id="path174_1_" inkscape:connector-curvature="0" class="st34" d="M7.9,22.8c-1.9,2-3.5,3.1-4.9,3.4l-0.1,1.3
				c0.2,1.1,0.9,2.1,2,3.1c1.3,1.1,2.6,1.7,4,1.9l1.7,0c1.2-1,2.4-2.7,3.5-5c0.5-1.2,1.3-2.9,2.2-5.3l1.2-3.3
				c-0.2-0.7-0.6-1.3-1.2-1.9c-1.1-1.2-2.5-1.6-4.3-1.1c-0.6,0.2-1.1,1-1.7,2.5C9.6,20.4,8.8,21.8,7.9,22.8z"/>
		</g>
	</g>
</g>
<g id="g176_1_">
	<g id="g178_1_">
		<g id="g184_1_">
			
				<linearGradient id="path192_3_" gradientUnits="userSpaceOnUse" x1="16.5485" y1="-1.4643" x2="10.8485" y2="5.4607" gradientTransform="matrix(-0.9382 0.2805 -0.2805 -0.9382 24.0753 26.082)">
				<stop  offset="0" style="stop-color:#BDA262"/>
				<stop  offset="1" style="stop-color:#CFB46E"/>
			</linearGradient>
			<path id="path192_1_" inkscape:connector-curvature="0" class="st35" d="M10,29.6c-1.1,0.9-1.5,1.4-1.3,1.5
				c0.3,0.1,0.8-0.2,1.6-1c0.3-0.2,0.5-0.6,0.8-1.1c0.3-0.5,0.3-0.6,0.1-0.4C10.8,28.8,10.4,29.1,10,29.6z"/>
		</g>
	</g>
</g>
<g id="g194_1_">
	<g id="g196_1_">
		<g id="g202_1_">
			
				<linearGradient id="path210_3_" gradientUnits="userSpaceOnUse" x1="15.5465" y1="-1.9945" x2="9.0965" y2="5.0815" gradientTransform="matrix(-0.9382 0.2805 -0.2805 -0.9382 24.0753 26.082)">
				<stop  offset="0" style="stop-color:#BDA262"/>
				<stop  offset="1" style="stop-color:#CFB46E"/>
			</linearGradient>
			<path id="path210_1_" inkscape:connector-curvature="0" class="st36" d="M11.7,29.1c-0.6,0.6-0.8,0.9-0.7,1
				c0.1,0,0.4-0.2,0.7-0.7C12,28.8,12,28.7,11.7,29.1z"/>
		</g>
	</g>
</g>
<path id="path212_1_" inkscape:connector-curvature="0" class="st17" d="M11.4,26.6c0.1-0.2-0.2,0-0.7,0.6c-0.3,0.4-1.3,1.1-3,2.3
	c-0.1,0.2,0.2,0.1,0.7-0.3c0.5-0.3,0.9-0.5,1.3-0.8c0.3-0.2,0.6-0.5,1-1C11.1,27.1,11.3,26.8,11.4,26.6z"/>
<path id="path214_1_" inkscape:connector-curvature="0" class="st17" d="M8.6,27.9c-0.2,0.2-0.8,0.5-1.7,0.9
	c-0.2,0.1-0.4,0.3-0.4,0.4c-0.1,0.2,0,0.2,0.2,0.2c0.2,0,0.6-0.3,1.3-0.9C8.8,27.9,8.9,27.7,8.6,27.9z"/>
<path id="path216_1_" inkscape:connector-curvature="0" class="st17" d="M10.4,26.7c-0.9,0.6-1.3,1-1,1c0.1,0,0.4-0.2,0.7-0.6
	C10.5,26.7,10.6,26.6,10.4,26.7z"/>
<path id="path218_1_" inkscape:connector-curvature="0" class="st18" d="M11.8,23.5c0.1-0.4,0.1-0.7-0.1-0.7c-0.2-0.1-0.4,0-0.6,0.2
	c-0.1,0.1-0.6,0.7-1.5,1.7c-1.1,1.2-1.7,1.9-1.8,2.1c-0.2,0.7,0,0.8,0.7,0.4c0.5-0.2,1.1-0.8,1.9-1.6C11.2,24.7,11.7,24,11.8,23.5z"
	/>
<path id="path220_1_" inkscape:connector-curvature="0" class="st18" d="M7.2,27.9c0.1-0.1,0.1-0.2,0-0.4c-0.1-0.2-0.2-0.2-0.4-0.1
	c-0.5,0.2-0.8,0.4-0.9,0.6c-0.1,0.1-0.1,0.2-0.1,0.3c0,0.1,0.1,0.2,0.3,0.2c0.2,0.1,0.4,0,0.7-0.2C7,28,7.2,27.9,7.2,27.9z"/>
<path id="path222_1_" inkscape:connector-curvature="0" class="st18" d="M7.7,23.8C7.5,23.9,7,24.4,6.2,25c-0.7,0.6-1.2,1-1.5,1.1
	l-1.5,0.5l0,0.2c0,0.2,0,0.4,0.2,0.7c0.2,0.4,0.4,0.7,0.7,1c-0.3-0.5-0.4-0.9-0.4-1.2c0.1-0.5,0.2-0.8,0.3-0.8
	c0.1,0,0.3-0.1,0.8-0.3c0.5-0.3,1.1-0.7,1.6-1.2C6.4,25.1,7.7,23.8,7.7,23.8z"/>
<g id="g224_1_">
	<g id="g226_1_">
		<g id="g232_1_">
			
				<linearGradient id="path240_3_" gradientUnits="userSpaceOnUse" x1="19.0661" y1="9.4686" x2="7.3594" y2="3.3411" gradientTransform="matrix(-0.9382 0.2805 -0.2805 -0.9382 24.0753 26.082)">
				<stop  offset="0" style="stop-color:#BDA262"/>
				<stop  offset="1" style="stop-color:#CFB46E"/>
			</linearGradient>
			<path id="path240_1_" inkscape:connector-curvature="0" class="st37" d="M2.6,27.4c0.6,0.8,1.3,1.6,2.1,2.4
				c1.7,1.7,3.2,2.6,4.6,2.7c1.1,0.1,2.5-1.3,4.2-4.4c1.1-1.9,1.9-3.7,2.6-5.4l1.3-3.8c0-0.4-0.2-0.8-0.3-1.2
				c-0.4-0.9-1.1-1.5-2-1.8c-0.9-0.4-1.8-0.5-2.7-0.3c-0.5,0.1-0.9,0.2-1.2,0.4l-0.8,1.7c0.2-0.5,0.6-0.8,1-0.9
				c0.2-0.2,0.3-0.3,0.4-0.4c0.2-0.1,0.2-0.1,0.1,0.2c-0.2,0.9-0.5,1.7-0.9,2.4c-0.3,0.6-0.6,1-0.8,1.2c0.7-0.6,1.3-1.3,1.6-2
				c0.3-0.6,0.5-1,0.8-1.4c0.2-0.4,0.3-0.4,0.3-0.2c0,0.3-0.2,0.9-0.5,1.7c0.3-0.1,0.6-0.4,0.8-0.8c0.3-0.7,0.6-0.9,0.8-0.8
				c0.3,0.1,0.5,0.2,0.6,0.3c0.3,0.2,0.3,0.5,0.1,0.9c-0.3,0.6-0.8,1.4-1.4,2.2c0.4-0.3,0.8-0.7,1.1-1.2c0.7-1,1-1.4,1-1.2
				c0,0.3-0.1,0.7-0.3,1.1c0.1-0.2,0.3-0.4,0.4-0.6c0.3-0.4,0.4-0.4,0.3-0.2c-0.1,0.3-0.2,0.8-0.5,1.4c-0.3,0.7-0.6,1.2-0.8,1.5
				c-0.7,1-0.8,1.4-0.5,1.1c0.2-0.1,0.5-0.3,0.8-0.7c0.4-0.4,0.7-0.8,0.9-1.1c0.1-0.3,0.3-0.5,0.5-0.8c0.2-0.3,0.3-0.4,0.3-0.3
				c-0.1,0.4-0.5,1.3-1.2,2.9c-0.9,1.9-1.6,3.1-2,3.6c-0.3,0.3-0.8,1.1-1.6,2.3c-0.7,1.1-1.2,1.7-1.7,2c-1,0.6-2.2,0.7-3.7,0.3
				c-1.1-0.3-1.9-0.7-2.5-1.2C3.7,28.8,3.2,28.2,2.6,27.4z"/>
		</g>
	</g>
</g>
<path id="path242_1_" inkscape:connector-curvature="0" class="st18" d="M10.5,20.8c-0.2,0.4-0.9,1.4-2.1,3.1
	c-1.1,1.5-1.6,2.4-1.5,2.5c0.1,0.2,0.7-0.3,1.9-1.6c0.8-0.9,1.6-1.6,2.2-2.3c0.2-0.2,0.4-0.8,0.7-1.6c0.3-0.8,0.4-1.3,0.4-1.5
	c0-0.2-0.2-0.2-0.6,0.2C11.1,20,10.8,20.4,10.5,20.8z"/>
<path id="path246_1_" inkscape:connector-curvature="0" class="st18" d="M14.5,19.9c-0.2,0.5,0,0.5,0.4,0.1c0.4-0.4,0.8-0.9,1.1-1.5
	c0.3-0.6,0.2-0.7-0.4-0.2C15.2,18.8,14.8,19.3,14.5,19.9z"/>
<g id="g248_1_">
	<g id="g250_1_">
		<g id="g256_1_">
			
				<linearGradient id="path264_3_" gradientUnits="userSpaceOnUse" x1="3.9656" y1="1.7987" x2="16.4156" y2="7.9487" gradientTransform="matrix(-0.9382 0.2805 -0.2805 -0.9382 24.0753 26.082)">
				<stop  offset="0" style="stop-color:#B3985D"/>
				<stop  offset="1" style="stop-color:#B39B5A"/>
			</linearGradient>
			<path id="path264_1_" inkscape:connector-curvature="0" class="st38" d="M14.4,15.8c0.2,0,0.4,0.1,0.7,0.2c0.6,0.3,1,0.7,1.3,1.2
				c0.4,0.7,0.6,1.4,0.7,2l-0.9,2.5c-0.7,1.9-1.4,3.4-2,4.5c-1.4,2.6-2.2,4-2.6,4.3c-1,0.6-1.5,0.8-1.5,0.6l-0.8,1.4l1.1,0.2
				c1.4-1.2,2.6-2.8,3.6-4.8c1.5-3.2,2.6-5.6,3-7.3l0.4-1.6c0.1-0.5-0.1-1.2-0.7-2c-0.4-0.5-0.9-0.8-1.5-1.1
				C14.8,15.9,14.6,15.8,14.4,15.8z"/>
		</g>
	</g>
</g>
<g id="g14_1_">
	<g id="g16_1_">
		<g id="g22_1_">
			
				<radialGradient id="path30_3_" cx="-925.2176" cy="1596.4655" r="27.082" gradientTransform="matrix(0.7303 0.6522 -0.6589 0.7377 1737.0465 -571.0652)" gradientUnits="userSpaceOnUse">
				<stop  offset="0" style="stop-color:#FFD66E"/>
				<stop  offset="1" style="stop-color:#806733"/>
			</radialGradient>
			<path id="path30_1_" inkscape:connector-curvature="0" class="st39" d="M14,0.1c-2.9-0.5-6,0.2-9.1,2C1.6,4,0.1,6.2,0.4,8.7
				C1,14,4.5,18.1,11.1,20.8c4.6,1.9,8.6,2.8,12.1,2.8c3.4-0.1,5.9-1.1,7.5-3c0.6-0.8,0.9-2.1,0.9-3.9c0-2.1-0.5-4.2-1.5-6.3
				C27.4,4.8,22.1,1.4,14,0.1z"/>
		</g>
	</g>
</g>
</svg>
