<?xml version="1.0" encoding="utf-8"?>
<!-- Generator: Adobe Illustrator 25.0.0, SVG Export Plug-In . SVG Version: 6.00 Build 0)  -->
<svg version="1.1"
	 id="svg2" xmlns:cc="http://creativecommons.org/ns#" xmlns:dc="http://purl.org/dc/elements/1.1/" xmlns:inkscape="http://www.inkscape.org/namespaces/inkscape" xmlns:ns1="http://sozi.baierouge.fr" xmlns:rdf="http://www.w3.org/1999/02/22-rdf-syntax-ns#" xmlns:sodipodi="http://sodipodi.sourceforge.net/DTD/sodipodi-0.dtd"
	 xmlns="http://www.w3.org/2000/svg" xmlns:xlink="http://www.w3.org/1999/xlink" x="0px" y="0px" viewBox="0 0 22.6 37.5"
	 style="enable-background:new 0 0 22.6 37.5;" xml:space="preserve">
<style type="text/css">
	.st0{fill-rule:evenodd;clip-rule:evenodd;fill:url(#path326_1_);}
	.st1{fill-rule:evenodd;clip-rule:evenodd;fill:url(#path333_1_);}
	.st2{fill-rule:evenodd;clip-rule:evenodd;fill:url(#path340_1_);}
	.st3{fill-rule:evenodd;clip-rule:evenodd;fill:url(#path347_1_);}
	.st4{fill-rule:evenodd;clip-rule:evenodd;fill:url(#path354_1_);}
	.st5{fill-rule:evenodd;clip-rule:evenodd;fill:#615031;}
	.st6{fill-rule:evenodd;clip-rule:evenodd;fill:url(#path446_1_);}
	.st7{fill-rule:evenodd;clip-rule:evenodd;fill:#FFE98D;}
	.st8{fill-rule:evenodd;clip-rule:evenodd;fill:url(#SVGID_1_);}
	.st9{fill-rule:evenodd;clip-rule:evenodd;fill:#FFE67D;}
	.st10{fill-rule:evenodd;clip-rule:evenodd;fill:#FCEFAE;}
	.st11{fill-rule:evenodd;clip-rule:evenodd;fill:url(#path180_1_);}
	.st12{fill-rule:evenodd;clip-rule:evenodd;fill:url(#path187_1_);}
	.st13{fill-rule:evenodd;clip-rule:evenodd;fill:url(#path194_1_);}
	.st14{fill-rule:evenodd;clip-rule:evenodd;fill:url(#path201_1_);}
	.st15{fill-rule:evenodd;clip-rule:evenodd;fill:url(#path208_1_);}
	.st16{fill-rule:evenodd;clip-rule:evenodd;fill:url(#path215_1_);}
	.st17{fill-rule:evenodd;clip-rule:evenodd;fill:url(#path222_1_);}
	.st18{fill-rule:evenodd;clip-rule:evenodd;fill:url(#path229_1_);}
	.st19{fill-rule:evenodd;clip-rule:evenodd;fill:url(#path236_1_);}
	.st20{fill-rule:evenodd;clip-rule:evenodd;fill:url(#path243_1_);}
	.st21{fill-rule:evenodd;clip-rule:evenodd;fill:url(#path250_1_);}
	.st22{fill-rule:evenodd;clip-rule:evenodd;fill:url(#path257_1_);}
	.st23{fill-rule:evenodd;clip-rule:evenodd;fill:url(#path264_1_);}
	.st24{fill-rule:evenodd;clip-rule:evenodd;fill:url(#path271_1_);}
	.st25{fill-rule:evenodd;clip-rule:evenodd;fill:url(#path278_1_);}
	.st26{fill-rule:evenodd;clip-rule:evenodd;fill:url(#path285_1_);}
	.st27{fill-rule:evenodd;clip-rule:evenodd;fill:#FFFFFF;}
	.st28{fill-rule:evenodd;clip-rule:evenodd;fill:url(#path294_1_);}
	.st29{fill-rule:evenodd;clip-rule:evenodd;fill:url(#path301_1_);}
	.st30{fill-rule:evenodd;clip-rule:evenodd;fill:url(#path308_1_);}
	.st31{fill-rule:evenodd;clip-rule:evenodd;fill:url(#path315_1_);}
	.st32{fill-rule:evenodd;clip-rule:evenodd;fill:#A78A56;}
	.st33{fill-rule:evenodd;clip-rule:evenodd;fill:#CBA769;}
	.st34{fill-rule:evenodd;clip-rule:evenodd;fill:#A58D54;}
	.st35{fill-rule:evenodd;clip-rule:evenodd;fill:#8B7347;}
	.st36{fill-rule:evenodd;clip-rule:evenodd;fill:#735E39;}
	.st37{fill-rule:evenodd;clip-rule:evenodd;fill:#4D4027;}
	.st38{fill-rule:evenodd;clip-rule:evenodd;fill:url(#path371_1_);}
	.st39{fill-rule:evenodd;clip-rule:evenodd;fill:url(#path378_1_);}
	.st40{fill-rule:evenodd;clip-rule:evenodd;fill:url(#path385_1_);}
	.st41{fill-rule:evenodd;clip-rule:evenodd;fill:url(#path392_1_);}
	.st42{fill-rule:evenodd;clip-rule:evenodd;fill:#705C39;}
	.st43{fill-rule:evenodd;clip-rule:evenodd;fill:url(#path401_1_);}
	.st44{fill-rule:evenodd;clip-rule:evenodd;fill:url(#path410_1_);}
	.st45{fill-rule:evenodd;clip-rule:evenodd;fill:url(#path419_1_);}
	.st46{fill-rule:evenodd;clip-rule:evenodd;fill:url(#path428_1_);}
	.st47{fill-rule:evenodd;clip-rule:evenodd;fill:url(#path437_1_);}
	.st48{clip-path:url(#SVGID_3_);fill:url(#SVGID_4_);}
	.st49{fill-rule:evenodd;clip-rule:evenodd;fill:url(#path159_1_);}
	.st50{fill-rule:evenodd;clip-rule:evenodd;fill:#FFD503;stroke:#545456;stroke-width:0.1;stroke-miterlimit:10;}
</style>
<sodipodi:namedview  bordercolor="#666666" borderopacity="1" gridtolerance="10" guidetolerance="10" id="namedview489" inkscape:current-layer="svg2" inkscape:cx="11.250084" inkscape:cy="18.43091" inkscape:pageopacity="0" inkscape:pageshadow="2" inkscape:window-height="645" inkscape:window-maximized="0" inkscape:window-width="785" inkscape:window-x="0" inkscape:window-y="0" inkscape:zoom="6.4025737" objecttolerance="10" pagecolor="#ffffff" showgrid="false">
	</sodipodi:namedview>
<linearGradient id="path326_1_" gradientUnits="userSpaceOnUse" x1="-5370.9292" y1="-2466.2336" x2="-5368.4292" y2="-2466.2336" gradientTransform="matrix(-0.8 8.000000e-03 -8.000000e-03 -0.8 -4305.0098 -1929.2817)">
	<stop  offset="0" style="stop-color:#C1A064"/>
	<stop  offset="1" style="stop-color:#706341"/>
</linearGradient>
<path id="path326" inkscape:connector-curvature="0" class="st0" d="M10.7,0.5c0.1,0,0.2,0.1,0.2,0.2s-0.1,0.2-0.2,0.2
	C10.6,1,10.5,1,10.2,1H8.9c0-0.3,0.4-0.5,1.3-0.5C10.2,0.5,10.7,0.5,10.7,0.5z"/>
<linearGradient id="path333_1_" gradientUnits="userSpaceOnUse" x1="-5362.4185" y1="-2479.6882" x2="-5360.6885" y2="-2479.6882" gradientTransform="matrix(-0.8 1.100000e-02 -1.100000e-02 -0.8 -4305.1221 -1923.4225)">
	<stop  offset="0" style="stop-color:#C1A064"/>
	<stop  offset="1" style="stop-color:#706341"/>
</linearGradient>
<path id="path333" inkscape:connector-curvature="0" class="st1" d="M10.8,1.4c-0.1-0.2,0-0.2,0.3-0.2c0.1,0,0.3,0,0.5,0h0.5
	c-0.1,0.2-0.2,0.3-0.2,0.3h-0.4C11.5,1.5,10.8,1.4,10.8,1.4z"/>
<linearGradient id="path340_1_" gradientUnits="userSpaceOnUse" x1="-5397.0132" y1="-2431.7427" x2="-5396.5132" y2="-2431.7427" gradientTransform="matrix(-0.8 0 0 -0.8 -4304.7095 -1944.9067)">
	<stop  offset="0" style="stop-color:#C1A064"/>
	<stop  offset="1" style="stop-color:#706341"/>
</linearGradient>
<path id="path340" inkscape:connector-curvature="0" class="st2" d="M12.4,0.4h0.2c0.1,0,0.2,0,0.3,0.1c-0.2,0.1-0.3,0.1-0.4,0
	C12.4,0.5,12.4,0.5,12.4,0.4z"/>
<linearGradient id="path347_1_" gradientUnits="userSpaceOnUse" x1="-5379.0591" y1="-2465.8557" x2="-5375.3091" y2="-2465.8557" gradientTransform="matrix(-0.8 8.000000e-03 -8.000000e-03 -0.8 -4305.0098 -1929.2817)">
	<stop  offset="0" style="stop-color:#C1A064"/>
	<stop  offset="1" style="stop-color:#706341"/>
</linearGradient>
<path id="path347" inkscape:connector-curvature="0" class="st3" d="M14.4,0.5c-0.2-0.1-0.2-0.2-0.1-0.3l1.4,0.4h-0.2
	c-0.2,0-0.4,0-0.6,0C14.7,0.6,14.5,0.6,14.4,0.5z"/>
<linearGradient id="path354_1_" gradientUnits="userSpaceOnUse" x1="-5401.2134" y1="-2432.2583" x2="-5400.3135" y2="-2432.2583" gradientTransform="matrix(-0.8 0 0 -0.8 -4304.7095 -1944.9067)">
	<stop  offset="0" style="stop-color:#C1A064"/>
	<stop  offset="1" style="stop-color:#706341"/>
</linearGradient>
<path id="path354" inkscape:connector-curvature="0" class="st4" d="M15.5,1c0,0,0-0.1,0-0.2h0.6C16.1,0.9,15.9,1,15.5,1z"/>
<path id="path360" inkscape:connector-curvature="0" class="st5" d="M15,1.8c-0.5-0.2-0.8-0.2-1-0.1l0,0c0.2-0.1,0.6-0.1,1.4,0.2V2
	c0.1,0.5-0.1,0.8-0.4,0.8c-0.1,0-0.3,0-0.4-0.1c0.2,0.1,0.4,0,0.5-0.2c0.1-0.1,0.1-0.3,0.1-0.5c0-0.1-0.1-0.2-0.1-0.2
	C15.2,1.8,15,1.8,15,1.8z"/>
<path id="path439" inkscape:connector-curvature="0" class="st5" d="M15.2,1.8c0,0,0.1,0.1,0.1,0.2c0,0.2,0,0.3-0.1,0.5
	s-0.3,0.3-0.5,0.2l-0.2-0.3h0.1l-0.1-0.1V2.2L14.2,2l-0.1-0.2c-0.1-0.1-0.1-0.1,0-0.2c0.2-0.2,0.5-0.1,1,0.1
	C15,1.8,15.2,1.8,15.2,1.8z"/>
<linearGradient id="path446_1_" gradientUnits="userSpaceOnUse" x1="-4765.0527" y1="3077.1555" x2="-4763.5527" y2="3077.1555" gradientTransform="matrix(-0.101 -0.794 0.794 -0.101 -2909.6838 -3469.4436)">
	<stop  offset="0" style="stop-color:#C1A064"/>
	<stop  offset="1" style="stop-color:#706341"/>
</linearGradient>
<path id="path446" inkscape:connector-curvature="0" class="st6" d="M15.2,1.8c0,0,0.1,0.1,0.1,0.2c0,0.2,0,0.3-0.1,0.5
	s-0.3,0.3-0.5,0.2l-0.2-0.3h0.1l-0.1-0.1V2.2L14.2,2l-0.1-0.2c-0.1-0.1-0.1-0.1,0-0.2c0.2-0.2,0.5-0.1,1,0.1
	C15,1.8,15.2,1.8,15.2,1.8z"/>
<path class="st7" d="M14.6,36.8c0.2-0.1,0.3-0.1,0.4-0.2c0,0,0,0,0.1-0.1c0.2-0.1,0.5-0.2,0.7-0.3c0.2-0.1,0.3-0.2,0.5-0.2
	c0.2-0.1,0.4-0.2,0.6-0.4c0.1-0.1,0.2-0.1,0.3-0.2c0.3-0.3,0.6-0.5,1-0.7l0.1-0.1c0.1-0.1,0.3-0.2,0.4-0.4c0.2-0.3,0.4-0.7,0.7-0.9
	c0,0,0,0,0,0c0.2-0.2,0.4-0.4,0.6-0.6c0-0.1,0.1-0.2,0.1-0.2c0.1-0.2,0.3-0.4,0.5-0.6c0.1-0.3,0.2-0.7,0.4-1c0-0.1,0.1-0.1,0.1-0.2
	c0,0,0,0,0,0c0.1-0.4,0.3-0.8,0.5-1.2c0,0,0,0,0,0c0-0.2,0.1-0.4,0.1-0.6c0.1-0.3,0.2-0.5,0.3-0.8c0-0.1,0-0.1,0-0.2
	c-0.1-0.7,0-1.4,0.1-2.1c0-0.1,0-0.1,0.1-0.2c0,0,0,0,0,0c0,0,0-0.1-0.1-0.1c0-0.1,0-0.2,0-0.2c0-0.3-0.1-0.6-0.1-0.9
	c-0.3-0.6-0.5-1.2-0.4-1.9l-0.1-0.1c-0.2-0.4-0.5-1.1-0.5-1.3c0,0,0-0.1,0-0.1c-0.1-0.1-0.2-0.2-0.2-0.3c-0.1-0.2-0.1-0.3-0.2-0.5
	c0,0,0,0,0,0c0,0,0-0.1-0.1-0.1c0-0.1-0.1-0.2-0.1-0.2c-0.1-0.1-0.3-0.3-0.3-0.4c-0.1-0.1-0.3-0.3-0.3-0.4c-0.2-0.2-0.4-0.5-0.7-0.9
	c0,0,0-0.1-0.1-0.1c-2.6,0.5-5.4,0.7-8.5,0.6c-2.6-0.1-4.9-0.4-7.2-0.8c-0.2,0.4-0.6,0.7-0.9,1c-0.1,0.2-0.3,0.4-0.4,0.5
	c-0.2,0.5-0.5,0.9-0.8,1.2c0,0,0,0.1-0.1,0.1c-0.1,0.1-0.1,0.2-0.2,0.3c-0.1,0.3-0.2,0.5-0.3,0.8c0,0.1,0,0.1-0.1,0.2
	c0,0.1-0.1,0.2-0.2,0.3c0,0.4-0.1,0.7-0.2,1c-0.1,0.4-0.2,0.8-0.3,1.1c0,0.2,0,0.3,0,0.5c0.1,0.7,0.1,0.8,0,1.5c0,0.1,0,0.2,0,0.3
	c0,0.2,0.1,0.3,0.1,0.5c0.2,0.7,0.3,1.4,0.3,2.1c0.1,0.2,0.2,0.4,0.3,0.6c0,0,0,0,0,0c0.2,0.3,0.3,0.7,0.4,1
	c0.4,0.5,0.7,1.1,0.9,1.6c0.3,0.3,0.6,0.6,0.8,1c0,0,0,0.1,0.1,0.1c0,0,0,0,0,0c0.6,0.4,1,0.7,1.4,1.2c0.2,0.2,0.5,0.3,0.7,0.5
	C5.5,35.7,5.7,35.9,6,36c-0.1,0-0.1-0.1-0.2-0.1C5.9,36,6,36,6.1,36.1c0.4,0.1,0.8,0.3,1.1,0.5c0,0,0,0,0.1,0.1
	c1.2,0.3,2.4,0.5,3.6,0.6C12.2,37.3,13.4,37.1,14.6,36.8z"/>
<radialGradient id="SVGID_1_" cx="916.7864" cy="1562.3176" r="17.867" gradientTransform="matrix(0.109 0.792 0.726 -0.1 -1223.7725 -548.0198)" gradientUnits="userSpaceOnUse">
	<stop  offset="0" style="stop-color:#FFFFFF;stop-opacity:0.478"/>
	<stop  offset="0.71" style="stop-color:#FFFFFF;stop-opacity:8.200000e-02"/>
	<stop  offset="0.867" style="stop-color:#FFFFFF;stop-opacity:0.2"/>
	<stop  offset="1" style="stop-color:#FFFFFF;stop-opacity:2.800000e-02"/>
</radialGradient>
<path class="st8" d="M14.9,36.7c0,0,0.1-0.1,0.1-0.1c0.2-0.1,0.5-0.2,0.7-0.3c0.4-0.2,0.7-0.4,1.1-0.5c0.1-0.1,0.2-0.1,0.3-0.2
	c0.3-0.3,0.6-0.6,1-0.8l0.2-0.1c0.1-0.1,0.2-0.2,0.3-0.3c0.2-0.4,0.5-0.7,0.8-1c0,0,0,0,0,0c0.2-0.2,0.4-0.4,0.6-0.6
	c0-0.1,0.1-0.2,0.1-0.2c0.1-0.2,0.3-0.4,0.5-0.6c0.1-0.3,0.2-0.7,0.4-1c0-0.1,0.1-0.1,0.1-0.2c0,0,0,0,0,0c0.1-0.4,0.3-0.7,0.5-1
	c0-0.3,0.1-0.5,0.1-0.8c0.1-0.3,0.2-0.5,0.3-0.8c0-0.1,0-0.2,0-0.2c0,0,0-0.1,0-0.1c-0.1-0.6,0-1.3,0.1-1.9c0,0,0-0.1,0-0.1
	c0-0.3,0-0.5,0.1-0.8c-0.1-1.2-0.4-2.4-0.9-3.6c0-0.1-0.1-0.2-0.1-0.3c-0.1-0.1-0.2-0.3-0.3-0.5c-0.1-0.2-0.1-0.3-0.2-0.5
	c0-0.1-0.1-0.2-0.1-0.3c-0.1-0.2-0.2-0.4-0.3-0.5c0,0,0,0-0.1-0.1c-0.3-0.3-0.6-0.7-0.8-1l0,0C18.4,17,17,16,15.3,15.4
	c-2.8-1.1-5.7-1.1-8.6,0.2c-2.9,1.3-4.9,3.4-6,6.3c-0.3,0.9-0.5,1.7-0.7,2.6c0,0.2,0,0.3,0,0.5c0.1,0.7,0.1,0.8,0,1.5
	c0,0.1,0,0.2,0,0.3c0,0.2,0.1,0.3,0.1,0.5c0.2,0.7,0.3,1.4,0.3,2.1c0.1,0.2,0.2,0.4,0.3,0.6c0,0,0,0,0,0c0.3,0.5,0.5,1,0.6,1.5
	c0.5,0.9,1,1.6,1.7,2.3c0.6,0.4,1,0.7,1.3,1.1c0.2,0.2,0.5,0.3,0.7,0.5c0.3,0.2,0.6,0.3,0.8,0.5c-0.1,0-0.1-0.1-0.2-0.1
	c0.1,0,0.2,0.1,0.3,0.1c0.4,0.1,0.8,0.3,1.1,0.5c0,0,0,0,0.1,0.1c2.5,1,5,1.1,7.5,0.2C14.7,36.8,14.8,36.7,14.9,36.7z"/>
<path id="path18" inkscape:connector-curvature="0" class="st9" d="M17.3,17.2c1.5,0.4,2.3,0.8,2.3,1.2c0,0.5-0.8,0.8-2.4,1.1
	c-1.6,0.3-3.4,0.4-5.6,0.4S7.5,19.6,6,19.3c-1.5-0.4-2.3-0.8-2.3-1.2c0-0.5,0.8-0.8,2.4-1.1c1.6-0.3,3.5-0.4,5.6-0.4
	C13.9,16.6,15.8,16.9,17.3,17.2z"/>
<path class="st10" d="M19.6,18.3c-0.1,0.4-0.9,0.8-2.4,1.1c-1.6,0.3-3.5,0.5-5.7,0.4c-2.2-0.1-4.1-0.3-5.7-0.7
	c-1.5-0.4-2.3-0.8-2.3-1.3c0,0.6,0.7,1,2,1.5c1.5,0.4,3.5,0.7,6.1,0.7c2.6,0.1,4.6-0.1,6.1-0.5C18.9,19.2,19.5,18.8,19.6,18.3
	C19.6,18.3,19.6,18.3,19.6,18.3z"/>
<linearGradient id="path180_1_" gradientUnits="userSpaceOnUse" x1="2126.9028" y1="953.6522" x2="2137.4028" y2="953.6522" gradientTransform="matrix(0.745 0.292 -0.292 0.745 -1298.1097 -1316.6122)">
	<stop  offset="0" style="stop-color:#FFFFFF;stop-opacity:0.949"/>
	<stop  offset="1" style="stop-color:#ABD9DB"/>
</linearGradient>
<path id="path180" inkscape:connector-curvature="0" class="st11" d="M7.1,16.2c0-0.5,0.5-0.8,1.4-1.1s1.9-0.5,3.2-0.4
	s2.3,0.2,3.1,0.5c0.9,0.3,1.3,0.7,1.2,1.2c-0.1,0.5-0.4,0.8-1.2,1.1c-0.4,0.1-0.9,0.2-1.4,0.3c0.5-0.1,0.9-0.2,1.2-0.3
	c0.7-0.3,1.1-0.6,1.2-1c0-0.4-0.4-0.8-1.2-1.1s-1.8-0.5-3-0.5s-2.2,0.1-3,0.4c-0.9,0.3-1.3,0.7-1.3,1.1s0.3,0.7,1,1
	c0.4,0.2,0.8,0.3,1.2,0.4c-0.5-0.1-0.9-0.2-1.3-0.4C7.4,17,7,16.6,7.1,16.2z"/>
<linearGradient id="path187_1_" gradientUnits="userSpaceOnUse" x1="1932.6166" y1="1560.4258" x2="1941.9166" y2="1560.4258" gradientTransform="matrix(0.78 0.176 -0.176 0.78 -1225.3973 -1541.8596)">
	<stop  offset="0" style="stop-color:#000000;stop-opacity:0.247"/>
	<stop  offset="1" style="stop-color:#000000;stop-opacity:2.800000e-02"/>
</linearGradient>
<path id="path187" inkscape:connector-curvature="0" class="st12" d="M15.8,16.4c0,0.4-0.5,0.8-1.3,1.1c-0.8,0.3-1.8,0.4-3,0.4
	s-2.2-0.2-3-0.5s-1.2-0.7-1.2-1.1s0.5-0.8,1.3-1.1c0.9-0.3,1.9-0.4,3-0.4c1.2,0,2.2,0.2,3,0.5C15.4,15.6,15.8,15.9,15.8,16.4z"/>
<linearGradient id="path194_1_" gradientUnits="userSpaceOnUse" x1="-5162.9351" y1="2674.916" x2="-5156.0342" y2="2674.916" gradientTransform="matrix(-0.205 -0.773 0.773 -0.205 -3113.5957 -3432.3313)">
	<stop  offset="0" style="stop-color:#FFFFFF;stop-opacity:0.22"/>
	<stop  offset="1" style="stop-color:#FFFFFF;stop-opacity:2.800000e-02"/>
</linearGradient>
<path id="path194" inkscape:connector-curvature="0" class="st13" d="M14.8,8.7c0.8-0.3,1.3-0.7,1.3-1.1c0-0.5-0.4-0.8-1.2-1.2
	c-0.8-0.3-1.8-0.5-3-0.6c-1.2,0-2.2,0.1-3,0.4C8.1,6.6,7.7,6.9,7.7,7.4s0.4,0.9,1.2,1.2s1.8,0.5,3,0.5C13,9.1,14,9,14.8,8.7z
	 M17.2,8.1c0,0.7-0.6,1.2-1.6,1.7c-1.1,0.5-2.3,0.7-3.8,0.6c-1.5,0-2.7-0.3-3.7-0.8S6.6,8.5,6.6,7.9s0.6-1.2,1.6-1.7
	c1-0.4,2.3-0.6,3.8-0.6s2.7,0.3,3.7,0.8C16.7,6.8,17.2,7.4,17.2,8.1z"/>
<linearGradient id="path201_1_" gradientUnits="userSpaceOnUse" x1="1547.8398" y1="2276.458" x2="1558.6399" y2="2276.458" gradientTransform="matrix(0.8 2.200000e-02 -2.200000e-02 0.8 -1180.5553 -1841.8882)">
	<stop  offset="0" style="stop-color:#FFFFFF;stop-opacity:0.22"/>
	<stop  offset="1" style="stop-color:#FFFFFF;stop-opacity:2.800000e-02"/>
</linearGradient>
<path id="path201" inkscape:connector-curvature="0" class="st14" d="M14.6,10c0.8-0.3,1.3-0.6,1.5-1l-0.2,7l0.1,0.3
	c0,0.5-0.5,0.9-1.3,1.2c-0.9,0.3-1.9,0.5-3.1,0.5s-2.2-0.2-3-0.6c-0.9-0.4-1.3-0.8-1.2-1.3l0.1-0.3l0.2-7C7.8,9.3,8.2,9.6,9,9.9
	c0.8,0.3,1.7,0.4,2.8,0.4C12.9,10.4,13.8,10.3,14.6,10z"/>
<linearGradient id="path208_1_" gradientUnits="userSpaceOnUse" x1="1548.3398" y1="2276.2871" x2="1557.5399" y2="2276.2871" gradientTransform="matrix(0.8 2.200000e-02 -2.200000e-02 0.8 -1180.5553 -1841.8882)">
	<stop  offset="0" style="stop-color:#FFFFFF;stop-opacity:0.22"/>
	<stop  offset="1" style="stop-color:#FFFFFF;stop-opacity:2.800000e-02"/>
</linearGradient>
<path id="path208" inkscape:connector-curvature="0" class="st15" d="M8.2,9.4c0.8,0.6,2,0.9,3.6,0.9c1.5,0.1,2.8-0.2,3.7-0.8
	l-0.2,5.8l0.1,0.3c0,0.5-0.4,0.9-1.2,1.2c-0.7,0.3-1.6,0.5-2.6,0.4c-1,0-1.9-0.2-2.6-0.6c-0.7-0.3-1.1-0.8-1-1.2l0.1-0.3L8.2,9.4z"
	/>
<linearGradient id="path215_1_" gradientUnits="userSpaceOnUse" x1="1547.7489" y1="2281.886" x2="1558.549" y2="2281.886" gradientTransform="matrix(0.8 2.200000e-02 -2.200000e-02 0.8 -1180.5553 -1841.8882)">
	<stop  offset="0" style="stop-color:#FFFFFF;stop-opacity:0.949"/>
	<stop  offset="1" style="stop-color:#ABD9DB"/>
</linearGradient>
<path id="path215" inkscape:connector-curvature="0" class="st16" d="M12.9,17.9C12.6,18,12.2,18,11.5,18s-1.4-0.1-2.2-0.3l-0.1-0.2
	c0.7,0.2,1.5,0.3,2.6,0.3L12.9,17.9z"/>
<linearGradient id="path222_1_" gradientUnits="userSpaceOnUse" x1="1547.8398" y1="2275.9141" x2="1558.6399" y2="2275.9141" gradientTransform="matrix(0.8 2.200000e-02 -2.200000e-02 0.8 -1180.5553 -1841.8882)">
	<stop  offset="0" style="stop-color:#FFFFFF;stop-opacity:0.949"/>
	<stop  offset="1" style="stop-color:#809C89"/>
</linearGradient>
<path id="path222" inkscape:connector-curvature="0" class="st17" d="M7.6,8.7c0,0.1,0.1,0.2,0.3,0.4l-0.1,5.6v0.1
	c0,0.7,0.2,1.4,0.6,1.9l-0.2,0.1c-0.2-0.1-0.4-0.2-0.5-0.2c-0.1,0-0.1,0.1,0,0.2L8,17v0.1c-0.5-0.3-0.7-0.6-0.7-1l0.1-0.3L7.6,8.7z"
	/>
<linearGradient id="path229_1_" gradientUnits="userSpaceOnUse" x1="1465.7317" y1="2398.0405" x2="1475.5618" y2="2398.0405" gradientTransform="matrix(0.8 -6.000000e-03 6.000000e-03 0.8 -1179.5043 -1896.5754)">
	<stop  offset="0" style="stop-color:#FFFFFF;stop-opacity:0.949"/>
	<stop  offset="1" style="stop-color:#9AAFB8"/>
</linearGradient>
<path id="path229" inkscape:connector-curvature="0" class="st18" d="M15.8,10c0-0.2,0-0.3-0.1-0.4c-0.1,0-0.2,0.1-0.5,0.2V9.7
	c0.5-0.2,0.8-0.5,1-0.8L15.9,16v0.3c0,0.3-0.2,0.5-0.5,0.8c0,0-0.1-0.1-0.4-0.3c0.2-0.2,0.3-0.4,0.4-0.7l0.2-0.6
	C15.6,15.5,15.8,10,15.8,10z"/>
<linearGradient id="path236_1_" gradientUnits="userSpaceOnUse" x1="362.7395" y1="-3537.4343" x2="367.1396" y2="-3537.4343" gradientTransform="matrix(-2.100000e-02 0.8 -0.8 -2.100000e-02 -2813.2598 -353.1799)">
	<stop  offset="0" style="stop-color:#FFFFFF;stop-opacity:0.42"/>
	<stop  offset="1" style="stop-color:#FFFFFF;stop-opacity:2.800000e-02"/>
</linearGradient>
<path id="path236" inkscape:connector-curvature="0" class="st19" d="M8.7,9.7c0.5,0.2,1,0.3,1.4,0.4l-0.2,7c-0.1,0-0.2,0.1-0.2,0.2
	l0.1,0.1l0,0l-0.5-0.2H9.1c-0.1,0,0,0.1,0.1,0.3c-0.6-0.2-1-0.3-1.3-0.5c0-0.1,0.1-0.2,0.2-0.2l0.7,0.3l-0.5-0.4l0.2-0.1L8.7,9.7z"
	/>
<linearGradient id="path243_1_" gradientUnits="userSpaceOnUse" x1="1545.2512" y1="2285.2712" x2="1555.9513" y2="2285.2712" gradientTransform="matrix(0.8 2.100000e-02 -2.100000e-02 0.8 -1180.5176 -1843.8413)">
	<stop  offset="0" style="stop-color:#FFFFFF;stop-opacity:0.949"/>
	<stop  offset="1" style="stop-color:#ABD9DB"/>
</linearGradient>
<path id="path243" inkscape:connector-curvature="0" class="st20" d="M8.8,17.1l-0.6-0.4l0.2-0.1L8.8,17.1z"/>
<linearGradient id="path250_1_" gradientUnits="userSpaceOnUse" x1="362.7383" y1="-3536.9197" x2="367.2383" y2="-3536.9197" gradientTransform="matrix(-2.100000e-02 0.8 -0.8 -2.100000e-02 -2813.2598 -353.1799)">
	<stop  offset="0" style="stop-color:#FFFFFF;stop-opacity:0.42"/>
	<stop  offset="1" style="stop-color:#FFFFFF;stop-opacity:2.800000e-02"/>
</linearGradient>
<path id="path250" inkscape:connector-curvature="0" class="st21" d="M8.8,17.1l-0.6-0.4l0.2-0.1L8.8,17.1z"/>
<linearGradient id="path257_1_" gradientUnits="userSpaceOnUse" x1="1492.6715" y1="2375.0828" x2="1492.7716" y2="2370.5828" gradientTransform="matrix(0.8 0 0 0.8 -1179.7295 -1884.8567)">
	<stop  offset="0" style="stop-color:#FFFFFF;stop-opacity:0.137"/>
	<stop  offset="1" style="stop-color:#FFFFFF;stop-opacity:2.800000e-02"/>
</linearGradient>
<path id="path257" inkscape:connector-curvature="0" class="st22" d="M13.8,10.1l0.5-0.1c0.3,0,0.6-0.1,0.8-0.2h0.1L15,16.7h0.1
	c-0.2,0.2-0.3,0.3-0.6,0.5c0.5-0.1,0.7-0.1,0.7,0c-0.4,0.2-0.7,0.3-1.1,0.4c0.2-0.2,0.2-0.3,0.2-0.4h-0.2l-0.6,0.2
	C13.5,17.5,13.8,10.1,13.8,10.1z"/>
<linearGradient id="path264_1_" gradientUnits="userSpaceOnUse" x1="1544.8513" y1="2276.3254" x2="1556.3512" y2="2276.3254" gradientTransform="matrix(0.8 2.100000e-02 -2.100000e-02 0.8 -1180.5176 -1843.8413)">
	<stop  offset="0" style="stop-color:#FFFFFF"/>
	<stop  offset="1" style="stop-color:#ABD9DB"/>
</linearGradient>
<path id="path264" inkscape:connector-curvature="0" class="st23" d="M15.1,9.8c-0.2,0.1-0.5,0.2-0.8,0.2l0.9-0.3L15.1,9.8
	C15.2,9.8,15.1,9.8,15.1,9.8z"/>
<linearGradient id="path271_1_" gradientUnits="userSpaceOnUse" x1="1492.9623" y1="2375.1836" x2="1493.0623" y2="2370.6836" gradientTransform="matrix(0.8 0 0 0.8 -1179.7295 -1884.8567)">
	<stop  offset="0" style="stop-color:#FFFFFF;stop-opacity:0.137"/>
	<stop  offset="1" style="stop-color:#FFFFFF;stop-opacity:2.800000e-02"/>
</linearGradient>
<path id="path271" inkscape:connector-curvature="0" class="st24" d="M15.1,9.8c-0.2,0.1-0.5,0.2-0.8,0.2l0.9-0.3L15.1,9.8
	C15.2,9.8,15.1,9.8,15.1,9.8z"/>
<linearGradient id="path278_1_" gradientUnits="userSpaceOnUse" x1="1544.7512" y1="2285.321" x2="1556.3512" y2="2285.321" gradientTransform="matrix(0.8 2.100000e-02 -2.100000e-02 0.8 -1180.5176 -1843.8413)">
	<stop  offset="0" style="stop-color:#FFFFFF"/>
	<stop  offset="1" style="stop-color:#ABD9DB"/>
</linearGradient>
<path id="path278" inkscape:connector-curvature="0" class="st25" d="M15,16.8c0.3,0.2,0.4,0.3,0.4,0.3l-0.3,0.2
	c0-0.1-0.2-0.1-0.7,0C14.7,17.1,14.9,16.9,15,16.8z"/>
<linearGradient id="path285_1_" gradientUnits="userSpaceOnUse" x1="1493.3597" y1="2374.979" x2="1493.4597" y2="2370.5789" gradientTransform="matrix(0.8 0 0 0.8 -1179.7295 -1884.8567)">
	<stop  offset="0" style="stop-color:#FFFFFF;stop-opacity:0.137"/>
	<stop  offset="1" style="stop-color:#FFFFFF;stop-opacity:2.800000e-02"/>
</linearGradient>
<path id="path285" inkscape:connector-curvature="0" class="st26" d="M15,16.8c0.3,0.2,0.4,0.3,0.4,0.3l-0.3,0.2
	c0-0.1-0.2-0.1-0.7,0C14.7,17.1,14.9,16.9,15,16.8z"/>
<path id="path287" inkscape:connector-curvature="0" class="st27" d="M9.7,17.3c0-0.1,0.1-0.1,0.2-0.2c0.2-0.1,0.4,0,0.6,0.1
	c0.4,0.2,0.6,0.3,0.4,0.3c-0.5,0-0.9-0.1-1-0.2C9.8,17.4,9.7,17.3,9.7,17.3z M11.3,17.7c-0.1-0.1-0.1-0.1-0.1-0.2
	c0.1-0.1,0.2-0.1,0.3-0.1s0.2,0.1,0.1,0.2C11.5,17.7,11.4,17.7,11.3,17.7z"/>
<linearGradient id="path294_1_" gradientUnits="userSpaceOnUse" x1="1545.2512" y1="2273.4915" x2="1555.8512" y2="2273.4915" gradientTransform="matrix(0.8 2.100000e-02 -2.100000e-02 0.8 -1180.5176 -1843.8413)">
	<stop  offset="0" style="stop-color:#000000;stop-opacity:8.600000e-02"/>
	<stop  offset="1" style="stop-color:#BCD9DB;stop-opacity:0.42"/>
</linearGradient>
<path id="path294" inkscape:connector-curvature="0" class="st28" d="M16.1,7.6c0,0.5-0.5,0.8-1.3,1.1c-0.9,0.3-1.9,0.5-3,0.4
	c-1.2,0-2.2-0.2-3-0.5C8.1,8.2,7.7,7.8,7.7,7.4s0.4-0.8,1.2-1.1c0.9-0.3,1.9-0.4,3-0.4s2.1,0.2,3,0.6C15.7,6.7,16.1,7.1,16.1,7.6z"
	/>
<linearGradient id="path301_1_" gradientUnits="userSpaceOnUse" x1="-5162.9351" y1="2674.9094" x2="-5156.0342" y2="2674.9094" gradientTransform="matrix(-0.205 -0.773 0.773 -0.205 -3113.5957 -3432.3313)">
	<stop  offset="0" style="stop-color:#FFFFFF;stop-opacity:0.949"/>
	<stop  offset="1" style="stop-color:#9AAFB8"/>
</linearGradient>
<path id="path301" inkscape:connector-curvature="0" class="st29" d="M15.4,9.4c0.9-0.4,1.4-0.9,1.4-1.5s-0.4-1.1-1.4-1.5
	s-2.1-0.7-3.5-0.7S9.3,5.9,8.3,6.3C7.4,6.6,6.9,7.1,6.8,7.7s0.5,1.1,1.4,1.5c1,0.5,2.1,0.7,3.5,0.7C13.2,9.9,14.4,9.8,15.4,9.4z
	 M15.7,6.4c1,0.5,1.5,1.1,1.5,1.7c0,0.7-0.6,1.2-1.6,1.7c-1.1,0.5-2.3,0.7-3.8,0.6c-1.5,0-2.7-0.3-3.7-0.8S6.6,8.5,6.6,7.9
	s0.6-1.2,1.6-1.7c1-0.4,2.3-0.6,3.8-0.6C13.4,5.6,14.7,5.8,15.7,6.4z"/>
<linearGradient id="path308_1_" gradientUnits="userSpaceOnUse" x1="2123.7109" y1="943.226" x2="2133.7109" y2="943.226" gradientTransform="matrix(0.745 0.292 -0.292 0.745 -1298.1097 -1316.6122)">
	<stop  offset="0" style="stop-color:#FFFFFF;stop-opacity:0.949"/>
	<stop  offset="1" style="stop-color:#ABD9DB"/>
</linearGradient>
<path id="path308" inkscape:connector-curvature="0" class="st30" d="M12.9,5.9C13.7,6,14.4,6.2,15,6.4c0.8,0.3,1.1,0.7,1.1,1.2
	s-0.5,0.8-1.3,1.1c-0.9,0.3-1.9,0.5-3,0.4c-1.2,0-2.2-0.2-3-0.5C8.1,8.2,7.7,7.8,7.7,7.4s0.4-0.8,1.2-1.1C9.4,6.1,10,6,10.6,6
	c-0.5,0.1-1,0.2-1.5,0.3c-0.8,0.2-1.2,0.6-1.2,1s0.4,0.8,1.2,1.2C9.8,8.8,10.8,9,11.9,9s2-0.1,2.8-0.4c0.8-0.3,1.2-0.7,1.2-1.1
	s-0.4-0.8-1.1-1.1C14.3,6.2,13.7,6,12.9,5.9z"/>
<linearGradient id="path315_1_" gradientUnits="userSpaceOnUse" x1="1545.2512" y1="2273.5295" x2="1555.8512" y2="2273.5295" gradientTransform="matrix(0.8 2.100000e-02 -2.100000e-02 0.8 -1180.5176 -1843.8413)">
	<stop  offset="0" style="stop-color:#FFFFFF;stop-opacity:0.949"/>
	<stop  offset="1" style="stop-color:#9AAFB8"/>
</linearGradient>
<path id="path315" inkscape:connector-curvature="0" class="st31" d="M13.5,6c0.5,0.1,1,0.2,1.4,0.4c0.8,0.3,1.2,0.7,1.2,1.2
	s-0.5,0.8-1.3,1.1c-0.9,0.3-1.9,0.5-3,0.4c-1.2,0-2.2-0.2-3-0.5C8.1,8.2,7.7,7.8,7.7,7.4s0.4-0.8,1.2-1.1C9.4,6.1,10,6,10.6,6
	c-0.5,0.1-1,0.2-1.5,0.3c-0.8,0.3-1.2,0.6-1.2,1S8.3,8.1,9,8.4c0.8,0.3,1.7,0.4,2.8,0.5c1.1,0.1,2-0.1,2.8-0.4
	c0.8-0.3,1.2-0.7,1.2-1.1s-0.4-0.8-1.2-1.1C14.4,6.2,14,6.1,13.5,6z"/>
<path id="path317" inkscape:connector-curvature="0" class="st32" d="M7,1.1l0.8-0.4C8.6,0.4,9.7,0.2,11,0.1c1.4-0.2,2.8-0.1,4,0.3
	c0.6,0.2,1.1,0.4,1.5,0.6l-0.6,6.6c-0.1,0.2-0.3,0.4-0.7,0.6c-0.8,0.4-1.9,0.6-3.4,0.6S9.1,8.6,8.3,8.2L7.7,7.5
	C7.5,5.6,7.4,4.4,7.3,3.8L7,1.1z"/>
<path id="path319" inkscape:connector-curvature="0" class="st33" d="M7,1.1c0.2,0,0.3,0.1,0.4,0.2c0.2,0.2,0.5,0.3,0.9,0.3L9.2,2
	l0.9,0.2c0.2,0.1,0.9,0.1,2,0.1h1.1c0.1,0,0.1-0.1,0.2-0.1c0-0.1,0.1-0.1,0.1-0.2c0-0.1,0.1-0.1,0.2-0.1c0,0.2,0.1,0.4,0.2,0.5
	c0,0,0.2,0.1,0.5,0.2c0.2,0.1,0.3,0.2,0.2,0.3c0,0.3-0.3,0.5-0.9,0.7c-0.4,0.1-0.8,0.2-1.3,0.3c-0.6,0-1,0-1.3,0
	c-1.3,0-2.3-0.1-2.8-0.3L7.2,2.8L7,1.1z"/>
<path id="path356" inkscape:connector-curvature="0" class="st34" d="M7,1.1l0.8,0.7c0.9,0.5,2,0.7,3.4,0.6h3.4
	c-0.1-0.1-0.3-0.2-0.4-0.3C14,1.9,13.9,1.7,14,1.6s0.4-0.1,0.8,0c0.2,0.1,0.5,0.1,0.6,0.2c0.5-0.1,0.8-0.4,1-0.9l0,0l-0.6,6.6
	c-0.1,0.2-0.3,0.4-0.7,0.6c-0.8,0.4-1.9,0.6-3.4,0.6S9,8.5,8.2,8.1L7.7,7.5C7.5,5.6,7.4,4.4,7.3,3.8L7,1.1z"/>
<path id="path358" inkscape:connector-curvature="0" class="st35" d="M11.7,7.6c0.2,0.1,0.3,0.1,0.5-0.2c-0.1-0.1-0.1-0.2-0.2-0.2
	L11.8,7C11.6,7.3,11.6,7.5,11.7,7.6z M13.1,5.6l-0.2-0.1c0,0.1,0,0.3,0,0.6h0.3C13.2,5.8,13.2,5.6,13.1,5.6z M13.1,4.3
	c0.2,0,0.3-0.1,0.3-0.3c0.1-0.3,0-0.6-0.2-0.7H13c-0.2,0-0.3,0.2-0.2,0.5S12.9,4.2,13.1,4.3z M15.4,1.8h0.2c0,0.6-0.1,0.9-0.3,1.1
	C15.1,3,14.9,3,14.6,3c-0.3-0.1-0.5-0.2-0.5-0.4c-0.4-0.1-0.7-0.1-0.9-0.1h-1.3c0.8,0.1,1.4,0.3,1.8,0.6c0.1,0.1,0.3,0.2,0.4,0.5
	c0.3,0.2,0.5,0.5,0.5,0.7s-0.1,0.4-0.4,0.6c-0.2,0.3-0.3,0.5-0.3,0.6s0,0.2,0.1,0.3c0,0.1-0.1,0.2-0.2,0.5c-0.1,0.2-0.2,0.3-0.2,0.3
	L13.7,7c0,0.3-0.1,0.4-0.2,0.5c-0.1,0.1-0.3,0-0.4,0c-0.2-0.1-0.3-0.1-0.4-0.2c0,0.1-0.1,0.1-0.2,0.3h-0.2l-0.1,0.2
	c-0.1,0.1-0.3,0.1-0.6,0.1c-0.2,0.2-0.4,0.3-0.6,0.3c-0.2,0-0.6-0.1-1.4-0.2C9.5,8,9.4,8,9.4,8S9.3,7.9,9.3,7.8S9.2,7.6,9.1,7.5
	C8.9,7.4,8.8,7.3,8.7,7.2c-0.1,0-0.2,0.1-0.4,0c-0.2,0-0.3,0-0.4-0.1L7.6,6.8l-0.1-1C7.6,6,7.7,6.1,7.8,6.2C8,6.5,8.2,6.6,8.4,6.5
	c0.1-0.1,0.2-0.2,0.3-0.3c0.2,0.4,0.6,0.6,1,0.7C9.8,6.9,10,7,10.3,7c0.2,0.1,0.3,0.2,0.3,0.4c0.2,0.1,0.3,0,0.4-0.1
	c0.1-0.1,0.1-0.1,0.1-0.2s0.1-0.2,0.1-0.2c0.1,0.1,0.3,0.1,0.6,0c0.1-0.4,0.2-0.6,0.4-0.6c0.1,0,0.2-0.1,0.3-0.1s0.1-0.1,0.2-0.3
	c0.1-0.2,0.1-0.5,0-0.8c0-0.1-0.1-0.2-0.2-0.3c-0.1-0.1-0.2,0-0.2,0.1c-0.2,0-0.4-0.2-0.5-0.5l-0.3-0.7c-0.3-0.4-0.7-0.7-1.2-0.9
	C10,2.7,9.8,2.6,9.5,2.4L9.4,2.3c0.7,0.1,1.3,0.1,1.8,0.1h3.2c0,0.1,0.1,0.2,0.2,0.3c0.1,0.1,0.2,0.1,0.4,0.1c0.3,0,0.4-0.3,0.4-0.8
	C15.4,2,15.4,1.8,15.4,1.8z"/>
<path id="path362" inkscape:connector-curvature="0" class="st36" d="M14.2,5.4c0,0.2,0.1,0.3,0.2,0.4c0.2,0.1,0.4,0,0.4-0.2
	c0.1-0.2,0-0.4-0.1-0.6h-0.3C14.2,5,14.2,5.1,14.2,5.4z M15.6,1.8l0.1-0.1c0,0.1,0.1,0.3,0.1,0.6c0,0.2,0,0.4-0.1,0.8
	c0,0.1,0,0.4,0,1c0,0.3-0.1,0.5-0.3,0.7c-0.1,0.2-0.1,0.5,0,0.9c0,0.2,0,0.4,0.1,0.7c-0.1,0.5-0.2,0.7-0.3,0.8c0,0-0.1,0.1-0.3,0.2
	c-0.1,0-0.2,0.1-0.2,0.2c-0.2,0-0.4,0.1-0.7,0.3c-0.4,0.3-0.6,0.4-0.7,0.4c-0.2,0.1-0.7,0.1-1.7,0.1c-0.6,0-1,0-1.3-0.1H9.7
	C9.3,8.1,9.1,8,8.9,8L8.3,7.8C8.1,7.7,7.9,7.6,7.7,7.6l0,0V6.9L8,7.2c0.1,0.1,0.2,0.1,0.4,0.1s0.3,0,0.4-0.1c0,0.1,0.1,0.2,0.3,0.2
	c0.1,0.1,0.1,0.2,0.2,0.3c0.1,0.1,0.1,0.2,0.1,0.2s0.1,0,0.2,0c0.8,0.2,1.2,0.3,1.2,0.3c0.2,0,0.4-0.1,0.6-0.3c0.3,0,0.5,0,0.6-0.1
	l0.1-0.2h0.2c0.2-0.1,0.2-0.2,0.2-0.3c0.1,0,0.2,0.1,0.4,0.2c0.1,0.1,0.3,0.1,0.4,0c0.2-0.1,0.2-0.2,0.2-0.5l-0.1-0.4
	c0-0.1,0.1-0.2,0.2-0.3c0.1-0.2,0.2-0.4,0.2-0.5c-0.1-0.1-0.1-0.2-0.1-0.3c0-0.1,0.1-0.3,0.3-0.6c0.2-0.3,0.4-0.5,0.4-0.6
	c0-0.2-0.2-0.5-0.5-0.7c-0.2-0.2-0.3-0.4-0.4-0.5c-0.4-0.3-1-0.5-1.8-0.6H13c0.2,0,0.5,0,0.9,0.1c0,0.2,0.1,0.3,0.5,0.4
	c0.3,0,0.5,0,0.7-0.1C15.5,2.7,15.6,2.4,15.6,1.8z"/>
<path id="path364" inkscape:connector-curvature="0" class="st37" d="M15.7,1.7c0.4-0.2,0.6-0.5,0.8-0.8l0,0l-0.3,2.9
	C16,3.8,15.9,4,16,4.3c0,0.2,0.1,0.3,0.2,0.4L16,7.6c-0.1,0.2-0.3,0.4-0.7,0.6c-0.8,0.4-1.9,0.6-3.4,0.6c-1.4,0-2.5-0.2-3.3-0.6
	C8.1,8,7.8,7.8,7.7,7.6c0.2,0,0.3,0.1,0.6,0.2L8.9,8c0.2,0,0.4,0.1,0.7,0.3h0.6c0.3,0.1,0.7,0.1,1.3,0.1c0.9,0,1.5,0,1.7-0.1
	c0.1,0,0.3-0.2,0.7-0.4c0.2-0.2,0.5-0.3,0.7-0.3c0-0.1,0.1-0.2,0.2-0.2c0.2-0.1,0.3-0.1,0.3-0.2c0.1-0.1,0.2-0.3,0.3-0.8
	c-0.1-0.3-0.1-0.5-0.1-0.7c-0.1-0.4-0.1-0.7,0-0.9c0.2-0.2,0.3-0.5,0.3-0.7c0-0.6,0-0.9,0-1c0.2-0.4,0.3-0.7,0.2-0.8
	C15.8,2,15.7,1.8,15.7,1.7z"/>
<linearGradient id="path371_1_" gradientUnits="userSpaceOnUse" x1="-4762.4146" y1="3073.0989" x2="-4760.3145" y2="3073.0989" gradientTransform="matrix(-0.1 -0.794 0.794 -0.1 -2907.7307 -3469.406)">
	<stop  offset="0" style="stop-color:#C1A064"/>
	<stop  offset="1" style="stop-color:#706341"/>
</linearGradient>
<path id="path371" inkscape:connector-curvature="0" class="st38" d="M8.5,4.4c-0.1,0-0.3,0-0.4-0.2C8,4.1,7.9,3.9,7.9,3.7
	s0-0.4,0.1-0.6s0.2-0.3,0.3-0.3s0.3,0,0.4,0.2c0.1,0.1,0.2,0.3,0.2,0.5c0.1,0.2,0,0.4-0.1,0.6C8.8,4.3,8.7,4.4,8.5,4.4L8.5,4.4z"/>
<linearGradient id="path378_1_" gradientUnits="userSpaceOnUse" x1="-4761.0693" y1="3079.3687" x2="-4758.6689" y2="3079.3687" gradientTransform="matrix(-9.900000e-02 -0.794 0.794 -9.900000e-02 -2905.7776 -3469.3684)">
	<stop  offset="0" style="stop-color:#C1A064"/>
	<stop  offset="1" style="stop-color:#706341"/>
</linearGradient>
<path id="path378" inkscape:connector-curvature="0" class="st39" d="M10.9,5.6C10.4,5.8,10,5.6,9.7,5S9.5,4,10,3.7h0.2
	c0.3,0,0.5,0,0.6,0C11,3.8,11.1,4,11.2,4.3C11.2,5,11.1,5.5,10.9,5.6z"/>
<linearGradient id="path385_1_" gradientUnits="userSpaceOnUse" x1="-4757.5171" y1="3081.425" x2="-4756.3169" y2="3081.425" gradientTransform="matrix(-9.800000e-02 -0.794 0.794 -9.800000e-02 -2903.8245 -3469.3311)">
	<stop  offset="0" style="stop-color:#C1A064"/>
	<stop  offset="1" style="stop-color:#706341"/>
</linearGradient>
<path id="path385" inkscape:connector-curvature="0" class="st40" d="M8.6,5.6c0-0.5,0-0.7,0.2-0.7L9.1,5c0.2,0,0.3,0.3,0.2,0.8
	C8.9,5.8,8.7,5.8,8.6,5.6z"/>
<linearGradient id="path392_1_" gradientUnits="userSpaceOnUse" x1="-4718.2397" y1="3115.4399" x2="-4717.5396" y2="3115.4399" gradientTransform="matrix(-8.800000e-02 -0.795 0.795 -8.800000e-02 -2884.2559 -3470.9087)">
	<stop  offset="0" style="stop-color:#C1A064"/>
	<stop  offset="1" style="stop-color:#706341"/>
</linearGradient>
<path id="path392" inkscape:connector-curvature="0" class="st41" d="M7.5,5.2c0.2-0.1,0.3,0.1,0.3,0.4L7.6,5.7L7.5,5.2z"/>
<path id="path394" inkscape:connector-curvature="0" class="st42" d="M13.1,4.3c-0.2,0-0.3-0.2-0.4-0.5s0-0.5,0.2-0.5h0.2
	c0.2,0.1,0.3,0.4,0.2,0.7C13.4,4.2,13.3,4.3,13.1,4.3z"/>
<linearGradient id="path401_1_" gradientUnits="userSpaceOnUse" x1="-4772.7676" y1="3074.2351" x2="-4771.4678" y2="3074.2351" gradientTransform="matrix(-0.102 -0.793 0.793 -0.102 -2911.6746 -3467.5278)">
	<stop  offset="0" style="stop-color:#C1A064"/>
	<stop  offset="1" style="stop-color:#706341"/>
</linearGradient>
<path id="path401" inkscape:connector-curvature="0" class="st43" d="M13.1,4.3c-0.2,0-0.3-0.2-0.4-0.5s0-0.5,0.2-0.5h0.2
	c0.2,0.1,0.3,0.4,0.2,0.7C13.4,4.2,13.3,4.3,13.1,4.3z"/>
<path id="path403" inkscape:connector-curvature="0" class="st42" d="M13.1,5.6c0.1,0.1,0.1,0.2,0.1,0.5h-0.3c0-0.3,0-0.5,0-0.6
	C13,5.4,13.1,5.6,13.1,5.6z"/>
<linearGradient id="path410_1_" gradientUnits="userSpaceOnUse" x1="-4782.2227" y1="3065.9177" x2="-4781.5225" y2="3065.9177" gradientTransform="matrix(-0.104 -0.793 0.793 -0.104 -2915.5808 -3467.603)">
	<stop  offset="0" style="stop-color:#C1A064"/>
	<stop  offset="1" style="stop-color:#706341"/>
</linearGradient>
<path id="path410" inkscape:connector-curvature="0" class="st44" d="M13.1,5.6c0.1,0.1,0.1,0.2,0.1,0.5h-0.3c0-0.3,0-0.5,0-0.6
	C13,5.4,13.1,5.6,13.1,5.6z"/>
<path id="path412" inkscape:connector-curvature="0" class="st42" d="M12,7.2c0.1,0,0.2,0.1,0.2,0.2c-0.2,0.3-0.4,0.4-0.5,0.2
	c-0.1-0.1-0.1-0.3,0.1-0.6L12,7.2z"/>
<linearGradient id="path419_1_" gradientUnits="userSpaceOnUse" x1="-4808.5073" y1="3100.627" x2="-4807.707" y2="3100.627" gradientTransform="matrix(-9.300000e-02 -0.794 0.793 -0.11 -2894.0967 -3469.7812)">
	<stop  offset="0" style="stop-color:#C1A064"/>
	<stop  offset="1" style="stop-color:#706341"/>
</linearGradient>
<path id="path419" inkscape:connector-curvature="0" class="st45" d="M12,7.2c0.1,0,0.2,0.1,0.2,0.2c-0.2,0.3-0.4,0.4-0.5,0.2
	c-0.1-0.1-0.1-0.3,0.1-0.6L12,7.2z"/>
<path id="path421" inkscape:connector-curvature="0" class="st5" d="M14.4,5h0.3c0.1,0.2,0.2,0.4,0.1,0.6s-0.2,0.3-0.4,0.2
	c-0.1-0.1-0.2-0.2-0.2-0.4S14.2,5,14.4,5z"/>
<linearGradient id="path428_1_" gradientUnits="userSpaceOnUse" x1="-4746.6216" y1="3100.1616" x2="-4745.5215" y2="3100.1616" gradientTransform="matrix(-9.500000e-02 -0.794 0.794 -9.500000e-02 -2897.9653 -3469.2183)">
	<stop  offset="0" style="stop-color:#C1A064"/>
	<stop  offset="1" style="stop-color:#706341"/>
</linearGradient>
<path id="path428" inkscape:connector-curvature="0" class="st46" d="M14.4,5h0.3c0.1,0.2,0.2,0.4,0.1,0.6s-0.2,0.3-0.4,0.2
	c-0.1-0.1-0.2-0.2-0.2-0.4S14.2,5,14.4,5z"/>
<path id="path430" inkscape:connector-curvature="0" class="st37" d="M16,4.3c-0.1-0.3,0-0.5,0.2-0.5v0.8C16.1,4.6,16,4.5,16,4.3z"
	/>
<linearGradient id="path437_1_" gradientUnits="userSpaceOnUse" x1="-4787.7881" y1="3112.0552" x2="-4786.688" y2="3112.0552" gradientTransform="matrix(-9.200000e-02 -0.795 0.793 -0.106 -2892.1436 -3471.5842)">
	<stop  offset="0" style="stop-color:#C1A064"/>
	<stop  offset="1" style="stop-color:#706341"/>
</linearGradient>
<path id="path437" inkscape:connector-curvature="0" class="st47" d="M16,4.3c-0.1-0.3,0-0.5,0.2-0.5v0.8C16.1,4.6,16,4.5,16,4.3z"
	/>
<g>
	<g>
		<g>
			<defs>
				<polygon id="SVGID_2_" points="19.9,33.3 21.2,18.7 0.3,18.7 0.3,34 				"/>
			</defs>
			<clipPath id="SVGID_3_">
				<use xlink:href="#SVGID_2_"  style="overflow:visible;"/>
			</clipPath>
			
				<linearGradient id="SVGID_4_" gradientUnits="userSpaceOnUse" x1="3.1263" y1="1054.689" x2="19.4784" y2="1054.689" gradientTransform="matrix(1 0 0 1 0 -1028.1593)">
				<stop  offset="0" style="stop-color:#C2B294"/>
				<stop  offset="7.142900e-02" style="stop-color:#C7B89B"/>
				<stop  offset="0.1429" style="stop-color:#CBC1A3"/>
				<stop  offset="0.2143" style="stop-color:#D2C8AD"/>
				<stop  offset="0.2857" style="stop-color:#D8CFB6"/>
				<stop  offset="0.3571" style="stop-color:#D9D2B8"/>
				<stop  offset="0.4286" style="stop-color:#D9D2B8"/>
				<stop  offset="0.5" style="stop-color:#D9D2B8"/>
				<stop  offset="0.5714" style="stop-color:#D9D2B8"/>
				<stop  offset="0.6429" style="stop-color:#D6CFB5"/>
				<stop  offset="0.7143" style="stop-color:#D3C8AD"/>
				<stop  offset="0.7857" style="stop-color:#CDC1A6"/>
				<stop  offset="0.8571" style="stop-color:#C7B79C"/>
				<stop  offset="0.9286" style="stop-color:#BFAD8F"/>
				<stop  offset="1" style="stop-color:#BBAC89"/>
			</linearGradient>
			<path class="st48" d="M19.4,28.2c0-0.1,0-0.1,0-0.2s0-0.1,0-0.2c-0.1-0.2-0.1-0.4-0.1-0.7c0-0.1,0-0.2,0.1-0.3c0,0,0-0.1-0.1-0.1
				c-0.1-0.2-0.2-0.3-0.1-0.5c0-0.1,0.1-0.2,0.1-0.4c0-0.1,0-0.3,0-0.4s0-0.2,0-0.3c0-0.1,0-0.3,0-0.4l0,0c0-0.1,0-0.2,0-0.2
				c0-0.1-0.1-0.2-0.1-0.3c0-0.2,0-0.3,0.1-0.5c0-0.2,0-0.4,0-0.6c0-0.1,0-0.2,0.1-0.2c0-0.1,0.1-0.1,0.1-0.2s-0.1-0.2-0.1-0.3
				c-0.1-0.1-0.1-0.3-0.1-0.4v-0.1c0,0,0,0,0-0.1s0-0.2,0-0.2c0-0.1,0-0.1,0-0.2c0,0,0-0.1-0.1-0.1c-0.2-0.1-0.3,0-0.5-0.1
				c-0.2,0-0.3-0.1-0.5-0.1s-0.4,0.1-0.5,0.1c-0.2,0-0.3,0.1-0.5,0.1c-0.1,0-0.2-0.1-0.4-0.2c-0.2,0-0.3,0-0.4,0.1
				c-0.2,0.1-0.3,0.1-0.5,0.1c-0.1,0-0.1-0.1-0.1-0.1c-0.2,0.1-0.4,0.1-0.6,0.1c-0.1,0-0.3,0-0.4-0.1c-0.1-0.1-0.2-0.1-0.4-0.1
				c-0.1,0-0.3,0-0.4,0c-0.1,0-0.2,0.1-0.3,0.1l0,0c0,0,0,0-0.1,0c-0.3,0-0.6,0-0.8-0.1h-0.1l0,0h-0.1c-0.1,0-0.1,0-0.2,0
				c-0.1,0-0.1,0.1-0.2,0.1c-0.2,0.1-0.4,0.1-0.6,0c-0.1,0-0.2-0.1-0.3,0c-0.1,0-0.2,0.1-0.3,0.1c-0.2,0.1-0.4,0-0.6,0.1h-0.1
				c-0.3,0.1-0.5,0.1-0.8,0.1c-0.2,0-0.3-0.1-0.5-0.1c-0.1,0-0.3,0-0.4,0c-0.3,0-0.6,0.1-1,0.1c-0.1,0-0.1,0-0.1-0.1l0,0v-0.1l0,0
				c-0.2,0-0.4,0-0.6,0s-0.3,0-0.5,0.1c-0.1,0.1-0.3,0.1-0.4,0.1s-0.3,0-0.4-0.1s-0.2-0.1-0.3-0.2H5.2c-0.1,0-0.3,0.1-0.4,0.1
				c-0.2,0-0.3,0-0.4-0.1c-0.1,0-0.1-0.1,0-0.1c0,0,0,0-0.1,0H4.2c-0.1,0-0.1,0-0.2,0c0,0,0,0.1-0.1,0.1c-0.2,0-0.4,0-0.5-0.1
				c0,0.1-0.1,0.2-0.1,0.3c0,0.1,0.1,0.3,0.1,0.4c0.1,0.2,0,0.4-0.1,0.7c0,0.1-0.1,0.2,0,0.4c0,0.1,0.1,0.2,0.1,0.3
				c0,0.1,0,0.2-0.1,0.3c0.2,0.2,0,0.5,0,0.8c0,0.2,0.1,0.3,0.1,0.5s0,0.4,0.1,0.5c0,0.2,0.1,0.4,0.1,0.5s0,0.2,0,0.3
				c0,0.1,0,0.2,0,0.3c0,0.3-0.1,0.5-0.2,0.7v0.1c0,0.1,0,0.2,0,0.3l0,0l0,0c0,0,0.1,0,0.1,0.1c0.1,0.1,0,0.3-0.1,0.4
				c0,0-0.1,0.1-0.1,0.2s0,0.2,0,0.3c0,0.1,0.1,0.2,0.2,0.3c0,0,0,0,0.1,0.1V29c0,0,0,0,0.1,0c0.1,0.1,0,0.3,0,0.4l0,0l0,0
				c0.1,0,0.1,0.1,0.1,0.1c0,0.1-0.1,0.2-0.2,0.3c0,0.1,0,0.1,0,0.2s0,0.1,0,0.2c0.1,0.1,0.1,0.1,0.2,0.2c0.1,0.2,0.1,0.4,0,0.6
				c0,0.1-0.1,0.2-0.1,0.3c0,0.1-0.1,0.1-0.1,0.2s0.1,0.1,0.1,0.2c0,0,0,0.1,0,0.2h0.1C3.9,31.9,4,32,4,32c0.2,0.1,0.4,0,0.6,0l0,0
				h0.1c0.2,0,0.3,0,0.4-0.1s0.2-0.1,0.3-0.1c0.1,0,0.2,0.1,0.4,0.1c0.1,0,0.3,0,0.4,0c0.2,0,0.3,0,0.5,0s0.3,0,0.4-0.1
				c0.1,0,0.2,0,0.3,0c0.1,0,0.2,0,0.3,0l0,0c0.1,0,0.2,0,0.4,0c0.1,0,0.2,0,0.3-0.1c0.2-0.1,0.4-0.1,0.5,0l0,0c0,0,0,0,0.1,0l0,0
				c0.4-0.2,0.8-0.2,1.3-0.2c0.1,0,0.1,0.1,0.1,0.1l0,0c0.1-0.2,0.5-0.1,0.7-0.1c0.1,0,0.3,0.1,0.4,0.1c0.2,0,0.5,0,0.7,0h0.1l0,0
				c0.1,0,0.2-0.1,0.4-0.1s0.3,0.1,0.5,0.1s0.3-0.1,0.5-0.1s0.3,0,0.5,0c0.1,0,0.1,0.1,0.1,0.1l0,0c0.1,0,0.2-0.1,0.3-0.1
				s0.2,0,0.3,0l0,0c0.1,0,0.2-0.1,0.3-0.1s0.3,0,0.4,0.1c0.1,0,0.3,0,0.4,0s0.2,0,0.4,0c0.2,0,0.4-0.1,0.6-0.1c0.1,0,0.2,0,0.3,0.1
				c0.3,0,0.6,0,0.8-0.1c0.2,0,0.4-0.1,0.5,0c0.1,0,0.3,0.1,0.4,0.1c0,0,0.1,0,0.1-0.1c0.1,0,0.2-0.1,0.2-0.1c0-0.1-0.1-0.2-0.1-0.3
				c0-0.1,0-0.2,0-0.3c0-0.1,0-0.2-0.1-0.3c0-0.2,0-0.3,0-0.5s0.1-0.4,0.1-0.5s0-0.3,0-0.4l0,0c0-0.1-0.1-0.1-0.1-0.2s0-0.2,0.1-0.3
				C19.4,28.5,19.5,28.4,19.4,28.2z"/>
		</g>
	</g>
</g>
<radialGradient id="path159_1_" cx="-938.046" cy="-1157.5614" r="24.783" gradientTransform="matrix(0.607 -0.522 -0.522 -0.607 -31.4115 -1161.4178)" gradientUnits="userSpaceOnUse">
	<stop  offset="0" style="stop-color:#FFFFFF;stop-opacity:0.949"/>
	<stop  offset="1" style="stop-color:#8A9B9E"/>
</radialGradient>
<path id="path159_2_" inkscape:connector-curvature="0" class="st49" d="M15.4,15.5c-2.8-1.1-5.6-1-8.4,0.2C4.2,17,2.2,19,1.1,21.9
	S0,27.6,1.2,30.5c1.2,2.8,3.2,4.8,6,5.9c2.8,1.1,5.7,1,8.4-0.2c2.8-1.3,4.8-3.3,5.9-6.2c1.1-2.9,1.1-5.7-0.1-8.5
	C20.2,18.5,18.2,16.6,15.4,15.5L15.4,15.5z M0.8,21.9c1.1-2.9,3.1-5,6-6.3s5.7-1.4,8.6-0.2c2.9,1.1,4.9,3.1,6.2,6
	c1.2,2.9,1.3,5.8,0.1,8.7c-1.1,2.9-3.1,5-6,6.3s-5.7,1.4-8.6,0.2s-4.9-3.1-6.2-6C-0.3,27.8-0.3,24.9,0.8,21.9L0.8,21.9z"/>
<path id="path4053" sodipodi:nodetypes="cccccccc" class="st50" d="M10.5,22.7c0.8,0.6,2,0.7,3.7,0c-1.3,1.3-2.9,2.4-3.7,4.1l2.5,0
	c-1.8,1.2-2.5,2.6-3.7,3.9c0.5-1,1.5-2.3,1.9-3.3l-1.8,0.2C10.1,25.9,10.6,24.3,10.5,22.7z"/>
</svg>
