<?xml version="1.0" encoding="UTF-8" standalone="no"?>
<!-- Created with Inkscape (http://www.inkscape.org/) -->
<svg xmlns:inkscape="http://www.inkscape.org/namespaces/inkscape" xmlns:rdf="http://www.w3.org/1999/02/22-rdf-syntax-ns#" xmlns="http://www.w3.org/2000/svg" xmlns:xlink="http://www.w3.org/1999/xlink" xmlns:ns1="http://sozi.baierouge.fr" xmlns:cc="http://web.resource.org/cc/" xmlns:dc="http://purl.org/dc/elements/1.1/" xmlns:sodipodi="http://sodipodi.sourceforge.net/DTD/sodipodi-0.dtd" id="svg2" sodipodi:docname="Francisque de lancé.svg" viewBox="0 0 188 540" sodipodi:version="0.32" version="1.0" inkscape:version="0.44" sodipodi:docbase="/home/bersace/Pictures/Scoutisme/Barbares">
  <sodipodi:namedview id="base" bordercolor="#666666" inkscape:pageshadow="2" inkscape:window-y="25" pagecolor="#ffffff" inkscape:window-height="945" width="188px" inkscape:zoom="1" inkscape:window-x="0" height="540px" borderopacity="1.0" inkscape:current-layer="layer1" inkscape:cx="147.16599" inkscape:cy="337.06727" inkscape:window-width="1270" showborder="false" inkscape:pageopacity="0.0" inkscape:document-units="px"/>
  <g id="layer1" inkscape:label="Calque 1" inkscape:groupmode="layer">
    <path id="path1872" sodipodi:nodetypes="cccccccc" style="fill-rule:evenodd;fill:#ab7339" d="m126.02 62.525c-48.463 1.885-81.34-1.895-83.631-59.17-41.526 25.851-45.554 136.58-5.37 174.72 6.588-52.89 39.777-68.36 87.381-64.42-1.75 130.59-8.45 276.32 4.84 406.97 11.42 4.92 31.54 8.01 39.62-6.46-25.61-71.71-17.06-285.78-12.24-398.77-0.63-43.157-2.46-51.998-30.6-52.875z"/>
    <path id="path1892" sodipodi:nodetypes="cccsccc" style="fill-rule:evenodd;fill:#414141" d="m126.02 62.525c-48.463 1.885-81.34-1.895-83.631-59.17-41.526 25.851-45.554 136.58-5.37 174.72 6.588-52.89 40.507-68.92 87.381-64.42 4.92 0.48 26.87 26.33 31.19 25.43 0.4-5 0.65-17.19 1.03-23.69-0.63-43.157-2.46-51.998-30.6-52.875z"/>
    <path id="path4553" sodipodi:nodetypes="csccccccccccccc" style="opacity:.25;fill-rule:evenodd;fill:black" d="m141.45 64.646c17.68 3.536 14.57 42.664 13.99 73.994-0.83 45.15-16.26 273.56 13.09 375.49-12.88 19.95-36.93 5.34-36.93 5.34s27.27 3.03 29.29-7.07c-25.12-63.32-11.84-373.31-12.35-378.33l-7.09-69.424zm6.03 69.204s-19.31-19.31-23.24-20.08c-86.219-9.43-87.454 63.59-87.454 63.59s1.056-76.36 87.644-65.4c4.62 0.59 21.15 17.66 23.05 21.89zm-105.34-130.06c3.036 34.285 15.357 47.5 28.928 53.571-17.678-5.893-25.892-17.5-28.928-53.571z"/>
    <path id="path7227" sodipodi:nodetypes="ccsssssssccc" style="fill-rule:evenodd;fill:#a3a3a3" d="m42.504 3.5576l1.976 18.312c-3.195 3.772-3.209 10.357-5.608 15.507-2.398 5.15-7.181 8.865-8.8 14.98-1.619 6.114-1.085 12.861-1.942 19.527-0.856 6.667-3.103 13.254-3.214 20.059s1.662 13.577 2.28 20.107 0.081 12.82 1.412 18.67c1.33 5.84 6.043 9.47 8.068 14.21 2.026 4.75 1.365 10.6 4.069 13.83-0.336 3.12-3.975 10.54-3.599 19.33-40.496-38.6-35.393-149.54 5.358-174.53z"/>
    <path id="path5450" sodipodi:nodetypes="cccccccccc" style="opacity:.5;fill-rule:evenodd;fill:white" d="m42.322 3.4119l0.714 10.736c-32.679 25-45.715 111.11-6.072 163.79-40.495-38.6-35.392-149.54 5.358-174.53zm82.198 110.55c5.14 3.97-6.51 152.56 5.02 406.09-12.64-124.55-8.04-271.44-5.02-406.09zm0.48-3.78c3.66 0.26 5.09-41.296 0.54-41.073 0.18 3.972-0.64 36.073-0.54 41.073z"/>
  </g>
  <metadata>
    <rdf:RDF>
      <cc:Work>
        <dc:format>image/svg+xml</dc:format>
        <dc:type rdf:resource="http://purl.org/dc/dcmitype/StillImage"/>
        <cc:license rdf:resource="http://creativecommons.org/licenses/publicdomain/"/>
        <dc:publisher>
          <cc:Agent rdf:about="http://openclipart.org/">
            <dc:title>Openclipart</dc:title>
          </cc:Agent>
        </dc:publisher>
      </cc:Work>
      <cc:License rdf:about="http://creativecommons.org/licenses/publicdomain/">
        <cc:permits rdf:resource="http://creativecommons.org/ns#Reproduction"/>
        <cc:permits rdf:resource="http://creativecommons.org/ns#Distribution"/>
        <cc:permits rdf:resource="http://creativecommons.org/ns#DerivativeWorks"/>
      </cc:License>
    </rdf:RDF>
  </metadata>
</svg>
