<?xml version="1.0" encoding="utf-8"?>
<!-- Generator: Adobe Illustrator 25.0.0, SVG Export Plug-In . SVG Version: 6.00 Build 0)  -->
<svg version="1.1"
	 id="svg3082" xmlns:cc="http://creativecommons.org/ns#" xmlns:dc="http://purl.org/dc/elements/1.1/" xmlns:inkscape="http://www.inkscape.org/namespaces/inkscape" xmlns:rdf="http://www.w3.org/1999/02/22-rdf-syntax-ns#" xmlns:sodipodi="http://sodipodi.sourceforge.net/DTD/sodipodi-0.dtd" xmlns:svg="http://www.w3.org/2000/svg"
	 xmlns="http://www.w3.org/2000/svg" xmlns:xlink="http://www.w3.org/1999/xlink" x="0px" y="0px" viewBox="0 0 2112.9 1306.3"
	 style="enable-background:new 0 0 2112.9 1306.3;" xml:space="preserve">
<style type="text/css">
	.st0{fill:#E6E6E6;}
	.st1{fill:#F9F9F9;}
	.st2{fill:#F2F2F2;}
	.st3{fill:#ECECEC;}
	.st4{fill:#FFFFFF;}
	.st5{fill:#FFAAAA;}
	.st6{fill:#FF9191;}
	.st7{fill:#FF6969;}
	.st8{fill:#FFB9B9;}
	.st9{fill:#DE8787;}
	.st10{fill:#F4D7D7;}
	.st11{fill:#F9E7E7;}
	.st12{fill:#F0C8C8;}
	.st13{fill:#ECB8B8;}
	.st14{fill:#FAC800;}
	.st15{fill:#FFD42A;}
	.st16{fill:#FFDD55;}
	.st17{fill:#FFCD05;}
	.st18{fill:#9D592B;}
	.st19{fill:#C87137;}
	.st20{fill:#CD7F4B;}
	.st21{fill:#B46632;}
	.st22{fill:#008000;}
	.st23{fill:#00FF00;}
</style>
<sodipodi:namedview  bordercolor="#666666" borderopacity="1.0" id="base" inkscape:current-layer="layer2" inkscape:cx="1508.7651" inkscape:cy="1298.4135" inkscape:document-units="px" inkscape:pageopacity="0.0" inkscape:pageshadow="2" inkscape:window-height="706" inkscape:window-maximized="1" inkscape:window-width="1366" inkscape:window-x="-8" inkscape:window-y="-8" inkscape:zoom="0.37071429" pagecolor="#ffffff" showgrid="false">
	</sodipodi:namedview>
<path id="path3117" inkscape:connector-curvature="0" class="st0" d="M417.4,1105.9v15H417c0,2.1,0.2,4.1,0.5,6.2v47.1H417
	c0,72.9,185.5,132,414.4,132c228.9,0,414.4-59.1,414.4-132h-0.5v-47.1c0.3-2.1,0.5-4.1,0.5-6.2h-0.5v-15
	c-121.9,60.5-263.2,95.2-413.9,95.2S539.3,1166.4,417.4,1105.9z"/>
<path id="path3105" inkscape:connector-curvature="0" class="st1" d="M831.4,208.2C372.2,208.2,0,331.4,0,483.5
	c0,396.3,372.2,717.6,831.4,717.6s831.4-321.3,831.4-717.6C1662.8,331.4,1290.5,208.2,831.4,208.2z"/>
<path id="path3130" inkscape:connector-curvature="0" class="st2" d="M1662.8,483.5c0,100.4-162.2,188.2-404.6,236.3
	c-13.4,157.2-93.3,379.8-416.9,481.3C1295.9,1196.4,1662.8,876.9,1662.8,483.5z"/>
<path id="path3138" inkscape:connector-curvature="0" class="st3" d="M1662.8,483.5c0,57.8-53.9,111.5-145.9,155.8
	c-43.3,153-163.5,405.6-494.9,542.8C1389.3,1107.8,1662.8,823.2,1662.8,483.5z"/>
<path id="path3123" inkscape:connector-curvature="0" class="st4" d="M45.1,573.1C148.8,688,461.6,771.5,831.4,771.5
	s682.5-83.5,786.3-198.3c-112.3,108-421.9,185.6-786.3,185.6S157.4,681.1,45.1,573.1z"/>
<path id="path3101" sodipodi:cx="1273.2178" sodipodi:cy="1308.2852" sodipodi:rx="598.84393" sodipodi:ry="299.42197" sodipodi:type="arc" class="st2" d="
	M1629.7,483.5c0,140.4-357.4,254.2-798.3,254.2S33,623.9,33,483.5s357.4-254.2,798.3-254.2S1629.7,343.1,1629.7,483.5z"/>
<path id="path3128" inkscape:connector-curvature="0" sodipodi:nodetypes="cccc" class="st4" d="M65.4,619.4
	c0,0,133.1,384.8,458.5,517.8c-78.2-37.9-322.4-203.3-416.1-482.2C83.8,649.4,65.4,619.4,65.4,619.4L65.4,619.4z"/>
<path id="path3148" inkscape:connector-curvature="0" class="st5" d="M831.4,392c-351.5,0-650,72.4-756.6,172.8
	c106.6,100.5,405,172.8,756.6,172.8s650-72.4,756.6-172.8C1481.4,464.3,1182.9,392,831.4,392z"/>
<path id="path4040" inkscape:connector-curvature="0" class="st6" d="M1017.8,420c-23.8,0.1-32.5,4.1-15.6,14.2
	c45,27-7.2,12.6-79.1,5.4c-71.9-7.2-75.5-9-55.7,5.4c19.8,14.4,5.4,21.6-14.4,23.4c-19.8,1.8-233.7,41.3-269.7,59.3
	c-36,18,0,39.6-25.2,34.2c-25.2-5.4-12.6,19.8,14.4,45c27,25.2-3.6,36-30.6,39.6c-27,3.6-44.9,3.6-27-27
	c18-30.6-37.8,16.2-86.3-10.8c-48.5-27-5.4-28.8,61.2-34.2c66.5-5.4-7.2-34.2-71.9-19.8c-64.7,14.4-43.1-3.6,5.4-37.7
	c48.5-34.2,163.6-41.4,235.5-45c71.9-3.6,138.4-41.4,88.1-41.4c-360.3,7.1-569.5,112.9-642.6,158c39.9,28,95.3,53.2,162.6,74.7
	c3.4-13,34.5-15.4,79.1,1.1c62.9,23.4,113.3,18,57.5-1.8c-55.7-19.8-21.6-27,55.7-5.4c77.3,21.6,3.6,19.8,54,37.7
	c16.9,6,21.8,15.1,20.9,24.5c91.9,11.8,192.2,18.2,297.3,18.2c323.9,0,602.7-61.4,727.9-149.6c-6.6-48.5-119.5-90-98.6-60.3
	c21.6,30.6,9,59.3,0,82.7c-9,23.4-30.6,10.8-21.6-28.7c9-39.6-9-79.1-54-93.5c-45-14.4-1.8,14.4-37.7-3.6c-36-18-28.8,5.4-3.6,37.8
	c25.2,32.4-237.4-12.6-298.5-23.4c-61.1-10.8,46.7-14.4,1.8-23.4c-45-9,59.4-34.1,116.9-7.2c57.5,27,102.5-16.2,50.3-25.2
	C1139.1,430.9,1057.5,419.9,1017.8,420L1017.8,420z"/>
<path id="path4002" inkscape:connector-curvature="0" sodipodi:nodetypes="scsssscssssss" class="st7" d="M509.3,670.2
	c-4.7,21.9,172.1,90.3,420,40.8c43.2-11.4-11.4-25.4,19.1-29.2c30.5-3.8,125.8,26.5,158.9,28c146.2,6.4,264.9-40.5,279.7-67.4
	c51.7-94-301.3-42-350.9-55.9c-49.6-14-539.5-78.7-539.5-78.7s-16.5,32.1,36.9,53.7c8.7,3.5-57.8,19.8-148.3-14.2
	c-103.7-38.9-242.1,19.6-242.4,31.5c-1.6,52.7,135.9,79.2,258.9,75.5c78.2-2.4,173.7-23,172.1-20.7
	C559.1,655.5,511.7,659,509.3,670.2L509.3,670.2z"/>
<path id="path4045" inkscape:connector-curvature="0" sodipodi:nodetypes="ccc" class="st8" d="M184.1,515.1
	c0,0,161.8-84.5,372.2-97.1C423.2,443.2,239.8,506.1,184.1,515.1L184.1,515.1z"/>
<g id="g3990" transform="matrix(1.0145406,0,0,1.0145406,-112.71786,-152.67217)">
	<path id="path3992" inkscape:connector-curvature="0" sodipodi:nodetypes="sscscss" class="st9" d="M735.5,460.9
		c-82.4,0-149.2,60.5-149.2,135.2c0,21.1,5.3,41.1,14.8,58.9c33.5,21.2,90.4,25.1,138.5,25.1c45.8,0,95.2-7.3,129.6-24.1
		c9.9-18.1,15.4-38.4,15.4-59.9C884.6,521.4,817.9,460.9,735.5,460.9L735.5,460.9z"/>
	<path id="path3994" inkscape:connector-curvature="0" sodipodi:nodetypes="sscscss" class="st10" d="M735.5,466.6
		c-78.5,0-142.1,60-142.1,133.9c0,20.9,5.1,40.7,14.1,58.3c31.9,21,86.1,24.9,131.9,24.9c43.6,0,90.6-7.3,123.4-23.9
		c9.4-17.9,14.7-38,14.7-59.4C877.5,526.5,813.9,466.6,735.5,466.6z"/>
	<path id="path3996" inkscape:connector-curvature="0" class="st11" d="M700,481.5c-0.7,0-1.5,0.1-2.3,0.3
		c-1.2,0.3-13.2-0.9-19.6,3.5c-4.9,3.4-3.8,12.2-7.8,15.2c-4.7,3.4-4.4-5.7-9.4-2c-6.4,4.7-4.5,10.6-12.5,17.7
		c-5.1,4.6-15.5,4.8-20.2,10.8c-4.3,5.6-2,9.9-5.7,17c-2.8,5.2-6.9,4.8-10.1,10.1c-11,18.2-5.4,21.2-7.3,31.2
		c19.8-15.3,21.6-35,37.8-20.7c6.8,6,6.9-4.8,12.2-2.6c7.4,3,18.6,16.2,16.5,2.6c-2.7-17.2-12.5-23-7.2-30.4
		c20.7-28.3,12.6-5.1,19.7-5.6c14.5-1,9.2-17,12.2-25.7c2.4-7,14.5-6.1,13.2-12.8C708.9,485.9,705.1,481.4,700,481.5z M737.2,482.1
		c-0.5-0.1-1.3,0.3-2.6,1.1c0,0-4.5,2.7-9.9,12.1c-5.4,9.4-13.9,10.4-6.3,13.5c7.6,3.1,9.9-3.2,15.7-5.4c5.8-2.2,9-7.2,5-10.8
		C735.8,489.7,739.3,482.3,737.2,482.1L737.2,482.1z M739.2,515.5c-1,0-2.3,0.1-3.8,0.5c0,0-13.9,0-13.9,10.4
		c0,10.3-5.8,0.9-5.8,14.8c0,13.9,5.8,3.6,11.7,4s-0.9-12.2,6.3-12.2C740.2,533.1,749.3,515.7,739.2,515.5L739.2,515.5z
		 M698.8,530.9c-2.2,0-4.5,1-6.9,3.1c0,0-13.5-1.8-12.2,5.4c1.3,7.2-4.9,0.9-2.7,9c2.2,8.1,3.1,17.5,8.5,9
		c5.4-8.5-2.3-11.7,7.6-11.7c9.9,0,15.7-6.3,12.6-10.8C704,532.4,701.5,530.8,698.8,530.9z M634.7,573.6c-0.5,0-1.1,0.1-1.7,0.4
		c-4.9,2.2-6.3-2.7-7.6,3.2c-1.3,5.8-11.7,3.2-8.5,9c3.1,5.8,4,20.2,10.3,12.1s6.8,6.7,13.5-0.5c6.7-7.2,14.8-16.6-0.5-18.9
		C640.2,578.9,638.5,573.4,634.7,573.6L634.7,573.6z"/>
	<path id="path3998" inkscape:connector-curvature="0" class="st12" d="M808.1,485.4c6.7,10.8,11.4,21.7,12.6,28
		c2.5,13.3-11.4-12.1-24.8-5.1c-13.3,7,8.2,14,15.9,40c7.6,26.1-30.5,0-39.4,18.5c-8.9,18.4,10.2,13.3,7,33.7
		c-3.2,20.3-12.7-15.3-33-2.5c-20.3,12.7-5.7,18.4-22.2,24.8c-16.5,6.4,10.8,20.4-15.3,35c-26.1,14.6-4.4-4.5-29.2-14
		c-24.8-9.5-15.3,16.5-40.7,14.6c-15-1.1-29.6-10.4-39.2-18.4c2.1,6.6,4.8,12.9,7.9,19c31.9,21,86,24.9,131.9,24.9
		c43.6,0,90.7-7.3,123.4-23.9c9.4-17.9,14.7-38,14.7-59.4C877.5,551.6,849.7,508.7,808.1,485.4L808.1,485.4z"/>
	<path id="path4000" inkscape:connector-curvature="0" class="st13" d="M857.2,557.8c-3.6-0.3-2.4,14.1,3.2,27.5
		c7.2,17.1,1.8,18.9-4.5,36c-6.3,17.1-9-9-18,2.7c-9,11.7-9,3.6-12.6-16.2c-3.6-19.8-16.1-3.6-4.5,22.5
		c11.7,26.1-1.8,10.8-12.6,27.9c-10.8,17.1-5.4-17.1-22.5,2.7c-17.1,19.8-18-0.9-23.4,11.7c-5.4,12.6-17.1,2.7-28.8-8.1
		c-11.7-10.8-10.8,9.9-27.9,14.4c-17.1,4.5-18.8-9-30.5-4.5c-4.2,1.6-13.2,2.1-22.9,2c27.4,6.1,58.8,7.5,87,7.5
		c43.6,0,90.7-7.3,123.4-23.9c9.4-17.9,14.7-38,14.7-59.4c0-13.7-2.2-26.9-6.2-39.3c-2.6,4.5-5.9,6.9-10,0.6
		C859.6,559.1,858.2,557.9,857.2,557.8z"/>
</g>
<g id="g3978" transform="matrix(1.2051515,0,0,1.2051515,-203.18007,-377.59463)">
	<path id="path3980" inkscape:connector-curvature="0" sodipodi:nodetypes="sscscss" class="st9" d="M877.7,599.7
		c-82.4,0-149.2,61.2-149.2,136.6c0,21.3,5.3,41.5,14.8,59.5c33.5,21.5,90.4,25.4,138.5,25.4c45.8,0,95.2-7.4,129.6-24.3
		c9.9-18.3,15.4-38.8,15.4-60.6C1026.8,660.8,960.1,599.7,877.7,599.7L877.7,599.7z"/>
	<path id="path3982" inkscape:connector-curvature="0" sodipodi:nodetypes="sscscss" class="st10" d="M877.7,605.3
		c-78.5,0-142.1,60-142.1,133.9c0,20.9,5.1,40.7,14.1,58.3c31.9,21,86.1,24.9,131.9,24.9c43.6,0,90.6-7.3,123.4-23.9
		c9.4-17.9,14.7-38,14.7-59.4C1019.7,665.3,956.1,605.3,877.7,605.3z"/>
	<path id="path3984" inkscape:connector-curvature="0" class="st11" d="M842.2,620.2c-0.7,0-1.5,0.1-2.3,0.3
		c-1.2,0.3-13.2-0.9-19.6,3.5c-4.9,3.4-3.8,12.2-7.8,15.2c-4.7,3.4-4.4-5.7-9.4-2c-6.4,4.7-4.5,10.6-12.5,17.7
		c-5.1,4.6-15.5,4.8-20.2,10.8c-4.3,5.6-2,9.9-5.7,17c-2.8,5.2-6.9,4.8-10.1,10.1c-11,18.2-5.4,21.2-7.3,31.2
		c19.8-15.3,21.6-35,37.8-20.7c6.8,6,6.9-4.8,12.2-2.6c7.4,3,18.6,16.2,16.5,2.6c-2.7-17.2-12.5-23-7.2-30.4
		c20.7-28.3,12.6-5.1,19.7-5.6c14.5-1,9.2-17,12.2-25.7c2.4-7,14.5-6.1,13.2-12.8C851.1,624.7,847.4,620.1,842.2,620.2z
		 M879.4,620.8c-0.5-0.1-1.3,0.3-2.6,1.1c0,0-4.5,2.7-9.9,12.1c-5.4,9.4-13.9,10.4-6.3,13.5c7.6,3.1,9.9-3.2,15.7-5.4
		c5.8-2.2,9-7.2,5-10.8C878,628.4,881.5,621.1,879.4,620.8L879.4,620.8z M881.5,654.2c-1,0-2.3,0.1-3.8,0.5c0,0-13.9,0-13.9,10.4
		c0,10.3-5.8,0.9-5.8,14.8s5.8,3.6,11.7,4s-0.9-12.2,6.3-12.2C882.4,671.8,891.5,654.5,881.5,654.2L881.5,654.2z M841,669.6
		c-2.2,0-4.5,1-6.9,3.1c0,0-13.5-1.8-12.2,5.4c1.3,7.2-4.9,0.9-2.7,9c2.2,8.1,3.1,17.5,8.5,9c5.4-8.5-2.3-11.7,7.6-11.7
		c9.9,0,15.7-6.3,12.6-10.8C846.2,671.1,843.8,669.6,841,669.6z M776.9,712.3c-0.5,0-1.1,0.1-1.7,0.4c-4.9,2.2-6.3-2.7-7.6,3.2
		c-1.3,5.8-11.7,3.2-8.5,9c3.1,5.8,4,20.2,10.3,12.1s6.8,6.7,13.5-0.5c6.7-7.2,14.8-16.6-0.5-18.9
		C782.4,717.7,780.7,712.2,776.9,712.3L776.9,712.3z"/>
	<path id="path3986" inkscape:connector-curvature="0" class="st12" d="M950.3,624.1c6.7,10.8,11.4,21.7,12.6,28
		c2.5,13.3-11.4-12.1-24.8-5.1c-13.3,7,8.2,14,15.9,40c7.6,26.1-30.5,0-39.4,18.5c-8.9,18.4,10.2,13.3,7,33.7
		c-3.2,20.3-12.7-15.3-33-2.5c-20.3,12.7-5.7,18.4-22.2,24.8c-16.5,6.4,10.8,20.4-15.3,35c-26.1,14.6-4.4-4.5-29.2-14
		c-24.8-9.5-15.3,16.5-40.7,14.6c-15-1.1-29.6-10.4-39.2-18.4c2.1,6.6,4.8,12.9,7.9,19c31.9,21,86,24.9,131.9,24.9
		c43.6,0,90.7-7.3,123.4-23.9c9.4-17.9,14.7-38,14.7-59.4C1019.7,690.3,991.9,647.5,950.3,624.1L950.3,624.1z"/>
	<path id="path3988" inkscape:connector-curvature="0" class="st13" d="M999.4,696.5c-3.6-0.3-2.4,14.1,3.2,27.5
		c7.2,17.1,1.8,18.9-4.5,36c-6.3,17.1-9-9-18,2.7c-9,11.7-9,3.6-12.6-16.2c-3.6-19.8-16.1-3.6-4.5,22.5
		c11.7,26.1-1.8,10.8-12.6,27.9c-10.8,17.1-5.4-17.1-22.5,2.7c-17.1,19.8-18-0.9-23.4,11.7c-5.4,12.6-17.1,2.7-28.8-8.1
		c-11.7-10.8-10.8,9.9-27.9,14.4c-17.1,4.5-18.8-9-30.5-4.5c-4.2,1.6-13.2,2.1-22.9,2c27.4,6.1,58.8,7.5,87,7.5
		c43.6,0,90.7-7.3,123.4-23.9c9.4-17.9,14.7-38,14.7-59.4c0-13.7-2.2-26.9-6.2-39.3c-2.6,4.5-5.9,6.9-10,0.6
		C1001.8,697.9,1000.4,696.6,999.4,696.5z"/>
</g>
<g id="g4031" transform="translate(-6.6759602,-31.472382)">
	<path id="path4017" inkscape:connector-curvature="0" class="st0" d="M1207.9,516.5c-107.2,0-304,35-304,78.2c0,0.3,0,0.7,0,1
		c0.8,23.9,28.2,70.1,85.8,106.8c81,25.4,243.2,60.1,374.1-13.5c28.9-34.2,38.1-73,38.1-94.3C1402,551.5,1315.1,516.5,1207.9,516.5
		L1207.9,516.5z"/>
	<path id="path4013" inkscape:connector-curvature="0" class="st1" d="M912,596c0,24.4,30.4,75,95.7,111.9
		c81.6,23.2,221.2,47.3,339.8-10.2c0,0,0,0,0,0c35.5-35.2,46.4-78.7,46.4-101.6L912,596L912,596z"/>
	<path id="path4004" inkscape:connector-curvature="0" sodipodi:nodetypes="sssss" class="st4" d="M1206.2,520.4
		c103.7,0,187.7,33.9,187.7,75.7c0,41.8-84.1,75.7-187.7,75.7c-103.7,0-294.1-33.9-294.1-75.7C912,554.3,1102.5,520.4,1206.2,520.4z
		"/>
	
		<path id="path4022" sodipodi:cx="1036.5126" sodipodi:cy="1235.4528" sodipodi:rx="78.901733" sodipodi:ry="67.437378" sodipodi:type="arc" class="st14" d="
		M1217.7,526.2c75.6,0,136.9,27.3,136.9,61c0,33.7-61.3,61-136.9,61c-75.6,0-136.9-27.3-136.9-61S1142.1,526.2,1217.7,526.2z"/>
	
		<path id="path4007" sodipodi:cx="1036.5126" sodipodi:cy="1235.4528" sodipodi:rx="78.901733" sodipodi:ry="67.437378" sodipodi:type="arc" class="st15" d="
		M1217.7,528.8c73.7,0,133.4,25.3,133.4,56.5c0,31.2-59.7,56.5-133.4,56.5c-73.7,0-133.4-25.3-133.4-56.5S1144,528.8,1217.7,528.8z"
		/>
	<path id="path4009" inkscape:connector-curvature="0" sodipodi:nodetypes="cssssssssc" class="st16" d="M1106.1,586.7
		c0,0,7.6-36.9,75.6-43.9c68-7,0.6,14-9.5,21c-10.2,7-18.4,21-5.1,29.2c13.3,8.3,3.8-19.1,21.6-19.7c17.8-0.6,10.8,25.4,29.2,21
		c18.4-4.5-1.3-26.7,24.8-22.9c26.1,3.8,54.7,15.3,36.2,32.4c-6.5,6.1-31,20.1-58.3,22C1171.1,629.5,1109,614.2,1106.1,586.7
		L1106.1,586.7z"/>
	<path id="path4011" inkscape:connector-curvature="0" class="st17" d="M1267.4,537.9c0,0-35.1-2.7-39.6,2.2
		c-4.5,4.9,14.4,9,32.8,14.4c18.4,5.4,52.6,11.2,48.1,28.8c-4.5,17.5-34.6,28.3-26.5,33.7c8.1,5.4,31-1.3,43.6-19.3
		C1338.4,579.7,1341.1,550.5,1267.4,537.9z"/>
</g>
<g id="g4074" transform="matrix(0.52632362,0.4429735,-0.4429735,0.52632362,1188.1552,132.94636)">
	<path id="path4076" inkscape:connector-curvature="0" class="st18" d="M-651.2,1093.2c0,0,84,96.7,341.4,31.3
		c-24.9-82.3-136.5-177.6-183.8-194.6C-540.9,912.9-623.6,1010.9-651.2,1093.2z"/>
	<path id="path4078" inkscape:connector-curvature="0" class="st19" d="M-645.8,1095.1c0,0,81.4,94.1,330.6,30.5
		c-24.2-80.1-132.2-172.9-178-189.4S-619.1,1015-645.8,1095.1L-645.8,1095.1z"/>
	<path id="path4080" inkscape:connector-curvature="0" class="st20" d="M-570.5,1006.8c0,0,5.4-15.3,17.1-16.2
		c11.7-0.9-6.3-5.4,9-9.9c15.3-4.5,1.8-16.2,14.4-16.2c12.6,0,5.4-9,17.1-9c11.7,0,33.3,0,21.6,6.3c-11.7,6.3,34.2,7.2,21.6,16.2
		c-12.6,9-9.9,9-22.5,5.4c-12.6-3.6-25.2-12.6-19.8-0.9c5.4,11.7,9.9,21.6-3.6,18.9c-13.5-2.7-3.6,2.7-15.3,9.9s-9.9-18-18-3.6
		c-8.1,14.4-15.3,27-21.6,26.1C-576.8,1032.8-593,1021.1-570.5,1006.8L-570.5,1006.8z"/>
	<path id="path4082" inkscape:connector-curvature="0" class="st21" d="M-423.7,981.8c0.9,3.1,2.3,6.6,4.3,10.6
		c13.5,27,24.2,24.3,13.5,42.2c-10.8,18-14.3-15.3-21.5-7.2c-7.2,8.1-6.3,10.8,5.4,25.2c11.7,14.4,5.4,6.3-7.2,24.3
		c-12.6,18-15.3-7.2-27,9c-11.7,16.2-9.9,1.8-19.8-11.7c-9.9-13.5-4.5,17.1-25.2,18.9c-20.7,1.8-5.4,20.7-29.7,24.2
		c-24.3,3.6-5.4-23.4-21.6-29.7c-16.2-6.3-15.3,13.5-38.7,6.3c-23.4-7.2-9-14.4-22.5-20.7c-13.5-6.3,9.9-19.8,2.7-27
		c-4.5-4.5,4.1-24.3,11.2-38.4c-19.6,27-36.3,58.1-46,87.2c0,0,81.4,94.1,330.6,30.5C-330.4,1075.4-378.6,1020.1-423.7,981.8
		L-423.7,981.8z"/>
</g>
<g id="g3971" transform="matrix(1.3174447,0,0,1.3174447,-457.21035,-477.76373)">
	<path id="path3969" inkscape:connector-curvature="0" sodipodi:nodetypes="sscscss" class="st9" d="M891.5,670.8
		c-82.4,0-149.2,60.6-149.2,135.4c0,21.1,5.3,41.1,14.8,59c33.5,21.3,90.4,25.2,138.5,25.2c45.8,0,95.2-7.4,129.6-24.1
		c9.9-18.1,15.4-38.5,15.4-60C1040.6,731.4,973.8,670.8,891.5,670.8z"/>
	<path id="path3155" inkscape:connector-curvature="0" sodipodi:nodetypes="sscscss" class="st10" d="M891.5,676.4
		c-78.5,0-142.1,60-142.1,133.9c0,20.9,5.1,40.7,14.1,58.3c31.9,21,86.1,24.9,131.9,24.9c43.6,0,90.6-7.3,123.4-23.9
		c9.4-17.9,14.7-38,14.7-59.4C1033.5,736.4,969.9,676.4,891.5,676.4z"/>
	<path id="path3160" inkscape:connector-curvature="0" class="st11" d="M856,691.4c-0.7,0-1.5,0.1-2.3,0.3
		c-1.2,0.3-13.2-0.9-19.6,3.5c-4.9,3.4-3.8,12.2-7.8,15.2c-4.7,3.4-4.4-5.7-9.4-2c-6.4,4.7-4.5,10.6-12.5,17.7
		c-5.1,4.6-15.5,4.8-20.2,10.8c-4.3,5.6-2,9.9-5.7,17c-2.8,5.2-6.9,4.8-10.1,10.1c-11,18.2-5.4,21.2-7.3,31.2
		c19.8-15.3,21.6-35,37.8-20.7c6.8,6,6.9-4.8,12.2-2.6c7.4,3,18.6,16.2,16.5,2.6c-2.7-17.2-12.5-23-7.2-30.4
		c20.7-28.3,12.6-5.1,19.7-5.6c14.5-1,9.2-17,12.2-25.7c2.4-7,14.5-6.1,13.2-12.8C864.9,695.8,861.1,691.2,856,691.4z M893.1,692
		c-0.5-0.1-1.3,0.3-2.6,1.1c0,0-4.5,2.7-9.9,12.1c-5.4,9.4-13.9,10.4-6.3,13.5c7.6,3.1,9.9-3.2,15.7-5.4c5.8-2.2,9-7.2,5-10.8
		C891.8,699.6,895.3,692.2,893.1,692L893.1,692z M895.2,725.4c-1,0-2.3,0.1-3.8,0.5c0,0-13.9,0-13.9,10.4c0,10.3-5.8,0.9-5.8,14.8
		s5.8,3.6,11.7,4s-0.9-12.2,6.3-12.2C896.1,742.9,905.3,725.6,895.2,725.4L895.2,725.4z M854.7,740.7c-2.2,0-4.5,1-6.9,3.1
		c0,0-13.5-1.8-12.2,5.4c1.3,7.2-4.9,0.9-2.7,9c2.2,8.1,3.1,17.5,8.5,9c5.4-8.5-2.3-11.7,7.6-11.7s15.7-6.3,12.6-10.8
		C860,742.2,857.5,740.7,854.7,740.7z M790.7,783.4c-0.5,0-1.1,0.1-1.7,0.4c-4.9,2.2-6.3-2.7-7.6,3.2c-1.3,5.8-11.7,3.2-8.5,9
		c3.1,5.8,4,20.2,10.3,12.1s6.8,6.7,13.5-0.5c6.7-7.2,14.8-16.6-0.5-18.9C796.1,788.8,794.4,783.3,790.7,783.4L790.7,783.4z"/>
	<path id="path3938" inkscape:connector-curvature="0" class="st12" d="M964.1,695.2c6.7,10.8,11.4,21.7,12.6,28
		c2.5,13.3-11.4-12.1-24.8-5.1c-13.3,7,8.2,14,15.9,40c7.6,26.1-30.5,0-39.4,18.5c-8.9,18.4,10.2,13.3,7,33.7
		c-3.2,20.3-12.7-15.3-33-2.5c-20.3,12.7-5.7,18.4-22.2,24.8c-16.5,6.4,10.8,20.4-15.3,35c-26.1,14.6-4.4-4.5-29.2-14
		c-24.8-9.5-15.3,16.5-40.7,14.6c-15-1.1-29.6-10.4-39.2-18.4c2.1,6.6,4.8,12.9,7.9,19c31.9,21,86,24.9,131.9,24.9
		c43.6,0,90.7-7.3,123.4-23.9c9.4-17.9,14.7-38,14.7-59.4C1033.5,761.4,1005.6,718.6,964.1,695.2L964.1,695.2z"/>
	<path id="path3943" inkscape:connector-curvature="0" class="st13" d="M1013.1,767.6c-3.6-0.3-2.4,14.1,3.2,27.5
		c7.2,17.1,1.8,18.9-4.5,36c-6.3,17.1-9-9-18,2.7c-9,11.7-9,3.6-12.6-16.2c-3.6-19.8-16.1-3.6-4.5,22.5
		c11.7,26.1-1.8,10.8-12.6,27.9c-10.8,17.1-5.4-17.1-22.5,2.7s-18-0.9-23.4,11.7c-5.4,12.6-17.1,2.7-28.8-8.1
		c-11.7-10.8-10.8,9.9-27.9,14.4s-18.8-9-30.5-4.5c-4.2,1.6-13.2,2.1-22.9,2c27.4,6.1,58.8,7.5,87,7.5c43.6,0,90.7-7.3,123.4-23.9
		c9.4-17.9,14.7-38,14.7-59.4c0-13.7-2.2-26.9-6.2-39.3c-2.6,4.5-5.9,6.9-10,0.6C1015.5,769,1014.2,767.7,1013.1,767.6z"/>
</g>
<g id="g4064" transform="matrix(0.79355218,0.26394724,-0.26394724,0.79355218,620.60925,-23.097419)">
	<path id="path4066" inkscape:connector-curvature="0" class="st18" d="M-232.9,721.7c0,0,84,96.7,341.4,31.3
		C83.6,670.7-28,575.4-75.3,558.4C-122.6,541.4-205.3,639.4-232.9,721.7z"/>
	<path id="path4068" inkscape:connector-curvature="0" class="st19" d="M-227.5,723.6c0,0,81.4,94.1,330.6,30.5
		C78.9,674-29.1,581.2-74.9,564.6C-120.7,548.1-200.8,643.5-227.5,723.6L-227.5,723.6z"/>
	<path id="path4070" inkscape:connector-curvature="0" class="st20" d="M-152.1,635.2c0,0,5.4-15.3,17.1-16.2
		c11.7-0.9-6.3-5.4,9-9.9c15.3-4.5,1.8-16.2,14.4-16.2s5.4-9,17.1-9s33.3,0,21.6,6.3c-11.7,6.3,34.2,7.2,21.6,16.2
		c-12.6,9-9.9,9-22.5,5.4c-12.6-3.6-25.2-12.6-19.8-0.9s9.9,21.6-3.6,18.9s-3.6,2.7-15.3,9.9c-11.7,7.2-9.9-18-18-3.6
		c-8.1,14.4-15.3,27-21.6,26.1C-158.4,661.3-174.6,649.6-152.1,635.2L-152.1,635.2z"/>
	<path id="path4072" inkscape:connector-curvature="0" class="st21" d="M-5.4,610.3c0.9,3.1,2.3,6.6,4.3,10.6
		c13.5,27,24.2,24.3,13.5,42.2S-2,647.8-9.2,655.9c-7.2,8.1-6.3,10.8,5.4,25.2c11.7,14.4,5.4,6.3-7.2,24.3c-12.6,18-15.3-7.2-27,9
		c-11.7,16.2-9.9,1.8-19.8-11.7c-9.9-13.5-4.5,17.1-25.2,18.9c-20.7,1.8-5.4,20.7-29.7,24.2c-24.3,3.6-5.4-23.4-21.6-29.7
		c-16.2-6.3-15.3,13.5-38.7,6.3c-23.4-7.2-9-14.4-22.5-20.7c-13.5-6.3,9.9-19.8,2.7-27c-4.5-4.5,4.1-24.3,11.2-38.4
		c-19.6,27-36.3,58.1-46,87.2c0,0,81.4,94.1,330.6,30.5C87.9,703.8,39.7,648.6-5.4,610.3L-5.4,610.3z"/>
</g>
<g id="g4058" transform="translate(8.0924856,1.3487476)">
	<path id="path4056" inkscape:connector-curvature="0" class="st18" d="M144.7,584.9c0,0,84,96.7,341.4,31.3
		C461.1,534,349.5,438.6,302.3,421.7C255,404.7,172.3,502.7,144.7,584.9z"/>
	<path id="path4047" inkscape:connector-curvature="0" class="st19" d="M150.1,586.8c0,0,81.4,94.1,330.6,30.5
		c-24.2-80.1-132.2-172.9-178-189.4C256.9,411.4,176.8,506.7,150.1,586.8L150.1,586.8z"/>
	<path id="path4049" inkscape:connector-curvature="0" class="st20" d="M225.4,498.5c0,0,5.4-15.3,17.1-16.2c11.7-0.9-6.3-5.4,9-9.9
		c15.3-4.5,1.8-16.2,14.4-16.2c12.6,0,5.4-9,17.1-9s33.3,0,21.6,6.3c-11.7,6.3,34.2,7.2,21.6,16.2c-12.6,9-9.9,9-22.5,5.4
		c-12.6-3.6-25.2-12.6-19.8-0.9c5.4,11.7,9.9,21.6-3.6,18.9c-13.5-2.7-3.6,2.7-15.3,9.9c-11.7,7.2-9.9-18-18-3.6
		c-8.1,14.4-15.3,27-21.6,26.1C219.1,524.6,203,512.9,225.4,498.5L225.4,498.5z"/>
	<path id="path4051" inkscape:connector-curvature="0" class="st21" d="M372.2,473.5c0.9,3.1,2.3,6.6,4.3,10.6
		c13.5,27,24.2,24.3,13.5,42.2s-14.3-15.3-21.5-7.2c-7.2,8.1-6.3,10.8,5.4,25.2c11.7,14.4,5.4,6.3-7.2,24.3c-12.6,18-15.3-7.2-27,9
		c-11.7,16.2-9.9,1.8-19.8-11.7c-9.9-13.5-4.5,17.1-25.2,18.9c-20.7,1.8-5.4,20.7-29.7,24.2c-24.3,3.6-5.4-23.4-21.6-29.7
		c-16.2-6.3-15.3,13.5-38.7,6.3c-23.4-7.2-9-14.4-22.5-20.7c-13.5-6.3,9.9-19.8,2.7-27c-4.5-4.5,4.1-24.3,11.2-38.4
		c-19.6,27-36.3,58.1-46,87.2c0,0,81.4,94.1,330.6,30.5C465.5,567.1,417.3,511.8,372.2,473.5L372.2,473.5z"/>
</g>
<path id="path4097" inkscape:connector-curvature="0" class="st7" d="M1078.1,454.8c0,0-24.2,1.9-12.1,8.9
	c12.1,7,67.4,17.8,83.9,15.3C1166.5,476.4,1150.6,452.3,1078.1,454.8z"/>
<path id="path4090" inkscape:connector-curvature="0" sodipodi:nodetypes="csscc" class="st1" d="M1074.7,460.3
	c0,0,805.7-484.2,973.4-459.4s-35.6,83.1-98.1,104.4c-353.7,120.7-821.2,362.8-821.2,362.8S1096,473.4,1074.7,460.3L1074.7,460.3z"
	/>
<path id="path4106" inkscape:connector-curvature="0" sodipodi:nodetypes="cssccsc" class="st4" d="M2112.4,25.2
	c-40.2,18.4-130.9,40.2-177,52.1c-55.7,14.4-271.8,97.3-403,162c-108.2,53.4-348.5,187.6-427.5,229.6c13.1,1,23.8-0.7,23.8-0.7
	s467.5-242.1,821.2-362.8C1996.5,89.4,2121.3,53,2112.4,25.2z"/>
<path id="path4101" inkscape:connector-curvature="0" class="st3" d="M2112.4,25.2c-40.2,18.4-134.5,46.4-180.6,58.4
	c-55.7,14.4-284.1,106.1-415.4,170.8c-108.2,53.4-332.6,172.5-411.5,214.5c13.1,1,23.8-0.7,23.8-0.7s467.5-242.1,821.2-362.8
	C1996.5,89.4,2121.3,53,2112.4,25.2z"/>
<g id="g4253" transform="translate(-16.213046,0)">
	<path id="path4249" inkscape:connector-curvature="0" class="st22" d="M473.3,640.1l-6.4,3l17.2,8.4l4.4-8.8L473.3,640.1z"/>
	<path id="path4251" inkscape:connector-curvature="0" class="st23" d="M470.7,642.7l14.8,1.8c0,0-1.2,3.6-2.1,3
		C482.5,647,470.7,642.7,470.7,642.7L470.7,642.7z"/>
</g>
<g id="g4257" transform="matrix(0.73632638,-0.67662653,0.67662653,0.73632638,-827.28702,1066.8458)">
	<path id="path4259" inkscape:connector-curvature="0" class="st22" d="M1134.7,494.9l-6.4,3l17.2,8.4l4.4-8.8L1134.7,494.9z"/>
	<path id="path4261" inkscape:connector-curvature="0" class="st23" d="M1132.1,497.6l14.8,1.8c0,0-1.2,3.6-2.1,3
		S1132.1,497.6,1132.1,497.6L1132.1,497.6z"/>
</g>
<g id="g4263" transform="matrix(0.61453639,0.78888847,-0.78888847,0.61453639,1499.7602,-194.12555)">
	<path id="path4265" inkscape:connector-curvature="0" class="st22" d="M60.4,1347.1l-6.4,3l17.2,8.4l4.4-8.8L60.4,1347.1z"/>
	<path id="path4267" inkscape:connector-curvature="0" class="st23" d="M57.8,1349.7l14.8,1.8c0,0-1.2,3.6-2.1,3
		C69.6,1353.9,57.8,1349.7,57.8,1349.7L57.8,1349.7z"/>
</g>
<g id="g4269" transform="matrix(0.73632638,-0.67662653,0.67662653,0.73632638,-126.31123,836.04831)">
	<path id="path4271" inkscape:connector-curvature="0" class="st22" d="M1134.7,494.9l-6.4,3l17.2,8.4l4.4-8.8L1134.7,494.9z"/>
	<path id="path4273" inkscape:connector-curvature="0" class="st23" d="M1132.1,497.6l14.8,1.8c0,0-1.2,3.6-2.1,3
		S1132.1,497.6,1132.1,497.6L1132.1,497.6z"/>
</g>
<g id="g4275" transform="matrix(0.73632638,-0.67662653,0.67662653,0.73632638,299.89301,945.29687)">
	<path id="path4277" inkscape:connector-curvature="0" class="st22" d="M1134.7,494.9l-6.4,3l17.2,8.4l4.4-8.8L1134.7,494.9z"/>
	<path id="path4279" inkscape:connector-curvature="0" class="st23" d="M1132.1,497.6l14.8,1.8c0,0-1.2,3.6-2.1,3
		S1132.1,497.6,1132.1,497.6L1132.1,497.6z"/>
</g>
<g id="g4281" transform="matrix(0.98535583,0.17051064,-0.17051064,0.98535583,678.92589,-98.051139)">
	<path id="path4283" inkscape:connector-curvature="0" class="st22" d="M348.6,739.6l-6.4,3l17.2,8.4l4.4-8.8L348.6,739.6z"/>
	<path id="path4285" inkscape:connector-curvature="0" class="st23" d="M346,742.3l14.8,1.8c0,0-1.2,3.6-2.1,3
		C357.8,746.5,346,742.3,346,742.3L346,742.3z"/>
</g>
<g id="g4287" transform="matrix(0.73632638,-0.67662653,0.67662653,0.73632638,115.11459,869.767)">
	<path id="path4289" inkscape:connector-curvature="0" class="st22" d="M1134.7,494.9l-6.4,3l17.2,8.4l4.4-8.8L1134.7,494.9z"/>
	<path id="path4291" inkscape:connector-curvature="0" class="st23" d="M1132.1,497.6l14.8,1.8c0,0-1.2,3.6-2.1,3
		S1132.1,497.6,1132.1,497.6L1132.1,497.6z"/>
</g>
<g id="g4293" transform="matrix(0.98996756,0.14129484,-0.14129484,0.98996756,1157.5114,-156.43445)">
	<path id="path4295" inkscape:connector-curvature="0" class="st22" d="M368.9,721l-6.4,3l17.2,8.4l4.4-8.8L368.9,721z"/>
	<path id="path4297" inkscape:connector-curvature="0" class="st23" d="M366.2,723.6l14.8,1.8c0,0-1.2,3.6-2.1,3
		C378,727.8,366.2,723.6,366.2,723.6L366.2,723.6z"/>
</g>
</svg>
