<?xml version="1.0" encoding="utf-8"?>
<!-- Generator: Adobe Illustrator 25.0.0, SVG Export Plug-In . SVG Version: 6.00 Build 0)  -->
<svg version="1.1"
	 id="svg31454" xmlns:cc="http://creativecommons.org/ns#" xmlns:dc="http://purl.org/dc/elements/1.1/" xmlns:rdf="http://www.w3.org/1999/02/22-rdf-syntax-ns#" xmlns:svg="http://www.w3.org/2000/svg"
	 xmlns="http://www.w3.org/2000/svg" xmlns:xlink="http://www.w3.org/1999/xlink" x="0px" y="0px" viewBox="0 0 566.3 534.2"
	 style="enable-background:new 0 0 566.3 534.2;" xml:space="preserve">
<style type="text/css">
	.st0{fill:#504416;}
	.st1{fill-rule:evenodd;clip-rule:evenodd;fill:url(#path3246_3_);}
	.st2{fill-rule:evenodd;clip-rule:evenodd;fill:url(#path3316_3_);}
	.st3{fill:#490B55;}
	.st4{fill-rule:evenodd;clip-rule:evenodd;fill:url(#path5306_2_);}
	.st5{fill-rule:evenodd;clip-rule:evenodd;fill:url(#path4289_2_);}
	.st6{fill:#682C91;}
	.st7{fill:url(#path5312_2_);}
	.st8{fill-rule:evenodd;clip-rule:evenodd;fill:url(#path3246_4_);}
	.st9{fill-rule:evenodd;clip-rule:evenodd;fill:url(#path3316_4_);}
	.st10{fill:url(#path5241_1_);}
	.st11{fill-rule:evenodd;clip-rule:evenodd;fill:url(#path3246_7_);}
	.st12{fill-rule:evenodd;clip-rule:evenodd;fill:url(#path3316_7_);}
	.st13{fill:url(#path5241_3_);}
	.st14{fill-rule:evenodd;clip-rule:evenodd;fill:url(#path3246_11_);}
	.st15{fill-rule:evenodd;clip-rule:evenodd;fill:url(#path3316_11_);}
	.st16{fill:url(#path5241_4_);}
	.st17{fill-rule:evenodd;clip-rule:evenodd;fill:url(#path3246_12_);}
	.st18{fill-rule:evenodd;clip-rule:evenodd;fill:url(#path3316_12_);}
	.st19{fill:url(#path5241_7_);}
	.st20{fill-rule:evenodd;clip-rule:evenodd;fill:url(#path3246_13_);}
	.st21{fill-rule:evenodd;clip-rule:evenodd;fill:url(#path3316_13_);}
	.st22{fill:url(#path5241_11_);}
	.st23{fill-rule:evenodd;clip-rule:evenodd;fill:url(#path3246_15_);}
	.st24{fill-rule:evenodd;clip-rule:evenodd;fill:url(#path3316_15_);}
	.st25{fill:url(#path5241_12_);}
	.st26{fill-rule:evenodd;clip-rule:evenodd;fill:url(#path3246_20_);}
	.st27{fill-rule:evenodd;clip-rule:evenodd;fill:url(#path3316_20_);}
	.st28{fill:url(#path5241_13_);}
	.st29{fill-rule:evenodd;clip-rule:evenodd;fill:url(#path3246_23_);}
	.st30{fill-rule:evenodd;clip-rule:evenodd;fill:url(#path3316_23_);}
	.st31{fill:url(#path5241_15_);}
	.st32{fill-rule:evenodd;clip-rule:evenodd;fill:url(#path3246_24_);}
	.st33{fill-rule:evenodd;clip-rule:evenodd;fill:url(#path3316_24_);}
	.st34{fill:url(#path5241_20_);}
	.st35{fill-rule:evenodd;clip-rule:evenodd;fill:url(#path3246_25_);}
	.st36{fill-rule:evenodd;clip-rule:evenodd;fill:url(#path3316_25_);}
	.st37{fill:url(#path5241_23_);}
	.st38{fill-rule:evenodd;clip-rule:evenodd;fill:url(#path3246_26_);}
	.st39{fill-rule:evenodd;clip-rule:evenodd;fill:url(#path3316_26_);}
	.st40{fill:url(#path5241_24_);}
	.st41{fill-rule:evenodd;clip-rule:evenodd;fill:url(#path3246_27_);}
	.st42{fill-rule:evenodd;clip-rule:evenodd;fill:url(#path3316_27_);}
	.st43{fill:url(#path5241_25_);}
	.st44{fill-rule:evenodd;clip-rule:evenodd;fill:url(#path3246_28_);}
	.st45{fill-rule:evenodd;clip-rule:evenodd;fill:url(#path3316_28_);}
	.st46{fill:url(#path5241_26_);}
	.st47{fill:none;stroke:#806600;stroke-width:24;stroke-linecap:round;stroke-linejoin:round;}
	
		.st48{opacity:0.5;fill:none;stroke:#000000;stroke-width:24;stroke-linecap:round;stroke-linejoin:round;enable-background:new    ;}
	.st49{fill:none;stroke:#806600;stroke-width:16;stroke-linecap:round;stroke-linejoin:round;}
	.st50{fill:none;stroke:#AA8800;stroke-width:12.422;stroke-linecap:round;stroke-linejoin:round;}
	.st51{fill:none;stroke:#D4AA00;stroke-width:10;stroke-linecap:round;stroke-linejoin:round;}
	.st52{fill:none;stroke:#AA8800;stroke-width:10;stroke-linecap:round;stroke-linejoin:round;}
	.st53{fill:none;stroke:#D4AA00;stroke-width:11.58;stroke-linecap:round;stroke-linejoin:round;}
	.st54{fill:none;stroke:#AA8800;stroke-width:11.421;stroke-linecap:round;stroke-linejoin:round;}
	.st55{fill:none;stroke:#D4AA00;stroke-width:11.419;stroke-linecap:round;stroke-linejoin:round;}
	.st56{fill:none;stroke:#AA8800;stroke-width:11.095;stroke-linecap:round;stroke-linejoin:round;}
	.st57{fill:none;stroke:#D4AA00;stroke-width:11.145;stroke-linecap:round;stroke-linejoin:round;}
	.st58{fill:none;stroke:#AA8800;stroke-width:10.892;stroke-linecap:round;stroke-linejoin:round;}
	.st59{fill:none;stroke:#D4AA00;stroke-width:10.905;stroke-linecap:round;stroke-linejoin:round;}
	.st60{fill:none;stroke:#AA8800;stroke-width:10.7;stroke-linecap:round;stroke-linejoin:round;}
	.st61{fill:none;stroke:#D4AA00;stroke-width:10.657;stroke-linecap:round;stroke-linejoin:round;}
	.st62{fill:none;stroke:#AA8800;stroke-width:10.495;stroke-linecap:round;stroke-linejoin:round;}
	.st63{fill:none;stroke:#D4AA00;stroke-width:10.469;stroke-linecap:round;stroke-linejoin:round;}
	.st64{fill:none;stroke:#AA8800;stroke-width:10.218;stroke-linecap:round;stroke-linejoin:round;}
	.st65{fill:none;stroke:#D4AA00;stroke-width:10.248;stroke-linecap:round;stroke-linejoin:round;}
</style>
<g>
	<path id="rect4031" class="st0" d="M76.5,252.1h388.7l-59.6,203.5c0,0-36.6,18-134.8,18c-98.2,0-134.8-18-134.8-18L76.5,252.1z"/>
	
		<linearGradient id="path3246_3_" gradientUnits="userSpaceOnUse" x1="-419.7296" y1="935.5604" x2="-414.0031" y2="935.5604" gradientTransform="matrix(2.0016 0 0 2.0016 994.305 -1548.3137)">
		<stop  offset="0" style="stop-color:#9E7000"/>
		<stop  offset="1" style="stop-color:#FFC998"/>
	</linearGradient>
	<path id="path3246_1_" class="st1" d="M159.7,293.2c-2.4-0.5-4.8,1.3-4.2,3.9c1.5,18.7,2.2,37.6-1.3,56c0,2.9,11.5,3.4,11.8,0
		c4.5-17.7,2.9-26.2-4.8-53.6C160.4,298,162.3,292.4,159.7,293.2L159.7,293.2z"/>
	
		<linearGradient id="path3316_3_" gradientUnits="userSpaceOnUse" x1="-419.6187" y1="918.3474" x2="-416.8997" y2="939.0388" gradientTransform="matrix(2.0016 0 0 2.0016 994.305 -1548.3137)">
		<stop  offset="0" style="stop-color:#614618"/>
		<stop  offset="1" style="stop-color:#FFFBF8;stop-opacity:0"/>
	</linearGradient>
	<path id="path3316_1_" class="st2" d="M159.7,293.2c-2.4-0.5-4.8,1.3-4.2,3.9c1.5,18.7,2.2,37.6-1.3,56c0,2.9,11.5,3.4,11.8,0
		c4.5-17.7,2.9-26.2-4.8-53.6C160.4,298,162.3,292.4,159.7,293.2L159.7,293.2z"/>
	<path id="path5304_1_" class="st3" d="M172.2,292.2c-2.5,0.1-4.4,1.1-6.1,2c-7,3.6-12.4,7.9-17.4,12.3c-3.6,3.3-7.2,6.7-8.7,10.4
		c-0.6,1.1,0.1,4.3,1.2,5.6c1.7,1.6,6.6,2.2,8.9,2.1c3.4-0.4,6.9-0.5,10.3-0.5c8.4,1.7,9.9-0.3,16.7-0.4c0.8,0,3.6-0.5,4.5-0.5
		c22.6,0.3,26.8,0,17.4-12.4c-4.8-5.3-10.6-10.4-17.9-15c-2.4-1.4-4.8-3-8.4-3.5C172.6,292.2,172.4,292.2,172.2,292.2z"/>
	
		<linearGradient id="path5306_2_" gradientUnits="userSpaceOnUse" x1="162.9771" y1="1189.7888" x2="171.6294" y2="1191.7059" gradientTransform="matrix(1.0796 3.078859e-02 -3.078859e-02 1.0796 25.965 -958.5289)">
		<stop  offset="0" style="stop-color:#9E7000"/>
		<stop  offset="1" style="stop-color:#FFC998"/>
	</linearGradient>
	<path id="path5306_1_" class="st4" d="M175.1,308.5c-1.8-0.5-3.7,0.9-3.3,2.9c-7.8,24.8-8.9,35.8-9.1,43.3c0,2.2,10.7,2.3,11-0.2
		c-0.8-8.4,0.7-1.7,2.4-41.1C175.6,312.1,177.1,308,175.1,308.5z"/>
	
		<linearGradient id="path4289_2_" gradientUnits="userSpaceOnUse" x1="171.8313" y1="1167.4388" x2="167.9887" y2="1195.1432" gradientTransform="matrix(1.0796 3.078859e-02 -3.078859e-02 1.0796 25.965 -956.5271)">
		<stop  offset="0" style="stop-color:#614618"/>
		<stop  offset="1" style="stop-color:#FFFBF8;stop-opacity:0"/>
	</linearGradient>
	<path id="path4289_1_" class="st5" d="M175.1,309.3c-1.8-0.5-3.7,0.9-3.3,2.9c-7.8,24.8-8.9,35.8-9.1,43.3c0,2.2,10.7,2.3,11-0.2
		c-0.8-8.4,0.7-1.7,2.4-41.1C175.6,313,177.1,308.8,175.1,309.3L175.1,309.3z"/>
	<path id="path5310_1_" class="st6" d="M196.1,321.8c-10.9,0.5-7.8-2.4-12.3-1.4c-3.4,0.7-4.7,3.3-7.5,2.5c-2.4-0.8-6.1,1.9-9,2.4
		c-4.7,0.6-11.5-2.7-16.4-2.5c-4.6,0-7.9,0.5-9.8-1.3c-1.1-1-2.1-4.5-1.4-5.6c1.5-3.6,5.1-7,8.7-10.2c5-4.3,10.4-8.5,17.4-12
		c1.9-0.8,3.9-2,6.7-1.9c3.6,0.6,6,2.1,8.4,3.4c7.3,4.5,13.1,9.5,17.9,14.6c2,2.4,4.3,4.8,4.5,7.4
		C204.4,320.9,203.6,323.6,196.1,321.8L196.1,321.8z"/>
	
		<linearGradient id="path5312_2_" gradientUnits="userSpaceOnUse" x1="171.5673" y1="211.1329" x2="171.5673" y2="244.5485" gradientTransform="matrix(1 0 0 -1 0 536)">
		<stop  offset="0" style="stop-color:#00A4FF;stop-opacity:0.5"/>
		<stop  offset="0.1688" style="stop-color:#2FB4FE;stop-opacity:0.4156"/>
		<stop  offset="0.5821" style="stop-color:#9EDAFB;stop-opacity:0.209"/>
		<stop  offset="0.8676" style="stop-color:#E4F2F9;stop-opacity:6.619173e-02"/>
		<stop  offset="1" style="stop-color:#FFFBF8;stop-opacity:0"/>
		<stop  offset="1" style="stop-color:#F7F8F8;stop-opacity:5.855240e-02"/>
	</linearGradient>
	<path id="path5312_1_" class="st7" d="M170.7,291.7c-6.7,2-12,6.5-17.3,10.8c-5,4.6-10.9,9.2-13.1,15.7c-0.4,1.9,0.6,3,2.4,3.9
		c-0.8-2.5-0.8-4.7,1-6.8c2.7-3.9,6.2-7.3,9.8-10.4c-3.6,4.1-7.9,8.3-9,13.7c0.1,1.7-0.1,4.8,2.6,4c-1.2-2.7-0.8-5.6,1-7.9
		c3.3-5.1,7.6-9.6,12.1-13.8c-4.2,5.4-9,10.9-10.4,17.6c0.1,1.4-0.1,3.5,1,4.2c2.5,0.6,0.6-2,0.9-3.4c0.3-4.9,3.9-8.9,6.6-12.9
		c1.7-2.3,3.5-4.6,5.5-6.7c-3.6,5.9-7.5,12-8.5,18.9c0.2,1.2-0.6,4.6,0.4,4.9c2.5-0.3,0.8-4,1.6-5.7c1.6-6.7,5.3-12.9,9.2-18.7
		c-2.7,6.7-7.3,17-7.4,24.2c-0.5,1.3,2,0.1,1.9-2c-0.3-6.2,3.9-12.6,5.9-18.4c-1.4,6-3.8,15.3-3.4,21.6c1.1,0.9,1.5,1.7,2.4-6.2
		c0.4-5.4,1.8-10.8,3.1-16.2c-0.6,6.1-1.5,12.3-1.4,18.6c-0.9,5.9,1.8,6.7,1.9-3.8c0.1-3.3,0.5-6.6,0.8-9.8c-0.1,4.5-0.2,9-0.1,13.4
		c-1.1,8.5,1.7,0.1,1.9-5.6c0.1-4.3,0.1-9.6,0.2-13.3c0.6,6.4,1.5,12.9,1,19.4c1,3.9,2.4-0.4,2.3-1.9c-0.1-5.7-0.9-12.2-1.4-17.3
		c1.4,6,3.1,12.1,3,18.3c-0.7,1.4,1.7,4.3,1.6,1.6c1.2-5.1-0.8-10.4-1.6-15.5c-0.1-0.9-1.1-4.2-0.7-3.4c1.8,5.6,4.3,11.2,4.2,17.1
		c-0.4,3.6,2.1-1.1,1.6-4.4c-1.3-5.9-3.1-11.6-5.5-17.1c4,6.1,7.8,12.7,9.3,19.8c1,4.2,2.4,2.7,1.4-2.3c-1.8-5.9-4.8-11.6-8.1-16.8
		c4.9,5.7,9.8,11.9,12,19c0.1,4.5,3.6,5,1.9,0.2c-1.4-6.3-5.7-11.7-9.6-16.9c-2.2-2.4,1.5,1.2,2.2,1.9c4.1,4.6,8.9,9.3,10.8,15.2
		c0.6,3.9,2.9,5.6,2,0.8c-0.6-5.5-5.1-9.8-8.4-14c-2.2-2.4,1.5,1.2,2.1,1.9c3.5,3.8,8.1,9.5,9.3,14.7c1.9-1.1,0.9-4.9,0-6.4
		c-5.8-8.7-14-16-23.1-21.6C176.3,292.3,173.1,290.9,170.7,291.7L170.7,291.7z"/>
	<path id="path3244_2_" class="st3" d="M185.8,360.3c-3.3,0.1-5.8,1.5-8.1,2.5c-9.2,4.7-16.3,10.2-22.8,15.8
		c-4.7,4.2-9.4,8.6-11.4,13.4c-0.8,1.5,0.2,5.5,1.5,7.1c0.6,1.7,2.4,1.6,3.5,2.7c0.9,0.9,6.7,0,8.2,0c4.5-0.5,9-0.6,13.5-0.6
		c11.1,2.2,17.6,0.1,26.6,0h3.2c24.3-1.8,33.7-3.1,21-17.1c-6.3-6.8-14-13.3-23.5-19.2c-3.2-1.7-6.2-3.8-11-4.5
		C186.3,360.3,186,360.3,185.8,360.3L185.8,360.3z"/>
	
		<linearGradient id="path3246_4_" gradientUnits="userSpaceOnUse" x1="-405.981" y1="983.0958" x2="-400.2545" y2="983.0958" gradientTransform="matrix(2.0016 0 0 2.0016 994.305 -1548.3137)">
		<stop  offset="0" style="stop-color:#9E7000"/>
		<stop  offset="1" style="stop-color:#FFC998"/>
	</linearGradient>
	<path id="path3246_2_" class="st8" d="M187.2,388.3c-2.4-0.5-4.8,1.3-4.2,3.9c1.5,18.7,2.2,37.6-1.3,56c0,2.9,11.5,3.4,11.8,0
		c4.5-17.7,2.9-26.2-4.8-53.6C187.9,393.1,189.8,387.6,187.2,388.3L187.2,388.3z"/>
	
		<linearGradient id="path3316_4_" gradientUnits="userSpaceOnUse" x1="-405.8701" y1="965.8828" x2="-403.1512" y2="986.5742" gradientTransform="matrix(2.0016 0 0 2.0016 994.305 -1548.3137)">
		<stop  offset="0" style="stop-color:#614618"/>
		<stop  offset="1" style="stop-color:#FFFBF8;stop-opacity:0"/>
	</linearGradient>
	<path id="path3316_2_" class="st9" d="M187.2,388.3c-2.4-0.5-4.8,1.3-4.2,3.9c1.5,18.7,2.2,37.6-1.3,56c0,2.9,11.5,3.4,11.8,0
		c4.5-17.7,2.9-26.2-4.8-53.6C187.9,393.1,189.8,387.6,187.2,388.3L187.2,388.3z"/>
	<path id="path3248_2_" class="st6" d="M225.9,394.6c-2.5,1.1-2.3,5.7-9.3,1.7c-6.2,0.9-11.9,2.4-17.8,3.7
		c-4.4,0.9-8.7-0.6-12.4-1.6c-3.2-1.1-8.8,0.5-12.6,1.1c-6.2,0.8-9.9,1.1-16.3,1.4c-6-0.1-10.2,0.3-12.6-2c-1.5-1.4-2.7-5.8-1.8-7.4
		c2-4.7,6.8-9.1,11.4-13.4c6.5-5.6,13.6-11.1,22.8-15.8c2.5-1.1,5.2-2.6,8.8-2.5c4.7,0.7,7.8,2.8,11,4.5
		c9.5,5.9,17.2,12.4,23.5,19.2c2.6,3.1,5.6,6.3,5.9,9.7C226.5,393.7,226.4,394.1,225.9,394.6z"/>
	
		<linearGradient id="path5241_1_" gradientUnits="userSpaceOnUse" x1="184.7443" y1="135.2717" x2="184.7443" y2="176.6538" gradientTransform="matrix(1 0 0 -1 0 536)">
		<stop  offset="0" style="stop-color:#00A4FF;stop-opacity:0.5"/>
		<stop  offset="0.1688" style="stop-color:#2FB4FE;stop-opacity:0.4156"/>
		<stop  offset="0.5821" style="stop-color:#9EDAFB;stop-opacity:0.209"/>
		<stop  offset="0.8676" style="stop-color:#E4F2F9;stop-opacity:6.619173e-02"/>
		<stop  offset="1" style="stop-color:#FFFBF8;stop-opacity:0"/>
		<stop  offset="1" style="stop-color:#F7F8F8;stop-opacity:5.855240e-02"/>
	</linearGradient>
	<path id="path5241_2_" class="st10" d="M183.8,359.6c-8.7,2.6-15.8,8.7-22.7,14.3c-6.5,6.2-14.3,12.2-17.2,20.8
		c-0.5,2.6,0.9,4.5,3.2,5.8c-1.1-3.3-1.2-6.8,1.2-9.5c3.5-5.2,8.1-9.6,12.8-13.9c-4.7,5.4-10.4,11-11.8,18.1
		c0.2,2.3-0.1,6.4,3.4,5.3c-1.6-3.5-1.1-7.4,1.3-10.5c4.3-6.8,10-12.8,15.9-18.3c-5.5,7.2-11.9,14.5-13.6,23.4
		c0.1,1.8-0.1,4.6,1.3,5.5c3.4,0.8,0.8-2.7,1.1-4.4c0.4-6.5,5.1-11.8,8.6-17.2c2.3-3.1,4.6-6.1,7.2-8.9c-4.7,7.9-9.8,16-11.1,25.1
		c0.2,1.6-0.3,4.9,1.1,5.2c3.3-0.3,0.5-4.1,1.5-6.3c2.1-8.9,7-17.2,12.1-24.8c-3.5,8.9-7.6,18-7.8,27.6c-0.9,2.7,2.6,3.9,2.6,1
		c-0.4-8.2,3.1-16,5.7-23.6c-1.8,8-4.1,16.1-3.7,24.4c3.4,1,2.3-2,2.4-4.1c0.5-7.2,2.3-14.4,4.1-21.4c-0.8,8.2-2,16.4-1.8,24.6
		c3.8,1.1,2-2.9,2.5-5c0.2-4.4,0.6-8.7,1.1-13c-0.1,5.9-0.2,11.9-0.1,17.8c4.4,1,1.7-4.8,2.5-7.4c0.1-5.7,0.1-12.7,0.3-17.6
		c0.7,8.5,2.3,17.2,1.6,25.7c2.5,1.7,2.8-0.5,2.7-2.5c-0.1-7.6-1.1-16.2-1.8-23c1.8,7.9,4.1,16,3.9,24.2c-1.3,2,0.5,3.8,2,2.1
		c1.6-6.8-1-13.8-2-20.5c-0.2-1.2-1.4-5.5-0.9-4.5c2.4,7.4,5.6,14.8,5.5,22.6c-0.6,1.5-1.9,4.9,1,3.1c2.3-2,1.6-6,1.1-8.9
		c-1.7-7.8-4.1-15.4-7.2-22.7c5.3,8.1,10.2,16.9,12.2,26.3c1,1.7-2.4,5.1,0.9,3.7c2.9-0.7,1.3-4.6,1-6.7
		c-2.4-7.9-6.2-15.4-10.6-22.4c6.4,7.5,12.8,15.8,15.7,25.1c-1.1,3.1,3.4,3,2.5,0.2c-1.9-8.4-7.5-15.5-12.6-22.4
		c-2.8-3.2,1.9,1.6,2.9,2.5c5.4,6.1,11.7,12.3,14.2,20.1c-0.8,2.1,3.1,3.8,2.6,1.1c-0.8-7.3-6.7-13-11.1-18.6
		c-2.9-3.2,2,1.6,2.8,2.5c4.6,5,10.1,10.1,11.7,16.9c2.5-1.5,1.7-3.9,0.5-5.9c-7.6-11.6-18.4-21.3-30.3-28.7
		C191.1,360.5,186.9,358.6,183.8,359.6L183.8,359.6z"/>
	<path id="path3244_5_" class="st3" d="M365.3,366.2c-3.3,0.1-5.8,1.5-8.1,2.5c-9.2,4.7-16.3,10.2-22.8,15.8
		c-4.7,4.2-9.4,8.6-11.4,13.4c-0.8,1.5,0.2,5.5,1.5,7.1c0.6,1.7,2.4,1.6,3.5,2.7c0.9,0.9,6.7,0,8.2,0c4.5-0.5,9-0.6,13.5-0.6
		c11.1,2.2,17.6,0.1,26.6,0h3.2c24.3-1.8,33.7-3.1,21-17.1c-6.3-6.8-14-13.3-23.5-19.2c-3.2-1.7-6.2-3.8-11-4.5
		C365.8,366.2,365.5,366.2,365.3,366.2L365.3,366.2z"/>
	
		<linearGradient id="path3246_7_" gradientUnits="userSpaceOnUse" x1="-316.2988" y1="986.0526" x2="-310.5724" y2="986.0526" gradientTransform="matrix(2.0016 0 0 2.0016 994.305 -1548.3137)">
		<stop  offset="0" style="stop-color:#9E7000"/>
		<stop  offset="1" style="stop-color:#FFC998"/>
	</linearGradient>
	<path id="path3246_5_" class="st11" d="M366.7,394.3c-2.4-0.5-4.8,1.3-4.2,3.9c1.5,18.7,2.2,37.6-1.3,56c0,2.9,11.5,3.4,11.8,0
		c4.5-17.7,2.9-26.2-4.8-53.6C367.5,399.1,369.3,393.5,366.7,394.3L366.7,394.3z"/>
	
		<linearGradient id="path3316_7_" gradientUnits="userSpaceOnUse" x1="-316.188" y1="968.8396" x2="-313.469" y2="989.5309" gradientTransform="matrix(2.0016 0 0 2.0016 994.305 -1548.3137)">
		<stop  offset="0" style="stop-color:#614618"/>
		<stop  offset="1" style="stop-color:#FFFBF8;stop-opacity:0"/>
	</linearGradient>
	<path id="path3316_5_" class="st12" d="M366.7,394.3c-2.4-0.5-4.8,1.3-4.2,3.9c1.5,18.7,2.2,37.6-1.3,56c0,2.9,11.5,3.4,11.8,0
		c4.5-17.7,2.9-26.2-4.8-53.6C367.5,399.1,369.3,393.5,366.7,394.3L366.7,394.3z"/>
	<path id="path3248_5_" class="st6" d="M405.4,400.5c-2.5,1.1-2.3,5.7-9.3,1.7c-6.2,0.9-11.9,2.4-17.8,3.7
		c-4.4,0.9-8.7-0.6-12.4-1.6c-3.2-1.1-8.8,0.5-12.6,1.1c-6.2,0.8-9.9,1.1-16.3,1.4c-6-0.1-10.2,0.3-12.6-2c-1.5-1.4-2.7-5.8-1.8-7.4
		c2-4.7,6.8-9.1,11.4-13.4c6.5-5.6,13.6-11.1,22.8-15.8c2.5-1.1,5.2-2.6,8.8-2.5c4.7,0.7,7.8,2.8,11,4.5
		c9.5,5.9,17.2,12.4,23.5,19.2c2.6,3.1,5.6,6.3,5.9,9.7C406.1,399.6,405.9,400.1,405.4,400.5z"/>
	
		<linearGradient id="path5241_3_" gradientUnits="userSpaceOnUse" x1="364.2521" y1="129.3533" x2="364.2521" y2="170.7354" gradientTransform="matrix(1 0 0 -1 0 536)">
		<stop  offset="0" style="stop-color:#00A4FF;stop-opacity:0.5"/>
		<stop  offset="0.1688" style="stop-color:#2FB4FE;stop-opacity:0.4156"/>
		<stop  offset="0.5821" style="stop-color:#9EDAFB;stop-opacity:0.209"/>
		<stop  offset="0.8676" style="stop-color:#E4F2F9;stop-opacity:6.619173e-02"/>
		<stop  offset="1" style="stop-color:#FFFBF8;stop-opacity:0"/>
		<stop  offset="1" style="stop-color:#F7F8F8;stop-opacity:5.855240e-02"/>
	</linearGradient>
	<path id="path5241_5_" class="st13" d="M363.3,365.5c-8.7,2.6-15.8,8.7-22.7,14.3c-6.5,6.2-14.3,12.2-17.2,20.8
		c-0.5,2.6,0.9,4.5,3.2,5.8c-1.1-3.3-1.2-6.8,1.2-9.5c3.5-5.2,8.1-9.6,12.8-13.9c-4.7,5.4-10.4,11-11.8,18.1
		c0.2,2.3-0.1,6.4,3.4,5.3c-1.6-3.5-1.1-7.4,1.3-10.5c4.3-6.8,10-12.8,15.9-18.3c-5.5,7.2-11.9,14.5-13.6,23.4
		c0.1,1.8-0.1,4.6,1.3,5.5c3.4,0.8,0.8-2.7,1.1-4.4c0.4-6.5,5.1-11.8,8.6-17.2c2.3-3.1,4.6-6.1,7.2-8.9c-4.7,7.9-9.8,16-11.1,25.1
		c0.2,1.6-0.3,4.9,1.1,5.2c3.3-0.3,0.5-4.1,1.5-6.3c2.1-8.9,7-17.2,12.1-24.8c-3.5,8.9-7.6,18-7.8,27.6c-0.9,2.7,2.6,3.9,2.6,1
		c-0.4-8.2,3.1-16,5.7-23.6c-1.8,8-4.1,16.1-3.7,24.4c3.4,1,2.3-2,2.4-4.1c0.5-7.2,2.3-14.4,4.1-21.4c-0.8,8.2-2,16.4-1.8,24.6
		c3.8,1.1,2-2.9,2.5-5c0.2-4.4,0.6-8.7,1.1-13c-0.1,5.9-0.2,11.9-0.1,17.8c4.4,1,1.7-4.8,2.5-7.4c0.1-5.7,0.1-12.7,0.3-17.6
		c0.7,8.5,2.3,17.2,1.6,25.7c2.5,1.7,2.8-0.5,2.7-2.5c-0.1-7.6-1.1-16.2-1.8-23c1.8,7.9,4.1,16,3.9,24.2c-1.3,2,0.5,3.8,2,2.1
		c1.6-6.8-1-13.8-2-20.5c-0.2-1.2-1.4-5.5-0.9-4.5c2.4,7.4,5.6,14.8,5.5,22.6c-0.6,1.5-1.9,4.9,1,3.1c2.3-2,1.6-6,1.1-8.9
		c-1.7-7.8-4.1-15.4-7.2-22.7c5.3,8.1,10.2,16.9,12.2,26.3c1,1.7-2.4,5.1,0.9,3.7c2.9-0.7,1.3-4.6,1-6.7
		c-2.4-7.9-6.2-15.4-10.6-22.4c6.4,7.5,12.8,15.8,15.7,25.1c-1.1,3.1,3.4,3,2.5,0.2c-1.9-8.4-7.5-15.5-12.6-22.4
		c-2.8-3.2,1.9,1.6,2.9,2.5c5.4,6.1,11.7,12.3,14.2,20.1c-0.8,2.1,3.1,3.8,2.6,1.1c-0.8-7.3-6.7-13-11.1-18.6
		c-2.9-3.2,2,1.6,2.8,2.5c4.6,5,10.1,10.1,11.7,16.9c2.5-1.5,1.7-3.9,0.5-5.9c-7.6-11.6-18.4-21.3-30.3-28.7
		C370.6,366.4,366.4,364.5,363.3,365.5L363.3,365.5z"/>
	<path id="path3244_6_" class="st3" d="M275.6,363.4c-3.3,0.1-5.8,1.5-8.1,2.5c-9.2,4.7-16.3,10.2-22.8,15.8
		c-4.7,4.2-9.4,8.6-11.4,13.4c-0.8,1.5,0.2,5.5,1.5,7.1c0.6,1.7,2.4,1.6,3.5,2.7c0.9,0.9,6.7,0,8.2,0c4.5-0.5,9-0.6,13.5-0.6
		c11.1,2.2,17.6,0.1,26.6,0h3.2c24.3-1.8,33.7-3.1,21-17.1c-6.3-6.8-14-13.3-23.5-19.2c-3.2-1.7-6.2-3.8-11-4.5
		C276,363.4,275.8,363.4,275.6,363.4L275.6,363.4z"/>
	
		<linearGradient id="path3246_11_" gradientUnits="userSpaceOnUse" x1="-361.1399" y1="984.6402" x2="-355.4135" y2="984.6402" gradientTransform="matrix(2.0016 0 0 2.0016 994.305 -1548.3137)">
		<stop  offset="0" style="stop-color:#9E7000"/>
		<stop  offset="1" style="stop-color:#FFC998"/>
	</linearGradient>
	<path id="path3246_6_" class="st14" d="M276.9,391.4c-2.4-0.5-4.8,1.3-4.2,3.9c1.5,18.7,2.2,37.6-1.3,56c0,2.9,11.5,3.4,11.8,0
		c4.5-17.7,2.9-26.2-4.8-53.6C277.7,396.2,279.6,390.7,276.9,391.4L276.9,391.4z"/>
	
		<linearGradient id="path3316_11_" gradientUnits="userSpaceOnUse" x1="-361.0291" y1="967.4272" x2="-358.3101" y2="988.1186" gradientTransform="matrix(2.0016 0 0 2.0016 994.305 -1548.3137)">
		<stop  offset="0" style="stop-color:#614618"/>
		<stop  offset="1" style="stop-color:#FFFBF8;stop-opacity:0"/>
	</linearGradient>
	<path id="path3316_6_" class="st15" d="M276.9,391.4c-2.4-0.5-4.8,1.3-4.2,3.9c1.5,18.7,2.2,37.6-1.3,56c0,2.9,11.5,3.4,11.8,0
		c4.5-17.7,2.9-26.2-4.8-53.6C277.7,396.2,279.6,390.7,276.9,391.4L276.9,391.4z"/>
	<path id="path3248_6_" class="st6" d="M315.7,397.7c-2.5,1.1-2.3,5.7-9.3,1.7c-6.2,0.9-11.9,2.4-17.8,3.7
		c-4.4,0.9-8.7-0.6-12.4-1.6c-3.2-1.1-8.8,0.5-12.6,1.1c-6.2,0.8-9.9,1.1-16.3,1.4c-6-0.1-10.2,0.3-12.6-2c-1.5-1.4-2.7-5.8-1.8-7.4
		c2-4.7,6.8-9.1,11.4-13.4c6.5-5.6,13.6-11.1,22.8-15.8c2.5-1.1,5.2-2.6,8.8-2.5c4.7,0.7,7.8,2.8,11,4.5
		c9.5,5.9,17.2,12.4,23.5,19.2c2.6,3.1,5.6,6.3,5.9,9.7C316.3,396.8,316.2,397.2,315.7,397.7z"/>
	
		<linearGradient id="path5241_4_" gradientUnits="userSpaceOnUse" x1="274.4982" y1="132.1803" x2="274.4982" y2="173.5624" gradientTransform="matrix(1 0 0 -1 0 536)">
		<stop  offset="0" style="stop-color:#00A4FF;stop-opacity:0.5"/>
		<stop  offset="0.1688" style="stop-color:#2FB4FE;stop-opacity:0.4156"/>
		<stop  offset="0.5821" style="stop-color:#9EDAFB;stop-opacity:0.209"/>
		<stop  offset="0.8676" style="stop-color:#E4F2F9;stop-opacity:6.619173e-02"/>
		<stop  offset="1" style="stop-color:#FFFBF8;stop-opacity:0"/>
		<stop  offset="1" style="stop-color:#F7F8F8;stop-opacity:5.855240e-02"/>
	</linearGradient>
	<path id="path5241_6_" class="st16" d="M273.6,362.7c-8.7,2.6-15.8,8.7-22.7,14.3c-6.5,6.2-14.3,12.2-17.2,20.8
		c-0.5,2.6,0.9,4.5,3.2,5.8c-1.1-3.3-1.2-6.8,1.2-9.5c3.5-5.2,8.1-9.6,12.8-13.9c-4.7,5.4-10.4,11-11.8,18.1
		c0.2,2.3-0.1,6.4,3.4,5.3c-1.6-3.5-1.1-7.4,1.3-10.5c4.3-6.8,10-12.8,15.9-18.3c-5.5,7.2-11.9,14.5-13.6,23.4
		c0.1,1.8-0.1,4.6,1.3,5.5c3.4,0.8,0.8-2.7,1.1-4.4c0.4-6.5,5.1-11.8,8.6-17.2c2.3-3.1,4.6-6.1,7.2-8.9c-4.7,7.9-9.8,16-11.1,25.1
		c0.2,1.6-0.3,4.9,1.1,5.2c3.3-0.3,0.5-4.1,1.5-6.3c2.1-8.9,7-17.2,12.1-24.8c-3.5,8.9-7.6,18-7.8,27.6c-0.9,2.7,2.6,3.9,2.6,1
		c-0.4-8.2,3.1-16,5.7-23.6c-1.8,8-4.1,16.1-3.7,24.4c3.4,1,2.3-2,2.4-4.1c0.5-7.2,2.3-14.4,4.1-21.4c-0.8,8.2-2,16.4-1.8,24.6
		c3.8,1.1,2-2.9,2.5-5c0.2-4.4,0.6-8.7,1.1-13c-0.1,5.9-0.2,11.9-0.1,17.8c4.4,1,1.7-4.8,2.5-7.4c0.1-5.7,0.1-12.7,0.3-17.6
		c0.7,8.5,2.3,17.2,1.6,25.7c2.5,1.7,2.8-0.5,2.7-2.5c-0.1-7.6-1.1-16.2-1.8-23c1.8,7.9,4.1,16,3.9,24.2c-1.3,2,0.5,3.8,2,2.1
		c1.6-6.8-1-13.8-2-20.5c-0.2-1.2-1.4-5.5-0.9-4.5c2.4,7.4,5.6,14.8,5.5,22.6c-0.6,1.5-1.9,4.9,1,3.1c2.3-2,1.6-6,1.1-8.9
		c-1.7-7.8-4.1-15.4-7.2-22.7c5.3,8.1,10.2,16.9,12.2,26.3c1,1.7-2.4,5.1,0.9,3.7c2.9-0.7,1.3-4.6,1-6.7
		c-2.4-7.9-6.2-15.4-10.6-22.4c6.4,7.5,12.8,15.8,15.7,25.1c-1.1,3.1,3.4,3,2.5,0.2c-1.9-8.4-7.5-15.5-12.6-22.4
		c-2.8-3.2,1.9,1.6,2.9,2.5c5.4,6.1,11.7,12.3,14.2,20.1c-0.8,2.1,3.1,3.8,2.6,1.1c-0.8-7.3-6.7-13-11.1-18.6
		c-2.9-3.2,2,1.6,2.8,2.5c4.6,5,10.1,10.1,11.7,16.9c2.5-1.5,1.7-3.9,0.5-5.9c-7.6-11.6-18.4-21.3-30.3-28.7
		C280.9,363.6,276.7,361.7,273.6,362.7L273.6,362.7z"/>
	<path id="path3244_8_" class="st3" d="M398.2,303.9c-3.2-0.8-5.9-0.3-8.5,0c-10.1,1.8-18.6,5.1-26.4,8.5
		c-5.7,2.7-11.5,5.5-14.8,9.5c-1.2,1.2-1.5,5.3-0.6,7.3c0.1,1.8,1.9,2.3,2.6,3.6c0.6,1.1,6.4,1.9,7.9,2.4c4.5,0.8,8.8,2,13.1,3.3
		c10,5.3,16.8,5.2,25.4,7.7l3,0.9c23.8,5.3,33.2,6.8,25-10.3c-4.1-8.3-9.5-16.8-16.9-25.2c-2.5-2.6-4.9-5.5-9.2-7.5
		C398.7,304.1,398.4,304,398.2,303.9L398.2,303.9z"/>
	
		<linearGradient id="path3246_12_" gradientUnits="userSpaceOnUse" x1="-255.0249" y1="947.0605" x2="-249.2986" y2="947.0605" gradientTransform="matrix(1.9163 0.578 -0.578 1.9163 1413.3015 -1308.082)">
		<stop  offset="0" style="stop-color:#9E7000"/>
		<stop  offset="1" style="stop-color:#FFC998"/>
	</linearGradient>
	<path id="path3246_8_" class="st17" d="M391.5,331.2c-2.2-1.2-5-0.1-5.1,2.5c-3.9,18.3-8.8,36.6-17.4,53.3
		c-0.9,2.8,10,6.5,11.3,3.4c9.5-15.6,10.4-24.3,10.9-52.7C390.8,336,394.2,331.2,391.5,331.2L391.5,331.2z"/>
	
		<linearGradient id="path3316_12_" gradientUnits="userSpaceOnUse" x1="-254.9141" y1="929.8475" x2="-252.1951" y2="950.5388" gradientTransform="matrix(1.9163 0.578 -0.578 1.9163 1413.3015 -1308.082)">
		<stop  offset="0" style="stop-color:#614618"/>
		<stop  offset="1" style="stop-color:#FFFBF8;stop-opacity:0"/>
	</linearGradient>
	<path id="path3316_8_" class="st18" d="M391.5,331.2c-2.2-1.2-5-0.1-5.1,2.5c-3.9,18.3-8.8,36.6-17.4,53.3
		c-0.9,2.8,10,6.5,11.3,3.4c9.5-15.6,10.4-24.3,10.9-52.7C390.8,336,394.2,331.2,391.5,331.2L391.5,331.2z"/>
	<path id="path3248_8_" class="st6" d="M426.7,348.3c-2.7,0.4-3.8,4.8-9.4-1c-6.2-1-12.1-1.1-18.1-1.6c-4.5-0.4-8.1-3.1-11.4-5.1
		c-2.7-2-8.6-2.1-12.3-2.6c-6.1-1.1-9.8-1.8-16-3.4c-5.7-1.8-9.8-2.6-11.5-5.6c-1.1-1.7-0.9-6.4,0.4-7.6c3.3-4,9.1-6.8,14.8-9.5
		c7.9-3.5,16.3-6.7,26.4-8.5c2.7-0.3,5.7-1,9.1,0.1c4.3,2,6.7,4.9,9.2,7.5c7.4,8.4,12.8,16.9,16.9,25.2c1.6,3.8,3.6,7.7,2.8,11
		C427.6,347.7,427.3,348.1,426.7,348.3z"/>
	
		<linearGradient id="path5241_7_" gradientUnits="userSpaceOnUse" x1="486.8978" y1="207.3999" x2="486.8978" y2="248.782" gradientTransform="matrix(0.9574 0.2888 0.2888 -0.9574 -140.511 400.3303)">
		<stop  offset="0" style="stop-color:#00A4FF;stop-opacity:0.5"/>
		<stop  offset="0.1688" style="stop-color:#2FB4FE;stop-opacity:0.4156"/>
		<stop  offset="0.5821" style="stop-color:#9EDAFB;stop-opacity:0.209"/>
		<stop  offset="0.8676" style="stop-color:#E4F2F9;stop-opacity:6.619173e-02"/>
		<stop  offset="1" style="stop-color:#FFFBF8;stop-opacity:0"/>
		<stop  offset="1" style="stop-color:#F7F8F8;stop-opacity:5.855240e-02"/>
	</linearGradient>
	<path id="path5241_8_" class="st19" d="M396.5,302.7c-9.1,0-17.7,3.7-25.8,7.1c-8,4-17.2,7.6-22.4,15c-1.2,2.3-0.5,4.6,1.4,6.5
		c-0.1-3.4,0.8-6.8,3.9-8.8c4.8-4,10.6-6.9,16.2-9.6c-6,3.9-13.1,7.5-16.5,13.9c-0.5,2.3-1.9,6.1,1.7,6.1c-0.5-3.9,1.1-7.4,4.3-9.7
		c6.1-5.3,13.3-9.3,20.5-12.9c-7.3,5.3-15.6,10.5-19.8,18.5c-0.4,1.8-1.5,4.4-0.3,5.6c3,1.8,1.5-2.3,2.4-3.9
		c2.3-6.1,8.3-9.8,13.2-14c3-2.3,6.2-4.5,9.5-6.4c-6.8,6.2-14,12.5-17.9,20.8c-0.2,1.6-1.7,4.6-0.5,5.3c3.3,0.6,1.7-3.8,3.3-5.6
		c4.6-7.9,11.7-14.4,18.8-20.3c-5.9,7.5-12.4,15-15.4,24.2c-1.6,2.3,1.4,4.5,2.1,1.7c2-8,7.6-14.4,12.3-20.9
		c-4.1,7.1-8.6,14.2-10.6,22.3c2.9,1.9,2.7-1.2,3.4-3.2c2.6-6.7,6.4-13.1,10.1-19.3c-3.2,7.6-6.7,15.1-8.9,23.1
		c3.3,2.2,2.8-2.1,3.8-4.1c1.4-4.1,3.1-8.2,4.8-12.2c-1.8,5.7-3.7,11.3-5.3,17.1c3.9,2.2,3-4.1,4.5-6.3c1.7-5.4,3.8-12.1,5.3-16.8
		c-1.8,8.4-2.8,17.1-5.9,25.1c1.9,2.3,2.8,0.3,3.3-1.6c2.1-7.3,3.6-15.8,4.9-22.6c-0.6,8.1-0.7,16.5-3.3,24.3
		c-1.8,1.6-0.7,3.8,1.3,2.6c3.5-6.1,3-13.5,4-20.2c0.2-1.2,0.3-5.7,0.4-4.6c0.1,7.7,1.1,15.8-1.3,23.2c-1,1.2-3.3,4.2,0.1,3.2
		c2.8-1.2,3.2-5.3,3.6-8.2c0.7-7.9,0.5-15.9-0.4-23.8c2.7,9.3,4.9,19.1,4.1,28.7c0.4,1.9-3.8,4.2-0.2,3.8c3,0.1,2.6-4.1,2.9-6.1
		c0-8.3-1.5-16.5-3.7-24.5c3.9,9.1,7.7,18.8,7.8,28.6c-1.9,2.7,2.4,3.8,2.3,0.9c0.6-8.6-2.7-17-5.6-25.1c-1.8-3.9,1.4,2.1,2,3.2
		c3.4,7.4,7.6,15.2,7.8,23.4c-1.3,1.8,1.9,4.6,2.2,1.8c1.3-7.2-2.7-14.4-5.2-21c-1.8-3.9,1.4,2.1,2,3.2c2.9,6.2,6.8,12.6,6.3,19.5
		c2.9-0.7,2.7-3.2,2.2-5.5c-3.9-13.3-11.5-25.7-20.8-36.2C403.2,305.7,399.8,302.7,396.5,302.7L396.5,302.7z"/>
	<path id="path3244_9_" class="st3" d="M324.4,335.3c-3.3,0.1-5.8,1.5-8.1,2.5c-9.2,4.7-16.3,10.2-22.8,15.8
		c-4.7,4.2-9.4,8.6-11.4,13.4c-0.8,1.5,0.2,5.5,1.5,7.1c0.6,1.7,2.4,1.6,3.5,2.7c0.9,0.9,6.7,0,8.2,0c4.5-0.5,9-0.6,13.5-0.6
		c11.1,2.2,17.6,0.1,26.6,0h3.2c24.3-1.8,33.7-3.1,21-17.1c-6.3-6.8-14-13.3-23.5-19.2c-3.2-1.7-6.2-3.8-11-4.5
		C324.9,335.3,324.6,335.3,324.4,335.3L324.4,335.3z"/>
	
		<linearGradient id="path3246_13_" gradientUnits="userSpaceOnUse" x1="-336.7243" y1="970.6246" x2="-330.9979" y2="970.6246" gradientTransform="matrix(2.0016 0 0 2.0016 994.305 -1548.3137)">
		<stop  offset="0" style="stop-color:#9E7000"/>
		<stop  offset="1" style="stop-color:#FFC998"/>
	</linearGradient>
	<path id="path3246_9_" class="st20" d="M325.8,363.4c-2.4-0.5-4.8,1.3-4.2,3.9c1.5,18.7,2.2,37.6-1.3,56c0,2.9,11.5,3.4,11.8,0
		c4.5-17.7,2.9-26.2-4.8-53.6C326.6,368.2,328.4,362.6,325.8,363.4L325.8,363.4z"/>
	
		<linearGradient id="path3316_13_" gradientUnits="userSpaceOnUse" x1="-336.6135" y1="953.4116" x2="-333.8945" y2="974.1029" gradientTransform="matrix(2.0016 0 0 2.0016 994.305 -1548.3137)">
		<stop  offset="0" style="stop-color:#614618"/>
		<stop  offset="1" style="stop-color:#FFFBF8;stop-opacity:0"/>
	</linearGradient>
	<path id="path3316_9_" class="st21" d="M325.8,363.4c-2.4-0.5-4.8,1.3-4.2,3.9c1.5,18.7,2.2,37.6-1.3,56c0,2.9,11.5,3.4,11.8,0
		c4.5-17.7,2.9-26.2-4.8-53.6C326.6,368.2,328.4,362.6,325.8,363.4L325.8,363.4z"/>
	<path id="path3248_9_" class="st6" d="M364.5,369.6c-2.5,1.1-2.3,5.7-9.3,1.7c-6.2,0.9-11.9,2.4-17.8,3.7
		c-4.4,0.9-8.7-0.6-12.4-1.6c-3.2-1.1-8.8,0.5-12.6,1.1c-6.2,0.8-9.9,1.1-16.3,1.4c-6-0.1-10.2,0.3-12.6-2c-1.5-1.4-2.7-5.8-1.8-7.4
		c2-4.7,6.8-9.1,11.4-13.4c6.5-5.6,13.6-11.1,22.8-15.8c2.5-1.1,5.2-2.6,8.8-2.5c4.7,0.7,7.8,2.8,11,4.5
		c9.5,5.9,17.2,12.4,23.5,19.2c2.6,3.1,5.6,6.3,5.9,9.7C365.2,368.7,365.1,369.2,364.5,369.6z"/>
	
		<linearGradient id="path5241_11_" gradientUnits="userSpaceOnUse" x1="323.3685" y1="160.2341" x2="323.3685" y2="201.6161" gradientTransform="matrix(1 0 0 -1 0 536)">
		<stop  offset="0" style="stop-color:#00A4FF;stop-opacity:0.5"/>
		<stop  offset="0.1688" style="stop-color:#2FB4FE;stop-opacity:0.4156"/>
		<stop  offset="0.5821" style="stop-color:#9EDAFB;stop-opacity:0.209"/>
		<stop  offset="0.8676" style="stop-color:#E4F2F9;stop-opacity:6.619173e-02"/>
		<stop  offset="1" style="stop-color:#FFFBF8;stop-opacity:0"/>
		<stop  offset="1" style="stop-color:#F7F8F8;stop-opacity:5.855240e-02"/>
	</linearGradient>
	<path id="path5241_9_" class="st22" d="M322.4,334.7c-8.7,2.6-15.8,8.7-22.7,14.3c-6.5,6.2-14.3,12.2-17.2,20.8
		c-0.5,2.6,0.9,4.5,3.2,5.8c-1.1-3.3-1.2-6.8,1.2-9.5c3.5-5.2,8.1-9.6,12.8-13.9c-4.7,5.4-10.4,11-11.8,18.1
		c0.2,2.3-0.1,6.4,3.4,5.3c-1.6-3.5-1.1-7.4,1.3-10.5c4.3-6.8,10-12.8,15.9-18.3c-5.5,7.2-11.9,14.5-13.6,23.4
		c0.1,1.8-0.1,4.6,1.3,5.5c3.4,0.8,0.8-2.7,1.1-4.4c0.4-6.5,5.1-11.8,8.6-17.2c2.3-3.1,4.6-6.1,7.2-8.9c-4.7,7.9-9.8,16-11.1,25.1
		c0.2,1.6-0.3,4.9,1.1,5.2c3.3-0.3,0.5-4.1,1.5-6.3c2.1-8.9,7-17.2,12.1-24.8c-3.5,8.9-7.6,18-7.8,27.6c-0.9,2.7,2.6,3.9,2.6,1
		c-0.4-8.2,3.1-16,5.7-23.6c-1.8,8-4.1,16.1-3.7,24.4c3.4,1,2.3-2,2.4-4.1c0.5-7.2,2.3-14.4,4.1-21.4c-0.8,8.2-2,16.4-1.8,24.6
		c3.8,1.1,2-2.9,2.5-5c0.2-4.4,0.6-8.7,1.1-13c-0.1,5.9-0.2,11.9-0.1,17.8c4.4,1,1.7-4.8,2.5-7.4c0.1-5.7,0.1-12.7,0.3-17.6
		c0.7,8.5,2.3,17.2,1.6,25.7c2.5,1.7,2.8-0.5,2.7-2.5c-0.1-7.6-1.1-16.2-1.8-23c1.8,7.9,4.1,16,3.9,24.2c-1.3,2,0.5,3.8,2,2.1
		c1.6-6.8-1-13.8-2-20.5c-0.2-1.2-1.4-5.5-0.9-4.5c2.4,7.4,5.6,14.8,5.5,22.6c-0.6,1.5-1.9,4.9,1,3.1c2.3-2,1.6-6,1.1-8.9
		c-1.7-7.8-4.1-15.4-7.2-22.7c5.3,8.1,10.2,16.9,12.2,26.3c1,1.7-2.4,5.1,0.9,3.7c2.9-0.7,1.3-4.6,1-6.7
		c-2.4-7.9-6.2-15.4-10.6-22.4c6.4,7.5,12.8,15.8,15.7,25.1c-1.1,3.1,3.4,3,2.5,0.2c-1.9-8.4-7.5-15.5-12.6-22.4
		c-2.8-3.2,1.9,1.6,2.9,2.5c5.4,6.1,11.7,12.3,14.2,20.1c-0.8,2.1,3.1,3.8,2.6,1.1c-0.8-7.3-6.7-13-11.1-18.6
		c-2.9-3.2,2,1.6,2.8,2.5c4.6,5,10.1,10.1,11.7,16.9c2.5-1.5,1.7-3.9,0.5-5.9c-7.6-11.6-18.4-21.3-30.3-28.7
		C329.7,335.6,325.5,333.7,322.4,334.7L322.4,334.7z"/>
	<path id="path3244_10_" class="st3" d="M217,314.1c-3,1.4-4.7,3.6-6.5,5.5c-6.7,7.9-11.1,15.8-14.9,23.4
		c-2.6,5.7-5.4,11.6-5.3,16.8c-0.2,1.7,2.3,5,4.2,6c1.2,1.3,2.9,0.5,4.3,1.1c1.2,0.5,6.1-2.6,7.6-3.2c4-2.2,8.1-4.1,12.2-5.8
		c11.1-2.3,16.3-6.7,24.5-10.3l2.9-1.2c21.7-11.1,29.9-15.9,12.7-23.9c-8.5-3.8-18.1-6.9-29.1-8.6c-3.6-0.4-7.2-1.1-11.9,0.1
		C217.4,314,217.2,314,217,314.1L217,314.1z"/>
	
		<linearGradient id="path3246_15_" gradientUnits="userSpaceOnUse" x1="-446.1931" y1="913.8604" x2="-440.4667" y2="913.8604" gradientTransform="matrix(1.8442 -0.7781 0.7781 1.8442 347.9867 -1662.2524)">
		<stop  offset="0" style="stop-color:#9E7000"/>
		<stop  offset="1" style="stop-color:#FFC998"/>
	</linearGradient>
	<path id="path3246_10_" class="st23" d="M229.2,339.4c-2.5,0.4-3.9,3.1-2.3,5.2c8.7,16.6,16.6,33.8,20.6,52.1
		c1.1,2.7,11.9-1.4,10.9-4.6c-2.7-18.1-7.5-25.3-25.2-47.6C231.7,343.6,231.3,337.7,229.2,339.4L229.2,339.4z"/>
	
		<linearGradient id="path3316_15_" gradientUnits="userSpaceOnUse" x1="-446.0822" y1="896.6474" x2="-443.3633" y2="917.3387" gradientTransform="matrix(1.8442 -0.7781 0.7781 1.8442 347.9867 -1662.2524)">
		<stop  offset="0" style="stop-color:#614618"/>
		<stop  offset="1" style="stop-color:#FFFBF8;stop-opacity:0"/>
	</linearGradient>
	<path id="path3316_10_" class="st24" d="M229.2,339.4c-2.5,0.4-3.9,3.1-2.3,5.2c8.7,16.6,16.6,33.8,20.6,52.1
		c1.1,2.7,11.9-1.4,10.9-4.6c-2.7-18.1-7.5-25.3-25.2-47.6C231.7,343.6,231.3,337.7,229.2,339.4L229.2,339.4z"/>
	<path id="path3248_10_" class="st6" d="M267.3,330.1c-1.8,2,0.1,6.1-7.9,5.2c-5.4,3.2-10.1,6.9-14.9,10.3c-3.7,2.6-8.2,2.8-12,3.4
		c-3.4,0.2-8,3.9-11.2,5.9c-5.4,3.1-8.7,4.8-14.5,7.6c-5.6,2.3-9.2,4.2-12.4,3c-1.9-0.7-4.8-4.3-4.5-6.1c0-5.1,2.7-11,5.3-16.8
		c3.8-7.7,8.2-15.5,14.9-23.4c1.8-2,3.8-4.4,7.1-5.7c4.6-1.2,8.3-0.5,11.9-0.1c11.1,1.7,20.6,4.8,29.1,8.6c3.7,1.9,7.6,3.6,9.2,6.7
		C267.5,329,267.6,329.5,267.3,330.1z"/>
	
		<linearGradient id="path5241_12_" gradientUnits="userSpaceOnUse" x1="104.2557" y1="273.8532" x2="104.2557" y2="315.2353" gradientTransform="matrix(0.9213 -0.3887 -0.3887 -0.9213 242.1457 644.6511)">
		<stop  offset="0" style="stop-color:#00A4FF;stop-opacity:0.5"/>
		<stop  offset="0.1688" style="stop-color:#2FB4FE;stop-opacity:0.4156"/>
		<stop  offset="0.5821" style="stop-color:#9EDAFB;stop-opacity:0.209"/>
		<stop  offset="0.8676" style="stop-color:#E4F2F9;stop-opacity:6.619173e-02"/>
		<stop  offset="1" style="stop-color:#FFFBF8;stop-opacity:0"/>
		<stop  offset="1" style="stop-color:#F7F8F8;stop-opacity:5.855240e-02"/>
	</linearGradient>
	<path id="path5241_10_" class="st25" d="M214.9,314.3c-7,5.8-11.2,14.1-15.3,22c-3.6,8.2-8.4,16.8-7.7,25.8
		c0.5,2.6,2.6,3.8,5.2,4.1c-2.2-2.6-3.7-5.8-2.6-9.3c1.2-6.2,3.8-12.1,6.4-17.7c-2.2,6.8-5.3,14.2-3.8,21.3c1,2.1,2.4,5.9,5.2,3.6
		c-2.8-2.6-3.9-6.4-2.9-10.2c1.3-7.9,4.3-15.7,7.6-23c-2.3,8.8-5.3,18-3.5,26.9c0.8,1.7,1.7,4.3,3.4,4.6c3.4-0.5-0.3-2.8-0.7-4.5
		c-2.1-6.1,0.1-12.9,1.2-19.2c0.9-3.7,1.9-7.4,3.2-11c-1.2,9.1-2.8,18.5-0.5,27.5c0.8,1.4,1.6,4.6,3,4.3c2.9-1.6-1.1-4-1-6.4
		c-1.5-9-0.2-18.5,1.5-27.6c0.2,9.5,0,19.5,3.6,28.5c0.2,2.8,4,2.6,2.7-0.1c-3.6-7.4-3.3-15.9-3.9-24c1.4,8.1,2.5,16.5,6.1,23.9
		c3.5-0.4,1.3-2.7,0.6-4.7c-2.3-6.9-3.5-14.1-4.6-21.3c2.4,7.9,4.5,15.9,7.9,23.4c4-0.4,0.8-3.4,0.3-5.6c-1.5-4.1-2.8-8.3-4.1-12.4
		c2.2,5.5,4.4,11.1,6.8,16.5c4.4-0.8-0.3-5.1-0.6-7.7c-2.1-5.3-4.9-11.7-6.6-16.3c4,7.6,8.8,14.9,11.5,23c3,0.6,2.4-1.5,1.5-3.4
		c-3-7-7.3-14.4-10.6-20.5c4.7,6.6,10,13.2,13,20.8c-0.4,2.4,1.9,3.4,2.7,1.2c-1.2-6.9-6.3-12.3-9.9-18.1c-0.6-1-3.4-4.6-2.6-3.8
		c5,5.9,11,11.5,13.8,18.7c0,1.6,0.1,5.3,2.1,2.4c1.4-2.7-0.9-6.1-2.4-8.6c-4.5-6.5-9.8-12.5-15.5-18.1c8,5.4,16,11.6,21.4,19.5
		c1.5,1.2-0.2,5.7,2.2,3.1c2.4-1.8-0.6-4.8-1.7-6.6c-5.3-6.4-11.7-11.7-18.4-16.5c8.8,4.5,18,9.5,24.3,17c0.2,3.3,4.3,1.4,2.4-0.8
		c-5-7-13-11.4-20.3-15.8c-3.9-1.9,2.4,0.7,3.6,1.2c7.3,3.5,15.5,6.8,20.9,13c0.1,2.2,4.4,2.3,2.9,0c-3.6-6.4-11.2-9.4-17.4-12.8
		c-3.9-1.8,2.4,0.7,3.5,1.2c6.2,2.9,13.2,5.3,17.3,11c1.7-2.4,0-4.2-1.8-5.6c-11.5-7.7-25.2-12.4-39.1-14.6
		C222,312.3,217.4,312.2,214.9,314.3L214.9,314.3z"/>
	<path id="path3244_14_" class="st3" d="M288.1,337.6c-2.2-2.4-4.9-3.4-7.2-4.5c-9.6-3.9-18.4-5.6-26.9-6.8
		c-6.3-0.7-12.7-1.4-17.6,0.2c-1.7,0.3-4.1,3.8-4.4,5.8c-0.9,1.6,0.4,2.9,0.3,4.4c-0.1,1.3,4.4,5,5.4,6.2c3.4,3.1,6.4,6.4,9.4,9.8
		c5.7,9.8,11.5,13.3,17.5,20l2.1,2.4c17.3,17.1,24.5,23.4,26.7,4.5c0.9-9.2,0.8-19.3-1-30.3c-0.8-3.5-1.2-7.2-3.8-11.2
		C288.4,338,288.2,337.8,288.1,337.6L288.1,337.6z"/>
	
		<linearGradient id="path3246_20_" gradientUnits="userSpaceOnUse" x1="-142.9204" y1="935.8743" x2="-137.194" y2="935.8743" gradientTransform="matrix(1.3178 1.5066 -1.5066 1.3178 1839.1702 -644.4934)">
		<stop  offset="0" style="stop-color:#9E7000"/>
		<stop  offset="1" style="stop-color:#FFC998"/>
	</linearGradient>
	<path id="path3246_14_" class="st26" d="M267.9,357.1c-1.2-2.2-4.2-2.7-5.7-0.6c-13,13.4-26.9,26.4-43,35.9
		c-2.2,1.9,5,10.9,7.8,8.9c16.3-8.2,21.7-15.1,37.2-38.9C264.8,360.9,270.2,358.6,267.9,357.1L267.9,357.1z"/>
	
		<linearGradient id="path3316_20_" gradientUnits="userSpaceOnUse" x1="-142.8096" y1="918.6614" x2="-140.0906" y2="939.3527" gradientTransform="matrix(1.3178 1.5066 -1.5066 1.3178 1839.1702 -644.4934)">
		<stop  offset="0" style="stop-color:#614618"/>
		<stop  offset="1" style="stop-color:#FFFBF8;stop-opacity:0"/>
	</linearGradient>
	<path id="path3316_14_" class="st27" d="M267.9,357.1c-1.2-2.2-4.2-2.7-5.7-0.6c-13,13.4-26.9,26.4-43,35.9
		c-2.2,1.9,5,10.9,7.8,8.9c16.3-8.2,21.7-15.1,37.2-38.9C264.8,360.9,270.2,358.6,267.9,357.1L267.9,357.1z"/>
	<path id="path3248_14_" class="st6" d="M288.7,390.4c-2.5-1.1-5.8,2-7.4-5.8c-4.8-4.1-9.7-7.4-14.5-10.9c-3.6-2.7-5.3-6.9-7-10.3
		c-1.3-3.1-6.2-6.3-9.1-8.8c-4.6-4.1-7.3-6.7-11.8-11.4c-3.9-4.6-6.9-7.4-6.8-10.8c0-2,2.6-5.9,4.4-6.2c4.9-1.6,11.3-0.9,17.6-0.2
		c8.5,1.2,17.3,2.9,26.9,6.8c2.4,1.1,5.3,2.2,7.7,5c2.6,4,3,7.7,3.8,11.2c1.9,11,1.9,21.1,1,30.3c-0.6,4-1,8.4-3.5,10.8
		C289.8,390.3,289.4,390.5,288.7,390.4z"/>
	
		<linearGradient id="path5241_13_" gradientUnits="userSpaceOnUse" x1="711.2864" y1="229.7901" x2="711.2864" y2="271.1722" gradientTransform="matrix(0.6584 0.7527 0.7527 -0.6584 -384.2957 -20.6299)">
		<stop  offset="0" style="stop-color:#00A4FF;stop-opacity:0.5"/>
		<stop  offset="0.1688" style="stop-color:#2FB4FE;stop-opacity:0.4156"/>
		<stop  offset="0.5821" style="stop-color:#9EDAFB;stop-opacity:0.209"/>
		<stop  offset="0.8676" style="stop-color:#E4F2F9;stop-opacity:6.619173e-02"/>
		<stop  offset="1" style="stop-color:#FFFBF8;stop-opacity:0"/>
		<stop  offset="1" style="stop-color:#F7F8F8;stop-opacity:5.855240e-02"/>
	</linearGradient>
	<path id="path5241_14_" class="st28" d="M287.3,335.7c-7.7-4.9-16.9-6.2-25.7-7.7c-8.9-0.9-18.6-2.7-26.9,0.8
		c-2.3,1.3-2.8,3.6-2.2,6.2c1.8-2.9,4.3-5.3,8-5.3c6.2-0.8,12.6-0.2,18.8,0.5c-7.2,0.1-15.1-0.6-21.4,3.1c-1.6,1.6-4.9,4.1-1.7,6.1
		c1.6-3.5,4.9-5.7,8.8-6c7.9-1.2,16.2-0.9,24.2,0c-9,0.6-18.8,0.6-26.6,5.1c-1.3,1.3-3.6,3-3.3,4.6c1.6,3.1,2.5-1.1,4.1-2.1
		c5.2-4,12.3-3.9,18.6-4.8c3.8-0.3,7.6-0.5,11.4-0.4c-9,1.7-18.5,3.2-26.2,8.1c-1,1.2-3.8,3-3.2,4.2c2.4,2.3,3.4-2.3,5.7-3
		c8.1-4.3,17.5-6,26.7-7.2c-9,3.2-18.5,6.1-25.9,12.4c-2.6,1.1-1.2,4.6,0.9,2.6c5.9-5.7,14.1-8.2,21.5-11.2
		c-7.2,3.9-14.9,7.5-20.8,13.3c1.4,3.2,3,0.4,4.6-0.9c5.8-4.3,12.3-7.7,18.8-11c-6.7,4.7-13.6,9.3-19.7,14.8
		c1.7,3.6,3.5-0.3,5.4-1.4c3.4-2.7,7-5.3,10.5-7.8c-4.5,3.8-9.1,7.7-13.5,11.7c2.1,3.9,4.8-1.9,7.2-3c4.4-3.7,9.6-8.3,13.4-11.4
		c-5.9,6.2-11.4,13-18.3,18.1c0.4,3,2.2,1.8,3.7,0.4c5.7-5.1,11.4-11.5,16.2-16.5c-4.8,6.6-9.4,13.7-15.7,18.9
		c-2.4,0.4-2.6,2.9-0.3,2.9c6.2-3.3,9.7-9.8,14.1-15c0.8-0.9,3.3-4.7,2.8-3.6c-4,6.6-7.5,14-13.4,19c-1.5,0.5-5,1.8-1.7,2.8
		c3,0.5,5.5-2.8,7.4-5c4.7-6.3,8.8-13.2,12.3-20.4c-2.6,9.3-6,18.8-11.7,26.5c-0.6,1.8-5.5,1.6-2.2,3.1c2.4,1.7,4.3-2.1,5.7-3.7
		c4.4-7,7.5-14.8,9.9-22.7c-1.5,9.8-3.4,20-8.6,28.4c-3,1.2,0,4.5,1.5,2c5.1-6.9,6.7-15.9,8.6-24.3c0.6-4.3,0.1,2.5,0,3.8
		c-1,8.1-1.6,16.9-5.8,23.9c-2.1,0.8-0.8,4.9,0.9,2.7c5-5.4,5.4-13.6,6.7-20.6c0.5-4.3,0.1,2.5,0,3.7c-0.8,6.8-0.9,14.2-5,19.9
		c2.8,0.9,4-1.3,4.7-3.5c3.7-13.3,3.9-27.9,1.6-41.7C291.4,341.8,290.1,337.4,287.3,335.7L287.3,335.7z"/>
	<path id="path3244_16_" class="st3" d="M316.4,301.1c-3.3,0.1-5.8,1.5-8.1,2.5c-9.2,4.7-16.3,10.2-22.8,15.8
		c-4.7,4.2-9.4,8.6-11.4,13.4c-0.8,1.5,0.2,5.5,1.5,7.1c0.6,1.7,2.4,1.6,3.5,2.7c0.9,0.9,6.7,0,8.2,0c4.5-0.5,9-0.6,13.5-0.6
		c11.1,2.2,17.6,0.1,26.6,0h3.2c24.3-1.8,33.7-3.1,21-17.1c-6.3-6.8-14-13.3-23.5-19.2c-3.2-1.7-6.2-3.8-11-4.5
		C316.9,301.1,316.6,301.1,316.4,301.1L316.4,301.1z"/>
	
		<linearGradient id="path3246_23_" gradientUnits="userSpaceOnUse" x1="-340.7361" y1="953.5353" x2="-335.0097" y2="953.5353" gradientTransform="matrix(2.0016 0 0 2.0016 994.305 -1548.3137)">
		<stop  offset="0" style="stop-color:#9E7000"/>
		<stop  offset="1" style="stop-color:#FFC998"/>
	</linearGradient>
	<path id="path3246_16_" class="st29" d="M317.8,329.2c-2.4-0.5-4.8,1.3-4.2,3.9c1.5,18.7,2.2,37.6-1.3,56c0,2.9,11.5,3.4,11.8,0
		c4.5-17.7,2.9-26.2-4.8-53.6C318.5,334,320.4,328.4,317.8,329.2L317.8,329.2z"/>
	
		<linearGradient id="path3316_23_" gradientUnits="userSpaceOnUse" x1="-340.6253" y1="936.3223" x2="-337.9063" y2="957.0137" gradientTransform="matrix(2.0016 0 0 2.0016 994.305 -1548.3137)">
		<stop  offset="0" style="stop-color:#614618"/>
		<stop  offset="1" style="stop-color:#FFFBF8;stop-opacity:0"/>
	</linearGradient>
	<path id="path3316_16_" class="st30" d="M317.8,329.2c-2.4-0.5-4.8,1.3-4.2,3.9c1.5,18.7,2.2,37.6-1.3,56c0,2.9,11.5,3.4,11.8,0
		c4.5-17.7,2.9-26.2-4.8-53.6C318.5,334,320.4,328.4,317.8,329.2L317.8,329.2z"/>
	<path id="path3248_16_" class="st6" d="M356.5,335.4c-2.5,1.1-2.3,5.7-9.3,1.7c-6.2,0.9-11.9,2.4-17.8,3.7
		c-4.4,0.9-8.7-0.6-12.4-1.6c-3.2-1.1-8.8,0.5-12.6,1.1c-6.2,0.8-9.9,1.1-16.3,1.4c-6-0.1-10.2,0.3-12.6-2c-1.5-1.4-2.7-5.8-1.8-7.4
		c2-4.7,6.8-9.1,11.4-13.4c6.5-5.6,13.6-11.1,22.8-15.8c2.5-1.1,5.2-2.6,8.8-2.5c4.7,0.7,7.8,2.8,11,4.5
		c9.5,5.9,17.2,12.4,23.5,19.2c2.6,3.1,5.6,6.3,5.9,9.7C357.1,334.5,357,335,356.5,335.4z"/>
	
		<linearGradient id="path5241_15_" gradientUnits="userSpaceOnUse" x1="315.3383" y1="194.4399" x2="315.3383" y2="235.822" gradientTransform="matrix(1 0 0 -1 0 536)">
		<stop  offset="0" style="stop-color:#00A4FF;stop-opacity:0.5"/>
		<stop  offset="0.1688" style="stop-color:#2FB4FE;stop-opacity:0.4156"/>
		<stop  offset="0.5821" style="stop-color:#9EDAFB;stop-opacity:0.209"/>
		<stop  offset="0.8676" style="stop-color:#E4F2F9;stop-opacity:6.619173e-02"/>
		<stop  offset="1" style="stop-color:#FFFBF8;stop-opacity:0"/>
		<stop  offset="1" style="stop-color:#F7F8F8;stop-opacity:5.855240e-02"/>
	</linearGradient>
	<path id="path5241_16_" class="st31" d="M314.4,300.5c-8.7,2.6-15.8,8.7-22.7,14.3c-6.5,6.2-14.3,12.2-17.2,20.8
		c-0.5,2.6,0.9,4.5,3.2,5.8c-1.1-3.3-1.2-6.8,1.2-9.5c3.5-5.2,8.1-9.6,12.8-13.9c-4.7,5.4-10.4,11-11.8,18.1
		c0.2,2.3-0.1,6.4,3.4,5.3c-1.6-3.5-1.1-7.4,1.3-10.5c4.3-6.8,10-12.8,15.9-18.3c-5.5,7.2-11.9,14.5-13.6,23.4
		c0.1,1.8-0.1,4.6,1.3,5.5c3.4,0.8,0.8-2.7,1.1-4.4c0.4-6.5,5.1-11.8,8.6-17.2c2.3-3.1,4.6-6.1,7.2-8.9c-4.7,7.9-9.8,16-11.1,25.1
		c0.2,1.6-0.3,4.9,1.1,5.2c3.3-0.3,0.5-4.1,1.5-6.3c2.1-8.9,7-17.2,12.1-24.8c-3.5,8.9-7.6,18-7.8,27.6c-0.9,2.7,2.6,3.9,2.6,1
		c-0.4-8.2,3.1-16,5.7-23.6c-1.8,8-4.1,16.1-3.7,24.4c3.4,1,2.3-2,2.4-4.1c0.5-7.2,2.3-14.4,4.1-21.4c-0.8,8.2-2,16.4-1.8,24.6
		c3.8,1.1,2-2.9,2.5-5c0.2-4.4,0.6-8.7,1.1-13c-0.1,5.9-0.2,11.9-0.1,17.8c4.4,1,1.7-4.8,2.5-7.4c0.1-5.7,0.1-12.7,0.3-17.6
		c0.7,8.5,2.3,17.2,1.6,25.7c2.5,1.7,2.8-0.5,2.7-2.5c-0.1-7.6-1.1-16.2-1.8-23c1.8,7.9,4.1,16,3.9,24.2c-1.3,2,0.5,3.8,2,2.1
		c1.6-6.8-1-13.8-2-20.5c-0.2-1.2-1.4-5.5-0.9-4.5c2.4,7.4,5.6,14.8,5.5,22.6c-0.6,1.5-1.9,4.9,1,3.1c2.3-2,1.6-6,1.1-8.9
		c-1.7-7.8-4.1-15.4-7.2-22.7c5.3,8.1,10.2,16.9,12.2,26.3c1,1.7-2.4,5.1,0.9,3.7c2.9-0.7,1.3-4.6,1-6.7
		c-2.4-7.9-6.2-15.4-10.6-22.4c6.4,7.5,12.8,15.8,15.7,25.1c-1.1,3.1,3.4,3,2.5,0.2c-1.9-8.4-7.5-15.5-12.6-22.4
		c-2.8-3.2,1.9,1.6,2.9,2.5c5.4,6.1,11.7,12.3,14.2,20.1c-0.8,2.1,3.1,3.8,2.6,1.1c-0.8-7.3-6.7-13-11.1-18.6
		c-2.9-3.2,2,1.6,2.8,2.5c4.6,5,10.1,10.1,11.7,16.9c2.5-1.5,1.7-3.9,0.5-5.9c-7.6-11.6-18.4-21.3-30.3-28.7
		C321.7,301.4,317.5,299.5,314.4,300.5L314.4,300.5z"/>
	<path id="path3244_17_" class="st3" d="M199.7,402.9c-2.3,2.3-3.3,5-4.3,7.3c-3.6,9.6-5.2,18.5-6.2,27.1
		c-0.6,6.3-1.2,12.7,0.6,17.6c0.4,1.7,3.8,4,5.9,4.2c1.6,0.8,2.9-0.4,4.4-0.4c1.3,0.1,4.9-4.5,6.1-5.5c3-3.4,6.3-6.5,9.6-9.6
		c9.6-5.9,13.1-11.8,19.6-17.9l2.4-2.1c16.7-17.7,22.9-25,3.9-26.8c-9.3-0.7-19.3-0.4-30.3,1.6c-3.5,0.9-7.2,1.4-11.1,4.1
		C200,402.6,199.8,402.7,199.7,402.9L199.7,402.9z"/>
	
		<linearGradient id="path3246_24_" gradientUnits="userSpaceOnUse" x1="-553.1041" y1="851.5491" x2="-547.3777" y2="851.5491" gradientTransform="matrix(1.4782 -1.3496 1.3496 1.4782 -95.1294 -1555.856)">
		<stop  offset="0" style="stop-color:#9E7000"/>
		<stop  offset="1" style="stop-color:#FFC998"/>
	</linearGradient>
	<path id="path3246_17_" class="st32" d="M219.6,422.7c-2.2,1.2-2.7,4.2-0.5,5.7c13.7,12.7,26.9,26.3,36.8,42.3
		c2,2.2,10.7-5.3,8.7-7.9c-8.6-16.1-15.5-21.4-39.7-36.4C223.4,425.7,221,420.4,219.6,422.7L219.6,422.7z"/>
	
		<linearGradient id="path3316_24_" gradientUnits="userSpaceOnUse" x1="-552.9932" y1="834.3361" x2="-550.2742" y2="855.0275" gradientTransform="matrix(1.4782 -1.3496 1.3496 1.4782 -95.1294 -1555.856)">
		<stop  offset="0" style="stop-color:#614618"/>
		<stop  offset="1" style="stop-color:#FFFBF8;stop-opacity:0"/>
	</linearGradient>
	<path id="path3316_17_" class="st33" d="M219.6,422.7c-2.2,1.2-2.7,4.2-0.5,5.7c13.7,12.7,26.9,26.3,36.8,42.3
		c2,2.2,10.7-5.3,8.7-7.9c-8.6-16.1-15.5-21.4-39.7-36.4C223.4,425.7,221,420.4,219.6,422.7L219.6,422.7z"/>
	<path id="path3248_17_" class="st6" d="M252.4,401.2c-1.1,2.5,2.2,5.7-5.7,7.5c-4,4.8-7.2,9.8-10.6,14.7c-2.6,3.7-6.8,5.4-10.2,7.2
		c-3.1,1.3-6.2,6.3-8.6,9.2c-4,4.7-6.6,7.4-11.1,12c-4.5,4-7.3,7.1-10.7,7c-2,0-5.9-2.5-6.3-4.3c-1.7-4.8-1.1-11.3-0.6-17.6
		c1-8.5,2.6-17.4,6.2-27.1c1.1-2.5,2.1-5.4,4.8-7.8c4-2.7,7.7-3.2,11.1-4.1c11-2.1,21.1-2.4,30.3-1.6c4.1,0.5,8.4,0.9,10.9,3.2
		C252.2,400.1,252.5,400.5,252.4,401.2z"/>
	
		<linearGradient id="path5241_20_" gradientUnits="userSpaceOnUse" x1="-109.7373" y1="398.5755" x2="-109.7373" y2="439.9576" gradientTransform="matrix(0.7385 -0.6742 -0.6742 -0.7385 575.9177 653.8277)">
		<stop  offset="0" style="stop-color:#00A4FF;stop-opacity:0.5"/>
		<stop  offset="0.1688" style="stop-color:#2FB4FE;stop-opacity:0.4156"/>
		<stop  offset="0.5821" style="stop-color:#9EDAFB;stop-opacity:0.209"/>
		<stop  offset="0.8676" style="stop-color:#E4F2F9;stop-opacity:6.619173e-02"/>
		<stop  offset="1" style="stop-color:#FFFBF8;stop-opacity:0"/>
		<stop  offset="1" style="stop-color:#F7F8F8;stop-opacity:5.855240e-02"/>
	</linearGradient>
	<path id="path5241_17_" class="st34" d="M197.7,403.7c-4.7,7.8-5.9,17.1-7.1,25.8c-0.7,8.9-2.3,18.6,1.3,26.9
		c1.3,2.2,3.7,2.8,6.3,2.1c-3-1.7-5.4-4.2-5.5-7.9c-1-6.2-0.5-12.6,0.1-18.8c0.2,7.2-0.2,15.1,3.5,21.3c1.7,1.6,4.2,4.8,6.1,1.6
		c-3.6-1.5-5.8-4.8-6.2-8.6c-1.4-7.9-1.2-16.2-0.6-24.2c0.8,9,1,18.7,5.7,26.5c1.3,1.3,3,3.5,4.7,3.2c3.1-1.6-1.2-2.5-2.2-4.1
		c-4.1-5.1-4.2-12.2-5.2-18.5c-0.4-3.8-0.7-7.6-0.7-11.4c1.9,9,3.5,18.4,8.7,26.1c1.2,1,3.1,3.8,4.3,3.1c2.2-2.5-2.4-3.4-3.1-5.7
		c-4.5-8-6.4-17.4-7.8-26.5c3.4,8.9,6.5,18.4,12.9,25.6c1.2,2.6,4.6,1.1,2.6-1c-5.8-5.8-8.5-13.9-11.7-21.3
		c4,7.1,7.8,14.7,13.8,20.5c3.2-1.5,0.3-3-1-4.6c-4.5-5.7-8-12.2-11.4-18.6c4.9,6.6,9.6,13.4,15.3,19.4c3.6-1.7-0.4-3.5-1.5-5.4
		c-2.8-3.3-5.4-6.9-8-10.4c3.9,4.5,7.8,8.9,11.9,13.3c3.9-2.2-2-4.7-3.1-7.1c-3.8-4.3-8.5-9.4-11.7-13.2
		c6.3,5.8,13.3,11.1,18.5,17.9c3-0.5,1.7-2.2,0.3-3.7c-5.2-5.6-11.7-11.2-16.9-15.8c6.7,4.7,13.9,9.1,19.2,15.3
		c0.4,2.4,2.9,2.5,2.9,0.2c-3.4-6.1-10.1-9.5-15.3-13.8c-0.9-0.7-4.7-3.2-3.7-2.7c6.7,3.8,14.2,7.2,19.3,13c0.6,1.5,1.9,4.9,2.8,1.6
		c0.4-3-2.9-5.5-5.2-7.3c-6.4-4.6-13.4-8.6-20.6-11.8c9.3,2.4,18.9,5.6,26.7,11.2c1.8,0.6,1.7,5.4,3.1,2.1c1.6-2.5-2.2-4.3-3.8-5.7
		c-7.1-4.2-14.9-7.1-22.9-9.4c9.8,1.3,20.1,3,28.6,8c1.3,3,4.5-0.1,2-1.5c-7-5-16-6.4-24.4-8.1c-4.3-0.5,2.5-0.1,3.8-0.1
		c8.1,0.9,16.9,1.2,24.1,5.3c0.8,2,4.9,0.7,2.7-0.9c-5.5-4.8-13.7-5.1-20.7-6.3c-4.3-0.4,2.5-0.1,3.7,0c6.8,0.6,14.2,0.6,20,4.6
		c0.8-2.8-1.4-4-3.6-4.7c-13.4-3.4-27.9-3.3-41.7-0.7C203.7,399.5,199.4,400.9,197.7,403.7L197.7,403.7z"/>
	<path id="path3244_18_" class="st3" d="M126.5,329.1c-2.3,2.3-3.3,5-4.3,7.3c-3.6,9.6-5.2,18.5-6.2,27.1
		c-0.6,6.3-1.2,12.7,0.6,17.6c0.4,1.7,3.8,4,5.9,4.2c1.6,0.8,2.9-0.4,4.4-0.4c1.3,0.1,4.9-4.5,6.1-5.5c3-3.4,6.3-6.5,9.6-9.6
		c9.6-5.9,13.1-11.8,19.6-17.9l2.4-2.1c16.7-17.7,22.9-25,3.9-26.8c-9.3-0.7-19.3-0.4-30.3,1.6c-3.5,0.9-7.2,1.4-11.1,4.1
		C126.8,328.8,126.7,328.9,126.5,329.1L126.5,329.1z"/>
	
		<linearGradient id="path3246_25_" gradientUnits="userSpaceOnUse" x1="-555.224" y1="799.6747" x2="-549.4976" y2="799.6747" gradientTransform="matrix(1.4782 -1.3496 1.3496 1.4782 -95.1294 -1555.856)">
		<stop  offset="0" style="stop-color:#9E7000"/>
		<stop  offset="1" style="stop-color:#FFC998"/>
	</linearGradient>
	<path id="path3246_18_" class="st35" d="M146.5,348.9c-2.2,1.2-2.7,4.2-0.5,5.7c13.7,12.7,26.9,26.3,36.8,42.3
		c2,2.2,10.7-5.3,8.7-7.9c-8.6-16.1-15.5-21.4-39.7-36.4C150.2,351.9,147.9,346.5,146.5,348.9L146.5,348.9z"/>
	
		<linearGradient id="path3316_25_" gradientUnits="userSpaceOnUse" x1="-555.1132" y1="782.4617" x2="-552.3942" y2="803.1531" gradientTransform="matrix(1.4782 -1.3496 1.3496 1.4782 -95.1294 -1555.856)">
		<stop  offset="0" style="stop-color:#614618"/>
		<stop  offset="1" style="stop-color:#FFFBF8;stop-opacity:0"/>
	</linearGradient>
	<path id="path3316_18_" class="st36" d="M146.5,348.9c-2.2,1.2-2.7,4.2-0.5,5.7c13.7,12.7,26.9,26.3,36.8,42.3
		c2,2.2,10.7-5.3,8.7-7.9c-8.6-16.1-15.5-21.4-39.7-36.4C150.2,351.9,147.9,346.5,146.5,348.9L146.5,348.9z"/>
	<path id="path3248_18_" class="st6" d="M179.2,327.3c-1.1,2.5,2.2,5.7-5.7,7.5c-4,4.8-7.2,9.8-10.6,14.7c-2.6,3.7-6.8,5.4-10.2,7.2
		c-3.1,1.3-6.2,6.3-8.6,9.2c-4,4.7-6.6,7.4-11.1,12c-4.5,4-7.3,7.1-10.7,7c-2,0-5.9-2.5-6.3-4.3c-1.7-4.8-1.1-11.3-0.6-17.6
		c1-8.5,2.6-17.4,6.2-27.1c1.1-2.5,2.1-5.4,4.8-7.8c4-2.7,7.7-3.2,11.1-4.1c11-2.1,21.1-2.4,30.3-1.6c4.1,0.5,8.4,0.9,10.9,3.2
		C179.1,326.2,179.3,326.7,179.2,327.3z"/>
	
		<linearGradient id="path5241_23_" gradientUnits="userSpaceOnUse" x1="-113.9806" y1="502.4072" x2="-113.9806" y2="543.7893" gradientTransform="matrix(0.7385 -0.6742 -0.6742 -0.7385 575.9177 653.8277)">
		<stop  offset="0" style="stop-color:#00A4FF;stop-opacity:0.5"/>
		<stop  offset="0.1688" style="stop-color:#2FB4FE;stop-opacity:0.4156"/>
		<stop  offset="0.5821" style="stop-color:#9EDAFB;stop-opacity:0.209"/>
		<stop  offset="0.8676" style="stop-color:#E4F2F9;stop-opacity:6.619173e-02"/>
		<stop  offset="1" style="stop-color:#FFFBF8;stop-opacity:0"/>
		<stop  offset="1" style="stop-color:#F7F8F8;stop-opacity:5.855240e-02"/>
	</linearGradient>
	<path id="path5241_18_" class="st37" d="M124.6,329.9c-4.7,7.8-5.9,17.1-7.1,25.8c-0.7,8.9-2.3,18.6,1.3,26.9
		c1.3,2.2,3.7,2.8,6.3,2.1c-3-1.7-5.4-4.2-5.5-7.9c-1-6.2-0.5-12.6,0.1-18.8c0.2,7.2-0.2,15.1,3.5,21.3c1.7,1.6,4.2,4.8,6.1,1.6
		c-3.6-1.5-5.8-4.8-6.2-8.6c-1.4-7.9-1.2-16.2-0.6-24.2c0.8,9,1,18.7,5.7,26.5c1.3,1.3,3,3.5,4.7,3.2c3.1-1.6-1.2-2.5-2.2-4.1
		c-4.1-5.1-4.2-12.2-5.2-18.5c-0.4-3.8-0.7-7.6-0.7-11.4c1.9,9,3.5,18.4,8.7,26.1c1.2,1,3.1,3.8,4.3,3.1c2.2-2.5-2.4-3.4-3.1-5.7
		c-4.5-8-6.4-17.4-7.8-26.5c3.4,8.9,6.5,18.4,12.9,25.6c1.2,2.6,4.6,1.1,2.6-1c-5.8-5.8-8.5-13.9-11.7-21.3
		c4,7.1,7.8,14.7,13.8,20.5c3.2-1.5,0.3-3-1-4.6c-4.5-5.7-8-12.2-11.4-18.6c4.9,6.6,9.6,13.4,15.3,19.4c3.6-1.7-0.4-3.5-1.5-5.4
		c-2.8-3.3-5.4-6.9-8-10.4c3.9,4.5,7.8,8.9,11.9,13.3c3.9-2.2-2-4.7-3.1-7.1c-3.8-4.3-8.5-9.4-11.7-13.2
		c6.3,5.8,13.3,11.1,18.5,17.9c3-0.5,1.7-2.2,0.3-3.7c-5.2-5.6-11.7-11.2-16.9-15.8c6.7,4.7,13.9,9.1,19.2,15.3
		c0.4,2.4,2.9,2.5,2.9,0.2c-3.4-6.1-10.1-9.5-15.3-13.8c-0.9-0.7-4.7-3.2-3.7-2.7c6.7,3.8,14.2,7.2,19.3,13c0.6,1.5,1.9,4.9,2.8,1.6
		c0.4-3-2.9-5.5-5.2-7.3c-6.4-4.6-13.4-8.6-20.6-11.8c9.3,2.4,18.9,5.6,26.7,11.2c1.8,0.6,1.7,5.4,3.1,2.1c1.6-2.5-2.2-4.3-3.8-5.7
		c-7.1-4.2-14.9-7.1-22.9-9.4c9.8,1.3,20.1,3,28.6,8c1.3,3,4.5-0.1,2-1.5c-7-5-16-6.4-24.4-8.1c-4.3-0.5,2.5-0.1,3.8-0.1
		c8.1,0.9,16.9,1.2,24.1,5.3c0.8,2,4.9,0.7,2.7-0.9c-5.5-4.8-13.7-5.1-20.7-6.3c-4.3-0.4,2.5-0.1,3.7,0c6.8,0.6,14.2,0.6,20,4.6
		c0.8-2.8-1.4-4-3.6-4.7c-13.4-3.4-27.9-3.3-41.7-0.7C130.6,325.7,126.2,327.1,124.6,329.9L124.6,329.9z"/>
	<path id="path3244_19_" class="st3" d="M285.3,391.9c-2.3,2.3-3.3,5-4.3,7.3c-3.6,9.6-5.2,18.5-6.2,27.1
		c-0.6,6.3-1.2,12.7,0.6,17.6c0.4,1.7,3.8,4,5.9,4.2c1.6,0.8,2.9-0.4,4.4-0.4c1.3,0.1,4.9-4.5,6.1-5.5c3-3.4,6.3-6.5,9.6-9.6
		c9.6-5.9,13.1-11.8,19.6-17.9l2.4-2.1c16.7-17.7,22.9-25,3.9-26.8c-9.3-0.7-19.3-0.4-30.3,1.6c-3.5,0.9-7.2,1.4-11.1,4.1
		C285.6,391.6,285.4,391.7,285.3,391.9L285.3,391.9z"/>
	
		<linearGradient id="path3246_26_" gradientUnits="userSpaceOnUse" x1="-517.8011" y1="876.3283" x2="-512.0747" y2="876.3283" gradientTransform="matrix(1.4782 -1.3496 1.3496 1.4782 -95.1294 -1555.856)">
		<stop  offset="0" style="stop-color:#9E7000"/>
		<stop  offset="1" style="stop-color:#FFC998"/>
	</linearGradient>
	<path id="path3246_19_" class="st38" d="M305.2,411.7c-2.2,1.2-2.7,4.2-0.5,5.7c13.7,12.7,26.9,26.3,36.8,42.3
		c2,2.2,10.7-5.3,8.7-7.9c-8.6-16.1-15.5-21.4-39.7-36.4C309,414.7,306.6,409.3,305.2,411.7L305.2,411.7z"/>
	
		<linearGradient id="path3316_26_" gradientUnits="userSpaceOnUse" x1="-517.6903" y1="859.1153" x2="-514.9713" y2="879.8066" gradientTransform="matrix(1.4782 -1.3496 1.3496 1.4782 -95.1294 -1555.856)">
		<stop  offset="0" style="stop-color:#614618"/>
		<stop  offset="1" style="stop-color:#FFFBF8;stop-opacity:0"/>
	</linearGradient>
	<path id="path3316_19_" class="st39" d="M305.2,411.7c-2.2,1.2-2.7,4.2-0.5,5.7c13.7,12.7,26.9,26.3,36.8,42.3
		c2,2.2,10.7-5.3,8.7-7.9c-8.6-16.1-15.5-21.4-39.7-36.4C309,414.7,306.6,409.3,305.2,411.7L305.2,411.7z"/>
	<path id="path3248_19_" class="st6" d="M338,390.1c-1.1,2.5,2.2,5.7-5.7,7.5c-4,4.8-7.2,9.8-10.6,14.7c-2.6,3.7-6.8,5.4-10.2,7.2
		c-3.1,1.3-6.2,6.3-8.6,9.2c-4,4.7-6.6,7.4-11.1,12c-4.5,4-7.3,7.1-10.7,7c-2,0-5.9-2.5-6.3-4.3c-1.7-4.8-1.1-11.3-0.6-17.6
		c1-8.5,2.6-17.4,6.2-27.1c1.1-2.5,2.1-5.4,4.8-7.8c4-2.7,7.7-3.2,11.1-4.1c11-2.1,21.1-2.4,30.3-1.6c4.1,0.5,8.4,0.9,10.9,3.2
		C337.9,389,338.1,389.5,338,390.1z"/>
	
		<linearGradient id="path5241_24_" gradientUnits="userSpaceOnUse" x1="-39.075" y1="348.9775" x2="-39.075" y2="390.3596" gradientTransform="matrix(0.7385 -0.6742 -0.6742 -0.7385 575.9177 653.8277)">
		<stop  offset="0" style="stop-color:#00A4FF;stop-opacity:0.5"/>
		<stop  offset="0.1688" style="stop-color:#2FB4FE;stop-opacity:0.4156"/>
		<stop  offset="0.5821" style="stop-color:#9EDAFB;stop-opacity:0.209"/>
		<stop  offset="0.8676" style="stop-color:#E4F2F9;stop-opacity:6.619173e-02"/>
		<stop  offset="1" style="stop-color:#FFFBF8;stop-opacity:0"/>
		<stop  offset="1" style="stop-color:#F7F8F8;stop-opacity:5.855240e-02"/>
	</linearGradient>
	<path id="path5241_19_" class="st40" d="M283.3,392.7c-4.7,7.8-5.9,17.1-7.1,25.8c-0.7,8.9-2.3,18.6,1.3,26.9
		c1.3,2.2,3.7,2.8,6.3,2.1c-3-1.7-5.4-4.2-5.5-7.9c-1-6.2-0.5-12.6,0.1-18.8c0.2,7.2-0.2,15.1,3.5,21.3c1.7,1.6,4.2,4.8,6.1,1.6
		c-3.6-1.5-5.8-4.8-6.2-8.6c-1.4-7.9-1.2-16.2-0.6-24.2c0.8,9,1,18.7,5.7,26.5c1.3,1.3,3,3.5,4.7,3.2c3.1-1.6-1.2-2.5-2.2-4.1
		c-4.1-5.1-4.2-12.2-5.2-18.5c-0.4-3.8-0.7-7.6-0.7-11.4c1.9,9,3.5,18.4,8.7,26.1c1.2,1,3.1,3.8,4.3,3.1c2.2-2.5-2.4-3.4-3.1-5.7
		c-4.5-8-6.4-17.4-7.8-26.5c3.4,8.9,6.5,18.4,12.9,25.6c1.2,2.6,4.6,1.1,2.6-1c-5.8-5.8-8.5-13.9-11.7-21.3
		c4,7.1,7.8,14.7,13.8,20.5c3.2-1.5,0.3-3-1-4.6c-4.5-5.7-8-12.2-11.4-18.6c4.9,6.6,9.6,13.4,15.3,19.4c3.6-1.7-0.4-3.5-1.5-5.4
		c-2.8-3.3-5.4-6.9-8-10.4c3.9,4.5,7.8,8.9,11.9,13.3c3.9-2.2-2-4.7-3.1-7.1c-3.8-4.3-8.5-9.4-11.7-13.2
		c6.3,5.8,13.3,11.1,18.5,17.9c3-0.5,1.7-2.2,0.3-3.7c-5.2-5.6-11.7-11.2-16.9-15.8c6.7,4.7,13.9,9.1,19.2,15.3
		c0.4,2.4,2.9,2.5,2.9,0.2c-3.4-6.1-10.1-9.5-15.3-13.8c-0.9-0.7-4.7-3.2-3.7-2.7c6.7,3.8,14.2,7.2,19.3,13c0.6,1.5,1.9,4.9,2.8,1.6
		c0.4-3-2.9-5.5-5.2-7.3c-6.4-4.6-13.4-8.6-20.6-11.8c9.3,2.4,18.9,5.6,26.7,11.2c1.8,0.6,1.7,5.4,3.1,2.1c1.6-2.5-2.2-4.3-3.8-5.7
		c-7.1-4.2-14.9-7.1-22.9-9.4c9.8,1.3,20.1,3,28.6,8c1.3,3,4.5-0.1,2-1.5c-7-5-16-6.4-24.4-8.1c-4.3-0.5,2.5-0.1,3.8-0.1
		c8.1,0.9,16.9,1.2,24.1,5.3c0.8,2,4.9,0.7,2.7-0.9c-5.5-4.8-13.7-5.1-20.7-6.3c-4.3-0.4,2.5-0.1,3.7,0c6.8,0.6,14.2,0.6,20,4.6
		c0.8-2.8-1.4-4-3.6-4.7c-13.4-3.4-27.9-3.3-41.7-0.7C289.3,388.5,285,389.9,283.3,392.7L283.3,392.7z"/>
	<path id="path3244_21_" class="st3" d="M218.8,301.3c-2.7-1.8-5.5-2.2-8-2.8c-10.2-1.7-19.2-1.5-27.8-0.8c-6.3,0.6-12.7,1.3-17.1,4
		c-1.6,0.7-3.2,4.5-3,6.6c-0.5,1.7,1,2.8,1.2,4.3c0.2,1.3,5.4,4,6.6,4.9c3.9,2.3,7.6,4.9,11.2,7.5c7.6,8.3,14.1,10.6,21.4,15.8
		l2.6,1.9c20.6,13,29,17.6,27-1.3c-1.1-9.2-3.3-19-7.5-29.4c-1.5-3.3-2.8-6.8-6.1-10.1C219.1,301.5,219,301.4,218.8,301.3
		L218.8,301.3z"/>
	
		<linearGradient id="path3246_27_" gradientUnits="userSpaceOnUse" x1="-323.2347" y1="942.1273" x2="-317.5083" y2="942.1273" gradientTransform="matrix(1.6106 1.1885 -1.1885 1.6106 1820.6353 -786.7599)">
		<stop  offset="0" style="stop-color:#9E7000"/>
		<stop  offset="1" style="stop-color:#FFC998"/>
	</linearGradient>
	<path id="path3246_21_" class="st41" d="M203.2,324.7c-1.6-1.9-4.7-1.8-5.7,0.7c-9.8,15.9-20.6,31.5-34.3,44.3
		c-1.7,2.4,7.2,9.5,9.5,7c14.2-11.5,17.9-19.4,28-46C201,329,205.8,325.6,203.2,324.7L203.2,324.7z"/>
	
		<linearGradient id="path3316_27_" gradientUnits="userSpaceOnUse" x1="-323.1239" y1="924.9144" x2="-320.4049" y2="945.6057" gradientTransform="matrix(1.6106 1.1885 -1.1885 1.6106 1820.6353 -786.7599)">
		<stop  offset="0" style="stop-color:#614618"/>
		<stop  offset="1" style="stop-color:#FFFBF8;stop-opacity:0"/>
	</linearGradient>
	<path id="path3316_21_" class="st42" d="M203.2,324.7c-1.6-1.9-4.7-1.8-5.7,0.7c-9.8,15.9-20.6,31.5-34.3,44.3
		c-1.7,2.4,7.2,9.5,9.5,7c14.2-11.5,17.9-19.4,28-46C201,329,205.8,325.6,203.2,324.7L203.2,324.7z"/>
	<path id="path3248_21_" class="st6" d="M230.7,352.7c-2.6-0.6-5.2,3.2-8.5-4.1c-5.5-3-11-5.1-16.5-7.6c-4.1-1.9-6.6-5.6-9-8.6
		c-1.9-2.8-7.4-4.9-10.7-6.6c-5.4-3.1-8.6-5-13.9-8.6c-4.8-3.6-8.3-5.8-8.9-9.1c-0.4-2,1.3-6.3,3-7c4.4-2.6,10.8-3.3,17.1-4
		c8.6-0.6,17.6-0.8,27.8,0.8c2.6,0.6,5.7,1,8.5,3.2c3.4,3.4,4.6,6.9,6.1,10.1c4.2,10.4,6.4,20.2,7.5,29.4c0.3,4.1,0.8,8.4-1.1,11.3
		C231.7,352.3,231.4,352.6,230.7,352.7z"/>
	
		<linearGradient id="path5241_25_" gradientUnits="userSpaceOnUse" x1="350.3691" y1="217.2741" x2="350.3691" y2="258.6562" gradientTransform="matrix(0.8046 0.5938 0.5938 -0.8046 -217.018 299.9669)">
		<stop  offset="0" style="stop-color:#00A4FF;stop-opacity:0.5"/>
		<stop  offset="0.1688" style="stop-color:#2FB4FE;stop-opacity:0.4156"/>
		<stop  offset="0.5821" style="stop-color:#9EDAFB;stop-opacity:0.209"/>
		<stop  offset="0.8676" style="stop-color:#E4F2F9;stop-opacity:6.619173e-02"/>
		<stop  offset="1" style="stop-color:#FFFBF8;stop-opacity:0"/>
		<stop  offset="1" style="stop-color:#F7F8F8;stop-opacity:5.855240e-02"/>
	</linearGradient>
	<path id="path5241_21_" class="st43" d="M217.6,299.5c-8.5-3.1-17.9-2.4-26.7-2c-8.9,1.1-18.7,1.3-26.1,6.5c-1.9,1.8-2,4.2-0.8,6.6
		c1.1-3.3,3.1-6.1,6.6-6.9c5.9-2.1,12.3-2.9,18.5-3.6c-7,1.6-14.9,2.7-20.2,7.6c-1.3,2-3.9,5.1-0.4,6.3c0.8-3.8,3.6-6.6,7.3-7.7
		c7.5-2.9,15.7-4.3,23.7-5.2c-8.7,2.5-18.2,4.7-24.9,10.7c-1,1.5-2.8,3.7-2.2,5.2c2.2,2.7,2.2-1.7,3.6-2.9c4.2-5,11.2-6.5,17.1-8.7
		c3.6-1.1,7.3-2.1,11.1-2.9c-8.5,3.6-17.4,7-23.9,13.6c-0.8,1.4-3.1,3.8-2.2,4.8c2.9,1.7,2.9-3,5-4.1c7-5.9,15.8-9.6,24.5-12.8
		c-8.1,5.1-16.8,10-22.6,17.6c-2.3,1.6-0.2,4.7,1.4,2.3c4.5-6.8,12-11,18.6-15.6c-6.2,5.3-12.9,10.5-17.5,17.5
		c2.1,2.8,3-0.3,4.3-1.9c4.7-5.5,10.4-10.2,16-14.8c-5.5,6.1-11.3,12-16.1,18.7c2.4,3.2,3.3-1.1,5-2.6c2.7-3.4,5.7-6.6,8.6-9.8
		c-3.6,4.7-7.3,9.4-10.7,14.3c2.9,3.4,4.3-2.9,6.4-4.5c3.5-4.5,7.6-10.2,10.7-14c-4.5,7.3-8.3,15.2-13.9,21.6c1,2.9,2.5,1.3,3.7-0.4
		c4.4-6.2,8.7-13.7,12.2-19.6c-3.3,7.4-6.2,15.4-11.3,21.8c-2.2,0.9-1.9,3.4,0.4,2.9c5.3-4.6,7.4-11.7,10.5-17.7
		c0.6-1,2.2-5.3,1.9-4.2c-2.5,7.3-4.3,15.3-9,21.5c-1.3,0.8-4.5,2.8-1,3.1c3-0.2,4.8-3.9,6.1-6.5c3.3-7.2,5.8-14.8,7.6-22.5
		c-0.6,9.6-1.8,19.7-5.8,28.4c-0.2,1.9-5,2.7-1.5,3.5c2.7,1.1,3.8-3,4.8-4.8c2.8-7.8,4.1-16,4.8-24.3c0.7,9.9,1,20.3-2.3,29.6
		c-2.7,1.9,1,4.4,1.9,1.6c3.5-7.9,3.2-17,3.2-25.5c-0.3-4.3,0.6,2.4,0.8,3.7c0.7,8.1,2.1,16.8-0.5,24.6c-1.8,1.2,0.2,4.9,1.4,2.5
		c3.7-6.4,2.3-14.4,2.1-21.5c-0.4-4.3,0.6,2.5,0.8,3.7c0.7,6.8,2.1,14.1-0.6,20.5c2.9,0.3,3.7-2.1,3.9-4.4
		c0.8-13.8-2.2-28.1-7.4-41.1C222.9,304.6,220.7,300.6,217.6,299.5L217.6,299.5z"/>
	<path id="path3244_22_" class="st3" d="M389.5,335.8c-2.7-1.8-5.5-2.2-8-2.8c-10.2-1.7-19.2-1.5-27.8-0.8c-6.3,0.6-12.7,1.3-17.1,4
		c-1.6,0.7-3.2,4.5-3,6.6c-0.5,1.7,1,2.8,1.2,4.3c0.2,1.3,5.4,4,6.6,4.9c3.9,2.3,7.6,4.9,11.2,7.5c7.6,8.3,14.1,10.6,21.4,15.8
		l2.6,1.9c20.6,13,29,17.6,27-1.3c-1.1-9.2-3.3-19-7.5-29.4c-1.5-3.3-2.8-6.8-6.1-10.1C389.9,336.1,389.7,335.9,389.5,335.8
		L389.5,335.8z"/>
	
		<linearGradient id="path3246_28_" gradientUnits="userSpaceOnUse" x1="-244.3478" y1="905.3611" x2="-238.6214" y2="905.3611" gradientTransform="matrix(1.6106 1.1885 -1.1885 1.6106 1820.6353 -786.7599)">
		<stop  offset="0" style="stop-color:#9E7000"/>
		<stop  offset="1" style="stop-color:#FFC998"/>
	</linearGradient>
	<path id="path3246_22_" class="st44" d="M374,359.2c-1.6-1.9-4.7-1.8-5.7,0.7c-9.8,15.9-20.6,31.5-34.3,44.3
		c-1.7,2.4,7.2,9.5,9.5,7c14.2-11.5,17.9-19.4,28-46C371.7,363.5,376.5,360.2,374,359.2L374,359.2z"/>
	
		<linearGradient id="path3316_28_" gradientUnits="userSpaceOnUse" x1="-244.237" y1="888.1481" x2="-241.518" y2="908.8395" gradientTransform="matrix(1.6106 1.1885 -1.1885 1.6106 1820.6353 -786.7599)">
		<stop  offset="0" style="stop-color:#614618"/>
		<stop  offset="1" style="stop-color:#FFFBF8;stop-opacity:0"/>
	</linearGradient>
	<path id="path3316_22_" class="st45" d="M374,359.2c-1.6-1.9-4.7-1.8-5.7,0.7c-9.8,15.9-20.6,31.5-34.3,44.3
		c-1.7,2.4,7.2,9.5,9.5,7c14.2-11.5,17.9-19.4,28-46C371.7,363.5,376.5,360.2,374,359.2L374,359.2z"/>
	<path id="path3248_22_" class="st6" d="M401.5,387.2c-2.6-0.6-5.2,3.2-8.5-4.1c-5.5-3-11-5.1-16.5-7.6c-4.1-1.9-6.6-5.6-9-8.6
		c-1.9-2.8-7.4-4.9-10.7-6.6c-5.4-3.1-8.6-5-13.9-8.6c-4.8-3.6-8.3-5.8-8.9-9.1c-0.4-2,1.3-6.3,3-7c4.4-2.6,10.8-3.3,17.1-4
		c8.6-0.6,17.6-0.8,27.8,0.8c2.6,0.6,5.7,1,8.5,3.2c3.4,3.4,4.6,6.9,6.1,10.1c4.2,10.4,6.4,20.2,7.5,29.4c0.3,4.1,0.8,8.4-1.1,11.3
		C402.5,386.9,402.1,387.2,401.5,387.2z"/>
	
		<linearGradient id="path5241_26_" gradientUnits="userSpaceOnUse" x1="508.2692" y1="290.8654" x2="508.2692" y2="332.2475" gradientTransform="matrix(0.8046 0.5938 0.5938 -0.8046 -217.018 299.9669)">
		<stop  offset="0" style="stop-color:#00A4FF;stop-opacity:0.5"/>
		<stop  offset="0.1688" style="stop-color:#2FB4FE;stop-opacity:0.4156"/>
		<stop  offset="0.5821" style="stop-color:#9EDAFB;stop-opacity:0.209"/>
		<stop  offset="0.8676" style="stop-color:#E4F2F9;stop-opacity:6.619173e-02"/>
		<stop  offset="1" style="stop-color:#FFFBF8;stop-opacity:0"/>
		<stop  offset="1" style="stop-color:#F7F8F8;stop-opacity:5.855240e-02"/>
	</linearGradient>
	<path id="path5241_22_" class="st46" d="M388.3,334.1c-8.5-3.1-17.9-2.4-26.7-2c-8.9,1.1-18.7,1.3-26.1,6.5c-1.9,1.8-2,4.2-0.8,6.6
		c1.1-3.3,3.1-6.1,6.6-6.9c5.9-2.1,12.3-2.9,18.5-3.6c-7,1.6-14.9,2.7-20.2,7.6c-1.3,2-3.9,5.1-0.4,6.3c0.8-3.8,3.6-6.6,7.3-7.7
		c7.5-2.9,15.7-4.3,23.7-5.2c-8.7,2.5-18.2,4.7-24.9,10.7c-1,1.5-2.8,3.7-2.2,5.2c2.2,2.7,2.2-1.7,3.6-2.9c4.2-5,11.2-6.5,17.1-8.7
		c3.6-1.1,7.3-2.1,11.1-2.9c-8.5,3.6-17.4,7-23.9,13.6c-0.8,1.4-3.1,3.8-2.2,4.8c2.9,1.7,2.9-3,5-4.1c7-5.9,15.8-9.6,24.5-12.8
		c-8.1,5.1-16.8,10-22.6,17.6c-2.3,1.6-0.2,4.7,1.4,2.3c4.5-6.8,12-11,18.6-15.6c-6.2,5.3-12.9,10.5-17.5,17.5
		c2.1,2.8,3-0.3,4.3-1.9c4.7-5.5,10.4-10.2,16-14.8c-5.5,6.1-11.3,12-16.1,18.7c2.4,3.2,3.3-1.1,5-2.6c2.7-3.4,5.7-6.6,8.6-9.8
		c-3.6,4.7-7.3,9.4-10.7,14.3c2.9,3.4,4.3-2.9,6.4-4.5c3.5-4.5,7.6-10.2,10.7-14c-4.5,7.3-8.3,15.2-13.9,21.6c1,2.9,2.5,1.3,3.7-0.4
		c4.4-6.2,8.7-13.7,12.2-19.6c-3.3,7.4-6.2,15.4-11.3,21.8c-2.2,0.9-1.9,3.4,0.4,2.9c5.3-4.6,7.4-11.7,10.5-17.7
		c0.6-1,2.2-5.3,1.9-4.2c-2.5,7.3-4.3,15.3-9,21.5c-1.3,0.8-4.5,2.8-1,3.1c3-0.2,4.8-3.9,6.1-6.5c3.3-7.2,5.8-14.8,7.6-22.5
		c-0.6,9.6-1.8,19.7-5.8,28.4c-0.2,1.9-5,2.7-1.5,3.5c2.7,1.1,3.8-3,4.8-4.8c2.8-7.8,4.1-16,4.8-24.3c0.7,9.9,1,20.3-2.3,29.6
		c-2.7,1.9,1,4.4,1.9,1.6c3.5-7.9,3.2-17,3.2-25.5c-0.3-4.3,0.6,2.4,0.8,3.7c0.7,8.1,2.1,16.8-0.5,24.6c-1.8,1.2,0.2,4.9,1.4,2.5
		c3.7-6.4,2.3-14.4,2.1-21.5c-0.4-4.3,0.6,2.5,0.8,3.7c0.7,6.8,2.1,14.1-0.6,20.5c2.9,0.3,3.7-2.1,3.9-4.4
		c0.8-13.8-2.2-28.1-7.4-41.1C393.6,339.1,391.4,335.1,388.3,334.1L388.3,334.1z"/>
</g>
<path id="path6243" class="st47" d="M97.8,313.6c0,0-26.1-67.8-24-103c7.9-127.2,101.5-169,196-169c94.6,0,194.6,73,196,169
	c0.5,35.4-26,103-26,103"/>
<path id="path6245" class="st48" d="M97.8,313.6c0,0-26.1-67.8-24-103c7.9-127.2,101.5-169,196-169c94.6,0,194.6,73,196,169
	c0.5,35.4-26,103-26,103"/>
<path id="path2988" class="st49" d="M271.1,255l-0.6,191.5"/>
<path id="path3760" class="st49" d="M71.7,247.5l57.2,195.8"/>
<path id="path3762" class="st49" d="M173.4,246.8l27.2,200.9"/>
<path id="path3766" class="st49" d="M468.3,244.2l-56.1,198.5"/>
<path id="path3768" class="st49" d="M368,247.7l-26.9,200.9"/>
<g id="g4476" transform="matrix(.95212 0 0 -.68063 42.534 689.08)">
	<path id="path4478" class="st50" d="M133.5,640.4c0,0,37,10,56,10s56-10,56-10"/>
	<path id="path4480" class="st50" d="M233.5,640.4c0,0,37,10,56,10s56-10,56-10"/>
	<path id="path4482" class="st50" d="M333.5,640.4c0,0,37.1,12.5,56,15.9c20.6,3.7,62.3,4.7,62.3,4.7"/>
	<path id="path4484" class="st50" d="M31.4,655.1c0,0,38.8,0.8,58.1-1.8c18.8-2.4,56-12.9,56-12.9"/>
</g>
<g id="g4529" transform="translate(27.706 292.41)">
	<path id="path3125" class="st51" d="M168.4,169.4c0,0,25.8,10,39.3,10s39.3-10,39.3-10"/>
	<path id="path3127" class="st51" d="M238.6,169.4c0,0,25.8,10,39.3,10s39.3-10,39.3-10"/>
	<path id="path3129" class="st51" d="M308.9,163.4c0,0,26,8.6,39.3,8c13.7-0.7,39.3-12,39.3-12"/>
	<path id="path3131" class="st51" d="M98.2,159.4c0,0,25.6,11.3,39.3,12c13.4,0.6,39.3-8,39.3-8"/>
</g>
<g id="g4540" transform="translate(27.706 290.41)">
	<path id="path4021" class="st52" d="M202.1,157.2c0,0,27,7.5,40.8,7.5s40.8-7.5,40.8-7.5"/>
	<path id="path4023" class="st52" d="M276.8,155.2c0,0,27,7.5,40.8,7.5s40.8-7.5,40.8-7.5"/>
	<path id="path4025" class="st52" d="M139.4,155.2c0,0,27,7.5,40.8,7.5s40.8-7.5,40.8-7.5"/>
	<path id="path4027" class="st52" d="M91.9,153.2c0,0,17.8,7.5,27.2,7.5c9.4,0,27.2-7.5,27.2-7.5"/>
	<path id="path4029" class="st52" d="M392.8,153.2c0,0-17.8,7.5-27.2,7.5c-9.4,0-27.2-7.5-27.2-7.5"/>
</g>
<g id="g3113" transform="matrix(.74579 0 0 1 106.44 446.41)">
	<path id="path3115" class="st53" d="M114.1-14.6c0,0,37,10,56,10s56-10,56-10"/>
	<path id="path3117" class="st53" d="M214.1-14.6c0,0,37,10,56,10s56-10,56-10"/>
	<path id="path3119" class="st53" d="M314.1-14.6c0,0,37,10,56,10s56-10,56-10"/>
	<path id="path3121" class="st53" d="M14.1-14.6c0,0,37,10,56,10s56-10,56-10"/>
</g>
<g id="g4007" transform="matrix(.76659 0 0 1 99.879 446.41)">
	<path id="path4009" class="st54" d="M168.1-26.6c0,0,36.2,10,54.7,10s54.7-10,54.7-10"/>
	<path id="path4011" class="st54" d="M268.1-26.6c0,0,36.2,10,54.7,10s54.7-10,54.7-10"/>
	<path id="path4013" class="st54" d="M84.1-26.6c0,0,36.2,10,54.7,10s54.7-10,54.7-10"/>
	<path id="path4015" class="st54" d="M20.6-26.6c0,0,23.8,10,36.4,10s36.4-10,36.4-10"/>
	<path id="path4017" class="st54" d="M423.4-26.6c0,0-23.8,10-36.4,10s-36.4-10-36.4-10"/>
</g>
<g id="g3103" transform="matrix(.76690 0 0 1 99.9 424.41)">
	<path id="path3105" class="st55" d="M116.5-14.6c0,0,37,10,56,10s56-10,56-10"/>
	<path id="path3107" class="st55" d="M216.5-14.6c0,0,37,10,56,10s56-10,56-10"/>
	<path id="path3109" class="st55" d="M316.5-14.6c0,0,37,10,56,10s56-10,56-10"/>
	<path id="path3111" class="st55" d="M16.5-14.6c0,0,37,10,56,10s56-10,56-10"/>
</g>
<g id="g3995" transform="matrix(.81238 0 0 1 85.721 422.41)">
	<path id="path3997" class="st56" d="M173-26.6c0,0,36.2,10,54.7,10s54.7-10,54.7-10"/>
	<path id="path3999" class="st56" d="M273-26.6c0,0,36.2,10,54.7,10s54.7-10,54.7-10"/>
	<path id="path4001" class="st56" d="M89-26.6c0,0,36.2,10,54.7,10s54.7-10,54.7-10"/>
	<path id="path4003" class="st56" d="M25.5-26.6c0,0,23.8,10,36.4,10s36.4-10,36.4-10"/>
	<path id="path4005" class="st56" d="M428.4-26.6c0,0-23.8,10-36.4,10s-36.4-10-36.4-10"/>
</g>
<g id="g3058" transform="matrix(.80508 0 0 1 88.076 398.41)">
	<path id="path3060" class="st57" d="M120.7-14.6c0,0,37,10,56,10s56-10,56-10"/>
	<path id="path3062" class="st57" d="M220.7-14.6c0,0,37,10,56,10s56-10,56-10"/>
	<path id="path3064" class="st57" d="M320.7-14.6c0,0,37,10,56,10s56-10,56-10"/>
	<path id="path3066" class="st57" d="M20.7-14.6c0,0,37,10,56,10s56-10,56-10"/>
</g>
<g id="g3983" transform="matrix(.84293 0 0 1 76.274 396.41)">
	<path id="path3985" class="st58" d="M176-26.6c0,0,36.2,10,54.7,10s54.7-10,54.7-10"/>
	<path id="path3987" class="st58" d="M276-26.6c0,0,36.2,10,54.7,10s54.7-10,54.7-10"/>
	<path id="path3989" class="st58" d="M92-26.6c0,0,36.2,10,54.7,10s54.7-10,54.7-10"/>
	<path id="path3991" class="st58" d="M28.5-26.6c0,0,23.8,10,36.4,10s36.4-10,36.4-10"/>
	<path id="path3993" class="st58" d="M431.3-26.6c0,0-23.8,10-36.4,10s-36.4-10-36.4-10"/>
</g>
<g id="g3048" transform="matrix(.84084 0 0 1 77 372.41)">
	<path id="path3050" class="st59" d="M124.2-14.6c0,0,37,10,56,10s56-10,56-10"/>
	<path id="path3052" class="st59" d="M224.2-14.6c0,0,37,10,56,10s56-10,56-10"/>
	<path id="path3054" class="st59" d="M324.2-14.6c0,0,37,10,56,10s56-10,56-10"/>
	<path id="path3056" class="st59" d="M24.2-14.6c0,0,37,10,56,10s56-10,56-10"/>
</g>
<g id="g3196" transform="matrix(.87352 0 0 1 66.816 370.41)">
	<path id="path3198" class="st60" d="M178.8-26.6c0,0,36.2,10,54.7,10s54.7-10,54.7-10"/>
	<path id="path3200" class="st60" d="M278.8-26.6c0,0,36.2,10,54.7,10c18.5,0,54.7-10,54.7-10"/>
	<path id="path3202" class="st60" d="M94.8-26.6c0,0,36.2,10,54.7,10s54.7-10,54.7-10"/>
	<path id="path3204" class="st60" d="M31.2-26.6c0,0,23.8,10,36.4,10s36.4-10,36.4-10"/>
	<path id="path3206" class="st60" d="M434.1-26.6c0,0-23.8,10-36.4,10s-36.4-10-36.4-10"/>
</g>
<g id="g3038" transform="matrix(.88056 0 0 1 64.699 346.41)">
	<path id="path3040" class="st61" d="M127.8-14.6c0,0,37,10,56,10s56-10,56-10"/>
	<path id="path3042" class="st61" d="M227.8-14.6c0,0,37,10,56,10s56-10,56-10"/>
	<path id="path3044" class="st61" d="M327.8-14.6c0,0,37,10,56,10s56-10,56-10"/>
	<path id="path3046" class="st61" d="M27.8-14.6c0,0,37,10,56,10s56-10,56-10"/>
</g>
<g id="g3184" transform="matrix(.90797 0 0 1 56.164 342.41)">
	<path id="path3186" class="st62" d="M181.7-26.6c0,0,36.2,10,54.7,10s54.7-10,54.7-10"/>
	<path id="path3188" class="st62" d="M281.7-26.6c0,0,36.2,10,54.7,10s54.7-10,54.7-10"/>
	<path id="path3190" class="st62" d="M97.7-26.6c0,0,36.2,10,54.7,10s54.7-10,54.7-10"/>
	<path id="path3192" class="st62" d="M34.1-26.6c0,0,23.8,10,36.4,10s36.4-10,36.4-10"/>
	<path id="path3194" class="st62" d="M437-26.6c0,0-23.8,10-36.4,10s-36.4-10-36.4-10"/>
</g>
<g id="g3028" transform="matrix(.91240 0 0 1 54.837 318.41)">
	<path id="path3030" class="st63" d="M130.4-14.6c0,0,37,10,56,10s56-10,56-10"/>
	<path id="path3032" class="st63" d="M230.4-14.6c0,0,37,10,56,10s56-10,56-10"/>
	<path id="path3034" class="st63" d="M330.4-14.6c0,0,37,10,56,10s56-10,56-10"/>
	<path id="path3036" class="st63" d="M30.4-14.6c0,0,37,10,56,10s56-10,56-10"/>
</g>
<g id="g3172" transform="matrix(.95779 0 0 1 40.757 314.41)">
	<path id="path3174" class="st64" d="M185.5-26.6c0,0,36.2,10,54.7,10s54.7-10,54.7-10"/>
	<path id="path3176" class="st64" d="M285.5-26.6c0,0,36.2,10,54.7,10s54.7-10,54.7-10"/>
	<path id="path3178" class="st64" d="M101.5-26.6c0,0,36.2,10,54.7,10s54.7-10,54.7-10"/>
	<path id="path3180" class="st64" d="M35.9-28.6c0,0,25,11.8,38.5,12c12.6,0.2,36.4-10,36.4-10"/>
	<path id="path3182" class="st64" d="M442.9-28.6c0,0-25,11.8-38.5,12c-12.6,0.2-36.4-10-36.4-10"/>
</g>
<g id="g3022" transform="matrix(.95222 0 0 1 42.504 290.41)">
	<path id="path3774" class="st65" d="M133.5-14.6c0,0,37,10,56,10s56-10,56-10"/>
	<path id="path3016" class="st65" d="M233.5-14.6c0,0,37,10,56,10s56-10,56-10"/>
	<path id="path3018" class="st65" d="M333.5-14.6c0,0,40.1,7.1,60.2,6c19.1-1.1,56-12,56-12"/>
	<path id="path3020" class="st65" d="M29.3-20.6c0,0,36.7,12.9,56,14c20.2,1.1,60.2-8,60.2-8"/>
</g>
<g id="g3165" transform="translate(27.706 286.41)">
	<path id="path3145" class="st52" d="M188.5-26.6c0,0,36.2,10,54.7,10s54.7-10,54.7-10"/>
	<path id="path3157" class="st52" d="M288.5-26.6c0,0,36.2,10,54.7,10s54.7-10,54.7-10"/>
	<path id="path3159" class="st52" d="M104.5-26.6c0,0,36.2,10,54.7,10s54.7-10,54.7-10"/>
	<path id="path3161" class="st52" d="M38.9-30.6c0,0,25.2,9.4,38.4,10c12.3,0.6,36.4-6,36.4-6"/>
	<path id="path3163" class="st52" d="M445.8-32.6c0,0-23.8,9.9-36.4,10c-13.2,0.1-38.4-10-38.4-10"/>
</g>
<g id="g4519" transform="translate(27.706 286.41)">
	<path id="path3070" class="st51" d="M145.4-42.6c0,0,31.4,16.6,48.7,18c17.2,1.4,50.7-10,50.7-10"/>
	<path id="path3072" class="st51" d="M241-34.6c0,0,33.5,10.9,50.7,10c18.3-0.9,52.7-16,52.7-16"/>
	<path id="path3074" class="st51" d="M338.6-42.6c0,0,36.3,9,54.7,8c18.8-1,54.7-14,54.7-14"/>
	<path id="path3076" class="st51" d="M39.8-46.6c0,0,35.9,13.3,54.7,14c18.5,0.6,54.7-10,54.7-10"/>
</g>
</svg>
