<?xml version="1.0" encoding="utf-8"?>
<!-- Generator: Adobe Illustrator 25.0.0, SVG Export Plug-In . SVG Version: 6.00 Build 0)  -->
<svg version="1.1"
	 id="svg2" xmlns:cc="http://creativecommons.org/ns#" xmlns:dc="http://purl.org/dc/elements/1.1/" xmlns:inkscape="http://www.inkscape.org/namespaces/inkscape" xmlns:ns1="http://sozi.baierouge.fr" xmlns:rdf="http://www.w3.org/1999/02/22-rdf-syntax-ns#" xmlns:sodipodi="http://sodipodi.sourceforge.net/DTD/sodipodi-0.dtd"
	 xmlns="http://www.w3.org/2000/svg" xmlns:xlink="http://www.w3.org/1999/xlink" x="0px" y="0px" viewBox="0 0 369.5 849.8"
	 style="enable-background:new 0 0 369.5 849.8;" xml:space="preserve">
<style type="text/css">
	.st0{fill-rule:evenodd;clip-rule:evenodd;fill:url(#path11_1_);}
	.st1{fill-rule:evenodd;clip-rule:evenodd;fill:#98A666;}
	.st2{fill-rule:evenodd;clip-rule:evenodd;fill:#CFE2AB;}
	.st3{fill-rule:evenodd;clip-rule:evenodd;fill:#BDCC7D;}
	.st4{fill-rule:evenodd;clip-rule:evenodd;fill:url(#path100_1_);}
	.st5{fill-rule:evenodd;clip-rule:evenodd;fill:url(#path107_1_);}
	.st6{fill-rule:evenodd;clip-rule:evenodd;fill:url(#path114_1_);}
	.st7{fill-rule:evenodd;clip-rule:evenodd;fill:url(#path121_1_);}
	.st8{fill-rule:evenodd;clip-rule:evenodd;fill:url(#path128_1_);}
	.st9{fill-rule:evenodd;clip-rule:evenodd;fill:url(#path135_1_);}
	.st10{fill-rule:evenodd;clip-rule:evenodd;fill:url(#path142_1_);}
	.st11{fill-rule:evenodd;clip-rule:evenodd;fill:url(#path149_1_);}
	.st12{fill-rule:evenodd;clip-rule:evenodd;fill:url(#path156_1_);}
	.st13{fill-rule:evenodd;clip-rule:evenodd;fill:url(#path163_1_);}
	.st14{fill-rule:evenodd;clip-rule:evenodd;fill:url(#path170_1_);}
	.st15{fill-rule:evenodd;clip-rule:evenodd;fill:url(#path177_1_);}
	.st16{fill-rule:evenodd;clip-rule:evenodd;fill:url(#path184_1_);}
	.st17{fill-rule:evenodd;clip-rule:evenodd;fill:url(#path191_1_);}
	.st18{fill-rule:evenodd;clip-rule:evenodd;fill:url(#path198_1_);}
	.st19{fill-rule:evenodd;clip-rule:evenodd;fill:url(#path205_1_);}
	.st20{fill-rule:evenodd;clip-rule:evenodd;fill:url(#path212_1_);}
	.st21{fill-rule:evenodd;clip-rule:evenodd;fill:#A78A56;}
	.st22{fill-rule:evenodd;clip-rule:evenodd;fill:url(#path221_1_);}
	.st23{fill-rule:evenodd;clip-rule:evenodd;fill:url(#path228_1_);}
	.st24{fill-rule:evenodd;clip-rule:evenodd;fill:#615031;}
	.st25{fill-rule:evenodd;clip-rule:evenodd;fill:#8B7347;}
	.st26{fill-rule:evenodd;clip-rule:evenodd;fill:#A58D54;}
	.st27{fill-rule:evenodd;clip-rule:evenodd;fill:url(#path241_1_);}
	.st28{fill-rule:evenodd;clip-rule:evenodd;fill:#735E39;}
	.st29{fill-rule:evenodd;clip-rule:evenodd;fill:#4D4027;}
	.st30{fill-rule:evenodd;clip-rule:evenodd;fill:url(#path252_1_);}
	.st31{fill-rule:evenodd;clip-rule:evenodd;fill:#CBA769;}
	.st32{fill-rule:evenodd;clip-rule:evenodd;fill:url(#path261_1_);}
	.st33{fill-rule:evenodd;clip-rule:evenodd;fill:url(#path268_1_);}
	.st34{fill-rule:evenodd;clip-rule:evenodd;fill:url(#path275_1_);}
	.st35{fill-rule:evenodd;clip-rule:evenodd;fill:url(#path282_1_);}
	.st36{fill-rule:evenodd;clip-rule:evenodd;fill:url(#path289_1_);}
	.st37{fill-rule:evenodd;clip-rule:evenodd;fill:url(#path296_1_);}
	.st38{fill-rule:evenodd;clip-rule:evenodd;fill:url(#path303_1_);}
	.st39{fill-rule:evenodd;clip-rule:evenodd;fill:url(#path310_1_);}
	.st40{fill-rule:evenodd;clip-rule:evenodd;fill:url(#path317_1_);}
	.st41{fill-rule:evenodd;clip-rule:evenodd;fill:url(#path324_1_);}
	.st42{fill-rule:evenodd;clip-rule:evenodd;fill:url(#path331_1_);}
	.st43{fill-rule:evenodd;clip-rule:evenodd;fill:url(#path352_1_);}
	.st44{fill-rule:evenodd;clip-rule:evenodd;fill:url(#path3607_1_);}
	.st45{opacity:0.99;fill-rule:evenodd;clip-rule:evenodd;fill:#0C220C;enable-background:new    ;}
	.st46{opacity:0.99;fill-rule:evenodd;clip-rule:evenodd;fill:#008000;enable-background:new    ;}
	.st47{opacity:0.99;fill-rule:evenodd;clip-rule:evenodd;fill:url(#path3597_1_);enable-background:new    ;}
	.st48{fill-rule:evenodd;clip-rule:evenodd;fill:#D0E088;}
	
		.st49{opacity:0.99;fill-rule:evenodd;clip-rule:evenodd;fill:#D9F362;filter:url(#Adobe_OpacityMaskFilter);enable-background:new    ;}
	.st50{mask:url(#mask3447_2_);fill:none;stroke:#00FD0A;stroke-width:16.359;stroke-linecap:round;stroke-linejoin:round;}
	.st51{fill-rule:evenodd;clip-rule:evenodd;fill:#755423;}
	.st52{fill-rule:evenodd;clip-rule:evenodd;fill:url(#path3633_1_);}
	.st53{fill-rule:evenodd;clip-rule:evenodd;fill:url(#path3815_1_);}
	.st54{fill-rule:evenodd;clip-rule:evenodd;fill:url(#path3623_1_);}
	.st55{fill-rule:evenodd;clip-rule:evenodd;fill:url(#path3861_1_);}
</style>
<sodipodi:namedview  bordercolor="#666666" borderopacity="1" gridtolerance="10" guidetolerance="10" id="namedview369" inkscape:current-layer="svg2" inkscape:cx="8.408" inkscape:cy="19.320253" inkscape:pageopacity="0" inkscape:pageshadow="2" inkscape:window-height="645" inkscape:window-maximized="0" inkscape:window-width="785" inkscape:window-x="0" inkscape:window-y="0" inkscape:zoom="6.1077403" objecttolerance="10" pagecolor="#ffffff" showgrid="false">
	</sodipodi:namedview>
<linearGradient id="path11_1_" gradientUnits="userSpaceOnUse" x1="569.9193" y1="948.5948" x2="992.1677" y2="948.5948" gradientTransform="matrix(0.85 0 0 0.85 -482.1 -245.3056)">
	<stop  offset="0" style="stop-color:#FFFFFF;stop-opacity:0.298"/>
	<stop  offset="1" style="stop-color:#ABD9DB;stop-opacity:0.549"/>
</linearGradient>
<path id="path11" inkscape:connector-curvature="0" class="st0" d="M326.5,304.9c20.6,14.3,30.8,27.1,30.8,38.3l12.2,338.3
	c0,15.6-2.8,36.2-8.4,61.7c-6.8,29.9-15,51.1-24.3,63.6c-6.9,8.1-25.2,17.2-55.2,27.1c-33.6,10.6-67,15.9-100,15.9
	c-31.8-0.6-63.9-6.2-96.3-16.8c-28.6-9.3-46-18.1-52.3-26.2c-9.2-11.8-17.4-33-24.2-63.6c-5.5-24.9-8.4-45.5-8.4-61.7l11.2-338.3
	c0-11.2,10.3-24,30.9-38.3c18.7-13.1,38.3-22.1,58.9-27.1c12.5-3.1,22.4-5,29.9-5.6H238c7.5,0.6,17.4,2.5,29.9,5.6
	c20.5,5,40.2,14,58.8,27.1L326.5,304.9L326.5,304.9z"/>
<path id="path18" inkscape:connector-curvature="0" class="st1" d="M310.6,380.6c16.2-8.1,26.5-15.9,30.9-23.4l6.5,149.5
	c4.4,102.7,5.9,163.4,4.7,182.1c-1.8,30.6-13.7,69.5-35.5,116.8c-3.1,6.2-10.6,12.4-22.4,18.7C271.2,836.7,236.9,843,192,843
	s-81.6-6.2-110.2-18.7l-29.9-18.7c-15.5-29.9-24.9-53.6-28-71l-5.6-43.9l10.3-329l26.2,20.5c28,13.7,67.3,20.6,117.7,20.6
	c59.8,0,105.9-7.5,138.3-22.4L310.6,380.6z"/>
<path id="path20" inkscape:connector-curvature="0" class="st2" d="M345.2,366.5v2.8c0,15.6-15.6,29-46.7,40.2
	c-30.3,11.2-67.7,16.7-112.2,16.7c-43.5,0-80.9-5.7-112.2-16.9c-31-11.2-46.6-24.6-46.6-40.2l0.9-2.9c2.6,13.7,19.1,25.2,49.5,34.6
	c30.3,9.3,66.9,14,108.4,14c42.4,0,79-4.6,109.5-14c30.6-9.3,47.1-20.9,49.6-34.5L345.2,366.5z"/>
<path id="path27" inkscape:connector-curvature="0" class="st3" d="M345.2,363.7c0,14.3-15.6,26.5-46.7,36.4
	c-31,10-68.4,15-112.2,15c-43.5,0-80.9-5-112.2-15c-31-10-46.6-22.1-46.6-36.4c0-13.7,15.6-25.8,46.8-36.4
	c31.2-10.1,68.5-15.2,112.2-15.2s81,5,112.2,15s46.8,22.1,46.8,36.5L345.2,363.7z"/>
<linearGradient id="path100_1_" gradientUnits="userSpaceOnUse" x1="605.5465" y1="947.4184" x2="754.0171" y2="947.4184" gradientTransform="matrix(0.85 0 0 0.85 -482.1 -245.3056)">
	<stop  offset="0" style="stop-color:#FFFFFF;stop-opacity:0.639"/>
	<stop  offset="1" style="stop-color:#FFFFFF;stop-opacity:0"/>
</linearGradient>
<path id="path100" inkscape:connector-curvature="0" class="st4" d="M44.2,391.8c12.5,16.8,30.3,26.2,53.3,28l-0.9,32.7
	c-1.9,29.9-5,64.2-9.3,102.8c-4.4,38.7,6.2,79.2,31.8,121.5c12.5,21.2,25.7,38.3,39.4,51.4h-29.9c-13.1,0-33-4.7-59.8-14l-36.5-14
	L44.2,391.8L44.2,391.8z"/>
<linearGradient id="path107_1_" gradientUnits="userSpaceOnUse" x1="567.5002" y1="948.0067" x2="781.2633" y2="948.0067" gradientTransform="matrix(0.85 0 0 0.85 -482.1 -245.3056)">
	<stop  offset="0" style="stop-color:#FFFFFF"/>
	<stop  offset="1" style="stop-color:#ABD9DB"/>
</linearGradient>
<path id="path107" inkscape:connector-curvature="0" class="st5" d="M101.3,277.7c11.9-3,22.9-4.7,33.2-5.1
	c-8.1,0.7-17.3,2.3-27.6,5.1c-18.7,5-36.9,14-54.3,27.1c-18.7,14.3-28.1,27.1-28.1,38.3L13.2,681.5c0,15.6,2.8,36.2,8.4,61.7
	c6.2,29.9,13.3,51.1,21.5,63.6c5.6,8.1,21.8,16.8,48.6,26.2c22.9,7.9,45.4,13.1,67.7,15.4c-24.6-2.1-49.4-7.3-74.3-15.4
	c-28.6-9.3-46.1-18.1-52.3-26.2c-9.3-11.8-17.4-33-24.3-63.6C2.8,718.3,0,697.7,0,681.5l11.2-338.3c0-11.2,10.3-24,30.8-38.3
	c18.7-13.1,38.3-22.1,58.9-27.1h0.4V277.7z"/>
<linearGradient id="path114_1_" gradientUnits="userSpaceOnUse" x1="785.0023" y1="947.9478" x2="1001.6248" y2="947.9478" gradientTransform="matrix(0.85 0 0 0.85 -482.1 -245.3056)">
	<stop  offset="0" style="stop-color:#FFFFFF"/>
	<stop  offset="1" style="stop-color:#ABD9DB"/>
</linearGradient>
<path id="path114" inkscape:connector-curvature="0" class="st6" d="M235.4,272.6c9.9,0.5,20.6,2.2,32.2,5.1
	c20.6,5,40.2,14,58.9,27.1c20.6,14.3,30.8,27.1,30.8,38.3l12.2,338.3c0,15.6-2.6,36.2-8.4,61.7c-6.8,29.9-15,51.1-24.2,63.6
	c-6.8,8.1-24.6,16.8-53.2,26.2c-25.9,8.1-51.5,13.3-76.6,15.4c22.7-2.3,45.7-7.5,69.2-15.4c26.8-9.3,43.3-18.1,49.5-26.2
	c8.7-11.8,16.2-33,22.4-63.6c5-24.9,7.5-45.5,7.5-61.7l-10.2-338.3c0-11.2-9.3-24-28-38.3c-18-13.1-36.4-22.1-55.1-27.1
	c-9.4-2.8-18.3-4.5-26.7-5.1L235.4,272.6L235.4,272.6z"/>
<linearGradient id="path121_1_" gradientUnits="userSpaceOnUse" x1="614.6428" y1="708.8302" x2="837.6433" y2="708.8302" gradientTransform="matrix(0.85 0 0 0.85 -482.1 -245.3056)">
	<stop  offset="0" style="stop-color:#FFFFFF;stop-opacity:0.639"/>
	<stop  offset="1" style="stop-color:#FFFFFF;stop-opacity:0"/>
</linearGradient>
<path id="path121" inkscape:connector-curvature="0" class="st7" d="M230.3,401.7h-36.4c-51.1,0-93.8-7.1-128-21.5
	c-19.9-8.1-28-16.3-24.3-24.4c8.7-8.8,14.3-15.4,16.8-19.7c3.7-5.6,12.8-11.2,27.1-16.8c7.5-2.5,14.3-4.6,20.6-6.6l24.4,5.6
	c15.6,4.4,20.9,9.7,16,15.8c-7.5,10,17.4,21.6,74.8,34.6l-38.3,1.9c-28.7,1.8-43.9,3.1-45.8,3.7c-10.6,1.2-13.4,3.7-8.4,7.5
	c7.5,5.6,41.4,12.2,101.8,19.6L230.3,401.7z"/>
<linearGradient id="path128_1_" gradientUnits="userSpaceOnUse" x1="645.3521" y1="1253.1047" x2="837.7832" y2="1253.1047" gradientTransform="matrix(0.85 0 0 0.85 -482.1 -245.3056)">
	<stop  offset="0" style="stop-color:#FFFFFF;stop-opacity:0.639"/>
	<stop  offset="1" style="stop-color:#FFFFFF;stop-opacity:0"/>
</linearGradient>
<path id="path128" inkscape:connector-curvature="0" class="st8" d="M118.1,815.2c32.4,11.2,69.8,14.6,112.2,10.3
	c-19.4,9.5-48.6,11.7-87.9,6.6c-33.6-4.4-56.4-9.9-68.2-16.7c-9.9-6.2-10.8-9.7-2.6-10.3c8.8-1.1,24.3,2.2,46.8,10.3L118.1,815.2z"
	/>
<linearGradient id="path135_1_" gradientUnits="userSpaceOnUse" x1="-4503.9546" y1="-1347.5581" x2="-4441.2778" y2="-1347.5581" gradientTransform="matrix(-0.85 0 0 -0.85 -3499.2712 -812.5744)">
	<stop  offset="0" style="stop-color:#FFFFFF;stop-opacity:0.639"/>
	<stop  offset="1" style="stop-color:#FFFFFF;stop-opacity:0"/>
</linearGradient>
<path id="path135" inkscape:connector-curvature="0" class="st9" d="M312.5,317c3.1,4.4,9,11,17.7,19.7c3.7,8.1-4.4,16.2-24.3,24.3
	l-32.7,11.2c5-13.9,5-27.9,0-42.2c-5-14.3-13.7-25.3-26.2-32.8l18.7-3.7l20.6,6.5c13.6,5.6,22.4,11.2,26.2,16.8L312.5,317z"/>
<linearGradient id="path142_1_" gradientUnits="userSpaceOnUse" x1="598.5088" y1="1179.5753" x2="752.4272" y2="1179.5753" gradientTransform="matrix(0.85 0 0 0.85 -482.1 -245.3056)">
	<stop  offset="0" style="stop-color:#FFFFFF;stop-opacity:0.639"/>
	<stop  offset="1" style="stop-color:#FFFFFF;stop-opacity:0"/>
</linearGradient>
<path id="path142" inkscape:connector-curvature="0" class="st10" d="M36.7,712.4c11.2,6.2,23.7,11.5,37.4,15.8
	c27.4,8.1,55.2,12.2,83.2,12.2c-13.7,1.2-25.5,2.5-35.5,3.7c-19.3,2.5-30.2,6.2-32.7,11.2c-5.5,9.3-3.7,20.6,5.7,33.6
	c4.4,6.2,8.5,11.2,12.3,15c-17.4-4.4-33.6-9-48.6-14l-17.7-6.6l-3.8-13c-3.1-8.7-5.9-18.7-8.4-29.9c-2.5-14.3-2.8-23.4-0.9-27.1
	c1.8-3.1,4.9-3.3,9.3-0.9L36.7,712.4z"/>
<linearGradient id="path149_1_" gradientUnits="userSpaceOnUse" x1="-4532.5449" y1="-1836.3816" x2="-4465.4683" y2="-1836.3816" gradientTransform="matrix(-0.85 0 0 -0.85 -3499.2712 -812.5744)">
	<stop  offset="0" style="stop-color:#FFFFFF;stop-opacity:0.639"/>
	<stop  offset="1" style="stop-color:#FFFFFF;stop-opacity:0"/>
</linearGradient>
<path id="path149" inkscape:connector-curvature="0" class="st11" d="M347.1,698.3h8.4c0,19.4-5,37.1-15,53.3
	c-5,9.3-11.5,19-19.6,29c-1.8,2.6-6.2,7-13,13.2c-1.5,1.7-3.1,3.3-4.2,4.6c1.1-3.1,1.8-6.8,2.4-11.2c0-11.2,0.3-18.9,0.9-23.3v-18.7
	c0.6-5.5,0.3-9-0.9-10.3c-0.6-1.1-3.7-2.2-9.4-2.7c-13.7,1.3-24,1.3-30.8,0c4.4-3.1,10.9-5.9,19.6-8.4c4.4-1.3,11-3.4,19.7-6.6
	l17.6-8.5c11.9-2.4,19.9-5.9,24.3-10.2V698.3z"/>
<linearGradient id="path156_1_" gradientUnits="userSpaceOnUse" x1="668.6638" y1="562.3008" x2="895.6226" y2="562.3008" gradientTransform="matrix(0.85 0 0 0.85 -482.1 -245.3056)">
	<stop  offset="0" style="stop-color:#FFFFFF;stop-opacity:0.298"/>
	<stop  offset="1" style="stop-color:#ABD9DB;stop-opacity:0.549"/>
</linearGradient>
<path id="path156" inkscape:connector-curvature="0" class="st12" d="M177,136.6l7.5,0.9l7.5-0.9c23.7,0,43.6,2.8,59.8,8.4
	c15.6,5.6,23.4,12.1,23.4,19.6c0,49.2,0.9,78.8,2.8,88.8c1.9,8.7,3.7,18.1,5.6,28c1.3,6.8,0.9,12.1-0.9,15.9
	c-10,18.7-38.6,29.2-86,31.7h-24.3c-48.6-2.6-77-13.2-85-31.9c-1.9-3.7-2.2-9-0.9-15.9c1.9-10,3.4-19.3,4.7-28
	c1.9-10,2.8-39.6,2.8-88.8c0-7.5,7.8-14.1,23.4-19.7c16.2-5.6,36.1-8.4,59.8-8.4L177,136.6z"/>
<linearGradient id="path163_1_" gradientUnits="userSpaceOnUse" x1="684.9377" y1="618.382" x2="785.0023" y2="618.382" gradientTransform="matrix(0.85 0 0 0.85 -482.1 -245.3056)">
	<stop  offset="0" style="stop-color:#FFFFFF;stop-opacity:0.639"/>
	<stop  offset="1" style="stop-color:#FFFFFF;stop-opacity:0"/>
</linearGradient>
<path id="path163" inkscape:connector-curvature="0" class="st13" d="M105,271.2l3.7-35.5l66.4,4.7c-2.5,5-7.5,8.7-15,11.2
	c-5.6,1.3-10.3,8.1-14,20.6c-3.7,11.8-4.7,22.1-2.8,30.8c2.5,11.9,17.1,18.4,43.9,19.7l-20.6,1.8c-10,1.3-22.1-0.3-36.5-4.7
	c-15-4.4-24.4-9-28.1-14c-3.1-3.7-4.2-8.7-2.9-15c2.5-7.5,4.4-14,5.6-19.6L105,271.2z"/>
<linearGradient id="path170_1_" gradientUnits="userSpaceOnUse" x1="-4020.1406" y1="-2037.6233" x2="-3984.3374" y2="-2037.6233" gradientTransform="matrix(-0.809 0.261 -0.261 -0.809 -3513.5967 -335.6686)">
	<stop  offset="0" style="stop-color:#FFFFFF;stop-opacity:0.639"/>
	<stop  offset="1" style="stop-color:#FFFFFF;stop-opacity:0"/>
</linearGradient>
<path id="path170" inkscape:connector-curvature="0" class="st14" d="M267.6,225.4l0.9,29.9l5.7,21.5c2.4,8.7,2.4,14.6,0,17.8
	c-3.1,5-9.7,9.3-19.6,13.1c2.5-8.7,2.5-18.4,0-29c-1.8-11.7-3.4-20.2-4.6-25.1c-3.1-9.3-8.1-14.3-15-15l32.8-13.1L267.6,225.4z"/>
<linearGradient id="path177_1_" gradientUnits="userSpaceOnUse" x1="613.647" y1="512.3007" x2="954.9645" y2="512.3007" gradientTransform="matrix(0.85 0 0 0.85 -482.1 -245.3056)">
	<stop  offset="0" style="stop-color:#FFFFFF;stop-opacity:0.298"/>
	<stop  offset="1" style="stop-color:#ABD9DB;stop-opacity:0.549"/>
</linearGradient>
<path id="path177" inkscape:connector-curvature="0" class="st15" d="M289.1,132.9c27.4,13.1,41.1,28.6,41.1,46.7
	c0,18.7-14.3,34.9-43,48.6c-28.7,13.1-62.9,19.6-102.8,19.6s-74.1-6.6-102.8-19.7c-28-13.7-42.1-29.9-42.1-48.6
	c0-18,13.1-33.6,39.3-46.7l0.9,7.5v0.9l0.9,10.1v0.9l0.9,13.1v0.9l0.9,1.8l7.5,7.5h0.9l2.9,1.9l0.9,0.9l11.2,5.6l5.5,1.9h1.9
	l8.4,2.8l6.5,0.9l10.3,2.8h3.7l8.4,0.9l3.7,0.9l10.3,1h3.7c6.8,0,12.1,0.3,15.8,0.9c36.1,0.7,63.8-3.7,83.1-13.1
	c10-4.3,16.3-9,18.7-14v-7.5l3-28.9L289.1,132.9z"/>
<linearGradient id="path184_1_" gradientUnits="userSpaceOnUse" x1="784.562" y1="510.889" x2="955.6614" y2="510.889" gradientTransform="matrix(0.85 0 0 0.85 -482.1 -245.3056)">
	<stop  offset="0" style="stop-color:#FFFFFF"/>
	<stop  offset="1" style="stop-color:#ABD9DB"/>
</linearGradient>
<path id="path184" inkscape:connector-curvature="0" class="st16" d="M287.2,228.2c-18.6,8.5-39.6,14.1-63.1,16.8
	c20.9-3,39.8-8.7,56.5-16.8c26.8-13.7,40.2-29.9,40.2-48.6c0-16.8-11-31.1-32.8-43l1-3.7c27.4,13.1,41.1,28.7,41.1,46.7
	C330.3,198.3,315.9,214.5,287.2,228.2L287.2,228.2z"/>
<linearGradient id="path191_1_" gradientUnits="userSpaceOnUse" x1="613.4633" y1="510.6537" x2="777.3049" y2="510.6537" gradientTransform="matrix(0.85 0 0 0.85 -482.1 -245.3056)">
	<stop  offset="0" style="stop-color:#FFFFFF"/>
	<stop  offset="1" style="stop-color:#ABD9DB"/>
</linearGradient>
<path id="path191" inkscape:connector-curvature="0" class="st17" d="M140,244.6c-22.5-3.3-42.6-9.4-60.3-18.3
	c-26.8-13.1-40.2-28.6-40.2-46.7s13.1-33.6,39.3-46.7v3.7c-20.6,13-30.9,27.3-30.9,42.9c0,18,13,33.6,38.5,46.6
	c15.6,8.6,33.5,14.6,53.8,18.3L140,244.6z"/>
<linearGradient id="path198_1_" gradientUnits="userSpaceOnUse" x1="650.8502" y1="533.3718" x2="766.3088" y2="533.3718" gradientTransform="matrix(0.85 0 0 0.85 -482.1 -245.3056)">
	<stop  offset="0" style="stop-color:#FFFFFF;stop-opacity:0.639"/>
	<stop  offset="1" style="stop-color:#FFFFFF;stop-opacity:0"/>
</linearGradient>
<path id="path198" inkscape:connector-curvature="0" class="st18" d="M168.6,195.5l0.9,6.6c-12.4,1.9-22.4,3.4-29.9,4.7
	c-13.7,2.5-21.5,5.6-23.4,9.3c-3.1,6.8,0,15.3,9.3,25.2c-1.9,0-7.5-1.8-16.8-5.6c-16.8-6.2-28.4-17.2-34.6-32.7
	c-6.8-15-3.3-24.3,10.3-28c2-0.6,5.1,0.3,9.5,2.8c7.5,3.7,15.8,7.3,25.3,10.3c18.7,6.8,35.2,9.5,49.6,7.5L168.6,195.5z"/>
<linearGradient id="path205_1_" gradientUnits="userSpaceOnUse" x1="919.8141" y1="527.7836" x2="857.7961" y2="527.7836" gradientTransform="matrix(0.85 0 0 0.85 -482.1 -245.3056)">
	<stop  offset="0" style="stop-color:#FFFFFF;stop-opacity:0.639"/>
	<stop  offset="1" style="stop-color:#FFFFFF;stop-opacity:0"/>
</linearGradient>
<path id="path205" inkscape:connector-curvature="0" class="st19" d="M286.3,174.9c13.7,3.7,17.2,13.1,10.3,28
	c-5.6,13.1-14,22.7-25.2,29c-3.3-18.7-13-32.4-29-41.1l9.2-2.8c8.7-3.1,17.2-6.6,25.2-10.3c3.7-2.5,6.8-3.4,9.3-2.8L286.3,174.9z"/>
<linearGradient id="path212_1_" gradientUnits="userSpaceOnUse" x1="-3877.5374" y1="-242.9775" x2="-3803.8638" y2="-242.9775" gradientTransform="matrix(-1 0 0 -1 -3551.0425 -234.7775)">
	<stop  offset="0" style="stop-color:#C1A064"/>
	<stop  offset="1" style="stop-color:#706341"/>
</linearGradient>
<path id="path212" inkscape:connector-curvature="0" class="st20" d="M278.7,12.6h-1.1c-16.1,0-25.6-0.7-28.6-2.2s-3.7-3.3-2.2-5.5
	V3.8l34.1,8.8H278.7z"/>
<path id="path214" inkscape:connector-curvature="0" class="st21" d="M65.3,23.6L84,15.9c19.8-7.3,45.8-12.1,78.1-14.3
	c30.1-2.9,58.3-1.8,84.7,3.3c-1.5,2.2-0.7,4,2.2,5.5s12.4,2.2,28.6,2.2h1.1c8.8,2.2,16.1,5.1,22,8.8c-4.4,8.8-11,14.7-19.8,17.6
	l-3.3,1.1l-1.1,1.1c-3.7-1.5-7.7-2.6-12.1-3.3l-4.4-1.1c-1.4-0.7-2.9-1.1-4.4-1.1h-1.1c-2.9-0.7-5.5-0.7-7.7,0h-2.2
	c-2.2-0.7-3.7-0.7-4.4,0l-1.1,2.2l1.1,3.3l2.2,4.4l4.4,2.2l1.1,2.2l2.2,2.2c0.7,0.7,1.5,1.1,2.2,1.1h-4.4
	c-7.3-2.2-11.4-3.7-12.1-4.4c-4.4-1.5-6.6-5.1-6.6-11c-1.5,0-2.9,1.1-4.4,3.3c-0.7,2.2-1.5,3.7-2.2,4.4s-2.2,1.5-4.4,2.2h-27.5
	c-29.3,0-46.2-0.4-50.6-1.1l-42.9-11c-9.5-1.5-16.9-4-22-7.7C72.3,25.1,69,23.6,65.3,23.6z M276.5,18.1c-0.7,1.5-0.7,2.6,0,3.3
	c8,1.5,12.8,0.4,14.3-3.3H276.5z M210.5,12.6c-1.5-2.2-3.7-3.3-6.6-3.3h-3.3l-1.1,3.3H210.5z M166.5,25.8c-5.9,0.7-8.4,2.9-7.7,6.6
	l26.4,1.1c2.9-0.7,5.1-2.6,6.6-5.5l-12.1-2.2C174.6,25.1,170.2,25.1,166.5,25.8z M145.6,10.4c-22,0-32.6,3.7-31.9,11
	c2.9,0.7,13.2,1.1,30.8,1.1c6.6,0,11-0.7,13.2-2.2c2.2-2.2,3.3-4,3.3-5.5c0-2.9-1.5-4.4-4.4-4.4H145.6z"/>
<linearGradient id="path221_1_" gradientUnits="userSpaceOnUse" x1="-3844.5493" y1="-254.852" x2="-3828.0552" y2="-254.852" gradientTransform="matrix(-1 0 0 -1 -3551.0425 -234.7775)">
	<stop  offset="0" style="stop-color:#C1A064"/>
	<stop  offset="1" style="stop-color:#706341"/>
</linearGradient>
<path id="path221" inkscape:connector-curvature="0" class="st22" d="M276.5,18.1h14.3c-1.5,3.7-6.2,4.8-14.3,3.3
	C275.7,20.7,275.7,19.6,276.5,18.1z"/>
<linearGradient id="path228_1_" gradientUnits="userSpaceOnUse" x1="-1963.5911" y1="1691.3888" x2="-1933.7258" y2="1691.3888" gradientTransform="matrix(-0.11 -0.994 0.994 -0.11 -1639.7791 -1701.9546)">
	<stop  offset="0" style="stop-color:#C1A064"/>
	<stop  offset="1" style="stop-color:#706341"/>
</linearGradient>
<path id="path228" inkscape:connector-curvature="0" class="st23" d="M255.6,35.7c1.5,0.1,3,0.8,4.4,2.2l4.4,1.1
	c4.4,1.5,6.6,4,6.6,7.7c0,5.1-0.7,8.8-2.2,11c-3.7,5.1-7.7,6.2-12.1,3.3l-5.5-7.7h1.1c-0.8,0-1.5-0.4-2.2-1.1l-2.2-2.2l-1.1-2.2
	l-4.4-2.2l-2.2-4.4l-1.1-3.3c0.8-1.5,2.6-2.2,5.5-2.2h2.2c2.2-0.7,4.8-0.7,7.7,0C254.5,35.7,255.6,35.7,255.6,35.7z"/>
<path id="path230" inkscape:connector-curvature="0" class="st24" d="M239.1,37.9l1.1-2.2c0.7-0.7,2.2-0.7,4.4,0
	C241.7,35.7,239.8,36.4,239.1,37.9z M264.4,37.9c2.9,0.7,6.2,1.8,9.9,3.3v4.4c0,12.4-2.9,19.1-8.8,19.8c-4.4,0-7.3-1.5-8.8-4.4
	c4.4,2.9,8.4,1.8,12.1-3.3c1.5-2.2,2.2-5.9,2.2-11c0-3.7-2.2-6.2-6.6-7.7l-4.4-1.1c-1.4-1.4-2.9-2.1-4.4-2.2c1.5,0,3,0.4,4.4,1.1
	C260,36.8,264.4,37.9,264.4,37.9z"/>
<path id="path232" inkscape:connector-curvature="0" class="st25" d="M274.3,41.2h2.2l1.1-1.1v1.1c0,13.2-2.6,21.3-7.7,24.2
	c-3.7,1.5-9.5,1.8-17.6,1.1c-8.1-0.7-11.7-2.9-11-6.6c-9.5-2.9-17.2-4.4-23.1-4.4h-31.9c19,2.9,33.4,7,42.9,12.1
	c2.9,2.2,6.6,5.9,11,11c8,5.9,12.1,11.7,12.1,17.6c0,2.9-2.6,7.3-7.7,13.2c-5.9,5.1-8.8,9.5-8.8,13.2c0,2.2,1.1,4.8,3.3,7.7
	c0,2.9-1.8,6.2-5.5,9.9c-1.5,2.9-3.3,5.5-5.5,7.7c0,2.9,0.4,6.2,1.1,9.9c1.5,5.1-0.4,8.4-5.5,9.9c-2.9,0.7-5.9,0.4-8.8-1.1
	c-3.7-1.5-6.9-2.6-9.9-3.3l-6.6,6.6l-3.3,1.1l-4.4,2.2c-2.9,2.2-8.1,3.3-15.4,3.3c-5.9,4.4-11.4,6.6-16.5,6.6
	c-2.2,0-12.4-1.8-30.8-5.5c-2.9-0.7-4.8-1.1-5.5-1.1s-1.8-1.5-3.3-4.4c-1.5-4.4-2.6-6.6-3.3-6.6l-8.8-6.6c-6.6,3.7-13.2,3.7-19.8,0
	l-6.6-6.6l-2.2-23.1c0.7,2.2,2.6,4.8,5.5,7.7c5.1,5.1,10.3,7,15.4,5.5c2.2-0.7,4.8-2.6,7.7-5.5c5.9,8.8,13.6,14.3,23.1,16.5
	c2.9,0.7,7.3,1.5,13.2,2.2c5.1,1.5,7.7,4,7.7,7.7c4.4,1.5,7.7,0.7,9.9-2.2c1.5-5.1,3.3-8.1,5.5-8.8c3.7,3.7,8.8,4,15.4,1.1
	c0-8.8,3.3-13.9,9.9-15.4c2.9-0.7,5.5-1.5,7.7-2.2s3.7-2.6,4.4-5.5c2.9-5.9,2.6-11.4-1.1-16.5c0-2.9-1.5-5.1-4.4-6.6
	c-2.9-2.2-5.1-1.5-6.6,2.2c-5.1,0-8.8-3.7-11-11c-4.4-9.5-7-14.7-7.7-15.4c-5.1-7.3-14.7-14.3-28.6-20.9c-5.9-1.5-11.4-4.4-16.5-8.8
	l-1.1-1.1l-1.1-1.1c12.5,1.5,23.8,2.6,34.1,3.3l88-1.1h2.2l1.1,1.1h-1.1c1.5,2.9,3.3,5.1,5.5,6.6h1.1c1.5,2.9,4.4,4.4,8.8,4.4
	c5.9-0.7,8.8-7.3,8.8-19.8C274.3,45.6,274.3,41.2,274.3,41.2z M212.7,72c-5.1,0-6.9,4-5.5,12.1c1.5,6.6,4.4,10.6,8.8,12.1
	c4.4,0.7,6.6-1.8,6.6-7.7c0.7-7.3-1.1-12.8-5.5-16.5H212.7z M184.1,155.5c-5.1,6.6-5.9,11.4-2.2,14.3c4.4,2.9,8.4,1.1,12.1-5.5
	c-0.7-0.7-2.6-2.2-5.5-4.4L184.1,155.5z M211.6,134.6h6.6c2.2-5.9,1.1-9.2-3.3-9.9l-2.2-3.3C210.5,123.7,210.1,128,211.6,134.6z"/>
<path id="path234" inkscape:connector-curvature="0" class="st26" d="M276.5,41.2h-2.2c-3.7-1.5-7-2.6-9.9-3.3
	C268.8,38.6,272.8,39.7,276.5,41.2z M78.5,129.1v-3.3l5.5-1.1c0.7-7.3-1.1-10.6-5.5-9.9c-2.2-13.9-4-24.2-5.5-30.8l-2.2-22
	l-3.3-19.8l-2.2-18.7l22,16.5c11,4.4,24.2,8.4,39.6,12.1l1.1,1.1c5.1,4.4,10.6,7.3,16.5,8.8c13.9,6.6,23.4,13.6,28.6,20.9
	c0.7,0.7,3.3,5.9,7.7,15.4c2.2,7.3,5.9,11,11,11c1.5-3.7,3.7-4.4,6.6-2.2c2.9,1.5,4.4,3.7,4.4,6.6c3.7,5.1,4,10.6,1.1,16.5
	c-0.7,2.9-2.2,4.8-4.4,5.5s-4.8,1.5-7.7,2.2c-6.6,1.5-9.9,6.6-9.9,15.4c-6.6,2.9-11.7,2.6-15.4-1.1c-2.2,0.7-4,3.7-5.5,8.8
	c-2.2,2.9-5.5,3.7-9.9,2.2c0-3.7-2.6-6.2-7.7-7.7c-5.9-0.7-10.3-1.5-13.2-2.2c-9.5-2.2-17.2-7.7-23.1-16.5c-2.9,2.9-5.5,4.8-7.7,5.5
	c-5.1,1.5-10.3-0.4-15.4-5.5C81.1,133.9,79.3,131.3,78.5,129.1z M251.2,53.3v1.1l-1.1-1.1H251.2z M300.7,21.4l-14.3,148.4l4.4-66
	l1.1-18.7C291.9,85.2,300.7,21.4,300.7,21.4z M89.5,67.6c-2.2,3.7-2.9,8.1-2.2,13.2c0.7,5.1,2.6,9.5,5.5,13.2c2.9,2.9,6.2,4,9.9,3.3
	c3.7,0,6.2-2.2,7.7-6.6c2.9-4.4,3.7-8.8,2.2-13.2c-0.7-5.1-2.6-9.2-5.5-12.1c-2.9-3.7-6.2-5.1-9.9-4.4C93.6,61.7,91,63.9,89.5,67.6z
	 M106,122.6c2.2,5.1,7.3,6.9,15.4,5.5c2.2-10.3,1.1-16.5-3.3-18.7l-8.8-1.1c-2.2,0.7-3.7,2.9-4.4,6.6
	C104.2,117.8,104.6,120.4,106,122.6z M137.9,83c-12.5,6.6-15,16.1-7.7,28.6c6.6,13.2,16.9,17.2,30.8,12.1c6.6-1.5,8.8-10.3,6.6-26.4
	c-1.5-6.6-4.4-11-8.8-13.2c-2.2-0.7-6.9-1.1-14.3-1.1H137.9z"/>
<linearGradient id="path241_1_" gradientUnits="userSpaceOnUse" x1="-1964.3168" y1="1688.0283" x2="-1934.4515" y2="1688.0283" gradientTransform="matrix(-0.11 -0.994 0.994 -0.11 -1639.7791 -1701.9546)">
	<stop  offset="0" style="stop-color:#C1A064"/>
	<stop  offset="1" style="stop-color:#706341"/>
</linearGradient>
<path id="path241" inkscape:connector-curvature="0" class="st27" d="M251.2,54.4v-1.1l5.5,7.7h-1.1c-2.2-1.5-4-3.7-5.5-6.6
	C250.1,54.4,251.2,54.4,251.2,54.4z"/>
<path id="path243" inkscape:connector-curvature="0" class="st28" d="M81.8,167.6l-1.1-15.4l6.6,6.6c6.6,3.7,13.2,3.7,19.8,0
	l8.8,6.6c0.7,0,1.8,2.2,3.3,6.6c1.5,2.9,2.6,4.4,3.3,4.4s2.6,0.4,5.5,1.1c18.3,3.7,28.6,5.5,30.8,5.5c5.1,0,10.6-2.2,16.5-6.6
	c7.3,0,12.4-1.1,15.4-3.3l4.4-2.2l3.3-1.1l6.6-6.6c2.9,0.7,6.2,1.8,9.9,3.3c2.9,1.5,5.8,1.8,8.8,1.1c5.1-1.5,7-4.8,5.5-9.9
	c-0.7-3.7-1.1-7-1.1-9.9c2.2-2.2,4-4.8,5.5-7.7c3.7-3.7,5.5-6.9,5.5-9.9c-2.2-2.9-3.3-5.5-3.3-7.7c0-3.7,2.9-8.1,8.8-13.2
	c5.1-5.9,7.7-10.3,7.7-13.2c0-5.9-4-11.7-12.1-17.6c-4.4-5.1-8-8.8-11-11c-9.5-5.1-23.8-9.2-42.8-12.1h31.9c5.8,0,13.5,1.5,23.1,4.4
	c-0.7,3.7,2.9,5.9,11,6.6c8,0.7,13.9,0.4,17.6-1.1c5.1-2.9,7.7-11,7.7-24.2V40l3.3-1.1l3.3,12.1c0,3.7-1.1,9.2-3.3,16.5
	c-1.4,5.1-2.2,12.8-2.2,23.1c0,2.9-0.7,5.5-2.2,7.7l-5.5,7.7c-0.7,2.2-1.1,9.2-1.1,20.9c0,0.7,0.7,3.3,2.2,7.7
	c1.5,2.9,1.8,5.5,1.1,7.7c-1.5,8.8-4,14.7-7.7,17.6c-0.7,0.7-3.3,1.8-7.7,3.3c-2.9,0.7-4.8,2.6-5.5,5.5c-5.1,0-11,2.2-17.6,6.6
	c-8.8,5.9-13.9,8.8-15.4,8.8c-5.1,2.2-19.1,3.3-41.8,3.3c-14.7,0-25.7-0.7-33-2.2c-6.6,0-11.7-0.4-15.4-1.1
	c-8.1-4.4-13.9-6.6-17.6-6.6l-14.3-4.4c-5.9-2.9-10.3-4.8-13.2-5.5C84,167.6,81.8,167.6,81.8,167.6z M255.6,110.5h-7.7
	c-3.7,0.7-5.9,4-6.6,9.9c0,4.4,1.8,7,5.5,7.7c5.9,2.2,9.5,0.7,11-4.4C258.5,119.3,257.8,114.9,255.6,110.5z"/>
<path id="path245" inkscape:connector-curvature="0" class="st29" d="M300.7,21.4l-8.8,63.8c-3.7,0-5.5,3.7-5.5,11
	c1.5,4.4,2.9,7,4.4,7.7l-4.4,66c-2.2,5.1-8.4,9.9-18.7,14.3c-19,8.8-46.9,12.8-83.6,12.1c-14.6,0-28.2-0.7-40.7-2.2l-13.2-2.2
	c-23.5-5.1-39.6-13.2-48.4-24.2H84c2.9,0.7,7.3,2.6,13.2,5.5l14.3,4.4c3.7,0,9.5,2.2,17.6,6.6c3.7,0.7,8.8,1.1,15.4,1.1
	c7.3,1.5,18.3,2.2,33,2.2c22.7,0,36.7-1.1,41.8-3.3c1.5,0,6.6-2.9,15.4-8.8c6.6-4.4,12.4-6.6,17.6-6.6c0.7-2.9,2.6-4.8,5.5-5.5
	c4.4-1.5,6.9-2.6,7.7-3.3c3.7-2.9,6.2-8.8,7.7-17.6c0.7-2.2,0.4-4.8-1.1-7.7c-1.5-4.4-2.2-6.9-2.2-7.7c0-11.7,0.4-18.7,1.1-20.9
	l5.5-7.7c1.5-2.2,2.2-4.8,2.2-7.7c0-10.3,0.7-17.9,2.2-23.1c2.2-7.3,3.3-12.8,3.3-16.5L280.9,39C289.7,36.1,296.3,30.2,300.7,21.4z"
	/>
<linearGradient id="path252_1_" gradientUnits="userSpaceOnUse" x1="-3762.6287" y1="-245.7275" x2="-3751.6287" y2="-245.7275" gradientTransform="matrix(-1 0 0 -1 -3551.0425 -234.7775)">
	<stop  offset="0" style="stop-color:#C1A064"/>
	<stop  offset="1" style="stop-color:#706341"/>
</linearGradient>
<path id="path252" inkscape:connector-curvature="0" class="st30" d="M210.5,12.6h-11l1.1-3.3h3.3C206.8,9.3,209,10.4,210.5,12.6z"
	/>
<path id="path254" inkscape:connector-curvature="0" class="st31" d="M126.9,52.2c-15.4-3.7-28.6-7.7-39.6-12.1l-22-16.5
	c3.7,0,7,1.5,9.9,4.4c5.1,3.7,12.4,6.2,22,7.7l42.9,11c4.4,0.7,21.3,1.1,50.6,1.1h27.5c2.2-0.7,3.7-1.5,4.4-2.2s1.5-2.2,2.2-4.4
	c1.5-2.2,2.9-3.3,4.4-3.3c0,5.9,2.2,9.5,6.6,11c0.7,0.7,4.8,2.2,12.1,4.4l-88,1.1c-10.3-0.7-21.6-1.8-34.1-3.3
	C125.8,51.1,126.9,52.2,126.9,52.2z M70.8,62.1L69.7,61l-2.2-18.7L70.8,62.1z"/>
<linearGradient id="path261_1_" gradientUnits="userSpaceOnUse" x1="-1987.8307" y1="1647.7146" x2="-1962.3859" y2="1647.7146" gradientTransform="matrix(-0.108 -0.994 0.994 -0.108 -1636.2294 -1701.2871)">
	<stop  offset="0" style="stop-color:#C1A064"/>
	<stop  offset="1" style="stop-color:#706341"/>
</linearGradient>
<path id="path261" inkscape:connector-curvature="0" class="st32" d="M212.7,72h4.4c4.4,3.7,6.2,9.2,5.5,16.5c0,5.9-2.2,8.4-6.6,7.7
	c-4.4-1.5-7.3-5.5-8.8-12.1C205.7,76,207.5,72,212.7,72z"/>
<linearGradient id="path268_1_" gradientUnits="userSpaceOnUse" x1="-2037.7078" y1="1675.5673" x2="-2018.3546" y2="1675.5673" gradientTransform="matrix(-0.114 -0.994 0.994 -0.114 -1646.8782 -1703.2872)">
	<stop  offset="0" style="stop-color:#C1A064"/>
	<stop  offset="1" style="stop-color:#706341"/>
</linearGradient>
<path id="path268" inkscape:connector-curvature="0" class="st33" d="M255.6,110.5c2.2,4.4,2.9,8.8,2.2,13.2
	c-1.5,5.1-5.1,6.6-11,4.4c-3.7-0.7-5.5-3.3-5.5-7.7c0.7-5.9,2.9-9.2,6.6-9.9C247.9,110.5,255.6,110.5,255.6,110.5z"/>
<linearGradient id="path275_1_" gradientUnits="userSpaceOnUse" x1="-2003.5332" y1="1721.2426" x2="-1983.0585" y2="1721.2426" gradientTransform="matrix(-0.107 -0.994 0.994 -0.107 -1634.4546 -1700.9524)">
	<stop  offset="0" style="stop-color:#C1A064"/>
	<stop  offset="1" style="stop-color:#706341"/>
</linearGradient>
<path id="path275" inkscape:connector-curvature="0" class="st34" d="M291.9,85.2l-1.1,18.7c-1.5-0.7-2.9-3.3-4.4-7.7
	C286.4,88.8,288.2,85.2,291.9,85.2z"/>
<linearGradient id="path282_1_" gradientUnits="userSpaceOnUse" x1="-2041.9545" y1="1504.5786" x2="-2029.1991" y2="1504.5786" gradientTransform="matrix(-0.129 -0.992 0.992 -0.129 -1674.1677 -1704.7439)">
	<stop  offset="0" style="stop-color:#C1A064"/>
	<stop  offset="1" style="stop-color:#706341"/>
</linearGradient>
<path id="path282" inkscape:connector-curvature="0" class="st35" d="M78.5,125.8l-1.1-11h1.1c4.4-0.7,6.2,2.6,5.5,9.9L78.5,125.8z"
	/>
<linearGradient id="path289_1_" gradientUnits="userSpaceOnUse" x1="-3746.3984" y1="-264.165" x2="-3712.8604" y2="-264.165" gradientTransform="matrix(-1 0 0 -1 -3551.0425 -234.7775)">
	<stop  offset="0" style="stop-color:#C1A064"/>
	<stop  offset="1" style="stop-color:#706341"/>
</linearGradient>
<path id="path289" inkscape:connector-curvature="0" class="st36" d="M166.5,25.8c3.7-0.7,8-0.7,13.2,0l12.1,2.2
	c-1.5,2.9-3.7,4.8-6.6,5.5l-26.4-1.1C158.1,28.7,160.6,26.5,166.5,25.8z"/>
<linearGradient id="path296_1_" gradientUnits="userSpaceOnUse" x1="-3718.0945" y1="-251.2275" x2="-3668.6123" y2="-251.2275" gradientTransform="matrix(-1 0 0 -1 -3551.0425 -234.7775)">
	<stop  offset="0" style="stop-color:#C1A064"/>
	<stop  offset="1" style="stop-color:#706341"/>
</linearGradient>
<path id="path296" inkscape:connector-curvature="0" class="st37" d="M145.6,10.4h11c2.9,0,4.4,1.5,4.4,4.4c0,1.5-1.1,3.3-3.3,5.5
	c-2.2,1.5-6.6,2.2-13.2,2.2c-17.6,0-27.9-0.4-30.8-1.1C113,14.1,123.6,10.4,145.6,10.4z"/>
<linearGradient id="path303_1_" gradientUnits="userSpaceOnUse" x1="-1988.8853" y1="1531.7272" x2="-1950.157" y2="1531.7272" gradientTransform="matrix(-0.114 -0.994 0.994 -0.114 -1646.8782 -1703.2872)">
	<stop  offset="0" style="stop-color:#C1A064"/>
	<stop  offset="1" style="stop-color:#706341"/>
</linearGradient>
<path id="path303" inkscape:connector-curvature="0" class="st38" d="M89.5,67.6c1.5-3.7,4-5.9,7.7-6.6c3.7-0.7,6.9,0.7,9.9,4.4
	c2.9,2.9,4.8,7,5.5,12.1c1.5,4.4,0.7,8.8-2.2,13.2c-1.5,4.4-4,6.6-7.7,6.6c-3.7,0.7-7-0.4-9.9-3.3c-2.9-3.7-4.8-8.1-5.5-13.2
	C86.6,75.6,87.3,71.2,89.5,67.6z"/>
<linearGradient id="path310_1_" gradientUnits="userSpaceOnUse" x1="-2029.7993" y1="1540.631" x2="-2006.5536" y2="1540.631" gradientTransform="matrix(-0.118 -0.993 0.993 -0.118 -1654.3112 -1702.8481)">
	<stop  offset="0" style="stop-color:#C1A064"/>
	<stop  offset="1" style="stop-color:#706341"/>
</linearGradient>
<path id="path310" inkscape:connector-curvature="0" class="st39" d="M106,122.6c-1.5-2.2-1.8-4.8-1.1-7.7c0.7-3.7,2.2-5.9,4.4-6.6
	l8.8,1.1c4.4,2.2,5.5,8.4,3.3,18.7C113.3,129.5,108.2,127.7,106,122.6z"/>
<linearGradient id="path317_1_" gradientUnits="userSpaceOnUse" x1="-2031.1409" y1="1576.0487" x2="-1984.6276" y2="1576.0487" gradientTransform="matrix(-0.118 -0.993 0.993 -0.118 -1654.3112 -1702.8481)">
	<stop  offset="0" style="stop-color:#C1A064"/>
	<stop  offset="1" style="stop-color:#706341"/>
</linearGradient>
<path id="path317" inkscape:connector-curvature="0" class="st40" d="M137.9,83h6.6c7.3,0,12.1,0.4,14.3,1.1
	c4.4,2.2,7.3,6.6,8.8,13.2c2.2,16.1,0,24.9-6.6,26.4c-13.9,5.1-24.2,1.1-30.8-12.1C122.9,99.1,125.4,89.6,137.9,83z"/>
<linearGradient id="path324_1_" gradientUnits="userSpaceOnUse" x1="-2044.3262" y1="1612.8726" x2="-2027.7441" y2="1612.8726" gradientTransform="matrix(-0.1 -0.995 0.995 -0.1 -1621.6973 -1700.3925)">
	<stop  offset="0" style="stop-color:#C1A064"/>
	<stop  offset="1" style="stop-color:#706341"/>
</linearGradient>
<path id="path324" inkscape:connector-curvature="0" class="st41" d="M184.1,155.5l4.4,4.4c2.9,2.2,4.8,3.7,5.5,4.4
	c-3.7,6.6-7.7,8.4-12.1,5.5C178.2,166.9,178.9,162.1,184.1,155.5z"/>
<linearGradient id="path331_1_" gradientUnits="userSpaceOnUse" x1="-2047.5867" y1="1639.6051" x2="-2033.7537" y2="1639.6051" gradientTransform="matrix(-0.119 -0.993 0.993 -0.119 -1656.0859 -1703.1827)">
	<stop  offset="0" style="stop-color:#C1A064"/>
	<stop  offset="1" style="stop-color:#706341"/>
</linearGradient>
<path id="path331" inkscape:connector-curvature="0" class="st42" d="M211.6,134.6c-1.5-6.6-1.1-11,1.1-13.2l2.2,3.3
	c4.4,0.7,5.5,4,3.3,9.9C218.2,134.6,211.6,134.6,211.6,134.6z"/>
<linearGradient id="path352_1_" gradientUnits="userSpaceOnUse" x1="594.7702" y1="950.0553" x2="953.9467" y2="950.0553" gradientTransform="matrix(0.85 5.000000e-03 0 0.85 -482.1 -236.4315)">
	<stop  offset="0" style="stop-color:#F8ECC6"/>
	<stop  offset="8.000000e-03" style="stop-color:#F7EBC5"/>
	<stop  offset="0.196" style="stop-color:#DFD3AB"/>
	<stop  offset="0.365" style="stop-color:#D1C49B"/>
	<stop  offset="0.498" style="stop-color:#CCBF95"/>
	<stop  offset="0.624" style="stop-color:#D0C49B"/>
	<stop  offset="0.78" style="stop-color:#DDD1AA"/>
	<stop  offset="0.957" style="stop-color:#F2E7C4"/>
	<stop  offset="1" style="stop-color:#F8EDCB"/>
</linearGradient>
<path id="path352" inkscape:connector-curvature="0" class="st43" d="M36.7,431l38.4,9.3c32.4,6.9,66,10.6,100.9,11.2
	c55.4-0.6,101.6-6.9,138.3-18.7l14,239.3l-19.6,20.6C284.5,707,245.1,715.1,191,717l-5.5,1.1h-18.7l-6.6-0.9
	C106,714.7,66.7,706,42.5,691L23,670.5l14-239.3L36.7,431z"/>
<g id="layer1" transform="translate(892.15 -221.8)">
	<g id="g2243" transform="translate(-902.86 -97.143)">
		
			<radialGradient id="path3607_1_" cx="-607.8604" cy="-385.0182" r="122.5667" gradientTransform="matrix(0.9988 -6.567027e-02 -2.371500e-02 -0.6553 801.2512 627.0337)" gradientUnits="userSpaceOnUse">
			<stop  offset="0" style="stop-color:#391C2B"/>
			<stop  offset="1" style="stop-color:#000000;stop-opacity:0"/>
		</radialGradient>
		<path id="path3607" class="st44" d="M314.2,927.1c0,24.9-54.8,45.1-122.5,45.1c-67.7,0-122.6-20.2-122.6-45c0,0,0,0,0,0
			c0-24.9,54.9-45.1,122.6-45.1S314.2,902.2,314.2,927.1C314.2,927.1,314.2,927.1,314.2,927.1L314.2,927.1z"/>
		<path id="path3323" class="st45" d="M228,841.5c-32.6,0.6-64.9,2.2-92.3,22.1c-18.9,14-38.8,9.5-59.2,19.8
			c-8.8,2.1-22.9,5.6-16.3,24c8.7,24.4,37.1,33.2,82.6,38.3c50.3,5.6,84.6,16.2,127.3-15.2c23.4-17.2,36.4-50.9,17.9-77.3
			C272.7,835.3,250.8,841.5,228,841.5L228,841.5z"/>
		<path id="path3317" class="st46" d="M225.6,829.7c-32.6,0.5-63.9,12.6-91.3,29.5c-18.9,11.9-41.8,14.7-62.1,23.5
			c-5.9,2.7-12.6,6.8-13.4,13.9c-0.5,6.8,3.5,13.3,8.4,17.6c9.1,7.4,21.2,9.1,32.6,10.1c23.7,1.7,47.3-1.4,70.7-4.5
			c11.5-1.7,23-3,34.6-3.2c22.4-1.4,45.2-4.5,65.5-14.3c10.4-5.1,20.5-13,24-24.5c2.8-9.7-1-20.3-8-27.4
			c-11.1-11.8-27.2-17.3-42.9-19.6C237.7,829.9,231.6,829.6,225.6,829.7L225.6,829.7z"/>
		
			<radialGradient id="path3597_1_" cx="-915.9668" cy="-878.8735" r="119.145" gradientTransform="matrix(0.5678 -0.8231 -0.431 -0.2973 418.7918 -37.6258)" gradientUnits="userSpaceOnUse">
			<stop  offset="0" style="stop-color:#359735"/>
			<stop  offset="1" style="stop-color:#359735;stop-opacity:0"/>
		</radialGradient>
		<path id="path3597" class="st47" d="M228,841.5c-32.6,0.6-64.9,2.2-92.3,22.1c-18.9,14-38.8,9.5-59.2,19.8
			c-8.8,2.1-22.9,5.6-16.3,24c8.7,24.4,37.1,33.2,82.6,38.3c50.3,5.6,84.6,16.2,127.3-15.2c23.4-17.2,36.4-50.9,17.9-77.3
			C272.7,835.3,250.8,841.5,228,841.5L228,841.5z"/>
		<path id="path2160" class="st48" d="M195.3,915.6c-21.6,0.6-113.1,21.2-131.5-7.3c-19-29.4,38.8-27.8,70.4-47.5
			C277.4,771.5,378.3,910.7,195.3,915.6z"/>
		<defs>
			<filter id="Adobe_OpacityMaskFilter" filterUnits="userSpaceOnUse" x="52.1" y="823.6" width="250.5" height="108.7">
				<feColorMatrix  type="matrix" values="1 0 0 0 0  0 1 0 0 0  0 0 1 0 0  0 0 0 1 0"/>
			</filter>
		</defs>
		<mask maskUnits="userSpaceOnUse" x="52.1" y="823.6" width="250.5" height="108.7" id="mask3447_2_">
			<path id="path3449_2_" class="st49" d="M265.3,1022.1c-21.6,0.6-113.1,21.2-131.5-7.3c-19-29.4,38.8-27.8,70.4-47.5
				C347.3,878,448.3,1017.2,265.3,1022.1z"/>
		</mask>
		<path id="path3331" class="st50" d="M195.5,916.3c-21.6,0.6-113.1,21.2-131.5-7.3c-19-29.4,38.8-27.8,70.4-47.5
			C277.6,772.2,378.6,911.4,195.5,916.3z"/>
		<path id="path2179" class="st51" d="M184.3,832.3c24.5-13.4,70-5.6,74,34.1c-16.5,28.4-71.7,34.9-101.5,13.7
			C156.1,864.6,169.1,840.6,184.3,832.3L184.3,832.3z"/>
		
			<radialGradient id="path3633_1_" cx="-537.3702" cy="30.4779" r="50.7691" gradientTransform="matrix(0.9998 -2.160500e-02 -1.908500e-02 -0.8831 781.1376 886.4237)" gradientUnits="userSpaceOnUse">
			<stop  offset="0" style="stop-color:#453114"/>
			<stop  offset="1" style="stop-color:#3D2C25;stop-opacity:0"/>
		</radialGradient>
		<path id="path3633" class="st52" d="M184.3,832.3c24.5-13.4,70-5.6,74,34.1c-16.5,28.4-71.7,34.9-101.5,13.7
			C156.1,864.6,169.1,840.6,184.3,832.3L184.3,832.3z"/>
		
			<radialGradient id="path3815_1_" cx="520.1175" cy="980.2035" r="50.7691" gradientTransform="matrix(0.1341 0.4363 1.4975 -0.4603 -1330.1373 1058.5194)" gradientUnits="userSpaceOnUse">
			<stop  offset="0" style="stop-color:#F0E1CA"/>
			<stop  offset="1" style="stop-color:#E2C79E;stop-opacity:0"/>
		</radialGradient>
		<path id="path3815" class="st53" d="M184.3,832.3c24.5-13.4,70-5.6,74,34.1c-16.5,28.4-71.7,34.9-101.5,13.7
			C156.1,864.6,169.1,840.6,184.3,832.3L184.3,832.3z"/>
		
			<radialGradient id="path3623_1_" cx="-666.9413" cy="174.1174" r="50.7691" gradientTransform="matrix(1.1527 0 0 -1.0358 945.2344 1034.0239)" gradientUnits="userSpaceOnUse">
			<stop  offset="0" style="stop-color:#DAB782"/>
			<stop  offset="1" style="stop-color:#E2C79E;stop-opacity:0"/>
		</radialGradient>
		<path id="path3623" class="st54" d="M184.3,832.3c24.5-13.4,70-5.6,74,34.1c-16.5,28.4-71.7,34.9-101.5,13.7
			C156.1,864.6,169.1,840.6,184.3,832.3L184.3,832.3z"/>
		
			<radialGradient id="path3861_1_" cx="-618.1866" cy="153.5365" r="50.7691" gradientTransform="matrix(1.1527 0 0 -1.0358 945.2344 1034.0239)" gradientUnits="userSpaceOnUse">
			<stop  offset="0" style="stop-color:#503205"/>
			<stop  offset="1" style="stop-color:#2E210D;stop-opacity:0"/>
		</radialGradient>
		<path id="path3861" class="st55" d="M184.3,832.3c24.5-13.4,70-5.6,74,34.1c-16.5,28.4-71.7,34.9-101.5,13.7
			C156.1,864.6,169.1,840.6,184.3,832.3L184.3,832.3z"/>
	</g>
</g>
</svg>
