<svg xmlns="http://www.w3.org/2000/svg" xmlns:xlink="http://www.w3.org/1999/xlink" viewBox="0 0 60 75" version="1.1" x="0px" y="0px"><title>24 -Alchemy Set- (medieval, antique, old)</title><desc>Created with Sketch.</desc><g stroke="none" stroke-width="1" fill="none" fill-rule="evenodd" stroke-linecap="round" stroke-linejoin="round"><g transform="translate(-480.000000, -591.000000)" stroke="#000000" stroke-width="2"><g transform="translate(481.000000, 592.000000)"><polygon points="3 21 15 21 15 17 3 17"/><path d="M9,50.0005 L9,50.0005 C6.791,50.0005 5,48.2095 5,46.0005 L5,35.0005 L13,35.0005 L13,46.0005 C13,48.2095 11.209,50.0005 9,50.0005 L9,50.0005 Z"/><path d="M5,21.0005 L5,29.0005 L5,46.0005 C5,48.2095 6.791,50.0005 9,50.0005 C11.209,50.0005 13,48.2095 13,46.0005 L13,29.0005 L13,21.0005 L5,21.0005 L5,21.0005 Z"/><polygon points="36 10 48 10 48 6 36 6"/><polygon points="46 6.0005 38 6.0005 36 1.0005 48 1.0005"/><path d="M2,42.0005 L16,42.0005"/><path d="M28,40.0005 L56,40.0005"/><path d="M5,42.0005 L0,58.0005"/><path d="M30,40.0005 L26,58.0005"/><path d="M13,42.0005 L18,58.0005"/><path d="M55,35.0005 C55,42.1805 49.18,48.0005 42,48.0005 C34.82,48.0005 29,42.1805 29,35.0005 C29,27.8205 34.82,22.0005 42,22.0005 C49.18,22.0005 55,27.8205 55,35.0005 L55,35.0005 Z"/><path d="M42,22.0005 C43.397,22.0005 44.739,22.2265 46,22.6345 L46,20.0005 L46,10.0005 L38,10.0005 L38,20.0005 L38,22.6345 C39.261,22.2265 40.603,22.0005 42,22.0005 L42,22.0005 Z"/><path d="M38,17.0005 L32,17.0005"/><path d="M32,8.0005 L25,8.0005"/><path d="M17,8.0005 L9,8.0005"/><path d="M32,8.0005 L32,17.0005"/><polygon points="17 10 25 10 25 6 17 6"/><path d="M21,6.0005 L21,0.0005"/><path d="M9,17.0005 L9,8.0005"/><path d="M18,2.0005 L24,2.0005"/><path d="M54,40.0005 L58,58.0005"/><path d="M55,35.0005 C55,34.3195 54.932,33.6555 54.831,33.0015 L54,33.0025 C50.544,30.0835 45.086,30.5415 42.004,33.0005 L41.996,33.0025 C38.914,35.4615 33.456,35.9195 30,33.0005 L29.169,33.0005 C29.068,33.6545 29,34.3185 29,35.0005 C29,42.1805 34.82,48.0005 42,48.0005 C49.18,48.0005 55,42.1805 55,35.0005 L55,35.0005 Z"/></g></g></g><text x="0" y="75" fill="#000000" font-size="5px" font-weight="bold" font-family="'Helvetica Neue', Helvetica, Arial-Unicode, Arial, Sans-serif">Created by Ben Davis</text><text x="0" y="80" fill="#000000" font-size="5px" font-weight="bold" font-family="'Helvetica Neue', Helvetica, Arial-Unicode, Arial, Sans-serif">from the Noun Project</text></svg>