<svg xmlns:dc="http://purl.org/dc/elements/1.1/" xmlns:cc="http://creativecommons.org/ns#" xmlns:rdf="http://www.w3.org/1999/02/22-rdf-syntax-ns#" xmlns:svg="http://www.w3.org/2000/svg" xmlns="http://www.w3.org/2000/svg" xmlns:sodipodi="http://sodipodi.sourceforge.net/DTD/sodipodi-0.dtd" xmlns:inkscape="http://www.inkscape.org/namespaces/inkscape" viewBox="0 0 100 125" version="1.1" x="0px" y="0px"><g transform="translate(0,-952.36216)"><path style="color:#000000;clip-rule:nonzero;display:inline;overflow:visible;visibility:visible;opacity:1;isolation:auto;mix-blend-mode:normal;color-interpolation:sRGB;color-interpolation-filters:linearRGB;solid-color:#000000;solid-opacity:1;fill:#000000;fill-opacity:1;fill-rule:evenodd;stroke:none;stroke-width:2;stroke-linecap:round;stroke-linejoin:miter;stroke-miterlimit:4;stroke-dasharray:none;stroke-dashoffset:97.5;stroke-opacity:1;marker:none;color-rendering:auto;image-rendering:auto;shape-rendering:auto;text-rendering:auto;enable-background:accumulate" d="m 58.359086,960.05795 a 6.7119407,6.7119407 0 0 0 -6.712,6.71194 6.7119407,6.7119407 0 0 0 6.712,6.71194 6.7119407,6.7119407 0 0 0 6.7119,-6.71194 6.7119407,6.7119407 0 0 0 -6.7119,-6.71194 z m 2.2373,14.76627 c -2.8639,0 -5.1915,2.21033 -5.3801,5.02478 l -11.575,3.32888 c -1.493,0.42937 -2.3494,1.97704 -1.9201,3.47002 0.1892,0.65793 0.5959,1.19141 1.1191,1.54646 -3.9345,9.93333 -9.0225,16.36844 -12.8449,17.84254 -2.0761,0.8007 -3.6316,0.5395 -5.4267,-1.2794 -1.4936,-1.5133 -2.99039,-4.291 -4.17449,-8.4708 1.592,-0.2102 3.34639,-0.6 5.20649,-1.10686 l 3.8288,9.15946 c 1.4672,-0.6026 3.7812,-2.607 6.0635,-5.87996 0.9959,-1.42823 1.9988,-3.09237 2.9758,-4.96491 l -6.098,-10.10812 c -0.2327,-0.3183 -0.5124,-0.59065 -0.8249,-0.81932 0.094,-2.74344 -0.031,-6.52958 -1.4154,-6.83779 -0.092,-0.0205 -0.1835,-0.0279 -0.2745,-0.0231 l 0,4.5e-4 c -1.3638,0.071 -2.6118,2.85657 -3.3384,4.83076 -1.5378,-1.43709 -3.1914,-2.62932 -4.03679,-2.0918 -1.2449,0.79157 -0.065,3.86802 0.85169,5.83843 l -10.01859,7.20222 c -0.659,0.55288 -1.0536,1.21312 -0.5807,2.22552 0.6881,1.68958 2.1769,2.4937 4.2098,2.6957 1.289,4.94052 3.0117,8.45282 5.2371,10.70762 2.52909,2.5626 5.94049,3.2416 9.02269,2.0529 5.893,-2.2726 11.1184,-9.90992 15.2325,-20.95817 l 8.7675,-2.52135 0,10.06485 -7.8909,0 c -1.7945,0 -3.2393,1.44476 -3.2393,3.23929 0,0.34289 0.053,0.67263 0.1512,0.98232 l 4.5939,15.20286 c 0.5191,1.7178 2.3199,2.683 4.0377,2.1639 1.7178,-0.5191 2.683,-2.3203 2.1639,-4.0381 l -3.346,-11.0717 8.9231,0 0.7988,0 c 2.988,0 5.3935,-2.40555 5.3935,-5.39356 l 0,-16.62036 c 0,-2.98801 -2.4055,-5.39359 -5.3935,-5.39359 l -0.7988,0 z m 8.4039,23.45334 c -0.6825,3.57034 -3.8478,6.30334 -7.6051,6.30334 l -0.7988,0 -5.7589,0 2.4304,8.043 c 0.8839,2.9249 -0.808,6.0824 -3.733,6.9663 -2.9249,0.8838 -6.082,-0.8085 -6.9659,-3.7331 l -4.4021,-14.5679 c -2.9214,4.6004 -6.2499,7.8816 -10.067,9.4391 l 2.1124,5.0528 0,25.6338 c 0,1.8014 1.4501,3.2515 3.2514,3.2515 1.8015,0 3.252,-1.4501 3.252,-3.2515 l 0,-19.6233 19.6574,0 12.6434,0 0,19.6233 c 0,1.8014 1.4502,3.2515 3.2516,3.2515 1.8014,0 3.2515,-1.4501 3.2515,-3.2515 l 0,-39.6442 c 0.857705,0.091 1.528805,0.2341 2.008705,0.4291 0.8684,0.3529 1.2496,0.7268 1.6597,1.7532 0.8203,2.0527 0.9238,6.7875 0.9238,14.9197 -0.013,0.936 0.7419,1.7015 1.6779,1.7015 0.9362,0 1.6913,-0.7655 1.6781,-1.7015 0,-8.1235 0.1671,-12.8349 -1.1638,-16.1651 -0.6653,-1.6651 -1.9132,-2.96708 -3.5123,-3.61683 -1.5991,-0.64975 -3.435105,-0.78962 -5.732705,-0.78962 -0.093,-6.6e-4 -0.1854,0.006 -0.2771,0.0205 -0.1677,-0.0265 -0.3384,-0.0442 -0.5138,-0.0442 l -7.2678,0 z"/></g><text x="0" y="115" fill="#000000" font-size="5px" font-weight="bold" font-family="'Helvetica Neue', Helvetica, Arial-Unicode, Arial, Sans-serif">Created by Andrew Doane</text><text x="0" y="120" fill="#000000" font-size="5px" font-weight="bold" font-family="'Helvetica Neue', Helvetica, Arial-Unicode, Arial, Sans-serif">from the Noun Project</text></svg>