<?xml version="1.0" encoding="utf-8"?>
<!-- Generator: Adobe Illustrator 25.0.0, SVG Export Plug-In . SVG Version: 6.00 Build 0)  -->
<svg version="1.1"
	 id="svg2" inkscape:version="0.48+devel r9935" sodipodi:docname="Documento nuevo 1" xmlns:cc="http://creativecommons.org/ns#" xmlns:dc="http://purl.org/dc/elements/1.1/" xmlns:inkscape="http://www.inkscape.org/namespaces/inkscape" xmlns:ns1="http://sozi.baierouge.fr" xmlns:rdf="http://www.w3.org/1999/02/22-rdf-syntax-ns#" xmlns:sodipodi="http://sodipodi.sourceforge.net/DTD/sodipodi-0.dtd" xmlns:svg="http://www.w3.org/2000/svg"
	 xmlns="http://www.w3.org/2000/svg" xmlns:xlink="http://www.w3.org/1999/xlink" x="0px" y="0px" viewBox="0 0 247.9 262.1"
	 style="enable-background:new 0 0 247.9 262.1;" xml:space="preserve">
<style type="text/css">
	.st0{fill:#DB7631;}
	.st1{fill:#E6833E;}
	.st2{fill:#EF9354;}
	.st3{fill:#BF6325;}
	.st4{fill:#FFCA85;}
	.st5{fill:#F2B566;}
</style>
<sodipodi:namedview  bordercolor="#666666" borderopacity="1.0" id="base" inkscape:current-layer="layer1" inkscape:cx="273.52498" inkscape:cy="614.84559" inkscape:document-units="px" inkscape:pageopacity="0.0" inkscape:pageshadow="2" inkscape:window-height="787" inkscape:window-maximized="0" inkscape:window-width="1440" inkscape:window-x="0" inkscape:window-y="0" inkscape:zoom="0.42014768" pagecolor="#ffffff" showgrid="false">
	</sodipodi:namedview>
<g>
	<path class="st0" d="M247.9,17.3c0,16.8-68,17.3-100.4,17.3s-100.4,0-100.4-17.3c0-0.1,0-0.3,0-0.4c0.2-2.6,2.3-4.9,5.7-6.7
		C70,0.9,120.8,0,147.5,0c9.4,0,21.9,0.2,34.9,0.8c15.9,0.7,32.4,2.1,44.9,4.8C239.5,8.1,247.9,11.9,247.9,17.3z"/>
	<path class="st1" d="M236.2,13.7c0,15.9-64.4,16.4-95,16.4c-28.5,0-86.1,0-94.1-13.2c0.2-2.6,2.3-4.9,5.7-6.7
		C70,0.9,120.8,0,147.5,0c9.4,0,21.9,0.2,34.9,0.8c15.9,0.7,32.4,2.1,44.9,4.8C232.9,7.7,236.2,10.3,236.2,13.7z"/>
	<path class="st2" d="M218.7,8.5c0,5.2-37.4,9.4-83.5,9.4c-41.2,0-75.4-3.4-82.3-7.8C70,0.9,120.8,0,147.5,0
		c9.4,0,21.9,0.2,34.9,0.8C204.3,2.5,218.7,5.3,218.7,8.5z"/>
	<g>
		<path class="st3" d="M135,3.8c0,0,4,18.9,20.2,26.4C154.1,12.8,140,5.3,135,3.8z"/>
		<path class="st4" d="M135,3.8c6.1,3.2,13.6,8.1,20.2,26.4C141.2,20.7,135.1,4.2,135,3.8L135,3.8z"/>
		<path class="st5" d="M135,3.8l20.2,26.4C141.2,20.7,135.1,4.2,135,3.8z"/>
	</g>
	<g>
		<path class="st3" d="M116.7,3.8c0,0,4,18.9,20.2,26.4C135.9,12.8,121.7,5.3,116.7,3.8z"/>
		<path class="st4" d="M116.7,3.8c6.1,3.2,13.6,8.1,20.2,26.4C122.9,20.7,116.8,4.2,116.7,3.8L116.7,3.8z"/>
		<path class="st5" d="M116.7,3.8l20.2,26.4C122.9,20.7,116.8,4.2,116.7,3.8z"/>
	</g>
	<g>
		<path class="st3" d="M153.8,3.8c0,0,4,18.9,20.2,26.4C173,12.8,158.8,5.3,153.8,3.8z"/>
		<path class="st4" d="M153.8,3.8c6.1,3.2,13.6,8.1,20.2,26.4C160,20.7,154,4.2,153.8,3.8L153.8,3.8z"/>
		<path class="st5" d="M153.8,3.8L174,30.2C160,20.7,154,4.2,153.8,3.8z"/>
	</g>
	<g>
		<path class="st3" d="M98.2,3.8c0,0,4,18.9,20.2,26.4C117.4,12.8,103.2,5.3,98.2,3.8z"/>
		<path class="st4" d="M98.2,3.8c6.1,3.2,13.6,8.1,20.2,26.4C104.4,20.7,98.4,4.2,98.2,3.8L98.2,3.8z"/>
		<path class="st5" d="M98.2,3.8l20.2,26.4C104.4,20.7,98.4,4.2,98.2,3.8z"/>
	</g>
	<g>
		<path class="st3" d="M171.9,3.8c0,0,4,18.9,20.2,26.4C191,12.8,176.9,5.3,171.9,3.8z"/>
		<path class="st4" d="M171.9,3.8c6.1,3.2,13.6,8.1,20.2,26.4C178.1,20.7,172,4.2,171.9,3.8L171.9,3.8z"/>
		<path class="st5" d="M171.9,3.8l20.2,26.4C178.1,20.7,172,4.2,171.9,3.8z"/>
	</g>
	<g>
		<path class="st3" d="M83,6.8c0,0,3.2,15.4,16.5,21.5C98.6,14.1,87,8,83,6.8z"/>
		<path class="st4" d="M83,6.8c5,2.6,11.1,6.6,16.5,21.5C88,20.5,83.1,7,83,6.8L83,6.8z"/>
		<path class="st5" d="M83,6.8l16.5,21.5C88,20.5,83.1,7,83,6.8z"/>
	</g>
	<g>
		<path class="st3" d="M191,6.3c0,0,3.2,15.4,16.5,21.5C206.7,13.7,195.1,7.5,191,6.3z"/>
		<path class="st4" d="M191,6.3c5,2.6,11.1,6.6,16.5,21.5C196.1,20.1,191.1,6.6,191,6.3L191,6.3z"/>
		<path class="st5" d="M191,6.3l16.5,21.5C196.1,20.1,191.1,6.6,191,6.3z"/>
	</g>
	<g>
		<path class="st3" d="M206.7,6.1c0,0,3.2,15.4,16.5,21.5C222.3,13.5,210.7,7.3,206.7,6.1z"/>
		<path class="st4" d="M206.7,6.1c5,2.6,11.1,6.6,16.5,21.5C211.7,19.8,206.8,6.4,206.7,6.1L206.7,6.1z"/>
		<path class="st5" d="M206.7,6.1l16.5,21.5C211.7,19.8,206.8,6.4,206.7,6.1z"/>
	</g>
	<g>
		<path class="st3" d="M67.5,7.7c0,0,3.2,15.4,16.5,21.5C83.1,15,71.5,8.9,67.5,7.7z"/>
		<path class="st4" d="M67.5,7.7c5,2.6,11.1,6.6,16.5,21.5C72.5,21.4,67.6,7.9,67.5,7.7L67.5,7.7z"/>
		<path class="st5" d="M67.5,7.7L84,29.2C72.5,21.4,67.6,7.9,67.5,7.7z"/>
	</g>
	<path class="st0" d="M230,22.9c0,0-2.1-1.5-1.9-2.8c0.2-1.3,1.9-3.3,2.9-3.2c1,0.1,3.4,0.9,3.5,2.5c0,1.6-0.5,3.1-1.2,3.5
		C232.6,23.2,230.9,23.1,230,22.9z"/>
	<path class="st0" d="M223.6,19.2c-0.5-0.7-0.9-1.8,0-2.4s2.4-0.8,2.6,0c0.2,0.7-0.7,2.5-0.7,2.5S224,19.7,223.6,19.2z"/>
	<path class="st0" d="M230.4,12.9c-0.6-0.8-0.2-1.6,0.7-1.5s1.4,0.3,1.4,1C232.5,13.2,230.8,13.4,230.4,12.9z"/>
	<path class="st0" d="M123.5,31.5c0,0-2.1-1.5-1.9-2.8s1.9-3.3,2.9-3.2c1,0.1,3.4,0.9,3.5,2.5c0,1.6-0.5,3.1-1.2,3.5
		C126.1,31.8,124.3,31.6,123.5,31.5z"/>
	<path class="st0" d="M158.7,28.2c-0.5-0.7-0.9-1.8,0-2.4s2.4-0.8,2.6,0c0.2,0.7-0.7,2.5-0.7,2.5S159,28.6,158.7,28.2z"/>
	<path class="st1" d="M126.5,5.9c-0.3-1.2,1.9-3,3.1-2.6s2.9,1.9,2.3,3s-2.1,1.5-3.1,1.2C127.7,7.3,126.7,6.7,126.5,5.9z"/>
	<path class="st0" d="M164.2,7.2c-0.3-1.2,1.9-3,3.1-2.6c1.2,0.4,2.9,1.9,2.3,3c-0.7,1.1-2.1,1.5-3.1,1.2
		C165.4,8.6,164.3,8,164.2,7.2z"/>
	<path class="st1" d="M91.9,8c-1.1-1.3-0.4-2.8,1-3S96,5.7,96,6.6C96.1,7.5,93.2,9.5,91.9,8z"/>
	<path class="st1" d="M81.2,14.1c-0.8-0.1-2.1-1.3-1.4-2.1s1.4-0.9,2.1,0S82.2,14.2,81.2,14.1z"/>
	<path class="st0" d="M176.2,29.2c-1-1.7,0.8-3.6,2.4-3.6c1.5,0,4.1,1,4.5,2.2s-0.8,3-2.6,3C178.8,30.8,176.6,29.8,176.2,29.2z"/>
	<path class="st0" d="M170.3,13.5c0,0-1.2-1-0.2-1.9s1.9-0.3,2.2,0.4C172.7,12.7,171.6,14.4,170.3,13.5z"/>
	<path class="st1" d="M150.5,8.2c-0.8-0.8-0.4-1.6,0.2-1.6c0.5,0,1.6,0.3,1.6,1.2C152.2,8.7,151.2,9,150.5,8.2z"/>
	<path class="st1" d="M143.9,4.4c0.5,0.9,1.9,0.4,2.2,0s0.2-1.4-0.7-1.4C144.6,3,143.4,3.4,143.9,4.4z"/>
</g>
<g>
	<path class="st0" d="M247.9,71.9c0,15.5-68,12-100.4,12s-100.4,3.9-100.4-12c0-0.1,0-0.2,0-0.4c0.1-1.3,2.1-3.7,4.4-5.9
		c2-1.8,4.2-3.5,5.8-4.3c3.3-1.6,7.6-3,12.7-4.1c1.1,0.4,2.3,0.9,3.5,1.5c1.5-1.8,3.4-2.7,4.9-3.1c0.8-0.1,1.6-0.2,2.5-0.4l0,0
		c4-0.6,8.2-1,12.6-1.4c0.1,0,0.2,0,0.3,0c0.9,0.4,2,0.9,3.1,1.5c2.5-1.4,4.9-2,6.5-2.2c0.8,0,1.5-0.1,2.3-0.1
		c4.5-0.3,9.1-0.5,13.5-0.6h0.1c1.1,0.4,2.5,1.1,4.1,1.9c2.5-1.4,4.9-2,6.6-2.1c0.9,0,1.7,0,2.6,0c4.7-0.1,9.2-0.1,13.2-0.1h0.2
		c0.2,0.1,0.4,0.2,0.7,0.4c1,0.4,2.2,1,3.5,1.6c3.7-1.8,8.8-1.9,9.5-1.9c0.1,0,0.1,0,0.1,0c2.9,0,5.8,0.1,8.9,0.2
		c2.4,0.1,4.8,0.6,7,1.7l0,0c2.3-1,5.6-1.3,7.9-1.2c1,0,2,0.1,2.9,0.1h0.1c3.4,0.2,6.9,0.4,10.3,0.6c1.8,0.5,3.6,0.9,5.4,1.4
		c0.5,0.2,1,0.4,1.5,0.7c2.4-0.8,5.3-0.9,7.5-0.8l0,0c1.5,0.2,3.1,0.4,4.5,0.5l0,0c4,0.5,7.7,1.1,11.2,1.8c0.3,0.1,0.6,0.1,0.9,0.2
		C239.9,59.8,247.9,67,247.9,71.9z"/>
	<path class="st1" d="M237.6,70.2C234.7,80,51.4,86.8,50.7,69c0.1-1.2,0.4-2.3,0.9-3.4c2-1.8,4.2-3.5,5.8-4.3
		c1.5-0.8,3.3-1.5,5.3-2.1c2.2-0.7,4.7-1.4,7.4-2c1.1,0.4,2.3,0.9,3.5,1.5c1.5-1.8,3.4-2.7,4.9-3.1c0.8-0.1,1.6-0.2,2.5-0.4l0,0
		c4-0.6,8.2-1,12.6-1.4c0.1,0,0.2,0,0.3,0c0.9,0.4,2,0.9,3.1,1.5c2.5-1.4,4.9-2,6.5-2.2c0.8,0,1.5-0.1,2.3-0.1
		c4.5-0.3,9.1-0.5,13.5-0.6h0.1c1.1,0.4,2.5,1.1,4.1,1.9c2.5-1.4,4.9-2,6.6-2.1c0.9,0,1.7,0,2.6,0c4.7-0.1,9.2-0.1,13.2-0.1h0.2
		c0.2,0.1,0.4,0.2,0.7,0.4c1,0.4,2.2,1,3.5,1.6c3.7-1.8,8.8-1.9,9.5-1.9c0.1,0,0.1,0,0.1,0c2.9,0,5.8,0.1,8.9,0.2
		c2.4,0.1,4.8,0.6,7,1.7l0,0c2.3-1,5.6-1.3,7.9-1.2c1,0,2,0.1,2.9,0.1h0.1c3.4,0.2,6.9,0.4,10.3,0.6c1.8,0.5,3.6,0.9,5.4,1.4
		c0.5,0.2,1,0.4,1.5,0.7c2.4-0.8,5.3-0.9,7.5-0.8l0,0c1.5,0.2,3.1,0.4,4.5,0.5l0,0c0.4,0.1,0.9,0.1,1.3,0.2c3.5,0.5,6.8,1,9.8,1.6
		c0.3,0.1,0.6,0.1,0.9,0.2C233.7,60.4,239.1,64.9,237.6,70.2z"/>
	<path class="st2" d="M219.6,58.9C219.8,66.8,58.4,80,57.5,65c-0.1-2,1.8-4,5.2-5.8c2.2-0.7,4.7-1.4,7.4-2c1.1,0.4,2.3,0.9,3.5,1.5
		c1.5-1.8,3.4-2.7,4.9-3.1c0.8-0.1,1.6-0.2,2.5-0.4l0,0c4-0.6,8.2-1,12.6-1.4c0.1,0,0.2,0,0.3,0c0.9,0.4,2,0.9,3.1,1.5
		c2.5-1.4,4.9-2,6.5-2.2c0.8,0,1.5-0.1,2.3-0.1c4.5-0.3,9.1-0.5,13.5-0.6h0.1c1.1,0.4,2.5,1.1,4.1,1.9c2.5-1.4,4.9-2,6.6-2.1
		c0.9,0,1.7,0,2.6,0c4.7-0.1,9.2-0.1,13.2-0.1h0.2c0.2,0.1,0.4,0.2,0.7,0.4c1,0.4,2.2,1,3.5,1.6c3.7-1.8,8.8-1.9,9.5-1.9
		c0.1,0,0.1,0,0.1,0c2.9,0,5.8,0.1,8.9,0.2c2.4,0.1,4.8,0.6,7,1.7l0,0c2.3-1,5.6-1.3,7.9-1.2c1,0,2,0.1,2.9,0.1h0.1
		c3.4,0.2,6.9,0.4,10.3,0.6c1.8,0.5,3.6,0.9,5.4,1.4c0.5,0.2,1,0.4,1.5,0.7c2.4-0.8,5.3-0.9,7.5-0.8l0,0c1.5,0.2,3.1,0.4,4.5,0.5
		l0,0c0.4,0.1,0.9,0.1,1.3,0.2C218.8,56.5,219.6,57.7,219.6,58.9z"/>
	<path class="st0" d="M212.7,78.5c0,0-2.1-1.5-1.9-2.8c0.2-1.3,1.9-3.3,2.9-3.2c1,0.1,3.4,0.9,3.5,2.5c0,1.6-0.5,3.1-1.2,3.5
		C215.3,78.8,213.6,78.6,212.7,78.5z"/>
	<path class="st0" d="M206.4,74.8c-0.5-0.7-0.9-1.8,0-2.4s2.4-0.8,2.6,0s-0.7,2.5-0.7,2.5S206.7,75.2,206.4,74.8z"/>
	<path class="st0" d="M213.1,68.5c-0.6-0.8-0.2-1.6,0.7-1.5s1.4,0.3,1.4,1C215.2,68.8,213.5,69,213.1,68.5z"/>
	<path class="st0" d="M98.4,75.7c-0.6-0.8-0.2-1.6,0.7-1.5c0.9,0.1,1.4,0.3,1.4,1C100.4,76,98.7,76.2,98.4,75.7z"/>
	<path class="st0" d="M128.6,81.4c0,0-2.1-1.5-1.9-2.8s1.9-3.3,2.9-3.2s3.4,0.9,3.5,2.5c0,1.6-0.5,3.1-1.2,3.5
		C131.2,81.7,129.5,81.6,128.6,81.4z"/>
	<path class="st0" d="M229.2,69.4c-0.5-0.7-0.9-1.8,0-2.4s2.4-0.8,2.6,0c0.2,0.7-0.7,2.5-0.7,2.5S229.5,69.8,229.2,69.4z"/>
	<path class="st0" d="M136.4,77.7c-0.5-0.7-0.9-1.8,0-2.4s2.4-0.8,2.6,0c0.2,0.7-0.7,2.5-0.7,2.5S136.8,78.1,136.4,77.7z"/>
	<path class="st1" d="M120,70.7c-0.3-1.2,1.9-3,3.1-2.6s2.9,1.9,2.3,3c-0.7,1.1-2.1,1.5-3.1,1.2C121.2,72,120.2,71.4,120,70.7z"/>
	<path class="st1" d="M176.1,62.6c-1.1-1.3-0.4-2.8,1-3s3.1,0.7,3.1,1.6C180.3,62.2,177.4,64.1,176.1,62.6z"/>
	<path class="st1" d="M172.8,66.7c-0.8-0.1-2.1-1.3-1.4-2.1c0.7-0.8,1.4-0.9,2.1,0C174.2,65.5,173.9,66.9,172.8,66.7z"/>
	<path class="st0" d="M189.2,78.5c-1-1.7,0.8-3.6,2.4-3.6c1.5,0,4.1,1,4.5,2.2s-0.8,3-2.6,3C191.8,80.1,189.6,79.1,189.2,78.5z"/>
	<path class="st1" d="M92.6,69.9c-0.8-0.8-0.4-1.6,0.2-1.6c0.5,0,1.6,0.3,1.6,1.2C94.3,70.3,93.3,70.6,92.6,69.9z"/>
	<path class="st1" d="M120.2,62.2c-0.8-0.8-0.4-1.6,0.2-1.6c0.5,0,1.6,0.3,1.6,1.2C121.9,62.7,120.9,63,120.2,62.2z"/>
	<path class="st1" d="M73.6,66.7c0.5,0.9,1.9,0.4,2.2,0c0.3-0.4,0.2-1.4-0.7-1.4C74.3,65.3,73.1,65.7,73.6,66.7z"/>
	<path class="st1" d="M127.1,65.4c0.5,0.9,1.9,0.4,2.2,0s0.2-1.4-0.7-1.4C127.8,63.9,126.6,64.4,127.1,65.4z"/>
	<g>
		<path class="st4" d="M91.3,75.3L91.3,75.3L91.3,75.3C87.6,67,79.8,61.8,73.6,58.8c0.6-0.7,1.2-1.2,1.8-1.7
			c1.1-0.7,2.2-1.2,3.1-1.4c0.2,0,0.3,0,0.5-0.1c0.7-0.1,1.3-0.2,2-0.3l0,0C85.7,58,89.9,63.8,91.3,75.3z"/>
		<path class="st4" d="M115.9,74.5L115.9,74.5L115.9,74.5c-3.6-9.8-12.6-15.9-18.9-19.2c1.5-0.8,2.9-1.4,4.2-1.7
			c0.9-0.2,1.7-0.4,2.4-0.5c0.1,0,0.2,0,0.3,0c0.7,0,1.3-0.1,2-0.1c5,2.7,9.3,8.6,10.1,20.6c0,0.1,0,0.2,0,0.2c0,0.1,0,0.3,0,0.4
			C115.9,74.4,115.9,74.4,115.9,74.5L115.9,74.5z"/>
		<path class="st4" d="M142.8,73.6L142.8,73.6c-3.6-10-13-16.2-19.3-19.4c1.4-0.8,2.8-1.4,4.1-1.7c0.7-0.2,1.3-0.3,1.8-0.4
			c0.2,0,0.4-0.1,0.7-0.1c0.9,0,1.7,0,2.6,0c5.1,2.7,9.4,8.7,10.1,21l0,0C142.8,73.2,142.8,73.4,142.8,73.6z"/>
		<path class="st4" d="M223.7,75.1L223.7,75.1C220,64.9,210.4,58.7,204,55.6c1.8-0.6,3.8-0.8,5.7-0.8c0.6,0,1.3,0,1.8,0l0,0
			c0.8,0.1,1.6,0.2,2.4,0.3c0.7,0.1,1.4,0.2,2.1,0.3l0,0C220.1,58.6,223.2,64.6,223.7,75.1z"/>
		<path class="st4" d="M146.1,52c0.2,0.1,0.4,0.2,0.7,0.4c-0.3-0.1-0.6-0.3-0.9-0.4H146.1z"/>
		<path class="st4" d="M169.6,73.3L169.6,73.3L169.6,73.3c-3.6-10-13-16.2-19.3-19.4c1.3-0.6,2.7-1.1,4.1-1.3
			c1.1-0.2,2.2-0.4,3.1-0.4c1.2-0.1,2.1-0.1,2.4-0.1c0.1,0,0.1,0,0.1,0C164.9,54.9,169.1,61,169.6,73.3z"/>
		<path class="st4" d="M195.2,73.3L195.2,73.3L195.2,73.3L195.2,73.3L195.2,73.3c-3.7-10-13-16.1-19.3-19.3c1.2-0.5,2.6-0.8,3.9-1
			c1.1-0.1,2.2-0.2,3.1-0.2c0.3,0,0.6,0,0.8,0c1,0,2,0.1,2.9,0.1h0.1C191.2,56,194.7,62.1,195.2,73.3z"/>
		<path class="st3" d="M91.3,75.3c-0.2-0.9-2.7-14.2-12.3-19.7c0.7-0.1,1.3-0.2,2-0.3l0,0C85.7,58,89.9,63.8,91.3,75.3z"/>
		<path class="st3" d="M91.3,75.3L91.3,75.3L91.3,75.3L91.3,75.3z"/>
		<path class="st3" d="M115.8,73.6c-0.3-3.2-1.9-13.8-12-20.5c0.7,0,1.3-0.1,2-0.1C110.8,55.7,115.1,61.6,115.8,73.6z"/>
		<path class="st3" d="M142.8,73c-0.4-3.1-3.7-16.9-13.4-20.8c0.2,0,0.4-0.1,0.7-0.1c0.9,0,1.7,0,2.6,0
			C137.7,54.7,142.1,60.7,142.8,73z"/>
		<path class="st3" d="M142.8,73.6v-0.2C142.9,73.5,142.9,73.6,142.8,73.6z"/>
		<path class="st3" d="M169.6,73.3L169.6,73.3c-0.1-0.6-3.2-17-12.1-21.1c1.2-0.1,2.1-0.1,2.4-0.1c0.1,0,0.1,0,0.1,0
			C164.9,54.9,169.1,61,169.6,73.3z"/>
		<path class="st3" d="M195.2,73.3L195.2,73.3L195.2,73.3c-0.1-0.5-3.1-16.5-12.2-20.6c0.3,0,0.6,0,0.8,0c1,0,2,0.1,2.9,0.1h0.1
			C191.2,56,194.7,62.1,195.2,73.3z"/>
		<path class="st3" d="M223.7,75.1L223.7,75.1c-0.1-0.4-1.9-12.7-9.7-20.1c0.7,0.1,1.4,0.2,2.1,0.3l0,0
			C220.1,58.6,223.2,64.6,223.7,75.1z"/>
		<path class="st5" d="M91.3,75.3C87.6,67,79.8,61.8,73.6,58.8c0.6-0.7,1.2-1.2,1.8-1.7C88.1,63.1,91.2,74.8,91.3,75.3z"/>
		<path class="st5" d="M115.9,74.5L115.9,74.5c-3.6-9.8-12.6-15.9-18.9-19.1c1.5-0.8,2.9-1.4,4.2-1.7
			C111.8,60.5,115.9,74.5,115.9,74.5z"/>
		<path class="st5" d="M142.8,73.6c-3.6-10-13-16.2-19.3-19.3c1.4-0.8,2.8-1.4,4.1-1.7C139.7,61,142.7,73.1,142.8,73.6z"/>
		<path class="st5" d="M169.6,73.3c-3.6-10-12.9-16.1-19.3-19.3c1.3-0.6,2.7-1.1,4.1-1.3C165.4,60.2,169.5,72.9,169.6,73.3z"/>
		<path class="st5" d="M195.2,73.3c-3.6-9.9-12.9-16.1-19.3-19.3c1.2-0.5,2.6-0.8,3.9-1C190.7,59.6,194.9,72.3,195.2,73.3z"/>
		<path class="st5" d="M223.7,75.1C220,65,210.4,58.7,204,55.6c1.8-0.6,3.8-0.8,5.7-0.8C219.1,61.4,223.4,74.1,223.7,75.1z"/>
	</g>
</g>
<g>
	<g>
		<path class="st0" d="M247.9,122.9c0,15.5-68,12-100.4,12c-12.6,0-30.6,0.6-47.9,0.4c-1.3,0-2.6,0-3.8-0.1
			c-5.6-0.8-11.3-4.5-15.2-6c-1.1-0.4-2-0.7-2.7-0.7c-3.5-0.1-7.5-3.1-8-7.1c-0.1-0.6-0.1-1.2,0-1.9c0.7-4.5,3.9-5.9,6.4-8.2
			c0.2-0.2,0.5-0.4,0.7-0.7c0.3-0.4,0.7-0.7,1-1c0.7-0.8,1.5-1.4,2.3-2c0.4-0.3,0.8-0.5,1.3-0.8c0.7-0.3,1.4-0.6,2.2-0.8
			c1.1-0.1,2.2-0.3,3.3-0.4c2.1-0.2,4.2-0.4,6.4-0.6c0.1,0,0.2,0,0.3,0c0.9,0.4,2,0.9,3.1,1.5c0.4-0.2,0.7-0.4,1.1-0.6
			c0.2-0.1,0.3-0.2,0.5-0.2c0.9-0.4,1.8-0.7,2.5-0.9c0.1,0,0.3-0.1,0.4-0.1c0.2,0,0.4-0.1,0.5-0.1c0.3-0.1,0.7-0.1,0.9-0.2
			c0.2,0,0.3,0,0.5-0.1c0.1,0,0.2,0,0.3,0c0.7,0,1.3-0.1,2-0.1c4.5-0.3,9.1-0.5,13.5-0.6h0.1c1.1,0.4,2.5,1.1,4.1,1.9
			c0.2-0.1,0.5-0.3,0.7-0.4c0.1-0.1,0.2-0.1,0.4-0.2c0.1-0.1,0.3-0.1,0.4-0.2s0.3-0.1,0.4-0.2c0.1,0,0.2-0.1,0.3-0.1
			c0.2-0.1,0.3-0.1,0.5-0.2s0.3-0.1,0.5-0.2c0.3-0.1,0.6-0.2,0.9-0.3h0.1c0.1,0,0.2-0.1,0.3-0.1c0.2,0,0.3-0.1,0.5-0.1
			c0.1,0,0.2,0,0.3-0.1c0.3-0.1,0.5-0.1,0.7-0.1l0,0c0.2,0,0.4-0.1,0.7-0.1c0.9,0,1.7,0,2.6,0c4.7-0.1,9.2-0.1,13.2-0.1h0.2
			c0.2,0.1,0.4,0.2,0.7,0.4c1,0.4,2.2,1,3.5,1.6c0.1-0.1,0.2-0.1,0.4-0.2c0.1,0,0.2-0.1,0.3-0.1c0.3-0.1,0.6-0.3,1-0.4
			c0.1,0,0.3-0.1,0.4-0.1c0.3-0.1,0.6-0.2,0.9-0.3c0.1,0,0.3-0.1,0.4-0.1c0.1,0,0.3-0.1,0.4-0.1c0.1,0,0.2-0.1,0.4-0.1l0,0
			c0.2-0.1,0.5-0.1,0.7-0.1c0.1,0,0.2,0,0.3,0c0.7-0.1,1.5-0.2,2.1-0.3c0.2,0,0.3,0,0.4,0c0.2,0,0.4,0,0.6,0c0.1,0,0.1,0,0.2,0
			c0.1,0,0.1,0,0.2,0c0.5,0,0.8,0,1,0c0.1,0,0.1,0,0.1,0c2.9,0,5.8,0.1,8.9,0.2c2.4,0.1,4.8,0.6,7,1.7l0,0c0.3-0.1,0.5-0.2,0.8-0.3
			h0.1c0.3-0.1,0.5-0.2,0.8-0.2c0.5-0.1,1.1-0.3,1.6-0.3c0.2,0,0.3,0,0.5-0.1h0.1c0.1,0,0.3,0,0.4,0c0.3,0,0.7-0.1,1-0.1
			c0.1,0,0.2,0,0.4,0c0.3,0,0.7,0,1,0c0.1,0,0.2,0,0.4,0c0.3,0,0.6,0,0.8,0c1,0,2,0.1,2.9,0.1h0.1c3.4,0.2,6.9,0.4,10.3,0.6
			c1.8,0.5,3.6,0.9,5.4,1.4c0.5,0.2,1,0.4,1.5,0.7c0.2-0.1,0.5-0.1,0.7-0.2c0.1,0,0.2-0.1,0.4-0.1c0.5-0.1,1-0.2,1.4-0.3
			c0.1,0,0.2,0,0.3,0c0.3,0,0.5-0.1,0.8-0.1c0.2,0,0.4,0,0.6,0h0.2c0.5,0,0.9,0,1.4,0l0,0c0.6,0,1.3,0,1.8,0l0,0
			c0.8,0.1,1.6,0.2,2.4,0.3c0.7,0.1,1.4,0.2,2.1,0.3l0,0c0.4,0.1,0.9,0.1,1.3,0.2c0.9,0.1,1.8,0.3,2.7,0.4c0.8,0.1,1.6,0.2,2.4,0.4
			c0.4,0.1,0.8,0.1,1.2,0.2c1.2,0.2,2.4,0.4,3.5,0.6c0.3,0.1,0.6,0.1,0.9,0.2C239.9,110.8,247.9,118,247.9,122.9z"/>
		<path class="st1" d="M237.6,121.2c-0.5,1.6-5.6,3.1-13.9,4.4c0,0,0,0-0.1,0h-0.1l0,0c-1.9,0.3-4,0.6-6.3,0.9
			c-2,0.3-4.1,0.5-6.3,0.7c-4.5,0.5-9.5,0.9-14.7,1.3c-2.3,0.2-4.7,0.4-7.1,0.5c-17.2,1.2-37.1,1.9-56.3,1.9c-1.9,0-3.7,0-5.6,0
			c-7.1,0-14.1-0.1-20.8-0.4c-9.4-0.3-18.1-0.8-25.8-1.5c-1.1-0.4-2-0.7-2.7-0.7c-3.5-0.1-7.5-3.1-8-7.1c-0.1-0.6-0.1-1.2,0-1.9
			c0.7-4.5,3.9-5.9,6.4-8.2c0.2-0.2,0.5-0.4,0.7-0.7c0.3-0.4,0.7-0.7,1-1c0.7-0.8,1.5-1.4,2.3-2c0.4-0.3,0.8-0.5,1.3-0.8
			c0.7-0.3,1.4-0.6,2.2-0.8c1.1-0.1,2.2-0.3,3.3-0.4c2.1-0.2,4.2-0.4,6.4-0.6c0.1,0,0.2,0,0.3,0c0.9,0.4,2,0.9,3.1,1.5
			c0.4-0.2,0.7-0.4,1.1-0.6c0.2-0.1,0.3-0.2,0.5-0.2c0.9-0.4,1.8-0.7,2.5-0.9c0.1,0,0.3-0.1,0.4-0.1c0.2,0,0.4-0.1,0.5-0.1
			c0.3-0.1,0.7-0.1,0.9-0.2c0.2,0,0.3,0,0.5-0.1c0.1,0,0.2,0,0.3,0c0.7,0,1.3-0.1,2-0.1c4.5-0.3,9.1-0.5,13.5-0.6h0.1
			c1.1,0.4,2.5,1.1,4.1,1.9c0.2-0.1,0.5-0.3,0.7-0.4c0.1-0.1,0.2-0.1,0.4-0.2c0.1-0.1,0.3-0.1,0.4-0.2s0.3-0.1,0.4-0.2
			c0.1,0,0.2-0.1,0.3-0.1c0.2-0.1,0.3-0.1,0.5-0.2s0.3-0.1,0.5-0.2c0.3-0.1,0.6-0.2,0.9-0.3h0.1c0.1,0,0.2-0.1,0.3-0.1
			c0.2,0,0.3-0.1,0.5-0.1c0.1,0,0.2,0,0.3-0.1c0.3-0.1,0.5-0.1,0.7-0.1l0,0c0.2,0,0.4-0.1,0.7-0.1c0.9,0,1.7,0,2.6,0
			c4.7-0.1,9.2-0.1,13.2-0.1h0.2c0.2,0.1,0.4,0.2,0.7,0.4c1,0.4,2.2,1,3.5,1.6c0.1-0.1,0.2-0.1,0.4-0.2c0.1,0,0.2-0.1,0.3-0.1
			c0.3-0.1,0.6-0.3,1-0.4c0.1,0,0.3-0.1,0.4-0.1c0.3-0.1,0.6-0.2,0.9-0.3c0.1,0,0.3-0.1,0.4-0.1c0.1,0,0.3-0.1,0.4-0.1
			c0.1,0,0.2-0.1,0.4-0.1l0,0c0.2-0.1,0.5-0.1,0.7-0.1c0.1,0,0.2,0,0.3,0c0.7-0.1,1.5-0.2,2.1-0.3c0.2,0,0.3,0,0.4,0
			c0.2,0,0.4,0,0.6,0c0.1,0,0.1,0,0.2,0c0.1,0,0.1,0,0.2,0c0.5,0,0.8,0,1,0c0.1,0,0.1,0,0.1,0c2.9,0,5.8,0.1,8.9,0.2
			c2.4,0.1,4.8,0.6,7,1.7l0,0c0.3-0.1,0.5-0.2,0.8-0.3h0.1c0.3-0.1,0.5-0.2,0.8-0.2c0.5-0.1,1.1-0.3,1.6-0.3c0.2,0,0.3,0,0.5-0.1
			h0.1c0.1,0,0.3,0,0.4,0c0.3,0,0.7-0.1,1-0.1c0.1,0,0.2,0,0.4,0c0.3,0,0.7,0,1,0c0.1,0,0.2,0,0.4,0c0.3,0,0.6,0,0.8,0
			c1,0,2,0.1,2.9,0.1h0.1c3.4,0.2,6.9,0.4,10.3,0.6c1.8,0.5,3.6,0.9,5.4,1.4c0.5,0.2,1,0.4,1.5,0.7c0.2-0.1,0.5-0.1,0.7-0.2
			c0.1,0,0.2-0.1,0.4-0.1c0.5-0.1,1-0.2,1.4-0.3c0.1,0,0.2,0,0.3,0c0.3,0,0.5-0.1,0.8-0.1c0.2,0,0.4,0,0.6,0h0.2c0.5,0,0.9,0,1.4,0
			l0,0c0.6,0,1.3,0,1.8,0l0,0c0.8,0.1,1.6,0.2,2.4,0.3c0.7,0.1,1.4,0.2,2.1,0.3l0,0c0.4,0.1,0.9,0.1,1.3,0.2
			c0.9,0.1,1.8,0.3,2.7,0.4c0.8,0.1,1.6,0.2,2.4,0.4c0.4,0.1,0.8,0.1,1.2,0.2c1.2,0.2,2.4,0.4,3.5,0.6c0.3,0.1,0.6,0.1,0.9,0.2
			C233.7,111.4,239.1,115.9,237.6,121.2z"/>
		<path class="st2" d="M219.6,109.9c0,0.1,0,0.2-0.1,0.3c-0.2,0.3-0.6,0.7-1.3,1c-0.5,0.3-1.2,0.5-2,0.8c-0.7,0.2-1.5,0.5-2.4,0.7
			c-4.5,1.2-11.3,2.4-19.6,3.6c-0.4,0.1-0.8,0.1-1.2,0.2s-0.8,0.1-1.2,0.2c-0.2,0-0.5,0.1-0.7,0.1c-6.6,0.9-14,1.7-21.9,2.4
			c-0.3,0-0.5,0-0.8,0.1c-0.3,0-0.5,0.1-0.8,0.1c-0.1,0-0.2,0-0.3,0c-7.9,0.7-16.3,1.4-24.7,1.9c-0.1,0-0.2,0-0.3,0
			c-0.2,0-0.3,0-0.5,0c-0.1,0-0.2,0-0.3,0c-5.4,0.3-10.8,0.6-16.2,0.9c-1.6,0.1-3.2,0.1-4.7,0.2c-1.6,0.1-3.2,0.1-4.8,0.2h-0.1
			c-0.2,0-0.5,0-0.7,0c-0.1,0-0.1,0-0.2,0c-3.1,0.1-6.1,0.1-9.1,0.2c-5.2,0.1-10.2,0-14.8-0.1c-0.1,0-0.2,0-0.3,0
			c-0.2,0-0.3,0-0.5,0s-0.4,0-0.6,0c-7.5-0.2-14.1-0.6-19.3-1.4c-0.1-0.6-0.1-1.2,0-1.9c0.7-4.5,3.9-5.9,6.4-8.2
			c0.2-0.2,0.5-0.4,0.7-0.7c0.3-0.4,0.7-0.7,1-1c0.7-0.8,1.5-1.4,2.3-2c0.4-0.3,0.8-0.5,1.3-0.8c0.7-0.3,1.4-0.6,2.2-0.8
			c1.1-0.1,2.2-0.3,3.3-0.4c2.1-0.2,4.2-0.4,6.4-0.6c0.1,0,0.2,0,0.3,0c0.9,0.4,2,0.9,3.1,1.5c0.4-0.2,0.7-0.4,1.1-0.6
			c0.2-0.1,0.3-0.2,0.5-0.2c0.9-0.4,1.8-0.7,2.5-0.9c0.1,0,0.3-0.1,0.4-0.1c0.2,0,0.4-0.1,0.5-0.1c0.3-0.1,0.7-0.1,0.9-0.2
			c0.2,0,0.3,0,0.5-0.1c0.1,0,0.2,0,0.3,0c0.7,0,1.3-0.1,2-0.1c4.5-0.3,9.1-0.5,13.5-0.6h0.1c1.1,0.4,2.5,1.1,4.1,1.9
			c0.2-0.1,0.5-0.3,0.7-0.4c0.1-0.1,0.2-0.1,0.4-0.2c0.1-0.1,0.3-0.1,0.4-0.2s0.3-0.1,0.4-0.2c0.1,0,0.2-0.1,0.3-0.1
			c0.2-0.1,0.3-0.1,0.5-0.2s0.3-0.1,0.5-0.2c0.3-0.1,0.6-0.2,0.9-0.3h0.1c0.1,0,0.2-0.1,0.3-0.1c0.2,0,0.3-0.1,0.5-0.1
			c0.1,0,0.2,0,0.3-0.1c0.3-0.1,0.5-0.1,0.7-0.1l0,0c0.2,0,0.4-0.1,0.7-0.1c0.9,0,1.7,0,2.6,0c4.7-0.1,9.2-0.1,13.2-0.1h0.2
			c0.2,0.1,0.4,0.2,0.7,0.4c1,0.4,2.2,1,3.5,1.6c0.1-0.1,0.2-0.1,0.4-0.2c0.1,0,0.2-0.1,0.3-0.1c0.3-0.1,0.6-0.3,1-0.4
			c0.1,0,0.3-0.1,0.4-0.1c0.3-0.1,0.6-0.2,0.9-0.3c0.1,0,0.3-0.1,0.4-0.1c0.1,0,0.3-0.1,0.4-0.1c0.1,0,0.2-0.1,0.4-0.1l0,0
			c0.2-0.1,0.5-0.1,0.7-0.1c0.1,0,0.2,0,0.3,0c0.7-0.1,1.5-0.2,2.1-0.3c0.2,0,0.3,0,0.4,0c0.2,0,0.4,0,0.6,0c0.1,0,0.1,0,0.2,0
			c0.1,0,0.1,0,0.2,0c0.5,0,0.8,0,1,0c0.1,0,0.1,0,0.1,0c2.9,0,5.8,0.1,8.9,0.2c2.4,0.1,4.8,0.6,7,1.7l0,0c0.3-0.1,0.5-0.2,0.8-0.3
			h0.1c0.3-0.1,0.5-0.2,0.8-0.2c0.5-0.1,1.1-0.3,1.6-0.3c0.2,0,0.3,0,0.5-0.1h0.1c0.1,0,0.3,0,0.4,0c0.3,0,0.7-0.1,1-0.1
			c0.1,0,0.2,0,0.4,0c0.3,0,0.7,0,1,0c0.1,0,0.2,0,0.4,0c0.3,0,0.6,0,0.8,0c1,0,2,0.1,2.9,0.1h0.1c3.4,0.2,6.9,0.4,10.3,0.6
			c1.8,0.5,3.6,0.9,5.4,1.4c0.5,0.2,1,0.4,1.5,0.7c0.2-0.1,0.5-0.1,0.7-0.2c0.1,0,0.2-0.1,0.4-0.1c0.5-0.1,1-0.2,1.4-0.3
			c0.1,0,0.2,0,0.3,0c0.3,0,0.5-0.1,0.8-0.1c0.2,0,0.4,0,0.6,0h0.2c0.5,0,0.9,0,1.4,0l0,0c0.6,0,1.3,0,1.8,0l0,0
			c0.8,0.1,1.6,0.2,2.4,0.3c0.7,0.1,1.4,0.2,2.1,0.3l0,0c0.4,0.1,0.9,0.1,1.3,0.2C218.8,107.5,219.6,108.7,219.6,109.9z"/>
		<path class="st0" d="M212.7,129.5c0,0-2.1-1.5-1.9-2.8c0.2-1.3,1.9-3.3,2.9-3.2c1,0.1,3.4,0.9,3.5,2.5c0,1.6-0.5,3.1-1.2,3.5
			C215.3,129.8,213.6,129.6,212.7,129.5z"/>
		<path class="st0" d="M206.4,125.8c-0.5-0.7-0.9-1.8,0-2.4s2.4-0.8,2.6,0s-0.7,2.5-0.7,2.5S206.7,126.3,206.4,125.8z"/>
		<path class="st0" d="M213.1,119.5c-0.6-0.8-0.2-1.6,0.7-1.5s1.4,0.3,1.4,1C215.2,119.8,213.5,120,213.1,119.5z"/>
		<path class="st0" d="M98.4,126.7c-0.6-0.8-0.2-1.6,0.7-1.5c0.9,0.1,1.4,0.3,1.4,1C100.4,127,98.7,127.2,98.4,126.7z"/>
		<path class="st0" d="M128.6,132.5c0,0-2.1-1.5-1.9-2.8s1.9-3.3,2.9-3.2s3.4,0.9,3.5,2.5c0.1,1.6-0.5,3.1-1.2,3.5
			C131.2,132.7,129.5,132.6,128.6,132.5z"/>
		<path class="st0" d="M229.2,120.4c-0.5-0.7-0.9-1.8,0-2.4s2.4-0.8,2.6,0c0.2,0.7-0.7,2.5-0.7,2.5S229.5,120.8,229.2,120.4z"/>
		<path class="st0" d="M136.4,128.7c-0.5-0.7-0.9-1.8,0-2.4s2.4-0.8,2.6,0c0.2,0.7-0.7,2.5-0.7,2.5S136.8,129.1,136.4,128.7z"/>
		<path class="st0" d="M189.2,129.5c-1-1.7,0.8-3.6,2.4-3.6c1.5,0,4.1,1,4.5,2.2c0.4,1.2-0.8,3-2.6,3
			C191.8,131.1,189.6,130.1,189.2,129.5z"/>
		<path class="st1" d="M92.6,120.9c-0.8-0.8-0.4-1.6,0.2-1.6c0.5,0,1.6,0.3,1.6,1.2C94.3,121.3,93.3,121.6,92.6,120.9z"/>
		<path class="st1" d="M73.6,117.7c0.5,0.9,1.9,0.4,2.2,0c0.3-0.4,0.2-1.4-0.7-1.4C74.3,116.3,73.1,116.7,73.6,117.7z"/>
		<g>
			<path class="st4" d="M91.3,126.3L91.3,126.3c-0.6-1.3-1.2-2.5-2-3.6c-3.4-5.2-8.3-8.9-12.9-11.5c0.2-0.2,0.5-0.4,0.7-0.7
				c0.3-0.4,0.7-0.7,1-1c0.7-0.8,1.5-1.4,2.3-2c0.4-0.3,0.8-0.5,1.3-0.8c3.9,2.5,7.4,7.4,9,16C91,123.9,91.1,125,91.3,126.3
				L91.3,126.3L91.3,126.3z"/>
			<path class="st4" d="M115.9,125.5L115.9,125.5L115.9,125.5c-3.6-9.8-12.6-15.9-18.9-19.2c1.5-0.8,2.9-1.4,4.2-1.7
				c0.9-0.2,1.7-0.4,2.4-0.5c0.1,0,0.2,0,0.3,0c0.7,0,1.3-0.1,2-0.1c5,2.7,9.3,8.6,10.1,20.6c0,0.1,0,0.2,0,0.2c0,0.1,0,0.3,0,0.4
				C115.9,125.4,115.9,125.4,115.9,125.5L115.9,125.5z"/>
			<path class="st4" d="M142.8,124.6L142.8,124.6c-3.6-10-13-16.2-19.3-19.4c1.4-0.8,2.8-1.4,4.1-1.7c0.7-0.2,1.3-0.3,1.8-0.4
				c0.2,0,0.4-0.1,0.7-0.1c0.9,0,1.7,0,2.6,0c5.1,2.7,9.4,8.7,10.1,21l0,0C142.8,124.2,142.8,124.4,142.8,124.6z"/>
			<path class="st4" d="M223.7,126.1L223.7,126.1c-3.7-10.2-13.3-16.4-19.7-19.5c1.8-0.6,3.8-0.8,5.7-0.8c0.6,0,1.3,0,1.8,0l0,0
				c0.8,0.1,1.6,0.2,2.4,0.3c0.7,0.1,1.4,0.2,2.1,0.3l0,0C220.1,109.6,223.2,115.6,223.7,126.1z"/>
			<path class="st4" d="M146.1,103c0.2,0.1,0.4,0.2,0.7,0.4c-0.3-0.1-0.6-0.3-0.9-0.4H146.1z"/>
			<path class="st4" d="M169.6,124.3L169.6,124.3L169.6,124.3c-3.6-10-13-16.2-19.3-19.4c1.3-0.6,2.7-1.1,4.1-1.3
				c1.1-0.2,2.2-0.4,3.1-0.4c1.2-0.1,2.1-0.1,2.4-0.1c0.1,0,0.1,0,0.1,0C164.9,105.9,169.1,112,169.6,124.3z"/>
			<path class="st4" d="M195.2,124.3L195.2,124.3L195.2,124.3L195.2,124.3L195.2,124.3c-3.7-10-13-16.1-19.3-19.3
				c1.2-0.5,2.6-0.8,3.9-1c1.1-0.1,2.2-0.2,3.1-0.2c0.3,0,0.6,0,0.8,0c1,0,2,0.1,2.9,0.1h0.1C191.2,107,194.7,113.1,195.2,124.3z"/>
			<path class="st3" d="M91.3,126.2c-0.1-0.4-0.3-1.7-0.9-3.5c-1.3-4.2-4.2-11.1-10-15.2c0.4-0.3,0.8-0.5,1.3-0.8
				c3.9,2.5,7.4,7.4,9,16C91,123.9,91.1,125,91.3,126.2z"/>
			<path class="st3" d="M91.3,126.3L91.3,126.3L91.3,126.3L91.3,126.3z"/>
			<path class="st3" d="M115.8,124.6c-0.3-3.2-1.9-13.8-12-20.5c0.7,0,1.3-0.1,2-0.1C110.8,106.7,115.1,112.6,115.8,124.6z"/>
			<path class="st3" d="M142.8,124c-0.4-3.1-3.7-16.9-13.4-20.8c0.2,0,0.4-0.1,0.7-0.1c0.9,0,1.7,0,2.6,0
				C137.7,105.7,142.1,111.7,142.8,124z"/>
			<path class="st3" d="M142.8,124.6v-0.2C142.9,124.5,142.9,124.6,142.8,124.6z"/>
			<path class="st3" d="M169.6,124.3L169.6,124.3c-0.1-0.6-3.2-17-12.1-21.1c1.2-0.1,2.1-0.1,2.4-0.1c0.1,0,0.1,0,0.1,0
				C164.9,105.9,169.1,112,169.6,124.3z"/>
			<path class="st3" d="M195.2,124.3L195.2,124.3L195.2,124.3c-0.1-0.5-3.1-16.5-12.2-20.6c0.3,0,0.6,0,0.8,0c1,0,2,0.1,2.9,0.1h0.1
				C191.2,107,194.7,113.1,195.2,124.3z"/>
			<path class="st3" d="M223.7,126.1L223.7,126.1c-0.1-0.4-1.9-12.7-9.7-20.1c0.7,0.1,1.4,0.2,2.1,0.3l0,0
				C220.1,109.6,223.2,115.6,223.7,126.1z"/>
			<path class="st5" d="M91.3,126.3c-0.6-1.3-1.2-2.5-2-3.6c-3.4-5.2-8.3-8.9-12.9-11.5c0.2-0.2,0.5-0.4,0.7-0.7
				c0.3-0.4,0.7-0.7,1-1c6.7,4,10.2,9.6,11.9,13.2C90.9,124.8,91.3,126.1,91.3,126.3z"/>
			<path class="st5" d="M115.9,125.5L115.9,125.5c-3.6-9.8-12.6-15.9-18.9-19.1c1.5-0.8,2.9-1.4,4.2-1.7
				C111.8,111.5,115.9,125.5,115.9,125.5z"/>
			<path class="st5" d="M142.8,124.6c-3.6-10-13-16.2-19.3-19.3c1.4-0.8,2.8-1.4,4.1-1.7C139.7,112,142.7,124.1,142.8,124.6z"/>
			<path class="st5" d="M169.6,124.3c-3.6-10-12.9-16.1-19.3-19.3c1.3-0.6,2.7-1.1,4.1-1.3C165.4,111.2,169.5,123.9,169.6,124.3z"/>
			<path class="st5" d="M195.2,124.3c-3.6-9.9-12.9-16.1-19.3-19.3c1.2-0.5,2.6-0.8,3.9-1C190.7,110.6,194.9,123.3,195.2,124.3z"/>
			<path class="st5" d="M223.7,126.1c-3.7-10.1-13.3-16.4-19.7-19.5c1.8-0.6,3.8-0.8,5.7-0.8C219.1,112.4,223.4,125.1,223.7,126.1z"
				/>
		</g>
		<g>
			<path class="st4" d="M98,134.9c-0.7,0-1.4-0.1-2.1-0.2c-4-0.6-8-2.6-11.3-4.3c-1.3-0.7-2.6-1.3-3.7-1.8c-1.2-0.5-2.1-0.8-2.8-0.8
				c-3.3-0.1-7.1-2.8-7.5-6.7c-0.1-0.6-0.1-1.2,0-1.8c0.5-3.3,2.4-4.9,4.5-6.5c0.6-0.5,1.2-0.9,1.7-1.4c0.2-0.2,0.5-0.5,0.7-0.7
				l0.1-0.1c0.3-0.3,0.6-0.6,0.9-0.9c0.9-0.9,1.6-1.5,2.3-2c0.4-0.3,0.8-0.5,1.2-0.7c0.7-0.3,1.4-0.6,2.1-0.8
				c0.8-0.2,1.6-0.3,2.5-0.3c0.3,0,0.5,0,0.7,0c0.1,0,0.2,0,0.3,0c4.7,0,6.9,4.8,8.4,8.4l0.2,0.5c0.8,1.8,3,3.4,5.1,4.9
				c1.6,1.1,3.1,2.2,3.9,3.3c0.5,0.6,0.8,1.2,0.8,1.8c0,0.5,0.1,1,0.1,1.5c0.1,1.4,0.3,2.9-0.1,4.2c-0.4,1.4-1.4,3.4-6.1,4.2
				c-0.1,0-0.2,0-0.3,0C99.1,134.9,98.6,134.9,98,134.9z"/>
			<path class="st0" d="M87.5,106.4L87.5,106.4c4.5,0,6.5,4.7,8,8.1l0.2,0.5c0.9,1.9,3.1,3.6,5.3,5.1c1.5,1.1,3,2.2,3.9,3.2
				c0.4,0.6,0.7,1,0.7,1.5s0.1,1,0.1,1.5c0.1,1.4,0.3,2.8-0.1,4.1c-0.3,1.3-1.3,3.2-5.8,3.9c-0.1,0-0.2,0-0.3,0
				c-0.5,0.1-1,0.1-1.5,0.1c-0.7,0-1.4-0.1-2.1-0.2c-3.9-0.6-7.9-2.6-11.2-4.2c-1.3-0.7-2.6-1.3-3.7-1.8c-1.3-0.5-2.2-0.8-3-0.8
				c-3-0.1-6.7-2.7-7.1-6.3c-0.1-0.5-0.1-1.1,0-1.7c0.5-3.2,2.3-4.6,4.3-6.2c0.6-0.5,1.2-0.9,1.7-1.4c0.3-0.3,0.5-0.5,0.7-0.7
				l0.2-0.2c0.3-0.3,0.6-0.6,0.8-0.9c0.8-0.8,1.5-1.4,2.2-1.9c0.4-0.3,0.8-0.5,1.2-0.7c0.6-0.3,1.3-0.6,2-0.8
				c0.7-0.2,1.5-0.3,2.4-0.3l0,0l0,0c0.2,0,0.4,0,0.6,0C87.3,106.4,87.4,106.4,87.5,106.4L87.5,106.4z M87.5,105.5
				c-0.1,0-0.2,0-0.3,0c-0.2,0-0.4,0-0.7,0c-1,0-1.8,0.1-2.6,0.3c-0.8,0.2-1.5,0.5-2.2,0.8c-0.4,0.2-0.9,0.5-1.3,0.8
				c-0.8,0.6-1.6,1.3-2.3,2c-0.3,0.3-0.7,0.7-1,1c-0.2,0.2-0.4,0.5-0.7,0.7c-2.5,2.3-5.7,3.7-6.4,8.2c-0.1,0.7-0.1,1.3,0,1.9
				c0.5,4,4.5,6.9,8,7.1c0.7,0,1.6,0.3,2.7,0.7c3.8,1.6,9.5,5.2,15.2,6c0.7,0.1,1.5,0.2,2.2,0.2c0.5,0,1.1,0,1.6-0.1
				c0.1,0,0.2,0,0.3,0c4.3-0.7,5.9-2.5,6.5-4.5c0.5-1.9,0-4.1,0-5.9c0-0.7-0.4-1.4-0.9-2c-2.2-2.7-7.7-5.2-9-8.2
				C95,111.1,92.8,105.5,87.5,105.5L87.5,105.5z"/>
		</g>
		<path class="st5" d="M93,131.9c0,0-2.1-1.5-1.9-2.8s1.9-3.3,2.9-3.2c1,0.1,3.4,0.9,3.5,2.5c0.1,1.6-0.5,3.1-1.2,3.5
			C95.6,132.1,93.9,132,93,131.9z"/>
		<path class="st5" d="M100.8,128.1c-0.5-0.7-0.9-1.8,0-2.4s2.4-0.8,2.6,0c0.2,0.7-0.7,2.5-0.7,2.5S101.1,128.5,100.8,128.1z"/>
		<path class="st1" d="M120,121.2c-0.3-1.2,1.9-3,3.1-2.6s2.9,1.9,2.3,3c-0.7,1.1-2.1,1.5-3.1,1.2C121.2,122.6,120.2,122,120,121.2z
			"/>
		<path class="st1" d="M176.1,113.6c-1.1-1.3-0.4-2.8,1-3s3.1,0.7,3.1,1.6C180.3,113.2,177.4,115.1,176.1,113.6z"/>
		<path class="st5" d="M81.8,113.3c-1.1-1.3-0.4-2.8,1-3s3.1,0.7,3.1,1.6C86,112.9,83,114.8,81.8,113.3z"/>
		<path class="st1" d="M172.8,117.7c-0.8-0.1-2.1-1.3-1.4-2.1c0.7-0.8,1.4-0.9,2.1,0C174.2,116.5,173.9,117.9,172.8,117.7z"/>
		<path class="st5" d="M90,115.5c-0.8-0.1-2.1-1.3-1.4-2.1c0.7-0.8,1.4-0.9,2.1,0C91.4,114.3,91.1,115.6,90,115.5z"/>
		<path class="st1" d="M120.2,112.8c-0.8-0.8-0.4-1.6,0.2-1.6c0.5,0,1.6,0.3,1.6,1.2S120.9,113.5,120.2,112.8z"/>
		<path class="st5" d="M76.6,121.5c-0.8-0.8-0.4-1.6,0.2-1.6c0.5,0,1.6,0.3,1.6,1.2C78.4,121.9,77.3,122.2,76.6,121.5z"/>
		<path class="st1" d="M127.1,116.4c0.5,0.9,1.9,0.4,2.2,0s0.2-1.4-0.7-1.4C127.8,114.9,126.6,115.4,127.1,116.4z"/>
	</g>
	<g>
		<path class="st0" d="M46.5,132c-0.4,1.9-1.1,3.8-2,5.6c-1.8,3.5-4.8,6.7-9.6,8.8c-14.4-0.1-36.5-3.7-34.8-11.3
			c0.7-2.7,2.4-4.9,4.7-6.8c1.5-1.2,3.2-2.3,5-3.2c13.8-6.7,36.9-6.2,36.9-6.2S48,125.3,46.5,132z"/>
		<path class="st1" d="M44.5,137.7c-9.4,0.1-29,0-36.4-3.2c-4-1.7-4.4-4-3.4-6.2c12.2-10.1,41.9-9.3,41.9-9.3S48.9,129.2,44.5,137.7
			z"/>
		<path class="st2" d="M46.5,132c-12.2,0.5-34.9,1-36.3-3.2c-0.5-1.5-0.6-2.7-0.5-3.7c13.8-6.7,36.9-6.2,36.9-6.2S48,125.3,46.5,132
			z"/>
		<g>
			<path class="st4" d="M35,146.1c-0.4,0-0.7,0-1.1,0c-1.3-0.1-2.5-0.3-3.6-0.7c-0.1,0-0.2-0.1-0.3-0.1c-4.5-1.7-5.1-3.9-5.2-5.3
				c-0.1-1.4,0.4-2.8,0.8-4.2c0.2-0.5,0.3-1,0.4-1.5s0.5-1,1.1-1.6c1.1-0.9,2.8-1.7,4.5-2.5c2.4-1.1,4.9-2.2,6-3.8l0.3-0.4
				c2-2.8,4.7-6.7,8.6-6.7c0.5,0,1,0.1,1.6,0.2c0.2,0,0.4,0.1,0.6,0.2c0.9,0.2,1.7,0.5,2.4,0.8s1.3,0.7,1.9,1.2c0.4,0.3,0.7,0.6,1,1
				c0.6,0.6,1.2,1.4,1.8,2.4c0.2,0.3,0.4,0.7,0.7,1.1l0.1,0.2c0.2,0.3,0.4,0.6,0.6,0.8c0.4,0.6,0.9,1.2,1.4,1.7
				c1.7,2,3.3,3.9,3.1,7.2c0,0.6-0.1,1.2-0.3,1.8c-1.1,3.3-4.8,5.1-7.6,5.1c-0.4,0-0.7,0-1.1-0.1c-0.2,0-0.5-0.1-0.8-0.1
				c-0.6,0-1.3,0.1-2.2,0.3c-1.2,0.2-2.5,0.6-4,1C42.5,145.1,38.7,146.1,35,146.1L35,146.1z"/>
			<path class="st0" d="M46.6,119.8c0.5,0,1,0.1,1.5,0.2c0.2,0,0.4,0.1,0.6,0.2l0,0l0,0c0.8,0.2,1.6,0.5,2.3,0.8s1.3,0.7,1.8,1.1
				c0.3,0.3,0.7,0.6,1,0.9c0.6,0.6,1.1,1.3,1.8,2.3c0.2,0.3,0.4,0.7,0.6,1l0.1,0.2c0.2,0.3,0.4,0.6,0.6,0.9c0.5,0.6,0.9,1.2,1.4,1.8
				c1.6,1.9,3.2,3.7,3,6.9c0,0.6-0.1,1.1-0.3,1.6c-1.1,3.1-4.5,4.8-7.2,4.8c-0.4,0-0.7,0-1-0.1c-0.3,0-0.5-0.1-0.9-0.1
				c-0.6,0-1.3,0.1-2.3,0.3c-1.2,0.2-2.6,0.6-4,1c-3.3,0.9-7.1,1.9-10.8,1.9c-0.3,0-0.7,0-1,0c-1.3-0.1-2.5-0.3-3.5-0.7
				c-0.1,0-0.2-0.1-0.3-0.1c-4.2-1.6-4.8-3.6-4.8-4.9c-0.1-1.3,0.3-2.7,0.8-4c0.2-0.5,0.3-1,0.4-1.5c0.1-0.4,0.4-0.9,1-1.3
				c1-0.9,2.8-1.6,4.4-2.4c2.4-1.1,5-2.2,6.2-4l0.3-0.4C40.3,123.6,42.9,119.8,46.6,119.8L46.6,119.8z M46.6,118.9
				c-4.4,0-7.3,4.4-9.3,7.3c-1.9,2.7-7.8,4-10.5,6.2c-0.6,0.5-1.1,1.1-1.3,1.8c-0.4,1.7-1.3,3.7-1.2,5.7c0.1,2.1,1.3,4.2,5.4,5.7
				c0.1,0,0.2,0.1,0.3,0.1c1.2,0.4,2.5,0.6,3.8,0.7c0.4,0,0.7,0,1.1,0c5.4,0,11.2-2.2,15-2.9c0.8-0.2,1.5-0.2,2.1-0.2
				c0.3,0,0.5,0,0.7,0.1c0.4,0.1,0.8,0.1,1.2,0.1c3.2,0,6.9-2,8.1-5.4c0.2-0.6,0.3-1.2,0.4-1.9c0.2-4.6-2.6-6.6-4.6-9.3
				c-0.2-0.3-0.4-0.5-0.5-0.8c-0.3-0.4-0.5-0.8-0.8-1.2c-0.6-0.9-1.2-1.7-1.9-2.5c-0.3-0.4-0.7-0.7-1.1-1c-0.6-0.5-1.2-0.9-2-1.3
				c-0.7-0.3-1.5-0.6-2.5-0.9c-0.2-0.1-0.4-0.1-0.7-0.2C47.7,119,47.2,118.9,46.6,118.9L46.6,118.9z"/>
		</g>
		<path class="st5" d="M37.4,143.8c0,0,2.3-1,2.4-2.4c0.1-1.4-1.2-3.6-2.2-3.7c-1-0.1-3.6,0.2-3.9,1.8c-0.3,1.6-0.1,3.2,0.5,3.6
			C34.8,143.5,36.5,143.7,37.4,143.8z"/>
		<path class="st0" d="M13,139.4c0,0,2.3-1,2.4-2.4c0.1-1.4-1.2-3.6-2.2-3.7s-3.6,0.2-3.9,1.8c-0.3,1.6-0.1,3.2,0.5,3.6
			S12.1,139.3,13,139.4z"/>
		<path class="st5" d="M30.5,138.5c0.7-0.6,1.2-1.6,0.5-2.3c-0.7-0.8-2.2-1.2-2.5-0.5s0.1,2.6,0.1,2.6S30,138.9,30.5,138.5z"/>
		<path class="st0" d="M19.4,133.4c0.7-0.6,1.2-1.6,0.5-2.3c-0.7-0.8-2.2-1.2-2.5-0.5s0.1,2.6,0.1,2.6S18.9,133.7,19.4,133.4z"/>
		<path class="st5" d="M52,127.9c1.3-1.1,0.9-2.7-0.4-3.1c-1.3-0.4-3.2,0.1-3.4,1C48.1,126.6,50.5,129.1,52,127.9z"/>
		<path class="st5" d="M43.5,128.3c0.9,0.1,2.3-0.9,1.8-1.8s-1.2-1.2-2-0.4C42.4,126.9,42.5,128.3,43.5,128.3z"/>
		<path class="st5" d="M55.5,136.9c0.9-0.7,0.7-1.5,0.2-1.6s-1.6,0-1.8,0.9C53.7,137,54.6,137.5,55.5,136.9z"/>
	</g>
</g>
<g>
	<path class="st0" d="M145.3,193.2c29.2,4.7,50.7-1.9,52.1-8.3c0.6-2.9-0.6-6.1-3.3-9.4c-1.9-2.2-4.5-4.5-7.8-6.6
		c-0.1-0.1-0.2-0.1-0.3-0.2c-0.5,0.1-1,0.1-1.6,0.2c-0.8-1.6-2-2.4-2.2-2.5c0,0,0,0,0,0c0,0,0,0,0,0c-3.2-1.8-6.7-3.4-10.7-4.9
		c-0.2-0.1-0.3-0.1-0.5-0.2c-1,0.1-2.1,0.2-3.3,0.4c-1.7-1.6-3.8-2.6-5.5-3.2c-0.9-0.2-1.8-0.5-2.7-0.7c0,0,0,0,0,0
		c-0.3-0.1-0.5-0.1-0.8-0.2c-4.1-1-8.3-1.8-12.6-2.4c-0.1,0-0.2,0-0.3,0c-1,0.3-2.1,0.6-3.2,1c-2-1.4-4.3-1.8-5.4-1.9c0,0,0,0,0,0
		c-0.2,0-0.4,0-0.7,0c-4.3-0.3-8.6-0.4-12.6-0.2h0c-1.1,0.4-2.3,0.9-3.6,1.5c-3.8-0.9-6.5-0.7-7.3-0.5c-0.1,0-0.2,0-0.2,0
		c-4.2,0.7-7.8,1.7-10.5,3c-2.5,1.2-4.2,2.7-5,4.4C92.9,171.9,116.2,188.5,145.3,193.2z"/>
	<path class="st3" d="M145.3,193.2c29.2,4.7,50.7-1.9,52.1-8.3c0.6-2.9-0.6-6.1-3.3-9.4c-0.2,3.6-2.5,8.2-12.1,11
		c-17.4,4.9-41.4,2.6-55.7-1.8c-12.9-4-31-17-24-26.7c-2.5,1.2-4.2,2.7-5,4.4C92.9,171.9,116.2,188.5,145.3,193.2z"/>
	<path class="st1" d="M186.6,175c-0.3,1-1.2,1.8-2.2,2c-8.9,2-59.7,2.1-77.9-17.4c-3.6-3.6,20-5.7,43-1.8
		C170.4,161.4,188.4,169.1,186.6,175z"/>
	<path class="st4" d="M160.2,181.2c8.5-8.6,18.4-11.4,24.3-12.3c-0.2-0.4-0.5-0.8-0.7-1.1c-0.7-0.9-1.3-1.3-1.5-1.4c0,0,0,0,0,0
		c0,0,0,0,0,0c0,0-0.1,0-0.1,0c-8.7-1.4-15.8,1.8-21.6,14.2C160.4,180.7,160.3,180.9,160.2,181.2z"/>
	<path class="st4" d="M136.7,177.6c9.6-11.2,22.6-14.8,31-16c-0.4-0.4-0.8-0.7-1.2-1c-0.7-0.5-1.4-0.9-2-1.3c-0.8-0.4-1.5-0.7-2.2-1
		c-0.9-0.2-1.8-0.5-2.7-0.7c0,0,0,0,0,0C149.6,158.6,140.8,165.2,136.7,177.6z"/>
	<path class="st4" d="M121.4,174.1L121.4,174.1c5.8-10.6,14.4-15.6,21.1-18.1c-0.4-0.3-0.9-0.6-1.4-0.8c-0.3-0.2-0.6-0.3-1-0.4
		c-1.2-0.5-2.4-0.6-3.1-0.7c0,0,0,0,0,0c-0.2,0-0.4,0-0.7,0C129,157,122.6,163.6,121.4,174.1L121.4,174.1z"/>
	<path class="st4" d="M106.9,167.1C106.9,167.1,106.9,167.1,106.9,167.1c4-6,9.1-9.6,13.3-11.7c-1-0.2-1.9-0.4-2.7-0.5
		c-0.8-0.1-1.6-0.2-2.2-0.2c-1.2,0-2,0.1-2.3,0.1c-0.1,0-0.2,0-0.2,0C109.7,157.1,107.4,160.9,106.9,167.1z"/>
	<path class="st3" d="M160.5,180.5c5.7-12.1,16.5-14,21.6-14.2C173.4,164.9,166.3,168.1,160.5,180.5z"/>
	<path class="st3" d="M136.7,177.6c2.3-6.2,8.1-14.3,17.2-17.4c4.7-1.6,8.2-1.4,10.6-0.8c-0.8-0.4-1.5-0.7-2.2-1
		c-0.9-0.2-1.8-0.5-2.7-0.7c0,0,0,0,0,0C149.6,158.6,140.8,165.2,136.7,177.6z"/>
	<path class="st3" d="M121.4,174.1c3.9-16.5,14.7-18.9,18.8-19.3c-1.2-0.5-2.4-0.6-3.1-0.7c0,0,0,0,0,0c-0.2,0-0.4,0-0.7,0
		C129,157,122.6,163.6,121.4,174.1z"/>
	<path class="st3" d="M106.9,167.1c2-8.4,5.7-11.3,8.4-12.3c-1.2,0-2,0.1-2.3,0.1c-0.1,0-0.2,0-0.2,0
		C109.7,157.1,107.4,160.9,106.9,167.1z"/>
	<path class="st5" d="M160.2,181.2c8.5-8.6,18.4-11.4,24.3-12.3c-0.2-0.4-0.5-0.8-0.7-1.1C169.2,168.9,160.2,181.2,160.2,181.2z"/>
	<path class="st5" d="M136.7,177.6c9.6-11.2,22.6-14.8,31-16c-0.4-0.4-0.8-0.7-1.2-1C147.2,161.7,136.8,177.3,136.7,177.6z"/>
	<path class="st5" d="M121.4,174.1c5.8-10.6,14.4-15.6,21.1-18.1c-0.4-0.3-0.9-0.6-1.4-0.8C127.7,159.1,121.5,173.8,121.4,174.1z"/>
	<path class="st5" d="M106.9,167c4-6,9.1-9.6,13.3-11.6c-1-0.2-1.9-0.4-2.7-0.5C111.7,158.3,107.1,166.7,106.9,167z"/>
	<path class="st3" d="M118,173.7c0,0-0.6-1.7-1.6-1.9s-2.8,0.3-2.9,1c-0.1,0.7-0.2,2.4,1,2.8c1.2,0.4,2.4,0.5,2.7,0.2
		C117.6,175.4,117.9,174.3,118,173.7z"/>
	<path class="st3" d="M114.9,168.8c-0.4-0.5-1.1-1-1.7-0.6c-0.6,0.4-1.1,1.3-0.6,1.6c0.5,0.3,2,0.3,2,0.3S115.1,169.2,114.9,168.8z"
		/>
	<path class="st0" d="M131.4,168.4c-0.4-0.5-1.1-1-1.7-0.6s-1.1,1.3-0.6,1.6c0.5,0.3,2,0.3,2,0.3S131.6,168.8,131.4,168.4z"/>
	<path class="st3" d="M110.3,171.9c-0.4-0.6-1.1-0.6-1.2,0c-0.1,0.6-0.1,0.9,0.4,1.1C110,173.2,110.6,172.2,110.3,171.9z"/>
	<path class="st3" d="M167.6,178.7c-0.9-0.2-2.3,1.3-1.9,2.1s1.5,1.9,2.3,1.5c0.8-0.5,1.1-1.4,0.9-2.1
		C168.6,179.5,168.2,178.8,167.6,178.7z"/>
	<path class="st3" d="M143.1,178.2c-1-0.7-2.2-0.2-2.3,0.7s0.6,2.1,1.3,2.1S144.3,179,143.1,178.2z"/>
	<path class="st0" d="M120.5,158.1c-1-0.7-2.2-0.2-2.3,0.7c-0.1,0.9,0.6,2.1,1.3,2.1C120.1,160.9,121.6,158.9,120.5,158.1z"/>
	<path class="st0" d="M155.6,173.2c-1-0.7-2.2-0.2-2.3,0.7c-0.1,0.9,0.6,2.1,1.3,2.1S156.8,174,155.6,173.2z"/>
	<path class="st3" d="M126.5,176.6c-0.1-0.6-1-1.4-1.6-0.9c-0.6,0.5-0.7,0.9,0,1.4C125.5,177.5,126.6,177.3,126.5,176.6z"/>
	<path class="st3" d="M147,183.6c-0.7,1.3,0.4,2.8,1.4,2.8c1,0.1,2.8-0.6,3.1-1.5c0.3-0.9-0.4-2.3-1.6-2.4
		C148.8,182.4,147.2,183.1,147,183.6z"/>
	<path class="st0" d="M149.2,170.2c-0.7,1.3,0.4,2.8,1.4,2.8s2.8-0.6,3.1-1.5c0.3-0.9-0.4-2.3-1.6-2.4
		C151,169,149.5,169.7,149.2,170.2z"/>
	<path class="st3" d="M142.7,185.1c-0.2,1,1.4,1.6,1.9,1.2c0.5-0.4,1.1-1.8,0.6-2C144.6,184,142.8,184.4,142.7,185.1z"/>
	<path class="st0" d="M155.9,167.5c-0.2,1,1.4,1.6,1.9,1.2c0.5-0.4,1.1-1.8,0.6-2C157.8,166.4,156.1,166.9,155.9,167.5z"/>
	<path class="st3" d="M129.8,181.5c0,0-0.8-0.8-1.5-0.1c-0.7,0.7-0.2,1.3,0.3,1.5C129.2,183.1,130.5,182.4,129.8,181.5z"/>
	<path class="st3" d="M178.8,180.6c-0.6-0.6-1.6-0.2-1.6,0.2c0,0.5,0.5,1.5,1,1.4C178.8,182.1,179.4,181.2,178.8,180.6z"/>
	<path class="st0" d="M140.7,160.5c-0.6-0.6-1.6-0.2-1.6,0.2c0,0.5,0.5,1.5,1,1.4C140.7,161.9,141.2,161,140.7,160.5z"/>
	<path class="st3" d="M174.9,184.2c-0.6-0.5-1.3-0.2-1.3,0.1c0,0.3,0.2,1,0.9,1C175.3,185.3,175.5,184.6,174.9,184.2z"/>
	<path class="st0" d="M144.6,160.6c-0.6-0.5-1.3-0.2-1.3,0.1c0,0.3,0.2,1,0.9,1C144.9,161.7,145.2,161.1,144.6,160.6z"/>
	<path class="st3" d="M157.9,185.6c-0.9,0.3-0.5,1.3,0,1.5c0.5,0.2,1.5,0.1,1.5-0.5C159.4,186,158.9,185.2,157.9,185.6z"/>
	<path class="st0" d="M167.3,164.7c-0.9,0.3-0.5,1.3,0,1.5c0.5,0.2,1.5,0.1,1.5-0.5C168.8,165.2,168.3,164.4,167.3,164.7z"/>
</g>
<g>
	<g>
		<path class="st0" d="M130.6,245.6c6.2,1,12.1,1.5,17.6,1.6c2.4,0,4.7,0,6.9-0.1h0c1.4-0.2,2.7-0.5,4.1-0.9
			c6.7-1.9,12.1-5.8,14.8-10.2c1.8-3,2.5-6.2,1.7-9.3c-0.4-1.6-1.3-3-2.4-4.2c-0.6-0.4-1.1-0.8-1.7-1.2c-0.1-0.1-0.2-0.1-0.3-0.2
			c-0.5,0.1-1,0.1-1.6,0.2c-0.1-0.1-0.1-0.2-0.2-0.3c-0.1-0.1-0.1-0.2-0.2-0.3c-0.1-0.1-0.1-0.2-0.2-0.2c-0.1-0.1-0.2-0.2-0.2-0.3
			c-0.3-0.3-0.5-0.6-0.8-0.8c0,0-0.1-0.1-0.1-0.1c-0.2-0.2-0.4-0.3-0.5-0.4c0,0,0,0,0,0c0,0,0,0,0,0c0,0,0,0,0,0c0,0,0,0,0,0
			c0,0,0,0,0,0c-3.2-1.8-6.7-3.4-10.7-4.9c-0.2-0.1-0.3-0.1-0.5-0.2c-1,0.1-2.1,0.2-3.3,0.4c-0.1-0.1-0.3-0.2-0.4-0.4
			c-0.1-0.1-0.2-0.2-0.3-0.2c-0.1-0.1-0.2-0.2-0.3-0.3c-0.1-0.1-0.1-0.1-0.2-0.2h0c0,0,0,0-0.1,0c0,0-0.1-0.1-0.2-0.1
			c-0.2-0.1-0.4-0.3-0.6-0.4c-0.1,0-0.2-0.1-0.2-0.1c-0.3-0.2-0.7-0.4-1-0.6c0,0,0,0,0,0c-0.1-0.1-0.2-0.1-0.4-0.2
			c-0.2-0.1-0.3-0.2-0.5-0.2c-0.1,0-0.2-0.1-0.3-0.1c-0.1,0-0.1-0.1-0.2-0.1c-0.1,0-0.2-0.1-0.2-0.1c-0.2-0.1-0.4-0.2-0.6-0.2
			c-0.9-0.2-1.8-0.5-2.7-0.7c0,0,0,0,0,0c-0.3-0.1-0.5-0.1-0.8-0.2c-4.1-1-8.3-1.8-12.6-2.4c-0.1,0-0.2,0-0.3,0
			c-1,0.3-2.1,0.6-3.2,1c-0.1-0.1-0.2-0.2-0.4-0.2c-0.1-0.1-0.2-0.1-0.3-0.2c0,0-0.1,0-0.1,0c-0.1,0-0.2-0.1-0.3-0.1
			c-0.1-0.1-0.2-0.1-0.3-0.2c0,0,0,0,0,0c-0.1,0-0.2-0.1-0.2-0.1c-0.2-0.1-0.5-0.2-0.7-0.3c-0.3-0.1-0.6-0.2-0.9-0.3
			c0,0-0.1,0-0.1,0c-0.1,0-0.3-0.1-0.4-0.1c-0.2,0-0.3-0.1-0.5-0.1c-0.1,0-0.1,0-0.2,0c-0.1,0-0.2,0-0.2,0c0,0-0.1,0-0.1,0
			c-0.1,0-0.2,0-0.2,0c-0.2,0-0.3,0-0.5-0.1c0,0,0,0,0,0c-0.2,0-0.4,0-0.7,0c-4.3-0.3-8.6-0.4-12.6-0.2h0c-1.1,0.4-2.3,0.9-3.6,1.5
			c-0.6-0.1-1.1-0.2-1.6-0.3c-0.1,0-0.2,0-0.4-0.1c-0.1,0-0.2,0-0.3,0c-0.2,0-0.3,0-0.5-0.1c-0.2,0-0.3,0-0.5-0.1
			c-0.2,0-0.5,0-0.7-0.1c-0.1,0-0.2,0-0.3,0c-0.1,0-0.1,0-0.2,0c-0.2,0-0.4,0-0.6,0h0c-1.2,0-2,0.1-2.3,0.1c-0.1,0-0.2,0-0.2,0
			c-4.2,0.7-7.8,1.7-10.5,3c-2.5,1.2-4.2,2.7-5,4.4C78.1,224.3,101.4,240.9,130.6,245.6z"/>
		<path class="st3" d="M130.6,245.6c6.2,1,12.1,1.5,17.6,1.6c2.4,0,4.7,0,6.9-0.1h0c1.4-0.2,2.7-0.5,4.1-0.9
			c6.7-1.9,12.1-5.8,14.8-10.2c-1.7,1.1-3.9,2.1-6.8,2.9c-9.2,2.6-20.2,3.2-30.7,2.5c-9.4-0.6-18.3-2.2-25-4.3
			c-12.9-4-31-17-24-26.7c-2.5,1.2-4.2,2.7-5,4.4C78.1,224.3,101.4,240.9,130.6,245.6z"/>
		<path class="st1" d="M171.8,227.4c-0.3,1-1.2,1.8-2.2,2c-8.9,2-59.7,2.1-77.9-17.4c-3.6-3.6,20-5.7,43-1.8
			C155.6,213.8,173.6,221.5,171.8,227.4z"/>
		<path class="st4" d="M145.4,233.6c8.5-8.6,18.4-11.4,24.3-12.3c-0.2-0.4-0.5-0.8-0.7-1.1c-0.7-0.9-1.3-1.3-1.5-1.4c0,0,0,0,0,0
			c0,0,0,0,0,0c0,0-0.1,0-0.1,0c-8.7-1.4-15.8,1.8-21.6,14.2C145.6,233.1,145.5,233.3,145.4,233.6z"/>
		<path class="st4" d="M121.9,230c9.6-11.2,22.6-14.8,31-16c-0.4-0.4-0.8-0.7-1.2-1c-0.7-0.5-1.4-0.9-2-1.3c-0.8-0.4-1.5-0.7-2.2-1
			c-0.9-0.2-1.8-0.5-2.7-0.7c0,0,0,0,0,0C134.8,211,126,217.6,121.9,230z"/>
		<path class="st4" d="M106.6,226.5L106.6,226.5c5.8-10.6,14.4-15.6,21.1-18.1c-0.4-0.3-0.9-0.6-1.4-0.8c-0.3-0.2-0.6-0.3-1-0.4
			c-1.2-0.5-2.4-0.6-3.1-0.7c0,0,0,0,0,0c-0.2,0-0.4,0-0.7,0C114.3,209.4,107.8,216,106.6,226.5L106.6,226.5z"/>
		<path class="st4" d="M92.1,219.5C92.1,219.5,92.1,219.5,92.1,219.5c4-6,9.1-9.6,13.3-11.7c-1-0.2-1.9-0.4-2.7-0.5
			c-0.8-0.1-1.6-0.2-2.2-0.2c-1.2,0-2,0.1-2.3,0.1c-0.1,0-0.2,0-0.2,0C94.9,209.5,92.7,213.3,92.1,219.5z"/>
		<path class="st3" d="M145.7,232.9c5.7-12.1,16.5-14,21.6-14.2C158.6,217.3,151.5,220.5,145.7,232.9z"/>
		<path class="st3" d="M121.9,230c2.3-6.2,8.1-14.3,17.2-17.4c4.7-1.6,8.2-1.4,10.6-0.8c-0.8-0.4-1.5-0.7-2.2-1
			c-0.9-0.2-1.8-0.5-2.7-0.7c0,0,0,0,0,0C134.8,211,126,217.6,121.9,230z"/>
		<path class="st3" d="M106.6,226.5c3.9-16.5,14.7-18.9,18.8-19.3c-1.2-0.5-2.4-0.6-3.1-0.7c0,0,0,0,0,0c-0.2,0-0.4,0-0.7,0
			C114.3,209.4,107.8,216,106.6,226.5z"/>
		<path class="st3" d="M92.1,219.5c2-8.4,5.7-11.3,8.4-12.3c-1.2,0-2,0.1-2.3,0.1c-0.1,0-0.2,0-0.2,0
			C94.9,209.5,92.7,213.3,92.1,219.5z"/>
		<path class="st5" d="M145.4,233.6c8.5-8.6,18.4-11.4,24.3-12.3c-0.2-0.4-0.5-0.8-0.7-1.1C154.4,221.3,145.4,233.6,145.4,233.6z"/>
		<path class="st5" d="M121.9,230c9.6-11.2,22.6-14.8,31-16c-0.4-0.4-0.8-0.7-1.2-1C132.4,214.1,122,229.7,121.9,230z"/>
		<path class="st5" d="M106.6,226.5c5.8-10.6,14.4-15.6,21.1-18.1c-0.4-0.3-0.9-0.6-1.4-0.8C112.9,211.5,106.7,226.2,106.6,226.5z"
			/>
		<path class="st5" d="M92.1,219.4c4-6,9.1-9.6,13.3-11.6c-1-0.2-1.9-0.4-2.7-0.5C97,210.7,92.3,219.1,92.1,219.4z"/>
		<path class="st3" d="M103.3,226.1c0,0-0.6-1.7-1.6-1.9c-1-0.3-2.8,0.3-2.9,1c-0.1,0.7-0.2,2.4,1,2.8c1.2,0.4,2.4,0.5,2.7,0.2
			C102.9,227.8,103.2,226.7,103.3,226.1z"/>
		<path class="st3" d="M100.1,221.2c-0.4-0.5-1.1-1-1.7-0.6c-0.6,0.4-1.1,1.3-0.6,1.6c0.5,0.3,2,0.3,2,0.3S100.3,221.6,100.1,221.2z
			"/>
		<path class="st0" d="M116.6,220.8c-0.4-0.5-1.1-1-1.7-0.6c-0.6,0.4-1.1,1.3-0.6,1.6c0.5,0.3,2,0.3,2,0.3S116.9,221.2,116.6,220.8z
			"/>
		<path class="st3" d="M95.5,224.3c-0.4-0.6-1.1-0.6-1.2,0c-0.1,0.6-0.1,0.9,0.4,1.1C95.3,225.6,95.8,224.6,95.5,224.3z"/>
		<path class="st3" d="M152.8,231.1c-0.9-0.2-2.3,1.3-1.9,2.1c0.3,0.8,1.5,1.9,2.3,1.5c0.8-0.5,1.1-1.4,0.9-2.1
			C153.8,231.9,153.4,231.2,152.8,231.1z"/>
		<path class="st3" d="M128.3,230.6c-1-0.7-2.2-0.2-2.3,0.7c-0.1,0.9,0.6,2.1,1.3,2.1S129.5,231.4,128.3,230.6z"/>
		<path class="st0" d="M105.7,210.5c-1-0.7-2.2-0.2-2.3,0.7c-0.1,0.9,0.6,2.1,1.3,2.1S106.8,211.3,105.7,210.5z"/>
		<path class="st0" d="M140.8,225.6c-1-0.7-2.2-0.2-2.3,0.7c-0.1,0.9,0.6,2.1,1.3,2.1C140.5,228.4,142,226.4,140.8,225.6z"/>
		<path class="st3" d="M111.7,229c-0.1-0.6-1-1.4-1.6-0.9c-0.6,0.5-0.7,0.9,0,1.4C110.8,229.9,111.8,229.7,111.7,229z"/>
		<path class="st3" d="M132.2,236c-0.7,1.3,0.4,2.8,1.4,2.8c1,0.1,2.8-0.6,3.1-1.5c0.3-0.9-0.4-2.3-1.6-2.4
			C134,234.8,132.5,235.5,132.2,236z"/>
		<path class="st0" d="M134.4,222.6c-0.7,1.3,0.4,2.8,1.4,2.8c1,0.1,2.8-0.6,3.1-1.5c0.3-0.9-0.4-2.3-1.6-2.4
			C136.2,221.4,134.7,222.1,134.4,222.6z"/>
		<path class="st3" d="M127.9,237.5c-0.2,1,1.4,1.6,1.9,1.2c0.5-0.4,1.1-1.8,0.6-2C129.8,236.4,128,236.8,127.9,237.5z"/>
		<path class="st0" d="M141.1,219.9c-0.2,1,1.4,1.6,1.9,1.2c0.5-0.4,1.1-1.8,0.6-2C143.1,218.8,141.3,219.3,141.1,219.9z"/>
		<path class="st3" d="M115,233.9c0,0-0.8-0.8-1.5-0.1c-0.7,0.7-0.2,1.3,0.3,1.5C114.4,235.5,115.7,234.8,115,233.9z"/>
		<path class="st3" d="M164,233c-0.6-0.6-1.6-0.2-1.6,0.2c0,0.5,0.5,1.5,1,1.4C164,234.5,164.6,233.6,164,233z"/>
		<path class="st0" d="M125.9,212.9c-0.6-0.6-1.6-0.2-1.6,0.2c0,0.5,0.5,1.5,1,1.4C125.9,214.3,126.4,213.4,125.9,212.9z"/>
		<path class="st3" d="M160.1,236.6c-0.6-0.5-1.3-0.2-1.3,0.1s0.2,1,0.9,1C160.5,237.7,160.7,237,160.1,236.6z"/>
		<path class="st0" d="M129.8,213c-0.6-0.5-1.3-0.2-1.3,0.1c0,0.3,0.2,1,0.9,1C130.1,214.1,130.4,213.5,129.8,213z"/>
		<path class="st3" d="M143.1,238c-0.9,0.3-0.5,1.3,0,1.5c0.5,0.2,1.5,0.1,1.5-0.5C144.6,238.4,144.1,237.6,143.1,238z"/>
		<path class="st0" d="M152.5,217.1c-0.9,0.3-0.5,1.3,0,1.5c0.5,0.2,1.5,0.1,1.5-0.5C154,217.6,153.5,216.8,152.5,217.1z"/>
	</g>
	<g>
		<path class="st3" d="M134.9,238.2c0,0.1,0.1,0.2,0.1,0.4c0.3,1,0.8,1.9,1.4,2.8c2.3,3.2,6.6,5.3,11.6,5.8c2.2,0.2,4.5,0.2,6.9-0.1
			h0c1.4-0.2,2.7-0.5,4.1-0.9c6.7-1.9,12.1-5.8,14.8-10.2c1.8-3,2.5-6.2,1.7-9.3c-0.4-1.6-1.3-3-2.4-4.2c-1.5-1.6-3.5-2.8-5.8-3.7
			c0,0,0,0,0,0c0,0,0,0,0,0c-0.1,0-0.1,0-0.2-0.1c0,0,0,0,0,0c-2-0.7-4.1-1.1-6.5-1.2c-2.2-0.1-4.5,0.1-6.8,0.5
			c-0.6,0.1-1.1,0.2-1.7,0.4c-0.3,0.1-0.6,0.1-0.8,0.2c-4.8,1.4-9,3.8-11.9,6.7c-0.3,0.3-0.7,0.7-1,1c-0.8,0.9-1.5,1.8-2,2.7
			c-1.1,1.9-1.8,3.9-1.9,5.9C134.5,236,134.6,237.1,134.9,238.2z"/>
		<path class="st4" d="M135.9,237.9c0,0.1,0.1,0.2,0.1,0.4c0.3,1,0.8,1.8,1.4,2.7c2.2,3,6.2,5,11.1,5.6c2.1,0.2,4.3,0.2,6.6-0.1h0
			c1.3-0.2,2.6-0.5,3.9-0.8c6.4-1.8,11.5-5.5,14.1-9.7c1.8-2.8,2.4-5.9,1.6-8.8c-0.4-1.5-1.2-2.8-2.3-4c-1.4-1.5-3.3-2.7-5.5-3.5
			c0,0,0,0,0,0c0,0,0,0,0,0c-0.1,0-0.1,0-0.2-0.1c0,0,0,0,0,0c-1.9-0.7-3.9-1-6.2-1.1c-2.1-0.1-4.3,0.1-6.5,0.5
			c-0.5,0.1-1.1,0.2-1.6,0.4c-0.3,0.1-0.5,0.1-0.8,0.2c-4.6,1.3-8.5,3.6-11.3,6.3c-0.3,0.3-0.6,0.6-0.9,1c-0.8,0.8-1.4,1.7-1.9,2.6
			c-1.1,1.8-1.7,3.7-1.8,5.6C135.5,235.9,135.7,236.9,135.9,237.9z"/>
		<path class="st5" d="M170.7,225.5c0,0-1.1-1.3-2-1.2c-0.9,0.1-2.3,1.2-2.2,1.8c0.1,0.6,0.6,2.1,1.8,2.1s2.2-0.3,2.4-0.7
			C170.9,227.1,170.8,226.1,170.7,225.5z"/>
		<path class="st5" d="M166.4,222.4c-0.5-0.3-1.3-0.5-1.7,0c-0.4,0.5-0.5,1.5,0,1.6c0.5,0.1,1.8-0.4,1.8-0.4
			S166.7,222.6,166.4,222.4z"/>
		<path class="st5" d="M163.5,226.5c-0.6-0.4-1.2-0.1-1.1,0.4c0.1,0.5,0.2,0.8,0.7,0.8C163.7,227.7,163.8,226.7,163.5,226.5z"/>
		<path class="st5" d="M147,223.7c-0.8-0.2-2.1,1.2-1.8,1.9c0.3,0.7,1.4,1.8,2.1,1.4c0.7-0.4,1.1-1.3,0.8-1.9
			C147.9,224.5,147.5,223.8,147,223.7z"/>
		<path class="st5" d="M156.8,222.9c-0.9-0.6-2-0.2-2.1,0.6c-0.1,0.8,0.5,1.9,1.2,1.9C156.5,225.4,157.8,223.6,156.8,222.9z"/>
		<path class="st5" d="M152.8,221.9c-0.1-0.5-0.9-1.3-1.5-0.8c-0.5,0.4-0.6,0.8,0,1.3C151.9,222.7,152.9,222.5,152.8,221.9z"/>
		<path class="st5" d="M147.3,240.3c-1.2-0.6-2.5,0.5-2.5,1.5c0,0.9,0.7,2.5,1.6,2.7c0.8,0.2,2.1-0.5,2.1-1.6
			C148.5,241.9,147.7,240.6,147.3,240.3z"/>
		<path class="st5" d="M145.6,236.5c-0.9-0.2-1.4,1.4-0.9,1.8c0.4,0.4,1.7,0.9,1.9,0.4C146.8,238.1,146.3,236.6,145.6,236.5z"/>
		<path class="st5" d="M152.5,237c0,0-0.7-0.7-1.4-0.1c-0.6,0.6-0.2,1.2,0.3,1.4C152,238.5,153.1,237.8,152.5,237z"/>
		<path class="st5" d="M166,234.7c-0.5-0.5-1.5-0.2-1.5,0.2c0,0.4,0.4,1.4,0.9,1.3C166,236,166.5,235.2,166,234.7z"/>
		<path class="st5" d="M162.4,237.9c-0.6-0.5-1.2-0.2-1.2,0.1c0,0.3,0.2,0.9,0.8,0.9C162.8,239,163,238.4,162.4,237.9z"/>
		<path class="st5" d="M139.3,232.3c-0.9,0.3-0.4,1.2,0,1.4c0.4,0.2,1.4,0.1,1.4-0.4C140.7,232.7,140.2,232,139.3,232.3z"/>
	</g>
	<g>
		<path class="st3" d="M148.5,247l-2.1-3.3c-2.2-3.5,0.8-9.5,7-14.9c1.6-1.4,3.5-2.8,5.5-4.1c5.1-3.2,10.3-5.1,14.5-5.6
			c3.8-0.4,6.7,0.4,8.1,2.5l2.1,3.3l-1.5,1c-1,4.5-5.9,10.3-13,14.8c-7.1,4.5-14.5,6.4-19,5.4L148.5,247z"/>
		<path class="st0" d="M159.7,238.7l-6.3-9.9c1.6-1.4,3.5-2.8,5.5-4.1c5.1-3.2,10.3-5.1,14.5-5.6l4.9,7.8L159.7,238.7z"/>
		
			<ellipse transform="matrix(0.8455 -0.534 0.534 0.8455 -100.3061 125.1106)" class="st1" cx="166" cy="235.9" rx="20.8" ry="9.4"/>
		
			<ellipse transform="matrix(0.8455 -0.534 0.534 0.8455 -100.4115 125.2296)" class="st4" cx="166.2" cy="236.1" rx="19.2" ry="8.7"/>
		<path class="st5" d="M180.7,231.3c0,0-0.4,1.4-1.2,1.8c-0.8,0.4-2.4,0.5-2.6,0.1c-0.2-0.5-0.3-1.7,0.7-2.3c1-0.6,2-1,2.3-0.8
			C180.2,230.2,180.6,230.9,180.7,231.3z"/>
		<path class="st5" d="M178.3,235.6c-0.3,0.5-0.9,1-1.4,0.9c-0.6-0.1-1-0.6-0.6-1c0.4-0.3,1.7-0.7,1.7-0.7S178.5,235.3,178.3,235.6z
			"/>
		<path class="st5" d="M174.1,234.6c-0.3,0.5-0.9,0.7-1.1,0.3c-0.1-0.4-0.2-0.6,0.3-0.9C173.8,233.7,174.3,234.3,174.1,234.6z"/>
		<path class="st5" d="M163.2,244.7c-0.6,0.6-2.2,0.4-2.3-0.2c0-0.6,0.5-1.9,1.2-2c0.8-0.1,1.4,0.2,1.5,0.7
			C163.8,243.7,163.6,244.4,163.2,244.7z"/>
		<path class="st5" d="M171.9,240c-0.5,0.9-1.6,1.2-2,0.7c-0.4-0.5-0.3-1.5,0.2-1.8C170.6,238.5,172.5,238.9,171.9,240z"/>
		<path class="st5" d="M168.9,242.8c0.1,0.4-0.3,1.3-0.9,1.3s-0.9-0.2-0.5-0.8C167.9,242.7,168.8,242.3,168.9,242.8z"/>
		<path class="st5" d="M159.5,236.9c-0.8,1-2.4,1-2.7,0.4c-0.4-0.6-0.4-2,0.3-2.6c0.6-0.6,2-0.8,2.4-0.1
			C159.8,235.2,159.8,236.5,159.5,236.9z"/>
		<path class="st5" d="M159.6,240.2c-0.7,0.6-1.7-0.1-1.5-0.6c0.2-0.5,1.1-1.5,1.4-1.3C159.9,238.5,160.1,239.8,159.6,240.2z"/>
		<path class="st5" d="M165.2,236.2c0,0-0.3,0.9-1.1,0.8c-0.8-0.1-0.6-0.6-0.3-1C164.2,235.6,165.4,235.3,165.2,236.2z"/>
		<path class="st5" d="M174.4,229c-0.2,0.6-1.2,0.9-1.3,0.7c-0.2-0.3-0.2-1.1,0.3-1.3C173.9,228.2,174.7,228.4,174.4,229z"/>
		<path class="st5" d="M170.1,228.9c-0.3,0.6-0.9,0.8-1,0.6c-0.1-0.2-0.2-0.7,0.3-1C170,228.1,170.4,228.3,170.1,228.9z"/>
		<path class="st5" d="M154.6,245.5c-0.8,0.3-0.8-0.5-0.5-0.9c0.3-0.4,1.1-0.8,1.3-0.5C155.6,244.5,155.5,245.2,154.6,245.5z"/>
	</g>
	<g>
		<path class="st3" d="M172.4,250.7v3.3c0,3.5,6.3,6.5,15,7.7c2.3,0.3,4.8,0.5,7.4,0.5c6.5,0,12.4-1,16.5-2.6
			c3.7-1.4,5.9-3.4,5.9-5.5v-3.3h-2c-3.5-2.8-11.3-4.8-20.4-4.8c-9.1,0-16.9,2-20.4,4.8H172.4z"/>
		<path class="st0" d="M187.4,251.5v10.1c2.3,0.3,4.8,0.5,7.4,0.5c6.5,0,12.4-1,16.5-2.6v-8H187.4z"/>
		<ellipse class="st1" cx="194.8" cy="250.7" rx="22.4" ry="8.1"/>
		<ellipse class="st4" cx="194.8" cy="250.4" rx="20.7" ry="7.5"/>
		<path class="st5" d="M210.8,247.3c0,0-1.1-0.8-2.2-0.7c-1,0.1-2.5,0.7-2.4,1.1c0.1,0.4,0.7,1.3,1.9,1.3c1.3,0,2.4-0.2,2.6-0.5
			C211.1,248.3,211,247.6,210.8,247.3z"/>
		<path class="st5" d="M206.2,245.3c-0.5-0.2-1.4-0.3-1.8,0c-0.5,0.3-0.6,0.9,0,1c0.6,0.1,1.9-0.3,1.9-0.3S206.5,245.4,206.2,245.3z
			"/>
		<path class="st5" d="M203,247.9c-0.6-0.2-1.3-0.1-1.1,0.3s0.2,0.5,0.8,0.5C203.2,248.7,203.3,248,203,247.9z"/>
		<path class="st5" d="M187.2,245.5c-0.9-0.1-2.3,0.7-1.9,1.2c0.3,0.5,1.5,1.1,2.3,0.9c0.8-0.3,1.1-0.8,0.9-1.2
			S187.8,245.6,187.2,245.5z"/>
		<path class="st5" d="M197.8,245c-1-0.4-2.2-0.1-2.3,0.4c-0.1,0.5,0.6,1.2,1.3,1.2C197.5,246.6,199,245.5,197.8,245z"/>
		<path class="st5" d="M193.5,244.3c-0.1-0.3-1-0.8-1.6-0.5c-0.6,0.3-0.7,0.5,0,0.8C192.6,244.9,193.6,244.7,193.5,244.3z"/>
		<path class="st5" d="M188.3,253c-1.3-0.4-2.7,0.3-2.7,0.9c0,0.6,0.8,1.6,1.7,1.8c0.9,0.1,2.3-0.3,2.3-1
			C189.5,254,188.7,253.1,188.3,253z"/>
		<path class="st5" d="M186.4,250.5c-1-0.1-1.5,0.9-1,1.1c0.5,0.3,1.8,0.6,2.1,0.3C187.7,251.6,187.1,250.6,186.4,250.5z"/>
		<path class="st5" d="M193.9,250.8c0,0-0.8-0.5-1.5-0.1c-0.7,0.4-0.2,0.7,0.3,0.9C193.3,251.8,194.6,251.4,193.9,250.8z"/>
		<path class="st5" d="M206.4,251.8c-0.6-0.3-1.6-0.1-1.6,0.1s0.5,0.9,1,0.8C206.4,252.7,207,252.1,206.4,251.8z"/>
		<path class="st5" d="M202.6,253.9c-0.6-0.3-1.3-0.1-1.3,0.1c0,0.2,0.2,0.6,0.9,0.6C202.9,254.6,203.1,254.2,202.6,253.9z"/>
		<path class="st5" d="M178.8,248.9c-0.9,0.2-0.5,0.7,0,0.9c0.5,0.1,1.5,0.1,1.5-0.3S179.8,248.7,178.8,248.9z"/>
	</g>
	<g>
		<path class="st3" d="M160.2,248.8l0.7,3.2c0.8,3.4,7.6,5,16.3,4.1c2.3-0.2,4.8-0.6,7.3-1.2c6.3-1.5,11.8-3.7,15.5-6.2
			c3.3-2.2,5-4.6,4.6-6.7l-0.7-3.2l-1.9,0.4c-4-2-12.1-2.1-21-0.1c-8.9,2-16.1,5.7-18.8,9.2L160.2,248.8z"/>
		<path class="st0" d="M175,246.2l2.3,9.9c2.3-0.2,4.8-0.6,7.3-1.2c6.3-1.5,11.8-3.7,15.5-6.2l-1.8-7.7L175,246.2z"/>
		<path class="st1" d="M160.2,248.8c1,4.4,11.6,5.7,23.6,2.9c12.1-2.8,21-8.6,20-12.9c-1-4.4-11.6-5.7-23.6-2.9
			C168.2,238.6,159.2,244.4,160.2,248.8z"/>
		<ellipse transform="matrix(0.9746 -0.2239 0.2239 0.9746 -49.899 46.9334)" class="st4" cx="182" cy="243.5" rx="20.7" ry="7.5"/>
		<path class="st5" d="M196.9,236.9c0,0-1.3-0.5-2.3-0.2c-1,0.3-2.3,1.3-2.1,1.7c0.2,0.4,1,1.2,2.2,0.9c1.2-0.3,2.3-0.7,2.5-1
			C197.4,237.8,197.1,237.2,196.9,236.9z"/>
		<path class="st5" d="M191.9,236c-0.6-0.1-1.4,0-1.8,0.4c-0.4,0.4-0.3,1,0.2,1c0.6-0.1,1.8-0.7,1.8-0.7S192.3,236,191.9,236z"/>
		<path class="st5" d="M189.4,239.2c-0.6-0.1-1.2,0.2-1.1,0.5c0.2,0.3,0.3,0.5,0.9,0.3C189.8,240,189.8,239.3,189.4,239.2z"/>
		<path class="st5" d="M173.5,240.5c-0.9,0.1-2.1,1.2-1.6,1.6c0.4,0.4,1.7,0.8,2.4,0.3s0.9-1,0.6-1.4
			C174.6,240.7,174,240.4,173.5,240.5z"/>
		<path class="st5" d="M183.7,237.6c-1.1-0.2-2.1,0.4-2.1,0.9c0,0.6,0.8,1.1,1.5,0.9C183.8,239.2,184.9,237.8,183.7,237.6z"/>
		<path class="st5" d="M179.4,237.9c-0.2-0.3-1.2-0.6-1.7-0.2c-0.5,0.4-0.5,0.7,0.2,0.8C178.6,238.6,179.6,238.2,179.4,237.9z"/>
		<path class="st5" d="M176.2,247.5c-1.4-0.1-2.6,0.9-2.5,1.5c0.1,0.6,1.1,1.4,2.1,1.3c0.9-0.1,2.1-0.8,2-1.5
			C177.7,248.2,176.7,247.5,176.2,247.5z"/>
		<path class="st5" d="M173.9,245.4c-1,0.1-1.2,1.2-0.7,1.3c0.5,0.2,1.9,0.2,2.1-0.2C175.3,246.2,174.5,245.4,173.9,245.4z"/>
		<path class="st5" d="M181.2,244.1c0,0-0.9-0.3-1.5,0.3s-0.1,0.8,0.5,0.8C180.8,245.2,182,244.5,181.2,244.1z"/>
		<path class="st5" d="M193.6,242.3c-0.6-0.2-1.6,0.2-1.5,0.5c0.1,0.3,0.6,0.8,1.2,0.6C193.8,243.1,194.3,242.5,193.6,242.3z"/>
		<path class="st5" d="M190.3,245.2c-0.7-0.1-1.3,0.1-1.2,0.3c0,0.2,0.4,0.5,1,0.4C190.8,245.7,190.9,245.3,190.3,245.2z"/>
		<path class="st5" d="M166.1,245.6c-0.9,0.4-0.3,0.8,0.2,0.9c0.5,0,1.5-0.3,1.4-0.6C167.6,245.6,167,245.2,166.1,245.6z"/>
	</g>
</g>
</svg>
