<?xml version="1.0" encoding="utf-8"?>
<!-- Generator: Adobe Illustrator 25.0.0, SVG Export Plug-In . SVG Version: 6.00 Build 0)  -->
<svg version="1.1" id="Layer_1" xmlns="http://www.w3.org/2000/svg" xmlns:xlink="http://www.w3.org/1999/xlink" x="0px" y="0px"
	 viewBox="0 0 67.9 58.6" style="enable-background:new 0 0 67.9 58.6;" xml:space="preserve">
<style type="text/css">
	.st0{fill:#FCD624;}
	.st1{fill:#3D3409;}
	.st2{fill:#EBC41A;}
	.st3{fill:#F2E7AC;}
	.st4{fill:#CFE6C8;}
	.st5{fill:#453811;}
	.st6{fill:#8A5E3E;}
	.st7{fill:#BFB8B4;}
	.st8{fill:#FFED96;}
	.st9{fill:#3D2609;}
	.st10{fill:#61530E;}
	.st11{fill:#F2E9B8;}
	.st12{fill:#69410F;}
</style>
<g>
	<g>
		<path class="st0" d="M62.2,0.9c0,0.1,0.1,0.3,0.1,0.5c0,0.2,0,0.3,0,0.4c0,0.1,0,0.2,0,0.3c0,0.2,0,0.5,0,0.8c0,0.1,0,0.3,0,0.5
			c0,0,0,0.1,0,0.1c0,0.1,0,0.3,0,0.4c0,0.1,0,0.2,0,0.2c0,0.2,0,0.5,0.1,0.8c0,0.1,0,0.3,0,0.4c0,0.1,0,0.3,0,0.5
			c0,0.2,0,0.3,0,0.5c0,0.1,0,0.2,0,0.2c0,0.1,0,0.2,0,0.3c0,0.2,0,0.5,0.1,0.7c0,0.3,0.1,0.5,0.1,0.8c0,0.1,0,0.2,0,0.3
			c0,0,0,0,0,0.1l0,0.2c0,0.1,0,0.1,0,0.2c0,0.2,0,0.3,0.1,0.5c0,0.1,0,0.1,0,0.2c0,0.2,0.1,0.4,0.1,0.6c0,0.2,0.1,0.4,0.1,0.6
			c0,0.1,0,0.2,0.1,0.3c0,0.1,0,0.1,0,0.2c0,0,0,0.1,0,0.1c0,0,0,0.1,0,0.1c0,0,0,0.1,0,0.1c0,0,0,0.1,0,0.1c0,0,0,0,0,0.1
			c0,0.1,0,0.1,0,0.2c0,0.1,0,0.2,0.1,0.2c0.1,0.2,0.1,0.4,0.2,0.6c0.1,0.2,0.1,0.4,0.2,0.6c0.2,0.5,0.6,1.3,1.1,2.3
			c0.2,0.5,0.5,1,0.7,1.5c1.4,3.3,2.8,8.2,1.6,14c-0.1,0.6-0.3,1.3-0.5,1.9c-0.1,0.2-0.1,0.3-0.2,0.5c-1.4,4.2-4.3,8.7-9.6,13.4
			c0,0,0,0-0.1,0.1c0,0,0,0-0.1,0.1c0,0-0.1,0-0.1,0.1c-0.1,0.1-0.2,0.1-0.2,0.2c0,0,0,0,0,0c-0.8,0.7-1.8,1.5-2.6,2.2
			c-0.1,0.1-0.2,0.1-0.2,0.2c0,0-0.1,0-0.1,0.1c0,0-0.1,0.1-0.1,0.1c-0.1,0-0.1,0.1-0.2,0.1c-0.1,0.1-0.2,0.2-0.3,0.2
			c0,0-0.1,0.1-0.1,0.1c-0.1,0.1-0.2,0.1-0.2,0.2c-0.1,0.1-0.2,0.1-0.2,0.2c-0.1,0.1-0.2,0.1-0.2,0.2c-0.1,0.1-0.2,0.1-0.2,0.2
			c-0.2,0.1-0.3,0.2-0.5,0.3c-0.2,0.1-0.3,0.2-0.5,0.3c-0.1,0.1-0.2,0.1-0.2,0.2c-0.1,0.1-0.2,0.1-0.2,0.2c-0.1,0-0.2,0.1-0.2,0.2
			c-0.2,0.1-0.3,0.2-0.5,0.3c-0.1,0-0.1,0.1-0.2,0.1c-0.1,0.1-0.2,0.1-0.3,0.2c0,0-0.1,0.1-0.1,0.1c-0.1,0.1-0.2,0.1-0.3,0.1
			c-0.2,0.1-0.3,0.2-0.5,0.3c-0.1,0-0.1,0-0.1,0.1c-0.2,0.1-0.4,0.2-0.6,0.3c-0.4,0.2-0.9,0.5-1.4,0.7c0,0-0.1,0-0.1,0
			c-0.1,0-0.1,0-0.1,0c-0.1,0-0.1,0.1-0.2,0.1c0,0,0,0-0.1,0c0,0-0.1,0-0.1,0c-0.7,0.3-1.3,0.6-2,0.9c-0.8,0.3-1.6,0.6-2.4,0.9
			c-0.2,0.1-0.4,0.1-0.6,0.2c-0.1,0-0.3,0.1-0.4,0.1c-3.5,1.1-7.2,1.8-10.9,1.9c-8.7,0.3-17.3-2.3-24-9.1C4.8,49,4.4,48.5,4,48
			c-0.3-0.4-0.7-0.8-1-1.2c0,0-0.1-0.1-0.1-0.1C2.6,46.4,2.3,46,2,45.6c-0.1-0.1-0.2-0.3-0.3-0.5c-0.1-0.1-0.1-0.2-0.2-0.2
			c0,0,0-0.1-0.1-0.1c-0.1-0.1-0.2-0.3-0.3-0.4c0-0.1-0.1-0.1-0.1-0.2C1,44.1,0.9,44.1,0.9,44c-0.1-0.2-0.3-0.4-0.4-0.7
			c-0.1-0.1-0.1-0.1-0.1-0.2c0-0.1-0.1-0.1-0.1-0.2c0-0.1-0.1-0.1-0.1-0.2c0-0.1-0.1-0.1-0.1-0.2c0,0,0,0,0-0.1c0,0,0-0.1,0.1-0.2
			c0,0,0-0.1,0.1-0.2c0,0,0-0.1,0-0.1c0,0,0-0.1,0.1-0.1c0,0,0-0.1,0.1-0.1c0-0.1,0.1-0.2,0.1-0.2c0,0,0,0,0-0.1
			c0-0.1,0.1-0.2,0.1-0.2c0,0,0-0.1,0.1-0.1c0,0,0-0.1,0.1-0.1c0-0.1,0.1-0.1,0.1-0.2c0,0,0-0.1,0.1-0.1c0,0,0-0.1,0.1-0.1
			C1,40.5,1,40.5,1.1,40.4c0,0,0.1-0.1,0.1-0.1c0.1-0.1,0.2-0.2,0.3-0.3c0,0,0,0,0.1-0.1c0.1-0.1,0.2-0.2,0.3-0.3c0,0,0.1,0,0.1-0.1
			c0.1-0.1,0.1-0.1,0.2-0.1c0.1,0,0.1-0.1,0.2-0.1c0,0,0.1,0,0.1-0.1c0,0,0.1,0,0.1,0c0.1,0,0.2-0.1,0.2-0.1c0,0,0.1,0,0.1,0
			C2.9,39.1,3.1,39,3.2,39c0,0,0.1,0,0.1,0c0.4-0.1,0.7,0,1,0c0.1,0,0.3,0,0.4,0c0.3,0,0.7,0,1,0.1c0.5,0,1.1,0,1.6,0
			c0.5,0,1.1,0,1.6,0c0.1,0,0.2,0,0.3,0c0.1,0,0.2,0,0.3,0c0.1,0,0.2,0,0.3,0c0.1,0,0.2,0,0.3,0c0.5,0.1,1,0.1,1.5,0.2
			c0.2,0,0.5,0.1,0.7,0.1c2.6,0.5,5.2,1.2,7.9,1.7c0.5,0.1,1,0.2,1.5,0.2c0.2,0,0.3,0,0.5,0.1c1,0.1,1.9,0.2,2.8,0.2
			c0.1,0,0.2,0,0.3,0c6.2,0.2,11.7-1.3,16.1-4.4c0.2-0.2,0.5-0.3,0.7-0.5c0.3-0.2,0.5-0.4,0.8-0.6c0.1-0.1,0.2-0.1,0.2-0.2
			c0.1-0.1,0.2-0.1,0.2-0.2c0.2-0.1,0.3-0.3,0.5-0.4c0.2-0.2,0.4-0.4,0.6-0.6c5.3-5.4,7.4-12,9.3-16.6c0.8-1.9,1.6-3.5,2.7-4.6
			c0.1-0.1,0.1-0.1,0.2-0.2c0.1-0.1,0.2-0.2,0.3-0.3c0,0,0-0.3,0.1-0.9c0-0.2,0-0.5,0-0.8c0-0.2,0-0.4,0-0.6c0-0.1,0-0.1,0-0.2
			c0-0.1,0-0.1,0-0.2c0-0.4,0-0.7,0-1.1c0-0.2,0-0.4,0-0.6c0-1.2,0-2.5-0.2-3.5c0-0.1,0-0.2,0-0.3c0-0.2-0.1-0.4-0.1-0.6
			C57,4.3,57,4.1,57,3.9c0-0.1,0-0.2,0-0.3c0-0.3-0.1-0.5-0.1-0.7c0-0.1,0-0.2-0.1-0.3c-0.1-0.3-0.1-0.5,0-0.8c0,0,0,0,0-0.1
			c0-0.1,0.1-0.2,0.1-0.3c0,0,0-0.1,0-0.1C56.9,1.2,57,1.1,57.1,1c0.2-0.3,0.6-0.5,1-0.6L59.3,0l0.1,0l0.4,0c0,0,1.6,0.2,1.6,0.2
			c0.1,0,0.1,0,0.1,0c0.3,0.1,0.5,0.2,0.6,0.3C62.1,0.7,62.1,0.8,62.2,0.9z"/>
	</g>
	<g>
		<path class="st1" d="M59.9,8.5c-0.3,1.7,0.1,2.3-0.3,4.1c-0.3,1.3-2.4,3.3-3,4.7c-0.7,1.7-1.2,3.6-1.5,5.4
			c-0.6,3.9-2.5,7.6-4.9,10.9c-1.9,2.6-13.6,13.4-26.2,12.3c-2.6-0.2-5-0.9-7.4-1.8c-3.5-1.2-7.4-2.8-11.4-3.4
			c-0.7-0.1-2.9,0.1-3.4-0.2c-0.7-0.5-0.3,0.6-0.2,1.5c0.1,0.8,0.8,1.4,1.4,1.9c3.4,2.6,7.6,5.7,11.9,6.2
			c14.1,1.5,28.4-2.8,39.1-11.3c7.3-5.8,9.7-19.2,7.2-27.2C61.1,11,59.9,9,59.9,8.5z"/>
	</g>
	<g>
		<path class="st2" d="M62.2,0.9c0,0.1,0,0.1,0,0.2c0,0.1,0,0.2,0,0.3c0,0.1,0,0.1,0,0.1c0,0,0,0,0,0.1c0,0.1,0,0.3,0,0.4
			c0,0.1,0,0.2,0,0.2c0,0.1,0,0.3,0,0.4c0,0.1,0,0.2,0,0.3c0,0.2,0,0.4,0,0.6c0,0.1,0,0.3,0,0.4c0.2,2.4,0.4,4.3,0.6,5.7
			c0.1,0.6,0.2,1.2,0.3,1.7c0,0,0,0.1,0,0.1c0,0.1,0,0.1,0,0.2c0,0.2,0.1,0.4,0.1,0.5c0.1,0.4,0.2,0.8,0.3,1.1
			c0.2,0.6,0.6,1.3,1,2.1c0.3,0.5,0.5,1.1,0.8,1.7c1.5,3.3,3,8,1.6,14c-0.2,0.6-0.3,1.2-0.5,1.9c-0.3,0.8-0.6,1.6-0.9,2.4
			c0,0-0.2,0.4-0.2,0.5c0,0,0,0,0,0.1c-1.6,3.3-3.6,5.9-5.4,7.9c-1.2,1.3-2.4,2.4-3.3,3.2c0,0-0.1,0.1-0.1,0.1
			c-0.1,0.1-0.2,0.1-0.2,0.2c0,0,0,0,0,0c-0.8,0.7-1.8,1.5-2.6,2.2c-0.1,0.1-0.2,0.1-0.2,0.2c0,0-0.1,0.1-0.1,0.1
			c0,0-0.1,0.1-0.1,0.1c-0.1,0.1-0.2,0.1-0.3,0.2c-0.1,0.1-0.3,0.2-0.4,0.3c-0.1,0.1-0.2,0.1-0.2,0.2c-0.1,0.1-0.2,0.1-0.2,0.2
			c-0.1,0.1-0.2,0.1-0.2,0.2c-0.1,0.1-0.2,0.1-0.2,0.2c-0.2,0.1-0.3,0.2-0.5,0.3c-0.2,0.1-0.3,0.2-0.5,0.3c-0.1,0.1-0.2,0.1-0.2,0.2
			c-0.1,0.1-0.2,0.1-0.2,0.2c-0.1,0.1-0.2,0.1-0.2,0.2c-0.2,0.1-0.3,0.2-0.5,0.3c-0.1,0-0.1,0.1-0.2,0.1c-0.1,0.1-0.2,0.1-0.3,0.2
			c0,0-0.1,0.1-0.1,0.1c-0.1,0.1-0.2,0.1-0.3,0.2c-0.2,0.1-0.3,0.2-0.5,0.3c0,0-0.1,0-0.1,0.1c-0.7,0.4-1.4,0.7-2.1,1
			c-0.2,0.1-1.1,0.6-2.5,1.1c-0.2,0.1-0.4,0.2-0.6,0.2c-3.1,1.1-8.1,2.6-13.7,2.9c-1.9,0.1-3.8,0.1-5.7-0.2c-0.1,0-0.1,0-0.2,0
			c-0.1,0-0.1,0-0.2,0c-0.1,0-0.2,0-0.2,0c-0.2,0.1-6-0.8-11.1-3.7c-0.1-0.1-0.2-0.1-0.3-0.2c-0.1-0.1-0.3-0.2-0.4-0.2
			c-0.1,0-0.1-0.1-0.2-0.1c-0.1-0.1-0.2-0.1-0.3-0.2c-0.3-0.2-0.7-0.4-1-0.7c-0.1-0.1-0.2-0.1-0.3-0.2c-1.3-0.9-2.6-2-3.8-3.2
			c-0.2-0.2-0.4-0.4-0.6-0.7c-0.3-0.3-0.6-0.6-0.9-1c-0.1-0.2-0.3-0.3-0.4-0.5c-0.1-0.1-0.2-0.2-0.3-0.4C3.2,47.2,3.1,47,3,46.9
			c-0.3-0.4-0.6-0.8-1-1.3c-0.1-0.1-0.2-0.3-0.3-0.5c0,0,0-0.1-0.1-0.1c-0.1-0.1-0.1-0.2-0.2-0.2c-0.1-0.2-0.2-0.3-0.3-0.4
			c0-0.1-0.1-0.1-0.1-0.2C1,44.1,0.9,44.1,0.9,44c-0.1-0.2-0.3-0.4-0.4-0.7C0.3,43,0.1,42.8,0,42.6c0,0,0,0,0-0.1c0,0,0-0.1,0.1-0.2
			c0,0,0-0.1,0.1-0.2c0,0,0-0.1,0-0.1c0.1-0.2,0.1-0.3,0.2-0.5c0.1-0.2,0.2-0.3,0.3-0.5c0-0.1,0.1-0.1,0.1-0.2
			c0-0.1,0.1-0.1,0.1-0.2c0-0.1,0.1-0.1,0.1-0.2c0.1-0.1,0.2-0.3,0.3-0.4c0,0,0,0,0.1-0.1c0.2,0,0.4,0.1,0.6,0.1
			c0.1,0,0.2,0,0.2,0.1c0.2,0,0.3,0.1,0.4,0.1c0.1,0,0.2,0.1,0.3,0.1c0.2,0.1,0.4,0.1,0.5,0.2c0.4,0.1,0.7,0.2,1,0.3
			C5,41,5.3,41.1,5.5,41.1c0.2,0,0.3,0.1,0.5,0.1c1.3,0.4,2,0.6,2,0.6c2.2,0.7,4.4,1.3,5.8,1.8c4,1.4,15.3,6.9,29.1-2
			C56.8,32.7,56.7,22,56.7,22s0.4-4.4,1.8-7c0.1-0.2,0.2-0.3,0.3-0.4c0,0,0.1-0.1,0.1-0.1c0.2-0.3,0.4-0.5,0.6-0.6
			c0,0,0.1-0.1,0.1-0.1c0.2-1.2,0.4-2.6,0.4-4.2c0-0.2,0-0.4,0-0.7c0-1.2,0-2.4-0.1-3.7c0-0.1,0-0.3,0-0.4c0-0.1,0-0.3,0-0.4
			c0-0.2,0-0.3,0-0.5c0-0.2,0-0.4,0-0.5c0-0.1,0-0.3,0-0.4c0-0.3-0.1-0.5-0.1-0.8c0-0.3-0.1-0.5-0.1-0.8c-0.1-0.4-0.1-0.8-0.2-1.1
			c0-0.1,0-0.2,0-0.3l0.4,0l1.6,0.2c0.1,0,0.1,0,0.1,0c0.1,0,0.2,0.1,0.2,0.1c0,0,0,0,0.1,0l0.1,0c0.1,0,0.1,0.1,0.2,0.1
			c0,0,0,0,0,0c0,0,0,0,0,0c0,0.1,0.1,0.1,0.1,0.1c0,0,0,0,0,0.1c0,0,0,0.1,0,0.1C62.2,0.9,62.2,0.9,62.2,0.9z"/>
	</g>
	<g>
		<path class="st3" d="M62.2,0.9c0,0.1,0,0.1,0,0.2c0,0.1,0,0.2,0,0.3c0,0.2,0,0.3,0,0.4c0,0.4,0.1,1,0.1,1.6c0,0,0,0.1,0,0.1
			c0,0.1,0,0.3,0,0.4c0,0.3,0.1,0.7,0.1,1c0,0.1,0,0.3,0,0.4c0,0.1,0,0.3,0,0.4c0,0.2,0,0.3,0,0.5c0,0.1,0,0.2,0,0.2
			c0,0.1,0,0.2,0,0.3c0,0.5,0.1,1,0.2,1.5c0,0.1,0,0.2,0,0.3c0,0,0,0,0,0.1c0,0.2,0.1,0.4,0.1,0.6c0,0.1,0,0.3,0.1,0.4
			c0,0.2,0.1,0.4,0.1,0.6c0,0.2,0.1,0.4,0.1,0.6c0,0.2,0.1,0.3,0.1,0.4c0,0.1,0,0.2,0.1,0.2c0,0.2,0.1,0.4,0.1,0.5
			c-0.6,0-1.1,0-1.7,0.2c-0.1,0-0.2,0.1-0.3,0.1c-0.2,0.1-0.4,0.2-0.6,0.3c-0.8,0.5-1.3,1.1-2,1.7c0,0-0.1,0.1-0.1,0.1
			c0,0,0,0-0.1,0c-0.1,0-0.1,0-0.2-0.1c-0.1-0.1-0.1-0.1-0.1-0.2c-0.3-0.5-0.9-0.8-1.6-0.9c0.1-0.1,0.2-0.2,0.3-0.3
			c0,0,0-0.3,0.1-0.9c0-0.2,0-0.5,0-0.8c0-0.2,0-0.4,0-0.6c0-0.1,0-0.1,0-0.2c0-0.1,0-0.1,0-0.2c0-0.4,0-0.7,0-1.1
			c0-0.2,0-0.4,0-0.6c-0.1-1.2,0-2.3-0.2-3.5c0-0.1,0-0.2,0-0.3C57.1,4.6,57,4.2,57,3.9c-0.1-0.3-0.1-0.6-0.2-1c0-0.1,0-0.2-0.1-0.3
			c-0.1-0.3-0.1-0.5,0-0.8c0,0,0,0,0-0.1c0.1-0.3,0.2-0.6,0.4-0.8c0.2-0.3,0.6-0.5,1-0.6L59.3,0l0.1,0l0.4,0l1.6,0.2
			c0.1,0,0.1,0,0.1,0c0.1,0,0.1,0,0.1,0c0.2,0.1,0.3,0.1,0.4,0.3c0,0.1,0.1,0.1,0.1,0.1c0,0,0,0,0,0.1c0,0,0,0.1,0,0.1
			C62.2,0.9,62.2,0.9,62.2,0.9z"/>
	</g>
	<g>
		<path class="st4" d="M62.2,0.9c0,0.1,0,0.1,0,0.2c0,0.1,0,0.2,0,0.3c0,0.1,0,0.1,0,0.1c0,0.1,0,0.3,0,0.4c0,0.1,0,0.2,0,0.2
			c0,0.1,0,0.3,0,0.4c0,0.1,0,0.2,0,0.3c0,0.1,0,0.2,0,0.3c0,0,0,0.1,0,0.1c0,0,0,0.1,0,0.1c0,0.1,0,0.3,0,0.4c0,0.3,0.1,0.7,0.1,1
			c0,0.1,0,0.3,0,0.4c0,0.1,0,0.3,0,0.4c0,0.2,0,0.3,0,0.5c0,0.1,0,0.2,0,0.2c0,0.1,0,0.2,0,0.3c0,0.2,0,0.5,0.1,0.7
			c0,0.3,0.1,0.5,0.1,0.8c0,0.1,0,0.2,0,0.3c0,0,0,0,0,0.1c0,0.1,0,0.3,0,0.4c0,0.1,0,0.2,0,0.3c0,0.1,0,0.3,0.1,0.4
			c-0.8-0.1-0.8,0.8-1.4,0.7c-0.2,0-0.5-0.2-0.6-0.4C61,9.8,61,9.6,60.9,9.3c0-0.2-0.1-0.3-0.2-0.5c0-0.1-0.1-0.1-0.1-0.2
			c-0.1,0.3-0.2,0.5-0.4,0.7c-0.1,0.1-0.2,0.1-0.2,0.1c-0.1,0-0.1,0-0.2,0c-0.1,0-0.3,0-0.4-0.1c-0.2-0.2-0.2-0.5-0.5-0.6
			c-0.8-0.6-1.5,1.4-1.6-0.1c-0.1-1.2,0-2.3-0.2-3.5c0-0.1,0-0.2,0-0.3C57.1,4.6,57,4.2,57,3.9c0-0.1,0-0.2,0-0.3
			c0-0.3-0.1-0.5-0.2-0.7c0.2-0.3,0.4-0.7,0.7-1c0.2-0.2,0.3-0.4,0.5-0.6c0.4-0.4,0.8-0.8,1.2-1c0.1,0,0.2-0.1,0.2-0.1
			c0.1-0.1,0.2-0.1,0.4-0.2l1.6,0.2c0.1,0,0.1,0,0.1,0c0.1,0,0.2,0.1,0.2,0.1c0,0,0,0,0.1,0l0.1,0c0.1,0,0.1,0.1,0.2,0.1
			c0,0,0,0,0,0c0,0,0,0,0,0c0,0.1,0.1,0.1,0.1,0.1c0,0,0,0,0,0.1c0,0,0,0.1,0,0.1C62.2,0.9,62.2,0.9,62.2,0.9z"/>
	</g>
	<g>
		<path class="st5" d="M3.2,39l0.4,1.6l0,0.1L0.2,43c-0.1-0.1-0.2-0.3-0.2-0.4c0,0,0.4-1.6,1.5-2.6c0.3-0.3,0.6-0.5,1-0.7
			C2.7,39.1,3,39.1,3.2,39z"/>
	</g>
	<g>
		<path class="st3" d="M67.9,26.7c-0.1,2.1-0.5,4.3-1.2,6.3c0,0.1-0.1,0.2-0.1,0.3c-0.2,0.7-0.5,1.4-0.8,2c0,0-0.1,0.2-0.2,0.5
			c0,0,0,0,0,0.1c-0.3,0.7-0.9,1.7-0.9,1.7C64.4,38,64,38.6,63.8,39c-1.1,1.7-2.4,3.3-3.7,4.8C59.1,45,58,46,56.9,47
			c0,0-0.1,0.1-0.1,0.1c0,0-0.1,0.1-0.1,0.1c-0.1,0.1-0.2,0.1-0.2,0.2c0,0,0,0,0,0c-0.8,0.7-1.8,1.5-2.6,2.2
			c-0.1,0.1-0.2,0.1-0.2,0.2c0,0-0.1,0.1-0.1,0.1c0,0-0.1,0.1-0.1,0.1c-0.1,0.1-0.2,0.1-0.3,0.2c-0.1,0.1-0.3,0.2-0.4,0.3
			c-0.1,0.1-0.2,0.1-0.2,0.2c-0.1,0.1-0.2,0.1-0.2,0.2c-0.1,0.1-0.2,0.1-0.2,0.2c-0.1,0.1-0.2,0.1-0.2,0.2c-0.2,0.1-0.3,0.2-0.5,0.3
			c-0.2,0.1-0.3,0.2-0.5,0.3c-0.1,0.1-0.2,0.1-0.2,0.2c-0.1,0.1-0.2,0.1-0.2,0.2c-0.1,0.1-0.2,0.1-0.2,0.2c-0.2,0.1-0.3,0.2-0.5,0.3
			c-0.1,0-0.1,0.1-0.2,0.1c-0.1,0.1-0.2,0.1-0.3,0.2c0,0-0.1,0.1-0.1,0.1c-0.1,0.1-0.2,0.1-0.3,0.2c-0.2,0.1-0.3,0.2-0.5,0.3
			c0,0-0.1,0-0.1,0.1c-0.7,0.4-1.4,0.7-2.1,1c-0.2,0.1-1.1,0.6-2.5,1.1c-0.2,0.1-0.4,0.2-0.6,0.2c-3.1,1.1-8.1,2.6-13.7,2.9
			c-1.9,0.1-3.8,0.1-5.7-0.2c-0.1,0-0.1,0-0.2,0c-0.1,0-0.1,0-0.2,0c-0.1,0-0.2,0-0.2,0c-0.2,0.1-6-0.8-11.1-3.7
			c-0.1-0.1-0.2-0.1-0.3-0.2c-0.1-0.1-0.3-0.2-0.4-0.2c-0.1,0-0.1-0.1-0.2-0.1c-0.1-0.1-0.2-0.1-0.3-0.2c-0.3-0.2-0.7-0.4-1-0.7
			c-0.1-0.1-0.2-0.1-0.3-0.2c-1.3-0.9-2.6-2-3.8-3.2c-0.2-0.2-0.4-0.4-0.6-0.7c-0.3-0.3-0.6-0.6-0.9-1c-0.1-0.2-0.3-0.3-0.4-0.5
			c-0.1-0.1-0.2-0.2-0.3-0.4C3.2,47.2,3.1,47,3,46.9c-0.4-0.6-0.9-1.2-1.3-1.7c0,0,0-0.1-0.1-0.1c-0.1-0.1-0.1-0.2-0.2-0.2
			c-0.1-0.2-0.2-0.3-0.3-0.4c0-0.1-0.1-0.1-0.1-0.2C1,44.1,0.9,44.1,0.9,44c-0.1-0.2-0.3-0.4-0.4-0.7C0.3,43,0.1,42.8,0,42.6
			c0,0,0,0,0-0.1c0,0,0-0.1,0.1-0.2c0,0,0-0.1,0.1-0.2c0,0,0-0.1,0-0.1c0.1-0.2,0.1-0.3,0.2-0.5c0.1-0.2,0.2-0.3,0.3-0.5
			c0-0.1,0.1-0.1,0.1-0.2c0-0.1,0.1-0.1,0.1-0.2c0-0.1,0.1-0.1,0.1-0.2c0.1-0.1,0.2-0.3,0.3-0.4c0,0,0,0,0.1-0.1
			c0.2,0,0.4,0.1,0.6,0.1c0.1,0,0.2,0,0.2,0.1c0.2,0,0.3,0.1,0.4,0.1c0.1,0,0.2,0.1,0.3,0.1c0.2,0.1,0.4,0.1,0.5,0.2
			c0.4,0.1,0.7,0.2,1,0.3C5,41,5.3,41.1,5.5,41.1c0.2,0,0.3,0.1,0.5,0.1c1.3,0.4,2,0.6,2,0.6c0.2,0.1,0.9,0.4,0.8,0.4
			c-3,0.8-3.3,2.9-2.2,4.9c0.3,0.6,0.8,1.2,1.3,1.8c7.4,7.5,27.1,10.6,44.4-2.8c4.5-3.5,9.7-8.1,11.9-13.4c2-4.8,2.3-10.1,1.4-14.5
			c-0.2-1-0.5-1.9-0.8-2.8c0-0.1-0.1-0.2-0.1-0.2c0.1,0.1,0.1,0.3,0.2,0.4C66.8,19.1,68,22.8,67.9,26.7z"/>
	</g>
	<g>
		<path class="st4" d="M6.1,39.2C6.1,39.3,6.1,39.3,6.1,39.2c0.1,0.4-0.9,0.3-1.1,0.4c-0.4,0.2-0.8,0.2-0.5,0.5
			c0.1,0,0.1,0.1,0.2,0.1c0.2,0.1,0.5,0.3,0.6,0.5c0,0.1,0,0.2,0,0.3c-0.1,0.1-0.2,0.2-0.3,0.1c0,0.2,0,0.3,0.1,0.4
			c0.1,0.1,0.3,0.2,0.4,0.3c0.3,0.1,0.7,0.2,0.8,0.5c0.2,0.4-0.2,1-0.7,1.1c-1.3,0.5-1.5,0.6-2,1.8c-0.1,0.2-0.4,0.8-0.6,1.4
			c-0.1-0.2-0.3-0.4-0.4-0.6c-0.1-0.1-0.2-0.3-0.3-0.4c-0.1-0.2-0.3-0.4-0.4-0.6c-0.2-0.2-0.3-0.5-0.5-0.7c-0.2-0.2-0.3-0.5-0.5-0.7
			c0,0,0,0,0-0.1c-0.1-0.2-0.2-0.4-0.4-0.6c0.2-1,0.8-1.5,1.3-2.4c0.1-0.2,0.2-0.4,0.3-0.7c0.1-0.2,0.2-0.5,0.3-0.7
			c0.1,0,0.1-0.1,0.2-0.1C2.7,39.1,3,39.1,3.2,39c0.1,0,0.1,0,0.2,0c0.3,0,0.6,0,1,0c0.1,0,0.3,0,0.4,0c0.3,0,0.7,0,1,0.1
			C5.9,39.1,6,39.1,6.1,39.2z"/>
	</g>
	<g>
		<path class="st6" d="M62.2,0.9c0,0.1,0,0.1,0,0.2c0,0.1,0,0.2,0,0.3c0,0.1,0,0.1,0,0.1c0,0.1,0,0.3,0,0.4c0,0.1,0,0.2,0,0.2
			c0,0.1,0,0.3,0,0.4c0,0.1,0,0.2,0,0.3c0,0.1,0,0.2,0,0.3c0,0,0,0.1,0,0.1c0,0,0,0.1,0,0.1c0,0.1,0,0.3,0,0.4c-0.9,0.5-2,1-2.5,1.2
			c-0.2,0.1-0.3,0.1-0.3,0.1c-0.2,0.1-1.5-0.2-2.5-0.3C57.1,4.6,57,4.2,57,3.9c0-0.1,0-0.2,0-0.3c0-0.3-0.1-0.5-0.2-0.7
			c0-0.1,0-0.2-0.1-0.3c-0.1-0.3-0.1-0.5,0-0.8c0,0,0,0,0-0.1c0.1-0.3,0.2-0.6,0.4-0.8c0.2-0.3,0.6-0.5,1-0.6L59.3,0l0.1,0l0.4,0
			l1.6,0.2c0,0,0.1,0,0.1,0c0.2,0.1,0.2,0.1,0.2,0.1c0,0,0,0,0.1,0c0,0,0,0,0.1,0c0.1,0,0.1,0.1,0.2,0.1c0,0,0,0,0,0c0,0,0,0,0,0
			c0,0.1,0.1,0.1,0.1,0.1c0,0,0,0,0,0.1c0,0,0,0.1,0,0.1C62.2,0.9,62.2,0.9,62.2,0.9z"/>
	</g>
	<g>
		<path class="st7" d="M62.2,0.9c0,0.1,0,0.1,0,0.2c0,0.1,0,0.2,0,0.3c0,0.1,0,0.1,0,0.1c0,0.1,0,0.3,0,0.4c0,0.1,0,0.2,0,0.2
			c0,0.1,0,0.3,0,0.4c0,0.1,0,0.2,0,0.3c0,0.1,0,0.2,0,0.3c0,0,0,0.1,0,0.1c0,0,0,0.1,0,0.1c0,0.1,0,0.3,0,0.4c-0.9,0.5-2,1-2.5,1.2
			c0-0.1,0-0.3,0-0.4c0-0.1,0-0.3,0-0.4c0-0.2,0-0.3,0-0.5c0-0.2,0-0.4,0-0.5c0-0.1,0-0.3,0-0.4c0-0.3-0.1-0.5-0.1-0.8
			c0-0.1,0-0.2,0-0.3c0-0.2,0-0.3-0.1-0.5c-0.1-0.4-0.1-0.8-0.2-1.1c0-0.1,0-0.2-0.1-0.3l0.4,0l1.6,0.2c0.1,0,0.1,0,0.1,0
			c0.1,0,0.1,0,0.1,0c0,0,0,0,0.1,0c0,0,0,0,0.1,0c0,0,0,0,0.1,0c0.1,0,0.1,0.1,0.2,0.1c0,0,0,0,0,0c0,0,0,0,0,0
			c0,0.1,0.1,0.1,0.1,0.1c0,0,0,0,0,0.1c0,0,0,0.1,0,0.1C62.2,0.9,62.2,0.9,62.2,0.9z"/>
	</g>
	<g>
		<path class="st8" d="M62.4,3.5c0,0.1,0,0.3,0,0.4c0,0.3,0.1,0.7,0.1,1c0,0.1,0,0.3,0,0.4c0,0.1,0,0.3,0,0.4c0,0.2,0,0.3,0,0.5
			c0,0.1,0,0.2,0,0.2c0,0.1,0,0.2,0,0.3c0,0.2,0,0.5,0.1,0.7c0,0.3,0.1,0.5,0.1,0.8c0,0.1,0,0.2,0,0.3c0,0,0,0,0,0.1
			c0,0.2,0.1,0.4,0.1,0.6c0,0.1,0,0.3,0.1,0.4c0,0.2,0.1,0.4,0.1,0.6c0,0.2,0.1,0.4,0.1,0.6c0,0.2,0.1,0.3,0.1,0.4
			c0,0.1,0,0.2,0.1,0.3c0,0,0,0.1,0,0.1c0,0,0,0.1,0,0.1c0,0.1,0,0.2,0.1,0.2c0.1,0.2,0.1,0.4,0.2,0.6c-0.3,0-0.7,0-1-0.1
			c-0.3-0.1-0.6-0.2-0.8-0.3c0,0-0.1,0-0.1-0.1c-0.1-0.1-0.2-0.1-0.3-0.2c-0.1,0-0.1-0.1-0.1-0.1c-0.5-0.4-0.6-1.1-0.7-1.8
			c0-0.4,0-0.9,0.1-1.4c0.3-1.7,1.1-3.6,1.4-4.7C62.2,4,62.3,3.8,62.4,3.5C62.4,3.6,62.4,3.6,62.4,3.5z"/>
	</g>
	<g>
		<path class="st1" d="M44,35.4c-0.2,0.7-0.5,1.4-0.8,1.9c-1.1,2.1-3.1,3.6-5.2,4.7c-5.2,2.7-11.5,3.7-17.3,2.4
			c-3.6-0.8-7-1.4-10.4-2.8c-0.9-0.4-1.8-0.8-2.4-1.5c-0.2-0.3-0.4-0.6-0.5-1c0.5,0,1.1,0,1.6,0c0.1,0,0.2,0,0.3,0
			c0.1,0,0.2,0,0.3,0c0.1,0,0.2,0,0.3,0c0.1,0,0.2,0,0.3,0c0.5,0.1,1,0.1,1.5,0.2c0.2,0,0.5,0.1,0.7,0.1c2.6,0.5,5.2,1.2,7.9,1.7
			c0.5,0.1,1,0.2,1.5,0.2c0.2,0,0.3,0,0.5,0.1c1,0.1,1.9,0.2,2.8,0.2c0.1,0,0.2,0,0.3,0c6.2,0.2,11.7-1.3,16.1-4.4
			c0.2-0.2,0.5-0.3,0.7-0.5c0.3-0.2,0.5-0.4,0.8-0.6c0.1-0.1,0.2-0.1,0.2-0.2c0.1-0.1,0.2-0.1,0.2-0.2C43.7,35.7,43.9,35.6,44,35.4z
			"/>
	</g>
	<g>
		<path class="st9" d="M62.2,0.8C62.1,0.8,62.1,0.8,62.2,0.8c0-0.1-0.1-0.1-0.1-0.2c0,0,0-0.1-0.1-0.1c-0.1-0.2-0.3-0.3-0.4-0.3
			c-0.1,0-0.2,0-0.2,0c0,0-0.1,0-0.1,0L59.8,0l-0.4,0l-0.1,0l-1.2,0.3c-0.4,0.1-0.8,0.3-1,0.6c-0.2,0.2-0.3,0.5-0.4,0.8
			c0,0,0,0,0,0.1c0.3,0,0.6,0,0.8,0.1c0,0,0.1,0.1,0.1,0.1c0,0,0.1,0.1,0.1,0.1c-0.1,0.2-0.1,0.4,0.1,0.5c0,0,0.1,0,0.1,0
			c0,0,0.1,0.1,0.1,0.1c0.3,0.1,0.6-0.1,0.8-0.4c0.2-0.2,0.5-0.5,0.8-0.3c0,0,0.1,0.1,0.1,0.1c0.1,0.1,0.1,0.1,0.2,0.1
			c0.1,0,0.2,0,0.3-0.1c0.4-0.2,0.8-0.4,1.1-0.7c0.3-0.2,0.6-0.4,0.9-0.6C62.2,0.9,62.2,0.9,62.2,0.8z"/>
	</g>
	<g>
		<path class="st9" d="M62,0.5c-0.4,0.2-0.8,0.2-1.2,0.2c-0.6,0-0.8,0.4-1.2,0.6c-0.1,0.1-0.3,0.2-0.5,0.2c-0.3,0.1-0.8,0-1.2-0.2
			c-0.2-0.1-0.4-0.2-0.6-0.3c-0.1,0-0.2-0.1-0.3-0.2c0.2-0.3,0.6-0.5,1-0.6L59.3,0l0.1,0l0.4,0l1.6,0.2c0,0,0.1,0,0.1,0
			c0.2,0,0.2,0,0.2,0C61.8,0.3,61.9,0.4,62,0.5z"/>
	</g>
	<g>
		<path class="st10" d="M53.8,29.9c-2.9,4.3-6.1,7.9-10.4,10.8c-4.2,2.8-8.8,4.2-13.7,5.4c5-0.2,10-2.4,14.1-5.2
			c4.1-2.8,8-6.5,10.2-10.9C54.1,29.9,53.9,29.8,53.8,29.9z"/>
	</g>
	<g>
		<path class="st10" d="M60.8,0.4c-0.5,0.2-1.1,0.5-1.6,0.6c-0.1,0-0.2,0-0.4,0.1c-0.2,0-0.5,0-0.7,0c-0.2,0-0.4,0-0.6,0
			c-0.2,0-0.3,0.2-0.1,0.4c1.1,1.1,3.1,0.5,3.8-0.8C61.3,0.5,61,0.3,60.8,0.4z"/>
	</g>
	<g>
		<path class="st10" d="M7.8,41.8c-0.4-0.2-0.9-0.5-1.3-0.6c-0.9-0.3-1.8-0.6-2.7-0.8c0,0,0,0-0.1,0c0-0.3-0.1-0.6-0.2-0.8
			c0-0.1-0.1-0.1-0.1,0c0,0.3,0,0.7,0.1,0.9c0,0.1,0.1,0,0.2,0c1.7,0.9,3.3,1.3,5.1,1.7C8.5,42.1,8.1,42,7.8,41.8z"/>
	</g>
	<g>
		<path class="st3" d="M5.5,43.9c-0.7,1.8-0.7,3.7-0.2,5.5c-0.8-0.8-1.5-1.6-2.2-2.5c-0.4-0.6-0.9-1.2-1.3-1.7
			c-0.1-0.1-0.2-0.2-0.3-0.4C2.8,44.6,4.1,44.1,5.5,43.9z"/>
	</g>
	<g>
		<path class="st11" d="M66.6,22.7c0.3,2.1,1.2,5.8,0.1,10.3c0,0.1-0.1,0.3-0.1,0.4c0,0,0,0.1,0,0.1c-1.4,4.2-4.3,8.7-9.6,13.4
			c0,0-0.1,0.1-0.1,0.1c0,0-0.1,0-0.1,0.1c-0.1,0.1-0.2,0.1-0.2,0.2c0,0,0,0,0,0c-0.8,0.7-1.8,1.5-2.6,2.2c-0.1,0.1-0.2,0.1-0.2,0.2
			c0,0-0.1,0.1-0.1,0.1c-0.1,0.1-0.2,0.2-0.3,0.2c-1.8,1.3-3.6,2.4-5,3.2c-1.1,0.6-1.8,1-2.1,1.1c0,0,0,0-0.1,0c0,0,0,0-0.1,0
			c-0.1,0-0.2,0.1-0.3,0.1c0,0,0,0-0.1,0c-0.7,0.3-2.1,0.9-2.2,1c-0.2,0.1,0,0-0.2,0.1c-0.1,0-0.2,0.1-0.3,0.1
			c-0.8,0.3-1.6,0.6-2.4,0.9c-6,2-11.8,2.5-17,1.9c-0.1,0-0.1,0-0.2,0c-0.1,0-0.1,0-0.2,0c-0.1,0-0.2,0-0.2,0
			c-0.2,0.1-6-0.8-11.1-3.7c-0.1-0.1-0.2-0.1-0.3-0.2c-0.1-0.1-0.3-0.2-0.4-0.2c-0.1,0-0.1-0.1-0.2-0.1c-0.1-0.1-0.2-0.1-0.3-0.2
			c-0.3-0.2-0.7-0.4-1-0.7c-0.1-0.1-0.2-0.1-0.3-0.2c-1.3-0.9-2.6-2-3.8-3.2c-0.2-0.2-0.4-0.4-0.6-0.7c-0.3-0.3-0.6-0.6-0.9-1
			c0,0,0,0,0-0.1c-0.1-0.2-0.2-0.4-0.3-0.6c-0.1-0.2-1.5-3.2,1.3-1.3c0.5,0.4,1.1,0.7,1.6,1c11.5,6.8,26.9,7,38.1-0.8
			c5.6-3.9,12-7.9,15.1-23.7c0.4-1.8,1.2-5.4,3.4-6c1.3-0.3,2,0.4,2.5,1.5C66.2,19.6,66.4,21.5,66.6,22.7z"/>
	</g>
	<g>
		<path class="st9" d="M58,3.9c-0.2,0.1-0.1,0.5,0.1,0.4C58.4,4.2,58.3,3.8,58,3.9z"/>
	</g>
	<g>
		<path class="st9" d="M59.1,3.4c-0.4,0.1-0.2,0.8,0.2,0.7C59.8,3.9,59.6,3.2,59.1,3.4z"/>
	</g>
	<g>
		<path class="st9" d="M59,2.8c-0.2,0.1-0.1,0.4,0.1,0.3C59.2,3.1,59.1,2.8,59,2.8z"/>
	</g>
	<g>
		<path class="st9" d="M59.8,2.5C59.5,2.6,59.7,3.1,60,3C60.3,2.9,60.2,2.4,59.8,2.5z"/>
	</g>
	<g>
		<path class="st9" d="M58.1,1.2c-0.3,0.1-0.2,0.6,0.1,0.5C58.5,1.6,58.4,1.1,58.1,1.2z"/>
	</g>
	<g>
		<path class="st9" d="M55.5,17.8c-0.2,0.1-0.3,0.3-0.3,0.5c0.1,0.2,0.3,0.3,0.5,0.3c0.2-0.1,0.3-0.3,0.3-0.5
			C55.9,17.8,55.7,17.7,55.5,17.8z"/>
	</g>
	<g>
		<path class="st9" d="M56.2,15.8c-0.2,0-0.3,0.2-0.3,0.4c0.1,0.3,0.5,0.3,0.5,0c0.1,0,0.1-0.2,0.1-0.3
			C56.5,15.8,56.3,15.8,56.2,15.8z"/>
	</g>
	<g>
		<path class="st12" d="M53,21C52.9,21,52.9,21,53,21c-0.1,0.2-0.1,0.4,0.1,0.5c0.1,0.1,0.3,0,0.4-0.1c0,0,0,0,0-0.1
			C53.6,20.9,53.2,20.7,53,21z"/>
	</g>
	<g>
		<path class="st12" d="M53.9,29.5c-0.7,2.9-2.8,5.1-5,7c-2.6,2.2-5.4,4.3-8.3,5.9c-3,1.6-6.1,2.8-9.5,3.4c-3.3,0.6-6.5,0.3-9.9,0.1
			c0,0,0,0,0,0.1c3.1,0.9,6.8,0.6,9.9,0.1c3.4-0.6,6.7-1.8,9.8-3.6c3-1.7,5.9-3.8,8.5-6.1c2.1-1.9,4.1-4.1,4.7-6.9
			C54.2,29.4,53.9,29.3,53.9,29.5z"/>
	</g>
	<g>
		<path class="st12" d="M17.7,44.9c-1.6-0.6-3.3-0.9-4.9-1.5c-1.8-0.6-3.5-1.2-5.3-1.9c3.3,1.3,6.7,2.9,10.2,3.6
			C17.8,45.1,17.8,45,17.7,44.9z"/>
	</g>
	<g>
		<path class="st12" d="M3.6,40.6c-0.1-0.1-0.1-0.1-0.2-0.1c0-0.1,0-0.2-0.1-0.3c0,0,0-0.1-0.1-0.1c0,0.1,0,0,0-0.1c0,0,0,0,0,0
			c0,0,0-0.1-0.1-0.1c0,0,0,0-0.1-0.1c0.3-0.1,0.2-0.5-0.1-0.4c-0.2,0.1-0.2,0.3,0,0.4c-0.1,0-0.1,0-0.2,0.1C2.7,40,2.6,40,2.6,40.2
			c0,0.2,0,0.4,0.2,0.6c0.1,0.1,0.3,0.1,0.4,0.1c0,0,0,0.1,0.1,0.1c0.1,0,0.1,0,0.2,0c0.1,0,0.1,0,0.2-0.1
			C3.7,40.7,3.7,40.6,3.6,40.6z"/>
	</g>
	<g>
		<path class="st12" d="M61.4,2c-0.1-0.1-0.2-0.1-0.3-0.1C61,1.9,60.9,2,61,2.2c0,0,0.1,0.1,0.1,0.1c0.1,0,0.1,0,0.2,0
			C61.4,2.2,61.5,2.1,61.4,2z"/>
	</g>
	<g>
		<path class="st12" d="M61,2.5c-0.1,0-0.2,0.2-0.2,0.3C60.9,3,61,3,61.2,3C61.4,2.9,61.3,2.4,61,2.5z"/>
	</g>
</g>
</svg>
