<?xml version="1.0" encoding="utf-8"?>
<!-- Generator: Adobe Illustrator 25.0.0, SVG Export Plug-In . SVG Version: 6.00 Build 0)  -->
<svg version="1.1" id="Publicdomainvectors.org" xmlns="http://www.w3.org/2000/svg" xmlns:xlink="http://www.w3.org/1999/xlink"
	 x="0px" y="0px" viewBox="0 0 600 600" style="enable-background:new 0 0 600 600;" xml:space="preserve">
<style type="text/css">
	.st0{fill-rule:evenodd;clip-rule:evenodd;fill:#FFFFFF;}
	.st1{fill-rule:evenodd;clip-rule:evenodd;fill:#F2A659;}
	.st2{fill-rule:evenodd;clip-rule:evenodd;fill:#D18B45;}
	.st3{fill-rule:evenodd;clip-rule:evenodd;fill:#BF7934;}
	.st4{fill-rule:evenodd;clip-rule:evenodd;fill:#B36C26;}
	.st5{fill-rule:evenodd;clip-rule:evenodd;fill:#A86018;}
	.st6{fill-rule:evenodd;clip-rule:evenodd;fill:#1F1308;}
	.st7{clip-path:url(#SVGID_2_);fill-rule:evenodd;clip-rule:evenodd;fill:url(#SVGID_3_);}
</style>
<polygon class="st0" points="258.5,515.8 259.1,519.6 262.9,520.2 259.1,520.8 258.5,524.7 257.9,520.8 254,520.2 257.9,519.6 "/>
<polygon class="st0" points="402.1,536.8 403.2,543.9 410.3,545 403.2,546.1 402.1,553.3 400.9,546.1 393.8,545 400.9,543.9 "/>
<g>
	<rect x="309.4" y="156.5" class="st1" width="23.7" height="13.9"/>
	<rect x="304.4" y="162.4" class="st2" width="33.8" height="13.9"/>
	<path class="st2" d="M353.4,167.7c21.7,33.9,35.2,81.2,35.2,133.6c0,52.4-13.5,99.7-35.2,133.6H190.3
		C168.6,401,155,353.7,155,301.3c0-52.4,13.5-99.7,35.2-133.6H353.4z"/>
	<path class="st3" d="M341.6,167.7c18.6,33.9,30.2,81.2,30.2,133.6c0,52.4-11.6,99.7-30.2,133.6H202.1
		c-18.6-33.9-30.2-81.2-30.2-133.6c0-52.4,11.6-99.7,30.2-133.6H341.6z"/>
	<path class="st4" d="M324.9,167.7c14.1,33.9,22.9,81.2,22.9,133.6c0,52.4-8.8,99.7-22.9,133.6H218.8
		c-14.1-33.9-22.9-81.2-22.9-133.6c0-52.4,8.8-99.7,22.9-133.6H324.9z"/>
	<path class="st5" d="M295.6,167.7c6.3,33.9,10.3,81.2,10.3,133.6c0,52.4-3.9,99.7-10.3,133.6h-47.5c-6.3-33.9-10.3-81.2-10.3-133.6
		c0-52.4,3.9-99.7,10.3-133.6H295.6z"/>
	<path class="st6" d="M353.4,167.7c5.6,8.7,10.7,18.4,15.1,28.8H175.2c4.4-10.4,9.5-20,15.1-28.8H353.4L353.4,167.7z M388.2,285.3
		c0.3,5.3,0.4,10.6,0.4,16c0,4.3-0.1,8.5-0.3,12.8h-233c-0.2-4.2-0.3-8.5-0.3-12.8c0-5.4,0.1-10.7,0.4-16H388.2L388.2,285.3z
		 M368.5,406.1c-4.4,10.4-9.5,20-15.1,28.8H190.3c-5.6-8.7-10.7-18.4-15.1-28.8H368.5z"/>
</g>
<g>
	<defs>
		<polygon id="SVGID_1_" points="375.8,379.5 389.8,214.5 153.9,214.5 153.9,388.1 		"/>
	</defs>
	<clipPath id="SVGID_2_">
		<use xlink:href="#SVGID_1_"  style="overflow:visible;"/>
	</clipPath>
	
		<linearGradient id="SVGID_3_" gradientUnits="userSpaceOnUse" x1="-938.6411" y1="306.4477" x2="-939.17" y2="127.888" gradientTransform="matrix(2.024178e-16 -1.1019 1.0483 1.925717e-16 44.0763 -729.4288)">
		<stop  offset="0" style="stop-color:#C2B294"/>
		<stop  offset="7.142900e-02" style="stop-color:#C7B89B"/>
		<stop  offset="0.1429" style="stop-color:#CBC1A3"/>
		<stop  offset="0.2143" style="stop-color:#D2C8AD"/>
		<stop  offset="0.2857" style="stop-color:#D8CFB6"/>
		<stop  offset="0.3571" style="stop-color:#D9D2B8"/>
		<stop  offset="0.4286" style="stop-color:#D9D2B8"/>
		<stop  offset="0.5" style="stop-color:#D9D2B8"/>
		<stop  offset="0.5714" style="stop-color:#D9D2B8"/>
		<stop  offset="0.6429" style="stop-color:#D6CFB5"/>
		<stop  offset="0.7143" style="stop-color:#D3C8AD"/>
		<stop  offset="0.7857" style="stop-color:#CDC1A6"/>
		<stop  offset="0.8571" style="stop-color:#C7B79C"/>
		<stop  offset="0.9286" style="stop-color:#BFAD8F"/>
		<stop  offset="1" style="stop-color:#BBAC89"/>
	</linearGradient>
	<path class="st7" d="M365.1,324.3c-0.2-0.9-0.4-1.6-0.4-2.5c0-0.9,0.1-1.6-0.3-2.5c-1.4-2.4-1.6-5-1.2-7.7c0.2-1.2,0.6-2.2,1.3-3.1
		c-0.2-0.5-0.4-1-0.6-1.5c-0.6-1.8-1.7-3.6-1.3-5.6c0.3-1.5,1.2-2.7,1.5-4.2c0.3-1.6,0-2.9-0.5-4.5c-0.4-1.3-0.1-2.5,0.2-3.7
		c0.4-1.4,0.5-2.8,0.2-4.3c-0.1-0.2-0.1-0.3-0.1-0.5c0-0.9-0.1-1.7-0.4-2.6c-0.3-1-0.8-1.9-1-2.9c-0.3-1.9,0.5-3.6,0.8-5.4
		c0.4-2.4-0.3-4.6-0.4-6.9c0-0.9,0.1-1.7,0.6-2.4c0.5-0.8,1.3-1.4,1.5-2.4c0.3-1.3-0.8-2.5-1.4-3.6c-0.9-1.5-1.3-3-1-4.8
		c0.1-0.3,0.2-0.7,0.3-1c-0.2-0.2-0.3-0.4-0.3-0.7c-0.1-0.9-0.2-1.9-0.2-2.8c0-0.7,0.3-1.2,0.4-1.8c-0.1-0.4-0.3-0.9-0.6-1.3
		c-1.7-0.6-3.6-0.4-5.4-0.6c-1.9-0.2-3.7-0.9-5.5-1c-2.1-0.1-4.1,0.7-6,1.2c-1.7,0.5-3.8,1.1-5.6,0.8c-1.5-0.2-2.6-1.4-4.1-1.8
		c-1.7-0.4-3.4,0.1-5.1,0.6c-1.8,0.6-3.5,1.2-5.4,1.4c-0.9,0.1-1.3-0.6-1.2-1.3c-2.2,0.7-4.4,1.2-6.7,1.1c-1.6,0-3-0.3-4.4-1.1
		c-1.4-0.8-2.8-1.2-4.4-1.2c-1.6,0-3.1,0.2-4.6,0.4c-1.1,0.4-2.3,0.7-3.5,0.7c-0.1,0-0.2,0-0.4,0c-0.2,0-0.5,0.1-0.7,0.1
		c-3.3,0.4-6.5,0-9.6-1c-0.3-0.1-0.5-0.2-0.8-0.3c0,0-0.1,0-0.1,0c-0.3,0.3-0.7,0.4-1.1,0.2c-0.9-0.4-1.6-0.5-2.4,0
		c-0.7,0.4-1.3,1-2.1,1.4c-2.1,1.1-4.3,0.9-6.6,0.2c-1.1-0.3-2.2-0.7-3.4-0.5c-1,0.2-1.9,0.7-2.9,1.1c-2.2,0.7-4.5,0.4-6.7,0.7
		c-0.3,0.2-0.6,0.3-0.9,0.5c-3,1.4-5.9,1.6-9.2,0.9c-1.7-0.4-3.4-0.9-5.2-1.1c-1.7-0.2-3.4-0.1-5.1,0.1c-3.6,0.3-7.3,0.9-10.9,0.6
		c-0.6,0-1.3-0.5-1.2-1.2c0-0.1,0-0.1,0-0.2c-0.3-0.3-0.4-0.7-0.3-1.1c-0.1,0-0.1,0-0.2,0c-1.9-0.5-4.3-0.1-6.3,0.1
		c-1.9,0.2-3.8,0.5-5.7,0.8c-1.6,0.6-3.3,1.3-5,1.6c-1.6,0.3-3.1,0.1-4.5-0.7c-1.2-0.7-2.2-1.5-3.6-1.8c-0.4,0-0.7,0-1-0.1
		c-1.6,0-3.2,0.6-4.7,0.8c-1.7,0.3-3.3,0.1-4.9-0.6c-0.7-0.3-0.8-1-0.5-1.5c-0.2-0.1-0.5-0.3-0.7-0.5c-0.3,0.1-0.6,0.1-0.9,0.2
		c-0.2,0-0.4,0-0.5,0c-1.7,2.1-4.1,3.2-6.9,3.1c-1,0-2-0.2-3.1-0.2c0,0-0.1,0-0.1,0c0,0.2-0.1,0.4-0.1,0.6c0,0.5,0.1,1,0.1,1.6
		c0.2,1,0.6,2,1,3c1,2.7-0.4,4.9-1.3,7.5c-0.5,1.4-0.7,2.6-0.4,4c0.3,1.2,0.6,2.3,0.7,3.5c0.1,1.3-0.3,2.4-0.7,3.6
		c1.7,2.5-0.5,5.9-0.5,8.7c0,2,1.1,3.9,1.3,5.9c0.2,2.1,0.2,4.2,0.7,6.2c0.4,2,1.1,4,1,6c0,1-0.3,2-0.4,3c-0.1,1,0.1,2,0.2,2.9
		c0.3,3.2-0.8,5.6-2.6,8c0.2,0.3,0.3,0.7,0.2,1.1c-0.3,1.2-0.1,2.4-0.4,3.6c0,0.2-0.1,0.3-0.2,0.5c0.1,0,0.1-0.1,0.2-0.1
		c0.5-0.2,1.1,0.1,1.4,0.6c0.9,1.4,0.1,3-0.7,4.3c-0.4,0.6-0.8,1.1-1.1,1.7c-0.4,1-0.2,2.1,0.1,3.1c0.3,1.1,1.3,2.1,1.7,3.3
		c0.3,0.2,0.5,0.6,0.7,0.9c0.1,0.3,0.3,0.6,0.4,1c0.2,0.1,0.4,0.2,0.6,0.4c1,1.2,0.4,2.9-0.3,4.2c0,0.1,0,0.2,0,0.4c0,0,0,0.1,0,0.1
		c0.7,0,1.5,0.7,1.2,1.5c-0.4,1.2-1.7,2.6-1.7,3.9c0,0.8,0.3,1.7,0.2,2.5c0,0.8-0.2,1.5-0.4,2.3c0.7,0.6,1.3,1.3,1.8,2
		c1.6,2.3,0.7,4.6-0.1,7.1c-0.4,1.3-0.6,2.6-1.2,3.8c-0.4,0.8-1.1,1.4-1.6,2.1c0.4,0.7,0.8,1.5,1,2.3c0.1,0.5,0.1,1.1-0.1,1.8
		c0.5,0.1,1,0.2,1.5,0.3c0.9,0.3,1.8,0.8,2.7,1.1c2.3,0.8,4.9,0.3,7.2-0.2c0.1,0,0.2,0,0.3,0c0.3-0.3,0.7-0.5,1.2-0.4
		c1.7,0.4,3,0.2,4.4-0.8c1-0.7,2-1.4,3.3-1.4c1.5,0,2.6,1,4,1.3c1.6,0.4,3.3,0.4,4.9,0.3c1.7-0.1,3.4,0,5.2,0c1.7,0,3.1-0.5,4.7-1.1
		c1.3-0.5,2.5-0.4,3.8-0.1c1.3,0.3,2.3,0.4,3.7,0.2c0.1,0,0.2,0,0.3,0c1.4-0.1,2.7,0.2,4,0.2c1.2,0,2.2-0.4,3.3-0.8
		c2.1-0.8,4.1-1.1,6,0.4c0.1,0.1,0.2,0.2,0.2,0.3c0.2-0.1,0.3-0.2,0.6-0.2c0.1-0.2,0.3-0.3,0.5-0.4c4.7-2.1,9.5-1.9,14.5-1.9
		c0.8,0,1.2,0.7,1.2,1.3l0.2,0c1.5-2.1,5.9-1.5,8-1.3c1.5,0.2,3,0.7,4.6,0.8c2.6,0.2,5.2-0.4,7.7-0.5c0.4,0,0.7,0.2,0.9,0.4
		c0,0,0,0,0,0c1.6-0.2,2.7-1.2,4.4-0.9c1.9,0.3,3.6,1.6,5.5,1.6c1.7,0,3.5-1,5.2-1.4c1.8-0.4,3.5-0.2,5.2,0.4c0.7,0.2,1,1,0.9,1.6
		c0.2,0,0.3,0,0.5,0c1.5,0,2.6-0.6,3.9-0.9c1.4-0.4,2.6-0.1,3.9,0.4c0.1-0.1,0.3-0.1,0.5-0.1c1.2-0.1,2.2-1.2,3.5-1.5
		c1.5-0.3,2.8,0.3,4.2,0.6c1.6,0.4,3.1,0.3,4.7,0.3c1.4,0,2.8,0.3,4.2,0.4c2.3,0.1,4.4-0.8,6.7-1c1.3-0.2,2.5,0,3.4,0.8
		c3.1-0.4,6.4-0.2,9.5-0.8c2.1-0.5,4-0.9,6.1-0.4c1.6,0.4,3.2,0.8,4.8,1.2c0.3-0.3,0.6-0.6,1-0.8c0.9-0.5,1.8-0.7,2.7-0.6
		c-0.4-1.2-1.1-2.2-0.9-3.5c0.2-1,0.4-2,0.3-3c-0.1-1.2-0.5-2.4-0.7-3.6c-0.4-2-0.2-3.8,0.3-5.8c0.6-2,1.5-4.1,1.4-6.2
		c-0.1-1.5-0.3-3.2,0.5-4.5c0.1-0.2,0.3-0.4,0.4-0.5c-0.4-0.7-0.9-1.4-1.1-2.2c-0.3-1.3,0.3-2.5,1.1-3.5
		C365.1,327.5,365.4,326,365.1,324.3z"/>
</g>
</svg>
