<?xml version="1.0" encoding="utf-8"?>
<!-- Generator: Adobe Illustrator 25.0.0, SVG Export Plug-In . SVG Version: 6.00 Build 0)  -->
<svg version="1.1" id="Publicdomainvectors.org" xmlns="http://www.w3.org/2000/svg" xmlns:xlink="http://www.w3.org/1999/xlink"
	 x="0px" y="0px" viewBox="0 0 233.6 278.3" style="enable-background:new 0 0 233.6 278.3;" xml:space="preserve">
<style type="text/css">
	.st0{fill-rule:evenodd;clip-rule:evenodd;fill:#F2A659;}
	.st1{fill-rule:evenodd;clip-rule:evenodd;fill:#D18B45;}
	.st2{fill-rule:evenodd;clip-rule:evenodd;fill:#BF7934;}
	.st3{fill-rule:evenodd;clip-rule:evenodd;fill:#B36C26;}
	.st4{fill-rule:evenodd;clip-rule:evenodd;fill:#A86018;}
	.st5{fill-rule:evenodd;clip-rule:evenodd;fill:#1F1308;}
</style>
<g>
	<rect x="154.4" class="st0" width="23.7" height="13.9"/>
	<rect x="149.3" y="5.9" class="st1" width="33.8" height="13.9"/>
	<path class="st1" d="M198.3,11.2c21.7,33.9,35.3,81.2,35.3,133.6c0,52.4-13.5,99.7-35.3,133.6H35.3C13.5,244.4,0,197.1,0,144.7
		C0,92.4,13.5,45.1,35.3,11.2H198.3z"/>
	<path class="st2" d="M186.6,11.2c18.6,33.9,30.2,81.2,30.2,133.6c0,52.4-11.6,99.7-30.2,133.6H47c-18.6-33.9-30.2-81.2-30.2-133.6
		c0-52.4,11.6-99.7,30.2-133.6H186.6z"/>
	<path class="st3" d="M169.8,11.2c14.1,33.9,22.9,81.2,22.9,133.6c0,52.4-8.8,99.7-22.9,133.6H63.7c-14.1-33.9-22.9-81.2-22.9-133.6
		c0-52.4,8.8-99.7,22.9-133.6H169.8z"/>
	<path class="st4" d="M140.5,11.2c6.3,33.9,10.3,81.2,10.3,133.6c0,52.4-3.9,99.7-10.3,133.6H93c-6.3-33.9-10.3-81.2-10.3-133.6
		c0-52.4,3.9-99.7,10.3-133.6H140.5z"/>
	<path class="st5" d="M198.3,11.2c5.6,8.7,10.7,18.4,15.1,28.8H20.2c4.4-10.4,9.5-20,15.1-28.8H198.3L198.3,11.2z M233.1,128.7
		c0.3,5.3,0.4,10.6,0.4,16c0,4.3-0.1,8.5-0.3,12.8H0.3C0.1,153.3,0,149,0,144.7c0-5.4,0.1-10.7,0.4-16H233.1L233.1,128.7z
		 M213.4,249.6c-4.4,10.4-9.5,20-15.1,28.8H35.3c-5.6-8.7-10.7-18.4-15.1-28.8H213.4z"/>
</g>
</svg>
