<?xml version="1.0" encoding="utf-8"?>
<!-- Generator: Adobe Illustrator 25.0.0, SVG Export Plug-In . SVG Version: 6.00 Build 0)  -->
<svg version="1.1"
	 id="svg2" xmlns:cc="http://creativecommons.org/ns#" xmlns:dc="http://purl.org/dc/elements/1.1/" xmlns:inkscape="http://www.inkscape.org/namespaces/inkscape" xmlns:ns1="http://sozi.baierouge.fr" xmlns:rdf="http://www.w3.org/1999/02/22-rdf-syntax-ns#" xmlns:sodipodi="http://sodipodi.sourceforge.net/DTD/sodipodi-0.dtd" xmlns:svg="http://www.w3.org/2000/svg"
	 xmlns="http://www.w3.org/2000/svg" xmlns:xlink="http://www.w3.org/1999/xlink" x="0px" y="0px" viewBox="0 0 83.3 61.6"
	 style="enable-background:new 0 0 83.3 61.6;" xml:space="preserve">
<style type="text/css">
	.st0{fill:#94E342;}
	.st1{fill:#69AD21;}
	.st2{fill:#A7D971;}
	.st3{fill:#8FBA61;}
	.st4{fill:#AED141;}
	.st5{fill:#A7A9AC;}
	.st6{fill:#939598;}
	.st7{fill:#D2F2AF;}
</style>
<g>
	<path class="st0" d="M41.8,20c-0.1,0.2-0.1,0.4-0.3,0.5c-0.8,1.2-2.5,2.2-3.6,3.1s-2.3,1.5-3.7,1.9c-0.5,0.2-1,0.3-1.5,0.4
		C32.1,26,31.6,26,31,26.1c-3.3,0.2-6.6-0.7-9.6-1.8c-6.6-2.4-12.5-6.9-16-13.2C4.7,9.6,3.9,8.2,3.1,6.8C3,6.7,3,6.6,2.9,6.5
		C2.6,6,1,4.4,0.3,3.4c0,0,0-0.1-0.1-0.1C0.1,3.1,0.1,3,0,2.9c0-0.1,0-0.1,0-0.2c0-0.2,0-0.3,0.1-0.4C0.4,1,2.4,1.1,3.4,1.2
		c1.6,0.1,3,0,4.5-0.3C8.4,0.8,9,0.7,9.5,0.6c4.1-0.7,8.3-0.8,12.4-0.1c1.6,0.3,3.1,0.7,4.7,1.3c3.4,1.3,6.2,2.9,9.2,5
		c2.8,2,4.2,6.3,5.4,9.6c0.1,0.2,0.2,0.5,0.3,0.7c0.1,0.3,0.2,0.5,0.3,0.8s0.2,0.6,0.2,0.8C41.9,19.2,41.9,19.6,41.8,20z"/>
	<path class="st1" d="M41.6,20c-0.8,1.1-2.5,2.2-3.6,3s-2.3,1.4-3.6,1.8c-0.5,0.1-1,0.3-1.5,0.3c-3.8,0.6-7.7-0.4-11.3-1.7
		C15,21.1,9,16.7,5.6,10.6C4.8,9.2,4,7.8,3.1,6.5C3.1,6.4,3,6.3,3,6.2c-0.4-0.5-2-2.1-2.7-3c0,0,0-0.1-0.1-0.1
		c0-0.2-0.1-0.3-0.1-0.4c0-0.1,0-0.1,0-0.2c0-0.2,0-0.3,0.1-0.4c0.3-1.3,2.2-1.1,3.2-1c1.6,0.1,3,0,4.5-0.2C8.4,0.8,9,0.7,9.5,0.6
		c4.1-0.6,8.3-0.7,12.4,0c1.6,0.3,3.1,0.7,4.7,1.3c3.4,1.3,6.3,2.8,9.2,4.9c2.8,2,4.2,6.2,5.4,9.4c0.1,0.2,0.2,0.5,0.3,0.7
		C41.9,18,42.3,19.1,41.6,20z"/>
	<path class="st2" d="M2.8,2.4c0,0,1.3,1.7,4.4,2.8s11.6,4.2,11.6,4.2l6.9,1.4c0,0,6.1,4,6.5,4.2c0.5,0.2,5.1,3.4,5.6,3.5
		c0.5,0.1,3.7,0.3,3.7,0.3S39,12.1,39,12.4c-0.1,0.3-1.8,4.5-3.8,1.9c0,0,0.2,0.9-2.9-0.9c-3.2-1.8-9.2-4.5-10.1-6.6
		c0.6,2-3.6,3.4-8.5-0.6C10.6,5,7.1,5.1,2.8,2.4z"/>
	<path class="st2" d="M32.6,20.7c0.4-0.3,0.8-0.7,0.9-1.1c0.3-0.8,0.3-2.1,0.5-3c0.7,0.4,8.2,3,8.2,1.4c0,1.2-0.8,2.3-1.7,3.1
		c-0.9,0.8-2.1,1.3-3.2,1.7c-4.2,1.6-10.7,3.6-14.6,0.3c3.2,0.6,5.9,0.4,8.6-1.5C31.7,21.3,32.2,21,32.6,20.7z"/>
	<path class="st2" d="M17.8,8.9c-0.8,0.3-1.4-0.7-2.2-0.8c-0.4,0-0.7,0.1-1,0.2C12.3,9.2,9.8,9.1,7.3,9c0.2,0.1,0.3,0.2,0.4,0.3
		c0.2,0.1,0.5,0.2,0.7,0.3c0.5,0.2,1,0.3,1.5,0.5C12.5,10.6,15.4,10.1,17.8,8.9z"/>
	<path class="st2" d="M32.8,15.7c0,0-3.2,2.6-3.6,2.8c-1.4,0.8-2.9,1.5-4.5,1.9c-3.1,0.8-6.4,0.6-9.3-0.8c5.7,0.6,11.6-1.3,15.7-5.2
		C31.7,14.7,32.3,15.2,32.8,15.7z"/>
	<path class="st2" d="M27.3,11.9c0-0.1,0-0.2,0-0.2c-0.1-0.4-2.1-1.5-2.3-1.2c-0.5,1.2-1.9,1.7-3.1,2.1c-2.1,0.6-4.2,1-6.4,1.2
		c-1.1,0.1-2.2,0-3.2,0.1c-0.7,0.1-1.3,0.4-2,0.5c0.7,1.1,2.4,1.1,3.6,0.9c1.5-0.2,3-0.3,4.5-0.5c1.7-0.2,3.3-0.5,4.9-1
		c0.8-0.2,1.5-0.5,2.3-0.8C26.1,12.8,27.1,12.4,27.3,11.9z"/>
	<path class="st2" d="M4.2,3.4L4.2,3.4c0.6,1.9,3.5,2,5.1,2.6c2,0.8,4,1.5,6,2.1c-0.1,0-0.7-1.5-0.9-1.7c-0.3-0.4-0.7-0.9-1.2-1.2
		c0.4,2.5-5-0.4-5.9-0.8C6.2,4.1,5.2,3.3,4.2,3.4z"/>
	<g>
		<path class="st2" d="M40.9,17.9c0,0.1-0.1,0.1-0.1,0.2l-0.1,0.1c-0.8,0.7-2.2,0.2-2.7-0.7c-0.6-0.9-0.6-2.1-0.8-3.1
			c-0.6-3.8-3.2-7.1-6.4-9.3c-2.4-1.7-5.1-2.8-7.7-4c-0.2-0.1-0.4-0.2-0.6-0.3c-0.1-0.1-0.3-0.1-0.4-0.2c1.6,0.3,3.1,0.7,4.7,1.3
			c3.4,1.3,6.3,2.8,9.2,4.9c1.2,0.9,2.2,2.1,3,3.6c0.1,0.1,0.1,0.3,0.2,0.4c0.9,1.8,1.6,3.7,2.3,5.4c0,0.1,0,0.1,0,0.2
			C41.2,16.9,41.1,17.4,40.9,17.9z"/>
	</g>
	<g>
		<path class="st2" d="M11.5,2.4C12,2.9,12.2,4,12.7,4.6c0.5,0.7,1.1,1.3,1.7,2c1.2,1.6,2.9,2.3,4.9,2.8c1.5,0.4,3.1,0.4,4.6-0.1
			C19.2,8.2,14.8,5.8,11.5,2.4z"/>
	</g>
	<g>
		<path class="st2" d="M35.2,13.4c-0.2-0.3-0.5-0.5-0.8-0.6s-0.5,0-0.8,0c-1,0-1.9-0.5-2.7-1.1c-2.5-1.7-4.7-3.5-6.7-5.8
			c-0.9-1-1.8-1.9-2.9-2.6c-0.8-0.6-2.8-1-3.4-1.7c1.4,1.6,2.7,3.2,4.1,4.8c1.1,1.3,1.9,2.9,3.1,4.1c1.3,1.3,3.6,2.1,5.1,3.1
			c0.9,0.6,1.7,1.2,2.5,1.8c0.7,0.5,1.7,1.7,2.4,1.9c1.8,0.5,0.6-2.7,0.3-3.5C35.3,13.7,35.3,13.5,35.2,13.4z"/>
	</g>
	<path class="st0" d="M82.7,14.2c-0.3,0.4-0.7,0.6-1.2,0.9c-2,1.3-3.1,3.2-4.9,4.7c-5,4.4-10.2,7.5-16.4,10c-2.4,1-5,1.8-7.5,1.7
		c-4.4-0.2-6.2-3.4-7.8-7c-0.3-0.6-0.5-1.1-0.8-1.7c-0.6-1.1-1.4-2-2.4-2.7c-0.1-0.1-0.3-0.2-0.4-0.2c-0.4-0.2-0.8-0.4-0.9-0.8
		c0-0.1,0-0.3,0.1-0.4c0.1-0.2,0.3-0.4,0.5-0.4c0.2-0.1,0.4-0.1,0.6-0.1c0.3,0,0.6,0.1,0.9-0.1c0.6-0.3,1.1-1.1,1.4-1.6
		c0.7-1,1.2-2.2,1.9-3.2c1-1.5,2.7-3.2,4.3-3.7c2.3-0.7,5.2-0.6,7.5-0.5c4.2,0.2,8.4,1,12.6,1.4c2.4,0.2,4.9,0.5,7.3,0.8
		c1.2,0.2,5.2,0.1,5.5,1.7C83.2,13.3,83,13.8,82.7,14.2z"/>
	<path class="st1" d="M83.2,13.2c0,0.3-0.2,0.7-0.5,0.9c-0.3,0.4-0.7,0.6-1.1,0.9c-2,1.3-3.1,3.1-4.8,4.5c-5,4.3-10.2,7.3-16.3,9.7
		c-2.4,0.9-4.9,1.8-7.5,1.6c-4.1-0.2-5.9-2.9-7.5-6.2c-0.1-0.2-0.2-0.5-0.3-0.7c-0.7-1.4-1.5-2.9-2.6-3.9l-0.1-0.1
		c-0.3-0.2-0.6-0.4-0.9-0.6c-0.4-0.2-0.8-0.4-0.9-0.8c0-0.4,0.3-0.7,0.6-0.8c0.6-0.2,1,0.1,1.5-0.2c0.6-0.3,1.1-1.1,1.4-1.6
		c0.7-1,1.2-2.1,1.8-3.1c0-0.1,0.1-0.1,0.1-0.2c1-1.4,2.6-2.9,4.2-3.4c2.1-0.6,4.6-0.6,6.9-0.5c0.2,0,0.4,0,0.6,0
		c4.2,0.2,8.4,1,12.6,1.4c1,0.1,1.9,0.2,2.9,0.3c1.5,0.2,2.9,0.3,4.4,0.5c1.1,0.2,4.9,0.1,5.4,1.5c0,0.1,0.1,0.1,0.1,0.2
		C83.2,12.9,83.2,13,83.2,13.2z"/>
	<g>
		<path class="st2" d="M72.8,15.6c1.1-0.1,2.3,0.1,3.3,0.5c-1.2,0.1-2.5,0.3-3.7,0.4c-0.2,0-0.5,0.1-0.5,0.3
			c-0.1,0.2,0.2,0.4,0.4,0.5c0.7,0.4,1.4,0.9,2.2,1.3c-2.1-0.3-4.1-0.8-6-1.6c1.7-0.7,3.5-1.3,5.4-1.5L72.8,15.6z"/>
	</g>
	<g>
		<path class="st2" d="M73.3,10.5c-2.2,0-4.4-0.2-6.5-0.4C62.9,9.7,58.9,9.2,55,9.6c-3.1,0.3-6.3,1.3-8.8,3.1c1-1.4,2.6-2.9,4.2-3.4
			c2.1-0.6,4.6-0.6,6.9-0.5c0.2,0,0.4,0,0.6,0c4.2,0.2,8.4,1,12.6,1.4C71.3,10.3,72.3,10.4,73.3,10.5z"/>
	</g>
	<g>
		<path class="st2" d="M49.7,17c2.5-0.5,5,0.4,7.3,1.1c1.2,0.4,2.4,0.9,3.7,1.1c0.9,0.2,2.3,0.7,3.2,0.6c-3.7,0.3-6.8-0.7-10.3-1.2
			c-0.5-0.1-1.1-0.1-1.6,0c-0.5,0.2-0.9,0.7-0.8,1.3c0.1,0.4,0.6,0.7,1,0.9c2,0.9,4,1.8,6,2.7c-4.5-0.2-8.5-3.6-13-3.3
			C46.1,18.5,47.8,17.4,49.7,17z"/>
	</g>
	<g>
		<path class="st2" d="M68.1,17.3c-2.5,0.3-5,0.5-7.5,0.8c3.1,0.3,6.2,1.1,9.1,2.4c-5.1-0.1-10.2-1.1-15-2.9c-2-0.8,3.6-1.5,4-1.6
			C61.9,15.9,65.1,16.4,68.1,17.3z"/>
	</g>
	<g>
		<path class="st2" d="M51.7,21.7c2.2,0.9,4.5,1.4,6.9,1.9c2.2,0.4,4.3,1,6.6,0.8c-2.8,2.9-6.9,4.3-11,3.7c-2.7-0.4-5.2-1.6-7.3-3.3
			c-1-0.8-2-1.8-2.6-2.9c-0.3-0.6-0.4-1.4-0.1-2c0.7-1.2,2.1-0.5,3,0C48.6,20.6,50.2,21.1,51.7,21.7z"/>
	</g>
	<g>
		<path class="st2" d="M78.5,13.7c-3.7,1.9-8.1,2.3-12.3,2.2c-4.2,0-8.4-0.4-12.6,0.3c-2.6,0.4-5.2,1.3-7.7,2.3
			c-0.8,0.3-2.4,1.3-3.7,1.5c-0.3-0.2-0.6-0.4-0.9-0.6c-0.4-0.2-0.8-0.4-0.9-0.8c0-0.1,0-0.2,0.1-0.3c0-0.1,0.1-0.1,0.1-0.2
			s0.1-0.1,0.2-0.1c0.1-0.1,0.2-0.1,0.3-0.1c0.6-0.2,1,0.1,1.5-0.2c0.6-0.3,1.1-1.1,1.4-1.6c0.7-1,1.2-2.1,1.8-3.1
			c0.5-0.7,1.1-1.4,1.8-2.1c0.8-0.7,1.6-1.3,2.5-1.5c2.1-0.6,4.6-0.6,6.9-0.5c-2.1,0.9-9.3,4.1-6.9,6.2c1.8-1.3,3.5-2.4,5.3-3.6
			c-0.3,0.4-0.1,0.9,0.3,1.2c0.4,0.3,0.8,0.4,1.3,0.4c1.2,0.1,2.7,0,3.8-0.6c0.7-0.4,1.9-2.1,2.2-0.6c0.1,0.4,0.4,0.7,0.7,0.8
			c0.4,0.1,0.7,0.2,1.1,0.2c1.6,0,3.1-0.2,4.6-0.6c-1.8,1.5,2.2,1.3,2.7,1.3C74.5,13.5,76.5,13.6,78.5,13.7z"/>
	</g>
	<g>
		<path class="st3" d="M47.7,10.8c-0.1,0.4-0.2,0.8-0.3,1.2c-0.8,2.4-5.9,10.2-8.6,5.5c-0.6-1.1-0.9-2.7-0.8-3.9
			c0-0.5,0.1-1,0.3-1.4c0.1-0.2,0.7-1.3,0.7-1.4c0.9,1.8,1.6,3.7,2.3,5.4c0,0.1,0,0.1,0,0.2c0,0.5-0.1,1.1-0.4,1.5
			c0.1-0.1,0.2-0.1,0.3-0.1c0.6-0.2,1,0.1,1.5-0.2c0.6-0.3,1.1-1.1,1.4-1.6c0.7-1,1.2-2.1,1.8-3.1C46.4,12.2,47,11.4,47.7,10.8z"/>
	</g>
	<path class="st4" d="M40.7,18c-1.5-0.1-2.8-0.4-4.1-1C35.8,11.7,32,6.9,27.3,4.2c-0.1,0-0.2,0.1-0.1,0.1c4.4,3.2,7.1,7.5,9,12.5
		c-3.8-1.9-7.1-5.4-11.2-6.9c-1.1-1.7-2.3-3.2-3.6-4.8c-1.1-1.4-2.4-2.6-3.9-3.6c0,0-0.1,0-0.1,0.1c1.6,1.5,2.9,3.1,4.1,4.9
		c0.7,1,1.5,2.5,2.4,3.5c-6.6-1.6-6.9-1.3-8.5-2.5c-0.6-0.5-1.3-1.7-1.8-2.3c-1-1.2-1.9-2.5-3.1-3.4c0,0-0.1,0-0.1,0.1
		c0.9,1.5,2.2,2.8,3.2,4.4c0.3,0.5,0.7,0.9,1,1.3c-0.2-0.1-0.4-0.1-0.6-0.2c-1.7-0.6-3.5-1.2-5.2-1.8s-3.7-0.9-5-2.1
		c-0.1-0.1-0.2,0-0.1,0.1C4.6,4.5,6,4.9,7.2,5.4c1.6,0.7,3.5,1.1,5.2,1.7C14,7.7,16,8.6,17.6,9c-1.3,0.6-2.7,0.7-4,0.8
		c-1.8,0.1-4.3,0.1-6-0.7c-0.1,0-0.1,0-0.1,0.1c1.4,1.1,3.5,1.2,5.2,1.1c1.8,0,4.1-0.2,5.8-1.1c1.6,0.4,3.2,0.8,4.8,1.1
		c1.7,0.3,3.1,1,4.4,1.9c-1.2,0.4-2.2,1-3.4,1.3c-1.5,0.4-3.1,0.8-4.6,1c-3,0.4-5.9,0.5-9,0.2c2.8,1.1,6.2,0.5,9.1,0.1
		c2.8-0.3,6.2-0.7,8.5-2.3c1.4,1,3,1.9,4.5,2.9c-1.9,1.7-3.9,3.1-6.4,3.9c-2.2,0.7-4.4,1-6.6,1.5v0.1c1.2,0.2,2.4-0.1,3.6-0.3
		c1.3-0.2,2.7-0.5,3.9-0.9c2.1-0.7,4.6-2,6-3.8c1.2,0.8,2.4,1.8,3.8,2.2c-2.4,3.4-8.9,5.3-7.3,4.9c3-0.8,6.6-1.7,8.1-4.7
		c0.9,0.2,1.9,0.2,2.9,0C41,18.4,40.9,18,40.7,18z"/>
	<path class="st2" d="M44.4,20.1c3.1-2.6,7.3-3.6,11.3-3.9c4-0.3,8.1,0.1,12.1,0s8.2-0.8,11.6-3c-4.3,0.8-8.7,1.5-13.1,2.1
		c0.1-0.6,0.1-1.1,0.2-1.7c-1.7,1.8-4.7,2.1-6.7,0.6c0-0.3,0.1-0.5,0.1-0.8c-1.6,1-3.5,1.7-5.4,1.9c-0.5,0.1-1.1,0.1-1.6-0.1
		c-0.5-0.2-0.9-0.8-0.7-1.3c-1.3,1.1-2.6,2.3-4.2,2.9c-1.6,0.5-3.6,0.3-4.7-1.1c-1.1,0.7-2.1,1.6-3,2.7c-0.3,0.4-0.6,0.9-0.3,1.3
		c0.2,0.4,0.7,0.5,1.1,0.5c1.6,0.1,3.1-0.2,4.6-0.8L44.4,20.1z"/>
	<path class="st4" d="M81.1,13.2c-1.6,0-3.2,0.7-4.7,1.1c-1.7,0.5-3.5,0.9-5.2,1.3c-1.8,0.4-3.6,0.8-5.4,0.7c-0.6,0-1.2-0.1-1.9-0.1
		c1.3-1.1,2.5-2.3,4.1-3c2.3-1.1,7.6-1.6,6.1-1.5c-2.3,0.1-4.7,0.3-6.5,1.1C66,13.4,64,14.6,63,16.1c-0.9-0.1-1.7-0.2-2.6-0.3
		c-1.3-0.1-2.7-0.1-4-0.1c1.2-0.9,2.3-2,3.6-2.8c0.9-0.5,6.2-3,4.4-2.5c-3.3,0.8-6.4,3.3-9.1,5.4c-1.1,0.1-2.3,0.3-3.4,0.5
		c-0.7,0.2-1.4,0.4-2.1,0.6c1.9-4,6.6-6.1,6.3-6c-3.2,0.8-6,3.5-7.3,6.4c-0.3,0.1-0.5,0.2-0.8,0.4c-1.7,0.8-3.3,2.2-5.3,1.7
		c-0.4-0.1-0.5,0.5-0.1,0.6c0.7,0.2,1.3,0.2,2,0.1c1.2,0,2.9,0.2,3.9,0.5c1.3,0.3,2.4,0.9,3.6,1.4c1.6,0.6,3.2,1.1,4.9,1.5
		c2.7,0.7,6,1.6,8.7,0.4c0.1-0.1,0.1-0.3-0.1-0.2c-3.1,1.3-7.2-0.4-10.2-1.3c-1.7-0.5-3.4-1.2-5.1-1.9c-1.1-0.4-2.4-1-3.7-1.1
		c1.3-0.6,2.6-1.5,3.8-1.9c0.9-0.3,1.9-0.6,2.9-0.7c0,0.1,0,0.3,0.1,0.4c5.5,2.7,11.9,2.6,17.8,3.8c0,0,0.1-0.1,0-0.1
		c-5.6-2.2-11.8-1.6-17.3-4.2c2.3-0.3,4.7-0.3,7-0.1c1.1,0.1,2.1,0.1,3.1,0.2c0.7,0.1,2.9-0.2,3.4,0c1.8,0.7,2.8,1.1,4.1,1.4
		c1.7,0.4,3.5,0.7,5.3,0.4c0.1,0,0.1-0.2,0-0.2c-1.8-0.1-3.5-0.2-5.2-0.6c-1-0.2-1.9-0.7-2.8-1c0.5-0.1,1-0.2,1.5-0.3
		c1-0.2,1.9-0.5,2.8-0.8c0.8,0.5,2,0.5,2.9,0.6c1,0.1,2,0.1,2.9-0.3c-1-0.2-1.9-0.1-2.9-0.2c-0.7-0.1-1.3-0.2-1.9-0.4
		c0.5-0.2,1-0.3,1.5-0.4C76.7,14.7,82.4,13.2,81.1,13.2z"/>
	<path class="st2" d="M7.9,0.8c-2,1-4.2,1.4-6.4,1.3c-0.4,0-0.9,0-1.4,0c0.4-1.3,2.3-1.1,3.3-1C5.1,1.2,6.4,1,7.9,0.8z"/>
	<path class="st5" d="M22,3.7c-0.5-0.1-1.1-0.3-1.6-0.4C22,4.9,24.8,6,26.6,7.5c1.1,0.9,3.1,2.2,4.9,2.6c3,0.5-2.3-3.2-3-3.6
		C26.6,5.4,24.4,4.3,22,3.7z"/>
	<path class="st5" d="M20.9,7.2c-0.9-1.5-2.2-2.6-3.3-3.9C16.5,2,14.7,1,12.9,1.7c0,0.2,0.1,0.3,0.2,0.4c1.5,1.8,3,3.4,4.9,4.7
		C18.5,7.1,21.8,8.6,20.9,7.2z"/>
	<path class="st5" d="M8.1,2C7.7,1.8,7.2,1.7,6.9,1.9C6.6,2.1,6.4,2.4,6.4,2.7c0.1,1,1.5,1.5,2.3,1.7c1.1,0.3,2.3,0.7,3.4,0.8
		C12.3,3.5,9.3,2.4,8.1,2z"/>
	<path class="st5" d="M12.1,12.1c0-0.1,0.1-0.1,0.2-0.2c0.1-0.1,0.2-0.1,0.3-0.2c2.2-0.6,4.8-1.9,7.1-1.8c0.4,0,4,0.5,3.5,1.1
		c-0.9,1.1-3.3,1.3-4.6,1.5c-1.4,0.2-2.8,0.2-4.2,0.3C14.1,12.8,11.8,12.8,12.1,12.1z"/>
	<path class="st5" d="M29.1,15c-0.1,1.2-2.7,2.2-3.7,2.3c-1.5,0.2-3.1,0-4.6-0.2c-0.4-0.1-3.2-1-1.4-1.2c2.1-0.2,4.2-0.9,6.2-1.5
		c1.1-0.4,3.2-1.4,3.5,0.5C29.1,14.8,29.1,14.9,29.1,15z"/>
	<path class="st5" d="M32,21.1c-0.9,0.6-2,0.8-3,0.9c-0.6,0-1.2,0.1-1.8-0.1c-0.3-0.1-1.2-0.6-1.4-0.5c2.4-0.7,4.4-2.4,6.5-3.8
		c0.2-0.1,0.4-0.3,0.7-0.2C34.6,17.6,32.7,20.6,32,21.1z"/>
	<path class="st6" d="M0.1,2.7C0.2,2.8,0.2,2.9,0.3,3C0.2,2.9,0.1,2.8,0.1,2.7z"/>
	<path class="st6" d="M34.4,24.8c-0.5,0.1-1,0.3-1.5,0.3c-3.8,0.6-7.7-0.4-11.3-1.7C15,21.1,9,16.7,5.6,10.6C4.8,9.2,4,7.8,3.1,6.5
		c0.7,0.6,1.4,1.1,2.1,1.6c2.9,2,6.1,3.2,9.2,4.6c3.2,1.4,6.3,2.9,8.8,5.3c1.8,1.7,3.3,3.8,5.6,4.6c1.2,0.4,2.6,0.5,3.8,0.9
		C33.3,23.9,34,24.3,34.4,24.8z"/>
	<g>
		<path class="st2" d="M38.8,10.4c-2-2.4-4.6-4.3-7.3-5.9C28.8,3,26,1.9,23,1.1c-0.2-0.1-0.4-0.2-0.6-0.3c-0.1-0.1-0.3-0.1-0.4-0.2
			c1.6,0.3,3.1,0.7,4.7,1.3c3.4,1.3,6.3,2.8,9.2,4.9C37,7.7,38,8.9,38.8,10.4z"/>
	</g>
	<path class="st5" d="M64.8,23.4c-2.7,0.6-6-0.4-8.5-1.1c-0.5-0.2-5.2-1.7-3.4-2.8c0.4-0.3,1-0.2,1.5,0c4.2,1,8.4,1.9,12.6,2.9
		C66.4,22.8,65.6,23.2,64.8,23.4z"/>
	<path class="st5" d="M74.6,19.7c-1.9-0.1-3.7-1.1-5.5-1.6c-0.6-0.2-4.3-0.7-4,0.5c0.1,0.8,3.1,1.3,3.8,1.4
		C70.6,20.3,73.1,20.7,74.6,19.7z"/>
	<path class="st5" d="M72.7,11.3c-3-1.7-8.9,0.9-10.1,4c-0.1,0.2,0.1,0.4,0.3,0.3c1.6-0.7,2.9-1.9,4.6-2.5c1.7-0.6,3.5-0.5,5.2-1.1
		C72.9,11.8,73,11.4,72.7,11.3z"/>
	<path class="st5" d="M63.4,10.6c-1.6-0.3-3.4,0.7-4.7,1.5c-1.5,0.8-3.1,1.9-3.9,3.5c-0.1,0.2,0.1,0.5,0.3,0.4
		c1.5-0.5,2.8-1.6,4.2-2.4c1.4-0.7,3.2-1.1,4.3-2.2C63.9,11.1,63.7,10.6,63.4,10.6z"/>
	<path class="st6" d="M83.2,13.2c0,0.3-0.2,0.7-0.5,0.9c-0.3,0.4-0.7,0.6-1.1,0.9c-2,1.3-3.1,3.1-4.8,4.5c-5,4.3-10.2,7.3-16.3,9.7
		c-2.4,0.9-4.9,1.8-7.5,1.6c-4.1-0.2-5.9-2.9-7.5-6.2c0.7-0.2,1.5-0.2,2.2-0.1c1.1,0.2,2.2,0.6,3.3,0.8c4.9,1.2,10-0.2,14.5-2.4
		s8.4-5.3,12.7-7.9c0.8-0.5,1.6-1,2.4-1.4s1.7-0.8,2.6-1c0,0.1,0.1,0.1,0.1,0.2C83.2,12.9,83.2,13,83.2,13.2z"/>
	<g>
		<path class="st7" d="M42,20c0.1,0-0.5,0.2-0.5,0.2C41.7,20.1,41.9,20,42,20z"/>
	</g>
	<g>
		<path class="st7" d="M42.3,19.9l1.2-0.4c-0.3,0.3-0.6,0.4-1,0.5c-0.1,0-0.2,0-0.3,0L42.3,19.9z"/>
	</g>
	<g>
		<path class="st3" d="M44.1,22.7c-0.6-1.1-1.4-2-2.4-2.7c-0.1,0.2-0.1,0.4-0.3,0.5c-0.8,1.2-2.5,2.2-3.6,3.1s-2.3,1.5-3.7,1.9
			c-0.5,0.2-1,0.3-1.5,0.4C32,26,31.5,26,30.9,26.1c0-0.4,0.3-0.6,0.6-0.8c1.9-1.2,2.7-3.3,3.9-5c1-1.5,3.1-1.9,4.9-1.6
			c0.3,0.1,0.7,0.1,1,0.2c0.1,0,0.2,0.1,0.3,0.1c1.4,0.6,2.2,1.5,2.3,2.6C44.2,21.8,44.2,22.2,44.1,22.7z"/>
	</g>
	<path class="st1" d="M46.4,12.5c-0.5,1.6-1.4,3.2-2.5,4.3c-0.1,0.1-0.3,0.3-0.6,0.6c-0.7,0.8-1.9,2-2.3,1.7c-1.1-0.9-2-1.7-2.3-3.2
		c-0.7-3.4,1.5-5.7,3.8-7.8c0.8-0.7,1.8-1.3,2.7-1.8c0.5-0.3,0.9-0.5,1.4-0.8c-0.2,0.2,0.2,3.1,0.2,3.6C47,10.1,46.8,11.3,46.4,12.5
		z"/>
	<path class="st5" d="M46.4,9.9c-0.3,0.9-1.1,1.8-1.9,2.2c-0.1,0.1-0.3,0.1-0.4,0.2c-0.2,0-0.3-0.1-0.4-0.2c-0.1-0.2,0-0.4,0-0.5
		C44.2,9.8,45,8.3,46,6.8c0-0.1,0.1-0.1,0.2-0.1c0.1,0,0.2,0.1,0.2,0.2C46.6,7.9,46.7,8.9,46.4,9.9z"/>
	<path class="st4" d="M45.4,12c-1.1,0.4-2,1-2.7,2c-0.1,0.2-0.2,0.3-0.4,0.5c0.1-0.5,0.2-1.1,0.3-1.6c0.6-1.9,1.7-3.4,2.6-5.2
		c-1.5,1.1-2.1,2.9-2.8,4.6c0,0.1-0.3,0.3-0.3,0.3c0-0.2,0-0.4,0-0.6c0.1-0.9,0.1-1.7,0.1-2.6c-0.3,0.6-0.4,1.1-0.4,1.7
		c0,0.8,0,1.6-0.2,2.3c-0.3,0.9-0.3,1.8-0.4,2.7c-0.4-0.7-0.6-1.5-0.6-2.3c-0.3,0.9-0.2,1.8,0.1,2.6c0.2,0.4,0.8,1.4,0.3,1.9
		c0.4-0.4,0.6-1.1,0.7-1.6c0.2-0.7,0.5-1.3,0.8-1.9c0.7-1.2,1.6-2.2,2.8-2.9C45.5,12.1,45.5,12,45.4,12z"/>
	<g>
		<path class="st2" d="M46.4,12.5c-0.5,1.6-1.4,3.2-2.5,4.3c-0.1,0.1-0.3,0.3-0.6,0.6c-0.7,0.8-1.9,2-2.3,1.7
			c-1.1-0.9-2-1.7-2.3-3.2c-0.7-3.4,1.5-5.7,3.8-7.8c0.8-0.7,1.8-1.3,2.7-1.8c-0.8,0.9-1.7,1.6-2.6,2.5c-1.5,1.4-2.7,3.2-2.9,5.3
			c-0.1,1.5,0,3.8,1.1,4.9c1.1-1.4,1.9-3.1,3.2-4.2C44.8,14.2,45.7,13.4,46.4,12.5z"/>
	</g>
	<path class="st1" d="M43,23.8c-1.1,2.1-3.9,2.6-6.1,2.7c-0.5,0-1,0.1-1.5,0.1c-1.1,0.1-2.2,0.2-3.1,0.1c-0.2,0-0.5-0.2-0.6-0.4
		c0,0,0-0.1-0.1-0.2c0-0.4,0.3-0.7,0.6-0.9c1.7-1.3,2.5-3.4,3.6-5.1c1-1.6,3.1-2.1,4.9-1.7c0.1,0,0.3,0.1,0.4,0.1
		c1.5,0.5,2.2,1.5,2.4,2.6C43.6,22.1,43.4,22.9,43,23.8z"/>
	<path class="st5" d="M39.8,23.8c-0.1-0.7-0.1-1.4,0-2.1c0.1-0.5,0.1-1,0.4-1.4c0.3-0.4,0.9-0.7,1.2-0.1c0.2,0.4-0.1,1.3-0.1,1.8
		c0,0.6-0.2,1.2-0.4,1.7c-0.2,0.4-0.7,0.8-0.8,1.2C40,24.6,39.9,24.2,39.8,23.8z"/>
	<path class="st4" d="M38.9,21.7c-0.7,1.2-1.7,2.2-2.8,3c-0.5,0.4-1.1,0.8-1.7,1.1c-0.3,0.2-0.6,0.3-1,0.4c-0.1,0-0.3,0.1-0.4,0.1
		c-0.1,0-0.4,0-0.4,0.1c0.4-0.3,0.9-0.5,1.4-0.7c0.5-0.3,0.9-0.6,1.4-0.9c0.9-0.6,1.7-1.4,2.3-2.3c0.5-0.7,1-1.4,1.6-2
		s1.3-1.2,2.1-1.3C40.4,19.9,39.6,20.7,38.9,21.7z"/>
	<path class="st4" d="M39.2,20.8c0,0-2.5,1.8-4.1,2.1c0.4,0.5,3.6-1,3.6-1L39.2,20.8z"/>
	<path class="st4" d="M39.2,22.2c-0.1,0.5,0,1.1,0.2,1.6c0.1,0.5,0.4,0.9,0.7,1.4c-0.7-1.6-0.7-3.4,0-5
		C39.2,20.2,39.2,21.6,39.2,22.2z"/>
	<path class="st5" d="M39,25.3c-0.6,0.3-1.2,0.6-1.9,0.8c-0.3,0.1-0.7,0.2-1.1,0.2c-0.2,0-0.8-0.1-1,0c0.5-0.3,0.9-0.6,1.4-0.9
		c0.4-0.3,0.6-0.8,0.9-1.1c0.3-0.4,0.6-0.9,0.9-1.4c0.4-0.5,0.5,0.1,0.5,0.4c0,0.5,0.2,0.9,0.4,1.3c0,0.1,0.1,0.2,0,0.2
		C39.3,25.2,39.1,25.3,39,25.3z"/>
	<g>
		<path class="st2" d="M43.6,21.3c-0.1-0.8-0.5-1.5-1.2-2c-0.6-0.4-1.2-0.9-1.9-0.8c-1.7-0.3-3.6,0.2-4.6,1.7
			c-1.1,1.7-1.9,3.8-3.6,5.1c-0.3,0.2-0.6,0.5-0.6,0.9c0,0.1,0,0.1,0.1,0.2c1.8-0.7,3.1-2.8,4.2-4.2c0.7-0.9,1.5-1.8,2.5-2.3
			c0.5-0.2,0.9-0.3,1.4-0.4c1-0.4,1.9-0.2,2.4,0.9c0.4,0.9,0.4,2-0.1,2.8c-0.6,1-1.6,1.6-2.7,2.1c-1.3,0.6-2.6,1.1-4,1.5
			c0.5,0,1-0.1,1.5-0.1c2.2-0.1,4.9-0.6,6.1-2.7C43.4,22.9,43.6,22.1,43.6,21.3z"/>
	</g>
</g>
<g>
	<path class="st0" d="M41.1,50.6c-0.1,0.2-0.1,0.4-0.3,0.5c-0.8,1.1-2.4,2.2-3.5,3c-1.1,0.8-2.3,1.4-3.5,1.8c-0.5,0.1-1,0.3-1.5,0.3
		c-0.5,0.1-1.1,0.1-1.6,0.2c-3.1,0.1-6.3-0.7-9.2-1.8C15.2,52.3,9.5,48,6.2,42c-0.7-1.4-1.5-2.7-2.3-4c0-0.1-0.1-0.2-0.2-0.3
		c-0.3-0.5-1.9-2.1-2.5-3c0,0,0-0.1-0.1-0.1C1,34.4,1,34.3,0.9,34.2c0-0.1,0-0.1,0-0.2c0-0.2,0-0.3,0.1-0.4c0.3-1.3,2.2-1.1,3.2-1.1
		c1.6,0.1,2.9,0,4.3-0.2c0.5-0.1,1-0.2,1.6-0.2c3.9-0.6,8-0.8,12-0.1c1.5,0.3,3,0.7,4.5,1.2c3.3,1.2,6,2.8,8.8,4.8
		c2.7,1.9,4,6.1,5.2,9.3c0.1,0.2,0.2,0.5,0.2,0.7c0.1,0.2,0.2,0.5,0.3,0.7c0.1,0.3,0.1,0.5,0.2,0.8C41.2,49.9,41.2,50.2,41.1,50.6z"
		/>
	<path class="st1" d="M40.9,50.7c-0.8,1.1-2.4,2.1-3.4,2.9c-1,0.8-2.2,1.4-3.5,1.7c-0.5,0.1-1,0.2-1.5,0.3
		c-3.6,0.5-7.4-0.4-10.8-1.6c-6.3-2.3-12.1-6.5-15.4-12.4c-0.8-1.3-1.5-2.6-2.3-3.9c0-0.1-0.1-0.2-0.2-0.3c-0.3-0.5-1.9-2-2.5-3
		c0,0,0-0.1-0.1-0.1C1.1,34.2,1,34.1,1,34c0-0.1,0-0.1,0-0.2c0-0.1,0-0.3,0.1-0.4c0.3-1.2,2.2-1.1,3.2-1c1.5,0.1,2.9,0,4.3-0.2
		c0.5-0.1,1-0.1,1.6-0.2c3.9-0.6,8-0.7,11.9,0c1.5,0.3,3,0.7,4.5,1.2c3.3,1.2,6,2.7,8.8,4.7c2.7,1.9,4.1,5.9,5.2,9
		c0.1,0.2,0.2,0.4,0.2,0.7C41.2,48.7,41.6,49.7,40.9,50.7z"/>
	<path class="st2" d="M3.6,33.7c0,0,1.3,1.6,4.3,2.7c3,1.1,11.1,4.1,11.1,4.1l6.7,1.4c0,0,5.8,3.8,6.3,4c0.5,0.2,4.9,3.3,5.4,3.3
		c0.5,0.1,3.5,0.3,3.5,0.3s-2.4-6.5-2.5-6.2c-0.1,0.3-1.7,4.4-3.7,1.9c0,0,0.2,0.9-2.8-0.9c-3-1.8-8.8-4.4-9.7-6.4
		c0.6,1.9-3.5,3.3-8.2-0.6C11.1,36.2,7.8,36.3,3.6,33.7z"/>
	<path class="st2" d="M32.3,51.3c0.4-0.3,0.7-0.7,0.9-1.1c0.3-0.8,0.2-2,0.4-2.9c0.7,0.3,7.9,2.9,7.9,1.3c0,1.2-0.7,2.3-1.6,3
		c-0.9,0.7-2,1.2-3.1,1.6c-4,1.6-10.3,3.5-14.1,0.3c3.1,0.6,5.7,0.4,8.3-1.4C31.4,51.9,31.9,51.6,32.3,51.3z"/>
	<path class="st2" d="M18,40c-0.7,0.3-1.3-0.7-2-0.8c-0.3,0-0.7,0.1-1,0.2c-2.3,0.9-4.6,0.8-7,0.6c0.2,0.1,0.2,0.2,0.4,0.3
		c0.2,0.1,0.5,0.2,0.7,0.3c0.5,0.2,1,0.3,1.5,0.4C12.9,41.5,15.8,41.1,18,40z"/>
	<path class="st2" d="M32.5,46.5c0,0-3.1,2.5-3.4,2.7c-1.4,0.8-2.8,1.4-4.4,1.8c-3,0.8-6.2,0.6-8.9-0.8c5.4,0.6,11.1-1.3,15.1-5
		C31.4,45.6,32,46,32.5,46.5z"/>
	<path class="st2" d="M27.2,42.8c0-0.1,0-0.2,0-0.2c-0.1-0.4-2.1-1.4-2.2-1.2c-0.5,1.2-1.8,1.7-3,2c-2,0.6-4,0.9-6.1,1.1
		c-1,0.1-2.1,0-3.1,0.1c-0.7,0.1-1.2,0.4-1.9,0.5c0.6,1.1,2.4,1,3.4,0.9c1.4-0.2,2.8-0.3,4.3-0.5c1.6-0.2,3.2-0.5,4.7-1
		c0.7-0.2,1.5-0.5,2.2-0.8C26,43.7,27,43.3,27.2,42.8z"/>
	<path class="st2" d="M4.9,34.7c0,0-0.1,0-0.1,0c0.7,1.8,3.5,1.9,5,2.5c1.9,0.8,3.8,1.4,5.8,2c-0.1,0-0.7-1.5-0.9-1.7
		c-0.3-0.4-0.7-0.9-1.2-1.1c0.3,2.4-4.8-0.4-5.7-0.8C6.9,35.3,5.9,34.6,4.9,34.7z"/>
	<g>
		<path class="st2" d="M40.2,48.6c0,0.1-0.1,0.1-0.1,0.2c0,0-0.1,0.1-0.1,0.1c-0.8,0.7-2.1,0.2-2.6-0.7c-0.5-0.9-0.6-2-0.7-3
			c-0.6-3.7-3.1-6.8-6.1-8.9c-2.3-1.6-4.9-2.7-7.4-3.8c-0.2-0.1-0.4-0.2-0.6-0.3c-0.1-0.1-0.3-0.1-0.4-0.2c1.5,0.3,3,0.7,4.5,1.2
			c3.3,1.2,6,2.7,8.8,4.7c1.2,0.8,2.1,2.1,2.9,3.4c0.1,0.1,0.1,0.2,0.2,0.4c0.9,1.7,1.6,3.6,2.2,5.2c0,0.1,0,0.1,0,0.2
			C40.5,47.6,40.5,48.2,40.2,48.6z"/>
	</g>
	<g>
		<path class="st2" d="M12,33.7c0.4,0.5,0.7,1.5,1.1,2.1c0.5,0.7,1.1,1.2,1.6,1.9c1.2,1.6,2.8,2.2,4.7,2.6c1.4,0.4,3,0.4,4.4-0.1
			C19.3,39.3,15.1,37,12,33.7z"/>
	</g>
	<g>
		<path class="st2" d="M34.7,44.3c-0.2-0.3-0.5-0.5-0.8-0.5c-0.3-0.1-0.5,0-0.8,0c-1,0-1.8-0.5-2.6-1.1c-2.4-1.6-4.6-3.4-6.4-5.5
			c-0.8-1-1.8-1.8-2.8-2.5c-0.8-0.6-2.7-1-3.3-1.7c1.3,1.5,2.6,3.1,4,4.6c1.1,1.2,1.8,2.8,3,4c1.2,1.3,3.4,2,4.9,3
			c0.8,0.5,1.6,1.1,2.4,1.7c0.6,0.5,1.6,1.6,2.3,1.9c1.7,0.5,0.6-2.6,0.3-3.4C34.9,44.5,34.8,44.4,34.7,44.3z"/>
	</g>
	<path class="st0" d="M80.5,45c-0.3,0.4-0.7,0.6-1.1,0.9c-1.9,1.3-3,3-4.7,4.5c-4.8,4.2-9.8,7.2-15.7,9.6c-2.3,0.9-4.8,1.8-7.3,1.6
		c-4.2-0.2-5.9-3.2-7.5-6.8c-0.2-0.5-0.5-1.1-0.8-1.6c-0.6-1-1.3-2-2.3-2.6c-0.1-0.1-0.3-0.2-0.4-0.2c-0.4-0.2-0.8-0.4-0.8-0.8
		c0-0.1,0-0.3,0.1-0.4c0.1-0.2,0.3-0.3,0.5-0.4c0.2-0.1,0.4-0.1,0.6-0.1c0.3,0,0.6,0.1,0.9-0.1c0.5-0.3,1-1,1.4-1.5
		c0.6-1,1.1-2.1,1.8-3.1c0.9-1.4,2.6-3.1,4.2-3.6c2.2-0.7,5-0.6,7.2-0.5c4.1,0.2,8.1,0.9,12.2,1.3c2.3,0.2,4.7,0.4,7,0.8
		c1.1,0.2,5,0.1,5.3,1.7C81,44.2,80.8,44.6,80.5,45z"/>
	<path class="st1" d="M80.9,44.1c0,0.3-0.2,0.6-0.4,0.9c-0.3,0.3-0.7,0.6-1.1,0.9c-1.9,1.3-3,3-4.7,4.4c-4.8,4.1-9.8,7-15.7,9.3
		c-2.3,0.9-4.8,1.7-7.2,1.5c-3.9-0.2-5.7-2.8-7.2-6c-0.1-0.2-0.2-0.5-0.3-0.7c-0.6-1.4-1.4-2.8-2.5-3.7c0,0-0.1-0.1-0.1-0.1
		c-0.3-0.2-0.6-0.4-0.9-0.6c-0.4-0.2-0.8-0.4-0.8-0.8c0-0.3,0.3-0.7,0.6-0.8c0.6-0.2,0.9,0.1,1.5-0.2c0.5-0.3,1-1,1.3-1.5
		c0.6-1,1.1-2,1.8-3c0-0.1,0.1-0.1,0.1-0.2c0.9-1.3,2.5-2.8,4-3.3c2-0.6,4.5-0.6,6.6-0.4c0.2,0,0.4,0,0.6,0
		c4.1,0.2,8.1,0.9,12.1,1.4c0.9,0.1,1.8,0.2,2.8,0.3c1.4,0.1,2.8,0.3,4.2,0.5c1.1,0.1,4.7,0.1,5.2,1.5c0,0.1,0.1,0.1,0.1,0.2
		C80.9,43.8,80.9,43.9,80.9,44.1z"/>
	<g>
		<path class="st2" d="M70.9,46.4c1.1-0.1,2.2,0.1,3.2,0.5c-1.2,0.1-2.4,0.2-3.5,0.4c-0.2,0-0.4,0.1-0.5,0.3
			c-0.1,0.2,0.2,0.4,0.3,0.5c0.7,0.4,1.4,0.8,2.1,1.3c-2-0.3-3.9-0.8-5.8-1.6c1.6-0.7,3.4-1.2,5.2-1.4L70.9,46.4z"/>
	</g>
	<g>
		<path class="st2" d="M71.4,41.5c-2.1,0-4.2-0.2-6.3-0.4c-3.8-0.4-7.6-0.9-11.4-0.5c-3,0.3-6,1.2-8.5,2.9c0.9-1.3,2.5-2.8,4-3.3
			c2-0.6,4.5-0.6,6.6-0.4c0.2,0,0.4,0,0.6,0c4.1,0.2,8.1,0.9,12.1,1.4C69.5,41.3,70.5,41.4,71.4,41.5z"/>
	</g>
	<g>
		<path class="st2" d="M48.7,47.7c2.4-0.5,4.8,0.3,7,1.1c1.2,0.4,2.3,0.8,3.5,1c0.9,0.2,2.2,0.6,3.1,0.5c-3.5,0.2-6.5-0.7-10-1.1
			c-0.5-0.1-1.1-0.1-1.5,0c-0.5,0.2-0.9,0.7-0.7,1.2c0.1,0.4,0.6,0.7,1,0.8c1.9,0.9,3.8,1.7,5.7,2.6c-4.3-0.2-8.2-3.5-12.5-3.2
			C45.3,49.2,46.9,48.1,48.7,47.7z"/>
	</g>
	<g>
		<path class="st2" d="M66.4,48c-2.4,0.2-4.8,0.5-7.3,0.7c3,0.3,6,1.1,8.8,2.3C63,51,58.1,50,53.6,48.2c-2-0.7,3.4-1.5,3.8-1.5
			C60.4,46.7,63.5,47.1,66.4,48z"/>
	</g>
	<g>
		<path class="st2" d="M50.6,52.2c2.2,0.9,4.4,1.4,6.6,1.8c2.1,0.4,4.1,1,6.3,0.8c-2.7,2.8-6.7,4.1-10.6,3.6c-2.6-0.4-5-1.5-7-3.2
			c-0.9-0.7-1.9-1.7-2.5-2.8c-0.3-0.6-0.4-1.4-0.1-2c0.7-1.2,2-0.5,2.8,0C47.6,51.2,49.2,51.7,50.6,52.2z"/>
	</g>
	<g>
		<path class="st2" d="M76.5,44.5c-3.6,1.9-7.8,2.2-11.8,2.1c-4,0-8.1-0.4-12.1,0.3c-2.5,0.4-5,1.3-7.4,2.2
			c-0.8,0.3-2.3,1.2-3.6,1.4c-0.3-0.2-0.5-0.4-0.8-0.5c-0.4-0.2-0.8-0.4-0.8-0.8c0-0.1,0-0.2,0.1-0.3c0-0.1,0.1-0.1,0.1-0.1
			c0-0.1,0.1-0.1,0.1-0.1c0.1-0.1,0.2-0.1,0.3-0.1c0.6-0.2,0.9,0.1,1.5-0.2c0.5-0.3,1-1,1.3-1.5c0.6-1,1.1-2,1.8-3
			c0.4-0.7,1-1.4,1.7-2c0.7-0.7,1.6-1.2,2.4-1.5c2-0.6,4.5-0.6,6.6-0.4c-2,0.9-9,3.9-6.6,6c1.7-1.3,3.4-2.3,5.1-3.5
			c-0.3,0.4-0.1,0.9,0.2,1.2c0.3,0.3,0.8,0.4,1.3,0.4c1.2,0.1,2.6,0,3.7-0.6c0.7-0.3,1.9-2,2.2-0.6c0.1,0.4,0.4,0.6,0.7,0.8
			c0.3,0.1,0.7,0.1,1.1,0.1c1.5,0,3-0.2,4.4-0.6c-1.7,1.4,2.1,1.2,2.6,1.2C72.5,44.4,74.5,44.5,76.5,44.5z"/>
	</g>
	<g>
		<path class="st3" d="M46.8,41.8c-0.1,0.4-0.2,0.7-0.3,1.1c-0.8,2.3-5.7,9.8-8.3,5.3c-0.6-1.1-0.9-2.6-0.8-3.8
			c0-0.4,0.1-0.9,0.3-1.4c0.1-0.2,0.7-1.3,0.6-1.3c0.9,1.7,1.6,3.6,2.2,5.2c0,0.1,0,0.1,0,0.2c0,0.5-0.1,1-0.3,1.5
			c0.1-0.1,0.2-0.1,0.3-0.1c0.6-0.2,0.9,0.1,1.5-0.2c0.5-0.3,1-1,1.3-1.5c0.6-1,1.1-2,1.8-3C45.5,43.1,46.1,42.4,46.8,41.8z"/>
	</g>
	<path class="st4" d="M40.1,48.7c-1.4-0.1-2.7-0.4-3.9-0.9c-0.8-5.2-4.5-9.8-9-12.4c-0.1,0-0.2,0.1-0.1,0.1c4.2,3.1,6.9,7.2,8.6,12
		c-3.7-1.8-6.9-5.2-10.8-6.6c-1-1.6-2.2-3.1-3.4-4.6c-1.1-1.3-2.3-2.5-3.8-3.5c0,0-0.1,0-0.1,0.1c1.6,1.4,2.8,3,4,4.7
		c0.7,1,1.5,2.4,2.3,3.3c-6.4-1.5-6.7-1.2-8.2-2.4c-0.6-0.5-1.2-1.7-1.7-2.3c-0.9-1.1-1.8-2.4-3-3.3c0,0-0.1,0-0.1,0.1
		c0.9,1.5,2.1,2.7,3.1,4.2c0.3,0.5,0.6,0.9,1,1.2c-0.2-0.1-0.4-0.1-0.6-0.2c-1.7-0.5-3.3-1.2-5-1.8c-1.6-0.6-3.5-0.9-4.8-2
		c-0.1-0.1-0.2,0-0.1,0.1c0.8,1.1,2.2,1.5,3.3,2c1.6,0.7,3.3,1,5,1.6c1.6,0.6,3.4,1.4,5,1.9c-1.3,0.6-2.6,0.7-3.9,0.8
		C12.2,41,9.8,41,8.1,40.2c0,0-0.1,0-0.1,0.1c1.3,1.1,3.4,1.1,5,1.1c1.7,0,4-0.2,5.5-1c1.5,0.4,3.1,0.7,4.6,1.1c1.6,0.3,3,1,4.3,1.8
		c-1.1,0.4-2.2,1-3.3,1.3c-1.4,0.4-3,0.8-4.4,1c-2.9,0.4-5.7,0.5-8.6,0.2c2.7,1,6,0.4,8.7,0.1c2.7-0.3,6-0.7,8.2-2.2
		c1.4,0.9,2.9,1.8,4.3,2.8c-1.8,1.6-3.7,3-6.1,3.7c-2.1,0.6-4.3,0.9-6.4,1.4c0,0,0,0,0,0.1c1.2,0.2,2.3-0.1,3.5-0.3
		c1.3-0.2,2.6-0.5,3.8-0.8c2-0.6,4.4-1.9,5.7-3.6c1.2,0.8,2.3,1.7,3.6,2.1c-2.3,3.3-8.5,5.1-7,4.8c2.9-0.7,6.4-1.7,7.8-4.6
		c0.9,0.2,1.8,0.2,2.8,0C40.4,49.1,40.3,48.8,40.1,48.7z"/>
	<path class="st2" d="M43.6,50.7c3-2.5,7-3.5,10.9-3.7c3.9-0.3,7.8,0.1,11.7,0c3.9-0.1,7.9-0.7,11.2-2.8c-4.2,0.8-8.4,1.4-12.6,2
		c0.1-0.5,0.1-1.1,0.2-1.6c-1.6,1.7-4.6,2-6.5,0.6c0-0.3,0.1-0.5,0.1-0.8c-1.6,1-3.4,1.6-5.2,1.8c-0.5,0.1-1.1,0.1-1.5-0.1
		c-0.5-0.2-0.8-0.7-0.7-1.2c-1.2,1.1-2.5,2.2-4,2.8c-1.6,0.5-3.5,0.3-4.5-1c-1.1,0.7-2.1,1.6-2.8,2.6c-0.3,0.4-0.5,0.9-0.3,1.3
		c0.2,0.4,0.7,0.4,1.1,0.5c1.5,0.1,3-0.2,4.4-0.8L43.6,50.7z"/>
	<path class="st4" d="M78.9,44c-1.5,0-3.1,0.7-4.6,1.1c-1.7,0.5-3.3,0.9-5,1.3c-1.7,0.4-3.5,0.7-5.2,0.7c-0.6,0-1.2-0.1-1.8-0.1
		c1.3-1.1,2.4-2.2,4-2.9c2.2-1.1,7.3-1.5,5.8-1.5c-2.2,0.1-4.5,0.3-6.2,1.1c-1.6,0.7-3.4,1.8-4.5,3.3c-0.8-0.1-1.6-0.2-2.5-0.3
		c-1.3-0.1-2.6-0.1-3.9-0.1c1.1-0.9,2.2-1.9,3.5-2.7c0.8-0.5,5.9-2.9,4.2-2.4c-3.2,0.8-6.2,3.2-8.7,5.2c-1.1,0.1-2.2,0.3-3.3,0.5
		c-0.7,0.2-1.3,0.4-2,0.6c1.9-3.8,6.4-5.9,6.1-5.8c-3.1,0.7-5.7,3.4-7,6.2c-0.3,0.1-0.5,0.2-0.8,0.4c-1.6,0.8-3.2,2.1-5.1,1.6
		c-0.4-0.1-0.5,0.4-0.1,0.6c0.6,0.2,1.3,0.2,1.9,0.1c1.2,0,2.8,0.2,3.8,0.5c1.2,0.3,2.3,0.9,3.5,1.3c1.5,0.6,3.1,1.1,4.7,1.5
		c2.6,0.7,5.8,1.6,8.4,0.4c0.1-0.1,0.1-0.3-0.1-0.2c-3,1.2-6.9-0.4-9.8-1.3c-1.7-0.5-3.3-1.1-4.9-1.8c-1.1-0.4-2.4-1-3.6-1.1
		c1.3-0.6,2.5-1.4,3.7-1.8c0.9-0.3,1.8-0.5,2.8-0.7c0,0.1,0,0.3,0.1,0.3c5.3,2.6,11.5,2.5,17.2,3.7c0,0,0.1-0.1,0-0.1
		c-5.4-2.2-11.4-1.6-16.7-4c2.2-0.3,4.5-0.3,6.8-0.1c1,0.1,2,0.1,3,0.2c0.7,0.1,2.8-0.2,3.3,0c1.7,0.6,2.7,1.1,4,1.3
		c1.7,0.4,3.4,0.6,5.1,0.4c0.1,0,0.1-0.2,0-0.2c-1.7-0.1-3.3-0.2-5-0.6c-0.9-0.2-1.8-0.6-2.7-1c0.5-0.1,1-0.2,1.5-0.3
		c0.9-0.2,1.8-0.5,2.7-0.8c0.8,0.4,1.9,0.5,2.8,0.5c1,0.1,1.9,0.1,2.8-0.3c-0.9-0.2-1.8-0.1-2.8-0.2c-0.6-0.1-1.2-0.2-1.9-0.4
		c0.5-0.1,1-0.3,1.5-0.4C74.7,45.5,80.2,44.1,78.9,44z"/>
	<path class="st2" d="M8.5,32.2c-1.9,0.9-4,1.3-6.1,1.2c-0.4,0-0.9,0-1.4,0c0.3-1.2,2.2-1.1,3.2-1C5.8,32.5,7.1,32.4,8.5,32.2z"/>
	<path class="st5" d="M22.1,34.9c-0.5-0.1-1-0.3-1.6-0.3c1.5,1.5,4.2,2.6,5.9,4.1c1.1,0.9,3,2.2,4.7,2.5c2.8,0.5-2.2-3.1-2.9-3.5
		C26.5,36.6,24.3,35.5,22.1,34.9z"/>
	<path class="st5" d="M21,38.3c-0.9-1.4-2.1-2.5-3.2-3.7c-1.1-1.3-2.8-2.2-4.5-1.5c0,0.2,0.1,0.3,0.2,0.4c1.4,1.7,2.9,3.2,4.7,4.5
		C18.7,38.2,21.8,39.6,21,38.3z"/>
	<path class="st5" d="M8.6,33.3c-0.4-0.1-0.8-0.2-1.1-0.1c-0.3,0.1-0.5,0.5-0.4,0.8c0.1,0.9,1.5,1.4,2.3,1.6
		c1.1,0.2,2.2,0.6,3.3,0.7C12.7,34.8,9.9,33.7,8.6,33.3z"/>
	<path class="st5" d="M12.6,43c0-0.1,0.1-0.1,0.2-0.2c0.1-0.1,0.2-0.1,0.3-0.1c2.1-0.6,4.7-1.9,6.8-1.7c0.4,0,3.9,0.5,3.4,1.1
		c-0.9,1.1-3.2,1.3-4.4,1.5c-1.3,0.2-2.7,0.2-4,0.3C14.5,43.7,12.2,43.7,12.6,43z"/>
	<path class="st5" d="M28.9,45.8c-0.1,1.1-2.6,2.1-3.5,2.2c-1.5,0.2-3,0-4.5-0.2c-0.4-0.1-3.1-1-1.4-1.2c2-0.2,4-0.8,6-1.5
		c1.1-0.4,3.1-1.3,3.4,0.5C28.9,45.7,28.9,45.7,28.9,45.8z"/>
	<path class="st5" d="M31.7,51.7c-0.8,0.6-1.9,0.8-2.9,0.8c-0.6,0-1.1,0.1-1.7,0c-0.3-0.1-1.2-0.6-1.4-0.5c2.3-0.7,4.3-2.3,6.2-3.6
		c0.2-0.1,0.4-0.3,0.6-0.2C34.2,48.4,32.4,51.2,31.7,51.7z"/>
	<path class="st6" d="M1,34c0.1,0.1,0.1,0.2,0.2,0.3C1.1,34.2,1,34.1,1,34z"/>
	<path class="st6" d="M34,55.3c-0.5,0.1-1,0.2-1.5,0.3c-3.6,0.5-7.4-0.4-10.8-1.6c-6.3-2.3-12.1-6.5-15.4-12.4
		c-0.8-1.3-1.5-2.6-2.3-3.9c0.6,0.6,1.3,1.1,2,1.6c2.7,1.9,5.9,3.1,8.9,4.5c3,1.3,6.1,2.8,8.5,5.1c1.7,1.6,3.2,3.6,5.4,4.4
		c1.2,0.4,2.5,0.5,3.6,0.9C32.9,54.3,33.6,54.7,34,55.3z"/>
	<g>
		<path class="st2" d="M38.2,41.4c-2-2.3-4.4-4.2-7-5.7c-2.6-1.4-5.3-2.5-8.1-3.3c-0.2-0.1-0.4-0.2-0.6-0.3
			c-0.1-0.1-0.3-0.1-0.4-0.2c1.5,0.3,3,0.7,4.5,1.2c3.3,1.2,6,2.7,8.8,4.7C36.5,38.8,37.4,40,38.2,41.4z"/>
	</g>
	<path class="st5" d="M63.2,53.9c-2.6,0.6-5.8-0.4-8.2-1.1c-0.5-0.2-5-1.6-3.2-2.7c0.4-0.3,1-0.2,1.5,0c4.1,0.9,8.1,1.8,12.2,2.8
		C64.8,53.4,64.1,53.7,63.2,53.9z"/>
	<path class="st5" d="M72.7,50.4c-1.9-0.1-3.6-1-5.3-1.6c-0.6-0.2-4.1-0.7-3.9,0.4c0.1,0.7,3,1.3,3.6,1.4
		C68.8,50.9,71.2,51.3,72.7,50.4z"/>
	<path class="st5" d="M70.8,42.2c-2.9-1.6-8.6,0.9-9.7,3.9c-0.1,0.2,0.1,0.4,0.3,0.3c1.5-0.7,2.8-1.8,4.4-2.4c1.6-0.6,3.4-0.5,5-1.1
		C71.1,42.8,71.1,42.4,70.8,42.2z"/>
	<path class="st5" d="M61.9,41.5c-1.6-0.3-3.2,0.7-4.6,1.4c-1.4,0.8-3,1.8-3.7,3.3c-0.1,0.2,0.1,0.5,0.3,0.4c1.4-0.5,2.7-1.6,4-2.3
		c1.3-0.7,3-1.1,4.2-2.1C62.4,42.1,62.2,41.6,61.9,41.5z"/>
	<path class="st6" d="M80.9,44.1c0,0.3-0.2,0.6-0.4,0.9c-0.3,0.3-0.7,0.6-1.1,0.9c-1.9,1.3-3,3-4.7,4.4c-4.8,4.1-9.8,7-15.7,9.3
		c-2.3,0.9-4.8,1.7-7.2,1.5c-3.9-0.2-5.7-2.8-7.2-6c0.7-0.2,1.4-0.2,2.1-0.1c1.1,0.2,2.1,0.5,3.2,0.8c4.7,1.1,9.6-0.2,13.9-2.3
		c4.3-2.2,8.1-5.1,12.2-7.6c0.8-0.5,1.5-0.9,2.3-1.3c0.8-0.4,1.6-0.7,2.5-1c0,0.1,0.1,0.1,0.1,0.2C80.9,43.8,80.9,43.9,80.9,44.1z"
		/>
	<g>
		<path class="st7" d="M41.3,50.6C41.4,50.6,41.4,50.6,41.3,50.6l-0.5,0.2C41,50.7,41.2,50.7,41.3,50.6z"/>
	</g>
	<g>
		<path class="st7" d="M41.6,50.5l1.1-0.4c-0.3,0.3-0.6,0.4-1,0.4c-0.1,0-0.2,0-0.3,0L41.6,50.5z"/>
	</g>
	<g>
		<path class="st3" d="M43.3,53.2c-0.6-1-1.3-2-2.3-2.6c-0.1,0.2-0.1,0.4-0.3,0.5c-0.8,1.1-2.4,2.2-3.5,3c-1.1,0.8-2.3,1.4-3.5,1.8
			c-0.5,0.1-1,0.3-1.5,0.3c-0.5,0.1-1.1,0.1-1.6,0.2c0-0.3,0.3-0.6,0.6-0.8c1.8-1.2,2.6-3.2,3.8-4.8c1-1.4,3-1.9,4.8-1.6
			c0.3,0.1,0.6,0.1,1,0.2c0.1,0,0.2,0.1,0.3,0.1c1.4,0.5,2.1,1.4,2.2,2.5C43.5,52.4,43.4,52.8,43.3,53.2z"/>
	</g>
	<path class="st1" d="M45.5,43.4c-0.5,1.6-1.3,3.1-2.4,4.1c-0.1,0.1-0.3,0.3-0.6,0.6c-0.7,0.8-1.8,1.9-2.2,1.6
		c-1.1-0.8-1.9-1.7-2.2-3.1c-0.6-3.3,1.4-5.5,3.7-7.5c0.8-0.7,1.7-1.2,2.6-1.7c0.4-0.2,0.9-0.5,1.3-0.8c-0.2,0.1,0.2,3,0.2,3.4
		C46.1,41.1,45.9,42.3,45.5,43.4z"/>
	<path class="st5" d="M45.5,40.9c-0.3,0.9-1.1,1.7-1.8,2.1c-0.1,0.1-0.3,0.1-0.4,0.1c-0.1,0-0.3,0-0.4-0.2c-0.1-0.2,0-0.3,0-0.5
		c0.5-1.6,1.4-3,2.3-4.5c0-0.1,0.1-0.1,0.2-0.1c0.1,0,0.2,0.1,0.2,0.2C45.7,39,45.8,40,45.5,40.9z"/>
	<path class="st4" d="M44.6,42.9c-1.1,0.4-2,1-2.6,1.9c-0.1,0.2-0.2,0.3-0.3,0.5c0.1-0.5,0.2-1,0.3-1.5c0.5-1.9,1.6-3.3,2.5-5
		c-1.4,1.1-2.1,2.8-2.7,4.5c0,0.1-0.3,0.3-0.3,0.3c0-0.2,0-0.4,0-0.6c0.1-0.8,0.1-1.6,0.1-2.5c-0.2,0.6-0.4,1.1-0.4,1.7
		c0,0.8,0,1.5-0.2,2.2c-0.3,0.8-0.3,1.7-0.4,2.6c-0.4-0.7-0.5-1.4-0.5-2.2c-0.2,0.8-0.2,1.7,0.1,2.5c0.2,0.4,0.7,1.4,0.3,1.8
		c0.4-0.4,0.5-1,0.7-1.6c0.2-0.6,0.5-1.2,0.8-1.8C42.6,44.7,43.5,43.7,44.6,42.9C44.7,43,44.7,42.9,44.6,42.9z"/>
	<g>
		<path class="st2" d="M45.5,43.4c-0.5,1.6-1.3,3.1-2.4,4.1c-0.1,0.1-0.3,0.3-0.6,0.6c-0.7,0.8-1.8,1.9-2.2,1.6
			c-1.1-0.8-1.9-1.7-2.2-3.1c-0.6-3.3,1.4-5.5,3.7-7.5c0.8-0.7,1.7-1.2,2.6-1.7c-0.8,0.9-1.6,1.6-2.5,2.4c-1.4,1.4-2.6,3.1-2.8,5.1
			c-0.1,1.5,0,3.7,1,4.7c1.1-1.3,1.8-3,3.1-4.1C44,45,44.8,44.3,45.5,43.4z"/>
	</g>
	<path class="st1" d="M42.2,54.3c-1.1,2-3.7,2.5-5.8,2.6C36,56.9,35.5,57,35,57c-1,0.1-2.2,0.2-3,0.1c-0.2,0-0.4-0.2-0.5-0.4
		c0,0,0-0.1-0.1-0.2c0-0.4,0.3-0.6,0.6-0.8c1.6-1.2,2.4-3.3,3.5-4.9c1-1.5,3-2,4.7-1.6c0.1,0,0.3,0.1,0.4,0.1c0,0,0,0,0.1,0
		c1.4,0.5,2.1,1.4,2.2,2.5C42.9,52.6,42.7,53.5,42.2,54.3z"/>
	<path class="st5" d="M39.2,54.3c-0.1-0.7-0.1-1.3,0-2c0.1-0.4,0.1-1,0.3-1.4c0.3-0.4,0.9-0.6,1.2-0.1c0.2,0.4-0.1,1.3-0.1,1.7
		c0,0.6-0.2,1.1-0.4,1.6c-0.2,0.4-0.7,0.8-0.7,1.2C39.4,55.1,39.3,54.7,39.2,54.3z"/>
	<path class="st4" d="M38.4,52.3c-0.7,1.1-1.6,2.1-2.7,2.9c-0.5,0.4-1.1,0.7-1.7,1c-0.3,0.2-0.6,0.3-0.9,0.4c-0.1,0-0.3,0.1-0.4,0.1
		c-0.1,0-0.4,0-0.4,0.1c0.4-0.3,0.9-0.5,1.3-0.7c0.5-0.3,0.9-0.5,1.3-0.9c0.8-0.6,1.6-1.4,2.2-2.2c0.5-0.6,0.9-1.3,1.5-2
		c0.6-0.6,1.2-1.1,2-1.3C39.8,50.5,39,51.3,38.4,52.3z"/>
	<path class="st4" d="M38.6,51.4c0,0-2.4,1.7-4,2c0.4,0.4,3.4-1,3.4-1L38.6,51.4z"/>
	<path class="st4" d="M38.6,52.8c-0.1,0.5,0,1.1,0.1,1.5c0.1,0.5,0.3,0.9,0.6,1.3c-0.6-1.5-0.6-3.3,0-4.8
		C38.6,50.8,38.7,52.2,38.6,52.8z"/>
	<path class="st5" d="M38.4,55.8c-0.6,0.3-1.2,0.6-1.8,0.8c-0.3,0.1-0.7,0.2-1,0.2c-0.2,0-0.8-0.1-0.9,0c0.5-0.3,0.9-0.6,1.4-0.9
		c0.4-0.2,0.6-0.7,0.9-1.1c0.3-0.4,0.6-0.9,0.9-1.3c0.3-0.5,0.5,0.1,0.5,0.4c0,0.5,0.2,0.9,0.4,1.3c0,0.1,0.1,0.1,0,0.2
		C38.7,55.6,38.5,55.7,38.4,55.8z"/>
	<g>
		<path class="st2" d="M42.8,51.9c-0.1-0.8-0.5-1.5-1.1-2c-0.6-0.4-1.1-0.8-1.8-0.7c-1.7-0.3-3.5,0.2-4.4,1.6
			c-1.1,1.6-1.9,3.7-3.5,4.9c-0.3,0.2-0.6,0.5-0.6,0.8c0,0.1,0,0.1,0.1,0.2c1.7-0.6,3-2.7,4-4c0.7-0.9,1.4-1.7,2.4-2.2
			c0.4-0.2,0.9-0.3,1.3-0.4c1-0.3,1.8-0.2,2.3,0.8c0.4,0.8,0.4,1.9-0.1,2.7c-0.5,0.9-1.6,1.5-2.6,2c-1.2,0.6-2.5,1.1-3.8,1.5
			c0.5,0,1-0.1,1.4-0.1c2.1-0.1,4.8-0.6,5.8-2.6C42.7,53.5,42.9,52.6,42.8,51.9z"/>
	</g>
</g>
</svg>
