<?xml version="1.0"?>
<svg xmlns:rdf="http://www.w3.org/1999/02/22-rdf-syntax-ns#" xmlns="http://www.w3.org/2000/svg" xmlns:cc="http://web.resource.org/cc/" xmlns:xlink="http://www.w3.org/1999/xlink" xmlns:dc="http://purl.org/dc/elements/1.1/" xmlns:svg="http://www.w3.org/2000/svg" id="svg2" viewBox="0 0 298.78 411.29" version="1.0">
  <defs id="defs4">
    <linearGradient id="linearGradient10375">
      <stop id="stop10377" stop-color="#fd5" offset="0"/>
      <stop id="stop10379" stop-color="#ffd42a" stop-opacity="0" offset="1"/>
    </linearGradient>
    <linearGradient id="linearGradient7368">
      <stop id="stop7370" stop-color="#fe914f" offset="0"/>
      <stop id="stop8347" stop-color="#ed2713" offset=".35461"/>
      <stop id="stop7372" stop-color="#9e0000" offset="1"/>
    </linearGradient>
    <linearGradient id="linearGradient3221">
      <stop id="stop3223" stop-color="#fff" offset="0"/>
      <stop id="stop3225" stop-color="#fff" stop-opacity="0" offset="1"/>
    </linearGradient>
    <filter id="filter5283">
      <feGaussianBlur id="feGaussianBlur5285" stdDeviation="2.8144345"/>
    </filter>
    <filter id="filter11424" y="-.048708" width="1.6462" height="1.0974" x="-.32308">
      <feGaussianBlur id="feGaussianBlur11426" stdDeviation="6.0007995"/>
    </filter>
    <filter id="filter12423" y="-.063361" width="1.293" height="1.1267" x="-.1465">
      <feGaussianBlur id="feGaussianBlur12425" stdDeviation="3.0327569"/>
    </filter>
    <filter id="filter15805" y="-.056343" width="1.2079" height="1.1127" x="-.10395">
      <feGaussianBlur id="feGaussianBlur15807" stdDeviation="2.6906123"/>
    </filter>
    <filter id="filter16814" y="-.28169" width="1.1092" height="1.5634" x="-.054581">
      <feGaussianBlur id="feGaussianBlur16816" stdDeviation="5.4251311"/>
    </filter>
    <filter id="filter17805" y="-.17849" width="1.0744" height="1.357" x="-.037178">
      <feGaussianBlur id="feGaussianBlur17807" stdDeviation="3.0943732"/>
    </filter>
    <filter id="filter20806">
      <feGaussianBlur id="feGaussianBlur20808" stdDeviation="0.17529202"/>
    </filter>
    <linearGradient id="linearGradient20834" y2="263.14" xlink:href="#linearGradient3221" gradientUnits="userSpaceOnUse" x2="144.32" y1="277.98" x1="76.696"/>
    <linearGradient id="linearGradient20836" y2="275.51" xlink:href="#linearGradient3221" gradientUnits="userSpaceOnUse" x2="219.37" y1="276.34" x1="178.96"/>
    <linearGradient id="linearGradient20850" y2="281.2" xlink:href="#linearGradient10375" gradientUnits="userSpaceOnUse" x2="214.46" y1="281.2" x1="177.31"/>
    <linearGradient id="linearGradient20852" y2="272.26" xlink:href="#linearGradient10375" gradientUnits="userSpaceOnUse" x2="110.02" y1="277.24" x1="68.003"/>
    <linearGradient id="linearGradient20860" y2="117.87" gradientUnits="userSpaceOnUse" x2="192.2" y1="118.75" x1="176.29">
      <stop id="stop15811" stop-color="#008000" offset="0"/>
      <stop id="stop15813" stop-color="#002b00" offset="1"/>
    </linearGradient>
    <radialGradient id="radialGradient20863" xlink:href="#linearGradient7368" gradientUnits="userSpaceOnUse" cy="248.96" cx="88.696" gradientTransform="matrix(-1.2604 .087358 -.16849 -2.431 252.16 809.17)" r="73.75"/>
    <radialGradient id="radialGradient20867" xlink:href="#linearGradient7368" gradientUnits="userSpaceOnUse" cy="282.62" cx="-22.376" gradientTransform="matrix(.086877 -.34887 .35342 .088011 102.12 104)" r="73.75"/>
    <radialGradient id="radialGradient20870" xlink:href="#linearGradient7368" gradientUnits="userSpaceOnUse" cy="272.68" cx="101.54" gradientTransform="matrix(.59310 .43555 -.85909 1.1164 253.54 -199.02)" r="73.75"/>
    <radialGradient id="radialGradient20873" xlink:href="#linearGradient7368" gradientUnits="userSpaceOnUse" cy="237.11" cx="-11.988" gradientTransform="matrix(-.83945 -.075743 .21441 -2.3763 156.66 785.55)" r="73.75"/>
    <radialGradient id="radialGradient20876" xlink:href="#linearGradient7368" gradientUnits="userSpaceOnUse" cy="225.12" cx="130.99" gradientTransform="matrix(.50755 -.049872 .027034 .27512 177.98 78.775)" r="73.75"/>
    <radialGradient id="radialGradient20881" xlink:href="#linearGradient7368" gradientUnits="userSpaceOnUse" cy="284.14" cx="39.704" gradientTransform="matrix(.046672 -.25794 .58642 .10611 -16.256 120.67)" r="73.75"/>
    <linearGradient id="linearGradient20884" y2="257.28" gradientUnits="userSpaceOnUse" x2="294.81" gradientTransform="translate(-1.1652 -8.9335)" y1="256.9" x1="280.82">
      <stop id="stop20888" stop-color="#fe914f" offset="0"/>
      <stop id="stop20890" stop-color="#ed2713" offset=".35461"/>
      <stop id="stop20892" stop-color="#f60" offset="1"/>
    </linearGradient>
  </defs>
  <g id="layer1" transform="translate(-31.354 -30.605)">
    <g id="g20894">
      <path id="path14670" filter="url(#filter16814)" d="m134.88 414.63c-10.21-0.82-32.56-6.14-38.609-13.35-2.56-10.81 11.569-11.73 18.909-12.79 9.13-1.28 17.85-4.74 27.19-4.19 18.06-0.01 36.14 0.42 54.14-1.26 21.69-0.86 43.42-0.78 65.1-0.32 9.58 1.18 18.82 4.89 26.33 10.92 7.18 2.96 9.16 12.12 0.76 14.97-6.69 4.3-18.68 3.98-26.69 5.21-7.08 3.09-9.34 5.58-16.67 4.95-26.55 0.53-47.99-10.75-84.86 3.54-15.81-0.15-18.81-4.77-34.58-5.29-1.18-0.06 10.12-3.97 8.98-2.39z" transform="matrix(1.0041 .024256 -.11735 1.1166 27.563 -48.831)" fill-rule="evenodd"/>
      <path id="path7353" d="m168.73 123.06c-0.12 0.07-0.51 0.32-0.51 0.32s-2.89-0.34-15.06-1.74c-34.01-2.2-35.52 6.86-44.17 13.45l41.39 13.19 24.35-3.58-6-21.64z" style="color:#000000" fill="url(#radialGradient20881)" fill-rule="evenodd"/>
      <path id="path2231" opacity=".38462" style="color:#000000" d="m100.88 170.07s-20.99 3.5-22.739 14c-1.75 10.49-6.998 54.23-5.832 64.14 1.167 9.92 3.499 20.41 6.998 35.57 3.499 15.17 4.665 13.42 9.33 30.91 4.665 17.5 6.998 15.16 13.993 29.16 7 13.99 19.83 53.06 22.74 56.56 2.92 3.5 12.25 15.16 19.25 14 7-1.17 23.32 6.41 14.58-4.67-8.75-11.08-5.83-12.83-16.33-32.65-10.5-19.83-3.5-5.25-14-23.33-10.49-18.08-12.83-13.99-9.91-25.07s8.75 1.16-2.33-17.5-22.161-16.33-9.92-26.24c12.25-9.91 26.83-15.16 21-30.91-5.83-15.74-6.42-36.15-9.92-46.06-3.49-9.92-24.488-2.92-25.654-8.75s-12.246-2.92 7.581-7c19.823-4.08 24.493-1.75 25.073-11.08s-8.75-15.16-11.08-15.16-11.66 4.08-12.83 4.08z" fill-rule="evenodd" transform="matrix(.99344 .11435 -.11435 .99344 28.359 -18.14)" filter="url(#filter5283)" fill="url(#linearGradient20834)"/>
      <path id="path2233" opacity=".38462" style="color:#000000" d="m188.94 158.41c-2.34 0.58-15.75 11.08-14.58 19.24 1.16 8.17-1.17 20.41-1.75 24.5-0.58 4.08-0.58 6.41 0 12.24s2.91 8.75 1.17 16.33c-1.75 7.58-1.75 11.08-1.17 17.49 0.58 6.42 1.75 9.92 1.75 19.25s5.25 18.07 5.25 18.07-5.25 2.34-4.67 8.17 1.75 12.24 2.33 16.33c0.59 4.08 5.25 18.66 7 26.24s4.08 11.66 5.83 23.91c1.75 12.24 5.25 21.57 5.25 27.99 0 6.41-5.83 11.66 0.58 12.83 6.42 1.16 9.92 1.16 14.58 3.49 4.67 2.34 12.25 10.5 17.5 7.59 5.25-2.92 14.58-0.59 7-8.17-7.59-7.58-7.59-8.75-7.59-24.49 0-15.75 1.17-9.33-4.66-28.57-5.83-19.25-9.33-25.08-7.58-30.33s7.58-7.58-0.58-16.33c-8.17-8.74-22.16-13.99-18.67-20.99 3.5-7 8.17-12.24 8.75-15.74s-13.99-28.58-13.99-28.58 0.58-14.58 0.58-20.99-5.83-17.49-2.92-22.74c2.92-5.25 15.17-25.08 15.17-25.08l27.99-15.16-33.83-1.75-8.74 5.25z" fill-rule="evenodd" transform="matrix(.99344 .11435 -.11435 .99344 28.359 -18.14)" filter="url(#filter5283)" fill="url(#linearGradient20836)"/>
      <path id="path7358" d="m259.07 119.74c-9.1-0.99-17.74 0.54-23.5 4.94 0 0-0.36-0.88-1.08-2.07-4.73 1.94-29.88 12.6-34.22 19.82-4.93 8.2 16.78 8.74 16.78 8.74l53.55 6.17 23.95 27.48 9.11 67.11c5.14-27.16 10.63-56.58 10.96-59.45 0.6-5.22 2.49-21.46-2.5-29.07-5-7.62-12.66-22.59-20.82-28.23-8.05-8.73-20.52-14.16-32.23-15.44z" style="color:#000000" fill="url(#radialGradient20876)" fill-rule="evenodd"/>
      <path id="path7340" d="m253.73 145.96c-16.41-1.91-23.86 0.63-40.85 0.68-18.12 0.04-26.6 4.39-33.76 11.02s-4 11.81-4 11.81l-0.44 8.47-3.14 50.25s-4.14 73.03-6.64 85.52c-2.5 12.5-1.56 27.52-0.53 32.44 1 4.74 12.25 56.94 13.06 60.67 1.07-0.52 1.98-0.69 3.95-0.17 26.11 16.66 41.66 18.07 70.9-1.07 24.6-38.11 33.71-65.67 42.69-108.54 0.68-2.94 6.67-34.3 11.91-62.2 0.62-13.37 1.07-25.18 0.99-29.33-0.25-11.75-6.25-33.73-13.24-37.73-7-4-18.63-18.66-37.49-21.37-1.18-0.17-2.32-0.32-3.41-0.45z" style="color:#000000" fill="url(#radialGradient20873)" fill-rule="evenodd"/>
      <path id="path7348" d="m111.54 135.63s-9.58-2.85-18.331-1.51c-8.754 1.34-34.729 1.46-48.026 33.79-4.694 11.41-6.111 31.23-1.027 51.53 1.453 5.81 5.708 20.14 11.162 38l14.246-2.8 4.124-79.3 43.152-19.75 30.44-8.8c-8.77-4-22.43-11.04-35.74-11.16z" style="color:#000000" fill="url(#radialGradient20870)" fill-rule="evenodd"/>
      <path id="path7363" d="m207.72 110.87c-4.4-0.5-9.69-0.51-16.41 0.47-3.27 0.48-15.41 6.45-18 8.5-2.58 2.05-5.09 3.54-5.09 3.54s-0.46-0.06-0.47-0.06l17.78 31.4 49.82-30.54c-0.73-1.62-3.66-7.19-10.45-8.97-4.99-1.31-9.85-3.5-17.18-4.34z" style="color:#000000" fill="url(#radialGradient20867)" fill-rule="evenodd"/>
      <path id="path11432" opacity=".93462" style="color:#000000" d="m44.61 194.31c-1.106 13.27-3.123 33.85-3.123 33.85s10.123 27.54 10.123 25.32c-10.058-45.46 1.676-79.57 34.085-96.21 0 0 3.419-3.58-4.321-1.37-20.297 5.92-33.206 17.83-36.764 38.41z" fill-rule="evenodd" transform="matrix(.80451 .13283 -.14946 1.023 47.419 -19.319)" filter="url(#filter12423)" fill="#d40000"/>
      <path id="path7292" d="m132.9 145.76c-11.14-1.09-23.15-0.03-35.078 1.91-17.047 2.77-34.148 24.14-38.879 36.61-6.736 17.75-9.29 44.98-5.93 68.46 14.278 49.86 39.601 134.23 42.005 139.28 12.772 19.77 33.542 29.54 56.812 26.48 6.13-2.23 14.98-7.66 20.46-9.38 2.98-0.93 4.24-1.88 5.4-2.4l-4.32-34.84c-4.01-16.4-8.52-29.27-6.34-56.19l5.04-62.37 4.84-69.87c-0.74-24.57-18.25-28.63-33.22-35.81-3.49-0.9-7.08-1.51-10.79-1.88z" fill="url(#radialGradient20863)" fill-rule="evenodd"/>
      <path id="path2239" d="m135.56 145.05s22.97 1.61 23.75-6.49c1.33-13.8 10.06-64.86 10.39-67.767 0.81-7.026-1.97 2.607 3.05-10.367 5.01-12.974 7.54-10.215 11.59-9.748 4.06 0.467 17.69 4.393 17.16 9.045-0.54 4.652 3.56 9.838-1.72 9.819s-8.58 3.137-8.58 3.137 3.28 2.144 0.25 2.974c-3.03 0.829-2.79 3.804-2.79 3.804s-2.18-1.43-2.12 13.307c0.07 14.736-3.23 33.216-0.67 36.456s7.46 11.89 10.82 13.03c4.72 1.59 16.48 4.25 16.48 4.25s-16.49 1.83-28.52 9.85c-9.25 6.18-9.15 14.35-9.37 15.11-0.73 2.52-3.49-7.39-14.63-14.86-10.63-7.12-19.9-9.27-25.09-11.55z" fill="url(#linearGradient20860)" fill-rule="evenodd"/>
      <path id="path8367" opacity=".48077" d="m183.39 164.56s-6.86 5.15-6 24 6.85 77.98 6.85 103.69-4.28 80.55 2.57 88.27c6.86 7.71 20.57 29.99 24 22.28 3.43-7.72-13.71-19.71-13.71-41.14 0-21.42 6.85-45.42 6.85-66.84s-11.99-53.13-10.28-77.12c1.71-24 15.43-36 19.71-42.85 4.28-6.86-5.14-19.71-11.14-16.28-6 3.42-18.85 5.99-18.85 5.99z" fill-rule="evenodd" transform="matrix(1.2684 .14601 -.11435 .99344 -24.202 -20.74)" filter="url(#filter11424)" fill="url(#linearGradient20850)"/>
      <path id="path11428" opacity=".48077" style="color:#000000" d="m58.051 205.92s-4.976 41.46 3.317 59.16c8.294 17.69 50.312 125.5 57.502 131.03 7.18 5.53 7.18 13.27 0.55-17.14s-12.72-60.27-19.904-79.06c-7.187-18.8-17.691-47.55-17.138-61.92 0.646-16.81 16.033-63.03 13.821-68.56-2.211-5.53-10.504-2.21-19.903 6.63-9.399 8.85-18.245 29.31-18.245 29.86z" fill-rule="evenodd" transform="matrix(.99344 .11435 -.11435 .99344 28.359 -18.14)" filter="url(#filter11424)" fill="url(#linearGradient20852)"/>
      <path id="path14746" opacity=".69615" d="m174.09 66.826s-0.04 0.863-3.54 21.65c-3.45 20.494-5.74 45.954-9.72 54.784-3.98 8.84-8.84 5.75-11.49 5.75s0-2.21 10.61 3.97c10.6 6.19 11.48 9.28 11.48 9.28s11.05-12.37 18.56-12.81 10.16-1.77 10.16-1.77-2.21-2.21-11.04-0.88c-8.84 1.32-12.82 8.39-18.56 3.53s-3.98-22.53-1.77-28.72c2.21-6.18 8.84-56.993 5.31-54.784z" fill-rule="evenodd" filter="url(#filter15805)" fill="#eae3ab"/>
      <path id="path16818" filter="url(#filter17805)" d="m93.579 382.01s10.201 20.1 16.791 23.7c6.6 3.6 19.8 12 27 11.4s16.2-2.1 26.09-6.3c9.9-4.2 12.6-6.3 15.9-5.7s10.5 9 19.19 9c8.7 0 17.18 6.47 27.6 3 11.7-3.9 23.39-11.4 24.89-16.8s9-13.8 9-13.8-11.1 12.6-26.69 17.7c-15.11 4.94-47.99-2.7-51.89-4.5s-1.5-6.9-14.1-1.5-42.59 8.1-50.39 3c-7.79-5.1-23.391-19.2-23.391-19.2z" fill="#700000" fill-rule="evenodd"/>
      <path id="path18784" opacity=".66923" d="m178.31 57.247c-4.6 4.366-5.82 10.592-6.9 16.416-1.19 5.308-0.65 10.892-2.69 16.036-1.83 4.919 0.17 10.135-1.31 15.091-0.98 3.78-1.91 7.64-1.52 11.56-0.98 5.09-4.83 9.53-3.62 14.99-0.18 5.11-1.36 5.85-1.95 10.9-2.83 4.83-4.86 2.4-9.37 4.09-0.97 0.01-10.03-0.7-10.88-0.17m3.56 0.42c5.58 1.38 14.97 5.26 18.06-0.57 5.06-8.01 2.15-17.91 4.49-26.67 2.65-4.95 3.54-10.5 3.47-16.11 1.12-6.263 2.06-12.581 2.29-18.928 0.97-6.33-0.59-12.952 1.87-19.045 0.91-4.092 2.35-8.045 5.52-10.834m-21.84 98.137c6.77-4.32 12.9-11.67 11.84-20.2-0.6-7.51-1.86-15.21 0.41-22.59 1.96-6.81 2.37-13.915 3.1-20.929 0.06-7.85 0.78-15.672 2.32-23.363 0.94-4.689 0.31-11.413 5.97-13.196 2.91-1.449 8.24 0.874 3.2 3.08-3.74 2.147-3.74 6.802-5.08 10.465-1.76 7.05-1.75 14.427-4.14 21.34-1.48 5.116-2.46 10.421-4.33 15.383-1.63 7.23-2 14.63-1.76 22.02-0.12 7.27 0.44 14.65-0.41 21.84-1.45 3.73-4.44 6.81-5 10.88m18.2-103.56c-4.51 8.434-6.32 18.013-7.09 27.463-0.4 5.248-0.61 10.497-0.63 15.766-0.45 6.323-3.27 12.183-4.12 18.463-2.58 11.38-1.3 23.06-1.71 34.61-0.1 4.12-2.21 6.8-1.67 11.01m16.97-104.34c-4.21 11.099-3.43 23.235-6.26 34.658-1.87 9.49-2.64 19.15-3.78 28.73-1.27 6.52-1.62 13.31 0.03 19.8 1.33 8.16-3.73 15.76-2.32 23.93 0.22 1.32 0.36 3.9 0.96 4.49m12.24-114.58c-6.64-0.973-7.79 7.599-6.76 12.4 1.73 13.965-0.59 27.927-2.14 41.782-0.43 5.84-0.52 11.92 1.67 17.44 1.74 6.52-1.93 12.66-1.74 19.15-0.08 5.02-1.07 11.47 1.27 15.76m3.5-3.5c-2.71-5.84-0.05-12.6-2.74-18.48-1.94-5.48-4.12-12.21-0.13-17.36 3.34-6.84 3.34-14.54 4.7-21.875 1.1-7.746 1.53-15.56 1.95-23.358 0.25-5.111-0.47-10.554 1.44-15.386 1.92-2.59 5.42-2.851 8.25-3.774m0.18 3.849c-5.17-1.3-11.79 0.815-13.31 6.395-2.17 5.302-1.37 11.366 1.33 16.311 1.15 5.002-1.31 9.898-1.39 14.911-0.99 5.467-2.12 10.977-1.49 16.557 0.47 6.56-1.1 13-0.76 19.53-0.35 6.57 1.24 13.47 6 18.13m9.79-89.036c-4.75 3.241-6.89 8.859-7.52 14.366-1.8 9.256-5.1 18.388-4.55 27.94-0.26 8.6-1.39 17.34 0.52 25.84-0.93 5.46 4.1 7.62 7.76 10.22 4.18 3.19 7.85 4.46 12.89 4.9m1.75-0.35c-5.61-0.78-10.98-2.98-14.48-7.79-4.19-3.63-9.25-7.33-9.74-13.36-0.81-5.31-0.08-10.68-0.71-16.02-0.61-10.005 2.92-19.531 4.61-29.257 1.15-4.948 1.48-10.07 1.68-15.044 2.33-5.017 8.6-4.473 13.21-4.739l0.7-0.204m-4.19 89.564c-4.21-3.64-9.68-5.61-13.76-9.18-3.87-4.16-2.34-10.05-4.22-14.93-1.32-5.34-4.85-10.32-3.91-16 1.08-5.49 5.09-9.799 6.65-15.151 1.6-4.692 1.85-9.679 2.98-14.488 1.37-6.417 0.73-13.088 2.24-19.447l0.45-0.848 0.64-0.745m1.75 93.239c-4.83-7.29-13.76-11.71-15.88-20.72-2.12-6.98-2.47-14.68-0.48-21.71 2.29-5.14 5.02-10.22 5.26-15.971 0.15-5.487 3.46-10.069 4.26-15.377 0.95-5.985-0.12-12.178 1.11-18.082 0.38-1.088 0.85-2.155 1.01-3.303m-32.29 94.633c4.18-3.96 13.08-5.5 14.62-11.6 3.25-8.56-0.56-18.15 3.36-26.59 0.86-2.36 1.89-4.66 2.94-6.94m2.27 58.78c-3.13-7.16-2.44-15.2-4.14-22.71-1.73-9.37-0.92-18.95-0.09-28.36 0.14-4.14 2.11-7.67 4.06-11.21m1.27-35.977c-1.52 5.424-3.06 10.946-2.38 16.641 0 9.342-5.51 17.746-5.2 27.136-0.44 5.83-0.54 11.71-2.25 17.34-1.29 7.84 1.6 16.09-1.2 23.7-0.39 0.89-0.9 1.75-1.56 2.47" filter="url(#filter20806)" stroke="#0a2400" stroke-width=".5" fill="none"/>
      <path id="path20830" opacity=".48077" style="color:#000000" d="m265.85 148.73l11.51 9.53c0 0.52 5.38 3.16 5.38 3.68 0 1.03 3.91 1.09 3.91 2.13 0 3.03 0.22 3.97 0.77 6.21 0.52 2.06 0 4.86 0 6.99v49.33c0 3.33-0.77 6.6-0.77 10.1 0 4.23-0.39 8.29-0.39 12.43 0 3.11-0.41 7.41-1.55 9.71-1.42 2.84-1.95 7.99-1.95 11.26 0 4.03-1.93 8.52-2.72 12.43-0.66 3.31-1.55 6.23-2.33 9.32-0.13 0.52-0.25 1.04-0.38 1.56-0.79 3.14-1.72 6.25-2.33 9.32-0.62 3.06-0.8 5.51-1.56 8.54-0.62 2.48-0.39 5.06-1.55 7.38-0.84 1.69-0.39 5.36-0.39 7.38 0 2.93 0.39 5.6 0.39 8.55 0 2.19 0.02 4.58-0.39 6.21-0.5 2.01-1.04 4.16-1.55 6.22-0.51 2.02-1.05 3.65-1.95 5.43-0.88 1.77-1.05 4.59-1.55 6.61-1.13 4.5-0.02-1.48 0.39-3.5 0.1-0.52 0.26-1.03 0.39-1.55 0.59-2.38 0.93-4.14 1.55-6.6 0.82-3.26 2.53-5.95 3.88-9.33 1.38-3.43 2.19-5.23 3.11-8.93 0.68-2.72 0.39-5.71 0.39-8.54v-8.55c0-3.29 1.29-6.07 1.94-9.32 0.56-2.81 2.43-5.43 3.11-8.16 0.83-3.32 1.64-7.34 2.33-10.1 0.72-2.88 1.69-5.18 2.72-7.77 1.27-3.17 2.68-6.85 3.49-10.09 0.82-3.25 0.78-6.29 0.78-9.71v-9.71c0-4.63 0.89-8.98 1.94-13.21 0.52-2.05 0.39-5.33 0.39-7.38v-6.21c0-1.84 0.39-3.8 0.39-5.83v-6.6c0-3.12 0.39-6.49 0.39-9.71v-31.85c0-2.65 0.09-5.35-0.39-7.77-0.37-1.88-4.08-4.09-5.44-5.44-1.53-1.54-12.2 2.85-13.34 1.33-0.49-0.66-7.97-5.27-8.62-5.79z" fill-rule="evenodd" filter="url(#filter11424)" fill="url(#linearGradient20884)"/>
    </g>
  </g>
  <metadata>
    <rdf:RDF>
      <cc:Work>
        <dc:format>image/svg+xml</dc:format>
        <dc:type rdf:resource="http://purl.org/dc/dcmitype/StillImage"/>
        <cc:license rdf:resource="http://creativecommons.org/licenses/publicdomain/"/>
        <dc:publisher>
          <cc:Agent rdf:about="http://openclipart.org/">
            <dc:title>Openclipart</dc:title>
          </cc:Agent>
        </dc:publisher>
        <dc:title>Pepper , red</dc:title>
        <dc:date>2007-08-13T13:45:39</dc:date>
        <dc:description>clip art, clipart, food, food, image, jpg, kitchen, kitchen, media, nature, nature, pepper, pepper, photorealistic, photorealistic, plant, plant, public domain, red, red, svg, vegetable, vegetable, </dc:description>
        <dc:source>http://openclipart.org/detail/4785/pepper--red-by-chrisdesign-4785</dc:source>
        <dc:creator>
          <cc:Agent>
            <dc:title>Chrisdesign</dc:title>
          </cc:Agent>
        </dc:creator>
        <dc:subject>
          <rdf:Bag>
            <rdf:li>clip art</rdf:li>
            <rdf:li>clipart</rdf:li>
            <rdf:li>food</rdf:li>
            <rdf:li>image</rdf:li>
            <rdf:li>jpg</rdf:li>
            <rdf:li>kitchen</rdf:li>
            <rdf:li>media</rdf:li>
            <rdf:li>nature</rdf:li>
            <rdf:li>pepper</rdf:li>
            <rdf:li>photorealistic</rdf:li>
            <rdf:li>plant</rdf:li>
            <rdf:li>public domain</rdf:li>
            <rdf:li>red</rdf:li>
            <rdf:li>svg</rdf:li>
            <rdf:li>vegetable</rdf:li>
          </rdf:Bag>
        </dc:subject>
      </cc:Work>
      <cc:License rdf:about="http://creativecommons.org/licenses/publicdomain/">
        <cc:permits rdf:resource="http://creativecommons.org/ns#Reproduction"/>
        <cc:permits rdf:resource="http://creativecommons.org/ns#Distribution"/>
        <cc:permits rdf:resource="http://creativecommons.org/ns#DerivativeWorks"/>
      </cc:License>
    </rdf:RDF>
  </metadata>
</svg>
