<svg xmlns="http://www.w3.org/2000/svg" xmlns:xlink="http://www.w3.org/1999/xlink" version="1.1" x="0px" y="0px" viewBox="0 0 100 125" style="enable-background:new 0 0 100 100;" xml:space="preserve"><g><path d="M36.4,59.4V32.2c0-1-0.8-1.7-1.7-1.7S33,31.2,33,32.2v7L28.7,35c-0.7-0.7-1.8-0.7-2.4,0s-0.7,1.8,0,2.4   l6.7,6.7V56l-8.7-8.7V19.6c0-1-0.8-1.7-1.7-1.7c-1,0-1.7,0.8-1.7,1.7V28l-7.5-7.5c-0.7-0.7-1.8-0.7-2.4,0c-0.7,0.7-0.7,1.8,0,2.4   l10,10v10.9l-6.4-6.4c-0.7-0.7-1.8-0.7-2.4,0s-0.7,1.8,0,2.4l9.3,9.3l18.5,18.5v12.7c0,1,0.8,1.7,1.7,1.7s1.7-0.8,1.7-1.7V67   c0-0.5-0.2-0.9-0.5-1.2L36.4,59.4z"/><path d="M89.2,22.9c0.7-0.7,0.7-1.8,0-2.4c-0.7-0.7-1.8-0.7-2.4,0L79.2,28v-8.5c0-1-0.8-1.7-1.7-1.7   c-1,0-1.7,0.8-1.7,1.7v27.7L67,56V44.1l6.7-6.7c0.7-0.7,0.7-1.8,0-2.4c-0.7-0.7-1.8-0.7-2.4,0L67,39.2v-7c0-1-0.8-1.7-1.7-1.7   c-1,0-1.7,0.8-1.7,1.7v27.2l-6.4,6.4c-0.3,0.3-0.5,0.8-0.5,1.2v13.5c0,1,0.8,1.7,1.7,1.7s1.7-0.8,1.7-1.7V67.7l18.5-18.5l9.3-9.3   c0.7-0.7,0.7-1.8,0-2.4c-0.7-0.7-1.8-0.7-2.4,0l-6.4,6.4V32.9L89.2,22.9z"/></g><text x="0" y="115" fill="#000000" font-size="5px" font-weight="bold" font-family="'Helvetica Neue', Helvetica, Arial-Unicode, Arial, Sans-serif">Created by Hector Valle</text><text x="0" y="120" fill="#000000" font-size="5px" font-weight="bold" font-family="'Helvetica Neue', Helvetica, Arial-Unicode, Arial, Sans-serif">from the Noun Project</text></svg>