<?xml version="1.0" encoding="utf-8"?>
<!-- Generator: Adobe Illustrator 25.0.0, SVG Export Plug-In . SVG Version: 6.00 Build 0)  -->
<svg version="1.1"
	 id="svg2" inkscape:version="0.48+devel r9935" sodipodi:docname="Documento nuevo 1" xmlns:cc="http://creativecommons.org/ns#" xmlns:dc="http://purl.org/dc/elements/1.1/" xmlns:inkscape="http://www.inkscape.org/namespaces/inkscape" xmlns:ns1="http://sozi.baierouge.fr" xmlns:rdf="http://www.w3.org/1999/02/22-rdf-syntax-ns#" xmlns:sodipodi="http://sodipodi.sourceforge.net/DTD/sodipodi-0.dtd" xmlns:svg="http://www.w3.org/2000/svg"
	 xmlns="http://www.w3.org/2000/svg" xmlns:xlink="http://www.w3.org/1999/xlink" x="0px" y="0px" viewBox="0 0 129.1 106"
	 style="enable-background:new 0 0 129.1 106;" xml:space="preserve">
<style type="text/css">
	.st0{opacity:0.88;fill:url(#SVGID_1_);}
	.st1{fill:url(#SVGID_2_);}
	.st2{opacity:0.29;fill:#CCB9A1;}
	.st3{fill:url(#SVGID_3_);}
	.st4{opacity:0.27;fill:#EDDBC5;}
	.st5{opacity:0.24;fill:#E0C69D;}
	.st6{opacity:0.2;fill:#E0C69D;}
	.st7{fill:url(#SVGID_4_);}
	.st8{opacity:0.24;fill:#E0C6A6;}
	.st9{fill:url(#SVGID_5_);}
	.st10{opacity:0.92;fill:url(#SVGID_6_);}
	.st11{opacity:0.88;fill:url(#SVGID_7_);}
	.st12{opacity:0.35;fill:#B08D60;}
	.st13{opacity:0.3;fill:#E5B591;}
	.st14{opacity:0.29;fill:#CCB497;}
	.st15{opacity:0.28;fill:#BFA180;}
	.st16{fill:#FFFFFF;}
	.st17{opacity:0.45;fill:#FCF1E2;}
	.st18{opacity:0.3;fill:#CCA280;}
	.st19{opacity:0.26;fill:#FCF1E2;}
	.st20{opacity:0.3;fill:#B5835E;}
	.st21{opacity:0.36;fill:#FCF1E2;}
	.st22{opacity:0.22;fill:#EDD2A9;}
</style>
<sodipodi:namedview  bordercolor="#666666" borderopacity="1.0" id="base" inkscape:current-layer="layer1" inkscape:cx="273.52498" inkscape:cy="614.84559" inkscape:document-units="px" inkscape:pageopacity="0.0" inkscape:pageshadow="2" inkscape:window-height="787" inkscape:window-maximized="0" inkscape:window-width="1440" inkscape:window-x="0" inkscape:window-y="0" inkscape:zoom="0.42014768" pagecolor="#ffffff" showgrid="false">
	</sodipodi:namedview>
<g>
	<linearGradient id="SVGID_1_" gradientUnits="userSpaceOnUse" x1="0.8052" y1="24.9876" x2="128.1914" y2="24.9876">
		<stop  offset="0" style="stop-color:#F2E9BC"/>
		<stop  offset="0.2465" style="stop-color:#EDE2B6"/>
		<stop  offset="0.5923" style="stop-color:#E0D0A6"/>
		<stop  offset="0.9955" style="stop-color:#C9B28B"/>
		<stop  offset="1" style="stop-color:#C9B28B"/>
	</linearGradient>
	<path class="st0" d="M64.4,17.8c32.5,0,58.9,6.4,58.9,14.2c0,0.1,0,0.1,0,0.2c0,0.1,0,0.2,0,0.3c0,0,0,0.1,0,0.1
		c1.6,0.3,3.2,1,4.8,1.4c0.1-0.3,0.1-0.6,0.1-1c0-0.4,0-0.8-0.1-1.2C125.9,22.5,98.2,16,64.4,16c-34,0-61.8,6.5-63.6,16
		c1.7-0.3,3.3-0.6,4.9-0.9C7.6,23.7,33.1,17.8,64.4,17.8z"/>
	<linearGradient id="SVGID_2_" gradientUnits="userSpaceOnUse" x1="5.5853" y1="32.019" x2="123.3005" y2="32.019">
		<stop  offset="0" style="stop-color:#E8D2B5"/>
		<stop  offset="1" style="stop-color:#E8DEBC"/>
	</linearGradient>
	<path class="st1" d="M64.4,17.8C31.9,17.8,5.6,24.2,5.6,32c0,0.1,0,0.1,0,0.2c0,0.1,0,0.2,0,0.3v0c0,0,0,0,0,0
		C5.8,33,6,33.5,6.2,34v0c4,6.9,28.6,12.2,58.3,12.2c29.4,0,53.8-5.2,58.2-12l0,0c0,0,0,0,0,0c0.2-0.6,0.4-1.1,0.6-1.6
		c0-0.1,0-0.2,0-0.3c0-0.1,0-0.1,0-0.2C123.3,24.2,97,17.8,64.4,17.8z"/>
	<path class="st2" d="M39,19.2C19.2,21.5,5.6,26.4,5.6,32c0,0.1,0,0.1,0,0.2c0,0.1,0,0.2,0,0.3v0c0,0,0,0,0,0C5.8,33,6,33.5,6.2,34
		v0c2.4,4.2,12.4,7.8,26.6,10C32.4,33.4,35.9,24.6,39,19.2z"/>
	<linearGradient id="SVGID_3_" gradientUnits="userSpaceOnUse" x1="46.0878" y1="20.6672" x2="86.6662" y2="69.0266">
		<stop  offset="0.1062" style="stop-color:#FFFBED"/>
		<stop  offset="0.7692" style="stop-color:#E3D3BB"/>
		<stop  offset="1" style="stop-color:#D8C4A8"/>
	</linearGradient>
	<path class="st3" d="M14.6,54.2c-1.3-3.3,2.4-10.1,6.2-12c3.8-1.8,10.7-9.1,12.3-10.7c1.6-1.6,8.5-3.8,11.6-5.4
		c3.1-1.6,12.9-6.9,14.3-9.2c1.4-2.4,2.4-4.9,6.2-6.3C69,9.1,74.4,6,75.3,4.2c0.9-1.8,4.5-4,6.2-4.2c1.6-0.2,4.7,0,4.9,1.8
		c0.2,1.8,2.2,2.2,2.7,3.1c0.5,0.9,1.8,3.8,2.9,4.2c1.1,0.4,3.8,1.8,5.6,4.5c1.8,2.7,4,6.3,6.3,7.2c2.4,0.9,3.6,1.8,5.1,4.7
		c1.4,2.9,3.8,6,5.6,6.7c1.8,0.7,4.2,3.1,2.9,6.3c-1.3,3.3,0.5,6.2-7.4,9.6c-8,3.4-58.7,6.3-61.2,6C46.3,53.8,15,55.1,14.6,54.2z"/>
	<path class="st4" d="M110.1,48.2c8-3.4,6.2-6.3,7.4-9.6c1.3-3.3-1.1-5.6-2.9-6.3c-1.8-0.7-4.2-3.8-5.6-6.7
		c-1.4-2.9-2.7-3.8-5.1-4.7c-2.4-0.9-4.5-4.5-6.3-7.2c-1.8-2.7-4.5-4.2-5.6-4.5c-1.1-0.4-2.4-3.3-2.9-4.2c-0.5-0.9-2.5-1.3-2.7-3.1
		c-0.1-1.3-1.7-1.7-3.1-1.8l-0.1,0.2c0.9,1.1,0.4,2.9-0.4,4c-0.9,1.2-2.1,2.2-2.5,3.5c-0.3,0.8-0.3,1.7-0.4,2.6
		c-0.3,3.6-2,6.8-3,10.3c-1,3.9-1.1,8-2.6,11.7c-1,2.4-2.5,4.5-4,6.6c-0.9,1.3-1.7,2.6-2.1,4c-0.3,1.1-0.2,2.2-0.3,3.3
		c-0.1,2.4-0.5,4.7-1.2,7C82.9,52.4,105,50.4,110.1,48.2z"/>
	<path class="st5" d="M57.7,27.5c-1.1,0.1-8.3,1.9,0.6,2c0.1,0,1.5,1.1-2.7,3.5c-2,1.1-3.7,5.5-5.1,7.2c-1.9,2.4-5.6,1.8-8.3,2.6
		c-2,0.6-11.5,4.5-5.7,7.3c5.3,2.5,17.7-1.3,22.7-3.5c5.8-2.6,5.1-5.5,5.1-11.4C64.3,31.6,63.7,27.1,57.7,27.5z"/>
	<path class="st6" d="M55.3,28.6c-0.2,0-0.2,0.4,0,0.4c0.3,0,2.2,0.1,2.4,0.4c0.8,0.9,0.1,3-0.5,3.6c-1,1.1-2.3,1.7-3.2,2.9
		c-1.4,1.7-2.3,3.6-4,5c-1.7,1.3-3.7,1.9-5.4,3.1c-2.2,0.8-4.2,3-3,5.1c1.7,2.9,5.3-0.8,7.4-2.5c5-1.3,8.5-7.8,10.6-12.4
		c0.1-0.1,0.3-0.2,0.4-0.4C63,30,58.6,28,55.3,28.6z"/>
	<linearGradient id="SVGID_4_" gradientUnits="userSpaceOnUse" x1="11.5895" y1="74.7901" x2="116.6468" y2="74.7901">
		<stop  offset="9.540150e-02" style="stop-color:#F4EDCE"/>
		<stop  offset="0.8867" style="stop-color:#DAC09C"/>
		<stop  offset="1" style="stop-color:#D6B994"/>
	</linearGradient>
	<path class="st7" d="M116.6,49.7c-6.9,16.7-15.9,38-17.2,40.9c-2.4,5.5-15.8,9.3-35.2,9.3c-19.5,0-32.6-4-35.2-9.3
		c-1.4-2.8-10.6-24.4-17.4-41c11.7,4.7,30.9,7.8,52.6,7.8C85.8,57.4,104.9,54.4,116.6,49.7z"/>
	<path class="st8" d="M117.5,38.6c1.3-3.3-1.1-5.6-2.9-6.3c-1.8-0.7-4.2-3.8-5.6-6.7c-1.4-2.9-2.7-3.8-5.1-4.7
		c-2.4-0.9-4.5-4.5-6.3-7.2c-1.8-2.7-4.5-4.2-5.6-4.5c-1.1-0.4-2.4-3.3-2.9-4.2c-0.5-0.9-2.5-1.3-2.7-3.1c-0.1-1-1.1-1.5-2.3-1.7
		L84,0.4c1.4-0.3,2.2,1.4,2.5,2.8c0.7,2.7,1.4,5.4,2.1,8.1c0.4,1.6,0.8,3.3,0.8,5c-0.1,1.6-0.6,3.2-0.2,4.7c0.4,1.4,1.3,2.4,2.1,3.6
		c1.6,2.6,1.9,5.7,2.8,8.6c1.6,5.2,5.4,10.2,4.4,15.6l11.6-0.7c0,0,0,0,0.1,0C118,44.8,116.2,41.9,117.5,38.6z"/>
	
		<radialGradient id="SVGID_5_" cx="46.2912" cy="942.8556" r="59.4194" fx="9.0124" fy="962.7061" gradientTransform="matrix(0.9493 0 0 0.857 12.5379 -748.444)" gradientUnits="userSpaceOnUse">
		<stop  offset="0" style="stop-color:#E8DEBC"/>
		<stop  offset="0.2664" style="stop-color:#E5D9B7"/>
		<stop  offset="0.595" style="stop-color:#DBCAA8"/>
		<stop  offset="0.9551" style="stop-color:#CBB28F"/>
		<stop  offset="1" style="stop-color:#C9AE8B"/>
	</radialGradient>
	<path class="st9" d="M123.2,46.3c-7.4,17-19.9,45.3-21.5,48.7c0,6.1-16.6,11-37.2,11h-0.1c-20.5,0-37.2-4.9-37.2-11
		c-1.7-3.2-14.7-32.3-21.8-48.8c1.8,1.3,4.2,2.5,7,3.7c6.7,16.6,16.7,38.2,18,41c2.7,5.4,14.7,9.3,34,9.3c19.2,0,31.6-3.8,34-9.3
		c1.3-2.9,11-24.2,17.8-40.9C119,48.8,121.3,47.6,123.2,46.3z"/>
	<linearGradient id="SVGID_6_" gradientUnits="userSpaceOnUse" x1="0" y1="44.7387" x2="129.103" y2="44.7387">
		<stop  offset="0" style="stop-color:#F2E8C6"/>
		<stop  offset="0.2057" style="stop-color:#ECE0BD"/>
		<stop  offset="0.5381" style="stop-color:#DACBA5"/>
		<stop  offset="0.9538" style="stop-color:#BEA87F"/>
		<stop  offset="1" style="stop-color:#BAA47A"/>
	</linearGradient>
	<path class="st10" d="M128,31.8c0.1,0.4,0.1,0.8,0.1,1.2c0,1-0.3,2.1-0.9,3.1c-1.3,2.2-4,4.3-7.9,6.1c-11.1,5.3-31.5,8.9-54.9,8.9
		c-23.5,0-44.1-3.6-55.1-9v0c-3.8-1.8-6.4-3.9-7.7-6c-0.6-1-0.9-2-0.9-3.1c0-0.3,0-0.6,0.1-0.9C0,34-0.4,36.8,0.7,39.7c0,0,0,0,0,0
		C1,42,2.6,44.2,5.5,46.2c1.8,1.3,4.2,2.5,7,3.7c11.6,4.7,30.5,7.8,52,7.8c21.3,0,40.2-3,51.8-7.7c2.8-1.1,5.1-2.3,7-3.6
		c2.6-1.8,4.2-3.6,4.8-5.6v0c0.2-0.3,0.3-0.6,0.4-1C129.7,36.1,129,33.5,128,31.8z"/>
	<linearGradient id="SVGID_7_" gradientUnits="userSpaceOnUse" x1="0.7027" y1="41.1386" x2="128.091" y2="41.1386">
		<stop  offset="0" style="stop-color:#F2E9BC"/>
		<stop  offset="0.2465" style="stop-color:#EDE2B6"/>
		<stop  offset="0.5923" style="stop-color:#E0D0A6"/>
		<stop  offset="0.9955" style="stop-color:#C9B28B"/>
		<stop  offset="1" style="stop-color:#C9B28B"/>
	</linearGradient>
	<path class="st11" d="M123.2,32.6c-0.1,0.5-0.3,1.1-0.6,1.6c0,0,0,0,0,0l0,0c-4.4,6.8-28.8,12-58.2,12c-29.7,0-54.3-5.3-58.3-12.2
		v0c-0.3-0.5-0.5-0.9-0.5-1.4c0,0,0,0,0,0v0c0-0.1,0-0.2,0-0.3c0-0.1,0-0.1,0-0.2c0-0.3,0-0.6,0.1-0.9c-1.6,0.2-3.2,0.5-4.9,0.9
		c0,0,0,0,0,0.1v0c-0.1,0.3-0.1,0.6-0.1,0.9c0,1,0.3,2.1,0.9,3.1c1.3,2.2,3.9,4.2,7.7,6v0c11,5.4,31.6,9,55.1,9
		c23.4,0,43.8-3.6,54.9-8.9c3.9-1.9,6.6-3.9,7.9-6.1c0.4-0.7,0.7-1.4,0.8-2.1C126.4,33.6,124.8,32.9,123.2,32.6z"/>
	<path class="st12" d="M6.7,48.8c2.1,1.6,4.7,2.7,7.2,3.7c3.4,1.4,6.9,2.6,10.4,3.7c8.2,2.5,16.7,3.8,25.2,4.7
		c17.4,1.7,35.1,1.8,52.4-1.3c4.8-0.9,9.5-2.1,14.2-3.6c1-0.3,2.1-0.7,3.1-1.2c0.9-0.4,1.2-1.8,1.6-2.7c0.9-2,1.7-3.9,2.5-5.8
		c-5.2,3.6-11.6,5.5-17.7,6.9c-7.6,1.9-15.5,3-23.3,3.6c-17.5,1.5-35.4,1-52.7-2.3c-8.2-1.6-17.1-3.6-24.1-8.4
		C5.7,46.8,6.1,48.3,6.7,48.8C10.3,51.6,6.6,48.7,6.7,48.8z"/>
	<path class="st13" d="M128,40.7c0.2-0.3,0.3-0.6,0.4-1c1.3-3.6,0.6-6.2-0.3-7.9c0.1,0.4,0.1,0.8,0.1,1.2c0,1-0.3,2.1-0.9,3.1
		c-1.3,2.2-4,4.3-7.9,6.1c-8.1,3.9-21.2,6.9-36.8,8.2c0.1,2-0.1,4.3-0.3,6.5c13.8-1.2,25.7-3.7,33.9-7c2.8-1.1,5.1-2.3,7-3.6
		C125.7,44.6,127.4,42.7,128,40.7L128,40.7z"/>
	<path class="st14" d="M116.2,49.9C116.2,49.9,116.2,50,116.2,49.9c-11.1,4.3-28.4,7.2-48,7.5c0.4,8.8-0.9,37.1-9.2,48.5
		c1.8,0.1,3.6,0.1,5.4,0.1h0.1c20.5,0,37.2-4.9,37.2-11c1.6-3.4,14.1-31.7,21.5-48.7C121.3,47.6,119,48.8,116.2,49.9z"/>
	<path class="st15" d="M116.2,49.9C116.2,49.9,116.2,50,116.2,49.9c-5.1,2-11.5,3.7-18.8,4.9c-1,7.2-5.6,38.9-11.8,49.2
		c9.6-2,16-5.3,16-9c1.6-3.4,14.1-31.7,21.5-48.7C121.3,47.6,119,48.8,116.2,49.9z"/>
	<path class="st16" d="M58.2,30.6c0.1,0.5-0.3,1-0.7,1.2s-1,0.3-1.4,0.5c-1.2,0.5-1.9,1.7-2.6,2.7c-2.2,3.1-5.6,5.2-9.2,6.5
		c-3.6,1.2-7.4,1.6-11.2,1.8c-0.6,0-1.2,0-1.6-0.3c-0.8-0.5-0.8-1.7-0.4-2.6c0.9-2.5,3.4-4,5.6-5.3c1.9-1.1,3.9-2.2,5.8-3.3
		c1.5-0.9,3-1.7,4.7-2.2c3.1-0.9,6.5-0.3,9.7,0.3C57.4,29.9,58,30.1,58.2,30.6z"/>
	<path class="st16" d="M82,1.9c-0.8-0.7-2-0.5-2.9,0.1c-0.9,0.6-1.5,1.4-2.2,2.2c-3.2,3.4-8.2,4.7-11.4,8.2
		c-1.1,1.2-1.9,2.6-2.9,3.7c-3.3,3.7-8.6,5.1-11.6,9c3.2,1,6.8-1.1,10-0.1c1.4,0.5,2.7,1.5,4.2,1.6c2.2,0,3.7-2.1,4.8-3.9
		C74.2,15.8,78.2,8.9,82,1.9z"/>
	<path class="st17" d="M41.6,56.4c-0.1-1.9-0.5-4.1-0.7-6.6c-13.3-1.5-24.5-4.3-31.6-7.7v0c-2.6-1.2-4.6-2.6-6.1-4
		c0.2,2.9,0.9,5.5,1.7,7.7c0.2,0.1,0.3,0.2,0.5,0.4c1.8,1.3,4.2,2.5,7,3.7C19.7,52.8,29.8,55.1,41.6,56.4z"/>
	<path class="st18" d="M128.2,33c0,1-0.3,2.1-0.9,3.1c-1.3,2.2-4,4.3-7.9,6.1c-1.8,0.9-3.9,1.7-6.2,2.5c-0.2,2.2-0.7,4.6-1.5,6.9
		c1.6-0.5,3.1-1.1,4.5-1.6c2.8-1.1,5.1-2.3,7-3.6c2.6-1.8,4.2-3.6,4.8-5.6v0c0.2-0.3,0.3-0.6,0.4-1c1.3-3.6,0.6-6.2-0.3-7.9
		C128.1,32.2,128.2,32.6,128.2,33z"/>
	<path class="st19" d="M64.4,51.1c1.4,0,2.7,0,4.1,0c3.1-1.8,5.6-3.5,7.5-5.1c-3.8,0.2-7.6,0.3-11.6,0.3c-13.5,0-27.5-1.3-40.8-4
		c-5.2-1.1-14-3.7-17-7.7c-4.2-5.5,6.6-9.7,10.6-11c12.5-4,26.1-5.1,39.1-5.6c-1.8-0.6-3.6-1.1-5.3-1.6c-11.6,0.6-23.5,1.9-34.7,5.3
		c-5.4,1.6-19.8,6.1-14.7,14.5c1.3,2.2,3.9,4.2,7.7,6C20.3,47.5,40.9,51.1,64.4,51.1z"/>
	<path class="st12" d="M116.2,49.9c-11.6,4.7-30.5,7.7-51.8,7.7c-21.5,0-40.5-3.1-52-7.8c-2.8-1.1-5.1-2.4-7-3.7c0,0,0,0,0,0
		c0.3,0.7,0.7,1.5,1,2.3c1.7,1,3.7,2,6,2.9c11.6,4.6,30.7,7.6,52.2,7.8c21.4,0.1,40.4-2.6,52.1-7c1.8-0.7,3.3-1.4,4.7-2.1
		c0.6-1.3,1.1-2.5,1.7-3.7C121.3,47.6,119,48.8,116.2,49.9z"/>
	<path class="st20" d="M116.2,49.9c-2.5,6.1-5.4,12.8-8.1,19c-2.8,11.5-9.4,27.4-12.7,29c-3.6,1.7-10.4,6.1-36.5,5.7
		c-17.9-0.3-27.1-3.7-31.3-6.9c2.8,5.3,18.1,9.3,36.7,9.3h0.1c20.5,0,37.2-4.9,37.2-11c1.6-3.4,14.1-31.7,21.5-48.7
		C121.3,47.6,119,48.8,116.2,49.9z"/>
	<path class="st21" d="M11.3,53c0,0,7.2,4.7,19.5,7s27.1,3,26.9,3.8c-0.2,0.8-1.5,21.4-3,26.3c-1.5,4.9-1.5,12.7-10.6,10.8
		C35.1,99,30.6,97.1,25.3,86C19,72.9,11.3,53,11.3,53z"/>
	<path class="st16" d="M71.5,51c-2.3,0.1-4.7,0.1-7.1,0.1c-23.5,0-44.1-3.6-55.1-9v0c-3.8-1.8-6.4-3.9-7.7-6c-0.6-1-0.9-2-0.9-3.1
		c0-0.3,0-0.6,0.1-0.9c-0.6,1.4-1,3.3-0.7,5.3c1.5,2.3,3.9,4.6,7.7,6.4C17.6,48.6,40.8,54.4,71.5,51z"/>
	<path class="st22" d="M123.2,46.3c-1.8,1.2-4,2.4-6.6,3.4c0,0,0,0,0,0c-11.7,4.7-30.8,7.7-52.4,7.7c-21.2,0-40-2.9-51.7-7.5
		c0,0,0-0.1-0.1-0.1c-2.8-1.1-5.1-2.4-7-3.7C7,49.8,8.8,54,10.7,58.4c17.3,9.4,65.4,24.1,101.4,13.2
		C115.8,63.2,119.5,54.8,123.2,46.3z"/>
</g>
</svg>
