<?xml version="1.0" encoding="utf-8"?>
<!-- Generator: Adobe Illustrator 25.0.0, SVG Export Plug-In . SVG Version: 6.00 Build 0)  -->
<svg version="1.1"
	 id="svg2" inkscape:version="0.48+devel r9935" sodipodi:docname="Documento nuevo 1" xmlns:cc="http://creativecommons.org/ns#" xmlns:dc="http://purl.org/dc/elements/1.1/" xmlns:inkscape="http://www.inkscape.org/namespaces/inkscape" xmlns:ns1="http://sozi.baierouge.fr" xmlns:rdf="http://www.w3.org/1999/02/22-rdf-syntax-ns#" xmlns:sodipodi="http://sodipodi.sourceforge.net/DTD/sodipodi-0.dtd" xmlns:svg="http://www.w3.org/2000/svg"
	 xmlns="http://www.w3.org/2000/svg" xmlns:xlink="http://www.w3.org/1999/xlink" x="0px" y="0px" viewBox="0 0 174.2 95"
	 style="enable-background:new 0 0 174.2 95;" xml:space="preserve">
<style type="text/css">
	.st0{fill:#DDC8E6;}
	.st1{fill:url(#SVGID_1_);}
	.st2{fill:url(#SVGID_2_);}
	.st3{fill:url(#SVGID_3_);}
	.st4{fill:url(#SVGID_4_);}
	.st5{opacity:0.7;fill:#9B9FAB;}
	.st6{fill:url(#SVGID_5_);}
	.st7{opacity:0.36;fill:#C27142;}
	.st8{opacity:0.42;fill:#946035;}
	.st9{opacity:0.42;fill:#A6652E;}
	.st10{opacity:0.42;fill:#EDC69A;}
	.st11{fill:url(#SVGID_6_);}
	.st12{fill:url(#SVGID_7_);}
	.st13{opacity:0.36;fill:#C29E74;}
	.st14{opacity:0.36;fill:#DBBB97;}
	.st15{fill:url(#SVGID_8_);}
	.st16{opacity:0.23;fill:#B9BEC4;}
	.st17{opacity:0.27;fill:#6A707A;}
	.st18{opacity:0.23;fill:#A0AAB8;}
	.st19{fill:url(#SVGID_9_);}
	.st20{opacity:0.24;fill:#AFB4B8;}
	.st21{fill:#FFFFFF;}
	.st22{opacity:0.45;fill:#D2AA7E;}
</style>
<sodipodi:namedview  bordercolor="#666666" borderopacity="1.0" id="base" inkscape:current-layer="layer1" inkscape:cx="273.52498" inkscape:cy="614.84559" inkscape:document-units="px" inkscape:pageopacity="0.0" inkscape:pageshadow="2" inkscape:window-height="787" inkscape:window-maximized="0" inkscape:window-width="1440" inkscape:window-x="0" inkscape:window-y="0" inkscape:zoom="0.42014768" pagecolor="#ffffff" showgrid="false">
	</sodipodi:namedview>
<g>
	<path class="st0" d="M114.2,54.5l12.3,7.7c-4.9,1.9-11.2,4.5-17.7,7.2l-11.9-8.2C101.1,59.6,107.5,57.2,114.2,54.5z"/>
	<path class="st0" d="M85.3,53.1l11.6,8c-1,0.4-2,0.7-2.7,0.9c-3.5,1.1-9.4,3.2-15.8,5.7l-11.9-8.3C74,56.9,81.1,54.6,85.3,53.1
		C85.2,53.1,85.3,53.1,85.3,53.1z"/>
	<path class="st0" d="M55.8,52.1l10.7,7.4c-6.6,2.2-13.5,4.6-19.3,6.7l-10.3-7.7C42.6,56.5,49.4,54.2,55.8,52.1z"/>
	<path class="st0" d="M43.8,43.7l12,8.4c-6.4,2.2-13.2,4.5-18.9,6.5L25,49.7C30.4,47.8,37.1,45.7,43.8,43.7z"/>
	<path class="st0" d="M129.7,48.2l13.1,8.1c-4.1,1.5-8.2,2.9-11.5,4.1c-1.3,0.5-2.9,1.1-4.8,1.8l-12.3-7.7
		C119.4,52.4,124.8,50.2,129.7,48.2z"/>
	<linearGradient id="SVGID_1_" gradientUnits="userSpaceOnUse" x1="0" y1="64.0879" x2="174.2077" y2="64.0879">
		<stop  offset="0" style="stop-color:#F23424"/>
		<stop  offset="1" style="stop-color:#B8021D"/>
	</linearGradient>
	<path class="st1" d="M13.3,40.5l11.1,6.8c-6.5,1.8-11.1,3.3-11.8,3.9c-1.3,1.1-1.6,3.6-1.7,5.2C6.4,53.6,3,51.5,2.3,51
		c-1.7-1.2-3.4-4.6-1.2-6.5C1.8,43.9,6.6,42.4,13.3,40.5z M22.6,59.1c-0.6,0.6-0.6,2.8-0.4,4.4c3.6,2.3,7.1,4.5,10,6.3
		c0.1,0,0.1,0.1,0.1,0.1c-0.3-1.5-0.2-3.4,1.1-4.3c0.8-0.6,6.2-2.3,13.4-4.4l-10.4-6.4C28.7,56.9,22.9,58.7,22.6,59.1z M174.2,55
		c0,0-6.2-3.4-13.6-7.3c-3.6,1-10.5,3.1-17.3,5.1l14.9,7.6c2.9-1,5.7-1.9,8-2.7C171,56.1,174.2,55,174.2,55z M142.1,65.7l-15.3-7.9
		c-4.9,1.6-11.3,3.7-17.9,6l13.6,7.8c1.7-0.5,3-0.8,3.7-0.9c1.3-0.3,5.1-1.4,10-3C138.1,67,140.1,66.3,142.1,65.7z M94.2,57.7
		c-3.5,0.9-9.5,2.7-16,4.7L91,69.7c5.3-1.7,11.7-3.9,17.9-6l-12-6.8C95.9,57.2,95,57.4,94.2,57.7z M46.7,61.1l12.1,7.5
		c5.9-2,12.9-4.2,19.4-6.2l-12-6.9C59.6,57.3,52.6,59.4,46.7,61.1z M45.6,73.6c-1.3,1-1.2,3.2-0.8,4.9c4.4,3.1,9.3,6.4,13.8,9.3
		c-0.2-2.8,0.3-6,0.7-6.7c0.3-0.4,4.2-2.3,9-4.2c0.8-0.3,1.6-0.6,2.5-0.9l-11.9-7.3C51.8,70.9,46.4,72.9,45.6,73.6z M103.6,76.9
		L91,69.7c-4.9,1.6-8.8,2.8-11,3.3c-2.8,0.6-6.1,1.7-9.3,2.9l12,7.4l0.2,0.3c4.2-1.5,9.9-3.3,15.8-5.2
		C100.3,77.9,102,77.4,103.6,76.9z"/>
	<linearGradient id="SVGID_2_" gradientUnits="userSpaceOnUse" x1="166.069" y1="56.1996" x2="83.0041" y2="88.6204">
		<stop  offset="9.380001e-03" style="stop-color:#ABAEB6"/>
		<stop  offset="1" style="stop-color:#81848E"/>
	</linearGradient>
	<path class="st2" d="M158.2,60.4c2.9-1,5.7-1.9,8-2.7l4,2c0,0-6.5,2.1-15,4.7l-3.3-2C154.1,61.7,156.2,61,158.2,60.4z M117.8,72.8
		l5.3,2.9c5.7-2.2,11.5-4.4,16.5-6.2l-3.3-1.9c-5,1.6-8.8,2.7-10,3c-0.7,0.1-1.9,0.5-3.7,0.9C121.2,71.8,119.6,72.3,117.8,72.8z
		 M82.9,83.6c-0.9,0.3-1.7,0.6-2.5,0.9l7.7,4.9c4.2-1.8,8.7-3.6,12.7-5.1c1.5-0.6,3.2-1.2,4.9-1.9l-7.1-4
		C92.8,80.2,87.1,82.1,82.9,83.6z"/>
	<linearGradient id="SVGID_3_" gradientUnits="userSpaceOnUse" x1="70.2199" y1="78.7153" x2="155.3107" y2="78.7153">
		<stop  offset="0" style="stop-color:#8B121C"/>
		<stop  offset="1" style="stop-color:#83001D"/>
	</linearGradient>
	<path class="st3" d="M142.1,65.7c3.2-1,6.6-2.1,9.9-3.3l3.3,2c-2.8,0.9-5.7,1.8-8.7,2.7c-2.1,0.7-4.4,1.5-7,2.4l-3.3-1.9
		C138.1,67,140.1,66.3,142.1,65.7z M98.7,78.4l7.1,4c5.1-2,11.2-4.4,17.3-6.7l-5.3-2.9c-4,1.1-9,2.6-14.2,4.1
		C102,77.4,100.3,77.9,98.7,78.4z M80.4,84.5c-1.6,0.6-2.8,1.1-3.6,1.6c-5.6,3.1-7.5,6.3-6.3,8.2c0.1,0.2,0.3,0.4,0.4,0.5
		c1.3,1.2,8.8-1.9,17.2-5.4L80.4,84.5z"/>
	<linearGradient id="SVGID_4_" gradientUnits="userSpaceOnUse" x1="10.8399" y1="64.9183" x2="160.58" y2="64.9183">
		<stop  offset="0" style="stop-color:#FAFBFF"/>
		<stop  offset="0.8607" style="stop-color:#C8CAD6"/>
		<stop  offset="1" style="stop-color:#BFC2CF"/>
	</linearGradient>
	<path class="st4" d="M31.6,35.6l11.7,6.7c-6.7,1.6-13.5,3.4-18.9,5l-11.1-6.8C18.5,39,25,37.3,31.6,35.6z M12.5,51.2
		c-1.3,1.1-1.6,3.6-1.7,5.2c3.4,2.1,7.4,4.6,11.3,7c-0.1-1.6-0.2-3.7,0.4-4.4c0.4-0.4,6.1-2.1,13.8-4.4l-12-7.4
		C17.9,49.1,13.2,50.6,12.5,51.2z M130.1,46.1l13.2,6.7c6.8-2,13.6-4,17.3-5.1c-4.7-2.5-9.9-5.1-14.2-7.2
		C143.9,41.4,137.6,43.5,130.1,46.1z M158.2,60.4l-14.9-7.6c-4.1,1.2-8.3,2.4-11.7,3.4c-1.3,0.4-3,0.9-4.8,1.5l15.3,7.9
		c3.2-1,6.6-2.1,9.9-3.3C154.1,61.7,156.2,61,158.2,60.4z M122.6,71.5L109,63.7c-6.3,2.1-12.6,4.3-17.9,6l12.6,7.2
		c5.1-1.5,10.1-3,14.2-4.1C119.6,72.3,121.2,71.8,122.6,71.5z M58.9,68.6l11.9,7.3c3.2-1.2,6.5-2.3,9.3-2.9c2.1-0.5,6.1-1.7,11-3.3
		l-12.8-7.3C71.8,64.3,64.8,66.6,58.9,68.6z M33.3,65.5c-1.3,0.9-1.4,2.8-1.1,4.3c2.8,1.8,7.4,5,12.5,8.6c-0.3-1.7-0.4-3.8,0.8-4.9
		c0.8-0.7,6.3-2.7,13.3-5l-12.1-7.5C39.6,63.2,34.1,64.9,33.3,65.5z M82.7,83.2l-12-7.4c-0.8,0.3-1.7,0.6-2.5,0.9
		c-4.8,1.9-8.8,3.8-9,4.2c-0.4,0.7-1,3.9-0.7,6.7c4.7,3,9.1,5.5,12.1,6.5c-1.2-1.9,0.7-5,6.3-8.2c0.7-0.4,2-0.9,3.6-1.6
		c0.7-0.3,1.6-0.6,2.5-0.9L82.7,83.2z"/>
	<ellipse class="st5" cx="94.7" cy="56.7" rx="63.9" ry="17.3"/>
	<ellipse class="st5" cx="90" cy="56" rx="59.3" ry="16.6"/>
	<linearGradient id="SVGID_5_" gradientUnits="userSpaceOnUse" x1="19.286" y1="45.3529" x2="149.6227" y2="45.3529">
		<stop  offset="5.376340e-03" style="stop-color:#C78D4C"/>
		<stop  offset="0.2699" style="stop-color:#BB7E40"/>
		<stop  offset="0.7731" style="stop-color:#9A5821"/>
		<stop  offset="1" style="stop-color:#8A4511"/>
	</linearGradient>
	<path class="st6" d="M149.6,36.8c-0.2-11.3-29.2-17.9-65.1-17.9s-64.2,6.6-65.1,17.9c-0.4,4.5,2.2,11.9,4.6,15.3
		c6.5,8.8,27.1,19.7,60.5,19.7s54.9-10.4,60.5-19.7C146.3,49.9,149.7,42.2,149.6,36.8z"/>
	<path class="st7" d="M87.6,54.9c0.6,0.2,1.3,0.3,1.9,0.4c-1.2,0.3-2.4,0.7-3.6,1.1c-4.4,1.7-8.8,3.5-13.1,5.5
		c-5.7,2.7-11.5,5.7-17.7,6.7c-12.2-2.9-21.2-7.4-26.7-12c-2.8-4.3-4.5-9.4-5.8-14.5c-0.1-0.3,0.1-0.6,0.3-0.7
		c0.6,0.5,1.2,1,1.9,1.5c1.5,2.2,2.3,4.8,3.4,7.4c1.7,4.1,4.1,7.1,7.6,9.6c6.6,4.8,14.2,6.5,22,4.3c6.8-1.9,13.1-5.6,19.6-8.4
		c0.5-0.2,0.9-0.4,1.4-0.6c2.1,0,4.2-0.1,6.2-0.4C85.8,54.9,86.7,54.9,87.6,54.9z M32.2,45.8C32.2,45.8,32.2,45.8,32.2,45.8
		c-0.7-0.1-1.3-0.3-1.8-0.5c-0.5-0.1-0.9-0.3-1.4-0.4c1.8,7.6,6.9,12.6,11.7,14.7c6.9,3.1,15.9,0.5,22.7-1.9c1.1-0.4,1-3,0-3.4
		C58,52,52,56.2,46.5,56.1C40.6,56.1,36,52.1,32.2,45.8z M128.5,59.4c-4,0.1-8,1.2-11.8,2.5c-3.4,1.2-6.5,2.9-9.6,4.8
		c-2.2,1.4-4.9,2.6-7.2,4.3c3.3-0.3,6.4-0.8,9.3-1.3c2.5-1.4,5-2.8,7.7-3.8c3.9-1.5,8.2-2.8,12.3-2.9c0.6,0,1.2,0,1.8,0.1
		c1.9-0.9,3.6-1.8,5.1-2.7C133.6,59.7,131,59.3,128.5,59.4z M132.8,52.6c-6.7-0.1-13.4,1-19.9,3.1c-11.4,3.6-22.1,9.1-31.9,16.1
		c1.1,0,2.3,0,3.5,0c1.3,0,2.6,0,3.9-0.1c1.1-0.7,2.2-1.4,3.2-2c6.3-3.4,13-6.5,19.7-8.8c6.2-2.2,12.7-3.6,19.2-3.8
		c3-0.1,6.1,0,9.1,0.6c1.5-1.2,2.8-2.4,3.9-3.7c-0.5-0.2-1-0.3-1.5-0.4C139,52.9,135.9,52.6,132.8,52.6z M135.5,46.9
		c-2.4,1-4.9,1.7-7.5,2.3c-6.1,1.9-12.4,3.2-18.7,4.3c-3.6,0.6-8.3,1.6-12.9,1.9c-5.4,2-10.7,4.3-15.9,6.8c-4,1.9-8,3.7-11.9,5.8
		c-1.5,0.8-2.9,1.6-4.4,2.3c2.3,0.4,4.7,0.6,7.2,0.9c1-0.5,1.9-1,2.8-1.4c8.7-4,17.1-8.4,26.1-11.6c7.8-2.8,15.8-4.9,24-6.5
		c6.8-1.3,14.5-2.8,21.5-1.2c0.4-0.8,0.9-1.9,1.3-3C143.4,46.7,139.4,46.6,135.5,46.9z"/>
	<path class="st8" d="M145,52.1c1.3-2.2,4.7-9.9,4.6-15.3c-0.1-7-11.4-12.3-28.6-15.2L98.4,54.9c-1.4,6.2-15.4,22.3-62,6.9
		c10.6,5.5,26.7,10,48.1,10C117.9,71.8,139.4,61.4,145,52.1z"/>
	<path class="st9" d="M145,52.1c1.3-2.2,4.7-9.9,4.6-15.3c-0.1-5.3-6.5-9.5-16.9-12.6c-4.3,6.2-8.7,11.5-10.3,12
		c-3.9,1.3,1.8,12,2.1,16.7c0.3,4.7-13.2,17.8-42.6,17.1c-14.7-0.3-27-2.1-36.6-4.4c10,3.6,23.1,6.1,39.1,6.1
		C117.9,71.8,139.4,61.4,145,52.1z"/>
	<path class="st10" d="M80.9,55.9c-2.3,5.7-12,12-37.7,6c-25.7-6-23.1-27.4-23.1-27.4L80.9,55.9z"/>
	<linearGradient id="SVGID_6_" gradientUnits="userSpaceOnUse" x1="19.3309" y1="26.6538" x2="149.6203" y2="26.6538">
		<stop  offset="0" style="stop-color:#D2A16A"/>
		<stop  offset="0.3374" style="stop-color:#C7925C"/>
		<stop  offset="0.98" style="stop-color:#AC6C38"/>
		<stop  offset="1" style="stop-color:#AB6B37"/>
	</linearGradient>
	<path class="st11" d="M84.5,19.7c32.8,0,59.5,7.2,59.7,16.1c1.8-0.1,3.6,0.6,5.4,1.2c0-0.1,0-0.1,0-0.2c0-11.3-29.2-20.5-65.1-20.5
		c-35.9,0-65,9.1-65.1,20.4c2-0.3,3.7-1,5.5-1.4C26.1,26.6,52.3,19.7,84.5,19.7z"/>
	<linearGradient id="SVGID_7_" gradientUnits="userSpaceOnUse" x1="24.7231" y1="35.9548" x2="144.2235" y2="35.9548">
		<stop  offset="0" style="stop-color:#AB6630"/>
		<stop  offset="1" style="stop-color:#BD8B53"/>
	</linearGradient>
	<ellipse class="st12" cx="84.5" cy="36" rx="59.8" ry="16.2"/>
	<path class="st13" d="M24.7,36c0,3.6,4.4,7,11.9,9.7c5.7-3.3,10.2-6.9,8.6-9c-2.1-2.8-2.1-7.8-0.7-12.8
		C32.4,26.8,24.7,31.2,24.7,36z"/>
	<path class="st14" d="M96.7,20.1c4.1,10.6,11.1,24.6,18.6,23c9.9-2.1,15.6-8.5,18.8-16.2C125.6,23.5,112.2,20.9,96.7,20.1z"/>
	<linearGradient id="SVGID_8_" gradientUnits="userSpaceOnUse" x1="62.0253" y1="15.3623" x2="111.0817" y2="73.8254">
		<stop  offset="0.1277" style="stop-color:#FAFBFF"/>
		<stop  offset="1" style="stop-color:#CACEDB"/>
	</linearGradient>
	<path class="st15" d="M59.6,53.8c10.8,1.7,22.5,1.4,33.5,1.3c11-0.1,21.5-2.9,32.3-4.5c4.9-0.7,11.9-3.8,16.7-6.6
		c-4.4-8.2-14.3-9.4-20.7-16.3c-3.5-3.7-5.9-8.4-9.2-12.2c-4.4-5.1-10.3-8.6-16.1-12.1l-4.3-2.5c-0.5-0.3-1.1-0.6-1.7-0.8
		c-1.8-0.4-3.5,0.8-5,2c-13,10.4-26.6,20.2-40.7,29c-4.3,2.7-8.9,5.6-11.6,9.9c-0.9,1.4-1.5,3.1-1.8,4.8
		C40.6,48.4,49.9,52.2,59.6,53.8z"/>
	<path class="st16" d="M125.4,50.6c4.9-0.7,11.9-3.8,16.7-6.6c-4.4-8.2-14.3-9.4-20.7-16.3c-3.5-3.7-5.9-8.4-9.2-12.2
		c-4.4-5.1-10.3-8.6-16.1-12.1l-4.2-2.5c3.1,5.1,5.3,10.9,5.9,13c0.9,3.1-6,15.1-5.4,17.4c0.5,1.9,6.9,13-1.2,23.8
		c0.6,0,1.3,0,1.9,0C104.1,55,114.6,52.2,125.4,50.6z"/>
	<path class="st17" d="M135.3,37c-4.9,5.1-18.6,11.5-47.9,12c-32.2,0.5-46.6-7.6-50.6-12.5c-1.5,1.3-2.9,2.8-3.9,4.5
		c-0.9,1.4-1.5,3.1-1.8,4.8c9.5,2.6,18.7,6.4,28.5,8c10.8,1.7,22.5,1.4,33.5,1.3c11-0.1,21.5-2.9,32.3-4.5
		c4.9-0.7,11.9-3.8,16.7-6.6C140.4,40.9,138,38.8,135.3,37z"/>
	<path class="st18" d="M121.4,27.7c-3.5-3.7-5.9-8.4-9.2-12.2c-1.2-1.4-2.6-2.7-4-3.9c1.2,9.2-5.1,13.6-6.8,15.2
		c-2.3,2.3-8.3,6.3-1.4,6.9c6.9,0.6,15.7-0.6,18,1.4c2.3,2,5.1,9.1-4,16.8c-0.4,0.3-0.6,0.6-0.8,0.8c4-0.7,8.1-1.5,12.2-2.1
		c4.9-0.7,11.9-3.8,16.7-6.6C137.7,35.8,127.8,34.6,121.4,27.7z"/>
	<linearGradient id="SVGID_9_" gradientUnits="userSpaceOnUse" x1="19.3263" y1="46.2824" x2="149.6068" y2="46.2824">
		<stop  offset="0" style="stop-color:#D2A16A"/>
		<stop  offset="0.3374" style="stop-color:#C7925C"/>
		<stop  offset="0.98" style="stop-color:#AC6C38"/>
		<stop  offset="1" style="stop-color:#AB6B37"/>
	</linearGradient>
	<path class="st19" d="M144.2,35.8c0,0,0,0.1,0,0.1c0,9-26.8,16.2-59.8,16.2S24.7,44.9,24.7,36c0-0.2,0-0.4,0.1-0.7
		c-1.8,0.4-3.4,1.2-5.5,1.4c0,0,0,0,0,0.1c0,11.3,29.2,20.5,65.1,20.5c35.8,0,64.8-9.1,65.1-20.3C147.8,36.4,146,35.7,144.2,35.8z"
		/>
	<g>
		<circle class="st20" cx="103.6" cy="35.7" r="1.6"/>
		<path class="st20" d="M101.8,18.8c0-0.9,0.7-1.6,1.6-1.6c0.9,0,1.6,0.7,1.6,1.6c0,0.9-0.7,1.6-1.6,1.6
			C102.5,20.4,101.8,19.7,101.8,18.8z"/>
		<circle class="st20" cx="84.9" cy="36.6" r="1.7"/>
		<path class="st20" d="M84.1,21.8c0-0.6,0.5-1.1,1.1-1.1s1.1,0.5,1.1,1.1c0,0.6-0.5,1.1-1.1,1.1S84.1,22.4,84.1,21.8z"/>
		<path class="st20" d="M94.1,34.1c0-0.8,0.6-1.4,1.4-1.4c0.8,0,1.4,0.6,1.4,1.4c0,0.8-0.6,1.4-1.4,1.4
			C94.7,35.4,94.1,34.8,94.1,34.1z"/>
		<path class="st20" d="M99.9,43.3c0-0.9,0.7-1.6,1.6-1.6c0.9,0,1.6,0.7,1.6,1.6c0,0.9-0.7,1.6-1.6,1.6
			C100.6,44.9,99.9,44.1,99.9,43.3z"/>
		<circle class="st20" cx="135.8" cy="41.2" r="1.7"/>
		<circle class="st20" cx="121.4" cy="34.9" r="1.1"/>
		<path class="st20" d="M127.5,41.4c0-1,0.8-1.8,1.8-1.8c1,0,1.8,0.8,1.8,1.8s-0.8,1.8-1.8,1.8C128.3,43.2,127.5,42.4,127.5,41.4z"
			/>
		<circle class="st20" cx="113.1" cy="31.4" r="1.2"/>
		<path class="st20" d="M103.7,44.9c0-0.8,0.6-1.4,1.4-1.4c0.8,0,1.4,0.6,1.4,1.4c0,0.8-0.6,1.4-1.4,1.4
			C104.3,46.2,103.7,45.6,103.7,44.9z"/>
		<path class="st20" d="M87.5,2.1c0-0.9,0.7-1.5,1.5-1.5c0.9,0,1.5,0.7,1.5,1.5c0,0.9-0.7,1.5-1.5,1.5C88.2,3.7,87.5,3,87.5,2.1z"/>
		<path class="st20" d="M92,44.3c0-0.8,0.6-1.4,1.4-1.4c0.8,0,1.4,0.6,1.4,1.4c0,0.8-0.6,1.4-1.4,1.4C92.6,45.7,92,45.1,92,44.3z"/>
		<path class="st20" d="M97.1,47.5c0-0.8,0.6-1.4,1.4-1.4c0.8,0,1.4,0.6,1.4,1.4s-0.6,1.4-1.4,1.4C97.8,48.9,97.1,48.3,97.1,47.5z"
			/>
		<circle class="st20" cx="103.3" cy="11.8" r="1.2"/>
		<path class="st20" d="M114.7,47.6c0-0.8,0.7-1.5,1.5-1.5s1.5,0.7,1.5,1.5c0,0.8-0.7,1.5-1.5,1.5S114.7,48.4,114.7,47.6z"/>
		<path class="st20" d="M50,47.8c0-0.8,0.6-1.4,1.4-1.4c0.8,0,1.4,0.6,1.4,1.4c0,0.8-0.6,1.4-1.4,1.4C50.6,49.1,50,48.5,50,47.8z"/>
		<path class="st20" d="M78,46.8c0-1,0.8-1.8,1.8-1.8c1,0,1.8,0.8,1.8,1.8c0,1-0.8,1.8-1.8,1.8C78.8,48.6,78,47.8,78,46.8z"/>
		<path class="st20" d="M84.3,46.8c0-0.8,0.7-1.5,1.5-1.5c0.8,0,1.5,0.7,1.5,1.5c0,0.8-0.7,1.5-1.5,1.5C85,48.3,84.3,47.7,84.3,46.8
			z"/>
		<path class="st20" d="M75.1,33.8c0-0.9,0.8-1.7,1.7-1.7c0.9,0,1.7,0.8,1.7,1.7c0,0.9-0.8,1.7-1.7,1.7
			C75.9,35.5,75.1,34.8,75.1,33.8z"/>
		<circle class="st20" cx="107.4" cy="28.5" r="1.6"/>
		<path class="st20" d="M94.5,10.3c0-0.8,0.7-1.5,1.5-1.5s1.5,0.7,1.5,1.5c0,0.8-0.7,1.5-1.5,1.5S94.5,11.1,94.5,10.3z"/>
		<path class="st20" d="M91.9,20.7c0-0.8,0.6-1.4,1.4-1.4c0.8,0,1.4,0.6,1.4,1.4s-0.6,1.4-1.4,1.4C92.5,22.2,91.9,21.5,91.9,20.7z"
			/>
		<path class="st20" d="M93.5,37.4c0-0.7,0.6-1.2,1.2-1.2c0.7,0,1.2,0.6,1.2,1.2s-0.6,1.2-1.2,1.2C94.1,38.6,93.5,38.1,93.5,37.4z"
			/>
		<circle class="st20" cx="121.2" cy="46.9" r="1.5"/>
		<circle class="st20" cx="85.8" cy="42.4" r="1.7"/>
		<circle class="st20" cx="70.9" cy="48.7" r="1.4"/>
		<path class="st20" d="M123.1,33.2c0-0.7,0.6-1.3,1.3-1.3c0.7,0,1.3,0.6,1.3,1.3c0,0.7-0.6,1.3-1.3,1.3
			C123.7,34.5,123.1,33.9,123.1,33.2z"/>
		<path class="st20" d="M103.7,49.8c0-0.6,0.5-1.2,1.2-1.2c0.6,0,1.2,0.5,1.2,1.2c0,0.6-0.5,1.2-1.2,1.2
			C104.2,50.9,103.7,50.4,103.7,49.8z"/>
		<path class="st20" d="M111.5,40c0-0.9,0.7-1.6,1.6-1.6s1.6,0.7,1.6,1.6c0,0.9-0.7,1.6-1.6,1.6S111.5,40.8,111.5,40z"/>
		<path class="st20" d="M92.7,5.2c0-1,0.8-1.7,1.7-1.7c1,0,1.7,0.8,1.7,1.7S95.4,7,94.4,7C93.5,7,92.7,6.2,92.7,5.2z"/>
		<path class="st20" d="M77,27.7c0-0.8,0.6-1.4,1.4-1.4c0.8,0,1.4,0.6,1.4,1.4c0,0.8-0.6,1.4-1.4,1.4C77.6,29.2,77,28.5,77,27.7z"/>
		<path class="st20" d="M95.4,24.4c0-0.8,0.6-1.4,1.4-1.4c0.8,0,1.4,0.6,1.4,1.4c0,0.8-0.6,1.4-1.4,1.4
			C96.1,25.8,95.4,25.1,95.4,24.4z"/>
		<circle class="st20" cx="105.8" cy="16.2" r="1.4"/>
		<path class="st20" d="M100.6,31.7c0-1,0.8-1.8,1.8-1.8c1,0,1.8,0.8,1.8,1.8c0,1-0.8,1.8-1.8,1.8C101.4,33.5,100.6,32.7,100.6,31.7
			z"/>
		<circle class="st20" cx="89.2" cy="29.1" r="1.4"/>
		<path class="st20" d="M92.7,31.6c0-0.7,0.6-1.2,1.2-1.2c0.7,0,1.2,0.6,1.2,1.2s-0.6,1.2-1.2,1.2C93.2,32.9,92.7,32.3,92.7,31.6z"
			/>
		<path class="st20" d="M112.2,26.8c0-1,0.8-1.8,1.8-1.8c1,0,1.8,0.8,1.8,1.8c0,1-0.8,1.8-1.8,1.8C113,28.6,112.2,27.8,112.2,26.8z"
			/>
		<path class="st20" d="M57.8,40.7c0-0.7,0.6-1.3,1.3-1.3c0.7,0,1.3,0.6,1.3,1.3s-0.6,1.3-1.3,1.3C58.4,42.1,57.8,41.5,57.8,40.7z"
			/>
		<path class="st20" d="M117.8,38.8c0-0.7,0.6-1.3,1.3-1.3s1.3,0.6,1.3,1.3c0,0.7-0.6,1.3-1.3,1.3S117.8,39.5,117.8,38.8z"/>
		<path class="st20" d="M127.8,44.8c0-0.8,0.7-1.5,1.5-1.5s1.5,0.7,1.5,1.5c0,0.8-0.7,1.5-1.5,1.5S127.8,45.6,127.8,44.8z"/>
		<path class="st20" d="M116.8,42.4c0-0.9,0.7-1.6,1.6-1.6s1.6,0.7,1.6,1.6s-0.7,1.6-1.6,1.6S116.8,43.3,116.8,42.4z"/>
		<circle class="st20" cx="76.3" cy="42.1" r="1.4"/>
		<circle class="st20" cx="95.1" cy="14.6" r="1.5"/>
		<circle class="st20" cx="91.1" cy="44.8" r="1.2"/>
		<path class="st20" d="M46.4,45.1c0-0.8,0.6-1.4,1.4-1.4c0.8,0,1.4,0.6,1.4,1.4s-0.6,1.4-1.4,1.4C47,46.5,46.4,45.9,46.4,45.1z"/>
		<path class="st20" d="M97.6,17.3c0-0.9,0.7-1.6,1.6-1.6c0.9,0,1.6,0.7,1.6,1.6s-0.7,1.6-1.6,1.6C98.3,18.8,97.6,18.1,97.6,17.3z"
			/>
		<path class="st20" d="M123.4,37c0-1.1,0.9-1.9,1.9-1.9c1.1,0,1.9,0.9,1.9,1.9c0,1.1-0.9,1.9-1.9,1.9C124.3,38.9,123.4,38,123.4,37
			z"/>
		<path class="st20" d="M53.9,46.1c0-0.9,0.7-1.7,1.7-1.7s1.7,0.7,1.7,1.7c0,0.9-0.7,1.7-1.7,1.7S53.9,47,53.9,46.1z"/>
		<path class="st20" d="M91.4,51.5c0-0.7,0.6-1.3,1.3-1.3c0.7,0,1.3,0.6,1.3,1.3c0,0.7-0.6,1.3-1.3,1.3C92,52.8,91.4,52.2,91.4,51.5
			z"/>
		<path class="st20" d="M122.7,42.5c0-0.8,0.7-1.5,1.5-1.5c0.8,0,1.5,0.7,1.5,1.5S125,44,124.2,44C123.4,44,122.7,43.4,122.7,42.5z"
			/>
		<path class="st20" d="M104.9,23.6c0-1,0.8-1.8,1.8-1.8c1,0,1.8,0.8,1.8,1.8c0,1-0.8,1.8-1.8,1.8C105.7,25.4,104.9,24.6,104.9,23.6
			z"/>
		<circle class="st20" cx="111.6" cy="20.4" r="1.5"/>
		<path class="st20" d="M69.3,39.8c0-0.8,0.7-1.5,1.5-1.5c0.8,0,1.5,0.7,1.5,1.5c0,0.8-0.7,1.5-1.5,1.5C70,41.2,69.3,40.6,69.3,39.8
			z"/>
		<path class="st20" d="M89.2,36c0-0.8,0.6-1.4,1.4-1.4c0.8,0,1.4,0.6,1.4,1.4c0,0.8-0.6,1.4-1.4,1.4C89.8,37.5,89.2,36.8,89.2,36z"
			/>
		<path class="st20" d="M39.5,40.9c0-0.8,0.6-1.4,1.4-1.4c0.8,0,1.4,0.6,1.4,1.4c0,0.8-0.6,1.4-1.4,1.4
			C40.1,42.3,39.5,41.7,39.5,40.9z"/>
		<circle class="st20" cx="110.5" cy="24.6" r="1.5"/>
		<circle class="st20" cx="108.4" cy="35.6" r="1.8"/>
		<path class="st20" d="M112.5,22.8c0-1,0.8-1.8,1.8-1.8c1,0,1.8,0.8,1.8,1.8c0,1-0.8,1.8-1.8,1.8C113.4,24.7,112.5,23.8,112.5,22.8
			z"/>
		<path class="st20" d="M102.7,41.1c0-0.9,0.7-1.6,1.6-1.6s1.6,0.7,1.6,1.6c0,0.9-0.7,1.6-1.6,1.6S102.7,42,102.7,41.1z"/>
		<path class="st20" d="M108.5,32c0-0.9,0.7-1.6,1.6-1.6c0.9,0,1.6,0.7,1.6,1.6c0,0.9-0.7,1.6-1.6,1.6
			C109.2,33.6,108.5,32.9,108.5,32z"/>
		<path class="st20" d="M87.4,49c0-0.9,0.7-1.5,1.5-1.5c0.9,0,1.5,0.7,1.5,1.5c0,0.9-0.7,1.5-1.5,1.5C88.1,50.5,87.4,49.9,87.4,49z"
			/>
		<path class="st20" d="M108.8,16.1c0-0.9,0.7-1.6,1.6-1.6c0.9,0,1.6,0.7,1.6,1.6c0,0.9-0.7,1.6-1.6,1.6
			C109.5,17.7,108.8,17,108.8,16.1z"/>
		<path class="st20" d="M107.1,41.7c0-1,0.8-1.8,1.8-1.8s1.8,0.8,1.8,1.8s-0.8,1.8-1.8,1.8S107.1,42.7,107.1,41.7z"/>
		<path class="st20" d="M98.2,13.5c0-1,0.8-1.9,1.9-1.9c1,0,1.9,0.8,1.9,1.9s-0.8,1.9-1.9,1.9C99.1,15.4,98.2,14.5,98.2,13.5z"/>
		<path class="st20" d="M114.1,35c0-0.8,0.7-1.5,1.5-1.5c0.8,0,1.5,0.7,1.5,1.5c0,0.8-0.7,1.5-1.5,1.5
			C114.7,36.4,114.1,35.8,114.1,35z"/>
		<path class="st20" d="M108.8,45.7c0-0.9,0.7-1.6,1.6-1.6c0.9,0,1.6,0.7,1.6,1.6c0,0.9-0.7,1.6-1.6,1.6
			C109.5,47.2,108.8,46.5,108.8,45.7z"/>
		<path class="st20" d="M130.5,37.5c0-0.8,0.6-1.4,1.4-1.4c0.8,0,1.4,0.6,1.4,1.4c0,0.8-0.6,1.4-1.4,1.4
			C131.1,38.9,130.5,38.3,130.5,37.5z"/>
		<path class="st20" d="M90.8,25.8c0-0.8,0.6-1.4,1.4-1.4c0.8,0,1.4,0.6,1.4,1.4c0,0.8-0.6,1.4-1.4,1.4
			C91.5,27.2,90.8,26.5,90.8,25.8z"/>
		<path class="st20" d="M95.8,39.1c0-1,0.8-1.8,1.8-1.8c1,0,1.8,0.8,1.8,1.8s-0.8,1.8-1.8,1.8C96.6,40.9,95.8,40.1,95.8,39.1z"/>
		<path class="st20" d="M116.8,29.8c0-0.9,0.7-1.6,1.6-1.6c0.9,0,1.6,0.7,1.6,1.6s-0.7,1.6-1.6,1.6
			C117.5,31.4,116.8,30.7,116.8,29.8z"/>
		<circle class="st20" cx="101.5" cy="27.7" r="1.9"/>
		<path class="st20" d="M68.3,45.8c0-0.8,0.6-1.4,1.4-1.4c0.8,0,1.4,0.6,1.4,1.4c0,0.8-0.6,1.4-1.4,1.4
			C68.9,47.2,68.3,46.6,68.3,45.8z"/>
		<path class="st20" d="M86.8,14.6c0-0.8,0.6-1.4,1.4-1.4c0.8,0,1.4,0.6,1.4,1.4c0,0.8-0.6,1.4-1.4,1.4C87.4,16,86.8,15.3,86.8,14.6
			z"/>
		<circle class="st20" cx="102.2" cy="50.5" r="1"/>
	</g>
	<path class="st21" d="M60.9,87.5c7.6,4.8,9.7,1.4,8.4-0.4c-1.2-1.7-53.6-34.3-67.9-42.8c-0.2,0.1-0.3,0.2-0.4,0.2
		c-0.7,0.5-1,1.2-1,2C12.7,55,53.9,83,60.9,87.5z"/>
	<path class="st22" d="M123.1,48.3c-10.4,2.4-23.9,3.9-38.6,3.9c-33,0-59.8-7.3-59.8-16.2c0-0.2,0-0.4,0.1-0.7
		C25.7,29,40,23.6,60.1,21.1c-4-0.7-7.8-1.2-11-1.5c-17.9,3.6-29.7,9.9-29.8,17.1c0,0,0,0,0,0.1c0,11.3,29.2,20.5,65.1,20.5
		c15.1,0,29-1.6,40-4.3C124.3,51.3,123.9,49.8,123.1,48.3z"/>
	<path class="st22" d="M97.5,56.9c-0.6-1.7-1.4-3.3-2.4-4.9c-3.4,0.2-7,0.3-10.6,0.3c-33,0-59.8-7.3-59.8-16.2c0-0.2,0-0.4,0.1-0.7
		c0.6-4.3,7.4-8.2,18-11c-2.3-0.5-4.5-1-6.5-1.3c-10.5,3.6-16.9,8.4-17,13.7c0,0,0,0,0,0.1c0,11.3,29.2,20.5,65.1,20.5
		C88.9,57.3,93.3,57.1,97.5,56.9z"/>
</g>
</svg>
