<?xml version="1.0" encoding="UTF-8" standalone="no"?>
<!-- Created with Inkscape (http://www.inkscape.org/) -->
<svg xmlns:inkscape="http://www.inkscape.org/namespaces/inkscape" xmlns:rdf="http://www.w3.org/1999/02/22-rdf-syntax-ns#" xmlns="http://www.w3.org/2000/svg" xmlns:xlink="http://www.w3.org/1999/xlink" xmlns:ns1="http://sozi.baierouge.fr" xmlns:cc="http://creativecommons.org/ns#" xmlns:sodipodi="http://sodipodi.sourceforge.net/DTD/sodipodi-0.dtd" xmlns:dc="http://purl.org/dc/elements/1.1/" id="svg2" xml:space="preserve" viewBox="0 0 56.058 24.795" version="1.1" inkscape:version="0.91 r13725">
  <defs id="defs6">
    <linearGradient id="linearGradient24" y2="867.08" gradientUnits="userSpaceOnUse" x2="692.86" gradientTransform="matrix(.72 0 0 -.72 -456.2 642.42)" y1="867.08" x1="689.34">
      <stop id="stop26" style="stop-color:#ab0a00" offset="0"/>
      <stop id="stop28" style="stop-color:#820900" offset="1"/>
    </linearGradient>
    <linearGradient id="linearGradient42" y2="881.15" gradientUnits="userSpaceOnUse" x2="695.9" gradientTransform="matrix(.72 0 0 -.72 -456.2 642.42)" y1="881.15" x1="660.55">
      <stop id="stop44" style="stop-color:#ab5e3e" offset="0"/>
      <stop id="stop46" style="stop-color:#722b23" offset=".86270"/>
      <stop id="stop48" style="stop-color:#69231f" offset="1"/>
    </linearGradient>
    <clipPath id="clipPath56">
      <path id="path58" d="m35-0.164h10v17h-10v-17z" inkscape:connector-curvature="0"/>
    </clipPath>
    <mask id="mask60">
      <g id="g62">
        <g id="g64" clip-path="url(#clipPath56)">
          <path id="path66" style="fill:#000000;fill-opacity:.42190" d="m35-0.164h10v17h-10v-17z" inkscape:connector-curvature="0"/>
        </g>
      </g>
    </mask>
    <clipPath id="clipPath72">
      <path id="path74" d="m35-0.164h10v17h-10v-17z" inkscape:connector-curvature="0"/>
    </clipPath>
    <clipPath id="clipPath76">
      <path id="path78" d="m35 0h10v17h-10v-17z" inkscape:connector-curvature="0"/>
    </clipPath>
    <linearGradient id="linearGradient84" y2="-10.987" gradientUnits="userSpaceOnUse" x2="14.575" gradientTransform="matrix(.72 0 0 .72 34.361 16.139)" y1="-10.987" x1="0.0249">
      <stop id="stop86" style="stop-color:#e6493e" offset="0"/>
      <stop id="stop88" style="stop-color:#8e4533" offset=".0039"/>
      <stop id="stop90" style="stop-color:#8e4533" offset="1"/>
    </linearGradient>
    <clipPath id="clipPath120">
      <path id="path122" d="m21.52 2.555v12.094h3.527v-13.715c-1.391 0.382-2.57 0.925-3.527 1.621z" inkscape:connector-curvature="0"/>
    </clipPath>
    <clipPath id="clipPath128">
      <path id="path130" d="m662.78 871.64h6.9444v19.444h-6.9444v-19.444z" inkscape:connector-curvature="0"/>
    </clipPath>
    <linearGradient id="linearGradient132" y2="881.43" gradientUnits="userSpaceOnUse" x2="668.39" y1="881.43" x1="663.51">
      <stop id="stop134" style="stop-color:#ffffff" offset="0"/>
      <stop id="stop136" style="stop-color:#ffffff;stop-opacity:0" offset="1"/>
    </linearGradient>
    <mask id="mask138">
      <g id="g140">
        <g id="g142" clip-path="url(#clipPath128)">
          <path id="path144" style="fill:url(#linearGradient132)" d="m662.78 871.64h6.9444v19.444h-6.9444v-19.444z" inkscape:connector-curvature="0"/>
        </g>
      </g>
    </mask>
    <linearGradient id="linearGradient148" y2="881.43" gradientUnits="userSpaceOnUse" x2="668.39" y1="881.43" x1="663.51">
      <stop id="stop150" style="stop-color:#bf7960" offset="0"/>
      <stop id="stop152" style="stop-color:#995039" offset="1"/>
    </linearGradient>
    <linearGradient id="linearGradient168" y2="870.08" gradientUnits="userSpaceOnUse" x2="695.36" gradientTransform="matrix(.72 0 0 -.72 -456.2 642.42)" y1="870.08" x1="660.24">
      <stop id="stop170" style="stop-color:#383838" offset="0"/>
      <stop id="stop172" style="stop-color:#595959" offset=".36860"/>
      <stop id="stop174" style="stop-color:#525252" offset=".5765"/>
      <stop id="stop176" style="stop-color:#5e5e5e" offset=".7647"/>
      <stop id="stop178" style="stop-color:#525252" offset="1"/>
    </linearGradient>
    <linearGradient id="linearGradient192" y2="866.81" gradientUnits="userSpaceOnUse" x2="692.17" gradientTransform="matrix(.72 0 0 -.72 -456.2 642.42)" y1="866.81" x1="687.42">
      <stop id="stop194" style="stop-color:#4d4d4d" offset="0"/>
      <stop id="stop196" style="stop-color:#696969" offset="1"/>
    </linearGradient>
    <linearGradient id="linearGradient212" y2="881.45" gradientUnits="userSpaceOnUse" x2="696.66" gradientTransform="matrix(.72 0 0 -.72 -456.2 642.42)" y1="881.45" x1="658.74">
      <stop id="stop214" style="stop-color:#383838" offset="0"/>
      <stop id="stop216" style="stop-color:#595959" offset=".36860"/>
      <stop id="stop218" style="stop-color:#525252" offset=".5765"/>
      <stop id="stop220" style="stop-color:#5e5e5e" offset=".7647"/>
      <stop id="stop222" style="stop-color:#525252" offset="1"/>
    </linearGradient>
    <linearGradient id="linearGradient242" y2="576.96" gradientUnits="userSpaceOnUse" x2="917.44" gradientTransform="matrix(.66784 -.26896 -.26896 -.66784 -456.2 642.42)" y1="576.96" x1="915.5">
      <stop id="stop244" style="stop-color:#4f4f4f" offset="0"/>
      <stop id="stop246" style="stop-color:#303030" offset="1"/>
    </linearGradient>
    <linearGradient id="linearGradient260" y2="921.15" gradientUnits="userSpaceOnUse" x2="570.57" gradientTransform="matrix(.71792 .05416 .05416 -.71792 -456.2 642.42)" y1="921.15" x1="567.91">
      <stop id="stop262" style="stop-color:#4a4a4a" offset="0"/>
      <stop id="stop264" style="stop-color:#838383" offset=".3373"/>
      <stop id="stop266" style="stop-color:#d1d1d1" offset=".76860"/>
      <stop id="stop268" style="stop-color:#cfcfcf" offset=".85880"/>
      <stop id="stop270" style="stop-color:#c8c8c8" offset=".89410"/>
      <stop id="stop272" style="stop-color:#bbbbbb" offset=".92550"/>
      <stop id="stop274" style="stop-color:#a9a9a9" offset=".949"/>
      <stop id="stop276" style="stop-color:#929292" offset=".96860"/>
      <stop id="stop278" style="stop-color:#767676" offset=".98820"/>
      <stop id="stop280" style="stop-color:#5e5e5e" offset="1"/>
    </linearGradient>
    <linearGradient id="linearGradient294" y2="-229.56" gradientUnits="userSpaceOnUse" x2="1059" gradientTransform="matrix(.29128 -.65848 -.65848 -.29128 -456.2 642.42)" y1="-229.56" x1="1057.6">
      <stop id="stop296" style="stop-color:#a6a6a6" offset="0"/>
      <stop id="stop298" style="stop-color:#d9d9d9" offset="1"/>
    </linearGradient>
    <linearGradient id="linearGradient356" y2="635.75" gradientUnits="userSpaceOnUse" x2="907.3" gradientTransform="matrix(.68368 -.22584 -.22584 -.68368 -456.2 642.42)" y1="635.75" x1="898.53">
      <stop id="stop358" style="stop-color:#1c1c1c" offset="0"/>
      <stop id="stop360" style="stop-color:#333333" offset="1"/>
    </linearGradient>
    <linearGradient id="linearGradient374" y2="629.1" gradientUnits="userSpaceOnUse" x2="914.2" gradientTransform="matrix(.682 -.2308 -.2308 -.682 -456.2 642.42)" y1="629.1" x1="912.49">
      <stop id="stop376" style="stop-color:#696969" offset="0"/>
      <stop id="stop378" style="stop-color:#8a8a8a" offset="1"/>
    </linearGradient>
    <linearGradient id="linearGradient392" y2="571.03" gradientUnits="userSpaceOnUse" x2="947.56" gradientTransform="matrix(.66672 -.27184 -.27184 -.66672 -456.2 642.42)" y1="571.03" x1="939.22">
      <stop id="stop394" style="stop-color:#636363" offset="0"/>
      <stop id="stop396" style="stop-color:#9c9c9c" offset=".5176"/>
      <stop id="stop398" style="stop-color:#d4d4d4" offset="1"/>
    </linearGradient>
    <linearGradient id="linearGradient412" y2="-592.44" gradientUnits="userSpaceOnUse" x2="-928.35" gradientTransform="matrix(-.67272 .25672 .25672 .67272 -456.2 642.42)" y1="-592.44" x1="-934.45">
      <stop id="stop414" style="stop-color:#616161" offset="0"/>
      <stop id="stop416" style="stop-color:#9a9a9a" offset=".49020"/>
      <stop id="stop418" style="stop-color:#d9d9d9" offset="1"/>
    </linearGradient>
  </defs>
  <g id="g10" transform="matrix(1.25,0,0,-1.25,0,24.795)">
    <g id="g12">
      <g id="g14">
        <g id="g16">
          <g id="g22">
            <path id="path30" style="fill-rule:evenodd;fill:url(#linearGradient24)" d="m42.688 19.512-0.145-2.699c0-0.266-0.805 0.105-2.414 1.117l2.559 1.582z" inkscape:connector-curvature="0"/>
          </g>
        </g>
      </g>
      <g id="g32">
        <g id="g34">
          <g id="g40">
            <path id="path50" style="fill-rule:evenodd;fill:url(#linearGradient42)" d="m23.102 1.656c-1.68 0.789-2.914 1.813-3.707 3.059v11.269h25.453v-11.269c-0.77-1.199-2.055-2.219-3.852-3.059-2.379-1.105-5.328-1.656-8.855-1.656-3.7 0-6.711 0.551-9.039 1.656z" inkscape:connector-curvature="0"/>
          </g>
        </g>
      </g>
      <g id="g52">
        <g id="g68" mask="url(#mask60)">
          <g id="g92">
            <g id="g94" clip-path="url(#clipPath72)">
              <g id="g96" transform="translate(0 -.164)">
                <g id="g100">
                  <g id="g102" clip-path="url(#clipPath76)">
                    <g id="g104">
                      <g id="g106">
                        <g id="g108">
                          <g id="g110">
                            <path id="path112" style="fill-rule:evenodd;fill:url(#linearGradient84)" d="m39.293 4.582v11.559h5.543v-11.27c-0.621-0.984-1.848-1.933-3.672-2.844-1.824-0.925-3.746-1.492-5.758-1.711 1.473 0.227 2.551 0.926 3.239 2.106l0.648 2.16z" inkscape:connector-curvature="0"/>
                          </g>
                        </g>
                      </g>
                    </g>
                  </g>
                </g>
              </g>
            </g>
          </g>
        </g>
      </g>
      <path id="path114" style="fill-rule:evenodd;fill:#5c261e" d="m42.688 2.59v13.394h2.156v-11.269c-0.453-0.719-1.172-1.43-2.156-2.125z" inkscape:connector-curvature="0"/>
      <g id="g116">
        <g id="g118" clip-path="url(#clipPath120)">
          <g id="g124" transform="matrix(.72 0 0 -.72 -456.2 642.42)">
            <g id="g146" mask="url(#mask138)">
              <path id="path154" style="fill-rule:evenodd;fill:url(#linearGradient148)" d="m21.52 2.555v12.094h3.527v-13.715c-1.391 0.382-2.57 0.925-3.527 1.621z" inkscape:connector-curvature="0"/>
            </g>
          </g>
        </g>
      </g>
      <path id="path156" style="fill-rule:evenodd;fill:#5c261e" d="m20.367 15.984v-12.457c-0.433 0.434-0.758 0.829-0.972 1.188v11.269h0.972z" inkscape:connector-curvature="0"/>
      <g id="g158">
        <g id="g160">
          <g id="g166">
            <path id="path180" style="fill-rule:evenodd;fill:url(#linearGradient168)" d="m39.195 19.078c0.168 0.024 0.684 0.11 1.547 0.254 0.793 0.117 1.262 0.156 1.403 0.106 0.074-0.024 0-0.18-0.215-0.465-0.215-0.289-0.289-0.446-0.215-0.469 2.086-0.746 3.129-1.586 3.129-2.52 0-1.082-1.246-2.003-3.742-2.773-2.473-0.742-5.473-1.117-9-1.117-3.528 0-6.528 0.375-9 1.117-2.497 0.77-3.743 1.691-3.743 2.773 0 1.055 1.246 1.969 3.743 2.735 2.472 0.746 5.472 1.117 9 1.117 1.054 0 2.46-0.145 4.21-0.434 1.54-0.261 2.497-0.371 2.883-0.324z" inkscape:connector-curvature="0"/>
          </g>
        </g>
      </g>
      <g id="g182">
        <g id="g184">
          <g id="g190">
            <path id="path198" style="fill-rule:evenodd;fill:url(#linearGradient192)" d="m38.762 19.043c0.047 0.051 0.937 0.18 2.664 0.395 0.191 0.027 0.398 0.086 0.613 0.179 0.121 0.051 0.156-0.011 0.106-0.179-0.141-0.313-0.372-0.575-0.68-0.789-0.121-0.098-0.387-0.493-0.793-1.188-0.434-0.555-0.805-0.613-1.117-0.184-0.215 0.317-0.41 0.661-0.578 1.047-0.215 0.43-0.286 0.672-0.215 0.719z" inkscape:connector-curvature="0"/>
          </g>
        </g>
      </g>
      <path id="path200" style="fill-rule:evenodd;fill:#919191" d="m32.102 19.836c2.496 0 4.765-0.203 6.804-0.613 0.192-0.024 0.805 0.035 1.836 0.179 1.008 0.168 1.61 0.231 1.801 0.18 0.168-0.047 0.07-0.238-0.289-0.574s-0.481-0.527-0.359-0.578c1.968-0.696 2.953-1.512 2.953-2.446 0-1.082-1.25-2.003-3.746-2.773-2.473-0.746-5.473-1.117-9-1.117-3.528 0-6.528 0.371-9 1.117-2.497 0.77-3.743 1.691-3.743 2.773 0 1.055 1.246 1.965 3.743 2.735 2.472 0.746 5.472 1.117 9 1.117zm6.371-0.863c-1.895 0.336-3.996 0.504-6.297 0.504-3.336 0-6.18-0.336-8.535-1.008-2.375-0.653-3.563-1.442-3.563-2.379 0-0.934 1.188-1.727 3.563-2.375 2.355-0.649 5.199-0.973 8.535-0.973 3.359 0 6.215 0.324 8.566 0.973 2.375 0.648 3.563 1.441 3.563 2.375 0 0.84-0.957 1.574-2.879 2.199-0.145 0.047-0.082 0.215 0.179 0.5 0.29 0.313 0.336 0.492 0.145 0.543-0.168 0.047-0.707-0.016-1.621-0.183-0.934-0.141-1.488-0.204-1.656-0.176z" inkscape:connector-curvature="0"/>
      <g id="g202">
        <g id="g204">
          <g id="g210">
            <path id="path224" style="fill-rule:evenodd;fill:url(#linearGradient212)" d="m34.66 13.535 3.488-0.07 0.36-0.219c0.242-0.191 0.363-0.394 0.363-0.613 0-0.262-0.195-0.922-0.578-1.981-0.383-1.031-0.672-1.691-0.863-1.98-0.145-0.191-0.203-0.574-0.18-1.148 0-0.649-0.023-1.071-0.074-1.262-0.071-0.289-0.285-0.563-0.649-0.828-0.215-0.145-0.515-0.348-0.898-0.61-0.121-0.148-0.266-0.433-0.434-0.867-0.144-0.406-0.324-0.719-0.539-0.933-0.429-0.434-1.066-0.77-1.91-1.012l0.363 0.363c0.145 0.145 0.286 0.43 0.43 0.863 0.168 0.551 0.301 0.985 0.399 1.297 0.093 0.336 0.324 0.684 0.683 1.043 0.383 0.383 0.598 0.637 0.649 0.754 0.359 0.672 0.539 1.43 0.539 2.27v2.23l0.179 1.551-1.328 1.152z" inkscape:connector-curvature="0"/>
          </g>
        </g>
      </g>
      <path id="path226" style="fill-rule:evenodd;fill:#474747" d="m37.324 8.387c-0.074-0.215-0.097-0.578-0.074-1.078 0-0.508-0.023-0.852-0.074-1.047-0.071-0.289-0.285-0.563-0.649-0.828-0.215-0.145-0.515-0.348-0.898-0.61-0.121-0.148-0.262-0.433-0.43-0.867-0.144-0.406-0.324-0.719-0.543-0.933-0.429-0.434-1.066-0.77-1.906-1.012l0.359 0.363c0.145 0.145 0.289 0.43 0.43 0.863 0.168 0.551 0.301 0.985 0.399 1.297 0.093 0.336 0.324 0.684 0.683 1.043 0.383 0.383 0.598 0.637 0.649 0.754 0.359 0.77 0.539 1.516 0.539 2.234l1.515-0.179z" inkscape:connector-curvature="0"/>
      <path id="path228" style="fill-rule:evenodd;fill:#b0b0b0" d="m38.258 11.949c0.047 0.098 0.144 0.532 0.289 1.297 0.215-0.215 0.324-0.418 0.324-0.609 0-0.266-0.195-0.926-0.578-1.981-0.383-1.035-0.672-1.691-0.863-1.98-0.145-0.195-0.203-0.578-0.18-1.152 0-0.649-0.023-1.067-0.074-1.262-0.071-0.285-0.285-0.563-0.649-0.828-0.215-0.145-0.515-0.348-0.898-0.61-0.121-0.144-0.266-0.433-0.434-0.863-0.144-0.41-0.324-0.723-0.539-0.937-0.429-0.434-1.066-0.77-1.91-1.008l0.363 0.359 0.145 0.215c0.43 0.168 0.684 0.277 0.754 0.324 0.121 0.074 0.301 0.301 0.539 0.684 0.191 0.312 0.324 0.566 0.398 0.758l0.325 0.718 1.007 0.539c0.094 0.047 0.215 0.133 0.36 0.254 0.144 0.141 0.226 0.25 0.25 0.321l0.109 1.046-0.035 1.368c0.117 0.168 0.227 0.371 0.324 0.613l0.973 2.734z" inkscape:connector-curvature="0"/>
      <path id="path230" style="fill-rule:evenodd;fill:#5c261e" d="m20.328 3.707-0.574 0.649-0.359 1.691 3.597-1.691v-1.262c0.074-0.481 0.192-0.996 0.36-1.547-1.68 0.625-2.508 1.055-2.485 1.297 0.028 0.144-0.152 0.43-0.539 0.863z" inkscape:connector-curvature="0"/>
      <g id="g232">
        <g id="g234">
          <g id="g240">
            <path id="path248" style="fill-rule:evenodd;fill:url(#linearGradient242)" d="m3.41 11.051v-0.828c-0.023-0.621-0.07-1.102-0.144-1.438-0.141-0.554-0.325-0.769-0.539-0.648-0.071 0.551-0.372 1.113-0.899 1.691-0.266 0.262-0.613 0.418-1.047 0.469-0.359 0.047-0.551 0.105-0.574 0.18l-0.109 0.539 1.117 0.144c0.215-0.051 0.945-0.086 2.195-0.109z" inkscape:connector-curvature="0"/>
          </g>
        </g>
      </g>
      <g id="g250">
        <g id="g252">
          <g id="g258">
            <path id="path282" style="fill-rule:evenodd;fill:url(#linearGradient260)" d="m1.43 11.34c-0.145 0.144-0.203 0.289-0.18 0.43 0.047 0.121 0.215 0.265 0.504 0.433 0.312 0.168 0.574 0.238 0.793 0.215 0.551 0 0.996-0.094 1.332-0.285 0.168-0.121 0.226-0.254 0.18-0.399-0.047-0.144-0.254-0.128-0.614 0.04-0.383 0.191-0.793 0.226-1.222 0.105-0.411-0.121-0.672-0.301-0.793-0.539z" inkscape:connector-curvature="0"/>
          </g>
        </g>
      </g>
      <g id="g284">
        <g id="g286">
          <g id="g292">
            <path id="path300" style="fill-rule:evenodd;fill:url(#linearGradient294)" d="m3.301 11.914c0.097 0.145 0.051 0.254-0.141 0.324-0.387 0.121-0.781 0.098-1.191-0.07-0.407-0.144-0.574-0.301-0.5-0.469 0.168-0.336 0.621-0.359 1.367-0.07 0.215 0.07 0.371 0.168 0.465 0.285zm3.996-0.105c-1.797-0.961-2.867-1.395-3.203-1.297-1.774 0.504-2.989 0.648-3.633 0.429-0.602-0.191-0.613-0.011-0.039 0.543 0.531 0.551 1.164 0.864 1.91 0.934 1.246 0.145 2.902-0.059 4.965-0.609z" inkscape:connector-curvature="0"/>
          </g>
        </g>
      </g>
      <path id="path302" style="fill-rule:evenodd;fill:#614122" d="m13.562 8.496c0.793-0.191 1.801-0.637 3.024-1.332l-0.18-3.168-1.801-0.972c-0.55 1.105-1.043 1.992-1.476 2.664-0.262 0.406-0.262 0.996 0 1.761l0.433 1.047z" inkscape:connector-curvature="0"/>
      <path id="path304" style="fill-rule:evenodd;fill:#805223" d="m8.992 7.449c-1.18 0.985-2.496 1.442-3.961 1.371-0.695-0.05-1.25-0.179-1.656-0.394l-0.359-0.289c-0.289 0.429-0.457 0.996-0.504 1.691l0.035 0.938 2.918 1.652 8.781-5.254 0.074-1.871c0-1.418 0.094-2.176 0.285-2.269-0.476 0.023-1.296 0.492-2.445 1.406-1.441 1.437-2.496 2.445-3.168 3.019z" inkscape:connector-curvature="0"/>
      <path id="path306" style="fill-rule:evenodd;fill:#613f1d" d="m3.988 10.477c0.309-0.028 0.633 0.023 0.969 0.14 0.363 0.149 0.637 0.219 0.828 0.219 0.387 0 0.781-0.109 1.188-0.324 0.457-0.238 0.816-0.574 1.082-1.008 0.285-0.457 0.672-0.73 1.152-0.828 0.5-0.117 0.945-0.024 1.332 0.289 0.094 0.094 0.25 0.144 0.465 0.144l2.09-1.261-1.727 0.683c-0.219 0.121-0.48 0.168-0.793 0.145-0.265-0.024-0.469-0.094-0.613-0.215-0.121-0.098-0.422-0.074-0.899 0.07-0.457 0.145-0.769 0.325-0.937 0.539-0.406 0.602-0.84 1.024-1.297 1.262-0.238 0.117-0.574 0.18-1.008 0.18-0.527 0.023-0.91-0.047-1.152-0.215-0.551-0.387-1.211-0.266-1.98 0.359l-0.141 0.11 0.285 0.14c0.313-0.238 0.699-0.382 1.156-0.429z" inkscape:connector-curvature="0"/>
      <path id="path308" style="fill-rule:evenodd;fill:#613f1d" d="m5.93 10.043c-0.289 0.051-0.625 0-1.008-0.144-0.457-0.168-0.766-0.25-0.934-0.25-0.457 0-0.949 0.117-1.48 0.359v0.359c0.601-0.41 1.144-0.562 1.621-0.468 0.242 0.023 0.578 0.121 1.008 0.289 0.386 0.117 0.769 0.117 1.152 0 0.242-0.098 0.637-0.399 1.188-0.899 0.527-0.508 1.058-0.828 1.585-0.976 0.504-0.141 1.114-0.286 1.836-0.43 0.598-0.145 1.149-0.422 1.657-0.828 0.527-0.41 1.113-0.949 1.761-1.621v-0.215l-0.504 0.469c-0.527 0.527-0.945 0.921-1.257 1.187-0.528 0.434-1.129 0.719-1.801 0.863-0.914 0.192-1.512 0.325-1.801 0.395-0.453 0.144-0.801 0.324-1.043 0.543-0.383 0.359-0.683 0.633-0.902 0.828-0.406 0.312-0.766 0.492-1.078 0.539z" inkscape:connector-curvature="0"/>
      <path id="path310" style="fill-rule:evenodd;fill:#613f1d" d="m3.625 8.531-0.359-0.179c-0.098 0.023-0.215 0.011-0.36-0.039l-0.109 0.218c0.242 0.121 0.515 0.121 0.828 0z" inkscape:connector-curvature="0"/>
      <path id="path312" style="fill-rule:evenodd;fill:#613f1d" d="m3.914 8.965c-0.504 0.094-0.91 0.035-1.223-0.184l-0.074 0.254c0.387 0.094 0.695 0.145 0.938 0.145 0.406 0 0.863-0.11 1.367-0.324l0.109-0.036-0.504-0.074-0.613 0.219z" inkscape:connector-curvature="0"/>
      <path id="path314" style="fill-rule:evenodd;fill:#613f1d" d="m14.461 3.313c-0.309 0-0.551 0.011-0.719 0.035-0.359 0.191-0.648 0.371-0.863 0.539 0.621-0.238 1.141-0.371 1.547-0.395l0.035-0.179z" inkscape:connector-curvature="0"/>
      <path id="path316" style="fill-rule:evenodd;fill:#613f1d" d="m2.656 9.324h-0.074l-0.07 0.395c0.504-0.168 1.054-0.25 1.656-0.25 0.551 0.023 1.32-0.145 2.301-0.504 0.89-0.168 1.789-0.578 2.703-1.227 0.308-0.214 0.851-0.609 1.617-1.187 0.746-0.527 1.465-0.899 2.16-1.117l1.371-0.539v-0.286l-0.433 0.25c-1.25 0.457-2.16 0.852-2.739 1.188-0.14 0.094-0.671 0.504-1.582 1.223-0.718 0.55-1.222 0.863-1.511 0.937l-0.325 0.106c-0.578 0.242-1.128 0.398-1.656 0.468l-1.187 0.36c-0.961 0.242-1.703 0.3-2.231 0.183z" inkscape:connector-curvature="0"/>
      <path id="path318" style="fill-rule:evenodd;fill:#613f1d" d="m14.355 4.211v-0.285l-1.476 0.539c-0.313 0.117-0.695 0.336-1.152 0.648-0.672 0.453-1.043 0.707-1.118 0.754l-0.468 0.469c0.578-0.289 1.082-0.574 1.515-0.863 1.055-0.672 1.953-1.094 2.699-1.262z" inkscape:connector-curvature="0"/>
      <path id="path320" style="fill-rule:evenodd;fill:#613f1d" d="m11.547 6.516c0.07 0.144 0.047 0.215-0.074 0.215-0.285 0.074-0.336 0.011-0.141-0.18 0.168-0.145 0.348-0.238 0.539-0.285 0.215-0.075 0.348-0.051 0.395 0.07 0.097 0.266-0.204 0.527-0.899 0.793l-0.902 0.285 0.578-0.07c0.43-0.074 0.793-0.215 1.078-0.434 0.336-0.215 0.543-0.453 0.613-0.719 0.047-0.242-0.046-0.335-0.289-0.289-0.238 0.051-0.562 0.184-0.972 0.399-0.407 0.238-0.61 0.406-0.61 0.504 0 0.094 0.133 0.129 0.395 0.105 0.242-0.023 0.422-0.082 0.539-0.179 0.144-0.145 0.062-0.215-0.25-0.215z" inkscape:connector-curvature="0"/>
      <path id="path322" style="fill-rule:evenodd;fill:#613f1d" d="m6.328 9.359c-0.051 0.239-0.23 0.36-0.543 0.36l-0.574-0.145 0.285 0.145c0.219 0.07 0.422 0.07 0.613 0 0.243-0.098 0.387-0.215 0.434-0.36 0.07-0.168 0.012-0.242-0.18-0.218-0.191 0.027-0.371 0.086-0.539 0.183-0.195 0.094-0.23 0.157-0.109 0.18 0.094 0.047 0.191 0.047 0.289 0 0.07-0.023 0.117-0.047 0.141-0.074l-0.25-0.035c0.046-0.047 0.144-0.094 0.285-0.145 0.121-0.023 0.172 0.012 0.148 0.109z" inkscape:connector-curvature="0"/>
      <path id="path324" style="fill-rule:evenodd;fill:#cf8740" d="m8.449 9.719c-1.679 0.695-3.168 1.07-4.461 1.117l-1.48-0.145c0.195 0.454 0.543 0.84 1.047 1.153 0.48 0.285 0.961 0.492 1.437 0.609 0.219 0.051 0.399 0.074 0.543 0.074l1.223-0.218c1.176-0.285 2.617-0.825 4.32-1.618 2.449-1.152 4.285-2.328 5.508-3.527l-2.266-1.187c-1.851 1.656-3.804 2.902-5.871 3.742z" inkscape:connector-curvature="0"/>
      <path id="path326" style="fill-rule:evenodd;fill:#ab6f34" d="m5.137 12.492c0.554-0.191 1.093-0.254 1.621-0.183l0.035 0.039 1.227-0.399-1.516 0.11c-0.695 0.047-1.27 0.156-1.727 0.324l0.36 0.109z" inkscape:connector-curvature="0"/>
      <path id="path328" style="fill-rule:evenodd;fill:#ab6f34" d="m7.012 10.438c0.336-0.141 0.597-0.297 0.793-0.465l-0.973 0.359c-0.219 0.168-0.492 0.25-0.828 0.25h-0.109l-0.54 0.109c0.79 0 1.344-0.085 1.657-0.253z" inkscape:connector-curvature="0"/>
      <path id="path330" style="fill-rule:evenodd;fill:#ab6f34" d="m7.98 11.555c-1.484 0.047-2.542 0.179-3.168 0.394l-0.683 0.219 0.324 0.106c0.77-0.36 1.465-0.54 2.09-0.54l2.16-0.035 0.934-0.359-1.657 0.215z" inkscape:connector-curvature="0"/>
      <path id="path332" style="fill-rule:evenodd;fill:#ab6f34" d="m14.641 6.156-0.25-0.144-0.539 0.648c-0.696 0.817-1.586 1.356-2.664 1.617l-0.829 0.504 1.332-0.285c0.985-0.312 1.825-0.914 2.52-1.801l0.43-0.539z" inkscape:connector-curvature="0"/>
      <path id="path334" style="fill-rule:evenodd;fill:#ab6f34" d="m8.668 11.051c-2.883 0.457-4.453 0.73-4.719 0.828l-0.215 0.07 0.215 0.11 0.324-0.071c0.145-0.023 0.661-0.144 1.551-0.359 0.934-0.219 1.703-0.336 2.301-0.359 0.648-0.028 1.223-0.098 1.73-0.219 0.192-0.047 0.649-0.203 1.368-0.469l0.25-0.07c0.578-0.289 1.273-0.672 2.089-1.153 0.168-0.144 0.575-0.55 1.223-1.222 0.578-0.625 0.996-1.031 1.262-1.227l-0.109-0.07-0.719 0.504c-0.098 0.07-0.481 0.457-1.153 1.152-0.578 0.574-1.019 0.961-1.332 1.153-0.386 0.238-1.019 0.515-1.91 0.828-0.863 0.285-1.582 0.48-2.156 0.574z" inkscape:connector-curvature="0"/>
      <path id="path336" style="fill-rule:evenodd;fill:#ab6f34" d="m9.855 10.547c-0.023 0-1.609 0.277-4.753 0.828-0.864 0.121-1.414 0.254-1.657 0.395l0.11 0.074c0.383-0.145 0.961-0.278 1.726-0.395 2.547-0.359 4.215-0.683 5.004-0.972 0.527-0.196 1.094-0.375 1.692-0.543 0.41-0.192 0.867-0.563 1.371-1.114 0.816-0.961 1.593-1.656 2.34-2.089l-0.145-0.106-0.613 0.395c-0.121 0.093-0.817 0.781-2.086 2.05-0.219 0.239-0.66 0.516-1.336 0.829-0.598 0.289-1.149 0.503-1.653 0.648z" inkscape:connector-curvature="0"/>
      <path id="path338" style="fill-rule:evenodd;fill:#ab6f34" d="m15.938 7.703 0.503-0.613-0.214-0.106c-0.219 0.168-0.372 0.336-0.469 0.504l-0.469 0.719 0.649-0.504z" inkscape:connector-curvature="0"/>
      <path id="path340" style="fill-rule:evenodd;fill:#ab6f34" d="m2.797 10.762-0.215 0.109 0.109 0.18 0.789-0.215-0.683-0.074z" inkscape:connector-curvature="0"/>
      <path id="path342" style="fill-rule:evenodd;fill:#ab6f34" d="m8.449 10.043c-0.672 0.359-1.117 0.574-1.332 0.648-0.238 0.098-0.887 0.204-1.945 0.325-1.102 0.121-1.75 0.203-1.942 0.25l-0.289 0.074 0.219 0.215c0.168-0.094 0.453-0.168 0.863-0.215 0.336-0.074 0.981-0.156 1.942-0.25 0.89-0.149 1.535-0.324 1.945-0.543 1.246-0.672 2.34-1.188 3.278-1.547 1.605-0.601 2.843-1.332 3.707-2.195l0.359-0.324-0.215-0.145c-0.312 0.383-0.637 0.719-0.973 1.008-0.41 0.312-1.031 0.672-1.871 1.082-0.816 0.383-1.515 0.672-2.09 0.863-0.406 0.141-0.96 0.395-1.656 0.754z" inkscape:connector-curvature="0"/>
      <path id="path344" style="fill-rule:evenodd;fill:#ab6f34" d="m9.891 10.152c-0.098-0.023-0.059-0.097 0.109-0.218 0.191-0.145 0.492-0.285 0.898-0.43 0.383-0.168 0.602-0.242 0.649-0.215 0.047 0.02 0 0.082-0.145 0.18-0.144 0.094-0.289 0.168-0.433 0.215-0.117 0.023-0.168 0.011-0.141-0.035 0.024-0.051 0.047-0.086 0.07-0.11-0.144 0.047-0.277 0.133-0.394 0.25-0.074 0.098 0 0.121 0.215 0.074s0.445-0.132 0.683-0.254c0.289-0.14 0.516-0.285 0.684-0.429 0.191-0.192 0.168-0.289-0.074-0.289-0.262 0.023-0.778 0.23-1.547 0.613-0.793 0.383-1.211 0.637-1.258 0.758-0.027 0.094 0.168 0.105 0.574 0.035 0.387-0.074 0.793-0.184 1.227-0.324 0.695-0.219 1.199-0.504 1.512-0.864-0.625 0.504-1.332 0.829-2.125 0.969-0.29 0.047-0.457 0.074-0.504 0.074z" inkscape:connector-curvature="0"/>
      <g id="g346">
        <g id="g348">
          <g id="g354">
            <path id="path362" style="fill-rule:evenodd;fill:url(#linearGradient356)" d="m16.586 3.024-1.656 0.214c-0.145 0.145-0.25 0.555-0.325 1.227-0.046 0.359-0.058 0.684-0.035 0.969l0.071 0.363 4.07-0.758c1.773-0.406 3.012-0.805 3.707-1.187-0.07-1.25-0.109-1.957-0.109-2.125-0.262-0.118-0.621-0.383-1.079-0.789-1.656 1.054-3.203 1.75-4.644 2.086z" inkscape:connector-curvature="0"/>
          </g>
        </g>
      </g>
      <g id="g364">
        <g id="g366">
          <g id="g372">
            <path id="path380" style="fill-rule:evenodd;fill:url(#linearGradient374)" d="m20.797 2.484 0.039 0.25 0.754 1.188 0.828-0.106c-0.07-1.25-0.109-1.945-0.109-2.089-0.094-0.047-0.418-0.286-0.973-0.719l-0.141 0.469c-0.027 0.093-0.074 0.203-0.144 0.324-0.098 0.144-0.156 0.238-0.18 0.289-0.047 0.094-0.074 0.226-0.074 0.394z" inkscape:connector-curvature="0"/>
          </g>
        </g>
      </g>
      <g id="g382">
        <g id="g384">
          <g id="g390">
            <path id="path400" style="fill-rule:evenodd;fill:url(#linearGradient392)" d="m22.418 3.887c0-0.215-0.262-0.41-0.793-0.578-0.527-0.168-0.789-0.36-0.789-0.575l-6.195 3.098 1.91 0.969 5.867-2.914z" inkscape:connector-curvature="0"/>
          </g>
        </g>
      </g>
      <g id="g402">
        <g id="g404">
          <g id="g410">
            <path id="path420" style="fill-rule:evenodd;fill:url(#linearGradient412)" d="m22.418 3.887c0-0.215-0.289-0.41-0.863-0.578-0.555-0.141-0.828-0.321-0.828-0.539l-5.114 2.558c0.672 0.453 1.633 0.621 2.879 0.504l3.926-1.945z" inkscape:connector-curvature="0"/>
          </g>
        </g>
      </g>
    </g>
  </g>
<metadata><rdf:RDF><cc:Work><dc:format>image/svg+xml</dc:format><dc:type rdf:resource="http://purl.org/dc/dcmitype/StillImage"/><cc:license rdf:resource="http://creativecommons.org/licenses/publicdomain/"/><dc:publisher><cc:Agent rdf:about="http://openclipart.org/"><dc:title>Openclipart</dc:title></cc:Agent></dc:publisher></cc:Work><cc:License rdf:about="http://creativecommons.org/licenses/publicdomain/"><cc:permits rdf:resource="http://creativecommons.org/ns#Reproduction"/><cc:permits rdf:resource="http://creativecommons.org/ns#Distribution"/><cc:permits rdf:resource="http://creativecommons.org/ns#DerivativeWorks"/></cc:License></rdf:RDF></metadata></svg>
