<svg id="publicdomainvectors.org" xmlns="http://www.w3.org/2000/svg" viewBox="0 0 596.97 413.5"><defs><style>.cls-1,.cls-4{fill:#8f3c1e;}.cls-2{fill:#bd5027;}.cls-10,.cls-2,.cls-3,.cls-4,.cls-5,.cls-6,.cls-7,.cls-8,.cls-9{fill-rule:evenodd;}.cls-3{fill:#a34323;}.cls-5{fill:#fab487;}.cls-6{fill:#f9a570;}.cls-7{fill:#eb772f;}.cls-8{fill:#d46527;}.cls-9{fill:#d46127;}.cls-10{fill:#fab283;}</style></defs><ellipse class="cls-1" cx="298.48" cy="396.85" rx="298.48" ry="16.65"/><path class="cls-2" d="M469.49,201.63c76,93.89,79,217.53,6.55,276.16S283.3,507.84,207.27,414s-79-217.54-6.55-276.17S393.46,107.73,469.49,201.63Z" transform="translate(-32.64 -107.33)"/><path class="cls-3" d="M469.49,201.63c76,93.89,79,217.53,6.55,276.16S283.3,507.84,207.27,414c-31.92-39.42-50.94-84.08-56.93-127,3.26,10.35,17.22,9,22.58-7.88l197.57,64.47C424.9,421.77,550.89,333.23,469.49,201.63Z" transform="translate(-32.64 -107.33)"/><path class="cls-4" d="M492.54,461.86A131,131,0,0,1,476,477.79c-72.41,58.64-192.74,30-268.77-63.84-31.92-39.42-50.94-84.08-56.93-127,3.26,10.35,17.22,9,22.58-7.88l14.72,4.8c34.76,62.32,66.49,124.61,116,187C371.58,503.3,437.83,507.29,492.54,461.86Z" transform="translate(-32.64 -107.33)"/><path class="cls-5" d="M344.14,303.12c48.65,60.08,59.38,132,24,160.69S264.56,467,215.92,407s-59.38-132-24-160.69S295.5,243,344.14,303.12Z" transform="translate(-32.64 -107.33)"/><path class="cls-6" d="M182,349.77h0c42.29-40.95,68.57-85.59,32.74-114,34.75-7,82.76,15.13,121.19,57.81Z" transform="translate(-32.64 -107.33)"/><path class="cls-6" d="M264.8,452h0c48.85-32.85,98-49.27,118.33-8.31,14.06-32.54,2.41-84.1-31.34-130.56Z" transform="translate(-32.64 -107.33)"/><path class="cls-7" d="M378,360.3,197.17,506.74,114.41,404.53,295.26,258.09h0A228.73,228.73,0,0,1,378,360.29Z" transform="translate(-32.64 -107.33)"/><path class="cls-8" d="M378,360.3l-49.38,40c30.08-40.66-21.39-114.18-56.21-123.71l22.83-18.49h0A228.73,228.73,0,0,1,378,360.29Z" transform="translate(-32.64 -107.33)"/><path class="cls-6" d="M184.46,432.42c22.85,28.23,28.54,61.5,12.71,74.32s-47.19.33-70-27.9-28.55-61.49-12.72-74.31S161.6,404.2,184.46,432.42Z" transform="translate(-32.64 -107.33)"/><path class="cls-6" d="M255.92,335,206.5,377.29l-49.42,42.28-2.21-2.73-2.21-2.73,51.63-39.54L255.92,335Zm-82.18,42.36-21.9,16-21.91,16,1.75,2.15,1.74,2.16,20.16-18.11,20.16-18.11Zm97.92,37.47L231.4,445.79l-40.27,30.94,1.63,2,1.63,2L233,447.8l38.63-32.95ZM222.9,432l-17.52,15.76-17.52,15.76-1.53-1.9-1.54-1.9,19.05-13.86L222.9,432Zm-3.53-29.5-27.45,19-27.46,19,3.14,3.88,3.14,3.88,24.32-22.9Z" transform="translate(-32.64 -107.33)"/><path class="cls-9" d="M337.86,123.92c66.3,17.71,111.7,72.44,106.34,92.49s-50.93-31-117.24-48.74-128.22,4.67-122.86-15.38S271.55,106.22,337.86,123.92Z" transform="translate(-32.64 -107.33)"/><path class="cls-10" d="M327.3,127.17c10.33,3.58,17.2,10.8,15.36,16.13s-11.72,6.73-22.05,3.15-17.2-10.8-15.35-16.13,11.72-6.73,22-3.15Zm40.39,17c6,2.1,9.84,6.92,8.5,10.78s-7.31,5.28-13.35,3.19-9.84-6.92-8.5-10.78S361.66,142.07,367.69,144.16Z" transform="translate(-32.64 -107.33)"/><path class="cls-2" d="M526.79,354c38.68,47.76,40.17,110.66,3.34,140.48S432.08,509.78,393.41,462s-40.17-110.65-3.33-140.48S488.12,306.25,526.79,354Z" transform="translate(-32.64 -107.33)"/><path class="cls-3" d="M526.79,354c38.68,47.76,40.17,110.66,3.34,140.48S432.08,509.78,393.41,462c-16.24-20.05-25.92-42.77-29-64.59,1.65,5.27,8.76,4.59,11.48-4l100.5,32.79C504.11,466,568.2,421,526.79,354Z" transform="translate(-32.64 -107.33)"/><path class="cls-4" d="M538.52,486.38a67.81,67.81,0,0,1-8.39,8.11c-36.84,29.83-98.05,15.29-136.72-32.48-16.24-20.05-25.92-42.77-29-64.59,1.65,5.27,8.76,4.59,11.48-4l7.49,2.44c17.68,31.7,33.83,63.39,59,95.14C477,507.47,510.69,509.49,538.52,486.38Z" transform="translate(-32.64 -107.33)"/><path class="cls-5" d="M463,405.64c24.75,30.56,30.2,67.15,12.19,81.74s-52.67,1.63-77.41-28.93-30.21-67.15-12.19-81.74S438.29,375.08,463,405.64Z" transform="translate(-32.64 -107.33)"/><path class="cls-6" d="M380.58,429.37h0c21.51-20.83,34.88-43.54,16.66-58,17.68-3.56,42.1,7.69,61.64,29.4Z" transform="translate(-32.64 -107.33)"/><path class="cls-6" d="M422.67,481.36h0c24.85-16.71,49.84-25.06,60.19-4.23,7.16-16.55,1.23-42.77-15.94-66.41Z" transform="translate(-32.64 -107.33)"/><path class="cls-7" d="M480.27,434.72l-92,74.49-42.1-52,92-74.49h0a116.36,116.36,0,0,1,42.09,52Z" transform="translate(-32.64 -107.33)"/><path class="cls-8" d="M480.27,434.72l-25.12,20.34c15.3-20.68-10.88-58.08-28.6-62.93l11.62-9.4h0a116.36,116.36,0,0,1,42.09,52Z" transform="translate(-32.64 -107.33)"/><path class="cls-6" d="M381.8,471.41c11.63,14.36,14.52,31.29,6.47,37.8s-24,.17-35.63-14.19-14.52-31.28-6.47-37.8S370.18,457.05,381.8,471.41Z" transform="translate(-32.64 -107.33)"/><path class="cls-6" d="M418.16,421.86,393,443.37l-25.14,21.5-1.13-1.38-1.12-1.39L391.89,442l26.27-20.12Zm-41.81,21.55-11.14,8.12-11.14,8.11.89,1.1.88,1.1,10.26-9.21,10.25-9.22Zm49.81,19.06-20.48,15.74L385.2,494l.83,1,.83,1,19.65-16.76,19.65-16.76Zm-24.8,8.74-8.91,8-8.91,8-.79-1-.78-1,9.7-7.05,9.69-7.05Zm-1.8-15-14,9.68-14,9.67,1.6,2,1.6,2,12.37-11.65Z" transform="translate(-32.64 -107.33)"/><path class="cls-9" d="M459.83,314.48c33.73,9,56.83,36.85,54.1,47S488,345.75,454.29,336.74s-65.22,2.37-62.5-7.83S426.11,305.48,459.83,314.48Z" transform="translate(-32.64 -107.33)"/><path class="cls-10" d="M454.47,316.13c5.25,1.83,8.75,5.5,7.81,8.21s-6,3.43-11.22,1.6-8.75-5.49-7.81-8.2,6-3.43,11.22-1.61ZM475,324.78c3.07,1.06,5,3.52,4.32,5.48s-3.72,2.69-6.79,1.62-5-3.52-4.32-5.48S471.94,323.71,475,324.78Z" transform="translate(-32.64 -107.33)"/></svg>