<?xml version="1.0" encoding="utf-8"?>
<!-- Generator: Adobe Illustrator 25.0.0, SVG Export Plug-In . SVG Version: 6.00 Build 0)  -->
<svg version="1.1"
	 id="svg2" inkscape:version="0.48+devel r9935" sodipodi:docname="Documento nuevo 1" xmlns:cc="http://creativecommons.org/ns#" xmlns:dc="http://purl.org/dc/elements/1.1/" xmlns:inkscape="http://www.inkscape.org/namespaces/inkscape" xmlns:ns1="http://sozi.baierouge.fr" xmlns:rdf="http://www.w3.org/1999/02/22-rdf-syntax-ns#" xmlns:sodipodi="http://sodipodi.sourceforge.net/DTD/sodipodi-0.dtd" xmlns:svg="http://www.w3.org/2000/svg"
	 xmlns="http://www.w3.org/2000/svg" xmlns:xlink="http://www.w3.org/1999/xlink" x="0px" y="0px" viewBox="0 0 115.7 106"
	 style="enable-background:new 0 0 115.7 106;" xml:space="preserve">
<style type="text/css">
	.st0{fill:url(#SVGID_1_);}
	.st1{fill:url(#SVGID_2_);}
	.st2{fill:url(#SVGID_3_);}
	.st3{fill:url(#SVGID_4_);}
	.st4{fill:url(#SVGID_5_);}
	.st5{fill:url(#SVGID_6_);}
	.st6{fill:url(#SVGID_7_);}
	.st7{fill:url(#SVGID_8_);}
	.st8{fill:url(#SVGID_9_);}
	.st9{opacity:0.4;fill:#D9BEA5;}
	.st10{opacity:0.3;fill:#F7D1A5;}
	.st11{opacity:0.3;fill:#FFE3C2;}
	.st12{opacity:0.25;fill:#FFE3C2;}
	.st13{opacity:0.21;fill:#FFE3C2;}
	.st14{opacity:0.45;fill:#CFAE8E;}
	.st15{opacity:0.44;fill:#CFAE8E;}
	.st16{opacity:0.8;fill:#CFAE8E;}
	.st17{opacity:0.36;fill:#FFE3C2;}
	.st18{opacity:0.91;fill:#CFAE8E;}
	.st19{opacity:0.32;fill:#FFE3C2;}
	.st20{opacity:0.22;fill:#FFE3C2;}
	.st21{opacity:0.6;fill:#CFAE8E;}
	.st22{fill:#FFEAC4;}
	.st23{fill:#C29457;}
	.st24{fill:#EDD5A1;}
	.st25{fill:#D4B26A;}
	.st26{fill:#C28D57;}
	.st27{fill:#E0BA70;}
</style>
<sodipodi:namedview  bordercolor="#666666" borderopacity="1.0" id="base" inkscape:current-layer="layer1" inkscape:cx="273.52498" inkscape:cy="614.84559" inkscape:document-units="px" inkscape:pageopacity="0.0" inkscape:pageshadow="2" inkscape:window-height="787" inkscape:window-maximized="0" inkscape:window-width="1440" inkscape:window-x="0" inkscape:window-y="0" inkscape:zoom="0.42014768" pagecolor="#ffffff" showgrid="false">
	</sodipodi:namedview>
<g>
	<linearGradient id="SVGID_1_" gradientUnits="userSpaceOnUse" x1="94.9267" y1="54.5663" x2="120.2509" y2="90.733">
		<stop  offset="0" style="stop-color:#C99766"/>
		<stop  offset="1" style="stop-color:#A66128"/>
	</linearGradient>
	<path class="st0" d="M114.3,90c0.6-2,1.1-4.1,1.4-6.2c0-7-0.2-19.6-0.1-21.1c0.2-1.5-0.4-13.3-0.9-18.8c-0.1-0.2-0.2-0.4-0.3-0.6
		c-0.3-0.5-0.7-0.9-1.2-1.3c-0.1-0.1-0.1-0.1-0.2-0.2c-3.9,2.6-15.6,12.9-17.1,14.3c0,0,5.3,40.2,5.4,46.8c1.1-0.6,2.2-1.2,3.2-2
		c1.9-1.9,3.9-4.4,4.6-5.5c0.8-1.4,3.3-3.6,5-5.2C114.2,90.2,114.3,90.1,114.3,90z"/>
	<linearGradient id="SVGID_2_" gradientUnits="userSpaceOnUse" x1="24.3242" y1="35.6598" x2="43.6592" y2="63.2729">
		<stop  offset="0" style="stop-color:#E8C8A5"/>
		<stop  offset="1" style="stop-color:#DBBE95"/>
	</linearGradient>
	<path class="st1" d="M52.2,43.4c-2.3-0.6-12.8-3.6-14.4-3.6c-1.5,0-19,5.9-21.7,6.7c-2,0.6-10,3.5-14,5.1C2,51.8,1.8,52,1.6,52.2
		c3.4,0.3,11.1,2.3,15.2,3.2c5.4,1.1,20.9,3.5,21.3,4.2c0,0,0,0.1,0.1,0.3c3.9-1.6,12.6-5.4,13.5-6c1.2-0.8,14.4-6.9,14.9-6.7
		C66.8,45.9,54.5,43.9,52.2,43.4z"/>
	<linearGradient id="SVGID_3_" gradientUnits="userSpaceOnUse" x1="40.5153" y1="58.2292" x2="64.3459" y2="92.2629">
		<stop  offset="0" style="stop-color:#CFA472"/>
		<stop  offset="1" style="stop-color:#AD6E38"/>
	</linearGradient>
	<path class="st2" d="M69.3,67.5c0-1.9-2.1-20.1-2.7-20.3C66,47,52.8,53.1,51.7,53.9c-0.9,0.6-9.7,4.4-13.5,6
		c0.4,2.4,0.7,19.5,0.9,22.6c0.2,2.9,1,19.3,0.8,23.2c1-0.1,2-0.3,3-0.5c4.5-2.4,12.2-7.5,13.8-8.5c2.1-1.3,12.6-7.3,12.8-8.2
		C69.7,87.4,69.3,69.4,69.3,67.5z"/>
	<linearGradient id="SVGID_4_" gradientUnits="userSpaceOnUse" x1="2.065" y1="51.0662" x2="40.4825" y2="105.9321">
		<stop  offset="0" style="stop-color:#F7DCB4"/>
		<stop  offset="1" style="stop-color:#CC986A"/>
	</linearGradient>
	<path class="st3" d="M39,82.5c-0.2-3.1-0.5-20.2-0.9-22.6c0-0.1,0-0.2-0.1-0.3c-0.4-0.8-15.9-3.1-21.3-4.2
		c-4.1-0.9-11.8-3-15.2-3.2c-0.1,0.2-0.3,0.3-0.4,0.5c-0.8,1-1,2.3-1.2,3.6c0.1,5.7,0.4,16.3,0.5,18C0.6,76,1.4,87.6,2,92.9
		c0.5,1,0.9,2.1,1.5,3c0,0,0.1,0.1,0.1,0.1c3.2,1.2,11.7,3.9,12.8,4.3c1,0.3,13.8,4,20,5.5c1.2,0,2.3-0.1,3.5-0.2
		C40,101.8,39.2,85.4,39,82.5z"/>
	<linearGradient id="SVGID_5_" gradientUnits="userSpaceOnUse" x1="78.6196" y1="39.9678" x2="92.898" y2="60.3595">
		<stop  offset="0" style="stop-color:#C99A62"/>
		<stop  offset="1" style="stop-color:#D9A77C"/>
	</linearGradient>
	<path class="st4" d="M110.8,41.2c-0.3,0-0.6-0.1-0.8-0.2c-5.3,0.3-13.7,1.3-15.9,1.4c-3.3,0.2-14.6,0-16.1,0.6
		c-1.5,0.6-9.2,5.6-11.9,7.1c-2,1.1-7.3,3.9-9.7,5.5c4.9-0.2,19.1,1,21,0.8c2.2-0.2,20.1-0.9,21.6-0.3c1.8-1.7,5-4.9,7-7
		c2.1-2.3,5.4-5.9,7.2-7.3c-0.3-0.3-0.7-0.5-1.1-0.6H110.8z"/>
	<linearGradient id="SVGID_6_" gradientUnits="userSpaceOnUse" x1="59.3544" y1="52.5784" x2="97.2845" y2="106.7482">
		<stop  offset="0" style="stop-color:#E3B886"/>
		<stop  offset="1" style="stop-color:#AD6A40"/>
	</linearGradient>
	<path class="st5" d="M99.8,78.8C99.6,77.1,99.4,57,99,56.2c0,0,0,0-0.1-0.1c-1.4-0.7-19.3,0.1-21.6,0.3c-1.9,0.2-16.1-1-21-0.8
		c-0.9,0-1.5,0.1-1.6,0.3c-0.6,0.9,0.2,20.5,0.4,22.8c0.2,2,0.8,17.6,1.3,22.4c0,0.1,0.1,0.2,0.1,0.3c0,0.1,0,0.2,0.1,0.3
		c0.1,0.1,0.3,0.2,0.4,0.4l0.4,0.5c0.2,0.1,0.4,0.2,0.6,0.3c4.1,0.6,16.7,0.8,19,0.8c2.2,0,16.8,0.5,22.3,0.5
		c0.8-0.3,1.5-0.7,2.3-1.1C101.8,98.5,99.9,80.4,99.8,78.8z"/>
	<linearGradient id="SVGID_7_" gradientUnits="userSpaceOnUse" x1="67.4298" y1="13.3924" x2="90.9786" y2="47.0236">
		<stop  offset="0" style="stop-color:#DBB281"/>
		<stop  offset="1" style="stop-color:#B8753B"/>
	</linearGradient>
	<path class="st6" d="M93.4,22.9c-0.1-1.3-0.1-9.8-0.2-15.2c-0.3-1.6-0.9-3.1-1.8-4.3c-4,1.6-14.1,7-16.2,7.6
		c-2,0.6-7.4,2.9-10.3,4.2c0.4,2.1,2.1,19.8,1.7,21.1c-0.3,1.2,1.6,18.5,1.6,22.7c0.6-0.2,1.3-0.4,1.9-0.6c1.6-0.7,3.2-1.6,4.8-2.1
		c3.6-2,7.3-4.2,7.8-4.5c1-0.6,11.3-6.1,11.5-7.5C94.4,43,93.6,24.8,93.4,22.9z"/>
	<linearGradient id="SVGID_8_" gradientUnits="userSpaceOnUse" x1="51.2943" y1="-6.2594" x2="69.3552" y2="19.5342">
		<stop  offset="0" style="stop-color:#E8C8A5"/>
		<stop  offset="1" style="stop-color:#EDD4AF"/>
	</linearGradient>
	<path class="st7" d="M90.3,2.1c-4.5-0.7-13.2-1.4-15.4-1.5c-3.1-0.2-16.7-0.8-18-0.6c-1.3,0.2-11.3,2.9-15.1,4.4
		c-2.9,1.1-8.9,3.3-11.9,4.6c-0.1,0.1-0.1,0.2-0.2,0.2c-0.2,0.2-0.3,0.4-0.4,0.7c3.5,0.2,14,2.2,16.1,2.3c2.5,0.2,19.2,1.5,19.6,2.7
		c0,0,0,0.1,0,0.1c2.9-1.3,8.3-3.6,10.3-4.2c2.2-0.6,12.3-6,16.2-7.6C91.1,2.9,90.7,2.5,90.3,2.1z"/>
	<linearGradient id="SVGID_9_" gradientUnits="userSpaceOnUse" x1="30.2021" y1="8.5506" x2="66.7963" y2="60.8126">
		<stop  offset="0" style="stop-color:#FFE6C2"/>
		<stop  offset="1" style="stop-color:#D19B60"/>
	</linearGradient>
	<path class="st8" d="M64.5,59.4c0.2,0,0.4,0.1,0.6,0.1c1.1-0.1,2.2-0.3,3.2-0.5c0-4.2-2-21.5-1.6-22.7c0.4-1.3-1.2-19.1-1.7-21.1
		c0-0.1,0-0.1,0-0.1c-0.4-1.1-17.1-2.5-19.6-2.7c-2.1-0.2-12.6-2.1-16.1-2.3c-0.7,1.2-1.1,2.6-1,4.2c0,0.2,0,0.4,0,0.6
		c0.4,6.2,1.2,16.3,1.6,17.5c0.6,1.7,0.8,19.9,1.1,20.5c0.4,0.6,15.5,4,17.1,3.8c1.1-0.1,9.8,1.9,15.4,2.9
		C63.8,59.4,64.1,59.3,64.5,59.4z"/>
	<circle class="st9" cx="106.7" cy="64" r="1.4"/>
	<path class="st9" d="M28.1,73.2c0-0.9,0.8-1.7,1.7-1.7c0.9,0,1.7,0.8,1.7,1.7c0,0.9-0.8,1.7-1.7,1.7C28.9,74.9,28.1,74.1,28.1,73.2
		z"/>
	<circle class="st9" cx="75.5" cy="46.7" r="1.6"/>
	<path class="st9" d="M14.3,50.8c0-0.7,0.6-1.3,1.3-1.3c0.7,0,1.3,0.6,1.3,1.3c0,0.7-0.6,1.3-1.3,1.3C14.9,52.1,14.3,51.5,14.3,50.8
		z"/>
	<path class="st9" d="M49.2,16.6c0-0.8,0.6-1.4,1.4-1.4s1.4,0.6,1.4,1.4c0,0.8-0.6,1.4-1.4,1.4S49.2,17.4,49.2,16.6z"/>
	<path class="st9" d="M24.8,53.5c0-0.8,0.7-1.5,1.5-1.5c0.8,0,1.5,0.7,1.5,1.5S27.1,55,26.3,55C25.5,55,24.8,54.3,24.8,53.5z"/>
	<path class="st9" d="M86.9,75.4c0-0.8,0.7-1.5,1.5-1.5c0.8,0,1.5,0.7,1.5,1.5c0,0.8-0.7,1.5-1.5,1.5C87.5,76.9,86.9,76.2,86.9,75.4
		z"/>
	<circle class="st9" cx="70.7" cy="98.5" r="1.4"/>
	<path class="st9" d="M71.5,72.3c0-0.8,0.6-1.4,1.4-1.4c0.8,0,1.4,0.6,1.4,1.4c0,0.8-0.6,1.4-1.4,1.4C72.1,73.7,71.5,73.1,71.5,72.3
		z"/>
	<circle class="st9" cx="67.8" cy="86" r="1.6"/>
	<path class="st9" d="M68.3,22.9c0-0.9,0.7-1.6,1.6-1.6s1.6,0.7,1.6,1.6c0,0.9-0.7,1.6-1.6,1.6S68.3,23.7,68.3,22.9z"/>
	<path class="st9" d="M44.9,71.9c0-0.7,0.6-1.3,1.3-1.3c0.7,0,1.3,0.6,1.3,1.3c0,0.7-0.6,1.3-1.3,1.3C45.5,73.2,44.9,72.6,44.9,71.9
		z"/>
	<path class="st9" d="M54.5,21.8c0-0.9,0.7-1.6,1.6-1.6c0.9,0,1.6,0.7,1.6,1.6s-0.7,1.6-1.6,1.6C55.2,23.3,54.5,22.6,54.5,21.8z"/>
	<path class="st9" d="M88.1,60.7c0-0.8,0.7-1.5,1.5-1.5c0.8,0,1.5,0.7,1.5,1.5c0,0.8-0.7,1.5-1.5,1.5C88.8,62.2,88.1,61.5,88.1,60.7
		z"/>
	<path class="st9" d="M108.6,84.3c0-0.7,0.6-1.3,1.3-1.3c0.7,0,1.3,0.6,1.3,1.3s-0.6,1.3-1.3,1.3C109.2,85.6,108.6,85,108.6,84.3z"
		/>
	<path class="st9" d="M9.7,63.5c0-0.8,0.7-1.5,1.5-1.5c0.8,0,1.5,0.7,1.5,1.5S12,65,11.1,65C10.3,65,9.7,64.4,9.7,63.5z"/>
	<path class="st9" d="M32.2,91.4c0-0.8,0.6-1.4,1.4-1.4c0.8,0,1.4,0.6,1.4,1.4c0,0.8-0.6,1.4-1.4,1.4C32.9,92.9,32.2,92.2,32.2,91.4
		z"/>
	<path class="st9" d="M40.2,96.1c0-0.8,0.7-1.5,1.5-1.5c0.8,0,1.5,0.7,1.5,1.5c0,0.8-0.7,1.5-1.5,1.5C40.9,97.6,40.2,96.9,40.2,96.1
		z"/>
	<path class="st9" d="M75.9,15.3c0-0.8,0.6-1.4,1.4-1.4c0.8,0,1.4,0.6,1.4,1.4c0,0.8-0.6,1.4-1.4,1.4C76.5,16.7,75.9,16.1,75.9,15.3
		z"/>
	<path class="st9" d="M37,64.9c0-0.8,0.7-1.5,1.5-1.5c0.8,0,1.5,0.7,1.5,1.5c0,0.8-0.7,1.5-1.5,1.5C37.7,66.4,37,65.7,37,64.9z"/>
	<path class="st9" d="M81.8,73.6c0-0.9,0.7-1.6,1.6-1.6c0.9,0,1.6,0.7,1.6,1.6c0,0.9-0.7,1.6-1.6,1.6C82.5,75.1,81.8,74.4,81.8,73.6
		z"/>
	<path class="st9" d="M40.2,26.4c0-0.8,0.6-1.4,1.4-1.4c0.8,0,1.4,0.6,1.4,1.4c0,0.8-0.6,1.4-1.4,1.4C40.9,27.8,40.2,27.2,40.2,26.4
		z"/>
	<path class="st9" d="M94.9,87c0-0.8,0.6-1.4,1.4-1.4c0.8,0,1.4,0.6,1.4,1.4s-0.6,1.4-1.4,1.4C95.5,88.3,94.9,87.7,94.9,87z"/>
	<circle class="st9" cx="91.2" cy="35.9" r="1.5"/>
	<path class="st9" d="M94.9,46c0-0.8,0.7-1.5,1.5-1.5c0.8,0,1.5,0.7,1.5,1.5c0,0.8-0.7,1.5-1.5,1.5C95.6,47.5,94.9,46.8,94.9,46z"/>
	<path class="st9" d="M48.1,38.8c0-1,0.8-1.7,1.7-1.7c1,0,1.7,0.8,1.7,1.7s-0.8,1.7-1.7,1.7C48.9,40.6,48.1,39.8,48.1,38.8z"/>
	<path class="st9" d="M82.1,36.3c0-0.8,0.6-1.4,1.4-1.4c0.8,0,1.4,0.6,1.4,1.4s-0.6,1.4-1.4,1.4C82.8,37.8,82.1,37.1,82.1,36.3z"/>
	<path class="st9" d="M68.3,56.1c0-0.8,0.6-1.4,1.4-1.4s1.4,0.6,1.4,1.4c0,0.8-0.6,1.4-1.4,1.4S68.3,56.9,68.3,56.1z"/>
	<circle class="st9" cx="67.8" cy="54.1" r="1.6"/>
	<path class="st9" d="M80.5,17.1c0-0.9,0.7-1.6,1.6-1.6c0.9,0,1.6,0.7,1.6,1.6c0,0.9-0.7,1.6-1.6,1.6C81.2,18.7,80.5,18,80.5,17.1z"
		/>
	<path class="st10" d="M62.9,4.4c0-0.8,0.7-1.5,1.5-1.5c0.8,0,1.5,0.7,1.5,1.5s-0.7,1.5-1.5,1.5C63.6,5.9,62.9,5.3,62.9,4.4z"/>
	<path class="st10" d="M64,23.8c0-0.8,0.6-1.4,1.4-1.4c0.8,0,1.4,0.6,1.4,1.4c0,0.8-0.6,1.4-1.4,1.4C64.6,25.2,64,24.6,64,23.8z"/>
	<circle class="st10" cx="16.4" cy="84.4" r="1.6"/>
	<circle class="st10" cx="104.3" cy="70.1" r="1.4"/>
	<path class="st10" d="M23.1,61.6c0-0.9,0.7-1.6,1.6-1.6c0.9,0,1.6,0.7,1.6,1.6c0,0.9-0.7,1.6-1.6,1.6
		C23.8,63.2,23.1,62.5,23.1,61.6z"/>
	<path class="st10" d="M71.5,49.7c0-0.8,0.7-1.5,1.5-1.5c0.8,0,1.5,0.7,1.5,1.5c0,0.8-0.7,1.5-1.5,1.5
		C72.2,51.2,71.5,50.5,71.5,49.7z"/>
	<path class="st10" d="M89.9,100.9c0-0.8,0.6-1.4,1.4-1.4s1.4,0.6,1.4,1.4c0,0.8-0.6,1.4-1.4,1.4S89.9,101.7,89.9,100.9z"/>
	<path class="st10" d="M45.6,28.3c0-0.7,0.6-1.4,1.4-1.4c0.7,0,1.4,0.6,1.4,1.4c0,0.7-0.6,1.4-1.4,1.4C46.2,29.6,45.6,29,45.6,28.3z
		"/>
	<circle class="st10" cx="64.2" cy="62.9" r="1.4"/>
	<path class="st10" d="M87.8,77.9c0-0.7,0.6-1.3,1.3-1.3c0.7,0,1.3,0.6,1.3,1.3c0,0.7-0.6,1.3-1.3,1.3
		C88.4,79.2,87.8,78.6,87.8,77.9z"/>
	<path class="st10" d="M20.3,61.5c0-0.7,0.6-1.3,1.3-1.3s1.3,0.6,1.3,1.3c0,0.7-0.6,1.3-1.3,1.3S20.3,62.2,20.3,61.5z"/>
	<path class="st10" d="M65.6,67.4c0-0.7,0.6-1.2,1.2-1.2c0.7,0,1.2,0.6,1.2,1.2c0,0.7-0.6,1.2-1.2,1.2
		C66.2,68.7,65.6,68.1,65.6,67.4z"/>
	<path class="st10" d="M14.8,89.9c0-0.9,0.7-1.6,1.6-1.6c0.9,0,1.6,0.7,1.6,1.6c0,0.9-0.7,1.6-1.6,1.6
		C15.5,91.4,14.8,90.7,14.8,89.9z"/>
	<path class="st10" d="M5.6,72.1c0-0.8,0.7-1.5,1.5-1.5s1.5,0.7,1.5,1.5c0,0.8-0.7,1.5-1.5,1.5S5.6,72.9,5.6,72.1z"/>
	<path class="st10" d="M43.8,67c0-0.7,0.6-1.2,1.2-1.2s1.2,0.6,1.2,1.2c0,0.7-0.6,1.2-1.2,1.2S43.8,67.7,43.8,67z"/>
	<path class="st10" d="M58,29.3c0-0.8,0.6-1.4,1.4-1.4c0.8,0,1.4,0.6,1.4,1.4s-0.6,1.4-1.4,1.4C58.6,30.8,58,30.1,58,29.3z"/>
	<circle class="st10" cx="70.9" cy="95.7" r="1.4"/>
	<path class="st10" d="M110.7,88.2c0-0.7,0.6-1.3,1.3-1.3c0.7,0,1.3,0.6,1.3,1.3s-0.6,1.3-1.3,1.3C111.3,89.5,110.7,89,110.7,88.2z"
		/>
	<path class="st10" d="M3.9,64.2c0-0.8,0.6-1.4,1.4-1.4s1.4,0.6,1.4,1.4s-0.6,1.4-1.4,1.4S3.9,65,3.9,64.2z"/>
	<path class="st10" d="M24.7,87.9c0-0.7,0.6-1.3,1.3-1.3c0.7,0,1.3,0.6,1.3,1.3s-0.6,1.3-1.3,1.3C25.3,89.2,24.7,88.7,24.7,87.9z"/>
	<path class="st10" d="M35.1,85.6c0-0.8,0.6-1.4,1.4-1.4s1.4,0.6,1.4,1.4c0,0.8-0.6,1.4-1.4,1.4S35.1,86.4,35.1,85.6z"/>
	<circle class="st10" cx="74.9" cy="4.2" r="1.6"/>
	<path class="st10" d="M34.8,60.6c0-0.8,0.6-1.4,1.4-1.4c0.8,0,1.4,0.6,1.4,1.4c0,0.8-0.6,1.4-1.4,1.4C35.4,62,34.8,61.3,34.8,60.6z
		"/>
	<path class="st10" d="M75.4,81.5c0-0.8,0.6-1.4,1.4-1.4c0.8,0,1.4,0.6,1.4,1.4c0,0.8-0.6,1.4-1.4,1.4C76,82.9,75.4,82.3,75.4,81.5z
		"/>
	<circle class="st10" cx="39.1" cy="26.2" r="1.4"/>
	<circle class="st10" cx="87.8" cy="85" r="1.4"/>
	<path class="st10" d="M72.5,84.8c0-0.8,0.6-1.4,1.4-1.4c0.8,0,1.4,0.6,1.4,1.4c0,0.8-0.6,1.4-1.4,1.4
		C73.1,86.2,72.5,85.5,72.5,84.8z"/>
	<circle class="st10" cx="101" cy="47.3" r="1.4"/>
	<circle class="st10" cx="58.2" cy="38.6" r="1.6"/>
	<circle class="st10" cx="81" cy="26.7" r="1.4"/>
	<path class="st10" d="M43.8,67c0-0.7,0.6-1.4,1.4-1.4c0.7,0,1.4,0.6,1.4,1.4c0,0.7-0.6,1.4-1.4,1.4C44.5,68.4,43.8,67.7,43.8,67z"
		/>
	<path class="st10" d="M93,6.7c-0.2-0.2-0.5-0.2-0.8-0.2c-0.8,0-1.5,0.7-1.5,1.5s0.7,1.5,1.5,1.5c0.5,0,1-0.3,1.3-0.7
		C93.4,8.1,93.2,7.4,93,6.7z"/>
	<path class="st9" d="M67.6,5.1c0-0.8,0.7-1.5,1.5-1.5c0.8,0,1.5,0.7,1.5,1.5c0,0.8-0.7,1.5-1.5,1.5C68.2,6.6,67.6,5.9,67.6,5.1z"/>
	<path class="st9" d="M82.7,93.1c0-0.8,0.7-1.5,1.5-1.5c0.8,0,1.5,0.7,1.5,1.5s-0.7,1.5-1.5,1.5C83.4,94.6,82.7,93.9,82.7,93.1z"/>
	<path class="st9" d="M44.1,92.1c0-0.9,0.7-1.6,1.6-1.6c0.9,0,1.6,0.7,1.6,1.6c0,0.9-0.7,1.6-1.6,1.6C44.9,93.7,44.1,93,44.1,92.1z"
		/>
	<path class="st9" d="M109.5,56.5c0-0.8,0.6-1.4,1.4-1.4c0.8,0,1.4,0.6,1.4,1.4c0,0.8-0.6,1.4-1.4,1.4
		C110.1,57.9,109.5,57.3,109.5,56.5z"/>
	<path class="st9" d="M10.1,81.7c0-0.9,0.8-1.7,1.7-1.7c0.9,0,1.7,0.8,1.7,1.7c0,0.9-0.8,1.7-1.7,1.7C10.9,83.4,10.1,82.7,10.1,81.7
		z"/>
	<path class="st9" d="M93.8,52.4c0-0.9,0.7-1.6,1.6-1.6c0.9,0,1.6,0.7,1.6,1.6s-0.7,1.6-1.6,1.6C94.5,53.9,93.8,53.2,93.8,52.4z"/>
	<path class="st9" d="M19.2,52.6c0-0.7,0.6-1.3,1.3-1.3c0.7,0,1.3,0.6,1.3,1.3S21.2,54,20.5,54C19.8,54,19.2,53.4,19.2,52.6z"/>
	<path class="st9" d="M38.4,42.1c0-0.7,0.6-1.3,1.3-1.3c0.7,0,1.3,0.6,1.3,1.3c0,0.7-0.6,1.3-1.3,1.3C39,43.4,38.4,42.8,38.4,42.1z"
		/>
	<circle class="st9" cx="52.7" cy="9.3" r="1.5"/>
	<path class="st9" d="M70.3,79.8c0-0.8,0.7-1.5,1.5-1.5c0.8,0,1.5,0.7,1.5,1.5c0,0.8-0.7,1.5-1.5,1.5C70.9,81.2,70.3,80.6,70.3,79.8
		z"/>
	<path class="st9" d="M67.3,98.3c0-0.8,0.6-1.4,1.4-1.4c0.8,0,1.4,0.6,1.4,1.4c0,0.8-0.6,1.4-1.4,1.4C68,99.8,67.3,99.1,67.3,98.3z"
		/>
	<path class="st9" d="M71.2,74.2c0-0.8,0.6-1.4,1.4-1.4c0.8,0,1.4,0.6,1.4,1.4c0,0.8-0.6,1.4-1.4,1.4C71.8,75.6,71.2,74.9,71.2,74.2
		z"/>
	<circle class="st9" cx="59.9" cy="50.6" r="1.7"/>
	<circle class="st9" cx="79.3" cy="18" r="1.5"/>
	<path class="st9" d="M50.2,68.7c0-0.8,0.6-1.4,1.4-1.4c0.8,0,1.4,0.6,1.4,1.4s-0.6,1.4-1.4,1.4C50.8,70.2,50.2,69.5,50.2,68.7z"/>
	<circle class="st9" cx="42.9" cy="54.7" r="1.6"/>
	<circle class="st9" cx="89.4" cy="62" r="1.5"/>
	<circle class="st9" cx="109" cy="87.3" r="1.4"/>
	<circle class="st9" cx="9.9" cy="67.3" r="1.4"/>
	<path class="st9" d="M25.3,89.4c0-0.8,0.6-1.4,1.4-1.4c0.8,0,1.4,0.6,1.4,1.4c0,0.8-0.6,1.4-1.4,1.4C26,90.8,25.3,90.1,25.3,89.4z"
		/>
	<path class="st9" d="M12.4,60.3c0-0.8,0.6-1.4,1.4-1.4c0.8,0,1.4,0.6,1.4,1.4s-0.6,1.4-1.4,1.4C13.1,61.7,12.4,61.1,12.4,60.3z"/>
	<path class="st9" d="M62.6,14.3c0-0.8,0.7-1.5,1.5-1.5c0.8,0,1.5,0.7,1.5,1.5c0,0.8-0.7,1.5-1.5,1.5C63.3,15.8,62.6,15.2,62.6,14.3
		z"/>
	<path class="st9" d="M27.8,62.8c0-0.8,0.6-1.4,1.4-1.4c0.8,0,1.4,0.6,1.4,1.4c0,0.8-0.6,1.4-1.4,1.4C28.5,64.2,27.8,63.6,27.8,62.8
		z"/>
	<path class="st9" d="M78.3,79.2c0-0.8,0.7-1.5,1.5-1.5s1.5,0.7,1.5,1.5s-0.7,1.5-1.5,1.5S78.3,80,78.3,79.2z"/>
	<path class="st9" d="M70.3,63.2c0-0.8,0.7-1.5,1.5-1.5c0.8,0,1.5,0.7,1.5,1.5c0,0.8-0.7,1.5-1.5,1.5C70.9,64.7,70.3,64,70.3,63.2z"
		/>
	<path class="st9" d="M95.4,94.3c0-0.8,0.6-1.4,1.4-1.4c0.8,0,1.4,0.6,1.4,1.4c0,0.8-0.6,1.4-1.4,1.4C96.1,95.7,95.4,95.1,95.4,94.3
		z"/>
	<circle class="st9" cx="14.7" cy="68.3" r="1.4"/>
	<path class="st9" d="M100.4,64c0-0.8,0.6-1.4,1.4-1.4c0.8,0,1.4,0.6,1.4,1.4c0,0.8-0.6,1.4-1.4,1.4C101,65.5,100.4,64.8,100.4,64z"
		/>
	<path class="st9" d="M55,38.2c0-0.9,0.8-1.7,1.7-1.7c0.9,0,1.7,0.8,1.7,1.7c0,0.9-0.8,1.7-1.7,1.7C55.7,39.8,55,39.1,55,38.2z"/>
	<path class="st9" d="M34.8,81.8c0-0.8,0.7-1.5,1.5-1.5c0.8,0,1.5,0.7,1.5,1.5c0,0.8-0.7,1.5-1.5,1.5C35.5,83.3,34.8,82.6,34.8,81.8
		z"/>
	<path class="st9" d="M24.9,76.8c0-0.9,0.7-1.5,1.5-1.5c0.9,0,1.5,0.7,1.5,1.5c0,0.9-0.7,1.5-1.5,1.5C25.5,78.4,24.9,77.7,24.9,76.8
		z"/>
	<circle class="st9" cx="34.9" cy="31.1" r="1.6"/>
	<path class="st10" d="M59,12.6c0-0.8,0.7-1.5,1.5-1.5c0.8,0,1.5,0.7,1.5,1.5c0,0.8-0.7,1.5-1.5,1.5C59.7,14.1,59,13.4,59,12.6z"/>
	<path class="st10" d="M78.9,93.2c0-0.8,0.6-1.4,1.4-1.4c0.8,0,1.4,0.6,1.4,1.4c0,0.8-0.6,1.4-1.4,1.4C79.6,94.6,78.9,94,78.9,93.2z
		"/>
	<path class="st10" d="M45.2,48.6c0-0.8,0.7-1.5,1.5-1.5c0.8,0,1.5,0.7,1.5,1.5c0,0.8-0.7,1.5-1.5,1.5
		C45.9,50.1,45.2,49.5,45.2,48.6z"/>
	<path class="st10" d="M97.1,60.6c0-0.8,0.6-1.4,1.4-1.4s1.4,0.6,1.4,1.4c0,0.8-0.6,1.4-1.4,1.4S97.1,61.4,97.1,60.6z"/>
	<path class="st10" d="M7.4,76.9c0-0.9,0.7-1.5,1.5-1.5c0.9,0,1.5,0.7,1.5,1.5S9.8,78.4,9,78.4C8.1,78.4,7.4,77.7,7.4,76.9z"/>
	<path class="st10" d="M59.7,41.2c0-0.8,0.6-1.4,1.4-1.4c0.8,0,1.4,0.6,1.4,1.4s-0.6,1.4-1.4,1.4C60.3,42.5,59.7,41.9,59.7,41.2z"/>
	<circle class="st10" cx="19.8" cy="48.1" r="1.4"/>
	<circle class="st10" cx="13.5" cy="55.1" r="1.3"/>
	<path class="st10" d="M62.2,83.1c0-0.7,0.6-1.3,1.3-1.3c0.7,0,1.3,0.6,1.3,1.3c0,0.7-0.6,1.3-1.3,1.3
		C62.8,84.4,62.2,83.8,62.2,83.1z"/>
	<path class="st10" d="M79,68.4c0-0.8,0.6-1.5,1.5-1.5s1.5,0.6,1.5,1.5c0,0.8-0.6,1.5-1.5,1.5S79,69.2,79,68.4z"/>
	<path class="st10" d="M59,94.4c0-0.7,0.6-1.2,1.2-1.2c0.7,0,1.2,0.6,1.2,1.2c0,0.7-0.6,1.2-1.2,1.2C59.6,95.7,59,95.1,59,94.4z"/>
	<path class="st10" d="M67.3,32.9c0-0.7,0.6-1.3,1.3-1.3c0.7,0,1.3,0.6,1.3,1.3c0,0.7-0.6,1.3-1.3,1.3
		C67.9,34.2,67.3,33.7,67.3,32.9z"/>
	<circle class="st10" cx="45.7" cy="85.2" r="1.6"/>
	<path class="st10" d="M65.9,14.7c0-0.8,0.7-1.5,1.5-1.5c0.8,0,1.5,0.7,1.5,1.5s-0.7,1.5-1.5,1.5C66.6,16.2,65.9,15.5,65.9,14.7z"/>
	<circle class="st10" cx="43.8" cy="83.3" r="1.3"/>
	<circle class="st10" cx="50" cy="23.5" r="1.5"/>
	<path class="st10" d="M78.6,58.2c0-0.8,0.6-1.4,1.4-1.4c0.8,0,1.4,0.6,1.4,1.4s-0.6,1.4-1.4,1.4C79.2,59.6,78.6,59,78.6,58.2z"/>
	<circle class="st10" cx="110" cy="82.7" r="1.3"/>
	<path class="st10" d="M5.6,64.6c0-0.8,0.6-1.4,1.4-1.4c0.8,0,1.4,0.6,1.4,1.4C8.4,65.3,7.8,66,7,66C6.2,66,5.6,65.3,5.6,64.6z"/>
	<circle class="st10" cx="20.3" cy="98.8" r="1.3"/>
	<path class="st10" d="M49.5,54.2c0-0.8,0.6-1.4,1.4-1.4c0.8,0,1.4,0.6,1.4,1.4c0,0.8-0.6,1.4-1.4,1.4C50.2,55.7,49.5,55,49.5,54.2z
		"/>
	<path class="st10" d="M32.3,102.3c0-0.8,0.6-1.4,1.4-1.4c0.8,0,1.4,0.6,1.4,1.4c0,0.8-0.6,1.4-1.4,1.4
		C32.9,103.7,32.3,103.1,32.3,102.3z"/>
	<path class="st10" d="M27.8,61.9c0-0.7,0.6-1.3,1.3-1.3c0.7,0,1.3,0.6,1.3,1.3c0,0.7-0.6,1.3-1.3,1.3
		C28.4,63.3,27.8,62.7,27.8,61.9z"/>
	<path class="st10" d="M39.8,74.2c0-0.8,0.6-1.4,1.4-1.4c0.8,0,1.4,0.6,1.4,1.4s-0.6,1.4-1.4,1.4C40.4,75.6,39.8,74.9,39.8,74.2z"/>
	<path class="st10" d="M35,15.6c0-0.8,0.6-1.4,1.4-1.4c0.8,0,1.4,0.6,1.4,1.4c0,0.8-0.6,1.4-1.4,1.4C35.6,17,35,16.4,35,15.6z"/>
	<path class="st10" d="M71.6,36.3c0-0.7,0.6-1.3,1.3-1.3c0.7,0,1.3,0.6,1.3,1.3c0,0.7-0.6,1.3-1.3,1.3C72.1,37.6,71.6,37,71.6,36.3z
		"/>
	<circle class="st10" cx="108.2" cy="62" r="1.4"/>
	<path class="st10" d="M95.2,44.9c0-0.8,0.6-1.4,1.4-1.4c0.8,0,1.4,0.6,1.4,1.4c0,0.8-0.6,1.4-1.4,1.4
		C95.8,46.3,95.2,45.7,95.2,44.9z"/>
	<circle class="st10" cx="30.4" cy="83.4" r="1.6"/>
	<path class="st10" d="M86.4,57.9c0-0.8,0.6-1.4,1.4-1.4c0.8,0,1.4,0.6,1.4,1.4c0,0.8-0.6,1.4-1.4,1.4C87,59.3,86.4,58.6,86.4,57.9z
		"/>
	<path class="st10" d="M15.7,80.5c0-0.8,0.6-1.4,1.4-1.4c0.8,0,1.4,0.6,1.4,1.4s-0.6,1.4-1.4,1.4C16.3,81.9,15.7,81.3,15.7,80.5z"/>
	<path class="st10" d="M25.1,53.8c0-0.9,0.7-1.6,1.6-1.6s1.6,0.7,1.6,1.6s-0.7,1.6-1.6,1.6S25.1,54.7,25.1,53.8z"/>
	<circle class="st10" cx="58.2" cy="1.9" r="1.5"/>
	<path class="st10" d="M60.8,18.7c0-0.8,0.6-1.4,1.4-1.4s1.4,0.6,1.4,1.4c0,0.8-0.6,1.4-1.4,1.4S60.8,19.5,60.8,18.7z"/>
	<path class="st10" d="M17.7,83.2c0-0.9,0.7-1.6,1.6-1.6c0.9,0,1.6,0.7,1.6,1.6c0,0.9-0.7,1.6-1.6,1.6
		C18.4,84.8,17.7,84.1,17.7,83.2z"/>
	<path class="st10" d="M98.3,86.2c0-0.8,0.6-1.4,1.4-1.4s1.4,0.6,1.4,1.4s-0.6,1.4-1.4,1.4S98.3,86.9,98.3,86.2z"/>
	<circle class="st10" cx="42" cy="88.5" r="1.6"/>
	<path class="st10" d="M75.2,42.8c0-0.8,0.7-1.5,1.5-1.5c0.8,0,1.5,0.7,1.5,1.5s-0.7,1.5-1.5,1.5C75.9,44.3,75.2,43.6,75.2,42.8z"/>
	<path class="st10" d="M90.7,98.3c0-0.8,0.6-1.4,1.4-1.4c0.8,0,1.4,0.6,1.4,1.4s-0.6,1.4-1.4,1.4C91.3,99.7,90.7,99.1,90.7,98.3z"/>
	<circle class="st10" cx="51.5" cy="35.4" r="1.3"/>
	<path class="st10" d="M64.9,60.5c0-0.8,0.6-1.4,1.4-1.4c0.8,0,1.4,0.6,1.4,1.4c0,0.8-0.6,1.4-1.4,1.4
		C65.5,61.9,64.9,61.2,64.9,60.5z"/>
	<circle class="st10" cx="90.7" cy="78.4" r="1.4"/>
	<path class="st10" d="M24.1,60c0-0.7,0.6-1.3,1.3-1.3c0.7,0,1.3,0.6,1.3,1.3c0,0.7-0.6,1.3-1.3,1.3C24.7,61.4,24.1,60.8,24.1,60z"
		/>
	<circle class="st10" cx="65.9" cy="69" r="1.2"/>
	<circle class="st10" cx="12.7" cy="94.9" r="1.6"/>
	<path class="st10" d="M83.6,29.8c0-0.8,0.7-1.5,1.5-1.5c0.8,0,1.5,0.7,1.5,1.5c0,0.8-0.7,1.5-1.5,1.5
		C84.3,31.3,83.6,30.6,83.6,29.8z"/>
	<path class="st10" d="M48,63.6c0-0.7,0.6-1.2,1.2-1.2s1.2,0.6,1.2,1.2c0,0.7-0.6,1.2-1.2,1.2S48,64.3,48,63.6z"/>
	<path class="st10" d="M54.1,28.5c0-0.8,0.6-1.4,1.4-1.4c0.8,0,1.4,0.6,1.4,1.4c0,0.8-0.6,1.4-1.4,1.4C54.8,30,54.1,29.3,54.1,28.5z
		"/>
	<path class="st10" d="M71,99.3c0-0.8,0.6-1.4,1.4-1.4s1.4,0.6,1.4,1.4c0,0.8-0.6,1.4-1.4,1.4S71,100.1,71,99.3z"/>
	<path class="st10" d="M105.2,83.8c0-0.7,0.6-1.3,1.3-1.3c0.7,0,1.3,0.6,1.3,1.3c0,0.7-0.6,1.3-1.3,1.3
		C105.7,85.1,105.2,84.6,105.2,83.8z"/>
	<circle class="st10" cx="5.7" cy="66.1" r="1.4"/>
	<circle class="st10" cx="27.9" cy="92.4" r="1.3"/>
	<path class="st10" d="M32.4,43.6c0-0.8,0.6-1.4,1.4-1.4c0.8,0,1.4,0.6,1.4,1.4c0,0.8-0.6,1.4-1.4,1.4C33,45,32.4,44.4,32.4,43.6z"
		/>
	<path class="st10" d="M64.6,4.1c0-0.9,0.7-1.6,1.6-1.6c0.9,0,1.6,0.7,1.6,1.6s-0.7,1.6-1.6,1.6C65.3,5.7,64.6,5,64.6,4.1z"/>
	<path class="st10" d="M31,64.6c0-0.8,0.6-1.4,1.4-1.4c0.8,0,1.4,0.6,1.4,1.4c0,0.8-0.6,1.4-1.4,1.4C31.7,66,31,65.4,31,64.6z"/>
	<path class="st10" d="M55.5,75.5c0-0.8,0.6-1.4,1.4-1.4c0.8,0,1.4,0.6,1.4,1.4c0,0.8-0.6,1.4-1.4,1.4
		C56.1,76.9,55.5,76.2,55.5,75.5z"/>
	<path class="st10" d="M36.9,22.2c0-0.8,0.6-1.4,1.4-1.4c0.8,0,1.4,0.6,1.4,1.4c0,0.8-0.6,1.4-1.4,1.4C37.5,23.6,36.9,23,36.9,22.2z
		"/>
	<path class="st10" d="M85.9,89.9c0-0.8,0.6-1.4,1.4-1.4c0.8,0,1.4,0.6,1.4,1.4c0,0.8-0.6,1.4-1.4,1.4
		C86.6,91.3,85.9,90.7,85.9,89.9z"/>
	<circle class="st10" cx="105.8" cy="68.4" r="1.4"/>
	<path class="st10" d="M97,41.8c0-0.8,0.6-1.4,1.4-1.4c0.8,0,1.4,0.6,1.4,1.4c0,0.8-0.6,1.4-1.4,1.4C97.6,43.2,97,42.6,97,41.8z"/>
	<path class="st10" d="M55.2,44.1c0-0.9,0.7-1.6,1.6-1.6c0.9,0,1.6,0.7,1.6,1.6s-0.7,1.6-1.6,1.6C56,45.7,55.2,45,55.2,44.1z"/>
	<path class="st10" d="M73,28.4c0-0.8,0.6-1.4,1.4-1.4c0.8,0,1.4,0.6,1.4,1.4c0,0.8-0.6,1.4-1.4,1.4C73.6,29.8,73,29.2,73,28.4z"/>
	<path class="st10" d="M46.5,11.2c0-0.7,0.6-1.3,1.3-1.3c0.7,0,1.3,0.6,1.3,1.3c0,0.7-0.6,1.3-1.3,1.3C47.1,12.6,46.5,12,46.5,11.2z
		"/>
	<circle class="st10" cx="87.7" cy="10.1" r="1.6"/>
	<circle class="st10" cx="60.2" cy="8.1" r="1.5"/>
	<circle class="st10" cx="72.6" cy="92.4" r="1.4"/>
	<path class="st10" d="M42.3,51.1c0-0.8,0.7-1.5,1.5-1.5c0.8,0,1.5,0.7,1.5,1.5c0,0.8-0.7,1.5-1.5,1.5C43,52.7,42.3,52,42.3,51.1z"
		/>
	<path class="st10" d="M99.3,57.7c0-0.8,0.6-1.4,1.4-1.4s1.4,0.6,1.4,1.4c0,0.8-0.6,1.4-1.4,1.4S99.3,58.4,99.3,57.7z"/>
	<path class="st10" d="M26.1,72c0-0.9,0.7-1.6,1.6-1.6c0.9,0,1.6,0.7,1.6,1.6c0,0.9-0.7,1.6-1.6,1.6C26.8,73.6,26.1,72.9,26.1,72z"
		/>
	<path class="st10" d="M61.8,36.1c0-0.8,0.6-1.4,1.4-1.4s1.4,0.6,1.4,1.4c0,0.8-0.6,1.4-1.4,1.4S61.8,36.8,61.8,36.1z"/>
	<circle class="st10" cx="18.4" cy="50.2" r="1.4"/>
	<path class="st10" d="M8.8,58c0-0.7,0.6-1.3,1.3-1.3s1.3,0.6,1.3,1.3c0,0.7-0.6,1.3-1.3,1.3S8.8,58.7,8.8,58z"/>
	<path class="st10" d="M106.3,52.9c0-0.7,0.6-1.3,1.3-1.3c0.7,0,1.3,0.6,1.3,1.3c0,0.7-0.6,1.3-1.3,1.3
		C106.9,54.2,106.3,53.6,106.3,52.9z"/>
	<path class="st10" d="M85.5,69.9c0-0.8,0.6-1.4,1.4-1.4c0.8,0,1.4,0.6,1.4,1.4c0,0.8-0.6,1.4-1.4,1.4
		C86.1,71.3,85.5,70.6,85.5,69.9z"/>
	<path class="st10" d="M63.9,96.6c0-0.7,0.6-1.2,1.2-1.2c0.7,0,1.2,0.6,1.2,1.2c0,0.7-0.6,1.2-1.2,1.2
		C64.4,97.9,63.9,97.3,63.9,96.6z"/>
	<path class="st10" d="M71.3,30.1c0-0.7,0.6-1.3,1.3-1.3c0.7,0,1.3,0.6,1.3,1.3c0,0.7-0.6,1.3-1.3,1.3
		C71.9,31.4,71.3,30.9,71.3,30.1z"/>
	<circle class="st10" cx="49.1" cy="80.7" r="1.6"/>
	<circle class="st10" cx="71.6" cy="14" r="1.5"/>
	<circle class="st10" cx="44.6" cy="81" r="1.3"/>
	<path class="st10" d="M46,29.5c0-0.8,0.7-1.5,1.5-1.5c0.8,0,1.5,0.7,1.5,1.5c0,0.8-0.7,1.5-1.5,1.5C46.6,31,46,30.3,46,29.5z"/>
	<path class="st10" d="M79.6,67.2c0-0.8,0.6-1.4,1.4-1.4s1.4,0.6,1.4,1.4s-0.6,1.4-1.4,1.4S79.6,67.9,79.6,67.2z"/>
	<path class="st10" d="M111.7,77.3c0-0.7,0.6-1.3,1.3-1.3c0.7,0,1.3,0.6,1.3,1.3c0,0.7-0.6,1.3-1.3,1.3
		C112.3,78.6,111.7,78.1,111.7,77.3z"/>
	<circle class="st10" cx="2.1" cy="68.3" r="1.4"/>
	<path class="st10" d="M21.4,102.9c0-0.7,0.6-1.3,1.3-1.3s1.3,0.6,1.3,1.3c0,0.7-0.6,1.3-1.3,1.3S21.4,103.7,21.4,102.9z"/>
	<circle class="st10" cx="37.2" cy="90.9" r="1.4"/>
	<path class="st10" d="M30.9,96.8c0-0.8,0.6-1.4,1.4-1.4c0.8,0,1.4,0.6,1.4,1.4c0,0.8-0.6,1.4-1.4,1.4
		C31.6,98.2,30.9,97.6,30.9,96.8z"/>
	<circle class="st10" cx="32.5" cy="58.6" r="1.3"/>
	<circle class="st10" cx="40.1" cy="77.2" r="1.4"/>
	<path class="st10" d="M38.1,20.1c0-0.8,0.6-1.4,1.4-1.4c0.8,0,1.4,0.6,1.4,1.4c0,0.8-0.6,1.4-1.4,1.4
		C38.7,21.5,38.1,20.9,38.1,20.1z"/>
	<circle class="st10" cx="77.8" cy="36.5" r="1.3"/>
	<circle class="st10" cx="109.3" cy="57.8" r="1.4"/>
	<path class="st10" d="M71.3,20.4c0-0.8,0.6-1.4,1.4-1.4c0.8,0,1.4,0.6,1.4,1.4c0,0.8-0.6,1.4-1.4,1.4
		C71.9,21.8,71.3,21.2,71.3,20.4z"/>
	<circle class="st10" cx="43.2" cy="65.6" r="1.5"/>
	<path class="st10" d="M84.8,50.7c0-0.8,0.6-1.4,1.4-1.4c0.8,0,1.4,0.6,1.4,1.4c0,0.8-0.6,1.4-1.4,1.4
		C85.4,52.1,84.8,51.5,84.8,50.7z"/>
	<circle class="st10" cx="15.3" cy="76.1" r="1.4"/>
	<circle class="st10" cx="27.1" cy="49.4" r="1.6"/>
	<circle class="st9" cx="39" cy="12.7" r="1.5"/>
	<path class="st9" d="M79.3,90.8c0-0.8,0.6-1.4,1.4-1.4c0.8,0,1.4,0.6,1.4,1.4s-0.6,1.4-1.4,1.4C80,92.2,79.3,91.5,79.3,90.8z"/>
	<path class="st9" d="M14.4,87.8c0-0.9,0.7-1.6,1.6-1.6c0.9,0,1.6,0.7,1.6,1.6c0,0.9-0.7,1.6-1.6,1.6C15.1,89.4,14.4,88.7,14.4,87.8
		z"/>
	<path class="st9" d="M105.4,56.6c0-0.8,0.7-1.5,1.5-1.5s1.5,0.7,1.5,1.5c0,0.8-0.7,1.5-1.5,1.5S105.4,57.4,105.4,56.6z"/>
	<path class="st9" d="M33.9,70c0-0.9,0.8-1.7,1.7-1.7c0.9,0,1.7,0.8,1.7,1.7s-0.8,1.7-1.7,1.7C34.7,71.7,33.9,70.9,33.9,70z"/>
	<circle class="st9" cx="78.2" cy="52.4" r="1.6"/>
	<path class="st9" d="M17.7,51.7c0-0.7,0.6-1.3,1.3-1.3c0.7,0,1.3,0.6,1.3,1.3c0,0.7-0.6,1.3-1.3,1.3C18.3,53,17.7,52.4,17.7,51.7z"
		/>
	<path class="st9" d="M49.4,13.4c0-0.8,0.6-1.4,1.4-1.4c0.8,0,1.4,0.6,1.4,1.4s-0.6,1.4-1.4,1.4C50,14.7,49.4,14.1,49.4,13.4z"/>
	<circle class="st9" cx="29.1" cy="49.1" r="1.5"/>
	<circle class="st9" cx="88.7" cy="77.9" r="1.5"/>
	<path class="st9" d="M66,95.2c0-0.8,0.6-1.4,1.4-1.4c0.8,0,1.4,0.6,1.4,1.4c0,0.8-0.6,1.4-1.4,1.4C66.6,96.6,66,96,66,95.2z"/>
	<circle class="st9" cx="68.1" cy="73.3" r="1.4"/>
	<path class="st9" d="M62,93.7c0-0.9,0.7-1.7,1.7-1.7c0.9,0,1.7,0.7,1.7,1.7c0,0.9-0.7,1.7-1.7,1.7C62.8,95.3,62,94.6,62,93.7z"/>
	<path class="st9" d="M59.2,29.7c0-0.9,0.7-1.6,1.6-1.6c0.9,0,1.6,0.7,1.6,1.6c0,0.9-0.7,1.6-1.6,1.6C59.9,31.3,59.2,30.6,59.2,29.7
		z"/>
	<circle class="st9" cx="43.2" cy="68.6" r="1.3"/>
	<path class="st9" d="M20.1,86.9c0-0.8,0.7-1.5,1.5-1.5c0.8,0,1.5,0.7,1.5,1.5s-0.7,1.5-1.5,1.5C20.8,88.4,20.1,87.7,20.1,86.9z"/>
	<path class="st9" d="M85.1,58.5c0-0.9,0.7-1.5,1.5-1.5c0.9,0,1.5,0.7,1.5,1.5c0,0.9-0.7,1.5-1.5,1.5C85.8,60,85.1,59.3,85.1,58.5z"
		/>
	<path class="st9" d="M5.8,85.7c0-0.7,0.6-1.3,1.3-1.3c0.7,0,1.3,0.6,1.3,1.3c0,0.7-0.6,1.3-1.3,1.3C6.4,87.1,5.8,86.5,5.8,85.7z"/>
	<path class="st9" d="M19.8,95.6c0-0.8,0.6-1.4,1.4-1.4c0.8,0,1.4,0.6,1.4,1.4c0,0.8-0.6,1.4-1.4,1.4C20.5,97.1,19.8,96.4,19.8,95.6
		z"/>
	<path class="st9" d="M34.4,94.3c0-0.8,0.7-1.5,1.5-1.5c0.8,0,1.5,0.7,1.5,1.5c0,0.8-0.7,1.5-1.5,1.5C35,95.8,34.4,95.1,34.4,94.3z"
		/>
	<circle class="st9" cx="38.9" cy="98" r="1.5"/>
	<path class="st9" d="M70.3,8.7c0-0.8,0.7-1.5,1.5-1.5c0.8,0,1.5,0.7,1.5,1.5s-0.7,1.5-1.5,1.5C71,10.2,70.3,9.5,70.3,8.7z"/>
	<path class="st9" d="M33.5,65.5c0-0.8,0.6-1.4,1.4-1.4s1.4,0.6,1.4,1.4s-0.6,1.4-1.4,1.4S33.5,66.3,33.5,65.5z"/>
	<circle class="st9" cx="86.2" cy="78.8" r="1.5"/>
	<path class="st9" d="M33.8,23c0-0.8,0.6-1.4,1.4-1.4c0.8,0,1.4,0.6,1.4,1.4c0,0.8-0.6,1.4-1.4,1.4C34.4,24.4,33.8,23.8,33.8,23z"/>
	<path class="st9" d="M99.5,84.7c0-0.7,0.6-1.3,1.3-1.3c0.7,0,1.3,0.6,1.3,1.3s-0.6,1.3-1.3,1.3C100.1,86,99.5,85.4,99.5,84.7z"/>
	<path class="st9" d="M91.5,40.2c0-0.9,0.7-1.5,1.5-1.5c0.9,0,1.5,0.7,1.5,1.5c0,0.9-0.7,1.5-1.5,1.5C92.2,41.7,91.5,41,91.5,40.2z"
		/>
	<circle class="st9" cx="102.5" cy="44" r="1.5"/>
	<circle class="st9" cx="43.4" cy="28.3" r="1.7"/>
	<circle class="st9" cx="71" cy="41" r="1.5"/>
	<path class="st9" d="M62,53.2c0-0.9,0.7-1.5,1.5-1.5s1.5,0.7,1.5,1.5c0,0.9-0.7,1.5-1.5,1.5S62,54.1,62,53.2z"/>
	<circle class="st9" cx="76.5" cy="23.2" r="1.6"/>
	<path class="st9" d="M56.4,66.4c0-0.8,0.7-1.5,1.5-1.5c0.8,0,1.5,0.7,1.5,1.5c0,0.8-0.7,1.5-1.5,1.5C57,67.8,56.4,67.2,56.4,66.4z"
		/>
	<circle class="st9" cx="84.5" cy="101" r="1.5"/>
	<path class="st9" d="M50.3,93c0-0.9,0.7-1.6,1.6-1.6c0.9,0,1.6,0.7,1.6,1.6s-0.7,1.6-1.6,1.6C51,94.6,50.3,93.9,50.3,93z"/>
	<path class="st9" d="M106.7,61.9c0-0.8,0.6-1.4,1.4-1.4c0.8,0,1.4,0.6,1.4,1.4s-0.6,1.4-1.4,1.4C107.3,63.3,106.7,62.7,106.7,61.9z
		"/>
	<circle class="st9" cx="67.1" cy="89.4" r="1.7"/>
	<circle class="st9" cx="113.6" cy="54.6" r="1.6"/>
	<path class="st9" d="M21.1,49.2c0-0.7,0.6-1.3,1.3-1.3c0.7,0,1.3,0.6,1.3,1.3c0,0.7-0.6,1.3-1.3,1.3C21.7,50.5,21.1,49.9,21.1,49.2
		z"/>
	<circle class="st9" cx="35.8" cy="41.4" r="1.3"/>
	<path class="st9" d="M52.7,5c0-0.8,0.7-1.5,1.5-1.5c0.8,0,1.5,0.7,1.5,1.5S55,6.5,54.2,6.5C53.3,6.5,52.7,5.8,52.7,5z"/>
	<circle class="st9" cx="76.8" cy="81.7" r="1.5"/>
	<path class="st9" d="M105.7,78.4c0.6,0.5,0.8,1.4,0.3,2c-0.5,0.6-1.4,0.8-2,0.3c-0.6-0.5-0.8-1.4-0.3-2
		C104.1,78,105,77.9,105.7,78.4z"/>
	<path class="st9" d="M64.9,76.4c0-0.8,0.6-1.4,1.4-1.4c0.8,0,1.4,0.6,1.4,1.4c0,0.8-0.6,1.4-1.4,1.4C65.6,77.8,64.9,77.2,64.9,76.4
		z"/>
	<path class="st9" d="M58.6,51.8c0-0.9,0.7-1.6,1.6-1.6s1.6,0.7,1.6,1.6c0,0.9-0.7,1.6-1.6,1.6S58.6,52.7,58.6,51.8z"/>
	<circle class="st9" cx="78.5" cy="25.9" r="1.5"/>
	<path class="st9" d="M50.1,64.7c0-0.8,0.6-1.4,1.4-1.4c0.8,0,1.4,0.6,1.4,1.4c0,0.8-0.6,1.4-1.4,1.4C50.7,66.1,50.1,65.5,50.1,64.7
		z"/>
	<circle class="st9" cx="30" cy="53.9" r="1.6"/>
	<path class="st9" d="M90,65.9c0-0.8,0.7-1.5,1.5-1.5c0.8,0,1.5,0.7,1.5,1.5c0,0.8-0.7,1.5-1.5,1.5C90.6,67.3,90,66.7,90,65.9z"/>
	<path class="st9" d="M101,93.7c0-0.8,0.6-1.4,1.4-1.4s1.4,0.6,1.4,1.4c0,0.8-0.6,1.4-1.4,1.4S101,94.5,101,93.7z"/>
	<path class="st9" d="M9.2,71.2c0-0.8,0.6-1.4,1.4-1.4c0.8,0,1.4,0.6,1.4,1.4c0,0.8-0.6,1.4-1.4,1.4C9.8,72.6,9.2,71.9,9.2,71.2z"/>
	<path class="st9" d="M74.9,62c0-0.8,0.6-1.4,1.4-1.4c0.8,0,1.4,0.6,1.4,1.4c0,0.8-0.6,1.4-1.4,1.4C75.6,63.4,74.9,62.8,74.9,62z"/>
	<circle class="st9" cx="101.5" cy="75.6" r="1.4"/>
	<path class="st9" d="M69.1,13.1c0-0.8,0.7-1.5,1.5-1.5c0.8,0,1.5,0.7,1.5,1.5c0,0.8-0.7,1.5-1.5,1.5C69.8,14.7,69.1,14,69.1,13.1z"
		/>
	<circle class="st9" cx="36.3" cy="68.7" r="1.4"/>
	<circle class="st9" cx="86.5" cy="85.6" r="1.5"/>
	<path class="st9" d="M69.9,67.5c0-0.8,0.7-1.5,1.5-1.5c0.8,0,1.5,0.7,1.5,1.5c0,0.8-0.7,1.5-1.5,1.5C70.6,69,69.9,68.3,69.9,67.5z"
		/>
	<circle class="st9" cx="96" cy="99.8" r="1.4"/>
	<circle class="st9" cx="59.8" cy="82.6" r="1.4"/>
	<path class="st9" d="M88.8,70.7c0-0.8,0.6-1.4,1.4-1.4c0.8,0,1.4,0.6,1.4,1.4c0,0.8-0.6,1.4-1.4,1.4C89.4,72.1,88.8,71.5,88.8,70.7
		z"/>
	<circle class="st9" cx="64.9" cy="42.6" r="1.7"/>
	<path class="st9" d="M75.1,98.2c0-0.8,0.6-1.4,1.4-1.4c0.8,0,1.4,0.6,1.4,1.4c0,0.8-0.6,1.4-1.4,1.4C75.8,99.6,75.1,99,75.1,98.2z"
		/>
	<path class="st9" d="M20.8,67.6c0-0.9,0.7-1.5,1.5-1.5c0.9,0,1.5,0.7,1.5,1.5c0,0.9-0.7,1.5-1.5,1.5C21.5,69.1,20.8,68.4,20.8,67.6
		z"/>
	<path class="st9" d="M33.4,38.8c0-0.9,0.7-1.6,1.6-1.6c0.9,0,1.6,0.7,1.6,1.6c0,0.9-0.7,1.6-1.6,1.6C34.1,40.3,33.4,39.6,33.4,38.8
		z"/>
	<circle class="st9" cx="63.5" cy="1.5" r="1.5"/>
	<path class="st9" d="M5.9,81.1c0-0.8,0.6-1.4,1.4-1.4s1.4,0.6,1.4,1.4s-0.6,1.4-1.4,1.4S5.9,81.8,5.9,81.1z"/>
	<path class="st9" d="M12,93c0-0.9,0.7-1.6,1.6-1.6c0.9,0,1.6,0.7,1.6,1.6c0,0.9-0.7,1.6-1.6,1.6C12.7,94.7,12,93.9,12,93z"/>
	<circle class="st9" cx="106.4" cy="60.2" r="1.4"/>
	<path class="st9" d="M14.8,76.2c0-0.9,0.8-1.7,1.7-1.7c0.9,0,1.7,0.8,1.7,1.7c0,0.9-0.8,1.7-1.7,1.7C15.6,77.9,14.8,77.2,14.8,76.2
		z"/>
	<path class="st9" d="M76.2,48.1c0-0.9,0.7-1.6,1.6-1.6s1.6,0.7,1.6,1.6s-0.7,1.6-1.6,1.6S76.2,49,76.2,48.1z"/>
	<circle class="st9" cx="31.1" cy="21.1" r="1.3"/>
	<path class="st9" d="M50.9,14.6c0-0.8,0.6-1.4,1.4-1.4c0.8,0,1.4,0.6,1.4,1.4c0,0.8-0.6,1.4-1.4,1.4C51.5,16,50.9,15.4,50.9,14.6z"
		/>
	<path class="st9" d="M21.3,55c0-0.8,0.7-1.5,1.5-1.5c0.8,0,1.5,0.7,1.5,1.5s-0.7,1.5-1.5,1.5C21.9,56.5,21.3,55.9,21.3,55z"/>
	<path class="st9" d="M90.1,78c0-0.8,0.7-1.5,1.5-1.5c0.8,0,1.5,0.7,1.5,1.5c0,0.8-0.7,1.5-1.5,1.5C90.7,79.4,90.1,78.8,90.1,78z"/>
	<path class="st9" d="M80.3,42.2c0-0.8,0.6-1.4,1.4-1.4s1.4,0.6,1.4,1.4s-0.6,1.4-1.4,1.4S80.3,42.9,80.3,42.2z"/>
	<path class="st9" d="M49.1,29.7c0-0.8,0.6-1.4,1.4-1.4c0.8,0,1.4,0.6,1.4,1.4s-0.6,1.4-1.4,1.4C49.8,31.1,49.1,30.4,49.1,29.7z"/>
	<path class="st9" d="M67.7,82.8c0-0.9,0.7-1.7,1.7-1.7c0.9,0,1.7,0.7,1.7,1.7c0,0.9-0.7,1.7-1.7,1.7C68.5,84.5,67.7,83.7,67.7,82.8
		z"/>
	<circle class="st9" cx="63.7" cy="63.8" r="1.6"/>
	<path class="st9" d="M42.2,71.6c0-0.7,0.6-1.3,1.3-1.3c0.7,0,1.3,0.6,1.3,1.3s-0.6,1.3-1.3,1.3C42.8,72.9,42.2,72.3,42.2,71.6z"/>
	<circle class="st9" cx="57.7" cy="26.7" r="1.5"/>
	<path class="st9" d="M89.7,60.1c0-0.8,0.7-1.5,1.5-1.5c0.8,0,1.5,0.7,1.5,1.5c0,0.8-0.7,1.5-1.5,1.5C90.4,61.6,89.7,61,89.7,60.1z"
		/>
	<circle class="st9" cx="104.1" cy="85" r="1.3"/>
	<path class="st9" d="M11.8,66c0-0.8,0.7-1.5,1.5-1.5c0.8,0,1.5,0.7,1.5,1.5c0,0.8-0.7,1.5-1.5,1.5C12.5,67.4,11.8,66.8,11.8,66z"/>
	<path class="st9" d="M31.8,94.1c0-0.8,0.6-1.4,1.4-1.4c0.8,0,1.4,0.6,1.4,1.4s-0.6,1.4-1.4,1.4C32.4,95.5,31.8,94.9,31.8,94.1z"/>
	<path class="st9" d="M38.2,96.4c0-0.8,0.7-1.5,1.5-1.5c0.8,0,1.5,0.7,1.5,1.5c0,0.8-0.7,1.5-1.5,1.5C38.9,97.9,38.2,97.2,38.2,96.4
		z"/>
	<circle class="st9" cx="76.1" cy="12.2" r="1.4"/>
	<path class="st9" d="M3.2,94.6c0-0.8,0.6-1.4,1.4-1.4c0.8,0,1.4,0.6,1.4,1.4c0,0.8-0.6,1.4-1.4,1.4C3.9,96,3.2,95.4,3.2,94.6z"/>
	<path class="st9" d="M82.7,77.1c0-0.9,0.7-1.6,1.6-1.6c0.9,0,1.6,0.7,1.6,1.6c0,0.9-0.7,1.6-1.6,1.6C83.4,78.6,82.7,77.9,82.7,77.1
		z"/>
	<circle class="st9" cx="46" cy="23.2" r="1.4"/>
	<circle class="st9" cx="95.7" cy="89.6" r="1.4"/>
	<path class="st9" d="M90.1,41c0-0.9,0.7-1.6,1.6-1.6c0.9,0,1.6,0.7,1.6,1.6c0,0.9-0.7,1.6-1.6,1.6C90.8,42.5,90.1,41.8,90.1,41z"/>
	<path class="st9" d="M96.5,48.7c0-0.8,0.7-1.5,1.5-1.5c0.8,0,1.5,0.7,1.5,1.5s-0.7,1.5-1.5,1.5C97.2,50.2,96.5,49.5,96.5,48.7z"/>
	<path class="st9" d="M45.9,40.8c0-0.9,0.8-1.7,1.7-1.7c0.9,0,1.7,0.8,1.7,1.7c0,0.9-0.8,1.7-1.7,1.7C46.6,42.5,45.9,41.7,45.9,40.8
		z"/>
	<path class="st9" d="M81.1,34.3c0-0.8,0.6-1.4,1.4-1.4c0.8,0,1.4,0.6,1.4,1.4c0,0.8-0.6,1.4-1.4,1.4C81.7,35.7,81.1,35.1,81.1,34.3
		z"/>
	<path class="st9" d="M65.7,55.6c0-0.9,0.7-1.5,1.5-1.5s1.5,0.7,1.5,1.5c0,0.9-0.7,1.5-1.5,1.5S65.7,56.5,65.7,55.6z"/>
	<path class="st9" d="M81.6,16.8c0-0.9,0.7-1.6,1.6-1.6c0.9,0,1.6,0.7,1.6,1.6c0,0.9-0.7,1.6-1.6,1.6C82.4,18.4,81.6,17.7,81.6,16.8
		z"/>
	<path class="st10" d="M61.9,8.4c0-0.8,0.7-1.5,1.5-1.5c0.8,0,1.5,0.7,1.5,1.5c0,0.8-0.7,1.5-1.5,1.5C62.5,9.9,61.9,9.2,61.9,8.4z"
		/>
	<path class="st10" d="M64.8,19.3c0-0.8,0.6-1.4,1.4-1.4c0.8,0,1.4,0.6,1.4,1.4c0,0.8-0.6,1.4-1.4,1.4
		C65.4,20.7,64.8,20.1,64.8,19.3z"/>
	<path class="st10" d="M12.4,81.5c0-0.9,0.7-1.6,1.6-1.6c0.9,0,1.6,0.7,1.6,1.6c0,0.9-0.7,1.6-1.6,1.6C13.1,83,12.4,82.3,12.4,81.5z
		"/>
	<circle class="st10" cx="101.3" cy="71.8" r="1.4"/>
	<path class="st10" d="M22.4,65.7c0-0.9,0.7-1.6,1.6-1.6c0.9,0,1.6,0.7,1.6,1.6c0,0.9-0.7,1.6-1.6,1.6
		C23.1,67.3,22.4,66.6,22.4,65.7z"/>
	<circle class="st10" cx="76.2" cy="54.8" r="1.5"/>
	<path class="st10" d="M76.6,88.5c0-0.8,0.6-1.4,1.4-1.4c0.8,0,1.4,0.6,1.4,1.4c0,0.8-0.6,1.4-1.4,1.4C77.3,90,76.6,89.3,76.6,88.5z
		"/>
	<path class="st10" d="M48.1,31.3c0-0.7,0.6-1.3,1.3-1.3c0.7,0,1.3,0.6,1.3,1.3c0,0.7-0.6,1.3-1.3,1.3C48.7,32.6,48.1,32,48.1,31.3z
		"/>
	<path class="st10" d="M60.7,63.7c0-0.8,0.6-1.4,1.4-1.4c0.8,0,1.4,0.6,1.4,1.4c0,0.8-0.6,1.4-1.4,1.4
		C61.4,65.1,60.7,64.5,60.7,63.7z"/>
	<path class="st10" d="M90.7,72.5c0-0.7,0.6-1.4,1.4-1.4c0.7,0,1.4,0.6,1.4,1.4c0,0.7-0.6,1.4-1.4,1.4
		C91.3,73.9,90.7,73.2,90.7,72.5z"/>
	<path class="st10" d="M17.4,60.6c0-0.7,0.6-1.3,1.3-1.3c0.7,0,1.3,0.6,1.3,1.3c0,0.7-0.6,1.3-1.3,1.3C18,62,17.4,61.4,17.4,60.6z"
		/>
	<path class="st10" d="M63.1,66.2c0-0.7,0.6-1.2,1.2-1.2c0.7,0,1.2,0.6,1.2,1.2c0,0.7-0.6,1.2-1.2,1.2
		C63.6,67.4,63.1,66.9,63.1,66.2z"/>
	<circle class="st10" cx="11.8" cy="88.1" r="1.6"/>
	<path class="st10" d="M76,64.6c-0.1-0.8,0.5-1.5,1.3-1.6c0.8-0.1,1.5,0.5,1.6,1.3c0.1,0.8-0.5,1.5-1.3,1.6
		C76.9,66,76.1,65.4,76,64.6z"/>
	<path class="st10" d="M47.1,61.2c0-0.7,0.6-1.3,1.3-1.3s1.3,0.6,1.3,1.3c0,0.7-0.6,1.3-1.3,1.3S47.1,61.9,47.1,61.2z"/>
	<circle class="st10" cx="58.6" cy="31.7" r="1.4"/>
	<path class="st10" d="M67.6,100.6c0-0.8,0.6-1.4,1.4-1.4c0.8,0,1.4,0.6,1.4,1.4c0,0.8-0.6,1.4-1.4,1.4
		C68.2,102,67.6,101.4,67.6,100.6z"/>
	<path class="st10" d="M110.7,82.9c0-0.7,0.6-1.3,1.3-1.3c0.7,0,1.3,0.6,1.3,1.3s-0.6,1.3-1.3,1.3C111.2,84.2,110.7,83.6,110.7,82.9
		z"/>
	<path class="st10" d="M5.6,66.1c0-0.8,0.6-1.4,1.4-1.4c0.8,0,1.4,0.6,1.4,1.4S7.8,67.5,7,67.5C6.3,67.5,5.6,66.8,5.6,66.1z"/>
	<circle class="st10" cx="29.8" cy="89.4" r="1.3"/>
	<path class="st10" d="M36.7,89.3c0-0.8,0.6-1.4,1.4-1.4c0.8,0,1.4,0.6,1.4,1.4c0,0.8-0.6,1.4-1.4,1.4
		C37.3,90.7,36.7,90.1,36.7,89.3z"/>
	<path class="st10" d="M69.3,2.3c0-0.9,0.7-1.6,1.6-1.6c0.9,0,1.6,0.7,1.6,1.6s-0.7,1.6-1.6,1.6C70,3.8,69.3,3.1,69.3,2.3z"/>
	<path class="st10" d="M35.8,63c0-0.8,0.6-1.4,1.4-1.4s1.4,0.6,1.4,1.4c0,0.8-0.6,1.4-1.4,1.4S35.8,63.8,35.8,63z"/>
	<path class="st10" d="M74.2,76.6c0-0.8,0.6-1.4,1.4-1.4c0.8,0,1.4,0.6,1.4,1.4c0,0.8-0.6,1.4-1.4,1.4C74.8,78,74.2,77.4,74.2,76.6z
		"/>
	<path class="st10" d="M37.4,29.8c0-0.8,0.6-1.4,1.4-1.4s1.4,0.6,1.4,1.4s-0.6,1.4-1.4,1.4S37.4,30.5,37.4,29.8z"/>
	<path class="st10" d="M85.4,88.5c0-0.8,0.6-1.4,1.4-1.4s1.4,0.6,1.4,1.4c0,0.8-0.6,1.4-1.4,1.4S85.4,89.2,85.4,88.5z"/>
	<path class="st10" d="M75.4,84.3c0-0.8,0.6-1.4,1.4-1.4s1.4,0.6,1.4,1.4c0,0.8-0.6,1.4-1.4,1.4S75.4,85.1,75.4,84.3z"/>
	<circle class="st10" cx="102.2" cy="44.5" r="1.4"/>
	<path class="st10" d="M54.6,43.3c0-0.9,0.7-1.6,1.6-1.6c0.9,0,1.6,0.7,1.6,1.6c0,0.9-0.7,1.6-1.6,1.6
		C55.4,44.9,54.6,44.2,54.6,43.3z"/>
	<path class="st10" d="M78.5,31.4c0-0.8,0.6-1.4,1.4-1.4s1.4,0.6,1.4,1.4c0,0.8-0.6,1.4-1.4,1.4S78.5,32.1,78.5,31.4z"/>
	<path class="st10" d="M49.1,66.3c0-0.7,0.6-1.3,1.3-1.3c0.7,0,1.3,0.6,1.3,1.3s-0.6,1.3-1.3,1.3C49.7,67.6,49.1,67,49.1,66.3z"/>
	<circle class="st10" cx="57.3" cy="8.2" r="1.6"/>
	<path class="st9" d="M69.9,12c0-0.8,0.7-1.5,1.5-1.5c0.8,0,1.5,0.7,1.5,1.5s-0.7,1.5-1.5,1.5C70.5,13.5,69.9,12.9,69.9,12z"/>
	<path class="st9" d="M87.7,97c0-0.8,0.7-1.5,1.5-1.5s1.5,0.7,1.5,1.5s-0.7,1.5-1.5,1.5S87.7,97.8,87.7,97z"/>
	<path class="st9" d="M45.1,96.5c0-0.9,0.7-1.6,1.6-1.6c0.9,0,1.6,0.7,1.6,1.6c0,0.9-0.7,1.6-1.6,1.6C45.8,98.1,45.1,97.4,45.1,96.5
		z"/>
	<path class="st9" d="M112.2,57.1c0-0.8,0.6-1.4,1.4-1.4c0.8,0,1.4,0.6,1.4,1.4c0,0.8-0.6,1.4-1.4,1.4
		C112.8,58.5,112.2,57.8,112.2,57.1z"/>
	<path class="st9" d="M3.5,75.7c0-0.9,0.8-1.7,1.7-1.7c0.9,0,1.7,0.8,1.7,1.7c0,0.9-0.8,1.7-1.7,1.7C4.3,77.4,3.5,76.6,3.5,75.7z"/>
	<path class="st9" d="M107.9,74.6c0-0.9,0.7-1.6,1.6-1.6c0.9,0,1.6,0.7,1.6,1.6c0,0.9-0.7,1.6-1.6,1.6
		C108.7,76.1,107.9,75.4,107.9,74.6z"/>
	<circle class="st9" cx="16.7" cy="56.2" r="1.3"/>
	<circle class="st9" cx="41.4" cy="39.6" r="1.3"/>
	<path class="st9" d="M91,49.5c0-0.8,0.7-1.5,1.5-1.5c0.8,0,1.5,0.7,1.5,1.5c0,0.8-0.7,1.5-1.5,1.5C91.7,50.9,91,50.3,91,49.5z"/>
	<path class="st9" d="M71.8,81c0-0.8,0.7-1.5,1.5-1.5c0.8,0,1.5,0.7,1.5,1.5c0,0.8-0.7,1.5-1.5,1.5C72.5,82.5,71.8,81.9,71.8,81z"/>
	<path class="st9" d="M79.3,4.2c0-0.8,0.6-1.4,1.4-1.4c0.8,0,1.4,0.6,1.4,1.4s-0.6,1.4-1.4,1.4C80,5.7,79.3,5,79.3,4.2z"/>
	<circle class="st9" cx="73.2" cy="75.4" r="1.4"/>
	<circle class="st9" cx="44.8" cy="16.6" r="1.6"/>
	<circle class="st9" cx="110.8" cy="47.4" r="1.5"/>
	<path class="st9" d="M51.3,73c0-0.8,0.6-1.4,1.4-1.4c0.8,0,1.4,0.6,1.4,1.4c0,0.8-0.6,1.4-1.4,1.4C51.9,74.5,51.3,73.8,51.3,73z"/>
	<circle class="st9" cx="37.5" cy="55.4" r="1.7"/>
	<path class="st9" d="M59,24.1c0-0.8,0.7-1.5,1.5-1.5s1.5,0.7,1.5,1.5c0,0.8-0.7,1.5-1.5,1.5S59,24.9,59,24.1z"/>
	<path class="st9" d="M101.9,87.4c0-0.8,0.6-1.4,1.4-1.4c0.8,0,1.4,0.6,1.4,1.4c0,0.8-0.6,1.4-1.4,1.4
		C102.5,88.8,101.9,88.2,101.9,87.4z"/>
	<circle class="st9" cx="6.1" cy="64.6" r="1.4"/>
	<circle class="st9" cx="27.4" cy="91.5" r="1.4"/>
	<path class="st9" d="M54.9,16.3c0-0.8,0.6-1.4,1.4-1.4c0.8,0,1.4,0.6,1.4,1.4c0,0.8-0.6,1.4-1.4,1.4C55.5,17.7,54.9,17.1,54.9,16.3
		z"/>
	<path class="st9" d="M61,18.9c0-0.8,0.7-1.5,1.5-1.5s1.5,0.7,1.5,1.5c0,0.8-0.7,1.5-1.5,1.5S61,19.8,61,18.9z"/>
	<circle class="st9" cx="31.9" cy="56.5" r="1.4"/>
	<circle class="st9" cx="78.5" cy="78.2" r="1.5"/>
	<path class="st9" d="M68.5,62.4c0-0.8,0.7-1.5,1.5-1.5c0.8,0,1.5,0.7,1.5,1.5c0,0.8-0.7,1.5-1.5,1.5C69.2,63.9,68.5,63.2,68.5,62.4
		z"/>
	<path class="st9" d="M15.4,67.3c0-0.8,0.6-1.4,1.4-1.4c0.8,0,1.4,0.6,1.4,1.4c0,0.8-0.6,1.4-1.4,1.4C16.1,68.7,15.4,68,15.4,67.3z"
		/>
	<path class="st9" d="M98.1,64c0-0.8,0.7-1.5,1.5-1.5c0.8,0,1.5,0.7,1.5,1.5c0,0.8-0.7,1.5-1.5,1.5C98.7,65.5,98.1,64.8,98.1,64z"/>
	<path class="st9" d="M86.3,39c0-0.9,0.8-1.7,1.7-1.7c0.9,0,1.7,0.8,1.7,1.7c0,0.9-0.8,1.7-1.7,1.7C87.1,40.7,86.3,39.9,86.3,39z"/>
	<path class="st9" d="M85.7,25c0-0.8,0.7-1.5,1.5-1.5c0.8,0,1.5,0.7,1.5,1.5c0,0.8-0.7,1.5-1.5,1.5C86.4,26.4,85.7,25.8,85.7,25z"/>
	<path class="st9" d="M21.6,78.6c0-0.8,0.7-1.5,1.5-1.5c0.8,0,1.5,0.7,1.5,1.5c0,0.8-0.7,1.5-1.5,1.5C22.3,80.1,21.6,79.4,21.6,78.6
		z"/>
	<path class="st9" d="M34.3,34.2c0-0.9,0.7-1.6,1.6-1.6c0.9,0,1.6,0.7,1.6,1.6c0,0.9-0.7,1.6-1.6,1.6C35,35.8,34.3,35.1,34.3,34.2z"
		/>
	<path class="st10" d="M59.8,15.6c0-0.8,0.7-1.5,1.5-1.5c0.8,0,1.5,0.7,1.5,1.5c0,0.8-0.7,1.5-1.5,1.5C60.5,17,59.8,16.4,59.8,15.6z
		"/>
	<circle class="st10" cx="74" cy="91.7" r="1.4"/>
	<circle class="st10" cx="44.8" cy="50.4" r="1.5"/>
	<circle class="st10" cx="98.3" cy="55.8" r="1.4"/>
	<circle class="st10" cx="11.8" cy="75.2" r="1.5"/>
	<path class="st10" d="M62.2,41.8c0-0.8,0.6-1.4,1.4-1.4c0.8,0,1.4,0.6,1.4,1.4c0,0.8-0.6,1.4-1.4,1.4
		C62.8,43.2,62.2,42.6,62.2,41.8z"/>
	<path class="st10" d="M14.3,49.6c0-0.8,0.6-1.4,1.4-1.4c0.8,0,1.4,0.6,1.4,1.4c0,0.8-0.6,1.4-1.4,1.4
		C14.9,50.9,14.3,50.3,14.3,49.6z"/>
	<circle class="st10" cx="10.3" cy="53.3" r="1.3"/>
	<circle class="st10" cx="64.9" cy="79.3" r="1.3"/>
	<path class="st10" d="M102.1,50.2c0-0.8,0.6-1.4,1.4-1.4c0.8,0,1.4,0.6,1.4,1.4c0,0.8-0.6,1.4-1.4,1.4
		C102.8,51.6,102.1,51,102.1,50.2z"/>
	<path class="st10" d="M61.3,96.7c0-0.7,0.6-1.2,1.2-1.2c0.7,0,1.2,0.6,1.2,1.2c0,0.7-0.6,1.2-1.2,1.2
		C61.8,97.9,61.3,97.4,61.3,96.7z"/>
	<circle class="st10" cx="68.1" cy="34.3" r="1.3"/>
	<circle class="st10" cx="51.5" cy="84.8" r="1.6"/>
	<path class="st10" d="M40.1,60.1c0-0.8,0.7-1.5,1.5-1.5c0.8,0,1.5,0.7,1.5,1.5c0,0.8-0.7,1.5-1.5,1.5
		C40.8,61.5,40.1,60.9,40.1,60.1z"/>
	<path class="st10" d="M30.7,25c0-0.7,0.6-1.3,1.3-1.3s1.3,0.6,1.3,1.3s-0.6,1.3-1.3,1.3S30.7,25.7,30.7,25z"/>
	<path class="st10" d="M48.3,21.1c0-0.8,0.7-1.5,1.5-1.5c0.8,0,1.5,0.7,1.5,1.5c0,0.8-0.7,1.5-1.5,1.5C49,22.5,48.3,21.9,48.3,21.1z
		"/>
	<path class="st10" d="M80.3,59.5c0-0.8,0.6-1.4,1.4-1.4c0.8,0,1.4,0.6,1.4,1.4s-0.6,1.4-1.4,1.4C80.9,60.9,80.3,60.3,80.3,59.5z"/>
	<path class="st10" d="M107.6,82.9c0-0.7,0.6-1.3,1.3-1.3c0.7,0,1.3,0.6,1.3,1.3c0,0.7-0.6,1.3-1.3,1.3
		C108.2,84.2,107.6,83.7,107.6,82.9z"/>
	<path class="st10" d="M3.4,65.3c0-0.8,0.6-1.4,1.4-1.4s1.4,0.6,1.4,1.4c0,0.8-0.6,1.4-1.4,1.4S3.4,66.1,3.4,65.3z"/>
	<path class="st10" d="M21.3,101c0-0.7,0.6-1.3,1.3-1.3c0.7,0,1.3,0.6,1.3,1.3c0,0.7-0.6,1.3-1.3,1.3
		C21.9,102.3,21.3,101.7,21.3,101z"/>
	<path class="st10" d="M47.6,51.6c0-0.8,0.6-1.4,1.4-1.4c0.8,0,1.4,0.6,1.4,1.4c0,0.8-0.6,1.4-1.4,1.4
		C48.2,53.1,47.6,52.4,47.6,51.6z"/>
	<path class="st10" d="M31,101.8c0-0.8,0.6-1.4,1.4-1.4c0.8,0,1.4,0.6,1.4,1.4c0,0.8-0.6,1.4-1.4,1.4C31.6,103.2,31,102.6,31,101.8z
		"/>
	<path class="st10" d="M32.8,64.3c0-0.7,0.6-1.3,1.3-1.3c0.7,0,1.3,0.6,1.3,1.3c0,0.7-0.6,1.3-1.3,1.3
		C33.4,65.7,32.8,65.1,32.8,64.3z"/>
	<path class="st10" d="M38,72.6c0-0.8,0.6-1.4,1.4-1.4c0.8,0,1.4,0.6,1.4,1.4c0,0.8-0.6,1.4-1.4,1.4C38.6,74,38,73.4,38,72.6z"/>
	<path class="st10" d="M37,16.1c0-0.8,0.6-1.4,1.4-1.4s1.4,0.6,1.4,1.4c0,0.8-0.6,1.4-1.4,1.4S37,16.9,37,16.1z"/>
	<circle class="st10" cx="67.8" cy="47" r="1.4"/>
	<path class="st10" d="M107.4,63c0-0.8,0.6-1.4,1.4-1.4c0.8,0,1.4,0.6,1.4,1.4c0,0.8-0.6,1.4-1.4,1.4
		C108.1,64.4,107.4,63.8,107.4,63z"/>
	<path class="st10" d="M98.3,44.1c0-0.8,0.6-1.4,1.4-1.4s1.4,0.6,1.4,1.4c0,0.8-0.6,1.4-1.4,1.4S98.3,44.9,98.3,44.1z"/>
	<circle class="st10" cx="28.9" cy="83.5" r="1.6"/>
	<path class="st10" d="M86.8,56.1c0-0.8,0.6-1.4,1.4-1.4c0.8,0,1.4,0.6,1.4,1.4c0,0.8-0.6,1.4-1.4,1.4
		C87.4,57.5,86.8,56.9,86.8,56.1z"/>
	<path class="st10" d="M16.1,77.4c0-0.8,0.6-1.4,1.4-1.4s1.4,0.6,1.4,1.4s-0.6,1.4-1.4,1.4S16.1,78.2,16.1,77.4z"/>
	<path class="st10" d="M23.2,55.7c0-0.9,0.7-1.6,1.6-1.6s1.6,0.7,1.6,1.6s-0.7,1.6-1.6,1.6S23.2,56.6,23.2,55.7z"/>
	<path class="st10" d="M53.4,4.4c0-0.8,0.7-1.5,1.5-1.5c0.8,0,1.5,0.7,1.5,1.5s-0.7,1.5-1.5,1.5C54.1,5.9,53.4,5.2,53.4,4.4z"/>
	<circle class="st10" cx="67.1" cy="19.9" r="1.4"/>
	<circle class="st10" cx="25.1" cy="84.4" r="1.6"/>
	<path class="st10" d="M98.8,88.5c0-0.8,0.6-1.4,1.4-1.4c0.8,0,1.4,0.6,1.4,1.4s-0.6,1.4-1.4,1.4C99.4,89.9,98.8,89.3,98.8,88.5z"/>
	<path class="st10" d="M46.3,93.7c0-0.9,0.7-1.6,1.6-1.6c0.9,0,1.6,0.7,1.6,1.6s-0.7,1.6-1.6,1.6C47,95.3,46.3,94.6,46.3,93.7z"/>
	<circle class="st10" cx="77.7" cy="49.7" r="1.5"/>
	<path class="st10" d="M93.3,59.4c0-0.8,0.6-1.4,1.4-1.4c0.8,0,1.4,0.6,1.4,1.4c0,0.8-0.6,1.4-1.4,1.4
		C93.9,60.7,93.3,60.1,93.3,59.4z"/>
	<path class="st10" d="M50.2,38.3c0-0.7,0.6-1.3,1.3-1.3c0.7,0,1.3,0.6,1.3,1.3c0,0.7-0.6,1.3-1.3,1.3C50.8,39.6,50.2,39,50.2,38.3z
		"/>
	<path class="st10" d="M68.3,62.5c0-0.8,0.6-1.4,1.4-1.4c0.8,0,1.4,0.6,1.4,1.4c0,0.8-0.6,1.4-1.4,1.4
		C68.9,63.9,68.3,63.3,68.3,62.5z"/>
	<path class="st10" d="M89.5,74.2c0-0.8,0.6-1.4,1.4-1.4s1.4,0.6,1.4,1.4c0,0.8-0.6,1.4-1.4,1.4S89.5,75,89.5,74.2z"/>
	<path class="st10" d="M27.1,57.6c0-0.7,0.6-1.3,1.3-1.3c0.7,0,1.3,0.6,1.3,1.3c0,0.7-0.6,1.3-1.3,1.3
		C27.7,58.9,27.1,58.3,27.1,57.6z"/>
	<path class="st10" d="M65.9,70.4c0-0.7,0.6-1.2,1.2-1.2c0.7,0,1.2,0.6,1.2,1.2c0,0.7-0.6,1.2-1.2,1.2
		C66.4,71.6,65.9,71.1,65.9,70.4z"/>
	<path class="st10" d="M9.3,94.3c0-0.9,0.7-1.6,1.6-1.6c0.9,0,1.6,0.7,1.6,1.6c0,0.9-0.7,1.6-1.6,1.6C10,95.9,9.3,95.2,9.3,94.3z"/>
	<path class="st10" d="M85.6,31.1c0-0.8,0.7-1.5,1.5-1.5c0.8,0,1.5,0.7,1.5,1.5c0,0.8-0.7,1.5-1.5,1.5
		C86.3,32.5,85.6,31.9,85.6,31.1z"/>
	<circle class="st10" cx="49.9" cy="62.4" r="1.2"/>
	<path class="st10" d="M52.2,28.6c0-0.8,0.6-1.4,1.4-1.4c0.8,0,1.4,0.6,1.4,1.4c0,0.8-0.6,1.4-1.4,1.4
		C52.8,30.1,52.2,29.4,52.2,28.6z"/>
	<path class="st10" d="M70.2,101.2c0-0.8,0.6-1.4,1.4-1.4c0.8,0,1.4,0.6,1.4,1.4c0,0.8-0.6,1.4-1.4,1.4
		C70.9,102.6,70.2,101.9,70.2,101.2z"/>
	<path class="st10" d="M102.1,81.3c0-0.7,0.6-1.3,1.3-1.3c0.7,0,1.3,0.6,1.3,1.3c0,0.7-0.6,1.3-1.3,1.3
		C102.7,82.6,102.1,82,102.1,81.3z"/>
	<path class="st10" d="M3.5,66.3c0-0.8,0.6-1.4,1.4-1.4c0.8,0,1.4,0.6,1.4,1.4c0,0.8-0.6,1.4-1.4,1.4C4.2,67.7,3.5,67.1,3.5,66.3z"
		/>
	<path class="st10" d="M23.1,96.3c0-0.7,0.6-1.3,1.3-1.3c0.7,0,1.3,0.6,1.3,1.3s-0.6,1.3-1.3,1.3C23.7,97.7,23.1,97.1,23.1,96.3z"/>
	<circle class="st10" cx="32.5" cy="77.2" r="1.4"/>
	<path class="st10" d="M68.8,3.7c0-0.9,0.7-1.6,1.6-1.6c0.9,0,1.6,0.7,1.6,1.6c0,0.9-0.7,1.6-1.6,1.6C69.5,5.3,68.8,4.6,68.8,3.7z"
		/>
	<path class="st10" d="M32,61.7c0-0.8,0.6-1.4,1.4-1.4c0.8,0,1.4,0.6,1.4,1.4s-0.6,1.4-1.4,1.4C32.6,63.1,32,62.5,32,61.7z"/>
	<circle class="st10" cx="61.4" cy="71.2" r="1.4"/>
	<path class="st10" d="M40.9,22.7c0-0.8,0.6-1.4,1.4-1.4c0.8,0,1.4,0.6,1.4,1.4c0,0.8-0.6,1.4-1.4,1.4
		C41.6,24.1,40.9,23.5,40.9,22.7z"/>
	<path class="st10" d="M88.5,89.7c0-0.8,0.6-1.4,1.4-1.4s1.4,0.6,1.4,1.4s-0.6,1.4-1.4,1.4S88.5,90.5,88.5,89.7z"/>
	<circle class="st10" cx="111.3" cy="66.9" r="1.4"/>
	<path class="st10" d="M67.2,83.6c0-0.8,0.6-1.4,1.4-1.4c0.8,0,1.4,0.6,1.4,1.4c0,0.8-0.6,1.4-1.4,1.4
		C67.8,85.1,67.2,84.4,67.2,83.6z"/>
	<path class="st10" d="M53.8,46.4c0-0.9,0.7-1.6,1.6-1.6c0.9,0,1.6,0.7,1.6,1.6c0,0.9-0.7,1.6-1.6,1.6
		C54.5,48.1,53.8,47.3,53.8,46.4z"/>
	<path class="st10" d="M75,32.9c0-0.8,0.6-1.4,1.4-1.4c0.8,0,1.4,0.6,1.4,1.4c0,0.8-0.6,1.4-1.4,1.4C75.7,34.3,75,33.7,75,32.9z"/>
	<path class="st10" d="M98.1,99.6c0-0.7,0.6-1.3,1.3-1.3c0.7,0,1.3,0.6,1.3,1.3c0,0.7-0.6,1.3-1.3,1.3
		C98.7,101,98.1,100.4,98.1,99.6z"/>
	<path class="st10" d="M82.9,10.4c0-0.9,0.7-1.6,1.6-1.6c0.9,0,1.6,0.7,1.6,1.6c0,0.9-0.7,1.6-1.6,1.6C83.6,12,82.9,11.3,82.9,10.4z
		"/>
	<path class="st10" d="M61.3,11.6c0-0.8,0.7-1.5,1.5-1.5c0.8,0,1.5,0.7,1.5,1.5c0,0.8-0.7,1.5-1.5,1.5C61.9,13,61.3,12.4,61.3,11.6z
		"/>
	<path class="st10" d="M76.1,72.9c0-0.8,0.6-1.4,1.4-1.4s1.4,0.6,1.4,1.4c0,0.8-0.6,1.4-1.4,1.4S76.1,73.6,76.1,72.9z"/>
	<path class="st10" d="M40.2,51.2c0-0.8,0.7-1.5,1.5-1.5c0.8,0,1.5,0.7,1.5,1.5c0,0.8-0.7,1.5-1.5,1.5C40.9,52.7,40.2,52,40.2,51.2z
		"/>
	<path class="st10" d="M96.8,58.2c0-0.8,0.6-1.4,1.4-1.4c0.8,0,1.4,0.6,1.4,1.4s-0.6,1.4-1.4,1.4C97.4,59.6,96.8,59,96.8,58.2z"/>
	<path class="st10" d="M21.4,74.5c0-0.9,0.7-1.5,1.5-1.5c0.9,0,1.5,0.7,1.5,1.5c0,0.9-0.7,1.5-1.5,1.5C22.1,76,21.4,75.3,21.4,74.5z
		"/>
	<circle class="st10" cx="48.2" cy="5.7" r="1.4"/>
	<path class="st10" d="M10.3,50.2c0-0.8,0.6-1.4,1.4-1.4c0.8,0,1.4,0.6,1.4,1.4c0,0.8-0.6,1.4-1.4,1.4
		C10.9,51.6,10.3,50.9,10.3,50.2z"/>
	<path class="st10" d="M8,57.4c0-0.7,0.6-1.3,1.3-1.3s1.3,0.6,1.3,1.3s-0.6,1.3-1.3,1.3S8,58.1,8,57.4z"/>
	<path class="st10" d="M103.9,53.3c0-0.7,0.6-1.3,1.3-1.3c0.7,0,1.3,0.6,1.3,1.3c0,0.7-0.6,1.3-1.3,1.3
		C104.5,54.6,103.9,54,103.9,53.3z"/>
	<path class="st10" d="M85.6,72.7c0-0.8,0.7-1.5,1.5-1.5s1.5,0.7,1.5,1.5s-0.7,1.5-1.5,1.5S85.6,73.5,85.6,72.7z"/>
	<path class="st10" d="M63.3,98c0-0.7,0.6-1.2,1.2-1.2c0.7,0,1.2,0.6,1.2,1.2c0,0.7-0.6,1.2-1.2,1.2C63.9,99.3,63.3,98.7,63.3,98z"
		/>
	<path class="st10" d="M70,34c0-0.7,0.6-1.3,1.3-1.3c0.7,0,1.3,0.6,1.3,1.3s-0.6,1.3-1.3,1.3C70.6,35.4,70,34.8,70,34z"/>
	<path class="st10" d="M50.4,79.5c0-0.9,0.7-1.6,1.6-1.6c0.9,0,1.6,0.7,1.6,1.6s-0.7,1.6-1.6,1.6C51.1,81.1,50.4,80.4,50.4,79.5z"/>
	<circle class="st10" cx="44.8" cy="34.2" r="1.5"/>
	<path class="st10" d="M40.9,83.6c0-0.7,0.6-1.3,1.3-1.3c0.7,0,1.3,0.6,1.3,1.3c0,0.7-0.6,1.3-1.3,1.3
		C41.5,84.9,40.9,84.3,40.9,83.6z"/>
	<path class="st10" d="M47.2,30.7c0-0.8,0.7-1.5,1.5-1.5c0.8,0,1.5,0.7,1.5,1.5c0,0.8-0.7,1.5-1.5,1.5
		C47.9,32.1,47.2,31.5,47.2,30.7z"/>
	<path class="st10" d="M80,61.4c0-0.8,0.6-1.4,1.4-1.4c0.8,0,1.4,0.6,1.4,1.4c0,0.8-0.6,1.4-1.4,1.4C80.7,62.8,80,62.2,80,61.4z"/>
	<path class="st10" d="M37.3,9.2c0-0.7,0.6-1.3,1.3-1.3s1.3,0.6,1.3,1.3c0,0.7-0.6,1.3-1.3,1.3S37.3,9.9,37.3,9.2z"/>
	<path class="st10" d="M34.4,39.8c0-0.8,0.6-1.4,1.4-1.4s1.4,0.6,1.4,1.4s-0.6,1.4-1.4,1.4S34.4,40.6,34.4,39.8z"/>
	<circle class="st10" cx="23.2" cy="103.3" r="1.3"/>
	<path class="st10" d="M38.6,91.9c0-0.8,0.6-1.4,1.4-1.4c0.8,0,1.4,0.6,1.4,1.4c0,0.8-0.6,1.4-1.4,1.4
		C39.3,93.3,38.6,92.7,38.6,91.9z"/>
	<circle class="st10" cx="35.2" cy="99.4" r="1.4"/>
	<path class="st10" d="M28.7,62.9c0-0.7,0.6-1.3,1.3-1.3c0.7,0,1.3,0.6,1.3,1.3s-0.6,1.3-1.3,1.3C29.3,64.3,28.7,63.7,28.7,62.9z"/>
	<circle class="st10" cx="45.7" cy="75.2" r="1.4"/>
	<path class="st10" d="M35.1,16.7c0-0.8,0.6-1.4,1.4-1.4c0.8,0,1.4,0.6,1.4,1.4c0,0.8-0.6,1.4-1.4,1.4
		C35.7,18.1,35.1,17.4,35.1,16.7z"/>
	<path class="st10" d="M31.9,14.5c0-0.7,0.6-1.3,1.3-1.3c0.7,0,1.3,0.6,1.3,1.3c0,0.7-0.6,1.3-1.3,1.3
		C32.5,15.8,31.9,15.2,31.9,14.5z"/>
	<path class="st10" d="M112.8,61.3c0-0.8,0.6-1.4,1.4-1.4c0.8,0,1.4,0.6,1.4,1.4s-0.6,1.4-1.4,1.4C113.4,62.6,112.8,62,112.8,61.3z"
		/>
	<path class="st10" d="M86.9,41.8c0-0.8,0.6-1.4,1.4-1.4s1.4,0.6,1.4,1.4s-0.6,1.4-1.4,1.4S86.9,42.6,86.9,41.8z"/>
	<path class="st10" d="M87.8,27.5c0-0.9,0.7-1.5,1.5-1.5c0.9,0,1.5,0.7,1.5,1.5c0,0.9-0.7,1.5-1.5,1.5C88.5,29,87.8,28.3,87.8,27.5z
		"/>
	<circle class="st10" cx="91" cy="52.3" r="1.4"/>
	<circle class="st10" cx="16.3" cy="70.3" r="1.4"/>
	<circle class="st10" cx="26.3" cy="50.3" r="1.6"/>
	<circle class="st9" cx="40" cy="15.7" r="1.6"/>
	<path class="st9" d="M35.5,75.3c0-0.8,0.6-1.4,1.4-1.4s1.4,0.6,1.4,1.4c0,0.8-0.6,1.4-1.4,1.4S35.5,76,35.5,75.3z"/>
	<path class="st9" d="M60.3,88.8c0-0.9,0.7-1.6,1.6-1.6c0.9,0,1.6,0.7,1.6,1.6c0,0.9-0.7,1.6-1.6,1.6C61,90.4,60.3,89.7,60.3,88.8z"
		/>
	<path class="st9" d="M103.3,58.3c0-0.8,0.7-1.5,1.5-1.5s1.5,0.7,1.5,1.5c0,0.8-0.7,1.5-1.5,1.5S103.3,59.1,103.3,58.3z"/>
	<path class="st9" d="M26.9,72.2c0-0.9,0.7-1.7,1.7-1.7c0.9,0,1.7,0.7,1.7,1.7s-0.7,1.7-1.7,1.7C27.6,73.9,26.9,73.1,26.9,72.2z"/>
	<path class="st9" d="M92.4,85.6c0-0.9,0.7-1.6,1.6-1.6c0.9,0,1.6,0.7,1.6,1.6c0,0.9-0.7,1.6-1.6,1.6C93.1,87.2,92.4,86.5,92.4,85.6
		z"/>
	<path class="st9" d="M17.4,64.2c0-0.7,0.6-1.3,1.3-1.3s1.3,0.6,1.3,1.3s-0.6,1.3-1.3,1.3S17.4,64.9,17.4,64.2z"/>
	<circle class="st9" cx="47.5" cy="13.2" r="1.4"/>
	<path class="st9" d="M23.6,47.5c0-0.8,0.7-1.5,1.5-1.5c0.8,0,1.5,0.7,1.5,1.5S25.9,49,25.1,49C24.3,49,23.6,48.3,23.6,47.5z"/>
	<path class="st9" d="M94,81.2c0-0.8,0.6-1.4,1.4-1.4c0.8,0,1.4,0.6,1.4,1.4s-0.6,1.4-1.4,1.4C94.6,82.7,94,82,94,81.2z"/>
	<path class="st9" d="M64.6,92.3c0-0.8,0.6-1.4,1.4-1.4s1.4,0.6,1.4,1.4c0,0.8-0.6,1.4-1.4,1.4S64.6,93.1,64.6,92.3z"/>
	<path class="st9" d="M67.9,28.5c0-0.8,0.6-1.4,1.4-1.4c0.8,0,1.4,0.6,1.4,1.4c0,0.8-0.6,1.4-1.4,1.4C68.5,29.9,67.9,29.3,67.9,28.5
		z"/>
	<path class="st9" d="M42.4,8c0-0.9,0.7-1.7,1.7-1.7c0.9,0,1.7,0.7,1.7,1.7c0,0.9-0.7,1.7-1.7,1.7C43.1,9.7,42.4,8.9,42.4,8z"/>
	<circle class="st9" cx="64.9" cy="30.4" r="1.6"/>
	<circle class="st9" cx="44" cy="71.2" r="1.3"/>
	<path class="st9" d="M22.4,85.1c0-0.8,0.7-1.5,1.5-1.5c0.8,0,1.5,0.7,1.5,1.5c0,0.8-0.7,1.5-1.5,1.5C23.1,86.6,22.4,85.9,22.4,85.1
		z"/>
	<circle class="st9" cx="89.4" cy="58.8" r="1.5"/>
	<path class="st9" d="M3.3,83.6c0-0.7,0.6-1.3,1.3-1.3c0.7,0,1.3,0.6,1.3,1.3c0,0.7-0.6,1.3-1.3,1.3C3.9,84.9,3.3,84.3,3.3,83.6z"/>
	<circle class="st9" cx="18" cy="97.2" r="1.4"/>
	<path class="st9" d="M31.3,88c0-0.8,0.7-1.5,1.5-1.5c0.8,0,1.5,0.7,1.5,1.5c0,0.8-0.7,1.5-1.5,1.5C31.9,89.4,31.3,88.8,31.3,88z"/>
	<path class="st9" d="M49.5,45.6c0-0.8,0.7-1.5,1.5-1.5c0.8,0,1.5,0.7,1.5,1.5c0,0.8-0.7,1.5-1.5,1.5C50.2,47,49.5,46.4,49.5,45.6z"
		/>
	<path class="st9" d="M72.1,5.1c0-0.8,0.7-1.5,1.5-1.5S75,4.3,75,5.1c0,0.8-0.7,1.5-1.5,1.5S72.1,5.9,72.1,5.1z"/>
	<path class="st9" d="M35.7,63.2c0-0.8,0.6-1.4,1.4-1.4s1.4,0.6,1.4,1.4s-0.6,1.4-1.4,1.4S35.7,64,35.7,63.2z"/>
	<circle class="st9" cx="91" cy="91.6" r="1.5"/>
	<path class="st9" d="M36.4,23.9c0-0.8,0.6-1.4,1.4-1.4c0.8,0,1.4,0.6,1.4,1.4c0,0.8-0.6,1.4-1.4,1.4C37,25.3,36.4,24.7,36.4,23.9z"
		/>
	<path class="st9" d="M99.1,86.2c0-0.7,0.6-1.4,1.4-1.4c0.7,0,1.4,0.6,1.4,1.4c0,0.7-0.6,1.4-1.4,1.4C99.7,87.6,99.1,87,99.1,86.2z"
		/>
	<path class="st9" d="M81.2,83.2c0-0.9,0.7-1.5,1.5-1.5c0.9,0,1.5,0.7,1.5,1.5c0,0.9-0.7,1.5-1.5,1.5C81.9,84.8,81.2,84.1,81.2,83.2
		z"/>
	<path class="st9" d="M106.7,43c0-0.8,0.7-1.5,1.5-1.5c0.8,0,1.5,0.7,1.5,1.5s-0.7,1.5-1.5,1.5C107.4,44.5,106.7,43.8,106.7,43z"/>
	<circle class="st9" cx="39.3" cy="32.5" r="1.7"/>
	<circle class="st9" cx="79.4" cy="34.5" r="1.5"/>
	<circle class="st9" cx="66.2" cy="54.3" r="1.5"/>
	<path class="st9" d="M88.1,13.8c0-0.9,0.7-1.6,1.6-1.6c0.9,0,1.6,0.7,1.6,1.6c0,0.9-0.7,1.6-1.6,1.6C88.8,15.4,88.1,14.7,88.1,13.8
		z"/>
	<path class="st9" d="M55.8,66.9c0-0.8,0.7-1.5,1.5-1.5c0.8,0,1.5,0.7,1.5,1.5c0,0.8-0.7,1.5-1.5,1.5C56.4,68.3,55.8,67.7,55.8,66.9
		z"/>
	<path class="st9" d="M80,100c0-0.8,0.7-1.5,1.5-1.5c0.8,0,1.5,0.7,1.5,1.5c0,0.8-0.7,1.5-1.5,1.5C80.6,101.5,80,100.8,80,100z"/>
	<path class="st9" d="M86.1,20.5c0-0.9,0.7-1.6,1.6-1.6c0.9,0,1.6,0.7,1.6,1.6c0,0.9-0.7,1.6-1.6,1.6C86.8,22.1,86.1,21.4,86.1,20.5
		z"/>
	<circle class="st9" cx="112.5" cy="65.4" r="1.4"/>
	<circle class="st9" cx="68.2" cy="91.4" r="1.7"/>
	<path class="st9" d="M72.8,20.3c0-0.9,0.7-1.6,1.6-1.6c0.9,0,1.6,0.7,1.6,1.6s-0.7,1.6-1.6,1.6C73.5,21.8,72.8,21.1,72.8,20.3z"/>
	<circle class="st9" cx="54.9" cy="53" r="1.3"/>
	<path class="st9" d="M43.7,47.9c0-0.7,0.6-1.3,1.3-1.3c0.7,0,1.3,0.6,1.3,1.3c0,0.7-0.6,1.3-1.3,1.3C44.3,49.3,43.7,48.7,43.7,47.9
		z"/>
	<path class="st9" d="M74.4,7.5c0-0.8,0.7-1.5,1.5-1.5c0.8,0,1.5,0.7,1.5,1.5S76.7,9,75.8,9C75,9,74.4,8.3,74.4,7.5z"/>
	<path class="st9" d="M74.4,82.2c0-0.8,0.7-1.5,1.5-1.5c0.8,0,1.5,0.7,1.5,1.5c0,0.8-0.7,1.5-1.5,1.5C75.1,83.7,74.4,83,74.4,82.2z"
		/>
	<path class="st9" d="M104,75c0.6,0.5,0.8,1.4,0.3,2c-0.5,0.6-1.4,0.8-2,0.3c-0.6-0.5-0.8-1.4-0.3-2C102.5,74.6,103.4,74.5,104,75z"
		/>
	<circle class="st9" cx="66.3" cy="73.1" r="1.4"/>
	<circle class="st9" cx="35.3" cy="48.1" r="1.6"/>
	<circle class="st9" cx="80.3" cy="24.2" r="1.5"/>
	<path class="st9" d="M3.2,57.4c0-0.8,0.6-1.4,1.4-1.4C5.4,56,6,56.6,6,57.4c0,0.8-0.6,1.4-1.4,1.4C3.8,58.8,3.2,58.2,3.2,57.4z"/>
	<path class="st9" d="M31.9,52.5c0-0.9,0.7-1.6,1.6-1.6s1.6,0.7,1.6,1.6s-0.7,1.6-1.6,1.6S31.9,53.4,31.9,52.5z"/>
	<path class="st9" d="M93.9,64.2c0-0.8,0.7-1.5,1.5-1.5c0.8,0,1.5,0.7,1.5,1.5c0,0.8-0.7,1.5-1.5,1.5C94.5,65.6,93.9,65,93.9,64.2z"
		/>
	<path class="st9" d="M101,94.6c0-0.8,0.6-1.4,1.4-1.4c0.8,0,1.4,0.6,1.4,1.4c0,0.8-0.6,1.4-1.4,1.4C101.6,96.1,101,95.4,101,94.6z"
		/>
	<path class="st9" d="M83.1,63.9c0-0.8,0.6-1.4,1.4-1.4c0.8,0,1.4,0.6,1.4,1.4c0,0.8-0.6,1.4-1.4,1.4C83.7,65.4,83.1,64.7,83.1,63.9
		z"/>
	<path class="st9" d="M38.9,66.1c0-0.8,0.6-1.4,1.4-1.4c0.8,0,1.4,0.6,1.4,1.4c0,0.8-0.6,1.4-1.4,1.4C39.5,67.6,38.9,66.9,38.9,66.1
		z"/>
	<path class="st9" d="M97,75.5c0-0.8,0.6-1.4,1.4-1.4c0.8,0,1.4,0.6,1.4,1.4c0,0.8-0.6,1.4-1.4,1.4C97.6,76.9,97,76.3,97,75.5z"/>
	<circle class="st9" cx="69.4" cy="10.9" r="1.5"/>
	<path class="st9" d="M5.2,90.2c0-0.8,0.6-1.4,1.4-1.4c0.8,0,1.4,0.6,1.4,1.4s-0.6,1.4-1.4,1.4C5.8,91.6,5.2,91,5.2,90.2z"/>
	<path class="st9" d="M86.8,84.4c0-0.8,0.7-1.5,1.5-1.5c0.8,0,1.5,0.7,1.5,1.5c0,0.8-0.7,1.5-1.5,1.5C87.4,85.9,86.8,85.2,86.8,84.4
		z"/>
	<circle class="st9" cx="75.4" cy="68.7" r="1.5"/>
	<circle class="st9" cx="96.9" cy="91.4" r="1.4"/>
	<circle class="st9" cx="61" cy="79.6" r="1.4"/>
	<circle class="st9" cx="93.7" cy="68.8" r="1.4"/>
	<path class="st9" d="M26.7,69c0-0.9,0.7-1.7,1.7-1.7c0.9,0,1.7,0.7,1.7,1.7c0,0.9-0.7,1.7-1.7,1.7C27.4,70.7,26.7,69.9,26.7,69z"/>
	<path class="st9" d="M87.3,16c0-0.8,0.7-1.5,1.5-1.5s1.5,0.7,1.5,1.5s-0.7,1.5-1.5,1.5S87.3,16.8,87.3,16z"/>
	<path class="st9" d="M20.1,87.9c0-0.9,0.7-1.5,1.5-1.5s1.5,0.7,1.5,1.5c0,0.9-0.7,1.5-1.5,1.5S20.1,88.8,20.1,87.9z"/>
	<path class="st9" d="M84.2,43.7c0-0.9,0.7-1.6,1.6-1.6c0.9,0,1.6,0.7,1.6,1.6c0,0.9-0.7,1.6-1.6,1.6C84.9,45.3,84.2,44.6,84.2,43.7
		z"/>
	<path class="st9" d="M63.9,5c0-0.9,0.7-1.6,1.6-1.6C66.3,3.4,67,4.1,67,5c0,0.9-0.7,1.6-1.6,1.6C64.6,6.6,63.9,5.9,63.9,5z"/>
	<path class="st9" d="M81,46.5c0-0.9,0.7-1.6,1.6-1.6c0.9,0,1.6,0.7,1.6,1.6c0,0.9-0.7,1.6-1.6,1.6C81.7,48.1,81,47.4,81,46.5z"/>
	<path class="st11" d="M90.3,2.1c-4.5-0.7-13.2-1.4-15.4-1.5c-0.9-0.1-2.9-0.2-5.2-0.3C73.8,7.1,63,10.6,53.5,13
		c5.3,0.5,11.2,1.3,11.4,2c0,0,0,0.1,0,0.1c2.9-1.3,8.3-3.6,10.3-4.2c2.2-0.6,12.3-6,16.2-7.6C91.1,2.9,90.7,2.5,90.3,2.1z"/>
	<path class="st12" d="M39.9,105.6c0.1-3.8-0.7-20.2-0.8-23.2c-0.2-3.1-0.5-20.2-0.9-22.6c0-0.1,0-0.2-0.1-0.3
		c-0.2-0.3-3.1-0.9-6.7-1.6c1.4,28.9-7.8,37.6-18,41.3c1.5,0.5,2.7,0.9,3.1,1c1,0.3,13.8,4,20,5.5C37.6,105.8,38.7,105.7,39.9,105.6
		z"/>
	<path class="st13" d="M99.2,104c0.8-0.3,1.5-0.7,2.3-1.1c0.2-4.5-1.6-22.6-1.7-24.1C99.6,77.1,99.4,57,99,56.2c0,0,0,0-0.1-0.1
		c-0.7-0.3-5.8-0.3-10.9-0.2c7.5,26.3-2,40-11.2,47.6c0,0,0.1,0,0.1,0C79.2,103.6,93.7,104.1,99.2,104z"/>
	<path class="st12" d="M64.5,59.4c0.2,0,0.4,0.1,0.6,0.1c1.1-0.1,2.2-0.3,3.2-0.5c0-4.2-2-21.5-1.6-22.7c0.4-1.3-1.2-19.1-1.7-21.1
		c0-0.1,0-0.1,0-0.1c-0.2-0.6-4.8-1.2-9.5-1.8c0.9,8.8,2.5,17.7-3.8,25.6c-5.9,7.4-11,11.7-20.9,11.3c0.1,1.5,0.1,2.5,0.2,2.6
		c0.4,0.6,15.5,4,17.1,3.8c1.1-0.1,9.8,1.9,15.4,2.9C63.8,59.4,64.1,59.3,64.5,59.4z"/>
	<path class="st14" d="M93.3,8.6c0-0.3,0-0.7,0-1c-0.3-1.6-0.9-3.1-1.8-4.3c-4,1.6-14.1,7-16.2,7.6c-2,0.6-7.4,2.9-10.3,4.2
		c0.4,2.1,2.1,19.8,1.7,21.1c-0.3,1.2,1.6,18.5,1.6,22.7c0.6-0.2,1.3-0.4,1.9-0.6c1.6-0.7,3.2-1.6,4.8-2.1c2.1-1.2,4.3-2.5,5.8-3.3
		C79.3,47,77,38.5,78.5,27.4C79.9,16.6,86.9,12.7,93.3,8.6z"/>
	<path class="st15" d="M99.8,78.8c0.2,1.5,2,19.6,1.7,24.1c1.1-0.6,2.1-1.2,3.1-1.9c1.2-1.2,2.5-2.7,3.4-3.9
		c0.4-18.7,2.8-33,7.6-40.8c-0.2-4.2-0.5-9.3-0.8-12.4c-0.1-0.2-0.2-0.4-0.3-0.6c-0.3-0.5-0.7-0.9-1.2-1.3c-0.1-0.1-0.1-0.1-0.2-0.2
		c-0.1,0.1-0.2,0.2-0.4,0.2c-1.8,1.6-4.9,4.9-6.9,7c-2,2.1-5.2,5.3-7,7c0,0,0.1,0,0.1,0.1C99.4,57,99.6,77.1,99.8,78.8z"/>
	<path class="st16" d="M94.2,44.2C94.2,44.3,94.2,44.3,94.2,44.2c-0.2,1.4-10.5,7-11.5,7.6c-0.5,0.3-4.3,2.5-7.9,4.5
		c1.2,0.1,2.1,0.1,2.5,0c2.2-0.2,20.1-0.9,21.6-0.3c1.6-1.6,4.4-4.3,6.4-6.4C102.2,48.2,98,46.1,94.2,44.2z"/>
	<path class="st16" d="M94.2,44.3c-0.2,1.3-10.5,6.9-11.5,7.5c-0.5,0.3-4.3,2.5-7.9,4.5c1.2,0.1,2.1,0.1,2.5,0
		c2.2-0.2,20.1-0.9,21.6-0.3c0,0,0,0,0,0l-4.3-11.7c0,0,0,0,0,0C94.4,44.4,94.3,44.3,94.2,44.3C94.2,44.3,94.2,44.3,94.2,44.3z"/>
	<path class="st17" d="M64.5,59.4c0.2,0,0.4,0.1,0.6,0.1c1.1-0.1,2.2-0.3,3.2-0.5c0-4.2-2-21.5-1.6-22.7c0.4-1.3-1.2-19.1-1.7-21.1
		c0-0.1,0-0.1,0-0.1c-0.1-0.3-1.2-0.6-2.8-0.9c0.6,10,1.4,31.9-0.7,35.1c-1.8,2.8-21.8,2.2-30.6,1.9c0.1,0.9,0.1,1.5,0.2,1.6
		c0.4,0.6,15.5,4,17.1,3.8c1.1-0.1,9.8,1.9,15.4,2.9C63.8,59.4,64.1,59.3,64.5,59.4z"/>
	<path class="st18" d="M31.5,53l10.7,5.2c1.3-0.6,2.7-1.2,4-1.8C42.4,55.8,33.7,53.8,31.5,53z"/>
	<path class="st16" d="M99,56.2C99,56.2,99,56.2,99,56.2c-1.5-0.7-19.4,0-21.7,0.2c-0.4,0-1.3,0-2.5,0c-3.1,1.8-6,2.4-6.5,2.5
		c0,0-8,0-13.7-1.2c-0.1,2.5,0,7.1,0.2,11.4c5.9,3.2,14.4,7.8,14.4,7.8l30.2-17.1C99.2,57.8,99.1,56.4,99,56.2z"/>
	<path class="st19" d="M39,82.5c-0.2-3.1-0.5-20.2-0.9-22.6c0-0.1,0-0.2-0.1-0.3c-0.1-0.2-1.4-0.6-3.4-1c0.3,9.2,1.1,36.6-0.9,38.1
		c-1.6,1.2-21.2-1.2-31.4-3.1c0.4,0.8,0.7,1.5,1.1,2.2c0,0,0.1,0.1,0.1,0.1c3.2,1.2,11.7,3.9,12.8,4.3c1,0.3,13.8,4,20,5.5
		c1.2,0,2.3-0.1,3.5-0.2C40,101.8,39.2,85.4,39,82.5z"/>
	<path class="st20" d="M99.8,78.8C99.6,77.1,99.4,57,99,56.2c0,0,0,0-0.1-0.1c-0.4-0.2-2.4-0.3-5-0.3C94.7,68.5,95,89.4,93.6,93
		c-1.4,3.6-24.8,6.1-37.3,6.9c0,0.4,0.1,0.8,0.1,1.1c0,0.1,0.1,0.2,0.1,0.3c0,0.1,0,0.2,0.1,0.3c0.1,0.1,0.3,0.2,0.4,0.4l0.4,0.5
		c0.2,0.1,0.4,0.2,0.6,0.3c4.1,0.6,16.7,0.8,19,0.8c2.2,0,16.8,0.5,22.3,0.5c0.8-0.3,1.5-0.7,2.3-1.1
		C101.8,98.5,99.9,80.4,99.8,78.8z"/>
	<path class="st21" d="M54.6,57.7c-3.3-0.7-6-1.2-6.5-1.1c-0.3,0-0.9,0-1.7-0.2c-2.9,1.3-6.2,2.7-8.2,3.5c0.1,0.6,0.2,2.3,0.3,4.6
		c6.2-1.9,11.3-3.8,12,0.4c0.6,3.5,1.4,22.8,1.9,34.5c1.6-1,2.9-1.9,3.7-2.4c-0.4-6.5-0.8-16.8-1-18.4C55,76.7,54.4,62.9,54.6,57.7z
		"/>
	<path class="st22" d="M58.6,13.3c0,0,6.5,0.7,6.7,9.1c0.7-5.6,1.5-8.5,6.8-10.4C66.5,14.3,62.8,14.3,58.6,13.3z"/>
	<path class="st23" d="M90.2,56.1c0,0,9.2-1.3,9.4,9.3c0.8-6.3,0.5-8.7,4-13.8C100.3,54.8,100,56.9,90.2,56.1z"/>
	<path class="st24" d="M29.4,58.1c0,0,8.5,1,8.8,10.9c0.8-6,0.3-9.2,6.6-11.9C37.9,59.4,37.4,60.2,29.4,58.1z"/>
	<circle class="st9" cx="81.7" cy="90.4" r="1.4"/>
	<path class="st9" d="M96.7,58.6c0-0.8,0.6-1.4,1.4-1.4s1.4,0.6,1.4,1.4c0,0.8-0.6,1.4-1.4,1.4S96.7,59.4,96.7,58.6z"/>
	<path class="st25" d="M39.3,97.1c0,0,0.8,8-3.9,8.4c5.3,1.6,9.3-1.3,9.3-1.3S41,104.4,39.3,97.1z"/>
	<path class="st26" d="M95.6,103.9c0,0,5.5,0,5.3-9.3c1.4,6.4,3.8,5.9,3.8,5.9S103.7,105.2,95.6,103.9z"/>
	<path class="st27" d="M62.3,58.7c0,0,5,1.4,5.3-7.9c1.6,6,4.8,6.6,4.8,6.6S67.7,60.6,62.3,58.7z"/>
	<path class="st9" d="M40.2,46.1c0-0.9,0.7-1.6,1.6-1.6c0.9,0,1.6,0.7,1.6,1.6c0,0.9-0.7,1.6-1.6,1.6C40.9,47.7,40.2,47,40.2,46.1z"
		/>
	<path class="st9" d="M101.2,100.3c0-0.9,0.7-1.6,1.6-1.6c0.9,0,1.6,0.7,1.6,1.6c0,0.9-0.7,1.6-1.6,1.6
		C101.9,101.9,101.2,101.2,101.2,100.3z"/>
	<circle class="st9" cx="38.5" cy="102.9" r="1.4"/>
	<circle class="st10" cx="42.7" cy="102.3" r="1.6"/>
	<path class="st10" d="M64.8,56.6c0-0.9,0.7-1.6,1.6-1.6c0.9,0,1.6,0.7,1.6,1.6s-0.7,1.6-1.6,1.6C65.5,58.2,64.8,57.5,64.8,56.6z"/>
	<circle class="st10" cx="64.6" cy="14.3" r="1.6"/>
	<path class="st10" d="M98.7,101.5c0-0.9,0.7-1.6,1.6-1.6c0.9,0,1.6,0.7,1.6,1.6c0,0.9-0.7,1.6-1.6,1.6
		C99.4,103.1,98.7,102.4,98.7,101.5z"/>
	<circle class="st10" cx="13.5" cy="65" r="1.6"/>
	<circle class="st9" cx="69.4" cy="54.7" r="1.5"/>
	<circle class="st9" cx="66.2" cy="16.6" r="1.5"/>
</g>
</svg>
