<svg xmlns="http://www.w3.org/2000/svg" xmlns:xlink="http://www.w3.org/1999/xlink" xml:space="preserve" version="1.1" style="shape-rendering:geometricPrecision;text-rendering:geometricPrecision;image-rendering:optimizeQuality;" viewBox="0 0 60000 75000" x="0px" y="0px" fill-rule="evenodd" clip-rule="evenodd"><defs><style type="text/css">
   
    .fil0 {fill:black;fill-rule:nonzero}
   
  </style></defs><g><path class="fil0" d="M48024 15266c-961,573 -1640,1266 -2136,2043 -510,798 -834,1691 -1079,2638 -193,747 -343,1411 -452,2009 347,-147 790,-275 1311,-379 1228,-247 2916,-399 4775,-399 2743,0 5115,366 6239,897 -382,-3377 -3054,-4629 -5222,-5645 -177,-83 -351,-164 -530,-250 -998,-362 -1965,-664 -2907,-913zm6756 2089c101,53 227,99 358,135 260,71 518,100 653,81 325,-45 638,-154 916,-310 -690,-339 -1350,-681 -1676,-1065 -105,-123 -186,-286 -237,-453 -50,-167 -73,-350 -57,-510 23,-235 117,-492 318,-713 156,-173 375,-322 671,-418l41 -13 33 -4c175,-22 359,-26 546,-12 457,33 928,177 1305,444 402,285 698,701 768,1262 16,129 19,265 9,411 -14,190 -37,329 -88,472 -50,138 -121,259 -233,412 169,91 329,184 472,277 185,120 237,367 117,552 -120,185 -367,237 -552,117 -178,-115 -389,-232 -615,-349 -122,96 -253,185 -389,264 -371,215 -791,366 -1231,428 1051,1158 1743,2756 1601,5131 -116,1947 -811,3434 -1459,4820 -664,1421 -1275,2728 -1072,4273 78,597 175,758 288,946 90,150 188,313 297,624 70,201 107,411 117,630l1 1 -1 1c36,741 -223,1572 -483,2403 -192,613 -383,1227 -436,1757 302,1202 344,2022 233,2609 -127,668 -440,1046 -809,1323 -169,127 -376,297 -604,484 -865,710 -2013,1653 -3011,1812 -419,67 -797,-35 -1109,-242 -228,-151 -417,-358 -560,-594 -139,-230 -234,-492 -277,-762 -70,-440 1,-899 253,-1278 172,-259 387,-502 611,-756 532,-603 1123,-1274 987,-2064 -4,-22 -7,-44 -8,-67 -36,-967 -79,-1772 -157,-2473 -310,771 -807,1415 -1256,1997 -175,227 -341,442 -488,660l-10 15 -17 20c-477,564 -940,952 -1384,1209 -459,267 -897,395 -1307,434 -239,23 -891,-50 -1420,-180 -442,-108 -837,-276 -976,-504 -311,-510 106,-1219 687,-2206 868,-1475 2167,-3684 1758,-6204 -3361,2035 -6401,3031 -9300,3411 -3343,438 -6476,55 -9696,-496 -158,826 -174,1544 -70,2202 109,692 352,1327 701,1957 3,5 42,72 77,133 142,243 224,383 246,767 87,1481 -884,1749 -1851,2015 -309,85 -618,170 -846,303l11 30c192,514 330,881 -118,1391l0 0c-9,10 -19,20 -29,30l-2133 1977c-325,352 -775,539 -1239,623 -607,109 -1247,40 -1627,-64 -531,-145 -592,-320 -745,-763l-9 -26c-2,-6 -5,-12 -7,-19 -80,-230 -130,-472 -143,-719 -13,-235 8,-477 66,-721 109,-458 270,-633 468,-850 59,-64 123,-134 192,-227 451,-610 703,-1844 698,-3359 -5,-1445 -250,-3126 -784,-4755 -32,-96 -58,-171 -80,-234 -1061,613 -2024,1659 -2988,2706 -2159,2344 -4322,4694 -7856,2937 -212,-106 -506,-362 -676,-651 -154,-263 -224,-565 -106,-857 107,-265 327,-457 573,-672 247,-216 530,-463 628,-769 193,-601 286,-1342 168,-2218 -100,-746 -352,-1588 -822,-2523l27 -13c-924,-20 -2017,-312 -3410,-1086l0 0c-94,-52 -167,-143 -194,-256 -51,-214 81,-429 295,-480 885,-213 1527,-707 2105,-1277 -421,-9 -830,76 -1240,161 -1364,282 -2739,566 -4819,-1723 -89,-83 -139,-207 -124,-337 25,-219 223,-377 442,-352 2409,283 3537,-405 4670,-1095 439,-268 879,-536 1397,-761 560,-244 636,-453 773,-831 88,-242 195,-536 406,-921 1028,-1876 2936,-4299 5395,-6124 1878,-1394 4080,-2446 6465,-2655l0 1c15,-1 31,-2 47,-1 3665,123 6995,-330 10289,-779 6140,-836 12159,-1655 20089,1225l0 0c12,4 24,9 36,15 170,81 356,169 546,258 972,456 2037,955 2982,1648zm2604 -650c26,-32 51,-64 75,-96 67,-92 107,-157 130,-220 22,-60 33,-138 41,-256 7,-90 4,-176 -6,-257 -39,-312 -206,-545 -433,-706 -253,-179 -580,-277 -902,-300 -121,-9 -242,-7 -358,5 -131,48 -223,111 -286,180 -73,80 -107,171 -115,254 -5,54 6,127 29,204 21,70 49,132 80,168 250,294 931,627 1611,960l132 65zm-16853 2703c-912,-254 -2003,-493 -3051,-722 -2326,-509 -4454,-975 -4336,-1706 72,-447 380,-417 656,-390 24,2 48,5 74,6 937,51 1938,11 2939,-28 2082,-82 4164,-163 5753,546 279,124 496,301 651,507 158,210 252,451 279,698 27,246 -11,499 -117,736 -104,233 -272,448 -504,623 -543,409 -1181,162 -1804,-79 -186,-72 -370,-143 -541,-191zm-2946 -1210c1046,229 2135,467 3078,730 194,54 390,130 588,207 495,192 1002,388 1323,146 163,-123 280,-271 350,-428 69,-154 94,-318 76,-478 -18,-159 -78,-315 -182,-452 -107,-142 -259,-265 -456,-352 -1483,-662 -3507,-583 -5530,-503 -1014,40 -2028,79 -2984,28 -29,-2 -62,-5 -95,-8 -57,-6 -115,-44 -117,-28 -43,266 1864,683 3949,1140zm-4473 7975c562,-157 1128,-310 1694,-463 3057,-825 6074,-1640 8653,-3247 118,-781 311,-1672 579,-2714 263,-1022 617,-1991 1179,-2869 442,-691 1010,-1323 1759,-1874 -5886,-1348 -10773,-684 -15741,-7 -1758,239 -3526,480 -5354,635 382,709 649,1376 814,2092 186,809 238,1672 173,2718 429,9 884,63 1345,164 841,184 1712,519 2481,999 781,488 1460,1129 1906,1920 427,757 637,1641 515,2646zm10265 -3076c-2559,1508 -5482,2297 -8442,3096 -640,173 -1281,346 -1927,528 -8,20 -18,39 -30,58 -779,1238 -1825,2543 -2914,3901 -952,1187 -1937,2416 -2793,3665 3077,519 6072,867 9227,453 3189,-418 6564,-1615 10393,-4204l-87 -97c-2618,-2914 -3763,-4190 -3427,-7401zm-17012 -2640c66,-1018 19,-1849 -158,-2619 -168,-731 -455,-1415 -873,-2159 -1447,108 -2934,158 -4484,107 -2219,197 -4281,1186 -6047,2497 -1125,835 -2129,1799 -2978,2774 879,1290 2295,2123 3710,2956 2943,1732 5886,3465 4531,9147 860,-1597 1223,-3658 1569,-5618 543,-3085 1046,-5934 3384,-6738 361,-195 825,-310 1348,-348zm-8077 14333l-1 -1c295,-235 578,-546 805,-852 252,-339 432,-661 478,-854 1293,-5355 -1498,-6998 -4289,-8641 -1426,-839 -2852,-1679 -3792,-2992 -777,939 -1406,1873 -1857,2697 -180,329 -277,594 -356,812 -213,586 -331,910 -1205,1291 -466,203 -884,457 -1300,711 -1068,650 -2132,1298 -4085,1279 1377,1170 2363,967 3342,764 657,-136 1311,-271 2081,-97 1048,-1132 2121,-2244 4344,-2250 220,0 398,178 398,398 0,220 -178,398 -398,398 -1919,5 -2872,1035 -3823,2062 -644,696 -1288,1392 -2206,1834 2326,1039 3618,418 4910,-204 800,-384 1599,-769 2627,-839 220,-15 410,152 425,372 15,220 -152,410 -372,425 -878,60 -1607,410 -2336,761 -698,336 -1397,671 -2222,802 425,908 660,1738 761,2486 135,1006 26,1866 -199,2568 -166,516 -538,842 -863,1125 -170,149 -322,281 -358,369 -12,29 13,89 53,157 91,155 238,287 341,339 2296,1142 3983,162 5525,-1313 311,-444 268,-989 229,-1493 -70,-899 -132,-1703 1070,-2160 206,-78 436,27 514,233 78,206 -27,436 -233,514 -641,244 -600,768 -555,1354 12,153 24,309 29,466 112,-120 223,-242 335,-363 708,-769 1416,-1538 2181,-2160zm6627 4613l1498 -657c-169,-426 -293,-865 -366,-1329 -48,-303 -74,-616 -76,-942 -509,976 -886,1955 -1057,2928zm1698 -200l-1775 778c-51,573 -24,1143 96,1708 269,-127 567,-209 864,-291 655,-180 1313,-362 1264,-1199 -11,-190 -58,-270 -140,-411 -13,-23 -28,-49 -84,-148 -80,-145 -156,-291 -226,-437zm-5271 368c482,28 988,19 1474,-67 491,-87 962,-251 1364,-534 646,-3031 3041,-6020 5261,-8790 1056,-1318 2072,-2585 2822,-3764 197,-970 32,-1804 -360,-2498 -374,-663 -958,-1209 -1634,-1632 -689,-431 -1470,-731 -2227,-896 -1081,-236 -2089,-200 -2667,126 -23,13 -46,23 -70,31l0 0c-1915,635 -2380,3274 -2883,6132 -373,2120 -767,4354 -1796,6110 -98,168 -172,280 -227,365 -50,77 -70,66 -73,91l0 2 0 0c-2,19 20,30 57,130 39,105 90,241 140,396 536,1631 794,3320 820,4799zm2728 46c-366,187 -761,308 -1168,379 -517,91 -1052,103 -1561,74 -30,1549 -333,2837 -852,3538 -86,116 -169,207 -245,290 -121,133 -219,240 -281,497 -39,165 -53,331 -44,496 9,170 44,337 99,497 2,7 4,13 6,20l10 28c53,154 75,216 202,250 299,81 802,137 1277,51 309,-56 601,-171 793,-380 14,-16 30,-30 46,-43l2112 -1957c123,-151 56,-330 -37,-578l-12 -33c-389,-1042 -478,-2087 -345,-3128zm22538 -4888c554,84 1105,190 1632,374 544,190 1058,460 1515,868 91,-493 78,-1035 -101,-1640 -3,-10 -5,-20 -7,-29 -435,-946 -1122,-1866 -2217,-3107 -270,184 -537,360 -803,530 228,1068 181,2075 -19,3004zm2998 1790c-448,-461 -970,-750 -1530,-946 -504,-176 -1042,-278 -1587,-359 -393,1418 -1107,2632 -1659,3570 -440,748 -756,1285 -693,1388 14,22 223,81 486,145 455,112 981,177 1154,161 302,-29 631,-126 982,-331 363,-211 750,-536 1158,-1015 146,-215 323,-445 509,-686 431,-558 913,-1183 1179,-1928zm5238 -1097c-511,314 -1053,531 -1594,671 -774,201 -1544,246 -2216,200 127,850 187,1832 233,3065 193,1159 -527,1976 -1175,2711 -208,236 -408,463 -545,668 -135,203 -171,460 -131,712 26,166 86,329 174,474 84,139 191,258 316,341 154,102 339,153 543,120 785,-125 1838,-989 2630,-1640 233,-192 445,-366 632,-505 228,-171 422,-408 502,-832 94,-494 47,-1222 -238,-2336 -11,-44 -15,-87 -11,-130l-1 0c51,-631 263,-1312 476,-1992 165,-528 330,-1056 407,-1529zm-3898 364c651,59 1413,24 2179,-175 603,-157 1207,-417 1759,-815 -9,-136 -32,-264 -72,-380 -79,-226 -157,-355 -228,-474 -159,-263 -294,-488 -395,-1255 -233,-1774 425,-3183 1141,-4714 609,-1304 1262,-2702 1380,-4472 -368,182 -875,338 -1491,461 -1228,247 -2916,399 -4775,399 -1859,0 -3548,-153 -4775,-399 -626,-126 -1140,-285 -1510,-471 -166,2680 915,3885 3239,6471 45,50 14,15 0,0l0 0c21,24 112,125 392,437 1480,1653 2306,2778 2789,4068 157,418 276,850 368,1318zm-1901 -12853c-138,0 -250,-112 -250,-250 0,-138 112,-250 250,-250l3413 0c138,0 250,112 250,250 0,138 -112,250 -250,250l-3413 0zm-4779 -425c-25,168 -46,330 -64,488 272,165 821,330 1564,479 1192,239 2845,387 4678,387 1833,0 3486,-148 4678,-387 784,-158 1352,-333 1607,-507 1,-150 -2,-297 -9,-440 -649,-487 -3212,-851 -6275,-851 -1833,0 -3486,148 -4678,387 -689,138 -1211,291 -1501,444zm3132 7455c-6,-7 -9,-10 0,0l0 0z"/></g><text x="0" y="60015" fill="#000000" font-size="5px" font-weight="bold" font-family="'Helvetica Neue', Helvetica, Arial-Unicode, Arial, Sans-serif">Created by Olena Panasovska</text><text x="0" y="60020" fill="#000000" font-size="5px" font-weight="bold" font-family="'Helvetica Neue', Helvetica, Arial-Unicode, Arial, Sans-serif">from the Noun Project</text></svg>