<svg xmlns="http://www.w3.org/2000/svg" xmlns:xlink="http://www.w3.org/1999/xlink" version="1.1" x="0px" y="0px" viewBox="0 0 100 125" enable-background="new 0 0 100 100" xml:space="preserve"><path d="M75.038,40.564c-2.001-4.476-3.893-8.769-4.656-13.798h8.624v-2.159h-8.874c-0.048-0.6-0.098-1.198-0.111-1.822  c-0.173-8.47,1.36-10.597,4.72-15.259L71.235,5c-3.576,4.965-5.735,7.962-5.534,17.873c0.012,0.594,0.065,1.159,0.105,1.733h-9.676  H43.869h-9.676c0.04-0.574,0.093-1.139,0.105-1.733C34.5,12.962,32.341,9.965,28.765,5L25.26,7.526  c3.36,4.662,4.893,6.789,4.72,15.259c-0.013,0.624-0.063,1.222-0.111,1.822h-8.874v2.159h8.624  c-0.763,5.029-2.656,9.322-4.656,13.798c-2.946,6.591-6.284,14.059-6.121,24.859c0.143,9.429,2.948,16.83,8.335,21.991  C32.368,92.39,39.851,95,48.877,95c0.371,0,0.747-0.006,1.123-0.014C50.376,94.994,50.752,95,51.123,95  c9.026,0,16.509-2.61,21.701-7.586c5.387-5.162,8.191-12.562,8.335-21.991C81.322,54.623,77.984,47.155,75.038,40.564z   M58.719,26.766v63.159c-1.384,0.301-2.856,0.486-4.373,0.608V26.766h1.786H58.719z M45.654,26.766v63.768  c-1.517-0.122-2.989-0.307-4.373-0.608V26.766h2.587H45.654z M23.159,65.355c-0.15-9.842,2.846-16.545,5.745-23.029  c2.124-4.752,4.285-9.653,5.072-15.56h5.145v62.582c-3.536-1.068-6.564-2.757-8.959-5.052C25.64,79.962,23.284,73.591,23.159,65.355  z M50,90.664c-0.746,0.021-1.466,0.004-2.186-0.014V26.766h4.373v63.885C51.466,90.668,50.746,90.686,50,90.664z M69.838,84.295  c-2.395,2.296-5.423,3.984-8.959,5.052V26.766h5.145c0.788,5.907,2.949,10.809,5.072,15.56c2.898,6.484,5.894,13.186,5.745,23.029  C76.716,73.591,74.36,79.962,69.838,84.295z"/><text x="0" y="115" fill="#000000" font-size="5px" font-weight="bold" font-family="'Helvetica Neue', Helvetica, Arial-Unicode, Arial, Sans-serif">Created by Christopher T. Howlett</text><text x="0" y="120" fill="#000000" font-size="5px" font-weight="bold" font-family="'Helvetica Neue', Helvetica, Arial-Unicode, Arial, Sans-serif">from the Noun Project</text></svg>