<?xml version="1.0" encoding="utf-8"?>
<!-- Generator: Adobe Illustrator 25.0.0, SVG Export Plug-In . SVG Version: 6.00 Build 0)  -->
<svg version="1.1"
	 id="svg2" inkscape:version="0.48+devel r9935" sodipodi:docname="Documento nuevo 1" xmlns:cc="http://creativecommons.org/ns#" xmlns:dc="http://purl.org/dc/elements/1.1/" xmlns:inkscape="http://www.inkscape.org/namespaces/inkscape" xmlns:ns1="http://sozi.baierouge.fr" xmlns:rdf="http://www.w3.org/1999/02/22-rdf-syntax-ns#" xmlns:sodipodi="http://sodipodi.sourceforge.net/DTD/sodipodi-0.dtd" xmlns:svg="http://www.w3.org/2000/svg"
	 xmlns="http://www.w3.org/2000/svg" xmlns:xlink="http://www.w3.org/1999/xlink" x="0px" y="0px" viewBox="0 0 240.7 163.1"
	 style="enable-background:new 0 0 240.7 163.1;" xml:space="preserve">
<style type="text/css">
	.st0{fill:#F08F1F;}
	.st1{fill:#FED137;}
	.st2{fill:#FFF86B;}
	.st3{fill:#F7B11E;}
	.st4{fill:#E2AF49;}
	.st5{fill:#EFC86F;}
	.st6{fill:#4A9139;}
	.st7{fill:#F0BD2D;}
	.st8{fill:#F5C640;}
	.st9{fill:#F8E07E;}
	.st10{fill:#E6982A;}
	.st11{fill:#EDAA37;}
	.st12{fill:#F5DA6C;}
	.st13{fill:#9E9B8E;}
	.st14{fill:#F8CA45;}
	.st15{fill:#F8E9AB;}
	.st16{fill:#F8EFCB;}
	.st17{fill:#F8DE75;}
	.st18{opacity:0.6;fill:#F8CD52;}
	.st19{fill:#FFF5D9;}
	.st20{fill:#F5C438;}
	.st21{fill:#F8E9AE;}
</style>
<polygon class="st0" points="24.2,70.4 53.1,89.5 58.8,83.9 "/>
<g>
	<g>
		<path class="st0" d="M108.3,75.1L59.4,124c-2.3,2.3-6,2.3-8.4,0L2.1,75.1c-2.3-2.3-2.3-6,0-8.4L51,17.8c2.3-2.3,6-2.3,8.4,0
			l48.9,48.9C110.6,69,110.6,72.7,108.3,75.1z"/>
		<path class="st1" d="M107.9,74.1L59,123c-2.3,2.3-6,2.3-8.4,0L1.7,74.1c-2.3-2.3-2.3-6,0-8.4l48.9-48.9c2.3-2.3,6-2.3,8.4,0
			l48.9,48.9C110.2,68,110.2,71.8,107.9,74.1z"/>
		<polygon class="st0" points="103.1,60.7 90.1,93.5 86.4,96.8 		"/>
		<path class="st2" d="M1.9,66.7l48.9-48.9c2.3-2.3,6-2.3,8.4,0l48.9,48.9c0.7,0.7,1.2,1.6,1.5,2.5c-0.2-1.3-0.7-2.5-1.7-3.5
			L59,16.8c-2.3-2.3-6-2.3-8.4,0L1.7,65.7c-1.6,1.6-2.1,3.8-1.5,5.8C0,69.8,0.6,68,1.9,66.7z"/>
		<g>
			<path class="st3" d="M18.9,69.6c0,1.7-1.4,3-3,3s-3-1.4-3-3c0-1.7,1.4-3,3-3S18.9,67.9,18.9,69.6z"/>
			<path class="st3" d="M39.5,65.9c0,1.2-1,2.2-2.2,2.2s-2.2-1-2.2-2.2c0-1.2,1-2.2,2.2-2.2S39.5,64.7,39.5,65.9z"/>
			<path class="st3" d="M58.3,28.5c0,2.3-1.9,4.3-4.3,4.3c-2.3,0-4.3-1.9-4.3-4.3s1.9-4.3,4.3-4.3C56.4,24.2,58.3,26.1,58.3,28.5z"
				/>
			<circle class="st3" cx="44.8" cy="35.9" r="2.2"/>
			<circle class="st3" cx="62.4" cy="42.9" r="1.6"/>
			<circle class="st3" cx="21.2" cy="79.8" r="1.6"/>
			<path class="st3" d="M95,65.2c0,1.2-1,2.2-2.2,2.2s-2.2-1-2.2-2.2c0-1.2,1-2.2,2.2-2.2S95,63.9,95,65.2z"/>
			<path class="st3" d="M78.4,85.4c0,1.2-1,2.2-2.2,2.2s-2.2-1-2.2-2.2s1-2.2,2.2-2.2C77.4,83.1,78.4,84.1,78.4,85.4z"/>
			<path class="st3" d="M46.3,99.4c0,0.7-0.6,1.2-1.2,1.2c-0.7,0-1.2-0.6-1.2-1.2s0.6-1.2,1.2-1.2C45.7,98.2,46.3,98.7,46.3,99.4z"
				/>
			<circle class="st3" cx="56.7" cy="75.2" r="3.4"/>
			<path class="st3" d="M58,113.6c0,1.2-1,2.2-2.2,2.2s-2.2-1-2.2-2.2s1-2.2,2.2-2.2S58,112.3,58,113.6z"/>
		</g>
	</g>
	<g>
		<path class="st1" d="M105.7,54.9l-28.1,63.2c-1.3,3-4.8,4.3-7.8,3L6.6,93c-3-1.3-4.3-4.8-3-7.8L31.7,22c1.3-3,4.8-4.3,7.8-3
			l63.2,28.1C105.7,48.4,107,51.9,105.7,54.9z"/>
		<path class="st2" d="M4.1,86l28.1-63.2c1.3-3,4.8-4.3,7.8-3l63.2,28.1c0.9,0.4,1.7,1,2.3,1.8c-0.6-1.1-1.6-2.1-2.8-2.6L39.5,19
			c-3-1.3-6.5,0-7.8,3L3.6,85.2c-0.9,2-0.6,4.3,0.7,6C3.5,89.6,3.4,87.7,4.1,86z"/>
		<g>
			<path class="st3" d="M21,82.6c0.6,1.6-0.2,3.3-1.7,3.9c-1.6,0.6-3.3-0.2-3.9-1.7c-0.6-1.6,0.2-3.3,1.7-3.9
				C18.6,80.3,20.4,81,21,82.6z"/>
			<path class="st3" d="M39,71.8c0.4,1.1-0.1,2.4-1.3,2.9c-1.1,0.4-2.4-0.1-2.9-1.3c-0.4-1.1,0.1-2.4,1.3-2.9
				C37.2,70.1,38.5,70.6,39,71.8z"/>
			<path class="st3" d="M43.1,30.1c0.8,2.2-0.3,4.7-2.4,5.5c-2.2,0.8-4.7-0.3-5.5-2.4c-0.8-2.2,0.3-4.7,2.4-5.5
				C39.8,26.8,42.2,27.9,43.1,30.1z"/>
			<path class="st3" d="M35.2,41c0.4,1.1-0.1,2.4-1.3,2.9c-1.1,0.4-2.4-0.1-2.9-1.3c-0.4-1.1,0.1-2.4,1.3-2.9
				C33.5,39.3,34.8,39.9,35.2,41z"/>
			<path class="st3" d="M53.6,41.5c0.3,0.8-0.1,1.8-0.9,2.1c-0.8,0.3-1.8-0.1-2.1-0.9s0.1-1.8,0.9-2.1
				C52.3,40.2,53.2,40.6,53.6,41.5z"/>
			<path class="st3" d="M28.4,90.7c0.3,0.8-0.1,1.8-0.9,2.1c-0.8,0.3-1.8-0.1-2.1-0.9c-0.4-0.8,0-1.8,0.9-2.1
				C27.1,89.5,28,89.9,28.4,90.7z"/>
			<path class="st3" d="M90.5,51.1c0.4,1.1-0.1,2.4-1.3,2.9c-1.1,0.4-2.4-0.1-2.9-1.3c-0.4-1.1,0.1-2.4,1.3-2.9
				C88.7,49.4,90,50,90.5,51.1z"/>
			<path class="st3" d="M82.2,76c0.4,1.1-0.1,2.4-1.3,2.9c-1.1,0.4-2.4-0.1-2.9-1.3c-0.4-1.1,0.1-2.4,1.3-2.9S81.8,74.8,82.2,76z"/>
			<path class="st3" d="M57.3,100.6c0.2,0.6-0.1,1.4-0.7,1.6c-0.6,0.2-1.4-0.1-1.6-0.7s0.1-1.4,0.7-1.6C56.3,99.7,57,100,57.3,100.6
				z"/>
			<path class="st3" d="M61.5,73c0.7,1.7-0.2,3.7-1.9,4.4c-1.7,0.7-3.7-0.2-4.4-1.9c-0.7-1.7,0.2-3.7,1.9-4.4
				C58.9,70.4,60.8,71.3,61.5,73z"/>
			<path class="st3" d="M73.3,109.6c0.4,1.1-0.1,2.4-1.3,2.9c-1.1,0.4-2.4-0.1-2.9-1.3c-0.4-1.1,0.1-2.4,1.3-2.9
				C71.5,107.9,72.8,108.5,73.3,109.6z"/>
		</g>
	</g>
</g>
<g>
	<g>
		<path class="st4" d="M233,133.5v-2.7l-2.9-0.1c-5.8-3.4-11.6-6.8-17.4-10.2c-5.5-3.3-11.2-6.5-17.6-8.3c-4.8-1.3-9.9-1.7-14.7-2.8
			c-5.6-1.3-10.9-3.7-15.4-6.9c-1.5-1-3-2.2-4.8-2.4c-1.7-0.2-3.4,0.5-5,1.1c-8.7,3.4-18.2,5.3-27.8,5.7c-2.9,0.1-6,0.1-8.8,0.9
			c-4.2,1.1-7.5,3.9-10.8,6.3c-5.9,4.3-12.6,7.9-19.8,10.5c-2.7,1-5,2.1-6.7,3.2l-2.6-0.1v3.2c0,0.2,0,0.5,0,0.7l0,0l0,0
			c0.3,1.5,2.3,3,6.9,4.3c9.7,2.7,19,5.8,28.2,9.6c13.3,5.4,26.1,11.8,39.8,16.5c1.5,0.5,3.1,1,4.7,1.1c2.4,0.2,4.7-0.4,7-0.9
			c18.3-4.7,35.8-11.5,52-20.1c4.5-2.4,9-5,14-6.3C232.4,135.4,233.1,134.5,233,133.5L233,133.5z"/>
		<path class="st5" d="M87.9,121.4c7.2-2.6,13.9-6.1,19.8-10.5c3.3-2.4,6.6-5.2,10.8-6.3c2.8-0.8,5.8-0.7,8.8-0.9
			c9.6-0.4,19.1-2.3,27.8-5.7c1.6-0.6,3.2-1.3,5-1.1c1.9,0.2,3.4,1.4,4.8,2.4c4.5,3.2,9.7,5.6,15.4,6.9c4.9,1.1,9.9,1.5,14.7,2.8
			c6.4,1.7,12,5,17.6,8.3c6.4,3.8,12.8,7.5,19.2,11.3l0,0c1.8,1,1.3,3.3-0.7,3.9c-5,1.4-9.5,3.9-14,6.3c-16.2,8.6-33.7,15.4-52,20.1
			c-2.3,0.6-4.6,1.1-7,0.9c-1.6-0.1-3.2-0.6-4.7-1.1c-13.7-4.6-26.5-11-39.8-16.5c-9.2-3.8-18.5-6.9-28.2-9.6
			C73.5,129.4,79,124.6,87.9,121.4z"/>
	</g>
	<g>
		<path class="st6" d="M102.8,130.3c-0.1-0.1-0.2-0.2-0.3-0.2c-0.3,0-0.5-0.1-0.8-0.1c-0.1,0-0.3,0-0.4,0c-0.1,0.1-0.2,0.2-0.2,0.3
			s0,0.2,0.1,0.3s0.2,0.2,0.3,0.2c0.3,0,0.5,0.1,0.8,0.1c0.1,0,0.3,0,0.4,0c0.1-0.1,0.2-0.2,0.2-0.3
			C102.8,130.5,102.8,130.4,102.8,130.3z"/>
		<path class="st6" d="M115.7,121.9L115.7,121.9c-0.2-0.1-0.3-0.2-0.4-0.2s-0.2,0-0.4,0.1c-0.1,0-0.2,0.1-0.3,0.1
			c-0.2,0.1-0.3,0.2-0.5,0.3c-0.1,0.1-0.1,0.2-0.1,0.3c0,0.1,0.1,0.2,0.1,0.3c0.1,0.1,0.2,0.1,0.4,0.1h0.1c0.1,0,0.1-0.1,0.2-0.1
			l0,0c0.1-0.1,0.2-0.1,0.3-0.2c0.1,0,0.2-0.1,0.3-0.1h-0.1c0.1,0,0.1,0,0.2,0s0.1,0,0.2-0.1s0.2-0.2,0.1-0.3
			C115.9,122.1,115.8,122,115.7,121.9z"/>
		<path class="st6" d="M120.4,114.8C120.4,114.7,120.3,114.7,120.4,114.8c-0.1-0.1-0.2-0.2-0.3-0.2s-0.1,0-0.2,0h-0.1
			c-0.1,0-0.2,0.1-0.2,0.1c-0.1,0.1-0.1,0.2-0.1,0.3v0.5c0,0.1,0,0.1,0,0.2s0.1,0.1,0.1,0.1s0.1,0.1,0.2,0.1s0.1,0,0.2,0h0.1
			c0.1,0,0.2-0.1,0.2-0.1c0.1-0.1,0.1-0.2,0.1-0.3V115C120.4,114.9,120.4,114.9,120.4,114.8z"/>
		<path class="st6" d="M124.7,114.4C124.7,114.4,124.6,114.4,124.7,114.4c-0.2-0.1-0.3-0.2-0.4-0.2c-0.2,0-0.5,0-0.7-0.1
			c-0.1,0-0.1,0-0.2,0s-0.1,0-0.2,0.1l-0.1,0.1c0,0.1,0,0.1,0,0.2s0,0.2,0.1,0.3c0,0,0.1,0,0.1,0.1c0.1,0,0.2,0.1,0.3,0.1
			c0.2,0,0.5,0,0.7,0.1c0.1,0,0.1,0,0.2,0s0.1,0,0.2-0.1l0.1-0.1c0-0.1,0-0.1,0-0.2S124.8,114.5,124.7,114.4z"/>
		<path class="st6" d="M136.3,111.7c0-0.1-0.1-0.2-0.2-0.3c-0.1-0.1-0.3-0.1-0.4,0c-0.1,0-0.2,0.1-0.3,0.2s-0.1,0.2-0.1,0.3l0,0v0.1
			v0.1c0,0,0,0.1-0.1,0.1c0,0-0.1,0.1-0.1,0.2s0,0.1,0,0.2s0.1,0.2,0.2,0.3c0.1,0.1,0.3,0.1,0.4,0h0.1c0.1,0,0.1-0.1,0.2-0.2
			c0.1-0.1,0.1-0.2,0.1-0.2c0-0.1,0-0.1,0.1-0.2c0-0.1,0-0.2,0-0.3C136.3,111.9,136.3,111.8,136.3,111.7z"/>
		<path class="st6" d="M154.7,114.6c-0.1-0.1-0.2-0.2-0.3-0.2c-0.3-0.1-0.7-0.1-1-0.2c-0.1,0-0.3,0-0.4,0c-0.1,0.1-0.2,0.2-0.2,0.3
			c0,0.1,0,0.2,0.1,0.3c0.1,0.1,0.2,0.2,0.3,0.2c0.3,0.1,0.7,0.1,1,0.2c0.1,0,0.3,0,0.4,0c0.1-0.1,0.2-0.2,0.2-0.3
			C154.8,114.9,154.8,114.7,154.7,114.6z"/>
		<path class="st6" d="M147.1,125c0-0.2-0.1-0.4-0.3-0.6c-0.1-0.1-0.2-0.2-0.3-0.2s-0.3,0-0.4,0c-0.2,0.1-0.3,0.4-0.2,0.6l0.1,0.1
			c0,0.1,0.1,0.2,0.1,0.3c0,0.1,0,0.2,0,0.3l0,0c0,0.1,0,0.2,0.1,0.3c0.1,0.1,0.2,0.2,0.3,0.2s0.3,0,0.4,0c0.1-0.1,0.2-0.1,0.2-0.3
			C147.2,125.5,147.2,125.2,147.1,125z"/>
		<path class="st6" d="M153,124.6c-0.1-0.1-0.2-0.1-0.4-0.1c-0.4,0-0.8,0.1-1.3,0.1c-0.1,0-0.3,0-0.4,0.1c-0.1,0.1-0.2,0.2-0.1,0.3
			c0,0.1,0,0.2,0.1,0.3c0.1,0.1,0.2,0.1,0.4,0.1c0.4,0,0.8-0.1,1.3-0.1c0.1,0,0.3,0,0.4-0.1c0.1-0.1,0.2-0.2,0.1-0.3
			C153.1,124.8,153.1,124.7,153,124.6z"/>
		<path class="st6" d="M163.2,119.7c0-0.1-0.1-0.2-0.2-0.3c-0.1-0.1-0.3-0.1-0.4,0h-0.1c-0.1,0-0.1,0.1-0.2,0.2
			c-0.2,0.2-0.4,0.4-0.6,0.7c0,0-0.1,0.1-0.1,0.2s0,0.1,0,0.2s0.1,0.2,0.2,0.3c0.1,0.1,0.3,0.1,0.4,0h0.1c0.1,0,0.1-0.1,0.2-0.2
			c0.2-0.2,0.4-0.5,0.6-0.7c0,0,0.1-0.1,0.1-0.2S163.2,119.8,163.2,119.7z"/>
		<path class="st6" d="M160.6,107.4c-0.2-0.2-0.6-0.3-0.9-0.3s-0.7,0.1-0.9,0.3c-0.1,0.1-0.1,0.2-0.1,0.3c0,0.1,0.1,0.2,0.1,0.3
			c0.1,0.1,0.2,0.1,0.4,0.1c0.1,0,0.2,0,0.3-0.1l0,0c0,0,0.1,0,0.1-0.1h0.1h0.1h0.1h0.1l0,0c0.1,0.1,0.2,0.1,0.4,0.1
			c0.1,0,0.3,0,0.4-0.1C160.7,107.9,160.8,107.6,160.6,107.4z"/>
		<path class="st6" d="M132.9,131.2c-0.2-0.3-0.3-0.5-0.5-0.8c-0.1-0.1-0.2-0.2-0.3-0.2s-0.3,0-0.4,0c-0.1,0.1-0.2,0.1-0.2,0.3
			c0,0.1,0,0.2,0.1,0.3c0.2,0.3,0.3,0.5,0.5,0.8c0.1,0.1,0.2,0.2,0.3,0.2s0.3,0,0.4,0c0.1-0.1,0.2-0.1,0.2-0.3
			C133,131.4,132.9,131.3,132.9,131.2z"/>
		<path class="st6" d="M138.4,119.4c0-0.1-0.1-0.1-0.1-0.1c-0.1-0.1-0.2-0.1-0.4-0.1h-0.1c-0.1,0-0.2,0.1-0.2,0.1
			c-0.2,0.2-0.5,0.3-0.7,0.5l-0.1,0.1c0,0.1,0,0.1,0,0.2s0,0.1,0,0.2s0.1,0.1,0.1,0.1c0.1,0.1,0.2,0.1,0.4,0.1h0.1
			c0.1,0,0.2-0.1,0.2-0.1c0.2-0.2,0.5-0.3,0.7-0.5l0.1-0.1c0-0.1,0-0.1,0-0.2C138.5,119.5,138.5,119.4,138.4,119.4z"/>
		<path class="st6" d="M177.3,128.8L177.3,128.8c-0.1-0.1-0.2-0.2-0.3-0.2c-0.2-0.1-0.5-0.1-0.7-0.2c-0.1,0-0.1,0-0.2,0
			s-0.1,0-0.2,0s-0.1,0.1-0.1,0.1l-0.1,0.1c0,0.1,0,0.2,0.1,0.3l0.1,0.1c0.1,0.1,0.1,0.1,0.2,0.1c0.2,0.1,0.5,0.1,0.7,0.2
			c0.1,0,0.1,0,0.2,0s0.1,0,0.2,0s0.1-0.1,0.1-0.1l0.1-0.1C177.4,129,177.4,128.9,177.3,128.8z"/>
		<path class="st6" d="M192.6,125.6c0-0.1-0.1-0.2-0.2-0.3c-0.1-0.1-0.3-0.1-0.4,0c-0.2,0.1-0.5,0.1-0.7,0.2c-0.1,0-0.2,0.1-0.3,0.2
			c0,0-0.1,0.1-0.1,0.2s0,0.1,0,0.2s0.1,0.2,0.2,0.3c0.1,0.1,0.3,0.1,0.4,0c0.2-0.1,0.5-0.1,0.7-0.2c0.1,0,0.2-0.1,0.3-0.2
			c0,0,0.1-0.1,0.1-0.2S192.6,125.6,192.6,125.6z"/>
		<path class="st6" d="M190.6,120.3c-0.1-0.2-0.2-0.4-0.2-0.6c0-0.1-0.1-0.2-0.2-0.3c-0.1,0-0.1,0-0.2-0.1c-0.1,0-0.1,0-0.2,0
			s-0.2,0.1-0.3,0.2s-0.1,0.2-0.1,0.3c0.1,0.2,0.2,0.4,0.2,0.6c0,0.1,0.1,0.2,0.2,0.3c0.1,0,0.1,0,0.2,0s0.1,0,0.2,0
			s0.2-0.1,0.3-0.2C190.6,120.6,190.7,120.4,190.6,120.3z"/>
		<path class="st6" d="M210,126.7c-0.1-0.1-0.2-0.1-0.4-0.1h-0.7c-0.1,0-0.3,0-0.4,0.1l-0.1,0.1c0,0.1,0,0.1,0,0.2s0,0.2,0.1,0.3
			c0.1,0.1,0.2,0.1,0.4,0.1h0.7c0.1,0,0.3,0,0.4-0.1l0.1-0.1c0-0.1,0-0.1,0-0.2S210.1,126.8,210,126.7z"/>
		<path class="st6" d="M205.1,134.2c0,0-0.1-0.1-0.2-0.1s-0.1,0-0.2,0s-0.3,0-0.4,0.1c-0.1,0.1-0.1,0.2-0.1,0.3v0.6
			c0,0.1,0.1,0.2,0.1,0.3c0,0,0.1,0.1,0.2,0.1s0.1,0,0.2,0s0.3,0,0.4-0.1c0.1-0.1,0.1-0.2,0.1-0.3v-0.6
			C205.2,134.4,205.1,134.3,205.1,134.2z"/>
		<path class="st6" d="M177.5,139.8c0-0.1-0.1-0.1-0.1-0.1s-0.1-0.1-0.2-0.1s-0.1,0-0.2,0h-0.1c-0.1,0-0.2,0.1-0.2,0.1l-0.1,0.1
			c0,0.1-0.1,0.1-0.1,0.2v0.4c0,0.1,0,0.1,0,0.2c0,0.1,0.1,0.1,0.1,0.1s0.1,0.1,0.2,0.1s0.1,0,0.2,0h0.1c0.1,0,0.2-0.1,0.2-0.1
			l0.1-0.1c0-0.1,0.1-0.1,0.1-0.2V140C177.6,139.9,177.6,139.8,177.5,139.8z"/>
		<path class="st6" d="M170.1,139c0-0.1-0.1-0.2-0.2-0.3h-0.1c-0.1,0-0.2,0-0.3,0l-0.7,0.1c-0.1,0-0.1,0-0.2,0.1
			c-0.1,0-0.1,0.1-0.1,0.1s-0.1,0.1-0.1,0.2c0,0.1,0,0.1,0,0.2c0,0.1,0.1,0.2,0.2,0.3h0.1c0.1,0,0.2,0,0.3,0c0.2,0,0.5-0.1,0.7-0.1
			c0.1,0,0.1,0,0.2-0.1c0.1,0,0.1-0.1,0.1-0.1s0.1-0.1,0.1-0.2C170.1,139.1,170.1,139.1,170.1,139z"/>
		<path class="st6" d="M156.3,139.3c-0.1-0.1-0.2-0.2-0.3-0.2s-0.3,0-0.4,0c-0.1,0.1-0.2,0.1-0.2,0.3c-0.1,0.2-0.2,0.5-0.2,0.7
			c0,0.1,0,0.2,0.1,0.3c0.1,0.1,0.2,0.2,0.3,0.2s0.3,0,0.4,0c0.1-0.1,0.2-0.1,0.2-0.3l0.2-0.7C156.4,139.6,156.4,139.4,156.3,139.3z
			"/>
		<path class="st6" d="M163.2,134.4c0-0.1-0.1-0.1-0.1-0.1s-0.1,0-0.1-0.1c-0.1,0-0.2-0.1-0.3-0.1h-0.1c-0.1,0-0.2,0.1-0.2,0.1
			c-0.1,0.1-0.2,0.1-0.2,0.2l-0.1,0.1c0,0.1,0,0.1,0,0.2c0,0.1,0,0.1,0,0.2c0,0.1,0.1,0.1,0.1,0.1s0.1,0,0.1,0.1
			c0.1,0,0.2,0.1,0.3,0.1h0.1c0.1,0,0.2-0.1,0.2-0.1l0.2-0.2l0.1-0.1c0-0.1,0-0.1,0-0.2C163.2,134.5,163.2,134.5,163.2,134.4z"/>
		<path class="st6" d="M173.2,117.4l-0.1-0.1c0,0-0.1-0.1-0.2-0.1s-0.3,0-0.4,0c-0.1,0.1-0.2,0.1-0.2,0.3c0,0.2-0.1,0.3-0.1,0.5
			c0,0.1,0,0.1,0,0.2s0,0.1,0.1,0.2l0.1,0.1c0,0,0.1,0.1,0.2,0.1s0.3,0,0.4,0c0.1-0.1,0.2-0.1,0.2-0.3c0-0.2,0.1-0.3,0.1-0.5
			c0-0.1,0-0.1,0-0.2C173.2,117.5,173.2,117.5,173.2,117.4z"/>
		<path class="st6" d="M177.6,113.1c0-0.1-0.1-0.2-0.2-0.3h-0.1c-0.1,0-0.2,0-0.3,0c-0.2,0-0.5,0.1-0.7,0.1c-0.1,0-0.1,0-0.2,0.1
			c-0.1,0-0.1,0.1-0.1,0.1s-0.1,0.1-0.1,0.2s0,0.1,0,0.2s0.1,0.2,0.2,0.3h0.1c0.1,0,0.2,0,0.3,0l0.7-0.1c0.1,0,0.1,0,0.2-0.1
			c0.1,0,0.1-0.1,0.1-0.1s0.1-0.1,0.1-0.2C177.6,113.3,177.6,113.2,177.6,113.1z"/>
		<path class="st6" d="M190.5,139.2l-0.1-0.1c0-0.1-0.1-0.1-0.2-0.2l-0.8-0.5c-0.1,0-0.1,0-0.2,0s-0.1,0-0.2,0s-0.2,0.1-0.3,0.2
			c-0.1,0.1-0.1,0.2-0.1,0.3c0,0,0,0.1,0.1,0.1c0,0.1,0.1,0.1,0.2,0.2l0.8,0.5c0.1,0,0.1,0,0.2,0s0.1,0,0.2,0s0.2-0.1,0.3-0.2
			C190.5,139.4,190.6,139.3,190.5,139.2z"/>
		<path class="st6" d="M188.3,141.7l-0.1-0.1c0,0-0.1-0.1-0.2-0.1s-0.3,0-0.4,0c0,0-0.1,0-0.1,0.1c-0.1,0.1-0.1,0.1-0.1,0.2
			c-0.1,0.2-0.2,0.3-0.2,0.5c0,0.1,0,0.1,0,0.2c0,0.1,0,0.1,0.1,0.2l0.1,0.1c0,0,0.1,0.1,0.2,0.1s0.3,0,0.4,0c0,0,0.1,0,0.1-0.1
			c0.1-0.1,0.1-0.1,0.1-0.2c0.1-0.2,0.2-0.3,0.2-0.5c0-0.1,0-0.1,0-0.2C188.3,141.8,188.3,141.7,188.3,141.7z"/>
		<path class="st6" d="M149.1,147.5L149.1,147.5c-0.1-0.1-0.2-0.2-0.3-0.2l-0.8-0.1c-0.1,0-0.1,0-0.2,0c-0.1,0-0.1,0-0.2,0
			c-0.1,0.1-0.2,0.2-0.2,0.3s0,0.2,0,0.3l0.1,0.1c0.1,0.1,0.1,0.1,0.2,0.1c0.3,0,0.5,0.1,0.8,0.1c0.1,0,0.1,0,0.2,0
			c0.1,0,0.1,0,0.2,0c0.1-0.1,0.2-0.2,0.2-0.3C149.2,147.7,149.1,147.6,149.1,147.5z"/>
		<path class="st6" d="M133.7,138.4c-0.1-0.1-0.2-0.1-0.4-0.1c-0.1,0-0.2,0-0.3,0s-0.2,0.1-0.3,0.1c-0.1,0.1-0.3,0.1-0.4,0.2
			c-0.1,0.1-0.2,0.2-0.3,0.3c0,0.1-0.1,0.2-0.1,0.2c0,0.1,0,0.2-0.1,0.3c0,0.1,0.1,0.2,0.1,0.3c0.1,0.1,0.2,0.1,0.4,0.1
			c0.1,0,0.3,0,0.4-0.1l0.1-0.1c0-0.1,0.1-0.1,0.1-0.2v0.1c0-0.1,0-0.1,0.1-0.2c0,0,0-0.1,0.1-0.1l0.1-0.1c0,0,0.1,0,0.1-0.1
			c0.1,0,0.1,0,0.2,0h-0.1c0.1,0,0.1,0,0.2,0c0.1,0,0.1,0,0.2-0.1c0.1-0.1,0.2-0.2,0.1-0.3C133.9,138.6,133.8,138.5,133.7,138.4z"/>
		<path class="st6" d="M117.5,129.3l-0.1-0.1c0-0.1-0.1-0.1-0.2-0.2h-0.1c-0.1,0-0.2,0-0.3,0l-0.5,0.1c-0.1,0-0.1,0-0.2,0.1
			c-0.1,0-0.1,0.1-0.1,0.1s-0.1,0.1-0.1,0.2c0,0.1,0,0.1,0,0.2c0,0,0,0.1,0.1,0.1c0,0.1,0.1,0.1,0.2,0.2h0.1c0.1,0,0.2,0,0.3,0
			c0.2,0,0.3-0.1,0.5-0.1c0.1,0,0.1,0,0.2-0.1c0.1,0,0.1-0.1,0.1-0.1s0.1-0.1,0.1-0.2C117.5,129.4,117.5,129.4,117.5,129.3z"/>
	</g>
</g>
<g>
	<g>
		<g>
			<g>
				<path class="st7" d="M130,59.8c-0.3-1.8-1.3-3.7-2.5-5.1c-1-1.1-2.1-1.7-3.5-0.9c0,0.2,0,0.3-0.1,0.5c2.9,3.2,3,8.1,0.5,11.7
					c-0.5,0.7-1.1,1.5-1.5,2.3c0,0.7,0,1.3,0,2c0.7,0.9,2.4,0.8,3.7,0.1c1.1-0.6,1.8-1.9,2.4-2.9C130.1,65,130.5,62.2,130,59.8z"/>
				<path class="st8" d="M237.4,24.5l-1.4,0.1c0,0-3.6,0.3-3.6,0.3l-7.8,0.7l-100.9,8.1l-0.7,0.1c0.3,9.4,2.4,11.3,1,20.4
					c0,0,0,0,0.1,0.1c1.6,1.5,4,1.5,4.6,3.9c0.8,3.7-2.1,8.5-5.6,10.7c0.1,3.2,0.2,5.8,0,8.2c0.2,1.6,0.2,3.3,0,4.9
					c0.2,0.2,0.3,0.4,0.5,0.6c0.3,0.1,0.6,0.1,0.9,0.1l111.9-8.4c1.2,0,2.2-0.9,2.2-2l0.9-18.2l1.5-29.8L237.4,24.5z"/>
				<path class="st9" d="M240.7,24.2c-16.2,2.5-33.4,4.6-52.7,6.3c-5.7,0.5-11.1,0.9-16.2,1.3c-26.9,1.9-47.8,1.9-48.8,1.9
					c0,0,19-8.9,19-8.9l7.9-4.3c0.9,0.2,1.8,0.2,2.6,0c1-0.1,1.9-0.3,2.5-0.8c1.1-0.7,1.8-1.8,2.1-3c0-0.1,0-0.2,0.1-0.3l15.7-7.7
					c17-9.3,17.3-9.5,20.6-8.3C207.3,5.6,230.7,13.8,240.7,24.2z"/>
				<g>
					<path class="st10" d="M178.6,51.9c-0.1,1.3-0.5,2.5-1.5,3.7c-0.2,0.2-0.4,0.4-0.6,0.6c-0.3,0.3-0.6,0.5-1,0.8c0,0,0,0-0.1,0
						c-0.9,0.6-1.9,0.9-3,1.1c-0.5,0.1-0.9,0.1-1.4,0c-2.9-0.3-5.2-2.3-6-4.9c-0.3-0.8-0.4-1.7-0.3-2.6c0,0,0-0.1,0-0.1
						c0-0.4,0.1-0.7,0.2-1.1c0.9-3.3,4.3-5.4,7.6-4.7C176.1,45.5,178.8,48.5,178.6,51.9z"/>
					<path class="st11" d="M176.2,55.2c-0.2,0.6-0.4,1.2-0.7,1.8c0,0,0,0-0.1,0c-0.9,0.6-1.9,0.9-3,1.1c-0.5,0.1-0.9,0.1-1.4,0
						c-2.9-0.3-5.2-2.3-6-4.9c0-1.7,0.6-3.4,2-4.8c1.7-1.7,4.2-2.2,6.2-1.4C176.3,48.2,177.1,52,176.2,55.2z"/>
				</g>
				<g>
					<path class="st10" d="M214.4,58.9c-0.1,0.8-0.4,1.6-0.9,2.3c-0.1,0.1-0.2,0.3-0.4,0.4c-0.2,0.2-0.4,0.4-0.6,0.5
						c-0.6,0.3-1.2,0.6-1.9,0.6c-0.3,0-0.6,0-0.9,0c-2.4-0.3-4.1-2.5-3.8-4.9c0.3-2.6,2.3-4.4,4.7-4.1
						C213.1,54,214.7,56.5,214.4,58.9z"/>
					<path class="st11" d="M213.5,61.2c-0.6,1-2,1.4-2.9,1.5c-2.8,0.2-6.4-2.9-3.1-6.1c1.2-1.2,3.1-1.1,4.3,0
						c0.8,0.7,2.1,2.8,1.8,4.1C213.7,60.9,213.6,61.1,213.5,61.2z"/>
				</g>
				<g>
					<path class="st10" d="M226.7,41c0,2.4-1.4,4.7-4.4,5c-0.4,0-0.8,0-1.1,0c-3.1-0.3-5.4-3-5.1-6.1l0-0.1c0-0.3,0.1-0.6,0.2-0.9
						c0.2-0.6,0.4-1.2,0.8-1.7c1.5-2.2,5.3-3.3,7.4-1.3C225.9,37.3,226.7,39.2,226.7,41z"/>
					<path class="st11" d="M226.5,42.3c-0.1,0.6-0.3,1.1-0.5,1.6c0,0,0,0-0.1,0.1c-0.1,0.2-0.3,0.4-0.5,0.5
						c-0.3,0.2-0.5,0.5-0.8,0.7c-0.7,0.5-1.5,0.8-2.4,0.9c-0.4,0-0.8,0-1.1,0c-3.1-0.3-5.4-3-5.1-6.1c0.1-0.2,0.2-0.4,0.3-0.6
						c1.3-1.9,3.8-2.8,6-2.2C224.3,37.6,226.8,39.9,226.5,42.3z"/>
				</g>
				<g>
					<path class="st10" d="M149,65.3c-0.1,0.6-0.3,1.2-0.8,1.8c-0.1,0.1-0.2,0.2-0.3,0.3c-0.2,0.1-0.3,0.3-0.5,0.4
						c-0.5,0.3-1,0.5-1.6,0.5c-0.2,0-0.5,0-0.7,0c-2-0.2-3.4-1.8-3.2-3.7c0.2-1.8,1.4-3.3,3.1-3.4C147,61.2,149.2,63.2,149,65.3z"/>
					<path class="st11" d="M148.1,67.1c-0.4,0.8-1.5,1.2-2.4,1.3c-0.2,0-0.5,0-0.7,0c-1.5-0.1-3.1-1.3-3.2-3
						c-0.1-1.9,2.2-2.8,3.7-2.3c1,0.3,2.4,1.8,2.7,2.9C148.3,66.4,148.3,66.8,148.1,67.1z"/>
				</g>
				<path class="st12" d="M163.6,33.7c-0.3,0.8-1,1.3-1.8,1.7c-0.3,0.1-0.6,0.3-0.9,0.4c-3.4,1.2-9.1,1.4-12-1
					c-0.4-0.3-0.7-0.6-0.9-0.9c-0.4-0.6-0.4-1.2,0-1.7c0.2-0.4,0.6-0.7,1-1c0.2-0.1,0.5-0.3,0.7-0.4c0.7-0.4,1.6-0.7,2.4-0.9
					c0.9-0.3,1.8-0.4,2.5-0.6c0.1,0,0.2,0,0.3,0c1.7-0.2,4.8-0.1,6.8,0.9c1,0.4,1.7,1,2,1.9C163.9,32.4,163.9,33,163.6,33.7z"/>
				<g>
					<path class="st13" d="M206,16.3c2.1-0.2,3.4,0.1,4.2,0.3c0.4,0.1,0.7,0.2,0.9,0.2c0.2,0,0.3,0,0.3,0s0,0-0.2-0.1
						c-0.1-0.1-0.3-0.3-0.7-0.4c-0.2-0.1-0.4-0.2-0.7-0.3c-0.3-0.1-0.6-0.2-0.9-0.3c-0.7-0.2-1.7-0.3-2.9-0.2
						c-1.2,0.1-2.1,0.4-2.9,0.7c-0.7,0.3-1.2,0.6-1.6,0.9c-0.4,0.3-0.6,0.5-0.7,0.6c-0.1,0.1-0.2,0.2-0.2,0.2s0.1,0,0.2-0.1
						c0.2-0.1,0.4-0.2,0.8-0.3c0.4-0.2,0.9-0.4,1.6-0.6C204.1,16.6,205,16.4,206,16.3z"/>
				</g>
				<path class="st14" d="M211.8,20.3c-0.2,0.5-0.7,0.9-1.2,1.2c-2.5,1.4-7.5,1.3-9.3,0c-2.3-1.7-1.1-3.3,0.7-4.3
					c0.8-0.4,1.7-0.8,2.5-1c0.1,0,0.2-0.1,0.3-0.1c0.5-0.1,1-0.2,1.5-0.2c0.2,0,0.4,0,0.6,0c0.2,0,0.3,0,0.5,0c1.4,0,3,0.1,4,1
					c0.1,0.1,0.2,0.2,0.3,0.2c0,0,0.1,0.1,0.1,0.1c0,0,0,0.1,0.1,0.1c0,0,0.1,0.1,0.1,0.1C212.4,18.2,212.2,19.3,211.8,20.3z"/>
				<path class="st11" d="M211.8,20.3c-0.2,0.5-0.7,0.9-1.2,1.2c-0.4-2-2.6-3.6-4.8-4.1c-1.3-0.3-2.6-0.3-3.8-0.2
					c0.8-0.4,1.7-0.8,2.5-1c0.1,0,0.2-0.1,0.3-0.1c0.5-0.1,1-0.2,1.5-0.2c0.2,0,0.4,0,0.6,0c0.2,0,0.3,0,0.5,0c1.6,0,3.1,0.3,4,1
					c0.1,0.1,0.2,0.2,0.3,0.2c0,0,0.1,0.1,0.1,0.1c0,0,0,0.1,0.1,0.1c0,0,0.1,0.1,0.1,0.1C212.4,18.2,212.2,19.3,211.8,20.3z"/>
				<g>
					<path class="st15" d="M202.5,29c27.1-3.2,34.3-4.4,34.3-4.4s-5.2,0-34.3,3.4c-29.4,3.4-37.9,4.3-37.9,4.3S173.2,32.4,202.5,29z
						"/>
				</g>
				<g>
					<path class="st15" d="M137.3,34.1c7.6-0.3,9.7-0.9,9.7-0.9s-1.5-0.2-9.7,0.1c-8.2,0.4-12.9,0.5-12.9,0.5S129.2,34.4,137.3,34.1
						z"/>
				</g>
				<g>
					<path class="st16" d="M238.4,72.2c-0.1,1.1-1,2-2.2,2c0-0.3,0-0.6,0-0.7c0.1-6.2,0.4-12.3,0.8-18.4c0.3-5.5,0.7-11,0.9-16.5
						c0.2-4.1,1.5-10.3-0.5-14.2c-2.4-4.9-10-8.5-14.7-11.1c-0.8-0.4-21.7-10.8-33.4-12.7c2.4-1.1,4.2-0.1,6.9,1
						c3.1,1.2,6.3,1.6,7.6,2.1c11.3,4.7,28.6,11.9,36.9,20.5L239.3,54L238.4,72.2z"/>
				</g>
				<path class="st13" d="M179.1,17.5c1.1-1.4,1.2-3.4-0.8-4.1c-0.8-0.3-2.1-0.3-3-0.2c-1.8,0.2-3.7,0.9-4.7,2.2
					c1.3-0.2,2.7-0.2,3.9,0.3c1.2,0.5,2.1,1.6,1.9,2.8C177.5,18.8,178.6,18.3,179.1,17.5z"/>
				<path class="st14" d="M179.5,16.5c0,0.2-0.1,0.4-0.2,0.5c-1,2-4.7,1.6-6.6,1c-1.6-0.5-3.1-2.2-1.2-3.3c0.7-0.5,1.6-0.8,2.6-1
					C177,13,180.2,13.5,179.5,16.5z"/>
				<path class="st11" d="M179.5,16.5c0,0.2-0.1,0.4-0.2,0.5c-0.3-0.8-0.8-1.4-1.6-1.9c-1.1-0.7-2.6-0.7-3.9-0.7
					c-0.8,0.1-1.6,0.1-2.3,0.3c0.7-0.5,1.6-0.8,2.6-1C177,13,180.2,13.5,179.5,16.5z"/>
				<path class="st13" d="M201.6,8.4c0,0.1-0.1,0.3-0.2,0.4c-0.1,0.2-0.3,0.4-0.5,0.5c0,0,0,0-0.1,0c-0.2,0.1-0.3,0.2-0.5,0.3
					c-0.1,0-0.1,0.1-0.2,0.1c-0.1,0.1-0.3,0.1-0.4,0.2c-1.6,0.6-3.8,0.6-5.3,0c-1.6-0.7-2.5-1.9-1.5-2.8c0.1-0.1,0.3-0.2,0.5-0.3
					c0.2-0.1,0.3-0.1,0.5-0.2c0.6-0.2,1.4-0.4,2.1-0.6C199,5.6,202.2,6.1,201.6,8.4z"/>
				<path class="st14" d="M201.3,8.5c0,0.1-0.1,0.3-0.2,0.4c-0.1,0.2-0.3,0.4-0.5,0.5c-0.1,0.1-0.1,0.1-0.2,0.1
					c-0.1,0.1-0.3,0.2-0.4,0.2c-0.1,0-0.1,0.1-0.2,0.1c-0.1,0.1-0.3,0.1-0.4,0.2c-1.5,0.6-3.7,0.6-5.2,0c-1.5-0.6-2.4-1.9-1.4-2.7
					c0.1-0.1,0.3-0.2,0.5-0.3c0.1-0.1,0.3-0.1,0.5-0.2c0,0,0.1,0,0.1,0c0.3-0.1,0.6-0.2,1-0.3c0.3-0.1,0.6-0.1,1-0.2
					C198.7,5.8,201.9,6.3,201.3,8.5z"/>
				<path class="st11" d="M201.3,8.5c0,0.1-0.1,0.3-0.2,0.4c-0.1,0.2-0.3,0.4-0.5,0.5c-0.1,0.1-0.1,0.1-0.2,0.1
					c-0.1-0.8-0.7-1.5-1.4-2c-1-0.7-2.4-0.9-3.6-0.8c-0.5,0-1,0-1.5,0.1c0.3-0.1,0.6-0.2,1-0.3c0.3-0.1,0.6-0.1,1-0.2
					C198.7,5.8,201.9,6.3,201.3,8.5z"/>
				<g>
					<path class="st17" d="M129.2,59c-0.1-0.8-0.4-1.5-0.7-2c-0.3-0.6-0.7-1-1.1-1.4c-0.8-0.7-1.6-1.1-2.2-1.3
						c-0.6-0.2-1-0.2-1.3-0.3c0,0,0,0.1,0,0.1c0.2,0.1,0.6,0.2,1.1,0.5c0.5,0.3,1.1,0.7,1.8,1.3c0.6,0.7,1.3,1.6,1.5,3
						c0.1,0.6,0.1,1.2,0,1.8c-0.1,0.5-0.2,1-0.3,1.4c-0.3,0.9-0.6,1.5-0.8,2c-0.2,0.5-0.4,0.8-0.6,1c-0.1,0.2-0.2,0.3-0.2,0.3
						s0.1,0,0.2-0.2c0.2-0.1,0.4-0.3,0.8-0.8c0.3-0.4,0.8-1,1.2-1.9C129,61.8,129.4,60.6,129.2,59z"/>
				</g>
				<g>
					<path class="st13" d="M168.7,58c0.9,0.4,1.8,0.5,2.6,0.5c0.8,0,1.5-0.1,2.1-0.3c1.3-0.4,2.1-0.9,2.8-1.3c0.6-0.5,1-0.9,1.2-1.1
						c0.2-0.3,0.3-0.4,0.3-0.4s-0.1,0-0.3,0.2c-0.1,0.1-0.2,0.2-0.4,0.3c-0.1,0.1-0.2,0.1-0.3,0.2c-0.1,0.1-0.3,0.2-0.4,0.2
						c-0.6,0.3-1.4,0.8-2.6,1.1c-0.6,0.2-1.3,0.3-2.1,0.3c-0.8,0-1.6-0.1-2.5-0.4c-0.9-0.3-1.6-0.9-2.2-1.4c-0.6-0.6-1-1.2-1.4-1.8
						c-0.6-1.2-0.8-2.3-0.9-3.1c0-0.8,0.1-1.4,0.1-1.7c0.1-0.3,0.1-0.5,0.1-0.5s-0.1,0.1-0.2,0.4c-0.1,0.3-0.3,0.9-0.4,1.7
						c-0.1,0.9,0,2.1,0.7,3.4c0.3,0.7,0.8,1.4,1.4,2C166.9,57,167.7,57.6,168.7,58z"/>
				</g>
				<g>
					<path class="st13" d="M207.7,63.2c1.2,0.6,2.3,0.6,3,0.4c0.8-0.2,1.3-0.5,1.7-0.9c0.4-0.3,0.5-0.6,0.6-0.8
						c0.1-0.2,0.1-0.3,0.1-0.3s-0.1,0-0.2,0.1c-0.1,0.1-0.4,0.2-0.7,0.4c-0.4,0.2-0.8,0.4-1.5,0.5c-0.7,0.1-1.6,0.1-2.6-0.4
						c-1-0.5-1.5-1.4-1.8-2.1c-0.3-0.7-0.4-1.3-0.5-1.8c-0.1-0.9,0-1.3,0-1.3c0,0-0.3,0.2-0.5,1.3c-0.1,0.5-0.1,1.2,0.2,2.1
						C205.9,61.4,206.5,62.5,207.7,63.2z"/>
				</g>
				<g>
					<path class="st13" d="M218.3,45.4c1.4,0.7,2.6,0.8,3.6,0.7c1-0.1,1.7-0.2,2.2-0.4c0.5-0.2,0.9-0.3,1.1-0.4
						c0.2-0.1,0.3-0.1,0.3-0.1s-0.1,0-0.3,0c-0.2,0-0.5,0.1-1,0.1c-0.5,0.1-1.2,0.2-2.1,0.2c-0.9,0-2.1-0.1-3.4-0.8
						c-1.3-0.7-2.1-1.7-2.5-2.6c-0.4-0.9-0.4-1.7-0.4-2.3c0-0.6,0.2-1,0.3-1.2c0.1-0.2,0.1-0.3,0.1-0.3s-0.1,0.1-0.2,0.3
						c-0.1,0.2-0.4,0.6-0.5,1.2c-0.1,0.6-0.2,1.5,0.2,2.6C215.9,43.4,216.8,44.6,218.3,45.4z"/>
				</g>
				<g>
					<path class="st13" d="M156,36.7c1.6,0.1,2.8-0.1,3.8-0.4c1-0.3,1.7-0.6,2.2-0.8c0.5-0.3,0.8-0.5,1-0.6c0.2-0.1,0.3-0.2,0.3-0.2
						s-0.1,0-0.3,0.1c-0.2,0-0.5,0.2-1,0.3c-0.3,0.1-0.5,0.2-0.9,0.3c-0.2,0-0.4,0.1-0.6,0.2c-0.2,0-0.4,0.1-0.7,0.1
						c-1,0.2-2.2,0.4-3.8,0.3c-1.6-0.1-2.8-0.3-3.8-0.6c-1-0.3-1.7-0.6-2.3-0.9c-0.5-0.2-0.9-0.4-1.1-0.6c-0.2-0.1-0.3-0.2-0.3-0.2
						s0.1,0.1,0.2,0.3c0.2,0.2,0.5,0.5,0.9,0.8c0.5,0.4,1.2,0.8,2.2,1.2C153,36.3,154.3,36.7,156,36.7z"/>
				</g>
				<path class="st18" d="M174.3,54.4c0.1,0,0.1,0,0.2,0.1c1.4,0.6,0.4,1.8-0.6,2.1c-1.5,0.5-3.3,0.3-4.7-0.4
					c-1.2-0.6-3.2-2.6-2.5-4c1.8,1.3,4,2,6.3,2.1C173.4,54.2,173.9,54.2,174.3,54.4z"/>
				<path class="st18" d="M223.9,43.7c-1.1-0.4-2.2-0.2-3.3-0.5c-0.3-0.1-2.9-1.6-2.8-1.7c-0.6,1.3,1.2,3.2,2.4,3.6
					c1.2,0.3,3.6,0,4.1-1.2C224.2,43.8,224,43.8,223.9,43.7z"/>
				<path class="st18" d="M212,60.4c-1.7,0.4-3.2,0.2-4.7-1.1c-0.2-0.2-0.5,0.2-0.4,0.5c1.1,1.9,3.6,2.6,5.2,1
					C212.3,60.6,212.2,60.3,212,60.4z"/>
				<path class="st18" d="M145.8,66.7c-0.4-0.2-0.9-0.3-1.3-0.6c-0.4-0.3-0.5-0.8-0.8-1.1c-0.1-0.2-0.4-0.1-0.5,0.1
					c-0.4,1.4,1.3,2.9,2.6,2.3C146.1,67.3,146.1,66.8,145.8,66.7z"/>
			</g>
			<g>
				<path class="st19" d="M237,55.1c-1.2,0.6-2.1,1.1-2.5,1.3c-12.2,6.7-25.8,11.5-40.1,14.1c-15.6,2.8-31.3,1.8-47.2,2.7
					c-7.7,0.4-16.2,5.2-24.1,6.3c0,0.8,0,1.7-0.1,2.5c0.2,0.2,0.3,0.4,0.5,0.6c0.3,0.1,0.6,0.1,0.9,0.1l111.9-8.4
					c1.2,0,2.2-0.9,2.2-2l0.9-18.2C238.4,54.4,237.6,54.8,237,55.1z"/>
			</g>
		</g>
		<path class="st20" d="M163.6,33.7c-0.3,0.8-1,1.3-1.8,1.7c-2.3-3-10.2-6.9-13.8-3.1c3.1-3.3,9.5-4.2,13.7-2.2c1,0.4,1.7,1,2,1.9
			C163.9,32.4,163.9,33,163.6,33.7z"/>
	</g>
	<path class="st21" d="M154.7,20.5c-1.4,0.7-3.3,0.7-4.8,0c0.9,0.2,1.8,0.2,2.6,0c1-0.1,1.9-0.3,2.5-0.8c1.1-0.7,1.8-1.8,2.1-3
		C157.1,18.2,156.2,19.7,154.7,20.5z"/>
</g>
</svg>
