<?xml version="1.0" encoding="utf-8"?>
<!-- Generator: Adobe Illustrator 25.0.0, SVG Export Plug-In . SVG Version: 6.00 Build 0)  -->
<svg version="1.1" id="Layer_1" xmlns="http://www.w3.org/2000/svg" xmlns:xlink="http://www.w3.org/1999/xlink" x="0px" y="0px"
	 viewBox="0 0 1004.9 1001" style="enable-background:new 0 0 1004.9 1001;" xml:space="preserve">
<style type="text/css">
	.st0{fill-rule:evenodd;clip-rule:evenodd;fill:#FFFFFF;}
	.st1{opacity:0.9961;fill-rule:evenodd;clip-rule:evenodd;fill:#F1BD62;}
	.st2{opacity:0.9961;fill-rule:evenodd;clip-rule:evenodd;fill:#DBEAF9;}
	.st3{fill-rule:evenodd;clip-rule:evenodd;fill:#DBEAF9;}
	.st4{opacity:0.9961;fill-rule:evenodd;clip-rule:evenodd;fill:#ADC1DD;}
	.st5{fill-rule:evenodd;clip-rule:evenodd;fill:#ADC1DD;}
	.st6{fill-rule:evenodd;clip-rule:evenodd;fill:#ACC1DD;}
	.st7{opacity:0.9961;fill-rule:evenodd;clip-rule:evenodd;fill:#ACC1DD;}
	.st8{opacity:0.9961;fill-rule:evenodd;clip-rule:evenodd;fill:#E8F1FB;}
	.st9{opacity:0.9961;fill-rule:evenodd;clip-rule:evenodd;fill:#FFFFFF;}
</style>
<path class="st0" d="M77.4,386.3c24.4,140,26.5,144.4,56.4,254C156.2,721.8,27,797.7,113,830.2c54.6,20.7,75.6,32.1,127.4,54.7
	c21.2,9.3,99,19.8,127.4,43.7c7.4,6.2,110.8,26.9,139.4,41.7c17.5,9.1,149.4,28.5,171.4,12.9c56.2-40,33.4-91.3,52.1-151.7
	c1.2-3.8,123.8-68.3,150-127.4c25-56.4,89-71.8,89-186c0-117.9-78-89.4-76.9-239.4c0.2-25.1-43.9-95.7-83.3-102.3
	c-25.3-4.2-78.7-36.3-122.9-37.3c-56.2-1.3-126-54.3-260.2-54.3c-123.2,0-195.5-25.5-276.1,75.2c-20.6,25.8-40.6,51.7-61.9,76.5
	l-4.7-25.2L77.4,386.3z"/>
<g>
	<path class="st1" d="M111,300.6c-6.5,13.9-10.5,22.8-12,26.7c-0.3,0.6-1,2.5-2.1,5.6c-5.6,15.9-8.7,24.4-9.1,25.5l-9.1,23.9
		c-0.6,1.7-1.1,3.1-1.3,4c0.2,2.7,1.2-0.1,3.2-8.5c0.5-1.5,2.5-12.7,6-33.4c1.9-8.9,3.7-16.2,5.5-22.1c1.3-4.5,3-9.2,5.1-14.2
		c7.2-15.4,12.2-26.4,14.8-33.1c3.4-8.4,5.9-15.3,7.7-20.8c5.1-16.5,10-36.7,14.6-60.7L111,300.6z"/>
	<path class="st2" d="M344,60l-13.8-3.9C267.8,45.1,210.7,54.7,158.8,85c-29.7,16.6-52.9,37.1-69.8,61.5
		c-8.4,12.2-15.2,25.4-20.4,39.6l-6.6,22c-7.8,42.9-9.6,83.4-5.2,121.2c-0.3,18.9,14,80.1,43,183.5c5.7,30.5,10.4,59.5,14,87.2
		c13.4,84.4,14.9,147,4.4,187.7L209.5,422c-21.7-30.1-34.4-56.4-38.2-79c-4.4-19.9-6.5-35.8-6.4-47.8c-0.7-3.6,0.7-13.3,4.2-29
		c3.8-15.9,15.9-35,36.5-57.1c14.5-14.5,32.8-27.7,54.8-39.5c17.3-8.5,37.1-15.8,59.5-21.9c41-9.9,73-15.8,96-17.5
		c6.1-1.9,10.3-4.1,12.6-6.6c2.8-1.7,2.6-5.3-0.7-10.9c-2.7-3.3-11.5-10.9-26.5-22.7C383.4,76.5,364.2,66.5,344,60z"/>
	<path class="st2" d="M503.2,78.4l-8-2.5c-34.3-9.7-67.5-15-99.7-16c-10.7-0.1-21.8,0.4-33.3,1.6c-5.3-0.2-23.3,3.1-53.9,9.9
		c-7.1,1.2-25.4,7-54.9,17.5c-10.4,4.1-19.8,8.6-28.2,13.4c-25.4,14.3-42.2,31.5-50.4,51.6L327,123.5l39.5-8.7
		c12.4-2.2,24-3.8,34.9-4.8l15.7-1c10.1-0.3,19.4,0,28,1c33.6,6.5,63.5,15.6,89.8,27.4c27.3,11.6,62.3,32.4,105,62.4
		c4.2,2.2,8.1,2.8,11.7,1.7c4.8-2.4-2.4-15.6-21.6-39.6c-12.5-14.4-25.7-27.2-39.6-38.4c-11.7-9-18.8-14.2-21.4-15.6
		c-4.5-2.7-9.1-5.3-13.7-7.7C543.9,93.7,526.6,86.4,503.2,78.4z"/>
	<path class="st2" d="M629.9,104.1l-7.1-2.2c-19.3-5.5-40.7-8.8-64.2-9.9l-44.3,31.8c21.8,0.8,43.8,3.7,65.9,8.7
		c23.8,5.7,44.4,12.2,61.9,19.4c17,6.9,33.7,15.1,50,24.7c3.3,1.8,12,6.9,26.3,15.5c8.8,5.2,21.7,13.5,38.8,25c4,2.3,6.3,3.5,7,3.7
		c0.6,0.2,0.9,0.2,0.9-0.1l-8.3-13c-5.7-8.5-11.7-16.6-18.1-24.3l-9.8-11.3c-6.7-7.4-13.8-14.4-21.2-21.1c-7.4-6.7-15.2-13-23.3-19
		c-11-7.8-16.6-11.6-16.7-11.3C656.2,114.1,643.6,108.5,629.9,104.1z"/>
	<path class="st2" d="M782.5,159.4l-9-2.7c-25.2-7.3-60.7-14.7-106.6-22.1c-7.8-2.3-15.6-5.6-23.4-10l168,96.4
		c6,2,11.8,4.8,17.6,8.2c20.1,14.1,34.1,27.2,42.1,39.4c5.4,7,10.8,14.8,16,23.3c2.2,5.2,3.9,10.2,4.9,15l7.3,87.3l39,81.8
		c5,14.7,7.8,27.5,8.6,38.3c4.6,26.9-0.8,55.5-16,85.8c-6.1,16.6-37,55.9-92.8,117.9c-4.8,5.8-5.6,9.9-2.5,12.3
		c62.4-28.1,105.3-60.5,128.9-97.2c28.8-47.3,40.7-95.4,35.5-144.2c-1.6-11.7-4.3-23.3-8.3-34.6l-61.3-178
		c-4-9.5-8.7-18.4-14.3-26.7C890.2,212.1,845.6,182,782.5,159.4z"/>
	<path class="st2" d="M302.5,91.6l-104.6,12.9c-39.4,13.1-67.6,30.9-84.5,53.5l-27.2,41.3c-6,10.2-10.9,19.9-14.7,28.9
		c-7.6,18.1-10.7,33.7-9.3,46.8c3.6,21.1,6.6,34.9,9,41.4C98.7,384,113.3,424,115,436.5c1.4,6.8,1.9,19.1,1.6,36.9
		c-5.9,59.9-7.7,98.9-5.4,116.9c-0.1,16.3,5.4,37.4,16.6,63.4c16.3,23.6,66.6,40.2,150.9,50c3.8-0.4,5.5-2.9,5.1-7.7
		c-19-22.2-28.7-42.5-29.2-61c0-11.9,1-21.9,3.2-30c13.9-36.4,21.4-57.3,22.4-62.7c2.7-13.8,2-27.4-2.2-40.8
		c-3.6-10.9-8.3-19.8-14-26.8c-65.2-65.8-102.8-106.9-112.6-123.4c-12.5-12.9-20.2-49-23.3-108.4c0-7.2,0.8-14.3,2.5-21.3
		c5.6-17.2,10-27.4,13.1-30.6c8.3-13.2,19.9-25.9,34.9-38.1c14.1-12.5,30.1-23.4,48-32.9C238.9,112,264.2,102.5,302.5,91.6z"/>
	<path class="st3" d="M206.1,567.4l-1,1.5l-1,1.5l-0.9,1.5l-0.9,1.5l-0.8,1.5l-0.7,1.5l-0.7,1.6l-0.6,1.6l-0.6,1.6L206.1,567.4
		L206.1,567.4L206.1,567.4L206.1,567.4z M678.4,556.7c5.9,7.8,7.3,17.2,4.1,28.2c-7.7,20.7-17.5,37.4-29.2,50.1
		c-10.6,11.5-30.1,26.8-58.4,46c-23.2,15.5-50.4,30.3-81.7,44.4c-3.5,2-4.7,4.4-3.7,7.3c26.1,2.5,70-8.7,131.6-33.6
		c50.3-18.1,94.3-42.9,132.1-74.4c8.4,0.5,11.1,8.1,7.9,23c-3.9,13.6-15.8,30.1-35.5,49.4c-6,7.1-20.3,16.1-43,27
		c-23.4,10.9-56.7,23.8-99.8,38.7c-5.1,4.5-5.4,8.5-0.7,12c19.9,11.1,48.9,12.2,86.7,3.3c31.9-7.6,90.2-37.1,174.9-88.6
		c4.4-1.2,7.6-0.7,9.5,1.6c1.9,2.7,1.6,7.7-0.8,15.1c-17.4,37-59.6,71.8-126.5,104.4c-23.6,6.6-46,9.7-67.1,9.3
		c-5,0.9-30.2-4.2-75.5-15.1c-51.8-14.9-104.5-32.2-158-52.1l-79.5-21.6c-39.1-8.1-83.3-18.7-132.6-31.7
		c-52.7-14.5-79.8-23.6-81.5-27.4l47.2-90.8c-7.4,34.2,16.2,67.6,71,100.2c24.1,12.1,48.8,19.3,74.2,21.7c2.5,0.5,10.7,1,24.6,1.6
		c27.3-2,43.9-4,50-6.1c48.1-11.1,95.7-30.3,142.7-57.5c47.5-29.7,82.4-57.2,104.6-82.6c3.3-2.5,6.9-3.3,10.9-2.5L678.4,556.7
		L678.4,556.7z"/>
	<path class="st2" d="M712.6,793.8L673.1,815c1.3,2.4,1.2,8-0.2,16.8c-11,51.5-17,80.9-18.1,88.1c-1,7.4-1.7,13.6-2,18.4
		c-0.4,4.1-0.5,10.6-0.3,19.4c-0.3,3.5,0.7,8.9,3,16.1c1.5,4,3.6,7.9,6.3,11.5c6.7,7.9,13,10.8,18.8,8.5c1.7-0.9,2.7-2.6,2.9-5
		l0.1-0.9l-0.3-21.4c0.7-7.2,1.6-12.5,2.8-16c0.7-2.6,2.2-6.9,4.6-12.9c14.9-34.3,23.5-54.9,25.8-61.7c2.7-6.7,5.1-15.8,7.3-27.4
		c1.7-8.5,1.9-16.9,0.6-25c-0.6-4.1-1.6-8.1-3-12.1C721.1,809.5,718.2,803.6,712.6,793.8z"/>
	<path class="st2" d="M173.2,648.5l-1,1c-2.6,2.6-4.8,4.6-6.7,6c-7.8,5-14.1,9.4-18.8,13.2c-3.5,3-6.8,7.3-9.9,13.1
		c-3,4.8-7,14.6-12,29.5c-1.4,4-4.5,14.4-9.4,31.2c-4.9,14-8.2,23.5-9.9,28.5l-2.4,8c-2.1,7.5-2.9,13.1-2.4,16.9
		c0.2,2.9,1.9,5.2,5,7c4.1,1.8,9.4,1.7,16.1-0.5c1.8-0.8,3.5-1.6,5.2-2.6c4-2.7,6.4-4.5,7-5.4c6.4-6.5,12-15.7,16.7-27.9
		c1-2.5,2.2-5.9,3.6-10.2c8.3-27,13.2-42.5,14.7-46.6c4.2-12.2,9.5-26.2,15.7-41.8L173.2,648.5z"/>
	<path class="st2" d="M140.2,631.6l-2.1,12.9c-5.6,33.3-11.9,56.9-18.7,70.8l-53.6,77l-1.2,3.9c-2.9,9.7,4.1,20.1,21,31
		c6.9,4.2,16.5,8.4,28.6,12.5c39.9,9.5,64.1,15.7,72.6,18.6c50.7,18.2,85.4,30.2,104.2,35.9c76.6,17.4,118.4,27.6,125.4,30.5
		c60.3,26.8,99.5,42.1,117.7,45.9c54.7,10.9,92.7,16.4,113.9,16.6c23.5,0.7,34.6-2.9,33.5-10.9c-4.3-12.6-17.2-21.7-38.7-27.2
		c-14.5-3.7-26.1-6.2-34.8-7.5c-38.2-4-73.6-8.6-106.5-13.9c-23.9-4.3-42.7-8.2-56.3-11.6c-10.1-2.5-21.8-5.9-35.1-10.1
		c-5.7-1.8-11.3-3.9-16.9-6.1c-12.6-4.4-42-18.3-88.3-41.6c-16.4-7.1-30.1-12.3-41-15.6c-10.1-3.3-23.7-6.3-40.6-9.2
		c-30.6-3.1-56.4-6.6-77.6-10.4c-16.1-2.7-26.2-5.3-30.4-7.9c-8.1-3.2-10.8-11.9-8.1-26.1c20.4-46,37.3-87,50.9-123L140.2,631.6z"/>
	<path class="st2" d="M73,265.3l-9.5,8.4c-28.9,35.8-30.9,112.7-6,230.8c6.2,27.2,22.2,73.6,47.9,139.2c12,26.5,27.8,47.7,47.2,63.4
		L73,265.3z"/>
	<path class="st2" d="M444.9,13.8l-8.9-2.7C363-9.2,279.7-1.7,186.3,33.5c-39.6,16.6-74.5,39.2-104.9,67.7
		c-12.8,14.7-23.9,31-33.3,48.9l-12.8,28c-15.4,39-24.1,84.4-26,136.2c-1.5,15.8-0.2,53.4,4.1,113l5.5,30.3
		c9.7,40.2,29.2,80,58.4,119.4l23.7,29.4c17,19.6,36.5,39,58.4,58.3l-51.1-304.1l-2.8-36.6c-0.4-23.5,2-45.3,7.4-65.4l10.2-28.8
		c8.2-18.3,19.4-35,33.4-49.9c61.2-53.7,130.9-84,209.1-91c25.1-4.1,58.1-3.6,99.3,1.4c5.2,0.7,10.4,1.6,15.6,2.5l126,32.2
		c15.7,3.4,23.9,3.8,24.5,1.1l-59.3-32.9c-32.6-26.7-57.5-45.5-74.8-56.5C494.6,33.4,477.2,25.7,444.9,13.8z"/>
	<path class="st3" d="M583.9,786.4l-1.2-0.4c-4.5-1.2-9-1.8-13.3-1.9l-54.6-18.4c3.1,3.3,5.3,8.6,6.6,16c0.8,3.8,1.4,8.1,2,13.1
		l0.7,7.9c0.4,5.6,0.7,11.7,0.9,18.5c0.7,2.2,1.3,3.5,1.5,3.8c0.4,0.7,0.9,1.4,1.4,1.9c1,1.1,2.4,1.9,4.1,2.5
		c2.3,0.5,4.6,0.2,6.7-0.8c1.1-0.5,2.1-1.1,3.1-2c0.5-0.2,2-1.8,4.4-5c2.6-6.9,4.9-16.7,6.7-29.4c0.6-2.1,1.5-3.7,2.8-4.7
		c2.5-2.3,7-3.5,13.6-3.4l22.9,7.7C591.4,789.9,588.6,788.1,583.9,786.4L583.9,786.4z M592.3,791.9l98.4,33.1
		c-6.9-1.3-13.2-2.3-18.9-3.1c-5.7-0.8-10.9-1.3-15.4-1.6L650,820c-7.8-0.1-13.7,0.8-17.5,2.8c-1.3,0.4-3.2,2.2-5.6,5.3
		c-10.6,16.1-16.6,25-18.1,26.7c-3,3.1-4.9,4.7-5.6,4.8c-1,0.7-2.2,0.8-3.8,0.3c-1.3-0.8-2.5-2.6-3.6-5.5c-2.9-10-4.6-17.7-5.2-22.8
		c-0.9-6.8,0.3-17.6,3.5-32.6c0-2.6-0.5-4.8-1.4-6.6L592.3,791.9L592.3,791.9L592.3,791.9z M501,758.7c5.3,1.5,9.9,3.9,13.8,7.1
		l-34.9-11.7c-5.4-0.8-10.2-1.4-14.2-1.7c-2.7-0.3-9-0.1-19,0.6c-7.5,0.9-13.9,2.6-19,5.2l-8.5,5.4c-1.1,1-2.2,2.5-3.3,4.6
		c-3.2,6.4-5.9,18-8.3,34.9c-1.5,3-3.2,4.2-5,3.5l-1.3-1.1c-0.9-1.1-1.8-3.2-2.7-6c-0.9-2.9-1.8-6.6-2.7-11.3
		c-1.8-9-3.7-21.9-5.7-38.9c-0.7-2.6-4.9-9.6-12.6-21c-0.1-0.6,0.2-1.1,1-1.5l1.5-0.5c7.3,0.4,12.8,0.3,16.3-0.4l83.5,28.1
		c7.5,1.1,13.9,2.4,19.2,4L501,758.7L501,758.7z"/>
	<path class="st4" d="M379.5,733.7l-2.5-0.8c-12.3-3.7-24.2-6.9-35.5-9.5c-21.7-4.8-46-9.9-72.8-15.2c-7.6-1.7-15.9-3.8-25.1-6.1
		c-18.1-4.7-30.3-8.1-36.8-10.3c-32.1-11.4-49.3-17.4-51.4-17.7l-2.1-0.5c-0.3-0.1-0.4,0-0.2,0.2c-2.4-0.5-4.8-0.5-7.2-0.2
		c-4.7,0.7-9.2,3-13.6,6.9c-5.4,5.6-8.6,9.4-9.6,11.5c-13.6,21.2-25,47.5-34.2,78.9c24.1-28.3,39.3-45.2,45.5-50.6
		c6.5-5.4,13.8-8.4,21.9-9.2c1-2.5,28.6-0.3,82.8,6.7l147,29.5l6.1-9C388,736.6,383.8,735,379.5,733.7z"/>
	<path class="st4" d="M123.1,744.9l-3.5,0.6c-9.6,3.1-21.8,17.9-36.8,44.5l1.4-6.1c-5.9,12.2-9.9,21.2-12.1,27.1
		c-2.7,7.8,3,15.8,17.1,24c6.6,4.1,16,8.9,28.2,14.3c4.2,1.9,9.4,3.8,15.4,5.6c6.9,2.5,29,7,66.1,13.5c8.2,1.8,15,3.5,20.5,5.1
		l70.9,22.6c21.2,4.8,40.9,10,59.1,15.5c12,3.5,30.1,9.7,54.5,18.4c0.8,0.2,1.5,0.2,2,0.1c0.8-0.2,1.2-0.6,1.2-0.9
		c-1.6-2.1-4.7-4.6-9.1-7.6c-4.5-2.9-10.4-6.2-17.7-10c-1.9-1.4-16.1-7.8-42.5-19.4c-11.1-4.8-24.6-10.2-40.4-16.5
		c-7.8-2.8-16.9-5.3-27.3-7.6c-40.4-7.6-71.5-13.9-93.2-18.8c-32-9.5-52.1-17.4-60.6-23.7c-5.2-3-7.5-10.3-7-21.9
		c0.3-7.9,5.6-26,15.6-54.3C125.2,747.3,124.7,745.8,123.1,744.9z"/>
	<path class="st4" d="M39.7,164.3L39.7,164.3c-15.9,35.1-27.6,76.3-35.2,123.5c-1.6,13.3-2.8,25.9-3.5,37.9L0.2,343
		c-0.3,11.2-0.2,21.7,0.3,31.5c1.1,19.6,3.9,36.4,8.4,50.3c11.8,29.4,23.9,56.5,36.3,81.2l18.7,35.3c12.6,22.4,25.4,42.4,38.5,60.2
		c26.1,35.4,53.2,61.5,81.3,78.2l4-2.2c-3.8-3.7-9.1-12.6-15.7-26.7c-4.2-7.6-14.7-33.2-31.7-76.8C122,534.1,93.6,481,55,414.7
		c-4.4-8.8-8.5-19.4-12.3-31.9c-6.4-23-10.1-53.4-11-91.3c-0.2-33.2,3-70.5,9.8-111.6C41.4,168.8,40.7,163.6,39.7,164.3z"/>
	<path class="st4" d="M341.5,9.3l-39.4,3.2c-51,5.7-96.1,17.3-135.2,34.7c-19.5,8.7-37.6,18.9-54.1,30.5L89.1,96.2
		c-18.5,17.2-28.6,27.6-30.5,31.2c-23,27.5-37.2,52.5-42.7,74.9c-9.1,53.5-12.8,80.8-11.1,82.1c1.3,18.4,4.7,44.1,10.2,77L14.4,277
		c5.8-28.9,10.8-52.1,15.1-69.6c4.3-17.5,7.9-29.3,10.8-35.3c12.5-24,25.2-42.9,37.9-56.7c17.3-21.6,53.6-43,109-64.2
		c17.3-6.5,35.9-12.7,55.8-18.5C251.3,29.3,284.2,21.5,341.5,9.3z"/>
	<path class="st4" d="M439.2,15.5l-2.4-0.8c-6.9-2.2-15.7-4.6-26.2-7.3l-8.5-1.6c-6-0.9-12.6-1.6-19.9-2.1
		C375,3.3,367,3.1,358.5,3.1c-22.6,0.6-37,1.3-43.1,2C262.3,13.6,232.2,19.2,225,22c-15,4-22.8,7.7-23.4,10.9l56.1-14.8
		c7.1-1.7,16.9-2.8,29.2-3.4c51.7-1.6,91.3,1,118.9,7.8c35.3,8.7,63.4,18.8,84.4,30.3c23.3,13.8,37.7,22.6,43.2,26.5l52.8,40.9
		c3,2.3,5.6,3.4,7.8,3.3l1.7-0.4c1.6-3.3,2.4-6.6,2.5-9.8c0.1-3.3-0.6-6.5-1.9-9.7c-2.7-6.5-8.4-12.9-17-19.2l-7-4.7
		c-10.6-6.6-21-12.8-31.3-18.6c-10.3-5.8-20.4-11.2-30.3-16.1l-14.8-7.1c-9.8-4.6-19.4-8.7-28.8-12.5
		C457.6,21.7,448.3,18.4,439.2,15.5z"/>
	<path class="st5" d="M354.6,736.1l-1.7-0.4l-1.7-0.3l-1.7-0.3l-1.7-0.3l-1.8-0.2l-1.8-0.2c-1.2-0.1-2.4-0.2-3.6-0.3l-1.8-0.1
		L354.6,736.1L354.6,736.1L354.6,736.1z M338.7,733.9L338.7,733.9l-4.9-0.7l2.8,0.6C337.5,733.9,338.2,733.9,338.7,733.9
		L338.7,733.9L338.7,733.9z M482.8,753.4L482.8,753.4l-0.3-0.1c-12.8-3.8-23.9-6.3-33.5-7.5c-38.2-3.9-61.7-6-70.3-6.4l-24-3.3
		c7,1.7,13.6,4.2,20,7.6c5.8,2.6,14.1,8,25.1,16.2c2.6,1.6,4.5,2.5,5.6,2.8c0.3,0.1,0.6,0.2,1,0.3l24.2-7.5l4.6-0.8
		c4.8-1,11.2-0.5,19.2,1.3c14.6,3.7,27.6,7.2,39.2,10.7c4.6,1.2,8.3,2.6,11.2,4.3c3.7,2.2,6.3,3.9,7.7,5.3l19,20.8l5.7,4.3l11.5-2.4
		c2.3-0.2,4.3-0.2,5.8,0.2c1.3,0.3,2.7,0.7,4,1.2c6.4,3.4,10.9,5.7,13.4,6.7c3,1.3,6.4,2.4,10.3,3.3c5.6,1.3,10,2.2,13,2.7l58,8
		c5.6,1.2,10.7,2.5,15.2,3.9c2.1,0.7,7.8,2.6,17.1,5.9c2.9,0.9,5.6,1.7,8,2.4c0.7,0.2,1.2,0.3,1.6,0.4c1.7,0.1,3,0.1,4,0
		c4.4,0,3-2.5-4.2-7.4c-5.3-3.9-12-7.3-20-10.3c-6.4-2.3-12.4-4.3-17.9-6c-8.9-2.4-17.3-4.6-25.3-6.6c-16-4.1-30.1-7.5-42.4-10.2
		c-6.1-1.4-11.8-2.6-17.1-3.6l-7.5-1.5c-3.6-0.9-6.9-1.8-9.9-2.9c-4.2-1.3-8.8-3.1-13.7-5.4c-26-12.5-40.7-19.5-44-20.9
		C492.2,756.8,487.4,754.9,482.8,753.4L482.8,753.4z M333.8,733.2l-13.4-1.8c0.1,0,0.2,0,0,0.1l-1-0.2c-6.8-1.3-17.9-3.7-33.4-7
		c-6.7-2.1-13.1-3.9-19.2-5.7c-7.5-2.1-11.9-3.3-13.3-3.6c-2.8-0.7-5.6-1.4-8.3-2.1L333.8,733.2L333.8,733.2z"/>
	<path class="st4" d="M806.2,743.8l-0.9,0.1c-2.7,0.5-8.4,3.2-17,7.9c-37.9,21.8-62.9,35.8-75.1,42.1c-9.8,5.1-20.7,9.7-32.6,13.8
		c-15.1,5-35.7,5-61.9,0.1c31.3,5.4,51.3,12.1,59.9,20.2c3,4.4,4.8,9.9,5.3,16.7l-0.1,38.7c0.5,7.9,1,11.6,1.7,11.1l15.6-60.6
		c1.2-3.9,2.6-7,4.3-9.1c2.2-2.6,5.1-5.3,8.7-8.2c3.8-3.1,8.8-6.9,14.8-11.4c5.5-4.4,28.7-20.5,69.4-48.4
		C805.8,750.7,808.4,746.4,806.2,743.8z"/>
	<path class="st4" d="M749.5,149.6l-3.5,10c39.2,18.9,62.1,30.5,68.6,34.8l14.9,9.4l26.9,20.1c16.2,10.9,34.8,31.3,55.9,61.2
		c15,26.1,22.9,44.8,23.8,56.1c0.7,10,0.8,16.4,0.1,19.4c-9.3,23.7-13.1,39.7-11.3,48l27.1,39.5c4.9,8,9.2,15.9,12.8,23.8
		c7.3,15.7,12.1,30.9,14.4,45.9c4.1,29.1,2.3,62.7-5.4,101c8.4-10.6,16-25.7,22.9-45.4c4.7-11.3,7.2-25.2,7.6-41.8
		c1.5-10.9-1.4-35.7-8.6-74.2c-34.2-103.4-55.2-161.4-62.8-174.2L913,253.4L901,238.2c-7.5-8.8-16.7-17.2-27.6-25
		c-6.6-4.7-20.2-13-40.7-24.6l-67.6-29.6C761.8,157.6,756.6,154.5,749.5,149.6z"/>
	<path class="st4" d="M181,544.9l-0.1,0c-7.3,10.2-12.9,22.1-16.9,35.9c-6.2,25.3-9,45.4-8.5,60l-14.7-10.2
		c9.6,28.5,34.6,47.9,75.1,58.2c20.9,5.7,73.7,17.5,158.5,35.5c12.7,2.5,29.5,4.8,50.3,6.9c11.3,0.9,20.8,0.9,28.6,0.2
		c-55.9-9.9-94.7-17.8-116.5-23.9c-23.6-6.8-45.4-13.9-65.5-21.3c-19.3-7.7-30.4-12.8-33.2-15.2c-13.4-8.4-23-19.6-28.8-33.6
		c-3.2-6.7-11.6-35.9-25.2-87.6C183.3,547,182.2,545.3,181,544.9z"/>
	<path class="st4" d="M106.7,594.3L106.7,594.3c-2.3-0.3-3.5,0.3-3.8,1.7c-0.4,3,0,6,1.1,9c7.7,21.8,14.3,37.3,19.8,46.5
		c0.4,1.2,3.3,4.2,8.6,9.1c2.3,1.9,4.9,3.7,7.7,5.4c8.7,5.2,19.2,9.6,31.5,13.3l103.9,28.8l4.6,1.2c3.9,1,8.6,2.1,14,3.4l89,20.1
		l-114.5-46.5l-9.2-3.3c-6.1-2.3-12.1-4.6-18.1-7.1l-8.8-3.8c-5.8-2.6-11.6-5.3-17.2-8.1c-20.4-10.4-40.7-22-60.8-34.8l-17.1-11.4
		c-6.7-4.8-15.4-11.8-26.3-20.9C108.8,595.3,107.3,594.5,106.7,594.3z"/>
	<path class="st4" d="M525.6,699.6l-0.1,0c-1.5-0.5-4.5-0.3-9,0.4c-34.3,7-54.6,10.9-60.7,11.7c-9.6,1.5-21.7,2.3-36.3,2.4
		c-16.2,0-32.8-1.1-49.9-3.2c-4.1-0.2-17.2-2.4-39.2-6.5c-8.9-1.8-17.9-3.9-27-6.2l21.3,32.7l2.8,0.9c3.7,1.1,6.9,1.9,9.6,2.2
		c9.9-1.1,22.1-0.5,36.5,2c4.8,0.7,15,3.2,30.6,7.6c8.1,2.3,14.8,4.5,20.2,6.5c41.2,16.1,69.1,26.7,83.6,31.7
		c30.2,10.2,57.1,18.5,80.9,24.7c27.6,5.4,42.4,8.1,44.6,8.1c15.7,2.3,25.7,2.8,30.3,1.5c2.3-0.6,3.1-1.7,2.6-3.2
		c-1.2-1.1-2.3-1.9-3.4-2.4c-1.2-0.6-2.7-1.3-4.5-2c-15-5-25-8.4-30-10.3c-7.1-2.6-13.5-5.1-19.2-7.4c-7.6-3.4-13.6-7.2-17.9-11.3
		c-4.4-4-6.5-7.7-6.1-11.2c-0.1-1.9,3-5.7,9.1-11.4c0.8-2.4,0.4-3.9-1.2-4.7c-1.7-0.6-3.8-1-6.3-1c-29,1-46.1,1.2-51.4,0.7
		c-13.8-1.7-23.2-4.8-28.3-9.1c-3.6-2.4-4.8-6.1-3.6-11.1c4.6-8.3,12.2-17.2,22.6-26.9C527.4,702.3,527.2,700.5,525.6,699.6z"/>
	<path class="st2" d="M652,820.3l-2.8-0.9c-7.2-2.2-12.8-3.1-16.8-2.9c-2.8,1-5.5,2.2-8,3.7c-6,4-9.4,6.6-10.2,8
		c-4.1,4.2-7.5,9.3-10.4,15.2l10-6.6c6.4,5.3,10.3,13.4,11.5,24.3l0.3,4.2l-4,33.7c-0.4,3.3-3.5,6.6-9.3,10.1
		c-13.3,6.2-28.2,10-44.7,11.5l-13.6,0.9l-72.4,0.6c-12.6,0.9-22.4,1.8-29.3,2.9c-13.8,2.1-16.5,4.7-7.9,7.9
		c13.9,3.9,34,8.3,60.2,13.3c21.2,4,46.8,8.1,76.7,12.5l46.1,9.2c16.2,2.7,26.1,2.9,29.8,0.6c4.6-3.1,7.8-9.6,9.7-19.5
		c5.4-39.8,10.6-71.8,15.6-95.9c0.4-3.7,0.6-6.8,0.5-9.4c-0.1-3.8-0.8-6.7-2-8.6c-0.8-1.6-2.1-3-4-4.4l-5-2.8
		C664.6,824.7,657.9,822.2,652,820.3z"/>
	<path class="st3" d="M875.1,263.3l20.5,75.5c0.9-11.2,0.1-21.8-2.3-32c-1.5-5.6-4.1-12.7-7.9-21.3
		C880.3,274,876.9,266.6,875.1,263.3L875.1,263.3z M895.6,339L895.6,339l-0.2,2.1c-1.8,16.4-9.2,33-22.2,49.9
		c-1.7,3.3-7.8,9.6-18.2,19.1c-4.1,4-16.4,13.9-36.7,29.7c-3,2.8-4.6,5.3-4.9,7.6c-0.4,7,5.6,12.1,17.8,15.5l76.4,7.6
		c11.5,2.5,20.3,5.7,26.3,9.5L895.6,339L895.6,339z M933.9,479.9L933.9,479.9L961.6,582l1.2-15.2l0.3-14.1l-0.5-13l-1.4-11.9
		l-2.3-10.8l-3.1-9.6l-4-8.5l-4.8-7.4l-5.7-6.3C938.7,482.9,936.2,481.1,933.9,479.9z"/>
	<path class="st3" d="M916.5,438.7l-2.4-0.7c-6.1-1.8-13.9-2.8-23.3-3.1c-0.3-0.3-6.5,0.3-18.7,1.8c-10.9,1.5-18.1,2.5-21.6,3.1
		c-1.1,0.1-3.3,0.7-6.5,1.6c-4.4,1.4-6,3.5-4.7,6.2c-0.1,0.4,0.6,1.4,1.9,3c1.3,1.3,3.1,2.5,5.6,3.6c28.1,11.3,47.7,20.1,58.8,26.3
		c3.7,2.1,6.5,3.8,8.3,5.3c0.6,0.8,2.7,2.7,6.4,5.5c8.6,7.2,15.7,15.5,21.4,24.9c1.9,3.2,3.7,6.4,5.2,9.8c1.4,4.9,2.8,11.1,4.2,18.5
		l3.6-13.8c0.3-3.8,0.7-11.6,1-23.7c0-10.1-0.2-15.4-0.4-16.1c-0.4-4.1-1.4-8.7-3.2-13.7C946.6,457.6,934.8,444.7,916.5,438.7
		L916.5,438.7z M951.1,544.7L951.1,544.7l-27.7,106.1l8-9.8l6.8-10.3l5.5-10.8l4.3-11.3l3.1-11.8l1.9-12.3l0.6-12.8l-0.6-13.3
		L951.1,544.7z"/>
	<path class="st6" d="M171.8,688.7l-0.6-0.2c-1.7-0.5-3.6-1.1-5.7-1.8l52.8,18.1c-5.1-1.9-10.2-3.8-15.3-5.6c-0.7-0.2-1.5-0.6-2.7-1
		c-1.8-0.6-4-1.4-6.5-2.2l-1.3-0.4c-1-0.3-2.8-0.9-5.4-1.8c-1.5-0.5-3.5-1.2-5.8-1.9c-0.7-0.2-2.6-0.9-5.8-2
		C174.1,689.4,172.9,689,171.8,688.7L171.8,688.7z M218.3,704.8L218.3,704.8l2,0.7c3.8,1.4,6.3,2.3,7.7,2.8c0.4,0.1,0.8,0.3,1.2,0.4
		c1.2,0.4,2.1,0.7,2.6,0.9c2.9,1,4.7,1.6,5.6,1.9c1.3,0.5,2.6,0.9,3.8,1.3l10.7,3.8c2.4,0.8,4.6,1.5,6.5,2.1c1.7,0.5,3,0.9,4,1.2
		L218.3,704.8z"/>
	<path class="st7" d="M86.8,792.6l-4.4,4.7c-11.2,12.2-17.8,27.4-19.6,45.5c0,4.5,1.5,7.9,4.6,10.4c2.6,2.1,8.6,4.8,18.1,8.1l133,29
		c8.9,2.3,20,5.6,33.2,9.9c4.1,1.2,16.5,5.6,37.3,13.3c3.2,1,7.1,2.2,11.8,3.5c37.7,8.3,65.5,13.9,83.5,17
		c15.4,4.5,33,9.3,52.9,14.5c16.4,5.4,42.5,13,78.4,22.6c6.4,1.8,27.4,6.6,63,14.4c45.7,9.6,79,11.4,99.9,5.2c1.1-1.7-1.5-3-8-3.9
		l-126.7-18.1c-16.7-2.6-28.4-4.8-35.1-6.5c-29.1-8.2-49.7-14.5-61.8-18.8c-34.8-13-72.3-27.9-112.5-44.8c-4.7-1.8-17.2-6.2-37.7-13
		c-17-4.8-34.6-7.9-52.9-9.2l-80.5-18.6c-21.5-8.5-38.5-17.5-51-27.1C106,825.9,100.9,821,97,816l-5.1-7.6
		C89,803.2,87.3,798,86.8,792.6z"/>
	<path class="st7" d="M412.8,57.5l-16.9-4.8c-11.4-2.9-22.9-5-34.6-6.5c-11.7-1.4-23.5-2.1-35.6-2.1l-18.1,0.6
		c-12.2,0.7-24.5,2.2-37,4.4l-18.9,3.8c-17.6,4.6-33.8,9.8-48.8,15.4c-29.9,11.2-54.5,24.5-74,39.7c-9.7,7.6-18.1,15.7-25.2,24.3
		l-9.6,13.3l-8.4,17.6l27.1-26.1l30.1-22.2L176,96.4l36.1-14.6l39.1-10.7l42-6.9l45-3l48,0.8l51,4.6C431,63.9,422.9,60.9,412.8,57.5
		z"/>
	<path class="st7" d="M618,121.5l-5.4-1.7c-20-6-36-10.1-48-12.4c-10.4-1.9-25.6-3.3-45.5-4.4l-21.5-0.9l-56,8.7
		c20.3-1.4,41.8-1.1,64.4,0.9c4,0.5,8.3,1.1,12.8,1.8c4.5,0.8,9.3,1.7,14.4,2.8l7.8,1.7c9.4,2.1,22.4,5.5,39.1,10.2
		c8.1,2.3,26.4,8.2,54.9,17.7c6.6,2.2,17.6,6.2,32.9,12.2c7.4,3.1,14,6,19.8,8.9c32.4,16.1,51,25.6,55.9,28.4c2,0.9,3.1,1.3,3.4,1.3
		c-6.5-6.7-13.2-13-20.2-18.8c-7-5.9-14.1-11.3-21.4-16.4l-11.1-7.3l-11.4-6.7l-11.7-6l-12-5.4C643.6,130.2,629.9,125.3,618,121.5z"
		/>
	<path class="st8" d="M421.4,114.9l-20.9,1.5c-54.9,5.1-102.4,18.5-142.5,40.3l-31.8,21.7c-21.8,18-33.6,28.8-35.3,32.4
		c-6.2,7.2-11.3,14.4-15.3,21.6l-5.2,10.8c-2.4,6.6-4.7,14.3-7,23.2c-8.4,33.1-9.1,65.4-2.3,96.8c2.5,12.7,9.1,29,19.7,49.1
		c41,47.3,63.9,79.7,68.7,97l7.5,34.4c1.7,9.1,2.8,17.8,3.5,26.1c0.6,8.3,0.8,16.1,0.4,23.5c-0.4,7.4-1.3,14.4-2.7,21l-2.5,9.6
		l2.7,13.6c3.7-12,13.4-36.6,29.1-74c3.4-14.6,4.4-27.5,2.9-38.6c-3.2-19.5-6.9-33.6-11.2-42.2c-34.9-63.3-54.4-102.5-58.4-117.7
		c-4.8-19.7-7.4-35.2-7.8-46.6c-0.3-6.4-0.3-12.6,0.2-18.5c2-14.2,3.6-22.3,5-24.5l7.7-19.2l11.4-18.9l15.1-18.5l18.9-18.2
		c13.8-12,30.1-23.8,48.9-35.3l30-17.1C371.6,136.9,395.3,125.8,421.4,114.9z"/>
	<path class="st8" d="M944.1,527.8l-6,17.3c-4.4,11.4-9.7,22.7-15.8,33.7c-6.1,11-13.1,21.9-20.9,32.5l-12.4,15.8
		c-26.3,31.6-59.6,60.8-100.1,87.6c-12.7,8.1-25.6,15.4-38.8,21.9l-20,9.1c-13.5,5.7-27.2,10.6-41.1,14.7l-21.1,5.5l-76.2,11.3
		c30.5,7,57.3,7.3,80.2,0.9c90.3-33.6,148.9-60.2,175.9-79.7c37.4-26.1,65.3-55.7,83.5-88.7c4.4-8.5,8.1-16.4,11-23.8l3.8-10.7
		c2.1-6.9,3.5-13.2,4-19C951.3,544.8,949.3,535.3,944.1,527.8z"/>
	<path class="st8" d="M867.8,679l-0.3,0c-0.8,0-2.2,0.5-4.1,1.7c-27,17.8-44.2,28.5-51.6,32.1c-15,8.2-33,16.4-53.8,24.3
		c-78.3,29-128.2,43-149.7,41.9l3.5,4.5l11.8,2.6c8,1.4,16.3,2,24.8,1.9l13-0.7c8.8-0.8,17.8-2.4,27.1-4.6c16.8-4.1,38.1-12,64-23.6
		c26.5-11.5,49.3-23.9,68.6-37.2c9.6-6.6,18.4-13.5,26.3-20.6l11.1-10.8l9.8-11.1C868.2,679.2,868.1,679.1,867.8,679z"/>
	<path class="st8" d="M885.4,660.8l-0.5-0.1c-1.5-0.2-3.9,0.4-7.1,1.9c-54.4,40.7-86.7,64.2-96.7,70.3c-13.2,9.2-43.4,26-90.7,50.2
		l87.4-43.4c16.1-6.9,25.5-11.2,28.2-12.8c14.5-7.7,23-12.5,25.4-14.3c16.1-10,30.3-21,42.6-33c4.7-4.6,9-9.2,12.8-13.9
		C887.3,662.6,886.8,660.9,885.4,660.8z"/>
	<path class="st8" d="M504,115.7l-11.5-3.4l-11.1-2.8l-10.7-2.2l-10.4-1.6c-13.6-1.7-26.1-1.8-37.6-0.3l-8.4,1.5l1.1,1.6
		c-11.3,2.7-19,5.2-23.1,7.6c-4.1,2.4-4.7,4.7-1.6,6.9c2.1,1.7,8.1,3.5,18.3,5.4c6.7,1.2,12.5,2.3,17.5,3.1
		c8.4,1.4,17.6,2.6,27.5,3.9c3.5,0.6,6.8,1.2,9.8,1.8c10.4,2.3,17.7,4.1,21.8,5.3c5.6,1.5,11.1,3.1,16.4,4.8
		c10.3,3.2,20.8,7,31.4,11.3c7,2.8,33.3,14.1,78.7,33.9c10.9,4.5,19.4,7.7,25.7,9.6c7.5,2.2,11.8,2.7,12.8,1.6
		c0.9-0.4,1.4-1.2,1.5-2.2c-0.5-3.1-1.3-5.4-2.4-6.7c-1.9-4.1-11.4-11.6-28.6-22.5c-15.8-9.8-26.3-16.1-31.4-19
		c-2.8-1.6-10.8-5.6-24-12.1C544.3,130.7,523.8,122.3,504,115.7z"/>
	<path class="st9" d="M408.1,63.6l-6.2-1.5c-29.3-4.4-74.8-2.9-136.5,4.3c-36.9,4.3-73.3,16.1-109.3,35.5
		c-11.3,6.6-21.8,13.9-31.3,22.1l-13.6,12.9c-8.6,9-16.2,18.9-23,29.5c-6.7,10.7-12.6,22.2-17.5,34.5l-8.1,52.2
		c4.5-11.9,9.8-23.2,16-34l9.9-15.8c7-10.2,14.8-19.9,23.4-29c15.5-17.2,37.8-34.2,66.9-50.9c14.6-7.9,35.4-15.5,62.2-22.9
		c44.8-9.9,91.2-18.5,139-25.7c8.2-1.8,16.5-4.1,24.9-6.8C411.1,65.7,412.1,64.2,408.1,63.6z"/>
	<path class="st9" d="M155.2,484.9l-1.2-0.3c-3.9-0.3-7,3.3-9.2,10.8l-1.1,4.2c-0.7,3-1.1,6.3-1.4,9.9c-0.3,3.6-0.3,7.5-0.2,11.8
		c0.4,13.1,2.5,28.3,6.1,45.6c3,14.1,6.3,23.9,10,29.4l6.4-15l8.2-28.1c0.6-2.8,1.1-6.1,1.2-9.9c0.5-6.8,0.7-12.5,0.6-16.9l-0.2-3.1
		c-0.1-1.9-0.4-3.6-0.7-4.9c-2.3-8.7-4.4-15-6.2-18.9c-2.5-5.2-4.1-8-4.7-8.3C159.7,487.5,157.1,485.4,155.2,484.9z"/>
	<path class="st4" d="M979.6,614.9l-40.3,42.7c-4.2,4.6-25.2,20.4-62.8,47.4c-19.2,22.8-38,42.3-56.4,58.6
		c-13.4,10.4-27.8,20.4-43.3,30c-22.3,13.2-44.3,22-66,26.2l-24.8-6.8c-0.2,1.6,0.4,3.1,1.9,4.5c8.1,3.3,13.9,6.8,17.5,10.4
		c3.2,3.6,4.9,8.1,5.1,13.5c0.2,6.7-2.6,33.9-8.2,81.4c-0.9,8-2.2,14.3-3.9,19.2c-2.4,9.9-8.5,18.2-18.1,24.9
		c-7,5.8-24,12.5-51.1,20.3c-2.1,0.9-3.4,2.1-3.8,3.5c30.6,12.2,55.2,13.5,73.9,4c5.8-4.6,10.5-14,14.2-28.2
		c4.8-33.8,9.2-60.9,13.1-81.4c4.8-22.7,7.5-34.3,8.2-34.8c1.7-5.2,3.3-8.8,4.7-10.7l65.8-36.4c16.8-12.8,27.5-21.5,32.1-26.1
		l105.1-103c7.7-8.1,16.5-19.9,26.5-35.4C974.4,630.2,977.9,622.2,979.6,614.9z"/>
</g>
</svg>
