<?xml version="1.0" encoding="utf-8"?>
<!-- Generator: Adobe Illustrator 25.0.0, SVG Export Plug-In . SVG Version: 6.00 Build 0)  -->
<svg version="1.1"
	 id="svg2" inkscape:version="0.48+devel r9935" sodipodi:docname="Documento nuevo 1" xmlns:cc="http://creativecommons.org/ns#" xmlns:dc="http://purl.org/dc/elements/1.1/" xmlns:inkscape="http://www.inkscape.org/namespaces/inkscape" xmlns:ns1="http://sozi.baierouge.fr" xmlns:rdf="http://www.w3.org/1999/02/22-rdf-syntax-ns#" xmlns:sodipodi="http://sodipodi.sourceforge.net/DTD/sodipodi-0.dtd" xmlns:svg="http://www.w3.org/2000/svg"
	 xmlns="http://www.w3.org/2000/svg" xmlns:xlink="http://www.w3.org/1999/xlink" x="0px" y="0px" viewBox="0 0 47.8 45.5"
	 style="enable-background:new 0 0 47.8 45.5;" xml:space="preserve">
<style type="text/css">
	.st0{fill:#E15F0A;}
	.st1{fill:#BD5107;}
	.st2{fill:#F16D15;}
	.st3{fill:#FB8C41;}
</style>
<sodipodi:namedview  bordercolor="#666666" borderopacity="1.0" id="base" inkscape:current-layer="layer1" inkscape:cx="273.52498" inkscape:cy="614.84559" inkscape:document-units="px" inkscape:pageopacity="0.0" inkscape:pageshadow="2" inkscape:window-height="787" inkscape:window-maximized="0" inkscape:window-width="1440" inkscape:window-x="0" inkscape:window-y="0" inkscape:zoom="0.42014768" pagecolor="#ffffff" showgrid="false">
	</sodipodi:namedview>
<g>
	<path class="st0" d="M46.2,33C41.7,47.4,6,52.3,0.9,31.6c-5-20.7,11.8-25.7,11.8-25.7s4.9-7.6,18.7-5.6C41.7,1.9,47.3,11,47.8,21.5
		C47.9,25.2,47.4,29.2,46.2,33z"/>
	<path class="st1" d="M46.2,33C41.7,47.4,6,52.3,0.9,31.6c-5-20.7,11.8-25.7,11.8-25.7s-7.1,8.5-0.2,16.8c6.9,8.3,19.8,3.5,21.7-0.9
		C36.2,17.5,36,8,27.7,8s-9,6.2-6.8,7.8c2.2,1.5,7.3,0,7.5,0c-0.2,0.1-7.3,6.2-10.6,1.6c-3.5-4.9,0.5-11.1,7.5-11.3
		c6.9-0.2,11.6,1.9,12.2,9.4c0.5,7.5-2.3,15.3-15.4,15.1C8.8,30.4,5.5,19.1,5.8,13.9c-8.2,14.9,0.9,28.3,15.3,29.7
		c12.2,1.2,26-4.1,26.7-22.1C47.9,25.2,47.4,29.2,46.2,33z"/>
	<path class="st2" d="M30.8,1.7c0,0-13.2-2.8-18.9,8.5c-5.7,11.3,7.3,16.8,11.8,15.4c-7.6-3-9.7-10.9-8.2-15.8
		C17.1,5,24.5,1.7,30.8,1.7z"/>
	<path class="st2" d="M4.9,20.8c0,0,1,11.1,14.4,11.6C32.7,33,37,27.8,39,19.3C40.5,37.7,28,42,16.7,41C5.5,39.9,2.5,25.9,4.9,20.8z
		"/>
	<path class="st2" d="M23.2,10.1c0,0-3,2.6-0.7,4.3c2.3,1.7,6.9-0.9,6.9-0.9S23.9,13.6,23.2,10.1z"/>
	<path class="st3" d="M15.7,6.8c0,0-5.7,9.5,0.7,15.6C6,15.6,15.7,6.8,15.7,6.8z"/>
	<path class="st3" d="M5.8,26.4c0,0,3.5,10.9,23.3,6.4C9.4,42.9,6.3,33.3,5.8,26.4z"/>
	<path class="st3" d="M22.6,11.1c0,0,0.7,2.6,4.2,2.3C21.4,15.8,22.6,11.1,22.6,11.1z"/>
</g>
</svg>
