<?xml version="1.0" encoding="utf-8"?>
<!-- Generator: Adobe Illustrator 25.0.0, SVG Export Plug-In . SVG Version: 6.00 Build 0)  -->
<svg version="1.1" id="Layer_1" xmlns="http://www.w3.org/2000/svg" xmlns:xlink="http://www.w3.org/1999/xlink" x="0px" y="0px"
	 viewBox="0 0 236.4 116.7" style="enable-background:new 0 0 236.4 116.7;" xml:space="preserve">
<style type="text/css">
	.st0{fill:#EACC81;}
	.st1{fill:#753D17;}
	.st2{opacity:0.18;fill:#54160A;}
	.st3{opacity:0.11;fill:#54160A;}
	.st4{opacity:0.3;fill:#DB71AD;}
	.st5{opacity:0.16;fill:#54160A;}
	.st6{opacity:0.23;fill:#E5DC89;}
	.st7{opacity:0.3;fill:#E5DC89;}
	.st8{opacity:0.47;fill:#FCF2AC;}
	.st9{opacity:0.23;fill:#590D03;}
	.st10{opacity:0.52;fill:#562D11;}
	.st11{fill:#8C4C1C;}
	.st12{opacity:0.58;fill:#562D11;}
	.st13{opacity:0.36;fill:#A85E2C;}
	.st14{fill:#A85E2C;}
	.st15{fill:#E58A4C;}
	.st16{fill:#562D11;}
	.st17{fill:#CBDDED;}
	.st18{fill:#E8F4FF;}
	.st19{fill:#D4E3F0;}
	.st20{fill:#E8EDF0;}
	.st21{fill:#E1E8ED;}
	.st22{fill:#EDF2F5;}
	.st23{fill:#ACBDCC;}
	.st24{fill:#D0DFED;}
	.st25{fill:#DEECF7;}
	.st26{fill:#E4EAED;}
	.st27{fill:#B6B9BD;}
	.st28{fill:#D7E5ED;}
	.st29{fill:#F2F7FA;}
	.st30{fill:#E0E5E8;}
	.st31{fill:#DDE2EB;}
	.st32{fill:#A0A3A6;}
	.st33{fill:#9AA1B5;}
	.st34{fill:#DEE6EB;}
	.st35{fill:#E8F0F5;}
	.st36{fill:#9BA0AD;}
	.st37{fill:#F5FAFF;}
	.st38{fill:#7D4F36;}
	.st39{fill:#BF8565;}
	.st40{fill:#999999;}
	.st41{fill:#C1C8D9;}
	.st42{fill:#FFFFFF;}
	.st43{fill:#B3B3B3;}
	.st44{fill:#F5D9C6;}
</style>
<g>
	<path class="st0" d="M71.9,14.5l-35.3,5.6L1.3,14.5l6.5,83.6c0,6.1,12.9,10.9,28.8,10.9c15.9,0,28.8-4.9,28.8-10.9
		C65.3,98.1,71.9,14.5,71.9,14.5z"/>
	<path class="st0" d="M71.9,14.5l-35.3,5.6L1.3,14.5l6.5,83.6c0,6.1,12.9,10.9,28.8,10.9c15.9,0,28.8-4.9,28.8-10.9
		C65.3,98.1,71.9,14.5,71.9,14.5z"/>
	<path class="st1" d="M36.6,52.7c-15.9,0-29.2-3.1-32.9-7.3L5.5,69l0.7,8.4c3.9,4,16,6.8,30.4,6.8c14.4,0,26.5-2.9,30.4-6.9l0.7-8.6
		l1.8-23.4C65.8,49.6,52.5,52.7,36.6,52.7z"/>
	<path class="st0" d="M42.1,85.1c-9.4,0-17-7.5-17-16.8c0-9.3,7.6-16.8,17-16.8c9.4,0,17,7.5,17,16.8C59.2,77.5,51.5,85.1,42.1,85.1
		z M42.1,53.3c-8.4,0-15.2,6.7-15.2,15c0,8.3,6.8,15,15.2,15c8.4,0,15.2-6.7,15.2-15C57.3,60,50.5,53.3,42.1,53.3z"/>
	<g>
		<path class="st0" d="M33.8,62.4c-3.8,4.9-4.6,10.7-1.3,13.5c3.4,2.7,8.6,0.5,12.4-4.4c3.8-4.9,4.6-10.7,1.3-13.5
			C42.8,55.3,37.6,57.5,33.8,62.4z M44.5,61.5c-1.8,2.1-4.8,3.9-7.1,5.1c-2.3,1.2-3.7,3.4-5.3,7.6c0,0,0-5.1,3.9-8.7
			c3.9-3.6,6.1-2.7,8.6-5.7l0.7-1.6C45.4,58.2,46.3,59.4,44.5,61.5z"/>
		<path class="st0" d="M54.5,68.3c-0.9-2.5-3.3-2.9-4.9-2.8c-0.1,0.8-0.4,1.6-0.7,2.5c1.8-0.6,4.4,0.3,4.4,0.3
			c-2.2-0.4-4.4,1.1-5.5,2c-0.4,0.7-0.9,1.5-1.5,2.2c-2.7,3.5-6.1,5.6-9.1,5.6c1.5,1.4,4.6,1.2,8.4,0.1
			C50.6,76.7,55.8,72.1,54.5,68.3z"/>
	</g>
	<path class="st2" d="M65.9,90.3c-2.6,8.7-8.3,11.4-16.1,11.9c-14.2,0.9-11.9-75.3-12-82.3l-1.2,0.2l-21.2-3.4l-9.5-0.9
		c1.4,8.8,3.9,78.3,4.4,86.7c0.6,0.5,1.2,0.9,1.9,1.4c0.4,0.2,0.7,0.4,1.1,0.6c0.4,0.2,0.8,0.4,1.3,0.6c0.5,0.2,0.9,0.4,1.4,0.6
		c0.5,0.2,1,0.4,1.5,0.5c0.3,0.1,0.5,0.2,0.8,0.3c0.3,0.1,0.5,0.2,0.8,0.2c0.3,0.1,0.6,0.2,0.8,0.2c0.3,0.1,0.6,0.2,0.8,0.2
		c0,0,0.1,0,0.1,0c0.2,0.1,0.5,0.1,0.8,0.2c0,0,0.1,0,0.1,0c0.3,0.1,0.5,0.1,0.8,0.2c0,0,0.1,0,0.1,0c0.3,0.1,0.5,0.1,0.8,0.2
		c0,0,0.1,0,0.1,0c0.3,0.1,0.6,0.1,0.9,0.2c0,0,0.1,0,0.1,0c0.3,0,0.5,0.1,0.8,0.1c0.1,0,0.1,0,0.2,0c0.3,0,0.6,0.1,0.9,0.1
		c0,0,0.1,0,0.1,0c0.3,0,0.5,0.1,0.8,0.1c0.1,0,0.1,0,0.2,0c0.3,0,0.6,0.1,0.9,0.1c0,0,0.1,0,0.1,0c0.3,0,0.5,0.1,0.8,0.1
		c0.1,0,0.1,0,0.2,0c0.3,0,0.6,0.1,0.9,0.1c0,0,0.1,0,0.1,0c0.3,0,0.6,0,0.8,0.1c0.1,0,0.2,0,0.2,0c0.3,0,0.6,0,0.9,0.1
		c0,0,0.1,0,0.1,0c0.3,0,0.6,0,0.9,0c0.1,0,0.2,0,0.2,0c0.3,0,0.6,0,1,0c0.4,0,0.7,0,1,0c0.1,0,0.2,0,0.2,0c0.3,0,0.6,0,1,0
		c15.9,0,28.8-4.9,28.8-10.9C65.3,98.1,65.9,90.3,65.9,90.3z"/>
	<path class="st3" d="M30.2,20.9L24,25.2c0,0,2.2,68.6,3.1,83.3c1.4,0.2,2.8,0.3,4.2,0.4C31,96.9,30.2,21.2,30.2,20.9z"/>
	<path class="st3" d="M20.9,107.3c-1.1-11.6-4.3-81.1-5.2-90.5l-0.4-0.1l-3-0.3l-3.8,2.3l3.8,85.3C14.5,105.3,17.4,106.4,20.9,107.3
		z"/>
	<g>
		<path class="st4" d="M9,98.5c-0.1-0.1-0.1-0.1-0.1-0.1S8.9,98.4,9,98.5z"/>
		<path class="st5" d="M38.6,104.3c-14-0.5-19.5-2.4-20.3-6.4c-0.8-4-2.4-56.9,0.8-64.2c3.2-7.3,31-9.2,31-9.2l-13.8-4.5L1.3,14.5
			l0.6,4.4c1.7,2.5,4.4,5.4,7.4,7.6c4.7,3.3,3.4,39.2,5.3,56.2c1.1,10.2,1.1,15.2,0.5,17.6c-0.3,0.1-0.6,0.1-0.9,0
			c-3.4-0.7-4.7-1.5-5.1-1.7c0.6,0.5,3.2,2.3,5.1,2.5c0.2,0,0.4,0,0.6,0.1c-0.4,1-1,1.3-1.6,1.4c-0.9,0.1-1.5,0.5-1.9,0.9
			c2.5,1.8,6.2,3.2,10.7,4.2c-0.2-0.1-0.4-0.3-0.7-0.4c-4.5-2.6-5.3-4.1,12.4-2c17.6,2.1,25.8-3.9,25.8-3.9S52.6,104.7,38.6,104.3z"
			/>
		<path class="st6" d="M25.2,105.4c0,0,8.2,1,16.4,1c8.2,0,16.3-3,18.4-4.2c2.1-1.2,0.2,1.7-4.2,3.2c-4.5,1.4-14.8,3.2-25.5,2
			C23.5,106.7,22.7,105.3,25.2,105.4z"/>
	</g>
	<path class="st6" d="M64.9,15.6l-12.1,1.9c-0.1,2.2-2.7,75.7-3.7,90.4c0.2,0,0.3-0.1,0.5-0.1c0,0,0.1,0,0.1,0
		c4.1-0.8,7.7-2,10.4-3.4C61.6,91.5,63.6,24.5,64.9,15.6z"/>
	<path class="st7" d="M61.1,16.2l-12.7,7c0,0-1.6,66.1,7.8,65.1c8.1-0.8,10.8-64,11.4-73.1L61.1,16.2z"/>
	<path class="st8" d="M61,22l-3.8,80.6c0,0,0.9,0.9-0.4,3.3c0.9-0.3,1.8-0.7,2.6-1.1c0.3-1.1,0.5-2.6,0-3.1l4.1-79.8L61,22z"/>
	<path class="st9" d="M72.1,14.5l-35.6,4.9L1,14.5c-0.2,0.2-0.3,0.3-0.5,0.5L1,20.4c4.7,4.1,18.8,7,35.6,7c16.7,0,30.9-3,35.5-7
		l0.5-5.4C72.5,14.8,72.3,14.7,72.1,14.5z"/>
	<path class="st10" d="M1.3,14.5L2,23.8c5.2,4.3,17,7.4,38.8,6.9c15.8-0.4,25-3.2,30.2-6.1l0.8-10.1l-35.3,5.6L1.3,14.5z"/>
	<path class="st1" d="M73,18.8c0,5.3-16.3,9.6-36.4,9.6c-20.1,0-36.4-4.3-36.4-9.6c-0.1-0.6-0.2-4-0.1-4.6c1.9-5,18.2-5,36.5-5
		c18,0,34-0.5,36.3,4.6C73.2,14.4,73.1,18.1,73,18.8z"/>
	<path class="st1" d="M73,15.4c0,5.3-16.3,9.6-36.4,9.6c-20.1,0-36.4-4.3-36.4-9.6c-1.4-5.9,16.3-9.6,36.4-9.6
		C56.7,5.8,74.1,9.1,73,15.4z"/>
	<ellipse class="st11" cx="36.6" cy="14.5" rx="36.4" ry="9.6"/>
	<path class="st12" d="M43.4,20.9L4.9,12.6c-2.1,1-3.4,4.2-3.4,4.2s-0.3,2.4,0.1,4.7c3.4,3.1,12.5,5.5,24,6.4c0.1,0,0.2,0,0.2,0
		c0.2,0,0.4,0,0.5,0c1.1,0.1,2.1,0.1,3.2,0.2c-0.3-1.1-0.4-2.2-0.3-3.1C29.9,22,43.4,20.9,43.4,20.9z"/>
	<path class="st1" d="M70.3,14.5c0,4.6-15.1,8.3-33.8,8.3c-18.6,0-33.8-3.7-33.8-8.3c0-1.4,2.8-8.3,5.3-9.5
		c5.7-2.6,15.5,1.2,28.4,1.2c11.7,0,21-4.2,27-2C67.3,5.5,70.3,12.7,70.3,14.5z"/>
	<path class="st13" d="M47.3,12.5c0,0,10.3,6.3,16.3,4.5c6-1.8,3.1-9.3,2.4-10.4c-0.7-1.1-18.3,5.6-18.3,5.6L47.3,12.5z"/>
	<path class="st12" d="M30,10.4l-6.2-2c0,0-13.6-4-15.6-1.6C6.7,8.7,4.8,14.2,4,16.6c3.9,3.5,17,6.2,32.6,6.2
		c4.8,0,9.5-0.3,13.6-0.7c-2.9-0.2-7.2-0.7-13-2.3C24.2,16.3,30,10.4,30,10.4z"/>
	<path class="st11" d="M66.6,7.2c0,4-13.5,7.2-30.1,7.2C20,14.3,6.5,11.1,6.5,7.2C6.5,3.2,20,0,36.6,0C53.2,0,66.6,3.2,66.6,7.2z"/>
	<path class="st14" d="M66.7,7.3c0,2.4-13,6.5-25.8,6.5c-12.8,0,11.1-4.5,10.9-6.9C51.3,1,30.2,0.6,42.9,0.7
		C56.7,0.8,66.7,4.9,66.7,7.3z"/>
	<path class="st11" d="M11.9,2.4c0,0,1.4,1.7,3.6,1.9c2.2,0.2,5.2,0.3,5.2,0.3S19,4.9,19,5.8c-0.1,0.8-0.4,1.7,0.8,1.9
		c1.2,0.2-0.3,0.5-2.1,0.5c-1.8,0-5.6-1.2-6.5-1.8c-0.9-0.6-1.2-1.1-0.4-1.6C11.5,4.3,11.9,2.4,11.9,2.4z"/>
	<path class="st12" d="M11.9,2.4c0,0,1.4,1.7,3.6,1.9c2.2,0.2,5.2,0.3,5.2,0.3S19,4.9,19,5.8c-0.1,0.8-0.4,1.7,0.8,1.9
		c1.2,0.2-0.3,0.5-2.1,0.5c-1.8,0-5.6-1.2-6.5-1.8c-0.9-0.6-1.2-1.1-0.4-1.6C11.5,4.3,11.9,2.4,11.9,2.4z"/>
	<path class="st15" d="M70.7,14.5c0,0-0.8,3.3-7.2,5.2c-6.4,1.9-0.6,1,3.1-0.3C70.3,18.3,72.8,15.7,70.7,14.5z"/>
	<path class="st15" d="M59,21.3c0,0.2-0.8,0.5-1.8,0.7c-1,0.1-1.9,0.1-1.9-0.1c0-0.2,0.8-0.5,1.8-0.7C58.1,21,59,21.1,59,21.3z"/>
	<path class="st14" d="M28.5,2.6c0,1.2-3.7,2.1-8.4,2.1c-4.6,0-8.4-0.9-8.4-2.1c0-1.2,3.7-2.1,8.4-2.1C24.7,0.5,28.5,1.5,28.5,2.6z"
		/>
	<path class="st15" d="M14.5,1.5c0,0-1.5,0.7-0.6,1.4c0.9,0.8,2.3,0.9,2.7,0.9c0.4,0-1.9,0.3-3.3-0.4C12,2.8,11.9,1.6,14.5,1.5z"/>
	<path class="st14" d="M21.7,4.3c0,0,3.3,0.3,4.1,1.3c0.7,1-1.4,2.1-0.3,2c1.2-0.1,4.3-0.5,5.2-1.3c0.9-0.8,0.5-1.3-0.3-1.6
		c-0.8-0.3-2.1-2.5-2.3-2.5C27.9,2.1,21.7,3.9,21.7,4.3z"/>
	<path class="st16" d="M23.2,2.4c0,0.6-2,1.1-4.5,1.1c-2.5,0-4.5-0.5-4.5-1.1c0-0.6,2-1.1,4.5-1.1C21.2,1.3,23.2,1.8,23.2,2.4z"/>
	<path class="st15" d="M25.7,1.5c0,0,0.7,1.5-1.1,2C22.7,4,21,4.4,22.9,4.2c1.8-0.2,2.5-0.2,3.7-0.6c1.3-0.4,1.8-1.3,1.1-1.7
		C27,1.6,25.7,1.5,25.7,1.5z"/>
	<path class="st15" d="M63.6,4.2c0,0,2.2,1,1.3,3.3c-0.9,2.3-5.1,2.8-11.6,4.2c-5.1,1.1-11.8,1.5-9.3,1.6c2.6,0.2,9.3-0.2,14.5-1.5
		c5.1-1.3,6.5-1.9,7.4-2.9C66.8,8,67.5,5.4,63.6,4.2z"/>
</g>
<g>
	<g>
		<g>
			<path class="st17" d="M204.7,91.5c0,3.3-1.5,6.4-4.1,9.2c-1.7,1.8-3.8,3.5-6.3,5c-10.7,6.6-28.8,10.9-49.2,10.9
				c-12.5,0-24.2-1.6-33.8-4.4c-2.2-0.6-4.3-1.3-6.2-2.1c-12.1-4.6-19.6-11.2-19.6-18.6c0-0.1,0-0.2,0-0.3
				c0.2-5.1,3.9-9.8,10.2-13.8c10.1-6.3,26.6-10.5,45.6-11c1.3,0,2.5-0.1,3.8-0.1c1,0,2,0,3.1,0c1,0,2,0.1,3,0.1
				c29.8,1.3,53.1,11.8,53.5,24.6C204.7,91.3,204.7,91.4,204.7,91.5z"/>
			<path class="st18" d="M204.7,90.8c0,0.1,0,0.2,0,0.3c-0.1,3-1.5,5.9-4.1,8.6c-1.7,1.7-3.8,3.4-6.3,4.9
				c-10.7,6.4-28.8,10.6-49.2,10.6c-12.5,0-24.2-1.6-33.8-4.3c-1-0.3-1.9-0.6-2.8-0.8c-13.8-4.4-22.7-11.2-23-18.8
				c0-0.2,0-0.3,0-0.4c0-5,3.6-9.6,9.9-13.5c0.1-0.1,0.2-0.1,0.3-0.2c10-6.1,26.6-10.2,45.6-10.7c1.3,0,2.5-0.1,3.8-0.1
				c1,0,2,0,3.1,0c1,0,2,0.1,3,0.1C181.3,67.8,204.7,78.2,204.7,90.8z"/>
			<path class="st19" d="M202.3,90.3c0,2.8-1.3,5.5-3.6,8c-1.9,2-4.6,3.9-7.8,5.6c-4.4,2.3-9.9,4.3-16.2,5.8
				c-8.6,2.1-18.8,3.3-29.6,3.3c-31.6,0-57.2-10.2-57.2-22.7s25.6-22.7,57.2-22.7c30.2,0,54.9,9.3,57.1,21.1
				C202.3,89.2,202.3,89.7,202.3,90.3z"/>
			<path class="st20" d="M202.3,86c0,9.6-11.1,18-27.6,22.6c-19.6-4.2-46.8-10.1-46.8-10.1l0.5-4.1c1.1-0.4,48.9,1.1,73.8-10.4
				C202.3,84.7,202.3,85.3,202.3,86z"/>
			<path class="st20" d="M200.6,97c-1.7,2-3.8,3.9-6.3,5.6c-52.1,8.2-51.3,1.3-58.2,4.1c-22.5,3.6-28.9-3.3-29.7-4.9
				c0,0,18.7-0.3,19.7-0.3c1,0,54-2.4,73.4-6.3C199,95.8,199.5,96.4,200.6,97z"/>
			<path class="st21" d="M217.2,100c-0.1,0.1-0.2,0-0.3,0C217.1,100,217.2,100,217.2,100z"/>
			<path class="st22" d="M168.1,111.1c-7,1.2-14.8,1.9-23,1.9c-10.8,0-20.9-1.2-29.5-3.3c-13.5-3.2-23.4-8.7-26.6-15
				c-0.7-1.4-1.1-2.9-1.1-4.4c0-12.5,25.6-22.7,57.2-22.7c0.4,0,0.8,0,1.2,0c-10.2,1.8-17.5,13.8-14.7,24.8c1,3.8,3.1,7.4,6.8,10.4
				C144.2,107.6,153.7,111,168.1,111.1z"/>
			<g>
				<path class="st20" d="M166.3,96.1c-3.5,2.8-5.7,2.2-9.8,1.8c-6.5-0.6-13.4,1-19.9,3.2c-4,1.3-7.9,2.8-11.6,4.1
					c-2.7,1-6,2.2-9.4,3.4c-0.6,0.2-1.3,0.4-1.9,0.6c-0.8,0.2-1.5,0.5-2.3,0.7c-1,0-1.9,0.1-2.8,0.1c-1.2,0-2.3,0.1-3.4,0.1
					c-12.1-4.6-19.6-11.2-19.6-18.6c0-0.1,0-0.2,0-0.3c0-0.2,0-0.3,0-0.4c0-5,3.6-9.6,9.9-13.5c0.1,0,0.2,0.1,0.4,0.1
					c0.5,0.1,1,0.3,1.5,0.4c3.2,0.8,6.3,1.5,9.5,2.1c8.3,1.4,16.8,1.6,25.2,1.4c3-0.1,6.1-0.2,9.1-0.4c3.6-0.2,7.3-0.3,11-0.5
					c3.9,1.7,7.3-0.1,11.7,0.7c2.6,0.5,5.1,1.9,6.3,4.3C171.9,89.4,169.4,93.7,166.3,96.1z"/>
			</g>
			<g>
				<path class="st20" d="M165.4,92.8c-0.7,0.2-1.5,0.3-2.2,0.4c-4.4,0.6-8.3,3.2-12.8,4c-3.9,0.6-8.1,2.1-12,3.3
					c-4.7,1.4-9.2,3.2-13.4,4.7c-2.7,1-6,2.2-9.4,3.4C102,104.8,92.1,98.5,89,91.1c0.7-0.1,1.5-0.3,2.3-0.3c3.9-0.4,7.9-0.5,11.9-1
					c8.7-1.1,17.5-1.3,26.3-1.4c0.8,0,1.5,0,2.3,0c11.3-0.1,23.4-0.2,34.2-3.6c1-0.3,2-0.7,3-1.1c0.5,0.5,0.9,1.1,1.2,1.7
					C172,89.7,168.9,91.9,165.4,92.8z"/>
			</g>
		</g>
		<path class="st23" d="M115.8,79c5.6,11.3,15.5,16.2,31.4,15.8c12.9-0.1,21.9-4.5,27.2-15.8H115.8z"/>
		<path class="st24" d="M180.2,63.1c0,0.1,0,0.2,0,0.3C180.2,63.3,180.2,63.3,180.2,63.1z"/>
		<path class="st25" d="M204.4,61.3c-0.5,1.6-1.1,3.1-1.7,4.4c-0.9,1.9-1.9,3.4-2.4,4.1c-1.9,2.6-7,6.5-16.6,8.3
			c-9.3,1.7-11.4,3.9-11.5,4.1c0.1-0.2,2.5-5.2,4.8-10c0.7-1.4,1.4-2.8,2-4.1c0.5-1,0.9-1.9,1.3-2.6c0.8-1.5,1.2-2.5,1.2-2.2
			c-0.1,0.4-0.5,1.5-0.6,2.7c-0.1,1.9,0.7,4.1,5,4.2c3,0.1,5.5-0.8,7.5-2c2.6-1.6,4.3-4,4.9-6.2c0.5-1.7,1.1-4.1,1-6.3
			c-0.2-2.6-1.6-4.9-6-4.9c0,0-4,0.4-6.3,5.1c0,0-1,1.7-3.7,2.2c-0.9,0.2-1.5,0.8-2,1.6c-0.6,1.1-0.9,2.4-1,3.1c0.1-1,0.2-2,0.4-3
			c0.2-1.4,0.3-2.9,0.5-4.3c0.2-1.4,0.3-2.8,0.5-4.2c0.2-1.5,0.3-2.9,0.5-4c0.2-1.9,0.3-3.2,0.3-3.3c0.2,0.3,1.9,3.2,4.3,2.8
			c2.7-0.4,9.1-6,15.8,1.2C205.9,52,205.7,57,204.4,61.3z"/>
		<path class="st26" d="M181.3,59.8c-0.6,1.1-0.9,2.4-1,3.1c0.1-1,0.2-2,0.4-3C180.8,59.9,181,59.9,181.3,59.8z"/>
		<path class="st27" d="M204.4,61.3c-0.5,1.6-1.1,3.1-1.7,4.4c0.8-5.8,0.9-12.3-0.9-15.6c-3.6-6.4-11-3.3-15.3-1.8
			c-2.9,1-4,0-4.4-0.8c0.2-1.9,0.3-3.2,0.3-3.3c0.2,0.3,1.9,3.2,4.3,2.8c2.7-0.4,9.1-6,15.8,1.2C205.9,52,205.7,57,204.4,61.3z"/>
		<path class="st28" d="M204.4,61.3c-1.2,4-3.3,7.3-4.2,8.6c-1.9,2.6-7,6.5-16.6,8.3c-9.3,1.7-11.4,3.9-11.5,4.1
			c0.6-0.6,0.9-1.8,1.2-2.6c0.9-1.8,1.8-3.7,2.6-5.5c1.3-2.7,1.6-5.4,4.4-6.9c-0.4,2.8-1.9,9.8,2.9,9.5c9.2-0.6,18.7-8.8,21.5-17.7
			C205,59.2,204.6,60.9,204.4,61.3z"/>
		<path class="st29" d="M180.2,63.1c0,0.1,0,0.2,0,0.3C180.2,63.3,180.2,63.3,180.2,63.1z"/>
		<path class="st29" d="M181.3,63.3c-0.1,0.4-0.5,1.5-0.6,2.7c-0.2-0.1-0.4-0.3-0.6-0.5C180.9,64,181.4,63.1,181.3,63.3z"/>
		<path class="st30" d="M193.3,68.2c2.6-1.6,4.3-4,4.9-6.2c1-3.7,3.1-11.1-5-11.2c0,0-4,0.4-6.3,5.1c0,0-1,1.7-3.7,2.2
			c-2.1,0.4-2.8,3.5-3,4.7c0.3-2.4,0.6-4.8,0.9-7.2c0.6-4.6,1.2-2.3,4.6-4c3.6-1.7,6.1-5.5,10.8-3.6c2.9,1.1,4,4.4,4.5,7.2
			C201.9,59.5,199,66.2,193.3,68.2z"/>
		<path class="st31" d="M169.6,88.6c0,4.7-11.4,8.4-25.5,8.4c-13.1,0-26.1,1.6-39.3-0.7c-1.1-0.2-2.2-0.5-3.1-1.1
			c-0.9-0.6-1.5-1.7-1.4-2.8c0.2-1.5,1.9-2.4,3.3-3c6.3-2.6,12.6-5.8,19.4-7.3c6.9-1.5,14-2.1,21-2.1
			C158.2,80.2,169.6,83.9,169.6,88.6z"/>
		<path class="st17" d="M180.2,39.6L115.1,38l-7.9-0.2h-0.1l-0.5,0c-0.1,0.8-0.3,1.5-0.4,2.3c0.1,6,0.4,11.4,1.1,16.3
			c0.4,3.2,0.9,6.2,1.6,8.9c0.8,3.5,1.9,6.6,3.2,9.3c6,12.9,17,18.4,35.3,18c11.1-0.1,19.5-2.9,25.4-9.7c2.6-3,4.8-6.8,6.4-11.4
			c0.3-0.8,0.6-1.7,0.9-2.6c0-0.1,0-0.1,0.1-0.2c2.2-7.5,3.4-17.1,3.6-29L180.2,39.6z"/>
		<path class="st32" d="M174.7,45.9c0.1,0.7,0.1,1.3,0.1,2c-0.1,7.7-3.1,15.2-8.1,21c-4.7,5.4-12.2,7.7-19.4,7.8
			c-20,0.5-32-21.5-32.2-38.8c8.3,0.2,16.6,0.4,24.8,0.6c6.7,0.2,13.4,0.3,20.1,0.5c4.6,0.1,11.6-1.8,13.8,3.2
			C174.4,43.5,174.6,44.7,174.7,45.9z"/>
		<path class="st20" d="M170.1,78.1c-9.2,5.2-20.9,7.6-31.4,5.5c-5-1-8.9-4-13.1-7.1c-4.1-3.1-7.6-7.1-10.2-11.5
			c-3.7-6.3-6.4-14.8-7.6-22c-0.1-0.6-0.4-2.8-0.7-5.1c0-0.3-0.1-0.5-0.1-0.8l-0.3,0c-0.2,1-0.4,2-0.5,3c0.1,5.7,0.4,10.9,1.1,15.6
			c0.4,3.2,0.9,6.2,1.6,8.9c0.9,3.5,1.9,6.9,3.2,10.1c5.2,11.2,14.3,16.8,28.6,17.8c2.1,0.2,4.4,0.2,6.7,0.2
			c11.1-0.1,19.5-2.9,25.4-9.7c2.6-3,4.9-6.8,6.5-11.4c0.3-1.1,0.7-2.5,1-3.6C177.9,71.4,173.8,76.1,170.1,78.1z"/>
		<path class="st29" d="M168.6,86.8c-5.5,4-12.5,5.8-21.3,5.8c-16.5,0.3-27.1-4.1-33.4-14.4c1.8,1.5,3.6,2.9,5.6,4.2
			c10.2,6.5,22.6,9,34.6,7.7C159.1,89.6,164,88.5,168.6,86.8z"/>
		<path class="st33" d="M226.2,99.8c-4.7,0-43.3-4.8-59.3-5.9c-2-0.1-3.7-0.2-4.8-0.2c-3.2,0-6.2,0.4-8.8,1
			c-1.1,0.3-2.1,0.6-3.1,0.9c-1.1,0.4-2.2,0.8-3.1,1.2c-0.1,0.1-0.2,0.1-0.4,0.2c-0.5,0.2-0.9,0.4-1.3,0.6c-0.9,0.5-1.7,1-2.3,1.5
			c-0.3,0.2-0.5,0.4-0.7,0.6c-0.1,0.1-0.2,0.3-0.3,0.4c-0.2,0.2-0.4,0.5-0.7,0.8c-0.1,0.1-0.2,0.2-0.3,0.3c-0.4,0.4-1,0.9-1.6,1.4
			c-0.3,0.2-0.6,0.4-1,0.6c-0.1,0.1-0.2,0.1-0.3,0.2c-0.2,0.1-0.3,0.2-0.5,0.3c-0.2,0.1-0.3,0.2-0.5,0.3c-0.2,0.1-0.4,0.2-0.6,0.3
			c-0.2,0.1-0.3,0.1-0.5,0.2c-0.1,0-0.1,0-0.2,0.1c-0.2,0.1-0.4,0.1-0.6,0.2c-1.7,0.6-3.9,1.1-6.6,1.4c-0.3,0-0.6,0.1-1,0.1
			c-2.7,0.2-5.8,0.2-9.5-0.1c-7.4-0.7-12.9-3-16.6-5.6c-3.8-2.7-5.7-5.6-6-7.5c-0.1-0.5,0-0.9,0.2-1.2c0,0,0-0.1,0-0.1
			c1.2-1.6,6.3-3.5,22.3-2.1c6.4,0.5,10.6,1.4,13.5,2.3c6.1,1.9,6.7,3.9,10.7,3.4c0.5-0.3,1.1-0.5,1.7-0.8c0.3-0.1,0.6-0.3,0.9-0.4
			c0.3-0.1,0.5-0.2,0.8-0.3c0,0,0.1,0,0.1,0c0.9-0.3,1.8-0.6,2.7-0.9c0.3-0.1,0.7-0.2,1.1-0.3c0.4-0.1,0.7-0.2,1.1-0.3
			c0.2-0.1,0.5-0.1,0.7-0.2c0.3-0.1,0.6-0.2,0.9-0.2c0.4-0.1,0.7-0.2,1-0.2c0,0,0.1,0,0.1,0c0.3-0.1,0.7-0.2,1-0.2
			c0.1,0,0.2,0,0.3-0.1c0.3-0.1,0.5-0.1,0.7-0.2c0.5-0.1,0.9-0.2,1.4-0.3c0.3-0.1,0.5-0.1,0.8-0.2c0.8-0.1,1.5-0.3,2.1-0.4
			c1.8-0.3,3.6-0.4,5.5-0.4c0.2,0,0.4,0,0.6,0c1.2,0,2.6,0.1,4.3,0.1c15.3,0.4,49.4,1.3,53.3,1C241.2,89.9,239.3,99.8,226.2,99.8z"
			/>
		<path class="st34" d="M166.6,93.9c-2-0.1-3.7-0.2-4.8-0.2c-3.2,0-6.2,0.4-8.8,1c-1.1,0.3-2.1,0.6-3.1,0.9
			c-1.1,0.4-2.2,0.8-3.1,1.2c-0.1,0.1-0.2,0.1-0.4,0.2c-0.5,0.2-0.9,0.4-1.3,0.6c-0.9,0.5-1.7,1-2.3,1.5c-0.3,0.2-0.5,0.4-0.7,0.6
			c-0.1,0.1-0.2,0.3-0.3,0.4c-0.2,0.2-0.4,0.5-0.7,0.8c-0.1,0.1-0.2,0.2-0.3,0.3c-0.4,0.4-1,0.9-1.6,1.4c-0.3,0.2-0.6,0.4-1,0.6
			c-0.1,0.1-0.2,0.1-0.3,0.2c-0.2,0.1-0.3,0.2-0.5,0.3c-0.2,0.1-0.3,0.2-0.5,0.3c-0.2,0.1-0.4,0.2-0.6,0.3c-0.2,0.1-0.3,0.1-0.5,0.2
			c-0.1,0-0.1,0-0.2,0.1c-0.2,0.1-0.4,0.1-0.6,0.2c-2.2,0.6-4.4,1.1-6.6,1.4c-0.3,0-0.6,0.1-1,0.1c-1.7-0.1-3.3-0.2-5-0.5
			c1.2-2.5,2.4-5.5,0.9-7.9c-0.9-1.4-2.6-2.2-4.2-2.8c-1.2-0.4-2.4-0.8-3.6-1.2c-6.5-1.9-13.3-2.6-20-2c0,0,0-0.1,0-0.1
			c1.2-1.6,6.3-3.5,22.3-2.1c4.6,0.4,8.8,1.6,13.3,2.3c0.1,0,0.1,0,0.2,0c6.1,1.9,6.7,3.9,10.7,3.4c0.5-0.3,1.1-0.5,1.7-0.8
			c0.3-0.1,0.6-0.3,0.9-0.4c0.3-0.1,0.5-0.2,0.8-0.3c0,0,0.1,0,0.1,0c0.9-0.3,1.8-0.6,2.7-0.9c0.3-0.1,0.7-0.2,1.1-0.3
			c0.4-0.1,0.7-0.2,1.1-0.3c0.2-0.1,0.5-0.1,0.7-0.2c0.3-0.1,0.6-0.2,0.9-0.2c0.4-0.1,0.7-0.2,1-0.2c0,0,0.1,0,0.1,0
			c0.3-0.1,0.7-0.2,1-0.2c0.1,0,0.2,0,0.3-0.1c0.3-0.1,0.5-0.1,0.7-0.2c0.5-0.1,0.9-0.2,1.4-0.3c0.3-0.1,0.5-0.1,0.8-0.2
			c0.8-0.1,1.5-0.3,2.1-0.4c1.8-0.3,3.6-0.4,5.5-0.4c0.2,0,0.4,0,0.6,0c-0.5,1.1-0.1,2.5,0.7,3.5C166.3,93.6,166.5,93.7,166.6,93.9z
			"/>
		<path class="st35" d="M146.3,97c-0.4,0.2-0.8,0.4-1.2,0.6c-0.9,0.5-1.7,1-2.3,1.5c-0.3,0.2-0.5,0.4-0.7,0.6
			c-0.1,0.1-0.2,0.3-0.3,0.4c-0.2,0.2-0.4,0.5-0.7,0.8c-0.1,0.1-0.2,0.2-0.3,0.3c-0.4,0.4-1,0.9-1.6,1.4c-4.4-3.3-9.1-6-14.3-7.6
			c-3-0.9-6.2-1.4-9.3-1.2c-1.6,0.1-3.1,0.3-4.6,0.6c-2.2,0.5-4.3,1.4-6.2,2.6c-1,0.7-2.2,2.5-3.4,3.5c-3.8-2.7-5.7-5.6-6-7.5
			c-0.1-0.5,0-0.9,0.2-1.2c0,0,0-0.1,0-0.1c1.2-1.6,6.3-3.5,22.3-2.1c6.4,0.5,10.6,1.4,13.5,2.3c6.1,1.9,6.7,3.9,10.7,3.4
			c0.5-0.3,1.1-0.5,1.7-0.8c0.3-0.1,0.6-0.3,0.9-0.4c0.3-0.1,0.5-0.2,0.8-0.3c0,0,0.1,0,0.1,0C146,94.8,146.2,95.9,146.3,97z"/>
		<path class="st36" d="M122.1,102.8c8.9,0,15.4-1.4,20-3.1c-0.1,0.1-0.2,0.3-0.3,0.4c-1.7,2.2-6.7,7.5-23.9,6
			c-15-1.3-22.1-9.4-22.6-13C98,96.7,104.8,102.9,122.1,102.8z"/>
		<g>
			<path class="st37" d="M183.8,39.3c0,6.5-18.3,10.9-39.7,10.9c-21.4,0-37.9-4.5-37.9-11c0-6.5,17.5-11.7,38.9-11.7
				C166.5,27.5,183.8,32.8,183.8,39.3z"/>
			<path class="st19" d="M178.9,42.5c-1.5,0.8-3.4,1.5-5.8,2.2c-1.9,0.5-4,1-6.3,1.4c-1.2,0.2-2.5,0.4-3.8,0.6
				c-1.2,0.2-2.5,0.3-3.9,0.5c-4.3,0.4-9.1,0.7-14.1,0.7c-1.8,0-3.6,0-5.4-0.1c-5.8-0.2-11.2-0.8-15.9-1.6c-0.8-0.1-1.5-0.3-2.3-0.4
				c-4.5-0.9-8-2-10.4-3.3c-6.8-3.5-4.8-7.9,6.9-11c10.9-2.8,25.7-3.4,37.1-2.5c0,0,0.1,0,0.1,0C178.4,30.6,189.3,37.3,178.9,42.5z"
				/>
			<path class="st38" d="M178.9,42.5c-1.5,0.8-3.4,1.5-5.8,2.2c-1.9,0.5-4,1-6.3,1.4c-1.2,0.2-2.5,0.4-3.8,0.6
				c-1.2,0.2-2.5,0.3-3.9,0.5c-4.3,0.4-9.1,0.7-14.1,0.7c-1.8,0-3.6,0-5.4-0.1c-5.8-0.2-11.2-0.8-15.9-1.6c-0.8-0.1-1.5-0.3-2.3-0.4
				c-4.5-0.9-8-2-10.4-3.3c1.7-1.1,4.3-2.1,7.8-3c10.5-2.7,24.8-3.2,35.8-2.5c0,0,0.1,0,0.1,0C166.5,37.8,174.9,40,178.9,42.5z"/>
			<path class="st39" d="M178.9,42.5c-0.3,0.2-0.6,0.3-1,0.5c-4.3-2.3-12.3-4.2-23.2-5c0,0-0.1,0-0.1,0c-11-0.8-25.3-0.3-35.8,2.5
				c-2.9,0.8-5.2,1.6-6.9,2.5c-0.3-0.2-0.7-0.3-1-0.5c1.7-1.1,4.3-2.1,7.8-3c10.5-2.7,24.8-3.2,35.8-2.5c0,0,0.1,0,0.1,0
				C166.5,37.8,174.9,40,178.9,42.5z"/>
			<path class="st22" d="M173.1,44.7c-1.9,0.5-4,1-6.3,1.4c-1.2,0.2-2.5,0.4-3.8,0.6c-1.2,0.2-2.5,0.3-3.9,0.5
				c-2.6,0.3-5.4,0.5-8.2,0.6c0.2,0,0.4-0.1,0.5-0.1c2.3-0.4,4.4-0.9,6.3-1.4c19.1-5.3,8.7-13.8-17.9-15.7c0,0-0.1,0-0.1,0
				c-4.9-0.3-10.4-0.5-16-0.2c10-1.7,21.8-2,31.3-1.3c0,0,0.1,0,0.1,0C181.8,30.9,192.2,39.4,173.1,44.7z"/>
			<path class="st40" d="M168.9,38.9c-19.9,0.3-35.7,3.9-36.4,8.4c-3.1-0.3-6.1-0.7-8.8-1.1c-0.8-0.1-1.5-0.3-2.3-0.4
				c-4.5-0.9-8-2-10.4-3.3c1.7-1.1,4.3-2.1,7.8-3c10.5-2.7,24.8-3.2,35.8-2.5c0,0,0.1,0,0.1,0C160.2,37.4,165,38.1,168.9,38.9z"/>
		</g>
		<path class="st41" d="M95.5,91.8c0,0,1.5,7,14.3,9.2c12.8,2.2,23.7,2.7,33.6-3.1c-4.1,3.8-8,6.2-21.9,5.7
			C106.9,103.1,95.8,97.4,95.5,91.8z"/>
		<path class="st41" d="M225.9,99.8c-5.3,0.2-53.5-6.1-64.1-6.1c-9.1,0-16.1,3.2-18.9,5.5c0,0,4.2-4.6,13.1-6.1
			c8.9-1.5,67.9,6.8,74.5,5.6C239.4,97,228.9,99.7,225.9,99.8z"/>
		<path class="st41" d="M235.4,95.4c-0.3-0.7-3.2-2.7-5-2.7c-4.5-0.1-9,0.1-13.5,0c-8.1-0.3-16.3-0.7-24.4-1
			c-5.6-0.2-11.3-0.1-16.9,0c2.2,0.4,5.2,0.8,9.2,1.2C215,96.1,234.2,98.7,235.4,95.4z"/>
		<path class="st42" d="M130.7,102.8c-8.3,0.3-17.6,0.1-25.4-2.8c-0.1,0-0.1,0.1-0.1,0.1c3.9,1.8,7.8,2.6,12,3
			c4.4,0.4,9.2,1.1,13.5,0.1C131,103.1,130.9,102.8,130.7,102.8z"/>
		<path class="st42" d="M189.6,95.8c-12.4-2.9-25.5-4.4-38-1.4c-0.1,0-0.1,0.2,0,0.2C164.3,91.5,177,94.2,189.6,95.8
			C189.7,95.8,189.7,95.8,189.6,95.8z"/>
		<path class="st42" d="M200.7,48c-3.7-3-8.4-2.2-12.2,0c-0.1,0,0,0.1,0,0.1c3.8-1.8,8.9-2.1,12.2,1.1c3.1,3.1,2.3,7.4,2.3,11.3
			c0,0.3,0.4,0.3,0.5,0.1C204.5,56.3,204.4,51,200.7,48z"/>
		<path class="st42" d="M155.1,48.4c-6.1-0.2-12.1,0.5-18.2,0.1c-6.3-0.4-12.7-1.1-18.9-2.6c-0.1,0-0.1,0.1,0,0.2
			c6.1,1.6,12.1,2.9,18.4,3.4c6,0.4,12.8,0.9,18.7-0.5C155.5,48.9,155.4,48.4,155.1,48.4z"/>
		<path class="st42" d="M230.8,91.9c-6.4-0.7-13.3-0.4-19.8-0.4c-0.1,0-0.1,0.2,0,0.2c6.5,0.3,13.3,0.8,19.8,0.3
			C230.9,92,230.9,92,230.8,91.9z"/>
		<g>
			<path class="st43" d="M125.1,50.4c0.1-1.2,39.6,7.4,57.5-7.1c0.2,13.8-7.3,41.6-28.3,45.2C133.3,92.1,124.4,63.3,125.1,50.4z"/>
		</g>
		<path class="st40" d="M106.3,39.7c0,0.1,0,0.2,0,0.3c0.1,5.7,0.4,10.9,1.1,15.6c0.4,3.2,0.9,6.2,1.6,8.9c0.9,3.5,1.9,6.9,3.2,10.1
			c5.2,11.2,15.2,15.3,28.6,17.8C120.4,88.4,109,79.9,106.3,39.7z"/>
		<path class="st42" d="M190.9,102.7c-10.9,3.5-21.5,6.7-32.9,8c-11,1.2-22.1,1-33.1-0.3c-0.2,0-0.2,0.3,0,0.3
			c11.2,2.2,22.7,2.6,34.1,1.2c10.9-1.3,22.3-3.8,32.2-8.8C191.4,103.1,191.2,102.6,190.9,102.7z"/>
		<circle class="st44" cx="116.9" cy="41.2" r="0.9"/>
		<path class="st44" d="M120.3,40.6c0,0.8-0.7,1.5-1.5,1.5c-0.8,0-1.5-0.7-1.5-1.5s0.7-1.5,1.5-1.5
			C119.6,39.1,120.3,39.8,120.3,40.6z"/>
		<path class="st44" d="M124.6,39.6c0,0.8-0.6,1.4-1.4,1.4c-0.8,0-1.4-0.6-1.4-1.4c0-0.8,0.6-1.4,1.4-1.4
			C123.9,38.2,124.6,38.8,124.6,39.6z"/>
		<path class="st44" d="M126,38.4c-0.4,0-0.8,0.4-0.8,0.8c0,0.4,0.4,0.8,0.8,0.8c0.4,0,0.8-0.4,0.8-0.8
			C126.8,38.8,126.4,38.4,126,38.4z"/>
		<path class="st44" d="M128.4,38.7c0-0.2-0.2-0.2-0.3-0.3c-0.2,0-0.4,0.1-0.4,0.3c0,0.2,0.1,0.4,0.3,0.4c0,0,0,0,0.1,0
			C128.3,39.2,128.5,39,128.4,38.7L128.4,38.7z"/>
		<path class="st44" d="M131,38c-0.3-0.4-1-0.5-1.4-0.1c-0.4,0.4-0.3,1,0,1.3c0.3,0.4,0.9,0.3,1.3,0C131.2,39,131.3,38.4,131,38z"/>
		<path class="st44" d="M114.5,42.2C114.5,42.2,114.4,42.2,114.5,42.2c-0.3-0.2-0.6,0-0.6,0.3c0,0.3,0.3,0.4,0.5,0.3c0,0,0,0,0.1,0
			C114.7,42.6,114.7,42.3,114.5,42.2z"/>
		<path class="st44" d="M120,42.6c-0.8,0-0.8,1.2,0,1.2C120.7,43.8,120.7,42.6,120,42.6z"/>
		<path class="st44" d="M133.2,37.5C133.2,37.5,133.2,37.5,133.2,37.5c-0.5-0.4-1.4,0.2-1.4,0.9c0,0.7,0.8,1.3,1.5,0.8
			c0,0-0.1,0-0.1,0C134,39,134,37.8,133.2,37.5z"/>
		<path class="st44" d="M135.7,37.9C135.7,37.9,135.7,37.9,135.7,37.9c-0.2-0.3-0.6-0.3-0.7-0.1c0,0,0,0,0,0.1
			c-0.1,0.3,0,0.7,0.4,0.7C135.7,38.6,135.8,38.2,135.7,37.9z"/>
		<path class="st44" d="M126.2,40.6c-0.4,0-0.8,0.4-0.8,0.8c0,0.4,0.4,0.8,0.8,0.8c0.4,0,0.8-0.4,0.8-0.8
			C127,41,126.6,40.6,126.2,40.6z"/>
		<path class="st44" d="M123.8,41.8c-0.3-0.1-0.7,0-0.9,0.2c-0.3,0.3,0,0.9,0.5,0.8c0.3-0.1,0.6-0.4,0.7-0.7
			C124,41.9,123.9,41.8,123.8,41.8z"/>
		<g>
			<path class="st40" d="M114.1,42c7.1-3,14.8-4.7,22.5-5.1c3.4-0.2,6.9,0.1,10.3,0.1c3.9,0,7.5,1.1,11.3,1.3
				c-7.8-0.4-15.7,0.4-23.3,2.4c-6.9,1.8-14.6,4.6-21.7,2.6c1.1-1.7,2.9-2.9,4.8-3.2L114.1,42z"/>
		</g>
	</g>
	<path class="st42" d="M180.1,42.4c-3.2,1-6.2,2.7-9.5,3.7c-3.3,0.9-6.6,1.4-10,1.9c-0.2,0-0.1,0.3,0,0.3c3.6,0.1,7.1-0.6,10.6-1.6
		c3-0.9,6.6-1.9,9-3.9C180.5,42.6,180.3,42.3,180.1,42.4z"/>
	<path class="st42" d="M119.1,39.9c-0.9,0-0.9,1.4,0,1.4C119.9,41.3,119.9,39.9,119.1,39.9z"/>
	<path class="st42" d="M123.5,38.5c-0.5,0-0.5,0.8,0,0.8C124,39.4,124,38.5,123.5,38.5z"/>
	<path class="st42" d="M126.8,38.7c-0.2-0.2-0.5-0.1-0.6,0.2c0,0,0,0.1,0,0.1c0,0.2,0.1,0.4,0.4,0.4c0,0,0.1,0,0.1,0
		C127,39.2,127,38.8,126.8,38.7z"/>
	<path class="st42" d="M129.8,37.9c-0.6,0-0.6,0.9,0,0.9C130.4,38.8,130.4,37.9,129.8,37.9z"/>
	<path class="st42" d="M132.9,37.4c-0.6,0-0.6,1,0,1C133.6,38.4,133.6,37.4,132.9,37.4z"/>
	<path class="st42" d="M126.2,41c-0.1,0-0.1,0-0.2,0c-0.4,0-0.4,0.6,0,0.6c0.1,0,0.1,0,0.2,0C126.5,41.6,126.5,41,126.2,41z"/>
	<path class="st42" d="M116.9,40.6c-0.6-0.1-0.6,0.7-0.1,0.6C117.2,41.2,117.2,40.7,116.9,40.6z"/>
</g>
</svg>
