<?xml version="1.0" encoding="utf-8"?>
<!-- Generator: Adobe Illustrator 25.0.0, SVG Export Plug-In . SVG Version: 6.00 Build 0)  -->
<svg version="1.1"
	 id="svg2" xmlns:cc="http://creativecommons.org/ns#" xmlns:dc="http://purl.org/dc/elements/1.1/" xmlns:inkscape="http://www.inkscape.org/namespaces/inkscape" xmlns:ns1="http://sozi.baierouge.fr" xmlns:rdf="http://www.w3.org/1999/02/22-rdf-syntax-ns#" xmlns:sodipodi="http://sodipodi.sourceforge.net/DTD/sodipodi-0.dtd" xmlns:svg="http://www.w3.org/2000/svg"
	 xmlns="http://www.w3.org/2000/svg" xmlns:xlink="http://www.w3.org/1999/xlink" x="0px" y="0px" viewBox="0 0 204.1 138.6"
	 style="enable-background:new 0 0 204.1 138.6;" xml:space="preserve">
<style type="text/css">
	.st0{fill:#FDCA85;}
	.st1{fill:#F7B11E;}
	.st2{fill:#FED137;}
	.st3{fill:#DA8D1A;}
	.st4{fill:#FFFF55;}
	.st5{fill:#DFE7ED;}
	.st6{fill:#C6E2F5;}
	.st7{fill:#D8E6F0;}
	.st8{fill:#E1EDF5;}
	.st9{fill:#FFFFFF;}
	.st10{fill:#D3E7F5;}
	.st11{fill:#E9F0F5;}
	.st12{fill:#B3B3B3;}
	.st13{fill:#F4D3AB;}
	.st14{fill:#FFE7BF;}
	.st15{fill:#C47CBE;}
	.st16{fill:#F5A2A2;}
	.st17{fill:#663232;}
	.st18{fill:#AD7D93;}
	.st19{fill:#D95B5B;}
	.st20{fill:#F08B8B;}
	.st21{fill:#D8E3ED;}
	.st22{clip-path:url(#SVGID_2_);}
	.st23{fill:#9AA1B5;}
	.st24{fill:#DEE6EB;}
	.st25{fill:#E8F0F5;}
	.st26{fill:#9BA0AD;}
	.st27{fill:#C1C8D9;}
	.st28{fill:#999999;}
	.st29{fill:#757575;}
	.st30{fill:#F57878;}
</style>
<g>
	<path class="st0" d="M87.2,32.2c-10.8,0.8-21.5,2.5-32.1,4.9c9.1-4.6,18.5-8.6,28.1-11.9c3.7-1.3,6.2-4.6,5.6-8.6
		c-0.5-3.7-3.8-7-7.7-6.8C67.2,10.4,53.5,15.2,40.5,20c-6.5,2.3-12.8,5.2-19.1,8.1c-3.2,1.5-6.4,3-9.5,4.6c-3.3,1.7-5.6,3.7-8.1,6.5
		C1.9,41.4,3.1,45,6.2,45c2.4,0,4.5-0.1,6.7-0.5c-2.6,2.1-5.2,4.2-7.4,6.8C2.3,55-1.2,59.4,0.4,64.6c1.6,5.1,7,7.2,11.7,4.7
		c5.8-3,11.6-5.7,17.6-8.1c-2.7,1.7-5.3,3.5-7.9,5.3C15.3,71.2,8.5,76,3.4,82.3C-0.7,87.4,1.7,95.6,9,95.7c3.9,0.1,7-1.7,10.4-3.4
		c3-1.6,6-3.1,9-4.5c5-2.3,10-4.4,15.2-6.3c-6.1,4.8-12,9.7-18.3,14.3c-3.8,2.7-5.6,7.5-3.1,11.8s7.6,5.1,11.8,3.1
		c8.4-3.9,16.5-8.8,24.8-13c8.4-4.2,16.4-8.9,23.1-15.6c2.7-2.8,0.3-6.9-3.2-6.7c3.2-2,6.4-3.9,9.7-5.8c3.4-1.9,4.8-6.3,3.2-9.8
		c-1.7-3.9-5.3-5.2-9.3-4.6c-4.9,0.7-9.8,1.7-14.7,2.8c7.8-3.9,15.6-7.5,23.5-11.1C98.1,43.5,94.7,31.6,87.2,32.2z M15.5,64
		C15.4,64.4,14.8,65,15.5,64L15.5,64z M9,80C8.1,80.5,8.8,80,9,80L9,80z"/>
	<g>
		<path class="st1" d="M87.2,31.1c-10.8,0.8-21.5,2.5-32.1,4.9c9.1-4.6,18.5-8.6,28.1-11.9c3.7-1.3,6.2-4.6,5.6-8.6
			c-0.5-3.7-3.8-7-7.7-6.8c-13.9,0.7-27.6,5.5-40.6,10.2C34,21.2,27.7,24.1,21.4,27c-3.2,1.5-6.4,3-9.5,4.6
			c-3.3,1.7-5.6,3.7-8.1,6.5c-1.9,2.2-0.7,5.8,2.4,5.8c2.4,0,4.5-0.1,6.7-0.5c-2.6,2.1-5.2,4.2-7.4,6.8c-3.2,3.7-6.7,8.1-5.1,13.3
			c1.6,5.1,7,7.2,11.7,4.7c5.8-3,11.6-5.7,17.6-8.1c-2.7,1.7-5.3,3.5-7.9,5.3c-6.5,4.7-13.3,9.5-18.4,15.8
			C-0.7,86.4,1.7,94.5,9,94.7c3.9,0.1,7-1.7,10.4-3.4c3-1.6,6-3.1,9-4.5c5-2.3,10-4.4,15.2-6.3c-6.1,4.8-12,9.7-18.3,14.3
			c-3.8,2.7-5.6,7.5-3.1,11.8s7.6,5.1,11.8,3.1c8.4-3.9,16.5-8.8,24.8-13c8.4-4.2,16.4-8.9,23.1-15.6c2.7-2.8,0.3-6.9-3.2-6.7
			c3.2-2,6.4-3.9,9.7-5.8c3.4-1.9,4.8-6.3,3.2-9.8c-1.7-3.9-5.3-5.2-9.3-4.6c-4.9,0.7-9.8,1.7-14.7,2.8c7.8-3.9,15.6-7.5,23.5-11.1
			C98.1,42.5,94.7,30.5,87.2,31.1z M15.5,62.9C15.4,63.4,14.8,64,15.5,62.9L15.5,62.9z M9,78.9C8.1,79.5,8.8,78.9,9,78.9L9,78.9z"/>
		<path class="st2" d="M17.4,33.1c0.3,0.7-0.6,1.7-1.9,2.2s-2.6,0.4-2.9-0.3c-0.3-0.7,0.6-1.7,1.9-2.2S17.1,32.4,17.4,33.1z"/>
		<path class="st2" d="M32.8,44.4c0.9,2.5-2.4,6-7.4,7.7s-9.7,1-10.6-1.5c-0.9-2.5,2.4-6,7.4-7.7C27.2,41.1,31.9,41.8,32.8,44.4z"/>
		<path class="st2" d="M17,75.6c0.8,1.1-0.3,3.4-2.5,5s-4.7,2-5.5,0.9s0.3-3.4,2.5-5C13.7,74.8,16.2,74.4,17,75.6z"/>
		<path class="st2" d="M35,93.9c0.7,1.2-0.5,3.2-2.8,4.6c-2.2,1.4-4.6,1.6-5.4,0.4c-0.7-1.2,0.5-3.2,2.8-4.6S34.3,92.8,35,93.9z"/>
		<path class="st3" d="M86.8,18.4c2,1.3-6.2,6.8-19.9,11.1c-11.6,3.7-20.4,8.4-20.8,7.5c-0.4-0.9,8.5-4.6,19.6-9.6
			C76.7,22.4,86,17.9,86.8,18.4z"/>
		<path class="st3" d="M93.3,41.9c0.3,0.7-9.2,6.1-21,11.4c-11.8,5.4-21.9,8.3-22.2,7.6s9.1-4.8,20.9-10.1S92.9,41.1,93.3,41.9z"/>
		<path class="st3" d="M90.5,64.7c0.5,1.9-6.7,5.7-16,9.9c-9.3,4.2-17.4,6.1-17.7,5.4s7.1-3.9,16.4-8.1
			C82.5,67.6,90.3,63.9,90.5,64.7z"/>
	</g>
</g>
<path class="st4" d="M72.4,106.8c2.3-0.3,1.6,1.6,2.1,2.9c0.7,1.9-0.6,1.5,1.5,2.3c2.5,1,7.6-2.2,7.6,2.6c2.6,1.1,5.6,0.9,8.4,0.9
	c2.6,0,2.5,0.5,4.5,1.4c0.8,0.4,3.2,0.5,4,1.2c1.3,1,0.9,4.5,1.6,6.1c1.8,4,5.5,3.5,9.3,2.7c1.6-0.3,3.6-1.3,5.2-0.4
	c2.5,1.4,1,3.4,1.7,5.5c0.5,1.8,3.1,2.8,4.8,2.8c2.5,0,2.7-3.2,5.2-2.9c0.9,0.1,1.8,0.6,2.7,1c2.4,1.1,5.1,1.3,7.7,0.8
	c2.3-0.4,3.8-2.4,5.8-2.8c1.5-0.3,3,0.3,4.2,1.2c2.3,1.9,3.6,8.3,7.9,6.1c1.6-0.8,1.2-2.4,2.6-3.5c1.6-1.3,3.9-0.4,5.6-0.6
	c4.2-0.7,6.4-5.7,10.9-6.6c1.7-0.3,4.4,0.6,6,0c3-1.3,4.4-5.9,7.5-7.7c3.8-2.2,7.9-0.3,11.5-3.1c2.9-2.2,5.2-5.5,1.4-8.3
	c-3.1-2.3-7.2-0.5-10.6-2.8c-1.4-1-2.1-2.5-3.4-3.5c-1.7-1.2-3.1-0.8-5.5-0.9c-5-0.4-9.9-3-14.6-4.6c-2.5-0.8-2.6-2.3-4.4-3.5
	c-1.2-0.8-3-0.5-3.9-1.5c-1.7-1.7-0.4-5.1-2.5-6.2c-1.1-0.6-4.4,0-5.7,0c-1.7,0-3.4,0.2-4.9,0.3c-2.3,0.1-2.8-0.4-4.9-0.8
	c-2.3-0.5-3.7-0.6-5.8-1.2c-1.4-0.4-5.9-1.2-7.4-0.5c-1.8,0.9-1.4,3.4-2.8,4.8c-1.8,1.9-3.7,1.2-6,1.5c-4.2,0.5-2.5,3.1-5.2,5.2
	c-1.6,1.3-5,0.4-7.1,1.4c-3.3,1.6-4.5,2.9-8.4,3.2c-2.5,0.2-4.6-0.2-6.4,1.7c-1.8,1.9-1.1,3.6-4.1,4.3c-2.1,0.5-4.6-0.4-6.6-0.9
	c-2.2-0.6-4.9-1.4-7.2-0.9c-0.9,0.2-2.9,1.1-3,2.1c-0.3,2.4,4.2,1.8,5.3,2"/>
<ellipse class="st5" cx="168.8" cy="55.4" rx="16.5" ry="5.6"/>
<g>
	<g>
		<path class="st6" d="M189.2,42.8c0,0.1-0.1,0.2-0.1,0.3c-0.1,0.2-0.1,0.4-0.2,0.6c-0.1,0.3-0.2,0.5-0.3,0.8
			c-0.1,0.2-0.1,0.3-0.2,0.5c-0.1,0.2-0.1,0.4-0.2,0.6c-0.1,0.2-0.1,0.4-0.2,0.6c-0.7,2.1-1.4,4.4-2.7,6.5c-0.5,0.9-1.2,1.7-2,2.4
			c-0.2,0.2-0.3,0.3-0.5,0.5c-0.1,0.1-0.2,0.1-0.2,0.2c-0.4,0.3-0.8,0.6-1.3,0.9c-0.2,0.1-0.3,0.2-0.5,0.3c-0.6,0.3-1.3,0.7-2,0.9
			c-0.6,0.2-1.3,0.5-2,0.6c-1.8,0.5-4,0.7-6.6,0.8c-0.1,0-0.2,0-0.3,0c-0.1,0-0.2,0-0.3,0c-2.4,0-4.4-0.3-6.2-0.7
			c-3.2-0.8-5.5-2.3-7.2-4c-0.7-0.7-1.3-1.5-1.8-2.3c0-0.1-0.1-0.1-0.1-0.2c-0.1-0.2-0.2-0.4-0.4-0.6c-0.1-0.2-0.2-0.4-0.3-0.6
			c-0.2-0.4-0.3-0.7-0.5-1.1c-0.6-1.4-1.1-2.8-1.5-4.1c-0.1-0.2-0.1-0.4-0.2-0.6c-0.1-0.2-0.1-0.4-0.2-0.6c-0.1-0.2-0.1-0.4-0.2-0.6
			c-0.1-0.1-0.1-0.3-0.2-0.4c-0.1-0.3-0.2-0.6-0.3-0.9c0,0,0,0,0.1,0H189.2C189.2,42.8,189.2,42.8,189.2,42.8z"/>
		<path class="st7" d="M176.8,58.7c-1.8,0.5-4,0.7-6.6,0.8c-0.1,0-0.2,0-0.3,0c-0.1,0-0.2,0-0.3,0c-2.4,0-4.4-0.3-6.2-0.7
			c-3.2-0.8-5.5-2.3-7.2-4c-0.7-0.7-1.3-1.5-1.8-2.3c0-0.1-0.1-0.1-0.1-0.2c-0.1-0.2-0.2-0.4-0.4-0.6c-0.1-0.2-0.2-0.4-0.3-0.6
			c-0.2-0.4-0.3-0.7-0.5-1.1c-0.6-1.4-1.1-2.8-1.5-4.1c-0.1-0.2-0.1-0.4-0.2-0.6c-0.1-0.2-0.1-0.4-0.2-0.6c-0.1-0.2-0.1-0.4-0.2-0.6
			c-0.1-0.1-0.1-0.3-0.2-0.4c-0.1-0.3-0.2-0.6-0.3-0.9c0,0,0,0,0.1,0h4.9l-0.4,0.8c-0.4,2.7,1.2,5.3,2.9,7.4c2.4,3,7.2,5,10.8,6.1
			C171.4,58,174.1,58.6,176.8,58.7z"/>
		<path class="st7" d="M189.2,42.6c0,0.1,0,0.2-0.1,0.2c0,0.1,0,0.1-0.1,0.2c-0.1,0.2-0.1,0.5-0.2,0.7c-0.1,0.3-0.2,0.5-0.3,0.8
			c-0.1,0.2-0.1,0.3-0.2,0.5c-0.1,0.2-0.1,0.4-0.2,0.6c-0.1,0.2-0.1,0.4-0.2,0.6c0,0-0.1,0-0.1,0.1c-3.6,3-10.3,5.1-17.9,5.1
			c-4,0-8.1-0.5-11.8-1.9c-2.7-1-6.5-2.9-7.3-5.9c-0.1-0.3-0.2-0.6-0.3-0.9l-0.1-0.2c0,0,0.1,0,0.2,0h38
			C189,42.6,189.2,42.6,189.2,42.6z"/>
		<path class="st8" d="M190.9,40.5c0,1.6-0.8,3.1-2.3,4.4c-0.2,0.2-0.4,0.4-0.7,0.6c-3.6,2.8-10.3,4.7-17.9,4.7
			c-8.5,0-15.8-2.4-19-5.8c-0.7-0.7-1.2-1.5-1.5-2.3c-0.2-0.5-0.3-1.1-0.3-1.6c0-5.4,9.3-9.7,20.8-9.7
			C181.5,30.8,190.9,35.2,190.9,40.5z"/>
		<path class="st9" d="M189.4,40.5c0,5-8.6,9-19.3,9c-10.7,0-19.3-4-19.3-9c0-0.3,0-0.6,0.1-0.8c0.9-4.6,9.2-8.2,19.2-8.2
			c9.8,0,17.9,3.4,19.1,7.8C189.3,39.7,189.4,40.1,189.4,40.5z"/>
		<path class="st10" d="M189.2,39.3c-0.2,1.2-0.9,2.2-1.9,3.2c-0.2,0.2-0.4,0.4-0.6,0.5c-0.6,0.5-1.3,1-2.1,1.4
			c-0.8,0.5-1.8,0.9-2.8,1.2c-3.3,1.2-7.4,1.9-11.9,1.9c-6.3,0-11.8-1.4-15.4-3.6c-0.1-0.1-0.2-0.1-0.3-0.2
			c-0.4-0.3-0.8-0.5-1.1-0.8c-1.2-1-2.1-2.1-2.4-3.4c0.8-4,7.1-7.3,15.3-8c1.3-0.1,2.6-0.2,3.9-0.2C180.3,31.6,188.1,35,189.2,39.3z
			"/>
		<path class="st11" d="M187.8,42.1c-3.1,3-9.7,5.1-17.3,5.1c-7.2,0-13.4-1.8-16.8-4.5c3.1-3,9.7-5,17.3-5
			C178.2,37.6,184.5,39.4,187.8,42.1z"/>
		<path class="st12" d="M180,50.9c-5.7,1.6-11.7,2-17.6,1.3c-1.3,5.4,7.9,6.6,11.4,6c2-0.3,4.3-0.5,6-1.7c1.8-1.3,3.8-2.8,4.7-4.9
			c0.1-0.3,0.2-0.7,0.1-1c-0.3-0.8-1.4-0.7-2.2-0.4C181.7,50.4,180.8,50.6,180,50.9z"/>
		<path class="st9" d="M167.9,31.9c-1.1-0.2-2.3,0-3.3,0.1c-1.3,0.2-2.5,0.4-3.7,0.8c-2.3,0.6-4.7,1.5-6.7,2.9
			c-0.2,0.1-0.1,0.4,0.1,0.3c2.2-0.7,4.4-1.6,6.7-2.2c1.1-0.3,2.2-0.5,3.3-0.7c1.2-0.2,2.5-0.2,3.6-0.6
			C168.1,32.4,168.2,32,167.9,31.9z"/>
		<path class="st9" d="M185.9,35.9c-1-1.2-2.5-1.8-3.9-2.3c-1.3-0.5-3-0.9-4.5-0.6c-0.2,0-0.2,0.3,0,0.3c1.4,0.4,2.8,0.5,4.1,1
			c1.4,0.5,2.6,1.3,4,2C185.9,36.3,186,36.1,185.9,35.9z"/>
	</g>
	<path class="st13" d="M186.7,43.1c-0.6,0.5-1.3,1-2.1,1.4c-3.5,1.9-8.8,3.2-14.7,3.2c-4.8,0-11.5-0.6-15.6-3.7
		c-0.4-0.3-0.8-0.7-1.2-1.1c-0.5-0.5-0.8-1.3-0.5-2c0.3-0.9,1.5-1.3,2.4-1.6c5.4-1.8,9.6-4.8,15.5-3.4c5.2,1.2,13.9,0.4,16,6.7
		C186.6,42.6,186.7,42.8,186.7,43.1z"/>
	<path class="st14" d="M186.7,43.1c-0.6,0.5-1.3,1-2.1,1.4c-3.5,1.9-8.8,3.2-14.7,3.2c-4.8,0-11.5-0.6-15.6-3.7
		c-0.4-0.3-0.8-0.7-1.2-1.1c-0.5-0.5-0.8-1.3-0.5-2c0.3-0.9,1.5-1.3,2.4-1.6c5.4-1.8,9.6-4.8,15.5-3.4c5.2,1.2,13.9,0.4,16,6.7
		C186.6,42.6,186.7,42.8,186.7,43.1z"/>
	<path class="st15" d="M186.7,43.1c-0.2,0.2-0.4,0.3-0.6,0.5c-0.1,0.1-0.1,0.1-0.2,0.1c-0.4,0.3-0.8,0.5-1.3,0.8
		c-0.4,0.2-0.8,0.4-1.2,0.6c-3.5,1.6-8.2,2.6-13.5,2.6c-2.5,0-5.6-0.2-8.5-0.8c-0.9-0.2-1.7-0.4-2.5-0.7c-0.7-0.2-1.5-0.5-2.2-0.8
		c-0.8-0.4-1.5-0.8-2.1-1.2c-0.1-0.1-0.2-0.1-0.3-0.2c-0.4-0.3-0.8-0.7-1.2-1.1c-0.4-0.5-0.7-1.1-0.6-1.7c0-0.1,0-0.2,0.1-0.3
		c0.3-0.7,1-1.1,1.8-1.4c0.2-0.1,0.4-0.1,0.7-0.2c0.3-0.1,0.6-0.2,0.9-0.3c3.3-1.2,6.2-2.8,9.5-3.3c1.1-0.2,2.2-0.2,3.4-0.1
		c0.5,0.1,1.1,0.1,1.7,0.3c0.1,0,0.3,0.1,0.5,0.1c0.5,0.1,1.1,0.2,1.7,0.3c1.4,0.2,3,0.4,4.6,0.6c3.6,0.5,7.2,1.5,8.8,4.7
		c0.1,0.1,0.1,0.2,0.2,0.3c0.1,0.2,0.2,0.5,0.3,0.7c0.1,0.2,0.1,0.3,0.1,0.5C186.7,42.9,186.7,43,186.7,43.1z"/>
	<path class="st16" d="M171.1,37.5c-0.3,0.6-0.8,1-1.3,1.2c-0.4,0.2-0.7,0.2-1.1,0.3c-1,0.1-2-0.1-3-0.2c-0.3,0-0.7-0.1-1.1-0.1
		c-0.7,0-1.3,0.1-1.9,0.4c-0.1,0.1-0.2,0.1-0.3,0.2c-0.6,0.4-1.1,1.1-1.6,1.7c-0.2,0.3-0.5,0.6-0.7,0.9c-0.4,0.4-0.9,0.7-1.4,0.9
		c-0.4,0.1-0.8,0.2-1.1,0.1c-0.6-0.1-1.1-0.5-1.5-0.5c-0.3,0-0.7,0.2-1.1,0.7c-0.2,0.3-0.3,0.6-0.4,0.9c-0.1-0.1-0.2-0.1-0.3-0.2
		c-0.4-0.3-0.8-0.7-1.2-1.1c-0.1-0.1-0.3-0.3-0.4-0.5c-0.2-0.4-0.3-0.8-0.3-1.2c0-0.1,0-0.2,0.1-0.3c0.3-0.7,1-1.1,1.8-1.4
		c0,0,0.1-0.1,0.1-0.1c0.4-0.2,0.7-0.4,1.2-0.5c0.1,0,0.2,0,0.3,0c3.3-1.2,6.2-2.8,9.5-3.3c0.3,0.3,0.7,0.6,1.1,0.7
		c0.8,0.2,1.6-0.4,2.3-0.8c0.5,0.1,1.1,0.1,1.7,0.3c0.1,0,0.3,0.1,0.5,0.1C171.3,36.3,171.4,37,171.1,37.5z"/>
	<path class="st16" d="M184.7,44.1c0,0.1,0,0.1,0,0.2c0,0.1,0,0.1,0,0.2c-3.5,1.9-8.8,3.2-14.7,3.2c-2.7,0-5.2-0.3-7.5-0.7
		c-2.8-0.6-5.3-1.4-7.3-2.5c0.2-0.2,0.4-0.3,0.7-0.4c0.7-0.3,1.7-0.2,2.6-0.1c0.2,0,0.4,0,0.5,0c0.7,0,1.2-0.2,1.7-0.8
		c0.8-1,0.8-1.3,1.9-1.7c1.1-0.5,1.5-1.6,1.9-2.6c0.3-0.6,0.7-1.2,1.4-1.4c1.3-0.4,2.4,1,3.8,1.4c0.1,0,0.3,0.1,0.4,0.1
		c1.2,0.1,2.3-0.9,3.5-0.8c1.5,0.2,2.1,2.1,3.5,2.7c0.9,0.4,1.9,0.3,2.8,0.3C180.7,41.2,184.7,43.2,184.7,44.1z"/>
	<path class="st16" d="M186.3,41.7c-1.1-0.7-2.3-1.1-3.6-1.2c-0.9-0.1-1.8,0-2.6-0.5c-0.7-0.4-1.2-1.3-1.9-1.7
		c-0.1-0.1-0.3-0.2-0.5-0.2c-0.6-0.2-1.2-0.2-1.8-0.2c-1,0-3.3-0.4-3.2-1.8c1.4,0.2,3,0.4,4.6,0.6C181,37.2,184.7,38.3,186.3,41.7z"
		/>
	<path class="st16" d="M183.4,45c-3.5,1.6-8.2,2.6-13.5,2.6c-2.5,0-5.6-0.2-8.5-0.8c-0.9-0.2-1.7-0.4-2.5-0.7
		c0.4-0.3,0.8-0.4,1.4-0.6c2.1-0.4,5.3,0.1,6.5-0.9c0.7-0.6,1-1.6,1.7-2.3c1-0.9,2.5-1,3.8-0.9c1.7,0.2,3.4,0.6,5,1.2
		c1.5,0.5,2.9,1.7,4.4,1.9C182.3,44.7,182.9,44.8,183.4,45z"/>
	<path class="st16" d="M155,43.2c-0.2,0.3-0.3,0.6-0.4,0.9c-0.1-0.1-0.2-0.1-0.3-0.2c-0.4-0.3-0.8-0.7-1.2-1.1
		c-0.1-0.1-0.3-0.3-0.4-0.5c0-0.1,0.1-0.2,0.2-0.3c0.8-1.1,2.8-1.3,4-1.7c1.7-0.5,3.3-1,5-1.5c0.2,0,0.3-0.1,0.5,0
		c0.2,0.1,0.2,0.3,0.1,0.6c0,0.1-0.1,0.3-0.2,0.4c-0.4,0.5-0.9,0.9-1.4,1.3c-0.3,0.3-0.7,0.5-1.1,0.8c-0.4,0.2-0.9,0.5-1,1
		c0,0,0,0.1,0,0.1c-0.4,0.1-0.8,0.2-1.1,0.1c-0.6-0.1-1.1-0.5-1.5-0.5C155.7,42.4,155.4,42.6,155,43.2z"/>
	<path class="st16" d="M162.8,46.5c-0.1,0.2-0.2,0.3-0.3,0.4c-2.8-0.6-5.3-1.4-7.3-2.5c0.2-0.2,0.4-0.3,0.7-0.4
		c0.7-0.3,1.7-0.2,2.6-0.1c0.2,0,0.4,0,0.5,0c0.2,0.2,0.5,0.4,0.7,0.5c0.7,0.2,1.4,0.2,2,0.5C162.5,45.2,163,45.9,162.8,46.5z"/>
	<path class="st16" d="M186.4,41.6c0.1,0.2,0.2,0.5,0.3,0.7c0.1,0.4,0.1,0.5-0.2,0.8c-0.1,0.1-0.6,0.6-0.6,0.5
		c-0.9-1.1-2.3-1.8-3.7-2.1c-2.1-0.4-4.4-0.1-6.5,0.3c0-0.4,0.1-0.8,0.1-1.2c-1.7,0-3.4-0.1-5.1-0.1c1.1-1.2,2.7-1.8,4.3-1.7
		c0.6,0.1,1.2,0.2,1.8,0.1c0.4-0.1,0.9-0.4,1-0.8c0-0.1,0.1-0.3,0-0.4c-0.1-0.4-0.4-0.7-0.5-1c0,0.1,2.8,0.5,3.1,0.6
		c1,0.3,2,0.6,2.9,1.2c0.9,0.5,1.7,1.2,2.3,2C185.8,40.8,186.1,41.2,186.4,41.6z"/>
	<path class="st17" d="M173.9,44.2c0.6,0,1.2-0.1,1.7-0.3c0.7-0.2,1.6-0.5,1.9,0.4c0.2,0.6-0.3,1.2-0.8,1.4c-1,0.5-3.4,0.5-4.4,0.4
		c-1.3-0.2-2.5-0.7-3.7-1.2c-1.2-0.4-2.5-0.8-3.8-0.5c-0.8,0.1-1.5,0.5-2.3,0.7c-1.3,0.3-2-0.8-3.2-0.6c-0.6,0.1-1.5,0.2-1.6-0.4
		c-0.1-0.3,0.1-0.5,0.3-0.7c0.6-0.5,1.6-0.5,2.4-0.3c0.8,0.2,1.6,0.6,2.4,0.6c1.9,0.1,3.6-1.4,5.5-1.2c1.1,0.1,2,0.8,2.9,1.2
		C172.1,44.1,173,44.3,173.9,44.2z"/>
	<path class="st17" d="M162.2,40.9c-0.5,0-1.1,0-1.5-0.2c-0.5-0.2-0.8-0.8-0.7-1.3c0.1-0.6,0.7-0.9,1.3-1.2c1.8-0.8,3.7-1.4,5.7-1.7
		c1.7-0.3,3.4-0.4,5,0.3c0.9,0.4,1.7,1,2.7,1.4c2.4,1,5.4,0.3,7.7,1.5c0.9,0.5,1.8,1.7,1.3,2.6c-0.3,0.7-1.2,1-2,1.1
		c-3.8,0.5-6.2-2.2-9.4-3.6C168.7,38.5,165.5,40.6,162.2,40.9z"/>
	<path class="st18" d="M167.5,37.2c-1.7-0.5-3.7,0.1-5.4,0.4c-1.2,0.2-2.9,0.7-3.6,1.8c0,0.1,0,0.2,0.1,0.1c0.6-0.4,1.2-0.7,1.8-1
		c0.6-0.2,1.2-0.4,1.9-0.6c0.9-0.3,1.8-0.5,2.7-0.6c0.8,0,1.6,0.1,2.4,0C167.6,37.3,167.6,37.2,167.5,37.2z"/>
	<path class="st18" d="M180.7,42.9c0-0.1-0.2-0.1-0.2,0c-0.2,1.6-1.9,1.7-3.2,2c-1.4,0.3-2.8,0.6-4.2,0.7c-2.7,0.3-5.5,0.3-8.1-0.4
		c-0.1,0-0.1,0.1,0,0.1c3,1.1,6.2,1,9.4,0.5c1.6-0.2,3.3-0.4,4.8-0.8C180,44.7,181.2,44,180.7,42.9z"/>
	<path class="st18" d="M181.4,39.7c-1-0.6-2.3-0.9-3.5-1.2c-2.8-0.7-5.7-1.1-8.6-1.5c-0.1,0-0.1,0.1,0,0.1c2.4,0.4,4.7,0.9,7.1,1.4
		c1.1,0.2,2.2,0.5,3.2,0.8c0.5,0.2,1.1,0.4,1.5,0.7c0.6,0.4,0.9,0.8,1,1.5c0,0.1,0.2,0.2,0.3,0C182.9,40.9,182,40.1,181.4,39.7z"/>
	<path class="st18" d="M171.2,43.2c-1.1-0.1-2.2-0.1-3.3-0.2c-0.6,0-1.1-0.1-1.7-0.2c-0.6-0.1-1.8-0.7-1.1-1.5
		c0.1-0.1,0-0.2-0.1-0.1c-0.8,0.7-0.1,1.7,0.8,1.9c0.8,0.2,1.6,0.2,2.4,0.2c1,0.1,2,0.1,3,0C171.3,43.4,171.3,43.2,171.2,43.2z"/>
	<path class="st16" d="M161.5,46.8c-0.9-0.2-1.7-0.4-2.5-0.7c-1.6-0.5-3-1.2-4.3-2.1c-0.1-0.1-0.2-0.1-0.3-0.2
		c-0.4-0.3-0.8-0.7-1.2-1.1c-0.4-0.5-0.7-1.1-0.6-1.7c0.5-0.7,1.1-1.2,1.9-1.7c0,0,0.1-0.1,0.1-0.1c0.4-0.2,0.7-0.4,1.2-0.5
		c0.1,0,0.2,0,0.3,0c0.3,0,0.6,0.2,0.8,0.5c0.6,1-1,2.1-0.7,3.2c0.2,0.5,0.7,0.7,1.1,1c1.1,0.6,2.2,1.3,3.1,2.2
		C160.7,46,161.1,46.4,161.5,46.8z"/>
	<path class="st16" d="M169.2,41.7c-0.6,0.1-1.2,0.2-1.9,0.2c-1,0-2.1-0.9-1.8-2.1c0.3-1.2,2.1-1.3,3.1-1.1c1.2,0.3,2.2,1,3.3,1.4
		c1.3,0.5,2.7,0.8,4.1,0.7c0.8-0.1,3.1-0.9,3.2,0.6c0.2,2.5-5,1.9-6.1,1.2c-0.7-0.4-1.3-0.9-2.1-1C170.4,41.5,169.8,41.6,169.2,41.7
		z"/>
	<path class="st16" d="M186.7,43.1c-0.2,0.2-0.4,0.3-0.6,0.5c-0.1,0.1-0.1,0.1-0.2,0.1c-0.4,0.3-0.8,0.5-1.3,0.8
		c-0.4,0.2-0.8,0.4-1.2,0.6c-3.5,1.6-8.2,2.6-13.5,2.6c-2.5,0-5.6-0.2-8.5-0.8c-0.9-0.2-1.7-0.4-2.5-0.7c-0.7-0.2-1.5-0.5-2.2-0.8
		c0.6,0,1.1-0.1,1.5-0.5c0.7-0.7,0.5-2.1,1.3-2.6c0.6-0.4,1.5-0.1,2.1,0.4c0.5,0.5,0.9,1.2,1.4,1.8c1.4,1.6,3.7,2,5.8,1.8
		c1.5-0.2,2.9-0.7,4.3-1.1c0.6-0.2,1.3-0.5,1.6-1.1c0.2-0.5,0.1-1.1,0.3-1.6c0.4-0.7,1.4-0.6,2.1-0.2c0.7,0.4,1.2,1,2,1.2
		c0.7,0.2,1.8-0.2,1.7-0.9c0-0.3-0.2-0.6-0.1-0.9c0.1-0.5,0.6-0.7,1.1-0.6c0.5,0.1,0.9,0.4,1.3,0.5c0.9,0.3,2,0,3-0.1
		c0.1,0.1,0.1,0.2,0.2,0.3c0.1,0.2,0.2,0.5,0.3,0.7c0.1,0.2,0.1,0.3,0.1,0.5C186.7,42.9,186.7,43,186.7,43.1z"/>
	<path class="st19" d="M186.6,42.7c-1.1,0.8-2.3,1.3-3.5,1.7c-2.6,0.9-5.2,1.9-7.9,2.3c-2.6,0.5-5.2,0.5-7.9,0.5
		c-2.2,0-4.4-0.1-6.5-0.5c-0.1,0-0.3-0.1-0.4-0.1c0.4,0.1,0.7,0.2,1.1,0.2c2.9,0.6,6,0.8,8.5,0.8c5.2,0,10-1,13.5-2.6
		c0.4-0.2,0.8-0.4,1.2-0.6c0.4-0.2,0.9-0.5,1.3-0.8c0.1,0,0.1-0.1,0.2-0.1c0.2-0.2,0.4-0.3,0.6-0.5c0-0.1,0-0.1,0-0.2
		C186.7,42.8,186.7,42.7,186.6,42.7z"/>
	<path class="st9" d="M154,44.2c-1.2-0.6-2.3-1.3-2.8-2.6c-0.5-1.3-0.4-2.9,0.3-4.2c0-0.1-0.1-0.1-0.1-0.1c-1,1.3-1.2,2.9-0.6,4.4
		c0.5,1.3,1.7,2.5,3.1,2.7C154,44.5,154.1,44.3,154,44.2z"/>
	<path class="st9" d="M186.6,35.9c-0.1,0-0.1,0.1-0.1,0.1c1.1,0.6,2,1.6,2.3,2.8c0.3,1.3,0,2.7-0.8,3.7c-0.1,0.1,0.1,0.2,0.2,0.1
		C190.4,40.6,189.6,36.6,186.6,35.9z"/>
	<path class="st20" d="M186.3,43.2C186.4,43.3,186.4,43.3,186.3,43.2c0.4,0,0.5-0.5,0.5-0.8c0-0.2-0.1-0.4-0.2-0.6
		c-0.6-1.2-1.4-2.7-2.6-3.4c-2.1-1.3-4.4-1.5-6.8-1.8c-4.3-0.5-8.9-2.2-13.2-0.9c-2.9,0.8-5.2,2.9-8.2,3.3c-1.5,0.2-3.4,0.7-3.2,2.6
		c0.1,0.8,0.6,1.5,1.3,1.7c-0.6-0.2-0.4-2.8,0-3.2c0.5-0.4,1.4-0.4,2-0.5c0.8-0.1,1.6-0.3,2.4-0.6c2.4-1,4.3-2.6,6.9-3.1
		c1.2-0.2,2.4-0.3,3.6-0.3c1,0,2,0.5,3,0.8c1.5,0.4,3.1,0.6,4.7,0.7c2.1,0.2,5,0.3,6.8,1.5c0.6,0.4,1.2,1.2,1.6,1.8
		c0.5,0.7,0.8,1.4,1.2,2.2C186,42.7,186.1,43.2,186.3,43.2z"/>
</g>
<g>
	<path class="st21" d="M189.2,39.3c-0.2,1.2-0.9,2.2-1.9,3.2c-0.2,0.2-0.4,0.4-0.6,0.5c-0.6,0.5-1.3,1-2.1,1.4
		c-0.8,0.5-1.8,0.9-2.8,1.2c-0.3-1.4-0.6-3.4-2.1-4c-0.8-0.3-1.6-0.3-2.4-0.4c-0.8-0.2-1.6-0.6-1.8-1.4c-0.1-0.4-0.1-0.9-0.1-1.3
		c0-4.4-6-6.2-9.3-6.9c1.3-0.1,2.6-0.2,3.9-0.2C180.3,31.6,188.1,35,189.2,39.3z"/>
</g>
<g>
	<defs>
		<path id="SVGID_1_" d="M168.9,41C169,41,169,41,168.9,41c1-0.1,1.7,0.3,2.4,0.9c0.9,0.8,0.6,2.2,2.1,2.3c0.9,0,1.9,0.2,2.7-0.3
			c0.7-0.5,0.9-1.3,1.8-1.6c0.6-0.2,1.3-0.1,1.8-0.6c0.7-0.7,0.6-2.1,0.9-3c1.2-4,4.3-7.4,6.9-11.1c2.7-3.9,6.7-6.6,9.1-10.6
			c1.8-3.1,3-6.5,3.3-10.1c0.1-1.3,0.6-4-0.1-5.1c-0.7-1.1-2.4-1.5-3.6-1.7c-1.6-0.2-2.3,0.5-3.7,1.2c-3.2,1.7-6.2,3.9-8.8,6.5
			c-2.6,2.6-4.7,5.6-6.9,8.6c-2.7,3.8-5.4,7.5-8.1,11.3c-1.2,1.6-2.4,3.2-3.6,4.7c-1.1,1.4-1.5,3.8-1.9,5.5c-0.2,1-0.4,2.1,0,3.1
			C164.3,44,167,41.1,168.9,41z"/>
	</defs>
	<clipPath id="SVGID_2_">
		<use xlink:href="#SVGID_1_"  style="overflow:visible;"/>
	</clipPath>
	<g class="st22">
		<g>
			<g>
				<path class="st23" d="M197.2,6.6c-1.2,1.6-12.5,13.6-16.8,18.8c0,0-0.1,0.1-0.1,0.1c-0.5,0.6-0.9,1.1-1.2,1.5c0,0,0,0,0,0.1
					c-0.8,1.1-1.3,2.2-1.7,3.3c-0.2,0.5-0.3,0.9-0.4,1.3c-0.1,0.5-0.2,1-0.3,1.4c0,0.1,0,0.1,0,0.2c0,0.2,0,0.4,0,0.6
					c0,0.5,0,0.9,0.1,1.2c0,0.2,0,0.3,0.1,0.4c0,0.1,0,0.2,0.1,0.2c0.1,0.1,0.1,0.3,0.2,0.5c0,0.1,0,0.1,0.1,0.2
					c0.1,0.3,0.1,0.6,0.2,1c0,0.2,0,0.3,0,0.5c0,0.1,0,0.1,0,0.2c0,0.1,0,0.2,0,0.3c0,0.1,0,0.2,0,0.3c0,0.1,0,0.2,0,0.3
					c0,0.1,0,0.2,0,0.2c0,0,0,0,0,0.1c0,0.1,0,0.2-0.1,0.3c-0.2,0.8-0.5,1.7-1.1,2.7c-0.1,0.1-0.1,0.2-0.2,0.4
					c-0.6,1-1.3,2.1-2.4,3.2c-2.1,2.4-4.3,3.6-6.3,4.2c0,0-0.1,0-0.1,0c-1.6,0.4-3.1,0.4-3.9,0.1c-0.2-0.1-0.3-0.1-0.4-0.2
					c-0.2-0.1-0.4-0.3-0.4-0.4c-0.3-0.7-0.1-2.1,1.8-4.8c0.1-0.2,0.2-0.3,0.4-0.5c0.6-0.9,1.4-1.9,2.5-3.1c1.8-2.1,3.1-3.3,4.2-4
					c1.3-0.9,2.2-1.2,2.8-1.5c0.3-0.2,0.6-0.4,0.8-0.7c0.1-0.1,0.2-0.3,0.3-0.5c0-0.3,0-0.5,0.1-0.8c0-0.1,0-0.3,0.1-0.4
					c0-0.1,0-0.2,0-0.3c0,0,0-0.1,0-0.1c0.1-0.4,0.2-0.8,0.3-1.3c0-0.2,0.1-0.3,0.1-0.5s0.1-0.3,0.1-0.5c0-0.1,0.1-0.2,0.1-0.3
					c0-0.1,0.1-0.3,0.1-0.4c0.1-0.1,0.1-0.3,0.1-0.4c0.1-0.2,0.1-0.3,0.2-0.5c0,0,0-0.1,0-0.1c0-0.1,0.1-0.2,0.1-0.3
					c0.1-0.2,0.2-0.4,0.2-0.6c0-0.1,0.1-0.2,0.1-0.3c0.1-0.3,0.3-0.6,0.4-0.9c0.3-0.6,0.6-1.1,0.9-1.7c0.1-0.1,0.2-0.2,0.3-0.3
					c0-0.1,0.1-0.1,0.2-0.2c0.3-0.4,0.7-0.9,1.1-1.4C183.5,18,192.2,6.5,193.1,5C196.9-1.4,200.4,2.1,197.2,6.6z"/>
				<path class="st24" d="M180.3,25.5c-0.5,0.6-0.9,1.1-1.2,1.5c0,0,0,0.1-0.1,0.1c-0.8,1.1-1.4,2.3-1.7,3.3
					c-0.2,0.5-0.3,0.9-0.4,1.3c-0.1,0.5-0.2,1-0.3,1.4c0,0.1,0,0.1,0,0.2c0,0.2,0,0.4,0,0.6c0,0.5,0,0.9,0.1,1.2
					c0,0.2,0,0.3,0.1,0.4c0,0.1,0,0.2,0.1,0.2c0.1,0.1,0.1,0.3,0.2,0.5c0,0.1,0,0.1,0.1,0.2c0.1,0.3,0.1,0.6,0.2,1
					c0,0.2,0,0.3,0,0.5c0,0.1,0,0.1,0,0.2c0,0.1,0,0.2,0,0.3c0,0.1,0,0.2,0,0.3c0,0.1,0,0.2,0,0.3c0,0.1,0,0.2,0,0.2c0,0,0,0,0,0.1
					c0,0.1,0,0.2-0.1,0.3c-0.3,0.9-0.6,1.8-1.1,2.7c-0.1,0.1-0.1,0.2-0.2,0.4c-0.4,0.6-0.9,1.1-1.4,1.6c-0.7-1.1-1.7-2.4-3-2.6
					c-0.8-0.1-1.5,0.3-2.1,0.6c-0.5,0.3-0.9,0.6-1.4,0.9c-1.7,1.2-3.2,2.7-4.4,4.4c-0.4,0.6-0.8,1.2-1.2,1.8c0,0-0.1,0.1-0.1,0.1
					c-0.3-0.7-0.1-2.1,1.9-4.9c0.1-0.2,0.2-0.3,0.4-0.5c0.6-0.9,1.4-1.8,2.4-3c1.3-1.5,2.8-2.6,4.2-4c0,0,0,0,0.1-0.1
					c1.3-0.9,2.2-1.2,2.9-1.6c0.3-0.2,0.6-0.4,0.9-0.8c0.1-0.1,0.1-0.2,0.2-0.4c0-0.3,0-0.5,0.1-0.8c0-0.1,0-0.3,0.1-0.4
					c0-0.1,0-0.2,0.1-0.4c0.1-0.4,0.2-0.8,0.3-1.3c0-0.2,0.1-0.3,0.1-0.5c0-0.2,0.1-0.3,0.1-0.5c0-0.1,0.1-0.2,0.1-0.3
					c0-0.1,0.1-0.3,0.1-0.4c0.1-0.1,0.1-0.3,0.1-0.4c0.1-0.2,0.1-0.3,0.2-0.5c0,0,0-0.1,0-0.1c0-0.1,0.1-0.2,0.1-0.3
					c0.1-0.2,0.2-0.4,0.2-0.6c0-0.1,0.1-0.2,0.1-0.3c0.1-0.3,0.3-0.6,0.4-0.9c0.3-0.6,0.6-1.2,1-1.8c0.1-0.1,0.1-0.1,0.2-0.2
					c0-0.1,0.1-0.1,0.2-0.2c0.3,0.5,1,0.8,1.6,0.8C180.1,25.5,180.2,25.5,180.3,25.5C180.3,25.5,180.3,25.5,180.3,25.5z"/>
				<path class="st25" d="M176.6,33.4c0,0.2,0,0.4,0,0.6c0,0.5,0,0.9,0.1,1.2c0,0.2,0,0.3,0.1,0.4c0,0.1,0,0.2,0.1,0.2
					c0.1,0.1,0.1,0.3,0.2,0.5c0,0.1,0,0.1,0.1,0.2c0.1,0.3,0.1,0.6,0.2,1c-2.4,0.6-4.6,1.4-6.5,2.8c-1.1,0.8-2.1,1.8-2.8,2.9
					c-0.4,0.6-0.7,1.2-0.9,1.8c-0.3,0.9-0.5,1.9-0.5,2.9c0,0.5,0.4,1.4,0.6,2.1c0,0,0,0.1,0,0.1c-1.7,0.5-3.1,0.4-4,0.1
					c-0.2-0.1-0.3-0.1-0.5-0.2c-0.2-0.1-0.4-0.3-0.4-0.4c-0.3-0.7-0.1-2.1,1.9-4.9c0.1-0.2,0.2-0.3,0.4-0.5c0.6-0.9,1.4-1.8,2.4-3
					c1.8-2.1,3.1-3.3,4.2-4c1.3-0.9,2.2-1.2,2.9-1.6c0.3-0.2,0.6-0.4,0.9-0.8c0.1-0.1,0.1-0.2,0.2-0.4c0-0.3,0-0.5,0.1-0.8
					c0-0.1,0-0.3,0.1-0.4c0-0.1,0-0.2,0.1-0.4c0,0,0.1,0,0.1,0C175.7,33,176.2,33.2,176.6,33.4z"/>
				<path class="st26" d="M173.1,43.5c2.2-3.1,3.2-5.7,3.6-7.8c0,0.1,0,0.2,0.1,0.2c0.5,1.2,1.4,4.4-3.4,10c-4.2,4.8-9.2,5-10.7,4.1
					C164.7,50.1,168.9,49.5,173.1,43.5z"/>
				<path class="st27" d="M162.1,49.5c0,0,3.2,1.5,7.2-2.3c4-3.8,6.9-7.4,6.9-12.5c0.5,2.5,0.6,4.5-3,9.2
					C169.5,48.8,164.5,51,162.1,49.5z"/>
				<path class="st27" d="M197.1,6.7c-1.2,1.9-15.5,16.8-18.1,20.4c-2.2,3.2-2.6,6.5-2.4,8.1c0,0-0.8-2.8,0.7-6.3
					c1.5-3.5,19.3-21.6,20.4-24.2C199.3,1.2,197.8,5.6,197.1,6.7z"/>
				<path class="st27" d="M197.7,2.1c-0.3-0.1-1.9,0.3-2.3,1c-1.1,1.5-2.1,3.2-3.3,4.7c-2.1,2.7-4.2,5.4-6.3,8.2
					c-1.5,1.9-2.8,3.9-4.1,5.9c0.7-0.6,1.6-1.6,2.7-2.8C193,9.4,198.7,3.5,197.7,2.1z"/>
				<path class="st9" d="M175.1,40.5c-1.9,3-4.2,6.1-7.3,8c0,0,0,0.1,0,0.1c1.7-0.8,2.9-2,4.1-3.3c1.2-1.4,2.7-2.9,3.3-4.7
					C175.4,40.5,175.2,40.4,175.1,40.5z"/>
				<path class="st9" d="M186.7,18.1c-4.2,3.5-8,7.6-9.8,12.8c0,0,0.1,0.1,0.1,0C178.8,25.6,183,22,186.7,18.1
					C186.7,18.1,186.7,18.1,186.7,18.1z"/>
				<path class="st9" d="M195.2,2.8c-1.9,2-3.4,4.5-5,6.7c0,0,0.1,0.1,0.1,0.1C192,7.4,193.9,5.2,195.2,2.8
					C195.2,2.8,195.2,2.7,195.2,2.8z"/>
			</g>
		</g>
		<path class="st28" d="M173.9,35.5c0,0,0,0.1,0,0.1c-0.9,1.3-2.5,2.1-3.7,3.1c-1.3,1.1-2.4,2.3-3.4,3.5c-1,1.2-1.9,2.5-2.7,3.9
			c-0.2,0.4-0.5,0.9-0.6,1.4c-0.1,0.2-0.1,0.3-0.2,0.5c-0.2,0.7-0.1,1.3-0.2,1.9c0,0.1,0,0.1,0,0.2c-0.2-0.1-0.3-0.1-0.5-0.2
			c-0.2-0.1-0.4-0.3-0.4-0.4c-0.3-0.7-0.1-2.1,1.9-4.9c0.1-0.2,0.2-0.3,0.4-0.5c0.6-0.9,1.4-1.9,2.5-3.1c1.8-2.1,3.1-3.3,4.2-4
			C172.4,36.1,173.2,35.9,173.9,35.5z"/>
		<path class="st28" d="M169.5,42.9c-1.2,0.4-1.9,1.8-2.8,2.6c-0.8,0.7-2.2,1.3-2.6,2.3c0,0.1,0.1,0.3,0.2,0.4c1.4,0.6,3-0.5,4-1.2
			c1-0.8,2.4-2.1,2.1-3.6C170.3,43,169.8,42.8,169.5,42.9z"/>
	</g>
</g>
<path class="st20" d="M168.8,41c-0.5,0.1-0.9,0.3-1.4,0.4c0.8-0.2,1.6-0.2,2.4,0c0.8,0.2,1.2,0.6,1.7,1.3c0.1,0.3,0.3,0.5,0.4,0.8
	c0.1,0.2,0.1,0.4,0.3,0.6c0.1,0,0.1,0.1,0.2,0c0.6,0.4,1.6,0.8,2.2,0.4c0,0,0.1-0.1,0.1-0.1c0.4-0.2,1.1-0.5,1.4-0.9
	c0,0,0.1,0,0.1,0c0.4,0,0.8,0,1.2-0.1c0,0,0,0,0,0.1c0,0,0,0,0,0.1c0.4,0.4,1,0.2,1.5,0.1c0.9-0.1,1.7-0.4,2.5-0.6
	c0.8-0.2,1.5-0.5,2.3-0.8c0.7-0.3,1.4-0.5,1.8-1.2c0.1-0.2,0-0.5-0.2-0.5c-0.1,0-0.2,0-0.4,0c0,0,0,0,0-0.1c0-0.3-0.1-0.4-0.2-0.6
	c-0.2-0.2-0.5-0.3-0.8-0.2c-1.4,0.5-2.8,1.1-4.2,1.6c-1.2,0.5-2.7,0.9-3.6,1.8c0,0-0.1,0.1-0.1,0.1c-0.1,0.1-0.3,0.2-0.4,0.4
	c-0.5,0.3-1.1,0.3-1.6,0.5c-0.3,0.1-0.9,0.3-1.1,0c-0.2-0.3,0.1-0.9,0-1.2c-0.3-0.7-1.3-1.5-2-1.8c-1.7-0.7-3.7,0.5-5.2,1.2
	c0.6-0.3,1.4-0.3,1.9-0.7L168.8,41z"/>
<g>
	<path class="st29" d="M201.6,78.3c-0.6,0.6-1.3,1.1-1.9,1.4c-4.5,2.9-8.3,4.3-14,3.6c-2.3-0.3-3.6-1.4-5.7-2.2
		c-4.9-1.8-10.5-1-15.5-2.3c-2.1-0.5-5.2-1.3-6.4-3.2c-2.1-3.5,2.5-7.4,5.8-8.3c3.2-0.9,6.2,0.4,9.4-0.8c4.6-1.8,9.4-0.5,14,0.5
		c2,0.4,4.2,0.4,5.9,1.5c1.8,1.1,3.2,1.9,5.2,2.5c2,0.6,4.8,1.2,5.1,3.6C203.7,76.1,202.7,77.3,201.6,78.3z"/>
	<path class="st15" d="M202.2,78c-0.6,0.6-1.3,1.1-1.9,1.4c-4.5,2.9-8.3,4.3-14,3.6c-2.3-0.3-3.6-1.4-5.7-2.2
		c-4.9-1.8-10.5-1-15.5-2.3c-2.1-0.5-5.2-1.3-6.4-3.2c-2.1-3.5,2.5-7.4,5.8-8.3c3.2-0.9,6.2,0.4,9.4-0.8c4.6-1.8,9.4-0.5,14,0.5
		c2,0.4,4.2,0.4,5.9,1.5c1.8,1.1,3.2,1.9,5.2,2.5c2,0.6,4.8,1.2,5.1,3.6C204.2,75.8,203.3,77,202.2,78z"/>
	<path class="st17" d="M174.9,77.4c2.6,0.2,5.2,0.9,6.7,2.7c-4.5,0.1-8.9-1.9-13.5-1.9c-1.8,0-3.8,0-5.5-0.6
		c-1.5-0.5-4.4-2.6-2.7-4.4c2-2,2.5,2,3.3,2.8c2.3,2.3,7.5,1.4,10.4,1.4C174,77.4,174.5,77.4,174.9,77.4z"/>
	<path class="st17" d="M182.8,71.7c2.7,0.4,5.4-0.2,8.2,0c2.7,0.1,5.7,1.3,6.6,3.8c0.5-2.3-1.2-4.9-3.6-5.5c-1.4-0.3-2.9,0-4.4-0.2
		c-2.4-0.4-4.1-2.1-6.3-2.7c-2.4-0.7-5.3-0.5-7.7-0.1c-0.3,0.1-0.7,0.1-0.8,0.4c-0.1,0.3,0.2,0.7,0.6,0.8c0.4,0.1,0.8,0,1.1-0.1
		C180.4,67.4,179.6,71.2,182.8,71.7z"/>
	<path class="st17" d="M166.5,69.3c-0.3-0.1-0.6-0.2-0.8-0.1c-1.3,0.4-0.3,2.1,0.3,2.6c1,0.9,2.1,1,3.5,0.7c1.2-0.3,2.6-0.2,3.7-0.9
		c-2.2-0.8-4.3-1.6-6.5-2.3C166.7,69.3,166.6,69.3,166.5,69.3z"/>
	<path class="st17" d="M199.7,76c0.2-0.3,0.4-0.6,0.6-0.9c-0.4,0.8,0.1,1.9-0.7,3c-0.8,1-2.1,1.6-3.3,2.1c-1.8,0.7-3.5,1.4-5.4,1.5
		c-0.9,0.1-2.6,0.2-3.4-0.4c-1.5-1.2,0.2-1.8,1.7-1.9c0.9,0,1.8,0.1,2.7,0.2C194.9,79.8,198,78.3,199.7,76z"/>
	<path class="st20" d="M196.5,81.1c-1.4,0.4-2.6,0.9-4,1.3c-1.4,0.3-2.9,0.4-4.4,0.4c-1.4-0.1-2.8-0.4-4.2-0.8
		c-1.1-0.3-2.2-0.8-3.3-1.1c-1.7-1-3.9-1.4-5.8-1.7c-2.4-0.3-4.8-0.4-7.2-0.6c-2.3-0.2-4.8-0.6-6.9-1.7c-2.4-1.2-3.3-3.8-1.9-6.2
		c-1,1.8-2.1,3-0.9,5c0.9,1.5,2.5,2.3,4.2,2.8c1.9,0.6,4,0.7,6,0.8c2.1,0.1,4.2,0.2,6.3,0.5c1.1,0.1,2.3,0.4,3.3,0.7
		c0.7,0.2,1.4,0.5,2.1,0.7c1,0.8,2.4,1.3,3.6,1.6c1.4,0.4,2.9,0.5,4.4,0.5c1.5,0,3-0.1,4.4-0.4c1.5-0.3,3-0.7,4.2-1.5
		C196.8,81.3,196.7,81,196.5,81.1z"/>
	<path class="st16" d="M180,76.5c-0.5,0.1-1.1,0.1-1.6,0c-1.5-0.3-2.1-1.8-3.6-2c-2-0.3-4.2,0-6.2,0.1c-0.9,0-1.9,0-2.8-0.2
		c-0.9-0.3-1.7-0.9-1.9-1.8c-2.1,0.9,0.1,3.3,1.3,3.8c1.4,0.6,3.2,0.8,4.7,0.8c2.7,0,6.1-1.1,8.6,0.2c1.7,0.9,3.9,1.4,5.8,1.8
		c2,0.4,2.1-1.9,3.4-2.7c-0.9,0.6-2,0.6-3,0.2c-0.4-0.2-0.7-0.7-1-0.9c-0.6-0.3-1.3,0-1.8,0.3C181.3,76.2,180.7,76.4,180,76.5z"/>
	<path class="st16" d="M200.3,75.2c0-0.2-0.3-0.3-0.5-0.2c-1.5,1.3-1.9,2.5-4.2,2.2c-1.7-0.2-3.2-1.1-5-1.1
		c-2.4,0.1-3.2,1.8-4.7,3.2c-0.2,0.1-0.3,0.3-0.3,0.5c0.1,0.2,0.2,0.2,0.4,0.3c1.8,0.5,3.8-0.5,5.6-0.6
		C194.8,79.3,199.9,79.2,200.3,75.2z"/>
	<path class="st30" d="M189.9,71.5c-1.4-0.2-2.9-0.1-4.3-0.1c-1.4,0-2.9,0.1-4.1-0.8c-1.5-1.2-3.4-3.7-5.6-2.4
		c-0.1,0.1,0,0.3,0.1,0.2c1.4-0.3,2.4,0.8,3.2,1.6c0.8,0.9,1.6,1.5,2.8,1.8c1.2,0.2,2.5,0.1,3.7,0.1c1.4,0,2.8,0.1,4.1-0.1
		C190,71.8,190,71.6,189.9,71.5z"/>
	<path class="st30" d="M199.3,72.1c-0.4-0.9-1.6-1.1-2.5-1.2c-0.7-0.1-1.4-0.3-1.9-0.8c-0.4-0.4-0.8-0.9-1.2-1.4
		c-0.9-0.7-1.8-0.9-2.9-1.1c-1.2-0.2-2.3-0.2-3.5-0.1c0,0,0,0.1,0,0.1c1.1,0.1,2.3,0,3.3,0.3c1.1,0.2,2.1,0.9,2.9,1.7
		c0.7,0.7,1.5,1.3,2.6,1.5c1.2,0.3,2.2,0.3,3.2,1.2C199.2,72.3,199.3,72.2,199.3,72.1z"/>
	<path class="st17" d="M178.1,75.4c-1.2-0.3-4.1-0.7-4.8,0.2c0.7-0.8,1.9-1.3,3-1.4c2.4-0.3,4.5,0.9,6.8,0.8c2,0,3.7-1.5,5.6-2.1
		c2.2-0.7,4.9,0,6.5,1.6c-0.9,0.9-2.5,0.6-3.8,0.2s-2.8-0.8-3.8,0.1c-0.8,0.7-0.8,2-1.6,2.6c-0.7,0.5-1.8,0.4-2.6,0
		c-1.6-0.7-3.3-1.5-5.1-1.9C178.3,75.4,178.2,75.4,178.1,75.4z"/>
	<path class="st17" d="M171.2,68.1c-0.9-0.6-2.2-0.7-3.3-0.8c-1.2,0-2.4,0.2-3.5,0.5c-2.1,0.7-4.2,2.1-5.3,3.9
		c-0.1,0.1,0.1,0.2,0.2,0.1c1.6-1.4,3.4-2.5,5.5-3.1c1-0.3,2.1-0.4,3.1-0.5c1.1,0,2.1,0.2,3.2,0.1C171.3,68.5,171.3,68.2,171.2,68.1
		z"/>
	<path class="st18" d="M184.3,67.4c-1.1-0.4-2.3-0.5-3.5-0.4c-0.2,0-0.2,0.2,0,0.2c1.1,0,2.2,0.2,3.2,0.7c0.4,0.2,0.9,0.4,1.2,0.7
		c0.4,0.3,0.7,0.6,1.2,0.7c0.1,0,0.2,0,0.2-0.2C186.5,68.2,185.1,67.7,184.3,67.4z"/>
	<path class="st18" d="M195.1,71.6c-1-0.8-2.3-1.3-3.5-1.6c-1.3-0.4-2.7-0.7-4-0.7c-0.2,0-0.2,0.2,0,0.3c1.3,0.3,2.6,0.5,3.8,0.9
		c1.2,0.4,2.4,1,3.6,1.3C195.1,71.8,195.2,71.7,195.1,71.6z"/>
	<path class="st18" d="M199.2,78.2c-0.9,0.3-1.7,0.9-2.6,1.3c-1,0.4-2.1,0.8-3.2,1c-2.1,0.5-4.4,0.6-6.6,0.2c-0.2,0-0.3,0.3-0.1,0.3
		c2.2,0.5,4.4,0.5,6.6,0.1c1.1-0.2,2.1-0.5,3.2-0.9c1-0.4,2.1-0.9,2.9-1.7C199.4,78.3,199.3,78.1,199.2,78.2z"/>
	<path class="st18" d="M172.4,68.4c-0.3-0.3-0.8-0.3-1.3-0.2c-0.6,0.1-1.2,0.3-1.9,0.2c-1.2-0.1-2.3,0-3.5,0.2c-0.1,0-0.1,0.2,0,0.2
		c1.2,0,2.3-0.1,3.5-0.2c0.7-0.1,1.3,0.1,2,0.3c0.4,0.1,0.8,0.1,1.2-0.2C172.5,68.7,172.5,68.5,172.4,68.4z"/>
	<path class="st18" d="M173.2,73c-0.3-0.1-0.7-0.1-1-0.1c-0.4,0-0.8,0-1.2,0c-0.3,0-0.4,0.4-0.2,0.6c0.6,0.3,1.8,0.6,2.4-0.1
		C173.4,73.3,173.4,73,173.2,73z"/>
	<path class="st18" d="M189.4,74.4c-0.4-0.3-1-0.2-1.5-0.3c-0.6,0-1.2-0.1-1.8-0.1c-1.2,0-2.5,0-3.7,0.1c-0.1,0-0.1,0.1,0,0.1
		c1.2,0,2.4,0,3.6,0.1c0.6,0,1.2,0.1,1.9,0.2c0.5,0.1,1,0.2,1.5,0.1C189.5,74.6,189.5,74.5,189.4,74.4z"/>
	<path class="st18" d="M202,73.5c-0.1-0.1-0.3,0-0.2,0.1c0.5,1.1,0.1,2.3-0.7,3.2c-0.1,0.1,0,0.2,0.1,0.1
		C202.3,76.1,202.5,74.7,202,73.5z"/>
	<path class="st18" d="M164.4,77.9c-1.8-0.5-3.7-1.1-5-2.5c-0.1-0.1-0.3,0.1-0.2,0.2c1.2,1.5,3.1,2.7,5.2,2.5
		C164.5,78.1,164.5,77.9,164.4,77.9z"/>
	<path class="st18" d="M169.1,78.3c-0.2-0.1-0.4-0.1-0.6-0.2c-0.3-0.1-0.4,0.3-0.1,0.4c0.2,0,0.4,0.1,0.6,0.1
		C169.2,78.7,169.3,78.4,169.1,78.3z"/>
</g>
</svg>
