<svg xmlns="http://www.w3.org/2000/svg" viewBox="0 0 36 45" x="0px" y="0px"><title>Монтажная область 37</title><path d="M33.19,5.24a9.53,9.53,0,0,0-6.78-2.81h0a9.51,9.51,0,0,0-6.77,2.81L18,6.87,16.37,5.24A9.51,9.51,0,0,0,9.6,2.43h0A9.59,9.59,0,0,0,2.81,18.8L17.29,33.28a1,1,0,0,0,1.42,0L33.19,18.8a9.58,9.58,0,0,0,0-13.56ZM31.78,17.38,18,31.16,4.22,17.38A7.59,7.59,0,0,1,9.59,4.43h0A7.52,7.52,0,0,1,15,6.65L17.29,9a1,1,0,0,0,1.42,0l2.34-2.34A7.52,7.52,0,0,1,26.4,4.43h0a7.59,7.59,0,0,1,5.37,13Z"/><path d="M23,17H19V13a1,1,0,0,0-2,0v4H13a1,1,0,0,0,0,2h4v4a1,1,0,0,0,2,0V19h4a1,1,0,0,0,0-2Z"/><text x="0" y="51" fill="#000000" font-size="5px" font-weight="bold" font-family="'Helvetica Neue', Helvetica, Arial-Unicode, Arial, Sans-serif">Created by Vadim Solomakhin</text><text x="0" y="56" fill="#000000" font-size="5px" font-weight="bold" font-family="'Helvetica Neue', Helvetica, Arial-Unicode, Arial, Sans-serif">from the Noun Project</text></svg>