<?xml version="1.0" encoding="utf-8"?>
<!-- Generator: Adobe Illustrator 25.0.0, SVG Export Plug-In . SVG Version: 6.00 Build 0)  -->
<svg version="1.1"
	 id="svg2" inkscape:version="0.48+devel r9935" sodipodi:docname="Documento nuevo 1" xmlns:cc="http://creativecommons.org/ns#" xmlns:dc="http://purl.org/dc/elements/1.1/" xmlns:inkscape="http://www.inkscape.org/namespaces/inkscape" xmlns:ns1="http://sozi.baierouge.fr" xmlns:rdf="http://www.w3.org/1999/02/22-rdf-syntax-ns#" xmlns:sodipodi="http://sodipodi.sourceforge.net/DTD/sodipodi-0.dtd" xmlns:svg="http://www.w3.org/2000/svg"
	 xmlns="http://www.w3.org/2000/svg" xmlns:xlink="http://www.w3.org/1999/xlink" x="0px" y="0px" viewBox="0 0 57 86.9"
	 style="enable-background:new 0 0 57 86.9;" xml:space="preserve">
<style type="text/css">
	.st0{fill:#9E4B13;}
	.st1{fill:#BC5D1D;}
	.st2{fill:#612D0A;}
	.st3{fill:#7D3A0D;}
</style>
<sodipodi:namedview  bordercolor="#666666" borderopacity="1.0" id="base" inkscape:current-layer="layer1" inkscape:cx="273.52498" inkscape:cy="614.84559" inkscape:document-units="px" inkscape:pageopacity="0.0" inkscape:pageshadow="2" inkscape:window-height="787" inkscape:window-maximized="0" inkscape:window-width="1440" inkscape:window-x="0" inkscape:window-y="0" inkscape:zoom="0.42014768" pagecolor="#ffffff" showgrid="false">
	</sodipodi:namedview>
<g>
	<path class="st0" d="M55.5,27.5c-0.5,12.2-10.9,20.8-18.2,22.9c-7.3,2.1-27.6,0-31-11.7c-0.1-0.4-0.2-0.7-0.3-1.1
		C3,26,4.4,12.7,12.2,6.4c10.9-8.8,23.2-7,30.2-3.4c3.6,1.8,7,5,9.4,9.2C54.3,16.3,55.7,21.4,55.5,27.5z"/>
	<path class="st1" d="M53.2,22.5C52.7,34.7,42.3,43.3,35,45.4c-6.4,1.8-22.9,0.4-29.1-7.9c-0.1-0.2-0.1-0.5-0.2-0.7v0
		c-0.2-0.8-0.4-1.7-0.5-2.5c-0.5-2.5-0.7-5.1-0.7-7.6c0-0.7,0-1.4,0-2.1c0.3-6.3,2.1-12.2,5.7-16.3c0.6-0.6,1.2-1.2,1.8-1.8
		c0.1,0,0.1-0.1,0.2-0.1c3.5-2.8,7.1-4.5,10.7-5.5c1-0.3,2-0.5,2.9-0.6C32.3-0.7,38.3,0.8,42.4,3c3.6,1.8,7,5,9.4,9.2
		C52.9,15.2,53.4,18.7,53.2,22.5z"/>
	<path class="st0" d="M12.4,36.1c0.8-0.6,0.9-1.7,1.6-1.9c0.7-0.2,1.6-0.3,2.3,0.1c0.7,0.3,1.8,1,1.7,1.6c-0.1,0.6,0.1,2.3-0.3,2.8
		c-0.4,0.5-0.9,1.7-1.8,1.6c-0.9-0.1-2.5-0.4-3.1-0.5C12.2,39.7,11.6,36.8,12.4,36.1z"/>
	<path class="st0" d="M12,16.8c0.9-0.1,1.3,0.9,1.9,1.1c0.6,0.2,1.1,0.9,0.9,1.5c-0.2,0.6-1.1,1.9-1.6,2.4c-0.4,0.6-1.6,1-2.2,0.6
		s-2.3-1.3-2.1-2.2c0.1-0.9,0.8-1.8,1.3-2.3C10.8,17.4,11.6,16.9,12,16.8z"/>
	<path class="st0" d="M24.2,8.5c-0.1,0.6-0.6,1.4-1,2c-0.4,0.6-2.1,0.9-3.3,1C19,11.5,19,10.6,19,9.7c1.4-1.2,3.1-2.2,4.8-3
		C24,7.3,24.2,8.1,24.2,8.5z"/>
	<path class="st0" d="M28.3,14.1c-0.3,0.9-1.2,1.8-0.9,2.4c0.3,0.6,1.3,0.9,1.9,1.2c0.6,0.3,1.8,0.8,2.3-0.2c0.6-0.9,0.5-1.7,1-2.3
		c0.5-0.6,0.3-1.6-0.6-1.9c-0.9-0.3-2.1-0.8-2.7-0.4C28.8,13.1,28.5,13.5,28.3,14.1z"/>
	<path class="st0" d="M34.6,24.8c0.9,0,2,0.1,2.5,0.4c0.5,0.3,1.4,1.1,1.4,1.9c-0.1,0.8,0,1.8-0.4,2.5c-0.4,0.7-1,1.3-2,1.1
		c-1-0.3-3.3-0.1-3.4-1c-0.2-0.9-0.1-1.7,0.1-2.7C33,26,33.4,24.9,34.6,24.8z"/>
	<path class="st0" d="M39.7,8.6c-0.1,1-1.1,1.6-0.8,2.3c0.3,0.7,1.6,1.3,2,1.6c0.4,0.3,1.6,0.6,2.1,0.1c0.4-0.6,0.7-1.6,0.9-1.9
		c0.2-0.4,0.8-1.4,0.1-1.9c-0.7-0.6-1.5-0.8-2.4-0.9C40.5,7.7,39.8,7.7,39.7,8.6z"/>
	<path class="st0" d="M45,25.8c-0.3,0.5-0.3,1.4-0.4,2.3c-0.1,0.9-0.4,2.1,0.9,2.1c1.3,0,1.3-0.3,2.1-0.1c0.8,0.1,1.5-0.3,1.3-1.5
		s-0.4-2.1-0.6-2.8c-0.2-0.7-1.4-1.2-2.1-0.8C45.5,25.3,45.3,25.4,45,25.8z"/>
	<path class="st0" d="M32.2,37.8c0.9,0.3,1.6,0.7,1.9,1.3c0.3,0.6,0.6,1.1,0.2,1.9c-0.4,0.8,0,0.9-1.4,1.6c-1.4,0.7-2.6,0.7-3,0
		c-0.4-0.7-1.1-2.1-0.9-2.7c0.3-0.6,0.9-1.6,1.8-1.8C31.5,38,31.8,37.6,32.2,37.8z"/>
	<path class="st2" d="M46.9,25.3c0,0-1.7,0.3-1.7,1.3c0,1-0.6,2.8,0.3,3.1c0.8,0.3,1.8,0.1,2.4,0.1c0.7,0,0.8-2.2,0.5-2.8
		C48.1,26.3,47.9,25.1,46.9,25.3z"/>
	<path class="st2" d="M31.6,38.3c-1.4,0.2-2.1,1.3-2.1,2.3c0,0.9,0.7,2.5,1.7,2.2c1.1-0.4,2.2-0.3,2.4-1.3c0.2-1,0.5-1.7-0.4-2.5
		C32.5,38,32.2,38.2,31.6,38.3z"/>
	<path class="st0" d="M21.7,24.5c-0.9,0.3-1.4,0.9-1.2,1.9c0.2,1-0.2,2.4,0.8,2.5c1,0.1,1.9,0.6,2.7-0.1c0.8-0.6,1.7-0.3,1.6-1.5
		c-0.1-1.2,0.2-2.2-0.6-2.9C24,23.8,24,24,23.1,24.2C22.2,24.3,21.7,24.5,21.7,24.5z"/>
	<path class="st2" d="M15.2,34.3c1.3,0.2,2.4,1.6,2.4,2.6c0,1-0.4,2.6-2.1,2.7c-1.7,0.1-2.9-0.3-2.9-1.5C12.7,37,13.7,34,15.2,34.3z
		"/>
	<path class="st2" d="M34.9,25.2c1.7-0.1,3.1,0.9,3.2,1.9c0.1,0.9,0.1,2.4-1.2,2.9c-1.3,0.5-4.1,0.2-3.9-1.2
		C33.1,27.4,33.3,25.3,34.9,25.2z"/>
	<path class="st2" d="M41,8.1c1.3,0,3.1,0.9,2.6,2.1c-0.5,1.1-0.4,2.1-1.4,2.3c-1,0.2-3-1.2-2.8-2.1C39.6,9.5,40.2,8.1,41,8.1z"/>
	<path class="st2" d="M21.2,24.7c1.4-0.4,2.9-0.6,3.3,0.1c0.4,0.7,0.9,3.1-0.2,3.7c-1.1,0.6-2.8,0.8-3.2,0
		C20.7,27.7,20.2,25,21.2,24.7z"/>
	<path class="st2" d="M12,17.3c1.1,0,2.4,1.3,2.3,2c-0.1,0.7-1,2.6-2.4,2.6c-1.4,0-2.4-1.1-2.3-2.1C9.7,18.9,11.1,17.3,12,17.3z"/>
	<path class="st2" d="M23.7,7.4c0.6,0.7-0.2,2.7-1.1,3.2c-0.9,0.5-2.7,0.7-2.9-0.1c-0.2-0.8-0.4-2.5,0.5-3C21,7,22.9,6.5,23.7,7.4z"
		/>
	<path class="st2" d="M30.2,13.1c1.3-0.1,2.3,1,2.2,1.8c-0.1,0.8-0.8,2.9-1.8,2.8c-0.9-0.1-3-0.8-2.6-2
		C28.3,14.6,28.8,13.2,30.2,13.1z"/>
	<path class="st3" d="M29.9,13.7c0.2,0,0.6,1.7,0.1,2c-0.4,0.3-1.4,0.8-1.6,0.4C28.2,15.8,29.3,13.8,29.9,13.7z"/>
	<path class="st3" d="M34.7,25.8c0.6-0.1,1.1,0.7,1.1,1.2c0.1,0.5-0.8,2-1.2,2c-0.4,0-1.2-0.4-1.1-1.1
		C33.7,27.2,34.1,25.9,34.7,25.8z"/>
	<path class="st3" d="M14.9,35.1c0.6,0.1,0.8,1.1,0.6,1.6c-0.3,0.5-1.4,1.7-1.8,1.6c-0.4-0.1-0.5-1.1-0.2-1.8
		C13.8,35.8,14.3,35,14.9,35.1z"/>
	<path class="st3" d="M30.5,39.6c0.4-0.4,1.3,0.3,1.2,0.7c-0.1,0.4-0.5,1.1-0.8,1.1C30.7,41.5,30,40.2,30.5,39.6z"/>
	<path class="st3" d="M40.3,9.6c0.2,0,1.2,1.6,0.9,1.6c-0.3,0.1-1.6,0-1.5-0.5C39.8,10.2,40,9.7,40.3,9.6z"/>
	<path class="st3" d="M45.9,27.5c0.4-0.1,0.9,0.8,0.6,1.2c-0.3,0.4-0.6,0.9-0.8,0.6C45.5,28.9,45.5,27.5,45.9,27.5z"/>
	<path class="st3" d="M10.8,18.9c0.4,0,0.8,1.4,0.6,1.7c-0.2,0.3-1.4-0.1-1.4-0.6C10.1,19.6,10.4,18.9,10.8,18.9z"/>
	<path class="st3" d="M21.5,25.4c0.5-0.7,1.8-0.7,2.1-0.3c0.4,0.4-0.3,1.6-0.9,1.9S20.9,26.2,21.5,25.4z"/>
	<path class="st3" d="M20.3,8c0.5-0.4,1.6-0.7,1.8-0.4c0.3,0.3-1.1,2.9-1.6,2.8C20.1,10.3,19.6,8.6,20.3,8z"/>
	<path class="st0" d="M45.7,17.5c-0.3,0.9-1.2,1.8-0.9,2.4c0.3,0.6,1.3,0.9,1.9,1.2c0.6,0.3,1.8,0.8,2.3-0.2c0.6-0.9,0.5-1.7,1-2.3
		c0.5-0.6,0.3-1.6-0.6-1.9c-0.9-0.3-2.1-0.8-2.7-0.4C46.2,16.6,45.9,16.9,45.7,17.5z"/>
	<path class="st2" d="M47.5,16.5c1.3-0.1,2.3,1,2.2,1.8c-0.1,0.8-0.8,2.9-1.8,2.8c-0.9-0.1-3-0.8-2.6-2C45.7,18,46.2,16.6,47.5,16.5
		z"/>
	<path class="st3" d="M47.3,17.1c0.2,0,0.6,1.7,0.1,2c-0.4,0.3-1.4,0.8-1.6,0.4C45.6,19.2,46.6,17.2,47.3,17.1z"/>
	<path class="st0" d="M43.9,36.9c0.9,0.3,1.6,0.7,1.9,1.3s0.6,1.1,0.2,1.9c-0.4,0.8,0,0.9-1.4,1.6c-1.4,0.7-2.6,0.7-3,0
		c-0.4-0.7-1.1-2.1-0.9-2.7c0.3-0.6,0.9-1.6,1.8-1.8C43.2,37.1,43.5,36.7,43.9,36.9z"/>
	<path class="st2" d="M43.3,37.4c-1.4,0.2-2.1,1.3-2.1,2.3c0,0.9,0.7,2.5,1.7,2.2c1.1-0.4,2.2-0.3,2.4-1.3c0.2-1,0.5-1.7-0.4-2.5
		C44.1,37.1,43.9,37.3,43.3,37.4z"/>
	<path class="st3" d="M42.2,38.7c0.4-0.4,1.3,0.3,1.2,0.7c-0.1,0.4-0.5,1.1-0.8,1.1C42.4,40.6,41.6,39.3,42.2,38.7z"/>
	<path class="st0" d="M30.7,3.1c-0.9,0.3-1.4,0.9-1.2,1.9c0.2,1-0.2,2.4,0.8,2.5c1,0.1,1.9,0.6,2.7-0.1c0.8-0.6,1.7-0.3,1.6-1.5
		c-0.1-1.2,0.2-2.2-0.6-2.9c-0.8-0.7-0.8-0.4-1.8-0.3C31.2,2.9,30.7,3.1,30.7,3.1z"/>
	<path class="st2" d="M30.2,3.3c1.4-0.4,2.9-0.6,3.3,0.1c0.4,0.7,0.9,3.1-0.2,3.7c-1.1,0.6-2.8,0.8-3.2,0
		C29.8,6.4,29.2,3.6,30.2,3.3z"/>
	<path class="st3" d="M30.5,4.1c0.5-0.7,1.8-0.7,2.1-0.3c0.4,0.4-0.3,1.6-0.9,1.9C31.1,6.1,30,4.9,30.5,4.1z"/>
	<polygon class="st0" points="20.5,46.5 19.8,42.9 22.6,40 20.8,35.3 23.6,39.6 21.7,43.1 26.4,42.4 21.9,44.5 23.3,46.9 	"/>
	<path class="st0" d="M36.5,46.5c0-0.5,0.5-4.7,0.5-4.7l-1-3.6l2.1,3.3l0.9,4.9L36.5,46.5z"/>
	<polygon class="st0" points="49.1,37.7 45.3,33.2 41.5,34.4 35.4,33.2 42.2,32.8 42.4,28.5 39.1,24.7 42,18.3 40.3,24.5 43.6,27.8 
		43.6,32 46.7,32 50.9,36.8 	"/>
	<polygon class="st0" points="31.9,20.9 27.8,23.3 29.2,26.6 24.8,33.4 30.4,26.8 29.7,23.5 	"/>
	<polygon class="st0" points="33.5,10.1 37.1,14.8 36.1,19.1 38.9,14.3 	"/>
	<path class="st0" d="M28.1,5.8l-1.2,5.9l-0.2-5.7l-3.8-2.4l-4.7,2.1l4.3-3.3l0.4-1.4c1-0.3,2-0.5,2.9-0.6l-1,3L28.1,5.8z"/>
	<path class="st0" d="M22,18.3l-6.9-1.7l-3-5.4l-4,3.8l3.3-4.9l-1.2-1.8c0.6-0.6,1.2-1.2,1.8-1.8l2,4l5.2,3L14.4,12l1.6,4L22,18.3z"
		/>
	<path class="st0" d="M18.6,29.7L14.4,32l-9.9-5.3c0-0.7,0-1.4,0-2.1l5.3,3.3l3.8-2.3l2.3-3.5l-1.4,4.2l-3.1,2.3l3,2.1L18.6,29.7z"
		/>
	<path class="st0" d="M10.8,31.6L8.7,36l-2.9,0.8c-0.2-0.8-0.4-1.7-0.5-2.5l2.9,0.1L10.8,31.6z"/>
</g>
<g>
	<path class="st2" d="M26.9,65.5c0.1-1.3,1.4-2.4,2.6-2.3c1.2,0.1,2.1,0.4,2.2,1c0.1,0.5,0.6,2.4-0.6,3
		C29.9,67.7,26.8,66.7,26.9,65.5z"/>
	<path class="st2" d="M40,67.3c0.9-0.7,1.2-2,2.7-1.8c1.4,0.1,2.8,0.9,3.1,1.5c0.3,0.6,0.8,1.7-0.5,2.3C44,70,40,67.3,40,67.3z"/>
	<path class="st2" d="M10.9,69.6c-0.5-1.1,0.8-2.3,2-2.6c1.1-0.3,2.2-0.5,2.7-0.1c0.6,0.4,1.5,1.4,1.1,2.1
		C16.3,69.6,11.4,70.8,10.9,69.6z"/>
	<path class="st0" d="M56.9,81.1c-0.6,2.4-17.6,5.1-29.8,5.7C15,87.5-0.4,83.7,0,80c0.1-1,0.5-1.9,1.2-2.9v0
		c3.4-5.1,13.5-9.8,20-10.8c7.7-1.1,19.4-0.7,25.8,2.6c1,0.5,1.9,1.1,2.8,1.6C54.6,73.6,57.8,77.4,56.9,81.1z"/>
	<path class="st1" d="M54.1,77.2c-0.5,2.2-16.2,4.7-27.3,5.3c-11.1,0.6-25.3-2.8-24.9-6.3v0c3.4-5.1,13.5-9.8,20-10.8
		c3.5-0.5,7.8-0.7,12.1-0.4c0.6,0,1.2,0.1,1.8,0.1c4.5,0.4,8.8,1.3,11.8,2.9c1,0.5,1.9,1.1,2.8,1.6C53.2,72,54.7,74.6,54.1,77.2z"/>
	<path class="st0" d="M15.3,80.2c0.8-0.6,0.9-1.7,1.6-1.9c0.7-0.2,1.6-0.3,2.3,0.1c0.7,0.3,1.8,1,1.7,1.6c-0.1,0.6,0.1,2.3-0.3,2.8
		c-0.4,0.5-0.9,1.7-1.8,1.6c-0.9-0.1-2.5-0.4-3.1-0.5C15.1,83.7,14.4,80.9,15.3,80.2z"/>
	<path class="st0" d="M40.9,77.7c0.9-0.1,1.3,0.9,1.9,1.1c0.6,0.2,1.1,0.9,0.9,1.5c-0.2,0.6-1.1,1.9-1.6,2.4c-0.4,0.6-1.6,1-2.2,0.6
		c-0.6-0.4-2.3-1.3-2.1-2.2c0.1-0.9,0.8-1.8,1.3-2.3C39.7,78.3,40.5,77.8,40.9,77.7z"/>
	<path class="st0" d="M8.6,74.1c-0.3,0.9-1.2,1.8-0.9,2.4c0.3,0.6,1.3,0.9,1.9,1.2c0.6,0.3,1.8,0.8,2.3-0.2c0.6-0.9,0.5-1.7,1-2.3
		c0.5-0.6,0.3-1.6-0.6-1.9c-0.9-0.3-2.1-0.8-2.7-0.4C9.1,73.1,8.8,73.5,8.6,74.1z"/>
	<path class="st0" d="M21.5,68.1c0.9,0,2,0.1,2.5,0.4c0.5,0.3,1.4,1.1,1.4,1.9c-0.1,0.8,0,1.8-0.4,2.5c-0.4,0.7-1,1.3-2,1.1
		c-1-0.3-3.3-0.1-3.4-1c-0.2-0.9-0.1-1.7,0.1-2.7C19.9,69.3,20.3,68.2,21.5,68.1z"/>
	<path class="st0" d="M35.3,69.1c-0.1,1-1.1,1.6-0.8,2.3c0.3,0.7,1.6,1.3,2,1.6c0.4,0.3,1.6,0.6,2.1,0.1c0.4-0.6,0.7-1.6,0.9-1.9
		c0.2-0.4,0.8-1.4,0.1-1.9c-0.7-0.6-1.5-0.8-2.4-0.9C36.1,68.1,35.4,68.2,35.3,69.1z"/>
	<path class="st0" d="M47.4,71.4c0.9,0.3,1.6,0.7,1.9,1.3c0.3,0.6,0.6,1.1,0.2,1.9c-0.4,0.8,0,0.9-1.4,1.6c-1.4,0.7-2.6,0.7-3,0
		c-0.4-0.7-1.1-2.1-0.9-2.7s0.9-1.6,1.8-1.8S47,71.3,47.4,71.4z"/>
	<path class="st2" d="M46.8,71.9c-1.4,0.2-2.1,1.3-2.1,2.3s0.7,2.5,1.7,2.2c1.1-0.4,2.2-0.3,2.4-1.3c0.2-1,0.5-1.7-0.4-2.5
		C47.6,71.6,47.4,71.8,46.8,71.9z"/>
	<path class="st0" d="M29.6,75c-0.9,0.3-1.4,0.9-1.2,1.9c0.2,1-0.2,2.4,0.8,2.5c1,0.1,1.9,0.6,2.7-0.1c0.8-0.6,1.7-0.3,1.6-1.5
		c-0.1-1.2,0.2-2.2-0.6-2.9c-0.8-0.7-0.8-0.4-1.8-0.3C30.1,74.8,29.6,75,29.6,75z"/>
	<path class="st2" d="M18,78.4c1.3,0.2,2.4,1.6,2.4,2.6s-0.4,2.6-2.1,2.7c-1.7,0.1-2.9-0.3-2.9-1.5C15.5,81,16.5,78.1,18,78.4z"/>
	<path class="st2" d="M21.8,68.5c1.7-0.1,3.1,0.9,3.2,1.9c0.1,0.9,0.1,2.4-1.2,2.9c-1.3,0.5-4.1,0.2-3.9-1.2
		C20,70.7,20.2,68.6,21.8,68.5z"/>
	<path class="st2" d="M36.6,68.5c1.3,0,3.1,0.9,2.6,2.1c-0.5,1.1-0.4,2.1-1.4,2.3c-1,0.2-3-1.2-2.8-2.1
		C35.2,69.9,35.8,68.5,36.6,68.5z"/>
	<path class="st2" d="M29.2,75.2c1.4-0.4,2.9-0.6,3.3,0.1c0.4,0.7,0.9,3.1-0.2,3.7c-1.1,0.6-2.8,0.8-3.2,0
		C28.7,78.2,28.2,75.5,29.2,75.2z"/>
	<path class="st2" d="M40.9,78.2c1.1,0,2.4,1.3,2.3,2c-0.1,0.7-1,2.6-2.4,2.6c-1.4,0-2.4-1.1-2.3-2.1C38.6,79.8,40,78.2,40.9,78.2z"
		/>
	<path class="st2" d="M10.4,73.1c1.3-0.1,2.3,1,2.2,1.8c-0.1,0.8-0.8,2.9-1.8,2.8c-0.9-0.1-3-0.8-2.6-2C8.5,74.6,9.1,73.2,10.4,73.1
		z"/>
	<path class="st3" d="M10.1,73.7c0.2,0,0.6,1.7,0.1,2c-0.4,0.3-1.4,0.8-1.6,0.4C8.4,75.8,9.5,73.8,10.1,73.7z"/>
	<path class="st3" d="M21.5,69.1c0.6-0.1,1.1,0.7,1.1,1.2c0.1,0.5-0.8,2-1.2,2c-0.4,0-1.2-0.4-1.1-1.1C20.5,70.5,21,69.3,21.5,69.1z
		"/>
	<path class="st3" d="M17.8,79.1c0.6,0.1,0.8,1.1,0.6,1.6c-0.3,0.5-1.4,1.7-1.8,1.6c-0.4-0.1-0.5-1.1-0.2-1.8
		C16.7,79.8,17.2,79,17.8,79.1z"/>
	<path class="st3" d="M45.7,73.3c0.4-0.4,1.3,0.3,1.2,0.7s-0.5,1.1-0.8,1.1C45.9,75.1,45.1,73.8,45.7,73.3z"/>
	<path class="st3" d="M35.9,70.1c0.2,0,1.2,1.6,0.9,1.6c-0.3,0.1-1.6,0-1.5-0.5C35.4,70.7,35.6,70.1,35.9,70.1z"/>
	<path class="st3" d="M39.7,79.8c0.4,0,0.8,1.4,0.6,1.7C40.2,81.8,39,81.5,39,81C39,80.4,39.3,79.8,39.7,79.8z"/>
	<path class="st3" d="M29.5,75.9c0.5-0.7,1.8-0.7,2.1-0.3c0.4,0.4-0.3,1.6-0.9,1.9C30.1,77.9,28.9,76.7,29.5,75.9z"/>
	<polygon class="st0" points="24,84.4 24.9,79.6 21.9,77.1 17.2,76.2 22.3,75.8 24.2,77.1 27.2,74.2 27.5,69.8 28.1,74.3 25,77.7 
		26.7,79.4 26.2,84.5 	"/>
	<polygon class="st0" points="11.3,70.6 15.4,72 15.9,74.5 15.9,70.8 17.8,67.6 15,70.4 	"/>
	<polygon class="st0" points="34.1,73.6 36.5,76 35,79.8 37.6,75.9 41.4,76.2 43.1,71.1 40.6,75.1 37.1,74.5 	"/>
	<path class="st0" d="M33.2,68l-2.5,0.4l0.1,3.6l-1.6-4.2l3.3-0.5c0,0,0.6-1.1,1.4-2.3c0.6,0,1.2,0.1,1.8,0.1L33.2,68z"/>
</g>
</svg>
