<svg xmlns="http://www.w3.org/2000/svg" xmlns:xlink="http://www.w3.org/1999/xlink" version="1.1" x="0px" y="0px" viewBox="0 0 100 125" enable-background="new 0 0 100 100" xml:space="preserve"><g><path fill="#000000" d="M92.818,80.39L63.476,51.878l28.244-27.836c0.204-0.197,0.401-0.408,0.577-0.633   c1.435-1.745,2.068-4.031,1.737-6.275c-0.33-2.237-1.604-4.242-3.489-5.515c-3.398-2.279-8.167-1.484-10.868,1.808L54.943,43.591   L39.301,28.396l0.508-0.508c1.3-1.3,1.447-3.39,0.343-4.86l-2.015-2.683c-0.48-0.638-0.66-0.877,0.342-2.502   c2.186-3.214,3.865-5.207,6.976-7.181c0.594-0.376,0.915-1.071,0.817-1.769c-0.096-0.687-0.586-1.256-1.248-1.452   c-5.657-1.675-12.862,1.163-19.283,7.583l-8.623,8.623c-1.508,1.509-1.769,3.8-0.781,5.58l-1.082,1.081   c-1.324-1.321-3.477-1.319-4.801,0.002l-4.303,4.303c-1.535,1.535-1.535,4.033,0,5.568l7.898,7.898   c0.768,0.767,1.776,1.151,2.784,1.151c1.008,0,2.016-0.383,2.784-1.151l4.302-4.303c0.642-0.641,0.995-1.494,0.995-2.402   c0-0.905-0.352-1.757-0.993-2.399l1.254-1.254l0.192,0.095c1.635,0.812,3.564,0.587,4.972-0.522l16.141,16.616L18.497,88.051   c-1.013,1.238-0.893,2.926,0.289,4.003c0.577,0.528,1.273,0.788,1.97,0.788c0.731,0,1.456-0.288,2.04-0.865l30.988-30.545   l28.596,29.433c1.442,1.442,3.335,2.167,5.227,2.167s3.791-0.725,5.234-2.167C95.724,87.98,95.724,83.288,92.818,80.39z    M28.623,34.799c-0.503,0.505-1.27,0.631-1.908,0.313l-2.138-1.065l-4.93,4.93l2.134,2.135c0.091,0.091,0.11,0.194,0.11,0.264   c0,0.071-0.019,0.173-0.11,0.264l-4.303,4.303c-0.345,0.347-0.947,0.346-1.292,0l-7.898-7.898c-0.357-0.356-0.357-0.936,0-1.292   l4.303-4.303c0.073-0.073,0.168-0.109,0.264-0.109s0.191,0.036,0.264,0.109l2.134,2.137l5.232-5.232l-1.23-1.226   c-0.646-0.646-0.646-1.697,0-2.342l8.623-8.623c4.497-4.498,9.29-7.029,13.369-7.173c-2.051,1.72-3.559,3.642-5.303,6.21   c-1.311,2.121-1.805,3.857-0.224,5.962l2.015,2.682c0.206,0.275,0.179,0.666-0.065,0.908L28.623,34.799z M32.506,35.191   l4.656-4.656l15.861,15.406l-4.615,5.621L32.506,35.191z M22.141,88.381l59.872-73.034c1.076-1.309,2.645-2.012,4.186-2.012   c0.936,0,1.864,0.26,2.659,0.795c1.203,0.809,1.977,2.033,2.188,3.447c0.204,1.4-0.19,2.828-1.083,3.918   C89.85,21.636,22.141,88.381,22.141,88.381z M90.701,88.726c-1.71,1.709-4.481,1.709-6.169,0.021L55.935,59.314l5.388-5.311   l29.377,28.54C92.403,84.245,92.403,87.024,90.701,88.726z"/><ellipse transform="matrix(0.6741 -0.7387 0.7387 0.6741 10.675 68.2547)" fill="#000000" cx="82.683" cy="22.031" rx="5.395" ry="2.307"/></g><text x="0" y="115" fill="#000000" font-size="5px" font-weight="bold" font-family="'Helvetica Neue', Helvetica, Arial-Unicode, Arial, Sans-serif">Created by Nick Abrams</text><text x="0" y="120" fill="#000000" font-size="5px" font-weight="bold" font-family="'Helvetica Neue', Helvetica, Arial-Unicode, Arial, Sans-serif">from the Noun Project</text></svg>