<?xml version="1.0" encoding="utf-8"?>
<!-- Generator: Adobe Illustrator 25.0.0, SVG Export Plug-In . SVG Version: 6.00 Build 0)  -->
<svg version="1.1"
	 id="svg2" xmlns:cc="http://creativecommons.org/ns#" xmlns:dc="http://purl.org/dc/elements/1.1/" xmlns:inkscape="http://www.inkscape.org/namespaces/inkscape" xmlns:ns1="http://sozi.baierouge.fr" xmlns:rdf="http://www.w3.org/1999/02/22-rdf-syntax-ns#" xmlns:sodipodi="http://sodipodi.sourceforge.net/DTD/sodipodi-0.dtd" xmlns:svg="http://www.w3.org/2000/svg"
	 xmlns="http://www.w3.org/2000/svg" xmlns:xlink="http://www.w3.org/1999/xlink" x="0px" y="0px" viewBox="0 0 86.5 73.2"
	 style="enable-background:new 0 0 86.5 73.2;" xml:space="preserve">
<style type="text/css">
	.st0{fill:#4BB03A;}
	.st1{fill:#939982;}
	.st2{fill:#C5EB99;}
	.st3{fill:#F3FDD6;}
	.st4{fill:#E9EDDD;}
	.st5{fill:#F5FA91;}
	.st6{fill:#CBD4B3;}
	.st7{fill:#A2BFAB;}
</style>
<g>
	<g>
		<g>
			<g>
				<g>
					<path class="st0" d="M41.6,6.8c-8.2,2.8-14.1,8-13.8,15.2c0,0.4,0,0.7,0.1,1c0.1,0.4,0.1,0.9,0.3,1.5c0,0.4,0,0.7,0,1.1
						c0.2,2.1,1.2,4,2.7,5.8c0.7,0.8,1.6,1.7,2.6,2.4c0.2,0.2,0.4,0.3,0.6,0.5c2.1,1.6,4.6,2.9,7.4,3.9c0.3,0.1,0.5,0.2,0.8,0.2
						c0.7,0.2,1.4,0.4,2.2,0.6c2,0.5,4,0.9,6.2,1.1c1,0.1,2.1,0.2,3.1,0.2c2,0.1,4.1,0.1,6.2,0c2.1-0.1,4.2-0.4,6.2-0.7
						c1.3-0.2,2.5-0.5,3.7-0.9c3.5-1,6.7-2.4,9.2-4.1c1-0.6,1.9-1.3,2.6-2l0.1-0.1c1.8-1.7,3.2-3.6,4.1-5.6c0.8-2,0.7-4.8,0.4-7
						C84.4,4.6,58.3,1,41.6,6.8z"/>
				</g>
				<g>
					<path class="st1" d="M43.2,33.5c-0.1-0.5-0.3-1-0.4-1.5c-0.2-1.1-2.1-1.1-1.9,0c0,0.2,0.1,0.5,0.1,0.7c0.3,1.7,0.4,3.5,0.6,5.3
						c0.3,0.1,0.5,0.2,0.8,0.2c0.7,0.2,1.4,0.4,2.2,0.6c-0.1-0.5-0.2-1-0.3-1.4C43.9,36.1,43.5,34.8,43.2,33.5z"/>
				</g>
				<g>
					<path class="st1" d="M51.6,32.8c-0.2-0.4-1.1-0.6-1.1,0c-0.2,2.2,0,4.4,0.2,6.5c0,0.3,0,0.5,0,0.8c1,0.1,2.1,0.2,3.1,0.2
						c-0.1-0.4-0.1-0.7-0.2-1.1C53.2,37,52.7,34.8,51.6,32.8z"/>
				</g>
				<g>
					<path class="st1" d="M67.6,31.9c-0.4-0.5-1.1-0.3-1.3,0.2c-0.7,1.9-0.4,4.2-0.2,6.2c0,0.4,0.1,0.9,0.1,1.3
						c1.3-0.2,2.5-0.5,3.7-0.9c-0.1-0.5-0.2-0.9-0.3-1.3C69.1,35.5,68.8,33.5,67.6,31.9z"/>
				</g>
				<g>
					<path class="st1" d="M77.5,26.2c0.4,2,0.9,4,1.2,5.9c0.1,0.8,0.2,1.6,0.4,2.4c1-0.6,1.9-1.3,2.6-2c-0.5-2.4-1.8-4.9-3.1-6.7
						C78.3,25.4,77.3,25.6,77.5,26.2z"/>
				</g>
				<g>
					<path class="st1" d="M33.3,25.8c-0.1-1.2-2-1.3-2.3-0.3c0,0.1,0,0.2,0,0.3c0.1,1.7-0.1,3.6,0,5.4c0.7,0.8,1.6,1.7,2.6,2.4
						c0.2,0.2,0.4,0.3,0.6,0.5c0.2-1.8-0.1-3.8-0.4-5.6C33.6,27.6,33.4,26.7,33.3,25.8z"/>
				</g>
				<g>
					<path class="st2" d="M55.5,4.9c-15.3,0.8-27.3,7.7-26.2,16.3c1.1,8.6,14.4,15,29.7,14.1s26.7-8.5,25.6-17.1S70.8,4.1,55.5,4.9z
						"/>
				</g>
				<g>
					<path class="st3" d="M55.6,6.2c-14,0.8-25,6.8-24,14.3c1,7.6,13.1,13.1,27,12.3c14-0.8,24.5-7.5,23.5-15.1
						C81.2,10.3,69.6,5.5,55.6,6.2z"/>
				</g>
				<g>
					<path class="st4" d="M55,11.3c-0.2-0.7-0.8-1.3-1.5-1.6c-0.5-0.1-1-0.1-1.4-0.1S51.4,9.7,51,9.8c-3.9,0.7-9.2,3.4-8,7.4
						c0.6,2.1,4,2.1,5.9,2.4c2.2,0.4,5.3,0.5,7.1-0.8c0.7-0.5,0.8-1.6,0.5-2.4C55.8,14.7,55.5,13,55,11.3z"/>
				</g>
				<g>
					<path class="st4" d="M55.8,19c-2.1,0.2-2.9,1.5-4.3,2.6c-2.3,1.8-5.3,2.8-2,5.3l0.1,0.1c3.3,2.5,6,2.6,10.1,2.2
						c2.3-0.2,4-1.6,4.1-3.7C63.9,22.1,59.5,18.6,55.8,19z"/>
				</g>
				<g>
					<path class="st4" d="M63.3,10.1c-3,0.3-4.1,4-5.1,6.1c-0.3,0.6-0.6,1.3-0.2,1.9c0.2,0.3,0.4,0.5,0.7,0.7c2,1.6,3.5,2.3,6.2,2.4
						c1.8,0.1,5.2-0.3,6.3-1.7c0.2-0.2,0.3-0.4,0.4-0.6c0.3-0.7,0.1-1.6-0.1-2.4C70.4,13.2,67.4,9.6,63.3,10.1z"/>
				</g>
				<g>
					<g>
						<path class="st5" d="M61.6,14.7c-0.5,0.3-0.5,1.1,0.1,2.1s1.8,2.3,2.3,2.1c0.6-0.1,0.5-2.2-0.2-3.3C63,14.4,62,14.4,61.6,14.7
							z"/>
					</g>
				</g>
				<g>
					<g>
						<path class="st5" d="M66.6,11.1c-1.7-1.2-2.9-0.9-3.1-0.5c-0.3,0.5,0.4,1.3,1.8,2.4c1.5,1,3.5,2.6,4,2.3
							c0.2-0.1,0.1-0.9-0.4-1.8C68.3,12.7,67.4,11.7,66.6,11.1z"/>
					</g>
				</g>
				<g>
					<g>
						<path class="st5" d="M69.2,16.1c-1.5,0.8-3.2,2.4-2.8,2.8c0.4,0.4,3-0.2,4.5-1c1.4-0.8,1.6-1.7,1.3-2.2
							C71.9,15.3,70.7,15.2,69.2,16.1z"/>
					</g>
				</g>
				<g>
					<g>
						<path class="st5" d="M57.7,20.5c-1.2-1.2-2.2-1.3-2.7-1c-0.4,0.3-0.3,1.4,1.1,2.7c1.4,1.3,3.9,2.4,4.2,1.9
							C60.6,23.8,58.9,21.7,57.7,20.5z"/>
					</g>
				</g>
				<g>
					<g>
						<path class="st5" d="M54,23.5c-1-0.8-1.9-0.7-2.3-0.3c-0.4,0.3-0.3,1.3,1,2.2c1.2,0.9,3.4,1.4,3.6,0.9
							C56.4,25.8,55,24.3,54,23.5z"/>
					</g>
				</g>
				<g>
					<g>
						<path class="st5" d="M60,24.1c-1.2,0.5-1.5,1.2-1.3,1.7s1.2,0.8,2.6,0.2c1.4-0.6,2.8-2,2.4-2.5C63.4,23.2,61.3,23.7,60,24.1z"
							/>
					</g>
				</g>
				<g>
					<g>
						<path class="st5" d="M49.6,11.4c-0.6,0.1-1,0.8-0.9,2s0.7,3,1.2,3c0.6,0.1,1.5-1.9,1.3-3.3C51,11.7,50.1,11.3,49.6,11.4z"/>
					</g>
				</g>
				<g>
					<g>
						<path class="st5" d="M53,12c-0.5,0.1-0.9,1.1-0.3,2.8c0.6,1.7,1.9,3.8,2.4,3.7s0.5-2.8-0.1-4.5C54.5,12.4,53.6,11.9,53,12z"/>
					</g>
				</g>
				<g>
					<g>
						<path class="st5" d="M46.4,13.4c-1.2-1.1-2.2-1-2.6-0.6c-0.4,0.3-0.2,1.3,1,2.4c1.2,1.1,3.3,2.1,3.7,1.8
							C48.9,16.6,47.6,14.5,46.4,13.4z"/>
					</g>
				</g>
				<g>
					<g>
						<path class="st5" d="M50.1,18c-1.2-0.1-2.5-0.2-3.6-0.2c-2.1-0.1-3.1,0.3-3.2,0.8c-0.1,0.5,1.1,1.4,3.6,1.5
							c1.3,0,2.7-0.2,3.8-0.6s1.7-0.9,1.6-1.1C52.2,18.2,51.2,18.1,50.1,18z"/>
					</g>
				</g>
				<g>
					<g>
						<path class="st5" d="M60,12.1c-0.5-0.1-1.4,0.5-1.5,2c-0.1,1.6,0.9,3.6,1.4,3.4c0.3,0,0.5-0.6,0.7-1.3
							c0.2-0.7,0.4-1.5,0.4-2.1C61.2,12.9,60.6,12.2,60,12.1z"/>
					</g>
				</g>
				<g>
					<g>
						<path class="st5" d="M63.6,18.8c-1.7-0.4-2.5,0.2-2.6,0.6c-0.1,0.5,0.7,1.2,2.4,1.6s4.1,0.3,4.2-0.1
							C67.7,20.4,65.3,19.1,63.6,18.8z"/>
					</g>
				</g>
				<g>
					<g>
						<path class="st5" d="M52.8,20.1c-0.2-0.2-0.6-0.2-1.1,0s-1.1,0.8-1.4,1.7c-0.3,0.9-0.2,2.1,0.1,2.9c0.4,0.8,0.9,1.3,1.2,1.2
							c0.3-0.1,0.3-0.7,0.5-1.5c0.2-0.7,0.5-1.5,0.7-2.1C53.3,21.3,53.2,20.5,52.8,20.1z"/>
					</g>
				</g>
			</g>
			<g>
				<path class="st4" d="M41.6,6.8c0.7,0,1.4,0.1,2,0.1C45,7,46.4,7.1,47.7,7.3c4.9,0.5,9.8,1.5,14.5,3.1c0.4,0.1,0.8,0.3,1.2,0.4
					c1.6,0.5,3.1,1.2,4.6,1.8c0.6,0.3,1.2,0.5,1.8,0.8c0.2,0.1,0.4,0.2,0.6,0.3c2.5,1.3,4.9,2.8,6.5,4.9c1.2,1.6,1.8,3.3,2.4,5.1
					c0.1,0.4,0.2,0.7,0.3,1.1c0.3,0.9,0.6,1.9,0.9,2.8c0.5,1.6,0.9,3.2,1.3,4.8c1.8-1.7,3.2-3.6,4.1-5.6c0.8-2,0.7-4.8,0.4-7
					C84.4,4.6,58.3,1,41.6,6.8z"/>
			</g>
		</g>
		<g>
			<path class="st6" d="M61,20.4c0-1.1-0.2-2.4-0.5-3.6c-0.3-1.1-0.7-2.1-1.2-3.1c-0.1-0.3-0.3-0.5-0.4-0.8
				c-0.9-1.7-2.2-3.2-3.7-4.4c-1-0.8-2.1-1.5-3.4-1.9c-2-0.7-3.8-0.7-5.6-0.3h-0.1c-0.6,0.1-1.1,0.3-1.7,0.5
				c-0.2,0.1-0.3,0.1-0.5,0.2c-3.2,1.2-6,3.5-8.4,5.7l-0.1,0.1c-0.7,0.7-1.4,1.4-2,2.1c-0.1,0.1-0.3,0.3-0.4,0.5
				c-1.3,1.5-2.5,3-3.7,4.6c-0.5,0.7-1,1.4-1.4,2.1c0,0.4,0,0.7,0.1,1c0.1,0.4,0.1,0.9,0.3,1.5c0,0.4,0,0.7,0,1.1
				c0.2,2.1,1.2,4,2.7,5.8c0.7,0.8,1.6,1.7,2.6,2.4c0.2,0.2,0.4,0.3,0.6,0.5c2.1,1.6,4.6,2.9,7.4,3.9c0.3,0.1,0.5,0.2,0.8,0.2
				c0.6-0.2,1.3-0.5,1.9-0.8c1-0.5,2.1-1,3.1-1.5c0.7-0.3,1.3-0.7,2-1.1c0.4-0.2,0.7-0.4,1.1-0.6c0.5-0.3,1-0.6,1.5-0.9
				c0.3-0.2,0.5-0.3,0.8-0.5c1.5-1.1,3-2.2,4.2-3.5c0.9-1,1.7-2,2.4-3.1c0.4-0.6,0.7-1.3,1-2c0-0.1,0.1-0.2,0.1-0.3v-0.1
				c0.2-0.4,0.3-0.9,0.4-1.3c0.1-0.6,0.2-1.3,0.2-2C61,20.5,61,20.5,61,20.4z"/>
		</g>
		<g>
			<g>
				<g>
					<path class="st0" d="M13.8,2.6c-8.6,3-14.7,8.5-13.7,16.2c0.1,0.4,0.1,0.9,0.3,1.5c0,0.4,0,0.7,0,1.1c0.2,2.1,1.2,4,2.7,5.8
						c0.7,0.8,1.6,1.7,2.6,2.4c0.2,0.2,0.4,0.3,0.6,0.5c2.1,1.6,4.6,2.9,7.4,3.9c0.9,0.3,1.9,0.6,2.9,0.9c2,0.5,4,0.9,6.2,1.1
						c1,0.1,2.1,0.2,3.1,0.2c2,0.1,4.1,0.1,6.2,0s4.2-0.4,6.2-0.7c1.3-0.2,2.5-0.5,3.7-0.9c3.5-1,6.7-2.4,9.2-4.1
						c1-0.6,1.9-1.3,2.6-2l0.1-0.1c1.8-1.7,3.2-3.6,4.1-5.6c0.8-2,0.7-4.8,0.4-7C56.6,0.4,30.5-3.2,13.8,2.6z"/>
				</g>
				<g>
					<path class="st1" d="M13.1,27.9c0.4,1.9,0.5,4,0.7,6c0.9,0.3,1.9,0.6,2.9,0.9c-0.4-2.4-1.2-4.8-1.7-6.9
						C14.7,26.8,12.8,26.8,13.1,27.9z"/>
				</g>
				<g>
					<path class="st1" d="M23.8,28.6c-0.2-0.4-1.1-0.6-1.1,0c-0.2,2.2,0,4.4,0.2,6.5c0,0.3,0,0.5,0,0.8c1,0.1,2.1,0.2,3.1,0.2
						c-0.1-0.4-0.1-0.7-0.2-1.1C25.3,32.9,24.8,30.6,23.8,28.6z"/>
				</g>
				<g>
					<path class="st1" d="M39.7,27.7c-0.4-0.5-1.1-0.3-1.3,0.2c-0.7,1.9-0.4,4.2-0.2,6.2c0,0.4,0.1,0.9,0.1,1.3
						c1.3-0.2,2.5-0.5,3.7-0.9c-0.1-0.5-0.2-0.9-0.3-1.3C41.3,31.3,40.9,29.3,39.7,27.7z"/>
				</g>
				<g>
					<path class="st1" d="M49.6,22c0.4,2,0.9,4,1.2,5.9c0.1,0.8,0.2,1.6,0.4,2.4c1-0.6,1.9-1.3,2.6-2c-0.5-2.4-1.8-4.9-3.1-6.7
						C50.5,21.2,49.5,21.4,49.6,22z"/>
				</g>
				<g>
					<path class="st1" d="M3.2,21.7c0.1,1.7-0.1,3.6,0,5.4c0.7,0.8,1.6,1.7,2.6,2.4C6,29.7,6.2,29.8,6.4,30c0.3-2.7-0.6-5.8-0.8-8.3
						C5.4,20.3,3.1,20.4,3.2,21.7z"/>
				</g>
				<g>
					<path class="st2" d="M27.7,0.7C12.4,1.5,0.4,8.4,1.5,17s14.4,15,29.7,14.1c15.3-0.8,26.7-8.5,25.6-17.1
						C55.7,5.4,42.9-0.1,27.7,0.7z"/>
				</g>
				<g>
					<path class="st3" d="M27.8,2c-14,0.8-25,6.8-24,14.3c1,7.6,13.1,13.1,27,12.3c14-0.8,24.5-7.5,23.5-15.1
						C53.4,6.1,41.8,1.3,27.8,2z"/>
				</g>
				<g>
					<path class="st4" d="M27.1,7.2c-0.2-0.7-0.8-1.3-1.5-1.6c-0.5-0.1-0.9-0.1-1.4-0.1c-0.4,0-0.7,0.1-1.1,0.2
						c-3.9,0.7-9.2,3.4-8,7.4c0.6,2.1,4,2.1,5.9,2.4c2.2,0.4,5.3,0.5,7.1-0.8c0.7-0.5,0.8-1.6,0.5-2.4C27.9,10.6,27.7,8.9,27.1,7.2z
						"/>
				</g>
				<g>
					<path class="st4" d="M27.9,14.8c-2.1,0.2-2.9,1.5-4.3,2.6c-2.3,1.8-5.3,2.8-2,5.3l0.1,0.1c3.3,2.5,6,2.6,10.1,2.2
						c2.3-0.2,4-1.6,4.1-3.7C36.1,17.9,31.6,14.4,27.9,14.8z"/>
				</g>
				<g>
					<path class="st4" d="M35.4,5.9c-3,0.3-4.1,4-5.1,6.1c-0.3,0.6-0.6,1.3-0.2,1.9c0.2,0.3,0.4,0.5,0.7,0.7c2,1.6,3.5,2.3,6.2,2.4
						c1.8,0.1,5.2-0.3,6.3-1.7c0.2-0.2,0.3-0.4,0.4-0.6c0.3-0.7,0.1-1.6-0.1-2.4C42.5,9.1,39.6,5.4,35.4,5.9z"/>
				</g>
				<g>
					<g>
						<path class="st5" d="M33.7,10.5c-0.5,0.3-0.5,1.1,0.1,2.1s1.8,2.3,2.3,2.1c0.6-0.1,0.5-2.2-0.2-3.3
							C35.2,10.2,34.2,10.2,33.7,10.5z"/>
					</g>
				</g>
				<g>
					<g>
						<path class="st5" d="M38.7,6.9C37,5.7,35.8,6,35.6,6.4c-0.3,0.5,0.4,1.3,1.8,2.4c1.5,1,3.5,2.6,4,2.3c0.2-0.1,0.1-0.9-0.4-1.8
							C40.5,8.6,39.6,7.6,38.7,6.9z"/>
					</g>
				</g>
				<g>
					<g>
						<path class="st5" d="M41.4,11.9c-1.5,0.8-3.2,2.4-2.8,2.8c0.4,0.4,3-0.2,4.5-1c1.4-0.8,1.6-1.7,1.3-2.2
							C44,11.1,42.9,11.1,41.4,11.9z"/>
					</g>
				</g>
				<g>
					<g>
						<path class="st5" d="M29.9,16.4c-1.2-1.2-2.2-1.3-2.7-1c-0.4,0.3-0.3,1.4,1.1,2.7c1.4,1.3,3.9,2.4,4.2,1.9
							C32.8,19.6,31.1,17.6,29.9,16.4z"/>
					</g>
				</g>
				<g>
					<g>
						<path class="st5" d="M26.1,19.3c-1-0.8-1.9-0.7-2.3-0.3c-0.4,0.3-0.3,1.3,1,2.2c1.2,0.9,3.4,1.4,3.6,0.9
							C28.6,21.7,27.2,20.1,26.1,19.3z"/>
					</g>
				</g>
				<g>
					<g>
						<path class="st5" d="M32.2,19.9c-1.2,0.5-1.5,1.2-1.3,1.7s1.2,0.8,2.6,0.2c1.4-0.6,2.8-2,2.4-2.5
							C35.6,19.1,33.4,19.5,32.2,19.9z"/>
					</g>
				</g>
				<g>
					<g>
						<path class="st5" d="M21.7,7.2c-0.6,0.1-1,0.8-0.9,2s0.7,3,1.2,3c0.6,0.1,1.5-1.9,1.3-3.3C23.2,7.6,22.3,7.1,21.7,7.2z"/>
					</g>
				</g>
				<g>
					<g>
						<path class="st5" d="M25.2,7.8c-0.5,0.1-0.9,1.1-0.3,2.8s1.9,3.8,2.4,3.7s0.5-2.8-0.1-4.5C26.7,8.2,25.7,7.7,25.2,7.8z"/>
					</g>
				</g>
				<g>
					<g>
						<path class="st5" d="M18.5,9.3c-1.2-1.1-2.2-1-2.6-0.6C15.6,9,15.8,9.9,17,11s3.3,2.1,3.7,1.8C21,12.4,19.7,10.3,18.5,9.3z"/>
					</g>
				</g>
				<g>
					<g>
						<path class="st5" d="M22.3,13.9c-1.2-0.1-2.5-0.2-3.6-0.2c-2.1-0.1-3.1,0.3-3.2,0.8c-0.1,0.5,1.1,1.4,3.6,1.5
							c1.3,0,2.7-0.2,3.8-0.6c1.1-0.4,1.7-0.9,1.6-1.1C24.3,14,23.4,13.9,22.3,13.9z"/>
					</g>
				</g>
				<g>
					<g>
						<path class="st5" d="M32.2,7.9c-0.5-0.1-1.4,0.5-1.5,2c-0.1,1.6,0.9,3.6,1.4,3.4c0.3,0,0.5-0.6,0.7-1.3s0.4-1.5,0.4-2.1
							C33.4,8.7,32.8,8,32.2,7.9z"/>
					</g>
				</g>
				<g>
					<g>
						<path class="st5" d="M35.8,14.6c-1.7-0.4-2.5,0.2-2.6,0.6c-0.1,0.5,0.7,1.2,2.4,1.6s4.1,0.3,4.2-0.1
							C39.9,16.2,37.5,15,35.8,14.6z"/>
					</g>
				</g>
				<g>
					<g>
						<path class="st5" d="M25,16c-0.2-0.2-0.6-0.2-1.1,0s-1.1,0.8-1.4,1.7c-0.3,0.9-0.2,2.1,0.1,2.9c0.4,0.8,0.9,1.3,1.2,1.2
							c0.3-0.1,0.3-0.7,0.5-1.5c0.2-0.7,0.5-1.5,0.7-2.1C25.4,17.1,25.4,16.4,25,16z"/>
					</g>
				</g>
			</g>
			<g>
				<path class="st4" d="M13.8,2.6c0.7,0,1.4,0.1,2,0.1c1.4,0.1,2.7,0.2,4.1,0.3c4.9,0.5,9.8,1.5,14.5,3.1c0.4,0.1,0.8,0.3,1.2,0.4
					c1.6,0.5,3.1,1.2,4.6,1.8c0.6,0.3,1.2,0.5,1.8,0.8c0.2,0.1,0.4,0.2,0.6,0.3c2.5,1.3,4.9,2.8,6.5,4.9c1.2,1.6,1.8,3.3,2.4,5.1
					c0.1,0.4,0.2,0.7,0.3,1.1c0.3,0.9,0.6,1.9,0.9,2.8c0.5,1.6,0.9,3.2,1.3,4.8c1.8-1.7,3.2-3.6,4.1-5.6c0.8-2,0.7-4.8,0.4-7
					C56.6,0.4,30.5-3.2,13.8,2.6z"/>
			</g>
		</g>
		<g>
			<path class="st7" d="M27.1,26.1c-5.2-1.7-10.5-1.8-13.8-6.6C10.6,15.7,11,5.9,18,6c0.6,0,0.6-0.8,0.1-0.9
				c-8.1-2.5-12,8-10.5,13.2c1.9,7,12.4,13.8,20.1,10.3C29,28.1,28.3,26.5,27.1,26.1z"/>
		</g>
	</g>
</g>
<g>
	<g>
		<g>
			<g>
				<g>
					<path class="st0" d="M58.7,53c-5,1.7-8.5,4.8-8.3,9.1c0,0.2,0,0.4,0.1,0.6c0,0.3,0.1,0.6,0.2,0.9c0,0.2,0,0.4,0,0.7
						c0.1,1.3,0.7,2.4,1.6,3.5c0.4,0.5,1,1,1.5,1.4c0.1,0.1,0.2,0.2,0.4,0.3c1.2,1,2.8,1.8,4.5,2.4c0.2,0.1,0.3,0.1,0.5,0.1
						c0.4,0.1,0.9,0.3,1.3,0.4c1.2,0.3,2.4,0.5,3.7,0.7c0.6,0.1,1.2,0.1,1.9,0.1c1.2,0.1,2.5,0.1,3.8,0c1.3-0.1,2.5-0.2,3.7-0.4
						c0.8-0.1,1.5-0.3,2.2-0.5c2.1-0.6,4-1.4,5.6-2.5c0.6-0.4,1.1-0.8,1.6-1.2c0,0,0.1-0.1,0.1-0.1c1.1-1,2-2.2,2.5-3.4
						c0.5-1.2,0.4-2.9,0.2-4.2C84.6,51.6,68.8,49.4,58.7,53z"/>
				</g>
				<g>
					<path class="st1" d="M59.7,69.1c-0.1-0.3-0.2-0.6-0.2-0.9c-0.1-0.6-1.3-0.6-1.2,0c0,0.1,0.1,0.3,0.1,0.4c0.2,1,0.2,2.1,0.3,3.2
						c0.2,0.1,0.3,0.1,0.5,0.1c0.4,0.1,0.9,0.3,1.3,0.4c0-0.3-0.1-0.6-0.2-0.9C60.1,70.7,59.9,69.9,59.7,69.1z"/>
				</g>
				<g>
					<path class="st1" d="M64.8,68.6c-0.1-0.3-0.7-0.3-0.7,0c-0.1,1.3,0,2.6,0.1,3.9c0,0.2,0,0.3,0,0.5c0.6,0.1,1.2,0.1,1.9,0.1
						c0-0.2-0.1-0.4-0.1-0.6C65.7,71.2,65.4,69.9,64.8,68.6z"/>
				</g>
				<g>
					<path class="st1" d="M74.4,68.1c-0.2-0.3-0.7-0.2-0.8,0.1c-0.4,1.2-0.2,2.5-0.1,3.7c0,0.3,0,0.5,0.1,0.8
						c0.8-0.1,1.5-0.3,2.2-0.5c-0.1-0.3-0.1-0.5-0.2-0.8C75.3,70.3,75.1,69.1,74.4,68.1z"/>
				</g>
				<g>
					<path class="st1" d="M80.4,64.7c0.2,1.2,0.5,2.4,0.8,3.6c0.1,0.5,0.1,1,0.3,1.5c0.6-0.4,1.1-0.8,1.6-1.2
						c-0.3-1.5-1.1-2.9-1.9-4C80.9,64.2,80.3,64.3,80.4,64.7z"/>
				</g>
				<g>
					<path class="st1" d="M53.7,64.4c-0.1-0.7-1.2-0.8-1.4-0.2c0,0.1,0,0.1,0,0.2c0,1,0,2.2,0,3.3c0.4,0.5,1,1,1.5,1.4
						c0.1,0.1,0.2,0.2,0.4,0.3c0.1-1.1-0.1-2.3-0.3-3.4C53.9,65.5,53.8,65,53.7,64.4z"/>
				</g>
				<g>
					<path class="st2" d="M67.1,51.8c-9.2,0.5-16.5,4.6-15.8,9.8c0.7,5.2,8.7,9,17.9,8.5c9.2-0.5,16.1-5.1,15.5-10.3
						C84,54.6,76.3,51.3,67.1,51.8z"/>
				</g>
				<g>
					<path class="st3" d="M67.2,52.6c-8.4,0.5-15.1,4.1-14.5,8.7c0.6,4.6,7.9,7.9,16.3,7.5c8.4-0.5,14.8-4.5,14.2-9.1
						C82.6,55,75.6,52.1,67.2,52.6z"/>
				</g>
				<g>
					<path class="st4" d="M66.8,55.7c-0.1-0.4-0.5-0.8-0.9-1c-0.3-0.1-0.6-0.1-0.9-0.1c-0.2,0-0.4,0.1-0.7,0.1
						c-2.3,0.5-5.6,2.1-4.8,4.4c0.4,1.3,2.4,1.3,3.6,1.5c1.3,0.2,3.2,0.3,4.3-0.5c0.4-0.3,0.5-1,0.3-1.4
						C67.3,57.7,67.1,56.7,66.8,55.7z"/>
				</g>
				<g>
					<path class="st4" d="M67.3,60.3c-1.3,0.1-1.8,0.9-2.6,1.6c-1.4,1.1-3.2,1.7-1.2,3.2c0,0,0.1,0,0.1,0.1c2,1.5,3.6,1.6,6.1,1.3
						c1.4-0.1,2.4-0.9,2.5-2.2C72.2,62.2,69.5,60.1,67.3,60.3z"/>
				</g>
				<g>
					<path class="st4" d="M71.8,54.9c-1.8,0.2-2.5,2.4-3.1,3.7c-0.2,0.4-0.3,0.8-0.1,1.2c0.1,0.2,0.2,0.3,0.4,0.4
						c1.2,1,2.1,1.4,3.7,1.4c1.1,0,3.1-0.2,3.8-1c0.1-0.1,0.2-0.2,0.2-0.4c0.2-0.4,0.1-1-0.1-1.4C76.1,56.9,74.3,54.6,71.8,54.9z"/>
				</g>
				<g>
					<g>
						<path class="st5" d="M70.8,57.7c-0.3,0.2-0.3,0.7,0,1.2c0.4,0.6,1.1,1.4,1.4,1.3c0.3-0.1,0.3-1.3-0.1-2
							C71.6,57.5,71,57.5,70.8,57.7z"/>
					</g>
				</g>
				<g>
					<g>
						<path class="st5" d="M73.8,55.6c-1.1-0.7-1.7-0.6-1.9-0.3c-0.2,0.3,0.2,0.8,1.1,1.5c0.9,0.6,2.1,1.6,2.4,1.4
							c0.1-0.1,0-0.5-0.3-1.1C74.8,56.5,74.3,55.9,73.8,55.6z"/>
					</g>
				</g>
				<g>
					<g>
						<path class="st5" d="M75.4,58.5c-0.9,0.5-1.9,1.5-1.7,1.7c0.2,0.2,1.8-0.1,2.7-0.6c0.9-0.5,1-1,0.8-1.3
							C77,58.1,76.3,58.1,75.4,58.5z"/>
					</g>
				</g>
				<g>
					<g>
						<path class="st5" d="M68.5,61.3c-0.7-0.7-1.3-0.8-1.6-0.6c-0.3,0.2-0.2,0.8,0.6,1.6c0.8,0.8,2.3,1.4,2.5,1.2
							C70.2,63.2,69.2,62,68.5,61.3z"/>
					</g>
				</g>
				<g>
					<g>
						<path class="st5" d="M66.2,63c-0.6-0.5-1.2-0.4-1.4-0.2c-0.2,0.2-0.2,0.8,0.6,1.3c0.7,0.6,2,0.8,2.2,0.6
							C67.7,64.5,66.8,63.5,66.2,63z"/>
					</g>
				</g>
				<g>
					<g>
						<path class="st5" d="M69.8,63.4c-0.7,0.3-0.9,0.8-0.8,1c0.1,0.3,0.7,0.5,1.6,0.1c0.9-0.3,1.7-1.2,1.5-1.5
							C71.9,62.9,70.6,63.1,69.8,63.4z"/>
					</g>
				</g>
				<g>
					<g>
						<path class="st5" d="M63.5,55.7c-0.3,0-0.6,0.5-0.5,1.2c0.1,0.7,0.4,1.8,0.7,1.8c0.4,0.1,0.9-1.2,0.8-2
							C64.4,55.9,63.9,55.7,63.5,55.7z"/>
					</g>
				</g>
				<g>
					<g>
						<path class="st5" d="M65.6,56.1c-0.3,0.1-0.5,0.7-0.2,1.7c0.3,1,1.1,2.3,1.5,2.2c0.3-0.1,0.3-1.7,0-2.7
							C66.5,56.3,65.9,56,65.6,56.1z"/>
					</g>
				</g>
				<g>
					<g>
						<path class="st5" d="M61.6,57c-0.7-0.6-1.3-0.6-1.6-0.4c-0.2,0.2-0.1,0.8,0.6,1.4c0.7,0.6,2,1.3,2.2,1.1
							C63.1,58.9,62.3,57.6,61.6,57z"/>
					</g>
				</g>
				<g>
					<g>
						<path class="st5" d="M63.8,59.7c-0.7,0-1.5-0.1-2.2-0.1c-1.3-0.1-1.9,0.2-1.9,0.5c-0.1,0.3,0.7,0.8,2.2,0.9
							c0.8,0,1.6-0.1,2.3-0.3c0.6-0.2,1-0.5,1-0.7C65.1,59.8,64.5,59.8,63.8,59.7z"/>
					</g>
				</g>
				<g>
					<g>
						<path class="st5" d="M69.8,56.1c-0.3-0.1-0.9,0.3-0.9,1.2c-0.1,0.9,0.5,2.1,0.9,2.1c0.2,0,0.3-0.4,0.4-0.8
							c0.1-0.4,0.2-0.9,0.3-1.3C70.5,56.6,70.2,56.2,69.8,56.1z"/>
					</g>
				</g>
				<g>
					<g>
						<path class="st5" d="M72,60.2c-1-0.2-1.5,0.1-1.6,0.4c-0.1,0.3,0.4,0.7,1.4,1c1,0.2,2.5,0.2,2.5-0.1
							C74.5,61.2,73,60.4,72,60.2z"/>
					</g>
				</g>
				<g>
					<g>
						<path class="st5" d="M65.5,61c-0.1-0.1-0.4-0.1-0.7,0c-0.3,0.1-0.7,0.5-0.8,1c-0.2,0.5-0.1,1.3,0.1,1.8
							c0.2,0.5,0.6,0.8,0.7,0.7c0.2-0.1,0.2-0.4,0.3-0.9c0.1-0.4,0.3-0.9,0.4-1.3C65.8,61.7,65.7,61.2,65.5,61z"/>
					</g>
				</g>
			</g>
			<g>
				<path class="st4" d="M58.7,53c0.4,0,0.8,0,1.2,0.1c0.8,0,1.6,0.1,2.4,0.2c3,0.3,5.9,0.9,8.8,1.8c0.2,0.1,0.5,0.2,0.7,0.2
					c1,0.3,1.9,0.7,2.8,1.1c0.4,0.2,0.7,0.3,1.1,0.5c0.1,0.1,0.3,0.1,0.4,0.2c1.5,0.8,3,1.7,3.9,3c0.7,0.9,1.1,2,1.4,3.1
					c0.1,0.2,0.1,0.4,0.2,0.7c0.2,0.6,0.4,1.1,0.5,1.7c0.3,1,0.6,1.9,0.8,2.9c1.1-1,2-2.2,2.5-3.4c0.5-1.2,0.4-2.9,0.2-4.2
					C84.6,51.6,68.8,49.5,58.7,53z"/>
			</g>
		</g>
		<g>
			<path class="st6" d="M70.4,61.2c0-0.7-0.1-1.4-0.3-2.2c-0.2-0.6-0.4-1.3-0.7-1.9c-0.1-0.2-0.2-0.3-0.3-0.5c-0.6-1-1.3-2-2.2-2.7
				c-0.6-0.5-1.3-0.9-2-1.1c-1.2-0.4-2.3-0.4-3.4-0.2c0,0-0.1,0-0.1,0c-0.3,0.1-0.7,0.2-1,0.3C60.2,53,60.1,53,60,53
				c-1.9,0.7-3.7,2.1-5,3.5c0,0,0,0-0.1,0.1c-0.4,0.4-0.8,0.9-1.2,1.3c-0.1,0.1-0.2,0.2-0.2,0.3c-0.8,0.9-1.5,1.8-2.2,2.7
				c-0.3,0.4-0.6,0.8-0.9,1.3c0,0.2,0,0.4,0.1,0.6c0,0.3,0.1,0.6,0.2,0.9c0,0.2,0,0.4,0,0.7c0.1,1.3,0.7,2.4,1.6,3.5
				c0.4,0.5,1,1,1.5,1.4c0.1,0.1,0.2,0.2,0.4,0.3c1.2,1,2.8,1.8,4.5,2.4c0.2,0.1,0.3,0.1,0.5,0.1c0.4-0.1,0.8-0.3,1.1-0.5
				c0.6-0.3,1.2-0.6,1.8-0.9c0.4-0.2,0.8-0.4,1.2-0.7c0.2-0.1,0.4-0.3,0.7-0.4c0.3-0.2,0.6-0.4,0.9-0.6c0.2-0.1,0.3-0.2,0.5-0.3
				c0.9-0.6,1.8-1.3,2.5-2.1c0.6-0.6,1-1.2,1.4-1.9c0.2-0.4,0.4-0.8,0.6-1.2c0-0.1,0-0.1,0.1-0.2c0,0,0,0,0-0.1
				c0.1-0.3,0.2-0.5,0.2-0.8c0.1-0.4,0.1-0.8,0.1-1.2C70.4,61.2,70.4,61.2,70.4,61.2z"/>
		</g>
		<g>
			<g>
				<g>
					<path class="st0" d="M41.9,50.4c-5.2,1.8-8.9,5.1-8.3,9.8c0,0.3,0.1,0.6,0.2,0.9c0,0.2,0,0.4,0,0.7c0.1,1.3,0.7,2.4,1.6,3.5
						c0.4,0.5,1,1,1.5,1.4c0.1,0.1,0.2,0.2,0.4,0.3c1.2,1,2.8,1.8,4.5,2.4c0.6,0.2,1.2,0.4,1.8,0.5c1.2,0.3,2.4,0.5,3.7,0.7
						c0.6,0.1,1.2,0.1,1.9,0.1c1.2,0.1,2.5,0.1,3.8,0c1.3-0.1,2.5-0.2,3.7-0.4c0.8-0.1,1.5-0.3,2.2-0.5c2.1-0.6,4-1.4,5.6-2.5
						c0.6-0.4,1.1-0.8,1.6-1.2c0,0,0.1-0.1,0.1-0.1c1.1-1,2-2.2,2.5-3.4c0.5-1.2,0.4-2.9,0.2-4.2C67.8,49.1,52,46.9,41.9,50.4z"/>
				</g>
				<g>
					<path class="st1" d="M41.5,65.7c0.2,1.1,0.3,2.4,0.4,3.6c0.6,0.2,1.2,0.4,1.8,0.5c-0.2-1.4-0.7-2.9-1-4.2
						C42.5,65,41.4,65,41.5,65.7z"/>
				</g>
				<g>
					<path class="st1" d="M48,66.1c-0.1-0.3-0.7-0.3-0.7,0c-0.1,1.3,0,2.6,0.1,3.9c0,0.2,0,0.3,0,0.5c0.6,0.1,1.2,0.1,1.9,0.1
						c0-0.2-0.1-0.4-0.1-0.6C48.9,68.7,48.6,67.3,48,66.1z"/>
				</g>
				<g>
					<path class="st1" d="M57.6,65.6c-0.2-0.3-0.7-0.2-0.8,0.1c-0.4,1.2-0.2,2.5-0.1,3.7c0,0.3,0,0.5,0.1,0.8
						c0.8-0.1,1.5-0.3,2.2-0.5c-0.1-0.3-0.1-0.5-0.2-0.8C58.5,67.8,58.3,66.6,57.6,65.6z"/>
				</g>
				<g>
					<path class="st1" d="M63.6,62.2c0.2,1.2,0.5,2.4,0.8,3.6c0.1,0.5,0.1,1,0.3,1.5c0.6-0.4,1.1-0.8,1.6-1.2
						c-0.3-1.5-1.1-2.9-1.9-4C64.1,61.7,63.5,61.8,63.6,62.2z"/>
				</g>
				<g>
					<path class="st1" d="M35.5,62c0,1,0,2.2,0,3.3c0.4,0.5,1,1,1.5,1.4c0.1,0.1,0.2,0.2,0.4,0.3c0.2-1.6-0.3-3.5-0.5-5
						C36.9,61.1,35.5,61.1,35.5,62z"/>
				</g>
				<g>
					<path class="st2" d="M50.3,49.3c-9.2,0.5-16.5,4.6-15.8,9.8c0.7,5.2,8.7,9,17.9,8.5c9.2-0.5,16.1-5.1,15.5-10.3
						C67.2,52.1,59.5,48.8,50.3,49.3z"/>
				</g>
				<g>
					<path class="st3" d="M50.4,50.1c-8.4,0.5-15.1,4.1-14.5,8.7c0.6,4.6,7.9,7.9,16.3,7.5c8.4-0.5,14.8-4.5,14.2-9.1
						C65.8,52.5,58.8,49.6,50.4,50.1z"/>
				</g>
				<g>
					<path class="st4" d="M50,53.2c-0.1-0.4-0.5-0.8-0.9-1c-0.3-0.1-0.6-0.1-0.9-0.1c-0.2,0-0.4,0.1-0.7,0.1
						c-2.3,0.5-5.6,2.1-4.8,4.4c0.4,1.3,2.4,1.3,3.6,1.5c1.3,0.2,3.2,0.3,4.3-0.5c0.4-0.3,0.5-0.9,0.3-1.4
						C50.5,55.2,50.3,54.2,50,53.2z"/>
				</g>
				<g>
					<path class="st4" d="M50.5,57.8c-1.3,0.1-1.8,0.9-2.6,1.6c-1.4,1.1-3.2,1.7-1.2,3.2c0,0,0.1,0,0.1,0.1c2,1.5,3.6,1.6,6.1,1.3
						c1.4-0.1,2.4-0.9,2.5-2.2C55.4,59.7,52.7,57.5,50.5,57.8z"/>
				</g>
				<g>
					<path class="st4" d="M55,52.4c-1.8,0.2-2.5,2.4-3.1,3.7c-0.2,0.4-0.3,0.8-0.1,1.2c0.1,0.2,0.2,0.3,0.4,0.4
						c1.2,1,2.1,1.4,3.7,1.4c1.1,0,3.1-0.2,3.8-1c0.1-0.1,0.2-0.2,0.2-0.4c0.2-0.4,0.1-1-0.1-1.4C59.3,54.3,57.5,52.1,55,52.4z"/>
				</g>
				<g>
					<g>
						<path class="st5" d="M54,55.2c-0.3,0.2-0.3,0.7,0,1.2c0.4,0.6,1.1,1.4,1.4,1.3c0.3-0.1,0.3-1.3-0.1-2C54.8,55,54.2,55,54,55.2
							z"/>
					</g>
				</g>
				<g>
					<g>
						<path class="st5" d="M57,53c-1.1-0.7-1.7-0.6-1.9-0.3c-0.2,0.3,0.2,0.8,1.1,1.5c0.9,0.6,2.1,1.6,2.4,1.4
							c0.1-0.1,0-0.5-0.3-1.1C58,54,57.5,53.4,57,53z"/>
					</g>
				</g>
				<g>
					<g>
						<path class="st5" d="M58.6,56c-0.9,0.5-1.9,1.5-1.7,1.7c0.2,0.2,1.8-0.1,2.7-0.6c0.9-0.5,1-1,0.8-1.3
							C60.2,55.6,59.5,55.5,58.6,56z"/>
					</g>
				</g>
				<g>
					<g>
						<path class="st5" d="M51.7,58.7c-0.7-0.7-1.3-0.8-1.6-0.6c-0.3,0.2-0.2,0.8,0.6,1.6c0.8,0.8,2.3,1.4,2.5,1.2
							C53.4,60.7,52.4,59.5,51.7,58.7z"/>
					</g>
				</g>
				<g>
					<g>
						<path class="st5" d="M49.4,60.5c-0.6-0.5-1.2-0.4-1.4-0.2c-0.2,0.2-0.2,0.8,0.6,1.3c0.7,0.6,2,0.8,2.2,0.6
							C50.9,61.9,50,61,49.4,60.5z"/>
					</g>
				</g>
				<g>
					<g>
						<path class="st5" d="M53,60.9c-0.7,0.3-0.9,0.8-0.8,1c0.1,0.3,0.7,0.5,1.6,0.1c0.9-0.3,1.7-1.2,1.5-1.5
							C55.1,60.4,53.8,60.6,53,60.9z"/>
					</g>
				</g>
				<g>
					<g>
						<path class="st5" d="M46.7,53.2c-0.3,0-0.6,0.5-0.5,1.2c0.1,0.7,0.4,1.8,0.7,1.8c0.4,0.1,0.9-1.2,0.8-2
							C47.6,53.4,47.1,53.2,46.7,53.2z"/>
					</g>
				</g>
				<g>
					<g>
						<path class="st5" d="M48.8,53.6c-0.3,0.1-0.5,0.7-0.2,1.7c0.3,1,1.1,2.3,1.5,2.2c0.3-0.1,0.3-1.7,0-2.7
							C49.7,53.8,49.1,53.5,48.8,53.6z"/>
					</g>
				</g>
				<g>
					<g>
						<path class="st5" d="M44.8,54.4c-0.7-0.6-1.3-0.6-1.6-0.4c-0.2,0.2-0.1,0.8,0.6,1.4c0.7,0.6,2,1.3,2.2,1.1
							C46.3,56.4,45.5,55.1,44.8,54.4z"/>
					</g>
				</g>
				<g>
					<g>
						<path class="st5" d="M47,57.2c-0.7,0-1.5-0.1-2.2-0.1c-1.3-0.1-1.9,0.2-1.9,0.5c-0.1,0.3,0.7,0.8,2.2,0.9
							c0.8,0,1.6-0.1,2.3-0.3c0.6-0.2,1-0.5,1-0.7C48.3,57.3,47.7,57.3,47,57.2z"/>
					</g>
				</g>
				<g>
					<g>
						<path class="st5" d="M53,53.6c-0.3-0.1-0.9,0.3-0.9,1.2C52,55.8,52.6,57,53,56.9c0.2,0,0.3-0.4,0.4-0.8
							c0.1-0.4,0.2-0.9,0.3-1.3C53.7,54.1,53.4,53.7,53,53.6z"/>
					</g>
				</g>
				<g>
					<g>
						<path class="st5" d="M55.2,57.7c-1-0.2-1.5,0.1-1.6,0.4c-0.1,0.3,0.4,0.7,1.4,1c1,0.2,2.5,0.2,2.5-0.1
							C57.7,58.6,56.2,57.9,55.2,57.7z"/>
					</g>
				</g>
				<g>
					<g>
						<path class="st5" d="M48.7,58.5c-0.1-0.1-0.4-0.1-0.7,0c-0.3,0.1-0.7,0.5-0.8,1c-0.2,0.5-0.1,1.3,0.1,1.8
							c0.2,0.5,0.6,0.8,0.7,0.7c0.2-0.1,0.2-0.4,0.3-0.9c0.1-0.4,0.3-0.9,0.4-1.3C49,59.2,48.9,58.7,48.7,58.5z"/>
					</g>
				</g>
			</g>
			<g>
				<path class="st4" d="M41.9,50.4c0.4,0,0.8,0,1.2,0.1c0.8,0,1.6,0.1,2.4,0.2c3,0.3,5.9,0.9,8.8,1.8c0.2,0.1,0.5,0.2,0.7,0.2
					c1,0.3,1.9,0.7,2.8,1.1c0.4,0.2,0.7,0.3,1.1,0.5c0.1,0.1,0.3,0.1,0.4,0.2c1.5,0.8,3,1.7,3.9,3c0.7,0.9,1.1,2,1.4,3.1
					c0.1,0.2,0.1,0.4,0.2,0.7c0.2,0.6,0.4,1.1,0.5,1.7c0.3,1,0.6,1.9,0.8,2.9c1.1-1,2-2.2,2.5-3.4c0.5-1.2,0.4-2.9,0.2-4.2
					C67.8,49.1,52,46.9,41.9,50.4z"/>
			</g>
		</g>
		<g>
			<path class="st7" d="M50,64.6c-3.1-1-6.3-1.1-8.3-4c-1.6-2.3-1.4-8.2,2.8-8.2c0.4,0,0.4-0.5,0-0.6c-4.9-1.5-7.2,4.8-6.3,8
				c1.2,4.2,7.5,8.3,12.1,6.2C51.1,65.8,50.7,64.8,50,64.6z"/>
		</g>
	</g>
</g>
</svg>
