<?xml version="1.0" encoding="utf-8"?>
<!-- Generator: Adobe Illustrator 25.0.0, SVG Export Plug-In . SVG Version: 6.00 Build 0)  -->
<svg version="1.1"
	 id="svg2" inkscape:version="0.48+devel r9935" sodipodi:docname="Documento nuevo 1" xmlns:cc="http://creativecommons.org/ns#" xmlns:dc="http://purl.org/dc/elements/1.1/" xmlns:inkscape="http://www.inkscape.org/namespaces/inkscape" xmlns:ns1="http://sozi.baierouge.fr" xmlns:rdf="http://www.w3.org/1999/02/22-rdf-syntax-ns#" xmlns:sodipodi="http://sodipodi.sourceforge.net/DTD/sodipodi-0.dtd" xmlns:svg="http://www.w3.org/2000/svg"
	 xmlns="http://www.w3.org/2000/svg" xmlns:xlink="http://www.w3.org/1999/xlink" x="0px" y="0px" viewBox="0 0 144.3 134.8"
	 style="enable-background:new 0 0 144.3 134.8;" xml:space="preserve">
<style type="text/css">
	.st0{fill:url(#SVGID_1_);}
	.st1{opacity:0.5;fill:#CCBAA7;}
	.st2{fill:url(#SVGID_2_);}
	.st3{fill:url(#SVGID_3_);}
	.st4{opacity:0.23;fill:#FFF0DB;}
	.st5{opacity:0.31;fill:#FFF0DB;}
	.st6{fill:url(#SVGID_4_);}
	.st7{opacity:0.31;fill:#C98677;}
	.st8{fill:url(#SVGID_5_);}
	.st9{fill:url(#SVGID_6_);}
	.st10{opacity:0.35;fill:#BD7261;}
	.st11{opacity:0.31;fill:#AB614F;}
	.st12{fill:url(#SVGID_7_);}
	.st13{fill:url(#SVGID_8_);}
	.st14{opacity:0.5;fill:#CCB39F;}
	.st15{opacity:0.29;fill:url(#SVGID_9_);}
	.st16{opacity:0.25;fill:#F0E2CE;}
	.st17{opacity:0.5;fill:#B57643;}
	.st18{fill:url(#SVGID_10_);}
	.st19{opacity:0.24;fill:#CF7945;}
	.st20{opacity:0.31;fill:#A34D3A;}
	.st21{opacity:0.31;fill:#CC7F5B;}
	.st22{clip-path:url(#SVGID_12_);}
	.st23{clip-path:url(#SVGID_12_);fill:#010101;}
	.st24{clip-path:url(#SVGID_12_);fill:#030302;}
	.st25{clip-path:url(#SVGID_12_);fill:#040403;}
	.st26{clip-path:url(#SVGID_12_);fill:#060604;}
	.st27{clip-path:url(#SVGID_12_);fill:#070706;}
	.st28{clip-path:url(#SVGID_12_);fill:#080807;}
	.st29{clip-path:url(#SVGID_12_);fill:#0A0A08;}
	.st30{clip-path:url(#SVGID_12_);fill:#0B0B09;}
	.st31{clip-path:url(#SVGID_12_);fill:#0D0C0A;}
	.st32{clip-path:url(#SVGID_12_);fill:#0E0E0B;}
	.st33{clip-path:url(#SVGID_12_);fill:#0F0F0C;}
	.st34{clip-path:url(#SVGID_12_);fill:#11110D;}
	.st35{clip-path:url(#SVGID_12_);fill:#12120E;}
	.st36{clip-path:url(#SVGID_12_);fill:#14130F;}
	.st37{clip-path:url(#SVGID_12_);fill:#151510;}
	.st38{clip-path:url(#SVGID_12_);fill:#161611;}
	.st39{clip-path:url(#SVGID_12_);fill:#181713;}
	.st40{clip-path:url(#SVGID_12_);fill:#191914;}
	.st41{clip-path:url(#SVGID_12_);fill:#1A1A15;}
	.st42{clip-path:url(#SVGID_12_);fill:#1C1B16;}
	.st43{clip-path:url(#SVGID_12_);fill:#1D1D17;}
	.st44{clip-path:url(#SVGID_12_);fill:#1F1E18;}
	.st45{clip-path:url(#SVGID_12_);fill:#201F19;}
	.st46{clip-path:url(#SVGID_12_);fill:#21211A;}
	.st47{clip-path:url(#SVGID_12_);fill:#23221B;}
	.st48{clip-path:url(#SVGID_12_);fill:#24231C;}
	.st49{clip-path:url(#SVGID_12_);fill:#25251D;}
	.st50{clip-path:url(#SVGID_12_);fill:#27261E;}
	.st51{clip-path:url(#SVGID_12_);fill:#28271F;}
	.st52{clip-path:url(#SVGID_12_);fill:#292920;}
	.st53{clip-path:url(#SVGID_12_);fill:#2B2A21;}
	.st54{clip-path:url(#SVGID_12_);fill:#2C2B22;}
	.st55{clip-path:url(#SVGID_12_);fill:#2D2D23;}
	.st56{clip-path:url(#SVGID_12_);fill:#2F2E25;}
	.st57{clip-path:url(#SVGID_12_);fill:#302F26;}
	.st58{clip-path:url(#SVGID_12_);fill:#313127;}
	.st59{clip-path:url(#SVGID_12_);fill:#333228;}
	.st60{clip-path:url(#SVGID_12_);fill:#343329;}
	.st61{clip-path:url(#SVGID_12_);fill:#35352A;}
	.st62{clip-path:url(#SVGID_12_);fill:#37362B;}
	.st63{clip-path:url(#SVGID_12_);fill:#38372C;}
	.st64{clip-path:url(#SVGID_12_);fill:#39382D;}
	.st65{clip-path:url(#SVGID_12_);fill:#3B3A2E;}
	.st66{clip-path:url(#SVGID_12_);fill:#3C3B2F;}
	.st67{clip-path:url(#SVGID_12_);fill:#3D3C30;}
	.st68{clip-path:url(#SVGID_12_);fill:#3F3E31;}
	.st69{clip-path:url(#SVGID_12_);fill:#403F32;}
	.st70{clip-path:url(#SVGID_12_);fill:#414033;}
	.st71{clip-path:url(#SVGID_12_);fill:#434134;}
	.st72{clip-path:url(#SVGID_12_);fill:#444335;}
	.st73{clip-path:url(#SVGID_12_);fill:#454436;}
	.st74{clip-path:url(#SVGID_12_);fill:#464537;}
	.st75{clip-path:url(#SVGID_12_);fill:#484738;}
	.st76{clip-path:url(#SVGID_12_);fill:#494839;}
	.st77{clip-path:url(#SVGID_12_);fill:#4A493A;}
	.st78{clip-path:url(#SVGID_12_);fill:#4C4A3B;}
	.st79{clip-path:url(#SVGID_12_);fill:#4D4C3C;}
	.st80{clip-path:url(#SVGID_12_);fill:#4E4D3D;}
	.st81{clip-path:url(#SVGID_12_);fill:#4F4E3E;}
	.st82{clip-path:url(#SVGID_12_);fill:#514F3F;}
	.st83{clip-path:url(#SVGID_12_);fill:#525140;}
	.st84{clip-path:url(#SVGID_12_);fill:#535241;}
	.st85{clip-path:url(#SVGID_12_);fill:#545342;}
	.st86{clip-path:url(#SVGID_12_);fill:#565443;}
	.st87{clip-path:url(#SVGID_12_);fill:#575644;}
	.st88{clip-path:url(#SVGID_12_);fill:#585745;}
	.st89{clip-path:url(#SVGID_12_);fill:#595846;}
	.st90{clip-path:url(#SVGID_12_);fill:#5B5947;}
	.st91{clip-path:url(#SVGID_12_);fill:#5C5A48;}
	.st92{clip-path:url(#SVGID_12_);fill:#5D5C49;}
	.st93{clip-path:url(#SVGID_12_);fill:#5E5D4A;}
	.st94{clip-path:url(#SVGID_12_);fill:#605E4B;}
	.st95{clip-path:url(#SVGID_12_);fill:#615F4C;}
	.st96{clip-path:url(#SVGID_12_);fill:#62614D;}
	.st97{clip-path:url(#SVGID_12_);fill:#63624E;}
	.st98{clip-path:url(#SVGID_12_);fill:#65634E;}
	.st99{clip-path:url(#SVGID_12_);fill:#66644F;}
	.st100{clip-path:url(#SVGID_12_);fill:#676550;}
	.st101{clip-path:url(#SVGID_12_);fill:#686751;}
	.st102{clip-path:url(#SVGID_12_);fill:#696852;}
	.st103{clip-path:url(#SVGID_12_);fill:#6B6953;}
	.st104{clip-path:url(#SVGID_12_);fill:#6C6A54;}
	.st105{clip-path:url(#SVGID_12_);fill:#6D6B55;}
	.st106{clip-path:url(#SVGID_12_);fill:#6E6D56;}
	.st107{clip-path:url(#SVGID_12_);fill:#6F6E57;}
	.st108{clip-path:url(#SVGID_12_);fill:#716F58;}
	.st109{clip-path:url(#SVGID_12_);fill:#727059;}
	.st110{clip-path:url(#SVGID_12_);fill:#73715A;}
	.st111{clip-path:url(#SVGID_12_);fill:#74725B;}
	.st112{clip-path:url(#SVGID_12_);fill:#75745C;}
	.st113{clip-path:url(#SVGID_12_);fill:#77755D;}
	.st114{clip-path:url(#SVGID_12_);fill:#78765D;}
	.st115{clip-path:url(#SVGID_12_);fill:#79775E;}
	.st116{clip-path:url(#SVGID_12_);fill:#7A785F;}
	.st117{clip-path:url(#SVGID_12_);fill:#7B7960;}
	.st118{clip-path:url(#SVGID_12_);fill:#7C7B61;}
	.st119{clip-path:url(#SVGID_12_);fill:#7E7C62;}
	.st120{clip-path:url(#SVGID_12_);fill:#7F7D63;}
	.st121{clip-path:url(#SVGID_12_);fill:#807E64;}
	.st122{clip-path:url(#SVGID_12_);fill:#817F65;}
	.st123{clip-path:url(#SVGID_12_);fill:#828066;}
	.st124{clip-path:url(#SVGID_12_);fill:#838167;}
	.st125{clip-path:url(#SVGID_12_);fill:#858267;}
	.st126{clip-path:url(#SVGID_12_);fill:#868468;}
	.st127{clip-path:url(#SVGID_12_);fill:#878569;}
	.st128{clip-path:url(#SVGID_12_);fill:#88866A;}
	.st129{clip-path:url(#SVGID_12_);fill:#89876B;}
	.st130{clip-path:url(#SVGID_12_);fill:#8A886C;}
	.st131{clip-path:url(#SVGID_12_);fill:#8B896D;}
	.st132{clip-path:url(#SVGID_12_);fill:#8C8A6E;}
	.st133{clip-path:url(#SVGID_12_);fill:#8E8B6F;}
	.st134{clip-path:url(#SVGID_12_);fill:#8F8C6F;}
	.st135{clip-path:url(#SVGID_12_);fill:#908E70;}
	.st136{clip-path:url(#SVGID_12_);fill:#918F71;}
	.st137{clip-path:url(#SVGID_12_);fill:#929072;}
	.st138{clip-path:url(#SVGID_12_);fill:#939173;}
	.st139{clip-path:url(#SVGID_12_);fill:#949274;}
	.st140{clip-path:url(#SVGID_12_);fill:#959375;}
	.st141{clip-path:url(#SVGID_12_);fill:#969475;}
	.st142{clip-path:url(#SVGID_12_);fill:#989576;}
	.st143{clip-path:url(#SVGID_12_);fill:#999677;}
	.st144{clip-path:url(#SVGID_12_);fill:#9A9778;}
	.st145{clip-path:url(#SVGID_12_);fill:#9B9879;}
	.st146{clip-path:url(#SVGID_12_);fill:#9C997A;}
	.st147{clip-path:url(#SVGID_12_);fill:#9D9A7A;}
	.st148{clip-path:url(#SVGID_12_);fill:#9E9C7B;}
	.st149{clip-path:url(#SVGID_12_);fill:#9F9D7C;}
	.st150{clip-path:url(#SVGID_12_);fill:#A09E7D;}
	.st151{clip-path:url(#SVGID_12_);fill:#A19F7E;}
	.st152{clip-path:url(#SVGID_12_);fill:#A2A07F;}
	.st153{clip-path:url(#SVGID_12_);fill:#A3A17F;}
	.st154{clip-path:url(#SVGID_12_);fill:#A4A280;}
	.st155{clip-path:url(#SVGID_12_);fill:#A5A381;}
	.st156{clip-path:url(#SVGID_12_);fill:#A6A482;}
	.st157{clip-path:url(#SVGID_12_);fill:#A7A583;}
	.st158{clip-path:url(#SVGID_12_);fill:#A9A684;}
	.st159{clip-path:url(#SVGID_12_);fill:#AAA784;}
	.st160{clip-path:url(#SVGID_12_);fill:#ABA885;}
	.st161{clip-path:url(#SVGID_12_);fill:#ACA986;}
	.st162{clip-path:url(#SVGID_12_);fill:#ADAA87;}
	.st163{clip-path:url(#SVGID_12_);fill:#AEAB88;}
	.st164{clip-path:url(#SVGID_12_);fill:#AFAC88;}
	.st165{clip-path:url(#SVGID_12_);fill:#B0AD89;}
	.st166{clip-path:url(#SVGID_12_);fill:#B1AE8A;}
	.st167{clip-path:url(#SVGID_12_);fill:#B2AF8B;}
	.st168{clip-path:url(#SVGID_12_);fill:#B3B08B;}
	.st169{clip-path:url(#SVGID_12_);fill:#B4B18C;}
	.st170{clip-path:url(#SVGID_12_);fill:#B5B28D;}
	.st171{clip-path:url(#SVGID_12_);fill:#B6B38E;}
	.st172{clip-path:url(#SVGID_12_);fill:#B7B48F;}
	.st173{clip-path:url(#SVGID_12_);fill:#B8B58F;}
	.st174{clip-path:url(#SVGID_12_);fill:#B9B690;}
	.st175{clip-path:url(#SVGID_12_);fill:#BAB791;}
	.st176{clip-path:url(#SVGID_12_);fill:#BBB892;}
	.st177{clip-path:url(#SVGID_12_);fill:#BBB992;}
	.st178{clip-path:url(#SVGID_12_);fill:#BCB993;}
	.st179{clip-path:url(#SVGID_12_);fill:#BDBA94;}
	.st180{clip-path:url(#SVGID_12_);fill:#BEBB95;}
	.st181{clip-path:url(#SVGID_12_);fill:#BFBC95;}
	.st182{clip-path:url(#SVGID_12_);fill:#C0BD96;}
	.st183{clip-path:url(#SVGID_12_);fill:#C1BE97;}
	.st184{clip-path:url(#SVGID_12_);fill:#C2BF97;}
	.st185{clip-path:url(#SVGID_12_);fill:#C3C098;}
	.st186{clip-path:url(#SVGID_12_);fill:#C4C199;}
	.st187{clip-path:url(#SVGID_12_);fill:#C5C29A;}
	.st188{clip-path:url(#SVGID_12_);fill:#C6C39A;}
	.st189{clip-path:url(#SVGID_12_);fill:#C7C49B;}
	.st190{clip-path:url(#SVGID_12_);fill:#C8C59C;}
	.st191{clip-path:url(#SVGID_12_);fill:#C9C59D;}
	.st192{clip-path:url(#SVGID_12_);fill:#C9C69D;}
	.st193{clip-path:url(#SVGID_12_);fill:#CAC79E;}
	.st194{clip-path:url(#SVGID_12_);fill:#CBC89F;}
	.st195{clip-path:url(#SVGID_12_);fill:#CCC99F;}
	.st196{clip-path:url(#SVGID_12_);fill:#CDCAA0;}
	.st197{clip-path:url(#SVGID_12_);fill:#CECBA1;}
	.st198{clip-path:url(#SVGID_12_);fill:#CFCCA1;}
	.st199{clip-path:url(#SVGID_12_);fill:#D0CCA2;}
	.st200{clip-path:url(#SVGID_12_);fill:#D1CDA3;}
	.st201{clip-path:url(#SVGID_12_);fill:#D1CEA3;}
	.st202{clip-path:url(#SVGID_12_);fill:#D2CFA4;}
	.st203{clip-path:url(#SVGID_12_);fill:#D3D0A5;}
	.st204{clip-path:url(#SVGID_12_);fill:#D4D1A5;}
	.st205{clip-path:url(#SVGID_12_);fill:#D5D1A6;}
	.st206{clip-path:url(#SVGID_12_);fill:#D6D2A7;}
	.st207{clip-path:url(#SVGID_12_);fill:#D6D3A7;}
	.st208{clip-path:url(#SVGID_12_);fill:#D7D4A8;}
	.st209{clip-path:url(#SVGID_12_);fill:#D8D5A9;}
	.st210{clip-path:url(#SVGID_12_);fill:#D9D5A9;}
	.st211{clip-path:url(#SVGID_12_);fill:#DAD6AA;}
	.st212{clip-path:url(#SVGID_12_);fill:#DBD7AB;}
	.st213{clip-path:url(#SVGID_12_);fill:#DBD8AB;}
	.st214{clip-path:url(#SVGID_12_);fill:#DCD9AC;}
	.st215{clip-path:url(#SVGID_12_);fill:#DDD9AC;}
	.st216{clip-path:url(#SVGID_12_);fill:#DEDAAD;}
	.st217{clip-path:url(#SVGID_12_);fill:#DEDBAE;}
	.st218{clip-path:url(#SVGID_12_);fill:#DFDCAE;}
	.st219{clip-path:url(#SVGID_12_);fill:#E0DDAF;}
	.st220{clip-path:url(#SVGID_12_);fill:#E1DDAF;}
	.st221{clip-path:url(#SVGID_12_);fill:#E2DEB0;}
	.st222{clip-path:url(#SVGID_12_);fill:#E2DFB1;}
	.st223{clip-path:url(#SVGID_12_);fill:#E3DFB1;}
	.st224{clip-path:url(#SVGID_12_);fill:#E4E0B2;}
	.st225{clip-path:url(#SVGID_12_);fill:#E5E1B2;}
	.st226{clip-path:url(#SVGID_12_);fill:#E5E2B3;}
	.st227{clip-path:url(#SVGID_12_);fill:#E6E2B3;}
	.st228{clip-path:url(#SVGID_12_);fill:#E7E3B4;}
	.st229{clip-path:url(#SVGID_12_);fill:#E7E4B5;}
	.st230{clip-path:url(#SVGID_12_);fill:#E8E4B5;}
	.st231{clip-path:url(#SVGID_12_);fill:#E9E5B6;}
	.st232{clip-path:url(#SVGID_12_);fill:#E9E6B6;}
	.st233{clip-path:url(#SVGID_12_);fill:#EAE7B7;}
	.st234{clip-path:url(#SVGID_12_);fill:#EBE7B7;}
	.st235{clip-path:url(#SVGID_12_);fill:#ECE8B8;}
	.st236{clip-path:url(#SVGID_12_);fill:#EDE9B9;}
	.st237{clip-path:url(#SVGID_12_);fill:#EEEAB9;}
	.st238{clip-path:url(#SVGID_12_);fill:#EEEABA;}
	.st239{clip-path:url(#SVGID_12_);fill:#EFEBBA;}
	.st240{clip-path:url(#SVGID_12_);fill:#EFECBB;}
	.st241{clip-path:url(#SVGID_12_);fill:#F0ECBB;}
	.st242{clip-path:url(#SVGID_12_);fill:#F1EDBC;}
	.st243{clip-path:url(#SVGID_12_);fill:#F2EEBD;}
	.st244{clip-path:url(#SVGID_12_);fill:#F2EFBD;}
	.st245{clip-path:url(#SVGID_12_);fill:#F3EFBE;}
	.st246{clip-path:url(#SVGID_12_);fill:#F4F0BE;}
	.st247{clip-path:url(#SVGID_12_);fill:#F4F0BF;}
	.st248{clip-path:url(#SVGID_12_);fill:#F5F1BF;}
	.st249{clip-path:url(#SVGID_12_);fill:#F6F2C0;}
	.st250{clip-path:url(#SVGID_12_);fill:#F6F3C0;}
	.st251{clip-path:url(#SVGID_12_);fill:#F7F3C1;}
	.st252{clip-path:url(#SVGID_12_);fill:#F7F4C1;}
	.st253{clip-path:url(#SVGID_12_);fill:#F8F4C1;}
	.st254{clip-path:url(#SVGID_12_);fill:#F8F5C2;}
	.st255{clip-path:url(#SVGID_12_);fill:#F9F5C2;}
	.st256{clip-path:url(#SVGID_12_);fill:#F9F5C3;}
	.st257{clip-path:url(#SVGID_12_);fill:#FAF6C3;}
	.st258{clip-path:url(#SVGID_12_);fill:#FBF7C4;}
	.st259{clip-path:url(#SVGID_12_);fill:#FCF8C4;}
	.st260{clip-path:url(#SVGID_12_);fill:#FCF8C5;}
	.st261{clip-path:url(#SVGID_12_);fill:#FDF9C5;}
	.st262{clip-path:url(#SVGID_12_);fill:#FDF9C6;}
	.st263{clip-path:url(#SVGID_12_);fill:#FEFAC6;}
	.st264{clip-path:url(#SVGID_12_);fill:#FFFBC7;}
</style>
<sodipodi:namedview  bordercolor="#666666" borderopacity="1.0" id="base" inkscape:current-layer="layer1" inkscape:cx="273.52498" inkscape:cy="614.84559" inkscape:document-units="px" inkscape:pageopacity="0.0" inkscape:pageshadow="2" inkscape:window-height="787" inkscape:window-maximized="0" inkscape:window-width="1440" inkscape:window-x="0" inkscape:window-y="0" inkscape:zoom="0.42014768" pagecolor="#ffffff" showgrid="false">
	</sodipodi:namedview>
<g>
	<linearGradient id="SVGID_1_" gradientUnits="userSpaceOnUse" x1="38.4297" y1="55.8786" x2="106.5569" y2="55.8786">
		<stop  offset="0" style="stop-color:#CCB7A7"/>
		<stop  offset="1" style="stop-color:#F0E2CE"/>
	</linearGradient>
	<path class="st0" d="M72.5,39.9c18.8,0,34.1,6.2,34.1,13.8c0,7.6-15.3,18.2-34.1,18.2c-18.8,0-34.1-10.6-34.1-18.2
		C38.4,46.1,53.7,39.9,72.5,39.9z"/>
	<path class="st1" d="M38.4,53.7c0,3.3,2.9,7.2,7.6,10.5c1.9-3.3,3.3-6.9,3.6-10.1c0.5-5.2,1.6-8.8,2.9-11.5
		C44,45,38.4,49.1,38.4,53.7z"/>
	
		<linearGradient id="SVGID_2_" gradientUnits="userSpaceOnUse" x1="98.564" y1="28.8291" x2="163.2437" y2="28.8291" gradientTransform="matrix(0.9921 -1.200000e-03 5.160000e-02 1.0079 -20.9781 -3.4189)">
		<stop  offset="0" style="stop-color:#E8D7BF"/>
		<stop  offset="0.2406" style="stop-color:#DDC9B1"/>
		<stop  offset="0.6956" style="stop-color:#BFA48B"/>
		<stop  offset="1" style="stop-color:#A8886F"/>
	</linearGradient>
	<path class="st2" d="M140.4,5.8c-2.5-4.6-8.4-6.3-17.1-4c-8.6,2.3-17.8,14-23.7,21.8c-5.8,7.8-15,16.1-20.5,18.4
		c0,0,1.1,0.5,2.8,1.1c-0.9,0.6-1.8,1.1-2.6,1.4c0,0,20,8.6,20.8,4.4c0.8-4.2,14.6-15.3,26.1-22c10.4-6,15.9-10.7,15.4-16.5
		C141.6,8.3,141.2,7.3,140.4,5.8z"/>
	
		<linearGradient id="SVGID_3_" gradientUnits="userSpaceOnUse" x1="98.564" y1="27.5828" x2="162.9439" y2="27.5828" gradientTransform="matrix(0.9921 -1.200000e-03 5.160000e-02 1.0079 -20.9781 -3.4189)">
		<stop  offset="0" style="stop-color:#F0E2CE"/>
		<stop  offset="1" style="stop-color:#CCB7A7"/>
	</linearGradient>
	<path class="st3" d="M79.1,42.1c5.5-2.3,14.7-10.7,20.5-18.4c5.8-7.8,15-19.5,23.7-21.8c8.6-2.3,14.5-0.7,17.1,4
		c3.4,6.3-2.7,11.9-14.2,18.7c-11.5,6.7-25.3,17.8-26.1,22C99.2,50.7,79.1,42.1,79.1,42.1z"/>
	<path class="st4" d="M116.9,6.1c-2.7,1.9-9,7.5-9.5,11.9c-0.4,4.4,2.4,8.6,12.8,6.8s16.5-8.6,18.7-12.1c2.2-3.5,0.9-9.2-4.8-10.6
		C128.3,0.8,122,2.6,116.9,6.1z"/>
	<path class="st5" d="M135.4,3c-4.1-2.2-9.9-1.5-12.5-0.1c15-1.7,15.5,7,11.4,10.4c-4.4,3.7-14.7,9.7-22,14.7
		c-6.6,4.6-14.9,12.7-20.9,19.8c1.7,1,5.5-2.2,5.5-2.2c7-8.1,10.3-11.2,16.9-15.4c6.6-4.2,15.4-9.7,19.8-12.8
		C138,14.5,142.4,6.8,135.4,3z"/>
	<linearGradient id="SVGID_4_" gradientUnits="userSpaceOnUse" x1="19.9513" y1="88.0157" x2="40.0277" y2="111.9419">
		<stop  offset="0" style="stop-color:#D48B59"/>
		<stop  offset="1" style="stop-color:#9E583E"/>
	</linearGradient>
	<path class="st6" d="M39.4,76.3c-3.7,2.1-5.3,6.9-9.1,8.9c-0.8,0.4-1.7,0.7-2.4,1.3c-2,1.4-2.6,4.1-3.9,6.1
		c-2.3,3.6-6.8,5.1-11,5.8c-2.5,0.4-5.2,0.8-6.8,2.7c-1.2,1.6-1.4,3.9-2.9,5.2c-0.3,0.3-0.7,0.5-1,0.8c-0.5,0.5-0.8,1.3-1,2
		c-0.4,1.3-0.8,2.6-1.2,4c6.1,0.5,12.3,0.9,18.4,1.1c2.1,0.1,4.4,0.1,6.2-1.1c1.2-0.7,2.1-1.9,3.3-2.6c2.7-1.4,5.9-0.1,8.9,0
		c2.6,0.1,5.2-0.6,7.3-2.1c-1.2-2.2,0.6-5,2.8-6.3c2.2-1.3,4.8-1.9,6.7-3.5L43.7,76.7c4.8,0,8.8,3.9,12.2,7.4
		c-1.2-3.7-3.6-7-6.8-9.2c-3.2-2.1-7.4-3-11.1-1.9c-0.3,0.5,0.1,1.1,0.5,1.5c0.5,0.4,1,0.8,0.9,1.4L39.4,76.3z"/>
	<path class="st7" d="M47.1,102.2c0.3-0.2,0.6-0.3,1-0.5c0-0.1,0-0.1-0.1-0.2c-1.4-4-4.4-7.1-7.4-10.1c-0.6-0.6-1.2-1.2-1.8-1.9
		c-0.3-0.3-0.6-0.6-1.1-0.7c-0.5-0.1-0.9,0.2-1.3,0.5c-4.3,3.1-8.9,6.6-10.4,11.7c-0.2,0.6-0.3,1.2-0.6,1.7c-0.3,0.4-0.6,0.8-1,1.2
		c-2.6,2.5-6.1,4.1-9.6,4.6c-1.6,0.2-3.4,0.3-4.7,1.3c-1.2,0.9-1.8,2.5-2.6,3.8c3.7,0.2,7.3,0.4,11,0.5c2.1,0.1,4.4,0.1,6.2-1.1
		c1.2-0.7,2.1-1.9,3.3-2.6c2.7-1.4,5.9-0.1,8.9,0c2.6,0.1,5.2-0.6,7.3-2.1C43,106.2,44.8,103.4,47.1,102.2z"/>
	<linearGradient id="SVGID_5_" gradientUnits="userSpaceOnUse" x1="36.0863" y1="45.848" x2="108.8708" y2="45.848">
		<stop  offset="0" style="stop-color:#F0E2CE"/>
		<stop  offset="1" style="stop-color:#E3D8CF"/>
	</linearGradient>
	<path class="st8" d="M72.5,39.9c18.5,0,33.5,6,34,13.4c0.8-0.2,1.6-0.5,2.3-0.8c-1.8-7.9-17.4-14.1-36.4-14.1
		c-19,0-34.7,6.3-36.4,14.2c0.8-0.1,1.7-0.2,2.5-0.3C40.2,45.4,54.8,39.9,72.5,39.9z"/>
	<linearGradient id="SVGID_6_" gradientUnits="userSpaceOnUse" x1="64.2611" y1="48.7473" x2="93.7502" y2="73.4916">
		<stop  offset="0" style="stop-color:#D48B59"/>
		<stop  offset="1" style="stop-color:#9E583E"/>
	</linearGradient>
	<path class="st9" d="M39.6,68.3c-1.6-5.7,2.3-12.3,8-13.6c0.7-0.2,1.4-0.3,2-0.6c1.9-0.9,2.5-3.2,3.7-4.8c3.2-4.4,8.3-4.4,11.9-8.4
		c1.5-1.6,3.8-5.2,5.7-7c1.7-1.6,3.6-2.2,5.8-3.2c2.7-1.3,4.5-3.9,6.1-6.3c2.5,1.9,3.2,5.4,5.2,7.9c2.1,2.6,5.8,4,7.1,7.1
		c0.3,0.7,2.3,2.5,2.9,2.7c1.4,0.5,2.6,1.5,3.2,2.8c0.3,0.7,0.5,1.4,0.9,2.1c0.6,1,1.6,1.8,2.3,2.7c2.4,2.9,2.2,7,1.9,10.7
		c-0.1,1-0.2,2.1-0.6,3c-0.4,0.8-1,1.5-1.5,2.1c-4.5,5.1-9.3,10.3-15.7,12.6C82.1,80.1,75.1,79,68.3,79c-2.4,0-4.8,0.1-7-0.6
		c-3.8-1.2-6.6-4.5-9.6-7.1c-3-2.6-7-3.2-11-3.2L39.6,68.3z"/>
	<path class="st10" d="M47.1,102.2c0.5-0.3,0.9-0.5,1.4-0.7c-0.3-0.8-0.6-1.5-1-2.2c-2.1-3.7-5.6-6.4-9.1-8.7
		c-1.6,1.1-3.2,2.4-4.6,3.8c-1.2,1.2-2.3,2.9-1.6,4.4c0.8,1.6,3.3,1.6,4.6,2.9c0.5,0.5,0.8,1.3,1.3,1.8s1.5,0.8,2,0.2
		c0.5,1.1-0.7,2.2-1.9,2.7c-3.3,1.3-7.2,0.9-10.3-1c-0.7-0.5-1.5-1-2.3-1.1c-0.8-0.1-1.6,0.3-2.3,0.7c-1.4,0.8-2.9,1.5-4.3,2.3
		c-0.7,0.4-1.5,1.1-1.1,1.8c1.3,0,3,0.4,3.1,1.6c0.1,1.4-1.6,1.9-2.9,2.3c-0.6,0.2-1.3,0.6-1.7,1.1c0.7,0,1.3,0.1,2,0.1
		c2.1,0.1,4.4,0.1,6.2-1.1c1.2-0.7,2.1-1.9,3.3-2.6c2.7-1.4,5.9-0.1,8.9,0c2.6,0.1,5.2-0.6,7.3-2.1C43,106.2,44.8,103.4,47.1,102.2z
		"/>
	<path class="st7" d="M106.4,60.1c0.3-3.7,0.5-7.8-1.9-10.7c-0.8-0.9-1.7-1.6-2.3-2.7c-0.4-0.7-0.6-1.4-0.9-2.1
		c-0.6-1.3-1.8-2.3-3.2-2.8c-0.6-0.2-1.4-0.3-1.9-0.8c-0.6-0.5-0.7-1.3-1-2c-1.3-3.1-4.9-4.5-7.1-7.1c-2-2.4-2.7-5.9-5.1-7.8
		c-0.1,0.5-0.2,1.1-0.1,1.6c0.1,2.8,0.3,5.5,0.4,8.3c0.1,2.5,0,5-0.2,7.5C83,42.8,82.8,44,82.2,45c-1.9,2.9-7.3,2.6-7.9,6
		c-0.2,1,0.2,2-0.1,3c-0.4,1.3-1.7,2-2.8,2.6c-1.9,1-3.9,2-5.8,2.9c-0.9,0.5-1.8,0.9-2.5,1.7c-0.7,0.8-1,1.8-1.1,2.9
		c-0.4,3.3,1.1,6.4,2.5,9.4l5.5,0.9c5,3.5,11.6,3.7,17.5,2.3c2.6-0.6,5.2-1.5,7.8-2.4c3.3-2.5,6.2-5.7,9-8.9
		c0.6-0.7,1.2-1.3,1.5-2.1C106.2,62.2,106.3,61.2,106.4,60.1z"/>
	<path class="st11" d="M103.1,65.3c0.7-0.4,1.4-0.8,2.1-1.2c0.2-0.3,0.4-0.6,0.5-0.9c0.4-0.9,0.5-2,0.6-3c0.2-2.6,0.4-5.5-0.4-8
		c-0.4,1.2-0.5,2.6-1.2,3.6c-0.9,1.3-2.4,1.9-3.9,2.5c-2.7,1.1-2.7,2.8-5.5,1.9c-0.7-0.2-3.7,0.6-4.4,0.4c-1.2-0.2-4.4,1.9-5.5,2.4
		c-3.7,1.7-4.3,0.6-8.4,0.4c-1.4-0.1-3.5,1.5-4.8,1.8c-1,0.2-3.2-1.5-4.2-1.4c-1,0.1-4.5,0.9-5.5,0.7c-4.2-0.7-5.9-2.3-10.1-3
		c-2-0.3-4.1-0.7-5.6-2c-1.2-1-1.8-2.7-1.5-4.1c-4.5,2.3-7.2,7.9-5.8,12.8l1.1-0.2c4,0,8,0.5,11,3.2c1.2,1.1,2.4,2.3,3.7,3.4
		c3.3,0.3,6.6,0.2,9.8,0.1C78.3,74.1,91.5,71.4,103.1,65.3z"/>
	<linearGradient id="SVGID_7_" gradientUnits="userSpaceOnUse" x1="42.308" y1="59.7857" x2="109.1684" y2="95.6352">
		<stop  offset="0" style="stop-color:#F7E9D4"/>
		<stop  offset="1" style="stop-color:#C2AE9F"/>
	</linearGradient>
	<path class="st12" d="M35.9,54.1c0,8.7,16.4,15.7,36.6,15.7s36.6-7,36.6-15.7c0,4.4,0,33.4-0.1,33.8c-1,12-17,22.8-36.5,22.8
		c-19.4,0-35.3-10.7-36.5-22.6C35.9,87.7,35.9,58.5,35.9,54.1z"/>
	<linearGradient id="SVGID_8_" gradientUnits="userSpaceOnUse" x1="35.9224" y1="61.0907" x2="109.0554" y2="61.0907">
		<stop  offset="0" style="stop-color:#F0E2CE"/>
		<stop  offset="1" style="stop-color:#E3D8CF"/>
	</linearGradient>
	<path class="st13" d="M106.5,53.3c0,0.1,0,0.3,0,0.4c0,7.6-15.3,13.8-34.1,13.8c-18.8,0-34.1-6.2-34.1-13.8c0-0.4,0.1-0.9,0.2-1.3
		c-0.8,0.1-1.7,0.2-2.5,0.3c-0.1,0.5-0.2,1-0.2,1.4c0,0,0,0,0,0c0,8.7,16.4,15.7,36.6,15.7s36.6-7,36.6-15.7c0,0,0,0,0,0
		c0-0.5-0.1-1.1-0.2-1.6C108.1,52.8,107.3,53,106.5,53.3z"/>
	<path class="st14" d="M87.1,68.5c0.5,10.7,1.1,29.6-0.8,32.2c-1.7,2.4-18.7,11.4-40.2,2.3c6.7,4.6,16,7.7,26.3,7.7
		c13,0,24.5-4.8,31-11.6c0-14.2,0-28.1,0-36.7C99.6,65.1,93.9,67.2,87.1,68.5z"/>
	<linearGradient id="SVGID_9_" gradientUnits="userSpaceOnUse" x1="63.8753" y1="94.0353" x2="109.0319" y2="94.0353">
		<stop  offset="0" style="stop-color:#D48046"/>
		<stop  offset="1" style="stop-color:#9E4F31"/>
	</linearGradient>
	<path class="st15" d="M63.9,110c2.8,0.5,5.6,0.7,8.6,0.7c19.5,0,35.5-10.8,36.5-22.8c0-0.1,0-3.4,0-8c-1.2-0.7-2.3-1.3-3.5-2
		c-0.4-0.2-0.8-0.5-1.3-0.6c-2.1-0.4-3.5,2.1-4.4,4.1c-2.9,6.1-8.2,10.6-13.4,14.9c-0.7,0.6-1.5,1.2-2.4,1.5
		c-1.3,0.4-2.8,0.1-4.2,0.3c-2.6,0.2-4.8,1.9-6.7,3.6c-1.8,1.6-3.6,3.2-5.4,4.8C66.4,107.7,65.2,108.8,63.9,110z"/>
	<path class="st16" d="M39.1,61.8c-0.9,10.8-2.1,28.5-0.3,31.9c5.7,11,26.8,11.9,33,8.6c5.2-2.8,3.6-23.5,3-32
		c-1.1,0-2.1,0.1-3.2,0.1C57.5,70.3,45.2,66.8,39.1,61.8z"/>
	<path class="st17" d="M105.2,97.1c0.1-10.2-0.1-26.4-0.2-35.8c-2.6,2.2-6.4,4.1-11,5.5c0.6,11,1.2,31.7-0.1,33.9
		c-1.2,2-12.9,11.9-40.7,6.2c5.6,2.4,12.2,3.8,19.3,3.8C86.8,110.7,99.1,104.9,105.2,97.1z"/>
	<linearGradient id="SVGID_10_" gradientUnits="userSpaceOnUse" x1="84.2373" y1="98.6785" x2="114.1955" y2="134.3812">
		<stop  offset="0" style="stop-color:#D48B59"/>
		<stop  offset="1" style="stop-color:#9E583E"/>
	</linearGradient>
	<path class="st18" d="M59,131.5c-0.3-1,0.3-2.2,1.1-2.9c0.8-0.7,1.8-1.1,2.7-1.7c1.9-1.2,3.4-3,5-4.5c1.7-1.5,3-3.7,5.2-3.3
		c1,0.2,1.9-2,2.9-2c2.1,0,3.5-1.4,4.1-3.5c0.6-2.1,1.7-1.7,3.1-3.4c0.6-0.7,1.3-1.2,2-1.7c4-2.8,3.1-4.8,6.9-7.9
		c0.6-0.5,5.3-1.1,5.7-1.8c0.4-0.8,0.1-3.1,0.2-4c0.5-3.9,2.8-7.4,4.7-10.9c0.5-1,1.1-2,2-2.6c0.9-0.7,2.2-0.9,3.1-0.3
		c0.5,0.3,0.9,0.8,1.3,1.2c3.3,3.7,9,4.1,12.2,7.8c1.5,1.8,2.3,4.1,3.5,6.1c1.2,2,3.1,3.9,5.5,3.9c1.3,0,2.4-0.6,3.7-0.8
		c2.2-0.3,4.5,0.8,6.1,2.4c1.6,1.6,2.7,3.6,3.8,5.7c0.2,0.3,0.4,0.7,0.3,1.1c-0.1,0.4-0.4,0.7-0.6,0.9c-3.4,3.2-7.1,6-11.1,8.5
		c-0.7,0.4-1.5,0.9-2.3,0.9c-1,0-1.9-0.6-2.9-1c-2.1-0.7-4.4,0.3-6.1,1.7c-1.7,1.4-3,3.2-4.6,4.8c-3.5,3.5-8.2,5.4-13,6.2
		c-4.8,0.8-9.7,0.6-14.6,0.4c-3.9-0.2-7.8-0.4-11.7-0.6c-2.3-0.1-4.6-0.2-6.7,0.7c-2.2,1-3.9,3.1-6.3,3.6c-2.2,0.5-4.6-0.9-5.5-3
		L59,131.5z"/>
	<path class="st7" d="M144.3,108.6c0.1-0.4-0.1-0.7-0.3-1.1c-1.1-2-2.2-4.1-3.8-5.7c-1.6-1.6-3.9-2.7-6.1-2.4
		c-0.2,0-0.4,0.1-0.6,0.1c0.2,1.2,0.3,2.5,0,3.7c-0.5,1.7-1.7,3-2.9,4.3c-1.8,1.9-3.7,3.9-5.5,5.8c-0.8,0.9-1.7,1.7-2.7,2.3
		c-1,0.5-2.2,0.7-3.2,1.2c-3.6,1.7-4.6,6.8-8.2,8.5c-1.9,0.9-4.4,0.6-5.9,2c-0.7,0.6-1.1,1.5-1.9,2c-0.8,0.5-1.9,0.5-2.9,0.4
		c-2.8-0.2-5.5-0.3-8.3-0.5c-0.4,0.5-0.6,1.1-0.4,1.7c4.1,0.2,8.2,0.2,12.2-0.5c4.8-0.8,9.5-2.7,13-6.2c1.6-1.6,2.9-3.4,4.6-4.8
		c1.7-1.4,4-2.3,6.1-1.7c1,0.3,1.8,1,2.9,1c0.8,0,1.6-0.4,2.3-0.9c4-2.4,7.7-5.3,11.1-8.5C143.9,109.3,144.2,109,144.3,108.6z"/>
	<path class="st7" d="M121.4,105.5c2-2,4-4.1,5.3-6.6c0-0.1,0-0.1,0.1-0.2c-0.7-0.7-1.4-1.5-1.9-2.3c-1.2-2-2-4.4-3.5-6.1
		c-1-1.1-2.2-2-3.5-2.7l-0.7-0.2c-1.4,0-2.6,1-3.2,2.3c-0.6,1.2-0.8,2.6-1,4c-1.4,6.8-6.1,12.9-12.3,16c-0.9,0.4-1.8,0.8-2.5,1.6
		c-0.4,0.6-0.7,1.2-0.9,1.9c-0.8,2.8-1.3,5.8-3.5,7.7c-1.1,0.9-2.7,1.9-2.4,3.3c0.2,0.8,1,1.4,1.9,1.5c0.8,0.1,1.7-0.2,2.5-0.4
		c3.3-1.1,6.7-2.2,10-3.3c2.5-0.8,5.2-1.7,6.9-3.7c1.6-1.8,2.2-4.2,3.4-6.3C117.3,109.5,119.4,107.5,121.4,105.5z"/>
	<path class="st19" d="M78.4,30.8c-2.4,0.2-4.6,1.5-6.6,2.8c-0.3,0.2-0.7,0.4-0.9,0.7c-0.3,0.5-0.3,1-0.2,1.6
		c0.1,1.1,0.3,2.1,0.6,3.1c0.2,0.7,0.4,1.4,1,1.7c0.6,0.3,1.3,0.2,1.9-0.1c0.6-0.3,1.1-0.7,1.7-1c1-0.5,2.2-0.7,3.2-1.2
		c1.4-0.7,2.4-2.3,2.3-3.8s-1-3.6-2.6-3.6L78.4,30.8z"/>
	<path class="st19" d="M69.4,50.8c0.8-0.6,1.4-1.5,2.2-2.1c0.8-0.6,1.7-0.9,2.5-1.4c0.8-0.5,1.6-1.2,1.6-2c0-0.1,0-0.2,0-0.2
		c-0.1-0.3-0.6-0.4-1-0.4c-1.7-0.1-3.4-0.1-5.1,0.1C69.1,44.8,68.5,45,68,45c-0.5,0-1.1-0.1-1.6-0.2c-1.8-0.1-3.4,0.8-5.1,1.3
		c-1.5,0.4-3.1,0.5-4.5,1c-1.4,0.5-2.8,1.6-2.6,2.9c0.1,0.9,1,1.7,1.4,2.6c0.4,1,0.5,2.3,1.7,2.6c0.5,0.1,1.1-0.1,1.6-0.2
		c2.5-0.9,5-1.8,7.6-2.6C67.5,51.8,68.6,51.4,69.4,50.8z"/>
	<path class="st19" d="M53.8,56.1c-1.8-1-4.1-1.1-5.9-0.1c-0.3,0.2-0.6,0.4-0.8,0.7c-0.4,0.8,0.3,1.7,1.1,2.1
		c0.8,0.3,1.7,0.2,2.6,0.4c1.6,0.3,3,1.4,4.5,1.9c1.6,0.5,3.5,0.3,4.9-0.5c0.2-0.1,0.4-0.2,0.5-0.4c0.3-0.5,0.1-1.2-0.3-1.6
		c-1.1-1-2.8-0.7-4.2-1.2C55.3,57.2,54.6,56.6,53.8,56.1z"/>
	<path class="st19" d="M33,84c-0.4,0-0.7,0-1.1,0.1c-0.5,0.4-1,0.8-1.6,1.1c-0.8,0.4-1.7,0.7-2.4,1.3c-1.3,0.9-2,2.4-2.7,3.9
		c0.4,0.3,0.9,0.5,1.2,0.9c0.2,0.3,0.4,0.6,0.6,0.8c0.6,0.4,1.4,0,1.9-0.6c0.4-0.6,0.7-1.3,1.2-1.8c1.2-1.2,3.5-1,4.5-2.4
		C35.3,86.1,34.4,84.2,33,84z"/>
	<path class="st19" d="M23.2,101.9c0.9-1.1,0.6-2.7,0.1-4c-0.3-1-0.7-2.2-1.6-2.7c0,0,0,0-0.1,0c-2.4,1.9-5.6,2.8-8.7,3.3
		c-2.5,0.4-5.2,0.8-6.8,2.7c-1.2,1.6-1.4,3.9-2.9,5.2c-0.1,0.1-0.3,0.2-0.4,0.3c0.3,0.4,0.7,0.8,1.2,0.8c0.4,0.1,0.8-0.1,1.2-0.1
		c1.1-0.2,2.2,0.2,3.2,0.3c1.1,0.1,2.3-0.1,3-1c0.3-0.4,0.4-0.9,0.7-1.3c0.7-0.9,1.9-1.1,3-1.3c1.9-0.3,3.9-0.7,5.8-1.1
		C21.8,102.8,22.6,102.5,23.2,101.9z"/>
	<path class="st19" d="M95.7,100.9c0.8,0,1.5,0.1,2.3,0.3c1.1,0.2,2.2,0.4,3.3,0.5c0.6,0.1,1.2,0.2,1.7,0.5c1.1,0.7,0.9,2.3,0,3.2
		c-0.9,0.9-2.4,1.1-3.7,1.2c-1.4,0-2.7-0.2-4.1,0c-1,0.1-2,0.4-3.1,0.5c-1,0.1-2.2-0.1-2.9-0.8C89.3,103.4,92.4,100.9,95.7,100.9z"
		/>
	<path class="st19" d="M82.4,110.7c0.2-0.3,0.6-0.4,1-0.4c1.9-0.3,3.9-0.6,5.8-0.5c2,0.2,3.9,0.9,5.4,2.4c0.3,0.3,0.6,0.7,0.6,1.1
		c0,0.5-0.3,0.9-0.6,1.2c-0.9,1.1-1.8,2.2-2.8,3.2c-0.9,1-1.7,2-2.8,2.7c-1.1,0.7-2.4,0.9-3.5,0.3c-1.1-0.6-1.8-1.9-2.2-3.2
		c-0.6-1.7-1-3.6-1.1-5.4C82.1,111.6,82.1,111.1,82.4,110.7z"/>
	<path class="st19" d="M91,126c-0.8,1.3-2.8,0.9-4.3,0.5c-2.5-0.7-5.1-1.1-7.7-1c-0.6,0-1.2,0.1-1.7,0.3c-0.6,0.2-1.1,0.6-1.7,0.9
		c-2.9,1.8-6.3,2.6-9.6,3.4c-1.2,0.3-2.8,0.5-3.6-0.5c0.6-1.6,2.2-2.8,3.9-2.8c0.9,0,1.9,0.2,2.5-0.4c0.3-0.2,0.4-0.6,0.6-0.9
		c0.9-1.8,2.1-3.7,4-4.5c2.3-1,5-0.3,7.4,0.4c2,0.6,4,1.2,5.9,1.8C88.5,123.6,90.5,124.3,91,126z"/>
	<path class="st10" d="M93.8,44.9c0.7-0.6,0.9-1.6,1.4-2.3c0.3-0.5,0.8-0.9,1.2-1.3c-0.1,0-0.1-0.1-0.2-0.1c-0.6-0.5-0.7-1.3-1-2
		c-0.6-1.5-1.7-2.5-3-3.5c-0.1,0-0.2,0-0.2,0.1c-0.8,0.4-0.6,1.5-0.6,2.4c0.1,1.7-0.8,3.3-2,4.5c-1.2,1.2-2.6,2.2-3.9,3.3
		C84.1,47,82.9,48.4,82,50c1.3,1,3.3,1,4.7,0c0.6-0.5,1.1-1.1,1.7-1.7c1.1-1.1,2.4-2,3.8-2.5C92.7,45.5,93.3,45.3,93.8,44.9z"/>
	<path class="st10" d="M105.7,55.4c0.3-0.1,0.5-0.1,0.8-0.2c-0.1-2.1-0.7-4.1-2-5.8c-0.8-0.9-1.7-1.6-2.3-2.7
		c-0.4-0.7-0.6-1.4-0.9-2.1c-0.4-0.7-0.9-1.3-1.5-1.8c-1.2,0.6-2.1,1.8-2.3,3.2c-0.1,0.6,0,1.2-0.2,1.8c-0.2,0.5-0.5,0.9-0.9,1.2
		c-1.9,2-3.7,3.9-5.6,5.9c-0.6,0.6-1.2,1.3-2.1,1.4c0.5,2.3-0.2,4.8-1.8,6.6c-0.6,0.7-1.3,1.8-0.6,2.3c0.2,0.2,0.6,0.2,0.9,0.2
		c3.1-0.2,5.3-2.8,7.7-4.8C98.1,58,101.9,56.4,105.7,55.4z"/>
	<path class="st10" d="M143.6,109.6c0.3-0.3,0.6-0.6,0.6-0.9c0.1-0.4-0.1-0.7-0.3-1.1c-1.1-2-2.2-4.1-3.8-5.7
		c-1.6-1.6-3.9-2.7-6.1-2.4c-1.3,0.2-2.4,0.8-3.7,0.8c-2.3,0-4.3-1.9-5.5-3.9c-1.2-2-2-4.4-3.5-6.1c-2.3-2.7-5.9-3.7-9-5.4
		c0,0.1,0,0.2,0,0.2c0.2,1.2,0.7,2.3,1,3.5c0.3,1.3,0.4,2.7,0.3,4c2.6,0,4.8,2.6,4.3,5.1c-0.3,1.8-1.7,3.2-2.5,4.9
		c-0.8,1.7-0.4,4.2,1.4,4.5c1.2,0.2,2.3-0.8,3.3-1.5c3-2.4,6.9-3.5,10.7-3c1,0.1,2,0.4,2.8,1c0.6,0.5,1,1.1,1.3,1.7
		c1.2,2.7,0.4,6.2-1.9,8.1c-0.9,0.7-1.9,1.3-2.6,2.2c-0.7,0.9-0.9,2.4,0.1,3.1c0.1,0.1,0.3,0.1,0.4,0.2c0.6-0.1,1.2-0.5,1.7-0.8
		C136.5,115.6,140.2,112.7,143.6,109.6z"/>
	<path class="st10" d="M109.8,108.2c-0.3,0.3-0.4,0.6-0.6,1c-0.5,0.9-1.1,1.8-2,2.4c-0.7,0.5-1.4,0.9-1.9,1.6
		c-0.5,0.7-0.5,1.8,0.2,2.2c0.2,0.1,0.5,0.2,0.7,0.4c0.4,0.5-0.3,1.1-0.8,1.4c-1.9,1-3.7,2.1-5.6,3.1c1.1,1,2.8,0.7,4.3,0.4
		c1.9-0.4,3.9-0.9,5.6-1.9c0.7-0.4,1.3-0.8,1.8-1.4c0.4-0.5,0.6-1.1,0.9-1.6c0.4-0.9,0.8-1.8,1.2-2.7c0.3-0.7,0.6-1.3,0.6-2.1
		c0-1.5-1.2-2.8-2.6-3.2C111.1,107.7,110.3,107.7,109.8,108.2z"/>
	<path class="st19" d="M101.9,96.4c0.1,0.6,0.4,1.4,1.1,1.5c0.4,0,0.7-0.2,1-0.4c1.1-0.8,1.9-1.9,2.7-3c0.6-0.8,1.2-1.6,1.3-2.6
		c0.1-1.5-1-2.8-2.3-3.6c-0.4-0.2-0.9-0.5-1.4-0.3c-0.5,0.1-0.8,0.6-1.1,1c-0.5,0.7-1.1,1.2-1.9,1.6c-0.2,0.1-0.4,0.2-0.5,0.5
		c-0.1,0.2-0.1,0.5,0,0.8C101.2,93.3,101.6,94.9,101.9,96.4z"/>
	<path class="st19" d="M95.8,101.1c-0.8,0.2-1.6,0.2-2.4,0.5c-0.8,0.3-1.5,0.9-1.5,1.8c0,0.7,0.4,1.2,0.8,1.7c0.5,0.6,1,1.2,1.8,1.1
		c0.4,0,0.7-0.2,1-0.4c1.4-0.9,2.7-1.9,4-2.8c0.4-0.3,0.8-0.7,0.8-1.2c0-0.8-1.1-1.1-2-1.1c-0.5,0-1.1,0-1.6,0c-0.2,0-0.4,0-0.4,0.2
		c0,0.2,0.4,0.1,0.2,0L95.8,101.1z"/>
	<path class="st19" d="M93.8,110.2c-2.3-0.8-4.8-0.8-7.1,0.1c-0.3,0.1-0.5,0.2-0.7,0.4c-0.4,0.4-0.4,1-0.2,1.5
		c0.6,1.1,2.4,0.6,3.4,1.4c0.3,0.2,0.5,0.6,0.8,0.9c0.4,0.6,1,1.1,1.6,1.4c1.9,0.9,4.3-0.3,5.2-2.2c0.3-0.8,0.5-1.7-0.1-2.4
		c-0.8-1-2.5-0.5-3.4-1.4c-0.1,0.1-0.2,0.3-0.4,0.4L93.8,110.2z"/>
	<path class="st19" d="M63,45.2c-2.3,0.4-4.5,1.4-6.2,3.1c-0.4,0.4-0.8,1-0.5,1.4c0.2,0.3,0.7,0.4,1.1,0.4c1.9,0,3.9-0.1,5.8-0.5
		c1.9-0.5,3.7-1.5,4.8-3c0.4-0.6,0.7-1.6,0.1-2c-0.3-0.2-0.7-0.2-1-0.1c-1.4,0.2-2.8,0.4-4.2,0.7c-0.2,0-0.4,0.1-0.4,0.3
		c0,0.2,0.4,0,0.2,0L63,45.2z"/>
	<path class="st19" d="M71.8,33.7c-1.2,0.3-2.7,0.9-2.6,2.1c0,0.8,0.8,1.3,1.5,1.5c0.7,0.1,1.5-0.1,2.2-0.3
		c-0.3,0.9,0.7,1.7,1.7,1.7c0.9-0.1,1.7-0.7,2.4-1.3c1-0.9,1.9-1.8,2.7-2.9c0.5-0.6,0.9-1.4,0.6-2.1c-2.8,0.1-5.5,0.5-8.2,1.3
		c-0.1,0-0.3,0.1-0.3,0.3c0,0.2,0.3,0,0.2,0L71.8,33.7z"/>
	<path class="st19" d="M9.3,100.4c0-0.3,0.2-0.5,0.4-0.6c1.1-0.9,2.5-1.2,3.9-1c0.5,0.1,1,0.3,1.5,0.2c0.6,0,1.2-0.3,1.8-0.5
		c2.5-0.8,5.5,0,7.3,1.9c0.3,0.3,0.6,0.8,0.4,1.2c-0.1,0.2-0.4,0.3-0.6,0.4c-1.2,0.4-2.4,0.9-3.6,1.3c-0.8,0.3-1.7,0.6-2.6,0.5
		c-0.9-0.1-1.7-0.7-2.5-1.2c-1.5-0.9-3.2-1.5-5-1.7C9.9,100.9,9.4,100.8,9.3,100.4z"/>
	<path class="st19" d="M27.4,88.8c1.4,0.7,3,1.1,4.5,1c0.6,0,1.3-0.2,1.7-0.7c0.4-0.5,0.5-1.3,0.4-2c0-0.3,0-0.6-0.2-0.9
		c-0.2-0.3-0.7-0.4-1.1-0.5c-1.2-0.2-2.6-0.3-3.5,0.6c-0.5,0.5-0.9,1.4-1.7,1.3c-0.3,0.3,0,0.9,0.4,0.9L27.4,88.8z"/>
	<path class="st19" d="M5.5,106.6c1.2,0,2.4,0,3.6,0.1c0.7,0,1.5,0.1,2.2,0.3c0.7,0.3,1.3,0.9,1.4,1.6c-0.4,1-1.5,1.6-2.6,1.7
		c-1.1,0.2-2.2,0-3.2,0.1c-1.6,0.2-3.2,1-4.9,0.8c0-1.7,0.3-3.8,1.9-4.4C4.3,106.6,4.9,106.6,5.5,106.6z"/>
	<g>
		<circle class="st20" cx="77" cy="46.2" r="1.4"/>
		<path class="st20" d="M62,131.6c0-0.7,0.6-1.2,1.2-1.2c0.7,0,1.2,0.6,1.2,1.2c0,0.7-0.6,1.2-1.2,1.2C62.6,132.9,62,132.3,62,131.6
			z"/>
		<circle class="st20" cx="58.5" cy="58.8" r="1.1"/>
		<path class="st20" d="M92.6,112.5c0-0.6,0.5-1,1-1c0.6,0,1,0.5,1,1c0,0.6-0.5,1-1,1C93.1,113.6,92.6,113.1,92.6,112.5z"/>
		<path class="st20" d="M71.5,41.3c0-0.6,0.5-1.2,1.2-1.2c0.6,0,1.2,0.5,1.2,1.2c0,0.6-0.5,1.2-1.2,1.2C72.1,42.5,71.5,42,71.5,41.3
			z"/>
		<path class="st20" d="M20.5,100.8c0-0.4,0.3-0.8,0.8-0.8c0.4,0,0.8,0.3,0.8,0.8c0,0.4-0.3,0.8-0.8,0.8
			C20.9,101.6,20.5,101.3,20.5,100.8z"/>
		<circle class="st20" cx="96.7" cy="53.4" r="1.1"/>
		<path class="st20" d="M78.5,59c0-0.7,0.6-1.3,1.3-1.3c0.7,0,1.3,0.6,1.3,1.3c0,0.7-0.6,1.3-1.3,1.3C79.1,60.3,78.5,59.7,78.5,59z"
			/>
		<path class="st20" d="M84.9,32.8c0-0.8,0.6-1.4,1.4-1.4c0.8,0,1.4,0.6,1.4,1.4c0,0.8-0.6,1.4-1.4,1.4
			C85.5,34.2,84.9,33.6,84.9,32.8z"/>
		<path class="st20" d="M26.4,109.1c0-0.6,0.5-1.1,1.1-1.1c0.6,0,1.1,0.5,1.1,1.1s-0.5,1.1-1.1,1.1
			C26.9,110.2,26.4,109.7,26.4,109.1z"/>
		<circle class="st20" cx="91.5" cy="55.9" r="1.2"/>
		<path class="st20" d="M107.8,123.3c0-0.6,0.5-1,1-1s1,0.5,1,1s-0.5,1-1,1S107.8,123.9,107.8,123.3z"/>
		<circle class="st20" cx="89.4" cy="115.9" r="1.4"/>
		<path class="st20" d="M119,100.6c0-0.6,0.5-1.1,1.1-1.1c0.6,0,1.1,0.5,1.1,1.1c0,0.6-0.5,1.1-1.1,1.1
			C119.4,101.7,119,101.2,119,100.6z"/>
		<circle class="st20" cx="135.7" cy="113.4" r="1.3"/>
		<path class="st20" d="M105.8,90.5c0-0.6,0.5-1.1,1.1-1.1c0.6,0,1.1,0.5,1.1,1.1s-0.5,1.1-1.1,1.1
			C106.3,91.7,105.8,91.2,105.8,90.5z"/>
		<path class="st20" d="M66,44.5c0-0.7,0.6-1.2,1.2-1.2c0.7,0,1.2,0.6,1.2,1.2c0,0.7-0.6,1.2-1.2,1.2C66.6,45.7,66,45.1,66,44.5z"/>
		<path class="st20" d="M10.3,102.8c0-0.7,0.5-1.2,1.2-1.2c0.7,0,1.2,0.5,1.2,1.2c0,0.7-0.5,1.2-1.2,1.2
			C10.9,104,10.3,103.4,10.3,102.8z"/>
		<path class="st20" d="M91.5,120.2c0-0.6,0.5-1,1-1c0.6,0,1,0.5,1,1c0,0.6-0.5,1-1,1C91.9,121.2,91.5,120.8,91.5,120.2z"/>
		<circle class="st20" cx="33.9" cy="97.4" r="1.3"/>
		<path class="st20" d="M77.6,34.9c0-0.5,0.4-0.8,0.8-0.8s0.8,0.4,0.8,0.8c0,0.5-0.4,0.8-0.8,0.8S77.6,35.4,77.6,34.9z"/>
		<path class="st20" d="M20.4,111.8c0-0.6,0.4-1,1-1c0.6,0,1,0.4,1,1s-0.4,1-1,1C20.8,112.8,20.4,112.4,20.4,111.8z"/>
		<path class="st20" d="M61.9,47.7c0-0.4,0.3-0.7,0.7-0.7c0.4,0,0.7,0.3,0.7,0.7c0,0.4-0.3,0.7-0.7,0.7
			C62.3,48.4,61.9,48.1,61.9,47.7z"/>
		<path class="st20" d="M63.5,50.4c0-0.6,0.5-1.1,1.1-1.1c0.6,0,1.1,0.5,1.1,1.1c0,0.6-0.5,1.1-1.1,1.1C64,51.5,63.5,51,63.5,50.4z"
			/>
		<path class="st20" d="M73.6,36.7c0-0.6,0.5-1,1-1c0.6,0,1,0.5,1,1c0,0.6-0.5,1-1,1C74,37.7,73.6,37.2,73.6,36.7z"/>
		<path class="st20" d="M31.4,108c0-0.7,0.6-1.3,1.3-1.3c0.7,0,1.3,0.6,1.3,1.3c0,0.7-0.6,1.3-1.3,1.3
			C31.9,109.3,31.4,108.7,31.4,108z"/>
		<path class="st20" d="M68.4,60.7c0-0.6,0.5-1,1-1c0.6,0,1,0.5,1,1c0,0.6-0.5,1-1,1C68.8,61.8,68.4,61.3,68.4,60.7z"/>
		<circle class="st20" cx="104.1" cy="109.3" r="1.1"/>
		<path class="st20" d="M75.8,127.4c0-0.6,0.5-1,1-1s1,0.5,1,1s-0.5,1-1,1S75.8,128,75.8,127.4z"/>
		<circle class="st20" cx="124.3" cy="97.6" r="1.1"/>
		<path class="st20" d="M125.1,111.5c0-0.8,0.6-1.4,1.4-1.4c0.8,0,1.4,0.6,1.4,1.4s-0.6,1.4-1.4,1.4
			C125.8,112.9,125.1,112.3,125.1,111.5z"/>
		<path class="st20" d="M74.7,49.8c0-0.7,0.6-1.3,1.3-1.3c0.7,0,1.3,0.6,1.3,1.3c0,0.7-0.6,1.3-1.3,1.3
			C75.3,51.1,74.7,50.5,74.7,49.8z"/>
		<circle class="st20" cx="60.3" cy="64.6" r="0.8"/>
		<path class="st20" d="M68.5,55.4c0-0.4,0.3-0.7,0.7-0.7c0.4,0,0.7,0.3,0.7,0.7c0,0.4-0.3,0.7-0.7,0.7
			C68.8,56.1,68.5,55.8,68.5,55.4z"/>
		<path class="st20" d="M93.9,111.5c0-0.4,0.3-0.7,0.7-0.7c0.4,0,0.7,0.3,0.7,0.7s-0.3,0.7-0.7,0.7
			C94.3,112.2,93.9,111.9,93.9,111.5z"/>
		<path class="st20" d="M25.5,98.5c0-0.6,0.5-1,1-1c0.6,0,1,0.5,1,1c0,0.6-0.5,1-1,1C26,99.5,25.5,99.1,25.5,98.5z"/>
		<path class="st20" d="M19.1,99.7c0-0.4,0.3-0.7,0.7-0.7c0.4,0,0.7,0.3,0.7,0.7c0,0.4-0.3,0.7-0.7,0.7
			C19.4,100.4,19.1,100.1,19.1,99.7z"/>
		<circle class="st20" cx="96.4" cy="54.2" r="1.4"/>
		<path class="st20" d="M50.1,56c0-0.6,0.5-1.1,1.1-1.1c0.6,0,1.1,0.5,1.1,1.1c0,0.6-0.5,1.1-1.1,1.1C50.6,57.1,50.1,56.6,50.1,56z"
			/>
		<circle class="st20" cx="91.4" cy="48.7" r="0.9"/>
		<path class="st20" d="M92.2,48.4c0-0.7,0.5-1.2,1.2-1.2c0.7,0,1.2,0.5,1.2,1.2s-0.5,1.2-1.2,1.2C92.8,49.6,92.2,49,92.2,48.4z"/>
		<path class="st20" d="M92.8,58.4c0-0.7,0.6-1.3,1.3-1.3s1.3,0.6,1.3,1.3s-0.6,1.3-1.3,1.3S92.8,59.1,92.8,58.4z"/>
		<path class="st20" d="M117.8,120.7c0-0.6,0.5-1.1,1.1-1.1s1.1,0.5,1.1,1.1c0,0.6-0.5,1.1-1.1,1.1S117.8,121.3,117.8,120.7z"/>
		<circle class="st20" cx="82.4" cy="117.2" r="1.5"/>
		<path class="st20" d="M117,111c0-0.5,0.4-0.8,0.8-0.8c0.5,0,0.8,0.4,0.8,0.8c0,0.5-0.4,0.8-0.8,0.8C117.4,111.8,117,111.4,117,111
			z"/>
		<circle class="st20" cx="136.3" cy="103.8" r="1.2"/>
		<circle class="st20" cx="110.9" cy="91.9" r="1.4"/>
		<path class="st20" d="M70.3,49.8c0-0.6,0.5-1.1,1.1-1.1c0.6,0,1.1,0.5,1.1,1.1c0,0.6-0.5,1.1-1.1,1.1
			C70.8,50.9,70.3,50.4,70.3,49.8z"/>
		<path class="st20" d="M30,94.9c0-0.6,0.5-1.1,1.1-1.1c0.6,0,1.1,0.5,1.1,1.1s-0.5,1.1-1.1,1.1C30.5,95.9,30,95.5,30,94.9z"/>
		<circle class="st20" cx="99.6" cy="118.4" r="1.2"/>
		<path class="st20" d="M16.1,108.8c0-0.8,0.7-1.5,1.5-1.5c0.8,0,1.5,0.7,1.5,1.5c0,0.8-0.7,1.5-1.5,1.5
			C16.7,110.3,16.1,109.6,16.1,108.8z"/>
		<path class="st20" d="M85.2,58.7c0-0.8,0.6-1.4,1.4-1.4c0.8,0,1.4,0.6,1.4,1.4c0,0.8-0.6,1.4-1.4,1.4
			C85.9,60.1,85.2,59.5,85.2,58.7z"/>
		<circle class="st20" cx="54.9" cy="56.5" r="0.9"/>
		<path class="st20" d="M83.3,48.5c0-0.7,0.6-1.3,1.3-1.3s1.3,0.6,1.3,1.3c0,0.7-0.6,1.3-1.3,1.3S83.3,49.2,83.3,48.5z"/>
		<path class="st20" d="M92.4,110c0-0.5,0.4-0.9,0.9-0.9c0.5,0,0.9,0.4,0.9,0.9c0,0.5-0.4,0.9-0.9,0.9
			C92.9,110.9,92.4,110.5,92.4,110z"/>
		<circle class="st20" cx="79.2" cy="40.1" r="1.2"/>
		<path class="st20" d="M39.4,108.4c0-0.5,0.4-0.9,0.9-0.9s0.9,0.4,0.9,0.9c0,0.5-0.4,0.9-0.9,0.9S39.4,108.9,39.4,108.4z"/>
		<circle class="st20" cx="115.4" cy="108.1" r="1.2"/>
		<path class="st20" d="M108.2,112.9c0-0.7,0.6-1.3,1.3-1.3s1.3,0.6,1.3,1.3c0,0.7-0.6,1.3-1.3,1.3S108.2,113.7,108.2,112.9z"/>
		<path class="st20" d="M82.3,124.1c0-0.6,0.5-1.1,1.1-1.1c0.6,0,1.1,0.5,1.1,1.1c0,0.6-0.5,1.1-1.1,1.1
			C82.8,125.2,82.3,124.7,82.3,124.1z"/>
		<circle class="st20" cx="101.7" cy="92.6" r="0.9"/>
		<circle class="st20" cx="125.6" cy="109.8" r="0.8"/>
		<circle class="st20" cx="83.6" cy="34.5" r="1.3"/>
		<path class="st20" d="M63.8,64.6c0-0.5,0.4-0.9,0.9-0.9c0.5,0,0.9,0.4,0.9,0.9c0,0.5-0.4,0.9-0.9,0.9
			C64.2,65.4,63.8,65.1,63.8,64.6z"/>
		<path class="st20" d="M33.1,84.2c0-0.7,0.6-1.3,1.3-1.3c0.7,0,1.3,0.6,1.3,1.3s-0.6,1.3-1.3,1.3C33.6,85.5,33.1,84.9,33.1,84.2z"
			/>
		<path class="st20" d="M99.9,112.1c0-0.6,0.5-1,1-1c0.6,0,1,0.5,1,1c0,0.6-0.5,1-1,1C100.4,113.2,99.9,112.7,99.9,112.1z"/>
		<path class="st20" d="M39.5,100.9c0-0.9,0.8-1.7,1.7-1.7c0.9,0,1.7,0.8,1.7,1.7s-0.8,1.7-1.7,1.7
			C40.3,102.6,39.5,101.9,39.5,100.9z"/>
		<path class="st20" d="M105.4,98.9c0-0.4,0.3-0.7,0.7-0.7c0.4,0,0.7,0.3,0.7,0.7c0,0.4-0.3,0.7-0.7,0.7
			C105.7,99.6,105.4,99.3,105.4,98.9z"/>
		<circle class="st20" cx="23.5" cy="104.2" r="1.2"/>
		<path class="st20" d="M98.3,46.9c0-0.7,0.5-1.2,1.2-1.2c0.7,0,1.2,0.5,1.2,1.2s-0.5,1.2-1.2,1.2C98.9,48.1,98.3,47.6,98.3,46.9z"
			/>
		<path class="st20" d="M51.8,61.8c0-0.6,0.5-1.1,1.1-1.1c0.6,0,1.1,0.5,1.1,1.1c0,0.6-0.5,1.1-1.1,1.1C52.3,63,51.8,62.4,51.8,61.8
			z"/>
		<circle class="st20" cx="87.5" cy="38.7" r="1.1"/>
		<path class="st20" d="M13.2,112.5c0-0.6,0.5-1,1-1c0.6,0,1,0.5,1,1s-0.5,1-1,1C13.6,113.5,13.2,113.1,13.2,112.5z"/>
		<path class="st20" d="M119.2,106.3c0-0.7,0.6-1.3,1.3-1.3c0.7,0,1.3,0.6,1.3,1.3s-0.6,1.3-1.3,1.3
			C119.7,107.6,119.2,107,119.2,106.3z"/>
		<circle class="st20" cx="102.6" cy="119.1" r="0.8"/>
		<path class="st20" d="M87.1,125c0-0.5,0.4-1,1-1c0.5,0,1,0.4,1,1c0,0.5-0.4,1-1,1C87.5,125.9,87.1,125.5,87.1,125z"/>
		<path class="st20" d="M96.1,106.8c0-0.7,0.6-1.3,1.3-1.3s1.3,0.6,1.3,1.3c0,0.7-0.6,1.3-1.3,1.3S96.1,107.5,96.1,106.8z"/>
		<path class="st20" d="M131.4,103c0-0.7,0.6-1.3,1.3-1.3c0.7,0,1.3,0.6,1.3,1.3c0,0.7-0.6,1.3-1.3,1.3
			C132,104.3,131.4,103.7,131.4,103z"/>
		<circle class="st20" cx="109.9" cy="84.9" r="1.2"/>
		<path class="st20" d="M68.4,48.1c0-0.6,0.5-1.2,1.2-1.2c0.6,0,1.2,0.5,1.2,1.2c0,0.6-0.5,1.2-1.2,1.2C69,49.3,68.4,48.8,68.4,48.1
			z"/>
		<path class="st20" d="M7,105.1c0-0.5,0.4-0.9,0.9-0.9s0.9,0.4,0.9,0.9s-0.4,0.9-0.9,0.9S7,105.6,7,105.1z"/>
		<path class="st20" d="M113.8,115.4c0-0.8,0.6-1.4,1.4-1.4s1.4,0.6,1.4,1.4c0,0.8-0.6,1.4-1.4,1.4S113.8,116.2,113.8,115.4z"/>
		<circle class="st20" cx="31.7" cy="92.1" r="1"/>
		<path class="st20" d="M84.9,60.4c0-0.8,0.6-1.4,1.4-1.4c0.8,0,1.4,0.6,1.4,1.4c0,0.8-0.6,1.4-1.4,1.4
			C85.5,61.8,84.9,61.2,84.9,60.4z"/>
		<circle class="st20" cx="86.6" cy="51.7" r="1.1"/>
		<circle class="st20" cx="60.2" cy="52.1" r="1.3"/>
		<path class="st20" d="M60.7,57.7c0-0.6,0.5-1.1,1.1-1.1c0.6,0,1.1,0.5,1.1,1.1c0,0.6-0.5,1.1-1.1,1.1
			C61.2,58.8,60.7,58.3,60.7,57.7z"/>
		<path class="st20" d="M78.1,30.3c0-0.6,0.5-1.1,1.1-1.1s1.1,0.5,1.1,1.1s-0.5,1.1-1.1,1.1S78.1,31,78.1,30.3z"/>
		<circle class="st20" cx="31.4" cy="104.2" r="1.1"/>
		<circle class="st20" cx="73.8" cy="62.7" r="1.3"/>
		<path class="st20" d="M102.8,104.5c0-0.5,0.4-1,1-1c0.5,0,1,0.4,1,1c0,0.5-0.4,1-1,1C103.3,105.4,102.8,105,102.8,104.5z"/>
		<circle class="st20" cx="69" cy="125.3" r="0.9"/>
		<path class="st20" d="M116,94.3c0-0.7,0.6-1.3,1.3-1.3s1.3,0.6,1.3,1.3s-0.6,1.3-1.3,1.3S116,95,116,94.3z"/>
		<path class="st20" d="M120.6,115.6c0-0.5,0.4-0.9,0.9-0.9c0.5,0,0.9,0.4,0.9,0.9c0,0.5-0.4,0.9-0.9,0.9
			C121,116.5,120.6,116.1,120.6,115.6z"/>
		<circle class="st20" cx="74.7" cy="53.6" r="1.2"/>
		<path class="st20" d="M58.6,65.4c0-0.7,0.6-1.3,1.3-1.3c0.7,0,1.3,0.6,1.3,1.3c0,0.7-0.6,1.3-1.3,1.3
			C59.2,66.6,58.6,66.1,58.6,65.4z"/>
		<path class="st20" d="M74.9,59.1c0-0.6,0.5-1.1,1.1-1.1s1.1,0.5,1.1,1.1s-0.5,1.1-1.1,1.1S74.9,59.7,74.9,59.1z"/>
		<path class="st20" d="M95,101.5c0-0.5,0.4-1,1-1c0.5,0,1,0.4,1,1c0,0.5-0.4,1-1,1C95.5,102.5,95,102,95,101.5z"/>
		<path class="st20" d="M73.3,38.4c0-0.7,0.6-1.3,1.3-1.3c0.7,0,1.3,0.6,1.3,1.3s-0.6,1.3-1.3,1.3C73.9,39.7,73.3,39.2,73.3,38.4z"
			/>
		<circle class="st20" cx="29.9" cy="107.5" r="1"/>
		<circle class="st20" cx="15.4" cy="102.6" r="1.6"/>
		<path class="st20" d="M103.9,53.8c0-0.7,0.6-1.3,1.3-1.3c0.7,0,1.3,0.6,1.3,1.3c0,0.7-0.6,1.3-1.3,1.3
			C104.5,55,103.9,54.5,103.9,53.8z"/>
		<path class="st20" d="M51,61c0-0.5,0.4-0.8,0.8-0.8c0.5,0,0.8,0.4,0.8,0.8c0,0.5-0.4,0.8-0.8,0.8C51.3,61.9,51,61.5,51,61z"/>
		<path class="st20" d="M89.3,52c0-0.7,0.6-1.3,1.3-1.3c0.7,0,1.3,0.6,1.3,1.3c0,0.7-0.6,1.3-1.3,1.3C89.8,53.3,89.3,52.7,89.3,52z"
			/>
		<path class="st20" d="M90.7,42.1c0-0.4,0.3-0.8,0.8-0.8c0.4,0,0.8,0.3,0.8,0.8c0,0.4-0.3,0.8-0.8,0.8C91,42.9,90.7,42.5,90.7,42.1
			z"/>
		<circle class="st20" cx="45.5" cy="59.8" r="1.6"/>
		<circle class="st20" cx="118.3" cy="116" r="1.1"/>
		<path class="st20" d="M82.8,115.4c0-0.6,0.5-1.1,1.1-1.1s1.1,0.5,1.1,1.1c0,0.6-0.5,1.1-1.1,1.1S82.8,116,82.8,115.4z"/>
		<path class="st20" d="M118.3,109.1c0-0.5,0.4-1,1-1c0.5,0,1,0.4,1,1c0,0.5-0.4,1-1,1C118.7,110,118.3,109.6,118.3,109.1z"/>
		<circle class="st20" cx="137.4" cy="108.4" r="1.7"/>
		<path class="st20" d="M112.8,97c0-0.7,0.6-1.3,1.3-1.3c0.7,0,1.3,0.6,1.3,1.3c0,0.7-0.6,1.3-1.3,1.3
			C113.4,98.3,112.8,97.7,112.8,97z"/>
		<path class="st20" d="M63.5,56.4c0-0.8,0.6-1.5,1.5-1.5s1.5,0.6,1.5,1.5c0,0.8-0.6,1.5-1.5,1.5S63.5,57.2,63.5,56.4z"/>
		<path class="st20" d="M29.2,88.5c0-0.7,0.6-1.3,1.3-1.3c0.7,0,1.3,0.6,1.3,1.3c0,0.7-0.6,1.3-1.3,1.3
			C29.8,89.8,29.2,89.3,29.2,88.5z"/>
		<circle class="st20" cx="103.9" cy="114.3" r="1"/>
		<path class="st20" d="M7.9,108.2c0-0.8,0.6-1.4,1.4-1.4c0.8,0,1.4,0.6,1.4,1.4c0,0.8-0.6,1.4-1.4,1.4C8.5,109.6,7.9,109,7.9,108.2
			z"/>
		<circle class="st20" cx="79" cy="62.9" r="1.3"/>
		<path class="st20" d="M4.4,109c0-0.6,0.5-1,1-1c0.6,0,1,0.5,1,1c0,0.6-0.5,1-1,1C4.8,110,4.4,109.5,4.4,109z"/>
		<path class="st20" d="M84.4,41.8c0-0.6,0.5-1.1,1.1-1.1c0.6,0,1.1,0.5,1.1,1.1c0,0.6-0.5,1.1-1.1,1.1C84.9,43,84.4,42.5,84.4,41.8
			z"/>
		<circle class="st20" cx="81.6" cy="53.2" r="1.3"/>
		<path class="st20" d="M22.1,98c0-0.6,0.5-1.1,1.1-1.1c0.6,0,1.1,0.5,1.1,1.1c0,0.6-0.5,1.1-1.1,1.1C22.6,99.1,22.1,98.6,22.1,98z"
			/>
		<path class="st20" d="M99.8,124.9c0-0.8,0.6-1.4,1.4-1.4c0.8,0,1.4,0.6,1.4,1.4c0,0.8-0.6,1.4-1.4,1.4
			C100.5,126.4,99.8,125.7,99.8,124.9z"/>
		<circle class="st20" cx="111.2" cy="105.4" r="1.1"/>
		<path class="st20" d="M93.2,127.5c0-0.7,0.6-1.4,1.4-1.4c0.7,0,1.4,0.6,1.4,1.4c0,0.7-0.6,1.4-1.4,1.4
			C93.8,128.8,93.2,128.2,93.2,127.5z"/>
		<path class="st20" d="M104.5,85.5c0-0.6,0.5-1.1,1.1-1.1c0.6,0,1.1,0.5,1.1,1.1s-0.5,1.1-1.1,1.1C105,86.6,104.5,86.1,104.5,85.5z
			"/>
		<path class="st20" d="M130.3,107c0-0.4,0.3-0.7,0.7-0.7c0.4,0,0.7,0.3,0.7,0.7s-0.3,0.7-0.7,0.7
			C130.6,107.7,130.3,107.4,130.3,107z"/>
	</g>
	<g>
		<path class="st21" d="M79.5,46.1c0-0.6,0.5-1.1,1.1-1.1c0.6,0,1.1,0.5,1.1,1.1c0,0.6-0.5,1.1-1.1,1.1C80,47.2,79.5,46.7,79.5,46.1
			z"/>
		<circle class="st21" cx="78.8" cy="123.5" r="1.2"/>
		<path class="st21" d="M57.8,58.7c0-0.6,0.5-1,1-1c0.6,0,1,0.5,1,1s-0.5,1-1,1C58.3,59.7,57.8,59.3,57.8,58.7z"/>
		<circle class="st21" cx="71.9" cy="123.2" r="0.9"/>
		<path class="st21" d="M67.9,40.9c0-0.6,0.5-1.1,1.1-1.1c0.6,0,1.1,0.5,1.1,1.1c0,0.6-0.5,1.1-1.1,1.1C68.4,42,67.9,41.6,67.9,40.9
			z"/>
		<path class="st21" d="M17.8,97.4c0-0.3,0.3-0.6,0.6-0.6c0.3,0,0.6,0.3,0.6,0.6c0,0.3-0.3,0.6-0.6,0.6C18.1,98,17.8,97.7,17.8,97.4
			z"/>
		<path class="st21" d="M94.1,52.1c0-0.5,0.4-0.9,0.9-0.9c0.5,0,0.9,0.4,0.9,0.9c0,0.5-0.4,0.9-0.9,0.9C94.5,53,94.1,52.6,94.1,52.1
			z"/>
		<circle class="st21" cx="76.8" cy="58" r="1.2"/>
		<circle class="st21" cx="86.5" cy="43.8" r="1.2"/>
		<path class="st21" d="M23.5,108.4c0-0.5,0.4-0.9,0.9-0.9c0.5,0,0.9,0.4,0.9,0.9s-0.4,0.9-0.9,0.9
			C23.9,109.3,23.5,108.9,23.5,108.4z"/>
		<circle class="st21" cx="95.2" cy="44.3" r="1.1"/>
		<path class="st21" d="M103.8,118.8c0-0.5,0.4-0.9,0.9-0.9s0.9,0.4,0.9,0.9c0,0.5-0.4,0.9-0.9,0.9S103.8,119.3,103.8,118.8z"/>
		<circle class="st21" cx="90.1" cy="116.5" r="1.2"/>
		<circle class="st21" cx="117.5" cy="101.4" r="0.9"/>
		<circle class="st21" cx="137.1" cy="111.7" r="1.2"/>
		<circle class="st21" cx="105" cy="89.8" r="0.9"/>
		<path class="st21" d="M64.9,44.6c0-0.7,0.5-1.2,1.2-1.2c0.7,0,1.2,0.5,1.2,1.2c0,0.7-0.5,1.2-1.2,1.2
			C65.4,45.8,64.9,45.2,64.9,44.6z"/>
		<circle class="st21" cx="10.7" cy="103" r="1.1"/>
		<path class="st21" d="M88.5,122.3c0-0.5,0.4-0.9,0.9-0.9c0.5,0,0.9,0.4,0.9,0.9c0,0.5-0.4,0.9-0.9,0.9
			C88.9,123.2,88.5,122.8,88.5,122.3z"/>
		<path class="st21" d="M35.4,97.2c0-0.6,0.5-1.1,1.1-1.1s1.1,0.5,1.1,1.1c0,0.6-0.5,1.1-1.1,1.1S35.4,97.8,35.4,97.2z"/>
		<path class="st21" d="M76.7,34.3c0-0.4,0.3-0.7,0.7-0.7c0.4,0,0.7,0.3,0.7,0.7c0,0.4-0.3,0.7-0.7,0.7C77,35,76.7,34.7,76.7,34.3z"
			/>
		<path class="st21" d="M22.2,112.9c0-0.5,0.4-0.8,0.8-0.8c0.5,0,0.8,0.4,0.8,0.8s-0.4,0.8-0.8,0.8
			C22.6,113.7,22.2,113.3,22.2,112.9z"/>
		<circle class="st21" cx="63.1" cy="48.5" r="0.6"/>
		<path class="st21" d="M61.5,50.1c0-0.5,0.4-0.9,0.9-0.9s0.9,0.4,0.9,0.9c0,0.5-0.4,0.9-0.9,0.9S61.5,50.6,61.5,50.1z"/>
		<path class="st21" d="M75.8,37.3c0-0.5,0.4-0.9,0.9-0.9s0.9,0.4,0.9,0.9c0,0.5-0.4,0.9-0.9,0.9S75.8,37.8,75.8,37.3z"/>
		<circle class="st21" cx="34.2" cy="107.9" r="1.2"/>
		<path class="st21" d="M65.2,59.5c0-0.6,0.5-1,1-1c0.6,0,1,0.5,1,1c0,0.6-0.5,1-1,1C65.6,60.5,65.2,60,65.2,59.5z"/>
		<path class="st21" d="M74.1,123.8c0-0.6,0.5-1,1-1c0.6,0,1,0.5,1,1c0,0.6-0.5,1-1,1C74.6,124.8,74.1,124.4,74.1,123.8z"/>
		<path class="st21" d="M77.8,127.5c0-0.5,0.4-0.9,0.9-0.9c0.5,0,0.9,0.4,0.9,0.9c0,0.5-0.4,0.9-0.9,0.9
			C78.2,128.4,77.8,128,77.8,127.5z"/>
		<path class="st21" d="M121.6,96.3c0-0.6,0.5-1.1,1.1-1.1c0.6,0,1.1,0.5,1.1,1.1c0,0.6-0.5,1.1-1.1,1.1
			C122.1,97.4,121.6,96.9,121.6,96.3z"/>
		<path class="st21" d="M123.5,115c0-0.6,0.5-1.1,1.1-1.1s1.1,0.5,1.1,1.1s-0.5,1.1-1.1,1.1S123.5,115.6,123.5,115z"/>
		<path class="st21" d="M73.8,52c0-0.6,0.5-1.2,1.2-1.2c0.6,0,1.2,0.5,1.2,1.2c0,0.6-0.5,1.2-1.2,1.2C74.3,53.1,73.8,52.6,73.8,52z"
			/>
		<circle class="st21" cx="57" cy="49.1" r="0.8"/>
		<circle class="st21" cx="70.2" cy="53.4" r="0.6"/>
		<path class="st21" d="M91.5,110.7c0-0.4,0.3-0.7,0.7-0.7c0.4,0,0.7,0.3,0.7,0.7c0,0.4-0.3,0.7-0.7,0.7
			C91.8,111.4,91.5,111.1,91.5,110.7z"/>
		<path class="st21" d="M26.5,102c0-0.6,0.5-1,1-1c0.6,0,1,0.5,1,1s-0.5,1-1,1C27,103,26.5,102.5,26.5,102z"/>
		<circle class="st21" cx="20.2" cy="102" r="0.6"/>
		<path class="st21" d="M98.1,57c0-0.7,0.5-1.2,1.2-1.2c0.7,0,1.2,0.5,1.2,1.2c0,0.7-0.5,1.2-1.2,1.2C98.6,58.2,98.1,57.7,98.1,57z"
			/>
		<path class="st21" d="M50,56.9c0-0.5,0.4-0.9,0.9-0.9c0.5,0,0.9,0.4,0.9,0.9c0,0.5-0.4,0.9-0.9,0.9C50.5,57.8,50,57.4,50,56.9z"/>
		<path class="st21" d="M88,50.1c0-0.5,0.4-0.9,0.9-0.9c0.5,0,0.9,0.4,0.9,0.9c0,0.5-0.4,0.9-0.9,0.9C88.4,51,88,50.6,88,50.1z"/>
		<circle class="st21" cx="86.9" cy="54.7" r="1.1"/>
		<path class="st21" d="M93.6,57.5c0-0.6,0.5-1.1,1.1-1.1c0.6,0,1.1,0.5,1.1,1.1c0,0.6-0.5,1.1-1.1,1.1
			C94.1,58.7,93.6,58.2,93.6,57.5z"/>
		<path class="st21" d="M118,120.2c0-0.5,0.4-0.9,0.9-0.9c0.5,0,0.9,0.4,0.9,0.9c0,0.5-0.4,0.9-0.9,0.9
			C118.4,121.1,118,120.7,118,120.2z"/>
		<circle class="st21" cx="87.9" cy="110.3" r="1.5"/>
		<path class="st21" d="M115.6,109.5c0-0.4,0.3-0.7,0.7-0.7s0.7,0.3,0.7,0.7c0,0.4-0.3,0.7-0.7,0.7S115.6,109.9,115.6,109.5z"/>
		<path class="st21" d="M135.9,103.4c0-0.6,0.5-1.1,1.1-1.1c0.6,0,1.1,0.5,1.1,1.1c0,0.6-0.5,1.1-1.1,1.1
			C136.4,104.4,135.9,104,135.9,103.4z"/>
		<circle class="st21" cx="100.9" cy="99.7" r="1.5"/>
		<path class="st21" d="M69.7,46.7c0-0.8,0.7-1.5,1.5-1.5s1.5,0.7,1.5,1.5c0,0.8-0.7,1.5-1.5,1.5S69.7,47.5,69.7,46.7z"/>
		<circle class="st21" cx="29" cy="91.2" r="1"/>
		<path class="st21" d="M112.2,121.1c0-0.6,0.5-1.1,1.1-1.1c0.6,0,1.1,0.5,1.1,1.1s-0.5,1.1-1.1,1.1
			C112.7,122.2,112.2,121.7,112.2,121.1z"/>
		<path class="st21" d="M106.2,104.3c0-0.7,0.6-1.3,1.3-1.3c0.7,0,1.3,0.6,1.3,1.3c0,0.7-0.6,1.3-1.3,1.3
			C106.8,105.6,106.2,105,106.2,104.3z"/>
		<path class="st21" d="M83.2,64.3c0-0.7,0.6-1.3,1.3-1.3c0.7,0,1.3,0.6,1.3,1.3c0,0.7-0.6,1.3-1.3,1.3C83.8,65.5,83.2,65,83.2,64.3
			z"/>
		<path class="st21" d="M56.7,57.8c0-0.5,0.4-0.8,0.8-0.8s0.8,0.4,0.8,0.8c0,0.5-0.4,0.8-0.8,0.8S56.7,58.3,56.7,57.8z"/>
		<path class="st21" d="M85.2,46.4c0-0.7,0.5-1.2,1.2-1.2c0.7,0,1.2,0.5,1.2,1.2c0,0.7-0.5,1.2-1.2,1.2C85.7,47.6,85.2,47,85.2,46.4
			z"/>
		<path class="st21" d="M96.4,115.6c0-0.5,0.4-0.8,0.8-0.8c0.5,0,0.8,0.4,0.8,0.8s-0.4,0.8-0.8,0.8C96.8,116.4,96.4,116,96.4,115.6z
			"/>
		<path class="st21" d="M79.8,42.3c0-0.9,0.7-1.6,1.6-1.6c0.9,0,1.6,0.7,1.6,1.6s-0.7,1.6-1.6,1.6C80.5,43.9,79.8,43.2,79.8,42.3z"
			/>
		<circle class="st21" cx="26.6" cy="94.8" r="0.9"/>
		<circle class="st21" cx="112.5" cy="111.6" r="1.1"/>
		<path class="st21" d="M108.5,98c0-0.6,0.5-1.2,1.2-1.2c0.6,0,1.2,0.5,1.2,1.2c0,0.6-0.5,1.2-1.2,1.2C109,99.1,108.5,98.6,108.5,98
			z"/>
		<path class="st21" d="M82.8,126.8c0-0.7,0.6-1.3,1.3-1.3c0.7,0,1.3,0.6,1.3,1.3c0,0.7-0.6,1.3-1.3,1.3
			C83.4,128.1,82.8,127.5,82.8,126.8z"/>
		<path class="st21" d="M99,92.8c0-0.5,0.4-0.8,0.8-0.8c0.5,0,0.8,0.4,0.8,0.8c0,0.5-0.4,0.8-0.8,0.8C99.3,93.7,99,93.3,99,92.8z"/>
		<path class="st21" d="M124.4,106.8c0-0.4,0.3-0.7,0.7-0.7c0.4,0,0.7,0.3,0.7,0.7c0,0.4-0.3,0.7-0.7,0.7
			C124.7,107.4,124.4,107.1,124.4,106.8z"/>
		<circle class="st21" cx="89.1" cy="37.1" r="1.2"/>
		<path class="st21" d="M64.7,63.3c0-0.4,0.3-0.7,0.7-0.7c0.4,0,0.7,0.3,0.7,0.7S65.9,64,65.5,64C65.1,64,64.7,63.7,64.7,63.3z"/>
		<circle class="st21" cx="29.7" cy="99.1" r="1.2"/>
		<path class="st21" d="M100.9,108.6c0-0.5,0.4-1,1-1s1,0.4,1,1c0,0.5-0.4,1-1,1S100.9,109.1,100.9,108.6z"/>
		<path class="st21" d="M37.6,104.9c0-0.6,0.5-1.1,1.1-1.1c0.6,0,1.1,0.5,1.1,1.1c0,0.6-0.5,1.1-1.1,1.1
			C38.1,106,37.6,105.5,37.6,104.9z"/>
		<circle class="st21" cx="103.2" cy="97.4" r="0.7"/>
		<path class="st21" d="M23.6,105.7c0-0.6,0.5-1.1,1.1-1.1c0.6,0,1.1,0.5,1.1,1.1c0,0.6-0.5,1.1-1.1,1.1
			C24.1,106.8,23.6,106.3,23.6,105.7z"/>
		<circle class="st21" cx="97.6" cy="46.7" r="1.1"/>
		<circle class="st21" cx="50.9" cy="60.7" r="1"/>
		<path class="st21" d="M85.9,38.1c0-0.5,0.4-1,1-1c0.5,0,1,0.4,1,1s-0.4,1-1,1C86.4,39,85.9,38.6,85.9,38.1z"/>
		<path class="st21" d="M14.3,107c0-0.5,0.4-0.9,0.9-0.9c0.5,0,0.9,0.4,0.9,0.9c0,0.5-0.4,0.9-0.9,0.9
			C14.7,107.9,14.3,107.5,14.3,107z"/>
		<path class="st21" d="M113.7,101.4c0-0.8,0.6-1.4,1.4-1.4c0.8,0,1.4,0.6,1.4,1.4c0,0.8-0.6,1.4-1.4,1.4
			C114.3,102.8,113.7,102.2,113.7,101.4z"/>
		<path class="st21" d="M96,123.3c0-0.4,0.4-0.8,0.8-0.8c0.4,0,0.8,0.4,0.8,0.8c0,0.4-0.4,0.8-0.8,0.8C96.4,124.1,96,123.7,96,123.3
			z"/>
		<path class="st21" d="M92.7,124.7c0-0.5,0.4-0.9,0.9-0.9c0.5,0,0.9,0.4,0.9,0.9c0,0.5-0.4,0.9-0.9,0.9
			C93.1,125.6,92.7,125.2,92.7,124.7z"/>
		<path class="st21" d="M97.5,106.1c0-0.7,0.5-1.2,1.2-1.2s1.2,0.5,1.2,1.2s-0.5,1.2-1.2,1.2S97.5,106.8,97.5,106.1z"/>
		<path class="st21" d="M125.8,104c0-0.8,0.7-1.5,1.5-1.5c0.8,0,1.5,0.7,1.5,1.5c0,0.8-0.7,1.5-1.5,1.5
			C126.5,105.5,125.8,104.8,125.8,104z"/>
		<path class="st21" d="M108.7,82.9c0-0.6,0.5-1.1,1.1-1.1c0.6,0,1.1,0.5,1.1,1.1s-0.5,1.1-1.1,1.1
			C109.2,83.9,108.7,83.5,108.7,82.9z"/>
		<circle class="st21" cx="67.8" cy="49.7" r="1.1"/>
		<circle class="st21" cx="9.2" cy="102.7" r="0.8"/>
		<path class="st21" d="M108.4,117.2c0-0.7,0.6-1.3,1.3-1.3s1.3,0.6,1.3,1.3s-0.6,1.3-1.3,1.3S108.4,117.9,108.4,117.2z"/>
		<path class="st21" d="M33.7,91c0-0.6,0.4-1,1-1c0.6,0,1,0.4,1,1s-0.4,1-1,1C34.1,92,33.7,91.6,33.7,91z"/>
		<path class="st21" d="M92.2,62.5c0-0.6,0.5-1.2,1.2-1.2c0.6,0,1.2,0.5,1.2,1.2s-0.5,1.2-1.2,1.2C92.7,63.7,92.2,63.2,92.2,62.5z"
			/>
		<path class="st21" d="M84.5,50.9c0-0.5,0.4-0.9,0.9-0.9s0.9,0.4,0.9,0.9s-0.4,0.9-0.9,0.9S84.5,51.4,84.5,50.9z"/>
		<circle class="st21" cx="61.2" cy="52.4" r="1.3"/>
		<path class="st21" d="M61.1,60.8c0-0.7,0.5-1.2,1.2-1.2c0.7,0,1.2,0.5,1.2,1.2c0,0.7-0.5,1.2-1.2,1.2C61.7,62,61.1,61.5,61.1,60.8
			z"/>
		<path class="st21" d="M80.7,29.9c0-0.6,0.5-1.1,1.1-1.1c0.6,0,1.1,0.5,1.1,1.1c0,0.6-0.5,1.1-1.1,1.1C81.2,31,80.7,30.5,80.7,29.9
			z"/>
		<path class="st21" d="M31.7,105.1c0-0.6,0.5-1.1,1.1-1.1c0.6,0,1.1,0.5,1.1,1.1c0,0.6-0.5,1.1-1.1,1.1
			C32.1,106.2,31.7,105.7,31.7,105.1z"/>
		<path class="st21" d="M79,50.4c0-0.6,0.5-1.1,1.1-1.1c0.6,0,1.1,0.5,1.1,1.1c0,0.6-0.5,1.1-1.1,1.1C79.5,51.5,79,51,79,50.4z"/>
		<path class="st21" d="M102.4,103.5c0-0.4,0.4-0.8,0.8-0.8c0.4,0,0.8,0.4,0.8,0.8c0,0.4-0.4,0.8-0.8,0.8
			C102.8,104.3,102.4,103.9,102.4,103.5z"/>
		<path class="st21" d="M67.4,125.8c0-0.4,0.4-0.8,0.8-0.8c0.4,0,0.8,0.4,0.8,0.8c0,0.4-0.4,0.8-0.8,0.8
			C67.8,126.6,67.4,126.3,67.4,125.8z"/>
		<circle class="st21" cx="116.6" cy="92" r="1.1"/>
		<path class="st21" d="M129.8,110.1c0-0.4,0.3-0.8,0.8-0.8s0.8,0.3,0.8,0.8s-0.3,0.8-0.8,0.8S129.8,110.6,129.8,110.1z"/>
		<path class="st21" d="M77.6,54.3c0-0.6,0.5-1.1,1.1-1.1c0.6,0,1.1,0.5,1.1,1.1c0,0.6-0.5,1.1-1.1,1.1
			C78.1,55.4,77.6,54.9,77.6,54.3z"/>
		<path class="st21" d="M55.4,63c0-0.7,0.6-1.2,1.2-1.2c0.7,0,1.2,0.6,1.2,1.2s-0.6,1.2-1.2,1.2C56,64.2,55.4,63.6,55.4,63z"/>
		<path class="st21" d="M72.3,56.1c0-0.5,0.4-0.9,0.9-0.9c0.5,0,0.9,0.4,0.9,0.9s-0.4,0.9-0.9,0.9C72.7,57.1,72.3,56.7,72.3,56.1z"
			/>
		<circle class="st21" cx="91" cy="105.3" r="1"/>
		<circle class="st21" cx="70.7" cy="36.8" r="1.2"/>
		<path class="st21" d="M70.9,59.6c0-0.6,0.5-1,1-1c0.6,0,1,0.5,1,1c0,0.6-0.5,1-1,1C71.4,60.6,70.9,60.1,70.9,59.6z"/>
		<circle class="st21" cx="14.6" cy="101" r="1.5"/>
		<path class="st21" d="M65,53c0-0.7,0.6-1.2,1.2-1.2s1.2,0.6,1.2,1.2c0,0.7-0.6,1.2-1.2,1.2S65,53.7,65,53z"/>
		<path class="st21" d="M51.7,59.4c0-0.4,0.3-0.7,0.7-0.7c0.4,0,0.7,0.3,0.7,0.7s-0.3,0.7-0.7,0.7C52,60.2,51.7,59.8,51.7,59.4z"/>
		<path class="st21" d="M100.3,51.6c0-0.6,0.5-1,1-1c0.6,0,1,0.5,1,1c0,0.6-0.5,1-1,1C100.8,52.6,100.3,52.2,100.3,51.6z"/>
		<path class="st21" d="M92.2,39c0-0.4,0.3-0.7,0.7-0.7c0.4,0,0.7,0.3,0.7,0.7s-0.3,0.7-0.7,0.7C92.5,39.8,92.2,39.4,92.2,39z"/>
		<path class="st21" d="M45.6,62.7c0-0.8,0.6-1.4,1.4-1.4c0.8,0,1.4,0.6,1.4,1.4c0,0.8-0.6,1.4-1.4,1.4
			C46.2,64.1,45.6,63.5,45.6,62.7z"/>
		<path class="st21" d="M131.9,111.1c0-0.6,0.5-1,1-1s1,0.5,1,1c0,0.6-0.5,1-1,1S131.9,111.7,131.9,111.1z"/>
		<path class="st21" d="M85.3,120.1c0-0.7,0.6-1.3,1.3-1.3c0.7,0,1.3,0.6,1.3,1.3c0,0.7-0.6,1.3-1.3,1.3
			C85.9,121.4,85.3,120.8,85.3,120.1z"/>
		<circle class="st21" cx="120.7" cy="110.8" r="0.9"/>
		<path class="st21" d="M138.3,107c0-0.6,0.5-1.1,1.1-1.1c0.6,0,1.1,0.5,1.1,1.1c0,0.6-0.5,1.1-1.1,1.1
			C138.8,108.1,138.3,107.6,138.3,107z"/>
		<circle class="st21" cx="106.2" cy="94.3" r="1.1"/>
		<path class="st21" d="M67.6,63.8c0-0.8,0.6-1.4,1.4-1.4s1.4,0.6,1.4,1.4s-0.6,1.4-1.4,1.4S67.6,64.6,67.6,63.8z"/>
		<path class="st21" d="M26.8,87.4c0-0.7,0.6-1.3,1.3-1.3c0.7,0,1.3,0.6,1.3,1.3s-0.6,1.3-1.3,1.3C27.4,88.6,26.8,88.1,26.8,87.4z"
			/>
		<circle class="st21" cx="70.4" cy="128.6" r="0.9"/>
		<path class="st21" d="M32.9,100.8c0-0.7,0.6-1.3,1.3-1.3c0.7,0,1.3,0.6,1.3,1.3c0,0.7-0.6,1.3-1.3,1.3
			C33.5,102.1,32.9,101.5,32.9,100.8z"/>
		<path class="st21" d="M79.3,61.5c0-0.6,0.5-1.2,1.2-1.2c0.6,0,1.2,0.5,1.2,1.2s-0.5,1.2-1.2,1.2C79.8,62.7,79.3,62.2,79.3,61.5z"
			/>
		<circle class="st21" cx="5" cy="106.5" r="0.9"/>
		<path class="st21" d="M82.9,41.2c0-0.5,0.4-0.9,0.9-0.9c0.5,0,0.9,0.4,0.9,0.9s-0.4,0.9-0.9,0.9C83.3,42.1,82.9,41.7,82.9,41.2z"
			/>
		<path class="st21" d="M81,56.1c0-0.6,0.5-1.1,1.1-1.1c0.6,0,1.1,0.5,1.1,1.1c0,0.6-0.5,1.1-1.1,1.1C81.5,57.2,81,56.7,81,56.1z"/>
		<path class="st21" d="M23.7,101.4c0-0.6,0.4-1,1-1c0.6,0,1,0.4,1,1c0,0.6-0.4,1-1,1C24.2,102.4,23.7,102,23.7,101.4z"/>
		<circle class="st21" cx="104.8" cy="127.7" r="1.3"/>
		<circle class="st21" cx="111.6" cy="103.8" r="1"/>
		<path class="st21" d="M91.9,128.6c0-0.7,0.5-1.2,1.2-1.2c0.7,0,1.2,0.5,1.2,1.2c0,0.7-0.5,1.2-1.2,1.2
			C92.4,129.8,91.9,129.2,91.9,128.6z"/>
		<path class="st21" d="M111.6,89.7c0-0.6,0.5-1.1,1.1-1.1c0.6,0,1.1,0.5,1.1,1.1c0,0.6-0.5,1.1-1.1,1.1
			C112.1,90.8,111.6,90.3,111.6,89.7z"/>
		<path class="st21" d="M131.1,106.3c0-0.4,0.3-0.7,0.7-0.7c0.4,0,0.7,0.3,0.7,0.7c0,0.4-0.3,0.7-0.7,0.7
			C131.4,107,131.1,106.7,131.1,106.3z"/>
	</g>
	<g>
		<g>
			<defs>
				<path id="SVGID_11_" d="M37.2,58.3c-0.5,0.8-0.9,1.6-1.3,2.4c0,10,0,27.1,0.1,27.5c0.1,0.8,0.2,1.5,0.4,2.2c2,3.9,5,7,9,8.7
					c13.8,5.7,28.7-12.4,24.4-29.2C54.1,69.3,41.2,64.6,37.2,58.3z"/>
			</defs>
			<clipPath id="SVGID_12_">
				<use xlink:href="#SVGID_11_"  style="overflow:visible;"/>
			</clipPath>
			<rect x="35.9" y="58.3" class="st22" width="38.2" height="46.4"/>
			
				<ellipse transform="matrix(0.1097 -0.994 0.994 0.1097 -31.6393 118.1675)" class="st22" cx="50.1" cy="76.7" rx="23" ry="19.2"/>
			
				<ellipse transform="matrix(0.1097 -0.994 0.994 0.1097 -31.6397 118.1666)" class="st23" cx="50.1" cy="76.7" rx="22.9" ry="19.1"/>
			
				<ellipse transform="matrix(0.1097 -0.994 0.994 0.1097 -31.6392 118.1676)" class="st24" cx="50.1" cy="76.7" rx="22.9" ry="19"/>
			
				<ellipse transform="matrix(0.1097 -0.994 0.994 0.1097 -31.6398 118.1665)" class="st25" cx="50.1" cy="76.7" rx="22.8" ry="19"/>
			
				<ellipse transform="matrix(0.1097 -0.994 0.994 0.1097 -31.6392 118.1677)" class="st26" cx="50.1" cy="76.7" rx="22.7" ry="18.9"/>
			
				<ellipse transform="matrix(0.1097 -0.994 0.994 0.1097 -31.6397 118.1667)" class="st27" cx="50.1" cy="76.7" rx="22.6" ry="18.8"/>
			
				<ellipse transform="matrix(0.1097 -0.994 0.994 0.1097 -31.6392 118.1678)" class="st28" cx="50.1" cy="76.7" rx="22.5" ry="18.7"/>
			
				<ellipse transform="matrix(0.1097 -0.994 0.994 0.1097 -31.6396 118.1669)" class="st29" cx="50.1" cy="76.7" rx="22.4" ry="18.7"/>
			
				<ellipse transform="matrix(0.1097 -0.994 0.994 0.1097 -31.6395 118.1671)" class="st30" cx="50.1" cy="76.7" rx="22.3" ry="18.6"/>
			
				<ellipse transform="matrix(0.1097 -0.994 0.994 0.1097 -31.6395 118.1671)" class="st31" cx="50.1" cy="76.7" rx="22.2" ry="18.5"/>
			
				<ellipse transform="matrix(0.1097 -0.994 0.994 0.1097 -31.6395 118.1671)" class="st32" cx="50.1" cy="76.7" rx="22.1" ry="18.4"/>
			
				<ellipse transform="matrix(0.1097 -0.994 0.994 0.1097 -31.6395 118.1672)" class="st33" cx="50.1" cy="76.7" rx="22" ry="18.4"/>
			
				<ellipse transform="matrix(0.1097 -0.994 0.994 0.1097 -31.6394 118.1673)" class="st34" cx="50.1" cy="76.7" rx="22" ry="18.3"/>
			
				<ellipse transform="matrix(0.1097 -0.994 0.994 0.1097 -31.6394 118.1672)" class="st35" cx="50.1" cy="76.7" rx="21.9" ry="18.2"/>
			
				<ellipse transform="matrix(0.1097 -0.994 0.994 0.1097 -31.6394 118.1674)" class="st36" cx="50.1" cy="76.7" rx="21.8" ry="18.1"/>
			
				<ellipse transform="matrix(0.1097 -0.994 0.994 0.1097 -31.6397 118.1667)" class="st37" cx="50.1" cy="76.7" rx="21.7" ry="18.1"/>
			
				<ellipse transform="matrix(0.1097 -0.994 0.994 0.1097 -31.6398 118.1664)" class="st38" cx="50.1" cy="76.7" rx="21.6" ry="18"/>
			
				<ellipse transform="matrix(0.1097 -0.994 0.994 0.1097 -31.6398 118.1665)" class="st39" cx="50.1" cy="76.7" rx="21.5" ry="17.9"/>
			
				<ellipse transform="matrix(0.1097 -0.994 0.994 0.1097 -31.6392 118.1677)" class="st40" cx="50.1" cy="76.7" rx="21.4" ry="17.8"/>
			
				<ellipse transform="matrix(0.1097 -0.994 0.994 0.1097 -31.6392 118.1677)" class="st41" cx="50.1" cy="76.7" rx="21.3" ry="17.8"/>
			
				<ellipse transform="matrix(0.1097 -0.994 0.994 0.1097 -31.6398 118.1666)" class="st42" cx="50.1" cy="76.7" rx="21.2" ry="17.7"/>
			
				<ellipse transform="matrix(0.1097 -0.994 0.994 0.1097 -31.6397 118.1667)" class="st43" cx="50.1" cy="76.7" rx="21.1" ry="17.6"/>
			
				<ellipse transform="matrix(0.1097 -0.994 0.994 0.1097 -31.6394 118.1673)" class="st44" cx="50.1" cy="76.7" rx="21.1" ry="17.5"/>
			<ellipse transform="matrix(0.1097 -0.994 0.994 0.1097 -31.639 118.1681)" class="st45" cx="50.1" cy="76.7" rx="21" ry="17.5"/>
			
				<ellipse transform="matrix(0.1097 -0.994 0.994 0.1097 -31.6401 118.166)" class="st46" cx="50.1" cy="76.7" rx="20.9" ry="17.4"/>
			
				<ellipse transform="matrix(0.1097 -0.994 0.994 0.1097 -31.6395 118.1671)" class="st47" cx="50.1" cy="76.7" rx="20.8" ry="17.3"/>
			
				<ellipse transform="matrix(0.1097 -0.994 0.994 0.1097 -31.6395 118.1672)" class="st48" cx="50.1" cy="76.7" rx="20.7" ry="17.2"/>
			
				<ellipse transform="matrix(0.1097 -0.994 0.994 0.1097 -31.6388 118.1684)" class="st49" cx="50.1" cy="76.7" rx="20.6" ry="17.2"/>
			<path class="st50" d="M67.1,78.6c-1.2,11.3-9.9,19.5-19.2,18.5c-9.4-1-16-11-14.7-22.3c1.2-11.3,9.9-19.5,19.2-18.5
				C61.8,57.4,68.4,67.4,67.1,78.6z"/>
			
				<ellipse transform="matrix(0.1097 -0.994 0.994 0.1097 -31.6397 118.1666)" class="st51" cx="50.1" cy="76.7" rx="20.4" ry="17"/>
			
				<ellipse transform="matrix(0.1097 -0.994 0.994 0.1097 -31.6394 118.1674)" class="st52" cx="50.1" cy="76.7" rx="20.3" ry="16.9"/>
			
				<ellipse transform="matrix(0.1097 -0.994 0.994 0.1097 -31.6392 118.1677)" class="st53" cx="50.1" cy="76.7" rx="20.2" ry="16.9"/>
			
				<ellipse transform="matrix(0.1097 -0.994 0.994 0.1097 -31.6398 118.1665)" class="st54" cx="50.1" cy="76.7" rx="20.1" ry="16.8"/>
			
				<ellipse transform="matrix(0.1097 -0.994 0.994 0.1097 -31.6397 118.1666)" class="st55" cx="50.1" cy="76.7" rx="20.1" ry="16.7"/>
			<path class="st56" d="M66.7,78.6c-1.2,11-9.6,19-18.7,18c-9.1-1-15.5-10.7-14.3-21.7c1.2-11,9.6-19,18.7-18
				C61.5,57.9,67.9,67.6,66.7,78.6z"/>
			
				<ellipse transform="matrix(0.1097 -0.994 0.994 0.1097 -31.6398 118.1666)" class="st57" cx="50.1" cy="76.7" rx="19.9" ry="16.6"/>
			
				<ellipse transform="matrix(0.1097 -0.994 0.994 0.1097 -31.6391 118.168)" class="st58" cx="50.1" cy="76.7" rx="19.8" ry="16.5"/>
			
				<ellipse transform="matrix(0.1097 -0.994 0.994 0.1097 -31.6396 118.1669)" class="st59" cx="50.1" cy="76.7" rx="19.7" ry="16.4"/>
			
				<ellipse transform="matrix(0.1097 -0.994 0.994 0.1097 -31.6395 118.167)" class="st60" cx="50.1" cy="76.7" rx="19.6" ry="16.3"/>
			
				<ellipse transform="matrix(0.1097 -0.994 0.994 0.1097 -31.6396 118.167)" class="st61" cx="50.1" cy="76.7" rx="19.5" ry="16.3"/>
			
				<ellipse transform="matrix(0.1097 -0.994 0.994 0.1097 -31.6395 118.1672)" class="st62" cx="50.1" cy="76.7" rx="19.4" ry="16.2"/>
			
				<ellipse transform="matrix(0.1097 -0.994 0.994 0.1097 -31.6395 118.1671)" class="st63" cx="50.1" cy="76.7" rx="19.3" ry="16.1"/>
			
				<ellipse transform="matrix(0.1097 -0.994 0.994 0.1097 -31.6395 118.1672)" class="st64" cx="50.1" cy="76.7" rx="19.2" ry="16"/>
			
				<ellipse transform="matrix(0.1097 -0.994 0.994 0.1097 -31.6394 118.1673)" class="st65" cx="50.1" cy="76.7" rx="19.2" ry="16"/>
			
				<ellipse transform="matrix(0.1097 -0.994 0.994 0.1097 -31.6393 118.1676)" class="st66" cx="50.1" cy="76.7" rx="19.1" ry="15.9"/>
			<path class="st67" d="M65.9,78.5c-1.1,10.4-9.1,18.1-17.8,17.1c-8.7-1-14.8-10.2-13.6-20.6c1.1-10.4,9.1-18.1,17.8-17.1
				S67,68.1,65.9,78.5z"/>
			
				<ellipse transform="matrix(0.1097 -0.994 0.994 0.1097 -31.6392 118.1676)" class="st68" cx="50.1" cy="76.7" rx="18.9" ry="15.7"/>
			
				<ellipse transform="matrix(0.1097 -0.994 0.994 0.1097 -31.6399 118.1664)" class="st69" cx="50.1" cy="76.7" rx="18.8" ry="15.7"/>
			
				<ellipse transform="matrix(0.1097 -0.994 0.994 0.1097 -31.6392 118.1677)" class="st70" cx="50.1" cy="76.7" rx="18.7" ry="15.6"/>
			
				<ellipse transform="matrix(0.1097 -0.994 0.994 0.1097 -31.6391 118.1679)" class="st71" cx="50.1" cy="76.7" rx="18.6" ry="15.5"/>
			
				<ellipse transform="matrix(0.1097 -0.994 0.994 0.1097 -31.6391 118.1678)" class="st72" cx="50.1" cy="76.7" rx="18.5" ry="15.4"/>
			
				<ellipse transform="matrix(0.1097 -0.994 0.994 0.1097 -31.6397 118.1668)" class="st73" cx="50.1" cy="76.7" rx="18.4" ry="15.4"/>
			<path class="st74" d="M65.3,78.4C64.2,88.5,56.5,95.9,48.1,95c-8.4-0.9-14.3-9.8-13.2-19.9c1.1-10.1,8.8-17.5,17.2-16.6
				C60.5,59.4,66.4,68.4,65.3,78.4z"/>
			<path class="st75" d="M65.3,78.4c-1.1,10-8.8,17.4-17.1,16.5C39.8,94,33.9,85.1,35,75.1c1.1-10,8.8-17.4,17.1-16.5
				C60.5,59.5,66.4,68.4,65.3,78.4z"/>
			
				<ellipse transform="matrix(0.1097 -0.994 0.994 0.1097 -31.6393 118.1674)" class="st76" cx="50.1" cy="76.7" rx="18.2" ry="15.1"/>
			
				<ellipse transform="matrix(0.1097 -0.994 0.994 0.1097 -31.6395 118.167)" class="st77" cx="50.1" cy="76.7" rx="18.1" ry="15.1"/>
			<ellipse transform="matrix(0.1097 -0.994 0.994 0.1097 -31.6394 118.1673)" class="st78" cx="50.1" cy="76.7" rx="18" ry="15"/>
			
				<ellipse transform="matrix(0.1097 -0.994 0.994 0.1097 -31.6388 118.1685)" class="st79" cx="50.1" cy="76.7" rx="17.9" ry="14.9"/>
			
				<ellipse transform="matrix(0.1097 -0.994 0.994 0.1097 -31.64 118.1661)" class="st80" cx="50.1" cy="76.7" rx="17.8" ry="14.8"/>
			
				<ellipse transform="matrix(0.1097 -0.994 0.994 0.1097 -31.6399 118.1662)" class="st81" cx="50.1" cy="76.7" rx="17.7" ry="14.7"/>
			
				<ellipse transform="matrix(0.1097 -0.994 0.994 0.1097 -31.6393 118.1675)" class="st82" cx="50.1" cy="76.7" rx="17.6" ry="14.7"/>
			
				<ellipse transform="matrix(0.1097 -0.994 0.994 0.1097 -31.6392 118.1677)" class="st83" cx="50.1" cy="76.7" rx="17.5" ry="14.6"/>
			
				<ellipse transform="matrix(0.1097 -0.994 0.994 0.1097 -31.6399 118.1663)" class="st84" cx="50.1" cy="76.7" rx="17.4" ry="14.5"/>
			
				<ellipse transform="matrix(0.1097 -0.994 0.994 0.1097 -31.6399 118.1664)" class="st85" cx="50.1" cy="76.7" rx="17.3" ry="14.4"/>
			
				<ellipse transform="matrix(0.1097 -0.994 0.994 0.1097 -31.6391 118.168)" class="st86" cx="50.1" cy="76.7" rx="17.3" ry="14.4"/>
			
				<ellipse transform="matrix(0.1097 -0.994 0.994 0.1097 -31.6391 118.168)" class="st87" cx="50.1" cy="76.7" rx="17.2" ry="14.3"/>
			
				<ellipse transform="matrix(0.1097 -0.994 0.994 0.1097 -31.6397 118.1668)" class="st88" cx="50.1" cy="76.7" rx="17.1" ry="14.2"/>
			
				<ellipse transform="matrix(0.1097 -0.994 0.994 0.1097 -31.6397 118.1668)" class="st89" cx="50.1" cy="76.7" rx="17" ry="14.1"/>
			
				<ellipse transform="matrix(0.1097 -0.994 0.994 0.1097 -31.6396 118.1669)" class="st90" cx="50.1" cy="76.7" rx="16.9" ry="14.1"/>
			<path class="st91" d="M64.1,78.3c-1,9.2-8.1,16-15.8,15.2c-7.7-0.8-13.1-9-12.1-18.2c1-9.2,8.1-16,15.8-15.2
				C59.7,60.9,65.1,69.1,64.1,78.3z"/>
			
				<ellipse transform="matrix(0.1097 -0.994 0.994 0.1097 -31.6395 118.1671)" class="st92" cx="50.1" cy="76.7" rx="16.7" ry="13.9"/>
			
				<ellipse transform="matrix(0.1097 -0.994 0.994 0.1097 -31.6395 118.1672)" class="st93" cx="50.1" cy="76.7" rx="16.6" ry="13.8"/>
			
				<ellipse transform="matrix(0.1097 -0.994 0.994 0.1097 -31.6395 118.1672)" class="st94" cx="50.1" cy="76.7" rx="16.5" ry="13.8"/>
			
				<ellipse transform="matrix(0.1097 -0.994 0.994 0.1097 -31.6393 118.1675)" class="st95" cx="50.1" cy="76.7" rx="16.4" ry="13.7"/>
			
				<ellipse transform="matrix(0.1097 -0.994 0.994 0.1097 -31.6391 118.1677)" class="st96" cx="50.1" cy="76.7" rx="16.4" ry="13.6"/>
			<path class="st97" d="M63.6,78.2c-1,8.9-7.8,15.5-15.2,14.7c-7.4-0.8-12.7-8.7-11.7-17.7c1-8.9,7.8-15.5,15.2-14.7
				C59.4,61.4,64.6,69.3,63.6,78.2z"/>
			<path class="st98" d="M63.5,78.2c-1,8.9-7.8,15.4-15.2,14.6C41,92,35.8,84.1,36.8,75.3c1-8.9,7.8-15.4,15.2-14.6
				C59.3,61.5,64.5,69.3,63.5,78.2z"/>
			
				<ellipse transform="matrix(0.1097 -0.994 0.994 0.1097 -31.6399 118.1663)" class="st99" cx="50.1" cy="76.7" rx="16.1" ry="13.4"/>
			<path class="st100" d="M63.4,78.2c-1,8.8-7.7,15.2-15,14.4c-7.3-0.8-12.5-8.6-11.5-17.4c1-8.8,7.7-15.2,15-14.4
				C59.2,61.7,64.4,69.4,63.4,78.2z"/>
			<path class="st101" d="M63.3,78.2c-1,8.7-7.6,15.2-14.9,14.4C41.1,91.7,36,84,37,75.3s7.6-15.2,14.9-14.4
				C59.2,61.7,64.3,69.5,63.3,78.2z"/>
			
				<ellipse transform="matrix(0.1097 -0.994 0.994 0.1097 -31.6397 118.1668)" class="st102" cx="50.1" cy="76.7" rx="15.8" ry="13.2"/>
			
				<ellipse transform="matrix(0.1097 -0.994 0.994 0.1097 -31.6397 118.1668)" class="st103" cx="50.1" cy="76.7" rx="15.7" ry="13.1"/>
			
				<ellipse transform="matrix(0.1097 -0.994 0.994 0.1097 -31.6396 118.1669)" class="st104" cx="50.1" cy="76.7" rx="15.6" ry="13"/>
			
				<ellipse transform="matrix(0.1097 -0.994 0.994 0.1097 -31.6388 118.1685)" class="st105" cx="50.1" cy="76.7" rx="15.5" ry="12.9"/>
			
				<ellipse transform="matrix(0.1097 -0.994 0.994 0.1097 -31.6395 118.1671)" class="st106" cx="50.1" cy="76.7" rx="15.4" ry="12.9"/>
			<path class="st107" d="M62.9,78.1c-0.9,8.4-7.4,14.6-14.4,13.9c-7-0.8-12-8.2-11-16.7c0.9-8.4,7.4-14.6,14.4-13.9
				C58.9,62.3,63.8,69.7,62.9,78.1z"/>
			
				<ellipse transform="matrix(0.1097 -0.994 0.994 0.1097 -31.6394 118.1672)" class="st108" cx="50.1" cy="76.7" rx="15.3" ry="12.7"/>
			
				<ellipse transform="matrix(0.1097 -0.994 0.994 0.1097 -31.6394 118.1674)" class="st109" cx="50.1" cy="76.7" rx="15.2" ry="12.6"/>
			
				<ellipse transform="matrix(0.1097 -0.994 0.994 0.1097 -31.6393 118.1675)" class="st110" cx="50.1" cy="76.7" rx="15.1" ry="12.6"/>
			<ellipse transform="matrix(0.1097 -0.994 0.994 0.1097 -31.64 118.166)" class="st111" cx="50.1" cy="76.7" rx="15" ry="12.5"/>
			
				<ellipse transform="matrix(0.1097 -0.994 0.994 0.1097 -31.6392 118.1677)" class="st112" cx="50.1" cy="76.7" rx="14.9" ry="12.4"/>
			<path class="st113" d="M62.4,78.1c-0.9,8.1-7.1,14.1-13.9,13.4c-6.8-0.7-11.5-7.9-10.6-16.1C38.8,67.3,45,61.3,51.8,62
				C58.5,62.8,63.3,70,62.4,78.1z"/>
			
				<ellipse transform="matrix(0.1097 -0.994 0.994 0.1097 -31.6392 118.1678)" class="st114" cx="50.1" cy="76.7" rx="14.7" ry="12.3"/>
			<path class="st115" d="M62.3,78.1c-0.9,8-7,13.9-13.7,13.2c-6.7-0.7-11.4-7.9-10.5-15.9c0.9-8,7-13.9,13.7-13.2
				C58.4,62.9,63.1,70,62.3,78.1z"/>
			<path class="st116" d="M62.2,78.1c-0.9,8-7,13.9-13.6,13.1c-6.7-0.7-11.3-7.8-10.4-15.8c0.9-8,7-13.9,13.6-13.1
				C58.4,63,63.1,70.1,62.2,78.1z"/>
			<path class="st117" d="M62.1,78.1c-0.9,7.9-6.9,13.8-13.6,13c-6.6-0.7-11.3-7.8-10.4-15.7c0.9-7.9,6.9-13.8,13.6-13
				C58.3,63.1,63,70.1,62.1,78.1z"/>
			
				<ellipse transform="matrix(0.1097 -0.994 0.994 0.1097 -31.6397 118.1667)" class="st118" cx="50.1" cy="76.7" rx="14.4" ry="12"/>
			<path class="st119" d="M62,78.1c-0.9,7.8-6.9,13.6-13.4,12.9c-6.5-0.7-11.1-7.7-10.3-15.5c0.9-7.8,6.9-13.6,13.4-12.9
				C58.2,63.3,62.8,70.2,62,78.1z"/>
			
				<ellipse transform="matrix(0.1097 -0.994 0.994 0.1097 -31.6395 118.1671)" class="st120" cx="50.1" cy="76.7" rx="14.2" ry="11.8"/>
			<path class="st121" d="M61.8,78C61,85.8,55,91.5,48.6,90.8s-11-7.6-10.1-15.3c0.9-7.7,6.8-13.4,13.2-12.7
				C58.1,63.4,62.7,70.3,61.8,78z"/>
			
				<ellipse transform="matrix(0.1097 -0.994 0.994 0.1097 -31.6394 118.1673)" class="st122" cx="50.1" cy="76.7" rx="14" ry="11.7"/>
			<path class="st123" d="M61.7,78c-0.8,7.6-6.7,13.3-13,12.6c-6.4-0.7-10.8-7.5-10-15.1c0.8-7.6,6.7-13.3,13-12.6
				C58,63.6,62.5,70.4,61.7,78z"/>
			<path class="st124" d="M61.6,78c-0.8,7.6-6.6,13.2-13,12.5c-6.3-0.7-10.8-7.4-9.9-15c0.8-7.6,6.6-13.2,13-12.5
				C58,63.7,62.4,70.4,61.6,78z"/>
			<path class="st125" d="M61.5,78c-0.8,7.5-6.6,13.1-12.9,12.4c-6.3-0.7-10.7-7.4-9.9-14.9c0.8-7.5,6.6-13.1,12.9-12.4
				C57.9,63.8,62.3,70.5,61.5,78z"/>
			
				<ellipse transform="matrix(0.1097 -0.994 0.994 0.1097 -31.6392 118.1677)" class="st126" cx="50.1" cy="76.7" rx="13.6" ry="11.4"/>
			<path class="st127" d="M61.4,78c-0.8,7.4-6.5,12.9-12.7,12.2c-6.2-0.7-10.6-7.3-9.7-14.7c0.8-7.4,6.5-12.9,12.7-12.2
				C57.8,64,62.2,70.5,61.4,78z"/>
			
				<ellipse transform="matrix(0.1097 -0.994 0.994 0.1097 -31.6392 118.1678)" class="st128" cx="50.1" cy="76.7" rx="13.5" ry="11.2"/>
			<path class="st129" d="M61.2,78c-0.8,7.3-6.4,12.7-12.5,12.1c-6.1-0.7-10.4-7.2-9.6-14.5c0.8-7.3,6.4-12.7,12.5-12.1
				C57.7,64.1,62,70.6,61.2,78z"/>
			
				<ellipse transform="matrix(0.1097 -0.994 0.994 0.1097 -31.6398 118.1665)" class="st130" cx="50.1" cy="76.7" rx="13.3" ry="11.1"/>
			<path class="st131" d="M61.1,78c-0.8,7.2-6.3,12.6-12.4,11.9c-6-0.7-10.3-7.1-9.5-14.3C40,68.3,45.6,63,51.6,63.6
				C57.6,64.3,61.9,70.7,61.1,78z"/>
			<path class="st132" d="M61,77.9c-0.8,7.2-6.3,12.5-12.3,11.8c-6-0.7-10.2-7-9.4-14.2c0.8-7.2,6.3-12.5,12.3-11.8
				C57.6,64.4,61.8,70.8,61,77.9z"/>
			<path class="st133" d="M60.9,77.9c-0.8,7.1-6.2,12.4-12.2,11.7c-5.9-0.7-10.1-7-9.3-14.1c0.8-7.1,6.2-12.4,12.2-11.7
				C57.5,64.5,61.7,70.8,60.9,77.9z"/>
			<path class="st134" d="M60.8,77.9c-0.8,7.1-6.2,12.3-12.1,11.7c-5.9-0.7-10.1-6.9-9.3-14c0.8-7.1,6.2-12.3,12.1-11.7
				C57.5,64.6,61.6,70.8,60.8,77.9z"/>
			<path class="st135" d="M60.8,77.9c-0.8,7-6.2,12.2-12,11.6c-5.9-0.6-10-6.9-9.2-13.9c0.8-7,6.2-12.2,12-11.6
				C57.4,64.6,61.5,70.9,60.8,77.9z"/>
			<path class="st136" d="M60.7,77.9c-0.8,7-6.1,12.1-11.9,11.5c-5.8-0.6-9.9-6.8-9.1-13.8s6.1-12.1,11.9-11.5
				C57.4,64.7,61.5,70.9,60.7,77.9z"/>
			<path class="st137" d="M60.6,77.9c-0.8,6.9-6.1,12.1-11.9,11.4c-5.8-0.6-9.9-6.8-9.1-13.7c0.8-6.9,6.1-12.1,11.9-11.4
				C57.3,64.8,61.4,71,60.6,77.9z"/>
			
				<ellipse transform="matrix(0.1097 -0.994 0.994 0.1097 -31.6394 118.1672)" class="st138" cx="50.1" cy="76.7" rx="12.6" ry="10.5"/>
			
				<ellipse transform="matrix(0.1097 -0.994 0.994 0.1097 -31.6394 118.1674)" class="st139" cx="50.1" cy="76.7" rx="12.5" ry="10.4"/>
			
				<ellipse transform="matrix(0.1097 -0.994 0.994 0.1097 -31.6393 118.1675)" class="st140" cx="50.1" cy="76.7" rx="12.4" ry="10.3"/>
			<path class="st141" d="M60.3,77.9c-0.7,6.7-5.9,11.7-11.5,11.1s-9.6-6.6-8.8-13.3c0.7-6.7,5.9-11.7,11.5-11.1
				S61.1,71.1,60.3,77.9z"/>
			
				<ellipse transform="matrix(0.1097 -0.994 0.994 0.1097 -31.6391 118.168)" class="st142" cx="50.1" cy="76.7" rx="12.2" ry="10.2"/>
			
				<ellipse transform="matrix(0.1097 -0.994 0.994 0.1097 -31.6391 118.168)" class="st143" cx="50.1" cy="76.7" rx="12.1" ry="10.1"/>
			<ellipse transform="matrix(0.1097 -0.994 0.994 0.1097 -31.6399 118.1664)" class="st144" cx="50.1" cy="76.7" rx="12" ry="10"/>
			<path class="st145" d="M60,77.8c-0.7,6.5-5.7,11.4-11.2,10.8c-5.5-0.6-9.3-6.4-8.6-12.9C41,69.1,46,64.3,51.5,64.9
				C56.9,65.5,60.7,71.3,60,77.8z"/>
			
				<ellipse transform="matrix(0.1097 -0.994 0.994 0.1097 -31.6398 118.1665)" class="st146" cx="50.1" cy="76.7" rx="11.8" ry="9.9"/>
			<path class="st147" d="M59.9,77.8c-0.7,6.4-5.6,11.2-11,10.6c-5.4-0.6-9.1-6.3-8.4-12.7c0.7-6.4,5.6-11.2,11-10.6
				C56.8,65.7,60.6,71.4,59.9,77.8z"/>
			<path class="st148" d="M59.8,77.8c-0.7,6.4-5.6,11.1-10.9,10.5c-5.3-0.6-9.1-6.3-8.4-12.7s5.6-11.1,10.9-10.5
				S60.5,71.4,59.8,77.8z"/>
			<path class="st149" d="M59.7,77.8c-0.7,6.3-5.6,11-10.8,10.4c-5.3-0.6-9-6.2-8.3-12.6c0.7-6.3,5.6-11,10.8-10.4
				S60.4,71.5,59.7,77.8z"/>
			
				<ellipse transform="matrix(0.1097 -0.994 0.994 0.1097 -31.6396 118.1669)" class="st150" cx="50.1" cy="76.7" rx="11.5" ry="9.6"/>
			<path class="st151" d="M59.6,77.8c-0.7,6.2-5.5,10.8-10.7,10.3S40,82,40.7,75.7c0.7-6.2,5.5-10.8,10.7-10.3
				C56.6,66,60.3,71.5,59.6,77.8z"/>
			<path class="st152" d="M59.5,77.8C58.8,84,54.1,88.5,48.9,88c-5.2-0.6-8.8-6.1-8.1-12.3c0.7-6.2,5.4-10.8,10.6-10.2
				C56.5,66.1,60.2,71.6,59.5,77.8z"/>
			<path class="st153" d="M59.4,77.8c-0.7,6.2-5.4,10.7-10.5,10.1c-5.1-0.6-8.7-6-8-12.2c0.7-6.2,5.4-10.7,10.5-10.1
				C56.5,66.2,60.1,71.6,59.4,77.8z"/>
			<path class="st154" d="M59.3,77.8c-0.7,6.1-5.3,10.6-10.4,10c-5.1-0.6-8.7-6-8-12.1c0.7-6.1,5.3-10.6,10.4-10
				C56.4,66.3,60,71.7,59.3,77.8z"/>
			<path class="st155" d="M59.3,77.8c-0.7,6.1-5.3,10.5-10.3,9.9c-5-0.6-8.6-5.9-7.9-12c0.7-6.1,5.3-10.5,10.3-9.9
				C56.4,66.3,59.9,71.7,59.3,77.8z"/>
			<path class="st156" d="M59.2,77.7c-0.7,6-5.3,10.4-10.3,9.9c-5-0.6-8.5-5.9-7.9-11.9c0.7-6,5.3-10.4,10.3-9.9
				C56.3,66.4,59.9,71.7,59.2,77.7z"/>
			<path class="st157" d="M59.1,77.7c-0.7,6-5.2,10.3-10.2,9.8c-5-0.5-8.4-5.8-7.8-11.8c0.7-6,5.2-10.3,10.2-9.8
				C56.3,66.5,59.8,71.8,59.1,77.7z"/>
			
				<ellipse transform="matrix(0.1097 -0.994 0.994 0.1097 -31.6401 118.1658)" class="st158" cx="50.1" cy="76.7" rx="10.8" ry="9"/>
			<path class="st159" d="M59,77.7c-0.6,5.9-5.1,10.2-10,9.6s-8.3-5.7-7.7-11.6c0.6-5.9,5.1-10.2,10-9.6
				C56.2,66.7,59.6,71.9,59,77.7z"/>
			<path class="st160" d="M58.9,77.7c-0.6,5.8-5.1,10.1-9.9,9.5c-4.8-0.5-8.2-5.7-7.6-11.5c0.6-5.8,5.1-10.1,9.9-9.5
				C56.1,66.8,59.5,71.9,58.9,77.7z"/>
			<path class="st161" d="M58.8,77.7c-0.6,5.8-5,10-9.8,9.5c-4.8-0.5-8.2-5.6-7.5-11.4c0.6-5.8,5-10,9.8-9.5
				C56.1,66.9,59.5,72,58.8,77.7z"/>
			<path class="st162" d="M58.7,77.7c-0.6,5.7-5,9.9-9.7,9.4c-4.8-0.5-8.1-5.6-7.5-11.3c0.6-5.7,5-9.9,9.7-9.4
				C56,66.9,59.4,72,58.7,77.7z"/>
			<path class="st163" d="M58.7,77.7C58,83.3,53.7,87.5,49,87c-4.7-0.5-8-5.5-7.4-11.2c0.6-5.7,4.9-9.8,9.7-9.3
				C56,67,59.3,72,58.7,77.7z"/>
			
				<ellipse transform="matrix(0.1097 -0.994 0.994 0.1097 -31.6395 118.1671)" class="st164" cx="50.1" cy="76.7" rx="10.2" ry="8.5"/>
			
				<ellipse transform="matrix(0.1097 -0.994 0.994 0.1097 -31.6396 118.167)" class="st165" cx="50.1" cy="76.7" rx="10.1" ry="8.4"/>
			<path class="st166" d="M58.4,77.7c-0.6,5.5-4.8,9.6-9.4,9.1c-4.6-0.5-7.8-5.4-7.2-10.9c0.6-5.5,4.8-9.6,9.4-9.1
				C55.8,67.3,59.1,72.2,58.4,77.7z"/>
			<path class="st167" d="M58.4,77.7c-0.6,5.5-4.8,9.5-9.3,9c-4.5-0.5-7.7-5.3-7.1-10.8c0.6-5.5,4.8-9.5,9.3-9S59,72.2,58.4,77.7z"
				/>
			
				<ellipse transform="matrix(0.1097 -0.994 0.994 0.1097 -31.6395 118.1672)" class="st168" cx="50.1" cy="76.7" rx="9.8" ry="8.2"/>
			
				<ellipse transform="matrix(0.1097 -0.994 0.994 0.1097 -31.6392 118.1677)" class="st169" cx="50.1" cy="76.7" rx="9.8" ry="8.1"/>
			
				<ellipse transform="matrix(0.1097 -0.994 0.994 0.1097 -31.6392 118.1677)" class="st170" cx="50.1" cy="76.7" rx="9.7" ry="8.1"/>
			<path class="st171" d="M58.1,77.6c-0.6,5.3-4.6,9.1-9,8.6c-4.4-0.5-7.5-5.1-6.9-10.4c0.6-5.3,4.6-9.1,9-8.6S58.7,72.4,58.1,77.6z
				"/>
			<path class="st172" d="M58,77.6c-0.6,5.2-4.6,9-8.9,8.6c-4.3-0.5-7.4-5.1-6.8-10.3c0.6-5.2,4.6-9,8.9-8.6
				C55.5,67.8,58.6,72.4,58,77.6z"/>
			<path class="st173" d="M57.9,77.6c-0.6,5.2-4.5,9-8.8,8.5c-4.3-0.5-7.3-5-6.7-10.2c0.6-5.2,4.5-9,8.8-8.5
				C55.5,67.9,58.5,72.4,57.9,77.6z"/>
			<path class="st174" d="M57.8,77.6c-0.6,5.1-4.5,8.9-8.7,8.4c-4.3-0.5-7.2-5-6.7-10.1c0.6-5.1,4.5-8.9,8.7-8.4
				C55.4,68,58.4,72.5,57.8,77.6z"/>
			<path class="st175" d="M57.8,77.6c-0.6,5.1-4.4,8.8-8.6,8.3c-4.2-0.5-7.2-4.9-6.6-10c0.6-5.1,4.4-8.8,8.6-8.3
				C55.4,68.1,58.3,72.5,57.8,77.6z"/>
			
				<ellipse transform="matrix(0.1097 -0.994 0.994 0.1097 -31.6399 118.1664)" class="st176" cx="50.1" cy="76.7" rx="9.1" ry="7.6"/>
			<ellipse transform="matrix(0.1097 -0.994 0.994 0.1097 -31.6386 118.1688)" class="st177" cx="50.1" cy="76.7" rx="9" ry="7.5"/>
			
				<ellipse transform="matrix(0.1097 -0.994 0.994 0.1097 -31.6397 118.1667)" class="st178" cx="50.1" cy="76.7" rx="8.9" ry="7.5"/>
			<path class="st179" d="M57.5,77.6c-0.5,4.9-4.3,8.4-8.3,8s-6.9-4.7-6.4-9.6c0.5-4.9,4.3-8.4,8.3-8C55.2,68.4,58,72.7,57.5,77.6z"
				/>
			
				<ellipse transform="matrix(0.1097 -0.994 0.994 0.1097 -31.6396 118.1669)" class="st180" cx="50.1" cy="76.7" rx="8.8" ry="7.3"/>
			<path class="st181" d="M57.3,77.5c-0.5,4.8-4.2,8.3-8.1,7.8c-4-0.4-6.8-4.7-6.2-9.4c0.5-4.8,4.2-8.3,8.1-7.8
				C55.1,68.6,57.9,72.8,57.3,77.5z"/>
			<path class="st182" d="M57.3,77.5c-0.5,4.7-4.1,8.2-8,7.7c-3.9-0.4-6.7-4.6-6.2-9.3c0.5-4.7,4.1-8.2,8-7.7
				C55,68.6,57.8,72.8,57.3,77.5z"/>
			<path class="st183" d="M57.2,77.5c-0.5,4.7-4.1,8.1-8,7.7c-3.9-0.4-6.6-4.6-6.1-9.2c0.5-4.7,4.1-8.1,8-7.7
				C55,68.7,57.7,72.9,57.2,77.5z"/>
			<ellipse transform="matrix(0.1097 -0.994 0.994 0.1097 -31.6392 118.1677)" class="st184" cx="50.1" cy="76.7" rx="8.4" ry="7"/>
			
				<ellipse transform="matrix(0.1097 -0.994 0.994 0.1097 -31.6391 118.168)" class="st185" cx="50.1" cy="76.7" rx="8.3" ry="6.9"/>
			<path class="st186" d="M57,77.5c-0.5,4.5-3.9,7.8-7.7,7.4c-3.8-0.4-6.4-4.4-5.9-8.9c0.5-4.5,3.9-7.8,7.7-7.4S57.4,73,57,77.5z"/>
			<path class="st187" d="M56.9,77.5c-0.5,4.5-3.9,7.7-7.6,7.3s-6.3-4.4-5.8-8.8c0.5-4.5,3.9-7.7,7.6-7.3
				C54.8,69.1,57.4,73,56.9,77.5z"/>
			<path class="st188" d="M56.8,77.5c-0.5,4.4-3.9,7.7-7.5,7.3S43,80.4,43.5,76s3.9-7.7,7.5-7.3C54.7,69.2,57.3,73.1,56.8,77.5z"/>
			<path class="st189" d="M56.7,77.5c-0.5,4.4-3.8,7.6-7.5,7.2c-3.6-0.4-6.2-4.3-5.7-8.6c0.5-4.4,3.8-7.6,7.5-7.2
				S57.2,73.1,56.7,77.5z"/>
			<path class="st190" d="M56.7,77.5c-0.5,4.3-3.8,7.5-7.4,7.1c-3.6-0.4-6.1-4.2-5.6-8.5c0.5-4.3,3.8-7.5,7.4-7.1
				C54.6,69.3,57.1,73.1,56.7,77.5z"/>
			<path class="st191" d="M56.6,77.5c-0.5,4.3-3.7,7.4-7.3,7c-3.6-0.4-6.1-4.2-5.6-8.4c0.5-4.3,3.7-7.4,7.3-7
				C54.6,69.4,57,73.2,56.6,77.5z"/>
			<path class="st192" d="M56.5,77.4c-0.5,4.2-3.7,7.3-7.2,6.9c-3.5-0.4-6-4.1-5.5-8.3c0.5-4.2,3.7-7.3,7.2-6.9
				C54.5,69.5,57,73.2,56.5,77.4z"/>
			<path class="st193" d="M56.4,77.4c-0.5,4.2-3.6,7.2-7.1,6.9c-3.5-0.4-5.9-4.1-5.5-8.2c0.5-4.2,3.6-7.2,7.1-6.9
				C54.4,69.6,56.9,73.3,56.4,77.4z"/>
			
				<ellipse transform="matrix(0.1097 -0.994 0.994 0.1097 -31.6397 118.1667)" class="st194" cx="50.1" cy="76.7" rx="7.5" ry="6.2"/>
			
				<ellipse transform="matrix(0.1097 -0.994 0.994 0.1097 -31.6393 118.1675)" class="st195" cx="50.1" cy="76.7" rx="7.4" ry="6.2"/>
			<path class="st196" d="M56.2,77.4c-0.4,4-3.5,7-6.9,6.6c-3.3-0.4-5.7-3.9-5.3-7.9c0.4-4,3.5-7,6.9-6.6
				C54.3,69.8,56.6,73.4,56.2,77.4z"/>
			<path class="st197" d="M56.1,77.4c-0.4,4-3.5,6.9-6.8,6.5c-3.3-0.4-5.6-3.9-5.2-7.8c0.4-4,3.5-6.9,6.8-6.5
				C54.2,69.9,56.6,73.4,56.1,77.4z"/>
			<path class="st198" d="M56.1,77.4c-0.4,3.9-3.4,6.8-6.7,6.4c-3.3-0.4-5.6-3.8-5.1-7.7c0.4-3.9,3.4-6.8,6.7-6.4
				C54.2,70,56.5,73.5,56.1,77.4z"/>
			<path class="st199" d="M56,77.4c-0.4,3.9-3.4,6.7-6.6,6.4c-3.2-0.4-5.5-3.8-5.1-7.6c0.4-3.9,3.4-6.7,6.6-6.4
				C54.1,70.1,56.4,73.5,56,77.4z"/>
			<path class="st200" d="M55.9,77.4c-0.4,3.8-3.3,6.6-6.5,6.3c-3.2-0.4-5.4-3.7-5-7.6c0.4-3.8,3.3-6.6,6.5-6.3
				C54.1,70.2,56.3,73.6,55.9,77.4z"/>
			<path class="st201" d="M55.8,77.4c-0.4,3.8-3.3,6.5-6.4,6.2c-3.1-0.3-5.3-3.7-4.9-7.5c0.4-3.8,3.3-6.5,6.4-6.2
				C54,70.3,56.2,73.6,55.8,77.4z"/>
			<path class="st202" d="M55.8,77.4c-0.4,3.7-3.3,6.5-6.4,6.1c-3.1-0.3-5.3-3.6-4.9-7.4c0.4-3.7,3.3-6.5,6.4-6.1
				C54,70.4,56.2,73.6,55.8,77.4z"/>
			<path class="st203" d="M55.7,77.4c-0.4,3.7-3.2,6.4-6.3,6c-3.1-0.3-5.2-3.6-4.8-7.3c0.4-3.7,3.2-6.4,6.3-6
				C53.9,70.4,56.1,73.7,55.7,77.4z"/>
			<path class="st204" d="M55.6,77.3c-0.4,3.6-3.2,6.3-6.2,6c-3-0.3-5.1-3.5-4.7-7.2c0.4-3.6,3.2-6.3,6.2-6
				C53.9,70.5,56,73.7,55.6,77.3z"/>
			<path class="st205" d="M55.5,77.3c-0.4,3.6-3.1,6.2-6.1,5.9c-3-0.3-5.1-3.5-4.7-7.1c0.4-3.6,3.1-6.2,6.1-5.9S55.9,73.8,55.5,77.3
				z"/>
			<path class="st206" d="M55.5,77.3c-0.4,3.5-3.1,6.1-6,5.8c-2.9-0.3-5-3.4-4.6-7c0.4-3.5,3.1-6.1,6-5.8
				C53.8,70.7,55.8,73.8,55.5,77.3z"/>
			<path class="st207" d="M55.4,77.3c-0.4,3.5-3,6-5.9,5.7s-4.9-3.4-4.5-6.9c0.4-3.5,3-6,5.9-5.7C53.7,70.8,55.8,73.9,55.4,77.3z"/>
			<path class="st208" d="M55.3,77.3c-0.4,3.4-3,5.9-5.8,5.6c-2.9-0.3-4.9-3.3-4.5-6.8c0.4-3.4,3-5.9,5.8-5.6
				C53.7,70.9,55.7,73.9,55.3,77.3z"/>
			<path class="st209" d="M55.2,77.3c-0.4,3.4-3,5.9-5.8,5.5c-2.8-0.3-4.8-3.3-4.4-6.7c0.4-3.4,3-5.9,5.8-5.5
				C53.6,70.9,55.6,73.9,55.2,77.3z"/>
			<path class="st210" d="M55.2,77.3c-0.4,3.3-2.9,5.8-5.7,5.5c-2.8-0.3-4.7-3.2-4.3-6.6c0.4-3.3,2.9-5.8,5.7-5.5
				C53.6,71,55.5,74,55.2,77.3z"/>
			<path class="st211" d="M55.1,77.3c-0.4,3.3-2.9,5.7-5.6,5.4c-2.7-0.3-4.6-3.2-4.3-6.5c0.4-3.3,2.9-5.7,5.6-5.4
				C53.5,71.1,55.4,74,55.1,77.3z"/>
			<path class="st212" d="M55,77.3c-0.4,3.2-2.8,5.6-5.5,5.3c-2.7-0.3-4.6-3.2-4.2-6.4c0.4-3.2,2.8-5.6,5.5-5.3
				C53.5,71.2,55.4,74.1,55,77.3z"/>
			<path class="st213" d="M54.9,77.3c-0.4,3.2-2.8,5.5-5.4,5.2c-2.6-0.3-4.5-3.1-4.2-6.3c0.4-3.2,2.8-5.5,5.4-5.2
				C53.4,71.3,55.3,74.1,54.9,77.3z"/>
			<path class="st214" d="M54.9,77.3c-0.3,3.1-2.7,5.4-5.3,5.1c-2.6-0.3-4.4-3.1-4.1-6.2c0.3-3.1,2.7-5.4,5.3-5.1
				C53.4,71.4,55.2,74.1,54.9,77.3z"/>
			<path class="st215" d="M54.8,77.3c-0.3,3.1-2.7,5.3-5.3,5.1c-2.6-0.3-4.4-3-4-6.1c0.3-3.1,2.7-5.3,5.3-5.1
				C53.3,71.5,55.1,74.2,54.8,77.3z"/>
			<path class="st216" d="M54.7,77.2c-0.3,3-2.6,5.3-5.2,5c-2.5-0.3-4.3-3-4-6c0.3-3,2.6-5.3,5.2-5C53.3,71.5,55,74.2,54.7,77.2z"/>
			<path class="st217" d="M54.6,77.2c-0.3,3-2.6,5.2-5.1,4.9c-2.5-0.3-4.2-2.9-3.9-5.9c0.3-3,2.6-5.2,5.1-4.9
				C53.2,71.6,55,74.3,54.6,77.2z"/>
			
				<ellipse transform="matrix(0.1097 -0.994 0.994 0.1097 -31.6404 118.1653)" class="st218" cx="50.1" cy="76.7" rx="5.3" ry="4.4"/>
			<path class="st219" d="M54.5,77.2c-0.3,2.9-2.5,5-4.9,4.7c-2.4-0.3-4.1-2.8-3.8-5.7c0.3-2.9,2.5-5,4.9-4.7
				C53.1,71.8,54.8,74.3,54.5,77.2z"/>
			<path class="st220" d="M54.4,77.2c-0.3,2.8-2.5,4.9-4.8,4.6c-2.4-0.3-4-2.8-3.7-5.6c0.3-2.8,2.5-4.9,4.8-4.6
				C53.1,71.9,54.7,74.4,54.4,77.2z"/>
			<path class="st221" d="M54.3,77.2C54,80,51.9,82,49.6,81.8c-2.3-0.3-3.9-2.7-3.6-5.5c0.3-2.8,2.4-4.8,4.7-4.6
				C53,72,54.6,74.4,54.3,77.2z"/>
			<path class="st222" d="M54.3,77.2c-0.3,2.7-2.4,4.7-4.7,4.5c-2.3-0.3-3.9-2.7-3.6-5.4c0.3-2.7,2.4-4.7,4.7-4.5
				C53,72.1,54.6,74.5,54.3,77.2z"/>
			
				<ellipse transform="matrix(0.1097 -0.994 0.994 0.1097 -31.6398 118.1665)" class="st223" cx="50.1" cy="76.7" rx="4.9" ry="4.1"/>
			<path class="st224" d="M54.1,77.2c-0.3,2.6-2.3,4.6-4.5,4.3c-2.2-0.2-3.7-2.6-3.4-5.2s2.3-4.6,4.5-4.3
				C52.9,72.2,54.4,74.6,54.1,77.2z"/>
			<path class="st225" d="M54,77.2c-0.3,2.6-2.3,4.5-4.4,4.2c-2.1-0.2-3.7-2.5-3.4-5.1c0.3-2.6,2.3-4.5,4.4-4.2
				C52.8,72.3,54.3,74.6,54,77.2z"/>
			<path class="st226" d="M54,77.2c-0.3,2.5-2.2,4.4-4.3,4.2c-2.1-0.2-3.6-2.5-3.3-5c0.3-2.5,2.2-4.4,4.3-4.2
				C52.8,72.4,54.2,74.6,54,77.2z"/>
			<path class="st227" d="M53.9,77.2c-0.3,2.5-2.2,4.3-4.2,4.1c-2.1-0.2-3.5-2.4-3.2-4.9c0.3-2.5,2.2-4.3,4.2-4.1
				C52.7,72.5,54.2,74.7,53.9,77.2z"/>
			<path class="st228" d="M53.8,77.2c-0.3,2.4-2.1,4.2-4.2,4c-2-0.2-3.4-2.4-3.2-4.8c0.3-2.4,2.1-4.2,4.2-4
				C52.7,72.6,54.1,74.7,53.8,77.2z"/>
			
				<ellipse transform="matrix(0.1097 -0.994 0.994 0.1097 -31.6387 118.1687)" class="st229" cx="50.1" cy="76.7" rx="4.3" ry="3.6"/>
			<path class="st230" d="M53.7,77.1c-0.3,2.3-2,4-4,3.8c-1.9-0.2-3.3-2.3-3-4.6c0.3-2.3,2-4,4-3.8C52.6,72.7,53.9,74.8,53.7,77.1z"
				/>
			<path class="st231" d="M53.6,77.1c-0.3,2.3-2,4-3.9,3.8c-1.9-0.2-3.2-2.2-3-4.5c0.3-2.3,2-4,3.9-3.8
				C52.5,72.8,53.8,74.8,53.6,77.1z"/>
			<path class="st232" d="M53.5,77.1c-0.2,2.2-2,3.9-3.8,3.7c-1.9-0.2-3.2-2.2-2.9-4.4c0.2-2.2,2-3.9,3.8-3.7
				C52.5,72.9,53.8,74.9,53.5,77.1z"/>
			<path class="st233" d="M53.4,77.1c-0.2,2.2-1.9,3.8-3.7,3.6c-1.8-0.2-3.1-2.1-2.9-4.3c0.2-2.2,1.9-3.8,3.7-3.6
				C52.4,73,53.7,74.9,53.4,77.1z"/>
			<path class="st234" d="M53.4,77.1c-0.2,2.1-1.9,3.7-3.6,3.5c-1.8-0.2-3-2.1-2.8-4.2s1.9-3.7,3.6-3.5C52.3,73.1,53.6,75,53.4,77.1
				z"/>
			<path class="st235" d="M53.3,77.1c-0.2,2.1-1.8,3.6-3.6,3.4c-1.7-0.2-3-2-2.7-4.1c0.2-2.1,1.8-3.6,3.6-3.4
				C52.3,73.2,53.5,75,53.3,77.1z"/>
			
				<ellipse transform="matrix(0.1097 -0.994 0.994 0.1097 -31.6405 118.1651)" class="st235" cx="50.1" cy="76.7" rx="3.7" ry="3.1"/>
			<path class="st236" d="M53.1,77.1c-0.2,2-1.7,3.4-3.4,3.3c-1.7-0.2-2.8-1.9-2.6-3.9c0.2-2,1.7-3.4,3.4-3.3
				C52.2,73.3,53.4,75.1,53.1,77.1z"/>
			<path class="st237" d="M53.1,77.1c-0.2,1.9-1.7,3.4-3.3,3.2c-1.6-0.2-2.7-1.9-2.5-3.8c0.2-1.9,1.7-3.4,3.3-3.2
				C52.1,73.4,53.3,75.1,53.1,77.1z"/>
			<path class="st238" d="M53,77.1c-0.2,1.9-1.6,3.3-3.2,3.1s-2.7-1.8-2.5-3.7c0.2-1.9,1.6-3.3,3.2-3.1C52.1,73.5,53.2,75.2,53,77.1
				z"/>
			<path class="st239" d="M52.9,77.1c-0.2,1.8-1.6,3.2-3.1,3c-1.5-0.2-2.6-1.8-2.4-3.6c0.2-1.8,1.6-3.2,3.1-3
				C52,73.6,53.1,75.2,52.9,77.1z"/>
			<path class="st240" d="M52.8,77c-0.2,1.8-1.6,3.1-3,2.9c-1.5-0.2-2.5-1.7-2.3-3.5c0.2-1.8,1.6-3.1,3-2.9C52,73.7,53,75.3,52.8,77
				z"/>
			
				<ellipse transform="matrix(0.1097 -0.994 0.994 0.1097 -31.6388 118.1685)" class="st241" cx="50.1" cy="76.7" rx="3.2" ry="2.6"/>
			
				<ellipse transform="matrix(0.1097 -0.994 0.994 0.1097 -31.639 118.1682)" class="st242" cx="50.1" cy="76.7" rx="3.1" ry="2.6"/>
			<path class="st242" d="M52.6,77c-0.2,1.6-1.4,2.8-2.8,2.7c-1.4-0.2-2.3-1.6-2.1-3.2c0.2-1.6,1.4-2.8,2.8-2.7S52.8,75.4,52.6,77z"
				/>
			<path class="st243" d="M52.5,77c-0.2,1.6-1.4,2.8-2.7,2.6c-1.3-0.1-2.3-1.6-2.1-3.1c0.2-1.6,1.4-2.8,2.7-2.6
				C51.8,74,52.7,75.4,52.5,77z"/>
			<path class="st244" d="M52.5,77c-0.2,1.5-1.3,2.7-2.6,2.5c-1.3-0.1-2.2-1.5-2-3c0.2-1.5,1.3-2.7,2.6-2.5
				C51.7,74.1,52.6,75.5,52.5,77z"/>
			<path class="st245" d="M52.4,77c-0.2,1.5-1.3,2.6-2.5,2.4c-1.2-0.1-2.1-1.5-1.9-2.9c0.2-1.5,1.3-2.6,2.5-2.4
				C51.7,74.2,52.6,75.5,52.4,77z"/>
			<path class="st246" d="M52.3,77c-0.2,1.4-1.3,2.5-2.5,2.4c-1.2-0.1-2-1.4-1.9-2.8s1.3-2.5,2.5-2.4C51.6,74.3,52.5,75.5,52.3,77z"
				/>
			<path class="st247" d="M52.2,77c-0.2,1.4-1.2,2.4-2.4,2.3c-1.2-0.1-2-1.4-1.8-2.7c0.2-1.4,1.2-2.4,2.4-2.3
				C51.6,74.4,52.4,75.6,52.2,77z"/>
			<path class="st248" d="M52.2,77c-0.1,1.3-1.2,2.3-2.3,2.2c-1.1-0.1-1.9-1.3-1.8-2.6c0.1-1.3,1.2-2.3,2.3-2.2
				C51.5,74.4,52.3,75.6,52.2,77z"/>
			<path class="st248" d="M52.1,77c-0.1,1.3-1.1,2.2-2.2,2.1c-1.1-0.1-1.8-1.3-1.7-2.5c0.1-1.3,1.1-2.2,2.2-2.1
				C51.5,74.5,52.2,75.7,52.1,77z"/>
			
				<ellipse transform="matrix(0.1097 -0.994 0.994 0.1097 -31.6405 118.1651)" class="st249" cx="50.1" cy="76.7" rx="2.3" ry="1.9"/>
			
				<ellipse transform="matrix(0.1097 -0.994 0.994 0.1097 -31.6403 118.1656)" class="st250" cx="50.1" cy="76.7" rx="2.2" ry="1.8"/>
			<path class="st251" d="M51.9,76.9c-0.1,1.1-1,2-1.9,1.9c-1-0.1-1.6-1.1-1.5-2.3c0.1-1.1,1-2,1.9-1.9C51.3,74.8,52,75.8,51.9,76.9
				z"/>
			<path class="st252" d="M51.8,76.9c-0.1,1.1-1,1.9-1.9,1.8c-0.9-0.1-1.5-1.1-1.4-2.2c0.1-1.1,1-1.9,1.9-1.8
				C51.3,74.9,51.9,75.8,51.8,76.9z"/>
			<path class="st253" d="M51.7,76.9c-0.1,1-0.9,1.8-1.8,1.7c-0.9-0.1-1.5-1-1.4-2.1c0.1-1,0.9-1.8,1.8-1.7
				C51.2,75,51.8,75.9,51.7,76.9z"/>
			<path class="st254" d="M51.6,76.9c-0.1,1-0.9,1.7-1.7,1.6c-0.8-0.1-1.4-1-1.3-2c0.1-1,0.9-1.7,1.7-1.6
				C51.2,75,51.8,75.9,51.6,76.9z"/>
			<path class="st255" d="M51.6,76.9c-0.1,0.9-0.8,1.6-1.6,1.5c-0.8-0.1-1.3-0.9-1.2-1.9c0.1-0.9,0.8-1.6,1.6-1.5
				C51.1,75.1,51.7,76,51.6,76.9z"/>
			<path class="st256" d="M51.5,76.9c-0.1,0.9-0.8,1.5-1.5,1.5c-0.7-0.1-1.3-0.9-1.2-1.8c0.1-0.9,0.8-1.5,1.5-1.5
				C51.1,75.2,51.6,76,51.5,76.9z"/>
			<path class="st257" d="M51.4,76.9c-0.1,0.8-0.7,1.5-1.4,1.4c-0.7-0.1-1.2-0.8-1.1-1.7c0.1-0.8,0.7-1.5,1.4-1.4
				C51,75.3,51.5,76,51.4,76.9z"/>
			<path class="st257" d="M51.3,76.9c-0.1,0.8-0.7,1.4-1.4,1.3c-0.7-0.1-1.1-0.8-1-1.6c0.1-0.8,0.7-1.4,1.4-1.3
				C51,75.4,51.4,76.1,51.3,76.9z"/>
			<path class="st258" d="M51.3,76.9c-0.1,0.7-0.7,1.3-1.3,1.2c-0.6-0.1-1.1-0.7-1-1.5c0.1-0.7,0.7-1.3,1.3-1.2
				C50.9,75.5,51.3,76.1,51.3,76.9z"/>
			<path class="st258" d="M51.2,76.9c-0.1,0.7-0.6,1.2-1.2,1.1c-0.6-0.1-1-0.7-0.9-1.4c0.1-0.7,0.6-1.2,1.2-1.1
				C50.9,75.6,51.3,76.2,51.2,76.9z"/>
			<path class="st259" d="M51.1,76.9C51,77.5,50.6,78,50,77.9c-0.5-0.1-0.9-0.6-0.8-1.3c0.1-0.6,0.6-1.1,1.1-1.1
				C50.8,75.6,51.2,76.2,51.1,76.9z"/>
			<path class="st260" d="M51,76.8c-0.1,0.6-0.5,1-1,1c-0.5-0.1-0.8-0.6-0.8-1.2c0.1-0.6,0.5-1,1-1C50.8,75.7,51.1,76.2,51,76.8z"/>
			<path class="st260" d="M51,76.8c-0.1,0.5-0.5,0.9-0.9,0.9c-0.5-0.1-0.8-0.5-0.7-1.1c0.1-0.5,0.5-0.9,0.9-0.9
				C50.7,75.8,51,76.3,51,76.8z"/>
			<path class="st261" d="M50.9,76.8c-0.1,0.5-0.4,0.9-0.8,0.8c-0.4,0-0.7-0.5-0.6-1c0.1-0.5,0.4-0.9,0.8-0.8
				C50.7,75.9,50.9,76.3,50.9,76.8z"/>
			<path class="st261" d="M50.8,76.8c0,0.4-0.4,0.8-0.8,0.7c-0.4,0-0.6-0.4-0.6-0.9c0-0.4,0.4-0.8,0.8-0.7
				C50.6,76,50.9,76.4,50.8,76.8z"/>
			<path class="st262" d="M50.7,76.8c0,0.4-0.3,0.7-0.7,0.7c-0.3,0-0.6-0.4-0.5-0.8c0-0.4,0.3-0.7,0.7-0.7
				C50.6,76.1,50.8,76.4,50.7,76.8z"/>
			<path class="st263" d="M50.7,76.8c0,0.3-0.3,0.6-0.6,0.6c-0.3,0-0.5-0.3-0.5-0.7c0-0.3,0.3-0.6,0.6-0.6
				C50.5,76.1,50.7,76.5,50.7,76.8z"/>
			<path class="st263" d="M50.6,76.8c0,0.3-0.3,0.5-0.5,0.5c-0.2,0-0.4-0.3-0.4-0.6c0-0.3,0.3-0.5,0.5-0.5
				C50.5,76.2,50.6,76.5,50.6,76.8z"/>
			<path class="st263" d="M50.5,76.8c0,0.2-0.2,0.4-0.4,0.4c-0.2,0-0.4-0.2-0.3-0.5c0-0.2,0.2-0.4,0.4-0.4
				C50.4,76.3,50.5,76.5,50.5,76.8z"/>
			<path class="st264" d="M50.4,76.8c0,0.2-0.2,0.3-0.3,0.3c-0.2,0-0.3-0.2-0.3-0.4c0-0.2,0.2-0.3,0.3-0.3
				C50.3,76.4,50.5,76.6,50.4,76.8z"/>
			<path class="st264" d="M50.4,76.8c0,0.1-0.1,0.3-0.3,0.2c-0.1,0-0.2-0.1-0.2-0.3c0-0.1,0.1-0.3,0.3-0.2
				C50.3,76.5,50.4,76.6,50.4,76.8z"/>
			<path class="st264" d="M50.3,76.8c0,0.1-0.1,0.2-0.2,0.2c-0.1,0-0.1-0.1-0.1-0.2c0-0.1,0.1-0.2,0.2-0.2
				C50.2,76.6,50.3,76.7,50.3,76.8z"/>
			<path class="st264" d="M50.2,76.8C50.2,76.8,50.2,76.8,50.2,76.8c-0.1,0.1-0.2,0-0.1,0C50.1,76.7,50.1,76.7,50.2,76.8
				C50.2,76.7,50.2,76.7,50.2,76.8z"/>
		</g>
	</g>
</g>
</svg>
