<?xml version="1.0" encoding="utf-8"?>
<!-- Generator: Adobe Illustrator 25.0.0, SVG Export Plug-In . SVG Version: 6.00 Build 0)  -->
<svg version="1.1" id="Publicdomainvectors.org" xmlns="http://www.w3.org/2000/svg" xmlns:xlink="http://www.w3.org/1999/xlink"
	 x="0px" y="0px" viewBox="0 0 584.5 472.1" style="enable-background:new 0 0 584.5 472.1;" xml:space="preserve">
<style type="text/css">
	.st0{fill-rule:evenodd;clip-rule:evenodd;fill:#FFFFFF;}
	.st1{fill-rule:evenodd;clip-rule:evenodd;fill:#F7F1EA;}
	.st2{fill-rule:evenodd;clip-rule:evenodd;fill:#DBCFC3;}
	.st3{fill-rule:evenodd;clip-rule:evenodd;fill:#F2A659;}
	.st4{fill-rule:evenodd;clip-rule:evenodd;fill:#D18B45;}
	.st5{fill-rule:evenodd;clip-rule:evenodd;fill:#BF7934;}
	.st6{fill-rule:evenodd;clip-rule:evenodd;fill:#B36C26;}
	.st7{fill-rule:evenodd;clip-rule:evenodd;fill:#A86018;}
	.st8{fill-rule:evenodd;clip-rule:evenodd;fill:#1F1308;}
	.st9{fill-rule:evenodd;clip-rule:evenodd;fill:#FCB46D;}
	.st10{fill-rule:evenodd;clip-rule:evenodd;fill:#E3994F;}
	.st11{fill-rule:evenodd;clip-rule:evenodd;fill:#3D2712;}
	.st12{fill-rule:evenodd;clip-rule:evenodd;fill:#E0388C;}
</style>
<polygon class="st0" points="249.5,463.3 250.1,467.1 253.9,467.7 250.1,468.3 249.5,472.1 248.9,468.3 245,467.7 248.9,467.1 "/>
<g>
	<path class="st1" d="M280.7,0C415,0,523.9,108.9,523.9,243.2c0,58.4-20.6,111.9-54.8,153.8H92.3c-34.3-41.9-54.8-95.5-54.8-153.8
		C37.5,108.9,146.4,0,280.7,0z"/>
	<ellipse class="st2" cx="280.7" cy="397" rx="280.7" ry="41"/>
	<g>
		<rect x="373" y="104" class="st3" width="23.7" height="13.9"/>
		<rect x="368" y="109.9" class="st4" width="33.8" height="13.9"/>
		<path class="st4" d="M416.9,115.2c21.7,33.9,35.2,81.2,35.2,133.6c0,52.4-13.5,99.7-35.2,133.6H253.9
			c-21.7-33.9-35.3-81.2-35.3-133.6c0-52.4,13.5-99.7,35.3-133.6H416.9z"/>
		<path class="st5" d="M405.2,115.2c18.6,33.9,30.2,81.2,30.2,133.6c0,52.4-11.6,99.7-30.2,133.6H265.6
			c-18.6-33.9-30.2-81.2-30.2-133.6c0-52.4,11.6-99.7,30.2-133.6H405.2z"/>
		<path class="st6" d="M388.4,115.2c14.1,33.9,22.9,81.2,22.9,133.6c0,52.4-8.8,99.7-22.9,133.6H282.4
			c-14.1-33.9-22.9-81.2-22.9-133.6c0-52.4,8.8-99.7,22.9-133.6H388.4z"/>
		<path class="st7" d="M359.2,115.2c6.3,33.9,10.3,81.2,10.3,133.6c0,52.4-3.9,99.7-10.3,133.6h-47.5
			c-6.3-33.9-10.3-81.2-10.3-133.6c0-52.4,3.9-99.7,10.3-133.6H359.2z"/>
		<path class="st8" d="M416.9,115.2c5.6,8.7,10.7,18.4,15.1,28.8H238.8c4.4-10.4,9.5-20,15.1-28.8H416.9L416.9,115.2z M451.8,232.8
			c0.3,5.3,0.4,10.6,0.4,16c0,4.3-0.1,8.5-0.3,12.8h-233c-0.2-4.2-0.3-8.5-0.3-12.8c0-5.4,0.1-10.7,0.4-16H451.8L451.8,232.8z
			 M432,353.6c-4.4,10.4-9.5,20-15.1,28.8H253.9c-5.6-8.7-10.7-18.4-15.1-28.8H432z"/>
	</g>
	<g>
		<rect x="316.2" y="344.3" class="st3" width="13.9" height="23.7"/>
		<rect x="310.3" y="339.3" class="st4" width="13.9" height="33.8"/>
		<g>
			<path class="st9" d="M318.9,388.3c-33.9,21.7-81.2,35.2-133.6,35.2c-52.4,0-99.7-13.5-133.6-35.2V225.2
				c33.9-21.7,81.2-35.3,133.6-35.3c52.4,0,99.7,13.5,133.6,35.3V388.3z"/>
			<path class="st3" d="M318.9,376.5c-33.9,18.6-81.2,30.2-133.6,30.2c-52.4,0-99.7-11.6-133.6-30.2V237
				c33.9-18.6,81.2-30.2,133.6-30.2c52.4,0,99.7,11.6,133.6,30.2V376.5z"/>
			<path class="st10" d="M318.9,359.8c-33.9,14.1-81.2,22.9-133.6,22.9c-52.4,0-99.7-8.8-133.6-22.9V253.7
				c33.9-14.1,81.2-22.9,133.6-22.9c52.4,0,99.7,8.8,133.6,22.9V359.8z"/>
			<path class="st4" d="M318.9,330.5c-33.9,6.3-81.2,10.3-133.6,10.3c-52.4,0-99.7-3.9-133.6-10.3V283
				c33.9-6.3,81.2-10.3,133.6-10.3c52.4,0,99.7,3.9,133.6,10.3V330.5z"/>
			<path class="st11" d="M318.9,388.3c-8.7,5.6-18.4,10.7-28.8,15.1V210.1c10.4,4.4,20,9.5,28.8,15.1V388.3L318.9,388.3z
				 M201.3,423.1c-5.3,0.3-10.6,0.4-16,0.4c-4.3,0-8.5-0.1-12.8-0.3v-233c4.2-0.2,8.5-0.3,12.8-0.3c5.4,0,10.7,0.1,16,0.4V423.1
				L201.3,423.1z M80.5,403.4c-10.4-4.4-20-9.5-28.8-15.1V225.2c8.7-5.6,18.4-10.7,28.8-15.1V403.4z"/>
		</g>
	</g>
	<path class="st12" d="M374.9,399.7c2.6,0,5.2,0,7.8,0.1c13.6-6.2,43.4-10.5,78.1-10.5c1.2,0,2.4,0,3.6,0
		c0.8-5.8,26.7-10.4,58.5-10.4c32.3,0,58.5,4.8,58.5,10.7c0,4.9-17.9,9-42.4,10.3c4.9,2.3,7.6,4.8,7.6,7.4c0,10-38.4,18-85.9,18
		c-17.5,0-33.8-1.1-47.4-3c-10.4,1.9-23.8,3-38.5,3c-33.1,0-60-5.7-60-12.8C314.9,405.4,341.7,399.7,374.9,399.7L374.9,399.7z
		 M505.5,431.4c12.1,0,22,2.4,22,5.4c0,3-9.8,5.4-22,5.4c-12.1,0-22-2.4-22-5.4C483.5,433.8,493.4,431.4,505.5,431.4L505.5,431.4z
		 M568.5,403.7c-8.9,0-16,2-16,4.4c0,2.4,7.2,4.4,16,4.4c8.9,0,16-2,16-4.4C584.5,405.7,577.4,403.7,568.5,403.7L568.5,403.7z
		 M371.6,389.2c-8.9,0-16,1.5-16,3.4c0,1.9,7.2,3.4,16,3.4c8.9,0,16-1.5,16-3.4C387.6,390.8,380.5,389.2,371.6,389.2L371.6,389.2z
		 M431.3,431.4c24.1,0,43.7,4.8,43.7,10.7c0,5.9-19.5,10.7-43.7,10.7c-24.1,0-43.7-4.8-43.7-10.7
		C387.6,436.2,407.2,431.4,431.3,431.4z"/>
	<path class="st12" d="M330,362.1h9.9c27.1,0,52.2,14.5,65.7,37.9h44.1l-3.9-5.6c-20.8-30.3-52.5-46.9-89.3-46.8l-26.5,0.1V362.1z"
		/>
</g>
</svg>
