<?xml version="1.0" encoding="utf-8"?>
<!-- Generator: Adobe Illustrator 25.0.0, SVG Export Plug-In . SVG Version: 6.00 Build 0)  -->
<svg version="1.1" xmlns="http://www.w3.org/2000/svg" xmlns:xlink="http://www.w3.org/1999/xlink" x="0px" y="0px"
	 viewBox="0 0 135.2 136.3" style="enable-background:new 0 0 135.2 136.3;" xml:space="preserve">
<style type="text/css">
	.st0{fill:#BD5107;}
	.st1{fill:#E15F0A;}
	.st2{fill:#F16D15;}
	.st3{fill:#FB8C41;}
	.st4{fill:#FA87C1;}
	.st5{fill:#F2CC2C;}
	.st6{fill:#FFFFFF;}
	.st7{opacity:0.3;fill:url(#SVGID_1_);}
	.st8{fill:#A64706;}
	.st9{opacity:0.3;fill:url(#SVGID_2_);}
	.st10{fill:#E6833E;}
	.st11{fill:#D4722F;}
	.st12{fill:#7C390D;}
	.st13{fill:#93461B;}
	.st14{fill:#FFCA85;}
</style>
<g id="bg">
</g>
<g id="bread">
	<g>
		<path class="st0" d="M32.5,57.9c0,0-4.2-6.4-13.1-7.1c-8.7-0.7-21.7,4.8-19,19.8c2.7,14.9,14,27.8,39.7,21.8
			c25.7-6,30.4-24.9,27.4-37.7c-3-12.9-16.2-14.7-24.5-11C34.7,47.3,32.4,55.1,32.5,57.9z"/>
		<path class="st1" d="M39.2,88.8c15.3-4.4,26.2-11.2,27-26.6c0.8-15.4-13.8-21.5-22.6-17s-9.6,11.3-6.7,16.8
			c2.9,5.5,9.2,8.6,14.7,5.7c5.5-2.9,5.7-9.1,2.5-12.1c-3.2-3-7.1-2.1-8.9,0.6c-1.8,2.7-0.8,5.3,1.2,6c-5.6-0.7-4.6-7.3-1.1-9.3
			c3.6-1.9,9.9-3.2,12.3,3.9c2.4,7.1-1.1,14.4-10.5,14.8c-9.5,0.4-13-8-13.9-11.2c1.1,6.4-1,16-9.9,17.5c-9,1.5-16.6-7.3-13.7-13.7
			c2.8-6.4,10.5-7.9,13.1-3.6c2.5,4.3,0.9,8.1-3.7,9.2c4.1-2.1,3.5-6.8,1.4-8.3c-2.1-1.6-7.7-1-8.6,3.2c-0.9,4.2,1.9,10.3,8.3,9.9
			c6.4-0.4,10.7-3.6,10.6-9c-0.1-5.4-3.9-14.6-13.6-13.4c-9.8,1.2-16,7.3-15.3,16C2.3,76.7,8.6,94.6,39.2,88.8z"/>
		<path class="st2" d="M20.3,53.9c0,0-11.8-2-16.6,8.2c-4.8,10.2,6.2,24.4,17.1,25.2c10.9,0.8,22.4-1.2,32.4-6.7
			c10-5.4,15.7-17.5,8.9-29.1c4.9,17.7-5.7,25.3-25.3,29.4S10.4,80.2,7.2,70.5C4,60.7,11.9,54.3,20.3,53.9z"/>
		<path class="st2" d="M19.5,63.1c0,0-6.1,1.9-4.7,8.6C10.6,65.5,14.6,60,19.5,63.1z"/>
		<path class="st2" d="M52.4,45.7c0,0-16.1,3-12.3,18.2C29.6,48.1,51.7,42.6,52.4,45.7z"/>
		<path class="st2" d="M49.6,55.5c0,0-3.7-0.2-3.7,3.4c0,3.6,2.4,4.7,5.2,4.1C47.5,60.1,49.6,55.5,49.6,55.5z"/>
		<path class="st3" d="M10.9,56.1c0,0-8.1,7.1-4.6,16.8C0.2,59.5,10.9,56.1,10.9,56.1z"/>
		<path class="st3" d="M45.1,47.9c0,0-6.4,4-6.2,9.6C36.5,48.7,45.1,47.9,45.1,47.9z"/>
		<path class="st3" d="M62.8,67.1c0,0-3.2,9.6-27.7,17.5C63.5,79.7,62.8,67.1,62.8,67.1z"/>
	</g>
	<g>
		<path class="st0" d="M105.5,39.4c-16.4,0-29.7,13.3-29.7,29.7c0,16.4,13.3,29.7,29.7,29.7s29.7-13.3,29.7-29.7
			C135.2,52.7,121.9,39.4,105.5,39.4z M105.5,80.5c-6.3,0-11.4-5.1-11.4-11.4c0-6.3,5.1-11.4,11.4-11.4c6.3,0,11.4,5.1,11.4,11.4
			C116.8,75.4,111.7,80.5,105.5,80.5z"/>
		<path class="st4" d="M131.3,75.7c-0.3-1.4,2.2-1.7,2-7.1c-0.2-5.4-3.9-4.1-3.5-7.3c0.3-3.2,0.7-6.2-0.8-9c-1.5-2.7-3-6.2-4.6-7.3
			c-1.5-1-5.6,1.7-7.8,0.5c-2.2-1.2-2.9-6.1-4.2-6.2c-1.4-0.2-2.7,2.9-5.1,2.7c-2.4-0.2-1.9-4.4-4.7-3.9c-3.2,0.6-4.6,5.4-7.1,5.9
			c-2.5,0.5-6.8-0.8-7.9,0.2c-1.2,1,0,4.4-0.7,5.4c-0.7,1-3.4,0.7-3.5,1.7c-0.2,1,2.4,3.2-0.8,5.4c-3.2,2.2-5.4,1.7-6.2,4.1
			c-0.8,2.4,4.2,5.2,3.7,7.9c-0.5,2.7-2.5,2.9-1.4,6.4c1.2,3.5,3.4,1.7,3.7,3.7c0.3,2-2,3.4-1,4.9c1,1.5,3,0.5,4.1,2.2
			c1,1.7-1,5.1,1.5,7.4c2.5,2.4,5.2,0.5,7.8,0.7c2.5,0.2,2.5,2.4,4.4,2.7c1.9,0.3,3.9-2.2,6.1-1.9c2.2,0.3,1.4,3.4,3.5,2.7
			c2.2-0.7,1.4-3.5,3-3.5c1.7,0,3.5,3.7,6.2,2.9c2.7-0.8,0-5.1,3-7.3c3-2.2,5.2,1.5,6.8,0.2c1.5-1.4,0.5-4.2,0.3-5.9
			c-0.2-1.7,0.8-4.4,2.2-4.4c1.4,0,3.4,0.7,4.1-0.3C135,78.2,131.6,77,131.3,75.7z M120.4,71.4c-0.6,2.7-2.9,1.4-3.5,3
			c-0.6,1.7,0.1,3.3-1.7,4.5c-1.8,1.2-2.9,0-3.7,0.9c-0.8,0.9,0,3-2.6,3.8c-2.6,0.8-1.6-1.8-2.9-1.9c-1.4-0.1-2.6,1.4-4.2,1
			c-1.6-0.3-0.1-2.6-1.2-2.9s-3.3,1.6-5.3-0.6c-2-2.1,0.5-2.4-0.2-4.1c-0.7-1.7-2.8-2.4-2.8-4.5s0.9-1.6,1-3.2
			c0.1-1.6-2.6-4.2-1.8-6c0.8-1.8,2.8,0.5,3.7-0.5c0.9-0.9-0.5-3,0.5-3.6c0.9-0.6,2.1,1.6,3.5,0.9c1.4-0.7,0.8-2.5,1.6-2.9
			c1.2-0.7,1.1,1.2,2.6,1.2s1.2-1.7,2.6-1.7c1.4,0,1.4,1.6,2.9,2.4c1.6,0.8,4.1-0.3,4.8,0.6c0.8,0.9-0.3,1.9,0.6,2.8
			c0.9,0.9,2.4,0.8,3,1.6c0.7,0.8,0,3.5,0.2,4.4C117.7,67.6,121,68.7,120.4,71.4z"/>
		
			<rect x="102.2" y="42.9" transform="matrix(0.4999 -0.8661 0.8661 0.4999 12.6154 111.3067)" class="st5" width="1" height="3.7"/>
		<rect x="102.4" y="42.8" transform="matrix(0.5 -0.866 0.866 0.5 12.8198 111.4377)" class="st6" width="1" height="3.7"/>
		
			<rect x="99.9" y="89.3" transform="matrix(0.4999 -0.8661 0.8661 0.4999 -28.6857 132.5607)" class="st6" width="1" height="3.7"/>
		<rect x="84.7" y="59.9" transform="matrix(0.5 -0.866 0.866 0.5 -10.8408 104.6855)" class="st6" width="1" height="3.7"/>
		
			<rect x="119.8" y="48.1" transform="matrix(-0.3538 0.9353 -0.9353 -0.3538 209.4859 -44.9168)" class="st5" width="1" height="3.7"/>
		<rect x="87.8" y="50.4" transform="matrix(0.9465 0.3228 -0.3228 0.9465 21.5814 -25.7175)" class="st5" width="1" height="3.7"/>
		
			<rect x="82.5" y="68.7" transform="matrix(0.4668 0.8844 -0.8844 0.4668 106.6898 -35.8145)" class="st5" width="1" height="3.7"/>
		<rect x="97.9" y="49.9" transform="matrix(0.4667 0.8844 -0.8844 0.4667 98.2352 -59.3834)" class="st5" width="1" height="3.7"/>
		<rect x="91.3" y="87.9" class="st5" width="1" height="3.7"/>
		<rect x="113.5" y="88.5" class="st5" width="1" height="3.7"/>
		
			<rect x="106.6" y="85.3" transform="matrix(0.8661 0.4999 -0.4999 0.8661 57.9063 -41.8953)" class="st6" width="1" height="3.7"/>
		
			<rect x="123.6" y="83.4" transform="matrix(0.3597 -0.9331 0.9331 0.3597 -1.298214e-02 170.3972)" class="st6" width="1" height="3.7"/>
		
			<rect x="88.8" y="78.1" transform="matrix(0.3597 -0.9331 0.9331 0.3597 -17.3557 134.5403)" class="st6" width="1" height="3.7"/>
		<rect x="121.5" y="74.6" transform="matrix(0.3596 -0.9331 0.9331 0.3596 6.82 162.7878)" class="st5" width="1" height="3.7"/>
		
			<rect x="109.2" y="51.1" transform="matrix(-0.9586 -0.2847 0.2847 -0.9586 199.8312 135.0573)" class="st6" width="1" height="3.7"/>
		
			<rect x="127.6" y="66.2" transform="matrix(0.6161 0.7877 -0.7877 0.6161 102.8133 -74.7488)" class="st6" width="1" height="3.7"/>
		<rect x="121" y="57.8" transform="matrix(0.616 0.7877 -0.7877 0.616 93.662 -72.8485)" class="st6" width="1" height="3.7"/>
		<linearGradient id="SVGID_1_" gradientUnits="userSpaceOnUse" x1="78.0043" y1="68.2867" x2="127.3001" y2="68.2867">
			<stop  offset="0" style="stop-color:#FFFFFF"/>
			<stop  offset="1" style="stop-color:#808080"/>
		</linearGradient>
		<path class="st7" d="M127.3,54.9c-0.1-3.4-2-7.7-4.5-7.4c-2.5,0.2-6.4,1.7-8,0.1c-1.6-1.6-0.8-5-2.8-4.8c-2,0.1-5.7,2.1-7.1,0.8
			c-1.4-1.4-3.4-3.3-4.6-1.8c-1.2,1.5-3.5,5.5-5.4,5.1c-1.9-0.5-6.4-1.9-6.3-0.2c0.1,1.7-1.4,5.6-2.3,5.4c-0.9-0.2-1.2,0.2-1.1,2.7
			c0.1,2.5-1.1,3.3-3.3,4.2c-2.1,0.9-4.8,0.9-3.6,3.6c1.2,2.7,4.2,4.1,3.5,6.4c-0.7,2.4-3.4,2.7-1.7,5.4c1.7,2.7,4.2,2.6,3.4,5.5
			c-0.8,2.9-0.8,3.4,1.5,3.9c2.3,0.6,3.3,1.9,2.6,4.4c-0.7,2.5-0.3,5.4,2.4,5.2c2.7-0.2,5.6-1.5,7.3-0.5c1.7,1,1.4,3.4,4.3,2.1
			c2.9-1.2,5.9-0.5,5.7-2.8c-0.1-2.4-3.8-2.3-5-2c-1.1,0.2-2.8,3.3-5,0c-2.1-3.3-3.4-3.6-4.5-2.6c-1.1,1-2.7,2.9-3.4,1.4
			c-0.7-1.6,2.5-4.3-0.6-6.2c-3-1.9-4.6-1.4-3.9-5.2c0.7-3.8-2.6-1.6-2.1-5.2c0.5-3.6,3.3-3.7,1.7-6.2c-1.6-2.5-3.5-5.7-0.3-7.2
			c3.2-1.5,4.5,0,4.3-3c-0.2-3,0.2-8,1.6-8.2c1.4-0.2,1.4,3.9,4.7,2.9c3.4-1,5-3.5,5.7-5.6c0.8-2.1,2.7-1.9,4.7,0.8
			c2,2.7,5-0.2,6.2-0.6c1.2-0.3-1.4,4.2,2.7,5.4c4.1,1.2,3.5,1.7,6.3-0.2c2.8-1.9,5-0.8,4.5,1.7C124.5,54.6,127.4,59,127.3,54.9z"/>
	</g>
	<g>
		<path class="st0" d="M91,109.4c-4.5-7.2-15.2-12.3-27.8-12.3c-12.1,0-22.5,4.7-27.2,11.4c-1.8,2.5-2.8,5.3-2.8,8.3
			c0,10.8,13.4,19.6,30,19.6c16.6,0,30-8.8,30-19.6C93.2,114.1,92.4,111.6,91,109.4z M63.2,108.4c4.9,0,8.9,2.1,8.9,4.6
			c0,2.6-4,4.6-8.9,4.6c-4.9,0-8.9-2.1-8.9-4.6C54.3,110.4,58.3,108.4,63.2,108.4z"/>
		<path class="st8" d="M93.2,116.7c0,10.8-13.4,19.6-30,19.6c-16.6,0-30-8.8-30-19.6c0-3,1-5.8,2.8-8.3c-2.7,8.2-3.1,22.9,28.2,22.9
			c25.9,0,28.7-12.2,26.8-22C92.4,111.6,93.2,114.1,93.2,116.7z"/>
		<path class="st4" d="M90.9,114.1c-1-2.6,0.3-6.7-3.8-10.5c-4.2-3.7-16.4-7.7-23.8-7.5c-16,0.5-21.2,5.5-23.3,7.4
			c-2,1.9-1.9,3.9-1.5,4.7s-0.1,2-1.6,3.5c-1.5,1.5-1.9,4,0.1,5c2,1,4.2,2.9,3.5,4.2c-0.7,1.4-2,2.4-2,5c0,2.6,2.2,0.9,2.4-0.1
			c0.1-1,1.7-2.5,2.6-1.1c0.9,1.4-0.2,3.1,1.7,4.5c1.9,1.4,3.4-0.6,5.5-1.1c2.1-0.5,3.8,0.5,4.6,1.9c0.8,1.4,2.8,2.9,5.8,2.7
			c3-0.1,3-4.2,4.9-4.4c1.9-0.1,3,2.2,3.1,3.7c0.1,1.5-0.4,2.9,1.3,2.2c1.8-0.6,0.4-4.2,2-4.9c1.6-0.6,3.9,2.2,6.3,1.2
			c2.4-1,1.9-3.9,4.4-5.9c2.5-2,3.7,1.6,4.8,0.7s0.8-3.4,0.4-4.4c-0.3-1-0.6-2.9,0.8-3.2c1.3-0.4,2,3.7,2.7,2
			C92.7,118.2,91.9,116.7,90.9,114.1z M72.6,112.3c-0.5,2.4-4.2,4.8-8.8,5c-7.2-0.2-10-2.8-11-4.3c-1-1.5-0.3-3.9,0.1-2.9
			c0.4,1,1,1.4,1.6,0.8c0.6-0.6-0.3-1.9-0.5-2.7c-0.2-0.7,0.2-2.1,1.1-2.5c0.9-0.4,1.2,3.4,2.7,2.6c1.5-0.8,1.5-3.4,3.4-3.7
			c1.9-0.3,1.8,1.9,3.6,1.7c1.8-0.2,1.3-2.3,2.8-2.3c1.4,0,1.9,1.3,1.8,2.6c-0.1,1.2-0.2,2.1,0.8,2.1c1,0,0.4-2.4,1.4-1
			C72.5,109.1,73.1,109.9,72.6,112.3z"/>
		<linearGradient id="SVGID_2_" gradientUnits="userSpaceOnUse" x1="36.6301" y1="112.4806" x2="76.2006" y2="112.4806">
			<stop  offset="0" style="stop-color:#FFFFFF"/>
			<stop  offset="1" style="stop-color:#808080"/>
		</linearGradient>
		<path class="st9" d="M69.9,97.3c0,0-9.4-1.7-18.3,1s-12.1,5.8-12.3,7.6c-0.1,1.7,0.9,2.7,0,4.1c-0.9,1.3-3.4,3.1-2.5,5
			c1,1.9,4.9,3,4.9,4.5c0,1.5-1.8,2.6-2,4.1c-0.2,1.5,0.2,1.2,1.3,0.2c1.1-1,2.5-1.4,3-0.3c0.5,1.1-0.4,4.7,1.4,4.7
			c1.9,0.1,4.3-2.8,7-2.7c2.7,0.1,4.5,3.3,6.9,2.7c2.4-0.6,6.2-6.2,9-6.2c2.8-0.1,6.7-1.6,7.6-4.2c1-2.6-7.5,2.4-16.5-0.1
			c-9-2.5-8.8-4.2-9.4-6.9c-0.6-2.7,0.4-6.9,2.2-8c1.9-1.1,2.5,1.5,4.6,0.7c2.1-0.7,2.2-2.8,3.5-3.2c1.3-0.3,4.6,0.2,5.6-0.6
			C67.4,99,69.5,99.6,69.9,97.3z"/>
		<rect x="71.3" y="99.7" transform="matrix(0.5 -0.866 0.866 0.5 -51.8716 112.8252)" class="st6" width="0.9" height="3.2"/>
		
			<rect x="56.9" y="97.3" transform="matrix(-0.3608 -0.9326 0.9326 -0.3608 -14.1851 188.0037)" class="st6" width="0.9" height="3.2"/>
		
			<rect x="66.4" y="123.3" transform="matrix(0.4999 -0.8661 0.8661 0.4999 -74.7255 120.354)" class="st6" width="0.9" height="3.2"/>
		
			<rect x="48.9" y="104.5" transform="matrix(0.5001 -0.866 0.866 0.5001 -67.1942 95.7964)" class="st6" width="0.9" height="3.2"/>
		
			<rect x="83.5" y="117.8" transform="matrix(-0.3538 0.9353 -0.9353 -0.3538 225.371 83.1404)" class="st5" width="0.9" height="3.2"/>
		
			<rect x="43.8" y="102.4" transform="matrix(0.9465 0.3228 -0.3228 0.9465 35.9497 -8.7169)" class="st5" width="0.9" height="3.2"/>
		
			<rect x="63.7" y="100.1" transform="matrix(0.9464 0.3229 -0.3229 0.9464 36.2655 -15.2701)" class="st5" width="0.9" height="3.2"/>
		
			<rect x="53.1" y="100.4" transform="matrix(5.004589e-02 0.9987 -0.9987 5.004589e-02 152.7289 43.4352)" class="st5" width="0.9" height="3.2"/>
		
			<rect x="40.7" y="110.2" transform="matrix(0.4668 0.8843 -0.8843 0.4668 120.8115 23.1759)" class="st5" width="0.9" height="3.2"/>
		
			<rect x="76.9" y="108" transform="matrix(0.4668 0.8844 -0.8844 0.4668 138.1436 -9.9504)" class="st5" width="0.9" height="3.2"/>
		
			<rect x="46" y="122.2" transform="matrix(-0.101 -0.9949 0.9949 -0.101 -72.0544 182.5354)" class="st5" width="0.9" height="3.2"/>
		<rect x="57.3" y="124.6" class="st5" width="0.9" height="3.2"/>
		<rect x="50.2" y="118" transform="matrix(0.8661 0.4999 -0.4999 0.8661 66.5873 -9.2945)" class="st6" width="0.9" height="3.2"/>
		
			<rect x="76" y="124.3" transform="matrix(0.3596 -0.9331 0.9331 0.3596 -68.5556 151.9512)" class="st6" width="0.9" height="3.2"/>
		
			<rect x="47.5" y="112.3" transform="matrix(0.3597 -0.9331 0.9331 0.3597 -75.5156 117.6658)" class="st6" width="0.9" height="3.2"/>
		
			<rect x="61.4" y="118.6" transform="matrix(0.3596 -0.9331 0.9331 0.3596 -72.5522 134.735)" class="st5" width="0.9" height="3.2"/>
		
			<rect x="77.4" y="101.8" transform="matrix(-0.9586 -0.2848 0.2848 -0.9586 123.0865 224.6147)" class="st6" width="0.9" height="3.2"/>
		
			<rect x="85.4" y="107.7" transform="matrix(0.6161 0.7877 -0.7877 0.6161 119.049 -25.6806)" class="st6" width="0.9" height="3.2"/>
		
			<rect x="73.7" y="116.1" transform="matrix(0.6161 0.7877 -0.7877 0.6161 121.1696 -13.2481)" class="st6" width="0.9" height="3.2"/>
	</g>
	<g>
		<path class="st10" d="M108.8,19.8c-0.1,0.7-0.2,1.4-0.4,2.1c-2.5,9.9-31.5,9.3-48.3,9.3c-16.8,0-58.5-3.4-59.4-12.1
			c-0.1-0.8-0.1-1.5-0.1-2.2C0.5,3.9,15.3,4.9,60,4.4C103.7,3.9,110.1,10.9,108.8,19.8z"/>
		<path class="st11" d="M108.8,19.8c-0.7,0-1.4-0.1-2-0.3c-2.4-1-2.2,1.7-3.4,4.3c-1.2,2.6-6.7,2.4-9.1,1.9
			c-2.4-0.5-4.8-4.6-6.7-4.6c-1.9,0-0.2,5.3-3.4,6c-3.1,0.7-5.1-3.1-7-4.8c-1.9-1.7-3.8-1.7-6.5,1.7c-2.6,3.4-3.1,2.9-7.2,3.8
			c-4.1,1-8.7-0.7-10.3-3.4c-1.7-2.6-3.8-4.6-6-3.4c-2.2,1.2-1,4.6-4.8,5.5c-3.8,1-4.3-3.1-6.3-4.8c-1.9-1.7-2.9-1.9-5.5,0.5
			c-2.6,2.4-6,2.9-10.6,2.2c-4.6-0.7-5.8-5.5-7.7-7.5c-1.9-1.9-2.6,1.7-7.2,1.7c-1.9,0-3.4-0.8-4.5-1.7C0.5,3.9,15.3,4.9,60,4.4
			C103.7,3.9,110.1,10.9,108.8,19.8z"/>
		<path class="st12" d="M49.8,1.9c-16.1-0.2-37,0-43.1,3.4S-1,13.2,1.4,15.6c2.4,2.4,5.5,1,9.1-0.7c3.6-1.7,3.1,7,9.4,8.4
			c6.3,1.4,8.2-3.6,12.8-4.6c4.6-1,5.5,6.5,8.2,7c2.6,0.5,3.1-6,5.5-6.5c2.4-0.5,7,1.7,7.9,4.6s9.1,4.6,12,1.4c2.9-3.1,5.1-6,8.4-6
			c3.4,0,4.6,6,7.5,6.5c2.9,0.5,1.7-3.6,3.6-5.5c1.9-1.9,4.6,0.5,7.2,2.9c2.6,2.4,7.7,1,9.4-1.4c1.7-2.4,1.7-4.6,3.4-4.6
			c1.7,0,1.2,2.2,3.1,1.4C110.9,17.8,116.2-0.2,49.8,1.9z"/>
		<path class="st13" d="M3.1,13.7c-2-2.7,4.1-8.7,14.7-9.4S76,3.6,77.2,8.9c1.2,5.3-37.5,1.4-43.3,3.8c-5.8,2.4-9.6,7.5-14,6.7
			c-4.3-0.7-4.1-8.2-6.7-8.4S5.7,17.3,3.1,13.7z"/>
		<g>
			<path class="st14" d="M23.6,17c-3.6,0-5.6-3.3-7.2-6.4C14.6,7,9.6,4,9.6,4C9.1,3.7,9,3.1,9.2,2.6c0.3-0.5,0.9-0.6,1.3-0.3
				c0.2,0.1,5.6,3.3,7.6,7.4c2.2,4.4,3.8,5.8,6.4,5.3c0.2,0,0.6-0.1,0.8-0.9c0.7-2.6-1.6-8.6-4.8-11.3c-0.4-0.3-0.5-0.9-0.1-1.4
				c0.3-0.4,0.9-0.5,1.4-0.1c3.7,3.1,6.4,9.7,5.5,13.3c-0.3,1.3-1.1,2.1-2.3,2.4C24.5,16.9,24,17,23.6,17z"/>
		</g>
		<g>
			<path class="st14" d="M58,19.5c-3.6,0-6.5-2.8-8.2-7.9c-1.2-3.7-5.2-9.5-8.3-9.7c-0.7,0-1.1,0.2-1.5,0.7c-1,1.5-0.7,4.9,0.3,7.1
				c0.5,1.2,0.4,2.4-0.2,3.2c-0.6,0.8-1.7,1.2-2.9,1c-1.6-0.3-2.9-1.5-3.5-3.3c-1.3-3.8-6.2-8.2-6.2-8.3C27.1,2,27,1.4,27.4,1
				c0.4-0.4,1-0.4,1.4-0.1C29,1.2,34,5.8,35.5,10c0.4,1.1,1.2,1.9,2,2c0.4,0.1,0.8,0,1-0.3c0.2-0.3,0.2-0.7,0-1.3
				c-1.2-2.7-1.6-6.8-0.1-9c0.7-1,1.8-1.5,3.2-1.5c4.5,0.3,8.8,7.4,10,11c1.1,3.2,3.2,7,6.9,6.6c0.2,0,0.3-0.1,0.5-0.4
				c1.1-2.8-3.6-13.1-5.4-15.1c-0.4-0.4-0.3-1,0.1-1.4c0.4-0.4,1-0.3,1.4,0.1C57,2.9,62.3,14,60.8,17.9c-0.4,0.9-1.1,1.5-2,1.6
				C58.5,19.5,58.2,19.5,58,19.5z"/>
		</g>
		<g>
			<path class="st14" d="M72.2,14.7c-0.3,0-0.6,0-1-0.1c-1.5-0.3-3.2-1.4-3.9-3.7c-1.1-3.8-6.2-9.2-6.3-9.2c-0.4-0.4-0.4-1,0-1.4
				c0.4-0.4,1-0.4,1.4,0c0.2,0.2,5.5,5.8,6.7,10c0.4,1.4,1.6,2.1,2.5,2.3c0.6,0.1,1.2,0,1.5-0.3c0.3-0.3,0.1-0.9,0-1.2
				c-0.3-0.9-0.6-1.7-0.9-2.5c-0.9-2.5-1.5-4.5-3.3-6.6c-0.3-0.4-0.3-1,0.1-1.4c0.4-0.3,1-0.3,1.4,0.1c2,2.4,2.7,4.6,3.6,7.2
				c0.3,0.8,0.5,1.6,0.9,2.5c0.6,1.7,0.1,2.7-0.3,3.2C74.1,14.3,73.2,14.7,72.2,14.7z"/>
		</g>
		<g>
			<path class="st14" d="M99.2,19c-2.3,0-3.9-3.9-5.4-7.3c-0.4-0.9-0.7-1.6-0.9-2.1c-0.5-1-1.9-1.9-2.9-2.2c-0.5-0.1-0.8-0.1-0.8,0
				c0,0,0,0.1,0,0.3c0.1,0.7,0.4,1.7,0.6,2.7c0.6,2.1,1.2,4.1,0.3,5.4c-0.2,0.4-0.7,0.8-1.6,0.9c-3.4,0.3-4.9-1.4-6.5-4.9
				c-1.6-3.5-5.7-9.4-5.7-9.5c-0.3-0.4-0.2-1,0.3-1.3c0.4-0.3,1-0.2,1.3,0.3c0.2,0.2,4.2,6.1,5.9,9.8c1.6,3.5,2.5,4,4.6,3.8
				c0,0,0.2,0,0.2-0.1c0.3-0.5-0.3-2.5-0.6-3.8c-0.3-1.1-0.6-2.2-0.7-3.1c-0.1-1.2,0.4-2,1.4-2.3c1.8-0.5,4.9,1.1,5.9,3.2
				c0.3,0.6,0.6,1.3,1,2.2c0.6,1.5,2.6,6.2,3.6,6.2c0,0,0,0,0,0c0.1,0,0.3-0.2,0.5-0.6c0.8-1.6,0.8-5.9-1.7-10
				c-0.3-0.5-0.1-1,0.3-1.3c0.5-0.3,1-0.1,1.3,0.3c2.7,4.5,3,9.5,1.8,11.9c-0.5,1-1.2,1.5-2,1.6C99.3,19,99.3,19,99.2,19z"/>
		</g>
	</g>
</g>
</svg>
