<?xml version="1.0" encoding="utf-8"?>
<!-- Generator: Adobe Illustrator 25.0.0, SVG Export Plug-In . SVG Version: 6.00 Build 0)  -->
<svg version="1.1"
	 id="svg2" xmlns:cc="http://creativecommons.org/ns#" xmlns:dc="http://purl.org/dc/elements/1.1/" xmlns:inkscape="http://www.inkscape.org/namespaces/inkscape" xmlns:ns1="http://sozi.baierouge.fr" xmlns:rdf="http://www.w3.org/1999/02/22-rdf-syntax-ns#" xmlns:sodipodi="http://sodipodi.sourceforge.net/DTD/sodipodi-0.dtd" xmlns:svg="http://www.w3.org/2000/svg"
	 xmlns="http://www.w3.org/2000/svg" xmlns:xlink="http://www.w3.org/1999/xlink" x="0px" y="0px" viewBox="0 0 232.7 184.4"
	 style="enable-background:new 0 0 232.7 184.4;" xml:space="preserve">
<style type="text/css">
	.st0{fill:#F6F6F1;}
	.st1{fill:#EAE8E3;}
	.st2{fill:#FFFFFF;}
	.st3{fill:#C0C0C0;}
	.st4{fill:#F7A700;}
	.st5{fill:#FEC500;}
	.st6{fill:#F08100;}
	.st7{fill:#E1E8ED;}
	.st8{fill:#9AA1B5;}
	.st9{fill:#DEE6EB;}
	.st10{fill:#E8F0F5;}
	.st11{fill:#9BA0AD;}
	.st12{fill:#C1C8D9;}
	.st13{fill:#999999;}
	.st14{fill:#F4B05F;}
	.st15{fill:#EBDCD0;}
	.st16{fill:#BDD1E6;}
	.st17{fill:#EBF1F7;}
	.st18{fill:#A1B5C9;}
	.st19{fill:#B2C5D9;}
	.st20{fill:#E1EDF5;}
	.st21{fill:#D8E6F0;}
	.st22{fill:#E6D6CA;}
	.st23{opacity:0.57;fill:#FFFCF7;enable-background:new    ;}
	.st24{opacity:0.62;fill:#FFFFFF;enable-background:new    ;}
	.st25{fill:#A3A3A3;}
	.st26{fill:#FAF7F3;}
	.st27{fill:#F2ECE3;}
	.st28{fill:#FFF9F2;}
	.st29{fill:#F5F1EB;}
	.st30{fill:#FDC951;}
	.st31{fill:#F5B545;}
	.st32{fill:#7D4B17;}
	.st33{fill:#9C9C9C;}
</style>
<g>
	<path class="st0" d="M65.8,82.3c-9.7-3.7-32.6-2.2-41.5,3.1c-9.6,5.7-22.5,26.3-24.1,37.3c-1.5,10.6,4.2,33.6,11.9,41
		c8,7.7,35.5,14.8,46.6,13c18.2-3,31.2-19.7,36.1-30.9c3.8-8.6-0.2-28.8-4.1-37.3C86.9,100.3,74.2,85.5,65.8,82.3z"/>
	<path class="st1" d="M90.7,108.5c-0.4-0.8-0.8-1.6-1.3-2.5c3.8,9,7.3,28,3.7,36.2c-4.9,11.2-17.9,27.9-36.2,30.9
		c-11,1.8-38.5-5.2-46.6-13c-1.4-1.4-2.7-3.2-4-5.5c1.7,3.8,3.7,7,5.8,9.1c8,7.7,35.5,14.8,46.6,13c18.2-3,31.2-19.7,36.1-30.9
		C98.6,137.2,94.6,117,90.7,108.5z"/>
	<path class="st2" d="M2.7,125.2C4.2,114.5,16.8,94.5,26,89c8.7-5.2,30.8-6.6,40.2-3c8,3.1,20,17,23.9,25c-0.3-0.8-0.6-1.5-0.9-2.2
		c-3.7-7.9-16-22.2-24.1-25.4c-9.4-3.7-31.5-2.2-40.2,3c-9.2,5.5-21.8,25.5-23.4,36.2c-1.1,7.5,1.6,21.6,6.1,31.3
		C3.9,144.4,1.6,132,2.7,125.2z"/>
	<ellipse class="st3" cx="48.3" cy="130" rx="22.6" ry="22.6"/>
	<path class="st2" d="M49.7,90.6c0.5,2.7-3.1,5.6-8,6.5s-9.3-0.6-9.8-3.3c-0.5-2.7,3.1-5.6,8-6.5S49.2,87.9,49.7,90.6z"/>
	<path class="st2" d="M28.4,94.9c0.6,0.7,0.1,2-1.1,3s-2.6,1.2-3.2,0.6c-0.6-0.7-0.1-2,1.1-3S27.8,94.3,28.4,94.9z"/>
	<path class="st2" d="M32.2,98.4c0.3,0.5-0.2,1.3-1,1.6c-0.8,0.4-1.6,0.2-1.9-0.3s0.2-1.3,1-1.6C31.1,97.7,32,97.8,32.2,98.4z"/>
	<ellipse class="st4" cx="47.5" cy="128.6" rx="22.6" ry="22.6"/>
	<path class="st5" d="M51.4,111.1c0.9,2.8-2.5,4.9-7.3,6.4c-4.8,1.6-9.1,2.1-10-0.8c-0.9-2.8,2.2-6.4,7-8
		C45.8,107.2,50.5,108.2,51.4,111.1z"/>
	<path class="st6" d="M65.2,135.2c1.5,4.6-3.6,10.5-11.5,13c-7.8,2.5-15.4,0.8-16.9-3.8s4.7-7.3,12.5-9.9
		C57.1,132,63.6,130.5,65.2,135.2z"/>
</g>
<g>
	<g>
		<g>
			<g>
				<g>
					<path class="st7" d="M217.2,179.3c-0.1,0-0.2,0-0.2,0C217.2,179.2,217.3,179.2,217.2,179.3z"/>
				</g>
				<path class="st8" d="M224.5,179.1c-3.8,0-34.7-3.9-47.5-4.7c-0.1,0-0.2,0-0.3,0c-1.5-0.1-2.7-0.2-3.6-0.2H173
					c-2.6,0-4.9,0.3-7,0.8c-0.9,0.2-1.7,0.4-2.5,0.7c-0.9,0.3-1.7,0.6-2.5,1c-0.1,0-0.2,0.1-0.3,0.1c-0.4,0.2-0.7,0.4-1,0.5
					c-0.7,0.4-1.4,0.8-1.8,1.2c-0.2,0.2-0.4,0.3-0.6,0.5c-0.1,0.1-0.2,0.2-0.3,0.3c-0.2,0.2-0.3,0.4-0.6,0.7
					c-0.1,0.1-0.2,0.2-0.2,0.3c-0.3,0.3-0.8,0.7-1.3,1.1c-0.2,0.2-0.5,0.3-0.8,0.5c-0.1,0.1-0.2,0.1-0.3,0.2
					c-0.1,0.1-0.3,0.1-0.4,0.2c-0.1,0.1-0.3,0.1-0.4,0.2c-0.1,0.1-0.3,0.1-0.5,0.2c-0.1,0.1-0.3,0.1-0.4,0.2H152
					c-0.2,0.1-0.3,0.1-0.5,0.2c-1.4,0.5-3.1,0.9-5.3,1.1c-0.3,0-0.5,0.1-0.8,0.1c-2.1,0.2-4.6,0.1-7.6-0.1
					c-5.9-0.5-10.3-2.4-13.3-4.5c-0.1,0-0.1-0.1-0.2-0.1c-2.5-1.8-3.9-3.7-4.4-5.1c-0.1-0.3-0.1-0.5-0.2-0.7c0-0.4,0-0.7,0.1-1
					c0.7-1,3.1-2.1,9.3-2.1c0.4,0,0.8,0,1.2,0c2.1,0,4.6,0.1,7.5,0.4c5.1,0.4,8.5,1.1,10.8,1.8c2.8,0.9,4.2,1.8,5.4,2.3
					c0.6,0.3,1.2,0.4,2,0.5c0.3,0,0.7,0,1.1-0.1c0.4-0.2,0.9-0.4,1.3-0.6c0.2-0.1,0.5-0.2,0.7-0.3s0.3-0.1,0.5-0.2
					c0.1,0,0.1,0,0.2-0.1c0,0,0,0,0.1,0c0.7-0.3,1.4-0.5,2.2-0.7c0.3-0.1,0.6-0.2,0.8-0.2c0.3-0.1,0.6-0.2,0.9-0.2
					c0.2,0,0.4-0.1,0.6-0.1c0.2-0.1,0.5-0.1,0.7-0.2c0.3-0.1,0.5-0.1,0.8-0.2c0.3-0.1,0.6-0.1,0.9-0.2c0.1,0,0.1,0,0.2,0
					c0.2,0,0.4-0.1,0.6-0.1c0.4-0.1,0.8-0.2,1.1-0.2c0.2,0,0.4-0.1,0.6-0.1c0.6-0.1,1.2-0.2,1.7-0.3c1.2-0.2,2.4-0.3,3.6-0.3
					c0.3,0,0.5,0,0.8,0c0.2,0,0.3,0,0.5,0c0.9,0,2.1,0.1,3.4,0.1c12.3,0.3,39.5,1,42.7,0.8C236.5,171.1,235,179.1,224.5,179.1z"/>
				<path class="st9" d="M176.7,174.3c-1.5-0.1-2.8-0.2-3.7-0.2c-0.1,0-0.1,0-0.2,0c-2.6,0-5,0.3-7.1,0.8c-0.9,0.2-1.7,0.4-2.5,0.7
					c-0.9,0.3-1.7,0.6-2.5,1c-0.1,0-0.2,0.1-0.3,0.1c-0.4,0.2-0.7,0.4-1,0.5c-0.7,0.4-1.4,0.8-1.8,1.2c-0.2,0.2-0.4,0.3-0.6,0.5
					c-0.1,0.1-0.2,0.2-0.3,0.3c-0.2,0.2-0.3,0.4-0.6,0.7c-0.1,0.1-0.2,0.2-0.2,0.3c-0.3,0.3-0.8,0.7-1.3,1.1
					c-0.2,0.2-0.5,0.3-0.8,0.5c-0.1,0.1-0.2,0.1-0.3,0.2c-0.1,0.1-0.3,0.1-0.4,0.2c-0.1,0.1-0.3,0.1-0.4,0.2
					c-0.1,0.1-0.3,0.1-0.5,0.2c-0.1,0.1-0.3,0.1-0.4,0.2h-0.1c-0.2,0.1-0.3,0.1-0.5,0.2c-1.7,0.5-3.5,0.9-5.3,1.1
					c-0.3,0-0.5,0.1-0.8,0.1c-1.3-0.1-2.7-0.2-4-0.4c1-2,1.9-4.4,0.8-6.3c-0.7-1.2-2.1-1.8-3.3-2.2c-1-0.4-1.9-0.7-2.9-1
					c-3.8-1.1-7.7-1.7-11.6-1.7c-1.4,0-2.8,0-4.1,0.1c-0.1,0-0.2,0-0.3,0c0.7-1,3.2-2.1,9.6-2.1c0.4,0,0.8,0,1.2,0
					c2,0,4.4,0.1,7.2,0.4c3.7,0.3,7.1,1.3,10.7,1.8h0.1c2.9,0.9,4.3,1.8,5.5,2.4c0.7,0.3,1.3,0.4,2.2,0.4c0.3,0,0.5,0,0.8-0.1
					c0.4-0.2,0.9-0.4,1.3-0.6c0.2-0.1,0.5-0.2,0.7-0.3s0.4-0.2,0.7-0.3c0,0,0,0,0.1,0c0.7-0.3,1.4-0.5,2.2-0.7
					c0.3-0.1,0.6-0.2,0.8-0.2c0.3-0.1,0.6-0.2,0.9-0.2c0.2,0,0.4-0.1,0.6-0.1c0.2-0.1,0.5-0.1,0.7-0.2c0.3-0.1,0.5-0.1,0.8-0.2
					c0.3-0.1,0.6-0.1,0.9-0.2c0.1,0,0.1,0,0.2,0c0.2,0,0.4-0.1,0.6-0.1c0.4-0.1,0.8-0.2,1.1-0.2c0.2,0,0.4-0.1,0.6-0.1
					c0.6-0.1,1.2-0.2,1.7-0.3c1.3-0.2,2.6-0.3,3.9-0.3c0.2,0,0.3,0,0.5,0s0.3,0,0.5,0c-0.4,0.9-0.1,2,0.5,2.8
					C176.5,174.1,176.6,174.2,176.7,174.3L176.7,174.3z"/>
				<path class="st10" d="M160.5,176.8c-0.3,0.2-0.7,0.3-1,0.5c-0.7,0.4-1.4,0.8-1.8,1.2c-0.2,0.2-0.4,0.3-0.6,0.5
					c-0.1,0.1-0.2,0.2-0.3,0.3c-0.2,0.2-0.3,0.4-0.6,0.7c-0.1,0.1-0.2,0.2-0.2,0.3c-0.3,0.3-0.8,0.7-1.3,1.1
					c-3.5-2.6-7.3-4.8-11.4-6.1c-2.4-0.7-5-1.1-7.5-1c-1.3,0-2.5,0.2-3.7,0.5c-1.7,0.4-3.5,1.1-5,2.1c-0.8,0.5-1.7,1.8-2.6,2.7
					l-0.1,0.1c-2.5-1.8-4-3.7-4.6-5.2c-0.1-0.3-0.2-0.6-0.2-0.8c0-0.4,0-0.7,0.1-1c0.7-1,3.2-2.1,9.6-2.1c0.4,0,0.8,0,1.2,0
					c2,0,4.4,0.1,7.2,0.4c5.1,0.4,8.5,1.1,10.8,1.8c2.9,0.9,4.3,1.8,5.5,2.4c0.7,0.3,1.3,0.4,2.2,0.4c0.3,0,0.5,0,0.8-0.1
					c0.4-0.2,0.9-0.4,1.3-0.6c0.2-0.1,0.5-0.2,0.7-0.3s0.4-0.2,0.7-0.3c0,0,0,0,0.1,0v0.1C160.2,175.2,160.4,176,160.5,176.8z"/>
				<path class="st11" d="M141.1,181.5c7.1,0,12.3-1.1,16-2.5c-0.1,0.1-0.2,0.2-0.3,0.3c-1.4,1.8-5.3,6-19.1,4.8
					c-12-1.1-17.7-7.5-18.1-10.4C121.8,176.6,127.2,181.6,141.1,181.5z"/>
				<path class="st12" d="M119.8,172.6c0,0,1.2,5.6,11.5,7.4c10.2,1.8,19,2.2,26.9-2.5c-3.3,3-6.4,5-17.6,4.6
					C128.9,181.7,120,177.1,119.8,172.6z"/>
				<path class="st12" d="M224.2,179.1c-4.2,0.1-42.9-4.9-51.4-4.9c-7.3,0-12.9,2.5-15.2,4.4c0,0,3.4-3.7,10.5-4.9
					s54.4,5.5,59.7,4.5C235.1,176.8,226.7,179,224.2,179.1z"/>
				<path class="st12" d="M231.9,175.6c-0.3-0.5-2.6-2.2-4-2.2c-3.6-0.1-7.2,0.1-10.8,0c-6.5-0.2-13-0.6-19.5-0.8
					c-4.5-0.2-9-0.1-13.6,0c1.8,0.3,4.2,0.7,7.4,1C215.5,176.1,230.9,178.2,231.9,175.6z"/>
				<path class="st2" d="M148,181.5c-6.7,0.3-14.1,0.1-20.4-2.2c-0.1,0-0.1,0.1,0,0.1c3.1,1.4,6.2,2.1,9.6,2.4
					c3.5,0.3,7.4,0.9,10.8,0.1C148.2,181.7,148.1,181.4,148,181.5z"/>
				<path class="st2" d="M195.2,175.8c-9.9-2.3-20.5-3.6-30.5-1.1c-0.1,0,0,0.1,0,0.1C174.9,172.4,185.1,174.6,195.2,175.8
					C195.2,175.9,195.2,175.8,195.2,175.8z"/>
				<path class="st2" d="M228.2,172.8c-5.2-0.6-10.7-0.4-15.9-0.3c-0.1,0-0.1,0.2,0,0.2C217.5,172.9,223,173.3,228.2,172.8
					C228.2,172.9,228.2,172.8,228.2,172.8z"/>
			</g>
		</g>
		<path class="st13" d="M154.3,175.1c-0.1,0-0.1,0-0.2,0c-3,0-5.9-1.3-8.9-2s-6.1-1.1-9.2-1.2c-2.9-0.2-6-0.2-8.9,0.1
			c-1,0.1-1.9,0.2-2.8,0.5c-0.3,0.1-0.6,0.2-0.9,0.3c-1.2,0.4-2.1,1.1-3.2,1.6c-0.1,0-0.2,0.1-0.3,0.1c-0.1-0.3-0.2-0.6-0.2-0.8
			c0-0.4,0-0.7,0.1-1c0.7-1,3.2-2.1,9.6-2.1c0.4,0,0.8,0,1.2,0c2.1,0,4.6,0.1,7.5,0.4c5.1,0.4,8.5,1.1,10.8,1.8
			C151.7,173.7,153,174.6,154.3,175.1z"/>
		<path class="st13" d="M138.1,176.2c-1.9-1.2-4.9-0.8-7.1-1.3c-2-0.4-4.4-1.7-6.5-1.3c-0.3,0.1-0.4,0.4-0.4,0.6
			c0.7,2.4,4.1,3.5,6.2,4.1c2.3,0.6,5.9,1.3,7.9-0.5C138.8,177.4,138.6,176.6,138.1,176.2z"/>
	</g>
	<g>
		<g>
			<g>
				<path class="st14" d="M154.2,151.4c0,0.4-0.1,0.8-0.2,1.1c0,0.2-0.1,0.4-0.1,0.6c0,0.1,0,0.1,0,0.2c-0.1,0.3-0.1,0.6-0.2,0.8
					c0,0.1,0,0.1-0.1,0.2c0,0.1,0,0.1-0.1,0.2c0,0.1-0.1,0.2-0.1,0.3c-0.1,0.2-0.2,0.5-0.3,0.7c0,0.1-0.1,0.2-0.1,0.3s0,0.1-0.1,0.2
					c-0.1,0.1-0.1,0.3-0.2,0.4c0,0.1-0.1,0.2-0.1,0.2c0,0.1-0.1,0.2-0.1,0.2c-0.1,0.2-0.3,0.5-0.4,0.7c0,0.1-0.1,0.2-0.1,0.2
					c0,0.1-0.1,0.2-0.1,0.2c-0.1,0.2-0.2,0.3-0.3,0.5c-0.1,0.1-0.1,0.2-0.2,0.2c-0.2,0.3-0.5,0.7-0.8,1c-0.1,0.1-0.1,0.1-0.2,0.2
					c-0.1,0.1-0.2,0.2-0.3,0.3c-0.1,0.1-0.1,0.1-0.2,0.2c-0.5,0.5-1.1,1-1.6,1.5c-0.6,0.5-1.4,1-2.1,1.4c-3.7,2.1-8.6,3.1-12.6,3.6
					c-5.4,0.7-11,0.1-16-1.6c-3.2-1.1-6.8-3.1-9.4-5.7c-1.3-1.3-2.3-2.7-2.9-4.3c-2.7-6.4,5-13.4,9.8-16.7
					c11.1-7.6,34.4-10.3,38.7,6.6c0.2,0.9,0.4,1.7,0.4,2.6c0,0.2,0,0.4,0,0.6C154.3,149.4,154.3,150.4,154.2,151.4z"/>
			</g>
		</g>
		<path class="st15" d="M154,152.5c0,0.2-0.1,0.4-0.1,0.6c0,0.1,0,0.1,0,0.2c-0.1,0.3-0.1,0.6-0.2,0.8c0,0.1,0,0.1-0.1,0.2
			c0,0.1,0,0.1-0.1,0.2c0,0.1-0.1,0.2-0.1,0.3c-0.1,0.2-0.2,0.5-0.3,0.7c0,0.1-0.1,0.2-0.1,0.3s0,0.1-0.1,0.2
			c-0.1,0.1-0.1,0.3-0.2,0.4c0,0.1-0.1,0.2-0.1,0.2c0,0.1-0.1,0.2-0.1,0.2c-0.1,0.2-0.3,0.5-0.4,0.7c0,0.1-0.1,0.2-0.1,0.2
			c0,0.1-0.1,0.2-0.1,0.2c-0.1,0.2-0.2,0.3-0.3,0.5c-0.1,0.1-0.1,0.2-0.2,0.2c-0.2,0.3-0.5,0.7-0.8,1c-0.1,0.1-0.1,0.1-0.2,0.2
			c-0.1,0.1-0.2,0.2-0.3,0.3c-0.1,0.1-0.1,0.1-0.2,0.2c-1.1,1.2-2.5,2-3.8,2.9c-3.7,2.1-8.6,3.1-12.6,3.6c-5.4,0.7-11,0.1-16-1.6
			c-3.2-1.1-6.8-3.1-9.4-5.7c7.9,2.4,15.9,4.9,24.3,4C140.7,162.8,148.8,158.8,154,152.5z"/>
		<path class="st13" d="M120.3,151.9c2.2,0.7,4.8,0.7,7.1,1c6.5,0.7,18.1,0.5,20.7-7.2c2.3-6.8-3.6-10.5-9.5-10.8
			c-6.7-0.3-13.5,2-18.6,6.3c-2.4,2-5.7,5.8-3,8.7C117.9,150.8,119.1,151.4,120.3,151.9z"/>
		<path class="st13" d="M129.2,146.5c3.7,0.3,10.9,0.8,14.3-1.3c4.7-2.8-0.2-8.8-4.2-9.1c-1.7-0.1-3.4,0.3-5,0.7
			c-2,0.6-12.7,5.1-9.7,8.3C125.5,146.3,127.9,146.4,129.2,146.5z"/>
		<path class="st2" d="M142.1,138.8c-0.9-1-2.4-1.3-3.4-0.5c-0.6,0.4-0.9,1-1,1.7c-0.4,0.7-0.1,1.5,0.5,2c0.1,0,0.1,0.1,0.2,0.1
			c0,0.2,0.1,0.3,0.2,0.4c1,0.8,2.5,0.6,3.4-0.2C143,141.4,143,139.9,142.1,138.8z"/>
		<path class="st2" d="M135.6,141.3c-0.2-0.6-0.6-0.9-1.2-0.9c-0.2,0-0.5,0.2-0.6,0.4c-0.2,0-0.4,0.1-0.5,0.3c0,0.1,0,0.1,0,0
			c0,0.1-0.1,0.1-0.1,0.2c0,0.1,0,0.2,0,0.3c0.1,0.2,0.2,0.4,0.3,0.5c0.3,0.3,0.7,0.4,1.1,0.4c0.3,0,0.6-0.1,0.8-0.4
			C135.6,141.9,135.6,141.5,135.6,141.3z"/>
	</g>
	<g>
		<g>
			<g>
				<path class="st16" d="M192.1,115.2c0,0.4-0.1,0.8-0.1,1.2c-1.1,11.8-3.3,19.4-5.7,24.5c0,0.1-0.1,0.1-0.1,0.2
					c-1.5,3.2-3.1,5.4-4.5,7c-0.4,0.5-0.9,0.9-1.3,1.3c-0.6,0.5-1,1-1.5,1.4l-0.1,0.1c-0.1,0.1-0.1,0.1-0.2,0.2l-0.1,0.1
					c-0.6,0.5-1,1-1.3,1.4c0,0.1-0.1,0.1-0.1,0.2c0,0,0,0.1-0.1,0.1c0,0.1-0.1,0.1-0.1,0.2c0,0.1,0,0.1-0.1,0.2c0,0.1,0,0.2,0,0.3
					c0,0.4,0.1,0.8,0.3,1.3c0.1,0.2,0.2,0.4,0.3,0.6s0.3,0.4,0.4,0.6c0.2,0.3,0.5,0.7,0.9,1.1c1.8,2.1,6,2.4,5.9,5.6
					c0,0.2-0.1,0.5-0.1,0.7c0,0.1-0.1,0.2-0.1,0.3c0,0.1-0.1,0.1-0.1,0.2c-0.3,0.5-0.6,0.9-1.1,1.3c-0.1,0.1-0.2,0.2-0.3,0.2
					c-0.1,0.1-0.2,0.1-0.3,0.2c-0.5,0.3-1,0.7-1.7,0.9c-0.2,0.1-0.4,0.2-0.6,0.3c-0.1,0.1-0.3,0.1-0.4,0.2c-0.6,0.2-1.1,0.4-1.8,0.6
					c-0.2,0.1-0.4,0.1-0.6,0.2c-0.1,0-0.3,0.1-0.4,0.1c-0.1,0-0.3,0.1-0.4,0.1c-0.2,0.1-0.5,0.1-0.8,0.1c-0.2,0-0.4,0.1-0.5,0.1
					c-0.4,0.1-0.8,0.1-1.2,0.2c-0.2,0-0.3,0-0.5,0.1c-0.4,0-0.8,0.1-1.2,0.1c-0.2,0-0.4,0-0.5,0c-0.3,0-0.6,0-1,0
					c-0.3,0-0.5,0-0.8,0c-1.4,0-2.7-0.1-4-0.2c-0.5-0.1-0.9-0.1-1.3-0.2c-0.2,0-0.4-0.1-0.6-0.1c-0.2,0-0.4-0.1-0.6-0.1
					c-0.4-0.1-0.7-0.2-1.1-0.3c-0.1,0-0.2-0.1-0.3-0.1c-0.3-0.1-0.6-0.2-0.9-0.3c-0.2-0.1-0.4-0.1-0.5-0.2c-0.2-0.1-0.3-0.1-0.5-0.2
					c-0.2-0.1-0.3-0.1-0.5-0.2c-0.4-0.1-0.7-0.3-1-0.5c-0.2-0.1-0.5-0.3-0.7-0.4c-0.2-0.1-0.3-0.2-0.4-0.3c-0.1-0.1-0.2-0.2-0.4-0.3
					c-0.1,0-0.1-0.1-0.2-0.1c-0.1-0.1-0.2-0.2-0.3-0.3c-0.1-0.1-0.1-0.1-0.2-0.2c-0.1-0.1-0.1-0.1-0.1-0.2c-0.1-0.1-0.2-0.3-0.3-0.4
					c-0.1-0.1-0.1-0.2-0.1-0.2c0-0.1-0.1-0.1-0.1-0.2c0-0.1-0.1-0.1-0.1-0.2c0-0.1,0-0.1,0-0.1c0-0.1,0-0.1-0.1-0.2
					c0-0.1,0-0.2,0-0.3c0-0.1,0-0.2,0-0.3c0-0.4,0-0.8,0.2-1.1c0-0.1,0.1-0.3,0.2-0.4c0-0.1,0.1-0.1,0.1-0.2
					c0.9-1.5,3.1-2.2,4.5-3.1c0,0,0.1,0,0.1-0.1c0.4-0.3,0.9-0.7,1.3-1.1c0.1-0.1,0.1-0.1,0.2-0.2c0.7-0.8,1.3-1.8,1.3-2.8
					c0-0.1,0-0.3-0.1-0.4c-0.1-0.4-0.5-0.8-0.8-1.1c-0.6-0.6-1.2-1.2-1.8-1.8c-1.7-1.7-3.6-3.4-4.9-5.4c-0.4-0.6-0.8-1.3-1.3-2
					c-0.5-0.9-1-2-1.5-3.1c-0.1-0.2-0.1-0.3-0.2-0.5c-0.1-0.2-0.2-0.4-0.3-0.7c-0.1-0.3-0.3-0.7-0.4-1c-0.1-0.2-0.1-0.3-0.2-0.5
					c-0.1-0.2-0.1-0.4-0.2-0.6c-0.3-0.7-0.5-1.5-0.7-2.3c0-0.1,0-0.1-0.1-0.2c-0.1-0.3-0.2-0.7-0.3-1c-0.3-1-0.5-1.9-0.7-2.9
					c-0.1-0.4-0.2-0.8-0.3-1.2c-0.6-3.1-1.1-6.6-1.5-10.7c-0.1-1.1,0.1-2.1,0-3.3L192.1,115.2z"/>
				<path class="st16" d="M192.1,115.1c0.4,3.9-10,7.1-22,7.1s-21.9-3.1-21.8-7c0.1-2.9,7.6-6.4,21.4-6.2
					C182.8,109.2,191.8,112.4,192.1,115.1z"/>
				<path class="st17" d="M191.5,115.2c-0.6,3.7-9.7,7.3-21.4,7.3s-21.2-3.5-21.3-7.3c-0.1-3.4,9.5-5.9,21.3-5.9
					C182,109.3,191.9,112.5,191.5,115.2z"/>
				<path class="st18" d="M190.7,115.2c-0.6,3.4-9.3,6.1-20.6,6.1s-20.5-2.7-20.6-6.1c-0.1-3,9.1-5.3,20.6-5.3
					S191.1,112.8,190.7,115.2z"/>
				<path class="st19" d="M190,115.2c-0.1,0.6-0.5,1.2-1.1,1.7c-2.7,2.4-9.9,4.1-18.8,4.1c-9.5,0-17.6-2-19.5-4.7
					c-0.3-0.4-0.4-0.8-0.4-1.2c0-0.1,0-0.3,0.1-0.4c0.8-2.7,9.3-4.6,19.8-4.6c9.4,0,17.4,2,19.4,4
					C189.9,114.5,190.1,114.9,190,115.2z"/>
				<path class="st14" d="M190.5,105.9c0,2.4-0.3,4.8-0.7,7.1c0,0.2-0.1,0.4-0.1,0.7c0,0.2-0.1,0.3-0.1,0.5
					c-0.2,0.7-0.3,1.5-0.5,2.2c0,0.2-0.1,0.4-0.1,0.6c-0.8,0.7-2.1,1.4-3.7,2c-3.4,1.2-8.3,2-14,2.1c-0.4,0-0.8,0-1.1,0
					c-9.5,0-17.6-2-19.5-4.7c-0.1-0.5-0.2-1-0.4-1.6c-0.2-1-0.4-2.1-0.6-3.2c0-0.1,0-0.1,0-0.2c-0.3-1.7-0.4-3.6-0.4-5.5
					c0-7.1,3-14.2,7.4-19.2c0.5-0.6,1-1.1,1.5-1.6c0.9-0.8,1.8-1.6,2.7-2.3c2.8-2,5.9-3.3,9-3.3c8,0.2,15.9,8.1,19.1,17.7
					C189.9,99.9,190.5,102.9,190.5,105.9z"/>
				<path class="st20" d="M186.3,140.9c0,0.1-0.1,0.1-0.1,0.2c-1.5,3.2-3.1,5.4-4.5,7c-0.4,0.5-0.9,0.9-1.3,1.3
					c-0.5,0.5-1,0.9-1.5,1.4l-0.1,0.1c-0.1,0.1-0.1,0.1-0.2,0.2l-0.1,0.1c-0.5,0.4-1,0.9-1.3,1.4c0,0.1-0.1,0.1-0.1,0.2
					c0,0,0,0.1-0.1,0.1c0,0.1-0.1,0.1-0.1,0.2c0,0.1,0,0.1-0.1,0.2c0,0.1,0,0.2,0,0.3c0,0.4,0.1,0.8,0.3,1.3c-0.1,0-0.2,0-0.2,0
					c-3-0.1-6,0.1-9,0.5c-1.4,0.2-3,0.3-4.3,0.8c-0.1,0-0.6,0.2-1.1,0.4c-0.2,0.1-0.4,0.1-0.6,0.2c0.1-0.1,0.1-0.1,0.2-0.2
					c0.7-0.8,1.3-1.8,1.3-2.8c0-0.1,0-0.3-0.1-0.4c-0.1-0.4-0.5-0.8-0.8-1.1c-0.6-0.6-1.2-1.2-1.8-1.8c-1.7-1.7-3.6-3.4-4.9-5.4
					c-0.4-0.6-0.8-1.3-1.3-2c-0.5-1-1.1-2.1-1.5-3.1c-0.1-0.2-0.1-0.3-0.2-0.5c-0.1-0.2-0.2-0.4-0.3-0.7s-0.3-0.7-0.4-1
					c-0.1-0.2-0.1-0.3-0.2-0.5c-0.1-0.2-0.1-0.4-0.2-0.6c-0.3-0.7-0.5-1.5-0.7-2.3c0-0.1,0-0.1-0.1-0.2c-0.1-0.3-0.2-0.7-0.3-1
					c-0.3-1-0.5-1.9-0.7-2.9c-0.1-0.4-0.2-0.8-0.3-1.2c0.5,0.6,1.3,1.1,1.8,1.8c3,4.6,7,8.5,11.5,10.9c4.9,2.7,10.3,3.8,15.8,2.4
					C181.6,143.6,184.1,142.6,186.3,140.9L186.3,140.9z"/>
				<path class="st21" d="M178,155.9c-0.5,0-1,0-1.6,0c-0.5,0-1,0-1.4,0c-2.8,0-5.5,0-8.3,0.2c-1.3,0.1-2.7,0.2-4,0.3
					c-0.1,0-0.3,0-0.4,0c0.7-0.8,1.3-1.8,1.3-2.8c0-0.1,0-0.3-0.1-0.4c-0.1-0.4-0.5-0.8-0.8-1.1c-0.6-0.6-1.2-1.2-1.8-1.8
					c0.6,0.1,1.3,0.3,1.9,0.6c1.2,0.7,2.6,1,3.9,1.3c3.2,0.7,6.6,1,9.8,0.9c0.2,0,0.3,0,0.5,0c0,0.1,0,0.2,0,0.3
					c0,0.4,0.1,0.8,0.3,1.3c0.1,0.2,0.2,0.4,0.3,0.6S177.8,155.7,178,155.9z"/>
				<path class="st20" d="M184.6,163.4c0,0.1-0.1,0.2-0.1,0.3s-0.1,0.1-0.1,0.2c-0.3,0.5-0.6,0.9-1.1,1.3c-0.1,0.1-0.2,0.2-0.3,0.2
					c-0.1,0.1-0.2,0.1-0.3,0.2c-0.5,0.3-1,0.7-1.7,0.9c-0.2,0.1-0.4,0.2-0.6,0.3c-0.1,0.1-0.3,0.1-0.4,0.2c-0.6,0.2-1.1,0.4-1.8,0.6
					c-0.2,0.1-0.4,0.1-0.6,0.2c-0.1,0-0.3,0.1-0.4,0.1c-0.1,0-0.3,0.1-0.4,0.1c-0.2,0.1-0.5,0.1-0.8,0.1c-0.2,0-0.4,0.1-0.5,0.1
					c-0.4,0.1-0.8,0.1-1.2,0.2c-0.2,0-0.3,0-0.5,0.1c-0.4,0-0.8,0.1-1.2,0.1c-0.2,0-0.4,0-0.5,0c-0.3,0-0.6,0-1,0
					c-0.3,0-0.5,0-0.8,0c-1.4,0-2.7-0.1-4-0.2c-0.5-0.1-0.9-0.1-1.3-0.2c-0.2,0-0.4-0.1-0.6-0.1c-0.2,0-0.4-0.1-0.6-0.1
					c-0.4-0.1-0.7-0.2-1.1-0.3c-0.1,0-0.2-0.1-0.3-0.1c-0.3-0.1-0.6-0.2-0.9-0.3c-0.2-0.1-0.4-0.1-0.5-0.2c-0.2-0.1-0.3-0.1-0.5-0.2
					c-0.2-0.1-0.3-0.1-0.5-0.2c-0.4-0.1-0.7-0.3-1-0.5c-0.2-0.1-0.5-0.3-0.7-0.4c-0.2-0.1-0.3-0.2-0.4-0.3c-0.1-0.1-0.2-0.2-0.4-0.3
					c-0.1,0-0.1-0.1-0.2-0.1c-0.1-0.1-0.2-0.2-0.3-0.3s-0.1-0.1-0.2-0.2c-0.1-0.1-0.1-0.1-0.1-0.2c-0.1-0.1-0.2-0.3-0.3-0.4
					c-0.1-0.1-0.1-0.2-0.1-0.2c0-0.1-0.1-0.1-0.1-0.2c0-0.1-0.1-0.1-0.1-0.2c0-0.1,0-0.1,0-0.1c0-0.1,0-0.1-0.1-0.2
					c0-0.1,0-0.2,0-0.3s0-0.2,0-0.3c0-0.4,0-0.8,0.2-1.1c1.4,1.1,3,1.9,4.7,2.6c0.2,0.1,0.4,0.1,0.6,0.2c3.5,1.3,7.5,1.7,10.9,1.7
					s6.8-0.6,10-1.6C182.8,164.1,183.7,163.7,184.6,163.4z"/>
				<path class="st21" d="M181,166.4v0.1c-0.2,0.1-0.4,0.2-0.6,0.3c-0.1,0.1-0.3,0.1-0.4,0.2c-0.6,0.2-1.1,0.4-1.8,0.6
					c-0.2,0.1-0.4,0.1-0.6,0.2c-0.1,0-0.3,0.1-0.4,0.1c-0.1,0-0.3,0.1-0.4,0.1c-0.2,0.1-0.5,0.1-0.8,0.1c-0.2,0-0.4,0.1-0.5,0.1
					c-0.4,0.1-0.8,0.1-1.2,0.2c-0.2,0-0.3,0-0.5,0.1c-0.4,0-0.8,0.1-1.2,0.1c-0.2,0-0.4,0-0.5,0c-0.3,0-0.6,0-1,0
					c-0.3,0-0.5,0-0.8,0c-1.4,0-2.7-0.1-4-0.2c-0.5-0.1-0.9-0.1-1.3-0.2c-0.2,0-0.4-0.1-0.6-0.1c-0.2,0-0.4-0.1-0.6-0.1
					c-0.4-0.1-0.7-0.2-1.1-0.3c-0.1,0-0.2-0.1-0.3-0.1c-0.3-0.1-0.6-0.2-0.9-0.3c-0.2-0.1-0.4-0.1-0.5-0.2c-0.2-0.1-0.3-0.1-0.5-0.2
					c-0.2-0.1-0.3-0.1-0.5-0.2c-0.4-0.1-0.7-0.3-1-0.5c-0.2-0.1-0.5-0.3-0.7-0.4c-0.2-0.1-0.3-0.2-0.4-0.3c-0.1-0.1-0.2-0.2-0.4-0.3
					c-0.1,0-0.1-0.1-0.2-0.1c-0.1-0.1-0.2-0.2-0.3-0.3s-0.1-0.1-0.2-0.2c-0.1-0.1-0.1-0.1-0.1-0.2c-0.1-0.1-0.2-0.3-0.3-0.4
					c-0.1-0.1-0.1-0.2-0.1-0.2c0-0.1-0.1-0.1-0.1-0.2c0-0.1-0.1-0.1-0.1-0.2c0-0.1,0-0.1,0-0.1c0-0.1,0-0.1-0.1-0.2
					c0-0.1,0-0.2,0-0.3s0-0.2,0-0.3c0-0.4,0-0.8,0.2-1.1c0-0.1,0.1-0.3,0.2-0.4c0-0.1,0.1-0.1,0.1-0.2c0.9-1.4,3-2,4.5-3.1
					c0,0,0.1,0,0.1-0.1c0.4-0.3,0.9-0.7,1.3-1.1c0.1-0.1,0.1-0.1,0.2-0.2c0.7-0.8,1.3-1.8,1.3-2.8c2.2,0.5,4.4,0.7,6.7,0.6
					c1.7,0,3.5-0.2,5.2-0.5c0.3,0,0.9-0.2,1.6-0.5c0,0.4,0.1,0.8,0.3,1.3c0.1,0.2,0.2,0.4,0.3,0.6c-0.3,0.1-0.5,0.2-0.6,0.3
					c-0.7,0.2-1.3,0.3-2,0.4c-2.4,0.3-4.7,0.4-7.1,1.2c-2.5,0.8-7.2,1.4-8.2,4.3c-0.5,1.3,0,2.1,0.8,2.7c0.8,0.6,1.9,0.9,2.8,1.2
					c2.9,0.9,6,1.5,9.1,1.6C175.3,167.1,178.2,167,181,166.4z"/>
				<path class="st13" d="M179.4,158.7c-0.2-0.1-0.4-0.2-0.6-0.2c-3.5-1.3-6.2-1.6-9.6,0.2c-2.2,1.2-1.3,3.6,0.2,4.9
					s3.8,1.6,5.7,1.7c2,0.1,4.2,0.3,5.9-0.9C183.7,162.7,181.5,159.8,179.4,158.7z"/>
				<path class="st2" d="M173.9,162.1c-0.5-0.5-1.4-0.2-1.4,0.6v0.1c0,0.4,0.3,0.7,0.7,0.7h0.1C174,163.6,174.4,162.6,173.9,162.1z"
					/>
				<path class="st13" d="M156.6,124.4c0.6,5.6,2.5,12.4,5.4,17.3c3.8,6.5,12.7,10.9,18.3,3.9c2.6-3.2,4.7-6.7,5.9-10.7
					c1.2-3.6,1.5-7.8,2.1-11.6C185.2,124.4,173.1,128.4,156.6,124.4z"/>
				<path class="st15" d="M189.8,113c0,0.2-0.1,0.4-0.1,0.7c0,0.2-0.1,0.3-0.1,0.5c-0.2,0.9-0.4,1.9-0.6,2.8c-0.8,0.7-2.1,1.4-3.7,2
					c-2.1,0.9-5,1.6-8.3,2c-1.9,0-3.8,0.1-5.7,0.1c-0.4,0-0.8,0-1.1,0c-9.5,0-17.6-2-19.5-4.7c-0.1-0.5-0.2-1-0.4-1.6
					c-0.2-1-0.4-2.1-0.6-3.2c-0.3-1.8-0.5-3.8-0.5-5.7c0-7.1,3-14.2,7.4-19.2c-1.3,2.8-2,5.9-1.8,9c0.4,7.1,4.8,13.8,11,17.3
					C173,116.9,182.6,117.2,189.8,113z"/>
				<path class="st22" d="M189,116.4c0,0.2-0.1,0.4-0.1,0.6c-0.8,0.7-2.1,1.4-3.7,2c-3.4,1.2-8.3,2-14,2.1c-0.4,0-0.8,0-1.1,0
					c-9.5,0-17.6-2-19.5-4.7c-0.1-0.5-0.2-1-0.4-1.6c-0.2-1-0.4-2.1-0.6-3.2c0-0.1,0-0.1,0-0.2c1.1,1,2.3,2,3.5,2.8
					c4.8,3.4,10.3,5.2,15.9,5.7c5.9,0.5,12-0.4,17.6-2.5C187.5,117,188.3,116.7,189,116.4z"/>
				<path class="st23" d="M177.3,96.2c0,0.1,0,0.2,0,0.2V96.2z"/>
				<path class="st2" d="M184.4,119.9c-4.3,0.7-8.5,1.6-12.9,1.8c-4.1,0.2-8.1-0.2-12.2-0.7c-0.1,0-0.1,0.1,0,0.2
					c7.9,1.9,17.5,1.9,25.2-0.9C184.7,120.2,184.6,119.8,184.4,119.9z"/>
				<path class="st2" d="M184.2,127.8c-0.1-0.2-0.3-0.2-0.4,0c-1.1,2.1-1.1,4.9-1.7,7.3c-0.7,2.7-1.9,5.2-2.7,7.9
					c-0.2,0.7,0.8,1.4,1.3,0.8c1.9-2.3,2.9-5.2,3.5-8.1C184.8,133.3,185.4,130.1,184.2,127.8z"/>
				<path class="st2" d="M179.5,161.3c-0.6-0.5-1.2-0.7-1.9-1c-0.5-0.2-1.4-0.5-1.7,0.1c-0.3,0.6,0,1.1,0.3,1.6s0.6,1.1,1,1.5
					c0.6,0.5,1.6,0.7,2.2,0C180,162.9,180.1,161.8,179.5,161.3z"/>
				<path class="st24" d="M182.7,164.1c-3.5,0-7,0.9-10.6,0.8c-3.8-0.1-7.6-0.7-11.3-1.6c-0.1,0-0.2,0.1-0.1,0.2
					c3.5,1.6,7.1,2.5,10.9,2.7c3.5,0.3,8.1,0.2,11.3-1.4C183.3,164.7,183.1,164.1,182.7,164.1z"/>
			</g>
			<path class="st13" d="M184.8,106.6c2.2-2.3,2.2-5.6,1.5-8.5c-1.4-5.9-5.3-12.8-11.4-14.9c-4.2-1.5-9-0.8-11.2,3.5
				C159.1,95.5,179.8,111.8,184.8,106.6z"/>
			<path class="st25" d="M180.7,97c-2.7,1.9-6.8-2.5-8.2-4.6c-0.7-1.1-1.3-2.3-1.2-3.6c0.2-2.9,2.8-3.2,5.1-2.5
				c3.3,1,7.6,6.2,5.2,9.7C181.3,96.4,181,96.8,180.7,97z"/>
		</g>
		<path class="st2" d="M178.4,91.5c-0.4,0.2-1,0.3-1.8,0.2c-3.8-0.4-2.1-5.9,0.9-3.7C179,89.2,179.5,90.9,178.4,91.5z"/>
	</g>
</g>
<g>
	<path class="st26" d="M170,52.6c-2.4,5.2-6.4,9.8-10.6,12.9c-2.3,1.7-4.8,3.1-7.4,4.3c-5.2,2.3-10.7,3.4-16.1,4.6
		c-4.4,1-8.7,2.1-12.8,4c-6.8,3.1-14.6,4.2-22,2.8c-1.9-0.4-3.8-0.9-5.7-1.6c-5.7-2.2-10.9-5.8-16.8-7.4C74.5,71,67.8,71,65.4,66.8
		c-3.8-6.7,1.3-16.4,3.7-22.6c0.7-1.7,1.3-3.4,2-5.1c1.4-3.5,2.5-5.8,5.8-7c7.2-2.6,13.6-6.7,21.1-8.5c4.7-1.1,9.4-0.9,14.1-1.7
		c3.1-0.5,6.6-0.4,9.6,0.3c2.4,0.6,4.2,1.5,6.8,1.7c6.9,0.5,13.8,1,20.5,2.7c6.9,1.7,22.5,6.2,23.2,15C172.5,45.2,171.6,49,170,52.6
		z"/>
	<g>
		<path class="st27" d="M163.4,30.2c-5.3-3.6-13.3-5.7-19-6.7c-7.1-1.2-14.1-0.3-21.2-1.3c-2.5-0.4-3.8-2.2-5.8-3.4
			c-2.2-1.4-4.2-3.1-6.4-4.4c-4.2-2.6-8.7-4.8-13.3-6.6c-2.9-1.1-6.3-1.5-9.1-2.8c-7-3.1-12.2-6.2-20.1-4c-4.5,1.2-9.1,2.5-13.6,3.7
			C43.4,7.8,34,11.1,26.4,20.4c-3.9,4.7-9.5,13.3-8.2,19.9c1.1,6.1,10.3,9.8,15.6,10.6c5.6,0.9,11.6,0,16.9,2.1
			c4.2,1.6,7.7,4.8,12,5.9c-1.4,3.9-2.4,8.6,0.4,11.5c2.6,2.6,6.7,1.9,10.3,2.2c0.3,0,0.7,0.1,1,0.1c7.2,0.9,13.4,5.8,20.2,8.4
			c1.8,0.7,3.7,1.3,5.7,1.6c7.4,1.4,15.2,0.4,22-2.9c4.1-2,8.4-3.1,12.8-4.1c5.4-1.3,11-2.4,16.1-4.8c2.6-1.2,5.1-2.7,7.4-4.4
			c4.6-3.5,8.5-8,10.5-13.5c2.2-6,1.8-15.9-3.1-20.7C165.3,31.5,164.4,30.8,163.4,30.2z"/>
		<path class="st28" d="M117.3,43.6c-4.4,2.9-9.8,4-15,4.8c-5.2,0.7-10.6,1.2-15.5,3c-1.2,0.4-2.3,0.9-3.4,1.5
			c-6,2.9-11.9,6.7-18.3,5.3c-4.4-0.9-7.9-4.2-12-5.7c-5.2-2-11.1-1.2-16.6-2c-6.6-1-12.9-4.7-16-10.6c-0.4-0.8-0.8-1.7-1.1-2.5
			c-1.7-5.5-0.4-11.7,3.9-15.7c3.1-2.9,7.1-4.9,10.3-7.8c5.2-4.5,12.1-9,19.1-9.8c7.3-0.8,14.7-3,22.2-4c6.4-0.9,15.4,3.8,21,6.5
			c4.5,2.2,8.8,4.8,13.1,7.4c1,0.6,2,1.2,2.9,1.8c5.6,3.5,11.8,7.9,12.5,14.4C125,35.6,121.7,40.7,117.3,43.6z"/>
		<path class="st26" d="M83.4,52.9c-6,2.9-11.9,6.7-18.3,5.3c-4.4-0.9-7.9-4.2-12-5.7c-5.2-2-11.1-1.2-16.6-2
			c-6.6-1-12.9-4.7-16-10.6c-0.4-0.8-0.8-1.7-1.1-2.5c0.3,0.5,0.7,1,1.1,1.4c3.3,3.6,8.3,5.4,13.1,4.9c4.1-0.4,7.8-2.4,11.7-3.7
			c3.9-1.2,8.5-1.6,11.7,0.9c2.8,2.2,4.2,6.3,7.6,7.3c1.8,0.6,3.8,0,5.7-0.1C75.1,47.7,80,49.5,83.4,52.9z"/>
		<path class="st26" d="M123.7,36.2c-1.2,3.1-3.6,5.9-6.4,7.8c-4.4,2.9-9.8,4-15,4.8c-5.2,0.7-10.6,1.2-15.5,3
			c-7.2,2.7-14.1,8.4-21.7,6.8c-4.4-0.9-7.9-4.2-12-5.7c-5.2-2-11.1-1.2-16.6-2c-6.6-1-12.9-4.7-16-10.6c-3-5.7-2.2-12.8,2.1-17.5
			c-1.5,4.1-1.3,8.7,0.8,12.7c3.1,5.9,9.5,9.6,16,10.6c3.4,0.5,6.8,0.5,10.2,1c3.4,0.5,6.4,2.3,9.7,2.8c5.4,0.9,10.8-2,16.2-1.9
			c5.7,0,9.8,1.5,15.3-1c4.5-2,9.6-2.3,14.4-3c5.2-0.7,10.6-1.8,15-4.8C121.5,38.3,122.7,37.3,123.7,36.2z"/>
		<ellipse class="st29" cx="62.1" cy="21" rx="21.8" ry="12.9"/>
		<ellipse class="st30" cx="64.2" cy="20.1" rx="19.7" ry="12"/>
		<path class="st31" d="M83.9,20.1c0,6.6-8.8,12-19.7,12c-10.9,0-19.7-5.4-19.7-12c0-0.6,0.1-1.2,0.2-1.8c2.2,5.2,9.9,9,19.1,9
			c9.8,0,18-4.4,19.4-10.1C83.7,18.1,83.9,19.1,83.9,20.1z"/>
		<ellipse class="st32" cx="65.6" cy="17.5" rx="14.9" ry="6.5"/>
		<path class="st32" d="M79.8,16.1c0,3.6-6.7,6.5-14.9,6.5c-2.6,0-5-0.3-7.2-0.8c0.7,0,1.4-0.1,2,0.1c8.4,2.5,15.3,2.2,14.9-6.5
			c-0.1-2.4-3.1-4.6-7.8-5.7C74.2,10.1,79.8,12.8,79.8,16.1z"/>
		<path class="st2" d="M73.6,22.1c-1.4-0.1-2.7,0.3-4.1,0.6c-1,0.2-4.4,1.5-5.1,0.6c0,0-0.1,0-0.1,0c-0.5,1.1,1,1.4,1.8,1.4
			c2.4,0.1,5.7-0.2,7.8-1.6C74.3,22.8,74.1,22.1,73.6,22.1z"/>
		<path class="st2" d="M77.1,18.5c-0.3-0.1-0.6,0-0.9,0c-0.5,0.1-0.8,0.6-0.8,1.1c0,0.4,0.3,1,0.8,1.1c0.3,0,0.6,0.1,0.9,0
			C78.2,20.4,78.2,18.7,77.1,18.5z"/>
		<path class="st2" d="M56.2,13.8c-1.1,0.4-2.4,0.8-3.6,0.8c-0.7,0-0.7,1.1,0,1.1c1.5,0,2.8-0.5,3.9-1.4
			C56.7,14.1,56.4,13.6,56.2,13.8z"/>
		<path class="st2" d="M35.3,40.6c-3.5-1.3-7.3-1.5-9.5-5c-2.3-3.6-0.9-7.1-0.4-10.9c0-0.2-0.2-0.2-0.3-0.2
			c-4.3,2.3-3.7,9.3-1.4,12.8c2.2,3.5,7.8,7.1,11.8,4.3C35.8,41.3,35.7,40.8,35.3,40.6z"/>
		<path class="st2" d="M63.2,42.8c-0.9-3.1-5.8-4.7-8.7-5.2c-3.9-0.7-7.6-0.2-11.2,1.2c-0.5,0.2-0.3,0.9,0.2,0.8
			c3.6-0.9,7.3-0.6,10.8,0.6c1.6,0.6,3.2,1.3,4.6,2.2c1.2,0.7,2,1.5,3.4,1.7C62.9,44,63.3,43.3,63.2,42.8z"/>
		<path class="st2" d="M84.6,5.4c-5.1-2.5-12.5-2.9-18-1.8c-0.1,0-0.1,0.2,0,0.2c3.3,0.4,6.5,0.6,9.8,1.1c2.7,0.4,5.3,1.2,7.9,1.5
			C84.8,6.5,85,5.6,84.6,5.4z"/>
		<path class="st2" d="M40.2,12.3c-2.5-0.6-5.2,1.4-6.9,3.1c-0.8,0.9,0.4,2,1.3,1.3c0.9-0.7,1.8-1.3,2.8-1.8c1-0.5,2-0.7,2.9-1.3
			C40.8,13.3,40.8,12.5,40.2,12.3z"/>
		<path class="st33" d="M58.3,22.4c-2.6-0.8-8.4-2-8.4-5.6c0-0.3-0.4-0.3-0.4,0C49.4,19,51,20.6,53,21.6c-0.5,0.2-0.7,0.7-0.4,1.1
			c0.1,0.2,0.3,0.3,0.5,0.4c0.3,0.2,0.6,0.2,0.9-0.1c0.2-0.2,0.2-0.5,0.1-0.7c0-0.1,0-0.1,0-0.2c0,0,0-0.1,0-0.1
			c1.5,0.6,3,0.8,4.3,0.8C58.6,22.9,58.6,22.4,58.3,22.4z"/>
		<path class="st33" d="M58.1,24.6c-0.8,0-0.8,1.3,0,1.3C58.9,25.9,58.9,24.6,58.1,24.6z"/>
		<path class="st33" d="M62,25.9c0-0.1-0.2-0.2-0.3-0.2c-0.2,0-0.3,0.1-0.4,0.1c-0.2,0-0.3,0.1-0.5,0.1c-0.6-0.1-0.6,1,0,1
			C61.4,26.9,62.1,26.6,62,25.9z"/>
		<path class="st33" d="M65.2,25.4c-0.1,0-0.1-0.1-0.2-0.1c-0.4-0.2-1,0.1-1,0.6c0,0.5,0.5,0.8,1,0.6c0.1,0,0.1-0.1,0.2-0.1
			C65.5,26.1,65.5,25.6,65.2,25.4z"/>
	</g>
	<path class="st28" d="M169.9,52.5c-2,5.2-5.8,9.6-10.3,12.9c-2.3,1.7-4.7,3.1-7.3,4.3c-5.1,2.3-10.5,3.4-15.9,4.6
		c-4.3,1-8.6,2.1-12.6,4c-6.7,3.1-14.4,4.2-21.6,2.8c-1.9-0.4-3.8-0.9-5.6-1.6c-6.7-2.6-12.8-7.2-19.8-8.1c-0.3,0-0.7-0.1-1-0.1
		c-3.5-0.3-7.6,0.3-10.1-2.1c-3-2.9-1.7-7.8-0.2-11.7c1.7-4.5,3.4-8.9,5.2-13.4c0.7-1.7,1.3-3.4,2-5.1c1.3-3.5,2.4-5.8,5.7-7
		c4-1.5,7.5-2.6,11.4-4.8c1.8-1,3.6-1.7,5.5-2.3c6.9-2.2,14.6-2.2,21.9-2.2c6.3,0,12.7,0,19,0.5c5.2,0.4,10.3,1,15.4,1.9
		c4.5,0.8,9.1,1.8,12.8,4.5C171,34.7,172.9,44.6,169.9,52.5z"/>
	<path class="st26" d="M170.7,52.5c-3,7.9-9.9,13.7-17.6,17.2c-5.1,2.3-10.5,3.4-15.9,4.6c0.1-0.4,0.1-0.8,0.1-1.3
		c0.3-5-1.4-10.4,1-14.8c2.1-3.8,6.6-5.5,10.7-7c4.5-1.6,9.1-3.5,12.2-7.1c3.1-3.6,4.3-9.3,1.4-13.1c-3.3-4.3-9.9-3.9-15.1-2.4
		c-5.2,1.5-10.7,3.9-15.9,2.3c-3.2-1-5.8-3.4-8.9-4.7c-7.5-3.1-16.2,0.9-24.2-0.5c-0.9-0.1-1.8-0.4-2.6-0.8
		c6.9-2.2,14.6-2.2,21.9-2.2c6.3,0,12.7,0,19,0.5c5.2,0.4,10.3,1,15.4,1.9c4.5,0.8,9.1,1.8,12.8,4.5
		C171.9,34.7,173.7,44.6,170.7,52.5z"/>
	<path class="st26" d="M168.7,56.5c-3.5,5.9-9.3,10.3-15.6,13.2c-9.2,4.2-19.5,4.4-28.5,8.6c-8.4,4-18.5,4.6-27.2,1.2
		c-7-2.7-13.3-7.7-20.8-8.2c-3.5-0.3-7.6,0.3-10.1-2.1c-3-2.9-1.7-7.8-0.2-11.7c2.4-6.2,4.7-12.3,7.1-18.5c1.1-2.8,2-4.8,4-6.2
		c-0.2,0.5-0.5,1.1-0.7,1.7c-2.4,6.2-4.7,12.3-7.1,18.5c-1.5,3.9-2.8,8.8,0.2,11.7c2.5,2.5,6.6,1.9,10.1,2.1
		c7.5,0.5,13.8,5.5,20.8,8.2c8.7,3.3,18.8,2.7,27.2-1.2c9-4.2,19.3-4.4,28.5-8.6C161,63.2,165.4,60.3,168.7,56.5z"/>
	<ellipse class="st29" cx="109.1" cy="46.1" rx="22.3" ry="14.8"/>
	<ellipse class="st30" cx="110.2" cy="44.8" rx="21.2" ry="13.5"/>
	<path class="st31" d="M131.5,44.8c0,7.4-9.5,13.5-21.2,13.5c-11.7,0-21.2-6-21.2-13.5c0-2.7,1.3-5.3,3.5-7.4
		c-0.8,1.4-1.3,2.9-1.3,4.5c0,6.9,8.8,12.5,19.7,12.5c10.9,0,19.7-5.6,19.7-12.5c0-0.2,0-0.4,0-0.6
		C131.2,42.4,131.5,43.6,131.5,44.8z"/>
	<ellipse class="st32" cx="110.6" cy="41.2" rx="14.9" ry="6.5"/>
	<path class="st32" d="M126.7,42.4c0,4.1-6.7,7.4-14.9,7.4c-1.7,0-3.3-0.1-4.8-0.4c7.7-0.3,13.8-3.5,13.8-7.4c0-3.2-4.2-6-10.2-7
		c0.4,0,0.7,0,1.1,0C120,35.1,126.7,38.4,126.7,42.4z"/>
	<path class="st2" d="M109.7,50.1c-0.3-0.1-0.5-0.1-0.8,0c-0.1,0-0.1,0.2,0,0.2c0.3,0.1,0.5,0.1,0.8,0
		C109.8,50.3,109.8,50.1,109.7,50.1z"/>
	<path class="st2" d="M120.7,46.2c-2,0.3-3.8,1.1-5.7,1.5c-1.7,0.4-3.4,0.5-5,1.3c0,0,0,0.1,0,0.1c3.2,1.6,8.6,0.2,11.1-2.1
		C121.5,46.6,121.1,46.2,120.7,46.2z"/>
	<path class="st2" d="M125.8,42c0-0.2-0.1-0.4-0.3-0.7c-0.1-0.1-0.3-0.2-0.5-0.1c-0.2,0-0.3,0.1-0.4,0.2c-0.1,0.1-0.1,0.1-0.2,0.2
		c-0.3,0.2-0.4,0.6-0.5,1c-0.2,0.4,0.2,1,0.6,1.1c0.5,0.1,1-0.1,1.1-0.6C125.8,42.7,125.9,42.4,125.8,42z"/>
	<path class="st2" d="M98.2,73.1c-5-4.3-11.6-6.1-17.6-8.5c-3.1-1.2-9.6-0.2-10-4.5c-0.2-2.4,0.9-4.8-0.4-7c0,0-0.1-0.1-0.1,0
		c-0.4,2.9-2.2,5.7-1.7,8.6c0.5,2.9,3,4.6,5.8,5c1.8,0.3,3.5,0.1,5.3-0.2c2.3-0.3,4.3-0.1,6.4,0.7c4.3,1.6,7.8,4.5,11.9,6.4
		C98.1,73.9,98.6,73.4,98.2,73.1z"/>
	<path class="st2" d="M85.7,34.2c-3.4,2.3-5.8,10.1-4.1,13.9c0.4,0.8,1.4,0.4,1.6-0.2c0.9-2.2,0.6-4.9,1.1-7.2
		c0.5-2.1,1.5-4.1,1.7-6.2C86.1,34.2,85.8,34.1,85.7,34.2z"/>
	<path class="st2" d="M161.1,33.9c-1.1-3.7-5.2-4.8-8.7-5.1c-2.7-0.2-5.4,0.3-8.1,0.4c-2.9,0.1-5.8,0.1-8.7,0.3
		c-1,0.1-1.4,1.7-0.3,1.9c4.2,0.8,8.5,0.7,12.8,0.4c2.3-0.1,4.6-0.3,6.8,0.2c1.9,0.5,3.6,1.6,5.2,2.6
		C160.6,35,161.3,34.5,161.1,33.9z"/>
	<path class="st33" d="M99.1,48.2c-0.4-0.2-0.6-0.2-1,0c-0.3,0.2-0.4,0.5-0.3,0.9c0.1,0.3,0.4,0.6,0.7,0.6c0.4-0.1,0.6-0.2,0.8-0.5
		C99.4,48.8,99.4,48.4,99.1,48.2z"/>
	<g>
		<path class="st33" d="M103.5,49.7c-0.4-0.1-0.6,0.1-1,0.3c-0.1,0-0.2,0.1-0.4,0.1c-0.1-0.1-0.2-0.3-0.2-0.3c0,0,0,0,0,0
			c0,0-0.1-0.1-0.1-0.1c0,0-0.2,0-0.2,0c-0.2,0-0.5,0-0.7,0.2c-0.2,0.2-0.3,0.5-0.1,0.8c0.2,0.5,0.8,0.5,1.1,0.2
			c0.3,0,0.5-0.1,0.8-0.1c0.4-0.1,0.8-0.2,0.9-0.7C103.6,49.8,103.6,49.7,103.5,49.7z"/>
	</g>
	<path class="st33" d="M105.4,50c-0.1-0.1-0.2-0.1-0.2-0.1c-0.2-0.3-0.6-0.1-0.5,0.2c0.1,0.3,0.7,0.6,0.8,0.1
		C105.5,50.1,105.4,50.1,105.4,50z"/>
	<path class="st33" d="M107.9,51.2c-0.6-0.4-1.6,0-1.5,0.8c0,0.3,0.2,0.7,0.5,0.9c0.4,0.2,0.9,0.2,1.2-0.2c0.1-0.1,0.1-0.2,0.2-0.3
		c-0.1,0.2,0.1-0.1,0.1-0.2C108.7,51.9,108.4,51.3,107.9,51.2z"/>
	<path class="st33" d="M112.9,52c-0.3-0.1-0.8,0-1.2,0.1c-0.4,0.1-0.5,0.7-0.1,0.9c0.2,0.2,0.5,0.2,0.8,0.2c0.3,0,0.5-0.1,0.7-0.3
		C113.5,52.5,113.4,52.1,112.9,52z"/>
	<path class="st33" d="M113.2,47.2c-3.4,0-7,0.1-10.3-0.7c-3.2-0.8-7.3-2.7-8.1-6.3c0-0.1-0.2-0.1-0.2,0c0.4,8.3,13,8.3,18.7,7.4
		C113.5,47.6,113.4,47.2,113.2,47.2z"/>
</g>
</svg>
