<svg xmlns="http://www.w3.org/2000/svg" xmlns:xlink="http://www.w3.org/1999/xlink" version="1.1" x="0px" y="0px" viewBox="0 0 100 125" enable-background="new 0 0 100 100" xml:space="preserve"><g><path d="M44.854,29.976h49.23V15.309H22.417V6.034H7.75v87.932h65.417v-2.5h-50.75V56.583h11.167v8.5h13.958v-16.5H58.33V72.75   h16.087v-9.167h11.666V77.75h6.751v-2.5h-4.251V61.083H71.917v9.167H60.83V46.083H45.042v16.5h-8.958v-8.5H22.417v-10.22   L44.854,29.976z M22.417,40.923V29.976h17.687L22.417,40.923z M91.584,17.809v4.606H84.25v2.5h7.334v2.561H22.417v-2.561h58.916   v-2.5H22.417v-4.606H91.584z M19.917,91.466H10.25V8.534h9.667V91.466z"/><rect x="75.667" y="91.466" width="17.167" height="2.5"/></g><text x="0" y="115" fill="#000000" font-size="5px" font-weight="bold" font-family="'Helvetica Neue', Helvetica, Arial-Unicode, Arial, Sans-serif">Created by Creative Mania</text><text x="0" y="120" fill="#000000" font-size="5px" font-weight="bold" font-family="'Helvetica Neue', Helvetica, Arial-Unicode, Arial, Sans-serif">from the Noun Project</text></svg>