<svg xmlns="http://www.w3.org/2000/svg" xmlns:xlink="http://www.w3.org/1999/xlink" xml:space="preserve" version="1.1" style="shape-rendering:geometricPrecision;text-rendering:geometricPrecision;image-rendering:optimizeQuality;" viewBox="0 0 60000 75000" x="0px" y="0px" fill-rule="evenodd" clip-rule="evenodd"><defs><style type="text/css">
   
    .fil0 {fill:black;fill-rule:nonzero}
   
  </style></defs><g><path class="fil0" d="M6431.45 7006.56c2460.88,2199.32 4043.79,4804.53 5258.15,7131.55 257.39,-1517.86 1354.36,-2767.55 2197.64,-3728.16 199.66,-227.44 383.7,-437.08 533.38,-626 -680.56,-583.04 -1183.29,-1471.28 -1477.37,-2419.05 -349.92,-1127.71 -408.98,-2356.29 -122.56,-3259.24 63.53,-200.32 145.54,-388.26 246.72,-559.84l7.86 -13.25c34.12,-57.02 71.82,-111.89 112.9,-164.59 560.8,-719.61 1568.92,-773.72 2644.49,-514.91 981.74,236.23 2032.92,734.27 2799.91,1193.23 305.52,182.81 569.76,361.85 769.74,517.69 799.44,623 1409.03,1315.46 1752.39,1964.29 375.33,709.26 445.33,1386.94 128.84,1915.83 -34.61,57.84 -73,112.43 -114.96,163.83 -437.02,547.88 -1478.51,1233.43 -2666.76,1618.16 -987.26,319.63 -2092.01,445.52 -3064.83,136.94 -126.35,-40.08 -249.86,-90.21 -370.33,-149.51 -168.07,215.25 -373.94,449.75 -598.08,705.08 -1123.12,1279.38 -2751.36,3134.5 -1710.67,5343.5 882.66,1780.5 1605.09,3177.53 2448.62,3682.3 508.01,303.99 993.37,579.6 1449.09,838.37 2762.92,1568.84 4471.97,2539.29 5433.41,6416.21l88.43 356.84c966.74,3902.81 2054.38,8293.57 3962.67,11089.79 516.78,757.24 1000.08,1505.58 1450.85,2247.27 -454.61,-3940.57 803.02,-7138.34 2060.94,-10335.95 448.19,-1139.29 896.33,-2278.58 1262.7,-3447.01 972.05,-4691.53 -1070.64,-7535.15 -2892.64,-10071.2 -216.79,-301.76 -430.67,-599.45 -627.36,-881.39 -774.49,515.84 -1789.19,619.09 -2716.42,512.76 -950.8,-109.05 -1833.68,-451.72 -2269.12,-796.04 -48.32,-37.22 -93.94,-78.28 -136.58,-123.38 -421.69,-445.96 -438.48,-1158.66 -124.72,-1950.41 276.3,-697.25 816.72,-1478.54 1556.24,-2179.86l-0.53 -0.57 9.17 -7.66c742.82,-702.39 1556.5,-1200.83 2271.51,-1438.88 802.36,-267.12 1509.12,-212.36 1932.59,226.66l0.62 -0.62 7.58 9.08c48.53,51.32 91.61,106.2 129.52,164.29 366.43,541.26 696.39,1685.52 658.91,2813.84 -26.95,810.83 -235.6,1629.42 -740.54,2246.97 226.68,328.84 449.56,639.05 675.88,954.08 1343.12,1869.5 2800.14,3898.06 3192.82,6674.01 164.81,-957.41 266.67,-1944.66 368.51,-2931.89 312.46,-3028.83 625.04,-6057.64 2716.12,-8437.89 -49.97,-40.63 -98.72,-83.22 -146.05,-127.97l-9.08 -7.58 0.58 -0.62c-793.27,-757.03 -1016.42,-1933.83 -953.66,-3009.47 55.76,-955.75 347.61,-1855.79 666.05,-2309.31 34.51,-50.52 73.04,-98.53 115.81,-143.76 422.52,-446.83 1133.29,-503.95 1940.83,-235.1 715.04,238.05 1528.74,736.52 2271.54,1438.92 743.9,703.43 1287.43,1488.07 1564.8,2188.01 313.76,791.75 296.99,1504.47 -124.7,1950.43 -42.64,45.1 -88.27,86.16 -136.59,123.38 -435.43,344.33 -1318.31,686.99 -2269.12,796.04 -748.56,85.85 -1554.12,35.05 -2244.3,-259.09 -2014.64,2215.19 -2318.96,5163.94 -2623.17,8112.74 -161.24,1563.07 -322.53,3126.18 -732.97,4609.13 -391.34,2052.94 -1132.46,3936.96 -1873.61,5820.93 -1445.72,3675 -2891.11,7350.15 -1593.73,12134.13 376.1,704.48 722.84,1404.75 1041.09,2102.84 -19.21,-858.01 62.55,-1667.75 242.32,-2443.31 396.22,-1709.35 1262.71,-3239.27 2566.33,-4742.53 -593.7,-749.88 -763.35,-1784.4 -707.63,-2739.25 55.76,-955.75 347.61,-1855.79 666.05,-2309.31 34.51,-50.52 73.04,-98.53 115.81,-143.76 422.52,-446.83 1133.29,-503.95 1940.82,-235.1 715.04,238.05 1528.74,736.52 2271.55,1438.92 743.9,703.43 1287.43,1488.07 1564.8,2188 313.76,791.76 296.99,1504.48 -124.7,1950.44 -42.64,45.09 -88.27,86.16 -136.59,123.38 -435.43,344.32 -1318.31,686.99 -2269.12,796.04 -943.09,108.15 -1976.67,-0.5 -2755.95,-539.57 -1211.32,1402.28 -2014.29,2818.55 -2377.46,4385.31 -387.31,1670.96 -280.59,3528.41 357.21,5738.96 821.72,2532.5 1283.88,5077.78 1427.85,7732.6 1.58,29.27 2.18,63.33 1.81,102.04 -5.21,539.1 -266.05,913.26 -692.4,1160.1 -364.91,211.26 -851.99,315.88 -1391.99,345.16 -127.8,6.94 -264.78,9.46 -409.07,8.07 -719.11,-6.94 -1258.26,-171.33 -1634.36,-454.92 -437.29,-329.72 -647.51,-800.87 -658.65,-1363.72l-5.89 -298.5c-109.04,-5558.68 -192.93,-9834.3 -4103.82,-15564.92 -1986.43,-2910.7 -3091.99,-7373.85 -4074.69,-11341.05l-88.44 -356.9c-881.27,-3553.64 -2479.78,-4461.32 -5064,-5928.7 -455.22,-258.49 -940.06,-533.79 -1464.25,-847.47 -1084.23,-648.81 -1715.91,-2338.41 -2510.97,-4465.05 -1049.25,-2806.56 -2397.32,-6411.58 -5367.9,-9141.38 -684.74,272.74 -1480.19,285.91 -2209.79,162.58 -881.26,-148.98 -1688.93,-510.63 -2088.09,-854.66 -40.86,-34.1 -79.37,-71.21 -115.45,-111.32l-0.9 -0.98c-6.78,-7.56 -13.49,-15.19 -20.1,-22.96l-0.23 -0.27c-379.74,-447.05 -360.87,-1125.07 -23.39,-1859.82 296.66,-645.9 847.88,-1357.75 1583.29,-1982.44l32.48 -27.6 0.51 -0.25c725.14,-608.8 1503.08,-1027.32 2178.47,-1212.86 779.66,-214.19 1452.07,-122.82 1832.37,324.91 45.01,52.98 84.36,109.27 118.3,168.46 317.92,532.85 570.51,1624.97 478.87,2681.87 -49.04,565.7 -192.89,1130.77 -471.46,1612.84zm23152.95 43631.67c-36.58,-128.01 37.56,-261.47 165.58,-298.04 128.02,-36.58 261.47,37.56 298.05,165.58 65.86,228.27 125.25,445.06 176.86,649.06 55.19,218.12 107.45,441.5 156.5,672.68 75.81,357.22 143.04,729.65 200.56,1126.04 57.65,397.16 105.38,816.15 142.04,1265.35 10.45,133.24 -89.11,249.75 -222.35,260.2 -133.24,10.44 -249.75,-89.11 -260.19,-222.35 -36.11,-442.54 -82.56,-851.3 -138.26,-1235.06 -55.81,-384.54 -121.14,-746.35 -194.89,-1093.88 -47.14,-222.22 -98.19,-440.13 -152.72,-655.65 -58.11,-229.68 -114.96,-439.05 -171.18,-633.93zm15263.25 -26848.78c682.36,808.59 1019.36,2050.62 1071.47,3477.68 37.55,1028.66 -71.96,2161.12 -305.12,3295.59 662.26,-615.81 1470.07,-1074.6 2445.75,-1628.61 353.69,-200.82 730.37,-414.72 1122.77,-649.53 668.8,-400.22 1249.88,-1574.49 1981.63,-3053.26 563.99,-1139.78 1213.51,-2452.36 2083.98,-3769.21 -380.99,-695.28 -490.9,-1545.74 -444.51,-2340.94 55.76,-955.75 347.62,-1855.79 666.05,-2309.31 34.51,-50.52 73.05,-98.53 115.81,-143.76 422.52,-446.83 1133.29,-503.95 1940.83,-235.1 715.04,238.05 1528.74,736.52 2271.55,1438.92 743.9,703.43 1287.42,1488.07 1564.8,2188.01 313.75,791.75 296.98,1504.47 -124.71,1950.43 -42.64,45.09 -88.26,86.16 -136.58,123.38 -435.44,344.32 -1318.32,686.99 -2269.13,796.04 -768.42,88.13 -1596.93,32.3 -2298.99,-283 -679.64,1268.34 -1158.59,2549.36 -1576.53,3667.28 -622.9,1666.16 -1117.81,2989.92 -1985.09,3508.9 -408.58,244.5 -784.74,458.09 -1137.94,658.64 -1985.29,1127.29 -3213.33,1824.61 -3888.19,4545.97l-68.65 277c-764.34,3085.66 -1624.25,6557.1 -3174.42,8828.56 -3020.37,4425.74 -3085.24,7732.25 -3169.57,12030.98l-4.56 231.62c-9.2,463.8 -183.25,852.68 -545.36,1125.71 -306.24,230.9 -741.82,364.73 -1319.79,370.3 -114.8,1.1 -222.84,-0.85 -322.53,-6.26 -431.98,-23.43 -823.26,-108.06 -1119.14,-279.37 -357.36,-206.89 -576,-521.11 -580.37,-974.48 -0.31,-32.92 0.16,-61.05 1.41,-84.27 128.22,-2364.49 580.47,-4617.32 1404.93,-6871.17 822.88,-2249.54 2014.76,-4496.84 3623.66,-6854.37 1472.07,-2157.01 2314.05,-5556.11 3062.45,-8577.44l68.59 -276.8c135.81,-547.68 290.63,-1021.13 465.63,-1436.98 611.16,-1726.31 938.27,-3619.44 879.25,-5236.23 -53.55,-1466.65 -421.23,-2685.63 -1181.15,-3292.05 -1033.58,65.9 -2026.03,-491.34 -2782.53,-1191.55 -701.57,-649.38 -1210.83,-1444.91 -1359.95,-1978.96 -17.53,-59.79 -30.42,-121.15 -38.32,-184.07 -76.4,-608.85 331.5,-1193.52 1052.73,-1646.6 638.23,-400.95 1540.88,-712.71 2556.55,-840.17 1013.85,-127.23 1964.42,-48.17 2681.65,182.53 811.2,260.92 1351.28,727.6 1427.9,1338.14 7.84,62.44 10.51,124.61 8.34,186.43 -12.23,553.5 -309.17,1450.2 -828.8,2253.27 -451.64,697.98 -1075.69,1343.91 -1835.8,1668.11zm88.58 9163.11c-41.58,113.6 -84.35,226.41 -128.24,338.36 -92.49,262.89 -177.41,548.65 -254.96,861.35l-68.58 276.8c-764.36,3085.72 -1624.28,6557.26 -3174.48,8828.75 -1573.33,2305.42 -2736.38,4496.22 -3535.85,6681.79 -797.9,2181.22 -1235.53,4360.56 -1359.52,6647.11 -1,18.64 -1.47,31.57 -1.4,38.85 1.36,140.6 75.16,241.54 195.83,311.41 182.13,105.44 454.58,159.25 770.94,176.41 95.03,5.15 187.49,7.13 277.12,6.26 399.82,-3.85 681.78,-81.83 859.56,-215.87 158.67,-119.64 235.16,-300.83 239.56,-523.18l4.56 -231.63c86.9,-4430.06 153.77,-7837.57 3302.79,-12451.84 1472.04,-2156.98 2314.02,-5555.98 3062.41,-8577.25l68.64 -277c755.03,-3044.62 2093.6,-3804.7 4257.57,-5033.45 353.69,-200.83 730.41,-414.74 1122.81,-649.55 635.62,-380.36 1088.31,-1591.23 1658.09,-3115.28 433.14,-1158.58 930.19,-2487.98 1642.24,-3808.01 -37.26,-31.42 -73.8,-63.97 -109.54,-97.75l-9.08 -7.58 0.59 -0.62c-4.64,-4.43 -9.17,-8.94 -13.77,-13.4 -769.17,1199.23 -1364.76,2402.78 -1886.02,3456.21 -787.93,1592.32 -1413.62,2856.77 -2278.34,3374.21 -408.55,244.48 -784.72,458.08 -1137.91,658.62 -1655.47,940.02 -2784.31,1581.33 -3505.02,3346.28zm903.6 -13873.3c-613.97,-197.49 -1446.36,-262.82 -2351.6,-149.22 -903.42,113.37 -1692.79,382.19 -2238.65,725.09 -462.86,290.78 -731.25,613.35 -695.43,898.74 35.59,283.69 375.03,529.02 895.01,696.26 613.97,197.47 1446.38,262.83 2351.62,149.21l1.76 -0.22c902.7,-113.51 1691.39,-382.19 2236.89,-724.87 462.86,-290.77 731.23,-613.36 695.42,-898.74 -35.6,-283.69 -375.05,-529 -895.02,-696.25zm323.14 2414.52c-609.3,320.44 -1397.21,565.29 -2268.29,674.63l-24.72 3.02c-861.11,105.34 -1675.47,61.88 -2338.58,-96.8 56.73,57.26 115.36,114.03 175.77,169.94 650.61,602.2 1492.58,1078.18 2321.97,974.09l0.11 -0.02c826.76,-103.81 1524.34,-773.37 2006.27,-1518.17 44.41,-68.63 86.92,-137.66 127.47,-206.69zm11105.02 -3058.69c-662.52,-626.46 -1372.18,-1065.7 -1983.9,-1269.36 -519.21,-172.86 -938.74,-175.77 -1135.43,32.24 -197.53,208.89 -171.72,627.7 29.68,1135.94 237.81,600.08 715.64,1284 1377.09,1909.46 662.54,626.48 1372.2,1065.71 1983.92,1269.37 519.21,172.86 938.73,175.78 1135.43,-32.24 197.52,-208.89 171.7,-627.72 -29.7,-1135.95 -237.8,-600.08 -715.63,-1283.99 -1377.09,-1909.46zm-2242.42 2371.46c-638.13,-603.4 -1128.79,-1266.59 -1430.51,-1884.8 -8.08,79.58 -14.6,160.29 -19.35,241.82 -51.73,886.66 114.83,1839.9 719.92,2412.07l9.08 7.58 -0.41 0.44c606.33,565.87 1562.32,677.73 2440.14,577.05 81.39,-9.33 161.85,-20.37 241.06,-32.91 -634.17,-266.81 -1323.1,-719.08 -1959.93,-1321.25zm-21620.97 16790.27l2.28 2c3.38,3.04 6.67,6.14 9.93,9.28l5.19 4.34 -0.36 0.39 0.98 0.99c606.39,565.05 1561.79,676.73 2439.12,576.11 81.38,-9.33 161.84,-20.37 241.06,-32.91 -634.18,-266.81 -1323.11,-719.08 -1959.94,-1321.25 -638.12,-603.4 -1128.79,-1266.59 -1430.51,-1884.8 -8.08,79.58 -14.59,160.29 -19.35,241.82 -51.48,882.55 113.36,1831 711.6,2404.03zm2980.69 -3132.51c-662.52,-626.46 -1372.18,-1065.7 -1983.91,-1269.36 -519.2,-172.86 -938.73,-175.77 -1135.43,32.24 -197.52,208.89 -171.71,627.7 29.69,1135.94 237.8,600.08 715.64,1284 1377.09,1909.46 662.53,626.48 1372.2,1065.71 1983.91,1269.37 519.22,172.86 938.74,175.78 1135.43,-32.24 197.53,-208.89 171.71,-627.72 -29.7,-1135.95 -237.8,-600.08 -715.62,-1283.99 -1377.08,-1909.46zm1897.05 -26404.2c-662.52,-626.46 -1372.18,-1065.7 -1983.91,-1269.36 -519.2,-172.85 -938.73,-175.77 -1135.42,32.24 -197.53,208.89 -171.72,627.7 29.68,1135.94 237.81,600.08 715.64,1284 1377.09,1909.47 662.54,626.47 1372.2,1065.7 1983.91,1269.36 519.22,172.86 938.74,175.78 1135.43,-32.24 197.53,-208.89 171.71,-627.71 -29.69,-1135.95 -237.81,-600.07 -715.63,-1283.99 -1377.09,-1909.46zm-2242.42 2371.46c-638.13,-603.4 -1128.8,-1266.59 -1430.52,-1884.79 -8.08,79.57 -14.59,160.28 -19.35,241.81 -51.72,886.66 114.84,1839.9 719.93,2412.07l9.07 7.58 -0.4 0.45c606.33,565.87 1562.32,677.72 2440.14,577.05 81.39,-9.33 161.84,-20.38 241.06,-32.92 -634.18,-266.81 -1323.1,-719.08 -1959.93,-1321.25zm-11788.81 1735.71l0.49 0.5 -9.18 7.68c-661.44,625.46 -1139.27,1309.35 -1377.06,1909.43 -201.4,508.23 -227.22,927.04 -29.69,1135.93 196.69,208.01 616.19,205.1 1135.41,32.24 611.72,-203.64 1321.36,-642.86 1983.88,-1269.34 661.49,-625.49 1139.34,-1309.4 1377.13,-1909.48 198.23,-500.23 226.37,-913.82 38.88,-1125.91l-1.23 -1.34 -0.37 0.38 -7.59 -9.09c-196.69,-208 -616.18,-205.09 -1135.39,-32.25 -609.06,202.77 -1315.21,639.11 -1975.28,1261.25zm3666.11 491.06c-301.55,619.28 -792.93,1283.91 -1432.34,1888.52 -636.86,602.21 -1325.77,1054.46 -1959.93,1321.26 79.22,12.54 159.67,23.59 241.05,32.92 877.82,100.67 1833.82,-11.17 2440.15,-577.05l-0.43 -0.43 9.09 -7.59c501.6,-474.3 701.84,-1211.56 726.49,-1953.64 7.93,-238.75 -1.4,-475.95 -24.08,-703.99zm-22084.73 -4936.87c2983.4,2828.31 4337.39,6448.9 5395.62,9279.5 741.94,1984.55 1331.41,3561.26 2183.97,4071.43 508.02,304 993.39,579.61 1449.12,838.38 2762.9,1568.84 4471.94,2539.29 5433.38,6416.19l88.44 356.9c966.75,3902.81 2054.37,8293.52 3962.66,11089.74 4039.56,5919.15 4125.44,10295.78 4237.05,15985.78l5.88 298.51c6.37,321.4 119.01,584.87 352.85,761.18 247.65,186.74 633.19,295.28 1174.15,300.51 119.11,1.14 240.5,-1.4 363.64,-8.08 424.39,-23.01 792.65,-96.8 1043.79,-242.2 189.69,-109.82 305.7,-270.69 307.88,-497.04 0.12,-13.09 -0.48,-31.95 -1.82,-56.61 -160.39,-2957.89 -726.47,-5776.99 -1758.55,-8598.4 -1033.65,-2825.74 -2536.6,-5657.15 -4569.29,-8635.64 -1986.42,-2910.7 -3092,-7373.9 -4074.69,-11341.1l-88.43 -356.85c-881.27,-3553.63 -2479.79,-4461.33 -5064.02,-5928.71 -455.22,-258.48 -940.06,-533.79 -1464.23,-847.46 -1086.08,-649.91 -1885.96,-2266.36 -2893.25,-4301.97 -1302.83,-2632.88 -2966.78,-5995.28 -5963.69,-8690 -29.9,28.09 -60.59,55.55 -92.11,82.33l-0.24 0.2c-9.31,7.91 -18.7,15.66 -28.11,23.41zm-1156.25 -4758.15c-580.7,159.53 -1264.83,534.24 -1914.74,1086.28l-1.36 1.16c-648.26,550.95 -1127.8,1164.73 -1379.08,1711.82 -210.63,458.59 -256.83,841.25 -88.65,1039.27 167.65,197.36 552.48,213.36 1039.09,79.68 580.67,-159.53 1264.79,-534.22 1914.66,-1086.24 1.19,-1.05 12,-10.93 12.31,-10.51 642.74,-548.55 1118.35,-1158.51 1368.22,-1702.52 207.35,-451.42 255.34,-829.29 96.37,-1029.86l-7.74 -9.44c-167.63,-197.34 -552.45,-213.33 -1039.08,-79.64zm1470.54 1790.37c-316.53,546.19 -796.51,1118.51 -1400.96,1631.95l-12.2 10.67 -0.17 -0.23c-599.53,507.04 -1236.25,883.92 -1822.04,1106.43 47.09,9.28 94.61,18.03 142.54,26.13 816.36,138 1716.28,80.79 2307.02,-420.95l0.08 -0.07c487.85,-414.39 709.95,-1090.4 769.78,-1780.52 16.76,-193.28 21.35,-386.01 15.95,-573.41zm14323.63 2134.9c-294.35,-556.22 -830.97,-1160.79 -1543.45,-1716.02 -174.02,-135.61 -410.91,-295.56 -691.03,-463.18 -714.81,-427.73 -1687.02,-890.11 -2581.91,-1105.43 -801.07,-192.76 -1522.97,-189.59 -1857.27,239.37 -19.96,25.61 -39.45,54.23 -58.4,85.88l-1.19 2.01c-16.96,28.58 -33.29,61.15 -48.95,97.4 -214.05,495.51 120.45,1127.5 665.44,1738.33 611.2,685.05 1474.15,1321.15 2196.18,1753.2 301.38,180.34 578.86,324.72 802.26,421.22 815.68,352.36 1587.32,530.32 2202.12,521.92 508.6,-6.97 889.94,-138.51 1057.76,-402.1l8.49 -13.72c165.66,-276.83 98.2,-689.75 -150.05,-1158.88zm-1467.43 2316.43c-598.4,-69.26 -1269.32,-255.18 -1956.69,-552.12 -245.85,-106.2 -554.56,-267.09 -893.1,-469.66 -778.37,-465.76 -1711.44,-1154.63 -2377.85,-1901.56 -125.16,-140.28 -241.33,-283.07 -346.16,-427.57 35.52,421.33 121.07,859.06 252.84,1283.7 302.11,973.63 842.12,1861.99 1569.63,2297.32 130.95,78.36 270.51,142.2 418.47,189.14 803.45,254.85 1743.47,141.94 2595.52,-133.92 257.2,-83.28 504.91,-180.19 737.34,-285.33z"/></g><text x="0" y="60015" fill="#000000" font-size="5px" font-weight="bold" font-family="'Helvetica Neue', Helvetica, Arial-Unicode, Arial, Sans-serif">Created by Olena Panasovska</text><text x="0" y="60020" fill="#000000" font-size="5px" font-weight="bold" font-family="'Helvetica Neue', Helvetica, Arial-Unicode, Arial, Sans-serif">from the Noun Project</text></svg>