<svg xmlns="http://www.w3.org/2000/svg" xmlns:xlink="http://www.w3.org/1999/xlink" version="1.1" x="0px" y="0px" viewBox="0 0 100 125" style="enable-background:new 0 0 100 100;" xml:space="preserve"><path d="M11,88.197c-0.553,0-1,0.447-1,1s0.447,1,1,1h78c0.553,0,1-0.447,1-1s-0.447-1-1-1h-8.419v-2.332  c0.247,0.016,0.531,0.029,0.85,0.029c1.628,0,4.03-0.309,5.617-1.896c2.541-2.542,1.805-7.173,1.772-7.369  c-0.07-0.422-0.4-0.752-0.822-0.822c-0.195-0.034-4.826-0.769-7.368,1.772c-0.018,0.018-0.031,0.038-0.049,0.055v-3.939  c0.281,0.022,0.627,0.041,1.021,0.041c1.628,0,4.031-0.309,5.618-1.896c2.541-2.54,1.805-7.172,1.772-7.368  c-0.07-0.422-0.4-0.752-0.822-0.822c-0.194-0.032-4.827-0.77-7.368,1.772c-0.08,0.08-0.148,0.168-0.222,0.252v-4.92  c1.021-0.841,3.538-3.211,3.538-6.137c0-3.594-3.795-6.349-3.956-6.464c-0.35-0.248-0.815-0.248-1.163,0  c-0.162,0.115-3.958,2.87-3.958,6.464c0,2.926,2.517,5.296,3.539,6.137v0.726c-2.562-2.423-7.069-1.712-7.262-1.679  c-0.422,0.07-0.752,0.4-0.822,0.822c-0.032,0.196-0.77,4.828,1.771,7.368c1.588,1.588,3.99,1.896,5.619,1.896  c0.252,0,0.484-0.008,0.693-0.019v3.937c-0.023-0.024-0.042-0.052-0.066-0.076c-2.541-2.541-7.174-1.807-7.369-1.772  c-0.422,0.07-0.752,0.4-0.822,0.822c-0.032,0.196-0.769,4.827,1.772,7.369c1.588,1.587,3.989,1.896,5.617,1.896  c0.326,0,0.617-0.013,0.868-0.03v6.182H61.02v-2.332c0.247,0.016,0.531,0.029,0.85,0.029c1.628,0,4.03-0.309,5.617-1.896  c2.542-2.541,1.805-7.173,1.772-7.369c-0.07-0.422-0.4-0.752-0.822-0.822c-0.195-0.034-4.827-0.769-7.368,1.772  c-0.018,0.018-0.031,0.038-0.049,0.055v-3.939c0.281,0.022,0.627,0.041,1.021,0.041c1.629,0,4.031-0.309,5.618-1.896  c2.542-2.54,1.805-7.172,1.772-7.368c-0.07-0.422-0.4-0.752-0.822-0.822c-0.194-0.032-4.827-0.77-7.368,1.772  c-0.08,0.08-0.148,0.168-0.222,0.252v-4.92c1.021-0.841,3.538-3.211,3.538-6.137c0-3.594-3.795-6.349-3.956-6.464  c-0.35-0.248-0.815-0.248-1.163,0c-0.162,0.115-3.958,2.87-3.958,6.464c0,2.926,2.517,5.296,3.539,6.137v0.726  c-2.56-2.423-7.07-1.712-7.262-1.679c-0.422,0.07-0.752,0.4-0.822,0.822c-0.032,0.196-0.77,4.828,1.772,7.368  c1.587,1.588,3.99,1.896,5.618,1.896c0.252,0,0.484-0.008,0.693-0.019v3.937c-0.023-0.024-0.042-0.052-0.066-0.076  c-2.541-2.541-7.173-1.807-7.368-1.772c-0.422,0.07-0.752,0.4-0.822,0.822c-0.032,0.196-0.77,4.828,1.772,7.369  c1.587,1.587,3.989,1.896,5.617,1.896c0.326,0,0.616-0.013,0.867-0.03v6.182H41.458v-2.332c0.247,0.016,0.531,0.029,0.85,0.029  c1.628,0,4.031-0.309,5.618-1.896c2.541-2.542,1.804-7.173,1.771-7.369c-0.07-0.422-0.4-0.752-0.822-0.822  c-0.195-0.034-4.827-0.769-7.368,1.772c-0.018,0.018-0.031,0.038-0.049,0.056v-3.939c0.281,0.022,0.627,0.041,1.021,0.041  c1.629,0,4.031-0.309,5.619-1.896c2.541-2.54,1.804-7.172,1.771-7.368c-0.07-0.422-0.4-0.752-0.822-0.822  c-0.194-0.032-4.827-0.77-7.368,1.772c-0.08,0.08-0.148,0.168-0.222,0.252v-4.92c1.022-0.841,3.539-3.211,3.539-6.137  c0-3.594-3.796-6.349-3.958-6.464c-0.348-0.248-0.813-0.248-1.163,0c-0.161,0.115-3.956,2.87-3.956,6.464  c0,2.927,2.517,5.296,3.538,6.137v0.725c-2.56-2.423-7.069-1.712-7.262-1.679c-0.422,0.07-0.752,0.4-0.822,0.822  c-0.032,0.196-0.77,4.828,1.772,7.368c1.587,1.588,3.99,1.896,5.618,1.896c0.252,0,0.484-0.008,0.693-0.019v3.937  c-0.023-0.024-0.042-0.052-0.066-0.076c-2.542-2.541-7.173-1.807-7.368-1.772c-0.422,0.07-0.752,0.4-0.822,0.822  c-0.032,0.196-0.77,4.828,1.772,7.369c1.587,1.587,3.989,1.896,5.617,1.896c0.326,0,0.616-0.013,0.867-0.03v6.182H21.739v-2.332  c0.247,0.016,0.532,0.029,0.851,0.029c1.627,0,4.03-0.309,5.617-1.896c2.541-2.542,1.805-7.173,1.772-7.369  c-0.07-0.422-0.4-0.752-0.822-0.822c-0.194-0.034-4.827-0.769-7.369,1.772c-0.018,0.018-0.031,0.038-0.049,0.056v-3.939  c0.281,0.022,0.627,0.041,1.022,0.041c1.628,0,4.03-0.309,5.618-1.896c2.541-2.54,1.805-7.172,1.772-7.368  c-0.07-0.422-0.4-0.752-0.822-0.822c-0.194-0.032-4.827-0.77-7.369,1.772c-0.08,0.08-0.148,0.168-0.222,0.252v-4.92  c1.022-0.841,3.539-3.211,3.539-6.137c0-3.594-3.796-6.349-3.958-6.464c-0.348-0.248-0.813-0.248-1.163,0  c-0.161,0.115-3.956,2.87-3.956,6.464c0,2.927,2.517,5.296,3.538,6.137v0.724c-2.56-2.421-7.069-1.71-7.262-1.678  c-0.422,0.07-0.752,0.4-0.822,0.822c-0.032,0.196-0.769,4.828,1.772,7.368c1.588,1.588,3.99,1.896,5.618,1.896  c0.252,0,0.484-0.008,0.693-0.019v3.936c-0.023-0.024-0.042-0.051-0.065-0.074c-2.541-2.541-7.175-1.807-7.369-1.772  c-0.422,0.07-0.752,0.4-0.822,0.822c-0.032,0.196-0.769,4.827,1.772,7.369c1.587,1.587,3.989,1.896,5.617,1.896  c0.326,0,0.616-0.013,0.867-0.03v6.182H11z M82.044,78.993c1.318-1.318,3.684-1.363,4.884-1.288  c0.086,1.362-0.057,3.641-1.294,4.879c-1.32,1.32-3.688,1.36-4.884,1.287C80.664,82.509,80.806,80.231,82.044,78.993z   M82.217,66.836c1.317-1.317,3.68-1.368,4.878-1.288c0.075,1.202,0.028,3.562-1.288,4.878c-1.319,1.319-3.688,1.363-4.884,1.288  C80.837,70.352,80.979,68.074,82.217,66.836z M78.388,80.028c-1.36,0.088-3.641-0.056-4.878-1.293  c-1.318-1.319-1.363-3.684-1.288-4.885c1.365-0.087,3.641,0.057,4.879,1.294C78.419,76.464,78.463,78.828,78.388,80.028z   M77.042,54.617c0-1.866,1.641-3.569,2.543-4.365c1.023,0.903,2.534,2.614,2.534,4.365c0,1.862-1.635,3.562-2.538,4.36  C78.678,58.18,77.042,56.479,77.042,54.617z M78.562,67.871c-1.364,0.087-3.641-0.056-4.879-1.294  c-1.316-1.316-1.362-3.676-1.287-4.878c1.203-0.079,3.562-0.028,4.878,1.288c1.124,1.125,1.32,3.005,1.308,4.28v0.123  C78.578,67.564,78.571,67.727,78.562,67.871z M62.482,78.993c1.317-1.318,3.684-1.363,4.884-1.288  c0.086,1.362-0.056,3.641-1.294,4.879c-1.32,1.32-3.688,1.36-4.884,1.287C61.103,82.509,61.244,80.231,62.482,78.993z   M62.655,66.836c1.319-1.318,3.688-1.361,4.884-1.288c0.086,1.362-0.056,3.64-1.294,4.878c-1.319,1.319-3.688,1.363-4.884,1.288  C61.275,70.352,61.417,68.074,62.655,66.836z M58.827,80.022c-1.202,0.08-3.561,0.029-4.878-1.287  c-1.317-1.317-1.363-3.677-1.288-4.879c1.203-0.073,3.562-0.028,4.878,1.288C58.855,76.462,58.902,78.82,58.827,80.022z   M57.48,54.617c0-1.866,1.641-3.569,2.543-4.365c1.023,0.903,2.534,2.614,2.534,4.365c0,1.862-1.635,3.562-2.538,4.36  C59.116,58.18,57.48,56.479,57.48,54.617z M59,67.871c-1.361,0.089-3.641-0.056-4.878-1.294c-1.319-1.319-1.363-3.684-1.288-4.884  c1.364-0.086,3.641,0.056,4.878,1.294c1.124,1.125,1.32,3.005,1.308,4.28v0.123C59.016,67.564,59.009,67.727,59,67.871z   M42.921,78.993c1.318-1.318,3.683-1.363,4.884-1.288c0.086,1.362-0.056,3.641-1.293,4.879c-1.317,1.316-3.675,1.368-4.879,1.287  C41.558,82.669,41.604,80.31,42.921,78.993z M43.094,66.836c1.317-1.317,3.681-1.368,4.878-1.288  c0.075,1.202,0.029,3.562-1.287,4.878c-1.317,1.317-3.68,1.37-4.879,1.288C41.73,70.512,41.777,68.152,43.094,66.836z   M39.266,80.022c-1.197,0.08-3.561,0.029-4.878-1.287c-1.317-1.317-1.363-3.677-1.288-4.879c1.202-0.073,3.562-0.028,4.878,1.288  C39.295,76.462,39.341,78.82,39.266,80.022z M37.92,54.617c0-1.863,1.635-3.563,2.538-4.361c0.903,0.798,2.539,2.498,2.539,4.361  c0,1.862-1.636,3.562-2.539,4.36C39.555,58.18,37.92,56.479,37.92,54.617z M39.438,67.871c-1.362,0.089-3.641-0.056-4.878-1.294  c-1.319-1.319-1.363-3.684-1.288-4.884c1.364-0.086,3.641,0.056,4.878,1.294c1.122,1.122,1.319,2.995,1.308,4.27v0.134  C39.454,67.565,39.448,67.727,39.438,67.871z M23.202,78.993c1.319-1.318,3.685-1.363,4.885-1.288  c0.086,1.362-0.057,3.641-1.294,4.879c-1.317,1.316-3.678,1.365-4.878,1.287C21.84,82.669,21.886,80.31,23.202,78.993z   M23.375,66.836c1.317-1.317,3.681-1.368,4.879-1.288c0.075,1.202,0.028,3.562-1.288,4.878s-3.679,1.367-4.878,1.288  C22.013,70.512,22.059,68.152,23.375,66.836z M19.547,80.022c-1.197,0.08-3.561,0.029-4.878-1.287  c-1.318-1.319-1.363-3.684-1.288-4.885c1.364-0.087,3.641,0.057,4.879,1.294C19.576,76.462,19.622,78.82,19.547,80.022z   M18.201,54.617c0-1.863,1.635-3.563,2.538-4.361c0.903,0.798,2.539,2.498,2.539,4.361c0,1.862-1.636,3.562-2.539,4.36  C19.836,58.18,18.201,56.479,18.201,54.617z M19.72,67.865c-1.202,0.079-3.562,0.028-4.878-1.288  c-1.318-1.319-1.363-3.684-1.288-4.884c1.363-0.085,3.641,0.056,4.879,1.294c1.125,1.125,1.32,3.007,1.307,4.283v0.113  C19.736,67.557,19.729,67.72,19.72,67.865z"/><path d="M42.198,27.276c0,4.365,3.552,7.917,7.918,7.917c4.365,0,7.917-3.552,7.917-7.917c0-4.366-3.552-7.918-7.917-7.918  C45.75,19.358,42.198,22.91,42.198,27.276z M50.116,21.358c3.263,0,5.917,2.655,5.917,5.918s-2.654,5.917-5.917,5.917  s-5.918-2.654-5.918-5.917S46.854,21.358,50.116,21.358z"/><path d="M51.116,15.014v-4.26c0-0.553-0.447-1-1-1s-1,0.447-1,1v4.26c0,0.553,0.447,1,1,1S51.116,15.566,51.116,15.014z"/><path d="M58.792,12.053c-0.48-0.273-1.092-0.105-1.364,0.374l-2.109,3.701c-0.273,0.479-0.105,1.091,0.374,1.364  c0.156,0.089,0.326,0.131,0.494,0.131c0.348,0,0.686-0.182,0.87-0.505l2.109-3.701C59.439,12.938,59.271,12.326,58.792,12.053z"/><path d="M63.821,17.996l-3.665,2.171c-0.475,0.281-0.632,0.895-0.351,1.37c0.187,0.315,0.52,0.49,0.861,0.49  c0.173,0,0.349-0.045,0.509-0.14l3.665-2.171c0.475-0.281,0.632-0.895,0.351-1.37C64.911,17.872,64.299,17.715,63.821,17.996z"/><path d="M67.636,26.984c-0.01-0.547-0.455-0.983-1-0.983c-0.005,0-0.011,0-0.017,0l-4.26,0.071c-0.553,0.01-0.992,0.465-0.983,1.017  c0.01,0.547,0.455,0.983,1,0.983c0.005,0,0.011,0,0.017,0l4.26-0.071C67.205,27.991,67.645,27.536,67.636,26.984z"/><path d="M61.349,32.293c-0.485-0.267-1.093-0.088-1.357,0.396c-0.266,0.484-0.088,1.092,0.396,1.357l3.736,2.047  c0.152,0.084,0.317,0.123,0.479,0.123c0.354,0,0.696-0.188,0.878-0.52c0.266-0.484,0.088-1.092-0.396-1.357L61.349,32.293z"/><path d="M57.391,37.197c-0.289-0.472-0.906-0.619-1.375-0.328c-0.471,0.289-0.618,0.905-0.328,1.375l2.231,3.629  c0.188,0.308,0.517,0.477,0.853,0.477c0.179,0,0.359-0.048,0.522-0.148c0.471-0.289,0.618-0.905,0.328-1.375L57.391,37.197z"/><path d="M50.491,38.532c-0.552,0.018-0.984,0.48-0.966,1.032l0.142,4.258c0.018,0.541,0.462,0.967,0.998,0.967  c0.012,0,0.022,0,0.034-0.001c0.552-0.018,0.984-0.48,0.966-1.032l-0.142-4.258C51.506,38.945,51.044,38.51,50.491,38.532z"/><path d="M43.518,37.659l-1.985,3.77c-0.258,0.488-0.07,1.093,0.419,1.351c0.148,0.078,0.308,0.115,0.465,0.115  c0.359,0,0.707-0.194,0.886-0.534l1.985-3.77c0.258-0.488,0.07-1.093-0.419-1.351C44.381,36.984,43.774,37.171,43.518,37.659z"/><path d="M39.241,33.029l-3.591,2.292c-0.466,0.297-0.602,0.915-0.305,1.381c0.19,0.299,0.514,0.462,0.844,0.462  c0.184,0,0.37-0.051,0.537-0.157l3.591-2.292c0.466-0.297,0.602-0.915,0.305-1.381C40.326,32.868,39.707,32.73,39.241,33.029z"/><path d="M32.615,28.151c0.027,0.535,0.469,0.95,0.998,0.95c0.017,0,0.034,0,0.051-0.001l4.255-0.213  c0.552-0.028,0.977-0.497,0.949-1.049c-0.028-0.553-0.522-0.99-1.049-0.949l-4.255,0.213C33.013,27.131,32.588,27.6,32.615,28.151z"/><path d="M39.624,20.852l-3.802-1.922c-0.492-0.249-1.095-0.051-1.344,0.441c-0.249,0.493-0.052,1.095,0.441,1.344l3.802,1.922  c0.145,0.073,0.299,0.107,0.45,0.107c0.365,0,0.718-0.2,0.894-0.549C40.314,21.702,40.117,21.101,39.624,20.852z"/><path d="M41.831,12.947c-0.305-0.462-0.926-0.587-1.386-0.282c-0.461,0.305-0.587,0.926-0.282,1.386l2.352,3.552  c0.192,0.291,0.511,0.448,0.835,0.448c0.189,0,0.381-0.054,0.551-0.166c0.461-0.305,0.587-0.926,0.282-1.386L41.831,12.947z"/><text x="0" y="115" fill="#000000" font-size="5px" font-weight="bold" font-family="'Helvetica Neue', Helvetica, Arial-Unicode, Arial, Sans-serif">Created by Made</text><text x="0" y="120" fill="#000000" font-size="5px" font-weight="bold" font-family="'Helvetica Neue', Helvetica, Arial-Unicode, Arial, Sans-serif">from the Noun Project</text></svg>