<svg xmlns="http://www.w3.org/2000/svg" xmlns:xlink="http://www.w3.org/1999/xlink" version="1.1" x="0px" y="0px" viewBox="0 0 100 125" style="enable-background:new 0 0 100 100;" xml:space="preserve"><path d="M74.2,62.2H62.8c3.8-3.5,6.2-8.5,6.2-14c0-9.4-7.5-36.8-19-36.8c-11.5,0-19,27.3-19,36.8c0,5.5,2.4,10.5,6.2,14H25.8  c-4.6,0-8,5.4-8,12.5s3.4,12.5,8,12.5h48.5c4.6,0,8-5.4,8-12.5S78.8,62.2,74.2,62.2z M50,62.2c-3,0-5.4-2.4-5.4-5.4  c0-4.6,3.5-13.6,5.4-13.9c1.9,0.3,5.4,9.3,5.4,13.9C55.4,59.8,53,62.2,50,62.2z M36,48.3c0-10.2,7.8-31.8,14-31.8S64,38,64,48.3  c0,3.6-1.4,6.9-3.6,9.4c0-0.3,0-0.5,0-0.8c0-3.7-3.3-18.9-10.4-18.9S39.6,53.1,39.6,56.8c0,0.3,0,0.5,0,0.8  C37.4,55.1,36,51.9,36,48.3z M25.8,67.2c1.1,0,3,2.8,3,7.5s-1.9,7.5-3,7.5s-3-2.8-3-7.5S24.7,67.2,25.8,67.2z M74.2,82.2h-42  c0.3-0.7,0.6-1.4,0.8-2.2h8.8c1.4,0,2.5-1.1,2.5-2.5S43.2,75,41.8,75h-8.1c0-0.1,0-0.2,0-0.2c0-2.9-0.6-5.4-1.5-7.5H50c0,0,0,0,0,0  s0,0,0,0h24.2c1.1,0,3,2.8,3,7.5c0,0.1,0,0.2,0,0.2H68c-1.4,0-2.5,1.1-2.5,2.5S66.6,80,68,80h8.3C75.6,81.4,74.8,82.2,74.2,82.2z"/><path d="M57.5,69h-4.8c-1.4,0-2.5,1.1-2.5,2.5s1.1,2.5,2.5,2.5h4.8c1.4,0,2.5-1.1,2.5-2.5S58.9,69,57.5,69z"/><text x="0" y="115" fill="#000000" font-size="5px" font-weight="bold" font-family="'Helvetica Neue', Helvetica, Arial-Unicode, Arial, Sans-serif">Created by Niklas Berlec</text><text x="0" y="120" fill="#000000" font-size="5px" font-weight="bold" font-family="'Helvetica Neue', Helvetica, Arial-Unicode, Arial, Sans-serif">from the Noun Project</text></svg>