<svg xmlns="http://www.w3.org/2000/svg" xmlns:xlink="http://www.w3.org/1999/xlink" xmlns:serif="http://www.serif.com/" viewBox="0 0 64 80" version="1.1" xml:space="preserve" style="" x="0px" y="0px" fill-rule="evenodd" clip-rule="evenodd" stroke-linejoin="round" stroke-miterlimit="2"><path d="M26.911,34.267L53.254,7.272L55.042,8L55.042,39.142C56.208,39.567 57.042,40.687 57.042,42C57.042,43.313 56.208,44.433 55.042,44.858L55.042,51.042L52,51.042C49.746,50.916 48.934,48.828 48.958,46L51.042,46C51.042,46 50.894,48.975 52.958,49L52.958,44.858C51.792,44.433 50.958,43.313 50.958,42C50.958,40.687 51.792,39.567 52.958,39.142L52.958,10.559L48.64,14.983L50.284,16.627L48.811,18.101L47.185,16.475L45.846,17.846L47.456,19.456L45.983,20.929L44.391,19.338L43.053,20.709L44.627,22.284L43.154,23.757L41.597,22.2L40.259,23.572L41.799,25.113L40.326,26.586L38.803,25.063L37.465,26.435L38.971,27.941L37.497,29.414L36.01,27.926L34.671,29.298L36.142,30.77L34.669,32.243L33.216,30.789L31.877,32.161L33.314,33.598L31.841,35.071L30.422,33.652L28.385,35.74L29.808,37.163L29.101,37.87L31.554,40.323C33.204,40.237 34.883,40.824 36.142,42.083C38.5,44.441 38.5,48.27 36.142,50.627C33.784,52.985 29.956,52.985 27.598,50.627C26.339,49.368 25.752,47.689 25.838,46.039L23.385,43.586L22.029,44.941L23.444,46.355L10.657,59.142L3.527,52.012L16.314,39.225L17.728,40.64L25.506,32.861L26.911,34.267ZM16.314,42.172L6.473,52.012L10.657,56.196L20.497,46.355L16.314,42.172ZM29.071,43.556C27.526,45.101 27.526,47.61 29.071,49.154C30.616,50.699 33.124,50.699 34.669,49.154C36.214,47.61 36.214,45.101 34.669,43.556C33.124,42.012 30.616,42.012 29.071,43.556ZM27.627,39.343L24.858,42.113L26.213,43.468L28.983,40.698L27.627,39.343ZM19.201,42.113L20.556,43.468L26.861,37.163L25.506,35.808L19.201,42.113ZM54,41.042C54.529,41.042 54.958,41.471 54.958,42C54.958,42.529 54.529,42.958 54,42.958C53.471,42.958 53.042,42.529 53.042,42C53.042,41.471 53.471,41.042 54,41.042Z"/><text x="0" y="79" fill="#000000" font-size="5px" font-weight="bold" font-family="'Helvetica Neue', Helvetica, Arial-Unicode, Arial, Sans-serif">Created by Diky Setiawan</text><text x="0" y="84" fill="#000000" font-size="5px" font-weight="bold" font-family="'Helvetica Neue', Helvetica, Arial-Unicode, Arial, Sans-serif">from the Noun Project</text></svg>