<?xml version="1.0" encoding="utf-8"?>
<!-- Generator: Adobe Illustrator 25.0.0, SVG Export Plug-In . SVG Version: 6.00 Build 0)  -->
<svg version="1.1"
	 id="svg2" inkscape:version="0.48+devel r9935" sodipodi:docname="Documento nuevo 1" xmlns:cc="http://creativecommons.org/ns#" xmlns:dc="http://purl.org/dc/elements/1.1/" xmlns:inkscape="http://www.inkscape.org/namespaces/inkscape" xmlns:ns1="http://sozi.baierouge.fr" xmlns:rdf="http://www.w3.org/1999/02/22-rdf-syntax-ns#" xmlns:sodipodi="http://sodipodi.sourceforge.net/DTD/sodipodi-0.dtd" xmlns:svg="http://www.w3.org/2000/svg"
	 xmlns="http://www.w3.org/2000/svg" xmlns:xlink="http://www.w3.org/1999/xlink" x="0px" y="0px" viewBox="0 0 163.6 96"
	 style="enable-background:new 0 0 163.6 96;" xml:space="preserve">
<style type="text/css">
	.st0{fill:url(#SVGID_1_);}
	.st1{opacity:0.29;fill:#B37440;}
	.st2{opacity:0.29;fill:#7D3F0F;}
	.st3{opacity:0.18;fill:#FFCC80;}
	.st4{opacity:0.29;fill:#80532E;}
	.st5{fill:url(#SVGID_2_);}
	.st6{fill:url(#SVGID_3_);}
	.st7{opacity:0.21;fill:#AD714D;}
	.st8{fill:url(#SVGID_4_);}
	.st9{fill:url(#SVGID_5_);}
	.st10{opacity:0.28;fill:#C48D5E;}
	.st11{opacity:0.14;fill:#FFCC80;}
	.st12{opacity:0.31;fill:#DBA658;}
	.st13{opacity:0.31;fill:#C76718;}
	.st14{fill:url(#SVGID_6_);}
	.st15{opacity:0.3;fill:#CDCDCF;}
	.st16{fill:#FFFFFF;}
	.st17{opacity:0.23;fill:#C6C9CF;}
	.st18{opacity:9.000000e-02;fill:#FFC14C;}
</style>
<sodipodi:namedview  bordercolor="#666666" borderopacity="1.0" id="base" inkscape:current-layer="layer1" inkscape:cx="273.52498" inkscape:cy="614.84559" inkscape:document-units="px" inkscape:pageopacity="0.0" inkscape:pageshadow="2" inkscape:window-height="787" inkscape:window-maximized="0" inkscape:window-width="1440" inkscape:window-x="0" inkscape:window-y="0" inkscape:zoom="0.42014768" pagecolor="#ffffff" showgrid="false">
	</sodipodi:namedview>
<g>
	<linearGradient id="SVGID_1_" gradientUnits="userSpaceOnUse" x1="132.8708" y1="8.8227" x2="157.4254" y2="29.4265">
		<stop  offset="0" style="stop-color:#D2A16A"/>
		<stop  offset="0.8305" style="stop-color:#AA652B"/>
		<stop  offset="1" style="stop-color:#A1581E"/>
	</linearGradient>
	<path class="st0" d="M125.9,18.2c3-2.6,2.6-3.9,5.6-7.8c3-3.9,11.5-11,18.4-10.4c6.9,0.6,15.3,13,13.4,21
		c-1.9,8-15.8,11.2-18.4,12.3c-2.6,1.1-9.5-1.7-12.7-0.6C129,33.8,125.9,18.2,125.9,18.2z"/>
	<path class="st1" d="M153.3,1.2c3.2,5,3.6,11.4,2.1,13.9c-2.3,3.8-17.7,10.4-22.7,9.4l-2.7,6.4c0.7,1.3,1.5,2,2.3,1.8
		c3.2-1.1,10.2,1.7,12.7,0.6c2.6-1.1,16.4-4.3,18.4-12.3C165,14.3,159.2,4.5,153.3,1.2z"/>
	<path class="st2" d="M150.2,31.5c-2.6-15.8-11-21.7-16.1-23.9c-1.1,1-1.9,2-2.6,2.8c-3,3.9-2.6,5.2-5.6,7.8c0,0,3,15.6,6.3,14.5
		c3.2-1.1,10.2,1.7,12.7,0.6C145.8,33,147.8,32.4,150.2,31.5z"/>
	<path class="st2" d="M144.9,33.3c0.1,0,0.2-0.1,0.4-0.1c-0.5-5.8-1.6-9.5-5.4-15.6c-2.5-4-4.9-6.5-7.5-8.2c-0.3,0.4-0.6,0.7-0.9,1
		c-3,3.9-2.6,5.2-5.6,7.8c0,0,3,15.6,6.3,14.5C135.4,31.6,142.4,34.4,144.9,33.3z"/>
	<path class="st3" d="M146.6,1.9c-4.7,0.3-9.2,5.1-5.8,6.7c4.6,2.1,5.4,6.5,9.2,4.6C153.7,11.3,155.2,1.3,146.6,1.9z"/>
	<path class="st4" d="M154.3,25.5c-6.3,2.9-12.3,5-17.5,5l-1.6,1.9c3.4,0.3,7.8,1.7,9.8,0.9c2.6-1.1,16.4-4.3,18.4-12.3
		c1-4-0.6-9-3.3-13.1C161.6,15.2,159.4,23.1,154.3,25.5z"/>
	<linearGradient id="SVGID_2_" gradientUnits="userSpaceOnUse" x1="112.7833" y1="54.8155" x2="91.2876" y2="17.25">
		<stop  offset="0" style="stop-color:#AE7342"/>
		<stop  offset="1" style="stop-color:#7D3F1B"/>
	</linearGradient>
	<path class="st5" d="M104.2,16.4c6.1,1.3,13.5,7.6,11.2,16.4C113.8,39,109.2,47,98.2,55c-5.3-1.9-7.9-5.1-10.5-10.7
		c-3.5-7.3-4.1-17.9,0.7-24.4c0.7-0.9,1.4-1.8,2.2-2.5C95,15.9,99.6,15.4,104.2,16.4z"/>
	<linearGradient id="SVGID_3_" gradientUnits="userSpaceOnUse" x1="47.5346" y1="36.007" x2="127.2563" y2="67.9375">
		<stop  offset="0" style="stop-color:#BE8957"/>
		<stop  offset="1" style="stop-color:#8D4214"/>
	</linearGradient>
	<path class="st6" d="M87.7,44.3c2.6,5.6,5.2,8.8,10.5,10.7c-2.5,1.8-5.2,3.6-8.4,5.4c-17.2,9.8-27,15.2-38,12.8
		c-11.8-2.5-10.5-10.9-7.4-17c3.3-6.6,15.9-19.2,25.8-26.8c6.1-4.7,13-9.6,20.3-12c-0.8,0.8-1.5,1.6-2.2,2.5
		C83.6,26.4,84.2,37,87.7,44.3z"/>
	<path class="st7" d="M115.7,27.9c-0.9-6.2-6.6-10.4-11.5-11.5c-4.7-1-9.3-0.5-13.7,1c-7.3,2.4-14.2,7.3-20.3,12
		C63.3,34.8,55.1,42.5,49.6,49L55,63.7l15.4-11.9c6.3-8.3,11.3-15,14.6-17.7C91.6,28.6,102.6,24.7,115.7,27.9z"/>
	<linearGradient id="SVGID_4_" gradientUnits="userSpaceOnUse" x1="48.6063" y1="33.3314" x2="128.3282" y2="65.2619">
		<stop  offset="0" style="stop-color:#F2CF9D"/>
		<stop  offset="1" style="stop-color:#BD7E3C"/>
	</linearGradient>
	<path class="st8" d="M106.3,13c-2.6-0.7-5.1-1-7.7-0.8c-2.8,0.1-5.5,0.7-8.2,1.6c-7.6,2.6-14.8,7.8-21.3,12.8
		c-10.8,8.4-24.6,22.5-28.3,30c-3.4,7-4.9,16.6,8,20.1c4.5,1.2,8.9,1.2,13.7,0c7.6-1.9,16.2-6.6,27.8-13.2c4.4-2.5,8.2-5,11.4-7.6
		c10.5-8.3,15-16.7,16.7-23.3C121,22.5,112.9,14.8,106.3,13z M51.9,73.2c-11.8-2.5-10.5-10.9-7.4-17c3.3-6.6,15.9-19.2,25.8-26.8
		c6.1-4.7,13-9.6,20.3-12c4.4-1.5,9-2,13.7-1c6.1,1.3,12.6,7,10.3,15.8c-1.6,6.2-5.3,14.8-16.3,22.8c-2.5,1.8-5.2,3.6-8.4,5.4
		C72.6,70.2,62.8,75.6,51.9,73.2z"/>
	<linearGradient id="SVGID_5_" gradientUnits="userSpaceOnUse" x1="54.8043" y1="18.6037" x2="127.6755" y2="60.676">
		<stop  offset="0.3883" style="stop-color:#D2A16A"/>
		<stop  offset="0.5439" style="stop-color:#C9935B"/>
		<stop  offset="0.8397" style="stop-color:#B06E35"/>
		<stop  offset="1" style="stop-color:#A1581E"/>
	</linearGradient>
	<path class="st9" d="M132.8,11.7C127.4,4.8,119,3.5,119,3.5s-5.4,1.1-15.3,4.5c-6.1,2.1-10.4,4-13.3,5.8c2.7-0.9,5.5-1.5,8.2-1.6
		c2.5-0.1,5.1,0.1,7.7,0.8c6.6,1.8,14.7,9.5,12.1,19.7c-1.7,6.6-6.2,15-16.7,23.3c-3.2,2.6-7,5.1-11.4,7.6
		c-11.6,6.5-20.2,11.3-27.8,13.2c0,0,0.1,0,0.2,0c1.8,0.1,20.9-6.3,38.9-13.6c17.3-7.1,33.6-15.1,33.9-15.6
		c0.7-0.9,4.3-9.9,4.5-13.8C140.2,29.9,138.3,18.6,132.8,11.7z"/>
	<path class="st1" d="M115.8,39.5c-2.6,5.2-7,10.8-14.1,16.5c-3.2,2.6-7,5.1-11.4,7.6c-9,5.1-16.2,9-22.5,11.5l0.2,0.4
		c7.3-2.2,20.7-7,33.6-12.3c17.3-7.1,33.6-15.1,33.9-15.6c0.7-0.9,4.3-9.9,4.5-13.8c0.2-3.1-1-10.6-4.1-17.1
		C134.7,26.7,124.6,34.2,115.8,39.5z"/>
	<path class="st10" d="M83,42.5c-2.8-0.9-2.8-5-4.3-8.4c-1.5-3.4-4-2.5-7.4-3.4c-1-0.3-1.8-0.8-2.4-1.6c-0.1,0.1-0.3,0.3-0.4,0.4
		C62.8,34.7,56.2,42,51.4,48.6c0.2,2.4,0.4,4,0.5,4.1c0.2,0.6,21.6,11.9,27.5,15.1c2.1-1.4,4.4-2.9,6.8-4.6c1.8-1.2,3.4-2.4,5-3.7
		c-0.1-0.8-0.1-2.2,0.3-4.1c0.8-3.2-0.2-4.8-1.3-8.6C89,42.9,85.8,43.4,83,42.5z"/>
	<path class="st11" d="M98.6,12.2c2.5-0.1,5.1,0.1,7.7,0.8c3.1,0.9,9.2,4,12.4,12.7c6.1-2.9,11.7-10.2,12.1-16.3
		C125.5,4.5,119,3.5,119,3.5s-5.4,1.1-15.3,4.5c-6.1,2.1-10.4,4-13.3,5.8C93.1,12.9,95.8,12.3,98.6,12.2z"/>
	<path class="st12" d="M118.9,28.6c-0.1-8.1-6.9-14.1-12.6-15.6c-2.6-0.7-5.1-1-7.7-0.8c-2.8,0.1-5.5,0.7-8.2,1.6
		c-5.3,1.8-10.4,4.9-15.2,8.2c0.6,0.7,1.3,1.5,2.1,2.2c4.2-2.8,8.6-5.4,13.2-6.9c4.4-1.5,9-2,13.7-1c6,1.3,12.4,6.8,10.3,15.4
		C116.2,30.8,117.6,29.7,118.9,28.6z"/>
	<path class="st4" d="M125.7,46.2c-4.1,2.1-16.9,8-28.3,12.9c-2.2,1.5-4.5,3-7.1,4.4c-11,6.2-19.2,10.7-26.6,12.8
		c0,0.1,0.1,0.1,0.1,0.2c4.8-1.1,21.7-6.9,37.7-13.4c17.3-7.1,33.6-15.1,33.9-15.6c0.7-0.9,4.3-9.9,4.5-13.8
		c0.1-1.4-0.1-3.8-0.7-6.7C136.3,37.3,131.6,43.3,125.7,46.2z"/>
	<path class="st13" d="M96,60.1c-1.8,1.2-3.7,2.4-5.8,3.5c-9.6,5.4-17.1,9.6-23.8,11.9c-1.9-0.6-3.9-1.3-5.8-2
		c8-1.2,16.6-5.9,29.1-13.1c2.2-1.3,4.3-2.5,6.1-3.8C95.8,58.2,95.8,59.5,96,60.1z M40.8,56.7c0,0,0,0.1,0,0.1
		c0.7,1.1,1.5,2.1,2.3,3c0.4-1.2,0.9-2.4,1.4-3.5c3.3-6.6,15.9-19.2,25.8-26.8c0.5-0.3,0.9-0.7,1.4-1.1c-0.7-0.6-1.4-1.3-2.1-2.1
		c-0.1,0.1-0.3,0.2-0.4,0.3C58.3,35,44.5,49.1,40.8,56.7z"/>
	<linearGradient id="SVGID_6_" gradientUnits="userSpaceOnUse" x1="25.9637" y1="41.264" x2="89.4072" y2="94.2727">
		<stop  offset="0.1277" style="stop-color:#FAFBFF"/>
		<stop  offset="1" style="stop-color:#D5D6E3"/>
	</linearGradient>
	<path class="st14" d="M55.5,14.7c-2.8,2-7.3,5.2-8.6,7.1c-1.3,1.9-6.7,8.2-8.2,8.6c-1.5,0.4-6.7,0.9-8.6,2.6
		c-1.9,1.7-6.3,9.9-8,10.6c-1.7,0.6-6.1,3.9-6.3,5.8c-0.2,1.9-1.9,7.8-3.2,8.2C11.2,58.2,1,66.4,0.4,68.3c-0.6,1.9-0.6,5,1.3,5.8
		c1.9,0.9,7.1,3.9,8.9,5.6c1.7,1.7,5.4,7.6,7.8,7.3c2.4-0.2,5.2,0,7.6,1.3c2.4,1.3,5,5.4,7.3,5.4c2.4,0,11.7-1.5,13.4-0.2
		c1.7,1.3,7.1,3,9.9,2.2c2.8-0.9,6.1-1.5,8-0.9c1.9,0.6,3.5,1.3,6.1-1.1c2.6-2.4,11.7-9.9,19-10.4c7.3-0.4,18.4-1.9,22-2.4
		c3.7-0.4,11-1.5,11.9-5.6c0.9-4.1,1.9-6.1-1.9-6.3c-3.9-0.2-14.3-1.1-16.6-2.8c-2.4-1.7-6.7-4.8-9.3-2.6c-2.6,2.2-6.7,5-8.6,5.4
		c-1.9,0.4-4.5,1.1-4.8,0c-0.2-1.1,3.9-4.8,5.4-6.5c1.5-1.7,4.1-3.9,4.5-6.3c0.4-2.4-1.6-4.5-2.5-6.9c-0.9-2.4-2.1-5.6-3.8-5.6
		c-1.7,0-5.8-4.5-6.9-6.9c-1.1-2.4-6.5-5.4-8.9-6.1c-2.4-0.6-5.2-2.4-5.6-5.8c-0.4-3.5-1.1-5.8-3.5-7.8C58.7,15.4,57,13.7,55.5,14.7
		z"/>
	<path class="st15" d="M71,31.2c-0.3-0.1-0.6-0.2-0.8-0.3c-2.3-0.6-5-2.3-5.6-5.6c-0.4,0.6-0.8,1.1-1.3,1.5c-0.9,0.8-2,1.1-3.2,1.5
		c-3.6,1.2-7.1,2.4-10.8,3c-0.9,0.1-2.1,0.7-1.8,1.5c0.1,0.3,0.3,0.5,0.5,0.6c1.2,0.9,2.8,1.3,4.3,1.6c5.7,1.2,11.9,1.7,17-1.1
		c0.5-0.3,1-0.6,1.3-1.1c0.3-0.4,0.4-1,0.4-1.5C71,31.4,71,31.3,71,31.2z"/>
	<path class="st15" d="M80.5,55.8c3.4-2.1,6.4-5.1,7.7-8.9c0.2-0.6,0.4-1.2,0.5-1.9c-1.1-0.7-2.1-1.1-2.7-1.1c-1.2,0-3.4-2-5.1-4.1
		c-0.7,2-1.6,3.9-3.1,5.3c-1.1,1.1-2.5,1.8-3.7,2.7c-2.7,1.9-5,4.3-7.7,6c-6.2,3.9-14.8,3.9-20.8-0.4c-0.7-0.5-1.4-1.1-2.2-1.5
		c-1.7-0.9-3.6-1-5.5-1.1c-5.4-0.4-10.8-1.3-16-2.6c-1,1.7-0.3,3.9,1,5.3c1.4,1.4,3.2,2.1,5.1,2.8c2.4,0.9,4.9,1.8,7.4,2.5
		c2.6,0.7,5.2,1.1,7.8,1.7c2.6,0.7,5.2,1.6,7.9,2c6.1,1,12.4-0.6,18.3-2.4C73.3,59.1,77.1,57.8,80.5,55.8z"/>
	<path class="st15" d="M96.3,82.9c6.8-3.5,13.4-7.3,20-11.2c1.2-0.7,2.4-1.5,3.1-2.6c-4.7-0.4-12.4-1.2-14.5-2.7
		c-0.7-0.5-1.5-1.1-2.4-1.6c-0.2,0.1-0.5,0.2-0.7,0.3c-1.9,1.1-3.2,3.1-5,4.3c-1.7,1-3.6,1.2-5.6,1.5c-4.4,0.5-8.8,1-13.2,1.5
		c-0.8,0.1-1.6,0.2-2.3,0.5C75,73,74.4,73.5,73.8,74c-8.1,6.2-19,7.9-29,5.8c-2.3-0.5-4.6-1.1-6.9-0.5c-2.2,0.6-4.2,3-3.4,5.1
		c0.5,1.3,1.8,2.1,3.1,2.7c7.7,4,16.7,6.9,24.9,4.2c2.3-0.8,4.5-2,6.8-2.7c2.2-0.7,4.6-1.1,7-1.4c1.4-0.2,2.9-0.4,4.3-0.6
		c3-1.7,6.1-3,9.1-3.1C91.7,83.3,94,83.1,96.3,82.9z"/>
	<path class="st15" d="M115,77.3c-1.2,1-2.5,2-3.4,3.3c-0.1,0.2-0.2,0.3-0.3,0.5c0.1,0,0.2,0,0.3,0c3.7-0.4,11-1.5,11.9-5.6
		c0.9-4.1,1.9-6.1-1.9-6.3c-3.9-0.2-14.3-1.1-16.6-2.8c-2.4-1.7-6.7-4.8-9.3-2.6c-2.6,2.2-6.7,5-8.6,5.4c-1.9,0.4-4.5,1.1-4.8,0
		c-0.2-1.1,3.9-4.8,5.4-6.5c1.5-1.7,4.1-3.9,4.5-6.3c0.3-1.7-0.8-3.7-1-3.6c-3.2,3.5-4.6,6.3-8.3,9.3c-3.7,3-8.1,5.3-12.8,5.8
		c-0.7,0.1-1.4,0.1-1.9,0.6c-0.5,0.4-0.6,1.1-0.8,1.8c-0.7,2.2-2.2,3.9-3.8,5.5c-2.6,2.7-5.5,5.4-9.2,6c-0.8,0.1-1.8,0.3-2.2,1
		c-0.3,0.8,0.4,1.7,1.2,1.9c0.8,0.2,1.7-0.1,2.5-0.3c6.4-2,13.1-3.3,19.9-3.8c0.8-0.1,1.7-0.1,2.5-0.5c0.7-0.3,1.3-0.8,1.9-1.2
		c1.3-0.8,2.7-1.2,4.2-1.5c1.6-0.4,3.3-0.8,4.9-1.2c0.7-0.2,1.4-0.3,2.2-0.3c1.2,0.1,2.2,0.8,3.4,1c2.9,0.6,5.4-1.8,7.9-3.3
		c3.3-2.1,7.2-3,11-3.9c0.8-0.2,1.6-0.4,2.4-0.1c1.5,0.4,2.2,2.4,1.8,3.9C117.4,75.1,116.2,76.3,115,77.3z"/>
	<path class="st15" d="M73.8,54.7c3.2-2.4,6.6-4.6,10.1-6.5c1.7-0.9,3.5-1.9,4.7-3.2c-1-0.6-2-1.1-2.6-1.1c-1.7,0-5.8-4.5-6.9-6.9
		c-0.2-0.4-0.5-0.9-1-1.3c-0.5,2.7,0.9,5.9-0.8,8.2c-1.4,1.9-4.4,2-5.9,3.8c-1.3,1.5-1.3,3.8-2.2,5.7c-1,2-2.9,3.3-4.9,4.2
		c-2.4,1.1-5,2-7.7,1.7c-2.6-0.2-5.3-1.8-6.3-4.2c-0.4-1-0.6-2.1-1.5-2.7C48.2,52,47.4,52,46.6,52c-3,0.1-6,0.3-9.1,0.4
		c-1.1,0-2.6,0.5-2.5,1.6c0,0.4,0.3,0.7,0.5,0.9c1.5,1.6,4,1.9,6.1,2.4c5.7,1.5,10.7,5.6,16.6,5.5C64.2,62.8,69.1,58.3,73.8,54.7z"
		/>
	<path class="st15" d="M70.1,30.9c-2.4-0.7-5.1-2.4-5.5-5.8c-0.4-3.1-1-5.4-2.9-7.2c0.5,1.7,0.8,3.3,1.1,5.1c0.1,1,0.2,2,0,2.9
		c-0.2,0.9-0.9,1.8-1.8,2.1c-1.3,0.4-2.8-0.4-3.9,0.3c-0.6,0.3-0.9,1-1.3,1.5C55,30.7,54.1,31.5,53,32c0.6,0.9,1.8,1.2,2.9,1.2
		c1.1,0,2.2-0.3,3.2,0c1.2,0.3,2.3,1.1,3.4,0.9c0.9-0.2,1.5-0.9,2.3-1.4C66.5,31.8,68.7,32.1,70.1,30.9z"/>
	<path class="st16" d="M57.9,23.7c0.3-0.7,0.3-1.6,0.4-2.4c0-1.3,0.1-2.7-0.2-4c-0.3-1.1-0.8-2.2-1.6-3c-0.3,0-0.6,0.1-0.9,0.3
		c-2.7,1.9-7,5-8.5,6.9c0.8,0.5,1.9,0.2,2.8,0.5c1.5,0.5,2.3,2.3,3.7,3.1C55,26.1,57.2,25.3,57.9,23.7z"/>
	<path class="st16" d="M65,38.2c-2.6-0.2-5,1.7-7.7,1.8C55,40,53,38.8,51.1,37.7c-2.8-1.5-5.7-2.6-8.7-3.4c-2.5-0.6-5.1-1-7.1-2.5
		c-0.2-0.2-0.4-0.3-0.7-0.5c-1.7,0.4-3.6,0.9-4.5,1.8c-0.9,0.8-2.4,3.1-3.8,5.3c0.5,0.2,0.9,0.3,1.4,0.5c1.8,0.8,3.2,2.2,4.5,3.6
		c0.8,0.8,1.7,1.7,2.8,2.1c0.7,0.2,1.5,0.2,2.2,0.2c9.1,0,18.3,0,26.9-2.9c0.8-0.3,1.6-0.6,2.1-1.2c0.5-0.6,0.6-1.7-0.1-2.2
		C65.7,38.3,65.3,38.2,65,38.2z"/>
	<path class="st16" d="M55.8,72.3c-1.7-2.5-4.5-4-7.4-5c-2.9-0.9-5.9-1.4-8.8-2.1C36.7,64.4,34,63.3,31,63
		c-3.8-0.4-7.7,0.6-11.3-0.6c-2.8-0.9-4.9-2.9-7-4.9c-0.1,0.1-0.2,0.1-0.3,0.2c-0.8,0.3-5.1,3.6-8.3,6.5c2.2,1.1,4.2,2.6,5.9,4.4
		c2,2.2,3.6,4.8,6,6.5c2.7,1.9,6.3,2.3,9.3,1.2c2.8-1,5.1-3.2,7.8-4.2C40.4,69.5,48.6,74.7,55.8,72.3z"/>
	<path class="st17" d="M121.6,69.2c-3.9-0.2-14.3-1.1-16.6-2.8c-2.4-1.7-6.7-4.8-9.3-2.6c-2.6,2.2-6.7,5-8.6,5.4
		c-1.9,0.4-4.5,1.1-4.8,0c-0.2-1.1,3.9-4.8,5.4-6.5c1.5-1.7,4.1-3.9,4.5-6.3c0.4-2.4-1.6-4.5-2.5-6.9c-0.9-2.4-2.1-5.6-3.8-5.6
		c-1.7,0-5.8-4.5-6.9-6.9c-1.1-2.4-6.5-5.4-8.9-6.1c-2.4-0.6-5.2-2.4-5.6-5.8c-0.4-3.5-1.1-5.8-3.5-7.8c-0.5-0.4-1-0.8-1.5-1.2
		c0.9,1.9,1.2,4,0.8,6c-0.8,4.4-4.8,7.9-9.3,8.2c0.2,1.8,2.8,1.5,4.5,1.4c3.1-0.2,6,1.9,7.6,4.6c1.6,2.7,2,5.9,1.9,9
		c0,0.8-0.1,1.5-0.4,2.2c-0.9,1.6-3.1,1.9-4.6,2.9c-1.2,0.8-2,2-3,3.1c-4,4-10.3,4-16,3.8c4.6,1.7,9.4,2.5,14.2,2.6
		c3.6,0,7.7-0.1,9.9,2.7c2.2,2.6,1.4,6.6,0,9.7c-1,2.3-2.4,4.6-4.3,6.1c-1.9,1.5-4.3,2.3-6.6,3.1c-4.2,1.4-8.6,2.8-13,2.5
		c-2.7-0.2-5.4-1-8.2-1c-2.7-0.1-5.3,0.6-7.9,0.5c-4.7-0.1-9.3-2.3-12.2-6C11,74.8,8.7,71,5.4,71.6c-1,0.2-2,0.8-3,0.9
		c-0.8,0-1.5-0.3-2.3-0.7c0.2,1.1,0.7,2,1.6,2.4c1.9,0.9,7.1,3.9,8.9,5.6s5.4,7.6,7.8,7.3c2.4-0.2,5.2,0,7.6,1.3
		c2.4,1.3,5,5.4,7.3,5.4c2.4,0,11.7-1.5,13.4-0.2c1.7,1.3,7.1,3,9.9,2.2c2.8-0.9,6.1-1.5,8-0.9c1.9,0.6,3.5,1.3,6.1-1.1
		c2.6-2.4,11.7-9.9,19-10.4c7.3-0.4,18.4-1.9,22-2.4c3.7-0.4,11-1.5,11.9-5.6C124.4,71.3,125.5,69.4,121.6,69.2z"/>
	<path class="st18" d="M113.4,32.6c0,0-15.2-0.2-22.2,5.5c-6.9,5.7,7.8,14.1,7.8,14.1S109.7,43.6,113.4,32.6z"/>
</g>
</svg>
