<svg xmlns="http://www.w3.org/2000/svg" xmlns:xlink="http://www.w3.org/1999/xlink" version="1.1" x="0px" y="0px" viewBox="0 0 100 125" enable-background="new 0 0 100 100" xml:space="preserve"><g><path d="M48.526,64.28c0,0.69,0.56,1.25,1.25,1.25h1.139c0.69,0,1.25-0.56,1.25-1.25s-0.56-1.25-1.25-1.25h-1.139   C49.086,63.03,48.526,63.59,48.526,64.28z"/><path d="M53.763,53.884h1.139c0.69,0,1.25-0.56,1.25-1.25s-0.56-1.25-1.25-1.25h-1.139c-0.69,0-1.25,0.56-1.25,1.25   S53.072,53.884,53.763,53.884z"/><path d="M78.774,33.436H57.656l4.607-7.562c0.484,0.151,0.989,0.236,1.501,0.236c1.646,0,3.191-0.798,4.143-2.136   c0.426-0.527,0.868-1.604,0.795-2.609c-0.066-0.923-0.543-1.698-1.343-2.186c-0.647-0.395-1.44-0.531-2.164-0.398   c-0.211-0.7-0.671-1.329-1.344-1.738c-0.491-0.3-1.009-0.451-1.539-0.451c-1.738,0-2.77,1.609-2.881,1.793   c-1.229,2.017-0.866,4.549,0.707,6.171l-5.409,8.88h-2.583V22.907c2.08-0.525,3.674-2.323,3.831-4.549   c0.089-0.671-0.093-1.815-0.675-2.636c-0.537-0.756-1.35-1.172-2.287-1.172c-0.788,0-1.509,0.298-2.054,0.787   c-0.545-0.489-1.265-0.787-2.054-0.787c-2.258,0-3.077,2.061-3.077,3.446c0,2.362,1.628,4.335,3.815,4.901v10.537h-2.728   l-5.512-9.047c1.442-1.626,1.748-4.054,0.561-6.004c-0.112-0.184-1.143-1.793-2.882-1.793c-0.529,0-1.048,0.151-1.539,0.451   c-0.673,0.409-1.132,1.038-1.343,1.738c-0.724-0.132-1.518,0.004-2.165,0.398c-0.8,0.487-1.276,1.263-1.343,2.186   c-0.072,1.005,0.369,2.082,0.796,2.609c0.951,1.338,2.496,2.136,4.143,2.136c0.585,0,1.159-0.113,1.706-0.31l4.651,7.635H23.019   c-2.648,0-4.803,2.154-4.803,4.803c0,0.69,0.56,1.25,1.25,1.25s1.25-0.56,1.25-1.25c0-1.27,1.033-2.303,2.303-2.303h22.496   l3.041,4.99c-2.897,0.396-5.279,1.537-6.954,3.381c-1.923,2.117-2.808,5.088-2.483,8.434l3.517,23.036   c1.332,7.979,4.111,12.025,8.262,12.025c5.917,0,7.381-7.507,8.264-12.043l3.522-23.081c0.337-3.321-0.508-6.209-2.443-8.352   c-1.704-1.886-4.15-3.039-7.135-3.418l3.029-4.973h22.641c1.27,0,2.303,1.033,2.303,2.303c0,0.69,0.56,1.25,1.25,1.25   s1.25-0.56,1.25-1.25C83.577,35.59,81.423,33.436,78.774,33.436z M61.566,19.686c0.108-0.178,0.492-0.594,0.746-0.594   c0.064,0,0.146,0.029,0.239,0.086c0.271,0.166,0.358,0.522,0.194,0.791c-0.236,0.386-0.24,0.942-0.019,1.337   c0.27,0.48,0.861,0.83,1.408,0.83c0.436-0.001,0.902-0.256,1.129-0.628c0.162-0.265,0.526-0.356,0.795-0.193   c0.12,0.073,0.131,0.123,0.141,0.166c0.056,0.259-0.115,0.724-0.238,0.924c-0.027,0.032-0.053,0.065-0.077,0.101   c-0.75,1.076-2.324,1.417-3.457,0.729C61.213,22.492,60.826,20.9,61.566,19.686z M48.331,18.009   c0.005-0.225,0.06-0.958,0.577-0.958c0.318,0,0.578,0.26,0.578,0.578c0,0.652,0.517,1.346,1.476,1.346s1.477-0.693,1.477-1.346   c0-0.318,0.259-0.578,0.577-0.578c0.142,0,0.177,0.036,0.207,0.068c0.182,0.191,0.278,0.677,0.277,0.911   c-0.007,0.042-0.012,0.084-0.015,0.127c-0.083,1.357-1.213,2.421-2.572,2.421C49.489,20.578,48.331,19.42,48.331,18.009z    M35.515,22.505c-0.024-0.035-0.051-0.068-0.078-0.101c-0.123-0.2-0.294-0.665-0.238-0.924c0.01-0.043,0.021-0.093,0.141-0.166   c0.27-0.163,0.635-0.07,0.795,0.192c0.227,0.373,0.693,0.629,1.13,0.629c0.547,0,1.139-0.35,1.408-0.83   c0.221-0.394,0.218-0.948-0.017-1.334c-0.166-0.271-0.08-0.628,0.191-0.794c0.095-0.057,0.175-0.086,0.239-0.086   c0.229,0,0.593,0.352,0.747,0.594c0.74,1.215,0.354,2.807-0.862,3.548C37.838,23.922,36.264,23.58,35.515,22.505z M49.646,35.936   v1.977l-1.204-1.977H49.646z M60.203,52.363l-3.108,20.364h-2.763c-0.69,0-1.25,0.56-1.25,1.25s0.56,1.25,1.25,1.25h2.381   l-0.016,0.104c-1.166,5.984-2.6,9.971-5.801,9.971c-3.42,0-5.039-5.404-5.793-9.92l-2.442-15.989h3.102c0.69,0,1.25-0.56,1.25-1.25   s-0.56-1.25-1.25-1.25h-3.483l-0.682-4.461c-0.251-2.604,0.391-4.832,1.854-6.444c1.622-1.785,4.195-2.729,7.444-2.729   c3.276,0,5.866,0.949,7.488,2.744C59.833,47.605,60.459,49.826,60.203,52.363z M52.146,37.676v-1.74h1.06L52.146,37.676z"/></g><text x="0" y="115" fill="#000000" font-size="5px" font-weight="bold" font-family="'Helvetica Neue', Helvetica, Arial-Unicode, Arial, Sans-serif">Created by mungang kim</text><text x="0" y="120" fill="#000000" font-size="5px" font-weight="bold" font-family="'Helvetica Neue', Helvetica, Arial-Unicode, Arial, Sans-serif">from the Noun Project</text></svg>