<?xml version="1.0" encoding="utf-8"?>
<!-- Generator: Adobe Illustrator 25.0.0, SVG Export Plug-In . SVG Version: 6.00 Build 0)  -->
<svg version="1.1"
	 id="svg2" inkscape:version="0.48+devel r9935" sodipodi:docname="Documento nuevo 1" xmlns:cc="http://creativecommons.org/ns#" xmlns:dc="http://purl.org/dc/elements/1.1/" xmlns:inkscape="http://www.inkscape.org/namespaces/inkscape" xmlns:ns1="http://sozi.baierouge.fr" xmlns:rdf="http://www.w3.org/1999/02/22-rdf-syntax-ns#" xmlns:sodipodi="http://sodipodi.sourceforge.net/DTD/sodipodi-0.dtd" xmlns:svg="http://www.w3.org/2000/svg"
	 xmlns="http://www.w3.org/2000/svg" xmlns:xlink="http://www.w3.org/1999/xlink" x="0px" y="0px" viewBox="0 0 1176.7 581.6"
	 style="enable-background:new 0 0 1176.7 581.6;" xml:space="preserve">
<style type="text/css">
	.st0{fill-rule:evenodd;clip-rule:evenodd;fill:#E98924;}
	.st1{opacity:0.9961;fill-rule:evenodd;clip-rule:evenodd;fill:#7A4650;}
	.st2{opacity:0.9961;fill-rule:evenodd;clip-rule:evenodd;fill:#683430;}
	.st3{fill-rule:evenodd;clip-rule:evenodd;fill:#562A27;}
	.st4{opacity:0.9961;fill-rule:evenodd;clip-rule:evenodd;fill:#67332F;}
	.st5{opacity:0.9961;fill-rule:evenodd;clip-rule:evenodd;fill:#87545E;}
	.st6{opacity:0.9961;fill-rule:evenodd;clip-rule:evenodd;fill:#D67720;}
	.st7{fill-rule:evenodd;clip-rule:evenodd;fill:#F4A753;}
	.st8{opacity:0.9961;fill-rule:evenodd;clip-rule:evenodd;fill:#F4A753;}
	.st9{opacity:0.9961;fill-rule:evenodd;clip-rule:evenodd;fill:#C45805;}
	.st10{opacity:0.9961;fill-rule:evenodd;clip-rule:evenodd;fill:#C16015;}
	.st11{opacity:0.9961;fill-rule:evenodd;clip-rule:evenodd;fill:#C33604;}
	.st12{opacity:0.9961;fill-rule:evenodd;clip-rule:evenodd;fill:#E7693C;}
	.st13{opacity:0.9961;fill-rule:evenodd;clip-rule:evenodd;fill:#942E09;}
	.st14{opacity:0.9961;fill-rule:evenodd;clip-rule:evenodd;fill:#C15F14;}
	.st15{opacity:0.9961;fill-rule:evenodd;clip-rule:evenodd;fill:#D6771F;}
	.st16{opacity:0.9961;fill-rule:evenodd;clip-rule:evenodd;fill:#FFFFFF;}
	.st17{opacity:0.9686;fill-rule:evenodd;clip-rule:evenodd;fill:#FFFFFF;}
	.st18{opacity:0.9686;fill-rule:evenodd;clip-rule:evenodd;fill:#B27D87;}
	.st19{opacity:0.9686;fill-rule:evenodd;clip-rule:evenodd;fill:#562A27;}
	.st20{opacity:0.9686;fill-rule:evenodd;clip-rule:evenodd;fill:#87535D;}
	.st21{opacity:0.9961;fill-rule:evenodd;clip-rule:evenodd;fill:#FBECBD;}
	.st22{opacity:0.9961;fill-rule:evenodd;clip-rule:evenodd;fill:#D6771E;}
	.st23{opacity:0.9961;fill-rule:evenodd;clip-rule:evenodd;fill:#65302D;}
	.st24{opacity:0.9961;fill-rule:evenodd;clip-rule:evenodd;fill:#7A464F;}
	.st25{opacity:0.9961;fill-rule:evenodd;clip-rule:evenodd;fill:#562A27;}
	.st26{opacity:0.9961;fill-rule:evenodd;clip-rule:evenodd;fill:#86535D;}
</style>
<sodipodi:namedview  bordercolor="#666666" borderopacity="1.0" id="base" inkscape:current-layer="layer1" inkscape:cx="273.52498" inkscape:cy="614.84559" inkscape:document-units="px" inkscape:pageopacity="0.0" inkscape:pageshadow="2" inkscape:window-height="787" inkscape:window-maximized="0" inkscape:window-width="1440" inkscape:window-x="0" inkscape:window-y="0" inkscape:zoom="0.42014768" pagecolor="#ffffff" showgrid="false">
	</sodipodi:namedview>
<g>
	<path class="st0" d="M189.6,98.4C80.1,105,17.1,170.1,0.6,293.7c-1.6,23.2,0.3,44.8,5.7,64.7c0.5,6.2,7.8,18.6,21.7,37.4
		c14.3,49.7,24.5,78.3,30.5,85.8c22,37,52.3,64.1,91,81.1c28.6,16.4,73.7,22.1,135.5,17.2c211.5-27.4,436.5-51.5,675.1-72.3
		c55.2-7.7,93.6-17.4,115.2-29.1c41.1-42.9,59.9-107.5,56.5-193.8L1058,109.8c-15.7-26.2-36.3-44-62-53.5
		C841.8,2.7,565,22.2,165.7,114.7L189.6,98.4z"/>
	<path class="st1" d="M88.8,112.5C480.2,6.8,778.1-24.4,982.5,18.8c81.8,16.2,139.2,55.2,172.1,117c27.1,96.7,18.3,175.8-26.3,237.1
		c-19.1,21.7-37.1,27.4-54.1,16.9c-4.9-4.5-8.3-10.3-10.3-17.5c-4-33-8.2-55-12.6-66c-4.4-10.3-9.2-15.3-14.7-15.1
		c-6.9-0.7-13.6,1.3-20.1,6l-55,43.1c-8.8,4.9-16.8,5.6-23.8,2.2c-5.7-2.2-11-7.2-15.9-15L886.2,263c-7.6-10-20.3-15-37.9-15.1
		c-7.4,0-18.7,2.7-34,8.2c-31.4,19-56.3,30.8-74.6,35.6c-46.9-1.8-80.9,3-101.8,14.2c-9.3-2.1-33.1,21.2-71.5,69.9
		c-10.8,7.1-24.3,9.6-40.4,7.6c-7.8-1.6-17.2-5.2-28.2-10.8c-34.3-26.5-64.8-44.1-91.5-52.8c-5.6-5.6-28-0.1-67.2,16.4
		c-5.9,1.2-11.4,0.1-16.6-3.3c-7.9-8.1-15.6-19.1-23-32.9c-26.2-68.3-43.6-106.4-52-114.4c-10.5-17.2-26.4-30.4-47.5-39.8
		c-38-19.5-88.9-14.2-152.9,15.9L88.8,112.5z"/>
	<path class="st2" d="M453.3,318.2c13.9,9.8,30.1,11.7,48.5,5.7c6.5-2.3,14.6-6.7,24.3-13.2c21.1-17.5,37.5-29.8,49.3-36.8
		c8.5-5.4,13.9-7.2,16.3-5.4c3.4,1.7,4.1,8.5,2.2,20.5c-1.4,9.4-5.4,20.2-11.9,32.6c-14.8,22.6-29.5,35.2-43.9,37.9
		c-14.1,2.8-27.2,1.7-39.3-3.2c-10.9-4.2-29.9-16-56.9-35.2L453.3,318.2z"/>
	<path class="st2" d="M549.4,318.7c3.6-3.4,13.8-17.6,30.8-42.5c11.8-12.2,22.4-21,31.6-26.4c9.3-5.1,16.5-7.6,21.6-7.6l37.6,3.6
		c5.1,0.3,10.5-0.1,16.1-1.4c4.7-1.2,9.3-3.1,13.6-5.6c14.1-10.6,24-17.2,29.8-20c6.6-3.5,14.5-6.9,23.8-10.2
		c15.1-6.8,21.4-5.6,18.8,3.7c-10.7,14.7-27.8,27.4-51.2,38.3c-9,4.1-18.9,7.9-29.8,11.6l-60.5,17c-11.5,3.8-24.3,8.9-38.3,15.2
		L549.4,318.7z"/>
	<path class="st2" d="M627.3,164.2c14.9-1.3,28.1-3,39.6-5.3c49.3-11.3,79.5-17.5,90.8-18.5c27-3.1,41.4-3.1,43.2,0.1
		c8,7.5-0.4,19-25,34.5c-23.8,14.1-55.4,25.9-94.8,35.4c-3-0.4-3.6-1.2-1.9-2.4c18.7-9.7,34.5-18.7,47.5-27c4.5-2.9,6.8-5.8,7-8.8
		c0-3.8-3.9-6.6-11.7-8.2c-12.2-1.8-25.4-2-39.6-0.8L627.3,164.2z"/>
	<path class="st2" d="M705.4,243.9c38.9-17.3,64-27.7,75.3-31c22.3-7.3,40.7-11.3,55.2-11.8c9.5-0.3,16.7,0.7,21.7,3
		c21.9,12.1,36.7,19.8,44.3,23.1c7.2,4.3,8,8,2.4,10.9c-2,0.8-4.7,1.3-8.2,1.4c-19.6-1-32.6-1.1-39.1-0.2
		c-0.1-0.5-10.1,1.6-30.1,6.3c-4.2,1-10.8,3.2-19.8,6.5c-37.1,16.3-58.7,25.5-64.9,27.8c-13.1,4.9-21.8,6.9-26.3,6.2
		c-5.4-1.5-3.4-6.7,6.2-15.5c5-4.9,20.8-15.7,47.2-32.4c4.3-3.1,7-5.5,8.1-7.3c2.4-5.6-4.9-8-22.2-7.1L705.4,243.9z"/>
	<path class="st2" d="M807.3,223.3c30.7-22.3,64.1-32.2,100.1-29.7c6.2,1.3,11.6,4.4,16.3,9.3c1.3-0.5,9.2,12.5,23.7,38.8
		c5.3,7.1,11.2,12.3,17.7,15.4c7.3,3.6,15.6,4.4,24.9,2.3l47.2-20.1c10.1-2.9,18.5-3.3,25.3-1.4c7,1.8,12,5.1,14.8,10l22,39.5
		c5.3,5.3,10.3,6.7,15,4.3c22.5-21.4,31.4-56.5,26.6-105.3c-2.4-15.2-7.7-29.6-16-43.1c-2-5.5-15.7-22.3-40.9-50.5
		c-2.4-2.8-2.7-3.9-0.9-3.4c42.4,33.4,68.2,80.2,77.2,140.3c1.6,60.5-17.7,104.2-57.8,130.9c-8.1,5.3-14.6,4.3-19.6-3l-19-59.9
		c-4.4-10.2-10.3-17.3-17.5-21.2c-5.7-3.2-15-2.2-27.9,2.8l-48,36.3c-7.9,4.5-14.8,6.2-20.8,5.1c-7-1.7-13.6-6.3-19.8-13.9
		c-4.1-3-14.6-20.9-31.5-53.5c-4.7-7.2-9.9-13-15.4-17.5c-16.2-10.8-33.3-13.2-51.2-7.3L807.3,223.3z"/>
	<path class="st3" d="M707.7,290.7c1.2,0.7,4.3,1.3,8.4,1.5c4,0.2,9-0.1,14.8-0.8c5.8-0.7,12.4-1.9,24.5-5.7
		c12.1-3.8,26.6-9.1,38.4-13.4c11.8-4.3,21.1-7.6,27.6-9.7c6.5-2.1,10-2.9,13.5-3.7c3.5-0.8,6.9-1.5,10.4-1.9
		c3.5-0.4,7-0.6,10.5-0.5c3.6,0.1,7.2,0.5,10,1.1c2.8,0.6,4.9,1.3,7,2.3c2.1,1,4.2,2.4,6.3,4.1c2.1,1.7,4.2,3.9,5.8,5.8
		c1.6,1.9,2.7,3.3,3.8,5.1c1.2,1.8,2.4,3.9,3.8,6.5c1.3,2.5,2.8,5.4,4.6,10.3c1.8,4.9,4.3,12.3,6.6,18.6c2.3,6.3,4.5,11.6,6.5,15.9
		c2,4.3,4.1,7.8,6.4,10.9c2.3,3.1,5.4,6.5,8.7,9.4c3.4,2.9,7.1,5.2,11.2,6.7c4.1,1.6,8.4,2.3,12.4,2.3c4,0,7.9-0.5,12-1.5
		c4.1-0.9,8.5-2.3,13.1-4c4.6-1.7,9.5-3.9,12.4-5.1c2.9-1.2,6.7-3.2,10.6-6.1c3.9-2.9,8.9-6.9,15.2-12.3c6.3-5.4,13.9-12.1,19-16.5
		c5.1-4.3,7.7-5.9,9.8-7c2.2-1.1,3.8-1.7,4.9-1.9c1.1-0.2,1.6-0.2,1.3-0.3c-0.3-0.1-0.1,0.1,0.2,0.3c0.3,0.2,0.6,0.7,1,1.4
		c0.4,0.8,0.9,2,0.8,8c-0.1,6-0.3,18.3-0.1,28.5c0.2,10.1,0.7,18.1,1.7,24.4c1,6.2,3.3,11.9,5.3,14.7c2,2.8,5.8,7.5,10.7,11
		c4.9,3.5,10.5,5.9,16.7,7.2c6.2,1.3,12.9,1.7,26.6-2.1c13.7-3.8,29.3-15.2,40.5-32.6c11.2-17.3,18.3-39.7,21.5-67.1
		c3.2-27.4,2.2-59.7-0.8-86.3c-3-26.7-3-26.7-2.6-8.9c0,0-4.3,35.5-8.5,64.7c-4.2,29.3-10.4,52.5-18.6,69.6
		c-8.2,17.1-18.1,28.4-30,34.9c-11.9,6.5-14.7,6.2-19.1,5.7c-4.4-0.5-7.7-1.4-10.1-2.6c-2.4-1.2-4.1-2.6-5.8-5.2
		c-1.7-2.6-2.6-3.1-2.9-4.7c-0.3-1.6-0.9-6.8-1.3-14.7c-0.4-7.9-0.4-18.2-0.2-31.3c0.2-13.1-1.1-18.9-2.4-21.8
		c-1.3-2.9-3-5.7-5.2-8.1c-2.2-2.4-4.8-4.4-8.2-6c-3.3-1.5-7.5-2.2-11.3-1.9c-3.8,0.3-7.4,1.2-11,2.7c-3.6,1.5-7.1,3.4-11.1,6
		c-4,2.6-12.7,10.4-19.7,16.6c-7,6.1-12.5,10.8-16.6,14.1c-4.1,3.2-6.4,4.9-7.1,5.1c-0.7,0.2-5.9,2.6-10,4.3c-4.1,1.7-7.8,3-11,3.9
		c-3.2,0.9-5.8,1.4-7.9,1.6c-2.1,0.2-3.6,0.2-4.9-0.2c-1.3-0.3-2.6-0.9-4.2-2c-1.5-1.1-3.2-2.7-5.2-5c-1.9-2.3-2.9-3.6-4.1-6
		c-1.3-2.4-3-6.2-5-11.3c-2-5.1-4.3-11.4-6.8-19.1c-2.6-7.7-4.6-12-6.2-15.2c-1.6-3.2-3.2-6.1-4.8-8.7c-1.6-2.6-3.2-5-4.8-7.1
		c-1.6-2.1-4.5-5.5-7.8-8.6c-3.3-3.1-6.8-5.8-10.5-8c-3.7-2.2-7.7-3.9-11.9-5c-4.2-1.1-9.2-1.7-14-1.9c-4.8-0.2-9.6,0.1-14.3,0.7
		c-4.7,0.6-9.3,1.6-13.3,2.9c-4.1,1.3-6.5,1.7-12.1,3.7c-5.6,2-13.2,5.2-23.2,9.8c-10,4.6-22.2,10.6-36.7,18.1
		c-14.5,7.5-20.7,9.9-26.6,12c-5.9,2.2-10.9,3.9-15.1,5.2c-4.2,1.3-7.6,2.3-9,2.9C707.8,289.9,708.9,290.9,707.7,290.7z"/>
	<path class="st3" d="M271.1,229.6c-1,10.7,1.8,28.8,5.4,43.7c3.6,14.9,7.7,26.7,12.3,35.7c4.7,9,10.6,15.3,14.4,17.6
		c3.8,2.4,6.6,3.9,9.6,5c3,1.2,6.2,2.1,9.6,2.7c3.4,0.6,6.9,1,9.9,1.1c3,0.1,4.9,0,6.8-0.2c1.9-0.1,3.8-0.3,5.8-0.6
		c1.9-0.3,3.9-0.5,9.2-1.8c5.3-1.3,12-3,17.5-4.4c5.5-1.4,9.7-2.4,12.4-2.9c2.7-0.5,3.4-0.6,5.9-0.8c2.4-0.1,5.3-0.3,8-0.2
		c2.8,0.1,5.5,0.3,8.3,0.8c2.8,0.5,5.5,1.1,8.5,2c3,0.9,5.9,1.9,8.9,3c2.9,1.1,5.8,2.4,8.8,3.9c2.9,1.5,5.9,3.1,10.9,7.2
		c5,4,13,10.8,19.9,16.5c7,5.7,13,10.4,18.2,14.2c5.2,3.7,9.5,6.5,12.3,8.1c2.8,1.6,5.5,3.1,8.3,4.3c2.8,1.3,5.8,2.4,8.9,3.3
		c3.1,0.9,6.3,1.7,11.1,2.4c4.8,0.7,10.9,1.1,16.9,0.8c6-0.3,11.8-1.3,17.4-2.9c5.6-1.6,11-4,15.1-6.1c4.2-2.2,8.9-5.4,13.8-9.8
		c5-4.4,10.5-10.1,16.6-17.3c6.1-7.2,12.8-15.8,16.6-20.7c3.8-4.9,5.5-6.4,7.8-8.1c2.3-1.7,5.1-3.5,8.3-5.6c3.3-2,7-4.2,12-6.7
		c4.9-2.6,11.9-5.5,20.9-8.5c9-3,19.9-6.1,32.7-9.4c12.8-3.3,27.4-7.2,39.3-10c11.9-2.9,11.9-2.9,3.9-1.9c0,0-16.5-0.7-31.1,0
		c-14.6,0.7-27.4,2.1-38.5,4c-11.1,1.9-20.5,4.2-28.1,6.8c-7.7,2.7-12.3,4.7-16.5,6.7c-4.1,2-7.8,3.9-11.2,5.9
		c-3.3,1.9-6.2,3.9-9.2,6.3c-3,2.4-10.8,11.6-17.5,19c-6.7,7.4-12.3,13.4-16.9,17.9c-4.6,4.5-8.1,7.4-10.6,8.9
		c-2.5,1.5-6.5,3.6-10.2,5c-3.7,1.4-7.5,2.4-11.6,2.9c-4.1,0.5-8.4,0.6-13,0.1c-4.6-0.4-6.8-0.9-9-1.5c-2.3-0.6-4.4-1.3-6.3-2
		c-2-0.8-3.8-1.6-5.7-2.7c-1.9-1.1-4.9-2.8-8.7-5.3c-3.8-2.6-8.8-6.3-14.8-11.1c-6-4.8-13.1-10.7-21.4-17.8
		c-8.3-7.1-12.9-10-16.5-11.9c-3.6-1.9-7.1-3.7-10.8-5.2c-3.6-1.5-7.3-2.9-10.8-4c-3.6-1.1-7.1-2.2-10.9-3
		c-3.8-0.8-7.7-1.4-11.5-1.7c-3.9-0.3-7.8-0.3-11.3,0c-3.5,0.2-4.5,0.2-7.8,0.6c-3.3,0.5-7.2,1.3-12.2,2.6c-5,1.3-11.1,3.1-18.2,5.4
		c-7.2,2.3-8.1,2.5-9.7,2.8c-1.6,0.3-3.2,0.6-4.7,0.8c-1.5,0.2-3,0.5-4.3,0.6c-1.3,0.1-3.8,0.2-6.3,0c-2.4-0.1-4.6-0.4-6.5-0.8
		c-1.9-0.4-3.6-1-5.3-1.9c-1.8-0.9-5.2-2.2-8.7-6.4c-3.6-4.1-8.1-12-13.2-23.5c-5.1-11.5-10.6-26.3-15.3-34.4
		C271.9,229.4,273.4,239.4,271.1,229.6z"/>
	<path class="st4" d="M582.8,303c-25.1,14.3-51.6,18.3-79.2,12c-10.4-2.4-19.8-5.7-28.2-9.9l-71.7-36.9c-5.1-2.9-21.8-7.6-50.3-14.1
		c-4.2-1.2-8.6-3.2-13.3-6c-4.4-2.7-8.5-6.4-12.1-11l-33.5-50.7L249,132.7c-6-8.6-8-21-5.9-37.1c-3.4-1.7-11.3-1.5-23.9,0.6
		l-75.4,16.9c-1.1,1-0.5,1.9,1.8,2.6c28.2,8.3,49.3,16,63.3,23.1c9.3,4.2,20.1,12.2,32.5,23.9c12.3,13,22.3,26.5,30.2,40.4
		l25.7,62.1c4.5,7.5,11,14.2,19.4,20.2c7.6,4.5,15.2,7.7,22.7,9.5l74.4,12c8.9,1.5,18.4,4,28.4,7.4c5.6,1.8,10.1,4,13.6,6.6
		c22.5,19.4,35.4,29.1,38.5,29.3c10.1,5.3,21,7.4,32.9,6.2L582.8,303z"/>
	<path class="st4" d="M266.8,181.7c-9.7-22.5-30.8-38.1-63.5-46.7c-40.7-11.1-83.2-10.6-127.5,1.5c-3.6-0.8-3.7-3.1-0.2-6.9
		c18.2-12.3,40.3-21,66.5-26.1c66.4-14.9,148.1-27.4,245.1-37.3c-1,1.2-5.2,2.7-12.5,4.5c-37.4,7.8-93.8,20.9-169.3,39.3
		L266.8,181.7z"/>
	<path class="st4" d="M188.2,101.4c-6.4-2.9-21.3-3.9-44.6-3c-18.7,1.1-34.3,3.9-46.7,8.1c-15.9,5.5-28.5,12.5-37.8,20.9
		c-10.8,9.4-15.8,17.3-14.9,23.5c2.1,3.7,6.5,5.1,13.1,4.2c4,0,19.5-5.7,46.6-17.2c7.2-2.5,14-4.3,20.2-5.6c8.9-2,16.5-3.3,22.9-3.8
		c30.5-1,47.3-2,50.5-3.1c3.4-0.9,3.4-2.4-0.1-4.4c-2.7-1.7-8.4-3.1-17-4.2c-17.6-1.3-37.5-1.5-59.6-0.5L188.2,101.4z"/>
	<path class="st4" d="M98.9,121.8l-15.5-1.1c-1.8-0.2-2.5-0.9-2.1-2.1c2-4,10.1-8.3,24.2-13c15.3-4.8,31.5-9.1,48.6-13.1
		c53.9-12.6,85.6-19.2,95-19.9c6.3-0.5,1.3,2.7-14.9,9.5c-31.5,12.7-58.4,23.1-80.5,31.2L98.9,121.8z"/>
	<path class="st4" d="M227.2,106.4c32.4,48.3,73.9,79.3,124.5,92.8c22.3,5,46.1,7.7,71.5,7.9c12.8,0.3,25.8,0.2,38.8-0.2
		c69.5-3.6,108.4-5.1,116.7-4.6c40.5-0.8,60.7,0.4,60.7,3.5c2.1,2.8-6.3,6.6-25.2,11.4l-98.5,21.9c-17,5.3-28.6,10.4-34.9,15.2
		c-4.3,4.4-3.6,9.1,2.2,14.2c-0.9,0.9,12.7,7.7,40.8,20.3c5.7,3.1,9.2,6.1,10.5,8.9c2.4,9.8-5.7,15.1-24.2,15.8
		c-11.6,0.6-24.8-1.3-39.7-5.6c-5.5-1-25.4-7.6-59.7-19.7c-44-11.4-67.4-18.2-70.3-20.4c-22.2-9-39.1-23.8-50.7-44.4L227.2,106.4z"
		/>
	<path class="st4" d="M437.6,246c18.9,15,37.4,22.8,55.3,23.4c11.1,1.2,22.1,1.5,33.1,0.9c40.3-4.4,68.9-6.9,85.6-7.4
		c5.6-0.4,9.3,0.7,11.3,3.3c0.8,2.5-1.8,6.1-7.9,10.8c-19.9,14.6-40.5,30.9-61.8,48.8c-4.2,3.3-9.3,5.9-15.4,8
		c-17.6,6.6-40.3,1.4-68-15.4L437.6,246z"/>
	<path class="st4" d="M1097.3,306.3c-11.4-15-16.2-23.8-14.2-26.5c0.3-1.9,1.3-4.2,3-6.9c14.2-18.4,23.3-31.9,27.3-40.4
		c7.6-14,13.1-26.9,16.5-38.7c3.6-12,5.9-25.4,6.9-40c0.3-4.9-0.1-13.5-1.1-25.6c-0.2-3.9-1.3-9.7-3.3-17.3c-0.1-1,0-1.5,0.3-1.5
		c3.5-0.8,10.7,7.2,21.4,24.1c5.7,8.4,10.3,17.9,13.9,28.7c7.2,17.1,10,40.5,8.4,70.2c-1.3,17.7-5,36.6-11,56.9
		c-3.5,13.4-9,25.9-16.7,37.5c-14.7,18.4-26,29.3-34.1,32.9c-6,3.4-12.6,1.5-19.9-5.6L1097.3,306.3z"/>
	<path class="st4" d="M1126.2,266.2c22.3-69.1,8.5-125.3-41.2-168.6c-57.5-52.2-139.4-80.5-245.7-84.9c71,0.1,132.7,7.5,185.2,22.2
		c43.2,13.6,79.6,36.2,109,67.7c30.6,38.9,43.4,77.8,38.5,116.7c-4.4,35.7-25.4,70.8-63.3,105.5L1126.2,266.2z"/>
	<path class="st4" d="M218.7,106.5c-21.2-8.2-31-12.3-29.2-12.3c-2.5-1.8,0.7-4,9.8-6.5l217.6-50.2c33.8-7.5,64.7-12.6,92.6-15.3
		c13.2,2.1-17.9,13.8-93.4,35.2c-26.2,7.2-44.5,11.9-55,14.2C326,78,282.1,87.1,229.4,99c-5.9,1.3-12.5,3.8-19.9,7.4L218.7,106.5z"
		/>
	<path class="st4" d="M281.8,79c129.9-42.8,261-65.5,393.3-68.3l-69.4,12.1c-56.9,13-102.4,22.6-136.7,28.6
		C427.1,59.6,367.8,69.1,291.3,80L281.8,79z"/>
	<path class="st5" d="M724.1,17.2c-117.8,9.5-215.6,21.6-293.5,36.1C316.7,75,264.5,89.5,273.8,96.9c7.7,2.8,22.3,3,43.8,0.8
		c144.7-20.8,274.2-35.9,388.5-45.2c73.3-6.3,144.7-9.9,214.3-10.7c13.9-3.8-4.5-7.4-55.3-10.9c-51.8-2.8-93.1-2.6-123.7,0.6
		L724.1,17.2z"/>
	<path class="st5" d="M748.1,71.6l-14.2-3.1c-42.2-7.6-118.3-9.5-228.4-5.5c-81.9,3.3-140.3,9.5-175.2,18.6
		c-20.2,4.6-25.5,10.2-15.9,16.8l53.1,2.9c-45.3,7.7-67,20.5-65,38.5l1.6,4.8c1.6,3.1,4.3,5.9,8,8.5c9.4,5.6,19.2,9.4,29.4,11.4
		c15,3.5,34.4,6,58,7.6l191,7.1c20.5,0.2,37.7-0.9,51.4-3.4c6.9-1.6,10.1-6.2,9.6-13.9L625,125.1c-1.8-3.9-0.7-8.1,3.4-12.5
		c1.9-2.2,5.5-4.4,10.8-6.6c0.6-1.1,12.2-4.4,34.8-10c20.4-4.5,47.5-9,81.1-13.6c4.2-2,5.5-4.2,4-6.6
		C760.4,75.5,756.8,74.1,748.1,71.6z"/>
	<path class="st5" d="M747,37.5c125.6-3.4,212.8,6.5,261.8,29.6c26.9,10.2,51.8,39.1,74.6,86.7c8.6,17.8,0.5,27.6-24.2,29.4
		c-18.5-0.7-32.1-4.2-41.1-10.4c-3.3-2.3-6.8-5.4-10.4-9.2c-16.5-20.7-28.3-34.2-35.3-40.4c-4.6-5-12.4-10.4-23.3-16
		c-7.5-3.5-17.2-7.1-28.9-10.7c-51.9-13.4-83.9-22.5-96-27.1c-22.4-7.8-38.1-14.7-47.2-20.9c-10.7-7.7-6.8-13.2,11.7-16.4
		c14.3-2.4,36.9-0.7,68,5L747,37.5z"/>
	<path class="st5" d="M1146.4,245.7l-0.3-0.1c-1.2-0.1-2.4,1.1-3.8,3.4c-2.6,3.8-4.8,7.7-6.5,11.8c-1.6,4.2-2.8,7.4-3.3,9.6
		c-2.3,9.3-3.9,15.5-4.7,18.5c-11.4,15.3-17.9,25.3-19.6,29.9c-1.2,2.8-1.4,4.8-0.7,6.1c1.5,2.6,3.4,3.9,5.6,4.1
		c6.2,0.2,11.6-2.2,16.1-6.9c5.6-5.9,9.8-12.5,12.7-19.8c4.9-11.7,7.9-24.1,8.9-37.2C1151.4,253.7,1150,247.2,1146.4,245.7z"/>
	<path class="st5" d="M981.6,315.1c4.7-1.9,13.5-9.1,26.4-21.5c3.3-3.1,8-8.1,13.9-14.9c1.9-2,2.2-3.2,1-3.5
		c-7.3,2.4-14.8,5.9-22.7,10.4c-0.9,0-10.9,6.7-30,20.2c-2.8,1.8-5.5,3.4-8.4,4.8c-8.8,4.4-16.9,6.4-24.5,6.1
		c-0.5,2.9,2.6,5.3,9.2,7.4c5,1.7,10.7,2,17.3,0.8c13.9-3.3,25.7-9.8,35.2-19.3L981.6,315.1z"/>
	<path class="st5" d="M697,268.8l-1.2-0.2c-9.3,0.2-19.9,2-31.7,5.4c-35.5,11.4-53.7,18.2-54.8,20.4c-10.7,7.3-19.3,15.6-26,25.1
		c-6.2,7.6-14.5,18.6-25.1,32.9c-1.8,2.5-1.7,3.9,0.3,4.5c2.3,0.4,5.8-1.5,10.6-5.5c24-24.2,40.8-39.3,50.4-45.5
		c9.1-7.4,35.3-19.1,78.7-35.1C698.6,269.7,698.2,269,697,268.8z"/>
	<path class="st6" d="M318.9,379.7c2.2,19.1-7,51.1-27.8,95.9c-1.3,11.1,7.3,17.5,25.8,19.1c21.8,4.2,127.7-2.1,317.9-18.8
		l227.3-26.3c23.3-2.9,31.2-6.6,23.7-11c-5.1-0.9-16.1-1.3-33.1-1l-283.6,8.1c-16.3,0.5-57.2,0-122.9-1.4c-5.1-0.7-5.8-1.9-1.9-3.7
		c20.6-3.8,32.9-6.7,36.8-8.6c3.9-2.7,3.8-5.7-0.3-8.7c-1.7-4.3-40.9-14.1-117.7-29.6L318.9,379.7z"/>
	<path class="st6" d="M330.6,411.7c-26.3,54.7-46.5,87.6-60.5,98.8c-8.9,9.5-20.8,19.3-35.6,29.6c-10.3,7.6-27.3,16.1-51.1,25.4
		c-1.8,0.8-2,1.8-0.7,3.2c57.7,9.5,215-10,471.8-58.6c-0.2-1.7-4.6-2.3-13.3-1.8c-52.2,2.5-84.4,4.2-96.6,5.3
		c-80.2,6.5-155.7,13.4-226.5,20.9c-3.2-5.2,16-14.7,57.7-28.5c34.9-10.8,79-20.7,132.3-29.7c1.7-0.6-0.7-0.9-7.2-1l-80.2,1.5
		L330.6,411.7z"/>
	<path class="st6" d="M589,380.1l9.8-8.3c18.1-21.1,29.2-32.7,33.3-34.9c8-6.5,18.5-12.2,31.5-17.3c-0.1-1.6,23.4-6.3,70.5-13.9
		c53.2-14.2,79.1-20.6,77.7-19.4c21.7-3.5,29.8-2.7,24.5,2.5c-1.7,1.5-5.3,3.4-10.8,5.8c-16,6-31.6,12.1-46.8,18.4
		c-48.1,16.2-76.7,26.7-85.7,31.5c-7.3,2.9-26.9,18-59,45.3c-8.8,6.2-17.7,11.3-26.6,15.1c-7.2,2.6-15.2,4.1-24.2,4.5
		c-6.2,0.4-13.9,0.3-23-0.3c-2-0.1-3.2-0.8-3.8-1.9c-1.3,0,0.9-2.2,6.8-6.7l33.4-23.2L589,380.1z"/>
	<path class="st6" d="M315.2,420.7c1.5-14.4,2.2-23,2.1-25.6l-0.5-37.1c0.3-5.4,1.6-9,3.7-11.1c0.8-0.9,2.8-1.7,6-2.2l27.4-3.3
		c17.3-4.1,27.5-6.2,30.5-6.4c7.9-1.2,15.8-0.6,23.5,1.8c16,5.3,29.6,12,41,20.1c-43.5-5.8-72.9-2.8-88.1,9.1
		c-4.8,3.7-7.6,8.3-8.2,13.8c3.2,27.9,4.2,45.2,2.8,51.8L315.2,420.7z"/>
	<path class="st6" d="M965.4,365.3c9.2-0.1,19.3-2.9,30.1-8.4c7.5-3.9,20.4-15,38.8-33.3c2.4-1.6,3.9-2,4.6-1.1
		c2.6,3.8,3.5,10.3,2.7,19.4c-0.3,4.8-2.6,8.8-7,12c-16.8,14.7-37.2,20.7-61.2,17.9L965.4,365.3z"/>
	<path class="st6" d="M912.7,491.3c31.4-6.6,55.9-14.6,73.3-23.9l33.4-17.6l57.3-38.9c7.7-4.8,12.2-6.9,13.6-6.6
		c5.7-0.6,6.8,4.4,3.1,15.3c-3.9,11.5-10.7,23-20.4,34.4c-11.4,12.2-32.2,22.6-62.6,31c-38,10.4-88.2,20-150.7,29l-143.5,13.9
		c-2.1,0.9-19.7,0.9-52.8,0.2L912.7,491.3z"/>
	<path class="st6" d="M917.1,494.1c30.4-2.5,60.1-9.6,89.2-21.3c9.3-4.1,17.7-8.6,25.2-13.4c4.8-2.9,19.3-13.9,43.4-33
		c3.4-2.4,6.1-3.9,8.1-4.4c3.8-0.9,5.8,1.9,6.1,8.1c0.2,8.2-1.5,15.2-5.1,21.2c-6.2,14.8-17.3,24.8-33.3,29.8
		c-82.9,22.5-166.1,36.7-249.7,42.6L917.1,494.1z"/>
	<path class="st7" d="M697,428.8l-10.7-0.7l-10.7-0.7l1.2-0.1c0.9,0,2,0,3.3,0c1.3,0,2.7,0.1,4.4,0.2
		C687.6,427.8,691.8,428.2,697,428.8L697,428.8z M885.9,404.3L885.9,404.3l-1-0.3c-9.2-2-22-2.8-38.2-2.2
		c-30.3,0.4-86.6,2.4-168.9,5.9c-45.9,2.4-77.3,5.4-94.1,9c-2.8,0.7-1.4,2,4,3.8c18.8,3.3,34.9,5.6,48.3,7.1
		c27.7,2.8,54.1,3.9,79.2,3.1c28.4,3,48.4,5.2,59.9,6.8c19.7,2.6,32.4,6,38,10.3c8.4,6.1,3.9,12.7-13.5,19.9
		c3.1,1.3-30.7,9.2-101.3,23.7c-3.3,2.2-2.7,3.7,1.6,4.6c26.1,2.2,68.8-2,127.9-12.8c51.9-10,85.1-17.2,99.5-21.7
		c22-5.9,40.3-12,54.9-18.1c0.8-3.3-7.8-6-25.8-8.3c-9.4-1.4-37.6-3.7-84.6-7c-1.5-0.5-1.3-2.1,0.6-4.8l18.1-15.1
		C890.7,406.2,889.1,404.9,885.9,404.3z"/>
	<path class="st8" d="M616.4,479.2c-15.3-3-39-2.4-71.2,1.8c-74.4,9.8-134.9,19.7-181.5,29.8c-5.9,1.4-5.6,2.8,0.7,4.2
		c1,0.4,8.8,0.5,23.4,0.3c32.9-0.7,78-3.5,135.3-8.2c49.9-4.5,103.5-11.3,160.6-20.3c-0.2-1.1-19.4-0.8-57.7,0.8
		c-22,0.7-39.9,2.2-53.8,4.5L616.4,479.2z"/>
	<path class="st9" d="M23.9,395.9c-10.6-36.8-10.8-68-0.6-93.4c11.1-30.1,33-53.6,65.8-70.6c32-12.4,60.9-12,86.8,1.2
		c28.7,13.8,50.8,37.3,66.3,70.4c13.8,31.3,17.5,67,11,106.9c-7.3,34.5-24,59.4-50.1,74.5c-27.2,13-52.2,11.9-75-3.1
		c-25.9-21.9-41.4-51.2-46.6-87.8c-2.4-24.3,4.7-46.4,21.5-66.2c20.1-21.8,39.5-31,58.1-27.6c21.7,7.7,30.9,22.6,27.5,44.9
		c-0.5,2.2-2.2,2.8-5,1.8c-16.6-12.1-29.1-18.6-37.5-19.4c-7.7-0.8-14.9,2.7-21.7,10.6c-20.1,30.2-23,60.9-8.7,92.2
		c12.6,23.9,28.5,34.8,47.7,32.6c27-0.9,49.5-13.2,67.4-36.8c16.3-38.9,20-73.1,10.9-102.7c-5.1-29.4-25.5-53.7-61.1-72.9
		C130.4,229.6,89,236,56.4,269.6c-29.6,33.3-37.5,82.3-23.8,146.9L23.9,395.9z"/>
	<path class="st9" d="M23.4,362c-8.2-25.4,0.6-54.5,26.5-87.4c24.1-22.9,49.9-32.5,77.3-28.7c49,4,83.4,28.8,103.3,74.4
		c9.5,30.3,12.6,55.4,9.5,75.5c-3.8,16.8-14.6,36.2-32.4,58.2c27.9-17.1,42.2-39.3,43.1-66.5c5.2-41.4,1.9-70.8-10-88.2
		c-10.6-21.6-34.2-42.4-71-62.3c-28.8-11.8-55.6-12.2-80.2-1.1c-30.1,12.7-50.4,33.2-60.9,61.4L23.4,362z"/>
	<path class="st9" d="M18.5,338.6c0.4,20.3,3.8,45.6,10.1,76c2.8,13.8,8.2,25.1,16.3,34.1l-6-16.3c-1.3-4.1-2.7-9.6-4.4-16.4
		c-2.5-9.7-3.9-19.6-4.2-29.8c-0.2-40,2.9-69.2,9.5-87.4c4.7-14,13.8-26.1,27.3-36.3c5.7-6.1,24.7-15.4,56.9-28.1
		c-39.7,0.2-71.5,25.7-95.5,76.7L18.5,338.6z"/>
	<path class="st9" d="M24,381.2c-1.3-0.2,0.9-15.6,6.5-46.1c0.6-4.5,2.6-11.9,6-22.3c3.9-12,11-23,21.2-33
		c12.7-12.7,29.2-22.6,49.5-29.7c13.5-5.2,32.3-7.6,56.3-7.2c-22.8-10.1-50.6-7.2-83.3,8.5c-29.2,17.4-47.9,38-56.3,61.7L24,381.2z"
		/>
	<path class="st10" d="M317.1,352c-0.7,38-8.3,71.1-22.8,99.4c-14.5,28.2-25.4,47-32.8,56.3c1.8,0.2-11.6,13.2-40.2,39.1
		c-1.4,6.4,13.4,9.5,44.5,9.4c69.9-4.4,156.4-17.4,259.6-39c0.7-0.8-0.9-1.1-4.7-0.9l-64.3,4.5l-126.1,11.8
		c-34.2,2.6-50.4,2.7-48.7,0.5c-1.8-2-1.8-3.8-0.1-5.5c20.2-16.4,32.2-27.7,36.1-33.9c4.4-5.5,7.9-12.8,10.4-21.9
		c2.4-3.6,5.2-31.3,8.6-83.1c0.8-5.8-1.9-18.2-8.1-37.2L317.1,352z"/>
	<path class="st10" d="M228.8,541.1c-9.2,5.6-26.4,7.9-51.7,6.9c-10.3-0.3-24.1-3.9-41.3-10.8c-15.5-6.9-29.7-16-42.7-27.2
		c-16.9-14.2-31.3-30.1-42.9-47.7c0.5,12.8,8.8,27.6,25,44.5c-0.5,1.2,16.5,14.4,51,39.5c8.3,6.2,17.4,10.9,27.3,14
		c14.8,5.1,35.3,9.5,61.6,13.2c13.9,1.6,29.9,1.7,48.1,0.4c43.7-3.6,77.4-10.3,101.3-20.3c-23.1,0.6-48.3,0.8-75.5,0.6
		c-8.7-0.1-17.7-0.8-27-2L228.8,541.1z"/>
	<path class="st11" d="M27.1,385.3c-12.5-17.6-16.6-36.6-12.4-56.8c3.2-17.3,6.3-29,9.6-35.2c4.3-9.4,11.7-20.9,22.4-34.7
		c15.4-18.7,32.6-30.3,51.6-34.7c20.1-6.9,39.4-7,57.9-0.4c0.7,0.4-0.1,0.7-2.5,0.9c-17.2,0.7-28.4,1.7-33.7,3
		c-6.8,1.1-14.4,3.4-22.9,6.8c-15.4,7.1-29,17.3-40.8,30.8c-13.9,20.6-22.3,36.7-25,48.4c-1.9,9.4-3.1,18.5-3.5,27.4l3.2,30.6
		c0.1,5.6,0,10.8-0.4,15.6L27.1,385.3z"/>
	<path class="st11" d="M45.7,267.3c15.3-20.9,38.9-33.2,70.9-36.9c33.5-1.1,64,10,91.7,33.5c6.8,6,12.6,13.2,17.4,21.6
		c16.1,28.3,24,45.5,23.8,51.5c8.6,50.8,0.2,91.4-25,121.8c6.8-2.2,13.2-7.6,19.2-16.4c15.9-20.5,22.4-57.3,19.5-110.4
		c-6.5-31-18.4-53.4-35.5-67.2c-32.1-33.1-61.3-50.3-87.6-51.7c-40.9,2.4-70.6,17.7-88.9,45.9L45.7,267.3z"/>
	<path class="st11" d="M126.2,336c8.9-7.9,19.6-10.2,32.1-7c6,1.9,10.5,5.3,13.6,10.3c2,2,4.3,8.9,6.8,20.5c0.8,2,1.7,3.4,2.9,4.3
		c5.2,2.8,9.6,0.4,13.3-7.2c5.4-16.9,2.5-30.9-8.7-42.1c-11.6-10.9-27.1-14-46.5-9.3c-16.9,4.6-29.7,14.2-38.4,28.9
		c-6.2,9.5-10,18.3-11.3,26.5c-2,8.7-1.4,15.4,1.9,20.1c1.4,0.3,2.7-0.7,4.2-3.2c7-14.8,12.9-25.3,17.7-31.4
		c5.4-7.1,10.3-12.3,14.9-15.8L126.2,336z"/>
	<path class="st11" d="M166.3,324.5c-10-4.4-22.1-3.4-36.1,3c-8.4,3.7-16.6,13.2-24.5,28.7c-5.9,15.5-8.2,27.8-6.9,36.9
		c2.3,19.3,7,36.1,14.1,50.2c10.9,18.1,29.2,29.6,54.7,34.5c18.5,1.8,35-7.2,49.6-27.2c10.7-15.9,18.4-32.5,23.1-49.6
		c-20.3,37.9-40.1,56.8-59.2,56.7c-13.7,2.7-26-0.3-37.1-8.9c-10.2-6.6-17.4-16-21.8-28.3c-10.2-31.5-10.2-54.5,0.2-69
		c9.9-10.7,20.7-16.4,32.3-17c11.3-0.8,19.7,3.7,25.3,13.4L166.3,324.5z"/>
	<path class="st11" d="M162.9,332.5c9.9,4.3,14.8,12,14.7,23.3c-0.1,4.3-0.9,8.3-2.4,11.8c-0.5,1.3-1.5,3.1-3.1,5.5
		c-6.5,8.8-9.7,13.3-9.6,13.6c-1,1.6-1.2,3.3-0.7,5.2c3.4,7.4,9.9,7.4,19.4,0c10.5-11.2,15.5-25.7,15.1-43.6
		c-0.4-18.4-6-28.7-16.9-31L162.9,332.5z"/>
	<path class="st12" d="M103.7,354.1c2.8-9,8.2-16.3,16.3-21.8c5.2-3.8,10.5-6.7,16-8.6c4-1,5.7-0.1,4.9,2.5
		c-0.3,0.8-1.3,2.1-2.9,3.8c-11.7,10.5-18.3,17.1-19.9,19.9c-1.7,2.2-3.4,4.9-5.2,8.1c-1.4,2.3-4.3,8.1-8.9,17.4
		c-0.7,1.3-1.5,2.4-2.4,3.3c-2.5,2.1-4.4,1.2-5.6-2.7c-0.9-4.2-0.1-8,2.5-11.4L103.7,354.1z"/>
	<path class="st12" d="M125.3,447.1c1.2,2.7,3.3,5.1,6.1,7.3c0.9,0.8,2.3,1.7,4.1,2.8c8,4.4,12.6,7.1,13.7,8
		c4.2,2.7,6.7,4.9,7.6,6.7c1.1,2,0.3,3.1-2.3,3.3c-1.8,0.2-4.9-0.8-9.3-3.2c-2-1.1-3.7-2.4-5.2-4.1c-3.8-4.1-6.7-7.7-8.9-10.8
		L125.3,447.1z"/>
	<path class="st12" d="M92.8,232.1c10.9-3.8,22.5-5.8,34.8-5.9c7,0,12.9,0.6,17.6,1.6c3.4,0.6,5.9,1.7,7.3,3.6
		c0.1,1.3-0.8,2-2.4,2.1c-8.7,0.1-19.2,0.7-31.5,1.7c-5.2,0.5-13.1,2.1-23.5,4.7c-3.8,0.6-6.2,0.9-7.4,0.8c-3.6-0.1-5-1.7-4.2-4.9
		c1-2.4,3.9-4.4,8.6-5.9L92.8,232.1z"/>
	<path class="st12" d="M192.5,245.5c5.5,2.7,11.6,7.6,18.4,14.9c2.4,2.6,4.7,5.8,7.1,9.8c2.6,4.1,3.7,6.6,3.3,7.6
		c-0.4,0.9-1.4,1-3,0.3c-3.4-1.5-6.5-3.3-9.3-5.4c-2.4-1.8-4.4-3.6-6-5.2l-13.7-14.1L192.5,245.5z"/>
	<path class="st13" d="M250.8,425.1c-27.5,50.4-61.1,72.2-101,65.5c10.8,2.9,21.7,3.2,32.8,0.9c14.6-3.1,25.4-7.7,32.3-13.7
		c19-16.1,32.6-37,40.7-62.5L250.8,425.1z"/>
	<path class="st13" d="M31.3,389.1c-4.6-20.5-3.9-44.5,1.9-72.1c3.6-16.7,12.5-31.2,26.7-43.4c15.7-14.7,36.8-24.6,63.2-29.8
		c15.7-3.8,33.4,0.3,53.2,12.5c-19.3-9.6-41.7-11.5-67.1-5.8c-9.5,2-19.5,5.8-30.1,11.4c-2.1,0.2-10.9,8-26.5,23.5
		C35.5,304.6,29.4,349,34.4,418.8L31.3,389.1z"/>
	<path class="st14" d="M239.2,558.2c23.8-23.2,42.5-50,56.1-80.4c24.5-51.5,37-91.3,37.3-119.3c1.1,0.7,1.9,2.5,2.4,5.4
		c10.2,50,16.6,77,19.1,80.9c4.9,12.3,14.2,22.7,28,31.3c15.5,9.7,37.9,17.7,66.9,24c20.6,3.9,37.1,6.5,49.4,8
		c11.6,1.6,38.7,3.8,81.4,6.6c3.7,0.2,5.4,0.9,4.9,2.2c-3.7,4.3-23.5,9.8-59.6,16.3c-92.1,13.6-155.6,24-190.3,31.1
		c-10.9,1.9-32.8,4.3-65.9,7.1L239.2,558.2z"/>
	<path class="st15" d="M141.3,536.1c39.9,11.5,78.1-0.1,114.3-34.8c13.3-14.6,25.2-34.2,35.7-58.9c7-14.9,14.8-45.3,23.5-91.2
		c3.2-1.5,1.4,18.7-5.3,60.7c-2.5,15.7-6.2,30.2-11.2,43.7c-8.9,24.7-15.3,39.6-19.2,44.7c-7.1,14-17.7,26.9-31.6,38.4
		c-17.5,12.5-40.6,17.5-69.2,15.3c-43-9.7-69.6-22.2-79.9-37.6L141.3,536.1z"/>
	<path class="st15" d="M36.7,388.1c-5.4-55.8,6.7-95.7,36.3-119.6c48.1-29.8,88.8-29.3,122.1,1.5c-19.7-9.2-40.6-12.4-62.8-9.5
		c-25.7,4.1-43,12-51.9,23.6c-20.6,22.2-33.4,45.6-38.6,70.4c-6.8,37.4-5.8,66.4,2.9,87L36.7,388.1z"/>
	<path class="st15" d="M156.2,451.7c-15.4-4.4-26-13-31.9-25.8c-10-19.2-13.1-37-9.2-53.6c0.4-0.2,0.7,0.1,1,0.8
		c4.2,14.6,6.5,21.7,6.9,21.4c3.8,7.4,7.6,12.8,11.4,16.3c11.1,10.2,24.3,16,39.6,17.5c10.2,0.7,19-2.5,26.5-9.6
		c2-1.8,5-5.3,8.9-10.6c4.2-5.9,9.5-15.3,15.9-28.3c0.9-1.2,1.5-1.7,2-1.5c3.8,8.5,3.9,19.4,0.2,32.6c-3.1,10.1-9.7,20-20.1,29.8
		c-14.5,13.4-33.4,16.6-56.7,9.6L156.2,451.7z"/>
	<path class="st15" d="M124.4,151.2L124.4,151.2l-41.7,0.4c-1.6,0.1-3.2,0.4-4.7,0.7c-8.1,1.8-15.7,5.8-22.8,11.9
		c-4.1,3.6-7.9,8.2-11.4,13.6c-1.3,2.6-2.5,5.3-3.4,8.1c-0.8,2-1.8,5.6-2.8,10.8c-0.1,0.6-0.6,1.8-1.5,3.8l-2,3.9
		c-3.3,4.3-5.9,8.2-7.7,11.6c-1.3,3.2-2.2,5.9-2.8,8c-3.9,15-6,24.3-6.4,27.6l7.8-13.7c4.3-5.3,12.7-17.8,25.4-37.2
		c7.9-10,12.4-15.5,13.6-16.5l34.3-22.9c1.9-1,10.7-4.2,26.5-9.5C124.9,151.5,124.8,151.3,124.4,151.2z"/>
	<path class="st15" d="M188.9,143.2l-6.8-1.6c-9.2-1.9-18.8-2.9-28.8-3c-2.4-0.3-10.1,0.2-23.3,1.5l-8.1,1.2l2.9-0.3
		c-13.8,2.7-22.2,4.7-25.1,6.1c-7.1,3-10.6,5.6-10.4,7.7c0.4,0.4,1.5,0.5,3.4,0.4l40.5-3.3c7.8-0.2,15.5,0.2,23,1.1
		c4.3,0.7,8.4,1.5,12.5,2.6c13.6,4.6,26.2,7.9,37.9,10c8.4,2.5,13.9,4.5,16.5,6c10.8,6.4,18.3,14.7,22.6,24.8
		c4.4,9.1,12.5,31.2,24.3,66.4c0.7-15.1,0-27.3-2.1-36.5c-0.7-3.1-1.6-5.8-2.6-8.2c-8-17.1-13.2-27.7-15.7-31.7
		c-9.1-13-16.2-21.2-21.4-24.6c-5.3-3.8-10.9-7.1-16.6-9.9C207.2,149.4,199.7,146.5,188.9,143.2z"/>
	<path class="st16" d="M111.5,228.7c11-1.6,17.3-2.4,18.9-2.3c5.2-0.3,10.9-0.1,17.2,0.5c4.2,0.5,6.9,1.3,8.2,2.4
		c1.7,1.2,1.9,2.5,0.6,3.8c-1.6,1.1-4.3,1.7-8,1.6l-16.4-0.5c-7.5,0-13.2-0.1-17.1-0.3c-3.8-0.2-6.8-0.5-9.1-0.9L111.5,228.7z"/>
	<path class="st16" d="M146,315.2l-0.2-0.1c-3.6-0.5-6.7-0.2-9.5,1.1c-3,1.2-6.5,3.4-10.6,6.5l-2,1.6l0.7-0.3
		c-3.5,3.4-6.6,7-9.3,10.9c-0.5,0.9-0.8,1.8-0.8,2.9c0.1,0.5,0.3,0.9,0.8,1c0.8,0.1,1.6,0,2.5-0.3c0.6-0.2,1.3-0.6,2.3-1.2l1.5-1
		c7.3-5.1,11.8-8.2,13.6-9.3c7.2-4.3,10.7-6.5,10.6-6.5C148.8,317.9,148.9,316.1,146,315.2z"/>
	<path class="st17" d="M255.1,373.6l-0.3-0.1c-1.2-0.2-2.2,0.3-3.1,1.6c-0.9,1.2-1.4,2.9-1.8,5.2c-0.2,1.6-0.4,3.1-0.4,4.5
		c-0.2,3.5-0.3,6.7-0.3,9.5l-0.4,6.6c0,0.2,0,1.4-0.1,3.5c0,0.4,0.1,0.8,0.2,1.1c0,0.3,0.2,0.6,0.3,1c-0.1-0.1-0.1,0,0,0.2
		c0,0.1,0.1,0.2,0.1,0.3c0.1,0.3,0.3,0.5,0.7,0.6c0.7,0.1,1.6-0.3,2.9-1.4c1.1-1,2.1-2.4,3.1-4.4c0.5-1,0.9-2.1,1.4-3.3
		c0.2-0.5,0.3-1,0.5-1.6c0.5-1.8,1-4.2,1.4-7.2c0.4-2.9,0.6-4.7,0.6-5.5c0.1-1.9-0.1-3.7-0.4-5.2C258.6,376,257.1,374.2,255.1,373.6
		z"/>
	<path class="st17" d="M905.9,40.4l-47.7-2.5c-9.4-0.2-16.6-0.2-21.6,0c-21.7,1.4-28.8,3.4-21.4,6.1c1.7,0.5,3.6,0.9,5.7,1.2
		c-0.7-0.3,17.5,1.7,54.7,5.8c12.9,1.1,23,1.4,30.3,0.7c13.9-1.2,19.3-3.3,16.3-6.4c-1.4-1.9-4.7-3.6-9.8-5.2
		c-4.4-1.4-9.5-2.2-15.2-2.4L905.9,40.4z"/>
	<path class="st17" d="M1059.7,120.7c-4.1-7.5-12-15.2-23.7-23.2c-11.4-7.3-18.6-9.8-21.5-7.3c-1.6,3.7,1,9.6,7.8,17.8
		c8.3,10.3,16.9,18.5,25.8,24.7c5.2,3.1,8.8,2.4,10.7-2c0.7-5.3-1.3-10.1-6.1-14.3L1059.7,120.7z"/>
	<path class="st18" d="M514.3,45.3c-13.5-0.9-28.4,0.3-44.7,3.6c-23.3,4.3-34.1,7.9-32.2,10.8c0,1.3,3.8,2.2,11.4,2.8
		c8.8,0.9,18.4,1.1,28.9,0.7c6.1-0.2,12.4-0.7,18.7-1.4c14-1.9,22.5-3.5,25.7-4.6c6-1.2,8.1-3.2,6.4-6c-3.4-2.6-8.9-4.4-16.4-5.2
		L514.3,45.3z"/>
	<path class="st19" d="M416.8,313c-5.7-1.1-12.6-1.6-20.8-1.5l-33.8,4.9c-2.6,0.3-5.6,0.5-8.9,0.6c-6.4,0.2-12.8-0.7-19.2-2.6
		c-10-3.4-18.8-9.5-26.4-18.3c-8-11.9-9.9-18.2-5.6-18.9l20.7,4.7c3.3,0.6,9,1.2,17,1.7c0.4,0.5,20.7,0.7,61,0.6
		c7.9,0.2,16.1,0.9,24.6,2.1c7.6,1.1,14.3,2.7,20.1,4.6c-0.2-0.5,12,4.3,36.5,14.7c4.8,1.7,10.7,3.4,17.9,5c9.3,2,17.2,3.2,23.8,3.7
		c7.8,0.7,21.8,1,42,0.8c2.6,0.1,4.3,1.1,5.1,3c-1.2,6.3-9.5,12.4-24.8,18.1c-11.5,4.3-23.8,6.5-36.8,6.5
		c-29.6,0.4-60-6.9-91.3-22.2L416.8,313z"/>
	<path class="st19" d="M921.9,299.1c-3.6-9.9-11.6-20.1-24-30.5c-11.3-9.6-22.5-16-33.6-19.1c-9.9-2.3-21-2.4-33.4-0.3
		c-8.2,1.1-22.6,6.1-43.2,14.9c-2.6,0.7-4,0.8-4.3,0.2c1.1-8.1,16.7-19,47-32.6c25.6-8,47.8-9.4,66.7-4.1c5.6,1.7,10.8,4.5,15.4,8.3
		c15,17.5,23.7,26.8,26.1,27.7c5,3.8,10.3,6.2,15.8,7c3.7,0.7,8.9,0.7,15.8,0c21.8-4.4,36.7-6.7,44.9-6.7c7.8-0.7,12-0.5,12.6,0.7
		c1.5,2.6-0.9,5.9-7,9.9c-22,12.7-40.3,25-55.1,36.9c-5.3,3.4-11.3,5.8-17.9,7.4c-10.3,1.9-18.8,0.1-25.6-5.6
		c-8.5-6.9-13-15.4-13.4-25.5L921.9,299.1z"/>
	<path class="st19" d="M53.3,148.5c5.5,0.2,28.1-4.9,67.8-15.2c6.4-1.3,16.4-2.3,29.9-2.7c15.3-0.8,34.4,4.3,57.3,15.3
		c18.4,9.4,33.6,24.2,45.7,44.4c9.5,13.9,18.7,45.3,27.5,94.1c1.8,3,2.8-0.2,3.2-9.8c-1.2-45.5-5.9-73.3-14.1-83.6
		c-22-35-42.6-56.2-61.8-63.6c-16.6-8.1-31.6-11.4-45.1-10l-48,4.9c-3.1,0.1-15.5,3.4-37.3,10L66.4,131c-5,1.3-10.5,6.7-16.5,16.1
		c-3.9,11.1-3,15.7,2.9,13.6L53.3,148.5z"/>
	<path class="st20" d="M417.7,70.3c2.2-7.7-1.6-10.6-11.3-8.8c-173.9,30-264.4,44.7-271.6,44.2c-1.8,2.5,2.6,3.7,13.2,3.5
		c1.1,0.8,25.7-1.2,73.7-6.2l42.7-2.5c21.1-1,47.5-0.5,79.3,1.6L417.7,70.3z"/>
	<path class="st21" d="M125.2,461.6c0,0.3,1.2,1.5,3.4,3.6l8.3,5.9c0.8,0.6,1.7,1.4,2.9,2.6c1.8,1.8,2.5,3.2,2.1,4.2
		c-0.5,1.2-1.3,1.8-2.4,1.7c-1.8,0-3.4-0.5-5-1.6c-1.4-1-2.6-2.1-3.5-3.2c-2.9-3.4-5.3-6.5-7.2-9.4L125.2,461.6z"/>
	<path class="st16" d="M431.5,61c2.4-1.2,9.3-2.9,21-5.1c4.1-0.8,8.6-1.3,13.2-1.5c4-0.1,7.4,0.2,10.2,1c4,1.4,5.7,2.7,5.2,4
		c-2,2.7-7.8,4.3-17.3,5c-14.3,0.9-25.3,0.3-32.8-1.8L431.5,61z"/>
	<path class="st22" d="M193.3,433.7c9-9.8,16-18.7,21-26.8c2.7-4.4,6.4-14,11.1-28.8c1.8-5.1,2.5-15.5,2.2-31.2
		c-0.5-15.8-1.4-26.5-2.7-32.1c0-0.7,0.1-1.2,0.5-1.6c3.9,5,8.3,21.5,13.2,49.4c0.9,5.5,1.4,13.7,1.2,24.6c-0.5,6.1-2,12.6-4.3,19.5
		c-8.8,17.8-19,30.2-30.4,37.1c-13.4,10.6-25.1,14.4-35.1,11.6L193.3,433.7z"/>
	<path class="st22" d="M148.6,141.7c15,1.6,34.9,7.3,59.8,17c12.5,5.1,22.1,10.5,28.7,16.3c14.2,10.8,24.6,37,31.3,78.5l-15.3-29.9
		c-5.9-10.1-10.4-16.6-13.6-19.6c-14.4-17-30-28.2-46.9-33.7c-4.8-1.9-11.6-3.7-20.2-5.4l-37.8-4.5c-2.1-0.2-4.3-0.2-6.6-0.1
		c-7.5,0.6-15.3,2-23.3,4.2C81.4,171,67.2,175.8,62,178.7c24.4-18.8,48.9-28.1,73.6-27.9L148.6,141.7z"/>
	<path class="st22" d="M303.9,410.7c1.1-42.3,0.9-67.2-0.8-74.9c0.3-1.4,1.3-1.9,3.2-1.7l9.7,0.9c1,0.2,1.8,0.9,2.3,2
		c1.2-0.2,1.6,11.9,1,36.1l-1.3,13c-0.1,1.3-0.7,3.8-1.7,7.5l-16.5,50.2c-1,2.7-2.8,9.2-5.3,19.4L303.9,410.7z"/>
	<path class="st22" d="M293.8,438.2c0.2-0.8,0.5-1.6,0.8-2.3c1.1-2.4,1.9-4.3,2.4-5.7c0.5-1.3,1-2.9,1.5-4.6
		c1.1-3.8,2.6-9.8,4.3-18.3c0.5-1.8,1-3.7,1.6-5.6c2.9-8.9,4.4-13.3,4.4-13.1c3.4-8.1,5-11.5,4.6-10.2c1.7-1.6,2.8,2.6,3.3,12.8
		c-0.1,4.2-0.5,7.4-0.9,9.7c-0.1,0.7-1.1,5.5-3.2,14.4c-1,3.8-2.7,9.2-4.9,16.1c-2.5,6.6-4.6,12.5-6.2,17.7l-4.5,11.1
		c-2.2,6.1-4.2,11.2-5.9,15.5c-0.5,1.5-3.4,7.4-8.7,17.6c-1,2-2.7,4.1-5,6.3L293.8,438.2z"/>
	<path class="st23" d="M86.7,116.6c-10.5,3.1-22.4,10.8-35.7,23c-6.5,5.8-10.7,12.8-12.7,21c-2.3,11.2-2.3,16.3,0,15.4
		c0.9-0.3,2-1,3.3-2.1c4.8-4.2,8.9-8.3,12.4-12.1c1.4-1.3,3.4-2.9,6-4.8c5.1-3.5,11.2-6.4,18.1-9c0-0.3-0.8-0.3-2.1-0.1L66,150
		c-1.3,0.2-3.9,0.4-7.7,0.5c-3.4,0-5.4-0.9-6-2.6c-0.5-3.2,1.5-6.9,6.1-11.1c2.9-2.8,7.7-5.8,14.2-9L86.7,116.6z"/>
	<path class="st23" d="M76.5,117.6c-1.9,0.7-3,1.2-3.4,1.4l-10.7,7.4c-7.8,6.5-14.8,13.7-21,21.6c-2.4,3.5-4.5,9.7-6.5,18.5
		c-0.4,1.2-1.7,8.3-3.8,21.1c-0.5,2.2-0.4,3.1,0.1,3c0.1,0.2,0.7-0.3,1.8-1.5c7.8-10.1,13.6-17.2,17.5-21.1c2.5-2.6,5.6-5.4,9.3-8.3
		c3-3.2,13.1-8.7,30.1-16.5c-16.4,4.4-26.6,6.6-30.4,6.6c-5.1,0.7-7.9-0.2-8.4-2.8c-0.1-3,2.6-6.7,8-11c3.6-3.1,12.8-8.7,27.4-16.7
		L76.5,117.6z"/>
	<path class="st23" d="M50.9,164.2l-6.5,8.4l-2.6,4.3c-5,6.9-7.7,10.7-8,11.3c-0.9,1.5-1.9,3.4-2.8,5.9c-0.2,0.4-0.4,0.4-0.5,0.1
		c-0.8-2.3-0.6-7.3,0.7-15l4-17.1c1.5-5.4,2.7-8.7,3.4-10.1c2.8-5.8,5.9-10.5,9.3-14.1c3.8-4,6.8-6.8,9-8.5c1.9-1.2,3.6-2.5,5.2-3.9
		c0.5-0.3,0.8-0.2,0.7,0.4c-0.3,0.6-0.6,1.2-1,1.8c-3.8,4.5-7.3,9.1-10.3,13.7c-2.8,4.8-5.1,9.5-6.8,14.1L50.9,164.2z"/>
	<path class="st23" d="M78.7,124.3c20-12.1,36.3-19.9,48.9-23.6c59.4-12.2,96.3-19.2,110.7-20.9c12.6-2.4,26.5-6,41.6-10.8
		c-38.3,5.6-92.7,16.7-163.2,33.1c-29.6,10.5-45.6,18.3-47.9,23.4L78.7,124.3z"/>
	<path class="st23" d="M119.5,111.6c-16,3.6-35.8,10.6-59.4,20.9c-2.5,0.3-3.1-0.7-1.8-3.1c2-3,4.7-5.5,8.2-7.7
		c23.9-13.7,52.9-24.5,87.1-32.4c6.1-2.7,33-8.1,80.9-16l37.2-3.8c2.7,0.4,2.3,1.6-1.2,3.4c-0.1,1-16.8,5.8-50.1,14.4l-77.9,17.8
		c-15.6,4.3-25.8,7.7-30.5,10.2L119.5,111.6z"/>
	<path class="st24" d="M1097.7,431.8l-1.8-0.4c-6.1-0.9-12.4,1.6-18.8,7.4c-0.6,0.5-1.3,1.3-2.2,2.4c-1.6,2.7-3.9,6.8-6.8,12.3
		l-1.6,2.3c-2.6,2.3-10.6,11.5-24.1,27.5c-11.5,8.4-17.9,13.8-19.2,15.9c-1.3,1.7-1.4,3.2-0.2,4.5c2.1,1.8,4.9,3,8.7,3.6
		c11.1,1.7,28.5,0.2,52-4.5c14.1-2.9,24.3-8,30.4-15.2c3.3-3.7,4.9-7.8,4.9-12.1l-0.2-2.2l-6.6-24.6c-1.7-5.7-3.6-9.7-5.9-12.1
		C1105.3,435.2,1102.5,433.5,1097.7,431.8z"/>
	<path class="st25" d="M1065.7,456.2c1.7,1.9-2,7.1-10.9,15.7c-6.3,5.4-14.5,11.3-24.6,17.6c-1.5,1-3.4,2.9-5.5,5.5
		c-3.8,4.7-2.9,8.3,2.8,10.9c13.6,6.2,34.3,7.2,62,3.1c18.3-3.2,29.9-9.4,34.8-18.5c1.7-6.4,0-13.3-4.9-20.7
		c-3.1,10.5-10.6,17.4-22.4,20.9c-14.9,3.7-25.3,2.6-31.2-3.1c-2-3-2.5-6.5-1.6-10.4c-0.4-0.8,2.8-5.5,9.8-14.1
		c2.4-3.8,3.9-6.6,4.5-8.3c0.9-2.4,1.5-4.6,1.8-6.6c0.2-0.4,0.3-3.4,0-9c0-1.2,0.5-2.6,1.3-4.1c0.1-0.4,0-0.6-0.3-0.7
		c-4.8,1.3-8.3,4.4-10.4,9.2c-3.6,6.3-6.5,14.3-8.8,24c-0.7,1.7-1.5,3.1-2.4,4.3L1065.7,456.2z"/>
	<path class="st25" d="M1101.3,496.7c0.2-0.5,2.2-2.8,6.1-6.8c0.7-0.9,1.5-1.9,2.2-3.1c1.5-2.6,2.6-5.5,3.2-8.8
		c0.4-2.1,0.4-4.6-0.1-7.3c-0.3-2.1-0.6-3.9-1-5.4c-1.8-5.9-2.7-9-2.6-9.4c-0.5-3.6-0.7-6.2-0.8-7.8c0-1.4,0.1-2.1,0.3-2.1
		c0.2,0,0.5,0.3,0.8,0.9c0.9,2.3,2.4,5,4.3,7.9l6.9,10.4c1.6,3,2.5,5.5,2.7,7.5c0.8,8.3-2.4,15.1-9.6,20.2L1101.3,496.7z"/>
	<path class="st26" d="M1083.1,444.2c0.4,2.6-0.3,6-2.2,10.3c-0.4,0.9-0.8,1.8-1.4,2.6c-3.4,5.2-5.4,8.4-6.1,9.7
		c-1.6,2.8-2.8,5.3-3.5,7.5c-1.2,3.2-1.3,6-0.1,8.3c2.9,4.4,7.9,6.2,15,5.5c4.3-0.5,7.8-1.6,10.7-3.3c3.6-2.2,5.5-4.1,5.6-5.7
		c-0.1-1.1-0.6-1.9-1.4-2.3l-10.6-2.6c-1.4-0.7-2.4-1.7-2.9-3c-0.7-1.9-1-3.9-0.8-6.2c0.2-1.1,0.4-2,0.6-2.6
		c2.1-6.9,3.1-10.3,3-10.1c0.5-2.6,0.7-4.9,0.7-7.1c-0.2-2.7-0.9-4.8-2.2-6.3c-1.5-2-2.8-2.6-3.8-2L1083.1,444.2z"/>
</g>
</svg>
