<?xml version="1.0" encoding="utf-8"?>
<!-- Generator: Adobe Illustrator 25.0.0, SVG Export Plug-In . SVG Version: 6.00 Build 0)  -->
<svg version="1.1"
	 id="svg2" xmlns:cc="http://creativecommons.org/ns#" xmlns:dc="http://purl.org/dc/elements/1.1/" xmlns:inkscape="http://www.inkscape.org/namespaces/inkscape" xmlns:ns1="http://sozi.baierouge.fr" xmlns:rdf="http://www.w3.org/1999/02/22-rdf-syntax-ns#" xmlns:sodipodi="http://sodipodi.sourceforge.net/DTD/sodipodi-0.dtd"
	 xmlns="http://www.w3.org/2000/svg" xmlns:xlink="http://www.w3.org/1999/xlink" x="0px" y="0px" viewBox="0 0 22.6 37.5"
	 style="enable-background:new 0 0 22.6 37.5;" xml:space="preserve">
<style type="text/css">
	.st0{fill-rule:evenodd;clip-rule:evenodd;fill:url(#path326_1_);}
	.st1{fill-rule:evenodd;clip-rule:evenodd;fill:url(#path333_1_);}
	.st2{fill-rule:evenodd;clip-rule:evenodd;fill:url(#path340_1_);}
	.st3{fill-rule:evenodd;clip-rule:evenodd;fill:url(#path347_1_);}
	.st4{fill-rule:evenodd;clip-rule:evenodd;fill:url(#path354_1_);}
	.st5{fill-rule:evenodd;clip-rule:evenodd;fill:#615031;}
	.st6{fill-rule:evenodd;clip-rule:evenodd;fill:url(#path446_1_);}
	.st7{fill-rule:evenodd;clip-rule:evenodd;fill:#8F00FF;}
	.st8{fill-rule:evenodd;clip-rule:evenodd;fill:url(#SVGID_1_);}
	.st9{fill-rule:evenodd;clip-rule:evenodd;fill:#A548FF;}
	.st10{fill-rule:evenodd;clip-rule:evenodd;fill:url(#path180_1_);}
	.st11{fill-rule:evenodd;clip-rule:evenodd;fill:url(#path187_1_);}
	.st12{fill-rule:evenodd;clip-rule:evenodd;fill:url(#path194_1_);}
	.st13{fill-rule:evenodd;clip-rule:evenodd;fill:url(#path201_1_);}
	.st14{fill-rule:evenodd;clip-rule:evenodd;fill:url(#path208_1_);}
	.st15{fill-rule:evenodd;clip-rule:evenodd;fill:url(#path215_1_);}
	.st16{fill-rule:evenodd;clip-rule:evenodd;fill:url(#path222_1_);}
	.st17{fill-rule:evenodd;clip-rule:evenodd;fill:url(#path229_1_);}
	.st18{fill-rule:evenodd;clip-rule:evenodd;fill:url(#path236_1_);}
	.st19{fill-rule:evenodd;clip-rule:evenodd;fill:url(#path243_1_);}
	.st20{fill-rule:evenodd;clip-rule:evenodd;fill:url(#path250_1_);}
	.st21{fill-rule:evenodd;clip-rule:evenodd;fill:url(#path257_1_);}
	.st22{fill-rule:evenodd;clip-rule:evenodd;fill:url(#path264_1_);}
	.st23{fill-rule:evenodd;clip-rule:evenodd;fill:url(#path271_1_);}
	.st24{fill-rule:evenodd;clip-rule:evenodd;fill:url(#path278_1_);}
	.st25{fill-rule:evenodd;clip-rule:evenodd;fill:url(#path285_1_);}
	.st26{fill-rule:evenodd;clip-rule:evenodd;fill:#FFFFFF;}
	.st27{fill-rule:evenodd;clip-rule:evenodd;fill:url(#path294_1_);}
	.st28{fill-rule:evenodd;clip-rule:evenodd;fill:url(#path301_1_);}
	.st29{fill-rule:evenodd;clip-rule:evenodd;fill:url(#path308_1_);}
	.st30{fill-rule:evenodd;clip-rule:evenodd;fill:url(#path315_1_);}
	.st31{fill-rule:evenodd;clip-rule:evenodd;fill:#A78A56;}
	.st32{fill-rule:evenodd;clip-rule:evenodd;fill:#CBA769;}
	.st33{fill-rule:evenodd;clip-rule:evenodd;fill:#A58D54;}
	.st34{fill-rule:evenodd;clip-rule:evenodd;fill:#8B7347;}
	.st35{fill-rule:evenodd;clip-rule:evenodd;fill:#735E39;}
	.st36{fill-rule:evenodd;clip-rule:evenodd;fill:#4D4027;}
	.st37{fill-rule:evenodd;clip-rule:evenodd;fill:url(#path371_1_);}
	.st38{fill-rule:evenodd;clip-rule:evenodd;fill:url(#path378_1_);}
	.st39{fill-rule:evenodd;clip-rule:evenodd;fill:url(#path385_1_);}
	.st40{fill-rule:evenodd;clip-rule:evenodd;fill:url(#path392_1_);}
	.st41{fill-rule:evenodd;clip-rule:evenodd;fill:#705C39;}
	.st42{fill-rule:evenodd;clip-rule:evenodd;fill:url(#path401_1_);}
	.st43{fill-rule:evenodd;clip-rule:evenodd;fill:url(#path410_1_);}
	.st44{fill-rule:evenodd;clip-rule:evenodd;fill:url(#path419_1_);}
	.st45{fill-rule:evenodd;clip-rule:evenodd;fill:url(#path428_1_);}
	.st46{fill-rule:evenodd;clip-rule:evenodd;fill:url(#path437_1_);}
	.st47{clip-path:url(#SVGID_3_);fill:url(#SVGID_4_);}
	.st48{font-family:'Georgia-Bold';}
	.st49{font-size:2.7055px;}
	.st50{fill-rule:evenodd;clip-rule:evenodd;fill:url(#path159_1_);}
</style>
<sodipodi:namedview  bordercolor="#666666" borderopacity="1" gridtolerance="10" guidetolerance="10" id="namedview489" inkscape:current-layer="svg2" inkscape:cx="11.250084" inkscape:cy="18.43091" inkscape:pageopacity="0" inkscape:pageshadow="2" inkscape:window-height="645" inkscape:window-maximized="0" inkscape:window-width="785" inkscape:window-x="0" inkscape:window-y="0" inkscape:zoom="6.4025737" objecttolerance="10" pagecolor="#ffffff" showgrid="false">
	</sodipodi:namedview>
<linearGradient id="path326_1_" gradientUnits="userSpaceOnUse" x1="-5268.9038" y1="-2463.8669" x2="-5266.4038" y2="-2463.8669" gradientTransform="matrix(-0.8 8.000000e-03 -8.000000e-03 -0.8 -4223.3701 -1928.2046)">
	<stop  offset="0" style="stop-color:#C1A064"/>
	<stop  offset="1" style="stop-color:#706341"/>
</linearGradient>
<path id="path326" inkscape:connector-curvature="0" class="st0" d="M10.7,0.5c0.1,0,0.2,0.1,0.2,0.2s-0.1,0.2-0.2,0.2
	C10.6,1,10.5,1,10.2,1H8.9c0-0.3,0.4-0.5,1.3-0.5C10.2,0.5,10.7,0.5,10.7,0.5z"/>
<linearGradient id="path333_1_" gradientUnits="userSpaceOnUse" x1="-5260.4019" y1="-2477.1091" x2="-5258.6719" y2="-2477.1091" gradientTransform="matrix(-0.8 1.100000e-02 -1.100000e-02 -0.8 -4223.4805 -1922.4813)">
	<stop  offset="0" style="stop-color:#C1A064"/>
	<stop  offset="1" style="stop-color:#706341"/>
</linearGradient>
<path id="path333" inkscape:connector-curvature="0" class="st1" d="M10.8,1.4c-0.1-0.2,0-0.2,0.3-0.2c0.1,0,0.3,0,0.5,0h0.5
	c-0.1,0.2-0.2,0.3-0.2,0.3h-0.4C11.5,1.5,10.8,1.4,10.8,1.4z"/>
<linearGradient id="path340_1_" gradientUnits="userSpaceOnUse" x1="-5294.9722" y1="-2429.9426" x2="-5294.4722" y2="-2429.9426" gradientTransform="matrix(-0.8 0 0 -0.8 -4223.0767 -1943.4667)">
	<stop  offset="0" style="stop-color:#C1A064"/>
	<stop  offset="1" style="stop-color:#706341"/>
</linearGradient>
<path id="path340" inkscape:connector-curvature="0" class="st2" d="M12.4,0.4h0.2c0.1,0,0.2,0,0.3,0.1c-0.2,0.1-0.3,0.1-0.4,0
	C12.4,0.5,12.4,0.5,12.4,0.4z"/>
<linearGradient id="path347_1_" gradientUnits="userSpaceOnUse" x1="-5277.0337" y1="-2463.489" x2="-5273.2837" y2="-2463.489" gradientTransform="matrix(-0.8 8.000000e-03 -8.000000e-03 -0.8 -4223.3701 -1928.2046)">
	<stop  offset="0" style="stop-color:#C1A064"/>
	<stop  offset="1" style="stop-color:#706341"/>
</linearGradient>
<path id="path347" inkscape:connector-curvature="0" class="st3" d="M14.4,0.5c-0.2-0.1-0.2-0.2-0.1-0.3l1.4,0.4h-0.2
	c-0.2,0-0.4,0-0.6,0C14.7,0.6,14.5,0.6,14.4,0.5z"/>
<linearGradient id="path354_1_" gradientUnits="userSpaceOnUse" x1="-5299.1724" y1="-2430.4583" x2="-5298.2725" y2="-2430.4583" gradientTransform="matrix(-0.8 0 0 -0.8 -4223.0767 -1943.4667)">
	<stop  offset="0" style="stop-color:#C1A064"/>
	<stop  offset="1" style="stop-color:#706341"/>
</linearGradient>
<path id="path354" inkscape:connector-curvature="0" class="st4" d="M15.5,1c0,0,0-0.1,0-0.2h0.6C16.1,0.9,15.9,1,15.5,1z"/>
<path id="path360" inkscape:connector-curvature="0" class="st5" d="M15,1.8c-0.5-0.2-0.8-0.2-1-0.1l0,0c0.2-0.1,0.6-0.1,1.4,0.2V2
	c0.1,0.5-0.1,0.8-0.4,0.8c-0.1,0-0.3,0-0.4-0.1c0.2,0.1,0.4,0,0.5-0.2c0.1-0.1,0.1-0.3,0.1-0.5c0-0.1-0.1-0.2-0.1-0.2
	C15.2,1.8,15,1.8,15,1.8z"/>
<path id="path439" inkscape:connector-curvature="0" class="st5" d="M15.2,1.8c0,0,0.1,0.1,0.1,0.2c0,0.2,0,0.3-0.1,0.5
	s-0.3,0.3-0.5,0.2l-0.2-0.3h0.1l-0.1-0.1V2.2L14.2,2l-0.1-0.2c-0.1-0.1-0.1-0.1,0-0.2c0.2-0.2,0.5-0.1,1,0.1
	C15,1.8,15.2,1.8,15.2,1.8z"/>
<linearGradient id="path446_1_" gradientUnits="userSpaceOnUse" x1="-4711.5601" y1="3021.8733" x2="-4710.0601" y2="3021.8733" gradientTransform="matrix(-0.101 -0.794 0.794 -0.101 -2860.387 -3432.5537)">
	<stop  offset="0" style="stop-color:#C1A064"/>
	<stop  offset="1" style="stop-color:#706341"/>
</linearGradient>
<path id="path446" inkscape:connector-curvature="0" class="st6" d="M15.2,1.8c0,0,0.1,0.1,0.1,0.2c0,0.2,0,0.3-0.1,0.5
	s-0.3,0.3-0.5,0.2l-0.2-0.3h0.1l-0.1-0.1V2.2L14.2,2l-0.1-0.2c-0.1-0.1-0.1-0.1,0-0.2c0.2-0.2,0.5-0.1,1,0.1
	C15,1.8,15.2,1.8,15.2,1.8z"/>
<path class="st7" d="M14.6,36.8c0.2-0.1,0.3-0.1,0.4-0.2c0,0,0,0,0.1-0.1c0.2-0.1,0.5-0.2,0.7-0.3c0.2-0.1,0.3-0.2,0.5-0.2
	c0.2-0.1,0.4-0.2,0.6-0.4c0.1-0.1,0.2-0.1,0.3-0.2c0.3-0.3,0.6-0.5,1-0.7l0.1-0.1c0.1-0.1,0.3-0.2,0.4-0.4c0.2-0.3,0.4-0.7,0.7-0.9
	c0,0,0,0,0,0c0.2-0.2,0.4-0.4,0.6-0.6c0-0.1,0.1-0.2,0.1-0.2c0.1-0.2,0.3-0.4,0.5-0.6c0.1-0.3,0.2-0.7,0.4-1c0-0.1,0.1-0.1,0.1-0.2
	c0,0,0,0,0,0c0.1-0.4,0.3-0.8,0.5-1.2c0,0,0,0,0,0c0-0.2,0.1-0.4,0.1-0.6c0.1-0.3,0.2-0.5,0.3-0.8c0-0.1,0-0.1,0-0.2
	c-0.1-0.7,0-1.4,0.1-2.1c0-0.1,0-0.1,0.1-0.2c0,0,0,0,0,0c0,0,0-0.1-0.1-0.1c0-0.1,0-0.2,0-0.2c0-0.3-0.1-0.6-0.1-0.9
	c-0.3-0.6-0.5-1.2-0.4-1.9l-0.1-0.1c-0.2-0.4-0.5-1.1-0.5-1.3c0,0,0-0.1,0-0.1c-0.1-0.1-0.2-0.2-0.2-0.3c-0.1-0.2-0.1-0.3-0.2-0.5
	c0,0,0,0,0,0c0,0,0-0.1-0.1-0.1c0-0.1-0.1-0.2-0.1-0.2c-0.1-0.1-0.3-0.3-0.3-0.4c-0.1-0.1-0.3-0.3-0.3-0.4c-0.2-0.2-0.4-0.5-0.7-0.9
	c0,0,0-0.1-0.1-0.1c-2.6,0.5-5.4,0.7-8.5,0.6c-2.6-0.1-4.9-0.4-7.2-0.8c-0.2,0.4-0.6,0.7-0.9,1c-0.1,0.2-0.3,0.4-0.4,0.5
	c-0.2,0.5-0.5,0.9-0.8,1.2c0,0,0,0.1-0.1,0.1c-0.1,0.1-0.1,0.2-0.2,0.3c-0.1,0.3-0.2,0.5-0.3,0.8c0,0.1,0,0.1-0.1,0.2
	c0,0.1-0.1,0.2-0.2,0.3c0,0.4-0.1,0.7-0.2,1c-0.1,0.4-0.2,0.8-0.3,1.1c0,0.2,0,0.3,0,0.5c0.1,0.7,0.1,0.8,0,1.5c0,0.1,0,0.2,0,0.3
	c0,0.2,0.1,0.3,0.1,0.5c0.2,0.7,0.3,1.4,0.3,2.1c0.1,0.2,0.2,0.4,0.3,0.6c0,0,0,0,0,0c0.2,0.3,0.3,0.7,0.4,1
	c0.4,0.5,0.7,1.1,0.9,1.6c0.3,0.3,0.6,0.6,0.8,1c0,0,0,0.1,0.1,0.1c0,0,0,0,0,0c0.6,0.4,1,0.7,1.4,1.2c0.2,0.2,0.5,0.3,0.7,0.5
	C5.5,35.7,5.7,35.9,6,36c-0.1,0-0.1-0.1-0.2-0.1C5.9,36,6,36,6.1,36.1c0.4,0.1,0.8,0.3,1.1,0.5c0,0,0,0,0.1,0.1
	c1.2,0.3,2.4,0.5,3.6,0.6C12.2,37.3,13.4,37.1,14.6,36.8z"/>
<radialGradient id="SVGID_1_" cx="953.4251" cy="1502.1121" r="17.867" gradientTransform="matrix(0.109 0.792 0.726 -0.1 -1183.9449 -583.0582)" gradientUnits="userSpaceOnUse">
	<stop  offset="0" style="stop-color:#FFFFFF;stop-opacity:0.478"/>
	<stop  offset="0.71" style="stop-color:#FFFFFF;stop-opacity:8.200000e-02"/>
	<stop  offset="0.867" style="stop-color:#FFFFFF;stop-opacity:0.2"/>
	<stop  offset="1" style="stop-color:#FFFFFF;stop-opacity:2.800000e-02"/>
</radialGradient>
<path class="st8" d="M15,36.7c0,0,0.1-0.1,0.1-0.1c0.2-0.1,0.5-0.2,0.7-0.3c0.4-0.2,0.7-0.4,1.1-0.5c0.1-0.1,0.2-0.1,0.3-0.2
	c0.3-0.3,0.6-0.6,1-0.8l0.2-0.1c0.1-0.1,0.2-0.2,0.3-0.3c0.2-0.4,0.5-0.7,0.8-1c0,0,0,0,0,0c0.2-0.2,0.4-0.4,0.6-0.6
	c0-0.1,0.1-0.2,0.1-0.2c0.1-0.2,0.3-0.4,0.5-0.6c0.1-0.3,0.2-0.7,0.4-1c0-0.1,0.1-0.1,0.1-0.2c0,0,0,0,0,0c0.1-0.4,0.3-0.7,0.5-1
	c0-0.3,0.1-0.5,0.1-0.8c0.1-0.3,0.2-0.5,0.3-0.8c0-0.1,0-0.2,0-0.2c0,0,0-0.1,0-0.1c-0.1-0.6,0-1.3,0.1-1.9c0,0,0-0.1,0-0.1
	c0-0.3,0-0.5,0.1-0.8c-0.1-1.2-0.4-2.4-0.9-3.6c0-0.1-0.1-0.2-0.1-0.3c-0.1-0.1-0.2-0.3-0.3-0.5c-0.1-0.2-0.1-0.3-0.2-0.5
	c0-0.1-0.1-0.2-0.1-0.3c-0.1-0.2-0.2-0.4-0.3-0.5c0,0,0,0-0.1-0.1c-0.3-0.3-0.6-0.7-0.8-1l0,0c-1.1-1.3-2.5-2.2-4.2-2.9
	c-2.8-1.1-5.7-1.1-8.6,0.2c-2.9,1.3-4.9,3.4-6,6.3c-0.3,0.9-0.5,1.7-0.7,2.6c0,0.2,0,0.3,0,0.5c0.1,0.7,0.1,0.8,0,1.5
	c0,0.1,0,0.2,0,0.3c0,0.2,0.1,0.3,0.1,0.5c0.2,0.7,0.3,1.4,0.3,2.1c0.1,0.2,0.2,0.4,0.3,0.6c0,0,0,0,0,0c0.3,0.5,0.5,1,0.6,1.5
	c0.5,0.9,1,1.6,1.7,2.3c0.6,0.4,1,0.7,1.3,1.1c0.2,0.2,0.5,0.3,0.7,0.5C5.4,35.7,5.7,35.9,6,36c-0.1,0-0.1-0.1-0.2-0.1
	C5.8,36,5.9,36,6,36.1c0.4,0.1,0.8,0.3,1.1,0.5c0,0,0,0,0.1,0.1c2.5,1,5,1.1,7.5,0.2C14.8,36.8,14.9,36.7,15,36.7z"/>
<path id="path18" inkscape:connector-curvature="0" class="st7" d="M17.3,17.2c1.5,0.4,2.3,0.8,2.3,1.2c0,0.5-0.8,0.8-2.4,1.1
	c-1.6,0.3-3.4,0.4-5.6,0.4S7.5,19.6,6,19.3c-1.5-0.4-2.3-0.8-2.3-1.2c0-0.5,0.8-0.8,2.4-1.1c1.6-0.3,3.5-0.4,5.6-0.4
	C13.9,16.6,15.8,16.9,17.3,17.2z"/>
<path class="st9" d="M19.6,18.3c-0.1,0.4-0.9,0.8-2.4,1.1c-1.6,0.3-3.5,0.5-5.7,0.4c-2.2-0.1-4.1-0.3-5.7-0.7
	c-1.5-0.4-2.3-0.8-2.3-1.3c0,0.6,0.7,1,2,1.5c1.5,0.4,3.5,0.7,6.1,0.7c2.6,0.1,4.6-0.1,6.1-0.5C18.9,19.2,19.5,18.8,19.6,18.3
	C19.6,18.3,19.6,18.3,19.6,18.3z"/>
<linearGradient id="path180_1_" gradientUnits="userSpaceOnUse" x1="2119.1213" y1="974.2037" x2="2129.6213" y2="974.2037" gradientTransform="matrix(0.745 0.292 -0.292 0.745 -1286.3115 -1329.6508)">
	<stop  offset="0" style="stop-color:#FFFFFF;stop-opacity:0.949"/>
	<stop  offset="1" style="stop-color:#ABD9DB"/>
</linearGradient>
<path id="path180" inkscape:connector-curvature="0" class="st10" d="M7.1,16.2c0-0.5,0.5-0.8,1.4-1.1s1.9-0.5,3.2-0.4
	s2.3,0.2,3.1,0.5c0.9,0.3,1.3,0.7,1.2,1.2c-0.1,0.5-0.4,0.8-1.2,1.1c-0.4,0.1-0.9,0.2-1.4,0.3c0.5-0.1,0.9-0.2,1.2-0.3
	c0.7-0.3,1.1-0.6,1.2-1c0-0.4-0.4-0.8-1.2-1.1s-1.8-0.5-3-0.5s-2.2,0.1-3,0.4c-0.9,0.3-1.3,0.7-1.3,1.1s0.3,0.7,1,1
	c0.4,0.2,0.8,0.3,1.2,0.4c-0.5-0.1-0.9-0.2-1.3-0.4C7.4,17,7,16.6,7.1,16.2z"/>
<linearGradient id="path187_1_" gradientUnits="userSpaceOnUse" x1="1922.4218" y1="1572.7336" x2="1931.7218" y2="1572.7336" gradientTransform="matrix(0.78 0.176 -0.176 0.78 -1215.2792 -1549.6654)">
	<stop  offset="0" style="stop-color:#000000;stop-opacity:0.247"/>
	<stop  offset="1" style="stop-color:#000000;stop-opacity:2.800000e-02"/>
</linearGradient>
<path id="path187" inkscape:connector-curvature="0" class="st11" d="M15.8,16.4c0,0.4-0.5,0.8-1.3,1.1c-0.8,0.3-1.8,0.4-3,0.4
	s-2.2-0.2-3-0.5s-1.2-0.7-1.2-1.1s0.5-0.8,1.3-1.1c0.9-0.3,1.9-0.4,3-0.4c1.2,0,2.2,0.2,3,0.5C15.4,15.6,15.8,15.9,15.8,16.4z"/>
<linearGradient id="path194_1_" gradientUnits="userSpaceOnUse" x1="-5102.0796" y1="2621.158" x2="-5095.1787" y2="2621.158" gradientTransform="matrix(-0.205 -0.773 0.773 -0.205 -3059.5654 -3396.3105)">
	<stop  offset="0" style="stop-color:#FFFFFF;stop-opacity:0.22"/>
	<stop  offset="1" style="stop-color:#FFFFFF;stop-opacity:2.800000e-02"/>
</linearGradient>
<path id="path194" inkscape:connector-curvature="0" class="st12" d="M14.8,8.7c0.8-0.3,1.3-0.7,1.3-1.1c0-0.5-0.4-0.8-1.2-1.2
	c-0.8-0.3-1.8-0.5-3-0.6c-1.2,0-2.2,0.1-3,0.4C8.1,6.6,7.7,6.9,7.7,7.4s0.4,0.9,1.2,1.2s1.8,0.5,3,0.5C13,9.1,14,9,14.8,8.7z
	 M17.2,8.1c0,0.7-0.6,1.2-1.6,1.7c-1.1,0.5-2.3,0.7-3.8,0.6c-1.5,0-2.7-0.3-3.7-0.8S6.6,8.5,6.6,7.9s0.6-1.2,1.6-1.7
	c1-0.4,2.3-0.6,3.8-0.6s2.7,0.3,3.7,0.8C16.7,6.8,17.2,7.4,17.2,8.1z"/>
<linearGradient id="path201_1_" gradientUnits="userSpaceOnUse" x1="1536.5173" y1="2277.8167" x2="1547.3174" y2="2277.8167" gradientTransform="matrix(0.8 2.200000e-02 -2.200000e-02 0.8 -1171.4673 -1842.726)">
	<stop  offset="0" style="stop-color:#FFFFFF;stop-opacity:0.22"/>
	<stop  offset="1" style="stop-color:#FFFFFF;stop-opacity:2.800000e-02"/>
</linearGradient>
<path id="path201" inkscape:connector-curvature="0" class="st13" d="M14.6,10c0.8-0.3,1.3-0.6,1.5-1l-0.2,7l0.1,0.3
	c0,0.5-0.5,0.9-1.3,1.2c-0.9,0.3-1.9,0.5-3.1,0.5s-2.2-0.2-3-0.6c-0.9-0.4-1.3-0.8-1.2-1.3l0.1-0.3l0.2-7C7.8,9.3,8.2,9.6,9,9.9
	c0.8,0.3,1.7,0.4,2.8,0.4C12.9,10.4,13.8,10.3,14.6,10z"/>
<linearGradient id="path208_1_" gradientUnits="userSpaceOnUse" x1="1537.0173" y1="2277.6455" x2="1546.2174" y2="2277.6455" gradientTransform="matrix(0.8 2.200000e-02 -2.200000e-02 0.8 -1171.4673 -1842.726)">
	<stop  offset="0" style="stop-color:#FFFFFF;stop-opacity:0.22"/>
	<stop  offset="1" style="stop-color:#FFFFFF;stop-opacity:2.800000e-02"/>
</linearGradient>
<path id="path208" inkscape:connector-curvature="0" class="st14" d="M8.2,9.4c0.8,0.6,2,0.9,3.6,0.9c1.5,0.1,2.8-0.2,3.7-0.8
	l-0.2,5.8l0.1,0.3c0,0.5-0.4,0.9-1.2,1.2c-0.7,0.3-1.6,0.5-2.6,0.4c-1,0-1.9-0.2-2.6-0.6c-0.7-0.3-1.1-0.8-1-1.2l0.1-0.3L8.2,9.4z"
	/>
<linearGradient id="path215_1_" gradientUnits="userSpaceOnUse" x1="1536.4264" y1="2283.2446" x2="1547.2264" y2="2283.2446" gradientTransform="matrix(0.8 2.200000e-02 -2.200000e-02 0.8 -1171.4673 -1842.726)">
	<stop  offset="0" style="stop-color:#FFFFFF;stop-opacity:0.949"/>
	<stop  offset="1" style="stop-color:#ABD9DB"/>
</linearGradient>
<path id="path215" inkscape:connector-curvature="0" class="st15" d="M12.9,17.9C12.6,18,12.2,18,11.5,18s-1.4-0.1-2.2-0.3l-0.1-0.2
	c0.7,0.2,1.5,0.3,2.6,0.3L12.9,17.9z"/>
<linearGradient id="path222_1_" gradientUnits="userSpaceOnUse" x1="1536.5173" y1="2277.2725" x2="1547.3174" y2="2277.2725" gradientTransform="matrix(0.8 2.200000e-02 -2.200000e-02 0.8 -1171.4673 -1842.726)">
	<stop  offset="0" style="stop-color:#FFFFFF;stop-opacity:0.949"/>
	<stop  offset="1" style="stop-color:#809C89"/>
</linearGradient>
<path id="path222" inkscape:connector-curvature="0" class="st16" d="M7.6,8.7c0,0.1,0.1,0.2,0.3,0.4l-0.1,5.6v0.1
	c0,0.7,0.2,1.4,0.6,1.9l-0.2,0.1c-0.2-0.1-0.4-0.2-0.5-0.2c-0.1,0-0.1,0.1,0,0.2L8,17v0.1c-0.5-0.3-0.7-0.6-0.7-1l0.1-0.3L7.6,8.7z"
	/>
<linearGradient id="path229_1_" gradientUnits="userSpaceOnUse" x1="1454.4045" y1="2397.4153" x2="1464.2346" y2="2397.4153" gradientTransform="matrix(0.8 -6.000000e-03 6.000000e-03 0.8 -1170.4388 -1896.1433)">
	<stop  offset="0" style="stop-color:#FFFFFF;stop-opacity:0.949"/>
	<stop  offset="1" style="stop-color:#9AAFB8"/>
</linearGradient>
<path id="path229" inkscape:connector-curvature="0" class="st17" d="M15.8,10c0-0.2,0-0.3-0.1-0.4c-0.1,0-0.2,0.1-0.5,0.2V9.7
	c0.5-0.2,0.8-0.5,1-0.8L15.9,16v0.3c0,0.3-0.2,0.5-0.5,0.8c0,0-0.1-0.1-0.4-0.3c0.2-0.2,0.3-0.4,0.4-0.7l0.2-0.6
	C15.6,15.5,15.8,10,15.8,10z"/>
<linearGradient id="path236_1_" gradientUnits="userSpaceOnUse" x1="408.5789" y1="-3479.9578" x2="412.9789" y2="-3479.9578" gradientTransform="matrix(-2.100000e-02 0.8 -0.8 -2.100000e-02 -2766.3157 -388.6444)">
	<stop  offset="0" style="stop-color:#FFFFFF;stop-opacity:0.42"/>
	<stop  offset="1" style="stop-color:#FFFFFF;stop-opacity:2.800000e-02"/>
</linearGradient>
<path id="path236" inkscape:connector-curvature="0" class="st18" d="M8.7,9.7c0.5,0.2,1,0.3,1.4,0.4l-0.2,7c-0.1,0-0.2,0.1-0.2,0.2
	l0.1,0.1l0,0l-0.5-0.2H9.1c-0.1,0,0,0.1,0.1,0.3c-0.6-0.2-1-0.3-1.3-0.5c0-0.1,0.1-0.2,0.2-0.2l0.7,0.3l-0.5-0.4l0.2-0.1L8.7,9.7z"
	/>
<linearGradient id="path243_1_" gradientUnits="userSpaceOnUse" x1="1533.926" y1="2286.5588" x2="1544.6261" y2="2286.5588" gradientTransform="matrix(0.8 2.100000e-02 -2.100000e-02 0.8 -1171.4305 -1844.6338)">
	<stop  offset="0" style="stop-color:#FFFFFF;stop-opacity:0.949"/>
	<stop  offset="1" style="stop-color:#ABD9DB"/>
</linearGradient>
<path id="path243" inkscape:connector-curvature="0" class="st19" d="M8.8,17.1l-0.6-0.4l0.2-0.1L8.8,17.1z"/>
<linearGradient id="path250_1_" gradientUnits="userSpaceOnUse" x1="408.5776" y1="-3479.4431" x2="413.0776" y2="-3479.4431" gradientTransform="matrix(-2.100000e-02 0.8 -0.8 -2.100000e-02 -2766.3157 -388.6444)">
	<stop  offset="0" style="stop-color:#FFFFFF;stop-opacity:0.42"/>
	<stop  offset="1" style="stop-color:#FFFFFF;stop-opacity:2.800000e-02"/>
</linearGradient>
<path id="path250" inkscape:connector-curvature="0" class="st20" d="M8.8,17.1l-0.6-0.4l0.2-0.1L8.8,17.1z"/>
<linearGradient id="path257_1_" gradientUnits="userSpaceOnUse" x1="1481.3336" y1="2374.8828" x2="1481.4337" y2="2370.3828" gradientTransform="matrix(0.8 0 0 0.8 -1170.6592 -1884.6967)">
	<stop  offset="0" style="stop-color:#FFFFFF;stop-opacity:0.137"/>
	<stop  offset="1" style="stop-color:#FFFFFF;stop-opacity:2.800000e-02"/>
</linearGradient>
<path id="path257" inkscape:connector-curvature="0" class="st21" d="M13.8,10.1l0.5-0.1c0.3,0,0.6-0.1,0.8-0.2h0.1L15,16.7h0.1
	c-0.2,0.2-0.3,0.3-0.6,0.5c0.5-0.1,0.7-0.1,0.7,0c-0.4,0.2-0.7,0.3-1.1,0.4c0.2-0.2,0.2-0.3,0.2-0.4h-0.2l-0.6,0.2
	C13.5,17.5,13.8,10.1,13.8,10.1z"/>
<linearGradient id="path264_1_" gradientUnits="userSpaceOnUse" x1="1533.5261" y1="2277.6133" x2="1545.026" y2="2277.6133" gradientTransform="matrix(0.8 2.100000e-02 -2.100000e-02 0.8 -1171.4305 -1844.6338)">
	<stop  offset="0" style="stop-color:#FFFFFF"/>
	<stop  offset="1" style="stop-color:#ABD9DB"/>
</linearGradient>
<path id="path264" inkscape:connector-curvature="0" class="st22" d="M15.1,9.8c-0.2,0.1-0.5,0.2-0.8,0.2l0.9-0.3L15.1,9.8
	C15.2,9.8,15.1,9.8,15.1,9.8z"/>
<linearGradient id="path271_1_" gradientUnits="userSpaceOnUse" x1="1481.6244" y1="2374.9834" x2="1481.7244" y2="2370.4834" gradientTransform="matrix(0.8 0 0 0.8 -1170.6592 -1884.6967)">
	<stop  offset="0" style="stop-color:#FFFFFF;stop-opacity:0.137"/>
	<stop  offset="1" style="stop-color:#FFFFFF;stop-opacity:2.800000e-02"/>
</linearGradient>
<path id="path271" inkscape:connector-curvature="0" class="st23" d="M15.1,9.8c-0.2,0.1-0.5,0.2-0.8,0.2l0.9-0.3L15.1,9.8
	C15.2,9.8,15.1,9.8,15.1,9.8z"/>
<linearGradient id="path278_1_" gradientUnits="userSpaceOnUse" x1="1533.426" y1="2286.6086" x2="1545.026" y2="2286.6086" gradientTransform="matrix(0.8 2.100000e-02 -2.100000e-02 0.8 -1171.4305 -1844.6338)">
	<stop  offset="0" style="stop-color:#FFFFFF"/>
	<stop  offset="1" style="stop-color:#ABD9DB"/>
</linearGradient>
<path id="path278" inkscape:connector-curvature="0" class="st24" d="M15,16.8c0.3,0.2,0.4,0.3,0.4,0.3l-0.3,0.2
	c0-0.1-0.2-0.1-0.7,0C14.7,17.1,14.9,16.9,15,16.8z"/>
<linearGradient id="path285_1_" gradientUnits="userSpaceOnUse" x1="1482.0219" y1="2374.7791" x2="1482.1218" y2="2370.3789" gradientTransform="matrix(0.8 0 0 0.8 -1170.6592 -1884.6967)">
	<stop  offset="0" style="stop-color:#FFFFFF;stop-opacity:0.137"/>
	<stop  offset="1" style="stop-color:#FFFFFF;stop-opacity:2.800000e-02"/>
</linearGradient>
<path id="path285" inkscape:connector-curvature="0" class="st25" d="M15,16.8c0.3,0.2,0.4,0.3,0.4,0.3l-0.3,0.2
	c0-0.1-0.2-0.1-0.7,0C14.7,17.1,14.9,16.9,15,16.8z"/>
<path id="path287" inkscape:connector-curvature="0" class="st26" d="M9.7,17.3c0-0.1,0.1-0.1,0.2-0.2c0.2-0.1,0.4,0,0.6,0.1
	c0.4,0.2,0.6,0.3,0.4,0.3c-0.5,0-0.9-0.1-1-0.2C9.8,17.4,9.7,17.3,9.7,17.3z M11.3,17.7c-0.1-0.1-0.1-0.1-0.1-0.2
	c0.1-0.1,0.2-0.1,0.3-0.1s0.2,0.1,0.1,0.2C11.5,17.7,11.4,17.7,11.3,17.7z"/>
<linearGradient id="path294_1_" gradientUnits="userSpaceOnUse" x1="1533.926" y1="2274.7793" x2="1544.526" y2="2274.7793" gradientTransform="matrix(0.8 2.100000e-02 -2.100000e-02 0.8 -1171.4305 -1844.6338)">
	<stop  offset="0" style="stop-color:#000000;stop-opacity:8.600000e-02"/>
	<stop  offset="1" style="stop-color:#BCD9DB;stop-opacity:0.42"/>
</linearGradient>
<path id="path294" inkscape:connector-curvature="0" class="st27" d="M16.1,7.6c0,0.5-0.5,0.8-1.3,1.1c-0.9,0.3-1.9,0.5-3,0.4
	c-1.2,0-2.2-0.2-3-0.5C8.1,8.2,7.7,7.8,7.7,7.4s0.4-0.8,1.2-1.1c0.9-0.3,1.9-0.4,3-0.4s2.1,0.2,3,0.6C15.7,6.7,16.1,7.1,16.1,7.6z"
	/>
<linearGradient id="path301_1_" gradientUnits="userSpaceOnUse" x1="-5102.0796" y1="2621.1514" x2="-5095.1787" y2="2621.1514" gradientTransform="matrix(-0.205 -0.773 0.773 -0.205 -3059.5654 -3396.3105)">
	<stop  offset="0" style="stop-color:#FFFFFF;stop-opacity:0.949"/>
	<stop  offset="1" style="stop-color:#9AAFB8"/>
</linearGradient>
<path id="path301" inkscape:connector-curvature="0" class="st28" d="M15.4,9.4c0.9-0.4,1.4-0.9,1.4-1.5s-0.4-1.1-1.4-1.5
	s-2.1-0.7-3.5-0.7S9.3,5.9,8.3,6.3C7.4,6.6,6.9,7.1,6.8,7.7s0.5,1.1,1.4,1.5c1,0.5,2.1,0.7,3.5,0.7C13.2,9.9,14.4,9.8,15.4,9.4z
	 M15.7,6.4c1,0.5,1.5,1.1,1.5,1.7c0,0.7-0.6,1.2-1.6,1.7c-1.1,0.5-2.3,0.7-3.8,0.6c-1.5,0-2.7-0.3-3.7-0.8S6.6,8.5,6.6,7.9
	s0.6-1.2,1.6-1.7c1-0.4,2.3-0.6,3.8-0.6C13.4,5.6,14.7,5.8,15.7,6.4z"/>
<linearGradient id="path308_1_" gradientUnits="userSpaceOnUse" x1="2115.9294" y1="963.7775" x2="2125.9294" y2="963.7775" gradientTransform="matrix(0.745 0.292 -0.292 0.745 -1286.3115 -1329.6508)">
	<stop  offset="0" style="stop-color:#FFFFFF;stop-opacity:0.949"/>
	<stop  offset="1" style="stop-color:#ABD9DB"/>
</linearGradient>
<path id="path308" inkscape:connector-curvature="0" class="st29" d="M12.9,5.9C13.7,6,14.4,6.2,15,6.4c0.8,0.3,1.1,0.7,1.1,1.2
	s-0.5,0.8-1.3,1.1c-0.9,0.3-1.9,0.5-3,0.4c-1.2,0-2.2-0.2-3-0.5C8.1,8.2,7.7,7.8,7.7,7.4s0.4-0.8,1.2-1.1C9.4,6.1,10,6,10.6,6
	c-0.5,0.1-1,0.2-1.5,0.3c-0.8,0.2-1.2,0.6-1.2,1s0.4,0.8,1.2,1.2C9.8,8.8,10.8,9,11.9,9s2-0.1,2.8-0.4c0.8-0.3,1.2-0.7,1.2-1.1
	s-0.4-0.8-1.1-1.1C14.3,6.2,13.7,6,12.9,5.9z"/>
<linearGradient id="path315_1_" gradientUnits="userSpaceOnUse" x1="1533.926" y1="2274.8174" x2="1544.526" y2="2274.8174" gradientTransform="matrix(0.8 2.100000e-02 -2.100000e-02 0.8 -1171.4305 -1844.6338)">
	<stop  offset="0" style="stop-color:#FFFFFF;stop-opacity:0.949"/>
	<stop  offset="1" style="stop-color:#9AAFB8"/>
</linearGradient>
<path id="path315" inkscape:connector-curvature="0" class="st30" d="M13.5,6c0.5,0.1,1,0.2,1.4,0.4c0.8,0.3,1.2,0.7,1.2,1.2
	s-0.5,0.8-1.3,1.1c-0.9,0.3-1.9,0.5-3,0.4c-1.2,0-2.2-0.2-3-0.5C8.1,8.2,7.7,7.8,7.7,7.4s0.4-0.8,1.2-1.1C9.4,6.1,10,6,10.6,6
	c-0.5,0.1-1,0.2-1.5,0.3c-0.8,0.3-1.2,0.6-1.2,1S8.3,8.1,9,8.4c0.8,0.3,1.7,0.4,2.8,0.5c1.1,0.1,2-0.1,2.8-0.4
	c0.8-0.3,1.2-0.7,1.2-1.1s-0.4-0.8-1.2-1.1C14.4,6.2,14,6.1,13.5,6z"/>
<path id="path317" inkscape:connector-curvature="0" class="st31" d="M7,1.1l0.8-0.4C8.6,0.4,9.7,0.2,11,0.1c1.4-0.2,2.8-0.1,4,0.3
	c0.6,0.2,1.1,0.4,1.5,0.6l-0.6,6.6c-0.1,0.2-0.3,0.4-0.7,0.6c-0.8,0.4-1.9,0.6-3.4,0.6S9.1,8.6,8.3,8.2L7.7,7.5
	C7.5,5.6,7.4,4.4,7.3,3.8L7,1.1z"/>
<path id="path319" inkscape:connector-curvature="0" class="st32" d="M7,1.1c0.2,0,0.3,0.1,0.4,0.2c0.2,0.2,0.5,0.3,0.9,0.3L9.2,2
	l0.9,0.2c0.2,0.1,0.9,0.1,2,0.1h1.1c0.1,0,0.1-0.1,0.2-0.1c0-0.1,0.1-0.1,0.1-0.2c0-0.1,0.1-0.1,0.2-0.1c0,0.2,0.1,0.4,0.2,0.5
	c0,0,0.2,0.1,0.5,0.2c0.2,0.1,0.3,0.2,0.2,0.3c0,0.3-0.3,0.5-0.9,0.7c-0.4,0.1-0.8,0.2-1.3,0.3c-0.6,0-1,0-1.3,0
	c-1.3,0-2.3-0.1-2.8-0.3L7.2,2.8L7,1.1z"/>
<path id="path356" inkscape:connector-curvature="0" class="st33" d="M7,1.1l0.8,0.7c0.9,0.5,2,0.7,3.4,0.6h3.4
	c-0.1-0.1-0.3-0.2-0.4-0.3C14,1.9,13.9,1.7,14,1.6s0.4-0.1,0.8,0c0.2,0.1,0.5,0.1,0.6,0.2c0.5-0.1,0.8-0.4,1-0.9l0,0l-0.6,6.6
	c-0.1,0.2-0.3,0.4-0.7,0.6c-0.8,0.4-1.9,0.6-3.4,0.6S9,8.5,8.2,8.1L7.7,7.5C7.5,5.6,7.4,4.4,7.3,3.8L7,1.1z"/>
<path id="path358" inkscape:connector-curvature="0" class="st34" d="M11.7,7.6c0.2,0.1,0.3,0.1,0.5-0.2c-0.1-0.1-0.1-0.2-0.2-0.2
	L11.8,7C11.6,7.3,11.6,7.5,11.7,7.6z M13.1,5.6l-0.2-0.1c0,0.1,0,0.3,0,0.6h0.3C13.2,5.8,13.2,5.6,13.1,5.6z M13.1,4.3
	c0.2,0,0.3-0.1,0.3-0.3c0.1-0.3,0-0.6-0.2-0.7H13c-0.2,0-0.3,0.2-0.2,0.5S12.9,4.2,13.1,4.3z M15.4,1.8h0.2c0,0.6-0.1,0.9-0.3,1.1
	C15.1,3,14.9,3,14.6,3c-0.3-0.1-0.5-0.2-0.5-0.4c-0.4-0.1-0.7-0.1-0.9-0.1h-1.3c0.8,0.1,1.4,0.3,1.8,0.6c0.1,0.1,0.3,0.2,0.4,0.5
	c0.3,0.2,0.5,0.5,0.5,0.7s-0.1,0.4-0.4,0.6c-0.2,0.3-0.3,0.5-0.3,0.6s0,0.2,0.1,0.3c0,0.1-0.1,0.2-0.2,0.5c-0.1,0.2-0.2,0.3-0.2,0.3
	L13.7,7c0,0.3-0.1,0.4-0.2,0.5c-0.1,0.1-0.3,0-0.4,0c-0.2-0.1-0.3-0.1-0.4-0.2c0,0.1-0.1,0.1-0.2,0.3h-0.2l-0.1,0.2
	c-0.1,0.1-0.3,0.1-0.6,0.1c-0.2,0.2-0.4,0.3-0.6,0.3c-0.2,0-0.6-0.1-1.4-0.2C9.5,8,9.4,8,9.4,8S9.3,7.9,9.3,7.8S9.2,7.6,9.1,7.5
	C8.9,7.4,8.8,7.3,8.7,7.2c-0.1,0-0.2,0.1-0.4,0c-0.2,0-0.3,0-0.4-0.1L7.6,6.8l-0.1-1C7.6,6,7.7,6.1,7.8,6.2C8,6.5,8.2,6.6,8.4,6.5
	c0.1-0.1,0.2-0.2,0.3-0.3c0.2,0.4,0.6,0.6,1,0.7C9.8,6.9,10,7,10.3,7c0.2,0.1,0.3,0.2,0.3,0.4c0.2,0.1,0.3,0,0.4-0.1
	c0.1-0.1,0.1-0.1,0.1-0.2s0.1-0.2,0.1-0.2c0.1,0.1,0.3,0.1,0.6,0c0.1-0.4,0.2-0.6,0.4-0.6c0.1,0,0.2-0.1,0.3-0.1s0.1-0.1,0.2-0.3
	c0.1-0.2,0.1-0.5,0-0.8c0-0.1-0.1-0.2-0.2-0.3c-0.1-0.1-0.2,0-0.2,0.1c-0.2,0-0.4-0.2-0.5-0.5l-0.3-0.7c-0.3-0.4-0.7-0.7-1.2-0.9
	C10,2.7,9.8,2.6,9.5,2.4L9.4,2.3c0.7,0.1,1.3,0.1,1.8,0.1h3.2c0,0.1,0.1,0.2,0.2,0.3c0.1,0.1,0.2,0.1,0.4,0.1c0.3,0,0.4-0.3,0.4-0.8
	C15.4,2,15.4,1.8,15.4,1.8z"/>
<path id="path362" inkscape:connector-curvature="0" class="st35" d="M14.2,5.4c0,0.2,0.1,0.3,0.2,0.4c0.2,0.1,0.4,0,0.4-0.2
	c0.1-0.2,0-0.4-0.1-0.6h-0.3C14.2,5,14.2,5.1,14.2,5.4z M15.6,1.8l0.1-0.1c0,0.1,0.1,0.3,0.1,0.6c0,0.2,0,0.4-0.1,0.8
	c0,0.1,0,0.4,0,1c0,0.3-0.1,0.5-0.3,0.7c-0.1,0.2-0.1,0.5,0,0.9c0,0.2,0,0.4,0.1,0.7c-0.1,0.5-0.2,0.7-0.3,0.8c0,0-0.1,0.1-0.3,0.2
	c-0.1,0-0.2,0.1-0.2,0.2c-0.2,0-0.4,0.1-0.7,0.3c-0.4,0.3-0.6,0.4-0.7,0.4c-0.2,0.1-0.7,0.1-1.7,0.1c-0.6,0-1,0-1.3-0.1H9.7
	C9.3,8.1,9.1,8,8.9,8L8.3,7.8C8.1,7.7,7.9,7.6,7.7,7.6l0,0V6.9L8,7.2c0.1,0.1,0.2,0.1,0.4,0.1s0.3,0,0.4-0.1c0,0.1,0.1,0.2,0.3,0.2
	c0.1,0.1,0.1,0.2,0.2,0.3c0.1,0.1,0.1,0.2,0.1,0.2s0.1,0,0.2,0c0.8,0.2,1.2,0.3,1.2,0.3c0.2,0,0.4-0.1,0.6-0.3c0.3,0,0.5,0,0.6-0.1
	l0.1-0.2h0.2c0.2-0.1,0.2-0.2,0.2-0.3c0.1,0,0.2,0.1,0.4,0.2c0.1,0.1,0.3,0.1,0.4,0c0.2-0.1,0.2-0.2,0.2-0.5l-0.1-0.4
	c0-0.1,0.1-0.2,0.2-0.3c0.1-0.2,0.2-0.4,0.2-0.5c-0.1-0.1-0.1-0.2-0.1-0.3c0-0.1,0.1-0.3,0.3-0.6c0.2-0.3,0.4-0.5,0.4-0.6
	c0-0.2-0.2-0.5-0.5-0.7c-0.2-0.2-0.3-0.4-0.4-0.5c-0.4-0.3-1-0.5-1.8-0.6H13c0.2,0,0.5,0,0.9,0.1c0,0.2,0.1,0.3,0.5,0.4
	c0.3,0,0.5,0,0.7-0.1C15.5,2.7,15.6,2.4,15.6,1.8z"/>
<path id="path364" inkscape:connector-curvature="0" class="st36" d="M15.7,1.7c0.4-0.2,0.6-0.5,0.8-0.8l0,0l-0.3,2.9
	C16,3.8,15.9,4,16,4.3c0,0.2,0.1,0.3,0.2,0.4L16,7.6c-0.1,0.2-0.3,0.4-0.7,0.6c-0.8,0.4-1.9,0.6-3.4,0.6c-1.4,0-2.5-0.2-3.3-0.6
	C8.1,8,7.8,7.8,7.7,7.6c0.2,0,0.3,0.1,0.6,0.2L8.9,8c0.2,0,0.4,0.1,0.7,0.3h0.6c0.3,0.1,0.7,0.1,1.3,0.1c0.9,0,1.5,0,1.7-0.1
	c0.1,0,0.3-0.2,0.7-0.4c0.2-0.2,0.5-0.3,0.7-0.3c0-0.1,0.1-0.2,0.2-0.2c0.2-0.1,0.3-0.1,0.3-0.2c0.1-0.1,0.2-0.3,0.3-0.8
	c-0.1-0.3-0.1-0.5-0.1-0.7c-0.1-0.4-0.1-0.7,0-0.9c0.2-0.2,0.3-0.5,0.3-0.7c0-0.6,0-0.9,0-1c0.2-0.4,0.3-0.7,0.2-0.8
	C15.8,2,15.7,1.8,15.7,1.7z"/>
<linearGradient id="path371_1_" gradientUnits="userSpaceOnUse" x1="-4708.9897" y1="3017.7979" x2="-4706.8896" y2="3017.7979" gradientTransform="matrix(-0.1 -0.794 0.794 -0.1 -2858.4792 -3432.5168)">
	<stop  offset="0" style="stop-color:#C1A064"/>
	<stop  offset="1" style="stop-color:#706341"/>
</linearGradient>
<path id="path371" inkscape:connector-curvature="0" class="st37" d="M8.5,4.4c-0.1,0-0.3,0-0.4-0.2C8,4.1,7.9,3.9,7.9,3.7
	s0-0.4,0.1-0.6s0.2-0.3,0.3-0.3s0.3,0,0.4,0.2c0.1,0.1,0.2,0.3,0.2,0.5c0.1,0.2,0,0.4-0.1,0.6C8.8,4.3,8.7,4.4,8.5,4.4L8.5,4.4z"/>
<linearGradient id="path378_1_" gradientUnits="userSpaceOnUse" x1="-4707.7129" y1="3024.0488" x2="-4705.3125" y2="3024.0488" gradientTransform="matrix(-9.900000e-02 -0.794 0.794 -9.900000e-02 -2856.5715 -3432.4802)">
	<stop  offset="0" style="stop-color:#C1A064"/>
	<stop  offset="1" style="stop-color:#706341"/>
</linearGradient>
<path id="path378" inkscape:connector-curvature="0" class="st38" d="M10.9,5.6C10.4,5.8,10,5.6,9.7,5S9.5,4,10,3.7h0.2
	c0.3,0,0.5,0,0.6,0C11,3.8,11.1,4,11.2,4.3C11.2,5,11.1,5.5,10.9,5.6z"/>
<linearGradient id="path385_1_" gradientUnits="userSpaceOnUse" x1="-4704.2295" y1="3026.0869" x2="-4703.0293" y2="3026.0869" gradientTransform="matrix(-9.800000e-02 -0.794 0.794 -9.800000e-02 -2854.6638 -3432.4434)">
	<stop  offset="0" style="stop-color:#C1A064"/>
	<stop  offset="1" style="stop-color:#706341"/>
</linearGradient>
<path id="path385" inkscape:connector-curvature="0" class="st39" d="M8.6,5.6c0-0.5,0-0.7,0.2-0.7L9.1,5c0.2,0,0.3,0.3,0.2,0.8
	C8.9,5.8,8.7,5.8,8.6,5.6z"/>
<linearGradient id="path392_1_" gradientUnits="userSpaceOnUse" x1="-4665.6558" y1="3059.9944" x2="-4664.9561" y2="3059.9944" gradientTransform="matrix(-8.800000e-02 -0.795 0.795 -8.800000e-02 -2835.5493 -3433.9839)">
	<stop  offset="0" style="stop-color:#C1A064"/>
	<stop  offset="1" style="stop-color:#706341"/>
</linearGradient>
<path id="path392" inkscape:connector-curvature="0" class="st40" d="M7.5,5.2c0.2-0.1,0.3,0.1,0.3,0.4L7.6,5.7L7.5,5.2z"/>
<path id="path394" inkscape:connector-curvature="0" class="st41" d="M13.1,4.3c-0.2,0-0.3-0.2-0.4-0.5s0-0.5,0.2-0.5h0.2
	c0.2,0.1,0.3,0.4,0.2,0.7C13.4,4.2,13.3,4.3,13.1,4.3z"/>
<linearGradient id="path401_1_" gradientUnits="userSpaceOnUse" x1="-4719.1875" y1="3018.9036" x2="-4717.8872" y2="3018.9036" gradientTransform="matrix(-0.102 -0.793 0.793 -0.102 -2862.3315 -3430.6826)">
	<stop  offset="0" style="stop-color:#C1A064"/>
	<stop  offset="1" style="stop-color:#706341"/>
</linearGradient>
<path id="path401" inkscape:connector-curvature="0" class="st42" d="M13.1,4.3c-0.2,0-0.3-0.2-0.4-0.5s0-0.5,0.2-0.5h0.2
	c0.2,0.1,0.3,0.4,0.2,0.7C13.4,4.2,13.3,4.3,13.1,4.3z"/>
<path id="path403" inkscape:connector-curvature="0" class="st41" d="M13.1,5.6c0.1,0.1,0.1,0.2,0.1,0.5h-0.3c0-0.3,0-0.5,0-0.6
	C13,5.4,13.1,5.6,13.1,5.6z"/>
<linearGradient id="path410_1_" gradientUnits="userSpaceOnUse" x1="-4728.5059" y1="3010.6248" x2="-4727.8057" y2="3010.6248" gradientTransform="matrix(-0.104 -0.793 0.793 -0.104 -2866.1472 -3430.7559)">
	<stop  offset="0" style="stop-color:#C1A064"/>
	<stop  offset="1" style="stop-color:#706341"/>
</linearGradient>
<path id="path410" inkscape:connector-curvature="0" class="st43" d="M13.1,5.6c0.1,0.1,0.1,0.2,0.1,0.5h-0.3c0-0.3,0-0.5,0-0.6
	C13,5.4,13.1,5.6,13.1,5.6z"/>
<path id="path412" inkscape:connector-curvature="0" class="st41" d="M12,7.2c0.1,0,0.2,0.1,0.2,0.2c-0.2,0.3-0.4,0.4-0.5,0.2
	c-0.1-0.1-0.1-0.3,0.1-0.6L12,7.2z"/>
<linearGradient id="path419_1_" gradientUnits="userSpaceOnUse" x1="-4754.3677" y1="3045.2678" x2="-4753.5679" y2="3045.2678" gradientTransform="matrix(-9.300000e-02 -0.794 0.793 -0.11 -2845.1619 -3432.8843)">
	<stop  offset="0" style="stop-color:#C1A064"/>
	<stop  offset="1" style="stop-color:#706341"/>
</linearGradient>
<path id="path419" inkscape:connector-curvature="0" class="st44" d="M12,7.2c0.1,0,0.2,0.1,0.2,0.2c-0.2,0.3-0.4,0.4-0.5,0.2
	c-0.1-0.1-0.1-0.3,0.1-0.6L12,7.2z"/>
<path id="path421" inkscape:connector-curvature="0" class="st5" d="M14.4,5h0.3c0.1,0.2,0.2,0.4,0.1,0.6s-0.2,0.3-0.4,0.2
	c-0.1-0.1-0.2-0.2-0.2-0.4S14.2,5,14.4,5z"/>
<linearGradient id="path428_1_" gradientUnits="userSpaceOnUse" x1="-4693.5391" y1="3044.7688" x2="-4692.4395" y2="3044.7688" gradientTransform="matrix(-9.500000e-02 -0.794 0.794 -9.500000e-02 -2848.9404 -3432.3333)">
	<stop  offset="0" style="stop-color:#C1A064"/>
	<stop  offset="1" style="stop-color:#706341"/>
</linearGradient>
<path id="path428" inkscape:connector-curvature="0" class="st45" d="M14.4,5h0.3c0.1,0.2,0.2,0.4,0.1,0.6s-0.2,0.3-0.4,0.2
	c-0.1-0.1-0.2-0.2-0.2-0.4S14.2,5,14.4,5z"/>
<path id="path430" inkscape:connector-curvature="0" class="st36" d="M16,4.3c-0.1-0.3,0-0.5,0.2-0.5v0.8C16.1,4.6,16,4.5,16,4.3z"
	/>
<linearGradient id="path437_1_" gradientUnits="userSpaceOnUse" x1="-4733.9365" y1="3056.6514" x2="-4732.8364" y2="3056.6514" gradientTransform="matrix(-9.200000e-02 -0.795 0.793 -0.106 -2843.2539 -3434.645)">
	<stop  offset="0" style="stop-color:#C1A064"/>
	<stop  offset="1" style="stop-color:#706341"/>
</linearGradient>
<path id="path437" inkscape:connector-curvature="0" class="st46" d="M16,4.3c-0.1-0.3,0-0.5,0.2-0.5v0.8C16.1,4.6,16,4.5,16,4.3z"
	/>
<g>
	<g>
		<g>
			<defs>
				<polygon id="SVGID_2_" points="19.9,33.5 21.2,18.9 0.3,18.9 0.3,34.2 				"/>
			</defs>
			<clipPath id="SVGID_3_">
				<use xlink:href="#SVGID_2_"  style="overflow:visible;"/>
			</clipPath>
			
				<linearGradient id="SVGID_4_" gradientUnits="userSpaceOnUse" x1="3.0719" y1="1054.9442" x2="19.424" y2="1054.9442" gradientTransform="matrix(1 0 0 1 0 -1028.1593)">
				<stop  offset="0" style="stop-color:#C2B294"/>
				<stop  offset="7.142900e-02" style="stop-color:#C7B89B"/>
				<stop  offset="0.1429" style="stop-color:#CBC1A3"/>
				<stop  offset="0.2143" style="stop-color:#D2C8AD"/>
				<stop  offset="0.2857" style="stop-color:#D8CFB6"/>
				<stop  offset="0.3571" style="stop-color:#D9D2B8"/>
				<stop  offset="0.4286" style="stop-color:#D9D2B8"/>
				<stop  offset="0.5" style="stop-color:#D9D2B8"/>
				<stop  offset="0.5714" style="stop-color:#D9D2B8"/>
				<stop  offset="0.6429" style="stop-color:#D6CFB5"/>
				<stop  offset="0.7143" style="stop-color:#D3C8AD"/>
				<stop  offset="0.7857" style="stop-color:#CDC1A6"/>
				<stop  offset="0.8571" style="stop-color:#C7B79C"/>
				<stop  offset="0.9286" style="stop-color:#BFAD8F"/>
				<stop  offset="1" style="stop-color:#BBAC89"/>
			</linearGradient>
			<path class="st47" d="M19.4,28.4c0-0.1,0-0.1,0-0.2s0-0.1,0-0.2c-0.1-0.2-0.1-0.4-0.1-0.7c0-0.1,0-0.2,0.1-0.3c0,0,0-0.1-0.1-0.1
				c-0.1-0.2-0.2-0.3-0.1-0.5c0-0.1,0.1-0.2,0.1-0.4c0-0.1,0-0.3,0-0.4s0-0.2,0-0.3c0-0.1,0-0.3,0-0.4l0,0c0-0.1,0-0.2,0-0.2
				c0-0.1-0.1-0.2-0.1-0.3c0-0.2,0-0.3,0.1-0.5c0-0.2,0-0.4,0-0.6c0-0.1,0-0.2,0.1-0.2c0-0.1,0.1-0.1,0.1-0.2s-0.1-0.2-0.1-0.3
				c-0.1-0.1-0.1-0.3-0.1-0.4v-0.1c0,0,0,0,0-0.1s0-0.2,0-0.2c0-0.1,0-0.1,0-0.2c0,0,0-0.1-0.1-0.1c-0.2-0.1-0.3,0-0.5-0.1
				c-0.2,0-0.3-0.1-0.5-0.1s-0.4,0.1-0.5,0.1c-0.2,0-0.3,0.1-0.5,0.1c-0.1,0-0.2-0.1-0.4-0.2c-0.2,0-0.3,0-0.4,0.1
				c-0.2,0.1-0.3,0.1-0.5,0.1c-0.1,0-0.1-0.1-0.1-0.1c-0.2,0.1-0.4,0.1-0.6,0.1c-0.1,0-0.3,0-0.4-0.1c-0.1-0.1-0.2-0.1-0.4-0.1
				c-0.1,0-0.3,0-0.4,0c-0.1,0-0.2,0.1-0.3,0.1l0,0c0,0,0,0-0.1,0c-0.3,0-0.6,0-0.8-0.1h-0.1l0,0h-0.1c-0.1,0-0.1,0-0.2,0
				c-0.1,0-0.1,0.1-0.2,0.1c-0.2,0.1-0.4,0.1-0.6,0c-0.1,0-0.2-0.1-0.3,0c-0.1,0-0.2,0.1-0.3,0.1c-0.2,0.1-0.4,0-0.6,0.1h-0.1
				c-0.3,0.1-0.5,0.1-0.8,0.1c-0.2,0-0.3-0.1-0.5-0.1c-0.1,0-0.3,0-0.4,0c-0.3,0-0.6,0.1-1,0.1c-0.1,0-0.1,0-0.1-0.1l0,0v-0.1l0,0
				c-0.2,0-0.4,0-0.6,0s-0.3,0-0.5,0.1c-0.1,0.1-0.3,0.1-0.4,0.1s-0.3,0-0.4-0.1s-0.2-0.1-0.3-0.2H5.2c-0.1,0-0.3,0.1-0.4,0.1
				c-0.2,0-0.3,0-0.4-0.1c-0.1,0-0.1-0.1,0-0.1c0,0,0,0-0.1,0H4.2c-0.1,0-0.1,0-0.2,0c0,0,0,0.1-0.1,0.1c-0.2,0-0.4,0-0.5-0.1
				c0,0.1-0.1,0.2-0.1,0.3c0,0.1,0.1,0.3,0.1,0.4c0.1,0.2,0,0.4-0.1,0.7c0,0.1-0.1,0.2,0,0.4c0,0.1,0.1,0.2,0.1,0.3
				c0,0.1,0,0.2-0.1,0.3c0.2,0.2,0,0.5,0,0.8c0,0.2,0.1,0.3,0.1,0.5s0,0.4,0.1,0.5c0,0.2,0.1,0.4,0.1,0.5s0,0.2,0,0.3
				c0,0.1,0,0.2,0,0.3c0,0.3-0.1,0.5-0.2,0.7v0.1c0,0.1,0,0.2,0,0.3l0,0l0,0c0,0,0.1,0,0.1,0.1c0.1,0.1,0,0.3-0.1,0.4
				c0,0-0.1,0.1-0.1,0.2s0,0.2,0,0.3c0,0.1,0.1,0.2,0.2,0.3c0,0,0,0,0.1,0.1v0.1c0,0,0,0,0.1,0c0.1,0.1,0,0.3,0,0.4l0,0l0,0
				c0.1,0,0.1,0.1,0.1,0.1c0,0.1-0.1,0.2-0.2,0.3c0,0.1,0,0.1,0,0.2s0,0.1,0,0.2c0.1,0.1,0.1,0.1,0.2,0.2c0.1,0.2,0.1,0.4,0,0.6
				c0,0.1-0.1,0.2-0.1,0.3c0,0.1-0.1,0.1-0.1,0.2s0.1,0.1,0.1,0.2c0,0,0,0.1,0,0.2h0.1c0.1,0,0.2,0.1,0.2,0.1c0.2,0.1,0.4,0,0.6,0
				l0,0h0.1c0.2,0,0.3,0,0.4-0.1C5.2,32,5.3,32,5.4,32c0.1,0,0.2,0.1,0.4,0.1c0.1,0,0.3,0,0.4,0c0.2,0,0.3,0,0.5,0s0.3,0,0.4-0.1
				c0.1,0,0.2,0,0.3,0c0.1,0,0.2,0,0.3,0l0,0c0.1,0,0.2,0,0.4,0c0.1,0,0.2,0,0.3-0.1c0.2-0.1,0.4-0.1,0.5,0l0,0c0,0,0,0,0.1,0l0,0
				c0.4-0.2,0.8-0.2,1.3-0.2c0.1,0,0.1,0.1,0.1,0.1l0,0c0.1-0.2,0.5-0.1,0.7-0.1c0.1,0,0.3,0.1,0.4,0.1c0.2,0,0.5,0,0.7,0h0.1l0,0
				c0.1,0,0.2-0.1,0.4-0.1s0.3,0.1,0.5,0.1s0.3-0.1,0.5-0.1s0.3,0,0.5,0c0.1,0,0.1,0.1,0.1,0.1l0,0c0.1,0,0.2-0.1,0.3-0.1
				s0.2,0,0.3,0l0,0c0.1,0,0.2-0.1,0.3-0.1s0.3,0,0.4,0.1c0.1,0,0.3,0,0.4,0c0.1,0,0.2,0,0.4,0c0.2,0,0.4-0.1,0.6-0.1
				c0.1,0,0.2,0,0.3,0.1c0.3,0,0.6,0,0.8-0.1c0.2,0,0.4-0.1,0.5,0c0.1,0,0.3,0.1,0.4,0.1c0,0,0.1,0,0.1-0.1c0.1,0,0.2-0.1,0.2-0.1
				c0-0.1-0.1-0.2-0.1-0.3c0-0.1,0-0.2,0-0.3c0-0.1,0-0.2-0.1-0.3c0-0.2,0-0.3,0-0.5s0.1-0.4,0.1-0.5s0-0.3,0-0.4l0,0
				c0-0.1-0.1-0.1-0.1-0.2s0-0.2,0.1-0.3C19.4,28.7,19.5,28.6,19.4,28.4z"/>
		</g>
	</g>
</g>
<text transform="matrix(1 0 0 1 5.6614 25.8774)" class="st48 st49">Magical</text>
<text transform="matrix(1 0 0 1 5.6614 29.0775)" class="st48 st49">Stamina</text>
<radialGradient id="path159_1_" cx="-934.9934" cy="-1119.0677" r="24.783" gradientTransform="matrix(0.607 -0.522 -0.522 -0.607 -13.1707 -1136.4586)" gradientUnits="userSpaceOnUse">
	<stop  offset="0" style="stop-color:#FFFFFF;stop-opacity:0.949"/>
	<stop  offset="1" style="stop-color:#8A9B9E"/>
</radialGradient>
<path id="path159_2_" inkscape:connector-curvature="0" class="st50" d="M15.4,15.5c-2.8-1.1-5.6-1-8.4,0.2C4.2,17,2.2,19,1.1,21.9
	S0,27.6,1.2,30.5c1.2,2.8,3.2,4.8,6,5.9c2.8,1.1,5.7,1,8.4-0.2c2.8-1.3,4.8-3.3,5.9-6.2c1.1-2.9,1.1-5.7-0.1-8.5
	C20.2,18.5,18.2,16.6,15.4,15.5L15.4,15.5z M0.8,21.9c1.1-2.9,3.1-5,6-6.3s5.7-1.4,8.6-0.2c2.9,1.1,4.9,3.1,6.2,6
	c1.2,2.9,1.3,5.8,0.1,8.7c-1.1,2.9-3.1,5-6,6.3s-5.7,1.4-8.6,0.2s-4.9-3.1-6.2-6C-0.3,27.8-0.3,24.9,0.8,21.9L0.8,21.9z"/>
</svg>
