<?xml version="1.0" encoding="utf-8"?>
<!-- Generator: Adobe Illustrator 25.0.0, SVG Export Plug-In . SVG Version: 6.00 Build 0)  -->
<svg version="1.1"
	 id="svg2" xmlns:cc="http://creativecommons.org/ns#" xmlns:dc="http://purl.org/dc/elements/1.1/" xmlns:inkscape="http://www.inkscape.org/namespaces/inkscape" xmlns:ns1="http://sozi.baierouge.fr" xmlns:rdf="http://www.w3.org/1999/02/22-rdf-syntax-ns#" xmlns:sodipodi="http://sodipodi.sourceforge.net/DTD/sodipodi-0.dtd"
	 xmlns="http://www.w3.org/2000/svg" xmlns:xlink="http://www.w3.org/1999/xlink" x="0px" y="0px" viewBox="0 0 24.2 40.2"
	 style="enable-background:new 0 0 24.2 40.2;" xml:space="preserve">
<style type="text/css">
	.st0{fill-rule:evenodd;clip-rule:evenodd;fill:url(#path30_1_);}
	.st1{fill-rule:evenodd;clip-rule:evenodd;fill:none;}
	.st2{filter:url(#Adobe_OpacityMaskFilter);}
	.st3{clip-path:url(#SVGID_2_);fill-opacity:0.7695;}
	.st4{mask:url(#mask340_1_);}
	.st5{clip-path:url(#SVGID_4_);}
	.st6{clip-path:url(#SVGID_6_);}
	.st7{fill-rule:evenodd;clip-rule:evenodd;fill:#333362;}
	.st8{fill-rule:evenodd;clip-rule:evenodd;fill:#C8A1FF;}
	.st9{fill-rule:evenodd;clip-rule:evenodd;fill:url(#path410_1_);}
	.st10{filter:url(#Adobe_OpacityMaskFilter_1_);}
	.st11{clip-path:url(#SVGID_8_);fill-opacity:0.4883;}
	.st12{mask:url(#mask420_1_);}
	.st13{clip-path:url(#SVGID_11_);}
	.st14{clip-path:url(#SVGID_14_);}
	.st15{fill-rule:evenodd;clip-rule:evenodd;fill:url(#path454_1_);}
	.st16{fill-rule:evenodd;clip-rule:evenodd;fill:url(#path472_1_);}
	.st17{fill-rule:evenodd;clip-rule:evenodd;fill:url(#path494_1_);}
	.st18{fill-rule:evenodd;clip-rule:evenodd;fill:url(#path514_1_);}
	.st19{filter:url(#Adobe_OpacityMaskFilter_2_);}
	.st20{clip-path:url(#SVGID_16_);fill-opacity:0.4805;}
	.st21{mask:url(#mask524_1_);}
	.st22{clip-path:url(#SVGID_18_);}
	.st23{clip-path:url(#SVGID_20_);}
	.st24{fill-rule:evenodd;clip-rule:evenodd;fill:#FFFFFF;}
	.st25{fill-rule:evenodd;clip-rule:evenodd;fill:#F8EFE5;}
	.st26{fill-rule:evenodd;clip-rule:evenodd;fill:url(#path598_1_);}
	.st27{fill-rule:evenodd;clip-rule:evenodd;fill:url(#path616_1_);}
	.st28{fill-rule:evenodd;clip-rule:evenodd;fill:url(#path634_1_);}
	.st29{fill-rule:evenodd;clip-rule:evenodd;fill:url(#path652_1_);}
	.st30{fill-rule:evenodd;clip-rule:evenodd;fill:url(#path688_1_);}
	.st31{fill-rule:evenodd;clip-rule:evenodd;fill:url(#path706_1_);}
	.st32{fill-rule:evenodd;clip-rule:evenodd;fill:url(#path724_1_);}
	.st33{clip-path:url(#SVGID_22_);fill:url(#SVGID_23_);}
	.st34{fill:#3F7F00;}
	.st35{opacity:0.97;}
	.st36{fill:#7F3F00;fill-opacity:0;stroke:#3F7F00;stroke-width:0.25;stroke-miterlimit:10;}
	.st37{opacity:0.5;fill:#7FFF00;enable-background:new    ;}
	.st38{fill:url(#imagebot_136_1_);}
	.st39{fill:url(#imagebot_134_1_);}
	.st40{fill:url(#imagebot_132_1_);}
	.st41{fill:url(#imagebot_130_1_);}
	.st42{fill:url(#imagebot_128_1_);}
	.st43{fill:url(#imagebot_126_1_);}
	.st44{fill:url(#imagebot_124_1_);}
	.st45{fill:url(#imagebot_122_1_);}
	.st46{fill:url(#imagebot_120_1_);}
	.st47{fill:url(#imagebot_118_1_);}
	.st48{fill:url(#imagebot_116_1_);}
	.st49{fill:url(#imagebot_114_1_);}
	.st50{fill:url(#imagebot_112_1_);}
	.st51{fill:url(#imagebot_110_1_);}
	.st52{fill:url(#imagebot_108_1_);}
	.st53{fill:url(#imagebot_106_1_);}
	.st54{fill:url(#imagebot_104_1_);}
	.st55{fill:url(#imagebot_102_1_);}
	.st56{fill:url(#imagebot_100_1_);}
	.st57{fill:url(#imagebot_98_1_);}
	.st58{fill:url(#imagebot_96_1_);}
	.st59{fill:url(#imagebot_84_1_);}
	.st60{fill:url(#imagebot_78_1_);}
	.st61{fill:url(#imagebot_72_1_);}
	.st62{fill:url(#imagebot_66_1_);}
	.st63{fill:url(#imagebot_60_1_);}
	.st64{fill:url(#imagebot_54_1_);}
	.st65{fill:url(#imagebot_48_1_);}
	.st66{fill:url(#imagebot_34_1_);}
	.st67{fill:url(#imagebot_10_1_);}
	
		.st68{opacity:0.5;fill:#7FFF00;stroke:#7FFF00;stroke-linecap:round;stroke-linejoin:round;stroke-opacity:0;enable-background:new    ;}
</style>
<g>
	<g id="g22">
		
			<linearGradient id="path30_1_" gradientUnits="userSpaceOnUse" x1="9.094947e-13" y1="18.7444" x2="24.1988" y2="18.7444" gradientTransform="matrix(-1 0 0 -1 24.1988 41.9997)">
			<stop  offset="0" style="stop-color:#3F007F"/>
			<stop  offset="0.1915" style="stop-color:#55149A"/>
			<stop  offset="0.736" style="stop-color:#914AE2"/>
			<stop  offset="0.9888" style="stop-color:#A95FFF"/>
		</linearGradient>
		<path id="path30" inkscape:connector-curvature="0" class="st0" d="M1.9,10c-0.7,0.7-1.2,1.4-1.4,2.1C0.2,12.9,0,14,0,15.4
			c0,1.3,0.1,4.5,0.4,9.6c0.2,4.8,0.4,7.7,0.5,8.6c0.1,1.1,0.6,2.1,1.4,3.1C3.3,38,5,39,7.1,39.6c1.7,0.5,3.4,0.7,5,0.6
			c1.6,0.1,3.3-0.1,5-0.6c2.1-0.6,3.8-1.6,4.8-2.9c0.8-1,1.3-2,1.4-3.1c0.1-0.9,0.3-3.8,0.5-8.6c0.2-5.1,0.4-8.3,0.4-9.6
			c0-1.4-0.2-2.5-0.5-3.3c-0.2-0.6-0.7-1.3-1.4-2.1c-1.2-1.3-2.1-2.5-2.8-3.7l-7.5,0.4L4.6,6.3C3.9,7.5,3,8.8,1.9,10z"/>
	</g>
	<g id="g32">
		<g id="g34">
			<g id="g40">
				<path id="path48" inkscape:connector-curvature="0" class="st1" d="M21.6,10.4c0.6,0.7,1.1,1.4,1.3,2c0.3,0.8,0.4,1.9,0.4,3.2
					c0,1.2-0.1,4.4-0.4,9.4c-0.2,4.4-0.3,7.2-0.4,8.3c-0.1,1.1-0.5,2.1-1.3,3c-1.1,1.3-2.6,2.3-4.6,2.9c-1.6,0.5-3.2,0.7-4.7,0.6
					c-1.5,0.1-3.1-0.1-4.7-0.6c-2-0.6-3.5-1.5-4.6-2.9c-0.8-1-1.2-2-1.3-3C1.4,32.5,1.2,29.7,1,25c-0.2-4.9-0.4-8-0.4-9.4
					s0.2-2.4,0.4-3.2c0.2-0.6,0.7-1.3,1.3-2C3.6,9,4.4,7.9,5,6.7L12,7.1l7-0.4C19.7,8,20.6,9.2,21.6,10.4z"/>
			</g>
		</g>
	</g>
	<g id="g332">
		<defs>
			<filter id="Adobe_OpacityMaskFilter" filterUnits="userSpaceOnUse" x="2.5" y="6.2" width="20" height="6.3">
				<feColorMatrix  type="matrix" values="1 0 0 0 0  0 1 0 0 0  0 0 1 0 0  0 0 0 1 0"/>
			</filter>
		</defs>
		<mask maskUnits="userSpaceOnUse" x="2.5" y="6.2" width="20" height="6.3" id="mask340_1_">
			<g id="g342_1_" class="st2">
				<g>
					<defs>
						<rect id="SVGID_1_" x="2" y="22.3" width="16" height="5"/>
					</defs>
					<clipPath id="SVGID_2_">
						<use xlink:href="#SVGID_1_"  style="overflow:visible;"/>
					</clipPath>
					<g id="g344_1_">
						<path id="path346_1_" inkscape:connector-curvature="0" class="st3" d="M2,22.3h16v5H2V22.3z"/>
					</g>
				</g>
			</g>
		</mask>
		<g id="g348" class="st4">
			<g id="g360">
				<g>
					<defs>
						<rect id="SVGID_3_" x="2.5" y="6.3" width="20" height="6.2"/>
					</defs>
					<clipPath id="SVGID_4_">
						<use xlink:href="#SVGID_3_"  style="overflow:visible;"/>
					</clipPath>
					<g id="g362" class="st5">
						<g id="g364" transform="translate(0 -.66858)">
							<g id="g368">
								<g>
									<defs>
										<rect id="SVGID_5_" x="2.5" y="6.9" width="20" height="6.2"/>
									</defs>
									<clipPath id="SVGID_6_">
										<use xlink:href="#SVGID_5_"  style="overflow:visible;"/>
									</clipPath>
									<g id="g370" class="st6">
										<g id="g372">
											<path id="path374" inkscape:connector-curvature="0" class="st7" d="M20.6,8.3c0.2,0.6,0.7,1.3,1.5,2.3
												c-0.5,0.5-1,0.9-1.7,1.3c-0.4,0.2-1,0.4-1.8,0.4c-1,0.1-1.6,0.2-1.8,0.3c-0.4,0.1-1,0.2-1.8,0.1
												c-0.9-0.1-1.5-0.2-1.9-0.2c-0.2,0-0.8-0.2-1.6-0.5c-0.8-0.3-2-0.4-3.4-0.5c-1.3-0.1-2.3-0.2-2.9-0.5c0,0-0.4-0.2-1-0.8
												C3.8,10,3.3,9.9,2.7,9.9c0.5-1,1-1.7,1.4-2.2V7.4C14.9,7.4,20.4,7.7,20.6,8.3z"/>
										</g>
									</g>
								</g>
							</g>
						</g>
					</g>
				</g>
			</g>
		</g>
	</g>
	<g id="g376">
		<g id="g378">
			<g id="g384">
				<path id="path392" inkscape:connector-curvature="0" class="st8" d="M20.4,6.2c0.2,0.6,0.6,1.1,1.3,1.3c0.3,0.1,0.6,0.2,0.9,0.2
					c0,0.2-0.1,0.3-0.2,0.5c-0.2,0.3-0.5,0.5-1.1,0.6c-0.2,0-0.4,0.1-0.6,0.4c-0.2,0.2-0.5,0.3-0.8,0.3c-0.8,0-1.7,0.1-2.5,0.3
					c-0.3,0.1-0.8,0.3-1.5,0.6c-0.6,0.3-1.1,0.5-1.4,0.5c-0.8-0.1-1.4-0.2-1.7-0.1c-0.6,0.1-1.1,0-1.7-0.2C9.9,10,8.7,10,7.5,10.2
					c-1,0.2-2,0-2.9-0.7C4.2,9.2,3.8,9.1,3.5,9C3,9,2.7,9,2.6,8.9C2.4,8.7,2.1,8.5,1.9,8.1L1.7,7.7c0.9-0.3,1.5-0.6,1.7-0.9
					c0.3-0.3,0.6-1,0.9-2.3c2.6,0,5.2,0.1,7.9,0.2C17.5,5.1,20.2,5.6,20.4,6.2z"/>
			</g>
		</g>
	</g>
	<g id="g394">
		<g id="g396">
			<g id="g402">
				<linearGradient id="path410_1_" gradientUnits="userSpaceOnUse" x1="2.0513" y1="8.5006" x2="22.6513" y2="8.5006">
					<stop  offset="0.986" style="stop-color:#3F007F"/>
					<stop  offset="0.9866" style="stop-color:#55149A"/>
					<stop  offset="0.9881" style="stop-color:#914AE2"/>
					<stop  offset="0.9888" style="stop-color:#A95FFF"/>
				</linearGradient>
				<path id="path410" inkscape:connector-curvature="0" class="st9" d="M22.7,7.7c0,0.1-0.1,0.3-0.2,0.4c-0.2,0.3-0.5,0.5-1,0.6
					c-0.4-0.3-1-0.9-1.6-1.6c-0.2-0.2-0.5-0.2-1,0.1l-0.6,0.5l0.2,1.9l-1,0.2c-0.3,0.1-0.8,0.3-1.4,0.6c-0.6,0.3-1,0.4-1.3,0.5
					L15,10c0.3-0.7,0.5-1.3,0.6-2l-3.5,0c-0.1,0.4-0.4,0.9-0.9,1.5c-0.2,0.3-0.4,0.6-0.6,0.8c-1.1-0.3-2.2-0.3-3.1,0
					c-0.2,0.1-0.4,0.1-0.8,0.1L7.3,10c1-0.5,1.7-1.2,2.1-2.1L8.2,7.3L6.9,7.5l-1,0.7c-0.3,0.3-1,0.6-1.9,1c-0.6,0-1-0.1-1.3-0.3
					L2.1,8.3l0.7-0.2c0.9-0.2,1.8-0.8,2.9-1.9l15.1,0.5c0.4,0.6,0.9,0.9,1.5,0.9C22.3,7.6,22.7,7.7,22.7,7.7z"/>
			</g>
		</g>
	</g>
	<g id="g412">
		<defs>
			<filter id="Adobe_OpacityMaskFilter_1_" filterUnits="userSpaceOnUse" x="2.5" y="5" width="18.8" height="5">
				<feColorMatrix  type="matrix" values="1 0 0 0 0  0 1 0 0 0  0 0 1 0 0  0 0 0 1 0"/>
			</filter>
		</defs>
		<mask maskUnits="userSpaceOnUse" x="2.5" y="5" width="18.8" height="5" id="mask420_1_">
			<g id="g422_1_" class="st10">
				<g>
					<defs>
						<rect id="SVGID_7_" x="2" y="24.3" width="15" height="4"/>
					</defs>
					<clipPath id="SVGID_8_">
						<use xlink:href="#SVGID_7_"  style="overflow:visible;"/>
					</clipPath>
					<g id="g424_1_">
						<path id="path426_1_" inkscape:connector-curvature="0" class="st11" d="M2,24.3h15v4H2V24.3z"/>
					</g>
				</g>
			</g>
		</mask>
		<g id="g428" class="st12">
			<g id="g440">
				<g>
					<defs>
						<rect id="SVGID_9_" x="2.5" y="5" width="18.8" height="5"/>
					</defs>
					<linearGradient id="SVGID_10_" gradientUnits="userSpaceOnUse" x1="21.25" y1="7.5" x2="2.5" y2="7.5">
						<stop  offset="0" style="stop-color:#3F007F"/>
						<stop  offset="0" style="stop-color:#7B49B5"/>
						<stop  offset="0" style="stop-color:#B791EA"/>
						<stop  offset="0" style="stop-color:#CFAEFF"/>
					</linearGradient>
					<use xlink:href="#SVGID_9_"  style="overflow:visible;fill:url(#SVGID_10_);"/>
					<clipPath id="SVGID_11_">
						<use xlink:href="#SVGID_9_"  style="overflow:visible;"/>
					</clipPath>
					<g id="g442" class="st13">
						<g id="g444" transform="translate(0 -.66858)">
							<g id="g448">
								<g>
									<defs>
										<rect id="SVGID_12_" x="2.5" y="5.7" width="18.8" height="5"/>
									</defs>
									<linearGradient id="SVGID_13_" gradientUnits="userSpaceOnUse" x1="21.25" y1="8.1681" x2="2.5" y2="8.1681">
										<stop  offset="0" style="stop-color:#3F007F"/>
										<stop  offset="0" style="stop-color:#55149A"/>
										<stop  offset="0" style="stop-color:#914AE2"/>
										<stop  offset="0" style="stop-color:#A95FFF"/>
									</linearGradient>
									<use xlink:href="#SVGID_12_"  style="overflow:visible;fill:url(#SVGID_13_);"/>
									<clipPath id="SVGID_14_">
										<use xlink:href="#SVGID_12_"  style="overflow:visible;"/>
									</clipPath>
									<g id="g450" class="st14">
										<g id="g452">
											<linearGradient id="path454_1_" gradientUnits="userSpaceOnUse" x1="21.1525" y1="8.3233" x2="3.4525" y2="8.3233">
												<stop  offset="0" style="stop-color:#3F007F"/>
												<stop  offset="0" style="stop-color:#55149A"/>
												<stop  offset="0" style="stop-color:#914AE2"/>
												<stop  offset="0" style="stop-color:#A95FFF"/>
											</linearGradient>
											<path id="path454" inkscape:connector-curvature="0" class="st15" d="M20.8,7.4c0.2,0.3,0.3,0.5,0.4,0.7
												c0,0.1-0.1,0.2-0.3,0.3c-0.1,0.2-0.4,0.3-0.7,0.4c-0.5,0.1-0.9,0.2-1.3,0.3c-1.8,0.2-2.9,0.3-3.4,0.5
												c-0.6,0.3-1.2,0.4-2,0.5c-0.2,0-0.5,0-0.9-0.2c-0.5-0.2-1-0.4-1.3-0.5c-1.1-0.3-2.1-0.2-3.1,0.2C7.7,9.9,7.2,9.7,6.8,9.2
												C6.8,9.1,6.4,9,5.8,8.9c-0.6-0.1-1-0.2-1.2-0.5c-0.8-0.6-1.1-1.3-1.1-2C14.7,6.6,20.4,6.9,20.8,7.4z"/>
										</g>
									</g>
								</g>
							</g>
						</g>
					</g>
				</g>
			</g>
		</g>
	</g>
	<g id="g456">
		<g id="g458">
			<g id="g464">
				
					<linearGradient id="path472_1_" gradientUnits="userSpaceOnUse" x1="3.3013" y1="35.5504" x2="20.7765" y2="35.5504" gradientTransform="matrix(1 0 0 -1 -4.097819e-07 41.9997)">
					<stop  offset="0" style="stop-color:#FFE5A3"/>
					<stop  offset="1" style="stop-color:#87733D"/>
				</linearGradient>
				<path id="path472" inkscape:connector-curvature="0" class="st16" d="M20.8,6.5c0,0.6-0.9,1.1-2.5,1.4c-1.7,0.4-3.8,0.6-6.2,0.6
					c-2.4,0-4.5-0.2-6.2-0.6C4.2,7.5,3.3,7,3.3,6.5S4.2,5.4,5.9,5c1.7-0.4,3.7-0.6,6.2-0.6c2.4,0,4.5,0.2,6.2,0.6
					C20,5.4,20.8,5.9,20.8,6.5z"/>
			</g>
		</g>
	</g>
	<g id="g474">
		<g id="g476">
			<g id="g482">
				
					<linearGradient id="path494_1_" gradientUnits="userSpaceOnUse" x1="3.2525" y1="37.2497" x2="20.9275" y2="37.2497" gradientTransform="matrix(1 0 0 -1 -4.097819e-07 41.9997)">
					<stop  offset="0" style="stop-color:#2B2BE2"/>
					<stop  offset="0.3255" style="stop-color:#3045FF"/>
					<stop  offset="0.6" style="stop-color:#3241F6"/>
					<stop  offset="1" style="stop-color:#3636E0"/>
				</linearGradient>
				<path id="path494" inkscape:connector-curvature="0" class="st17" d="M21,2.1v3.6c-0.1,0.4-1,0.8-2.7,1.2
					c-1.8,0.4-3.9,0.6-6.2,0.6c-2.3,0-4.4-0.2-6.2-0.6C4.2,6.5,3.3,6.1,3.3,5.6V2.1C3.3,2.1,21,2.1,21,2.1z"/>
			</g>
		</g>
	</g>
	<g id="g496">
		<g id="g498">
			<g id="g504">
				
					<linearGradient id="path514_1_" gradientUnits="userSpaceOnUse" x1="-1872.7202" y1="1151.1405" x2="-1856.7017" y2="1151.1405" gradientTransform="matrix(-0.9973 7.340000e-02 7.340000e-02 0.9973 -1932.6201 -1008.9752)">
					<stop  offset="0" style="stop-color:#3B5BFF"/>
					<stop  offset="0.8157" style="stop-color:#3B52FF"/>
					<stop  offset="1" style="stop-color:#3B4FFF"/>
				</linearGradient>
				<path id="path514" inkscape:connector-curvature="0" class="st18" d="M20.9,2.1c0,0.5-0.9,0.9-2.6,1.2c-1.7,0.3-3.8,0.5-6.2,0.5
					c-2.5,0-4.6-0.2-6.3-0.5C4.1,3,3.2,2.6,3.2,2.1c0-0.5,0.9-0.9,2.6-1.2c1.7-0.3,3.8-0.5,6.3-0.5c2.4,0,4.5,0.2,6.2,0.5
					C20,1.3,20.9,1.7,20.9,2.1z"/>
			</g>
		</g>
	</g>
	<g id="g516">
		<defs>
			<filter id="Adobe_OpacityMaskFilter_2_" filterUnits="userSpaceOnUse" x="3.7" y="6.2" width="11.2" height="2.5">
				<feColorMatrix  type="matrix" values="1 0 0 0 0  0 1 0 0 0  0 0 1 0 0  0 0 0 1 0"/>
			</filter>
		</defs>
		<mask maskUnits="userSpaceOnUse" x="3.7" y="6.2" width="11.2" height="2.5" id="mask524_1_">
			<g id="g526_1_" class="st19">
				<g>
					<defs>
						<rect id="SVGID_15_" x="3" y="25.3" width="9" height="2"/>
					</defs>
					<clipPath id="SVGID_16_">
						<use xlink:href="#SVGID_15_"  style="overflow:visible;"/>
					</clipPath>
					<g id="g528_1_">
						<path id="path530_1_" inkscape:connector-curvature="0" class="st20" d="M3,25.3h9v2H3V25.3z"/>
					</g>
				</g>
			</g>
		</mask>
		<g id="g532" class="st21">
			<g id="g544">
				<g>
					<defs>
						<rect id="SVGID_17_" x="3.7" y="6.3" width="11.2" height="2.5"/>
					</defs>
					<clipPath id="SVGID_18_">
						<use xlink:href="#SVGID_17_"  style="overflow:visible;"/>
					</clipPath>
					<g id="g546" class="st22">
						<g id="g548" transform="translate(0 -.66858)">
							<g id="g552">
								<g>
									<defs>
										<rect id="SVGID_19_" x="3.7" y="6.9" width="11.2" height="2.5"/>
									</defs>
									<clipPath id="SVGID_20_">
										<use xlink:href="#SVGID_19_"  style="overflow:visible;"/>
									</clipPath>
									<g id="g554" class="st23">
										<g id="g556">
											<path id="path558" inkscape:connector-curvature="0" class="st24" d="M4.8,8c0.6,0.2,1.7,0.4,3.1,0.6
												C9.6,8.8,11.6,9,13.8,9c-0.1,0.2-1.1,0.2-3.2,0.1C7.9,9,5.9,8.7,4.6,8.2C4.4,8.1,4.3,8,4.3,8C4.4,7.9,4.6,7.9,4.8,8z"/>
										</g>
									</g>
								</g>
							</g>
						</g>
					</g>
				</g>
			</g>
		</g>
	</g>
	<path id="path560" inkscape:connector-curvature="0" class="st25" d="M4.6,36.8c0.7,0.4,1.1,0.7,1.2,1.1c0.1,0.4,0,0.6-0.2,0.6
		c-0.4,0-1.1-0.4-1.9-1.2c-0.4-0.4-0.4-0.6-0.1-0.7C3.8,36.5,4.2,36.6,4.6,36.8z"/>
	<path id="path562" inkscape:connector-curvature="0" class="st25" d="M7.2,38.1c0.5,0.1,0.6,0.3,0.4,0.6C7.4,39,7.2,39,7,38.8
		c-0.2-0.1-0.3-0.3-0.3-0.5C6.7,38.1,6.9,38.1,7.2,38.1z"/>
	<g id="g564">
		<g id="g566">
			<g id="g572">
				<path id="path580" inkscape:connector-curvature="0" class="st8" d="M20.9,6c-0.3,0.4-1.1,0.8-2.3,1.1c-1.7,0.4-3.9,0.6-6.7,0.7
					C8,7.8,5.2,7.3,3.3,6.5C3,6.3,2.8,5.7,2.8,4.6c0-0.9,0-1.6,0.1-2.2c0.1-0.6,0.8-1.1,2-1.6C6.5,0.3,8.7,0,11.5,0
					c3.1,0,5.6,0.2,7.3,0.8c1.6,0.5,2.4,1.1,2.5,1.8C21.5,4.3,21.3,5.4,20.9,6z"/>
			</g>
		</g>
	</g>
	<g id="g582">
		<g id="g584">
			<g id="g590">
				<linearGradient id="path598_1_" gradientUnits="userSpaceOnUse" x1="21.3475" y1="4.9481" x2="15.7525" y2="4.9481">
					<stop  offset="0.986" style="stop-color:#3F007F"/>
					<stop  offset="0.9866" style="stop-color:#55149A"/>
					<stop  offset="0.9881" style="stop-color:#914AE2"/>
					<stop  offset="0.9888" style="stop-color:#A95FFF"/>
				</linearGradient>
				<path id="path598" inkscape:connector-curvature="0" class="st26" d="M21.3,2.5l0,0.9c-1.4,1.3-2.3,2.3-2.7,3l-0.4,0.7
					c-0.9,0.2-1.7,0.3-2.5,0.4c1.7-2.1,3-3.5,4-4.1C20.5,3,21,2.6,21.2,2.3L21.3,2.5z"/>
			</g>
		</g>
	</g>
	<g id="g600">
		<g id="g602">
			<g id="g608">
				<linearGradient id="path616_1_" gradientUnits="userSpaceOnUse" x1="12.5487" y1="2.9488" x2="2.7975" y2="2.9488">
					<stop  offset="0.986" style="stop-color:#3F007F"/>
					<stop  offset="0.9866" style="stop-color:#55149A"/>
					<stop  offset="0.9881" style="stop-color:#914AE2"/>
					<stop  offset="0.9888" style="stop-color:#A95FFF"/>
				</linearGradient>
				<path id="path616" inkscape:connector-curvature="0" class="st27" d="M4.1,2.7L9.6,0l2.9,0c-1.4,0.8-3,1.6-4.8,2.3
					C7,2.7,6.2,2.9,5.5,3.1C4.4,4,3.6,5,3,5.9C2.9,5.5,2.8,4.9,2.8,4C2.9,3.9,2.9,3.8,3,3.8C3.3,3.4,3.7,3,4.1,2.7z"/>
			</g>
		</g>
	</g>
	<g id="g618">
		<g id="g620">
			<g id="g626">
				<linearGradient id="path634_1_" gradientUnits="userSpaceOnUse" x1="17.5" y1="3.7744" x2="4.5513" y2="3.7744">
					<stop  offset="0.986" style="stop-color:#3F007F"/>
					<stop  offset="0.9866" style="stop-color:#55149A"/>
					<stop  offset="0.9881" style="stop-color:#914AE2"/>
					<stop  offset="0.9888" style="stop-color:#A95FFF"/>
				</linearGradient>
				<path id="path634" inkscape:connector-curvature="0" class="st28" d="M11.7,1.9c1-0.4,2.1-1,3.3-1.8l2.5,0.4
					c-2,1.2-3.3,1.9-3.8,2.1l-2.9,1.2C9.8,4.2,8.9,5,8.1,5.9L6.9,7.5C6.3,7.3,5.6,7.2,4.6,6.9c1-1.2,1.8-2.1,2.5-2.7
					c0.4-0.3,0.7-0.5,1-0.6C8,3.6,11.7,1.9,11.7,1.9z"/>
			</g>
		</g>
	</g>
	<g id="g636">
		<g id="g638">
			<g id="g644">
				<linearGradient id="path652_1_" gradientUnits="userSpaceOnUse" x1="20.6" y1="4.2987" x2="9.7512" y2="4.2988">
					<stop  offset="0.986" style="stop-color:#3F007F"/>
					<stop  offset="0.9866" style="stop-color:#55149A"/>
					<stop  offset="0.9881" style="stop-color:#914AE2"/>
					<stop  offset="0.9888" style="stop-color:#A95FFF"/>
				</linearGradient>
				<path id="path652" inkscape:connector-curvature="0" class="st29" d="M12.3,4.6l6.8-3.8c0.6,0.2,1,0.4,1.4,0.7l-3.8,2
					c-1.6,0.8-2.8,1.8-3.7,3.1l-0.8,1.1l-2.6,0C10.8,6.2,11.6,5.1,12.3,4.6z"/>
			</g>
		</g>
	</g>
	<g id="g654">
		<g id="g656">
			<g id="g662">
				<path id="path670" inkscape:connector-curvature="0" class="st8" d="M12.2,3.8C7.6,3.8,4.6,3.2,3,2.2c0.3-0.6,1-1.1,2.3-1.4
					C6.8,0.2,8.9,0,11.5,0c5.5,0,8.7,0.7,9.6,2.1C19.8,3.2,16.8,3.8,12.2,3.8z"/>
			</g>
		</g>
	</g>
	<g id="g672">
		<g id="g674">
			<g id="g680">
				<linearGradient id="path688_1_" gradientUnits="userSpaceOnUse" x1="12.5487" y1="1.5744" x2="4.1012" y2="1.5744">
					<stop  offset="0.986" style="stop-color:#3F007F"/>
					<stop  offset="0.9866" style="stop-color:#55149A"/>
					<stop  offset="0.9881" style="stop-color:#914AE2"/>
					<stop  offset="0.9888" style="stop-color:#A95FFF"/>
				</linearGradient>
				<path id="path688" inkscape:connector-curvature="0" class="st30" d="M4.1,2.7L9.6,0l2.9,0c-1.4,0.8-3,1.6-4.8,2.3L5.5,3.1
					L4.1,2.7C4.1,2.7,4.1,2.7,4.1,2.7z"/>
			</g>
		</g>
	</g>
	<g id="g690">
		<g id="g692">
			<g id="g698">
				<linearGradient id="path706_1_" gradientUnits="userSpaceOnUse" x1="17.5" y1="1.9238" x2="7.9975" y2="1.9238">
					<stop  offset="0.986" style="stop-color:#3F007F"/>
					<stop  offset="0.9866" style="stop-color:#55149A"/>
					<stop  offset="0.9881" style="stop-color:#914AE2"/>
					<stop  offset="0.9888" style="stop-color:#A95FFF"/>
				</linearGradient>
				<path id="path706" inkscape:connector-curvature="0" class="st31" d="M17.5,0.4C17,0.6,16.2,1,15.2,1.5c-1.1,0.6-1.8,0.9-2,1
					l-2.4,1.2L8,3.5l3.8-1.6c1-0.4,2.1-1,3.3-1.8v0.1l1.4,0.1l0.9,0.2C17.3,0.4,17.5,0.4,17.5,0.4z"/>
			</g>
		</g>
	</g>
	<g id="g708">
		<g id="g710">
			<g id="g716">
				<linearGradient id="path724_1_" gradientUnits="userSpaceOnUse" x1="20.6" y1="2.275" x2="13.8475" y2="2.275">
					<stop  offset="0.986" style="stop-color:#3F007F"/>
					<stop  offset="0.9866" style="stop-color:#55149A"/>
					<stop  offset="0.9881" style="stop-color:#914AE2"/>
					<stop  offset="0.9888" style="stop-color:#A95FFF"/>
				</linearGradient>
				<path id="path724" inkscape:connector-curvature="0" class="st32" d="M13.8,3.7l5.3-2.9L20,1.2L20,1.2l0.5,0.3h0l-3.5,1.9
					C17.1,3.5,13.8,3.7,13.8,3.7z"/>
			</g>
		</g>
	</g>
	<g>
		<g>
			<defs>
				<polygon id="SVGID_21_" points="22.2,31.2 23.6,14 -1,14 -1,32.1 				"/>
			</defs>
			<clipPath id="SVGID_22_">
				<use xlink:href="#SVGID_21_"  style="overflow:visible;"/>
			</clipPath>
			
				<linearGradient id="SVGID_23_" gradientUnits="userSpaceOnUse" x1="2.3058" y1="18.6864" x2="21.575" y2="18.6864" gradientTransform="matrix(1 0 0 -1 -4.097819e-07 41.9995)">
				<stop  offset="0" style="stop-color:#C2B294"/>
				<stop  offset="7.142900e-02" style="stop-color:#C7B89B"/>
				<stop  offset="0.1429" style="stop-color:#CBC1A3"/>
				<stop  offset="0.2143" style="stop-color:#D2C8AD"/>
				<stop  offset="0.2857" style="stop-color:#D8CFB6"/>
				<stop  offset="0.3571" style="stop-color:#D9D2B8"/>
				<stop  offset="0.4286" style="stop-color:#D9D2B8"/>
				<stop  offset="0.5" style="stop-color:#D9D2B8"/>
				<stop  offset="0.5714" style="stop-color:#D9D2B8"/>
				<stop  offset="0.6429" style="stop-color:#D6CFB5"/>
				<stop  offset="0.7143" style="stop-color:#D3C8AD"/>
				<stop  offset="0.7857" style="stop-color:#CDC1A6"/>
				<stop  offset="0.8571" style="stop-color:#C7B79C"/>
				<stop  offset="0.9286" style="stop-color:#BFAD8F"/>
				<stop  offset="1" style="stop-color:#BBAC89"/>
			</linearGradient>
			<path class="st33" d="M21.6,25.2c0-0.1,0-0.2,0-0.3c0-0.1,0-0.2,0-0.3c-0.1-0.2-0.2-0.5-0.1-0.8c0-0.1,0.1-0.2,0.1-0.3
				c0-0.1,0-0.1-0.1-0.2c-0.1-0.2-0.2-0.4-0.1-0.6c0-0.2,0.1-0.3,0.2-0.4c0-0.2,0-0.3,0-0.5c0-0.1,0-0.3,0-0.4c0-0.2,0-0.3,0-0.4
				c0,0,0,0,0-0.1c0-0.1,0-0.2,0-0.3c0-0.1-0.1-0.2-0.1-0.3c0-0.2,0.1-0.4,0.1-0.6c0-0.2,0-0.5,0-0.7c0-0.1,0-0.2,0.1-0.3
				c0.1-0.1,0.1-0.1,0.2-0.2c0-0.1-0.1-0.3-0.1-0.4c-0.1-0.2-0.1-0.3-0.1-0.5c0,0,0-0.1,0-0.1c0,0,0,0,0-0.1c0-0.1,0-0.2,0-0.3
				c0-0.1,0-0.1,0-0.2c0,0,0-0.1-0.1-0.1c-0.2-0.1-0.4,0-0.6-0.1c-0.2,0-0.4-0.1-0.6-0.1c-0.2,0-0.4,0.1-0.6,0.1
				c-0.2,0-0.4,0.1-0.6,0.1c-0.2,0-0.3-0.1-0.4-0.2c-0.2,0-0.4,0-0.5,0.1c-0.2,0.1-0.4,0.1-0.6,0.1c-0.1,0-0.1-0.1-0.1-0.1
				c-0.2,0.1-0.5,0.1-0.7,0.1c-0.2,0-0.3,0-0.5-0.1c-0.1-0.1-0.3-0.1-0.5-0.1c-0.2,0-0.3,0-0.5,0c-0.1,0-0.2,0.1-0.4,0.1
				c0,0,0,0,0,0s0,0-0.1,0c-0.3,0-0.7,0-1-0.1c0,0-0.1,0-0.1,0s0,0,0,0c0,0-0.1,0-0.1,0c-0.1,0-0.2-0.1-0.3,0
				c-0.1,0-0.1,0.1-0.2,0.1c-0.2,0.1-0.4,0.1-0.7,0C12.2,17,12.1,17,12,17c-0.1,0-0.2,0.1-0.3,0.1c-0.2,0.1-0.5,0-0.7,0.1
				c0,0-0.1,0-0.1,0c-0.3,0.1-0.6,0.2-1,0.1c-0.2,0-0.4-0.1-0.5-0.1c-0.2,0-0.4,0-0.5,0c-0.4,0-0.8,0.1-1.1,0.1
				c-0.1,0-0.1-0.1-0.1-0.1c0,0,0,0,0,0c0,0,0-0.1,0-0.1c0,0,0,0,0,0c-0.2-0.1-0.4,0-0.7,0c-0.2,0-0.4,0.1-0.6,0.1
				c-0.2,0.1-0.3,0.1-0.5,0.2c-0.2,0-0.3,0-0.5-0.1c-0.1-0.1-0.2-0.2-0.4-0.2c0,0-0.1,0-0.1,0c-0.2,0-0.3,0.1-0.5,0.1
				c-0.2,0-0.3,0-0.5-0.1c-0.1,0-0.1-0.1-0.1-0.2c0,0,0,0-0.1,0c0,0-0.1,0-0.1,0c-0.1,0-0.2,0-0.2,0c0,0.1,0,0.1-0.1,0.1
				c-0.2,0-0.4-0.1-0.6-0.1c0,0.1-0.1,0.2-0.1,0.4c0,0.2,0.1,0.3,0.1,0.5c0.1,0.3,0,0.5-0.1,0.8c0,0.1-0.1,0.3,0,0.4
				c0,0.1,0.1,0.2,0.1,0.4c0,0.1,0,0.3-0.1,0.4c0.2,0.3-0.1,0.6,0,0.9c0,0.2,0.1,0.4,0.1,0.6c0,0.2,0,0.4,0.1,0.6
				c0,0.2,0.1,0.4,0.1,0.6c0,0.1,0,0.2,0,0.3c0,0.1,0,0.2,0,0.3c0,0.3-0.1,0.6-0.3,0.8c0,0,0,0.1,0,0.1c0,0.1,0,0.3,0,0.4
				c0,0,0,0,0,0.1c0,0,0,0,0,0c0.1,0,0.1,0,0.1,0.1c0.1,0.2,0,0.3-0.1,0.4c0,0.1-0.1,0.1-0.1,0.2c0,0.1,0,0.2,0,0.3
				c0,0.1,0.1,0.2,0.2,0.3c0,0,0.1,0.1,0.1,0.1c0,0,0,0.1,0,0.1c0,0,0,0,0.1,0c0.1,0.1,0,0.3,0,0.4c0,0,0,0,0,0c0,0,0,0,0,0
				c0.1,0,0.2,0.1,0.1,0.2c0,0.1-0.2,0.3-0.2,0.4c0,0.1,0,0.2,0,0.3c0,0.1,0,0.2,0,0.2c0.1,0.1,0.1,0.1,0.2,0.2
				c0.2,0.2,0.1,0.5,0,0.7c0,0.1-0.1,0.3-0.1,0.4c0,0.1-0.1,0.1-0.2,0.2c0,0.1,0.1,0.2,0.1,0.2c0,0.1,0,0.1,0,0.2c0.1,0,0.1,0,0.2,0
				c0.1,0,0.2,0.1,0.3,0.1c0.2,0.1,0.5,0,0.7,0c0,0,0,0,0,0c0,0,0.1-0.1,0.1,0c0.2,0,0.3,0,0.5-0.1c0.1-0.1,0.2-0.1,0.3-0.2
				c0.2,0,0.3,0.1,0.4,0.1c0.2,0,0.3,0,0.5,0c0.2,0,0.4,0,0.5,0c0.2,0,0.3-0.1,0.5-0.1c0.1,0,0.3,0,0.4,0c0.1,0,0.2,0,0.4,0
				c0,0,0,0,0,0c0.1,0,0.3,0,0.4,0c0.1,0,0.2,0,0.3-0.1c0.2-0.1,0.4-0.1,0.6,0c0,0,0,0,0,0c0,0,0,0,0.1,0c0,0,0,0,0.1,0
				c0.5-0.2,1-0.2,1.5-0.2c0.1,0,0.1,0.1,0.1,0.1h0c0.2-0.2,0.6-0.2,0.8-0.1c0.2,0,0.3,0.1,0.5,0.1c0.3,0,0.5,0,0.8,0
				c0,0,0.1,0,0.1,0c0,0,0,0,0,0c0.2,0,0.3-0.1,0.5-0.1c0.2,0,0.4,0.2,0.6,0.2c0.2,0,0.4-0.1,0.5-0.1c0.2,0,0.4,0,0.5,0
				c0.1,0,0.1,0.1,0.1,0.2c0,0,0,0,0.1,0c0.2,0,0.3-0.1,0.4-0.1c0.1,0,0.3,0,0.4,0c0,0,0,0,0,0c0.1,0,0.2-0.1,0.4-0.2
				c0.2,0,0.3,0,0.4,0.1c0.2,0,0.3,0,0.5,0c0.1,0,0.3,0,0.4,0c0.2,0,0.5-0.1,0.7-0.1c0.1,0,0.3,0,0.4,0.1c0.3,0,0.7,0,1-0.1
				c0.2,0,0.4-0.1,0.6,0c0.2,0,0.3,0.1,0.5,0.1c0,0,0.1-0.1,0.1-0.1c0.1-0.1,0.2-0.1,0.3-0.1c0-0.1-0.1-0.2-0.1-0.4
				c0-0.1,0-0.2,0-0.3c0-0.1,0-0.2-0.1-0.4c0-0.2,0-0.4,0-0.6c0.1-0.2,0.2-0.4,0.2-0.6c0-0.2,0-0.3,0.1-0.5c0,0,0,0,0-0.1
				c0-0.1-0.1-0.1-0.1-0.2c0-0.1,0-0.3,0.1-0.4C21.6,25.6,21.6,25.4,21.6,25.2z"/>
		</g>
	</g>
	<g>
		<path id="imagebot_25" class="st34" d="M15.7,19.3c0.2-0.2,0.1-0.9,0.1-0.9s-0.3,0.1-0.5,0.2c-0.1-0.2-0.4-0.4-0.4-0.4
			s-0.2,0.2-0.2,0.5c-0.3,0-0.6,0-0.6,0s0.1,0.3,0.2,0.5c-0.2,0.1-0.4,0.4-0.4,0.4s0.2,0.2,0.5,0.2c-0.1,0.3,0,0.6,0,0.6
			s0.7-0.1,0.8-0.4c0.1-0.2,0.1-0.4-0.1-0.6c0,0,0,0,0,0c0,0,0,0,0,0c0,0,0,0,0,0c0,0,0,0,0,0C15.2,19.5,15.5,19.5,15.7,19.3
			C15.7,19.3,15.7,19.3,15.7,19.3L15.7,19.3z"/>
		<g id="imagebot_177" transform="translate(0 2.44141) matrix(1 0 0 1 -4.88281 0)" class="st35">
			<path id="imagebot_40" class="st36" d="M19,19.7c0,0,1.6-0.8,2.7,0.2c1.1,1,1,1.3,0.8,2.4c-0.3,1,0.3,1.4,0.3,1.4"/>
			<path id="imagebot_22" class="st36" d="M21,19.5c0,0,0-0.6-0.2-1.3c-0.2-0.7-0.9-1.3-0.9-1.3"/>
			<path id="imagebot_19" class="st36" d="M20.9,18.5c0,0,0.1,0.4,0.8,0.3c0.7-0.1,0.6-1.1,0.6-1.1"/>
		</g>
		<path id="imagebot_28" class="st34" d="M17.8,20.6c0.3,0,0.8-0.3,0.8-0.3s-0.2-0.2-0.4-0.3c0.1-0.2,0.2-0.5,0.2-0.5s-0.3,0-0.5,0
			c-0.1-0.2-0.2-0.5-0.2-0.5s-0.2,0.2-0.3,0.4c-0.2-0.1-0.5-0.2-0.5-0.2s0,0.3,0,0.5c-0.2,0.1-0.5,0.2-0.5,0.2s0.4,0.5,0.7,0.4
			c0.2,0,0.4-0.2,0.4-0.3l0,0c0,0,0,0,0,0l0,0l0,0C17.4,20.4,17.6,20.6,17.8,20.6C17.8,20.6,17.8,20.6,17.8,20.6L17.8,20.6z"/>
		<path id="imagebot_12" class="st37" d="M17.7,20.4c0.1,0,0.4-0.2,0.4-0.2s-0.1-0.1-0.2-0.2c0.1-0.1,0.1-0.3,0.1-0.3s-0.2,0-0.3,0
			c0-0.1-0.1-0.3-0.1-0.3s-0.1,0.1-0.2,0.2c-0.1-0.1-0.3-0.1-0.3-0.1s0,0.2,0,0.3c-0.1,0-0.3,0.1-0.3,0.1s0.2,0.2,0.4,0.2
			c0.1,0,0.2-0.1,0.2-0.2l0,0l0,0l0,0c0,0,0,0,0,0C17.5,20.3,17.6,20.4,17.7,20.4C17.7,20.4,17.7,20.4,17.7,20.4L17.7,20.4z"/>
		<g id="imagebot_156">
			
				<linearGradient id="imagebot_136_1_" gradientUnits="userSpaceOnUse" x1="-1748.3027" y1="-129.5836" x2="-1748.3174" y2="-129.5689" gradientTransform="matrix(51.2524 115.6277 -115.3761 51.1408 74662.625 208805.9531)">
				<stop  offset="0" style="stop-color:#3F007F;stop-opacity:0.9961"/>
				<stop  offset="1" style="stop-color:#D4AAFF;stop-opacity:0.9961"/>
			</linearGradient>
			<path id="imagebot_136" class="st38" d="M7.5,27.1c-0.5,0-0.9-0.4-0.9-1c0-0.5,0.4-0.9,1-0.9c0.5,0,0.9,0.4,0.9,1
				C8.4,26.7,8,27.2,7.5,27.1z"/>
			
				<linearGradient id="imagebot_134_1_" gradientUnits="userSpaceOnUse" x1="-1747.881" y1="-129.136" x2="-1747.8958" y2="-129.1213" gradientTransform="matrix(51.2524 115.6277 -115.3762 51.1409 74693.0938 208733.25)">
				<stop  offset="0" style="stop-color:#3F007F;stop-opacity:0.9961"/>
				<stop  offset="1" style="stop-color:#D4AAFF;stop-opacity:0.9961"/>
			</linearGradient>
			<path id="imagebot_134" class="st39" d="M7.9,26.1c-0.5,0-0.9-0.4-0.9-1c0-0.5,0.4-0.9,1-0.9c0.5,0,0.9,0.4,0.9,1
				C8.9,25.7,8.5,26.1,7.9,26.1z"/>
			
				<linearGradient id="imagebot_132_1_" gradientUnits="userSpaceOnUse" x1="-1751.0712" y1="-133.072" x2="-1751.0858" y2="-133.0573" gradientTransform="matrix(-2.8085 126.4948 -126.0635 -2.7989 -21683.7988 221154)">
				<stop  offset="0" style="stop-color:#3F007F;stop-opacity:0.9961"/>
				<stop  offset="1" style="stop-color:#D4AAFF;stop-opacity:0.9961"/>
			</linearGradient>
			<path id="imagebot_132" class="st40" d="M8.7,25.1c-0.5,0-0.9-0.4-0.9-1c0-0.5,0.4-0.9,1-0.9c0.5,0,0.9,0.4,0.9,1l0,0
				C9.6,24.7,9.2,25.1,8.7,25.1L8.7,25.1z"/>
			
				<linearGradient id="imagebot_130_1_" gradientUnits="userSpaceOnUse" x1="-1747.3101" y1="-128.0177" x2="-1747.3248" y2="-128.003" gradientTransform="matrix(51.2524 115.6276 -115.3761 51.1408 74794.375 208608.0156)">
				<stop  offset="0" style="stop-color:#3F007F;stop-opacity:0.9961"/>
				<stop  offset="1" style="stop-color:#D4AAFF;stop-opacity:0.9961"/>
			</linearGradient>
			<path id="imagebot_130" class="st41" d="M9.4,24.2c-0.5,0-0.9-0.4-0.9-1c0-0.5,0.4-0.9,1-0.9c0.5,0,0.9,0.4,0.9,1
				C10.4,23.8,9.9,24.2,9.4,24.2z"/>
			
				<linearGradient id="imagebot_128_1_" gradientUnits="userSpaceOnUse" x1="-1750.3483" y1="-132.2585" x2="-1750.3629" y2="-132.2438" gradientTransform="matrix(-2.8085 126.4948 -126.0634 -2.7989 -21577.6465 221063.5)">
				<stop  offset="0" style="stop-color:#3F007F;stop-opacity:0.9961"/>
				<stop  offset="1" style="stop-color:#D4AAFF;stop-opacity:0.9961"/>
			</linearGradient>
			<path id="imagebot_128" class="st42" d="M10.3,23.8c-0.5,0-0.9-0.4-0.9-1s0.4-0.9,1-0.9c0.5,0,0.9,0.4,0.9,1l0,0
				C11.2,23.4,10.8,23.8,10.3,23.8L10.3,23.8z"/>
			
				<linearGradient id="imagebot_126_1_" gradientUnits="userSpaceOnUse" x1="-1749.8844" y1="-131.8819" x2="-1749.899" y2="-131.8672" gradientTransform="matrix(-2.8085 126.4948 -126.0634 -2.7989 -21528.1426 221005.0156)">
				<stop  offset="0" style="stop-color:#3F007F;stop-opacity:0.9961"/>
				<stop  offset="1" style="stop-color:#D4AAFF;stop-opacity:0.9961"/>
			</linearGradient>
			<path id="imagebot_126" class="st43" d="M11,22.9c-0.5,0-0.9-0.4-0.9-1c0-0.5,0.4-0.9,1-0.9c0.5,0,0.9,0.4,0.9,1l0,0
				C11.9,22.5,11.5,22.9,11,22.9L11,22.9z"/>
			
				<linearGradient id="imagebot_124_1_" gradientUnits="userSpaceOnUse" x1="-1748.6283" y1="-130.185" x2="-1748.6431" y2="-130.1703" gradientTransform="matrix(51.2524 115.6277 -115.3761 51.1408 74609.1484 208875.375)">
				<stop  offset="0" style="stop-color:#3F007F;stop-opacity:0.9961"/>
				<stop  offset="1" style="stop-color:#D4AAFF;stop-opacity:0.9961"/>
			</linearGradient>
			<path id="imagebot_124" class="st44" d="M6.7,28.2c-0.5,0-0.9-0.4-0.9-1c0-0.5,0.4-0.9,1-0.9c0.5,0,0.9,0.4,0.9,1
				C7.6,27.8,7.2,28.2,6.7,28.2z"/>
			
				<linearGradient id="imagebot_122_1_" gradientUnits="userSpaceOnUse" x1="-1752.4736" y1="-133.4567" x2="-1752.4884" y2="-133.442" gradientTransform="matrix(-2.8085 126.4948 -126.0634 -2.7989 -21737.0039 221332.9688)">
				<stop  offset="0" style="stop-color:#3F007F;stop-opacity:0.9961"/>
				<stop  offset="1" style="stop-color:#D4AAFF;stop-opacity:0.9961"/>
			</linearGradient>
			<path id="imagebot_122" class="st45" d="M7.9,27.7c-0.5,0-0.9-0.4-0.9-1c0-0.5,0.4-0.9,1-0.9c0.5,0,0.9,0.4,0.9,1l0,0
				C8.9,27.3,8.4,27.7,7.9,27.7L7.9,27.7z"/>
			
				<linearGradient id="imagebot_120_1_" gradientUnits="userSpaceOnUse" x1="-1751.7196" y1="-133.0368" x2="-1751.7344" y2="-133.0221" gradientTransform="matrix(-2.8085 126.4948 -126.0635 -2.7989 -21681.1367 221237.3594)">
				<stop  offset="0" style="stop-color:#3F007F;stop-opacity:0.9961"/>
				<stop  offset="1" style="stop-color:#D4AAFF;stop-opacity:0.9961"/>
			</linearGradient>
			<path id="imagebot_120" class="st46" d="M8.7,26.3c-0.5,0-0.9-0.4-0.9-1c0-0.5,0.4-0.9,1-0.9s0.9,0.4,0.9,1l0,0
				C9.7,25.9,9.2,26.3,8.7,26.3L8.7,26.3z"/>
			
				<linearGradient id="imagebot_118_1_" gradientUnits="userSpaceOnUse" x1="-1751.2562" y1="-132.6604" x2="-1751.271" y2="-132.6457" gradientTransform="matrix(-2.8085 126.4947 -126.0634 -2.7989 -21631.6289 221178.7656)">
				<stop  offset="0" style="stop-color:#3F007F;stop-opacity:0.9961"/>
				<stop  offset="1" style="stop-color:#D4AAFF;stop-opacity:0.9961"/>
			</linearGradient>
			<path id="imagebot_118" class="st47" d="M9.5,25.5c-0.5,0-0.9-0.4-0.9-1c0-0.5,0.4-0.9,1-0.9c0.5,0,0.9,0.4,0.9,1l0,0
				C10.4,25.1,10,25.5,9.5,25.5L9.5,25.5z"/>
			
				<linearGradient id="imagebot_116_1_" gradientUnits="userSpaceOnUse" x1="-1749.0187" y1="-129.0283" x2="-1749.0334" y2="-129.0136" gradientTransform="matrix(51.2526 115.628 -115.3762 51.1409 74765.1562 208861.7188)">
				<stop  offset="0" style="stop-color:#3F007F;stop-opacity:0.9961"/>
				<stop  offset="1" style="stop-color:#D4AAFF;stop-opacity:0.9961"/>
			</linearGradient>
			<path id="imagebot_116" class="st48" d="M9,27.9c-0.5,0-0.9-0.4-0.9-1c0-0.5,0.4-0.9,1-0.9c0.5,0,0.9,0.4,0.9,1l0,0
				C9.9,27.5,9.5,28,9,27.9L9,27.9z"/>
			
				<linearGradient id="imagebot_114_1_" gradientUnits="userSpaceOnUse" x1="-1752.1613" y1="-132.8283" x2="-1752.176" y2="-132.8136" gradientTransform="matrix(-2.8085 126.4948 -126.0634 -2.7989 -21655.7148 221294.6406)">
				<stop  offset="0" style="stop-color:#3F007F;stop-opacity:0.9961"/>
				<stop  offset="1" style="stop-color:#D4AAFF;stop-opacity:0.9961"/>
			</linearGradient>
			<path id="imagebot_114" class="st49" d="M9.1,27.2c-0.5,0-0.9-0.4-0.9-1c0-0.5,0.4-0.9,1-0.9c0.5,0,0.9,0.4,0.9,1l0,0
				C10.1,26.8,9.6,27.2,9.1,27.2L9.1,27.2z"/>
			
				<linearGradient id="imagebot_112_1_" gradientUnits="userSpaceOnUse" x1="-1749.1976" y1="-128.3596" x2="-1749.2123" y2="-128.3448" gradientTransform="matrix(51.2526 115.628 -115.3763 51.141 74852.7578 208848.0156)">
				<stop  offset="0" style="stop-color:#3F007F;stop-opacity:0.9961"/>
				<stop  offset="1" style="stop-color:#D4AAFF;stop-opacity:0.9961"/>
			</linearGradient>
			<path id="imagebot_112" class="st50" d="M10.3,27.7c-0.5,0-0.9-0.4-0.9-1c0-0.5,0.4-0.9,1-0.9c0.5,0,0.9,0.4,0.9,1l0,0
				C11.2,27.3,10.8,27.8,10.3,27.7L10.3,27.7z"/>
			
				<linearGradient id="imagebot_110_1_" gradientUnits="userSpaceOnUse" x1="-1749.3278" y1="-127.5114" x2="-1749.3424" y2="-127.4967" gradientTransform="matrix(51.2526 115.628 -115.3763 51.141 74958.8359 208819.2656)">
				<stop  offset="0" style="stop-color:#3F007F;stop-opacity:0.9961"/>
				<stop  offset="1" style="stop-color:#D4AAFF;stop-opacity:0.9961"/>
			</linearGradient>
			<path id="imagebot_110" class="st51" d="M11.8,27.3c-0.5,0-0.9-0.4-0.9-1c0-0.5,0.4-0.9,1-0.9c0.5,0,0.9,0.4,0.9,1l0,0
				C12.8,26.9,12.4,27.3,11.8,27.3L11.8,27.3z"/>
			
				<linearGradient id="imagebot_108_1_" gradientUnits="userSpaceOnUse" x1="-1751.9749" y1="-131.8162" x2="-1751.9896" y2="-131.8015" gradientTransform="matrix(-2.8085 126.4948 -126.0635 -2.7989 -21525.6992 221273.5938)">
				<stop  offset="0" style="stop-color:#3F007F;stop-opacity:0.9961"/>
				<stop  offset="1" style="stop-color:#D4AAFF;stop-opacity:0.9961"/>
			</linearGradient>
			<path id="imagebot_108" class="st52" d="M11,26.8c-0.5,0-0.9-0.4-0.9-1s0.4-0.9,1-0.9c0.5,0,0.9,0.4,0.9,1l0,0
				C12,26.5,11.5,26.9,11,26.8L11,26.8z"/>
			
				<linearGradient id="imagebot_106_1_" gradientUnits="userSpaceOnUse" x1="-1751.688" y1="-132.24" x2="-1751.7028" y2="-132.2253" gradientTransform="matrix(-2.8085 126.4948 -126.0635 -2.7989 -21579.1055 221235.5625)">
				<stop  offset="0" style="stop-color:#3F007F;stop-opacity:0.9961"/>
				<stop  offset="1" style="stop-color:#D4AAFF;stop-opacity:0.9961"/>
			</linearGradient>
			<path id="imagebot_106" class="st53" d="M10.2,26.3c-0.5,0-0.9-0.4-0.9-1c0-0.5,0.4-0.9,1-0.9c0.5,0,0.9,0.4,0.9,1l0,0
				C11.2,25.9,10.8,26.3,10.2,26.3L10.2,26.3z"/>
			
				<linearGradient id="imagebot_104_1_" gradientUnits="userSpaceOnUse" x1="-1750.9971" y1="-132.2233" x2="-1751.0118" y2="-132.2086" gradientTransform="matrix(-2.8085 126.4948 -126.0635 -2.7989 -21574.998 221146.9062)">
				<stop  offset="0" style="stop-color:#3F007F;stop-opacity:0.9961"/>
				<stop  offset="1" style="stop-color:#D4AAFF;stop-opacity:0.9961"/>
			</linearGradient>
			<path id="imagebot_104" class="st54" d="M10.3,25c-0.5,0-0.9-0.4-0.9-1c0-0.5,0.4-0.9,1-0.9c0.5,0,0.9,0.4,0.9,1l0,0
				C11.2,24.6,10.8,25,10.3,25L10.3,25z"/>
			
				<linearGradient id="imagebot_102_1_" gradientUnits="userSpaceOnUse" x1="-1747.6029" y1="-127.2173" x2="-1747.6176" y2="-127.2026" gradientTransform="matrix(51.2524 115.6277 -115.376 51.1408 74903.3203 208601)">
				<stop  offset="0" style="stop-color:#3F007F;stop-opacity:0.9961"/>
				<stop  offset="1" style="stop-color:#D4AAFF;stop-opacity:0.9961"/>
			</linearGradient>
			<path id="imagebot_102" class="st55" d="M11,24.1c-0.5,0-0.9-0.4-0.9-1s0.4-0.9,1-0.9c0.5,0,0.9,0.4,0.9,1
				C12,23.7,11.5,24.1,11,24.1z"/>
			
				<linearGradient id="imagebot_100_1_" gradientUnits="userSpaceOnUse" x1="-1748.3842" y1="-127.3157" x2="-1748.3988" y2="-127.301" gradientTransform="matrix(51.2526 115.628 -115.3762 51.1409 74932.6875 208698.3594)">
				<stop  offset="0" style="stop-color:#3F007F;stop-opacity:0.9961"/>
				<stop  offset="1" style="stop-color:#D4AAFF;stop-opacity:0.9961"/>
			</linearGradient>
			<path id="imagebot_100" class="st56" d="M11.5,25.5c-0.5,0-0.9-0.4-0.9-1s0.4-0.9,1-0.9c0.5,0,0.9,0.4,0.9,1l0,0
				C12.4,25.2,12,25.6,11.5,25.5L11.5,25.5z"/>
			
				<linearGradient id="imagebot_98_1_" gradientUnits="userSpaceOnUse" x1="-1748.9697" y1="-126.9079" x2="-1748.9845" y2="-126.8932" gradientTransform="matrix(51.2526 115.628 -115.3762 51.1409 75010.9062 208745.9219)">
				<stop  offset="0" style="stop-color:#3F007F;stop-opacity:0.9961"/>
				<stop  offset="1" style="stop-color:#D4AAFF;stop-opacity:0.9961"/>
			</linearGradient>
			<path id="imagebot_98" class="st57" d="M12.6,26.2c-0.5,0-0.9-0.4-0.9-1c0-0.5,0.4-0.9,1-0.9c0.5,0,0.9,0.4,0.9,1l0,0
				C13.5,25.8,13.1,26.3,12.6,26.2L12.6,26.2z"/>
			
				<linearGradient id="imagebot_96_1_" gradientUnits="userSpaceOnUse" x1="-1749.522" y1="-131.2232" x2="-1749.5367" y2="-131.2085" gradientTransform="matrix(-2.8085 126.4948 -126.0635 -2.7989 -21442.8359 220960.3594)">
				<stop  offset="0" style="stop-color:#3F007F;stop-opacity:0.9961"/>
				<stop  offset="1" style="stop-color:#D4AAFF;stop-opacity:0.9961"/>
			</linearGradient>
			<path id="imagebot_96" class="st58" d="M12.2,22.2c-0.5,0-0.9-0.4-0.9-1c0-0.5,0.4-0.9,1-0.9c0.5,0,0.9,0.4,0.9,1l0,0
				C13.2,21.8,12.8,22.2,12.2,22.2L12.2,22.2z"/>
			
				<linearGradient id="imagebot_84_1_" gradientUnits="userSpaceOnUse" x1="-1750.1288" y1="-131.4061" x2="-1750.1434" y2="-131.3914" gradientTransform="matrix(-2.8085 126.4948 -126.0635 -2.7989 -21467.9727 221037.7344)">
				<stop  offset="0" style="stop-color:#3F007F;stop-opacity:0.9961"/>
				<stop  offset="1" style="stop-color:#D4AAFF;stop-opacity:0.9961"/>
			</linearGradient>
			<path id="imagebot_84" class="st59" d="M11.9,23.4c-0.5,0-0.9-0.4-0.9-1s0.4-0.9,1-0.9c0.5,0,0.9,0.4,0.9,1l0,0
				C12.8,23,12.4,23.4,11.9,23.4L11.9,23.4z"/>
			
				<linearGradient id="imagebot_78_1_" gradientUnits="userSpaceOnUse" x1="-1750.8666" y1="-131.2921" x2="-1750.8812" y2="-131.2774" gradientTransform="matrix(-2.8085 126.4948 -126.0634 -2.7989 -21455.4727 221132.7969)">
				<stop  offset="0" style="stop-color:#3F007F;stop-opacity:0.9961"/>
				<stop  offset="1" style="stop-color:#D4AAFF;stop-opacity:0.9961"/>
			</linearGradient>
			<path id="imagebot_78" class="st60" d="M12.1,24.8c-0.5,0-0.9-0.4-0.9-1c0-0.5,0.4-0.9,1-0.9c0.5,0,0.9,0.4,0.9,1l0,0
				C13,24.4,12.6,24.8,12.1,24.8L12.1,24.8z"/>
			
				<linearGradient id="imagebot_72_1_" gradientUnits="userSpaceOnUse" x1="-1748.4973" y1="-126.3532" x2="-1748.5121" y2="-126.3385" gradientTransform="matrix(51.2526 115.628 -115.3762 51.141 75051.2812 208661.7031)">
				<stop  offset="0" style="stop-color:#3F007F;stop-opacity:0.9961"/>
				<stop  offset="1" style="stop-color:#D4AAFF;stop-opacity:0.9961"/>
			</linearGradient>
			<path id="imagebot_72" class="st61" d="M13.2,25c-0.5,0-0.9-0.4-0.9-1c0-0.5,0.4-0.9,1-0.9c0.5,0,0.9,0.4,0.9,1l0,0
				C14.1,24.6,13.7,25,13.2,25L13.2,25z"/>
			
				<linearGradient id="imagebot_66_1_" gradientUnits="userSpaceOnUse" x1="-1751.9968" y1="-130.5969" x2="-1752.0116" y2="-130.5822" gradientTransform="matrix(-2.8085 126.4948 -126.0635 -2.7989 -21369.7559 221279.875)">
				<stop  offset="0" style="stop-color:#3F007F;stop-opacity:0.9961"/>
				<stop  offset="1" style="stop-color:#D4AAFF;stop-opacity:0.9961"/>
			</linearGradient>
			<path id="imagebot_66" class="st62" d="M13.3,26.9c-0.5,0-0.9-0.4-0.9-1c0-0.5,0.4-0.9,1-0.9c0.5,0,0.9,0.4,0.9,1l0,0
				C14.3,26.5,13.8,27,13.3,26.9L13.3,26.9z"/>
			
				<linearGradient id="imagebot_60_1_" gradientUnits="userSpaceOnUse" x1="-1751.4012" y1="-130.2467" x2="-1751.4159" y2="-130.232" gradientTransform="matrix(-2.8085 126.4948 -126.0634 -2.7989 -21323.2363 221204.3906)">
				<stop  offset="0" style="stop-color:#3F007F;stop-opacity:0.9961"/>
				<stop  offset="1" style="stop-color:#D4AAFF;stop-opacity:0.9961"/>
			</linearGradient>
			<path id="imagebot_60" class="st63" d="M14,25.8c-0.5,0-0.9-0.4-0.9-1c0-0.5,0.4-0.9,1-0.9c0.5,0,0.9,0.4,0.9,1l0,0
				C14.9,25.4,14.5,25.8,14,25.8L14,25.8z"/>
			
				<linearGradient id="imagebot_54_1_" gradientUnits="userSpaceOnUse" x1="-1750.6713" y1="-130.0318" x2="-1750.686" y2="-130.0171" gradientTransform="matrix(-2.8085 126.4948 -126.0634 -2.7989 -21293.6641 221111.3125)">
				<stop  offset="0" style="stop-color:#3F007F;stop-opacity:0.9961"/>
				<stop  offset="1" style="stop-color:#D4AAFF;stop-opacity:0.9961"/>
			</linearGradient>
			<path id="imagebot_54" class="st64" d="M14.4,24.5c-0.5,0-0.9-0.4-0.9-1c0-0.5,0.4-0.9,1-0.9c0.5,0,0.9,0.4,0.9,1l0,0
				C15.4,24.1,15,24.5,14.4,24.5L14.4,24.5z"/>
			
				<linearGradient id="imagebot_48_1_" gradientUnits="userSpaceOnUse" x1="-1749.6521" y1="-130.35" x2="-1749.6669" y2="-130.3353" gradientTransform="matrix(-2.8085 126.4948 -126.0634 -2.7989 -21331.4688 220979.5469)">
				<stop  offset="0" style="stop-color:#3F007F;stop-opacity:0.9961"/>
				<stop  offset="1" style="stop-color:#D4AAFF;stop-opacity:0.9961"/>
			</linearGradient>
			<path id="imagebot_48" class="st65" d="M13.9,22.5c-0.5,0-0.9-0.4-0.9-1c0-0.5,0.4-0.9,1-0.9c0.5,0,0.9,0.4,0.9,1l0,0
				C14.8,22.1,14.4,22.5,13.9,22.5L13.9,22.5z"/>
			
				<linearGradient id="imagebot_34_1_" gradientUnits="userSpaceOnUse" x1="-1748.0748" y1="-125.2608" x2="-1748.0895" y2="-125.2461" gradientTransform="matrix(51.2526 115.628 -115.3762 51.1409 75157.2344 208555.3906)">
				<stop  offset="0" style="stop-color:#3F007F;stop-opacity:0.9961"/>
				<stop  offset="1" style="stop-color:#D4AAFF;stop-opacity:0.9961"/>
			</linearGradient>
			<path id="imagebot_34" class="st66" d="M14.8,23.4c-0.5,0-0.9-0.4-0.9-1s0.4-0.9,1-0.9c0.5,0,0.9,0.4,0.9,1l0,0
				C15.7,23,15.3,23.5,14.8,23.4L14.8,23.4z"/>
			
				<linearGradient id="imagebot_10_1_" gradientUnits="userSpaceOnUse" x1="-1747.797" y1="-125.958" x2="-1747.8116" y2="-125.9432" gradientTransform="matrix(51.2526 115.628 -115.3762 51.1409 75061.1406 208558.9688)">
				<stop  offset="0" style="stop-color:#3F007F;stop-opacity:0.9961"/>
				<stop  offset="1" style="stop-color:#D4AAFF;stop-opacity:0.9961"/>
			</linearGradient>
			<path id="imagebot_10" class="st67" d="M13.4,23.5c-0.5,0-0.9-0.4-0.9-1c0-0.5,0.4-0.9,1-0.9c0.5,0,0.9,0.4,0.9,1l0,0
				C14.3,23.1,13.9,23.5,13.4,23.5L13.4,23.5z"/>
		</g>
		<path id="imagebot_16" class="st68" d="M15.4,19.3c0.1-0.1,0.1-0.5,0.1-0.5s-0.2,0-0.3,0.1c-0.1-0.1-0.2-0.2-0.2-0.2
			s-0.1,0.1-0.1,0.3c-0.1,0-0.3,0-0.3,0s0,0.2,0.1,0.3c-0.1,0.1-0.2,0.2-0.2,0.2s0.1,0.1,0.3,0.1c0,0.1,0,0.3,0,0.3s0.4-0.1,0.4-0.2
			c0.1-0.1,0-0.2,0-0.3l0,0l0,0l0,0l0,0C15.1,19.4,15.3,19.4,15.4,19.3C15.4,19.3,15.4,19.3,15.4,19.3L15.4,19.3z"/>
	</g>
</g>
</svg>
