<?xml version="1.0" encoding="utf-8"?>
<!-- Generator: Adobe Illustrator 25.0.0, SVG Export Plug-In . SVG Version: 6.00 Build 0)  -->
<svg version="1.1"
	 id="svg2" inkscape:version="0.48.3.1 r9886" sodipodi:docname="_svgclean2.svg" xmlns:cc="http://creativecommons.org/ns#" xmlns:dc="http://purl.org/dc/elements/1.1/" xmlns:inkscape="http://www.inkscape.org/namespaces/inkscape" xmlns:ns1="http://sozi.baierouge.fr" xmlns:rdf="http://www.w3.org/1999/02/22-rdf-syntax-ns#" xmlns:sodipodi="http://sodipodi.sourceforge.net/DTD/sodipodi-0.dtd"
	 xmlns="http://www.w3.org/2000/svg" xmlns:xlink="http://www.w3.org/1999/xlink" x="0px" y="0px" viewBox="0 0 22.7 36.8"
	 style="enable-background:new 0 0 22.7 36.8;" xml:space="preserve">
<style type="text/css">
	.st0{fill-rule:evenodd;clip-rule:evenodd;fill:#8F00FF;}
	.st1{fill-rule:evenodd;clip-rule:evenodd;fill:#A548FF;}
	.st2{fill-rule:evenodd;clip-rule:evenodd;fill:url(#path141_1_);}
	.st3{fill-rule:evenodd;clip-rule:evenodd;fill:url(#path152_1_);}
	.st4{fill-rule:evenodd;clip-rule:evenodd;fill:url(#path159_1_);}
	.st5{fill-rule:evenodd;clip-rule:evenodd;fill:url(#path166_1_);}
	.st6{fill-rule:evenodd;clip-rule:evenodd;fill:url(#path173_1_);}
	.st7{fill-rule:evenodd;clip-rule:evenodd;fill:url(#path180_1_);}
	.st8{fill-rule:evenodd;clip-rule:evenodd;fill:url(#path187_1_);}
	.st9{fill-rule:evenodd;clip-rule:evenodd;fill:url(#path194_1_);}
	.st10{fill-rule:evenodd;clip-rule:evenodd;fill:url(#path201_1_);}
	.st11{fill-rule:evenodd;clip-rule:evenodd;fill:url(#path208_1_);}
	.st12{fill-rule:evenodd;clip-rule:evenodd;fill:url(#path215_1_);}
	.st13{fill-rule:evenodd;clip-rule:evenodd;fill:url(#path222_1_);}
	.st14{fill-rule:evenodd;clip-rule:evenodd;fill:url(#path229_1_);}
	.st15{fill-rule:evenodd;clip-rule:evenodd;fill:url(#path236_1_);}
	.st16{fill-rule:evenodd;clip-rule:evenodd;fill:url(#path243_1_);}
	.st17{fill-rule:evenodd;clip-rule:evenodd;fill:url(#path250_1_);}
	.st18{fill-rule:evenodd;clip-rule:evenodd;fill:url(#path257_1_);}
	.st19{fill-rule:evenodd;clip-rule:evenodd;fill:url(#path264_1_);}
	.st20{fill-rule:evenodd;clip-rule:evenodd;fill:url(#path271_1_);}
	.st21{fill-rule:evenodd;clip-rule:evenodd;fill:url(#path278_1_);}
	.st22{fill-rule:evenodd;clip-rule:evenodd;fill:url(#path285_1_);}
	.st23{fill-rule:evenodd;clip-rule:evenodd;fill:#FFFFFF;}
	.st24{fill-rule:evenodd;clip-rule:evenodd;fill:url(#path294_1_);}
	.st25{fill-rule:evenodd;clip-rule:evenodd;fill:url(#path301_1_);}
	.st26{fill-rule:evenodd;clip-rule:evenodd;fill:url(#path308_1_);}
	.st27{fill-rule:evenodd;clip-rule:evenodd;fill:url(#path315_1_);}
	.st28{fill-rule:evenodd;clip-rule:evenodd;fill:#A78A56;}
	.st29{fill-rule:evenodd;clip-rule:evenodd;fill:#CBA769;}
	.st30{fill-rule:evenodd;clip-rule:evenodd;fill:url(#path326_1_);}
	.st31{fill-rule:evenodd;clip-rule:evenodd;fill:url(#path333_1_);}
	.st32{fill-rule:evenodd;clip-rule:evenodd;fill:url(#path340_1_);}
	.st33{fill-rule:evenodd;clip-rule:evenodd;fill:url(#path347_1_);}
	.st34{fill-rule:evenodd;clip-rule:evenodd;fill:url(#path354_1_);}
	.st35{fill-rule:evenodd;clip-rule:evenodd;fill:#A58D54;}
	.st36{fill-rule:evenodd;clip-rule:evenodd;fill:#8B7347;}
	.st37{fill-rule:evenodd;clip-rule:evenodd;fill:#615031;}
	.st38{fill-rule:evenodd;clip-rule:evenodd;fill:#735E39;}
	.st39{fill-rule:evenodd;clip-rule:evenodd;fill:#4D4027;}
	.st40{fill-rule:evenodd;clip-rule:evenodd;fill:url(#path371_1_);}
	.st41{fill-rule:evenodd;clip-rule:evenodd;fill:url(#path378_1_);}
	.st42{fill-rule:evenodd;clip-rule:evenodd;fill:url(#path385_1_);}
	.st43{fill-rule:evenodd;clip-rule:evenodd;fill:url(#path392_1_);}
	.st44{fill-rule:evenodd;clip-rule:evenodd;fill:#705C39;}
	.st45{fill-rule:evenodd;clip-rule:evenodd;fill:url(#path401_1_);}
	.st46{fill-rule:evenodd;clip-rule:evenodd;fill:url(#path410_1_);}
	.st47{fill-rule:evenodd;clip-rule:evenodd;fill:url(#path419_1_);}
	.st48{fill-rule:evenodd;clip-rule:evenodd;fill:url(#path428_1_);}
	.st49{fill-rule:evenodd;clip-rule:evenodd;fill:url(#path437_1_);}
	.st50{fill-rule:evenodd;clip-rule:evenodd;fill:url(#path446_1_);}
	.st51{clip-path:url(#SVGID_2_);fill:url(#SVGID_3_);}
	.st52{clip-path:url(#SVGID_5_);fill:url(#SVGID_6_);}
	.st53{font-family:'Georgia-Bold';}
	.st54{font-size:2.7055px;}
</style>
<sodipodi:namedview  bordercolor="#666666" borderopacity="1" gridtolerance="10" guidetolerance="10" id="namedview489" inkscape:current-layer="svg2" inkscape:cx="11.250084" inkscape:cy="18.43091" inkscape:pageopacity="0" inkscape:pageshadow="2" inkscape:window-height="645" inkscape:window-maximized="0" inkscape:window-width="785" inkscape:window-x="0" inkscape:window-y="0" inkscape:zoom="6.4025737" objecttolerance="10" pagecolor="#ffffff" showgrid="false">
	</sodipodi:namedview>
<path id="path11" inkscape:connector-curvature="0" class="st0" d="M22.3,23.3c0.1,0.9,0.2,1.6,0.2,2.3c-0.1,3.1-1.2,5.7-3.4,7.8
	c-2.2,2.1-4.8,3.1-7.8,3.1c-3-0.1-5.6-1.2-7.7-3.5c-2.1-2.3-3.1-4.9-3-8c0-0.6,0.1-1.3,0.2-2c1,0.7,2.4,1.3,4.2,1.8
	c1.9,0.5,4,0.7,6.3,0.8c2.5,0.1,4.8-0.1,6.8-0.5C20,24.6,21.4,24,22.3,23.3z"/>
<path id="path18" inkscape:connector-curvature="0" class="st0" d="M19.2,21.5c2.1,0.6,3.1,1.3,3.1,2c0,0.7-1.1,1.3-3.2,1.8
	c-2.1,0.5-4.6,0.7-7.6,0.6c-3-0.1-5.5-0.4-7.6-1s-3.1-1.3-3.1-2s1.1-1.3,3.2-1.8c2.1-0.5,4.7-0.7,7.6-0.6
	C14.6,20.6,17.1,20.9,19.2,21.5z"/>
<path id="path20" inkscape:connector-curvature="0" class="st1" d="M0.8,23c0,0.7,1.1,1.4,3.1,1.9c2.1,0.6,4.6,0.9,7.6,1
	c3,0.1,5.5-0.1,7.6-0.6c2.1-0.4,3.1-1,3.2-1.8c-0.1,0.8-0.9,1.5-2.6,2c-2,0.6-4.6,0.9-8.1,0.8c-3.4-0.1-6.2-0.5-8.2-1.2
	C1.7,24.5,0.8,23.8,0.8,23z"/>
<radialGradient id="path141_1_" cx="735.4668" cy="1034.6005" r="16.571" gradientTransform="matrix(-2.500000e-02 0.8 -1.565 -4.900000e-02 1650.0807 -526.942)" gradientUnits="userSpaceOnUse">
	<stop  offset="0" style="stop-color:#FFFFFF;stop-opacity:0.259"/>
	<stop  offset="0.165" style="stop-color:#EBEBEB;stop-opacity:0.369"/>
	<stop  offset="0.859" style="stop-color:#E0E0E0;stop-opacity:0.459"/>
	<stop  offset="1" style="stop-color:#EDEDED;stop-opacity:0.228"/>
</radialGradient>
<path id="path141" inkscape:connector-curvature="0" class="st2" d="M13.5,9.5c0,0.2-0.3,0.6-0.8,1.1c-0.5,0.6-0.6,1.1-0.5,1.7
	c0,0.1,0.1,0.3,0.2,0.5l-0.6,0.4c-0.5,0.6-0.3,1.3,0.4,2.1c0.1,0.1,0.5,0.3,1.2,0.7c0.4,0.2,0.6,0.4,0.8,0.7l-0.1-0.8
	c-0.9-0.2-1.2-0.4-1.1-0.6c0.2-0.2,0.1-0.5-0.1-1.1c-0.3-0.6-0.5-1.1-0.6-1.4l0.4-0.3c0.3-0.1,0.6-0.3,0.9-0.5L13.5,9.5
	c0.8,0.1,1.3,0.3,1.5,0.7c0.3,0.4,0.1,0.9-0.8,1.6c-0.1,0.1-0.3,0.2-0.4,0.3c0,0.5,0.1,1,0.2,1.5c0.1,1,0.2,1.8,0.3,2.4
	c0,0,0,0,0.1,0c1.2,0.3,1.9,0.5,2.2,0.7c1.5,1,2.8,2.3,3.6,3.9c0.9,1.8,1.5,2.7,1.6,2.8c0.7,0.6,0.4,1.2-1.1,1.8
	c-1.8,0.7-4.5,1-8.2,0.9c-3.6-0.1-6.4-0.5-8.6-1.4c-1.7-0.7-2.4-1.2-2-1.6c0.1-0.1,0.5-0.8,1.4-2.4c0.9-1.4,1.6-2.3,2.2-2.6
	c0.5-0.3,1.2-0.3,2.1,0c0.8,0.3,1.4,0.3,1.7,0c0.4-0.3,0.4-0.8,0-1.5l-0.8-1.3c0-1.4,0.3-2.7,0.9-3.8c0.2-0.3,0.4-0.1,0.6,0.6
	C10,12,10,12,10.1,12c1.1-0.6,1.8-1,2.1-1.2c0.5-0.3,0.4-0.8-0.3-1.3h1.3C13.3,9.5,13.4,9.5,13.5,9.5z"/>
<radialGradient id="path152_1_" cx="1091.549" cy="306.3995" r="17.867" gradientTransform="matrix(0.109 0.792 -0.726 0.1 114.1365 -873.9155)" gradientUnits="userSpaceOnUse">
	<stop  offset="0" style="stop-color:#FFFFFF;stop-opacity:0.478"/>
	<stop  offset="0.71" style="stop-color:#FFFFFF;stop-opacity:8.200000e-02"/>
	<stop  offset="0.867" style="stop-color:#FFFFFF;stop-opacity:0.2"/>
	<stop  offset="1" style="stop-color:#FFFFFF;stop-opacity:2.800000e-02"/>
</radialGradient>
<path id="path152" inkscape:connector-curvature="0" class="st3" d="M15.6,14.8c2.9,1.1,4.9,3.1,6.2,6s1.3,5.8,0.1,8.7
	c-1.1,2.9-3.1,5-6,6.3c-2.9,1.3-5.7,1.4-8.6,0.2s-4.9-3.1-6.2-6c-1.2-2.9-1.2-5.8-0.1-8.7c1.1-2.9,3.1-5,6-6.3
	C9.9,13.7,12.7,13.6,15.6,14.8z"/>
<radialGradient id="path159_1_" cx="-419.6283" cy="301.7456" r="24.783" gradientTransform="matrix(0.607 -0.522 0.522 0.607 100.828 -371.9489)" gradientUnits="userSpaceOnUse">
	<stop  offset="0" style="stop-color:#FFFFFF;stop-opacity:0.949"/>
	<stop  offset="1" style="stop-color:#8A9B9E"/>
</radialGradient>
<path id="path159" inkscape:connector-curvature="0" class="st4" d="M15.6,14.8c-2.8-1.1-5.6-1-8.4,0.2c-2.8,1.3-4.8,3.3-5.9,6.2
	c-1.1,2.9-1.1,5.7,0.1,8.6c1.2,2.8,3.2,4.8,6,5.9c2.9,1.1,5.7,1,8.4-0.2c2.8-1.3,4.8-3.3,5.9-6.2c1.1-2.9,1.1-5.7-0.1-8.5
	C20.4,17.9,18.4,16,15.6,14.8L15.6,14.8z M1,21.3c1.1-2.9,3.1-5,6-6.3c2.9-1.3,5.7-1.4,8.6-0.2c2.9,1.1,4.9,3.1,6.2,6
	c1.2,2.9,1.3,5.8,0.1,8.7c-1.1,2.9-3.1,5-6,6.3c-2.9,1.3-5.7,1.4-8.6,0.2s-4.9-3.1-6.2-6C-0.1,27.2-0.1,24.3,1,21.3L1,21.3z"/>
<radialGradient id="path166_1_" cx="1136.5717" cy="479.565" r="12.787" gradientTransform="matrix(0.161 0.784 -0.888 0.147 253.444 -943.6876)" gradientUnits="userSpaceOnUse">
	<stop  offset="0" style="stop-color:#FFFFFF;stop-opacity:0.588"/>
	<stop  offset="1" style="stop-color:#FFFFFF;stop-opacity:0"/>
</radialGradient>
<path id="path166" inkscape:connector-curvature="0" class="st5" d="M2.7,19.8c0.5-0.8,1.1-1.5,2-2.1c0.7-0.5,1.1-0.8,1.4-0.8
	c0.1,0,0.2,0.1,0.3,0.4c0.3,0.4,1,0.8,2.1,1.2c1.2,0.4,2.5,0.5,4,0.4c0.7-0.1,1.3-0.2,1.8-0.3c1.8,0.6,2.9,1.9,3.3,4
	c0.2,1,0.3,2,0.1,2.9l-0.1,1.3c-0.2,1-0.6,1.8-1.3,2.5c-2.1,2.1-6.1,2.2-12,0.2c-1.8-0.6-2.7-2-2.9-4.2C1.3,23.3,1.7,21.5,2.7,19.8z
	"/>
<radialGradient id="path173_1_" cx="1205.1635" cy="476.0999" r="8.396" gradientTransform="matrix(0.161 0.784 -0.867 0.178 238.249 -1012.1045)" gradientUnits="userSpaceOnUse">
	<stop  offset="0" style="stop-color:#FFFFFF;stop-opacity:0.62"/>
	<stop  offset="1" style="stop-color:#FFFFFF;stop-opacity:2.800000e-02"/>
</radialGradient>
<path id="path173" inkscape:connector-curvature="0" class="st6" d="M16.3,17.6c0.2-0.2,0.2-0.6,0-1.2L16,15.6l2,1.3
	c1.5,1.1,2.5,2.4,3.1,3.8c0.6,1.4,0.9,2.8,0.8,4.4c0,0.8-0.1,1.5-0.3,2l-1.8,0.3c0.2-0.2,0.3-0.5,0.4-1c0.2-0.9,0.1-2.1-0.3-3.6
	c-0.3-1.5-1-2.8-2.1-4C17.8,18.9,16.3,17.6,16.3,17.6z"/>
<linearGradient id="path180_1_" gradientUnits="userSpaceOnUse" x1="1695.3787" y1="-233.0051" x2="1705.8787" y2="-233.0051" gradientTransform="matrix(0.745 0.292 0.292 -0.745 -1186.9154 -653.8158)">
	<stop  offset="0" style="stop-color:#FFFFFF;stop-opacity:0.949"/>
	<stop  offset="1" style="stop-color:#ABD9DB"/>
</linearGradient>
<path id="path180" inkscape:connector-curvature="0" class="st7" d="M7.2,16.2c0-0.5,0.5-0.8,1.4-1.1c0.9-0.3,1.9-0.5,3.2-0.4
	s2.3,0.2,3.1,0.5c0.9,0.3,1.3,0.7,1.2,1.2s-0.4,0.8-1.2,1.1c-0.4,0.1-0.9,0.2-1.4,0.3c0.5-0.1,0.9-0.2,1.2-0.3
	c0.7-0.3,1.1-0.6,1.2-1c0-0.4-0.4-0.8-1.2-1.1c-0.8-0.3-1.8-0.5-3-0.5c-1.2,0-2.2,0.1-3,0.4c-0.9,0.3-1.3,0.7-1.3,1.1
	c0,0.4,0.3,0.7,1,1c0.4,0.2,0.8,0.3,1.2,0.4c-0.5-0.1-0.9-0.2-1.3-0.4C7.5,16.9,7.2,16.6,7.2,16.2z"/>
<linearGradient id="path187_1_" gradientUnits="userSpaceOnUse" x1="1543.8756" y1="-616.4886" x2="1553.1757" y2="-616.4886" gradientTransform="matrix(0.78 0.176 0.176 -0.78 -1088.1895 -737.2377)">
	<stop  offset="0" style="stop-color:#000000;stop-opacity:0.247"/>
	<stop  offset="1" style="stop-color:#000000;stop-opacity:2.800000e-02"/>
</linearGradient>
<path id="path187" inkscape:connector-curvature="0" class="st8" d="M15.9,16.3c0,0.4-0.5,0.8-1.3,1.1c-0.8,0.3-1.8,0.4-3,0.4
	c-1.2,0-2.2-0.2-3-0.5c-0.8-0.3-1.2-0.7-1.2-1.1c0-0.4,0.5-0.8,1.3-1.1c0.9-0.3,1.9-0.4,3-0.4c1.2,0,2.2,0.2,3,0.5
	C15.5,15.5,15.9,15.9,15.9,16.3z"/>
<linearGradient id="path194_1_" gradientUnits="userSpaceOnUse" x1="-3079.8484" y1="-1033.6024" x2="-3072.9485" y2="-1033.6024" gradientTransform="matrix(-0.205 -0.773 -0.773 0.205 -1417.7346 -2158.603)">
	<stop  offset="0" style="stop-color:#FFFFFF;stop-opacity:0.22"/>
	<stop  offset="1" style="stop-color:#FFFFFF;stop-opacity:2.800000e-02"/>
</linearGradient>
<path id="path194" inkscape:connector-curvature="0" class="st9" d="M15,8.6c0.8-0.3,1.3-0.7,1.3-1.1c0-0.5-0.4-0.8-1.2-1.2
	c-0.8-0.3-1.8-0.5-3-0.6c-1.2,0-2.2,0.1-3,0.4C8.2,6.5,7.8,6.9,7.8,7.3c0,0.5,0.4,0.9,1.2,1.2C9.8,8.8,10.8,9,12,9
	C13.1,9.1,14.1,9,15,8.6z M17.3,8c0,0.7-0.6,1.2-1.6,1.7c-1.1,0.5-2.3,0.7-3.8,0.6c-1.5,0-2.7-0.3-3.7-0.8C7.2,9,6.7,8.5,6.7,7.8
	s0.6-1.2,1.6-1.7c1-0.4,2.3-0.6,3.8-0.6c1.5,0,2.7,0.3,3.7,0.8C16.8,6.8,17.3,7.4,17.3,8z"/>
<linearGradient id="path201_1_" gradientUnits="userSpaceOnUse" x1="1264.8608" y1="-1061.0435" x2="1275.6609" y2="-1061.0435" gradientTransform="matrix(0.8 2.200000e-02 2.200000e-02 -0.8 -980.7958 -863.3688)">
	<stop  offset="0" style="stop-color:#FFFFFF;stop-opacity:0.22"/>
	<stop  offset="1" style="stop-color:#FFFFFF;stop-opacity:2.800000e-02"/>
</linearGradient>
<path id="path201" inkscape:connector-curvature="0" class="st10" d="M14.7,10c0.8-0.3,1.3-0.6,1.5-1L16,16l0.1,0.3
	c0,0.5-0.5,0.9-1.3,1.2c-0.9,0.3-1.9,0.5-3.1,0.5c-1.2,0-2.2-0.2-3-0.6c-0.9-0.4-1.3-0.8-1.2-1.3l0.1-0.3l0.2-7
	c0.2,0.4,0.6,0.8,1.4,1.1c0.8,0.3,1.7,0.4,2.8,0.4C13,10.4,13.9,10.2,14.7,10z"/>
<linearGradient id="path208_1_" gradientUnits="userSpaceOnUse" x1="1265.3608" y1="-1060.9294" x2="1274.5609" y2="-1060.9294" gradientTransform="matrix(0.8 2.200000e-02 2.200000e-02 -0.8 -980.7958 -863.3688)">
	<stop  offset="0" style="stop-color:#FFFFFF;stop-opacity:0.22"/>
	<stop  offset="1" style="stop-color:#FFFFFF;stop-opacity:2.800000e-02"/>
</linearGradient>
<path id="path208" inkscape:connector-curvature="0" class="st11" d="M8.3,9.3c0.8,0.6,2,0.9,3.6,0.9c1.5,0.1,2.8-0.2,3.7-0.8
	l-0.2,5.8l0.1,0.3c0,0.5-0.4,0.9-1.2,1.2c-0.7,0.3-1.6,0.5-2.6,0.4c-1,0-1.9-0.2-2.6-0.6c-0.7-0.3-1.1-0.8-1-1.2l0.1-0.3L8.3,9.3z"
	/>
<linearGradient id="path215_1_" gradientUnits="userSpaceOnUse" x1="1264.7609" y1="-1066.4587" x2="1275.5609" y2="-1066.4587" gradientTransform="matrix(0.8 2.200000e-02 2.200000e-02 -0.8 -980.7958 -863.3688)">
	<stop  offset="0" style="stop-color:#FFFFFF;stop-opacity:0.949"/>
	<stop  offset="1" style="stop-color:#ABD9DB"/>
</linearGradient>
<path id="path215" inkscape:connector-curvature="0" class="st12" d="M13,17.8c-0.3,0.1-0.7,0.1-1.4,0.1c-0.7,0-1.4-0.1-2.2-0.3
	l-0.1-0.2c0.7,0.2,1.5,0.3,2.6,0.3C11.9,17.8,13,17.8,13,17.8z"/>
<linearGradient id="path222_1_" gradientUnits="userSpaceOnUse" x1="1264.8608" y1="-1060.5021" x2="1275.6609" y2="-1060.5021" gradientTransform="matrix(0.8 2.200000e-02 2.200000e-02 -0.8 -980.7958 -863.3688)">
	<stop  offset="0" style="stop-color:#FFFFFF;stop-opacity:0.949"/>
	<stop  offset="1" style="stop-color:#809C89"/>
</linearGradient>
<path id="path222" inkscape:connector-curvature="0" class="st13" d="M7.7,8.7c0,0.1,0.1,0.2,0.3,0.4l-0.1,5.6l0,0.1
	c0,0.7,0.2,1.4,0.6,1.9l-0.2,0.1c-0.2-0.1-0.4-0.2-0.5-0.2c-0.1,0-0.1,0.1,0,0.2L8.1,17V17c-0.5-0.3-0.7-0.6-0.7-1l0.1-0.3L7.7,8.7z
	"/>
<linearGradient id="path229_1_" gradientUnits="userSpaceOnUse" x1="1206.6147" y1="-1135.8009" x2="1216.4448" y2="-1135.8009" gradientTransform="matrix(0.8 -6.000000e-03 -6.000000e-03 -0.8 -964.5224 -888.4151)">
	<stop  offset="0" style="stop-color:#FFFFFF;stop-opacity:0.949"/>
	<stop  offset="1" style="stop-color:#9AAFB8"/>
</linearGradient>
<path id="path229" inkscape:connector-curvature="0" class="st14" d="M15.9,9.9c0-0.2,0-0.3-0.1-0.4c-0.1,0-0.2,0.1-0.5,0.2V9.6
	c0.5-0.2,0.8-0.5,1-0.8L16,15.9l0,0.3c0,0.3-0.2,0.5-0.5,0.8c0,0-0.1-0.1-0.4-0.3c0.2-0.2,0.3-0.4,0.4-0.7l0.2-0.6
	C15.7,15.5,15.9,9.9,15.9,9.9z"/>
<linearGradient id="path236_1_" gradientUnits="userSpaceOnUse" x1="747.8918" y1="2740.324" x2="752.2918" y2="2740.324" gradientTransform="matrix(-2.100000e-02 0.8 0.8 2.100000e-02 -2167.3569 -644.5953)">
	<stop  offset="0" style="stop-color:#FFFFFF;stop-opacity:0.42"/>
	<stop  offset="1" style="stop-color:#FFFFFF;stop-opacity:2.800000e-02"/>
</linearGradient>
<path id="path236" inkscape:connector-curvature="0" class="st15" d="M8.8,9.6c0.5,0.2,1,0.3,1.4,0.4l-0.2,7c-0.1,0-0.2,0.1-0.2,0.2
	l0.1,0.1v0l-0.5-0.2l-0.2,0c-0.1,0,0,0.1,0.1,0.3c-0.6-0.2-1-0.3-1.3-0.5c0-0.1,0.1-0.2,0.2-0.2l0.6,0.4l-0.5-0.4l0.2-0.1
	C8.6,16.6,8.8,9.6,8.8,9.6z"/>
<linearGradient id="path243_1_" gradientUnits="userSpaceOnUse" x1="1263.0582" y1="-1068.2231" x2="1273.7583" y2="-1068.2231" gradientTransform="matrix(0.8 2.100000e-02 2.100000e-02 -0.8 -980.2145 -864.2633)">
	<stop  offset="0" style="stop-color:#FFFFFF;stop-opacity:0.949"/>
	<stop  offset="1" style="stop-color:#ABD9DB"/>
</linearGradient>
<path id="path243" inkscape:connector-curvature="0" class="st16" d="M8.9,17.1l-0.6-0.4l0.2-0.1L8.9,17.1z"/>
<linearGradient id="path250_1_" gradientUnits="userSpaceOnUse" x1="747.8918" y1="2739.7603" x2="752.3918" y2="2739.7603" gradientTransform="matrix(-2.100000e-02 0.8 0.8 2.100000e-02 -2167.3569 -644.5953)">
	<stop  offset="0" style="stop-color:#FFFFFF;stop-opacity:0.42"/>
	<stop  offset="1" style="stop-color:#FFFFFF;stop-opacity:2.800000e-02"/>
</linearGradient>
<path id="path250" inkscape:connector-curvature="0" class="st17" d="M8.9,17.1l-0.6-0.4l0.2-0.1L8.9,17.1z"/>
<linearGradient id="path257_1_" gradientUnits="userSpaceOnUse" x1="1228.1448" y1="-1122.7802" x2="1228.2449" y2="-1118.2802" gradientTransform="matrix(0.8 0 0 -0.8 -968.0096 -883.048)">
	<stop  offset="0" style="stop-color:#FFFFFF;stop-opacity:0.137"/>
	<stop  offset="1" style="stop-color:#FFFFFF;stop-opacity:2.800000e-02"/>
</linearGradient>
<path id="path257" inkscape:connector-curvature="0" class="st18" d="M13.9,10.1l0.5-0.1c0.3,0,0.6-0.1,0.8-0.2l0.1,0L15,16.7l0.1,0
	c-0.2,0.2-0.3,0.3-0.6,0.5c0.5-0.1,0.7-0.1,0.7,0c-0.4,0.2-0.7,0.3-1.1,0.4c0.2-0.2,0.2-0.3,0.2-0.4l-0.2,0l-0.6,0.2
	C13.6,17.5,13.9,10.1,13.9,10.1z"/>
<linearGradient id="path264_1_" gradientUnits="userSpaceOnUse" x1="1262.6582" y1="-1059.2035" x2="1274.1582" y2="-1059.2035" gradientTransform="matrix(0.8 2.100000e-02 2.100000e-02 -0.8 -980.2145 -864.2633)">
	<stop  offset="0" style="stop-color:#FFFFFF"/>
	<stop  offset="1" style="stop-color:#ABD9DB"/>
</linearGradient>
<path id="path264" inkscape:connector-curvature="0" class="st19" d="M15.2,9.8C15,9.9,14.7,10,14.4,10l0.9-0.3L15.2,9.8
	C15.3,9.8,15.2,9.8,15.2,9.8z"/>
<linearGradient id="path271_1_" gradientUnits="userSpaceOnUse" x1="1228.4087" y1="-1122.8815" x2="1228.5087" y2="-1118.3815" gradientTransform="matrix(0.8 0 0 -0.8 -968.0096 -883.048)">
	<stop  offset="0" style="stop-color:#FFFFFF;stop-opacity:0.137"/>
	<stop  offset="1" style="stop-color:#FFFFFF;stop-opacity:2.800000e-02"/>
</linearGradient>
<path id="path271" inkscape:connector-curvature="0" class="st20" d="M15.2,9.8C15,9.9,14.7,10,14.4,10l0.9-0.3L15.2,9.8
	C15.3,9.8,15.2,9.8,15.2,9.8z"/>
<linearGradient id="path278_1_" gradientUnits="userSpaceOnUse" x1="1262.5582" y1="-1068.1461" x2="1274.1582" y2="-1068.1461" gradientTransform="matrix(0.8 2.100000e-02 2.100000e-02 -0.8 -980.2145 -864.2633)">
	<stop  offset="0" style="stop-color:#FFFFFF"/>
	<stop  offset="1" style="stop-color:#ABD9DB"/>
</linearGradient>
<path id="path278" inkscape:connector-curvature="0" class="st21" d="M15.2,16.7c0.3,0.2,0.4,0.3,0.4,0.3l-0.3,0.2
	c0-0.1-0.2-0.1-0.7,0C14.8,17.1,15,16.9,15.2,16.7z"/>
<linearGradient id="path285_1_" gradientUnits="userSpaceOnUse" x1="1228.9155" y1="-1122.6794" x2="1229.0156" y2="-1118.2794" gradientTransform="matrix(0.8 0 0 -0.8 -968.0096 -883.048)">
	<stop  offset="0" style="stop-color:#FFFFFF;stop-opacity:0.137"/>
	<stop  offset="1" style="stop-color:#FFFFFF;stop-opacity:2.800000e-02"/>
</linearGradient>
<path id="path285" inkscape:connector-curvature="0" class="st22" d="M15.2,16.7c0.3,0.2,0.4,0.3,0.4,0.3l-0.3,0.2
	c0-0.1-0.2-0.1-0.7,0C14.8,17.1,15,16.9,15.2,16.7z"/>
<path id="path287" inkscape:connector-curvature="0" class="st23" d="M9.8,17.2c0-0.1,0.1-0.1,0.2-0.2c0.2-0.1,0.4,0,0.6,0.1
	c0.4,0.2,0.6,0.3,0.4,0.3c-0.5,0-0.9-0.1-1-0.2C10,17.4,9.8,17.2,9.8,17.2z M11.4,17.6c-0.1-0.1-0.1-0.1-0.1-0.2
	c0.1-0.1,0.2-0.1,0.3-0.1c0.1,0,0.2,0.1,0.1,0.2C11.6,17.7,11.5,17.7,11.4,17.6z"/>
<linearGradient id="path294_1_" gradientUnits="userSpaceOnUse" x1="1263.0492" y1="-1056.3651" x2="1273.6492" y2="-1056.3651" gradientTransform="matrix(0.8 2.100000e-02 2.100000e-02 -0.8 -980.2145 -864.2633)">
	<stop  offset="0" style="stop-color:#000000;stop-opacity:8.600000e-02"/>
	<stop  offset="1" style="stop-color:#BCD9DB;stop-opacity:0.42"/>
</linearGradient>
<path id="path294" inkscape:connector-curvature="0" class="st24" d="M16.2,7.6c0,0.5-0.5,0.8-1.3,1.1c-0.9,0.3-1.9,0.5-3,0.4
	c-1.2,0-2.2-0.2-3-0.5C8.2,8.2,7.8,7.8,7.8,7.4c0-0.4,0.4-0.8,1.2-1.1c0.9-0.3,1.9-0.4,3-0.4c1.1,0,2.1,0.2,3,0.6
	C15.9,6.7,16.3,7.1,16.2,7.6z"/>
<linearGradient id="path301_1_" gradientUnits="userSpaceOnUse" x1="-3079.8484" y1="-1033.6029" x2="-3072.9485" y2="-1033.6029" gradientTransform="matrix(-0.205 -0.773 -0.773 0.205 -1417.7346 -2158.603)">
	<stop  offset="0" style="stop-color:#FFFFFF;stop-opacity:0.949"/>
	<stop  offset="1" style="stop-color:#9AAFB8"/>
</linearGradient>
<path id="path301" inkscape:connector-curvature="0" class="st25" d="M15.5,9.3c1-0.4,1.5-0.9,1.5-1.4c0-0.6-0.4-1.1-1.4-1.5
	S13.4,5.7,12,5.6c-1.4,0-2.6,0.2-3.6,0.6C7.5,6.6,7,7.1,7,7.6s0.5,1.1,1.4,1.5c1,0.5,2.1,0.7,3.5,0.7C13.3,9.9,14.5,9.7,15.5,9.3z
	 M15.8,6.3c1,0.5,1.5,1.1,1.5,1.7c0,0.7-0.6,1.2-1.6,1.7c-1.1,0.5-2.3,0.7-3.8,0.6c-1.5,0-2.7-0.3-3.7-0.8C7.2,9,6.7,8.5,6.7,7.8
	s0.6-1.2,1.6-1.7c1-0.4,2.3-0.6,3.8-0.6C13.5,5.5,14.8,5.8,15.8,6.3z"/>
<linearGradient id="path308_1_" gradientUnits="userSpaceOnUse" x1="1692.184" y1="-222.6553" x2="1702.184" y2="-222.6553" gradientTransform="matrix(0.745 0.292 0.292 -0.745 -1186.9154 -653.8158)">
	<stop  offset="0" style="stop-color:#FFFFFF;stop-opacity:0.949"/>
	<stop  offset="1" style="stop-color:#ABD9DB"/>
</linearGradient>
<path id="path308" inkscape:connector-curvature="0" class="st26" d="M13,5.9c0.8,0.1,1.5,0.3,2.1,0.5c0.8,0.3,1.1,0.7,1.1,1.2
	c0,0.5-0.5,0.8-1.3,1.1c-0.9,0.3-1.9,0.5-3,0.4c-1.2,0-2.2-0.2-3-0.5C8.2,8.2,7.8,7.8,7.8,7.4c0-0.4,0.4-0.8,1.2-1.1
	c0.5-0.2,1.1-0.3,1.7-0.3c-0.5,0.1-1,0.2-1.5,0.3C8.4,6.5,8,6.9,8,7.3c0,0.4,0.4,0.8,1.2,1.2C9.9,8.8,10.9,9,12,9
	c1.1,0,2-0.1,2.8-0.4c0.8-0.3,1.2-0.7,1.2-1.1c0-0.4-0.4-0.8-1.1-1.1C14.4,6.2,13.8,6,13,5.9z"/>
<linearGradient id="path315_1_" gradientUnits="userSpaceOnUse" x1="1263.0492" y1="-1056.4246" x2="1273.6492" y2="-1056.4246" gradientTransform="matrix(0.8 2.100000e-02 2.100000e-02 -0.8 -980.2145 -864.2633)">
	<stop  offset="0" style="stop-color:#FFFFFF;stop-opacity:0.949"/>
	<stop  offset="1" style="stop-color:#9AAFB8"/>
</linearGradient>
<path id="path315" inkscape:connector-curvature="0" class="st27" d="M13.6,6c0.5,0.1,1,0.2,1.4,0.4c0.8,0.3,1.2,0.7,1.2,1.2
	c0,0.5-0.5,0.8-1.3,1.1c-0.9,0.3-1.9,0.5-3,0.4c-1.2,0-2.2-0.2-3-0.5C8.2,8.2,7.8,7.8,7.8,7.4c0-0.4,0.4-0.8,1.2-1.1
	c0.5-0.2,1.1-0.3,1.7-0.3c-0.5,0.1-1,0.2-1.5,0.3C8.5,6.5,8.1,6.8,8,7.3c0,0.4,0.4,0.8,1.1,1.1c0.8,0.3,1.7,0.5,2.8,0.5
	c1.1,0.1,2-0.1,2.8-0.4C15.6,8.2,16,7.9,16,7.4c0-0.4-0.4-0.8-1.2-1.1C14.5,6.2,14.1,6.1,13.6,6z"/>
<path id="path317" inkscape:connector-curvature="0" class="st28" d="M7.1,1.1l0.8-0.4C8.6,0.4,9.7,0.2,11,0.1
	c1.5-0.2,2.9-0.1,4.2,0.3c0.6,0.2,1.1,0.4,1.5,0.6l-0.6,6.6C16,7.8,15.7,8,15.3,8.2c-0.8,0.4-1.9,0.6-3.4,0.6
	c-1.5,0-2.7-0.2-3.5-0.6L7.8,7.5C7.7,5.6,7.5,4.4,7.4,3.8C7.4,3.8,7.1,1.1,7.1,1.1z"/>
<path id="path319" inkscape:connector-curvature="0" class="st29" d="M7.1,1.1c0.2,0,0.3,0.1,0.4,0.2C7.7,1.5,8,1.6,8.4,1.6L9.3,2
	l0.9,0.2c0.2,0.1,0.9,0.1,2,0.1l1.1,0c0.1,0,0.1-0.1,0.2-0.1c0-0.1,0.1-0.1,0.1-0.2c0-0.1,0.1-0.1,0.2-0.1c0,0.2,0.1,0.4,0.2,0.5
	c0,0,0.2,0.1,0.5,0.2c0.2,0.1,0.3,0.2,0.2,0.3c0,0.3-0.3,0.5-0.9,0.7c-0.4,0.1-0.8,0.2-1.3,0.3c-0.6,0-1,0-1.3,0
	C9.9,3.7,9,3.6,8.5,3.4L7.3,2.8C7.3,2.8,7.1,1.1,7.1,1.1z"/>
<linearGradient id="path326_1_" gradientUnits="userSpaceOnUse" x1="-2996.4226" y1="2288.1394" x2="-2993.9226" y2="2288.1394" gradientTransform="matrix(-0.8 8.000000e-03 8.000000e-03 0.8 -2403.8794 -1805.7969)">
	<stop  offset="0" style="stop-color:#C1A064"/>
	<stop  offset="1" style="stop-color:#706341"/>
</linearGradient>
<path id="path326" inkscape:connector-curvature="0" class="st30" d="M10.8,0.5c0.1,0,0.2,0.1,0.2,0.2c0,0.1-0.1,0.2-0.2,0.2
	C10.7,1,10.6,1,10.3,1H9c0-0.3,0.4-0.5,1.3-0.5C10.3,0.5,10.8,0.5,10.8,0.5z"/>
<linearGradient id="path333_1_" gradientUnits="userSpaceOnUse" x1="-2990.6858" y1="2296.6873" x2="-2988.9558" y2="2296.6873" gradientTransform="matrix(-0.8 1.100000e-02 1.100000e-02 0.8 -2405.623 -1803.1134)">
	<stop  offset="0" style="stop-color:#C1A064"/>
	<stop  offset="1" style="stop-color:#706341"/>
</linearGradient>
<path id="path333" inkscape:connector-curvature="0" class="st31" d="M10.9,1.4c-0.1-0.2,0-0.2,0.3-0.2c0.1,0,0.3,0,0.5,0l0.5,0
	c-0.1,0.2-0.2,0.3-0.2,0.3h-0.4C11.6,1.5,10.9,1.4,10.9,1.4z"/>
<linearGradient id="path340_1_" gradientUnits="userSpaceOnUse" x1="-3015.2888" y1="2266.8359" x2="-3014.7888" y2="2266.8359" gradientTransform="matrix(-0.8 0 0 0.8 -2399.23 -1812.953)">
	<stop  offset="0" style="stop-color:#C1A064"/>
	<stop  offset="1" style="stop-color:#706341"/>
</linearGradient>
<path id="path340" inkscape:connector-curvature="0" class="st32" d="M12.5,0.4h0.2c0.1,0,0.2,0,0.3,0.1c-0.2,0.1-0.3,0.1-0.4,0
	C12.5,0.5,12.5,0.5,12.5,0.4z"/>
<linearGradient id="path347_1_" gradientUnits="userSpaceOnUse" x1="-3004.5525" y1="2287.7444" x2="-3000.8025" y2="2287.7444" gradientTransform="matrix(-0.8 8.000000e-03 8.000000e-03 0.8 -2403.8794 -1805.7969)">
	<stop  offset="0" style="stop-color:#C1A064"/>
	<stop  offset="1" style="stop-color:#706341"/>
</linearGradient>
<path id="path347" inkscape:connector-curvature="0" class="st33" d="M14.5,0.5c-0.2-0.1-0.2-0.2-0.1-0.3l1.4,0.4h-0.2
	c-0.2,0-0.4,0-0.6,0C14.8,0.6,14.7,0.6,14.5,0.5z"/>
<linearGradient id="path354_1_" gradientUnits="userSpaceOnUse" x1="-3019.4888" y1="2267.2861" x2="-3018.5889" y2="2267.2861" gradientTransform="matrix(-0.8 0 0 0.8 -2399.23 -1812.953)">
	<stop  offset="0" style="stop-color:#C1A064"/>
	<stop  offset="1" style="stop-color:#706341"/>
</linearGradient>
<path id="path354" inkscape:connector-curvature="0" class="st34" d="M15.6,1c0,0,0-0.1,0-0.2h0.6C16.2,0.9,16,1,15.6,1z"/>
<path id="path356" inkscape:connector-curvature="0" class="st35" d="M7.1,1.1l0.9,0.7c0.9,0.5,2,0.7,3.4,0.6h3.4
	c-0.1-0.1-0.3-0.2-0.4-0.3c-0.2-0.2-0.3-0.4-0.2-0.5c0.1-0.1,0.4-0.1,0.8,0c0.2,0.1,0.5,0.1,0.6,0.2c0.5-0.1,0.8-0.4,1-0.9h0
	l-0.6,6.6C16,7.8,15.7,8,15.3,8.2c-0.8,0.4-1.9,0.6-3.4,0.6c-1.5,0-2.7-0.2-3.5-0.6L7.8,7.5C7.7,5.6,7.5,4.4,7.4,3.8
	C7.4,3.8,7.1,1.1,7.1,1.1z"/>
<path id="path358" inkscape:connector-curvature="0" class="st36" d="M11.8,7.6c0.2,0.1,0.3,0.1,0.5-0.2c-0.1-0.1-0.1-0.2-0.2-0.2
	L11.9,7C11.7,7.3,11.7,7.5,11.8,7.6z M13.2,5.6l-0.2-0.1c0,0.1,0,0.3,0,0.6h0.3C13.3,5.8,13.3,5.6,13.2,5.6z M13.2,4.3
	c0.2,0,0.3-0.1,0.3-0.3c0.1-0.3,0-0.6-0.2-0.7h-0.2c-0.2,0-0.3,0.2-0.2,0.5S13,4.2,13.2,4.3z M15.5,1.8h0.2c0,0.6-0.1,0.9-0.3,1.1
	C15.2,3,15,3,14.7,3c-0.3-0.1-0.5-0.2-0.5-0.4c-0.4-0.1-0.7-0.1-0.9-0.1H12c0.8,0.1,1.4,0.3,1.8,0.6c0.1,0.1,0.3,0.2,0.4,0.5
	c0.3,0.2,0.5,0.5,0.5,0.7c0,0.2-0.1,0.4-0.4,0.6C14.1,5.2,14,5.4,14,5.5c0,0.1,0,0.2,0.1,0.3c0,0.1-0.1,0.2-0.2,0.5
	c-0.1,0.2-0.2,0.3-0.2,0.3L13.8,7c0,0.3-0.1,0.4-0.2,0.5c-0.1,0.1-0.3,0-0.4,0c-0.2-0.1-0.3-0.1-0.4-0.2c0,0.1-0.1,0.1-0.2,0.3
	l-0.2,0l-0.1,0.2c-0.1,0.1-0.3,0.1-0.6,0.1c-0.2,0.2-0.4,0.3-0.6,0.3c-0.1,0-0.5-0.1-1.3-0.2c-0.1,0-0.2,0-0.2,0
	c0,0-0.1-0.1-0.1-0.2c0-0.1-0.1-0.2-0.2-0.3C9,7.4,8.9,7.3,8.8,7.2C8.8,7.2,8.6,7.3,8.4,7.2c-0.2,0-0.3,0-0.4-0.1L7.8,6.8l-0.1-1
	C7.7,6,7.8,6.1,7.9,6.2c0.2,0.3,0.4,0.4,0.6,0.3c0.1-0.1,0.2-0.2,0.3-0.3c0.2,0.4,0.6,0.6,1,0.7c0.1,0,0.3,0.1,0.6,0.1
	c0.2,0.1,0.3,0.2,0.3,0.4c0.2,0.1,0.3,0,0.4-0.1c0.1-0.1,0.1-0.1,0.1-0.2c0-0.1,0.1-0.2,0.1-0.2c0.1,0.1,0.3,0.1,0.6,0
	c0.1-0.4,0.2-0.6,0.4-0.6c0.1,0,0.2-0.1,0.3-0.1c0.1,0,0.1-0.1,0.2-0.3c0.1-0.2,0.1-0.5,0-0.8c0-0.1-0.1-0.2-0.2-0.3
	c-0.1-0.1-0.2,0-0.2,0.1c-0.2,0-0.4-0.2-0.5-0.5l-0.3-0.7c-0.3-0.4-0.7-0.7-1.2-0.9c-0.2-0.1-0.4-0.2-0.7-0.4L9.5,2.3
	c0.7,0.1,1.3,0.1,1.8,0.1h3.2c0,0.1,0.1,0.2,0.2,0.3c0.1,0.1,0.2,0.1,0.4,0.1c0.3,0,0.4-0.3,0.4-0.8C15.5,2,15.5,1.8,15.5,1.8z"/>
<path id="path360" inkscape:connector-curvature="0" class="st37" d="M15.1,1.8c-0.5-0.2-0.8-0.2-1-0.1l0,0c0.2-0.1,0.6-0.1,1.4,0.2
	V2c0.1,0.5-0.1,0.8-0.4,0.8c-0.1,0-0.3,0-0.4-0.1c0.2,0.1,0.4,0,0.5-0.2c0.1-0.1,0.1-0.3,0.1-0.5c0-0.1-0.1-0.2-0.1-0.2
	C15.3,1.8,15.1,1.8,15.1,1.8z"/>
<path id="path362" inkscape:connector-curvature="0" class="st38" d="M14.3,5.4c0,0.2,0.1,0.3,0.2,0.4c0.2,0.1,0.4,0,0.4-0.2
	c0.1-0.2,0-0.4-0.1-0.6h-0.3C14.3,5,14.3,5.1,14.3,5.4z M15.7,1.8l0.1-0.1c0,0.1,0.1,0.3,0.1,0.6c0,0.2,0,0.4-0.1,0.8
	c0,0.1,0,0.4,0,1c0,0.3-0.1,0.5-0.3,0.7c-0.1,0.2-0.1,0.5,0,0.9c0,0.2,0,0.4,0.1,0.7c-0.1,0.5-0.2,0.7-0.3,0.8c0,0-0.1,0.1-0.3,0.2
	c-0.1,0-0.2,0.1-0.2,0.2c-0.2,0-0.4,0.1-0.7,0.3c-0.4,0.3-0.6,0.4-0.7,0.4c-0.2,0.1-0.7,0.1-1.7,0.1c-0.6,0-1,0-1.3-0.1l-0.6,0
	C9.4,8.1,9.2,8,9,8L8.4,7.8C8.2,7.7,8,7.6,7.8,7.6l0,0l0-0.7L8,7.1c0.1,0.1,0.2,0.1,0.4,0.1c0.2,0,0.3,0,0.4-0.1
	C8.9,7.3,9,7.4,9.2,7.4c0.1,0.1,0.1,0.2,0.2,0.3c0.1,0.1,0.1,0.2,0.1,0.2c0,0,0.1,0,0.2,0c0.8,0.2,1.2,0.2,1.3,0.2
	c0.2,0,0.4-0.1,0.6-0.3c0.3,0,0.5,0,0.6-0.1l0.1-0.2l0.2,0c0.2-0.1,0.2-0.2,0.2-0.3c0.1,0,0.2,0.1,0.4,0.2c0.1,0.1,0.3,0.1,0.4,0
	c0.2-0.1,0.2-0.2,0.2-0.5l-0.1-0.4c0-0.1,0.1-0.2,0.2-0.3c0.1-0.2,0.2-0.4,0.2-0.5C14.1,5.7,14,5.6,14,5.5c0-0.1,0.1-0.3,0.3-0.6
	c0.2-0.3,0.4-0.5,0.4-0.6c0-0.2-0.2-0.5-0.5-0.7c-0.2-0.2-0.3-0.4-0.4-0.5c-0.4-0.3-1-0.5-1.8-0.6h1.3c0.2,0,0.5,0,0.9,0.1
	c0,0.2,0.1,0.3,0.5,0.4c0.3,0,0.5,0,0.7-0.1C15.6,2.7,15.7,2.4,15.7,1.8z"/>
<path id="path364" inkscape:connector-curvature="0" class="st39" d="M15.8,1.7c0.4-0.2,0.6-0.5,0.8-0.8h0l-0.3,2.9
	c-0.2,0-0.3,0.2-0.2,0.5c0,0.2,0.1,0.3,0.2,0.4l-0.2,2.9C16,7.8,15.7,8,15.3,8.2c-0.8,0.4-1.9,0.6-3.4,0.6c-1.4,0-2.5-0.2-3.3-0.6
	C8.2,8,7.9,7.8,7.8,7.6c0.2,0,0.3,0.1,0.6,0.2L9,8c0.2,0,0.4,0.1,0.7,0.3l0.6,0c0.3,0.1,0.7,0.1,1.3,0.1c0.9,0,1.5,0,1.7-0.1
	c0.1,0,0.3-0.2,0.7-0.4c0.2-0.2,0.5-0.3,0.7-0.3c0-0.1,0.1-0.2,0.2-0.2c0.2-0.1,0.3-0.1,0.3-0.2c0.1-0.1,0.2-0.3,0.3-0.8
	c-0.1-0.3-0.1-0.5-0.1-0.7c-0.1-0.4-0.1-0.7,0-0.9c0.2-0.2,0.3-0.5,0.3-0.7c0-0.6,0-0.9,0-1C15.9,2.7,16,2.4,16,2.3
	C15.9,2,15.9,1.8,15.8,1.7z"/>
<linearGradient id="path371_1_" gradientUnits="userSpaceOnUse" x1="-2835.7285" y1="-1305.6385" x2="-2833.6287" y2="-1305.6385" gradientTransform="matrix(-0.1 -0.794 -0.794 0.1 -1311.6057 -2116.3628)">
	<stop  offset="0" style="stop-color:#C1A064"/>
	<stop  offset="1" style="stop-color:#706341"/>
</linearGradient>
<path id="path371" inkscape:connector-curvature="0" class="st40" d="M8.6,4.4c-0.1,0-0.3,0-0.4-0.2C8.1,4.1,8,3.9,8,3.7
	c0-0.2,0-0.4,0.1-0.6c0.1-0.2,0.2-0.3,0.3-0.3c0.1,0,0.3,0,0.4,0.2C8.9,3.1,9,3.3,9,3.5c0.1,0.2,0,0.4-0.1,0.6
	C8.9,4.3,8.8,4.4,8.6,4.4L8.6,4.4z"/>
<linearGradient id="path378_1_" gradientUnits="userSpaceOnUse" x1="-2835.7668" y1="-1310.5818" x2="-2833.3669" y2="-1310.5818" gradientTransform="matrix(-9.900000e-02 -0.794 -0.794 9.900000e-02 -1310.7112 -2115.7815)">
	<stop  offset="0" style="stop-color:#C1A064"/>
	<stop  offset="1" style="stop-color:#706341"/>
</linearGradient>
<path id="path378" inkscape:connector-curvature="0" class="st41" d="M11,5.6C10.5,5.8,10,5.6,9.7,5c-0.3-0.6-0.2-1,0.3-1.3h0.2
	c0.3,0,0.5,0,0.6,0c0.2,0.1,0.3,0.3,0.4,0.6C11.3,5,11.3,5.5,11,5.6z"/>
<linearGradient id="path385_1_" gradientUnits="userSpaceOnUse" x1="-2833.6021" y1="-1311.4767" x2="-2832.4019" y2="-1311.4767" gradientTransform="matrix(-9.800000e-02 -0.794 -0.794 9.800000e-02 -1309.8167 -2115.2004)">
	<stop  offset="0" style="stop-color:#C1A064"/>
	<stop  offset="1" style="stop-color:#706341"/>
</linearGradient>
<path id="path385" inkscape:connector-curvature="0" class="st42" d="M8.7,5.6c-0.1-0.5,0-0.7,0.2-0.7L9.2,5C9.4,5,9.5,5.3,9.4,5.8
	C9.1,5.8,8.8,5.8,8.7,5.6z"/>
<linearGradient id="path392_1_" gradientUnits="userSpaceOnUse" x1="-2809.6169" y1="-1334.4161" x2="-2808.917" y2="-1334.4161" gradientTransform="matrix(-8.800000e-02 -0.795 -0.795 8.800000e-02 -1300.2904 -2110.283)">
	<stop  offset="0" style="stop-color:#C1A064"/>
	<stop  offset="1" style="stop-color:#706341"/>
</linearGradient>
<path id="path392" inkscape:connector-curvature="0" class="st43" d="M7.6,5.2c0.3,0,0.4,0.1,0.3,0.4L7.7,5.7
	C7.7,5.7,7.6,5.2,7.6,5.2z"/>
<path id="path394" inkscape:connector-curvature="0" class="st44" d="M13.2,4.3c-0.2,0-0.3-0.2-0.4-0.5s0-0.5,0.2-0.5h0.2
	c0.2,0.1,0.3,0.4,0.2,0.7C13.5,4.2,13.4,4.3,13.2,4.3z"/>
<linearGradient id="path401_1_" gradientUnits="userSpaceOnUse" x1="-2842.0505" y1="-1308.0443" x2="-2840.7505" y2="-1308.0443" gradientTransform="matrix(-0.102 -0.793 -0.793 0.102 -1313.976 -2116.6306)">
	<stop  offset="0" style="stop-color:#C1A064"/>
	<stop  offset="1" style="stop-color:#706341"/>
</linearGradient>
<path id="path401" inkscape:connector-curvature="0" class="st45" d="M13.2,4.3c-0.2,0-0.3-0.2-0.4-0.5s0-0.5,0.2-0.5h0.2
	c0.2,0.1,0.3,0.4,0.2,0.7C13.5,4.2,13.4,4.3,13.2,4.3z"/>
<path id="path403" inkscape:connector-curvature="0" class="st44" d="M13.2,5.6c0.1,0.1,0.1,0.2,0.1,0.5H13c0-0.3,0-0.5,0-0.6
	C13.1,5.4,13.2,5.6,13.2,5.6z"/>
<linearGradient id="path410_1_" gradientUnits="userSpaceOnUse" x1="-2848.7576" y1="-1302.2273" x2="-2848.0574" y2="-1302.2273" gradientTransform="matrix(-0.104 -0.793 -0.793 0.104 -1315.765 -2117.793)">
	<stop  offset="0" style="stop-color:#C1A064"/>
	<stop  offset="1" style="stop-color:#706341"/>
</linearGradient>
<path id="path410" inkscape:connector-curvature="0" class="st46" d="M13.2,5.6c0.1,0.1,0.1,0.2,0.1,0.5H13c0-0.3,0-0.5,0-0.6
	C13.1,5.4,13.2,5.6,13.2,5.6z"/>
<path id="path412" inkscape:connector-curvature="0" class="st44" d="M12.1,7.2c0.1,0,0.2,0.1,0.2,0.2c-0.2,0.3-0.4,0.4-0.5,0.2
	c-0.2-0.1-0.1-0.3,0.1-0.6L12.1,7.2z"/>
<linearGradient id="path419_1_" gradientUnits="userSpaceOnUse" x1="-2865.3999" y1="-1325.9108" x2="-2864.5999" y2="-1325.9108" gradientTransform="matrix(-9.300000e-02 -0.794 -0.793 0.11 -1305.9253 -2122.1746)">
	<stop  offset="0" style="stop-color:#C1A064"/>
	<stop  offset="1" style="stop-color:#706341"/>
</linearGradient>
<path id="path419" inkscape:connector-curvature="0" class="st47" d="M12.1,7.2c0.1,0,0.2,0.1,0.2,0.2c-0.2,0.3-0.4,0.4-0.5,0.2
	c-0.2-0.1-0.1-0.3,0.1-0.6L12.1,7.2z"/>
<path id="path421" inkscape:connector-curvature="0" class="st37" d="M14.5,5h0.3c0.1,0.2,0.1,0.4,0.1,0.6c-0.1,0.2-0.2,0.3-0.4,0.2
	c-0.1-0.1-0.2-0.2-0.2-0.4S14.3,5,14.5,5z"/>
<linearGradient id="path428_1_" gradientUnits="userSpaceOnUse" x1="-2826.8887" y1="-1326.3812" x2="-2825.7888" y2="-1326.3812" gradientTransform="matrix(-9.500000e-02 -0.794 -0.794 9.500000e-02 -1307.1332 -2113.4568)">
	<stop  offset="0" style="stop-color:#C1A064"/>
	<stop  offset="1" style="stop-color:#706341"/>
</linearGradient>
<path id="path428" inkscape:connector-curvature="0" class="st48" d="M14.5,5h0.3c0.1,0.2,0.1,0.4,0.1,0.6c-0.1,0.2-0.2,0.3-0.4,0.2
	c-0.1-0.1-0.2-0.2-0.2-0.4S14.3,5,14.5,5z"/>
<path id="path430" inkscape:connector-curvature="0" class="st39" d="M16.1,4.3c-0.1-0.3,0-0.5,0.2-0.5l0,0.8
	C16.2,4.6,16.1,4.5,16.1,4.3z"/>
<linearGradient id="path437_1_" gradientUnits="userSpaceOnUse" x1="-2851.7297" y1="-1335.396" x2="-2850.6296" y2="-1335.396" gradientTransform="matrix(-9.200000e-02 -0.795 -0.793 0.106 -1305.0308 -2120.7444)">
	<stop  offset="0" style="stop-color:#C1A064"/>
	<stop  offset="1" style="stop-color:#706341"/>
</linearGradient>
<path id="path437" inkscape:connector-curvature="0" class="st49" d="M16.1,4.3c-0.1-0.3,0-0.5,0.2-0.5l0,0.8
	C16.2,4.6,16.1,4.5,16.1,4.3z"/>
<path id="path439" inkscape:connector-curvature="0" class="st37" d="M15.3,1.8c0,0,0.1,0.1,0.1,0.2c0,0.2,0,0.3-0.1,0.5
	c-0.1,0.2-0.3,0.3-0.5,0.2l-0.2-0.3h0.1l-0.1-0.1l0-0.1L14.3,2l-0.1-0.2c-0.1-0.1-0.1-0.1,0-0.2c0.2-0.2,0.5-0.1,1,0.1
	C15.1,1.8,15.3,1.8,15.3,1.8z"/>
<linearGradient id="path446_1_" gradientUnits="userSpaceOnUse" x1="-2836.9873" y1="-1310.9728" x2="-2835.4873" y2="-1310.9728" gradientTransform="matrix(-0.101 -0.794 -0.794 0.101 -1312.5002 -2116.9438)">
	<stop  offset="0" style="stop-color:#C1A064"/>
	<stop  offset="1" style="stop-color:#706341"/>
</linearGradient>
<path id="path446" inkscape:connector-curvature="0" class="st50" d="M15.3,1.8c0,0,0.1,0.1,0.1,0.2c0,0.2,0,0.3-0.1,0.5
	c-0.1,0.2-0.3,0.3-0.5,0.2l-0.2-0.3h0.1l-0.1-0.1l0-0.1L14.3,2l-0.1-0.2c-0.1-0.1-0.1-0.1,0-0.2c0.2-0.2,0.5-0.1,1,0.1
	C15.1,1.8,15.3,1.8,15.3,1.8z"/>
<g>
	<g>
		<defs>
			<polygon id="SVGID_1_" points="20.1,32.5 21.3,17.9 0.5,17.9 0.5,33.3 			"/>
		</defs>
		<clipPath id="SVGID_2_">
			<use xlink:href="#SVGID_1_"  style="overflow:visible;"/>
		</clipPath>
		
			<linearGradient id="SVGID_3_" gradientUnits="userSpaceOnUse" x1="3.2551" y1="56.5794" x2="19.6072" y2="56.5794" gradientTransform="matrix(1 0 0 -1 0 82.3812)">
			<stop  offset="0" style="stop-color:#C2B294"/>
			<stop  offset="7.142900e-02" style="stop-color:#C7B89B"/>
			<stop  offset="0.1429" style="stop-color:#CBC1A3"/>
			<stop  offset="0.2143" style="stop-color:#D2C8AD"/>
			<stop  offset="0.2857" style="stop-color:#D8CFB6"/>
			<stop  offset="0.3571" style="stop-color:#D9D2B8"/>
			<stop  offset="0.4286" style="stop-color:#D9D2B8"/>
			<stop  offset="0.5" style="stop-color:#D9D2B8"/>
			<stop  offset="0.5714" style="stop-color:#D9D2B8"/>
			<stop  offset="0.6429" style="stop-color:#D6CFB5"/>
			<stop  offset="0.7143" style="stop-color:#D3C8AD"/>
			<stop  offset="0.7857" style="stop-color:#CDC1A6"/>
			<stop  offset="0.8571" style="stop-color:#C7B79C"/>
			<stop  offset="0.9286" style="stop-color:#BFAD8F"/>
			<stop  offset="1" style="stop-color:#BBAC89"/>
		</linearGradient>
		<path class="st51" d="M19.6,27.4c0-0.1,0-0.1,0-0.2c0-0.1,0-0.1,0-0.2c-0.1-0.2-0.1-0.4-0.1-0.7c0-0.1,0-0.2,0.1-0.3
			c0,0,0-0.1-0.1-0.1c-0.1-0.2-0.2-0.3-0.1-0.5c0-0.1,0.1-0.2,0.1-0.4c0-0.1,0-0.3,0-0.4c0-0.1,0-0.2,0-0.3c0-0.1,0-0.3,0-0.4
			c0,0,0,0,0,0c0-0.1,0-0.2,0-0.2c0-0.1-0.1-0.2-0.1-0.3c0-0.2,0-0.3,0.1-0.5c0-0.2,0-0.4,0-0.6c0-0.1,0-0.2,0.1-0.2
			c0-0.1,0.1-0.1,0.1-0.2c0-0.1-0.1-0.2-0.1-0.3c-0.1-0.1-0.1-0.3-0.1-0.4c0,0,0-0.1,0-0.1c0,0,0,0,0-0.1c0-0.1,0-0.2,0-0.2
			c0-0.1,0-0.1,0-0.2c0,0,0-0.1-0.1-0.1c-0.2-0.1-0.3,0-0.5-0.1c-0.2,0-0.3-0.1-0.5-0.1c-0.2,0-0.4,0.1-0.5,0.1
			c-0.2,0-0.3,0.1-0.5,0.1c-0.1,0-0.2-0.1-0.4-0.2c-0.2,0-0.3,0-0.4,0.1c-0.2,0.1-0.3,0.1-0.5,0.1c-0.1,0-0.1-0.1-0.1-0.1
			c-0.2,0.1-0.4,0.1-0.6,0.1c-0.1,0-0.3,0-0.4-0.1c-0.1-0.1-0.2-0.1-0.4-0.1c-0.1,0-0.3,0-0.4,0c-0.1,0-0.2,0.1-0.3,0.1c0,0,0,0,0,0
			s0,0-0.1,0c-0.3,0-0.6,0-0.8-0.1c0,0-0.1,0-0.1,0s0,0,0,0c0,0-0.1,0-0.1,0c-0.1,0-0.1,0-0.2,0c-0.1,0-0.1,0.1-0.2,0.1
			c-0.2,0.1-0.4,0.1-0.6,0c-0.1,0-0.2-0.1-0.3,0c-0.1,0-0.2,0.1-0.3,0.1c-0.2,0.1-0.4,0-0.6,0.1c0,0-0.1,0-0.1,0
			c-0.3,0.1-0.5,0.1-0.8,0.1c-0.2,0-0.3-0.1-0.5-0.1c-0.1,0-0.3,0-0.4,0c-0.3,0-0.6,0.1-1,0.1c-0.1,0-0.1,0-0.1-0.1c0,0,0,0,0,0
			c0,0,0-0.1,0-0.1c0,0,0,0,0,0c-0.2,0-0.4,0-0.6,0c-0.2,0-0.3,0-0.5,0.1c-0.1,0.1-0.3,0.1-0.4,0.1c-0.1,0-0.3,0-0.4-0.1
			c-0.1-0.1-0.2-0.1-0.3-0.2c0,0-0.1,0-0.1,0c-0.1,0-0.3,0.1-0.4,0.1c-0.2,0-0.3,0-0.4-0.1c-0.1,0-0.1-0.1,0-0.1c0,0,0,0-0.1,0
			c0,0-0.1,0-0.1,0c-0.1,0-0.1,0-0.2,0c0,0,0,0.1-0.1,0.1c-0.2,0-0.4,0-0.5-0.1c0,0.1-0.1,0.2-0.1,0.3c0,0.1,0.1,0.3,0.1,0.4
			c0.1,0.2,0,0.4-0.1,0.7c0,0.1-0.1,0.2,0,0.4c0,0.1,0.1,0.2,0.1,0.3c0,0.1,0,0.2-0.1,0.3c0.2,0.2,0,0.5,0,0.8
			c0,0.2,0.1,0.3,0.1,0.5c0,0.2,0,0.4,0.1,0.5c0,0.2,0.1,0.4,0.1,0.5c0,0.1,0,0.2,0,0.3c0,0.1,0,0.2,0,0.3c0,0.3-0.1,0.5-0.2,0.7
			c0,0,0,0.1,0,0.1c0,0.1,0,0.2,0,0.3c0,0,0,0,0,0c0,0,0,0,0,0c0,0,0.1,0,0.1,0.1c0.1,0.1,0,0.3-0.1,0.4c0,0-0.1,0.1-0.1,0.2
			c0,0.1,0,0.2,0,0.3c0,0.1,0.1,0.2,0.2,0.3c0,0,0,0,0.1,0.1c0,0,0,0.1,0,0.1c0,0,0,0,0.1,0c0.1,0.1,0,0.3,0,0.4c0,0,0,0,0,0
			c0,0,0,0,0,0c0.1,0,0.1,0.1,0.1,0.1c0,0.1-0.1,0.2-0.2,0.3c0,0.1,0,0.1,0,0.2c0,0.1,0,0.1,0,0.2c0.1,0.1,0.1,0.1,0.2,0.2
			c0.1,0.2,0.1,0.4,0,0.6c0,0.1-0.1,0.2-0.1,0.3c0,0.1-0.1,0.1-0.1,0.2c0,0.1,0.1,0.1,0.1,0.2c0,0,0,0.1,0,0.2c0,0,0.1,0,0.1,0
			c0.1,0,0.2,0.1,0.2,0.1c0.2,0.1,0.4,0,0.6,0c0,0,0,0,0,0c0,0,0.1,0,0.1,0c0.2,0,0.3,0,0.4-0.1C5.1,31.1,5.2,31,5.3,31
			c0.1,0,0.2,0.1,0.4,0.1c0.1,0,0.3,0,0.4,0c0.2,0,0.3,0,0.5,0c0.2,0,0.3,0,0.4-0.1c0.1,0,0.2,0,0.3,0c0.1,0,0.2,0,0.3,0
			c0,0,0,0,0,0c0.1,0,0.2,0,0.4,0c0.1,0,0.2,0,0.3-0.1c0.2-0.1,0.4-0.1,0.5,0c0,0,0,0,0,0c0,0,0,0,0.1,0c0,0,0,0,0,0
			c0.4-0.2,0.8-0.2,1.3-0.2c0.1,0,0.1,0.1,0.1,0.1h0c0.1-0.2,0.5-0.1,0.7-0.1c0.1,0,0.3,0.1,0.4,0.1c0.2,0,0.5,0,0.7,0
			c0,0,0.1,0,0.1,0c0,0,0,0,0,0c0.1,0,0.2-0.1,0.4-0.1c0.2,0,0.3,0.1,0.5,0.1c0.2,0,0.3-0.1,0.5-0.1c0.2,0,0.3,0,0.5,0
			c0.1,0,0.1,0.1,0.1,0.1c0,0,0,0,0,0c0.1,0,0.2-0.1,0.3-0.1c0.1,0,0.2,0,0.3,0c0,0,0,0,0,0c0.1,0,0.2-0.1,0.3-0.1
			c0.1,0,0.3,0,0.4,0.1c0.1,0,0.3,0,0.4,0c0.1,0,0.2,0,0.4,0c0.2,0,0.4-0.1,0.6-0.1c0.1,0,0.2,0,0.3,0.1c0.3,0,0.6,0,0.8-0.1
			c0.2,0,0.4-0.1,0.5,0c0.1,0,0.3,0.1,0.4,0.1c0,0,0.1,0,0.1-0.1c0.1,0,0.2-0.1,0.2-0.1c0-0.1-0.1-0.2-0.1-0.3c0-0.1,0-0.2,0-0.3
			c0-0.1,0-0.2-0.1-0.3c0-0.2,0-0.3,0-0.5c0-0.2,0.1-0.4,0.1-0.5c0-0.1,0-0.3,0-0.4c0,0,0,0,0,0c0-0.1-0.1-0.1-0.1-0.2
			c0-0.1,0-0.2,0.1-0.3C19.6,27.7,19.6,27.6,19.6,27.4z"/>
	</g>
</g>
<g>
	<g>
		<g>
			<defs>
				<polygon id="SVGID_4_" points="19.6,32.5 20.9,17.9 0,17.9 0,33.2 				"/>
			</defs>
			<clipPath id="SVGID_5_">
				<use xlink:href="#SVGID_4_"  style="overflow:visible;"/>
			</clipPath>
			
				<linearGradient id="SVGID_6_" gradientUnits="userSpaceOnUse" x1="2.8026" y1="1053.9785" x2="19.1547" y2="1053.9785" gradientTransform="matrix(1 0 0 1 0 -1028.1593)">
				<stop  offset="0" style="stop-color:#C2B294"/>
				<stop  offset="7.142900e-02" style="stop-color:#C7B89B"/>
				<stop  offset="0.1429" style="stop-color:#CBC1A3"/>
				<stop  offset="0.2143" style="stop-color:#D2C8AD"/>
				<stop  offset="0.2857" style="stop-color:#D8CFB6"/>
				<stop  offset="0.3571" style="stop-color:#D9D2B8"/>
				<stop  offset="0.4286" style="stop-color:#D9D2B8"/>
				<stop  offset="0.5" style="stop-color:#D9D2B8"/>
				<stop  offset="0.5714" style="stop-color:#D9D2B8"/>
				<stop  offset="0.6429" style="stop-color:#D6CFB5"/>
				<stop  offset="0.7143" style="stop-color:#D3C8AD"/>
				<stop  offset="0.7857" style="stop-color:#CDC1A6"/>
				<stop  offset="0.8571" style="stop-color:#C7B79C"/>
				<stop  offset="0.9286" style="stop-color:#BFAD8F"/>
				<stop  offset="1" style="stop-color:#BBAC89"/>
			</linearGradient>
			<path class="st52" d="M19.1,27.4c0-0.1,0-0.1,0-0.2s0-0.1,0-0.2C19,26.8,19,26.6,19,26.3c0-0.1,0-0.2,0.1-0.3c0,0,0-0.1-0.1-0.1
				c-0.1-0.2-0.2-0.3-0.1-0.5c0-0.1,0.1-0.2,0.1-0.4c0-0.1,0-0.3,0-0.4s0-0.2,0-0.3c0-0.1,0-0.3,0-0.4l0,0c0-0.1,0-0.2,0-0.2
				c0-0.1-0.1-0.2-0.1-0.3c0-0.2,0-0.3,0.1-0.5c0-0.2,0-0.4,0-0.6c0-0.1,0-0.2,0.1-0.2c0-0.1,0.1-0.1,0.1-0.2s-0.1-0.2-0.1-0.3
				C19,21.5,19,21.3,19,21.2v-0.1c0,0,0,0,0-0.1s0-0.2,0-0.2c0-0.1,0-0.1,0-0.2c0,0,0-0.1-0.1-0.1c-0.2-0.1-0.3,0-0.5-0.1
				c-0.2,0-0.3-0.1-0.5-0.1s-0.4,0.1-0.5,0.1c-0.2,0-0.3,0.1-0.5,0.1c-0.1,0-0.2-0.1-0.4-0.2c-0.2,0-0.3,0-0.4,0.1
				c-0.2,0.1-0.3,0.1-0.5,0.1c-0.1,0-0.1-0.1-0.1-0.1c-0.2,0.1-0.4,0.1-0.6,0.1c-0.1,0-0.3,0-0.4-0.1c-0.1-0.1-0.2-0.1-0.4-0.1
				c-0.1,0-0.3,0-0.4,0c-0.1,0-0.2,0.1-0.3,0.1l0,0c0,0,0,0-0.1,0c-0.3,0-0.6,0-0.8-0.1h-0.1l0,0h-0.1c-0.1,0-0.1,0-0.2,0
				c-0.1,0-0.1,0.1-0.2,0.1c-0.2,0.1-0.4,0.1-0.6,0c-0.1,0-0.2-0.1-0.3,0c-0.1,0-0.2,0.1-0.3,0.1c-0.2,0.1-0.4,0-0.6,0.1H10
				c-0.3,0.1-0.5,0.1-0.8,0.1c-0.2,0-0.3-0.1-0.5-0.1c-0.1,0-0.3,0-0.4,0c-0.3,0-0.6,0.1-1,0.1c-0.1,0-0.1,0-0.1-0.1l0,0v-0.1l0,0
				c-0.2,0-0.4,0-0.6,0s-0.3,0-0.5,0.1c-0.1,0.1-0.3,0.1-0.4,0.1s-0.3,0-0.4-0.1S5.1,20.5,5,20.4H4.9c-0.1,0-0.3,0.1-0.4,0.1
				c-0.2,0-0.3,0-0.4-0.1c-0.1,0-0.1-0.1,0-0.1c0,0,0,0-0.1,0H3.9c-0.1,0-0.1,0-0.2,0c0,0,0,0.1-0.1,0.1c-0.2,0-0.4,0-0.5-0.1
				c0,0.1-0.1,0.2-0.1,0.3c0,0.1,0.1,0.3,0.1,0.4c0.1,0.2,0,0.4-0.1,0.7c0,0.1-0.1,0.2,0,0.4c0,0.1,0.1,0.2,0.1,0.3
				c0,0.1,0,0.2-0.1,0.3c0.2,0.2,0,0.5,0,0.8c0,0.2,0.1,0.3,0.1,0.5s0,0.4,0.1,0.5c0,0.2,0.1,0.4,0.1,0.5s0,0.2,0,0.3
				c0,0.1,0,0.2,0,0.3c0,0.3-0.1,0.5-0.2,0.7v0.1c0,0.1,0,0.2,0,0.3l0,0l0,0c0,0,0.1,0,0.1,0.1c0.1,0.1,0,0.3-0.1,0.4
				c0,0-0.1,0.1-0.1,0.2s0,0.2,0,0.3c0,0.1,0.1,0.2,0.2,0.3c0,0,0,0,0.1,0.1v0.1c0,0,0,0,0.1,0c0.1,0.1,0,0.3,0,0.4l0,0l0,0
				c0.1,0,0.1,0.1,0.1,0.1c0,0.1-0.1,0.2-0.2,0.3c0,0.1,0,0.1,0,0.2s0,0.1,0,0.2c0.1,0.1,0.1,0.1,0.2,0.2c0.1,0.2,0.1,0.4,0,0.6
				c0,0.1-0.1,0.2-0.1,0.3c0,0.1-0.1,0.1-0.1,0.2s0.1,0.1,0.1,0.2c0,0,0,0.1,0,0.2h0.1c0.1,0,0.2,0.1,0.2,0.1c0.2,0.1,0.4,0,0.6,0
				l0,0h0.1c0.2,0,0.3,0,0.4-0.1S5,31,5.1,31c0.1,0,0.2,0.1,0.4,0.1c0.1,0,0.3,0,0.4,0c0.2,0,0.3,0,0.5,0s0.3,0,0.4-0.1
				c0.1,0,0.2,0,0.3,0c0.1,0,0.2,0,0.3,0l0,0c0.1,0,0.2,0,0.4,0c0.1,0,0.2,0,0.3-0.1c0.2-0.1,0.4-0.1,0.5,0l0,0c0,0,0,0,0.1,0l0,0
				c0.4-0.2,0.8-0.2,1.3-0.2c0.1,0,0.1,0.1,0.1,0.1l0,0c0.1-0.2,0.5-0.1,0.7-0.1c0.1,0,0.3,0.1,0.4,0.1c0.2,0,0.5,0,0.7,0H12l0,0
				c0.1,0,0.2-0.1,0.4-0.1s0.3,0.1,0.5,0.1s0.3-0.1,0.5-0.1s0.3,0,0.5,0c0.1,0,0.1,0.1,0.1,0.1l0,0c0.1,0,0.2-0.1,0.3-0.1
				s0.2,0,0.3,0l0,0c0.1,0,0.2-0.1,0.3-0.1s0.3,0,0.4,0.1c0.1,0,0.3,0,0.4,0s0.2,0,0.4,0c0.2,0,0.4-0.1,0.6-0.1c0.1,0,0.2,0,0.3,0.1
				c0.3,0,0.6,0,0.8-0.1c0.2,0,0.4-0.1,0.5,0c0.1,0,0.3,0.1,0.4,0.1c0,0,0.1,0,0.1-0.1c0.1,0,0.2-0.1,0.2-0.1c0-0.1-0.1-0.2-0.1-0.3
				c0-0.1,0-0.2,0-0.3c0-0.1,0-0.2-0.1-0.3c0-0.2,0-0.3,0-0.5s0.1-0.4,0.1-0.5s0-0.3,0-0.4l0,0c0-0.1-0.1-0.1-0.1-0.2s0-0.2,0.1-0.3
				C19.1,27.7,19.2,27.6,19.1,27.4z"/>
		</g>
	</g>
</g>
<text transform="matrix(1 0 0 1 5.3921 24.9117)" class="st53 st54">Magical</text>
<text transform="matrix(1 0 0 1 5.3921 28.1117)" class="st53 st54">Stamina</text>
</svg>
