<?xml version="1.0" encoding="utf-8"?>
<!-- Generator: Adobe Illustrator 25.0.0, SVG Export Plug-In . SVG Version: 6.00 Build 0)  -->
<svg version="1.1" id="Layer_1" xmlns="http://www.w3.org/2000/svg" xmlns:xlink="http://www.w3.org/1999/xlink" x="0px" y="0px"
	 viewBox="0 0 41 72.9" style="enable-background:new 0 0 41 72.9;" xml:space="preserve">
<style type="text/css">
	.st0{fill:#DCECF7;}
	.st1{fill:#D9EBF7;}
	.st2{fill:#EC9215;}
	.st3{fill:#301D06;}
	.st4{fill:#54330A;}
	.st5{fill:#F2AA19;}
	.st6{fill:#FAEEE6;}
	.st7{fill:#4A2D09;}
	.st8{fill:#C6E3F7;}
	.st9{fill:#E6F0F7;}
	.st10{fill:#EAF7FF;}
	.st11{fill:#FFFFFF;}
	.st12{fill:#F7E6D4;}
	.st13{fill:#F7E2DC;}
	.st14{fill:#3B2407;}
	.st15{fill:#452A09;}
	.st16{fill:#F2F9FF;}
	.st17{fill:#F5E8D5;}
	.st18{fill:#F7F2ED;}
</style>
<g>
	<path class="st0" d="M40.5,60.5l0,0.9c0,0,0,1.3,0,1.3l0,0.7l-0.1,2c0,0.1,0,0.2-0.1,0.3c0,0,0,0.1,0,0.1c-1,4.5-12.3,7-19.9,7
		c-12,0-16.7-3.5-18.6-5.4c-0.1-0.1-0.2-0.2-0.3-0.3c-0.6-0.7-0.8-1.3-0.9-1.5l0-4.5c0,0,0-0.2,0-0.7h9.7c2-0.3,4.1-0.6,6.5-0.7
		c1.2-0.1,2.5-0.1,3.8-0.1c2.9,0,5.7,0.2,8.3,0.5c0.7,0.1,1.4,0.2,2.1,0.3H40.5z"/>
	<path class="st1" d="M40.5,62.7l0,0.7l0,2c0,0.1,0,0.2-0.1,0.3c-0.5,0.3-1.2,0.7-1.9,1c-1.9,0.9-4.4,1.7-7.3,1.9c0,0,4-0.9,7.3-3.6
		C39.1,64.4,39.9,63.6,40.5,62.7z"/>
	<path class="st1" d="M24,70c0,0-13,2-22.2-3.8C1.4,66,1,65.7,0.6,65.4l0-2.5c0.4,0.4,0.8,0.9,1.3,1.3c2.6,2.2,7.5,5.5,17.2,5.6
		C24,70,24,70,24,70z"/>
	<path class="st0" d="M40.9,18.4H0.1L0,4.8h40.9c0,0.1,0.1,0.2,0.1,0.3c0,0,0,0.1,0,0.1c0,0.1,0,0.2,0,0.3L40.9,18.4z"/>
	<path class="st2" d="M40.8,49.8l-0.1,4.6c0,0,0,0.1,0,0.1l-0.2,6.1l0,0.9c-0.2,0.4-0.5,0.8-0.8,1.1c0,0-0.1,0.1-0.1,0.1
		c-0.1,0.1-0.1,0.1-0.2,0.2c-0.1,0.1-0.2,0.2-0.3,0.2c-0.1,0.1-0.3,0.2-0.4,0.3c-0.1,0.1-0.2,0.2-0.4,0.2c-0.3,0.2-0.7,0.4-1,0.5
		c-0.1,0.1-0.2,0.1-0.3,0.2c-2.1,1-5,1.9-8.3,2.5c-2.6,0.4-5.4,0.7-8.4,0.7c-1.2,0-2.4,0-3.6-0.1c-4-0.3-7.5-1.1-10.2-2
		c-0.4-0.1-0.7-0.3-1.1-0.4c-0.2-0.1-0.3-0.1-0.5-0.2c-0.2-0.1-0.3-0.1-0.5-0.2c-0.5-0.2-1-0.5-1.4-0.7c-0.2-0.1-0.4-0.2-0.6-0.4
		c-0.2-0.1-0.4-0.3-0.5-0.4c-0.1-0.1-0.1-0.1-0.2-0.2c-0.1-0.1-0.3-0.2-0.4-0.4c-0.3-0.3-0.5-0.6-0.7-0.9c0,0,0-0.1-0.1-0.1
		c0,0,0-0.1,0-0.1c0,0-0.1-0.2-0.1-0.7L0.1,18.4h40.8L40.8,49.8z"/>
	<path class="st3" d="M16.6,4.8l0.1,62.5c-4-0.3-7.5-1.1-10.2-2L6.1,4.8H16.6z"/>
	<path class="st4" d="M37.5,4.8L37,64.3c-2.1,1-5,1.9-8.3,2.5L29,4.8H37.5z"/>
	<path class="st5" d="M40.8,18.5c0,0.3-0.1,0.5-0.2,0.7c0,0.1-0.1,0.2-0.1,0.2c0,0.1-0.1,0.1-0.1,0.1c-0.1,0.1-0.2,0.2-0.3,0.3
		c-0.1,0-0.1,0.1-0.2,0.1c0,0-0.1,0.1-0.1,0.1c-0.3,0.2-0.6,0.4-1,0.7c-0.3,0.1-0.6,0.3-0.9,0.4c-0.1,0.1-0.3,0.1-0.4,0.2
		c-0.8,0.3-1.6,0.5-2.6,0.8c0,0-0.1,0-0.1,0c-0.2,0-0.4,0.1-0.5,0.1c0,0-0.1,0-0.1,0l-0.1,0c-0.2,0-0.4,0.1-0.6,0.1
		c-0.2,0-0.3,0.1-0.5,0.1c-0.1,0-0.2,0-0.4,0.1c0,0,0,0-0.1,0c0,0,0,0-0.1,0c0,0-0.1,0-0.1,0c-0.2,0-0.4,0.1-0.6,0.1c0,0,0,0-0.1,0
		c-0.2,0-0.4,0.1-0.6,0.1c-0.2,0-0.3,0.1-0.5,0.1c-0.2,0-0.5,0.1-0.7,0.1c-0.2,0-0.4,0.1-0.7,0.1c-0.1,0-0.2,0-0.3,0
		c-0.2,0-0.4,0-0.6,0.1c-0.4,0-0.7,0.1-1.1,0.1c-0.3,0-0.5,0-0.8,0.1c-0.2,0-0.3,0-0.5,0c-0.2,0-0.3,0-0.5,0c-0.2,0-0.5,0-0.7,0
		c-0.1,0-0.2,0-0.3,0c-0.2,0-0.4,0-0.7,0c-0.1,0-0.2,0-0.3,0c-0.1,0-0.2,0-0.2,0c-0.3,0-0.6,0-0.9,0c-0.3,0-0.6,0-0.8,0
		c-0.4,0-0.7,0-1.1,0c-0.5,0-1,0-1.5,0c-0.2,0-0.3,0-0.5,0h-0.1c-0.2,0-0.5,0-0.7,0c-0.1,0-0.1,0-0.2,0c-0.2,0-0.5,0-0.7,0
		c-0.1,0-0.2,0-0.4,0c-0.4,0-0.9-0.1-1.3-0.1c-0.1,0-0.1,0-0.2,0c-0.3,0-0.5,0-0.8-0.1c-0.2,0-0.5,0-0.7-0.1c-0.1,0-0.1,0-0.1,0
		c-0.2,0-0.5,0-0.7-0.1c-0.2,0-0.3,0-0.5-0.1c-0.4,0-0.8-0.1-1.2-0.2c-0.1,0-0.2,0-0.3,0c-0.2,0-0.4-0.1-0.6-0.1
		c-0.3,0-0.6-0.1-0.9-0.2c-0.2,0-0.4-0.1-0.5-0.1c-0.2,0-0.5-0.1-0.7-0.1c-0.2,0-0.5-0.1-0.7-0.1c-0.3-0.1-0.5-0.1-0.8-0.2
		c-0.1,0-0.1,0-0.2-0.1C6.1,22.1,6,22,5.9,22c-0.4-0.1-0.8-0.2-1.2-0.4c-0.2-0.1-0.3-0.1-0.5-0.2c-0.6-0.2-1.1-0.4-1.6-0.7
		c-0.2-0.1-0.3-0.2-0.4-0.2c0,0,0,0-0.1,0c-0.1-0.1-0.2-0.1-0.3-0.2c-0.1-0.1-0.2-0.1-0.2-0.2l-0.1-0.1C1.3,20,1.3,20,1.2,20
		c-0.2-0.1-0.3-0.2-0.4-0.4c0,0-0.1-0.1-0.1-0.1c0,0-0.1-0.1-0.1-0.1c0,0-0.1-0.1-0.1-0.1c0,0-0.1-0.1-0.1-0.1
		c-0.1-0.2-0.2-0.5-0.2-0.7c0,0,0,0,0-0.1l0-0.2c0-0.1,0-0.2,0.1-0.3c0,0,0-0.1,0-0.1c0,0,0-0.1,0-0.1c0.1-0.1,0.2-0.2,0.3-0.3
		c0,0,0.1-0.1,0.1-0.1c0.2-0.1,0.4-0.3,0.7-0.4c0.5-0.3,1.2-0.5,2-0.7c0.1,0,0.2,0,0.3-0.1C3.9,16,4.2,16,4.5,15.9
		c0.1,0,0.2,0,0.3-0.1c0.4-0.1,0.9-0.2,1.3-0.2c0.2,0,0.5-0.1,0.7-0.1c0.3,0,0.7-0.1,1-0.1c0.1,0,0.2,0,0.4,0
		c0.6-0.1,1.2-0.1,1.8-0.2c0.3,0,0.6-0.1,0.9-0.1c0.3,0,0.6-0.1,1-0.1c0.1,0,0.2,0,0.3,0c0.1,0,0.1,0,0.2,0c0.3,0,0.6,0,0.9-0.1
		c0,0,0.1,0,0.1,0c0,0,0.1,0,0.1,0c0.1,0,0.1,0,0.1,0c0.1,0,0.3,0,0.4,0c0.2,0,0.3,0,0.5,0c0.3,0,0.6,0,0.9,0c0,0,0.1,0,0.1,0
		c0.3,0,0.6,0,1,0c0,0,0.1,0,0.1,0h0.1c1.2,0,2.3,0,3.5,0c2.9,0,5.9,0.2,8.7,0.4c1.2,0.1,2.3,0.2,3.4,0.4c0.8,0.1,1.6,0.2,2.3,0.4
		c1,0.2,1.9,0.4,2.7,0.6c0.5,0.1,0.9,0.3,1.3,0.4c1.2,0.4,1.9,0.9,2,1.4C40.8,18.4,40.8,18.5,40.8,18.5z"/>
	<path class="st5" d="M37.8,21.3c-0.1,0.1-0.3,0.1-0.4,0.2c-1,0.4-2.3,0.7-2.7,0.8c-0.2,0-0.4,0.1-0.5,0.1c0,0-0.1,0-0.1,0l-0.1,0
		c-0.2,0-0.4,0.1-0.6,0.1c-0.2,0-0.3,0.1-0.5,0.1c-0.1,0-0.2,0-0.4,0.1c0,0,0,0-0.1,0c0,0,0,0-0.1,0c0,0-0.1,0-0.1,0
		c-0.2,0-0.4,0.1-0.6,0.1c0,0,0,0-0.1,0c-0.2,0-0.4,0.1-0.6,0.1c-0.2,0-0.3,0.1-0.5,0.1c-0.2,0-0.5,0.1-0.7,0.1
		c-0.2,0-0.4,0.1-0.7,0.1c-0.1,0-0.2,0-0.3,0c-0.2,0-0.4,0-0.6,0.1c-0.4,0-0.7,0.1-1.1,0.1c-0.3,0-0.5,0-0.8,0.1c-0.2,0-0.3,0-0.5,0
		c-0.2,0-0.3,0-0.5,0c-0.2,0-0.5,0-0.7,0c-0.1,0-0.2,0-0.3,0c-0.2,0-0.4,0-0.7,0c-0.1,0-0.2,0-0.3,0c-0.1,0-0.2,0-0.2,0
		c-0.3,0-0.6,0-0.9,0c-0.3,0-0.6,0-0.8,0c-0.4,0-0.7,0-1.1,0c-0.5,0-1,0-1.5,0c-0.2,0-0.3,0-0.5,0h-0.1c-0.2,0-0.5,0-0.7,0
		c-0.1,0-0.1,0-0.2,0c-0.2,0-0.5,0-0.7,0c-0.1,0-0.2,0-0.4,0c-0.4,0-0.9-0.1-1.3-0.1c-0.1,0-0.1,0-0.2,0c-0.3,0-0.5,0-0.8-0.1
		c-0.2,0-0.5,0-0.7-0.1c-0.1,0-0.1,0-0.1,0c-0.2,0-0.5,0-0.7-0.1c-0.2,0-0.3,0-0.5-0.1c-0.4,0-0.8-0.1-1.2-0.2c-0.1,0-0.2,0-0.3,0
		c-0.2,0-0.4-0.1-0.6-0.1c-0.3,0-0.6-0.1-0.9-0.2c-0.2,0-0.4-0.1-0.5-0.1c-0.2,0-0.5-0.1-0.7-0.1c-0.2,0-0.5-0.1-0.7-0.1
		c-0.3-0.1-0.5-0.1-0.8-0.2c-0.1,0-0.1,0-0.2-0.1C6.1,22.1,6,22,5.9,22c-0.4-0.1-0.8-0.2-1.2-0.4c-0.2-0.1-0.3-0.1-0.5-0.2
		c-0.6-0.2-1.1-0.4-1.6-0.7c-0.2-0.1-0.3-0.2-0.4-0.2c0,0,0,0-0.1,0c-0.1-0.1-0.2-0.1-0.3-0.2c-0.1-0.1-0.2-0.1-0.2-0.2l-0.1-0.1
		C1.3,20,1.3,20,1.2,20c-0.2-0.1-0.3-0.2-0.4-0.4c0,0-0.1-0.1-0.1-0.1c0,0-0.1-0.1-0.1-0.1c0,0-0.1-0.1-0.1-0.1c0,0-0.1-0.1-0.1-0.1
		c-0.1-0.2-0.2-0.5-0.2-0.7c0,0,0,0,0-0.1l0-0.2c0-0.1,0-0.2,0.1-0.3c0,0,0-0.1,0-0.1c0,0,0-0.1,0-0.1c0.1-0.1,0.2-0.2,0.3-0.3
		c0,0,0.1-0.1,0.1-0.1c0.2-0.1,0.4-0.3,0.7-0.4c0.5-0.3,1.2-0.5,2-0.7c0.1,0,0.2,0,0.3-0.1C3.9,16,4.2,16,4.5,15.9
		c0.1,0,0.2,0,0.3-0.1c0.4-0.1,0.9-0.2,1.3-0.2c0.2,0,0.5-0.1,0.7-0.1c0.3,0,0.7-0.1,1-0.1c0.1,0,0.2,0,0.4,0
		c0.6-0.1,1.2-0.1,1.8-0.2c0.3,0,0.6-0.1,0.9-0.1c0.3,0,0.6-0.1,1-0.1c0.1,0,0.2,0,0.3,0c0.1,0,0.1,0,0.2,0c0.3,0,0.6,0,0.9-0.1
		c0,0,0.1,0,0.1,0c0,0,0.1,0,0.1,0c0.1,0,0.1,0,0.1,0c0.1,0,0.3,0,0.4,0c0.2,0,0.3,0,0.5,0c0.3,0,0.6,0,0.9,0c0,0,0.1,0,0.1,0
		c0.3,0,0.6,0,1,0c0,0,0.1,0,0.1,0h0.1c1.2,0,2.3,0,3.5,0c2.9,0,5.9,0.2,8.7,0.4c1.2,0.1,2.3,0.2,3.4,0.4c0.8,0.1,1.6,0.2,2.3,0.4
		c1,0.2,1.9,0.4,2.7,0.6c0.5,0.1,0.9,0.3,1.3,0.4C42.5,18,41.1,19.9,37.8,21.3z"/>
	<path class="st6" d="M40.8,18.5c0,3.1-9.3,5.1-20.5,5.1c-1,0-2,0-3-0.1c9.3-0.4,16.3-2.3,16.3-5c0-2-9.3-3.5-18.2-3.8
		c1.6-0.1,3.2-0.1,4.7-0.1C29.7,14.7,40.8,16.3,40.8,18.5z"/>
	<path class="st7" d="M34.7,22.2c-0.2,0-0.4,0.1-0.5,0.1c0,0-0.1,0-0.1,0l-0.1,0c-0.2,0-0.4,0.1-0.6,0.1c-0.2,0-0.3,0.1-0.5,0.1
		c-0.1,0-0.2,0-0.4,0.1c0,0,0,0-0.1,0c0,0,0,0-0.1,0c0,0-0.1,0-0.1,0c-0.4,0.1-0.8,0.1-1.3,0.2c-0.2,0-0.3,0.1-0.5,0.1
		c-0.2,0-0.5,0.1-0.7,0.1c-0.2,0-0.4,0.1-0.7,0.1c-0.1,0-0.2,0-0.3,0c-0.2,0-0.4,0-0.6,0.1c-0.4,0-0.7,0.1-1.1,0.1
		c-0.3,0-0.5,0-0.8,0.1c-0.4,0-0.8,0.1-1.2,0.1c-0.2,0-0.3,0-0.5,0c-0.1,0-0.2,0-0.3,0c-0.2,0-0.4,0-0.7,0c-0.1,0-0.2,0-0.3,0
		c-0.1,0-0.2,0-0.2,0c-0.3,0-0.6,0-0.9,0c-0.3,0-0.6,0-0.8,0c-0.4,0-0.7,0-1.1,0c-0.5,0-1,0-1.5,0c-0.2,0-0.3,0-0.5,0h-0.1
		c-0.2,0-0.5,0-0.7,0c-0.1,0-0.1,0-0.2,0c-0.2,0-0.5,0-0.7,0c-0.1,0-0.2,0-0.4,0c-0.4,0-0.9-0.1-1.3-0.1c-0.1,0-0.1,0-0.2,0
		c-0.3,0-0.5,0-0.8-0.1c-0.2,0-0.5,0-0.7-0.1c-0.1,0-0.1,0-0.1,0c-0.2,0-0.5,0-0.7-0.1c-0.2,0-0.3,0-0.5-0.1c-0.4,0-0.8-0.1-1.2-0.2
		c-0.1,0-0.2,0-0.3,0c-0.2,0-0.4-0.1-0.6-0.1c-0.3,0-0.6-0.1-0.9-0.2c-0.2,0-0.4-0.1-0.5-0.1c-0.2,0-0.5-0.1-0.7-0.1
		c-0.2,0-0.5-0.1-0.7-0.1c-0.3-0.1-0.5-0.1-0.8-0.2c-0.1,0-0.1,0-0.2-0.1C6.1,22.1,6,22,5.9,22c-0.4-0.1-0.8-0.2-1.2-0.4
		c-0.2-0.1-0.3-0.1-0.5-0.2c-0.6-0.2-1.1-0.4-1.6-0.7c-0.2-0.1-0.3-0.2-0.4-0.2c0,0,0,0-0.1,0c-0.1-0.1-0.2-0.1-0.3-0.2
		c-0.1-0.1-0.2-0.1-0.2-0.2l-0.1-0.1C1.3,20,1.3,20,1.2,20c-0.2-0.1-0.3-0.2-0.4-0.4c0,0-0.1-0.1-0.1-0.1c0,0-0.1-0.1-0.1-0.1
		c0,0-0.1-0.1-0.1-0.1c0,0-0.1-0.1-0.1-0.1c-0.1-0.2-0.2-0.5-0.2-0.7c0,0,0,0,0-0.1l0-0.2c0-0.1,0-0.2,0.1-0.3c0,0,0-0.1,0-0.1
		c0,0,0-0.1,0-0.1c0.1-0.1,0.2-0.2,0.3-0.3c0,0,0.1-0.1,0.1-0.1c0.2-0.1,0.4-0.3,0.7-0.4c0.5-0.3,1.2-0.5,2-0.7c0.1,0,0.2,0,0.3-0.1
		C3.9,16,4.2,16,4.5,15.9c0.1,0,0.2,0,0.3-0.1c0.4-0.1,0.9-0.2,1.3-0.2c0.2,0,0.5-0.1,0.7-0.1c0.3,0,0.7-0.1,1-0.1
		c0.1,0,0.2,0,0.4,0c0.6-0.1,1.2-0.1,1.8-0.2c0.3,0,0.6-0.1,0.9-0.1c0.3,0,0.6-0.1,1-0.1c0.1,0,0.2,0,0.3,0c0.1,0,0.1,0,0.2,0
		c0.3,0,0.6,0,0.9-0.1c0,0,0.1,0,0.1,0c0,0,0.1,0,0.1,0c0,0,0.1,0,0.1,0c0.1,0,0.3,0,0.4,0c0.2,0,0.3,0,0.5,0c0.3,0,0.6,0,0.9,0
		c0,0,0.1,0,0.1,0c-0.4,0.1-0.7,0.2-1,0.3c-0.4,0.1-0.8,0.3-1.1,0.4c-0.9,0.4-1.4,0.8-1.4,1.3c0,0.6,0.2,1.1,0.8,1.6
		c0.2,0.1,0.3,0.3,0.5,0.4c0.4,0.3,0.8,0.5,1.3,0.7c0.6,0.3,1.2,0.5,1.9,0.8c2.9,0.9,6.9,1.6,11.4,1.9c0.3,0,0.5,0,0.8,0
		c0.2,0,0.4,0,0.5,0c0.9,0,1.9,0.1,2.8,0.1C33.1,22.3,33.9,22.3,34.7,22.2L34.7,22.2z"/>
	<path class="st8" d="M41,5.3c0,0.1,0,0.2,0,0.3c-0.1,0.7-0.9,1.4-2.1,2c-0.4,0.2-0.9,0.4-1.4,0.6c-2.1,0.8-5.1,1.4-8.5,1.8
		c-2.6,0.3-5.4,0.4-8.4,0.4c-1.3,0-2.6,0-3.9-0.1c-4-0.2-7.7-0.7-10.5-1.4C3.8,8.3,2,7.7,1,6.9C-6.3,0.6,28.5-3,39.2,3.2
		c0.9,0.5,1.5,1,1.7,1.6C40.9,5,41,5.1,41,5.3z"/>
	<path class="st9" d="M39.4,5.2c0,0.5-0.4,0.9-1.2,1.3c-1.4,0.7-3.8,1.3-6.9,1.7c-1.5,0.2-3.1,0.4-4.8,0.5c-1.9,0.1-3.9,0.2-6,0.2
		c-3.4,0-6.7-0.2-9.4-0.5C9.8,8.2,8.5,8.1,7.4,7.9C6.2,7.6,5.1,7.4,4.2,7.1C2.5,6.5,1.5,5.9,1.5,5.2c0-0.7,1-1.3,2.7-1.9
		c0.9-0.3,2-0.6,3.2-0.8C8.5,2.3,9.7,2.1,11.1,2c2.8-0.3,6-0.5,9.5-0.5c2.1,0,4.1,0.1,6,0.2c1.7,0.1,3.4,0.3,4.8,0.5
		c3.1,0.4,5.5,1,6.9,1.7C39,4.3,39.4,4.7,39.4,5.2z"/>
	<path class="st10" d="M39.4,5.2C39.4,5.2,39.4,5.2,39.4,5.2c-0.1,0.1-0.1,0-0.2,0c-1.4-0.7-4-1.3-7.3-1.7c-1.6-0.2-3.3-0.4-5.1-0.5
		c-2-0.1-4.1-0.2-6.4-0.2c-3.7,0-7.1,0.2-10,0.5C9.1,3.4,7.8,3.6,6.6,3.8C5.3,4.1,4.2,4.3,3.2,4.6C2.5,4.8,2,5,1.5,5.3
		c0,0,0-0.1,0-0.1c0-0.7,1-1.3,2.7-1.9c0.9-0.3,2-0.6,3.2-0.8C8.5,2.3,9.7,2.1,11.1,2c2.8-0.3,6-0.5,9.5-0.5c2.1,0,4.1,0.1,6,0.2
		c1.7,0.1,3.4,0.3,4.8,0.5c3.1,0.4,5.5,1,6.9,1.7C39,4.3,39.4,4.7,39.4,5.2z"/>
	<path class="st11" d="M34.4,69.1c-4.7,0.6-9.2,1.4-13.9,1.4c-4.7,0-9.2-1-13.9-1.6c-0.1,0-0.1,0.2,0,0.3c4.4,1.7,9.3,2,13.9,2
		c4.6,0,9.5-0.3,13.9-1.8C34.6,69.3,34.6,69.1,34.4,69.1z"/>
	<path class="st11" d="M14.6,68.1c0,0,12.6,1.9,22.4-2.8C32.9,68.1,22.3,70.9,14.6,68.1z"/>
	<path class="st12" d="M40.6,19.3c-1.4,2.6-10,4.4-20.3,4.4c-10,0-18.4-2-20-4.6c2.8,1.8,10.9,3.7,20.1,3.7
		C29.9,22.8,37.8,21,40.6,19.3z"/>
	<path class="st13" d="M40.6,61.3l0-0.2C40.6,61.2,40.6,61.2,40.6,61.3z"/>
	<path class="st13" d="M40.7,54.3C40.7,54.3,40.7,54.4,40.7,54.3l-0.2,6.2l0,0.9c0,0.1-0.1,0.1-0.1,0.2c-0.1,0.1-0.1,0.2-0.2,0.3
		c-0.1,0.1-0.2,0.2-0.3,0.3c-0.1,0.1-0.1,0.1-0.2,0.2c0,0-0.1,0.1-0.1,0.1c-0.1,0.1-0.1,0.1-0.2,0.2c-0.2,0.2-0.4,0.3-0.6,0.5
		c0,0-0.1,0.1-0.1,0.1c0,0-0.1,0.1-0.1,0.1c-0.1,0.1-0.1,0.1-0.2,0.1c0,0-0.1,0-0.1,0.1c-0.2,0.1-0.4,0.2-0.6,0.3
		c-0.1,0.1-0.2,0.1-0.3,0.2c-0.1,0.1-0.2,0.1-0.3,0.2c-2.1,1-5,1.9-8.3,2.5c-2.6,0.4-5.4,0.7-8.4,0.7c-1.2,0-2.4,0-3.6-0.1
		c-4-0.3-7.5-1.1-10.2-2c-0.4-0.1-0.7-0.3-1.1-0.4c-0.2-0.1-0.3-0.1-0.5-0.2c-0.2-0.1-0.3-0.1-0.5-0.2c-0.5-0.2-1-0.5-1.4-0.7
		c-0.2-0.1-0.4-0.2-0.6-0.4c-0.2-0.1-0.4-0.3-0.5-0.4c-0.1-0.1-0.1-0.1-0.2-0.2c-0.1-0.1-0.3-0.2-0.4-0.4c-0.3-0.3-0.5-0.6-0.7-0.9
		c0,0,0-0.1-0.1-0.1c0,0,0-0.1,0-0.1c0,0-0.1-0.2-0.1-0.7L0.3,33.2c0,1,0.6,2.3,1.4,3.5c1.3,2,3.4,4,4.7,5.1
		c0.2,0.2,0.4,0.3,0.6,0.5c3.1,2.1,6.4,3.9,9.7,5.2c1,0.4,1.9,0.7,2.9,1c3,0.9,6.1,1.6,9.2,1.8c2.8,0.2,5.6,0.2,8.4-0.1
		c0.4,0,0.8-0.1,1.2-0.1c0.8-0.1,1.6-0.2,2.3-0.4c0,1.4,0,2.8,0,4C40.7,53.9,40.7,54.1,40.7,54.3z"/>
	<path class="st14" d="M32.3,22.4c-0.1,5-0.1,10-0.2,14.9c0,3.7,0.1,8.5,0.1,12.1h1.8c0.1-3.7,0.5-8.4,0.6-12.1c0-4.7,0-9.5,0-14.3
		c0-2.6,0.2-5.7,0-8.7c0.2-0.3,0.3-0.6,0.3-0.9c0.2-1-0.2-1.9-0.7-2.3c-0.1-0.6-0.3-1.1-0.4-1.6c-0.1-0.2-0.3-0.2-0.4,0
		c-0.2,0.5-0.4,1.1-0.5,1.7c-0.1,0.1-0.2,0.2-0.3,0.4c-0.2,0.4-0.4,0.9-0.4,1.4c0,0.4,0.1,0.9,0.3,1.3C32.2,17.1,32.3,20,32.3,22.4z
		"/>
	<path class="st14" d="M14.7,45.7c0.3-10.6,0.1-21.1-0.2-31.9c0-0.9-1-0.9-1,0c-0.3,10.8-0.3,21.4,0,31.9H14.7z"/>
	<path class="st15" d="M26.5,0.4l0,8.3c-0.7,0-1.4,0.1-2.1,0.1c-1.2,0-2.5,0.1-3.9,0.1c-1.6,0-3.2,0-4.7-0.1
		c-1.7-0.1-3.3-0.2-4.8-0.4l0-7.6c1.5-0.2,3.1-0.3,4.8-0.4c1.5-0.1,3.1-0.1,4.7-0.1c1.3,0,2.6,0,3.9,0.1C25.1,0.3,25.8,0.4,26.5,0.4
		z"/>
	<path class="st16" d="M38.2,3.8l0,2.7c-1.4,0.7-3.8,1.3-6.9,1.7l0-6.1C34.4,2.5,36.9,3.1,38.2,3.8z"/>
	<path class="st16" d="M7.4,2.5l0,5.4C6.2,7.6,5.1,7.4,4.2,7.1l0-3.8C5.1,3,6.2,2.7,7.4,2.5z"/>
	<path class="st17" d="M40.4,61.7c-0.5,0.9-1.6,1.8-3.4,2.6c-2.1,1-5,1.9-8.3,2.5c-2.6,0.4-5.4,0.7-8.4,0.7c-1.2,0-2.4,0-3.6-0.1
		c-4-0.3-7.5-1.1-10.2-2c-2.4-0.9-4.2-1.9-5.2-2.9c3,0.6,6.1,2,9.1,2.8c3.5,0.8,7.1,1.3,10.6,1.3c3.6,0,7.1-0.5,10.6-1.5
		c1.8-0.5,3.6-1.1,5.3-1.9C38.1,62.7,39.2,62,40.4,61.7z"/>
	<path class="st7" d="M1.9,60.5l0,2.4c0,0.4,0,0.8,0,1.2l0,0.1c0,0.7,0,1.3-0.1,2c0,0.4-0.1,0.8-0.1,1.2c-0.1-0.1-0.2-0.2-0.3-0.3
		c-0.6-0.7-0.8-1.3-0.9-1.5l0-4.5c0,0,0-0.2,0-0.7C0,2.1,0.2,6,0.1,4.8c0.1-0.2,0.2-0.5,0.4-0.7C0.7,4.7,0.9,5.9,1,6.8
		c0.5,3.3,0.4,6.8,0.4,10c0,0,0,2,0,2c0,0.2,0,0.5,0,0.8l0,0.5c0.1,5.6,0.2,11.1,0.3,16.7l0,0.2c0.1,6.2,0.1,12.3,0.2,18.4
		C1.8,57.1,1.9,58.8,1.9,60.5z"/>
	<path class="st7" d="M40.7,53.8c0,0.2,0,0.4,0,0.6c0,0,0,0.1,0,0.1l-0.2,6.1l0,0.9c0,0,0,1.3,0,1.3l0,0.7l-0.1,2
		c0,0.1,0,0.2-0.1,0.3c0,0,0,0.1,0,0.1c-0.2,0.6-0.9,1.3-1.8,1.9c0-0.3,0-0.6-0.1-0.9l0-0.1c0-0.6-0.1-1.1-0.1-1.7
		c0-0.1,0-0.1,0-0.2c0-0.4,0-0.8,0-1.3c0-0.4,0-0.7,0-1.1c0-0.7,0-1.3,0-2c0-3.5,0-6.9,0.1-10.4c0.1-3.7,0.2-7.3,0.2-10.9
		c0-6.1,0.1-12.2,0.1-18.4c0-0.2,0-0.4,0-0.7l0-0.6c0-0.4,0-0.8,0-1.2c0-0.5,0-1,0-1.4c0-3.1-0.1-6.3,0.1-9.4c0-0.5,0.1-1,0.1-1.5
		c0-0.3,0.1-0.7,0.1-1c0-0.1,0-0.2,0-0.2c0-0.1,0-0.3,0.1-0.4c0-0.4,0.1-0.8,0.2-1.2c0.7,0.4,1.3,1,1.7,1.9c0,0.9-0.2,8.3-0.2,13.2
		l0,0.1c0,0,0.2,4.7,0.1,11c-0.1,6.3-0.1,14.1-0.2,20.3C40.7,51.2,40.7,52.5,40.7,53.8z"/>
	<path class="st11" d="M28.4,9.5c3.5-0.1,7.2-0.6,10.5-2.4C39.3,6.9,34.8,8.8,28.4,9.5z"/>
	<path class="st11" d="M33.7,19.1c0-0.3-0.3-0.3-0.4,0c-0.1,9.4-0.3,18.8-0.2,28.1c0,0.3,0.3,0.3,0.3,0
		C33.8,37.9,33.7,28.5,33.7,19.1z"/>
	<path class="st11" d="M20.3,23c-5,0.2-9.9-0.5-14.9-1.6c-0.1,0-0.1,0.1,0,0.1C10.3,22.9,15.3,23.3,20.3,23
		C20.4,23.1,20.4,23,20.3,23z"/>
	<path class="st1" d="M37.1,63.7c-2.9,0.7-5.6,1.9-8.5,2.4c-3.1,0.6-6.2,0.9-9.3,0.8c-6-0.1-12.1-1.5-17.8-3.8c-0.1,0-0.1,0.1,0,0.1
		c5.7,3,11.7,4.5,17.9,4.7c5.9,0.1,12.7-0.6,18.1-3.7C37.5,64.1,37.4,63.7,37.1,63.7z"/>
	<path class="st1" d="M30.1,9.7c-4.2-0.1-8.4,0.5-12.7,0.3C13.1,9.8,9,8.7,4.8,8.2c0,0,0,0,0,0.1c4,1.7,8.5,2.1,12.6,2.4
		c4.1,0.3,12.2-0.2,16.2-1.4C33.7,9.1,30.2,9.7,30.1,9.7z"/>
	<path class="st11" d="M15.5,9.6C12.7,9.2,9.9,9,7.1,8.3C5.5,7.8,3.9,7.2,2.3,6.6c3,2.8,12.9,3.3,13.2,3.3
		C15.7,9.9,15.7,9.7,15.5,9.6z"/>
	<path class="st1" d="M27.4,1.1c-5.8-1.3-21.2,0.3-26,3.5C3.2,4.4,5,3.7,6.9,3.2c10.4-2.6,13.7-1.4,20.5-1.8
		C27.5,1.5,27.6,1.1,27.4,1.1z"/>
	<path class="st1" d="M36.8,2.7c-2-0.9-4-1.4-6.1-1.5c0,0,0,0.1,0,0.1c2,0.4,4.1,1,6.1,1.6C36.8,3,36.9,2.8,36.8,2.7z"/>
	<path class="st18" d="M5.4,39.9c0-3.7-0.1-7.5-0.1-11.2c0-1.9-0.1-3.8-0.3-5.7c0-1.2,0-2.4,0-3.5c0-3.4,0.2-7.2-0.5-10.5
		c-0.1-0.2-0.3-0.2-0.4,0c-0.7,3.4-0.4,7.1-0.4,10.5c0,3.8,0,7.6,0.1,11.4c0,4.5,0.1,9.1,0.2,13.6c-0.1,5.6-0.2,11.4,0.6,16.8
		c0,0.3,0.5,0.3,0.5,0C6,54.2,5.5,46.9,5.4,39.9z"/>
</g>
</svg>
