<?xml version="1.0" encoding="utf-8"?>
<!-- Generator: Adobe Illustrator 25.0.0, SVG Export Plug-In . SVG Version: 6.00 Build 0)  -->
<svg version="1.1" id="Publicdomainvectors.org" xmlns="http://www.w3.org/2000/svg" xmlns:xlink="http://www.w3.org/1999/xlink"
	 x="0px" y="0px" viewBox="0 0 559.4 553.6" style="enable-background:new 0 0 559.4 553.6;" xml:space="preserve">
<style type="text/css">
	.st0{fill-rule:evenodd;clip-rule:evenodd;fill:#E8B73C;}
	.st1{fill-rule:evenodd;clip-rule:evenodd;fill:#82582C;}
	.st2{fill-rule:evenodd;clip-rule:evenodd;fill:#71481E;}
	.st3{fill-rule:evenodd;clip-rule:evenodd;fill:#B57E47;}
	.st4{fill-rule:evenodd;clip-rule:evenodd;fill:#9A6733;}
	.st5{fill-rule:evenodd;clip-rule:evenodd;fill:#AD7640;}
	.st6{fill-rule:evenodd;clip-rule:evenodd;fill:#DDBDDA;}
	.st7{fill-rule:evenodd;clip-rule:evenodd;fill:#F2DBEB;}
	.st8{fill-rule:evenodd;clip-rule:evenodd;fill:#CA3927;}
	.st9{fill-rule:evenodd;clip-rule:evenodd;fill:#F04A23;}
	.st10{fill-rule:evenodd;clip-rule:evenodd;fill:#F4A51D;}
</style>
<g>
	<path class="st0" d="M379.1,370l174.6,151.8c17.7,15.4-10.3,42.8-25.3,27.2L367.1,382C361.2,375.9,372.7,364.5,379.1,370z"/>
	<g>
		<path class="st1" d="M417.8,325.7c10.8,1,21.4,4.2,31.3,8.9l6.2-5.6l29,32.3c17.5,19.5,28.6,44.7,28.3,70
			c-0.5,39.8-57.6,91.1-97.2,87.3c-25.2-2.4-49-16.2-66.5-35.7l-29-32.3l6.2-5.6c-3.7-10.4-5.7-21.2-5.5-32.1
			C321,373.3,378.2,321.9,417.8,325.7z"/>
		<path class="st2" d="M462.5,503.8C446.9,514,430,520,415.4,518.7c-0.8-0.1-1.6-0.2-2.4-0.3l-92.5-102.9c0-0.8,0-1.6,0-2.4
			c0.2-14.6,8-30.8,19.8-45.2L462.5,503.8z"/>
		<path class="st3" d="M394.2,299.5c50.3,4.8,95.5,55.1,94.9,105.6c-0.5,39.8-57.6,91.1-97.2,87.3c-50.3-4.8-95.5-55.1-94.9-105.6
			C297.5,347,354.6,295.7,394.2,299.5z"/>
		<path class="st4" d="M388.8,293.4c50.3,4.8,95.5,55.1,94.9,105.6c-0.5,39.8-57.6,91.1-97.2,87.3c-50.3-4.8-95.5-55.1-94.9-105.6
			C292,341,349.2,289.6,388.8,293.4z"/>
		<path class="st5" d="M389.6,307.1c36.5,3.5,69.3,39.9,68.8,76.6c-0.4,28.9-41.8,66.1-70.5,63.3c-36.5-3.5-69.3-39.9-68.8-76.6
			C319.5,341.6,360.9,304.4,389.6,307.1z"/>
		<path class="st1" d="M428.3,354.5c24.3,27.1,42.4,50.5,40.3,52.4c-2.1,1.9-23.5-18.6-47.8-45.7c-24.3-27.1-42.4-50.5-40.3-52.4
			C382.6,307,404,327.4,428.3,354.5L428.3,354.5z M390.7,399.3c-24.9-27.7-47.2-48.2-49.9-45.8c-2.7,2.4,15.3,26.8,40.2,54.5
			c24.9,27.7,47.2,48.2,49.9,45.8C433.5,451.4,415.6,427,390.7,399.3L390.7,399.3z M357.1,413c-22.8-25.4-43.5-44.1-46.2-41.6
			c-2.7,2.4,13.6,25,36.5,50.4c22.8,25.4,43.5,44,46.2,41.6C396.3,460.9,380,438.4,357.1,413L357.1,413z M396.9,362.2
			c-22.3-24.8-42.2-43.3-44.5-41.3c-2.3,2,14,23.8,36.3,48.7c22.3,24.8,42.2,43.3,44.5,41.3C435.4,408.8,419.2,387,396.9,362.2z"/>
	</g>
	<g>
		<path class="st6" d="M420.9,327c37.3,37.3,30.7,104.2-14.6,149.5c-45.3,45.3-112.3,51.8-149.5,14.6
			c-37.3-37.3-30.7-104.2,14.6-149.5C316.7,296.2,383.6,289.7,420.9,327L420.9,327z M403.9,344c-29.5-29.6-82.6-24.4-118.6,11.5
			c-35.9,35.9-41.1,89-11.5,118.6c29.5,29.5,82.6,24.4,118.6-11.6C428.3,426.6,433.4,373.5,403.9,344z"/>
		<path class="st7" d="M413.2,319.2c37.3,37.3,30.7,104.2-14.6,149.5c-45.3,45.3-112.2,51.8-149.5,14.6
			c-37.3-37.3-30.7-104.2,14.6-149.5C308.9,288.5,375.9,282,413.2,319.2L413.2,319.2z M396.2,336.2c-29.6-29.6-82.6-24.4-118.6,11.6
			c-35.9,35.9-41.1,89-11.6,118.6c29.5,29.5,82.6,24.4,118.6-11.6C420.5,418.9,425.7,365.8,396.2,336.2z"/>
	</g>
	<g>
		<path class="st8" d="M409.1,301.1c33.2,46.3,22.7,110.7-23.5,143.8c-46.2,33.2-110.6,22.5-143.8-23.8l-7.5-10.4
			c14.3-10.3,124.1-89.1,167.4-120.1L409.1,301.1z"/>
		<path class="st9" d="M401.6,290.7c33.2,46.3,22.7,110.7-23.5,143.8c-46.2,33.2-110.6,22.5-143.8-23.8
			c-33.2-46.3-22.7-110.7,23.5-143.8C304,233.7,368.4,244.4,401.6,290.7z"/>
		<path class="st8" d="M360.9,279.8c-11.5-16-55.9-19.3-90.1,5.2c-34.2,24.5-45.3,67.7-33.8,83.7c11.5,16,41.2-1.1,75.4-25.7
			C346.7,318.5,372.4,295.8,360.9,279.8L360.9,279.8z M398.9,332.7c11.5,16,0.4,59.1-33.8,83.7c-34.2,24.5-78.6,21.2-90.1,5.2
			c-11.5-16,14.3-38.7,48.5-63.2C357.7,333.8,387.4,316.7,398.9,332.7z"/>
		<path class="st10" d="M390,344.3c1.8,2.6,1.8,5.7,0,7c-1.9,1.3-4.8,0.3-6.7-2.2c-1.8-2.6-1.8-5.7,0-7
			C385.2,340.7,388.1,341.7,390,344.3L390,344.3z M346.2,283.3c-1.8-2.6-4.8-3.6-6.7-2.2c-1.9,1.3-1.9,4.5,0,7
			c1.8,2.6,4.8,3.6,6.7,2.2C348.1,289,348.1,285.9,346.2,283.3L346.2,283.3z M248.4,337.2c-1.6-2.2-4.1-3.1-5.6-2
			c-1.5,1.1-1.5,3.8,0.1,6c1.6,2.2,4.1,3.1,5.6,2C250,342.1,250,339.4,248.4,337.2L248.4,337.2z M273.2,349.1
			c-2.7-3.8-6.9-5.5-9.3-3.8c-2.4,1.7-2.2,6.2,0.6,10c2.7,3.8,6.9,5.5,9.3,3.8C276.1,357.4,275.9,352.9,273.2,349.1L273.2,349.1z
			 M285,309.6c-3.3-4.6-8.4-6.6-11.4-4.5c-3,2.1-2.7,7.6,0.6,12.3c3.3,4.6,8.4,6.6,11.4,4.5C288.6,319.7,288.3,314.2,285,309.6
			L285,309.6z M316.7,317.8c-2.7-3.8-6.9-5.5-9.3-3.8c-2.4,1.7-2.2,6.2,0.6,10c2.7,3.8,6.9,5.5,9.3,3.8
			C319.7,326.1,319.5,321.6,316.7,317.8L316.7,317.8z M315.5,280.5c-2.2-3.1-5.6-4.6-7.4-3.3c-1.8,1.3-1.5,4.9,0.7,8.1
			c2.2,3.1,5.6,4.6,7.4,3.3C318.1,287.3,317.8,283.7,315.5,280.5L315.5,280.5z M307.6,419.7c1.6,2.2,1.6,4.9,0.1,6
			c-1.5,1.1-4.1,0.2-5.6-2c-1.6-2.2-1.6-4.9-0.1-6C303.5,416.6,306,417.5,307.6,419.7L307.6,419.7z M304.2,392.4
			c2.7,3.8,3,8.3,0.6,10c-2.4,1.7-6.6,0.1-9.3-3.8c-2.7-3.8-3-8.3-0.6-10C297.3,386.9,301.5,388.6,304.2,392.4L304.2,392.4z
			 M345.5,393.8c3.3,4.6,3.6,10.1,0.6,12.3c-3,2.1-8.1,0.1-11.4-4.5c-3.3-4.6-3.6-10.1-0.6-12.3C337,387.2,342.2,389.2,345.5,393.8
			L345.5,393.8z M347.8,361.2c2.7,3.8,3,8.3,0.6,10c-2.4,1.7-6.6,0.1-9.3-3.8c-2.7-3.8-3-8.3-0.6-10
			C340.9,355.7,345.1,357.3,347.8,361.2L347.8,361.2z M382.8,374.2c2.2,3.1,2.6,6.8,0.7,8.1c-1.9,1.3-5.2-0.1-7.4-3.3
			c-2.3-3.1-2.6-6.8-0.7-8.1C377.2,369.6,380.5,371.1,382.8,374.2z"/>
	</g>
	<g>
		<path class="st1" d="M272.1,200.8c10.7-1.9,21.7-1.7,32.6,0.2l4.5-7l36.6,23.4c22.1,14.1,39.6,35.4,46,59.8
			c10.2,38.5-31.1,103.2-70.3,110.2c-24.9,4.4-51.6-2.5-73.7-16.6l-36.6-23.4l4.5-7c-6.3-9-11.2-18.9-13.9-29.4
			C191.6,272.5,232.9,207.8,272.1,200.8z"/>
		<path class="st2" d="M362.8,360.4c-12.3,14-27,24.3-41.4,26.9c-0.8,0.1-1.6,0.3-2.4,0.4l-116.6-74.5c-0.2-0.8-0.4-1.5-0.7-2.3
			c-3.7-14.1-0.5-31.8,7-48.9L362.8,360.4z"/>
		<path class="st3" d="M242.3,181.8c49.8-8.8,106.8,27.5,119.7,76.4c10.2,38.5-31.1,103.2-70.3,110.2C241.9,377.2,185,340.9,172,292
			C161.8,253.5,203.2,188.8,242.3,181.8z"/>
		<path class="st4" d="M235.5,177.4c49.8-8.8,106.7,27.5,119.7,76.4C365.3,292.3,324,357,284.8,364c-49.8,8.8-106.7-27.5-119.7-76.4
			C155,249.1,196.3,184.4,235.5,177.4z"/>
		<path class="st5" d="M240,190.4c36.1-6.4,77.4,20,86.8,55.4c7.4,27.9-22.6,74.8-51,79.9c-36.1,6.4-77.4-20-86.8-55.4
			C181.6,242.4,211.6,195.5,240,190.4z"/>
		<path class="st1" d="M289.9,225.7c30.7,19.6,54.3,37.4,52.8,39.7c-1.5,2.3-27.6-11.6-58.3-31.2c-30.7-19.6-54.3-37.4-52.8-39.7
			C233.1,192.2,259.2,206.1,289.9,225.7L289.9,225.7z M265.7,279c-31.4-20-58.4-33.8-60.3-30.7c-1.9,3.1,21.9,21.8,53.3,41.8
			c31.4,20,58.4,33.8,60.3,30.7C320.9,317.7,297.1,299,265.7,279L265.7,279z M237,301.1c28.8,18.4,50.6,35.8,48.6,38.8
			c-1.9,3.1-26.9-9.4-55.7-27.8c-28.8-18.4-50.6-35.8-48.6-38.8C183.3,270.3,208.2,282.7,237,301.1L237,301.1z M261.7,241.5
			c-28.1-18-52.3-30.4-53.9-27.8c-1.6,2.6,19.8,19.2,48,37.2c28.1,18,52.3,30.4,53.9,27.8C311.3,276.1,289.8,259.5,261.7,241.5z"/>
	</g>
	<g>
		<path class="st8" d="M257.6,140c50.7,25.9,70.9,87.9,45.1,138.6c-25.8,50.7-87.9,70.8-138.7,44.9l-11.4-5.8
			c8-15.7,69.4-136.1,93.6-183.5L257.6,140z"/>
		<path class="st9" d="M246.1,134.1c50.7,25.9,70.9,87.9,45.1,138.6c-25.8,50.7-87.9,70.8-138.7,44.9
			c-50.7-25.9-70.9-87.9-45.1-138.6C133.3,128.3,195.4,108.2,246.1,134.1z"/>
		<path class="st8" d="M205,143.2c-17.6-9-58.5,8.5-77.6,46c-19.1,37.5-9.2,80.9,8.4,89.9c17.6,9,36.1-19.9,55.2-57.4
			C210.1,184.1,222.6,152.1,205,143.2L205,143.2z M263,172.7c17.6,9,27.5,52.3,8.4,89.9c-19.1,37.5-60.1,54.9-77.6,46
			c-17.6-9-5.1-40.9,14.1-78.4C226.9,192.7,245.4,163.8,263,172.7z"/>
		<path class="st10" d="M260.4,187.1c2.8,1.4,4.3,4.2,3.2,6.3c-1,2-4.2,2.5-7,1.1c-2.8-1.4-4.3-4.2-3.2-6.3
			C254.5,186.2,257.6,185.7,260.4,187.1L260.4,187.1z M193.5,153c-2.8-1.4-5.9-1-7,1.1c-1,2,0.4,4.8,3.2,6.3c2.8,1.4,5.9,0.9,7-1.1
			C197.8,157.2,196.3,154.4,193.5,153L193.5,153z M131.4,245.8c-2.4-1.2-5.1-0.9-5.9,0.8c-0.9,1.7,0.4,4,2.8,5.3
			c2.4,1.2,5.1,0.9,5.9-0.8C135.1,249.4,133.8,247,131.4,245.8L131.4,245.8z M158.8,245c-4.2-2.1-8.7-1.7-10,0.9
			c-1.4,2.7,0.9,6.5,5.1,8.7c4.2,2.1,8.7,1.7,10-0.9C165.3,251,163,247.1,158.8,245L158.8,245z M151.2,204.4
			c-5.1-2.6-10.5-2-12.2,1.2c-1.7,3.3,1.1,8,6.2,10.6c5.1,2.6,10.5,2,12.2-1.3C159.1,211.8,156.3,207,151.2,204.4L151.2,204.4z
			 M183.2,197.2c-4.2-2.1-8.7-1.7-10,0.9c-1.4,2.7,0.9,6.5,5.1,8.7c4.2,2.1,8.7,1.7,10-0.9C189.6,203.2,187.3,199.4,183.2,197.2
			L183.2,197.2z M165,164.6c-3.4-1.8-7.1-1.5-8.1,0.5c-1,2,0.9,5.1,4.3,6.8c3.4,1.8,7.1,1.5,8.1-0.5
			C170.4,169.4,168.4,166.4,165,164.6L165,164.6z M221.8,291.9c2.4,1.2,3.7,3.6,2.8,5.3c-0.9,1.7-3.5,2-5.9,0.8
			c-2.4-1.2-3.7-3.6-2.8-5.3C216.7,291,219.3,290.7,221.8,291.9L221.8,291.9z M206.3,269.2c4.2,2.1,6.5,6,5.1,8.7
			c-1.4,2.7-5.8,3.1-10,0.9c-4.2-2.1-6.5-6-5.1-8.7C197.6,267.5,202.1,267.1,206.3,269.2L206.3,269.2z M243.6,251.6
			c5.1,2.6,7.8,7.3,6.2,10.6c-1.7,3.3-7.1,3.8-12.2,1.2c-5.1-2.6-7.8-7.3-6.2-10.6C233,249.5,238.5,249,243.6,251.6L243.6,251.6z
			 M230.7,221.5c4.2,2.1,6.5,6,5.1,8.7c-1.4,2.7-5.8,3.1-10,1c-4.2-2.1-6.5-6-5.1-8.7C222,219.8,226.5,219.3,230.7,221.5
			L230.7,221.5z M267.7,217c3.4,1.8,5.4,4.8,4.3,6.8c-1,2-4.7,2.3-8.1,0.5c-3.4-1.8-5.4-4.8-4.3-6.8
			C260.7,215.5,264.3,215.3,267.7,217z"/>
	</g>
	<g>
		<path class="st6" d="M267.7,173.8c37.3,37.3,30.7,104.2-14.6,149.5c-45.3,45.3-112.2,51.8-149.5,14.6
			c-37.3-37.3-30.7-104.2,14.6-149.5C163.5,143.1,230.5,136.6,267.7,173.8L267.7,173.8z M250.8,190.8
			c-29.5-29.6-82.6-24.4-118.6,11.5c-35.9,35.9-41.1,89-11.5,118.6c29.5,29.6,82.6,24.4,118.6-11.5
			C275.1,273.5,280.3,220.4,250.8,190.8z"/>
		<path class="st7" d="M260,166.1c37.3,37.3,30.7,104.2-14.6,149.5c-45.3,45.3-112.2,51.8-149.5,14.6
			C58.7,292.9,65.2,226,110.5,180.7C155.8,135.4,222.8,128.8,260,166.1L260,166.1z M243,183.1c-29.5-29.6-82.6-24.4-118.6,11.5
			c-35.9,35.9-41.1,89-11.5,118.6c29.5,29.6,82.6,24.4,118.6-11.6C267.4,265.7,272.6,212.6,243,183.1z"/>
	</g>
	<g>
		<path class="st1" d="M143.8,60.8c10.9-0.4,21.7,1.4,32.2,4.9l5.5-6.3l32.9,28.3c19.8,17.1,34.1,40.7,37,65.8
			c4.6,39.5-45.6,97.7-85.3,99c-25.3,0.8-50.7-9.8-70.5-26.9l-32.9-28.3l5.5-6.3c-5-9.8-8.3-20.3-9.6-31.1
			C53.9,120.3,104.1,62.1,143.8,60.8z"/>
		<path class="st2" d="M210.9,231.7c-14.2,12.1-30.2,20.2-44.8,20.7c-0.8,0-1.6,0-2.4,0L58.8,162.2c-0.1-0.8-0.2-1.6-0.3-2.4
			c-1.7-14.5,4-31.6,13.9-47.4L210.9,231.7z"/>
		
			<ellipse transform="matrix(0.6528 -0.7575 0.7575 0.6528 -56.6891 143.543)" class="st3" cx="128.3" cy="133.6" rx="92.4" ry="100.4"/>
		<path class="st4" d="M111,32.4c50.5-1.7,101.7,42.5,107.6,92.7c4.6,39.5-45.6,97.7-85.3,99c-50.5,1.7-101.7-42.5-107.6-92.7
			C21.1,91.9,71.2,33.8,111,32.4z"/>
		<path class="st5" d="M113.6,46c36.6-1.2,73.8,30.8,78,67.2c3.3,28.7-33,70.9-61.9,71.8c-36.6,1.2-73.8-30.8-78-67.2
			C48.4,89.1,84.7,46.9,113.6,46z"/>
		<path class="st1" d="M157.9,88c27.6,23.8,48.5,44.7,46.6,46.9c-1.8,2.1-25.6-15.4-53.2-39.2c-27.6-23.8-48.5-44.7-46.6-46.9
			C106.5,46.7,130.4,64.3,157.9,88L157.9,88z M126.4,137.3c-28.2-24.3-53-41.8-55.3-39c-2.4,2.7,18.6,24.7,46.8,49
			c28.2,24.3,53,41.8,55.3,39C175.5,183.5,154.6,161.6,126.4,137.3L126.4,137.3z M94.8,155.1c-25.9-22.3-48.8-38.2-51.1-35.4
			c-2.4,2.7,16.7,23,42.6,45.3c25.9,22.3,48.8,38.2,51.1,35.4C139.8,197.7,120.7,177.4,94.8,155.1L94.8,155.1z M127.8,99.6
			c-25.3-21.8-47.4-37.6-49.4-35.3c-2,2.3,16.9,21.9,42.2,43.6c25.3,21.8,47.4,37.6,49.4,35.3C172,140.9,153.1,121.4,127.8,99.6z"/>
	</g>
	<path class="st0" d="M8.8,1l113.4,98.6c11.5,10-6.7,27.8-16.5,17.7L1.1,8.7C-2.8,4.8,4.7-2.7,8.8,1z"/>
</g>
</svg>
