<?xml version="1.0" encoding="utf-8"?>
<!-- Generator: Adobe Illustrator 25.0.0, SVG Export Plug-In . SVG Version: 6.00 Build 0)  -->
<svg version="1.1" id="Layer_1" xmlns="http://www.w3.org/2000/svg" xmlns:xlink="http://www.w3.org/1999/xlink" x="0px" y="0px"
	 viewBox="0 0 42.4 30.5" style="enable-background:new 0 0 42.4 30.5;" xml:space="preserve">
<style type="text/css">
	.st0{fill:#C7A825;}
	.st1{fill:#E8D13A;}
	.st2{fill:#EFEAD1;}
	.st3{fill:#E3C439;}
	.st4{fill:#F5F2E4;}
	.st5{fill:#DED5A9;}
	.st6{fill:#362F13;}
	.st7{fill:#C7B877;}
	.st8{fill:#F2E296;}
	.st9{opacity:0.54;fill:#C7B877;}
	.st10{fill:#FFE685;}
</style>
<g>
	<g>
		<g>
			<path class="st0" d="M22.3,30.5c-2.7,0-5.4-0.9-7.9-2.3c-3.3-1.8-6.3-4.3-8.5-6.8c-3.2-3.7-4.2-8.4-5.5-13C-0.3,6,0,4.1,0.7,1.9
				c0.1-0.2,0.1-0.4,0.2-0.6c0,0,0-0.1,0-0.1C1,0.8,1.1,0.4,1.2,0l0.4,0c0.5,0.2,1,0.4,1.5,0.6c0.1,0,0.1,0,0.2,0.1
				c0.1,0,0.2,0.1,0.3,0.1C4.2,1,4.8,1.2,5.4,1.4C6.2,1.7,7,2,7.8,2.4C8.2,2.5,8.6,2.7,9,2.9c0.7,0.3,1.4,0.6,2.1,0.8
				c0.7,0.3,1.4,0.6,2.2,0.9c0.9,0.4,1.9,0.8,2.8,1.1c0.5,0.2,1,0.4,1.5,0.6c0.5,0.2,1,0.4,1.5,0.6c0.6,0.2,1.3,0.5,1.9,0.7
				c0.1,0,0.2,0.1,0.3,0.1c0.1,0.1,0.3,0.1,0.4,0.1c0,0,0.1,0,0.1,0c0,0,0,0,0.1,0C21.9,8,22,8,22,8.1c0,0,0.1,0.1,0.1,0.1
				c-0.1,0-0.1,0.1-0.2,0.1c0,0-0.1,0-0.1,0.1c-0.2,0.1-0.3,0.3-0.5,0.3c-0.1,0.1-0.2,0.2-0.2,0.4c0,0.1,0.1,0.2,0.1,0.3
				c0,0,0.1,0.1,0.1,0.1c0,0,0.1,0,0.1,0c0,0.1,0,0.1,0,0.2c0,0.3-0.1,0.5,0,0.8c0,0.1,0.1,0.1,0.1,0.2c0,0.1,0.1,0.1,0.1,0.1
				c0,0,0.1,0,0.1,0.1c0.4,0.3,1-0.1,1.4-0.2c0.4-0.1,0.8-0.3,0.8-0.9l0-0.1c0.1,0,0.1,0,0.1,0c0,0,0.1,0,0.1,0
				c0.5,0.4,1,0.6,1.6,0.7c0.2,0.1,0.5,0.1,0.7,0.2c2.1,0.5,4.1,1,6.2,1.6c0.4,0.1,0.7,0.2,1.1,0.3c0.6,0.2,1.2,0.3,1.8,0.4
				c0.1,0,0.2,0.1,0.3,0.1c0.1,0,0.1,0,0.1,0c0,0,0.1,0,0.1,0c0,0,0.1,0,0.1,0c0.1,0,0.2,0,0.3,0.1c0.1,0,0.1,0,0.2,0
				c0,0,0.1,0,0.1,0c0.1,0,0.1,0,0.2,0c0.1,0,0.1,0,0.2,0c0.1,0,0.2,0,0.3,0.1c0.1,0,0.2,0,0.3,0.1c0.1,0,0.2,0,0.3,0
				c0.2,0,0.4,0.1,0.7,0.1c0.7,0.1,1.4,0.2,2.1,0.4c0.5,0.1,1,0.1,1.4,0.2c0,0.4-0.1,0.8-0.2,1.1c0,0.2-0.1,0.5-0.1,0.7
				c-0.1,0.5-0.2,1.1-0.4,1.6c0,0.1-0.1,0.3-0.1,0.4c-0.1,0.3-0.2,0.5-0.3,0.7c-1.1,2.7-2.9,5.4-5.1,7.5c-0.1,0.1-0.3,0.3-0.4,0.4
				c0,0,0,0,0,0c-0.1,0.1-0.3,0.2-0.4,0.3c-0.4,0.3-0.8,0.6-1.2,0.9c-1.2,0.9-2.6,1.5-4,1.8c-1.4,0.3-2.9,0.2-4.4,0.3
				C24.6,30.1,23.5,30.5,22.3,30.5z"/>
			<path class="st1" d="M22.4,30.4c-2.7,0-5.4-0.9-7.9-2.3c-3.2-1.8-6.3-4.3-8.4-6.8C2.9,17.7,2,13.1,0.7,8.5C0,6.1,0.3,4.2,1,2
				c0,0,0-0.1,0-0.1l0.2-0.5c0,0,0-0.1,0-0.1C1.3,0.9,1.5,0.4,1.6,0l0.1,0c0.5,0.2,1,0.4,1.5,0.6c0.1,0,0.1,0,0.2,0.1
				c0.1,0,0.2,0.1,0.3,0.1C4.2,1,4.8,1.2,5.4,1.4C6.2,1.7,7,2,7.8,2.4C8.2,2.5,8.6,2.7,9,2.9c0.7,0.3,1.4,0.6,2.1,0.8
				c0.7,0.3,1.4,0.6,2.2,0.9c0.9,0.4,1.9,0.8,2.8,1.1c0.5,0.2,1,0.4,1.5,0.6c0.5,0.2,1,0.4,1.5,0.6c0.6,0.2,1.3,0.5,1.9,0.7
				c0.1,0,0.2,0.1,0.3,0.1c0.1,0.1,0.3,0.1,0.4,0.1c0.1,0,0.1,0,0.2,0.1C21.9,8,22,8,22,8.1c0.1,0.1,0.1,0.1,0.2,0.2l0,0.1
				c-0.1,0-0.1,0-0.1,0.1c-0.2,0.1-0.3,0.2-0.4,0.3c0,0,0,0-0.1,0c0,0-0.1,0-0.1,0.1c-0.2,0.2-0.2,0.5,0,0.6c0,0,0,0,0,0.1
				c0,0,0,0,0.1,0l0.1,0c-0.1,0.4-0.1,0.9,0.2,1.2c0,0,0,0,0.1,0c0.4,0.3,1.1,0,1.5-0.2c0.4-0.1,0.8-0.2,0.8-0.8c0-0.1,0-0.1,0-0.2
				c0,0,0,0,0.1,0c0,0,0.1,0,0.1,0c0.5,0.4,1,0.6,1.6,0.7c0.2,0.1,0.5,0.1,0.7,0.2c2.1,0.5,4.1,1,6.2,1.6c0.4,0.1,0.7,0.2,1.1,0.3
				c0.6,0.2,1.2,0.3,1.8,0.4c0.1,0,0.2,0.1,0.3,0.1c0.1,0,0.1,0,0.1,0c0,0,0.1,0,0.1,0c0,0,0.1,0,0.1,0c0.1,0,0.2,0,0.3,0.1
				c0.1,0,0.1,0,0.2,0c0,0,0.1,0,0.1,0c0.1,0,0.1,0,0.2,0c0.1,0,0.1,0,0.2,0c0.1,0,0.2,0,0.3,0.1c0.1,0,0.2,0,0.3,0.1
				c0.1,0,0.2,0,0.3,0c0.2,0,0.4,0.1,0.7,0.1c0.7,0.1,1.4,0.2,2.1,0.4c0.5,0.1,1,0.1,1.4,0.2c0,0.4-0.1,0.8-0.2,1.1
				c0,0.2-0.1,0.5-0.1,0.7c-0.1,0.5-0.2,1.1-0.4,1.6c0,0.1-0.1,0.3-0.1,0.4c-0.1,0.3-0.2,0.5-0.3,0.8c-1.1,2.6-2.9,5.4-5.1,7.5
				c-0.1,0.1-0.3,0.3-0.4,0.4c0,0,0,0,0,0c-0.1,0.1-0.3,0.2-0.4,0.3c-0.4,0.3-0.8,0.6-1.2,0.9c-1.2,0.8-2.5,1.4-3.9,1.8
				c-1.4,0.3-2.9,0.2-4.3,0.3C24.7,30,23.6,30.4,22.4,30.4z"/>
			<path class="st2" d="M22.4,28.8c-2.5,0-5-0.9-7.3-2.1c-3-1.6-5.8-4-7.8-6.3c-0.5-0.5-0.9-1.1-1.2-1.6c-0.1-0.1-0.2-0.2-0.2-0.4
				c-0.4-0.7-0.8-1.5-1.1-2.2c-0.1-0.2-0.1-0.4-0.2-0.5C3.6,13.4,3,10.9,2.3,8.5C2,7.5,1.9,6.6,2,5.7C2,5.5,2,5.3,2,5.1
				c0.1-1,0.4-2,0.8-3.2c0.1-0.2,0.1-0.3,0.2-0.5C3,1.3,3,1.2,3,1.1c0-0.1,0-0.1,0.1-0.2c0-0.1,0.1-0.2,0.1-0.3c0.1,0,0.1,0,0.2,0.1
				c0.1,0,0.2,0.1,0.3,0.1C4.2,1,4.8,1.2,5.4,1.4C6.2,1.7,7,2,7.8,2.4C8.2,2.5,8.6,2.7,9,2.9c0.7,0.3,1.4,0.6,2.1,0.8
				c0.7,0.3,1.4,0.6,2.2,0.9c0.9,0.4,1.9,0.8,2.8,1.1c0.5,0.2,1,0.4,1.5,0.6c0.5,0.2,1,0.4,1.5,0.6c0.6,0.2,1.3,0.5,1.9,0.7
				c0.1,0,0.2,0.1,0.3,0.1c0.1,0.1,0.3,0.1,0.4,0.1c0,0,0.1,0,0.1,0c0,0,0,0,0.1,0C21.9,8,22,8,22,8.1c0.1,0.1,0.1,0.1,0.2,0.2
				l0,0.1c-0.1,0-0.1,0-0.1,0.1c-0.2,0.1-0.3,0.2-0.4,0.3c0,0,0,0-0.1,0c0,0-0.1,0-0.1,0.1c-0.1,0.1-0.2,0.1-0.2,0.2
				c0,0.1,0,0.2,0,0.3c0,0,0,0.1,0,0.1c0,0,0,0,0,0c0,0,0,0,0,0c0,0,0.1,0,0.1,0.1l0.1,0c0,0.2-0.1,0.5-0.1,0.7c0,0.1,0,0.2,0.1,0.3
				c0.1,0.1,0.1,0.2,0.2,0.3c0.2,0.1,0.4,0.2,0.6,0.1l0.1,0c0.3-0.1,0.7-0.2,0.9-0.3c0.1,0,0.1,0,0.2-0.1c0.1,0,0.1,0,0.1-0.1
				c0,0,0.1,0,0.1-0.1c0,0,0.1,0,0.1-0.1c0,0,0.1,0,0.1-0.1c0,0,0,0,0-0.1c0.1-0.1,0.1-0.3,0.1-0.5c0,0,0-0.1,0-0.1c0,0,0-0.1,0-0.2
				c0,0,0.1,0,0.1,0c0.5,0.4,1,0.6,1.6,0.7c0.2,0.1,0.5,0.1,0.7,0.2c2.1,0.5,4.1,1,6.2,1.6c0.4,0.1,0.7,0.2,1.1,0.3
				c0.6,0.2,1.2,0.3,1.8,0.4c0.1,0,0.2,0.1,0.3,0.1c0.1,0,0.1,0,0.1,0c0,0,0.1,0,0.1,0c0,0,0.1,0,0.1,0c0.1,0,0.2,0,0.3,0.1
				c0.1,0,0.1,0,0.2,0c0,0,0.1,0,0.1,0c0.1,0,0.1,0,0.2,0c0.2,0,0.3,0.1,0.5,0.1c0.1,0,0.2,0,0.3,0.1c0.1,0,0.2,0,0.3,0
				c0.2,0,0.4,0.1,0.7,0.1c0.7,0.1,1.4,0.2,2.1,0.4c0,0.1,0,0.2,0,0.3c0,0.2-0.1,0.5-0.1,0.7c0,0.1,0,0.2-0.1,0.3
				c-0.1,0.6-0.2,1.1-0.4,1.7c-0.1,0.3-0.2,0.6-0.3,0.8c0,0.1-0.1,0.2-0.1,0.2c-0.8,2-2,4-3.6,5.7c-0.2,0.2-0.3,0.4-0.5,0.6
				c-1.8,1.9-3.9,3.3-6.2,3.9c-1.3,0.3-2.7,0.2-4,0.3C24.5,28.5,23.5,28.8,22.4,28.8z"/>
			<path class="st3" d="M20,25c-1.4-0.5-2.6-1.3-3.9-2.1c-0.1,0-0.1-0.1-0.2-0.1c-0.1,0-0.1-0.1-0.2-0.1c0,0-0.1,0-0.1,0
				c-1.3-0.3-2-0.2-3.3-1.2c-1.5-1.2-2.9-2.6-3.7-4.4c-0.3-0.6-0.5-1.3-0.7-2c-0.1-0.4-0.2-0.9-0.2-1.3c0-0.4,0.1-0.7,0.4-0.9
				c0,0-0.1-0.1-0.2-0.1c-0.4-0.2-0.8-0.2-1.1-0.4c-0.2-0.2-0.4-0.5-0.5-0.8c-0.5-1.6-1-3.2-0.9-4.8c0-1.5,0.6-3,1.7-3.8
				c0.1-0.1,0.2-0.1,0.3-0.2c0,0,0.1-0.1,0.1-0.1c0.1-0.1,0.2-0.2,0.2-0.2C8.2,2.5,8.6,2.7,9,2.9c0.7,0.3,1.4,0.6,2.1,0.8
				c0.7,0.3,1.4,0.6,2.2,0.9c0.9,0.4,1.9,0.8,2.8,1.1c0.5,0.2,1,0.4,1.5,0.6c0.5,0.2,1,0.4,1.5,0.6c0.6,0.2,1.3,0.5,1.9,0.7
				c0.1,0,0.2,0.1,0.3,0.1c0.1,0.1,0.3,0.1,0.4,0.1c0,0,0.1,0,0.1,0c0,0,0,0,0.1,0C21.9,8,22,8,22,8.1c0.1,0.1,0.1,0.1,0.2,0.2
				l0,0.1c-0.1,0-0.1,0-0.1,0.1c-0.2,0.1-0.3,0.2-0.4,0.3c0,0,0,0-0.1,0c0,0-0.1,0-0.1,0.1C21.5,8.9,21.5,9,21.5,9c0,0,0,0.1,0,0.1
				l0,0.1c0,0,0,0.1,0,0.1c0,0,0,0.1,0,0.1c0,0.1,0.1,0.1,0.1,0.1c0,0,0.1,0,0.1,0.1l0.1,0c0,0,0,0,0,0.1c0,0.2-0.1,0.4,0,0.6
				c0,0,0,0,0,0.1c0,0,0,0.1,0,0.1c0,0,0,0.1,0,0.1c0,0.1,0,0.1,0.1,0.1c0,0,0.1,0.1,0.1,0.1c0,0,0,0,0.1,0.1
				c0.2,0.1,0.3,0.1,0.5,0.1c0,0,0.1,0,0.1,0c0,0,0.1,0,0.1,0c0.1,0,0.2-0.1,0.2-0.1c0.2-0.1,0.3-0.1,0.4-0.2c0.1,0,0.1,0,0.2-0.1
				c0.1,0,0.2-0.1,0.2-0.1c0,0,0.1,0,0.1,0c0,0,0,0,0.1-0.1c0,0,0,0,0,0c0.1-0.1,0.1-0.3,0.1-0.5l0-0.1c0,0,0.1,0,0.1,0
				c0,0,0,0,0.1,0c0,0,0.1,0,0.1,0c0.5,0.4,1,0.6,1.6,0.7c0.2,0.1,0.5,0.1,0.7,0.2c2.1,0.5,4.1,1,6.2,1.6c0.4,0.1,0.7,0.2,1.1,0.3
				c0.6,0.2,1.2,0.3,1.8,0.4c0.1,0,0.2,0.1,0.3,0.1c0.1,0,0.1,0,0.1,0c0,0,0.1,0,0.1,0c0,0,0.1,0,0.1,0c0.1,0,0.2,0,0.3,0.1
				c0.1,0,0.1,0,0.2,0c0,0,0.1,0,0.1,0c0.1,0,0.1,0,0.2,0c0.1,0,0.1,0,0.2,0c0,0.3,0,0.5-0.1,0.8c0,0.3-0.1,0.5-0.1,0.7
				c-0.4,2.2-1.7,4.3-3.5,5.3c-0.1,0.1-0.2,0.1-0.3,0.2c-0.1,0.1-0.1,0.2-0.1,0.4c0,0.1,0,0.1,0,0.1c0,0.1,0,0.2,0,0.3
				c-0.3,1.2-1,2-2.1,2.6c-0.9,0.5-1.9,0.7-2.9,0.9c-1,0.2-2.2,0-3.2-0.4c0,0-0.1,0-0.1,0c0,0.2,0,0.3-0.1,0.4
				c-0.1,0.3-0.5,0.5-0.8,0.6C22.8,25.6,21.3,25.5,20,25z"/>
			<g>
				<path class="st4" d="M20,25c-1.4-0.5-2.6-1.3-3.9-2.1c-0.1,0-0.1-0.1-0.2-0.1c-0.1,0-0.1-0.1-0.2-0.1c0,0-0.1,0-0.1,0
					c-1.3-0.3-2-0.2-3.3-1.2c-1.5-1.2-2.9-2.6-3.7-4.4c-0.3-0.6-0.5-1.3-0.7-2c-0.1-0.4-0.2-0.9-0.2-1.3c0-0.4,0.1-0.7,0.4-0.9
					c0,0-0.1-0.1-0.2-0.1c-0.4-0.2-0.8-0.2-1.1-0.4c-0.2-0.2-0.4-0.5-0.5-0.8c-0.5-1.6-1-3.2-0.9-4.8c0-1.5,0.6-3,1.7-3.8
					c0.1-0.1,0.2-0.1,0.3-0.2c0,0,0.1-0.1,0.1-0.1c0.1-0.1,0.2-0.2,0.2-0.2C8.2,2.5,8.6,2.7,9,2.9c0,0-0.1,0.1-0.2,0.2c0,0,0,0,0,0
					c0,0-0.1,0.1-0.1,0.1C8.5,3.3,8.4,3.4,8.3,3.5c-0.4,0.4-0.8,0.8-1,1.4C7.2,5.1,7.1,5.3,7,5.6C7,5.8,6.9,5.9,6.9,6.2
					c0,0.2,0,0.3-0.1,0.5c0,0,0,0.1,0,0.1c0,0,0,0,0,0.1c0,0.2,0,0.5,0,0.7c0,0.4,0.1,0.8,0.1,1.2c0,0.2,0.1,0.3,0.1,0.5
					c0,0.1,0.1,0.3,0.1,0.4c0,0.1,0.1,0.3,0.1,0.4c0.1,0.4,0.2,0.8,0.4,1.1c0.1,0.3,0.2,0.6,0.4,0.8c0.2,0.2,0.5,0.2,0.8,0.3
					c0.1,0,0.1,0,0.2,0.1c0.1,0,0.1,0.1,0.1,0.1C9,12.7,8.9,13,8.9,13.3c0,0.4,0.1,0.8,0.2,1.2c0,0,0,0.1,0,0.1
					c0,0.1,0.1,0.3,0.1,0.4c0.1,0.4,0.3,0.9,0.5,1.3c0.1,0.1,0.1,0.2,0.2,0.4c0,0.1,0.1,0.1,0.1,0.2c0.1,0.2,0.2,0.4,0.3,0.5
					c0.8,1.1,1.8,2.1,2.8,2.9c0.1,0.1,0.2,0.1,0.2,0.2c0.1,0.1,0.3,0.2,0.4,0.2c0.7,0.4,1.3,0.5,2,0.6c0,0,0,0,0.1,0
					c0,0,0.1,0,0.1,0c0,0,0.1,0,0.1,0c0,0,0.1,0,0.1,0c0.1,0,0.1,0,0.2,0.1c0,0,0.1,0,0.1,0.1c0,0,0,0,0.1,0
					c0.6,0.4,1.3,0.8,1.9,1.2c0.2,0.1,0.3,0.2,0.5,0.2c0.4,0.2,0.8,0.4,1.2,0.5c0.1,0,0.3,0.1,0.4,0.1c0.1,0,0.3,0.1,0.4,0.1
					c0.1,0,0.2,0.1,0.4,0.1c0.2,0,0.3,0,0.5,0.1c0.2,0,0.4,0,0.6,0c0.2,0,0.4,0,0.6,0c0.3,0,0.6-0.1,0.9-0.2c0.1,0,0.2-0.1,0.3-0.2
					c0.1-0.1,0.2-0.2,0.3-0.3c0,0,0.1-0.1,0.1-0.1c0.1-0.1,0.1-0.3,0.1-0.4c0,0,0,0,0.1,0c0,0,0.1,0,0.1,0c0.5,0.2,1,0.3,1.5,0.4
					c0.2,0,0.5,0,0.7,0c0.1,0,0.2,0,0.2,0c0.1,0,0.3,0,0.4-0.1c0.5-0.1,0.9-0.2,1.4-0.3c0.1,0,0.2-0.1,0.3-0.1
					c0.2-0.1,0.5-0.2,0.7-0.3c0,0,0.1,0,0.1-0.1c0,0,0.1,0,0.1-0.1c0.1,0,0.2-0.1,0.2-0.1c0.1,0,0.1-0.1,0.2-0.1
					c0.1-0.1,0.2-0.2,0.3-0.2c0.1-0.1,0.2-0.1,0.2-0.2c0.4-0.4,0.7-0.9,0.8-1.4c0-0.1,0-0.1,0.1-0.2c0-0.1,0-0.2,0-0.2
					c0,0,0-0.1,0-0.1c0-0.1,0-0.1,0-0.1c0-0.1,0-0.2,0.1-0.3c0.1-0.1,0.2-0.1,0.3-0.2c0,0,0,0,0.1,0c0.3-0.2,0.6-0.4,0.9-0.6
					c0.1-0.1,0.3-0.2,0.4-0.4c0.6-0.6,1.1-1.4,1.4-2.2c0-0.1,0.1-0.2,0.1-0.3c0,0,0-0.1,0-0.1c0.1-0.2,0.1-0.3,0.1-0.5
					c0.1-0.2,0.1-0.5,0.1-0.7c0-0.1,0.1-0.3,0.1-0.5c0-0.2,0.1-0.4,0.1-0.7c0.1,0,0.2,0,0.2,0.1c0,0,0.1,0,0.1,0
					c0.1,0,0.2,0,0.3,0.1c0.1,0,0.1,0,0.2,0c0,0,0.1,0,0.1,0c0.1,0,0.1,0,0.2,0c0.1,0,0.1,0,0.2,0c0,0.3,0,0.5-0.1,0.8
					c0,0.3-0.1,0.5-0.1,0.7c-0.4,2.2-1.7,4.3-3.5,5.3c-0.1,0.1-0.2,0.1-0.3,0.2c-0.1,0.1-0.1,0.2-0.1,0.4c0,0.1,0,0.1,0,0.1
					c0,0.1,0,0.2,0,0.3c-0.3,1.2-1,2-2.1,2.6c-0.9,0.5-1.9,0.7-2.9,0.9c-1,0.2-2.2,0-3.2-0.4c0,0-0.1,0-0.1,0c0,0.2,0,0.3-0.1,0.4
					c-0.1,0.3-0.5,0.5-0.8,0.6C22.8,25.6,21.3,25.5,20,25z"/>
			</g>
			<path class="st5" d="M33.1,20.9c-1.9-1.5-3.5-3.4-5.2-5.2c-1.5-1.6-2.9-3.3-4.3-5c0.1,0,0.2-0.1,0.3-0.1c0,0,0.1,0,0.1-0.1
				c0,0,0.1,0,0.1-0.1c0,0,0,0,0-0.1c1.4,1.7,2.8,3.5,4.3,5.1c1.6,1.7,3.2,3.3,4.8,5c0,0,0,0.1,0,0.1C33.2,20.8,33.2,20.8,33.1,20.9
				z"/>
			<path class="st5" d="M22,8.3c0.1,0,0.1,0,0.2,0c0,0,0-0.1,0-0.1C22.1,8.1,22,8,21.9,7.9c-0.1,0-0.1,0-0.2,0c0,0,0,0,0,0.1
				c-0.1-0.1-0.3-0.1-0.4-0.2c-0.1-0.1-0.2-0.1-0.3-0.1c-0.6-0.2-1.3-0.5-1.9-0.7c-0.5-0.2-1-0.4-1.5-0.6c-0.5-0.2-1-0.4-1.5-0.6
				c-0.9-0.4-1.9-0.7-2.8-1.1c-0.7-0.3-1.4-0.6-2.2-0.9C10.4,3.4,9.7,3.2,9,2.9C8.6,2.7,8.2,2.5,7.8,2.4c0,0-0.1,0.2-0.2,0.2
				C8,2.8,8.4,3,8.8,3.2c2.1,0.9,4.1,1.8,6.2,2.6c1.9,0.8,3.9,1.7,5.8,2.3c0.2,0.1,0.5,0.2,0.7,0.2c0.1,0,0.2,0.1,0.3,0.1
				c0,0,0,0,0.1,0C21.9,8.3,21.9,8.3,22,8.3z"/>
			<path class="st5" d="M25,24.2c-0.2-2.4-0.8-4.8-1.2-7.2c-0.3-2-0.5-3.9-0.9-5.9c-0.2,0.1-0.2,0-0.4,0c0.1,2,0.4,4,0.7,5.9
				c0.3,2.4,0.5,5,1.2,7.3C24.6,24.6,25,24.5,25,24.2z"/>
			<path class="st5" d="M15.9,22.7c0.6-0.9,1-2.1,1.4-3.2c0.5-1.2,1.1-2.3,1.7-3.5c0.9-1.7,2-3.4,2.9-5.1c-0.2-0.2-0.3-0.4-0.3-0.6
				c-1.2,1.6-2.2,3.4-3.1,5.2c-0.6,1.1-1.2,2.3-1.7,3.5c-0.5,1.1-1.1,2.2-1.3,3.5C15.5,22.7,15.8,22.9,15.9,22.7z"/>
			<path class="st5" d="M7.6,13.8c0-0.4,0.1-0.7,0.4-0.9c-0.1,0-0.1-0.1-0.2-0.1c0.8-0.5,1.8-0.7,2.7-1c1.3-0.4,2.6-0.8,3.9-1.1
				c2.3-0.6,4.6-1.3,6.9-1.6c0,0,0,0.1,0,0.1c0,0,0,0.1,0,0.1c0,0,0,0,0,0.1c0,0,0,0.1,0,0.1c0,0,0,0,0,0c0,0,0,0,0,0
				c0,0,0.1,0.1,0.1,0.1l0,0c-2.2,0.8-4.6,1.2-6.9,1.7c-1.2,0.3-2.5,0.7-3.7,1.1C9.9,12.9,8.8,13.5,7.6,13.8z"/>
			<path class="st6" d="M31.3,13c1,0.4,1.9,0.9,2.8,1.4c0.7,0.4,1.4,1.1,2.2,1c-1.4-1.5-3.2-1.9-4.9-2.5C29.2,12,27.1,11,25,10.3
				c-0.1,0-0.1,0.1,0,0.1C27,11.5,29.2,12.1,31.3,13z"/>
			<path class="st6" d="M31.8,15.4c1.1,0.6,2.8,0.8,3.9,0.2c0,0,0-0.1,0-0.1c-1.7-0.3-3.2,0.2-4.6-1.3c-1.1-1.1-2.2-1.8-3.6-2.4
				c-0.1-0.1-0.2,0.2-0.1,0.2c1.1,0.5,2.2,1,3,2C30.9,14.5,31.2,15.1,31.8,15.4z"/>
			<path class="st6" d="M34.1,18.7c0.2,0.2,0.4-0.2,0.2-0.4c-0.8-1-1.8-1.8-2.8-2.7c-0.6-0.5-1.2-1-1.9-1.3
				c-1.3-0.4-2.2-0.7-3.2-1.8c-0.4-0.5-0.8-0.9-1.4-1.1c-0.2-0.1-0.3,0.3,0,0.4c1,0.3,1.4,1.4,2.1,2.1c0.6,0.5,1.4,0.7,2.1,1
				C31.1,15.7,32.5,17.5,34.1,18.7z"/>
			<path class="st6" d="M32.9,12.2c-0.2-0.1-0.5-0.1-0.7-0.2c-0.7,0-1.4,0-2.1-0.1c-0.2,0-0.2,0.2,0,0.3c0.9,0.6,1.9,0.5,2.9,0.5
				c0.7,0,1.3,0,2,0C34.2,12.5,33.5,12.4,32.9,12.2z"/>
			<path class="st6" d="M7,7.5c1.1-0.2,2.3-0.2,3.5-0.1c1.3,0.1,2.5,0.5,3.8,0.6C15.5,8.1,16.7,8,18,8.4c0.4,0.1,0.9,0.3,1.3,0.3
				c0.7,0.1,0.9-0.1,0.2,0.3c0.3-0.2,0.5-0.3,0.9-0.4c0.1,0,0-0.2,0-0.2c-1.1-0.1-2.1-0.6-3.2-0.7c-1.3-0.2-2.4,0.3-3.7-0.1
				C11.8,7.2,10.4,6.8,9,6.7c0-0.1,0-0.2-0.2-0.2C8.3,6.4,7.9,6.3,7.4,6.2c-0.3,0-0.8-0.2-1,0c-0.1,0-0.1,0.1,0,0.2
				c0.3,0.2,0.6,0.2,1,0.2c0.1,0,0.2,0,0.3,0c-0.2,0-0.4,0-0.6,0c-0.1,0-0.2,0-0.3,0C6.4,6.9,6.6,7.6,7,7.5z"/>
			<path class="st6" d="M7.2,9.2c0.1-0.1,0-0.3-0.1-0.3c0.4,0,1,0.2,1.5,0.2C9,9,9.5,9.1,10,9.1c0.6,0.1,1.2,0.2,1.8,0.2
				c1.3,0,2.5-0.6,3.8-0.9c0.1,0,0-0.1,0-0.1c-0.6-0.1-1.2,0.1-1.8,0.3c-1,0.3-1.9,0.4-3,0.3c-0.9-0.1-3-0.8-3.8-0.1
				C6.8,8.8,6.8,9,6.9,9.1c0,0,0,0,0.1,0C7.1,9.2,7.2,9.2,7.2,9.2z"/>
			<path class="st6" d="M16.8,9.2c0.1,0,0.9-0.2,0.7-0.5c-0.2-0.3-0.9,0-1.1,0c-0.4,0.1-1,0-1.3,0.3c-0.1,0.1-0.1,0.2,0,0.3
				C15.7,9.6,16.4,9.3,16.8,9.2z"/>
			<path class="st6" d="M6.5,5.5c0.1,0,0.1,0,0.1,0c2.6,0.6,5.6-0.2,8,1.2c0.1,0.1,0.2-0.1,0.1-0.2c-1.3-1.1-3-1-4.5-1.2
				C9.2,5.2,8.3,5,7.4,4.9C7,4.9,6.5,4.7,6.3,5C6.2,5.2,6.3,5.4,6.5,5.5z"/>
			<path class="st6" d="M7.2,10C7.7,10.3,8.5,10,9,10c0.7-0.1,1.4-0.1,2.1-0.2c0.1,0,0.1-0.2,0-0.2C10.4,9.4,9.7,9.4,9,9.4
				c-0.6,0-1.4-0.1-1.9,0.3C7,9.8,7,10,7.2,10z"/>
			<path class="st6" d="M12.9,19.7c0,0,0.1-0.1,0.1-0.1c0.1,0,0.1-0.1,0.1-0.1c0.2-0.1,0.3-0.2,0.4-0.4c0.6-0.5,1-1.2,1.5-1.7
				c0.3-0.3,0.6-0.6,0.8-1c0.2-0.3,0.3-0.6,0.4-0.9c0.1-0.2,0.2-0.4,0.3-0.6c0.8-1.3,3.2-1.2,3.2-3.2c0-0.1-0.2-0.2-0.2-0.1
				c0,0,0,0,0,0.1c-0.6-0.1-1.1,0.3-1.6,0.5c-0.6,0.3-1.3,0.7-1.7,1.3c0,0,0,0.1,0,0.1c-0.4,0.2-0.8,0.4-1.2,0.6
				c0-0.1,0-0.1-0.1-0.1c-0.9-0.2-1.8-0.5-2.7-0.2c-0.2,0-0.3,0.1-0.5,0.2c-0.3,0.2-0.6,0.4-0.8,0.7c0,0,0,0-0.1,0
				c-0.3,0-0.5,0-0.8,0c-0.2,0-0.4,0-0.6,0.1c-0.1,0-0.3,0-0.4,0.1c-0.3,0.1-0.5,0.2-0.7,0.4c-0.1,0.1,0,0.2,0.1,0.2
				c0.2,0,0.5-0.1,0.7-0.2c0.1-0.1,0.3-0.1,0.4-0.1c0.2-0.1,0.4-0.1,0.6-0.1c0.2,0,0.4-0.1,0.7-0.1c-0.2,0.2-0.3,0.4-0.5,0.6
				c-0.2,0.3-0.5,0.7-0.7,1.1c-0.1,0.2-0.2,0.4-0.3,0.5c-0.1,0.1,0.1,0.2,0.2,0.2c0.1-0.1,0.2-0.2,0.3-0.3c0.2-0.3,0.5-0.7,0.7-1
				c0.3-0.5,0.7-0.9,1.2-1.3c0.4-0.3,0.8-0.4,1.2-0.4c0.6-0.1,1.2,0,1.8,0.1c-0.2,0.1-0.5,0.2-0.7,0.4c-0.5,0.2-1,0.5-1.5,0.7
				c-0.6,0.2-1.2,0.5-1.8,0.9c-0.3,0.2-0.6,0.5-0.9,0.8c-0.1,0.1-0.2,0.3-0.3,0.4c-0.1,0.2,0.1,0.5,0.3,0.3c0.1-0.1,0.2-0.1,0.3-0.2
				c0.3-0.2,0.6-0.5,1-0.8c0.1-0.1,0.2-0.1,0.3-0.2c0.7-0.5,1.5-0.7,2.3-1.1c0.3-0.2,0.7-0.3,1-0.5c0.4-0.2,0.7-0.5,1.1-0.7
				c0,0,0,0.1-0.1,0.1c-0.2,0.3-0.3,0.6-0.4,0.9c0,0.1-0.1,0.3-0.1,0.4c-0.3,0.6-0.7,1.1-1.2,1.6c-0.4,0.5-0.9,0.9-1.2,1.4
				c0,0-0.1,0.1-0.1,0.1c-0.1,0.2-0.3,0.4-0.4,0.6c0,0,0,0,0,0.1C12.5,19.6,12.8,19.8,12.9,19.7z M16.9,13.5
				c0.4-0.3,0.8-0.6,1.2-0.9c0.5-0.3,1.1-0.5,1.5-0.9C19.1,12.9,17.8,13,16.9,13.5C16.8,13.5,16.9,13.5,16.9,13.5z"/>
			<path class="st6" d="M13.7,20.8c1.1-1.7,4.1-3.6,3.5-6.2c0-0.1-0.1-0.1-0.1,0c-0.3,1.5-0.9,2.5-1.9,3.6c-0.7,0.7-1.4,1.4-1.9,2.3
				C13.3,20.8,13.6,21,13.7,20.8z"/>
			<path class="st6" d="M21.3,24.7c0.1,0.1,0.1,0.1,0.3,0.1c0.1,0,0.2-0.1,0.2-0.2c0.1-0.4,0.1-0.8,0.1-1.2c0,0,0.1,0.1,0.1,0.1
				c0.1,0.1,0.2,0,0.2-0.1c-0.2-0.5,0-1.1,0.2-1.6c0.1,0.4,0.2,0.8,0.2,1.2c0,0.5-0.2,1.1,0,1.6c0,0.1,0.2,0.1,0.2,0
				c0.4-0.4,0.3-1.2,0.3-1.7c-0.1-0.6-0.2-1.2-0.4-1.7c0.2-0.4,0.4-0.8,0.4-1.2c0.2-1,0.1-2.2-0.3-3.2c-0.1-0.2-0.3-0.1-0.3,0.1
				c0.3,1.5,0.3,2.7,0,3.9c-0.1-0.1-0.3,0-0.2,0.2c0,0.1,0,0.2,0.1,0.3c-0.1,0.2-0.1,0.3-0.2,0.5c-0.1,0.1-0.1,0.3-0.2,0.4
				c0-0.1,0-0.2-0.1-0.4c-0.1-0.5-0.3-1-0.4-1.5c-0.1-0.8,0.1-1.4,0.4-2.2c0.6-1.7,1.1-4.1,0.2-5.9c-0.1,1,0.1,2.1,0,3.1
				c0,0.2,0,0.3-0.1,0.5c-1.5,2-3.5,4.4-3.3,7.2c0,0.3,0.5,0.3,0.5,0c-0.2-2.6,1.5-4,2.5-5.9c-0.1,0.4-0.2,0.7-0.4,1.1
				c-0.2,0.6-0.4,1.1-0.3,1.8c0,0.4,0.3,1,0.4,1.6c-0.1,0-0.1,0.1-0.1,0.2c0.1,0.3,0.2,0.6,0.2,0.8c0,0.1-0.1,0.2-0.1,0.3
				c-0.1,0.1,0,0.3,0.2,0.3c0,0.4,0,0.8-0.2,1.2C21.2,24.5,21.2,24.6,21.3,24.7z"/>
			<path class="st6" d="M29.3,23.1c0.3-0.5,0-1-0.3-1.5c-0.4-0.5-1-0.7-1.4-1.2c0,0-0.1-0.1-0.1-0.1c-0.2-0.8-0.4-1.5-0.3-2.3
				c0-0.2,0-0.3,0-0.5c0.2,0.4,0.6,0.6,0.9,0.8c1.1,1.1,1.5,2.8,2.1,4.2c0,0.1,0.1,0,0.1,0c-0.3-1.3-0.7-3.1-1.6-4.1
				c-0.2-0.3-0.6-0.4-0.8-0.7c-0.4-0.4-0.3-0.9-0.5-1.4c-0.1-0.3-0.2-0.4-0.4-0.5c-0.5-1.3-1.4-2.4-2.4-3.2c-0.1-0.1-0.2,0-0.1,0.1
				c0.6,0.7,1.2,1.4,1.7,2.2c0.2,0.3,0.4,0.6,0.6,1c0,0,0,0.1,0,0.2c0.2,0.2,0.2,0.4,0.3,0.7c0,0.4-0.1,0.7-0.2,1.2
				c-0.1,0.3-0.1,0.6-0.1,1c0,0-0.1,0-0.1,0c0,0.1,0.1,0.2,0.1,0.4c0.1,0.5,0.2,1,0.6,1.4c0,0,0,0,0.1,0c0,0.1,0.1,0.1,0.1,0.2
				c0.7,0.8,1.6,1,1.7,2.2C29.1,23.1,29.2,23.2,29.3,23.1z"/>
			<path class="st6" d="M27.3,23.1c-0.1-0.7-0.5-1.3-0.7-2c-0.1-0.8-0.1-1.5,0-2.3c0,0,0-0.1-0.1-0.1c0,0,0.1-0.1,0-0.1
				c-0.8-0.7-1-1.9-1.4-2.9c-0.2-0.6-0.5-1.7-1.1-1.9c-0.1,0-0.1,0-0.1,0.1c0.1,0.4,0.4,0.8,0.6,1.2c0.2,0.5,0.4,1,0.5,1.4
				c0.3,0.9,0.7,1.6,1.4,2.1c-0.3,0.8-0.3,1.6-0.2,2.4c0.1,0.7,0.3,1.6,0.8,2.1C27.2,23.3,27.3,23.2,27.3,23.1z"/>
			<path class="st6" d="M31.7,22.6c0-0.5-0.4-1.2-0.7-1.6c-0.4-0.5-0.8-1-1.3-1.4c-0.1,0-0.1,0-0.1,0.1c0.4,0.4,0.9,0.9,1.2,1.4
				c0.3,0.5,0.4,1.1,0.8,1.5C31.6,22.7,31.7,22.7,31.7,22.6z"/>
			<path class="st6" d="M25.6,21.9c0.2-1,0-2.2-0.2-3.3c0-0.2-0.3-0.2-0.2,0c0.1,1.1,0,2.2,0.2,3.3C25.5,22,25.6,22,25.6,21.9z"/>
			<path class="st6" d="M21.1,24.3c-0.1-0.7-0.3-1.3-0.4-2c-0.1-0.7-0.1-1.3-0.2-2c0-0.1-0.1-0.1-0.1,0c-0.3,1.2-0.2,2.9,0.4,4.1
				C20.9,24.6,21.1,24.5,21.1,24.3z"/>
			<path class="st6" d="M17.9,21.8c0.9-0.6,1.1-1.9,1.4-2.9c0.3-1.3,0.2-3.3,1.3-4.1c0.1-0.1,0-0.2-0.1-0.2
				c-0.9,0.3-1.2,1.2-1.4,2.2c-0.1,0.8-0.2,1.6-0.3,2.3c-0.2,1-0.7,1.7-1.1,2.5C17.7,21.8,17.8,21.9,17.9,21.8z"/>
			<path class="st6" d="M16.4,22.7c0.1-0.2,0.2-0.4,0.4-0.4c0.2-0.1,0.1-0.5-0.1-0.4c-0.3,0.1-0.5,0.4-0.5,0.7
				C16.1,22.7,16.3,22.8,16.4,22.7z"/>
			<path class="st6" d="M16.5,12.7c0.8-0.3,1.5-0.7,2.2-1c0.6-0.3,1.3-0.5,1.7-1c0.1-0.1,0-0.2-0.1-0.2c-0.6,0.1-1.2,0.5-1.8,0.9
				c-0.7,0.4-1.4,0.8-2.1,1.2C16.3,12.6,16.4,12.8,16.5,12.7z"/>
			<path class="st6" d="M8.1,11.4c1.9,0.4,4.4,0.2,5.7-1.2c0.1-0.1,0-0.2-0.1-0.1c-1.7,1.3-3.6,1-5.6,1.2C8,11.2,8,11.4,8.1,11.4z"
				/>
			<path class="st7" d="M30.7,22c0.1-0.2-0.1-0.5-0.2-0.6c-0.1-0.2-0.3-0.3-0.5-0.4C30,20.9,30,21,30,21c0.1,0.1,0.2,0.4,0.3,0.5
				c0.1,0.2,0.1,0.3,0.2,0.5C30.6,22.2,30.7,22.1,30.7,22z"/>
			<path class="st7" d="M25.7,16.7c0.3-0.5-0.1-0.9-0.3-1.4c-0.2-0.5-0.5-1.1-0.9-1.3c0,0-0.1,0-0.1,0.1c0.2,0.5,0.6,0.8,0.8,1.3
				c0.2,0.5-0.1,0.9,0.3,1.3C25.6,16.8,25.7,16.8,25.7,16.7z"/>
			<path class="st7" d="M27.5,22.7c0.2-0.4,0.2-0.9,0.1-1.3c0-0.1-0.1-0.1-0.2,0c-0.2,0.4-0.3,0.9-0.1,1.3
				C27.3,22.7,27.4,22.7,27.5,22.7z"/>
			<path class="st7" d="M32.9,12.2c-0.2-0.1-0.5-0.1-0.7-0.2c-0.3,0-0.6-0.1-1-0.1c-0.6,0-1.2-0.1-1.7,0.2c-0.1,0-0.1,0.1,0,0.1
				c0.5,0.1,1.1,0,1.6,0C31.7,12.1,32.3,12.2,32.9,12.2z"/>
			<path class="st7" d="M28,11.6c0.1,0,0.3,0.1,0.4,0.1c0.2,0.1,0.3-0.3,0-0.4c-0.1,0-0.2-0.1-0.4-0.1c-0.1,0-0.2,0-0.2,0.1
				C27.8,11.5,27.9,11.5,28,11.6z"/>
			<path class="st7" d="M20,17.1c0.3-0.3,0.3-0.7,0.5-1.1c0.1-0.3,0.5-0.7,0.4-1.1c0,0,0,0,0,0c-0.3,0.1-0.4,0.5-0.6,0.8
				c-0.2,0.4-0.6,0.7-0.7,1.2C19.6,17,19.9,17.2,20,17.1z"/>
			<path class="st7" d="M30.4,18.3c-0.6-0.6-1.2-1.3-1.8-1.9c0,0-0.1,0,0,0C29.2,17.1,29.8,17.7,30.4,18.3
				C30.4,18.3,30.4,18.3,30.4,18.3z"/>
			<path class="st7" d="M23.5,15.4c-0.1-1.2-0.4-2.5-0.6-3.8c0,0-0.1,0-0.1,0C22.9,12.9,23,14.2,23.5,15.4
				C23.4,15.5,23.5,15.5,23.5,15.4z"/>
			<path class="st7" d="M24.3,23.1c0-1.9-0.3-3.8-0.5-5.7c0-0.1-0.2-0.1-0.2,0c0.1,1.9,0.1,3.9,0.5,5.7
				C24.2,23.1,24.3,23.2,24.3,23.1z"/>
			<path class="st7" d="M18.4,16.6c0.5-0.9,0.8-1.9,1.3-2.8c0-0.1-0.1-0.1-0.1-0.1C19,14.6,18.6,15.5,18.4,16.6
				C18.3,16.6,18.4,16.6,18.4,16.6z"/>
			<path class="st7" d="M15.9,21.5c0.7-0.9,1.2-2,1.7-3.1C17.1,19.5,16.4,20.4,15.9,21.5C15.8,21.5,15.9,21.6,15.9,21.5z"/>
			<path class="st7" d="M15.6,10.9c-0.1,0-0.3,0.1-0.4,0.1c0,0,0,0.1,0,0.1c1-0.1,2.1-0.2,3.1-0.4c0.8-0.1,1.7-0.2,2.4-0.7
				c-0.9-0.1-1.8,0.2-2.6,0.4c-0.5,0.1-1,0.2-1.4,0.3c-0.8-0.1-1.7-0.2-2.5,0c-0.1,0-0.1,0.1,0,0.1C14.7,10.9,15.2,10.9,15.6,10.9z"
				/>
			<path class="st7" d="M9.4,9.9c0.6,0,1.3-0.3,1.9-0.4c0.7-0.2,1.4-0.4,2-0.6c0.1,0,0-0.2-0.1-0.2c-0.7,0.2-1.4,0.3-2.1,0.5
				c-0.6,0.1-1.3,0.2-1.8,0.6C9.3,9.8,9.3,9.9,9.4,9.9z"/>
			<path class="st7" d="M12.1,17.6c0.1-0.1,0.1-0.3,0.2-0.4c0.1-0.2,0.3-0.3,0.4-0.5c0.1-0.1,0.7-0.5,0.4-0.7
				c-0.3-0.2-0.6,0.1-0.8,0.2c-0.1,0.1-0.3,0.3-0.3,0.5c-0.1,0.2,0,0.5-0.1,0.6c0,0,0,0.1,0,0.2l0,0.1C11.9,17.7,12,17.7,12.1,17.6z
				"/>
			<path class="st7" d="M12.9,19.6c0.2,0,0.3-0.1,0.3-0.3c0-0.2,0-0.3-0.1-0.4c0-0.1-0.2-0.2-0.3-0.2c-0.1,0-0.2,0.1-0.3,0.3
				c0,0.1,0,0.2,0,0.3C12.6,19.4,12.8,19.6,12.9,19.6z"/>
			<path class="st8" d="M40.9,15.4c0.1,0,0.2-0.2,0.2-0.3c0.1-0.2,0-0.4,0-0.6c0-0.2-0.2-0.3-0.3-0.3c-0.2,0-0.3,0.2-0.2,0.3
				c0,0.2,0,0.4,0.1,0.6C40.7,15.2,40.8,15.4,40.9,15.4z"/>
			<path class="st8" d="M40.3,17.8c0.1,0,0.1-0.1,0.2-0.1c0,0,0.1-0.1,0.1-0.2c0.1-0.2,0-0.5-0.2-0.6c-0.2-0.1-0.4,0-0.5,0.2
				c0,0.1,0,0.2,0,0.2c0,0.1,0,0.1,0,0.2C40,17.7,40.2,17.8,40.3,17.8z"/>
			<path class="st8" d="M36,24.2C36,24.2,36,24.2,36,24.2c0.2,0,0.1,0,0.1,0c0,0,0.1,0,0.1,0c0.2-0.1,0.3-0.3,0.2-0.5
				c-0.1-0.2-0.3-0.3-0.5-0.2c-0.1,0.1-0.2,0.2-0.2,0.4c0,0.1,0,0.2,0.1,0.3C35.8,24.3,35.9,24.2,36,24.2z"/>
			<path class="st8" d="M32.9,27.8C32.9,27.8,32.9,27.8,32.9,27.8c0-0.2-0.1-0.4-0.3-0.4c0,0-0.1,0-0.1,0c-0.1,0.1-0.1,0.3,0,0.4
				c0,0,0,0,0,0C32.7,28.1,32.9,28,32.9,27.8z"/>
			<path class="st8" d="M31.6,28.1c-0.1-0.2-0.2-0.3-0.4-0.2c-0.3,0.1-0.2,0.5,0,0.6C31.4,28.6,31.7,28.4,31.6,28.1z"/>
			<path class="st8" d="M35.3,25.7c0.1-0.3-0.4-0.6-0.5-0.3C34.6,25.7,35.1,26,35.3,25.7z"/>
			<path class="st8" d="M27.2,29.3c0,0,0.2,0,0.2,0c-0.1,0,0,0,0.1,0c0,0,0.1,0,0.1,0c0.2-0.1,0.3-0.4,0.2-0.6
				c-0.1-0.2-0.4-0.3-0.6-0.2c0,0-0.1,0-0.1,0c-0.2,0.1-0.3,0.3-0.2,0.5c0,0.1,0.1,0.1,0.2,0.1C27.1,29.2,27.2,29.3,27.2,29.3z"/>
			<path class="st8" d="M21.5,30c0.1-0.3-0.3-0.6-0.5-0.2C20.9,30,21.4,30.3,21.5,30z"/>
			<path class="st8" d="M19.6,29.5c0.1-0.2,0-0.4-0.2-0.5c-0.2-0.1-0.4,0-0.5,0.2c-0.1,0.2,0,0.4,0.2,0.5
				C19.3,29.7,19.5,29.7,19.6,29.5z"/>
			<path class="st8" d="M2.8,1.2C2.9,1.2,3,1.2,3,1.1c0.1-0.2,0.1-0.4-0.1-0.6c-0.2-0.1-0.4,0-0.4,0.2c0,0.1,0,0.2,0,0.3
				C2.5,1.2,2.7,1.3,2.8,1.2z"/>
			<path class="st8" d="M2,5.7c0.1-0.2,0.1-0.4,0-0.6C1.8,4.7,1.4,4.8,1.3,5c-0.1,0.2,0,0.4,0.1,0.6C1.6,5.9,1.9,5.8,2,5.7z"/>
			<path class="st8" d="M2.3,10.6c0.2-0.4-0.4-0.7-0.6-0.3C1.5,10.7,2.1,11,2.3,10.6z"/>
			<path class="st8" d="M2.9,13.4c0.1,0,0.2-0.2,0.2-0.3c0,0.1,0,0,0,0c0-0.1,0-0.1,0-0.2c0-0.2-0.2-0.3-0.4-0.2
				c-0.1,0.1-0.2,0.2-0.2,0.3c0,0.1,0.1,0.2,0.1,0.3C2.6,13.4,2.8,13.5,2.9,13.4z"/>
			<path class="st8" d="M5.9,19.2c0.1,0,0.2-0.2,0.2-0.3c0,0.1,0,0,0,0c0-0.1,0-0.1,0-0.2c0-0.2-0.2-0.3-0.4-0.2
				c-0.1,0.1-0.2,0.2-0.2,0.3c0,0.1,0.1,0.2,0.1,0.3C5.7,19.1,5.8,19.2,5.9,19.2z"/>
			<path class="st8" d="M4.7,16.2c0.2-0.4-0.5-0.8-0.7-0.3C3.9,16.2,4.6,16.6,4.7,16.2z"/>
			<path class="st8" d="M7.9,22.2C8,22.2,8,22.1,8,22c0-0.2,0-0.3-0.1-0.4c-0.2-0.2-0.5-0.1-0.5,0.2c0,0.2,0.1,0.3,0.2,0.4
				C7.8,22.2,7.8,22.3,7.9,22.2z"/>
			<path class="st8" d="M12.7,26.3c0.1,0,0.1-0.1,0.1-0.2c-0.1-0.2-0.2-0.3-0.3-0.4c-0.1-0.1-0.3,0-0.4,0.1c-0.1,0.1,0,0.3,0.2,0.4
				C12.4,26.3,12.6,26.3,12.7,26.3z"/>
			<path class="st8" d="M16.4,28.4c0.1-0.1,0.2-0.1,0.2-0.3c0-0.1,0-0.2-0.1-0.3c-0.1-0.1-0.2-0.1-0.4-0.1c-0.2,0-0.2,0.3-0.2,0.4
				C16.1,28.3,16.3,28.4,16.4,28.4z"/>
			<path class="st9" d="M22.8,11.3c0,0,0.1,0,0.1,0c0.2,0,0.4-0.1,0.7-0.1c0.1,0,0.2,0,0.3-0.1c0.1-0.1,0.1-0.1,0.1-0.1
				c0,0,0-0.1,0.1-0.1c0.1-0.1,0.1-0.2,0.2-0.3c0.1-0.2,0.2-0.4,0.2-0.6c0-0.1,0-0.1,0-0.2c0,0,0,0-0.1-0.1c-0.1,0-0.2,0.1-0.3,0.1
				l0,0.1c0,0.2,0,0.4-0.1,0.5c0,0,0,0,0,0c0,0,0,0-0.1,0.1c0,0-0.1,0-0.1,0c-0.1,0-0.2,0.1-0.2,0.1c-0.1,0-0.1,0-0.2,0.1
				c-0.1,0-0.3,0.1-0.4,0.2c-0.1,0-0.2,0.1-0.2,0.1c0,0-0.1,0-0.1,0c0,0-0.1,0-0.1,0c-0.2,0-0.4,0-0.5-0.1c0,0-0.1,0-0.1-0.1
				c0,0-0.1-0.1-0.1-0.1c0,0,0,0,0-0.1c0-0.1,0-0.1,0-0.1c0,0,0-0.1,0-0.1c0,0,0-0.1,0-0.1c0-0.2,0-0.4,0-0.6c0,0,0,0,0-0.1l-0.1,0
				c0,0,0,0-0.1,0c0,0-0.1,0-0.1-0.1c0-0.1-0.1-0.1-0.1-0.1c0,0,0,0,0-0.1l0-0.1c0,0,0-0.1,0-0.1c0-0.1,0-0.1,0.1-0.2
				c0.1,0,0.1-0.1,0.1-0.1c0,0,0,0,0.1,0c0.1-0.1,0.3-0.2,0.4-0.3c0,0,0.1-0.1,0.1-0.1c0-0.1,0-0.1,0-0.2C22.1,8.1,22,8,21.9,7.9
				c0,0-0.1,0-0.1,0.1c-0.1,0.1-0.2,0.2-0.3,0.3c-0.1,0.2-0.2,0.3-0.2,0.4c-0.1,0.1-0.2,0.3-0.2,0.5C21,9.2,21,9.4,21,9.5
				c0,0.1,0,0.3,0,0.4c0,0.3,0.2,0.6,0.4,0.8c0.1,0.2,0.3,0.3,0.5,0.4c0,0,0,0,0.1,0c0.1,0.1,0.3,0.1,0.4,0.1c0.1,0,0.1,0,0.2,0
				C22.6,11.3,22.7,11.3,22.8,11.3z"/>
		</g>
		<path class="st10" d="M1.8,2C1.5,2.1,1.3,2.1,1,2C0.9,2,0.8,1.9,0.7,1.9c0,0-0.1,0-0.1-0.1l0.2,0l0.3,0L1.8,2z"/>
		<path class="st10" d="M22.2,8.4c0-0.1,0-0.1,0-0.2C22.1,8.1,22,8,21.9,7.9c-0.1,0-0.1,0-0.2-0.1c-0.1,0-0.2-0.1-0.4-0.1
			c-0.1-0.1-0.2-0.1-0.3-0.1c-0.6-0.2-1.3-0.5-1.9-0.7c-0.5-0.2-1-0.4-1.5-0.6c-0.5-0.2-1-0.4-1.5-0.6c-0.9-0.4-1.9-0.7-2.8-1.1
			c-0.7-0.3-1.4-0.6-2.2-0.9C10.4,3.4,9.7,3.2,9,2.9C8.6,2.7,8.2,2.5,7.8,2.4C7,2,6.2,1.7,5.4,1.4C4.8,1.2,4.2,1,3.7,0.7
			c-0.1,0-0.2-0.1-0.3-0.1c-0.1,0-0.1,0-0.2-0.1C2.7,0.4,2.2,0.2,1.7,0L1.2,0C1.1,0.4,1,0.8,0.9,1.2c0,0,0,0.1,0,0.1
			c0.1,0,0.2,0,0.3,0c0.6,0,1.1,0,1.7,0.1C3.6,1.5,4.3,1.7,5,2c0.7,0.3,1.4,0.6,2.1,1c0.4,0.2,0.8,0.4,1.2,0.6
			C9,3.9,9.7,4.3,10.4,4.7C11,5,11.6,5.2,12.2,5.5c0.8,0.3,1.5,0.6,2.3,0.8C16.4,7,18.4,7.5,20.3,8c0.2,0,0.3,0.1,0.5,0.1
			c0.2,0.1,0.5,0.1,0.8,0.2l0.3,0.1c0,0,0,0,0.1,0C22,8.4,22.1,8.4,22.2,8.4C22.1,8.4,22.2,8.4,22.2,8.4C22.2,8.4,22.2,8.4,22.2,8.4
			z"/>
		<path class="st10" d="M42.2,15.2c-0.3-0.1-0.7-0.1-1-0.2c-0.1,0-0.3-0.1-0.4-0.1c-0.1,0-0.1,0-0.2,0c-1.1-0.2-2.2-0.5-3.3-0.9
			c-0.4-0.1-0.9-0.2-1.3-0.4c-0.8-0.2-1.6-0.5-2.4-0.7c-1.8-0.6-3.6-1.1-5.4-1.7c-0.7-0.2-1.5-0.4-2.1-0.9c0.2,0.1,0.5,0.1,0.7,0.2
			c2.1,0.5,4.1,1,6.2,1.6c0.4,0.1,0.7,0.2,1.1,0.3c0.6,0.2,1.2,0.3,1.8,0.4c0.1,0,0.2,0.1,0.3,0.1c0.1,0,0.2,0,0.2,0.1
			c0,0,0.1,0,0.1,0c0.1,0,0.2,0,0.3,0.1c0.1,0,0.1,0,0.2,0c0,0,0.1,0,0.1,0c0.1,0,0.1,0,0.2,0c0.2,0,0.3,0.1,0.5,0.1
			c0.1,0,0.2,0,0.3,0.1c0.1,0,0.2,0,0.3,0c0.2,0,0.4,0.1,0.7,0.1c0.7,0.1,1.4,0.2,2.1,0.4c0.5,0.1,1,0.1,1.4,0.2
			C42.3,14.5,42.3,14.9,42.2,15.2z"/>
	</g>
</g>
</svg>
