<?xml version="1.0" encoding="utf-8"?>
<!-- Generator: Adobe Illustrator 25.0.0, SVG Export Plug-In . SVG Version: 6.00 Build 0)  -->
<svg version="1.1"
	 id="svg2" inkscape:version="0.48+devel r9935" sodipodi:docname="Documento nuevo 1" xmlns:cc="http://creativecommons.org/ns#" xmlns:dc="http://purl.org/dc/elements/1.1/" xmlns:inkscape="http://www.inkscape.org/namespaces/inkscape" xmlns:ns1="http://sozi.baierouge.fr" xmlns:rdf="http://www.w3.org/1999/02/22-rdf-syntax-ns#" xmlns:sodipodi="http://sodipodi.sourceforge.net/DTD/sodipodi-0.dtd" xmlns:svg="http://www.w3.org/2000/svg"
	 xmlns="http://www.w3.org/2000/svg" xmlns:xlink="http://www.w3.org/1999/xlink" x="0px" y="0px" viewBox="0 0 221.3 139"
	 style="enable-background:new 0 0 221.3 139;" xml:space="preserve">
<style type="text/css">
	.st0{fill:#BDE43B;}
	.st1{fill:#7CBF35;}
	.st2{fill:#4A9139;}
	.st3{fill:#66A555;}
	.st4{fill:#87CC71;}
</style>
<g>
	<path class="st0" d="M55.9,3.3c0,0,11.8-5.7,16.9-2.2c6.1,4.1,0,9.7,15.3,13.4c10.5,2.6,10.2,13.1,14.3,18.2
		c4.1,5.1,8.6,15.9,5.4,21.7c-3.2,5.7,5.4,19.1-1.3,24.2c-6.7,5.1-21,8-23.3,13.4c-2.2,5.4-10.5,14-21.8,16.1
		c-21.1,3.8-29.3-6.8-32.1-11.9c-2.6-4.8-18.8-5.7-21-10.5s0-14.7-3.8-20.1s-7.7-20.4-0.3-30c7.4-9.7,13.1-8.7,15.4-15.4
		S34.2,1.7,55.9,3.3z"/>
	<path class="st1" d="M56.8,5.6c0,0,11.5-5.6,16.4-2.2c5.9,4,0,9.4,14.9,13c10.2,2.5,9.9,12.7,14,17.7c4,5,8.4,15.5,5.3,21.1
		s5.3,18.6-1.2,23.6s-20.5,7.8-22.6,13c-2.2,5.3-10.2,13.6-21.2,15.6c-20.5,3.7-28.5-6.6-31.2-11.6c-2.5-4.7-18.3-5.6-20.5-10.2
		s0-14.3-3.7-19.5c-3.8-5.3-7.6-19.9-0.4-29.2c7.1-9.3,12.7-8.4,14.9-14.9C23.6,15.5,35.7,4,56.8,5.6z"/>
</g>
<g>
	<g>
		<path class="st2" d="M199.8,81.7c-0.9,0.5-2.7,1.2-3.2,0.2c-0.2-0.4-0.6-0.7-1.1-0.7c-2,0.2-5.2,0.8-5.8-0.7
			c-0.2-0.4-0.6-0.7-1.1-0.7c-0.7,0-1.4,0.1-2.1,0.1c-0.5,0-2.1-0.7-2.5-0.7c-1.8,0-5,0.8-6.3-0.9c-0.3-0.3-0.7-0.4-1-0.4
			c-1.4,0.3-2.8,1.1-2.4,2c0.3,0.6,0.2,1.3-0.4,1.6c-0.3,0.2-0.6,0.4-0.9,0.7c-1.2,1.6-0.4,0.8,0.2,2.2s0.4,1.5-0.7,2.3
			c-0.8,0.6-3.5,1.4-3.6-0.2c-2.1,1.9-2.8-2.7-4.1-3.2c-0.7-0.2-2.5,0-3.3,0c-0.6,0.1-0.3,0.8-0.9,0.7c-0.9,0-1.4-0.9-2-1
			c-0.8-0.1-1.6,0.4-2.5,0.4c-1,0-1.7-0.8-2.9-0.5c-3.4,0.9,0.9,2.9-0.2,3.5c0.3,1-1,1.5-2.5,1.7c-1.1,0.1-1.3,1.5-0.4,2.1
			c0.1,0,0.2,0.1,0.2,0.1c1,0.6,0.4,2.1-0.7,2c0.1,0.3,0,0.6,0.1,0.9c-0.9,0.1-1.8,0.1-2.7-0.2c0,0.3,0,0.7,0,0.9
			c-0.4-0.3-0.9-0.4-1.3-1c0.2,0.1,0.2,0.3,0.1,0.4c-0.4-0.1-0.8,0-1.2-0.1c-0.4,0-0.7,0.2-0.9,0.5c-0.4,1-2.7-0.2-3.2,0.8
			c-2,0.4-2.5-1.1-4.2-1.5c-0.5-0.1-1.1,0.1-1.6,0c-1.5-0.3-3.1-0.7-4.5-1.1c-2.3-0.7-1.8-1-4.2-0.5c-1.1,0.2-1.9,0.2-3,0.5
			c-1,0.3-1.3,1.2-1.9,1.9c-0.7,0.9-1.5,1.3-2.6,1.7c-0.1,0-0.2,0.1-0.3,0.2c-0.2,0.4,0.4,0.7,0.3,1.2c-2.5-1.1-6.2,0.3-8.9-0.1
			c-0.1,0-0.3,0-0.4,0.1c-0.2,0.1-0.1,0.4-0.1,0.6c-0.1,0.5-0.7,0.6-1.2,0.6c-3.2,0-6.3-1.5-8.9-3.3c-0.3-0.2-0.7-0.2-1.1-0.1
			c-1.1,0.3-2.7-0.2-4.1-0.4c-0.9-0.1-1.6,0.7-1.3,1.5c0.4,1,0.9,2,0.2,3.1c-0.2,0.4-1.4,0.8-1.5,1.2c-0.1,0.6,0.8,1.1,0.7,1.6
			c-0.1,1.4-1.3,1,0.4,3c-1.9-0.1-1.6,1.1-1.9,2.1c-0.2,0.6-0.5,1.4-0.6,2.2c-0.1,0.5-0.5,1-1,1c-1.1,0.1-1.4,0.9-1.3,2
			c0.2,1.5,1.2,1.1,1.9,2.2c1,1.6,0.7,4,0.8,5.1c0.1,1.2,0.7,2.2,1.5,3.1c0.6,0.6,1.2,0.8,1.8,1.5c0.2,0.4,0,1,0.3,1.3
			c1.4,1.6,6.2,1.3,6.9,3.3c0.2,0.5,0.7,0.8,1.3,0.7c1.6-0.3,2.9-1.1,4.6-1c0.5,0,1-0.2,1.2-0.7c0.6-1.7,2.2-2.9,4.5-1.2
			c1.5,1.1,1,2.3,1.6,3.7c0.4,1.1,0.8,1.8,2.3,2.3c0.9,0.3,1.8,0.3,2.7,0.3s2.2-0.8,3-0.8c1.9,0.1,2.5,1.2,4.8,1.1
			c1.1-0.1,5.6-1.6,6.8-1.2c1.6,0.5,1.2,1.8,2.2,2.7c1.3,1.2,2.4,0.9,3.7,0.8s2.5,0.3,3.5,0.9c1.4,0.8,3.5,1.4,4.9,2.6
			c0.3,0.3,0.7,0.4,1.1,0.2c1.5-0.5,4.4-1.5,5.5-0.5c0.4,0.4,1,0.3,1.4,0.1c2.3-1.3,5.2-1.6,7.5-0.3c0.4-0.8,1.2-1.3,2.1-1.4
			c1.3-0.1,2.5,0.7,3.8-0.1c1-0.6,1.7-1.4,1.4-2.9c-0.2-1.4-4.7-7.3-2.7-8c0.5-0.2,0.8-0.6,0.8-1.1c-0.1-0.9-0.4-2,0.1-2.7
			c0.6-0.9,2.9-1.9,4.3-1.6c2.4,0.5,1.5,2,2.1,3.4c0.6,1.3,1.1,1.4,2.4,2.1c1.2,0.6,2.8,1.2,4.1,1.7c1,0.4,2.9,1.4,3.8,1.6
			c2.7,0.7,5.8-1.1,8.5-1.9c0.7-0.2,1.1-1,0.7-1.6c-2.4-4.1-10-13.1-1.1-12.4c0.1,0,0.2,0,0.3,0.1c0.8,0.3,5.5,1.9,3.1,1.3
			c2,0.5,3.5,0.5,5.4,0.8c1.6,0.2,2.8,1,4.2,1.3c2.2,0.5,5.1-0.7,7,0.7c0.3,0.2,0.7,0.3,1,0.1c3.8-1.3,6.7-1,6.7-5.1
			c0-1.5-0.6-2.8-1.7-4.1c-1.5-1.8-3.7-3.1-5.3-4.8c-1.2-1.4-1.2-1.9-0.6-2.5c0.4-0.5,0.4-1.2-0.1-1.6c-0.8-0.7-1.3-1.7-2-2.3
			c-1.2-1.1-1.5-1.2-2.1-2.5c-0.8-1.7-2.3-3.6-2.7-5.6c-0.2-0.9-0.8-2.7-0.3-3.4c0.5-0.8,2.3-1,2.9-1.7c1.2-1.4,0.4-3.7,0-5.6
			c-0.1-0.6-0.8-1-1.4-0.9c-1.6,0.5-3.2,1.8-4.4,2.5c-1,0.6-2.4,0.9-3.4,1C200.1,81.5,199.9,81.6,199.8,81.7z"/>
		<path class="st3" d="M196,88.1c1.9-0.1,3.5,1.5,3.3,3.5l0,0c-0.1,1.6-0.9,3.1-2.3,3.8c-1,0.5-1.6,1.4-1.7,2.4
			c-0.1,1.2-0.4,2.2-1.2,3.4c-0.7,1-1.8,2.1-3,2.4c-0.7,0.2-1.3,0.6-1.6,1.2c-0.2,0.4-0.5,0.7-0.9,0.9c-0.3,0.2-1-0.2-1.3,0
			c-0.9,0.5-1.5,1.4-2.6,1.9c-1.1,0.4-2.5,0.6-3.9,0.7c-0.8,0-1.4,0.4-2,0.9c-0.2,0.2-0.4,0.3-0.6,0.4c-0.7,0.2-1.2,0.8-1.6,1.4
			c-0.5,0.9-1.4,1.6-2.1,2.1c-1.8,1.2-3.6,2.1-5.7,3.4c-0.8,0.5-1.7,0.8-2.5,1.3c-1.2,0.7-1.6,1-2.9,1.1c-1.4,0.1-2.4-0.3-3.6-0.1
			c-1,0.2-3,0.7-3.9,1c-1.8,0.7-2.8,2.1-5.1,2.3c-1.1,0.1-2.1-0.2-3.2-0.2c-1.4,0-2.6,0.7-3.8,0.7c-0.3,0-1.2-0.3-1.3-0.3
			c-0.3,0-1.4,0.3-1.7,0.3c-0.6,0-1,0.5-1.7,0.4c-0.9-0.1-1.3-1.1-2-1.3c-1.5-0.5-3.3,0.2-4.7-0.1c-0.8-0.1-1.6,0-2.3,0.4
			c-1.7,1.2-4.4,0.9-6.3,0.1c-3.1-1.4-5.6-2.9-9-3.3c-1.2-0.1-10.2,1.4-8.1-1.6c0.9-1.2,2.3-0.6,3.2-1.6c1-1.1,1.1-3.6,2-4.9
			c2-2.8,2.4-2.7,5.5-2.9c2.4-0.2,2.8-0.7,4.5-2.3c1.6-1.5,3.1-3,4.9-3.7c2-0.8,4.3-0.2,6.6-0.5c2.1-0.3,3.8-1.5,5.8-2.3
			c2.1-0.8,2.4-1.4,4.5-0.7c1.6,0.6,2.7,2.3,4.5,2c2-0.3,1.8-2,3.5-2.6c2.4-0.9,3.1,0.6,5.4-1.2c1.7-1.4,2.4-2,4.7-1.7
			c2.7,0.3,3,0.3,5.7-0.9c2.5-1.1,11.7,0.1,13.3-2.2c0.6-0.9,1.5-1.4,2.6-1.4c0.5,0,1,0,1.4-0.1c0.9-0.3,1.4-0.8,2.4-1
			c0.9-0.2,2,0.1,2.8-0.1c0.8-0.1,1.1-0.7,2-0.9C192.6,88.2,194.3,88.2,196,88.1z"/>
	</g>
	<path class="st4" d="M196.5,91.2c-0.1-0.1-0.4,0-0.6,0c-0.9,0.4-1.9,0.5-2.9,0.6c-3,0.2-6.1,0.2-9.1,0.2c0.4,0,1.2,0.6,1.7,0.7
		c0.6,0.2,1.3,0.4,1.9,0.5c1.4,0.3,2.8,0.3,4.2,0.2c-2.6,0.8-5.3,1.2-7.9,1.8c-6.3,1.3-12.8,2.4-19.3,1.6c-0.7-0.1-1.8-0.3-2.5,0.1
		c-1,0.6,0.3,1.1,1,1.2c0.8,0.2,1.6,0.2,2.5,0.3c2.3,0.3,4.6,0.7,6.9,1c-2.4,0.8-4.9,0.6-7.4,0.8c-3,0.2-5.9,0.8-8.9,1.1
		c-4.2,0.5-14.9,0-15.6,0.7c1.4,0.9,9.1,0.7,11.2,0.8c4,0.3,7.9,0.1,11.9-0.2c-2.4,0.1-4.8,0.6-7.2,1.1c-3.4,0.6-7,1.1-10.4,1.5
		c-6.1,0.7-12.3,0.9-18.4,0.8c3.8,1.5,8.1,0.7,12.1,0.9c-1.7,1-3.8,0.9-5.7,1.3c-2.8,0.6-5.5,1.5-8.2,2.3c-2.6,0.8-5.3,1.5-8,1.8
		c2.8,0,5.5,0,8.3,0c4.7-0.1,9.7-1.1,14.3-2.2c4.7-1.1,10.3-1,14.9-2.8c0.3-0.1,0.5,0.2,0.3,0.4c-3.2,2.7-5.9,6-7.9,9.6
		c-0.1,0.3,0.2,0.5,0.4,0.3c1.9-1.8,4.1-3.3,6.1-4.9c2.5-2,4.7-4.2,7.4-5.8c2-1.1,4.5-2.1,6.6-2.9c1.6-0.6,4.1-0.9,5.7-1.7
		c0.2-0.1,0.4,0.1,0.4,0.3c-0.5,1.7-1.5,3.4-2.4,5c-0.1,0.3,0.2,0.5,0.4,0.3c1.6-2,3.4-3.9,5.3-5.3c2.2-1.7,4.5-3.4,7.2-4.3
		c0.1,0,0.2-0.1,0.3,0c0.3,0.1,0.2,0.5,0.1,0.7c-1,2-1.9,3.9-2.4,6.1c0.6-1.4,2-2.3,3.1-3.3c1.2-1,2.5-2,3.8-2.9
		c2.7-2.1,5.2-4.3,7-7.2c0.1-0.1,0.1-0.2,0.1-0.3C196.5,91.4,196.5,91.3,196.5,91.2z"/>
</g>
</svg>
