<svg id="Layer_1" data-name="Layer 1" xmlns="http://www.w3.org/2000/svg" viewBox="0 0 1000 1000"><defs><style>.cls-1{fill:#231f20;}.cls-2{fill:#fff;}</style></defs><rect class="cls-1" x="-1202.53" y="-45.29" width="2282.82" height="1139.29"/><path class="cls-2" d="M253,628.69l.57.34,3,24.33a2.25,2.25,0,0,0,.79,1.49,2.18,2.18,0,0,0,1.41.52h1.17v1.13h-9.4v-1.1h1.18a1.06,1.06,0,0,0,.62-.37,1.11,1.11,0,0,0,.29-.88L251,636.34l-7.51,16.83s0,.16-.07.47-.18.77-.31,1.37-.25,1.27-.38,2h-1.28l-9.18-19.89L230.41,654a1.32,1.32,0,0,0,.59.93,1.88,1.88,0,0,0,1,.47h1.14v1.1h-8.49v-1.13h1.17a2.15,2.15,0,0,0,1.4-.52,2.26,2.26,0,0,0,.8-1.49l2.88-24.67h1.29l10.16,21.94,9.93-21.94Z"/><path class="cls-2" d="M272.4,655.56v1.1H263v-1.14H264a1.77,1.77,0,0,0,1.25-.55,2,2,0,0,0,.61-1.46v-21a2.06,2.06,0,0,0-.61-1.46,1.77,1.77,0,0,0-1.25-.55H263v-1.13h9.44l0,1.13h-1a1.78,1.78,0,0,0-1.27.53,2.07,2.07,0,0,0-.59,1.45v21a2.11,2.11,0,0,0,.59,1.46,1.76,1.76,0,0,0,1.27.55Z"/><path class="cls-2" d="M297.75,629.41h8.91v1.13h-1.25a1.68,1.68,0,0,0-1.21.51,1.94,1.94,0,0,0-.57,1.39V652c0,.81,0,1.59,0,2.33s0,1.28,0,1.6,0,.75-.06,1.3h-.83l-20.2-21.56.11,18.19a1.63,1.63,0,0,0,.7,1.27,2.34,2.34,0,0,0,1.35.44H286v1.13h-8.94v-1.13h1.29a1.63,1.63,0,0,0,1.17-.53,2,2,0,0,0,.57-1.41V634c0-.75,0-2.43,0-5l.87-.07,20.16,21.52.08-17.88a1.92,1.92,0,0,0-.8-1.39,2.41,2.41,0,0,0-1.44-.55h-1.25Z"/><path class="cls-2" d="M320.87,655.56v1.1h-9.44v-1.14h1.07a1.8,1.8,0,0,0,1.25-.55,2,2,0,0,0,.6-1.46v-21a2.05,2.05,0,0,0-.6-1.46,1.8,1.8,0,0,0-1.25-.55h-1.07v-1.13h9.44l0,1.13h-1a1.8,1.8,0,0,0-1.27.53,2.07,2.07,0,0,0-.59,1.45v21a2.11,2.11,0,0,0,.59,1.46,1.78,1.78,0,0,0,1.27.55Z"/><path class="cls-2" d="M352.29,628.69l.57.34,2.95,24.33a2.3,2.3,0,0,0,.8,1.49,2.17,2.17,0,0,0,1.4.52h1.18v1.13h-9.4v-1.1H351a1.08,1.08,0,0,0,.63-.37,1.11,1.11,0,0,0,.28-.88l-1.63-17.81-7.5,16.83s0,.16-.08.47l-.3,1.37c-.13.59-.25,1.27-.38,2h-1.29l-9.17-19.89L329.66,654a1.39,1.39,0,0,0,.59.93,1.9,1.9,0,0,0,1,.47h1.13v1.1H323.9v-1.13h1.18a2.17,2.17,0,0,0,1.4-.52,2.26,2.26,0,0,0,.8-1.49l2.88-24.67h1.29l10.15,21.94,9.93-21.94Z"/><path class="cls-2" d="M391,655.14h.91v1.14h-9.66v-1.14h.87a1.11,1.11,0,0,0,.82-.46,1.55,1.55,0,0,0,.09-1.47l-2.31-6.14h-10l-2.54,6.17a1.16,1.16,0,0,0,.06,1.07,1.79,1.79,0,0,0,.78.62,2.11,2.11,0,0,0,.79.21h.91v1.14H363v-1.14h.91a2.93,2.93,0,0,0,1.44-.47,3.53,3.53,0,0,0,1.32-1.65q9-21.35,9.29-22c.17-.45.33-.88.47-1.29a4,4,0,0,0,.21-1.27H378L388.22,653a3.82,3.82,0,0,0,1.34,1.65A2.83,2.83,0,0,0,391,655.14Zm-19.21-10H381l-4-10.76Z"/><path class="cls-2" d="M413,649.76h1.1l-2.5,6.9H394.93v-1.14H396a1.8,1.8,0,0,0,1.25-.55,2,2,0,0,0,.6-1.46v-21a2.05,2.05,0,0,0-.6-1.46,1.8,1.8,0,0,0-1.25-.55h-1.06v-1.13h9.43l0,1.13h-1a1.78,1.78,0,0,0-1.27.55,2.18,2.18,0,0,0-.59,1.46v22.21h4.86a6.72,6.72,0,0,0,3-.57,5.06,5.06,0,0,0,1.89-1.61C411.69,651.85,412.31,650.92,413,649.76Z"/><path class="cls-2" d="M426.61,655.56v1.1h-9.44v-1.14h1.06a1.78,1.78,0,0,0,1.25-.55,2.08,2.08,0,0,0,.61-1.46v-21a2.1,2.1,0,0,0-.61-1.46,1.78,1.78,0,0,0-1.25-.55h-1.06v-1.13h9.44l0,1.13h-1a1.78,1.78,0,0,0-1.27.53,2.07,2.07,0,0,0-.59,1.45v21a2.11,2.11,0,0,0,.59,1.46,1.76,1.76,0,0,0,1.27.55Z"/><path class="cls-2" d="M438.32,638l7.54,7a5.84,5.84,0,0,1,1.59,2.37,7.79,7.79,0,0,1,.42,2.45,7.32,7.32,0,0,1-2.07,5.36,7.51,7.51,0,0,1-5.62,2.1,15.05,15.05,0,0,1-3.51-.49,7.44,7.44,0,0,1-3.43-1.82,3.7,3.7,0,0,1-.11-.49,18,18,0,0,1-.53-2.45,6.63,6.63,0,0,1,.22-3h1.41a5.6,5.6,0,0,0,1.61,4.81,5.79,5.79,0,0,0,4.15,1.52,5.15,5.15,0,0,0,3.2-1.33,4.29,4.29,0,0,0,1.34-3.37,4.12,4.12,0,0,0-1.36-3.3l-7.28-6.78a6.31,6.31,0,0,1-1.68-2.45,7.08,7.08,0,0,1-.48-2.44,6.87,6.87,0,0,1,.8-3.2A6.53,6.53,0,0,1,437,629.9a7.33,7.33,0,0,1,4-1,19.64,19.64,0,0,1,2.26.18c1,.11,1.72.22,2.25.32h2v5.42h-1.48a4,4,0,0,0-1.75-3.22,5.53,5.53,0,0,0-3.18-1.14,3.63,3.63,0,0,0-2.88,1.34,4.51,4.51,0,0,0-1.14,3,4.85,4.85,0,0,0,.31,1.61A4.15,4.15,0,0,0,438.32,638Z"/><path class="cls-2" d="M459.47,629.33H474.7c.46,0,1.33,0,2.62,0l.11,4.89-1.52,0v-1a1.87,1.87,0,0,0-.49-1.35,1.71,1.71,0,0,0-1.13-.55h-6.6v22.33a2,2,0,0,0,.61,1.44,1.8,1.8,0,0,0,1.25.53h1l0,1.14h-9.44v-1.14h1.06a1.72,1.72,0,0,0,1.23-.53,2.13,2.13,0,0,0,.63-1.41V631.22H457.5a1.71,1.71,0,0,0-1.14.55,1.87,1.87,0,0,0-.49,1.35v1l-1.52,0v-4.89l3,0h2.15Z"/><path class="cls-2" d="M499.15,638l7.54,7a5.84,5.84,0,0,1,1.59,2.37,7.79,7.79,0,0,1,.42,2.45,7.32,7.32,0,0,1-2.07,5.36,7.52,7.52,0,0,1-5.63,2.1,15,15,0,0,1-3.5-.49,7.39,7.39,0,0,1-3.43-1.82c-.05-.18-.09-.34-.12-.49a21.67,21.67,0,0,1-.53-2.45,6.78,6.78,0,0,1,.23-3h1.4a5.63,5.63,0,0,0,1.61,4.81,5.8,5.8,0,0,0,4.15,1.52A5.15,5.15,0,0,0,504,654a4.32,4.32,0,0,0,1.34-3.37,4.12,4.12,0,0,0-1.36-3.3l-7.28-6.78A6.34,6.34,0,0,1,495,638.1a7.29,7.29,0,0,1-.47-2.44,6.87,6.87,0,0,1,.8-3.2,6.58,6.58,0,0,1,2.42-2.56,7.39,7.39,0,0,1,4-1,20,20,0,0,1,2.26.18c1,.11,1.72.22,2.25.32h2v5.42h-1.48a3.94,3.94,0,0,0-1.74-3.22,5.58,5.58,0,0,0-3.18-1.14,3.63,3.63,0,0,0-2.88,1.34,4.51,4.51,0,0,0-1.14,3,5.08,5.08,0,0,0,.3,1.61A4.3,4.3,0,0,0,499.15,638Z"/><path class="cls-2" d="M522.53,644.41v9.1a2.11,2.11,0,0,0,.59,1.46,1.76,1.76,0,0,0,1.27.55h1l0,1.14H516v-1.14h1.06a1.78,1.78,0,0,0,1.25-.55,2.08,2.08,0,0,0,.61-1.46v-21a2,2,0,0,0-.61-1.43,1.78,1.78,0,0,0-1.25-.55H516v-1.13h9.44l0,1.13h-1a1.78,1.78,0,0,0-1.27.53,2.07,2.07,0,0,0-.59,1.45v9l9.1-9.78a.9.9,0,0,0,.15-.89.62.62,0,0,0-.57-.36h-1v-1.1h9.14v1.1h-.72a4.91,4.91,0,0,0-3.6,1.59l-9.4,9.74,10.84,12.35a4.9,4.9,0,0,0,3.67,1.37v1.14H538a12.57,12.57,0,0,1-2.84-.37,6.46,6.46,0,0,1-3.37-2Z"/><path class="cls-2" d="M552.66,655.56v1.1h-9.44v-1.14h1.06a1.77,1.77,0,0,0,1.25-.55,2,2,0,0,0,.61-1.46v-21a2.06,2.06,0,0,0-.61-1.46,1.77,1.77,0,0,0-1.25-.55h-1.06v-1.13h9.44l0,1.13h-1a1.78,1.78,0,0,0-1.27.53,2.07,2.07,0,0,0-.59,1.45v21a2.11,2.11,0,0,0,.59,1.46,1.76,1.76,0,0,0,1.27.55Z"/><path class="cls-2" d="M575.13,649.76h1.1l-2.5,6.9H557v-1.14h1.06a1.8,1.8,0,0,0,1.25-.55,2.08,2.08,0,0,0,.61-1.46v-21a2.1,2.1,0,0,0-.61-1.46,1.8,1.8,0,0,0-1.25-.55H557v-1.13h9.43l0,1.13h-1a1.78,1.78,0,0,0-1.27.55,2.12,2.12,0,0,0-.58,1.46v22.21h4.85a6.69,6.69,0,0,0,3-.57,5.17,5.17,0,0,0,1.9-1.61C573.78,651.85,574.4,650.92,575.13,649.76Z"/><path class="cls-2" d="M597.38,649.76h1.1l-2.5,6.9H579.26v-1.14h1.07a1.8,1.8,0,0,0,1.25-.55,2.08,2.08,0,0,0,.6-1.46v-21a2.09,2.09,0,0,0-.6-1.46,1.8,1.8,0,0,0-1.25-.55h-1.07v-1.13h9.44l0,1.13h-1a1.78,1.78,0,0,0-1.27.55,2.13,2.13,0,0,0-.59,1.46v22.21h4.85a6.74,6.74,0,0,0,3-.57,5.06,5.06,0,0,0,1.89-1.61C596,651.85,596.65,650.92,597.38,649.76Z"/><path class="cls-2" d="M611,655.56v1.1h-9.44v-1.14h1.06a1.78,1.78,0,0,0,1.25-.55,2.08,2.08,0,0,0,.61-1.46v-21a2.1,2.1,0,0,0-.61-1.46,1.78,1.78,0,0,0-1.25-.55h-1.06v-1.13H611l0,1.13h-1a1.78,1.78,0,0,0-1.27.53,2,2,0,0,0-.59,1.45v21a2.07,2.07,0,0,0,.59,1.46,1.76,1.76,0,0,0,1.27.55Z"/><path class="cls-2" d="M636.3,629.41h8.91v1.13H644a1.72,1.72,0,0,0-1.22.51,2,2,0,0,0-.56,1.39V652c0,.81,0,1.59,0,2.33s0,1.28,0,1.6,0,.75-.05,1.3h-.84l-20.2-21.56.12,18.19a1.63,1.63,0,0,0,.7,1.27,2.31,2.31,0,0,0,1.34.44h1.29v1.13h-8.94v-1.13h1.29a1.63,1.63,0,0,0,1.17-.53,2.1,2.1,0,0,0,.57-1.41V634c0-.75,0-2.43,0-5l.87-.07,20.16,21.52.08-17.88a1.92,1.92,0,0,0-.8-1.39,2.41,2.41,0,0,0-1.44-.55H636.3Z"/><path class="cls-2" d="M678.94,643.47v.75h-.57a1.22,1.22,0,0,0-1.33,1.33v6.33a12,12,0,0,1-2.48,2.44,13.74,13.74,0,0,1-3.79,1.94,16.19,16.19,0,0,1-5.21.77,14.21,14.21,0,0,1-10.27-4,14.1,14.1,0,0,1,10.27-24.25,17.67,17.67,0,0,1,5.53.76,17,17,0,0,1,4.21,2l-.19,5.91h-1.33a10,10,0,0,0-2.82-5.16,8,8,0,0,0-5.4-1.66,9.2,9.2,0,0,0-7.32,3.33,13.3,13.3,0,0,0-2.84,8.91q0,5.57,2.81,8.87a9.43,9.43,0,0,0,7.35,3.37,11.45,11.45,0,0,0,8-3v-6.6c0-.86-.47-1.3-1.4-1.33H671v-1.13h8Z"/><path class="cls-2" d="M701.79,643.92v9.59a2.11,2.11,0,0,0,.59,1.46,1.76,1.76,0,0,0,1.27.55h1l0,1.14h-9.44v-1.14h1.06a1.77,1.77,0,0,0,1.25-.55,2,2,0,0,0,.61-1.46v-21a2.06,2.06,0,0,0-.61-1.46,1.77,1.77,0,0,0-1.25-.55h-1.06l.57-1.13h10.23a8.07,8.07,0,0,1,5.84,2,7.23,7.23,0,0,1,2.12,5.46,8,8,0,0,1-2,5.23c-1.31,1.59-2.42,2.39-3.33,2.39-.13,0,0,.25.38.66s.59.67.64.74l0,0c.07.13.33.48.76,1.06s1,1.45,1.53,2.16,1,1.4,1.55,2.07,1,1.22,1.35,1.65a10.86,10.86,0,0,0,2.14,1.91,5.91,5.91,0,0,0,3.09.74v1.14h-2.65a8.36,8.36,0,0,1-3.3-.59,8.88,8.88,0,0,1-2.29-1.39,11.79,11.79,0,0,1-1.54-1.55c-.15-.23-.54-.78-1.17-1.67s-1.29-1.82-2-2.8l-1.24-1.76c-.34-.5-.53-.79-.58-.89a6.87,6.87,0,0,0-2.09-1.56A6.6,6.6,0,0,0,701.79,643.92Zm0-1.25,1.29-.08c.51,0,1,0,1.4,0a7.18,7.18,0,0,0,3-.63,4.73,4.73,0,0,0,2.39-3,7.14,7.14,0,0,0,.22-2.2q-.25-5-4.17-5.42c-1.44-.05-2.7-.06-3.79,0h-.3Z"/><path class="cls-2" d="M729.76,644.26v9.25a2.07,2.07,0,0,0,.59,1.46,1.76,1.76,0,0,0,1.27.55h1.06v1.14h-9.44v-1.14h1.06a1.78,1.78,0,0,0,1.25-.55,2.08,2.08,0,0,0,.61-1.46V632.32a2.18,2.18,0,0,0-.64-1.32,1.75,1.75,0,0,0-1.22-.5h-1l.53-1.13h9.89a8.65,8.65,0,0,1,6.14,2.08,7.31,7.31,0,0,1,2.24,5.61,6.39,6.39,0,0,1-1.31,4,9.22,9.22,0,0,1-3.34,2.73,10.31,10.31,0,0,1-4.3,1.08A9,9,0,0,1,729.76,644.26Zm0-1.36a4.66,4.66,0,0,1,.61,0,12.15,12.15,0,0,0,2.65-.17,7.53,7.53,0,0,0,2.86-1.12,5.08,5.08,0,0,0,2-2.73,7.23,7.23,0,0,0,.23-2.24,6.47,6.47,0,0,0-1.25-4,4,4,0,0,0-3.3-1.44h-3.79Z"/><path class="cls-2" d="M775.35,643.47v.75h-.57c-.83,0-1.27.45-1.32,1.33v6.33a11.81,11.81,0,0,1-2.49,2.44,13.59,13.59,0,0,1-3.79,1.94A16.14,16.14,0,0,1,762,657a14.23,14.23,0,0,1-10.27-4A14.1,14.1,0,0,1,762,628.8a17.74,17.74,0,0,1,5.54.76,17,17,0,0,1,4.2,2l-.19,5.91H770.2a10,10,0,0,0-2.83-5.16,8,8,0,0,0-5.4-1.66,9.16,9.16,0,0,0-7.31,3.33c-1.9,2.23-2.84,5.19-2.84,8.91s.93,6.67,2.8,8.87a9.43,9.43,0,0,0,7.35,3.37,11.45,11.45,0,0,0,8-3v-6.6c0-.86-.46-1.3-1.4-1.33h-1.14v-1.13h8Z"/><path class="cls-2" d="M475.19,469c-20.08-5-34.86-20.63-34.86-49.35,0-38.75,22.59-48.51,50.19-48.51s50.19,15.33,50.19,54.09a19.52,19.52,0,1,1-39,0c0-42.66-4.46-50.46-11.15-50.46s-11.15,2.23-11.15,44.88c0,39.59,4.46,47.4,11.15,47.4h69.14v3.63c-6.69,0-11.15,7.8-11.15,56,0,38.75-22.3,54.08-54.09,54.08s-54.09-15.33-54.09-54.08C440.33,491.07,455.11,474.06,475.19,469Zm19.23,108.18c10.88,0,15.06-7.81,15.06-50.46,0-32.35,12-49.35,29.27-56H490.52c-6.69,0-11.15,7.8-11.15,56C479.37,569.41,483.55,577.22,494.42,577.22Z"/><path class="cls-2" d="M258,371.18H398.32v57.66H396L354.35,375h-5.82V560.75c0,10.49,2.62,17.18,13.1,17.18v2.91h-67v-2.91c10.48,0,13.1-6.69,13.1-17.18V375h-5.82l-41.65,53.87H258Z"/><path class="cls-2" d="M601.68,371.18H742v57.66H739.7L698.06,375h-5.82V560.75c0,10.49,2.62,17.18,13.1,17.18v2.91h-67v-2.91c10.48,0,13.1-6.69,13.1-17.18V375h-5.82L604,428.84h-2.33Z"/><path class="cls-2" d="M767.31,609.25H232.69V342.78H767.31Zm-528.44-6.18H761.13V349H238.87Z"/></svg>