<?xml version="1.0" encoding="UTF-8" standalone="no"?>
<svg
   xmlns:dc="http://purl.org/dc/elements/1.1/"
   xmlns:cc="http://creativecommons.org/ns#"
   xmlns:rdf="http://www.w3.org/1999/02/22-rdf-syntax-ns#"
   xmlns:svg="http://www.w3.org/2000/svg"
   xmlns="http://www.w3.org/2000/svg"
   xmlns:sodipodi="http://sodipodi.sourceforge.net/DTD/sodipodi-0.dtd"
   xmlns:inkscape="http://www.inkscape.org/namespaces/inkscape"
   inkscape:version="1.0 (4035a4fb49, 2020-05-01)"
   height="266"
   width="535"
   sodipodi:docname="logo.svg"
   version="1.1"
   viewBox="0 0 535 266.00001"
   data-name="Layer 1"
   id="Layer_1">
  <metadata
     id="metadata59">
    <rdf:RDF>
      <cc:Work
         rdf:about="">
        <dc:format>image/svg+xml</dc:format>
        <dc:type
           rdf:resource="http://purl.org/dc/dcmitype/StillImage" />
      </cc:Work>
    </rdf:RDF>
  </metadata>
  <sodipodi:namedview
     inkscape:current-layer="Layer_1"
     inkscape:window-maximized="0"
     inkscape:window-y="0"
     inkscape:window-x="0"
     inkscape:cy="159.245"
     inkscape:cx="267"
     inkscape:zoom="2.3618182"
     showgrid="false"
     id="namedview57"
     inkscape:window-height="1119"
     inkscape:window-width="2180"
     inkscape:pageshadow="2"
     inkscape:pageopacity="0"
     guidetolerance="10"
     gridtolerance="10"
     objecttolerance="10"
     borderopacity="1"
     bordercolor="#666666"
     pagecolor="#ffffff" />
  <defs
     id="defs4">
    <style
       id="style2">.cls-1{fill:#231f20;}</style>
  </defs>
  <path
     id="path48"
     d="m 242.52,126 c -20.07,-5 -34.85,-20.63 -34.85,-49.35 0,-38.75 22.58,-48.51 50.19,-48.51 27.38,0 49.83,15.1 50.18,53.19 0.07,8.56 -5,16.51 -13.1,19.32 C 281.8,105.16 269,94.87 269,82.18 c 0,-42.66 -4.46,-50.47 -11.15,-50.47 -6.69,0 -11.15,2.29 -11.15,44.89 0,39.59 4.46,47.4 11.16,47.4 H 327 v 3.62 c -6.69,0 -11.15,7.81 -11.15,56 0,38.75 -22.31,54.08 -54.09,54.08 -31.78,0 -54.09,-15.33 -54.09,-54.08 0,-35.62 14.78,-52.62 34.85,-57.62 z m 18.9,108.56 c 10.88,0 15.06,-7.81 15.06,-50.47 0,-32.34 12,-49.35 29.27,-56 h -48.23 c -6.69,0 -11.15,7.81 -11.15,56 0,42.61 4.18,50.42 15.05,50.42 z"
     class="cls-1" />
  <path
     id="path50"
     d="m 25,28 h 140 v 58 h -1.91 L 121.78,32 H 116 v 186.23 c 0,10.5 2.6,17.22 13,17.22 V 238 H 62 v -2.55 c 10.4,0 13,-6.72 13,-17.22 V 32 H 69.22 L 27.91,86 H 25 Z"
     class="cls-1" />
  <path
     id="path52"
     d="m 369,28 h 140 v 58 h -2.91 L 464.78,32 H 459 v 186.23 c 0,10.5 2.6,17.22 13,17.22 V 238 h -67 v -2.55 c 10.4,0 13,-6.72 13,-17.22 V 32 h -5.78 L 370.91,86 H 369 Z"
     class="cls-1" />
  <path
     id="path54"
     d="M 535,266 H 0 V 0 H 535 Z M 6,260 H 528 V 6 H 6 Z"
     class="cls-1" />
</svg>
