<svg xmlns="http://www.w3.org/2000/svg" xmlns:xlink="http://www.w3.org/1999/xlink" version="1.1" x="0px" y="0px" viewBox="0 0 65 81.25" style="enable-background:new 0 0 65 65;" xml:space="preserve"><g><g><path d="M18.8,15.3c3.1,1.4,6.7-0.1,8-3.1c1.4-3.1,0-6.6-3.1-8c-3.1-1.4-6.7,0.1-8,3.1C14.4,10.3,15.7,13.9,18.8,15.3z M17.6,8.1    c0.9-2,3.3-3,5.4-2.1c2.1,0.9,3,3.3,2.1,5.4c-0.9,2-3.3,3-5.4,2.1C17.6,12.5,16.6,10.1,17.6,8.1z"/></g><g><path d="M42,15.4c3-1.8,3.9-5.7,2.1-8.7c-1.9-3.1-5.8-3.9-8.7-2.1c-3,1.8-3.9,5.7-2.1,8.7C35.2,16.3,39.1,17.2,42,15.4z M36.5,6.3    c2-1.2,4.7-0.6,6,1.4c1.2,2,0.6,4.7-1.4,6c-2,1.2-4.7,0.6-6-1.4C33.8,10.2,34.4,7.5,36.5,6.3z"/></g><g><path d="M59.4,51.6l3.2-13.5c1-2,0.8-4.2-0.5-6L52.1,18.4c-2.7-3.7-8.6-2.9-10.1,1.6l-4.5,8.8c-0.1,0-7.2,2.6-6.7,2.4    c-7.1-10.3-6.9-11-8.7-11.8l-5.7-2.5c-2-0.9-4.4,0-5.3,2.1C4,34.6,4.2,33.6,4.3,34.9l0.6,10.9L0.8,55c-0.8,1.7-0.1,3.7,1.4,4.6    c1.8,1,4.1,0.3,5-1.6c4.9-11.2,4.9-10.7,4.8-11.2l-0.5-8.8l10.2,8.5l3.8,6.2c1.1,1.8,3.6,2.2,5.2,0.9c1.4-1.1,1.7-3.2,0.7-4.7    l-4.2-6.8c-0.1-0.1-0.1-0.2-0.2-0.2l-9.3-8.4l2.2-5l4.3,6c1.2,1.6,3,2.7,5,2.9c0.9,0.6,2,0.7,3,0.4l8.7-3.1    c0.8-0.3,1.4-0.9,1.9-1.6l2.3-4.5l5.8,7.9l-13.4,9.7c-0.6,0.4-1,0.9-1.2,1.6l-3,8.1c-0.6,1.5,0,3.1,1.2,4c1.7,1.3,4.3,0.6,5.1-1.6    l2.7-7.1c4-2.8,9.4-6.6,12.3-8.6l-2.2,9.5c-0.3,1.1,0.1,2.3,0.9,3.2l5.4,5.3c1.3,1.3,3.5,1.3,4.8,0c1.3-1.3,1.4-3.4,0-4.8    L59.4,51.6z M27.7,34.9c-0.7-0.4-1.3-0.9-1.8-1.6l-5.3-7.4c-0.4-0.6-1.4-0.5-1.7,0.2l-3.2,7.3c-0.2,0.4-0.1,0.9,0.2,1.2l9.8,8.7    l4.1,6.7c0.5,0.7,0.3,1.6-0.3,2.1c-0.7,0.6-1.8,0.4-2.2-0.4l-3.9-6.3c-0.1-0.1-0.1-0.2-0.2-0.2L11.1,35.1c-0.7-0.6-1.7,0-1.6,0.8    l0.6,10.9L5.4,57.2C5,58.1,4,58.4,3.2,57.9c-0.7-0.4-0.9-1.3-0.6-2.1C7,45.9,7,46.4,6.9,45.9c-0.7-13.1-0.8-10.8-0.4-12l6.4-14.3    c0.5-1,1.7-1.5,2.7-1l5.7,2.5c1,0.4,0.8,0.8,7.7,10.9C28.1,32.7,27.6,33.8,27.7,34.9z M62.1,59c-0.5,0.5-1.4,0.5-2,0l-5.4-5.3    c-0.3-0.3-0.5-0.8-0.4-1.3l2.8-12c0.1-0.6-0.3-1.2-1-1.2c-0.4,0-0.5,0-15.3,10.4c-0.2,0.1-0.3,0.3-0.4,0.5l-2.8,7.4    c-0.3,0.9-1.4,1.2-2.1,0.6c-0.5-0.4-0.7-1-0.5-1.6l3-8.1c0.1-0.2,0.3-0.5,0.5-0.6l14.2-10.3c0.4-0.3,0.5-1,0.2-1.4l-7.3-10    c-0.4-0.6-1.4-0.5-1.7,0.1l-3.1,5.9c-0.2,0.3-0.4,0.6-0.8,0.7l-8.7,3.1c-0.7,0.3-1.5-0.2-1.8-0.8c-0.3-0.7,0.1-1.5,0.8-1.8    c0,0,0,0,0,0c0.1,0,8.3-3,7.8-2.8c0.2-0.1,0.4-0.3,0.6-0.5c5-9.8,4.8-9.2,4.8-9.4c1-3,4.8-3.5,6.6-1.1l10.1,13.7    c1.4,2,0.3,3.9,0.2,4.2l-3.3,14.2c-0.1,0.3,0,0.7,0.3,0.9l4.5,4.4C62.6,57.5,62.6,58.4,62.1,59z"/></g></g><text x="0" y="80" fill="#000000" font-size="5px" font-weight="bold" font-family="'Helvetica Neue', Helvetica, Arial-Unicode, Arial, Sans-serif">Created by ProSymbols</text><text x="0" y="85" fill="#000000" font-size="5px" font-weight="bold" font-family="'Helvetica Neue', Helvetica, Arial-Unicode, Arial, Sans-serif">from the Noun Project</text></svg>