<svg xmlns="http://www.w3.org/2000/svg" xmlns:xlink="http://www.w3.org/1999/xlink" xmlns:a="http://ns.adobe.com/AdobeSVGViewerExtensions/3.0/" version="1.1" x="0px" y="0px" viewBox="-9.909 -9.909 64 80" enable-background="new -9.909 -9.909 64 64" xml:space="preserve"><path d="M43.894,39.65L33.287,29.044l6.364-6.364c0.391-0.391,0.391-1.023,0-1.414l-2.829-2.829c-0.385-0.385-1.029-0.385-1.414,0  l-3.776,3.776L9.712,0.293C9.538,0.119,9.251,0,9.004,0H1C0.448,0,0,0.448,0,1v8.005c0,0.174,0.119,0.62,0.293,0.708l21.92,21.919  l-3.776,3.775c-0.391,0.391-0.391,1.023,0,1.414l2.829,2.829c0.385,0.385,1.029,0.385,1.414,0l6.364-6.364l10.606,10.606  c0.386,0.386,1.028,0.386,1.414,0l2.829-2.828C44.279,40.679,44.279,40.036,43.894,39.65z M10.004,3.414l20.213,20.213l-2.588,2.588  L10.004,8.591V3.414z M2,2h6.004v6.005H2V2z M3.414,10.005H8.59l17.625,17.625l-2.588,2.588L3.414,10.005z M28.337,31.165  l-6.364,6.364l-1.415-1.415l3.774-3.774c0,0,0.001,0,0.001-0.001l4.002-4.002l4.002-4.003l3.776-3.776l1.415,1.415l-6.364,6.364  L28.337,31.165z M40.358,41.771l-9.899-9.899l1.414-1.414l9.9,9.899L40.358,41.771z"/><text x="-9.909" y="69.09100000000001" fill="#000000" font-size="5px" font-weight="bold" font-family="'Helvetica Neue', Helvetica, Arial-Unicode, Arial, Sans-serif">Created by satrio bagus permadi</text><text x="-9.909" y="74.09100000000001" fill="#000000" font-size="5px" font-weight="bold" font-family="'Helvetica Neue', Helvetica, Arial-Unicode, Arial, Sans-serif">from the Noun Project</text></svg>