<?xml version="1.0" encoding="utf-8"?>
<!-- Generator: Adobe Illustrator 25.0.0, SVG Export Plug-In . SVG Version: 6.00 Build 0)  -->
<svg version="1.1" id="Layer_1" xmlns="http://www.w3.org/2000/svg" xmlns:xlink="http://www.w3.org/1999/xlink" x="0px" y="0px"
	 viewBox="0 0 46 88" style="enable-background:new 0 0 46 88;" xml:space="preserve">
<style type="text/css">
	.st0{fill:#DCECF7;}
	.st1{fill:#F7F5F2;}
	.st2{fill:#CCCCCC;}
	.st3{fill:#E4EDF7;}
	.st4{fill:#BFBFBF;}
	.st5{fill:#F0F4F7;}
	.st6{fill:#E6F0F7;}
	.st7{fill:#DCEAF2;}
	.st8{fill:#D7EAF7;}
	.st9{fill:#ACB1B3;}
	.st10{fill:#EDF3F7;}
	.st11{fill:#F7F9FC;}
	.st12{fill:#FFFFFF;}
</style>
<g>
	<path class="st0" d="M45.9,3.9l0-0.4l-1.1,0l-1.4-0.1l-1.5-0.1L31.8,3c0,0-8.8-0.4-8.8-0.4L12.5,3c0,0-7.6,0.3-7.6,0.3L1.1,3.4
		L0,3.5l0,0.6l1.3,21.4h43.3L45.9,3.9z"/>
	<path class="st1" d="M44.7,25.5l-1.2,20l-1.8,30.8l0,0.1c0,0-0.3,4.7-0.3,4.7l-0.1,2.1L41.1,84c-0.1,0.2-0.2,0.4-0.3,0.6H23
		l-10.1-0.2c0,0-3.1-0.1-3.1-0.1l-1.3,0l-1.8,0l-1.6,0C5,84,4.9,83.9,4.9,83.7l0-0.2l-0.2-2.9l0-0.2l-0.1-1.6l-1.4-23L1.4,25.5H44.7
		z"/>
	<path class="st1" d="M44.6,25.5c0,1.7-9.5,3.1-21.2,3.1c-11.7,0-21.2-1.4-21.2-3.1c0-1.7,9.5-3.1,21.2-3.1
		C35.1,22.4,44.6,23.8,44.6,25.5z"/>
	<path class="st2" d="M43.9,26.2c-2.4,1.3-10.6,2.3-20.5,2.3c-9.8,0-18.1-1-20.5-2.3c4.4,0.7,11.9,1.1,20.5,1.1S39.5,26.9,43.9,26.2
		z"/>
	<path class="st3" d="M6.7,84.2l-1.6,0C5,84,4.9,83.9,4.9,83.7c0,0,0-0.2,0-0.2l-0.2-2.9l0-0.2l-0.1-1.6l-1.4-23L1.4,25.5L1,20.1
		L0,3.5l2.4-0.1l1.2,22.1l1.8,34.7l0.9,17.2l0.1,2.3l0.1,1.5l0.1,2.7L6.7,84.2z"/>
	<path class="st3" d="M46,3.6l0,0.4l-1.3,21.5l-1.2,20l-1.8,30.8l0,0.1c0,0-0.3,4.7-0.3,4.7l-0.1,2.1L41.1,84
		c-0.1,0.2-0.2,0.4-0.3,0.6h-1.5l0.1-1.1l0.1-1.8l0.2-4.4l0.1-1.1l1.7-33.6l0.9-17.2l1-19.9l0-0.7l0.1-1.4l1.4,0.1L46,3.6z"/>
	<path class="st4" d="M10.4,82.7c0,0-5.4-68.9-5.6-79.5L12.5,3c0,0,3.2,0.7,3.2,0.7s2.6,76.6,3,79C18.9,85.1,10.4,82.7,10.4,82.7z"
		/>
	<path class="st4" d="M42.1,3.4L37.5,82l-7,1.1c0,0,0.9-68,1.4-80.2L42.1,3.4z"/>
	<path class="st5" d="M46,3.7c0,0.1,0,0.2,0,0.2c-0.2,0.6-1.1,1.1-2.5,1.6c-0.5,0.2-1,0.3-1.5,0.4c-2.5,0.6-6.1,1.1-10.3,1.4
		c-0.2,0-0.5,0-0.7,0.1c-2.5,0.2-5.1,0.2-7.9,0.2C10.9,7.7,1.1,6.1,0.1,4.1C0,3.9,0,3.8,0,3.7c0-0.1,0-0.2,0-0.3
		C0.6,1.9,11,0,23.2,0C31.6,0,46,0.9,46,3.7z"/>
	<path class="st6" d="M45.3,3.7c0,1.7-9.8,3.1-22,3.1c-12.1,0-22-1.4-22-3.1c0-1.7,9.8-3.1,22-3.1C35.4,0.6,45.3,2,45.3,3.7z"/>
	<path class="st7" d="M44.9,3.7c0,0.2-0.1,0.3-0.3,0.5C42.9,2.7,33.9,1.6,23,1.6C12.1,1.6,3.1,2.7,1.3,4.2C1.1,4.1,1,3.9,1,3.7
		C1,2,11,0.8,23.1,0.8C35.2,0.8,44.9,2,44.9,3.7z"/>
	<path class="st8" d="M41.6,76.4L41.5,81l0,0.2c0,0.1,0,0.2,0,0.3l-0.1,1.1c0,0,0,0,0,0.1l0,0.4c-0.1,0.3-0.1,0.6-0.2,0.9
		c-0.1,0.2-0.2,0.4-0.3,0.6c-0.1,0.2-0.3,0.4-0.5,0.6c0,0,0.1,0,0.1,0c-0.1,0.1-0.3,0.2-0.4,0.3c0,0-0.1,0-0.1,0.1
		c-0.2,0.1-0.3,0.1-0.4,0.2c-0.1,0-0.2,0.1-0.3,0.1c-0.1,0.1-0.3,0.1-0.4,0.2c0,0-0.1,0-0.1,0c-0.1,0-0.2,0.1-0.3,0.1
		c-0.1,0-0.2,0.1-0.4,0.1c-0.1,0-0.3,0.1-0.4,0.1c-0.2,0.1-0.5,0.1-0.8,0.2c-0.1,0-0.3,0.1-0.5,0.1c-0.4,0.1-0.8,0.2-1.3,0.3
		c-0.1,0-0.2,0-0.3,0.1c-0.2,0-0.5,0.1-0.7,0.1c-0.3,0.1-0.7,0.1-1,0.2c-0.2,0-0.3,0-0.5,0.1c-0.1,0-0.3,0-0.4,0.1
		c-0.1,0-0.1,0-0.2,0c-0.1,0-0.3,0-0.4,0c-0.4,0-0.8,0.1-1.2,0.1c-0.1,0-0.3,0-0.4,0c-0.2,0-0.4,0-0.5,0c-0.5,0-1.1,0.1-1.7,0.1
		c0,0,0,0-0.1,0c-0.2,0-0.4,0-0.6,0c-0.2,0-0.4,0-0.6,0c-0.1,0-0.2,0-0.3,0c-0.1,0-0.2,0-0.3,0c-0.1,0-0.3,0-0.4,0
		c-0.2,0-0.5,0-0.7,0c0,0-0.1,0-0.1,0c-0.2,0-0.4,0-0.6,0c-0.4,0-0.7,0-1.1,0c-1.3,0-2.5,0-3.6,0c-0.4,0-0.8,0-1.2,0
		c-0.2,0-0.4,0-0.6,0c-0.4,0-0.7,0-1.1-0.1c-0.2,0-0.4,0-0.6-0.1c-1.2-0.1-2.3-0.2-3.4-0.4c-0.2,0-0.4-0.1-0.6-0.1
		c-0.2,0-0.4-0.1-0.6-0.1C11,87.1,10.7,87,10.4,87c-0.1,0-0.3-0.1-0.4-0.1c-0.1,0-0.3-0.1-0.4-0.1c-0.1,0-0.2-0.1-0.4-0.1
		c-0.2,0-0.3-0.1-0.5-0.1c-0.3-0.1-0.5-0.2-0.8-0.3c-0.4-0.1-0.7-0.3-1.1-0.4c0,0-0.1,0-0.1-0.1c-0.2-0.1-0.3-0.2-0.4-0.3
		c-0.2-0.1-0.4-0.3-0.6-0.4c-0.3-0.3-0.5-0.6-0.7-0.9C5,84,4.9,83.9,4.9,83.7c0-0.1,0-0.2-0.1-0.2c0,0,0-0.1,0-0.1l-0.1-2.1l0-0.8
		l0-0.2l-0.1-1.6l-0.1-2.6c0.1,0.4,0.7,0.8,1.8,1.2c0.9,0.3,2.2,0.6,3.8,0.9c2.3,0.4,5.1,0.7,8.3,0.8c1.5,0.1,3.1,0.1,4.8,0.1
		c2.6,0,5.1-0.1,7.4-0.3c2.8-0.2,5.3-0.6,7.2-1c0.8-0.2,1.4-0.4,2-0.6C40.6,77,41.3,76.7,41.6,76.4z"/>
	<path class="st3" d="M38.3,78.7c-2.3,0.2-4.5,0.8-6.8,1.2c-2.8,0.4-5.7,0.5-8.5,0.5c-5.5-0.2-10.7-1.4-16-2.7
		c-0.2-0.1-0.3,0.2-0.2,0.3c4.8,2.4,10.3,3.4,15.7,3.6c5,0.2,11.6,0.1,16-2.2C38.8,79.2,38.7,78.7,38.3,78.7z"/>
	<path class="st3" d="M41.5,81l0,0.2c0,0.1,0,0.2,0,0.3l-0.1,1.1c0,0,0,0,0,0.1l0,0.4c-0.1,0-0.1,0-0.2,0.1
		c-0.6,0.1-1.2,0.3-1.8,0.4c-1,0.2-1.9,0.3-2.7,0.4c-3.5,0.5-7.1,0.5-10.7,0c-0.3,0-0.2-0.4,0.1-0.4c3.8-0.1,7.5-0.5,11.1-1.3
		c0.8-0.2,1.5-0.4,2.3-0.6c0.6-0.2,1.2-0.4,1.8-0.6C41.4,81.1,41.4,81,41.5,81z"/>
	<path class="st3" d="M17.3,83.8c0,0-0.1,0.1-0.2,0.1c-0.1,0-0.1,0-0.2,0c-2.2-0.3-4.4-0.8-6.5-1.4c-1.3-0.4-2.6-0.8-3.9-1.3
		c-0.6-0.2-1.2-0.5-1.8-0.8c0,0-0.1-1.6-0.1-1.6c0.6,0.3,1.2,0.6,1.9,0.9c1.3,0.6,2.6,1.1,3.9,1.6c2.2,0.8,4.5,1.6,6.9,2.2
		C17.4,83.5,17.4,83.7,17.3,83.8z"/>
	<path class="st3" d="M40.5,85.2c-0.1,0.1-0.3,0.2-0.4,0.3c0,0-0.1,0-0.1,0.1c-0.2,0.1-0.3,0.1-0.4,0.2c-0.1,0-0.2,0.1-0.3,0.1
		c-0.1,0.1-0.3,0.1-0.4,0.2c0,0-0.1,0-0.1,0c-0.1,0-0.2,0.1-0.3,0.1c-0.1,0-0.2,0.1-0.4,0.1c-0.1,0-0.3,0.1-0.4,0.1
		c-0.2,0.1-0.5,0.1-0.8,0.2c-0.1,0-0.3,0.1-0.5,0.1c-0.4,0.1-0.8,0.2-1.3,0.3c-0.1,0-0.2,0-0.3,0.1c-0.2,0-0.5,0.1-0.7,0.1
		c-0.3,0.1-0.7,0.1-1,0.2c-0.1,0-0.3,0-0.4,0.1c-0.2,0-0.3,0-0.5,0.1c-0.1,0-0.1,0-0.2,0c-0.1,0-0.3,0-0.4,0c-0.4,0-0.8,0.1-1.2,0.1
		c-0.1,0-0.3,0-0.4,0c-0.2,0-0.4,0-0.5,0c-0.5,0-1.1,0.1-1.7,0.1c0,0,0,0-0.1,0c-0.2,0-0.4,0-0.6,0c-0.2,0-0.4,0-0.6,0
		c-0.1,0-0.2,0-0.3,0c-0.1,0-0.2,0-0.3,0c-0.1,0-0.3,0-0.4,0c-0.2,0-0.5,0-0.7,0c0,0-0.1,0-0.1,0c-0.2,0-0.4,0-0.6,0
		c-0.4,0-0.7,0-1.1,0c-1.3,0-2.5,0-3.6,0c-2.4-0.3-4.8-0.6-7.1-1.1c-1.9-0.4-4-0.8-6-1.4c-0.2-0.1-0.4-0.3-0.6-0.4
		c-0.3-0.3-0.5-0.6-0.7-0.9C5,84,4.9,83.9,4.9,83.7c0-0.1,0-0.2-0.1-0.2c0.6,0.1,1.2,0.2,1.8,0.4c0.6,0.1,1.2,0.3,1.8,0.4
		c1.1,0.3,2.2,0.5,3.3,0.7c0.7,0.1,1.4,0.2,2.1,0.3c0,0,0,0,0.1,0c0.8,0.1,1.7,0.3,2.5,0.4c2.2,0.3,4.4,0.5,6.6,0.6
		c3.5,0.2,7.1,0.1,10.6-0.1C35.9,86,38.1,85.5,40.5,85.2C40.4,85.2,40.4,85.2,40.5,85.2z"/>
	<path class="st3" d="M23.3,7.8C17.1,7.7,11.1,7.3,5,6C4.8,6,4.7,6.3,4.9,6.3C13.3,8,19.8,8.8,23.3,8.1C23.5,8.1,23.5,7.8,23.3,7.8z
		"/>
	<path class="st9" d="M14.8,60.4c-0.2-5.8-0.2-11.5-0.5-17.3c-0.2-5.6-0.4-11.2-0.7-16.8c-0.3-5.5-0.3-11-1.6-16.4
		c-0.1-0.4-0.8-0.4-0.9,0c-0.9,5.3-0.5,10.6-0.4,15.9c0.1,5.8,0.4,11.5,0.6,17.3c0.2,5.6,0.6,11.2,0.8,16.8
		c0.2,5.4-0.3,11.3,1.2,16.5c0.2,0.7,1.3,0.7,1.5,0C15.8,71.3,14.9,65.6,14.8,60.4z"/>
	<path class="st9" d="M36.9,11.4c0-0.5-0.9-0.7-1-0.1c-1.6,8.8-1.6,17.9-2,26.7c-0.5,9.1-1.5,18.5-0.8,27.6c0,0.5,0.9,0.7,1,0.1
		c1.6-8.7,1.6-17.9,2-26.7C36.6,29.9,37.6,20.5,36.9,11.4z"/>
	<g>
		<path class="st10" d="M41.6,76.2l0,0.1c0,0-0.1,4.7-0.1,4.7l0,0.2c0,0.1,0,0.2,0,0.3c0,0.4,0,0.7-0.1,1.1c0,0,0,0,0,0.1
			c0,0.1,0,0.3,0,0.4c0,0.3-0.1,0.6-0.2,0.9c-0.1,0.2-0.2,0.4-0.3,0.6c-0.1,0.2-0.3,0.4-0.5,0.6c-0.1,0.1-0.2,0.2-0.4,0.3
			c0,0-0.1,0-0.1,0.1c-0.2,0.1-0.3,0.1-0.4,0.2c-0.1,0-0.2,0.1-0.3,0.1c-0.1,0.1-0.3,0.1-0.4,0.2c0,0-0.1,0-0.1,0c0,0-0.1,0-0.2,0.1
			c0,0-0.1,0-0.1,0c-0.1,0-0.2,0.1-0.4,0.1c-0.1,0-0.3,0.1-0.4,0.1c-0.2,0.1-0.5,0.1-0.8,0.2c-0.1,0-0.3,0.1-0.5,0.1
			c-0.4,0.1-0.8,0.2-1.3,0.3c-0.1,0-0.2,0-0.3,0.1c-0.2,0-0.5,0.1-0.7,0.1c-0.3,0.1-0.7,0.1-1,0.2c-0.1,0-0.3,0-0.4,0.1c0,0,0,0,0,0
			c-0.1,0-0.3,0-0.4,0.1c-0.1,0-0.1,0-0.2,0c-0.1,0-0.3,0-0.4,0c-0.4,0-0.8,0.1-1.2,0.1c-0.1,0-0.3,0-0.4,0c-0.2,0-0.4,0-0.5,0
			c-0.5,0-1.1,0.1-1.7,0.1c0,0,0,0-0.1,0c-0.2,0-0.4,0-0.6,0c-0.2,0-0.4,0-0.6,0c-0.1,0-0.2,0-0.3,0c-0.1,0-0.2,0-0.3,0
			c-0.1,0-0.3,0-0.4,0c-0.2,0-0.5,0-0.7,0c0,0-0.1,0-0.1,0c-0.2,0-0.4,0-0.6,0c-0.4,0-0.7,0-1.1,0c-1.3,0-2.5,0-3.6,0
			c-0.4,0-0.8,0-1.2,0c-0.2,0-0.4,0-0.6,0c-0.4,0-0.7,0-1.1-0.1c-0.2,0-0.4,0-0.6-0.1c-0.4,0-0.8-0.1-1.2-0.1
			c-0.3,0-0.6-0.1-0.9-0.1c-0.4-0.1-0.8-0.1-1.2-0.2c-0.2,0-0.4-0.1-0.6-0.1c-0.2,0-0.4-0.1-0.6-0.1C11,87.1,10.7,87,10.4,87
			c-0.1,0-0.3-0.1-0.4-0.1c-0.1,0-0.3-0.1-0.4-0.1c-0.1,0-0.2-0.1-0.4-0.1c-0.2,0-0.3-0.1-0.5-0.1c-0.3-0.1-0.5-0.2-0.8-0.3
			c-0.4-0.1-0.7-0.3-1.1-0.4c0,0-0.1,0-0.1-0.1c-0.2-0.1-0.3-0.2-0.4-0.3c-0.2-0.1-0.4-0.3-0.6-0.4c-0.3-0.3-0.5-0.6-0.7-0.9
			C5,84,4.9,83.9,4.9,83.7c0-0.1,0-0.2-0.1-0.2c0,0,0,0,0-0.1c-0.1-0.7-0.1-1.4-0.1-2.1l0-0.8l0-0.2l-0.1-1.6l-1.4-23
			c0.6,1.5,1.4,2.9,2.2,4.3c1.1,1.8,2.3,3.5,3.7,5c1,1.1,2,2.2,3.2,3.1c0.9,0.8,1.9,1.5,3,2.2c0.2,0.1,0.4,0.2,0.6,0.4
			c0.7,0.4,1.5,0.8,2.2,1.2c3.9,1.9,8.1,3,12.5,3.5c2.4,0.3,4.8,0.5,7.3,0.6c0.7,0,1.3,0,2,0C40.4,76.2,41,76.2,41.6,76.2z"/>
	</g>
	<path class="st7" d="M28.8,29.5c-4.3-0.1-8.5-0.2-12.8-0.7c-3.5-0.4-7.2-1.3-10.8-1.2c-0.2,0-0.3,0.2-0.1,0.3
		c3.2,1.4,7.2,1.7,10.8,1.9c4.3,0.2,8.7,0.2,12.9-0.2C28.9,29.6,28.9,29.5,28.8,29.5z"/>
	<path class="st11" d="M22.8,60.7c-0.4-5.7-0.8-11.5-1.2-17.2c-0.4-5.6-0.8-11.1-1.2-16.7c-0.2-2.7-0.4-5.4-0.7-8.1
		c-0.3-2.3-0.3-5.4-1.9-7.3c-0.2-0.3-0.7-0.3-0.9,0c-1.3,1.9-1.2,4.7-1.2,6.8c-0.1,2.7,0,5.4,0.1,8.1c0.2,5.7,0.5,11.5,0.8,17.2
		c0.3,5.6,0.8,11.1,1.3,16.7c0.5,5.4,0.8,11.3,2.9,16.4c0.3,0.7,1.7,0.9,1.9,0C23.7,71.4,23.1,65.9,22.8,60.7z"/>
	<path class="st12" d="M43.8,5.3C30.6,8.3,17.3,8.1,4.1,5.5c-0.2,0-0.3,0.2-0.1,0.3C17,8.7,31,8.4,43.8,5.4
		C43.9,5.4,43.8,5.2,43.8,5.3z"/>
	<path class="st12" d="M38.8,25.9c-0.1-5.3-0.8-10.6-1-15.9c0,0-0.1,0-0.1,0c0.2,5.1-0.3,10.2-0.3,15.4c0,0.4,0,0.7,0,1.1
		c-0.5,0.1-0.9,0.2-1.4,0.3c-0.5-4.8-1.1-9.6-1.5-14.3c-0.1-0.7-1.2-0.7-1.1,0c0.3,4.9,0.4,9.8,0.6,14.7c-3.8,0.6-7.5,0.8-11.2,0.8
		c-1.4-0.2-2.9-0.4-4.3-0.6c-0.4-0.1-0.7,0.2-0.8,0.5c-3-0.2-6.1-0.5-9.3-1c-0.3,0-0.4,0.3-0.1,0.4c4.5,1.4,9.3,2,14.1,1.9
		c2.8,0.3,5.6,0.5,8.4,0.1c0.5-0.1,0.6-0.8,0-0.8c-0.1,0-0.2,0-0.4,0c1.2-0.2,2.4-0.4,3.5-0.7c0.4,9.6,0.9,19.2,2.5,28.7
		c-0.2,5-0.4,10-0.3,14.9c0,0.4,0.7,0.5,0.8,0.1c1.6-10,1.7-20.2,1.9-30.3C38.9,36.1,38.9,31,38.8,25.9z M37.3,26.9
		c0,3.9-0.1,7.7-0.2,11.6c-0.3-3.7-0.7-7.5-1.1-11.2C36.5,27.2,36.9,27,37.3,26.9z"/>
	<path class="st12" d="M16.4,85.3c-2-0.7-4.2-1-6.3-1.4c-0.4-0.1-0.6,0.5-0.2,0.6c2.1,0.5,4.2,1.1,6.4,1.3
		C16.7,85.8,16.7,85.4,16.4,85.3z"/>
	<path class="st12" d="M24.5,81.6c-5.6-0.4-11-1.4-16.6-2.2c-0.3,0-0.4,0.3-0.1,0.4c5.3,1.7,11.1,2.3,16.7,2.1
		C24.7,81.9,24.7,81.6,24.5,81.6z"/>
</g>
</svg>
