<?xml version="1.0" encoding="utf-8"?>
<!-- Generator: Adobe Illustrator 25.0.0, SVG Export Plug-In . SVG Version: 6.00 Build 0)  -->
<svg version="1.1"
	 id="svg2" inkscape:version="0.48+devel r9935" sodipodi:docname="Documento nuevo 1" xmlns:cc="http://creativecommons.org/ns#" xmlns:dc="http://purl.org/dc/elements/1.1/" xmlns:inkscape="http://www.inkscape.org/namespaces/inkscape" xmlns:ns1="http://sozi.baierouge.fr" xmlns:rdf="http://www.w3.org/1999/02/22-rdf-syntax-ns#" xmlns:sodipodi="http://sodipodi.sourceforge.net/DTD/sodipodi-0.dtd" xmlns:svg="http://www.w3.org/2000/svg"
	 xmlns="http://www.w3.org/2000/svg" xmlns:xlink="http://www.w3.org/1999/xlink" x="0px" y="0px" viewBox="0 0 668.8 948.5"
	 style="enable-background:new 0 0 668.8 948.5;" xml:space="preserve">
<style type="text/css">
	.st0{opacity:0.9961;fill-rule:evenodd;clip-rule:evenodd;fill:#EEAE48;}
	.st1{opacity:0.9961;fill-rule:evenodd;clip-rule:evenodd;fill:#F09A2E;}
	.st2{opacity:0.9961;fill-rule:evenodd;clip-rule:evenodd;fill:#E6843A;}
	.st3{opacity:0.9961;fill-rule:evenodd;clip-rule:evenodd;fill:#D16220;}
	.st4{fill-rule:evenodd;clip-rule:evenodd;fill:#D16220;}
	.st5{opacity:0.9961;fill-rule:evenodd;clip-rule:evenodd;fill:#FFCE8A;}
	.st6{opacity:0.9961;fill-rule:evenodd;clip-rule:evenodd;fill:#88220F;}
	.st7{opacity:0.9961;fill-rule:evenodd;clip-rule:evenodd;fill:#FFD289;}
	.st8{opacity:0.9961;fill-rule:evenodd;clip-rule:evenodd;fill:#F09A2D;}
	.st9{opacity:0.9961;fill-rule:evenodd;clip-rule:evenodd;fill:#FFC367;}
	.st10{opacity:0.9961;fill-rule:evenodd;clip-rule:evenodd;fill:#FFC366;}
	.st11{opacity:0.9961;fill-rule:evenodd;clip-rule:evenodd;fill:#D87A30;}
	.st12{opacity:0.9961;fill-rule:evenodd;clip-rule:evenodd;fill:#B55217;}
	.st13{opacity:0.9961;fill-rule:evenodd;clip-rule:evenodd;fill:#B55216;}
	.st14{opacity:0.9961;fill-rule:evenodd;clip-rule:evenodd;fill:#E68439;}
	.st15{opacity:0.9961;fill-rule:evenodd;clip-rule:evenodd;fill:#D9782B;}
	.st16{opacity:0.9961;fill-rule:evenodd;clip-rule:evenodd;fill:#BA160E;}
	.st17{opacity:0.9961;fill-rule:evenodd;clip-rule:evenodd;fill:#E86B65;}
	.st18{opacity:0.9961;fill-rule:evenodd;clip-rule:evenodd;fill:#8F0903;}
	.st19{fill-rule:evenodd;clip-rule:evenodd;fill:#D8792F;}
	.st20{fill-rule:evenodd;clip-rule:evenodd;fill:#E68438;}
	.st21{fill-rule:evenodd;clip-rule:evenodd;fill:#8F0802;}
	.st22{fill-rule:evenodd;clip-rule:evenodd;fill:#B55216;}
	.st23{opacity:0.9961;fill-rule:evenodd;clip-rule:evenodd;fill:#A03F04;}
	.st24{opacity:0.9961;fill-rule:evenodd;clip-rule:evenodd;fill:#D8792F;}
	.st25{opacity:0.9961;fill-rule:evenodd;clip-rule:evenodd;fill:#A03E03;}
	.st26{opacity:0.9961;fill-rule:evenodd;clip-rule:evenodd;fill:#FFDEDC;}
</style>
<sodipodi:namedview  bordercolor="#666666" borderopacity="1.0" id="base" inkscape:current-layer="layer1" inkscape:cx="273.52498" inkscape:cy="614.84559" inkscape:document-units="px" inkscape:pageopacity="0.0" inkscape:pageshadow="2" inkscape:window-height="787" inkscape:window-maximized="0" inkscape:window-width="1440" inkscape:window-x="0" inkscape:window-y="0" inkscape:zoom="0.42014768" pagecolor="#ffffff" showgrid="false">
	</sodipodi:namedview>
<g>
	<path class="st0" d="M62.4,580c-28.8-7.3-47.2-25.8-55.3-55.5c-8.6-27.1,2.3-60.5,32.8-100.2L5.7,380.7c-2.8-8.7-1.3-17.8,4.5-27.1
		c11-19.8,29.8-35.2,56.5-46.3c4.2-22.9,16.4-40.9,36.7-54c12.9-8.6,35.6-14.2,67.9-16.6c47.4-35.6,90.6-55,129.6-58.1
		c26.8-2.2,55.8-0.6,86.8,4.9c12.5,1.6,33,10.4,61.5,26.5c49.7-3.8,83,3.2,99.8,21c8.3,6.5,15,20.7,20.2,42.8
		c31.8,15.1,50.2,31.9,55,50.4c9.4,18,9.9,43.5,1.3,76.3c33.4,43.9,47.4,86.8,42.1,128.7c-5.6,30.6-31,51.7-76.4,63.2
		c9.4-4.3,10,12.5,1.8,50.5l-64.5,252.7c-60.8,32.7-139.2,47-235.1,42.9c-79-3.3-127.2-21-144.7-52.9c-62.9-193.1-87-321-72.3-383.8
		L62.4,580z"/>
	<path class="st0" d="M121.6,405.6C80.8,407,50.9,419.2,32,442.4c-11.3,14-18.5,28-21.5,42c-4.1,20.6-3.6,38.4,1.7,53.3
		c9.5,29,30.4,50.7,62.5,65.2c35.8,14.6,71.8,16.2,107.9,4.7L121.6,405.6z"/>
	<path class="st1" d="M43.2,448.8c-10.5,19.3-16.3,37.5-17.5,54.7c0.3,15.5,5.5,30.5,15.4,44.9c27.3,32.4,59.4,43.3,96.3,32.5
		c1.4-1.5,1-3-1.1-4.7c-0.4-0.7-7.7-4.6-22.1-11.5c-2.7-1.6-5.6-3.9-8.7-7c-9.4-9-15.7-18.1-18.9-27.3c-4.3-11.7-6.3-22-5.9-30.9
		c-0.5-5.1,2.1-18.8,7.8-41c0.6-6.4,0.3-10.5-1.1-12.5c-4.3-5.6-14.3-8.5-30-8.7L43.2,448.8z"/>
	<path class="st1" d="M37.9,466.6c-23.8,41.3-26.6,73.4-8.4,96.5c21.2,34.2,57.4,52.7,108.7,55.5c18.7-0.3,36.1-3.1,52.1-8.6
		c6.4-1.3,24.2-11.1,53.4-29.3c6.9-3.3,12.2-5.1,16-5.3c5-0.4,10.5,0.8,16.4,3.7c27.1,15.2,44.5,23.9,52.3,26.1
		c9.4,3.4,21,5.4,34.7,6.2c11.1,0.6,24-1.9,38.5-7.5l69.4-37.4c3.8-0.4,7.5,0,11.2,1.1c44,16.5,65.9,23.9,65.5,22.1
		c9.2,2.4,21.6,1.5,37.1-2.7c28.4-8.3,48-25.3,58.9-50.9c7.1-25.1,2.3-46.2-14.4-63.3c-2.3-1.3-3.9-0.7-4.9,1.7
		c0.3,33.8-4.3,56.3-13.7,67.5c-11.3,15.6-25.6,23.7-42.8,24.2c-7.8,0.7-17.9-1.3-30.3-5.9c-6.9-1.9-25.6-12.3-56.2-31.3
		c-6.3-3.2-12.6-4.8-18.9-4.6c-5.7,0.1-10.9,1.4-15.8,4.1c-19.8,15.8-36.3,26.2-49.6,31.3c-7,3.6-14.9,5.9-24,6.9
		c-8.6,0.8-15,0.4-19-1C315,551.8,293,544.8,288,544.5c-6.7-1.6-17.9-2.7-33.7-3.4c-14.2-0.1-26.2,0.7-36.1,2.2
		c-3.5-0.2-28.5,5.1-75.2,16c-11,1.9-19.6,2.4-25.7,1.4c-25.5-6.7-37.3-29.5-35.3-68.5L37.9,466.6z"/>
	<path class="st1" d="M268.9,552.8c-30.9-0.9-50.7-11.4-59.4-31.4c-7.1-12.6-11.6-24.9-13.6-37c-1.9-8.6-1.5-24.5,1.4-47.7
		c-0.1-3.6-0.9-6.1-2.4-7.5c-2.1-2.2-5.2-4.1-9.4-5.5c-19.6-4.2-33.2-8.5-40.9-13c-9.1-4.8-15.7-11.4-20-19.7
		c-5.4-10.5-6.9-21-4.2-31.6c4.6-15.9,13-31.2,25.4-45.9c-9.8,30.1-9.7,49.8,0.1,59.3c2,3.7,9.6,8.9,22.9,15.8
		c27,7.5,41.8,12.3,44.4,14.4c5.9,3.2,10.1,7.6,12.7,13.2c1.7,4.1,2.3,8.1,1.7,12.2c-6.2,25.6-9.1,40.5-8.6,44.6
		c0,13,2.6,22.2,8,27.8c6.8,9.2,15.7,17.1,26.6,23.7l85,51.7L268.9,552.8z"/>
	<path class="st1" d="M51,447.8l2.3-24.7c0.2-3.3,0-6-0.6-8.1c-1.3-4.2-3-8-5.4-11.4c-0.2-0.9-5.9-7.8-16.9-20.6
		c-1.2-1.5-2.3-3.5-3.5-6c-2-4.4-1.7-11.4,0.8-21c0.4-5,7.2-11.8,20.3-20.2c10.9-5.5,20.2-8.3,27.9-8.5c0.2,0.4-0.5,1.4-1.9,2.9
		c-8,7.5-13.1,12.9-15.2,16.2c-3.6,4.8-6.3,10.1-8.2,16c-0.8,2.3,0.1,7.3,2.8,15.1c0.9,3.4,4.2,10.4,9.8,20.8c1.3,3,2.1,5.3,2.5,6.8
		c1.7,5.6,2.3,12.6,1.8,20.9c-0.1,9.5-2.4,18.2-6.9,26.2c-2.2,4.3-7.6,8.6-16,12.8L51,447.8z"/>
	<path class="st1" d="M60.9,337.1c1.1,0.1,2.3-0.1,3.5-0.5c4.1-1.8,6.6-2.7,7.7-2.9l11.5-1.7c7-2.2,11.4-3.5,13.1-3.7
		c5.1-0.9,12.2-1.8,21.2-2.8c2.2-0.3,2.6,0.1,1.2,1.1c-1.9,1.4-5,2.8-9.4,4.3c-6.3,1.6-15.1,4.2-26.4,7.8
		c-5.9,1.4-15.8,4.1-29.9,8.2c-6,2.2-11.2,4.7-15.6,7.7L60.9,337.1z"/>
	<path class="st1" d="M63.4,336.3c13.1-30.7,20-46,20.7-46.1c7-12.8,13.8-21.4,20.3-25.9c13.7-11.4,27.4-18.6,41.1-21.4
		c8.3-2.5,19.9-2,35.1,1.4c0.4,0.4,0.1,0.8-1,1.2c-8.5,1.4-13.7,2.6-15.5,3.6c-6.4,2.7-13.7,6.2-21.9,10.5
		c-6,2.9-17.1,10.7-33.1,23.3c-4.4,3.5-7.7,7.6-9.8,12.1c-2.5,4.3-6.4,14.3-11.6,30.1c-0.9,2.1-1.7,3.8-2.6,5
		c-0.1,1.6-5.9,5.2-17.5,10.8L63.4,336.3z"/>
	<path class="st1" d="M384.4,567.3c47.6-25.5,77.1-50.3,88.4-74.2c7.9-14.7,11.6-28.2,11-40.4c2-9.2-2.8-22.9-14.3-40.9
		c-0.3-1.2,0.6-1.8,2.6-2c17.4,0.6,27.7,8.2,30.6,23c2.3,7.8,2.7,15.5,1,23.1c1.4-0.3-4.5,14.5-17.6,44.6c-1.8,6-2.3,11.4-1.7,16.4
		c1.2,7.4,4,13.8,8.3,19.2l27,27.6L384.4,567.3z"/>
	<path class="st2" d="M234.2,543.8c-66,14.1-101,20.4-105.1,19c-22.9,1.4-40.2-1.5-51.9-8.6c-10.3-5.5-16-16.5-16.9-32.8
		c-0.3-4.5,0.1-10.9,1.1-19.3c5.9-25.7,8.4-39.6,7.4-41.8c-7.8-17.9-10.9-41.8-9.4-71.6c0.2-2-2.4-8-7.7-18.2
		c0.7-4.9,4.7-10.1,11.8-15.7c0.8-0.3,1.5,0.6,2,2.7c-1.1,10.1-0.5,16.8,1.7,20.3c8.2,17.1,16.5,31.5,25.1,43.3
		c2.4,4.7,4,8.7,4.9,12c1.7,6.2,2.5,13.3,2.3,21.3l-4.2,42.2c0.7,7.7,4.6,16.1,11.5,25.2c19.4,19.9,41.7,20.5,67,2.1
		c6.9-7.8,11.4-15.9,13.6-24.1c0.8-3,1.2-5.8,1.2-8.7c-0.5-19-0.3-31,0.6-35.8c3.5-16.9,6.1-24.5,7.7-23c1-0.1,1.7,2.6,2.1,8.1
		c-1.1,24.8-1.1,37.8,0.1,39c0,3.6,3.4,13.8,10.2,30.4l6.3,23L234.2,543.8z"/>
	<path class="st2" d="M283.8,187.4l-5.8,1.4c-15.4,4-31.5,9.5-48.2,16.6c-13.3,6.9-33.3,18.9-60,36c-1.4,0.6-3.4,1.2-6,1.6
		c-11.1,0.6-18.3,1.3-21.6,2c-12.4,3.5-20.9,6.2-25.6,7.9c-0.7,0.3-1,0.5-0.8,0.5l4-1.1l-9.7,4.2C99.5,263.8,93.7,268,92.9,269
		c-6.1,5-10.1,9.3-11.9,12.8c-0.9,1.8-1.3,3.3-1.1,4.7c3.9-6.3,9.4-11.6,16.2-15.8l2.3-1l30.3-9c5-0.4,13.3-1.9,24.9-4.6
		c11.8-1.2,20.1-1.8,25-1.7c2.4,0.5,5.3,2.8,8.8,7c8.1,12.3,16.4,23.4,25,33.5c3.4,3.5,6.4,5.5,8.9,6c0.7-0.1,0.9-0.8,0.8-1.8
		c-7.1-20-10.9-32.5-11.3-37.6c-1-11.6,0-19,3-22.2c1.2-2.1,3.8-4.8,7.9-8.1c16.1-10.6,31.2-21.7,45.1-33.3L283.8,187.4z"/>
	<path class="st2" d="M73.7,604.3c23.6,14.5,47.2,19.7,70.8,15.8c28.3-7.2,46.7-12.8,55.3-16.6c3.2,0.1,19.2-8.7,47.7-26.6
		c6.9-3.2,13.1-4.8,18.6-4.7c4.3-4.4,23.3,4.7,56.7,27.1c13.3,3.3,22.7,4.9,28,4.7c26.8-0.1,43.2-1.6,49.2-4.5l80.3-35.6
		c45.9,23.5,93.6,28.9,143.1,16.2c-11.1,5.1-17.9,11.1-20.4,18l-33.5,140.7l-40.9,134.8l-2.8,20.5c-4.6,5.4-13.2,10-25.7,13.7
		c-41.5,14.2-88,23.1-139.7,26.9c-91.3-0.8-143-6.7-155.1-17.7c-47.5-22.5-73-83.7-76.4-183.6L73.7,604.3z"/>
	<path class="st2" d="M219.6,594.7c-5.8,9.2-32.7,18.1-80.8,26.6c-8.1,0.3-15.9-0.5-23.3-2.4l-45.9-14.8l7.9,54.1l47,183.1
		c14.5,47.9,23.1,69.9,25.8,66c9.9,12.9,39.7,23.9,89.4,33c25.6,5.9,60.9,8.6,105.8,8.2c67.4-6.9,121.5-24.2,162.3-51.7L219.6,594.7
		z"/>
	<path class="st2" d="M546.6,673.4c15.1-18.7,28.2-37.8,39.2-57.4c3.7-2.9,5.5-0.9,5.3,6.1c-2.6,29.1-5.5,49.9-8.7,62.4
		c-3.7,17.3-10.3,42.5-19.8,75.6c-4.4,22.4-8.8,48.2-13.3,77.6l-10.5,51.7c-0.4,1.9-1.3,4.1-2.8,6.6c-23.9,17.5-73.1,28-147.4,31.6
		L546.6,673.4z"/>
	<path class="st3" d="M81.9,672.9c-14.1-45.2-17.9-69.1-11.2-71.6c-1-1.6,11.2,2.5,36.6,12.2c1.3,0.6,6.1,1.6,14.5,3.1
		c11.5,2.9,25.4,3,41.4,0.5c18.9-1.9,49.8-15.7,92.5-41.5c6.9-2.6,13.3-3.8,19.2-3.7c4-0.3,9.1,1.3,15.5,4.7
		c21.7,16.8,35.9,25.7,42.8,26.6c3.2,2.8,17.7,3.6,43.5,2.4c10-0.8,19.8-2.9,29.3-6.2c4.7-1.6,25.3-12.1,62-31.4
		c7.6-3.7,12.8-5.5,15.7-5.2c2.6-0.1,5.1,0.4,7.4,1.4c11.6,6.1,20.9,10.3,28,12.6c11.7,4,18.6,6.1,20.8,6.2c18.7,2.4,36.7,3,54.1,2
		c-2.1,2.2-14.1,4-36,5.2c-8.3,0.6-29.1-0.7-62.4-3.8c-7.4-0.2-12.7,0.1-15.7,0.8c-3.4,0.6-7.7,2.4-12.9,5.3
		c-19.2,14.4-33.4,23.7-42.6,27.8c-13.2,6.5-27,10.5-41.4,11.8c-14.4,1.8-33.3-1.4-56.9-9.6c-10.1-3.6-24.2-12.5-42.3-26.7
		c-4.6-2.3-8.5-3.5-11.9-3.5c-4.1,0.1-8.7,1.3-13.8,3.6c-32.6,20.3-56.6,32-72,35c-14,2.7-22.8,4-26.4,3.8
		c-15.3,0.3-32-0.7-49.9-2.9c-3.7-0.1-6.1,0-7.3,0.4c-12.7,4.6-15.8,29.9-9.4,76.1L81.9,672.9z"/>
	<path class="st4" d="M121.2,645.8c0,0.6,0.1,1.8,0.3,3.2c0.2,1.3,0.3,2.8,0.5,4.5c0.2,1.6,0.4,3.4,1,10.1
		c0.6,6.7,1.9,17.3,3.2,26.5c1.3,9.2,2.4,17.1,3.5,23.6c1,6.5,1.9,11.7,4.3,24.1c2.4,12.4,6.4,31.2,10.2,47.8
		c3.8,16.6,7.3,30.8,10.5,42.8c3.1,12,5.7,21.7,7.5,27.8c1.7,6,2.9,9.7,4,13.2c1.2,3.5,2.4,6.8,3.7,9.9c1.3,3.1,2.7,5.9,3.5,8.1
		c0.8,2.1,0.8,2.1,0.4,0.7c0,0-0.4-3-0.6-6.2c-0.2-3.2-0.6-6.6-1-10.1c-0.4-3.5-0.9-7.2-1.5-11c-0.5-3.8-1.7-12.3-3.4-23
		c-1.7-10.7-3.9-23.7-6.7-38.9c-2.8-15.2-6.5-32.6-11-52.2c-4.5-19.6-5.5-23.7-6.9-29.2c-1.3-5.5-3-12.3-5-20.4
		c-2-8.1-4.4-17.6-7.4-28.3c-3-10.7-3.6-12.6-4.2-14.3c-0.6-1.7-1.3-3.2-1.9-4.5c-0.7-1.3-1.3-2.5-1.7-3
		C121.6,645.6,121.4,646.3,121.2,645.8z"/>
	<path class="st4" d="M139.9,870.9c0.1-0.8,0.1-2.6,0-4.9c-0.1-2.3-0.3-5.1-0.5-8.5c-0.3-3.3-0.6-7.2-1.4-11.6
		c-0.8-4.4-1.9-9-3-14.3c-1.1-5.3-2.4-11.4-3.7-18.3c-1.3-6.9-2.8-14.5-3.9-20.2c-1.2-5.7-2-9.2-3.2-13.5c-1.1-4.2-2.5-9.2-4.3-14.9
		c-1.7-5.7-3.8-12.1-5.7-18.4c-1.9-6.3-3.8-12.7-5.9-19.4c-2.1-6.7-4.4-13.8-7-21.2c-2.6-7.4-5.4-15.2-7.7-21.4
		c-2.3-6.3-3.9-10.7-5.4-14.7c-1.5-4.1-2.9-7.8-4.3-11.1c-1.4-3.3-2.7-6.3-3.3-8.4c-0.6-2.1-0.6-2.1-0.3-0.7c0,0,0.2,3,0.4,6.4
		c0.1,3.4,0.6,7.1,1.2,11.2c0.6,4.1,1.4,8.5,2.4,13.3c1,4.8,3,13.1,4.9,20.9c1.9,7.8,3.7,15.3,5.4,22.3c1.7,7,3.3,13.6,4.7,20
		c1.5,6.3,3.6,13.4,5.6,19.6c1.9,6.1,3.6,11.5,5.2,16.1c1.5,4.6,2.8,8.4,3.7,11.4c0.9,3,3,11,5,18.3c2,7.3,4,13.9,5.9,19.7
		c1.9,5.8,3.7,10.8,5.3,15c1.7,4.1,2.7,8,3.7,11.6c1,3.6,2,6.6,2.9,9.2c0.9,2.5,1.7,4.5,2.3,5.3C139.4,871,139.7,870.2,139.9,870.9z
		"/>
	<path class="st5" d="M87.7,666.6c5.2,3.2,16.4,7,33.7,11.6c33.3,4.4,57.3,6.9,72.1,7.2c35.5,1.9,85.2,1.3,149.2-1.7
		c84.6-7.6,126.2-12.2,124.8-13.8c16.4-3.5,29.9-7.1,40.4-10.8c51.5-19.9,78-31.4,79.5-34.4c1.7-0.8,2.9-0.1,3.7,1.9
		c2,0.4-3.5,19.4-16.7,56.9c-2.4,5.5-5.8,9.7-10,12.6c-38.3,21.7-78.2,35-119.6,39.8l-95,8.3c-2.1,0.3-10,0.6-23.7,0.9l-82.3-0.8
		c-21.3-1-37.7-2.5-49.3-4.6c-38.3-7.8-66-15.7-83.2-23.6c-6.1-2.2-13.4-14.5-22-36.9L87.7,666.6z"/>
	<path class="st4" d="M178.8,896.5c-0.1-1.6-0.8-4.4-1.6-7.2c-0.8-2.8-1.5-5.5-2.2-8.2c-0.7-2.7-1.3-5.4-3.9-19.3
		c-2.6-13.9-7.7-38.8-17.7-90.2c-10.1-51.4-12.5-59.9-14.6-66.8c-2.1-6.9-3.8-12.6-5.2-17c-1.3-4.5-2.2-7.7-2.7-9.8
		c-0.5-2.1-1.2-4.5-1.9-7.2c-0.7-2.8-1.6-6-2.5-9.8c-1-3.8-2.1-8-3.4-11.4c-1.3-3.4-1.3-3.4-1-1.1c0,0-1,4.9-0.9,9.2
		c0.1,4.3,0.3,8,0.6,11.3c0.3,3.3,0.6,6.1,0.8,8.1c0.2,2,0.6,4.7,1.2,8.6c0.6,3.9,1.6,8.9,2.8,15.2c1.3,6.3,2.8,13.8,8.4,43.6
		c5.5,29.8,16.4,81.2,23.9,105.8c7.5,24.6,8.6,27.5,9.8,30.1c1.2,2.6,2.4,5.2,3.9,7.8c1.4,2.5,3,5,4.1,6.1
		C178.4,896.8,178.2,895.2,178.8,896.5z"/>
	<path class="st4" d="M210.7,896.5c0.1-2.8-0.9-7.3-1.9-11c-0.9-3.7-1.7-6.6-2.2-8.6c-0.5-2.1-0.8-3.3-4.1-18.7
		c-3.3-15.4-10.5-45.4-11.6-50.3c-1.1-4.9-2.5-11-4.3-18c-1.8-7-3.7-15.1-6-24.3c-2.3-9.1-5-19.3-5.6-21.5
		c-0.6-2.3-1.5-5.9-2.6-10.9c-1.1-5-2.6-11.4-4.3-19.1c-1.8-7.7-3.9-16.8-4.5-18.8c-0.6-2-1.5-5-2.9-9.1c-1.3-4.1-3.1-9.2-5.7-13.3
		c-2.6-4.1-2.6-4.1-1.8-1.1c0,0-1.3,6.7-0.5,11.7c0.8,5,1.5,8.8,2,11.4c0.5,2.7,0.7,4.1,1.7,12.8c1.1,8.8,2.1,16.2,3,22.2
		c0.9,6,1.6,10.8,2.2,14.1c0.6,3.4,1.1,5.4,3.3,15.3c2.2,9.9,4.4,18.7,6.3,26.5s3.6,14.5,5.2,20.1c1.6,5.6,2.9,10.3,12.6,39.6
		c9.7,29.3,10,30.1,10.6,31.7c0.7,1.6,1.7,3.8,3.1,6.8c1.4,3,3.3,6.6,4.9,8.5C210.2,896.7,209.8,894.1,210.7,896.5z"/>
	<path class="st4" d="M186.2,660.6c0,0.4,0,1.1,0,1.9c0,0.7,0.1,1.4,0.1,2.1c0.1,0.7,0.1,1.4,0.3,5c0.2,3.6,0.8,10.2,1.4,14.3
		c0.6,4,1.3,7.8,1.8,11.4c0.6,3.6,1.1,7,1.5,10.2c0.4,3.2,0.9,6.1,1.1,8.8c0.3,2.7,0.6,6.1,1.1,10.1c0.5,4,1.1,8.7,1.8,13.9
		c0.7,5.3,1.5,11,6.6,48.3c5.1,37.3,6,42.1,6.9,46.9c0.9,4.8,1.9,9.5,2.9,14.3c1,4.7,2.1,9.4,3.2,14c1.1,4.6,3.3,15.9,6.4,24.4
		c3.1,8.4,3.1,8.4,2.4,2.6c0,0,2.6-12.1,1.8-20.4c-0.7-8.3-1.4-13.1-2-17.8c-0.6-4.7-1.2-9.5-1.8-14.2c-0.6-4.8-1.2-9.5-3.8-30.6
		c-2.6-21-8.1-58.3-9.2-64c-1.2-5.7-2.2-10.7-3.1-15.1c-0.9-4.4-1.7-8.1-2.3-11.2c-0.6-3.1-1.2-5.7-1.9-8.8
		c-0.7-3.1-1.6-6.4-2.6-9.8c-1-3.4-2-7-3.2-10.8c-1.2-3.8-2.5-7.6-4.4-13.8c-1.9-6.3-2.2-7-2.5-7.6c-0.3-0.6-0.6-1.3-0.9-1.9
		c-0.3-0.6-0.7-1.3-0.9-1.6C186.7,660.5,186.3,661,186.2,660.6z"/>
	<path class="st4" d="M234.6,644.9c-0.9,3-1.2,8.8-1.5,11.7c-0.2,2.9-0.4,5.8-0.5,8.5c-0.1,2.7-0.1,5.3-0.1,7.8c0,2.5,0,4.7-0.1,8.3
		c-0.1,3.6-0.2,6.7-0.3,9.4c0,2.7-0.1,4.9-0.1,6.6c0,1.7,0,3,0.2,9.3c0.2,6.3,0.4,12.3,0.7,18.1c0.3,5.7,0.6,11.2,0.9,16.4
		c0.3,5.2,0.7,9.7,1.1,25.3c0.4,15.6,0.7,21.8,0.9,26.5c0.2,4.7,0.2,8.3,0.3,11.7c0.1,3.4,0.2,6.7,0.4,9.8c0.2,3.1,0.4,6.1,1.9,18.1
		c1.5,12,4.5,33.1,9.3,51.9c4.9,18.8,4.9,18.8,3.3,6.1c0,0,1.8-26,0.6-47.1c-1.2-21.1-1.2-23.7-1.3-26.6c-0.1-2.9-0.1-6-0.2-9.2
		c-0.1-3.2-0.2-6.6-0.2-10.3c0-3.7-0.4-9.8-0.7-20.6c-0.3-10.7-0.7-26.4-1.2-31.5c-0.5-5.1-1.1-10.4-1.7-15.9
		c-0.6-5.5-1.3-11.3-2-17.4c-0.7-6.1-1.5-12.4-1.6-13.7c-0.1-1.3-0.3-3.1-0.5-5.4c-0.2-2.3-0.4-5.1-0.7-8.3c-0.3-3.3-0.6-7.1-1-9.5
		c-0.3-2.4-0.7-4.9-1-7.4c-0.3-2.6-0.7-5.3-1.1-8.1c-0.4-2.8-0.8-5.9-2-8.7C235.1,644.9,234.8,647.8,234.6,644.9z"/>
	<path class="st4" d="M282.7,645.3c-0.3,0.6-0.5,1.6-0.7,2.4c-0.2,0.8-0.3,1.5-0.4,2c-0.1,0.5-0.1,0.8-0.2,1.6
		c-0.1,0.8-0.2,2.1-0.3,3.2c-0.1,1.1-0.2,2-0.2,2.8c-0.1,0.7-0.1,1.3-0.1,3c0,1.7,0,4.8,0.1,8.2c0,3.4,0.1,7,0.1,10.9
		c0,3.9,0.1,8,0.1,10.7c0,2.7,0,4.2,0,6.5c0,2.2-0.1,5.1-0.1,8.7c0,3.6-0.1,7.8-0.1,10.9c0,3,0,4.8,0,7.3c0,2.5,0.1,5.6,0.2,9.4
		c0.1,3.8,0.2,8.3,0.3,11.1c0.1,2.8,0.1,3.6,0.1,4.5c0,0.9,0.1,2,0.1,3.3c0,1.2,0.1,2.6,0.1,3.5c0,0.9,0,1.4,0.1,3.2
		c0,1.8,0.1,4.7,0.1,8.6c0,3.9,0.1,8.9,0.2,19.7c0.1,10.7,0.8,26.5,0.9,28.5c0.1,2,0.2,4.1,0.3,6.3c0.1,2.2,0.3,4.5,0.5,6.9
		c0.2,2.4,0.4,4.9,0.4,5.3c0,0.4,0.1,1,0.1,1.8c0,0.8,0.1,1.7,0.2,2.7c0.1,1.1,0.1,2.3,0.2,2.9c0,0.7,0.1,1.3,0.1,2
		c0,0.7,0.1,1.3,0.1,1.9c0,0.6,0,1.2,0.1,3.8c0.1,2.5,0.1,4.7,0.2,6.4c0,1.7,0.1,3.1,0.1,4c0,0.9,0.1,1.4,0.1,1.7
		c0,0.3,0,0.9,0.1,1.9c0,1,0.1,2.3,0.2,4c0.1,1.7,0.2,3.7,0.8,10.1c0.6,6.4,0.9,8.6,1.2,10.4c0.3,1.9,0.6,3.5,0.8,4.9
		c0.2,1.4,0.5,2.6,0.7,3.6c0.2,1,0.3,1.6,0.5,2.3c0.1,0.7,0.3,1.3,0.4,2c0.1,0.7,0.3,1.4,0.3,2c0,0.5,0,0.5,0,0.2
		c0,0,0.1-0.7,0.3-1.4c0.2-0.7,0.4-1.4,0.5-2.1c0.1-0.7,0.3-1.4,0.4-2.1c0.1-0.8,0.3-1.9,0.4-3.2c0.2-1.3,0.3-2.8,0.4-4.6
		c0.1-1.7,0.2-3.7,0.6-7.9c0.3-4.2,0.7-10.6,0.9-12.4c0.1-1.9,0.3-3.4,0.3-4.6c0.1-1.2,0.1-2,0.2-2.5c0-0.5,0.1-0.7,0.1-1.3
		c0-0.6,0.1-1.7,0.2-3.1c0.1-1.4,0.3-3.3,0.5-5.5c0.2-2.3,0.4-4.9,0.5-5.6c0-0.7,0.1-1.4,0.1-2.1c0-0.7,0.1-1.4,0.1-2.1
		c0-0.7,0.1-1.4,0.1-2.6c0-1.2,0.1-2.2,0.1-3.1c0-0.9,0-1.6,0.1-2.2c0-0.6,0-1.1,0-3.5c0-2.5,0-4.8,0-7c0-2.2,0-4.4,0.1-6.4
		c0-2,0-4,0-19.7c0-15.7-0.1-21.4-0.1-26c0-4.6-0.1-8.2-0.1-10.8c0-2.5-0.1-4.1-0.1-4.6c0-0.5-0.1-1.9-0.1-3.3
		c0-1.4-0.1-2.6-0.1-3.6c0-1.1-0.1-2-0.2-2.8c-0.1-0.8-0.4-5.7-0.7-9.9c-0.3-4.2-0.6-7.8-0.8-10.7c-0.2-2.9-0.4-5.1-0.5-6.6
		c-0.1-1.5-0.4-6.2-0.7-10.2c-0.3-4-0.6-7.4-0.8-10.1c-0.2-2.7-0.4-4.7-0.5-6.1c-0.1-1.4-0.7-5.7-1.2-9.8c-0.5-4.1-1.1-7.9-1.7-11.4
		c-0.6-3.5-1.2-6.8-1.8-9.8c-0.6-3-0.7-3.3-0.8-3.9c-0.1-0.6-0.2-1.3-0.4-2.3c-0.1-1-0.3-2.1-0.6-3.5c-0.2-1.3-0.3-1.5-0.3-1.9
		c-0.1-0.3-0.2-0.9-0.3-1.6c-0.1-0.7-0.3-1.6-0.5-2.2C283.1,645.3,282.6,645.9,282.7,645.3z"/>
	<path class="st4" d="M340.8,647.5c-0.5,0.5-1.3,1.9-2.1,3.9c-0.8,1.9-1.6,4.4-2.3,7.3c-0.8,2.9-1.5,6.3-1.9,8.5
		c-0.4,2.2-0.7,3.5-0.9,5.2c-0.2,1.8-0.5,4.1-0.7,7c-0.3,2.9-0.5,6.4-0.7,8.6c-0.1,2.2-0.2,2.9-0.2,3.8c0,0.9-0.1,2.1-0.2,3.4
		c-0.1,1.4-0.1,3-0.2,5c-0.1,2-0.2,4.1-0.3,5.9c-0.1,1.8-0.1,3.3-0.2,4.4c-0.1,1.1-0.1,2-0.2,7.2c-0.1,5.3-0.2,15.2-0.3,17.3
		c-0.1,2.2-0.1,4.2-0.1,6c0,1.8-0.1,3.4-0.1,4.8c0,1.4,0,2.6,0,3.4c0,0.7,0,1.4,0,2.2c0,0.7,0,1.4,0.1,2.2c0,0.7,0.1,1.6,0.2,3.7
		c0.1,2.2,0.2,4,0.3,5.6c0.1,1.6,0.1,2.9,0.2,3.8c0,1,0,1.7,0.1,2.2c0,0.5,0,1,0,1.6c0,0.6,0,1.2,0,1.8c0,0.7,0,1.3,0,3.4
		c0,2,0,3.9,0,5.6c0,1.7,0,3.3,0,4.8c0,1.4,0,2.7,0,3.3c0,0.6,0,1.1,0,1.7c0,0.6,0,1.1,0,1.7c0,0.5,0,1.1,0.1,2.4c0,1.3,0.1,3,0.2,5
		c0.1,2,0.3,4.4,0.4,7.2c0.2,2.8,0.4,5.9,0.4,6.4c0,0.5,0.1,0.9,0.1,1.4c0,0.5,0,0.9,0.1,1.4c0,0.5,0.1,0.9,0.1,1.4
		c0,0.5,0,0.9,0.1,1.4c0,0.5,0,0.9,0.1,1.3c0,0.4,0,0.9,0.1,5.9c0.1,5,0.1,6,0.2,6.9c0,0.9,0.1,1.6,0.1,2.3c0,0.7,0.1,1.2,0.1,1.7
		c0,0.5,0.1,1.1,0.1,1.8c0.1,0.7,0.1,1.6,0.2,2.5c0.1,1,0.2,2,0.3,3.2c0.1,1.2,0.3,3.1,0.6,5.1c0.2,2,0.5,4.4,0.8,7
		c0.3,2.6,0.6,5.5,0.9,8.6c0.3,3.1,0.4,3.7,0.5,4.5c0.1,0.7,0.1,1.6,0.2,2.5c0.1,1,0.2,2,0.3,3.2c0.1,1.2,0.2,2.7,0.4,4.1
		c0.1,1.4,0.3,2.7,0.4,4c0.1,1.2,0.3,2.4,0.4,3.4c0.1,1,0.5,3.2,0.8,5c0.3,1.9,0.7,3.4,1,4.7c0.3,1.3,0.6,2.2,0.6,2.8
		c0,0.6,0,0.6,0,0.2c0,0,0-0.8,0.2-1.8c0.2-1.1,0.4-2.4,0.7-4.1c0.3-1.7,0.5-3.6,0.7-5.2c0.2-1.6,0.3-2.6,0.4-3.8
		c0.1-1.1,0.2-2.4,0.4-3.7c0.1-1.3,0.3-2.8,0.4-4.2c0.1-1.4,0.2-2.6,0.3-3.6c0.1-1,0.1-2,0.2-2.8c0-0.8,0.1-1.5,0.1-3.5
		c0.1-2,0.2-5.1,0.2-7.9c0-2.8,0.1-5.4,0.1-7.7c0-2.3,0-4.3,0-5.7c0-1.4,0-2.6,0-3.6c0-1,0-1.9,0-2.7c0-0.8,0-1.5,0-1.9
		c0-0.5,0-0.9,0.1-1.5c0-0.6,0.1-1.2,0.1-2c0-0.8,0.1-1.7,0.3-4.6c0.2-3,0.4-8,0.5-8.5c0-0.5,0-1,0.1-1.5c0-0.5,0-1,0-1.5
		c0-0.5,0-1,0-1.5c0-0.5,0-1,0-1.5c0-0.5,0-1,0-1.5c0-0.5,0-1,0-4c0-3,0-5.7-0.1-7.9c0-2.3,0-4.2,0-5.7c0-1.5,0-2.6,0-3.2
		c0-0.5,0-1,0-1.6c0-0.5,0-1.1,0-1.6c0-0.5,0-1,0-2.4c0-1.4,0-2.9,0-4.5c0-1.7,0-3.4,0-5.4c0-1.9,0-4,0-4.7c0-0.7,0-1.4,0-2
		c0-0.6,0-1.2,0-1.7c0-0.5,0-1,0-1.9c0-0.9-0.1-2.1-0.1-3.6c-0.1-1.5-0.2-3.2-0.3-5.2c-0.1-2-0.3-4.2-0.3-4.9c0-0.6,0-1.3-0.1-2
		c0-0.7,0-1.4-0.1-2.1c0-0.7-0.1-1.4-0.1-2.6c0-1.3-0.1-2.7-0.1-4.4c-0.1-1.6-0.1-3.5-0.2-5.5c-0.1-2-0.1-4.4-0.7-14.3
		c-0.5-9.9-0.6-10.4-0.6-11.3c-0.1-0.9-0.1-2.1-0.2-3.7c-0.1-1.6-0.1-3.5-0.2-5.7c-0.1-2.2-0.2-4-0.3-5.6c-0.1-1.5-0.2-2.8-0.2-3.9
		c-0.1-1-0.1-1.9-0.1-2.4c0-0.6-0.2-4.4-0.4-7.7c-0.2-3.2-0.3-5.9-0.3-8c-0.1-2.1-0.1-3.5-0.1-4.4c0-0.9,0.1-4.6,0.2-7.9
		c0.1-3.2,0.1-6,0.2-8.3c0.1-2.3,0.2-4.1,0.1-5C341.2,647.7,340.6,648.1,340.8,647.5z"/>
	<path class="st4" d="M404,646.5c-0.7,1-1.6,3.3-2.4,6c-0.8,2.6-1.4,5.6-1.9,8.8c-0.5,3.2-1,6.8-1.6,13.1
		c-0.6,6.3-1.4,14.5-1.9,21.6c-0.6,7.1-1,13-1.3,17.9c-0.3,4.8-0.6,8.5-1.1,16c-0.6,7.5-1.4,19.8-1.5,21c0,1.2-0.1,3-0.1,5.3
		c0,2.3-0.1,5.3-0.1,8.8c0,3.5-0.1,7.6-0.2,10.4c-0.1,2.8-0.1,5.4-0.2,7.5c0,2.2-0.1,4-0.1,5.5c0,1.5,0,2.7,0.1,21.4
		c0.1,18.8,0.1,19.5,0.1,20.2c0,0.7,0,1.4,0,2.1c0,0.7,0,1.4,0,2.1c0,0.7,0,1.4,0,2.2c0,0.8,0,1.7-0.1,2.6c0,1-0.1,2-0.1,3.1
		c0,1.1-0.3,5.5-0.5,9.8c-0.2,4.3-0.4,8.5-0.5,12.6c-0.1,4.1-0.2,8-0.3,11.9c0,3.8-0.1,4.9,0,5.9c0,1,0.1,2,0.1,3.1
		c0,1,0.1,2.1,0.2,3.1c0.1,1.1,0.4,4.5,0.7,7.4c0.3,2.9,0.7,5.3,1,7.1c0.3,1.9,0.6,3.2,0.6,3.9c0,0.7,0,0.7,0,0.2c0,0,0.1-1,0.5-2.5
		c0.4-1.5,0.8-3.5,1.3-6c0.5-2.5,0.9-5.6,1.2-7.8c0.3-2.2,0.4-3.2,0.6-4.2c0.1-1,0.3-2,0.4-3c0.1-1,0.3-1.9,0.7-4.3
		c0.4-2.3,1-6.1,1.6-10.1c0.6-3.9,1.2-8,1.9-12.2c0.6-4.2,1.3-8.5,1.7-11.3c0.4-2.8,0.6-4,0.7-5c0.1-1.1,0.2-2,0.3-2.9
		c0.1-0.9,0.2-1.7,0.2-2.5c0.1-0.8,0.1-1.5,0.2-2.2c0.1-0.7,0.1-1.5,0.1-2.2c0-0.7,0.1-1.5,0.5-11.2c0.4-9.8,0.9-28.5,0.9-29.8
		c0-1.3,0.1-2.9,0.1-4.8c0-1.9,0.1-4.2,0.2-6.9c0.1-2.6,0.1-5.7,0.2-9.6c0-3.9,0.1-7.3,0.1-10c0-2.7,0.1-4.8,0.1-6.3
		c0-1.5,0.1-2.3,0.3-14.6c0.3-12.3,0.2-15.3,0.2-19.4c0-4.1-0.1-9.3-0.2-15.7c-0.1-6.3-0.3-13.8-0.6-22.4
		c-0.3-8.6-0.5-12.3-0.6-15.6c-0.1-3.4-0.2-6.5-0.3-9.3c-0.1-2.8-0.1-5.4-0.4-6.7C404.5,646.6,403.8,647.6,404,646.5z"/>
	<path class="st4" d="M463.7,640.8c-0.1,0.2-0.2,0.6-0.4,1c-0.1,0.4-0.3,0.9-0.5,1.4c-0.2,0.5-0.4,1.1-1.1,2.8
		c-0.7,1.7-1.7,4.5-2.6,6.9c-0.8,2.4-1.5,4.5-2.1,6.4c-0.5,1.8-0.9,3.3-6.4,29.2c-5.5,25.9-14.1,76.6-15,82.9
		c-0.9,6.3-1.5,11.6-2,15.8c-0.5,4.3-0.8,7.5-1,9.8c-0.2,2.3-0.3,3.4-0.5,6.2c-0.3,2.8-0.5,6.4-0.8,10.6c-0.3,4.2-0.5,9.1-0.8,14.7
		c-0.2,5.6-0.4,11.8-0.9,18.4c-0.5,6.6-0.8,13-1,18.9c-0.2,6-0.2,11.6,0.5,15.8c0.8,4.1,0.8,4.1,1,1.5c0,0,2.9-5.1,4-10.7
		c1.1-5.6,2.3-11.6,3.5-17.9c1.2-6.3,2.4-13.1,3.3-19.2c0.8-6.1,1.5-11.4,2.1-16c0.6-4.6,1.1-8.5,1.6-11.7c0.5-3.2,0.8-5.8,1-7.3
		c0.2-1.5,0.6-4,1.1-7.5c0.5-3.5,1.1-8.1,1.9-13.7c0.7-5.6,1.6-12.1,7.7-63.2c6.1-51.1,6.2-52.4,6.4-53.9c0.1-1.6,0.4-3.5,0.6-5.8
		c0.3-2.3,0.5-4.9,0.8-7.9c0.3-3,0.3-3.7,0.3-4.3c0-0.6,0-1.2-0.1-1.7c0-0.5-0.1-1-0.2-1.2C464.2,640.8,463.7,641,463.7,640.8z"/>
	<path class="st4" d="M508,620.1c-1.4,2-3.6,8.3-6.3,17.7c-2.7,9.4-5.8,21.9-9.4,37.5c-3.6,15.6-7.6,34.3-11.8,58.6
		c-4.3,24.3-8.7,52-11.4,69.7c-2.7,17.7-4.7,32.4-6,44.3c-1.3,11.8-2,20.7-1.7,26c0.3,5.3,0.3,5.3,0.8,1.9c0,0,3.4-6.4,5.9-15.9
		c2.6-9.5,5.7-22.1,9.3-37.5c3.6-15.5,7.7-34,12.4-61.8c4.7-27.7,8.2-48.6,10.8-66.5c2.6-17.9,4.5-32.7,5.8-44.5
		c1.3-11.8,2.1-20.4,1.8-23.9C508.5,620.2,507.5,622.3,508,620.1z"/>
	<path class="st4" d="M546,615c0,0.2,0,0.9-0.2,2.2c-0.2,1.2-0.6,2.9-1.2,5.1c-0.6,2.2-1.3,4.9-7.4,27.4
		c-6,22.5-15.9,64.6-25.9,125.6c-10,61-10,61-1.1,20.8c0,0,24.7-78.9,31.1-121.8c6.4-43,6.6-46.2,6.7-49c0-2.7,0-4.9-0.3-6.6
		c-0.2-1.7-0.6-2.8-0.8-3.3C546.4,614.7,546.1,615.2,546,615z"/>
	<path class="st4" d="M587.7,643.8c-18,42.8-41.9,131.7-48.1,169.3c-6.2,37.6-6.6,43.1-6.7,47.5c-0.2,4.4-0.2,7.8-0.1,10.2
		c0.1,2.5,0,3.9-0.1,4.5c-0.1,0.6-0.1,0.6,0,0.2c0,0,0.2-0.8,0.9-2.5c0.7-1.7,1.6-4.3,2.7-7.9c1.1-3.6,2.3-8.1,8-28.9
		c5.7-20.8,14.8-57.4,23.5-102.7C588.2,643.9,575.9,688.2,587.7,643.8z"/>
	<path class="st4" d="M152.4,891.4c0.9,1.8,4.4,5.1,9.8,8.5c5.5,3.5,12.8,7.1,22,11c9.2,3.9,20.2,7.9,30,10.9
		c9.8,3,16.4,4.4,22.4,5.7c6,1.3,11.5,2.3,16.5,3.1c5,0.8,9.5,1.3,21.7,2.6c12.2,1.3,32.6,3.3,35.7,3.5c3.1,0.2,6.3,0.3,9.7,0.4
		c3.4,0.1,6.9,0.2,10.7,0.2c3.7,0,7.6,0,11.1,0c3.5,0,8.1-0.2,13.9-0.5c5.8-0.3,12.7-0.7,20.9-1.3c8.1-0.6,17.5-1.2,21.7-1.8
		c4.1-0.5,8.6-1.3,13.5-2.1c4.9-0.9,10.1-2,15.8-3.4c5.7-1.4,11.8-3,21.8-6.1c10-3.1,19.4-6.6,28.1-10.5c8.7-3.9,16.7-8.3,21.7-12.7
		c5.1-4.4,5.1-4.4,1.2-2.5c0,0-9.1,0.9-17.5,3.9c-8.4,2.9-17.4,5.6-26.9,8c-9.5,2.4-19.7,4.6-25.5,5.7c-5.9,1.1-11.3,2.1-16.3,3
		c-5,0.9-9.5,1.7-13.6,2.3c-4.1,0.6-7.6,1.1-16.4,1.7c-8.8,0.6-16.5,1.1-22.9,1.5c-6.5,0.4-11.7,0.6-15.8,0.7
		c-4,0.1-6.9,0.1-10.7,0.1c-3.8,0-7.4,0-10.8-0.1c-3.4-0.1-6.6-0.2-9.6-0.3c-3-0.1-5.6-0.3-26-2.4c-20.3-2.1-24.2-2.5-28.6-3.1
		c-4.4-0.6-9.5-1.4-15.1-2.2c-5.6-0.8-11.8-1.8-18.3-2.8c-6.6-1-18.8-4.1-29.4-7c-10.6-2.8-19.3-5.4-26.3-7.7
		c-7-2.3-12.2-4.3-14.5-4.9C152.7,891.1,153.7,892.6,152.4,891.4z"/>
	<path class="st4" d="M256.9,565.5c3,5.2,11,13,19.3,19.5c8.3,6.5,16.8,11.9,25.4,16.2c8.6,4.3,17.4,7.6,25.6,9.8
		c8.3,2.2,16.8,3.5,25.9,3.8c9.2,0.2,18.9-0.5,29.3-2c10.4-1.6,21.4-4,30.5-6.5c9-2.5,15.7-5.1,22-8.5c6.4-3.4,12.5-7.5,18.3-12.4
		c5.8-4.9,11.3-10.7,16.1-18.1c4.8-7.4,8.2-15.4,11.1-23.7c2.9-8.4,5.4-17.2,7.3-26.5c1.9-9.3,3.1-19.1,3.9-26.6
		c0.7-7.5,0.7-7.5-0.3-2.6c0,0-3.7,9.4-7,18.4c-3.3,9-6.6,17.5-10,25.5c-3.4,8-7.1,15.6-10.8,22.3c-3.7,6.8-8.5,11.7-13.7,16.3
		c-5.3,4.6-10.5,8.7-15.9,12s-10.9,6-16.6,8c-5.7,2-16.7,4.9-26.9,6.9c-10.2,2-19.7,3.2-28.4,3.6c-8.7,0.3-16.7-0.1-24-1.2
		c-7.3-1.1-15.5-2.9-23.7-5.5c-8.2-2.7-16.5-6.2-25.1-10.8c-8.6-4.5-17.4-9.9-22.5-12.1C257.3,565.1,261.2,569.2,256.9,565.5z"/>
	<path class="st4" d="M429.9,599.5c4.8-1.4,12.5-5.6,19.4-9c6.9-3.5,13-6.1,18.4-8c5.4-1.8,9.9-2.8,13.2-3.2c3.3-0.4,5.2-0.7,7-0.8
		c1.8-0.1,3.5-0.2,5.1-0.1c1.6,0,3,0.2,5.5,0.8c2.4,0.7,7.3,1.9,12.9,3.1c5.5,1.2,11.7,2.2,18.5,3.1c6.8,0.9,14.2,1.6,19.4,2.1
		c5.2,0.4,7.8,0.6,10.7,0.6c2.8,0,5.8-0.1,9-0.3c3.2-0.2,6.6-0.5,13.7-1.2c7.1-0.7,17.4-2.2,26.5-4.2c9.1-2,17-4.6,23.9-7.8
		c6.8-3.2,12.5-7.1,19.3-15c6.7-7.8,12.7-20.4,14.5-34.9c1.8-14.5-0.6-30.5-6.9-47.8c-6.3-17.3-16.7-35.9-26.5-50.4
		c-9.9-14.4-9.9-14.4-4.2-4.3c0,0,8.5,21.6,15,40.1c6.5,18.4,9.8,34.3,10,47.7c0.2,13.4-2.4,24.6-8.2,34.1
		c-5.8,9.5-9,12.4-13.8,15.2c-4.7,2.9-10.8,5.4-18.2,7.5c-7.4,2.1-16.2,3.8-26.3,5c-10.1,1.2-13.5,1.6-16.6,1.8
		c-3.1,0.3-5.9,0.4-8.6,0.5c-2.6,0.1-5,0-7.2-0.1c-2.2-0.1-9.9-0.8-16.9-1.6c-7-0.8-13.4-1.6-19.1-2.5c-5.7-0.8-10.8-1.7-15.3-2.7
		c-4.6-1-7.2-1.2-9.2-1.2c-2,0-4.1,0.2-6.2,0.4c-2.1,0.3-4.3,0.6-6.4,1.1c-2.2,0.5-7,1.5-12.5,3.5c-5.5,2.1-11.4,5-17.7,9
		c-6.3,4-12.9,9-15.8,12.6C429.6,599.1,433.7,596.7,429.9,599.5z"/>
	<path class="st4" d="M615.5,304.5c0.1,0.7,0.6,2.4,1.2,4.8c0.6,2.4,1.4,5.5,2.4,9.3c1,3.8,2.2,8.3,3.1,11.7
		c0.9,3.4,1.4,5.3,1.8,7.1c0.4,1.8,0.8,3.5,1.2,5.2c0.3,1.7,0.6,3.3,1,5.4c0.4,2.1,0.7,4.4,0.8,6.8c0.1,2.4-0.1,4.9-0.5,7.6
		c-0.4,2.6-0.9,5.4-2.9,11.1c-2,5.7-5.3,14.7-9.5,23.3c-4.2,8.7-9.2,17.1-15.1,25.3c-5.9,8.2-12.5,16.5-18.1,22.6
		c-5.5,6.1-5.5,6.1-1.4,2.5c0,0,9.4-6,17.5-13.1c8.1-7.1,15.1-15,21.1-23.5c6-8.5,11-17.6,14.7-27.3c3.7-9.7,4.4-13.5,4.7-16.8
		c0.3-3.3,0.4-6.5,0.2-9.6c-0.2-3.1-0.7-6.1-1.4-8.9c-0.7-2.8-1.2-4.4-1.7-6.1c-0.5-1.7-1.2-3.5-1.8-5.3c-0.7-1.8-1.4-3.6-2.1-5.5
		c-0.8-1.9-2.8-6.6-4.7-10.6c-1.9-4-3.6-7.4-5.2-10c-1.5-2.6-2.9-4.5-3.6-5.2C615.9,304.2,615.9,305,615.5,304.5z"/>
	<path class="st4" d="M587.8,283c-0.5-0.8-2.2-2.4-4.5-4.2c-2.3-1.8-5.2-3.8-8.7-6.1c-3.5-2.3-7.6-4.8-10.1-6.3
		c-2.5-1.5-3.7-2.1-5.7-2.9c-1.9-0.8-4.7-2-8.4-3.4c-3.7-1.4-8.2-3.1-13.3-4.5c-5.1-1.3-9.4-2.1-13.4-2.7c-4-0.6-7.7-1.2-11-1.6
		c-3.3-0.4-6.3-0.7-8.8-0.9c-2.5-0.2-4.8-0.2-7.2-0.1c-2.4,0.1-5,0.3-7.8,0.7c-2.7,0.4-5.6,0.9-7.8,1.2c-2.2,0.2-2.2,0.2-0.7,0.2
		c0,0,3,0.4,5.8,0.9c2.8,0.6,5.4,1,7.8,1.5c2.4,0.4,4.7,0.9,6.7,1.3c2.1,0.4,4.6,1.1,7.6,1.9c2.9,0.8,6.2,1.7,9.8,2.7
		c3.6,1,7.6,2.1,11.8,3.4c4.2,1.2,9.2,2.8,13.6,3.9c4.4,1.2,7.8,2.1,10.3,2.8c2.5,0.7,4.1,1.1,4.7,1.3c0.6,0.2,5.4,2.2,9.6,3.9
		c4.2,1.7,7.8,3.2,10.9,4.3c3.1,1.2,5.5,2.1,6.7,2.3C587.6,283.4,587.1,282.5,587.8,283z"/>
	<path class="st4" d="M420.2,214.3c1.6-0.2,5.2-1,9.8-1.7c4.6-0.7,10.4-1.4,17.3-2c6.9-0.6,14.9-1,21.4-1c6.5,0,11.2,0.7,15.9,1.8
		c4.7,1.1,9.3,2.5,14,4.4c4.6,1.8,9.3,4,13.9,6.6c4.6,2.6,9,5.1,12.6,7.3c3.6,2.2,6.5,4.2,8.6,5.7c2.1,1.6,3.4,2.7,5.6,5.6
		c2.2,2.8,5.9,7.4,9.3,11.4c3.4,4,6.4,7.3,9.1,10.1c2.7,2.8,5.1,5.1,17.5,15.3c12.4,10.2,35.5,28.3,37.1,29.7c1.6,1.4,3,2.7,4.3,3.8
		c1.2,1.2,2.3,2.3,3,3.1c0.7,0.8,0.7,0.8,0.4,0.2c0,0-0.1-1.5-0.8-3.1c-0.6-1.6-1.5-3.3-2.7-5.1c-1.2-1.8-2.7-3.8-23.1-24.9
		c-20.4-21.1-22.2-22.8-24.2-25.1c-2-2.3-4.5-5.2-7.3-8.8c-2.8-3.6-6-7.8-9.6-12.6c-3.7-4.8-5.4-6.8-7.7-8.7
		c-2.3-1.9-5.1-3.9-8.5-6.2c-3.4-2.2-7.5-4.7-12.3-7.4c-4.8-2.7-10.2-5.2-15.5-7.2c-5.4-2-10.7-3.6-16.1-4.7
		c-5.4-1.1-10.8-1.7-16.3-1.9c-5.5-0.2-14.7,1.2-22.4,2.7c-7.7,1.5-14.3,3.2-19.6,5c-5.4,1.8-9.5,3.8-11,5.1
		C420,213.9,421.6,213.6,420.2,214.3z"/>
	<path class="st4" d="M226.4,545.3c-2.3-3.7-7.3-9.8-11.4-16.1c-4-6.3-7-12.9-9-19.9c-2-7.1-2.9-14.6-3-21.5
		c-0.1-6.8,0.2-12.4,0.4-17.7c0.2-5.3,0.6-10.3,1.2-15.1c0.6-4.8,1.5-9.2,2.7-13.7c1.2-4.5,2.8-9.4,4.8-14.5
		c1.9-5.1,4.2-10.4,6.6-16c2.5-5.6,5-11.6,7.3-16.1c2.2-4.5,2.2-4.5,0.4-1.7c0,0-4.6,5-8.6,10.1c-4,5.1-7.5,10.2-10.4,15.3
		c-3,5.1-5.5,10.1-7.7,15c-2.2,4.9-3.8,9.6-5.1,14.6c-1.3,4.9-2.3,10.2-3.1,15.7c-0.7,5.5-1.1,11.3-0.9,17.4
		c0.2,6.1,1.2,15,3.5,23.2c2.3,8.3,5.8,15.8,10.4,22.5c4.7,6.7,10.5,12.5,14.4,14.4C226.1,545.6,223.1,542.7,226.4,545.3z"/>
	<path class="st4" d="M134.6,625.2c-4.7-2.8-14.3-6.4-23.6-10.2c-9.4-3.8-18.4-8-27.3-12.6c-8.8-4.6-17.4-9.8-23.9-14.3
		c-6.5-4.5-11.1-8.7-15.6-13.7c-4.5-5-8.8-11-12.8-17.9c-4.1-6.9-7.9-14.8-10.6-22c-2.7-7.2-4.1-13.2-4.6-19.4
		c-0.6-6.1-0.3-12.4,0.7-18.8c1.1-6.4,2.9-13,4.7-18.3c1.8-5.3,3.2-8.9,4.6-12.4c1.4-3.4,2.8-6.6,4.3-9.6c1.5-3,3-5.8,4.2-7.9
		c1.2-2.1,2.4-4.1,4.4-7.3c2-3.2,5-7.6,8.7-13.1c3.7-5.5,8.1-12.3,10.9-16.8c2.8-4.5,3.5-5.8,4.1-7.2c0.7-1.4,1.3-2.8,1.8-4.4
		c0.6-1.5,1.1-3.1,1.7-4.3c0.6-1.1,0.6-1.1,0.2-0.4c0,0-0.9,1.4-2,2.6c-1.1,1.2-2.2,2.4-3.2,3.5c-1,1.1-2,2.2-3,3.2
		c-0.9,1-7.2,7.5-12.3,13.2c-5.1,5.7-9.2,10.4-12.3,14.2c-3.1,3.8-5.3,6.6-6.5,8.4c-1.2,1.8-3.1,4.4-5,7.4c-1.9,3-3.8,6.2-5.6,9.7
		c-1.8,3.4-3.5,7.1-5.2,10.9c-1.7,3.9-4.6,11.2-6.4,18.7c-1.9,7.5-2.8,15-2.8,22.4c0,7.4,1,14.7,2.9,22c1.9,7.2,5.9,16.5,10.1,24.7
		c4.2,8.2,8.8,15.5,13.8,21.9c4.9,6.4,10.3,11.9,16.1,16.4c5.8,4.5,15,9.7,24.5,14.2c9.4,4.5,19.2,8.3,29.1,11.3
		c9.9,3.1,20.1,5.3,25.5,5.2C134.4,625.7,129.5,624.1,134.6,625.2z"/>
	<path class="st4" d="M39.1,431.2c1.2-0.7,2.8-2.6,3.8-4.6c1.1-2,1.6-4,1.5-6.1c0-2.1-0.6-4.2-1.3-5.6c-0.7-1.4-1.2-2.4-1.8-3.3
		c-0.5-1-1.1-1.8-1.8-2.7c-0.6-0.8-1.3-1.6-3.5-3.8c-2.3-2.2-5.5-5.2-8.1-7.7c-2.6-2.5-4.5-4.3-5.8-5.6c-1.2-1.2-1.6-1.7-2.4-2.7
		c-0.8-1-1.8-2.4-2.7-3.7c-0.9-1.4-1.7-2.7-2.5-4.1c-0.7-1.4-1.4-2.8-1.8-4.2c-0.4-1.4-0.7-3.1-0.6-5.2c0.1-2.1,0.5-4.5,1.2-7.2
		c0.7-2.7,1.9-5.7,3.8-10c1.9-4.3,4.3-9.4,6.5-13.6c2.2-4.3,4.4-7.7,6.4-10.3c2-2.6,3.9-4.4,5.1-5.3c1.2-0.9,1.6-1.2,2.2-1.5
		c0.6-0.4,1.4-0.8,2.4-1.3c1-0.5,2.1-1.1,5.6-2.5c3.5-1.5,8.9-3.7,13.7-5.7c4.8-1.9,8.9-3.6,12.4-5c3.5-1.4,6.3-2.5,8.3-3.3
		c2-0.8,3.4-1.6,4.7-2.4c1.3-0.8,2.6-1.6,3.8-2.5c1.2-0.9,2.4-1.8,3.3-2.3c0.9-0.5,0.9-0.5,0.3-0.2c0,0-1.3,0.6-2.7,0.9
		c-1.4,0.3-2.9,0.7-4.3,1c-1.4,0.3-2.9,0.6-4.3,1c-1.4,0.3-4,0.6-7.3,1.2c-3.3,0.6-7.3,1.4-11.9,2.6c-4.6,1.1-9.9,2.6-15.8,4.3
		c-5.9,1.7-7.5,2.3-8.8,2.7c-1.3,0.5-2.4,1-3.5,1.4c-1,0.5-1.9,0.9-2.7,1.4c-0.7,0.4-3.5,2.2-6.4,4.9c-3,2.7-5.8,6.1-8.6,10.2
		c-2.8,4.1-5.7,9-8.4,14.6c-2.8,5.6-4.2,9.6-5.2,13.3c-1,3.7-1.6,7.3-1.8,10.6c-0.2,3.4,0.2,6.6,1,9.6c0.8,3,1.8,5.1,2.8,6.9
		c1,1.8,2.1,3.5,3.4,5.1c1.2,1.6,2.6,3.2,3.9,4.6c1.3,1.4,1.6,1.7,2.8,2.9c1.2,1.2,3,2.6,5.5,4.5c2.5,1.9,5.7,4.2,9.6,6.9
		c3.9,2.7,4.3,3,4.8,3.6c0.6,0.5,1.2,1.1,1.7,1.8c0.6,0.7,1.2,1.4,1.8,2.2c0.6,0.8,1.6,2,2.1,3.2c0.5,1.1,0.8,2.5,0.7,4.1
		c-0.1,1.6-0.6,3.5-0.7,4.7C38.7,431,39.8,430.2,39.1,431.2z"/>
	<path class="st4" d="M58.5,314.4c0.4,0.1,1.3-0.2,2.8-1c1.4-0.8,3.4-2.3,5.7-4.4c2.3-2.1,5.1-4.8,8.2-8.6c3.1-3.8,6-7.9,9-11.8
		c3-3.9,5.9-7.7,8.9-11.4c3-3.7,6.1-7.2,8.9-10.3c2.9-3.2,5.4-5.8,7.7-8c2.3-2.2,4.4-4,6.2-5.4c1.8-1.4,3.3-2.3,4.9-3.2
		c1.6-0.9,3.3-1.6,6.1-2.6c2.8-0.9,6.5-2,11.1-3.2c4.6-1.2,10.2-2.4,13.7-3.1c3.6-0.7,4.8-0.9,7.2-0.9c2.4,0,5.7,0.2,9.9,0.5
		c4.2,0.3,9.2,0.9,13.1,1.2c3.9,0.3,5.3,0.3,6.6,0.1c1.3-0.1,2.6-0.3,3.9-0.6c1.3-0.3,2.5-0.6,3.6-1.1c1.2-0.5,2.4-1,3.6-1.7
		c1.2-0.7,2.5-1.4,3.7-2.2c1.2-0.8,2.5-1.7,12.7-10.2c10.3-8.5,29.1-24.6,31.5-25.9c2.3-1.3,5.2-2.9,8.3-4.6c3.1-1.7,6.4-3.4,10-5.3
		c3.5-1.9,7.3-3.9,8-4.4c0.8-0.4,1.7-0.9,2.8-1.4c1.1-0.5,2.3-1,3.3-1.6c1-0.6,1-0.6,0.3-0.4c0,0-1.6-0.4-2.9-0.4
		c-1.3,0-2.5,0.2-3.6,0.3c-1.1,0.2-2,0.4-6,1.5c-4.1,1.1-7.9,2.3-11.4,3.5c-3.6,1.2-6.9,2.5-10,3.7c-3.1,1.2-6.6,2.9-26.9,17.3
		c-20.3,14.4-21.3,15-22.2,15.6c-1,0.6-1.9,1.1-2.8,1.6c-0.9,0.4-1.7,0.8-2.4,1.1c-0.8,0.3-1.4,0.5-2,0.7c-0.6,0.2-1.3,0.3-2.1,0.4
		c-0.8,0.1-1.6,0.2-2.2,0.2c-0.6,0-6.1-0.6-11.1-1.1c-4.9-0.5-9.1-0.8-12.6-0.9c-3.5-0.1-6.3-0.1-8.4,0.3c-2.1,0.3-8.4,1.6-13.8,2.8
		c-5.5,1.3-10.2,2.5-14.1,3.8c-3.9,1.3-7.1,2.6-9.4,3.9c-2.3,1.3-4.2,2.4-6.4,4.1c-2.2,1.7-4.4,3.7-6.8,6.1
		c-2.3,2.4-4.7,5.2-7.3,8.3c-2.5,3.1-5.4,7-8.2,11c-2.8,4-5.5,8.2-8.1,12.5c-2.6,4.3-5,8.7-7.3,13.2c-2.3,4.5-4.5,7.9-6.5,10.8
		c-1.9,2.9-3.5,5.3-4.7,6.9c-1.2,1.7-2,2.7-2.2,3C58.6,313.9,58.8,314.4,58.5,314.4z"/>
	<path class="st3" d="M261.2,926.2c-4,0.3-6.5,0.3-7.6,0l-27.2-4.8c-20-5.6-33.5-8.8-40.3-9.7c-5.4-1.2-12.3-4.5-20.7-10
		c-18.8-14.9-29.7-34.9-32.9-59.8c24.5,18.9,44.5,31.2,59.7,36.9c8.7,3.6,29.7,8.1,62.8,13.6c33.5,4.1,50.6,5.6,51.4,4.5l71.9-3.2
		c10.2-0.7,21.9-2.8,35.1-6.1c0.7,0.4,17.7-5.1,51.1-16.7c3.4-1.2,15.1-3,34.9-5.5c2.8-0.5,5.9-1.3,9.2-2.6
		c7.4-2.2,17.5-10.6,30.4-25.3c1.2,0.8,1.7,4.1,1.4,9.9l-6.2,40.1c-0.3,2.9-2.7,5.4-7.1,7.4c-11.9,4.7-22.8,8.3-32.7,10.8
		l-100.8,25.6c-27.3,3.3-48.4,4.2-63.2,2.8L261.2,926.2z"/>
	<path class="st6" d="M370.6,490l-3.8,1.3c-4.4,0.6-8.5,1.6-12.3,3c-3.6,1.2-6.4,2.5-8.3,3.9c-2.1,1.3-3.6,2.9-4.6,4.6
		c-2,3.9-2.8,6.7-2.5,8.2c0.8,5.9,4.2,10.2,10.2,12.9c8.3,2.8,16.6,3.4,25,1.8c3-0.8,5.9-2,8.6-3.7c5.3-3.2,8.9-5.9,10.7-8.2
		c2.8-3.1,3.5-7.4,2.3-12.8c-1.2-4.9-6.4-8.7-15.6-11.3c-3.6-1.6-8.5-1.1-14.8,1.7L370.6,490z"/>
	<path class="st6" d="M486,333.8c-3.8,0.3-8.2,2.3-13.3,6c-6.3,4.5-10.3,8.5-12.1,11.8c-2,4-2.4,7.6-1.3,10.8c1.6,4,4.1,6.4,7.7,7.2
		c5.5,1.6,11.8,0.5,18.7-3.5c8.5-4.6,14.1-9.9,16.7-16.1c1.2-2.2,1.4-5.5,0.7-9.9c-0.3-2.2-1.5-4.3-3.6-6.3
		c-4.8-4.1-10.3-4.4-16.6-0.9L486,333.8z"/>
	<path class="st6" d="M565.5,490.7c-1,3.3-0.3,7.7,2.1,13.2c3.2,6.3,6.3,10.6,9.2,12.9c7.4,5.2,14,4.9,19.7-0.8
		c2.2-2.2,3.4-4.5,3.6-6.9c0.7-4.9,0.5-9.1-0.6-12.6c-1.6-7.1-6.6-13.9-15.2-20.4c-5.2-2.8-8.9-4.3-11.1-4.6
		c-2.7-0.3-5.2,0.5-7.4,2.5c-2.4,1.9-3.9,4.4-4.7,7.6c-0.5,2.2-0.3,6.4,0.8,12.7L565.5,490.7z"/>
	<path class="st6" d="M622.1,334c-0.1,0.4-0.8-3.8-2-12.7c-0.3-1.5-0.8-3.3-1.4-5.5c-0.9-3.2-3.4-8.4-7.5-15.6
		c-4.5-8-11.6-14.4-21.1-19.1c-4.9-2.8-8.1-1.5-9.7,3.8c-1.1,5.1,0,10.4,3,15.7c7.9,12.5,14.1,20.6,18.7,24.5
		c7,6.8,12.2,9.1,15.6,6.9L622.1,334z"/>
	<path class="st6" d="M350.5,194.5c-8.6,2.1-14.6,4-17.9,5.7c-3.6,1.7-5.9,4.2-7.1,7.2c-2.8,8.5,0.6,14.6,10.4,18.5
		c8.8,3.5,17.1,4.7,24.8,3.6c8.1-0.8,14.9-4.2,20.2-10c1.9-2.6,3.3-5.9,4.3-10.1c0.8-3.4,0.5-5.6-0.9-6.5
		c-5.7-5.6-14.2-7.4-25.5-5.2L350.5,194.5z"/>
	<path class="st6" d="M169,330.8c-4,3-7.2,7.2-9.8,12.7c-1.4,3-2.3,8.2-2.7,15.7c1.5,14.3,6.4,21.8,14.8,22.5
		c3.7,0.4,6.7-1.3,9.2-5.1c4.5-8.1,7.2-15.4,7.9-22c0.2-2.4-0.3-7.7-1.4-15.9c-0.4-2.8-0.9-4.9-1.7-6.2c-1.9-3-5.4-3.3-10.4-1
		L169,330.8z"/>
	<path class="st6" d="M104.9,498.1c-5.4,4.6-10.2,9.7-14.4,15.1c-4.8,6.4-7.4,11.3-7.7,14.8c-1,5.5-0.2,10,2.3,13.5
		c2.4,3.2,5.9,4.7,10.3,4.7c5.8,0.2,11.9-2,18.4-6.5c6.1-4.4,10.6-10.2,13.5-17.5c1-2.7,1.6-5.6,1.5-8.7c-0.2-5.5-0.9-9.3-2.3-11.4
		c-3.4-5.5-8-6.9-13.7-4.2L104.9,498.1z"/>
	<path class="st7" d="M484.5,338.3c-1.5,0-3.8,0.6-6.7,2c-3.1,1.5-5,2.9-5.9,4c-2.6,3-3.7,5-3.6,6c0,1.7,0.9,2.9,2.8,3.3
		c2.3,0.1,4.6-0.4,6.9-1.6c5.8-3.1,9.2-5.3,10.2-6.6c1.8-1.8,2.7-3.8,2.7-6.1c-0.1-0.4-0.6-0.6-1.3-0.7c-1-0.2-2.3-0.2-3.8-0.1
		L484.5,338.3z"/>
	<path class="st7" d="M378.2,491.3c-3.7-0.1-7.6,0.3-11.7,1.2c-2.9,0.8-5.3,1.9-7.4,3.2c-1.4,0.9-1.9,2.2-1.5,3.9
		c0.4,1.3,1.7,2.4,3.9,3.3c2.6,1.1,6.2,1.6,10.9,1.6c4.2-0.2,7.6-0.9,10.1-1.9c3.2-1.2,4.8-2.6,4.7-4.2c0.4-1.7-0.6-3.3-3-4.8
		L378.2,491.3z"/>
	<path class="st7" d="M108.1,501.8c-2.8,1.5-5.9,4-9.4,7.6c-2.2,2.3-3.8,4.6-4.8,6.8c-1.4,4.3,1.1,5.4,7.5,3.2
		c7.1-2.5,13.6-7.3,19.5-14.3c0.9-1.6,0.4-3.1-1.4-4.5c-2.6-1-5.2-1-7.9,0L108.1,501.8z"/>
	<path class="st7" d="M606.2,297.2c-1-1.9-2.8-3.8-5.4-5.8c-5-4.2-8.3-6.3-10-6.3c-2.2-0.4-3.5,0.2-3.8,1.7
		c-0.1,2.2,0.7,4.7,2.5,7.5c5.4,8.1,10.4,13.2,15.1,15.4c2.8,0.6,4.5,0.1,5.1-1.6c0.9-1.4,0.6-3.7-1-6.9L606.2,297.2z"/>
	<path class="st7" d="M577.3,485.2c-0.1,1.7,1.2,5,3.8,9.8c2.3,3.9,4.5,6.7,6.8,8.6c2,1.2,3.7,1,4.9-0.6c1-1.3,1.1-3.7,0.3-7.2
		c-0.3-1.9-1.8-5.2-4.5-9.9c-1.5-2.6-3.2-4.6-4.9-6.2c-1.9-1.7-3.8-2.7-5.9-3.1c-1.6,0-2.3,1.1-1.9,3.2L577.3,485.2z"/>
	<path class="st7" d="M178.9,335c-3.4-1.6-6.7-1.1-10,1.6c-1.7,1.3-3.2,3-4.3,5.2c-1.5,2.8-2.1,4.9-2,6.4c0,2.7,0.8,4.6,2.2,5.7
		c1.5,1,3.2,1,5,0.1c2.2-1.4,3.9-3.1,5.2-5.2c2.2-3.6,3.5-6.7,3.9-9.1L178.9,335z"/>
	<path class="st7" d="M163.3,359.8c-0.8,2.5-1.2,4-1.2,4.5c-0.1,0.8,0.1,1.5,0.6,2.1c1.2,1.3,2.4,1.3,3.6,0.2c0.6-0.6,1-1.2,1-1.9
		c0-0.5-0.3-1-1-1.5L163.3,359.8z"/>
	<path class="st7" d="M372.5,203.4c-0.8-0.8-3.7-1.6-8.8-2.6c-2.6-0.5-5.3-0.7-8.1-0.4c-5.5,0.6-7.9,2.3-7.2,5.2
		c0.9,1.7,2.8,3,5.5,4c4.3,1.5,8,2.3,11.1,2.3c3.7,0.1,6.4-0.4,7.9-1.3c0.9-0.5,1.4-1.3,1.6-2.2c0.1-1-0.1-1.6-0.7-1.9L372.5,203.4z
		"/>
	<path class="st8" d="M452.9,368c4.5,5.4,11.5,7.1,21,5.2c3.4-0.6,6.9-1.9,10.3-3.9c3-1.5,8.1-5.1,15-10.7c0.4-0.3,0.9-0.5,1.5-0.4
		c1.3-0.1,2.1,1.7,2.5,5.2c0.1,2.6-0.5,5-1.8,7.2c-2,3.8-5.8,7.1-11.4,9.9c-6.9,3.4-13.8,5.2-20.7,5.7c-5.9,0.4-10.8-0.5-14.7-2.8
		c-3.3-1.7-5-4.9-5.1-9.5L452.9,368z"/>
	<path class="st8" d="M576,281.7c-1.1,8.7,1.3,17.6,7,26.4c2.4,3.9,6,7.9,10.5,11.9c0.9,1.1,8.9,7.1,23.9,18
		c2.1,2.4,2.8,5.8,2.3,10.1c-1.3,4.4-7.9,3.7-19.8-2.1c-9.9-5.4-17.7-12.4-23.4-20.9c-9.8-14-10.1-27.9-0.9-41.8L576,281.7z"/>
	<path class="st8" d="M547.2,475.4c0.9,9.8,4.9,19.1,12.1,28c2.6,3.2,6.2,6.6,11,10.1c3,2.5,8.8,5.7,17.2,9.5c1,0.5,1.4,1.5,1.4,2.7
		c-2.5,5.2-7.5,7.7-15.1,7.5c-6.5-1-12.9-4.6-19.3-10.8c-6.1-6.6-10.2-14.5-12.4-23.6c-1.5-7.7-0.1-13.2,4.2-16.7L547.2,475.4z"/>
	<path class="st8" d="M313.8,213.9c6.3,11.6,17.5,17.7,33.4,18.3c8.1,0,15-0.9,20.7-2.8c4.9-1.5,11.8-6,20.9-13.8
		c1.2-0.6,2-0.3,2.3,0.9c0.6,6.6-3,13.4-10.6,20.4c-7.4,6.4-15.9,10-25.5,10.7c-9.8,0.7-18.8-1.7-27.1-7.1
		c-8.5-5.7-12.5-11.8-12.1-18.5L313.8,213.9z"/>
	<path class="st8" d="M150.5,386.6c13.1,4.5,24.4,2.8,33.8-5.2c3.7-3.5,6.1-8.3,7.2-14.3c0.5-2.9,0.8-5.5,0.9-7.7l-0.5-18.1
		c1.2-1.9,3.6-1.9,7.2,0c10.9,9.1,14,23.5,9.4,43.1c-1.8,6.6-5.2,11.8-10.2,15.6c-5.5,4.7-11.7,7.4-18.6,8L150.5,386.6z"/>
	<path class="st8" d="M103.5,551.1c8.2-4.8,14.6-11.3,19.3-19.5c2.6-4.1,5.1-9.3,7.3-15.5c1-2.3,1.9-7.1,2.8-14.3
		c0.4-1.1,1.2-1.6,2.4-1.4c4.2,1.7,7,6.1,8.3,13.1c1,8.4,0.2,15.4-2.3,21.2c-2.4,5.8-6.5,10.4-12.3,13.7c-5.3,3.2-10.6,4.3-15.9,3.3
		L103.5,551.1z"/>
	<path class="st9" d="M311.2,542.1c-38.5-10.5-62.3-29.5-71.3-57c-10.5-28.1-11.4-53-2.5-74.7c2.5-8.1,9.9-17.6,22-28.3
		c14.8-11.8,24.6-16.6,29.3-14.5c2.4,1.8,3.2,5.2,2.3,10.2c-0.7,3.1-1.7,6.1-3,9c-12.5,27.9-18.2,41.9-17.2,41.8
		c-3.7,14.3-4.9,25.7-3.6,34c1.1,11.5,5.7,24.1,13.8,37.6c7.2,10.6,15.4,19.7,24.6,27.3L311.2,542.1z"/>
	<path class="st9" d="M140,345.8c-4.3-12.4-0.7-26.8,10.6-43c10.5-10.9,21.8-14.5,33.7-10.9c6.5,3.1,9.1,5.7,7.9,7.7
		c-0.2,0.4-0.7,0.9-1.5,1.5c-9.6,5.7-15.3,9.5-17.3,11.2c-3.9,3.1-7.3,6.5-10.1,10.1c-5.1,6-8.5,15.6-10.1,28.5L140,345.8z"/>
	<path class="st9" d="M236.6,302.9c-5.9-4.8-9.6-13.7-11.3-26.5c-1.6-12.6-0.6-22.4,3.1-29.6c8-21.3,27.1-40.3,57.3-56.9
		c13.3-9.2,33.3-13.1,59.8-11.8c3.2-0.6,21,3.6,53.3,12.7c8.1,2.3,14.4,5.3,19.1,8.9c-43.2-18.7-82.6-18.6-118.1,0.4
		c-17.4,8.6-31.7,21.8-43.1,39.6c-14.4,22.8-20.5,41.9-18.4,57.1L236.6,302.9z"/>
	<path class="st9" d="M302,224.7c-4.4,5.6-4.8,10.3-1.2,14c5.5,6.6,13.7,11.2,24.8,13.8c11.7,2.8,23.9,2.6,36.6-0.5
		c6.1-1.7,11.1-3.5,14.9-5.3c0,0.3,8.1-4.1,24.1-13.1c2.8-1.4,4.7-2.2,5.9-2.2c3,0,4.6,2,4.9,6c-0.1,4.6-1.6,8.3-4.4,11.2
		c-6,6.3-15.2,11.2-27.8,14.5c-19.7,4.9-34.8,6.3-45.2,4.4c-23.9-3.3-37.6-14.4-41.2-33.4L302,224.7z"/>
	<path class="st9" d="M425.4,216.1c6.5-1.3,15.2-2,26.3-2.2c8.5-0.1,16.1,0.2,22.7,1c13.6,1.9,26.6,5.9,39,12.2
		c10,4.9,18.2,10,24.6,15.3c11.9,9.5,18.4,15.8,19.4,18.9c-19.7-11.4-37.8-19.8-54.4-25.3c-10.4-3.2-17-5.1-19.9-5.6
		c-6.7-1.5-16.5-3.1-29.3-4.7c-4.8-0.8-10-1.9-15.4-3.3L425.4,216.1z"/>
	<path class="st9" d="M88.3,329.6c0.3-15.2,8.3-30.8,24-46.8c9.3-8.9,19.8-15,31.6-18.3c17.1-5.1,28-5.5,32.8-1.4
		c0,1.1-0.9,2-2.6,2.7c-16.9,6.7-26.7,11.2-29.3,13.6c-17.2,12.9-27.6,21.8-30.9,26.6L88.3,329.6z"/>
	<path class="st9" d="M57.4,321.1c-3.6-1.5-9.5,0.1-17.6,4.9c-7.1,5-12.8,10.2-17.1,15.6C13,355,9.6,367,12.4,377.8
		c0.9,3.5,3,7.1,6.3,10.7c14.2,13.6,21.3,20,21.4,19.3c-14.8-17.1-21-31.2-18.4-42.3c1.7-9,6.2-16.8,13.5-23.4
		c1.8-1.8,5.1-4.4,9.7-7.8c3.3-1.8,11.3-7.1,24-15.9c1.5-1,2.5-1.8,3.1-2.6c2-4.6-3.2-3.9-15.6,2L57.4,321.1z"/>
	<path class="st9" d="M50.4,425.9c-13,11.6-21.7,23.8-26.1,36.6c-2.5,5.6-4.9,13.6-7.3,23.8c-1.1,4.7-1.7,10.7-1.9,18
		c-0.1,16.6,2.8,31.5,8.6,44.7c2.9,6.8,5.8,11.8,8.6,15.2c10.1,12.3,15.2,17.3,15.1,14.9c0.3-0.1,0.2-0.8-0.3-2
		c-3.8-5.9-7.8-13.4-11.8-22.5c-2.7-6.1-5.1-12.7-7.4-19.6c-3.2-10.3-4.5-20.9-3.9-31.7c0.8-9.3,2.4-17.3,4.8-24
		c3.3-9.1,11-25.5,23.2-49.1c0.4-0.8,1.3-3.2,2.7-7.3L50.4,425.9z"/>
	<path class="st9" d="M90.6,415.3c5.8,8.6,9.5,14.6,10.9,17.9c4,8.1,6.1,13.6,6.2,16.5c0.3,2.2-0.1,5.7-1.2,10.7
		c-4.7,12.8-7,20.2-7.1,22.1c-1.1,8-1.3,13-0.7,14.9c2,3,7-1.1,15.2-12.5c6-7.5,7.1-18.7,3.5-33.4c-0.8-3.4-4.2-10.3-10.1-20.5
		c-1.2-2.4-6.2-8.4-15-18.1L90.6,415.3z"/>
	<path class="st9" d="M506.9,492.1c-4.7,15.2-4,26.1,2.4,32.8c1.1,1.2,2.9,2.6,5.4,4.3c9.4,5.3,17.1,10.2,23.3,14.9
		c2.8,1.8,5.7,3.3,8.4,4.5c6,2.7,10.7,2.6,14.1-0.4c2.3-2.2,2.7-4.7,1.1-7.4c-0.7-1.1-1.6-2.1-2.5-3.1c-5.9-5.2-10-9.3-12.2-12.1
		c-3-3.9-5.6-8.4-7.7-13.5c-1.7-2.4-4.2-12.8-7.5-31.2c-0.8-3.1-1.7-5.5-2.5-7.2c-5.8-8.4-11.5-10.6-17.3-6.5
		c-4.9,3.3-7,10.9-6.1,22.9L506.9,492.1z"/>
	<path class="st9" d="M585.5,454.7c1.9-0.2,4.1,0.7,6.5,2.9c0.2-0.3,3.8,4.7,10.6,15c1.7,2,3.3,3.5,4.9,4.4c3.9,2,7.2,0.6,9.9-4.3
		c6.5-19.7,9.7-30.7,9.6-33c1.1-6.1,0.2-10.8-2.8-14.2c-3.9-4.4-8.4-5.6-13.3-3.6c-1.8,0.9-3.3,2.1-4.5,3.4
		c-7,8.4-11.8,13.7-14.5,16.1L585.5,454.7z"/>
	<path class="st9" d="M572.9,339.9c0.3,1.9,3.9,3.9,10.6,6.1c1.5,0.7,7,1.7,16.7,2.8c2.1,0.5,3.7,1.1,4.7,1.7
		c3.8,2.2,6.7,6.5,8.7,12.6c4.3,14-2.5,28.9-20.5,44.9c-8.5,7.7-17,12-25.4,13.2c-10.1,0.4-16.4-2.9-18.8-9.9
		c-1.2-3.1-1.4-6.7-0.7-11c0.3-2.1,0.8-4,1.3-5.8c3.8-11.4,5.8-18,6-19.8l0.9-5.1c0.9-11.2,1.6-16.8,1.9-16.8
		c1.3-4.9,4.9-8,10.6-9.2L572.9,339.9z"/>
	<path class="st9" d="M421.6,304.3l-30,4.7c-3.8,0.7-17.5,1.2-41.1,1.6c-6.1,0.5-11.9,1.4-17.4,2.8c-17,6.2-26,13.1-27,20.7
		c0,2.7,1.8,5.5,5.4,8.6c21.9,14.3,33.3,22.9,34.4,25.7c1.2-0.4,8.4,11.3,21.5,35.2c4,5.6,8.8,10.7,14.5,15.4
		c13.9,10.3,30.1,14.2,48.5,11.6c8.4-2.1,11.9-6.7,10.7-13.8c-0.5-2.2-1.8-5.1-3.8-8.8c-10-13.6-16.2-23.1-18.5-28.5
		c-3.4-7.5-4.9-14.4-4.6-20.7c0.3-4.6,2.9-9.1,7.9-13.4c1.3-2,12.3-9.6,33.1-22.8c5.3-4.2,8.5-7.7,9.7-10.5c2.5-4.5,1.5-8.5-3-12
		c-2.9-2.6-8.3-3.3-16.3-2.2L421.6,304.3z"/>
	<path class="st10" d="M450,413.9c6.6,3,10.1,14.4,10.6,34.3c-1.3,16-5.8,29.9-13.3,41.7c-8.6,12.5-17.1,21.4-25.4,26.7
		c-4.3,4.3-21,12.9-50.3,25.8c-2.5,1.3-4.2,2.8-4.9,4.5c-0.7,5.4,6,6.5,20.2,3.2c8-2.2,19.8-8.6,35.5-19
		c27.5-21.4,44.6-45.1,51.3-71.1c2.9-9.7,3.1-18.4,0.5-26.2c-2.9-12.2-8.5-20.5-16.9-24.9L450,413.9z"/>
	<path class="st10" d="M87.6,408.4c-0.8-2.5-2-4.4-3.7-5.6c-3.3-3.2-9.1-7.1-17.3-11.7c-4.5-3.4-7.7-6.1-9.4-8.1
		c-4.2-5.2-6.2-9.9-6-13.9c0.9-7.1,2.1-11.2,3.5-12.4c3.3-5.4,8-10.1,14-14.1c5.2-3.5,10.1-5.9,14.8-7.1c2.2-0.9,9.4-2.1,21.5-3.6
		c-7.8,0.2-15.9,2.5-24.5,7c-4.9,3.2-8.1,7.6-9.7,13.4c-1.1,5.4-1.1,10.4,0.2,15c0.8,1.7,1.5,3.1,2.2,4.1
		c5.8,7.3,9.1,12.1,10.1,14.5c2.7,5,4.4,10.5,5.1,16.5L87.6,408.4z"/>
	<path class="st10" d="M26.4,459.4l16.5-27l9-11.6c8.5-8.7,15.4-13.9,20.5-15.7c5.5-2.8,11.6-2,18.3,2.3
		c7.1,5.2,10.5,11.2,10.2,17.9c-0.1,7.8-4.1,15.2-12,22.1c-2.9,2.8-6.1,5.3-9.7,7.4c-13.5,6.8-23.6,12.6-30.2,17.2
		c-5.9,4.9-11.2,10.9-15.9,17.9c-10.1,13.1-13,30.2-8.7,51.2L26.4,459.4z"/>
	<path class="st11" d="M135.1,804c-0.7-4.1-1.4-7.3-2.1-9.5l-5.1-16.2c-1.2-5.3-4.4-16.7-9.5-34.2c-0.8-3-1.5-5.7-1.8-8
		c-0.9-4.6-0.4-7.5,1.4-8.6c1.1-1,2.7,0.7,4.8,5.1c1,2.6,2.1,6.1,3.3,10.5c3.5,16.1,5.4,24.6,5.8,25.5c7.8,24,13.6,43.5,17.4,58.5
		c1,3.7,2,8.2,3.2,13.6c0.3,1.9,0.3,3.2-0.1,4L135.1,804z"/>
	<path class="st11" d="M88,653.2c1.8-12.2,7.9-19.7,18.3-22.5c4.1-1.4,10.4-1.7,19.1-0.8l25.1,5.1c4.6,0.8,8.9,1.3,12.7,1.4
		c3.4,0.4,10.7-0.3,21.9-2.1c8-1.4,16.4-4.1,25.2-8.2c25.5-16.2,41.3-25.5,47.7-27.8c8.1-3,12.5-1.7,13.3,4.1
		c-1,16.5-15.7,29.7-44.4,39.6c-12.2,4.8-24,7.2-35.4,7.3c-13.1,0.6-33.8-1.2-62.1-5.4c-4.7-0.3-9.4,0.1-14,1
		c-16.5,5.6-24.8,13.4-24.9,23.6L88,653.2z"/>
	<path class="st11" d="M210.2,632.4c5.1-2,10.4-5,16-8.9c19.7-17.2,30.1-26,31.2-26.2c5.4-3.6,10.3-5.5,14.7-5.5
		c5,0.3,9.7,1.7,14.4,4.4c2.9,1.4,10.2,7.3,22,17.7c5.5,4.2,9.3,6.9,11.4,8.1c5.7,3.9,14.8,8,27.4,12.3c-2.5,0.9-7.4,1-14.8,0.1
		c-3.3-0.4-6.8-1-10.6-1.8c-14.2-3.3-22.8-5.2-25.6-5.6c-5.6-0.9-10.2-1.2-13.8-0.9c-2.5,0.1-7,0.8-13.4,2.3l-35.8,10.8
		c-10.1,2-16.3,3-18.5,3L210.2,632.4z"/>
	<path class="st12" d="M109.1,765.7c-3.1-15.1-8.5-33.6-16.2-55.5c-5.8-22.2-8.9-33.9-9-35.2c-3.5-15.5-5.4-24.2-5.6-26.2l-4.8-33.9
		c-0.1-0.6,0-0.7,0.2-0.1c0.2,1.4,1.9,7,5.1,16.7l3.5,9.4c6.6,12.6,11.5,24.3,14.8,35.2c3.3,10.3,7.5,27.7,12.4,52l15.2,53.9
		c4.2,19.1,6.7,38.4,7.5,57.9L109.1,765.7z"/>
	<path class="st12" d="M86.9,671.9c-10.9-39.3-15.6-60.1-14.3-62.5c0-0.3,1,0,3,0.8c16,7.5,27.8,12.5,35.5,15
		c11,2.9,20.5,4.2,28.5,3.9c22.5-0.7,38-2.4,46.4-5.2c8.8-2,15.3-3.9,19.5-5.6c6.4-2.2,14.5-6.1,24.2-11.6c1.4-0.7,2.2-0.7,2.5-0.2
		c-1.1,5.1-6.8,10.9-17.2,17.1c-6.8,4.6-15.4,8-25.9,10.3c-4.8,1.5-12,2.2-21.5,2.1c-3,0.3-14.9-0.3-35.5-1.9
		c-3.3-0.1-6.7-0.1-10.3,0.1c-6.2,0.3-12.2,2.3-17.8,5.9c-5.2,3.4-8,10.3-8.5,20.7c-0.8,1.9,1.1,16.5,5.6,43.5L86.9,671.9z"/>
	<path class="st12" d="M82.7,669.8c-9.4-38.1-14.8-57.6-16.2-58.6c-1-1.7-2.5-3.5-4.7-5.2c-6.3-4.1-14.2-9.9-23.6-17.4
		c-1.1-0.8-3.6-3.3-7.4-7.5c-6.6-7.3-12.1-16.7-16.4-28c4.8,8.6,12.5,17.4,23.2,26.2c5.7,4.4,11.9,8.9,18.6,13.4
		c5.9,3,21.2,12.9,45.9,29.8L82.7,669.8z"/>
	<path class="st12" d="M574.4,689.6c11.6-39.4,24.5-73.4,38.7-102c3.2-4.8,6.8-8.3,10.9-10.4l17.7-8.2c1.2-0.6,2.8-1.6,4.7-3.1
		c6.4-5,10.2-9.1,11.2-12.2c0.3-1-0.8-0.8-3.3,0.6c-9.1,6.2-16.8,10.8-23.3,13.7c-3,1.7-9.6,4.6-19.8,8.6
		c-9.5,6.5-13.9,10.1-13.2,11c-3,5-5.8,12.7-8.3,23.2c-3.6,15.3-7.9,38.4-12.7,69.3c-0.7,4-1.7,8.5-3.2,13.5L574.4,689.6z"/>
	<path class="st12" d="M642.3,564.9c-12.9,6.7-30.6,12.6-53.4,17.7c-9.2,1.8-17.9,3.1-26.3,4c-3.7,0.3-7,0.6-10,0.7
		c-6.2,0.1-12.8,0.3-19.7,0.7c-1.2,0.1-1.8,0.2-1.8,0.3c-2.1,1.7,7.6,2.6,29.1,2.8c3.8,0,8.8-0.2,15.1-0.6
		c5.7-0.4,13.5-1.2,23.6-2.6c2.4-0.2,4-0.3,4.8-0.3L642.3,564.9z"/>
	<path class="st12" d="M599.9,583.2c3.1-0.2,10-2.5,20.8-6.9c19.6-9.3,30.8-15,33.6-17.2c-10.7,8.5-17.9,13.7-21.8,15.9
		c-11.5,7.3-19.8,12-24.9,14.1L599.9,583.2z"/>
	<path class="st12" d="M606.8,584.7c13.5-5.4,24-10.6,31.3-15.7c3.5-2.3,6.9-4.9,10.1-7.7c5.5-5.4,9.3-9.5,11.4-12.3
		c0.5-0.6,0.7-0.6,0.6,0c-1.4,6.1-6.7,13-15.7,20.8c-7.3,5.6-12.5,9.2-15.4,11l-10.7,6.2c-6,2.8-10.4,5-13.2,6.6L606.8,584.7z"/>
	<path class="st12" d="M401.2,627.9c0.9-0.1,6-2.4,15.2-7c19.6-14.5,35.4-24.2,47.4-29.2c7.8-3.2,19.8-5.3,36.2-6.4
		c7.4-0.6,20.3-1,38.6-0.9c21.2,1,36.6,1.2,46.1,0.7c2.4,0.5,2.2,1.2-0.4,2.3c-3.3,0.9-6,1.5-8,1.7c-9.6,0.6-33.5,3.9-71.7,9.9
		l-37.8,10.6c-1.1,1-17.3,6.7-48.6,17.3c-10.7,3.1-19.2,5.3-25.5,6.8c-13.6,1.9-26.5,1.1-38.7-2.4L401.2,627.9z"/>
	<path class="st12" d="M205.3,620c1.9-0.6,3.2-1.1,4.1-1.7c5.4-2.9,14.2-8.4,26.7-16.4c8.5-4.5,12.6-6.5,12.3-6.1
		c8.3-3.3,16.8-4.5,25.6-3.5c7.2,0.4,13.6,2.1,19.2,5c1.7,1,3.5,2.1,5.4,3.6c12.3,10.4,19.3,16,21,16.7c5.1,3.6,11.6,6.9,19.7,10.1
		c-4.6-0.7-9.9-2.3-16-4.7l-29.8-13.4c-6.7-2-14.4-3-23-2.9c-3.9-0.2-11.6,1.5-23.2,5.1c-0.9-0.2-13.3,4.7-37.1,14.8l-24.1,6.4
		L205.3,620z"/>
	<path class="st12" d="M114.4,769.6l17.7,78c8.8,27.6,14.3,42.4,16.3,44.4c10.8,16.7,29.9,25.7,57.5,26.8c-27-8.5-43-17.9-48.3-28.4
		c-11.4-18.7-23.1-54.2-35.1-106.5L114.4,769.6z"/>
	<path class="st12" d="M16.4,457.8c7-11.4,10.6-17.7,11-19c3.3-8.8,4.7-15.3,4.3-19.7c0-1.7-1.4-4.5-4.2-8.5
		c-9.5-7.9-16.1-14.9-19.6-20.9c-1.7-3.4-2.8-6.3-3.3-8.8c-0.9-6-1.1-9.5-0.6-10.3c3,6.3,6.5,11.9,10.5,16.8c0.7,1.5,9,9.5,24.9,24
		c1.9,1.9,3.3,3.7,4.1,5.5c0.9,2.3,0.8,4.9-0.4,7.7c-5.1,9.2-8.8,14.7-11.2,16.4L16.4,457.8z"/>
	<path class="st12" d="M16,330.7c1.1-3.7,4.4-7.5,9.9-11.4l7.9-4.6l17.7-7.7c7.6-4.4,11.8-7.2,12.7-8.5c1.4-1.3,4.5-4.7,9.1-10.3
		c9.9-14.6,17.5-25.2,22.9-31.9c0.7-0.5,0.4,0.6-0.9,3.2c-5.8,10.7-9.6,17.8-11.4,21.5c-3.2,5.8-5.9,10.1-8,12.8
		c-6.4,7.7-10.1,11.6-11.1,11.7c-3.2,1.6-5.5,2.6-6.7,2.9c-15.3,4.3-23.5,7-24.7,8c-5.5,2.2-9.9,5.1-13.2,8.7L16,330.7z"/>
	<path class="st3" d="M46.2,420.8c7.3-7.6,11.6-14.6,13-20.8c0.4-2.2,0.3-4.3-0.2-6.2c-0.1-1-1.9-4.6-5.4-10.6
		c-0.6-1.3-1.2-2.6-1.7-3.9c-1.1-3-1.7-6.3-1.7-9.9c-0.5-5.4,2.2-11.4,8.3-18.1c-4.5,7.9-4.9,16.3-1.3,25.2c0.8,2.3,3.1,5.2,6.9,8.9
		c5.7,4.5,11.2,9.3,16.5,14.6c1.3,1.3,1.7,2.3,1.3,3c-0.2,0.6-0.9,1.3-2.2,2.1c-8.5,2.8-15.5,6.3-21,10.7
		c-6.3,4.8-12.2,10.8-17.5,18.1L46.2,420.8z"/>
	<path class="st13" d="M472,594.5c-9.8,4.3-15.9,7-18.3,8.3c-23.5,14.1-35.7,20.8-36.5,20.3c-13.8,5.7-24,8.5-30.5,8.5
		c-4.9,0.3-8.4,0.4-10.5,0.3c-0.8,0-1-0.2-0.7-0.6c9.8-3.9,19-8.4,27.6-13.4l40.3-25.3c11-5.4,21-9,30-10.9
		c12.3-3,23.5-4.4,33.7-4.4c7.8,0.1,14,0.3,18.6,0.8c22.4,2.4,34.4,3.5,36,3.3c21.6,0.2,34.3,0.1,37.8-0.1c1.1,0.3,0.7,0.7-1.3,1.2
		c-9.3,2.6-14.9,4-16.9,4.1c-6.1,1-14.6,1.6-25.5,1.8L472,594.5z"/>
	<path class="st13" d="M662.1,506.7c1.1-15.4,0-28.2-3.4-38.4c-1.5-5.9-6.1-16.5-13.9-31.7c-0.1-1-4.4-7.9-12.7-20.4l-10.7-13.6
		c-0.9-1.1-1.6-1.5-2.2-1.3c-1,0.2-2,1.2-3.2,2.9c-2.3,5.4-6.2,11.2-11.8,17.6c10.6-7.1,20.4-3.4,29.6,11.1
		c4.8,8,10.1,21.6,15.8,40.9c5.4,16.8,8.6,30.5,9.5,41.2L662.1,506.7z"/>
	<path class="st8" d="M621.4,555.5c6.4-7,11-22.9,13.6-47.5L621.4,555.5z"/>
	<path class="st8" d="M619.5,548.4c0.2-14.9,1.3-29.7,3.4-44.4c0.2-12.9,0.4-21.8,0.7-26.8c0.9-6.7,1.7-14.5,2.2-23.4
		c0.3-6.4,0.2-11.7-0.3-15.8c-1.4-14.2-11-15.1-28.9-2.8c-0.8-1.7,2.2-6,9.3-12.8c11.8-9.3,22.1-3.4,31,17.6l13.1,41.6
		c2.3,8.1,3.5,14,3.5,17.8c1.2,15.7-0.3,28.8-4.5,39.4c-0.6,1.7-1,2.2-1.3,1.4c0.6-9.4,0.3-17.8-0.8-25.2c-1,1.9-2.8,6.9-5.4,14.9
		L619.5,548.4z"/>
	<path class="st8" d="M483.5,252.6c15.5-1.7,26.4-1.9,32.8-0.4c11.4,2,17.9,3.4,19.5,4.1c4.7,1.4,7.1,2.1,7.3,2.2l18.3,6.8
		c0.4,0.1,0.7,0.1,0.8,0c-2.2-3.5-13.1-14.4-32.7-32.7c-3.3-2.6-5.4-4-6.1-4.3c-10.1-5.9-15.8-8.8-17.1-8.8
		c12.9,8.9,17.6,14.9,14,17.9c-1.1,1.6-3.7,2.8-7.7,3.8c-1,0.2-2.1,0.3-3.1,0.4c-9.1,0.3-13.6,0.5-13.4,0.7c-2.1,0.2-4.1,0.7-6,1.4
		c-4.8,1.7-8.1,4.7-9.7,9L483.5,252.6z"/>
	<path class="st8" d="M624.9,422.5c-6-2.7-11.7-2.4-17.2,0.9c-1,0.5-2.1,1.3-3.3,2.2c-3.3,3-8.7,7.4-16.3,13.4
		c-3.7,3.5-7.2,6.5-10.6,8.9c-1.4,1.3-2,1.9-1.8,1.9c0,0.9,2.4,0,7.4-2.7c3.6-2.1,9.2-6.3,16.9-12.7c1-0.8,3-2,6.2-3.5
		c7-3.2,11.8-4.3,14.3-3.2c2.4,0.4,4.2,4.6,5.6,12.5c0.7,3.6,0.6,12.1-0.3,25.6L624.9,422.5z"/>
	<path class="st14" d="M164,555.9c5.6-2.6,12.9-4.9,21.7-7l23.9-4.4c4.2-0.5,8-0.4,11.5,0.1c6,1,12.3,4,18.7,9.1l13.5,12.5
		c0.6,1.2-0.1,2-2.1,2.2c-0.2,0.2-3,0.1-8.5-0.3l-28.4-3.3c-1.3-0.2-2.5-0.3-3.8-0.3c-0.2-0.1-3.6,0-10.1,0.5l-29.5,0.8l-15,0
		l-13.6-0.6c-16.8-1.5-28.7-3.1-35.6-5L164,555.9z"/>
	<path class="st14" d="M228.7,316.4c2,5.4,8.2,9.6,18.5,12.7c4.2,1.1,8.8,1.5,13.8,1.3c1.8,0.1,8.7-0.7,20.7-2.3c3-0.2,5.3-0.2,7,0
		c6.6,0.3,10.2,2.4,10.8,6.2c0.1,3-2.2,6.1-7,9.4c0.3,0.1-8.6,4.9-26.7,14.6l-11,7c-3.3,2.8-8.2,6.3-14.7,10.4
		c-2.6,1.5-5.5,2.6-8.7,3.3L228.7,316.4z"/>
	<path class="st14" d="M231.3,358.5c2.9-3.9,4.2-7.2,3.8-9.8c-0.2-1.5-0.9-3.1-1.9-4.5c-4.5-5.1-7.1-8.2-7.8-9.4
		c-1.2-2-2.1-4-2.6-6.1c-2.8-12.7-2.3-19.3,1.3-19.8c1-0.4,2.2,0.2,3.5,1.9l3.6,7.8c0.5,0.9,1.9,2.5,4.2,4.7c1.8,2,5.1,3.8,9.6,5.4
		c3.2,0.9,6.6,1.4,10.2,1.3c4-0.2,13.5-1.1,28.6-2.8c4.5-0.1,7.1,0.3,7.7,1.3c1.5,1.3,2.2,2.9,1.9,4.7c0.3,0.3-1.2,2.3-4.4,5.8
		c-2.7,3.3-7.9,6.6-15.7,10.2L231.3,358.5z"/>
	<path class="st15" d="M382.9,875.1c0.1-0.5,0.2-2,0.2-4.2c0-0.2,0-3.8,0-10.8c0.5-14,0.8-25.1,0.9-33.2l1.1-32.4
		c0.3-11.7,0.2-22.8-0.1-33.3c0-2.1,0.2-5.7,0.5-10.8c0.6-5.5,2.4-7.8,5.2-7c1.1,0.6,1.8,1.5,2.1,2.7c0-0.5,0.5,2.3,1.5,8.5
		c0.2,0.2,0.2,3.5,0.3,10l-1,16.3l-1.3,27.6l-0.4,14.4l0.1,24.7c0,1-0.2,3.9-0.5,8.6l-0.2,8.3c0,0.3-0.3,3.5-1,9.4
		c-0.1,4.6-0.2,7.5-0.4,8.9l-1.3,9.2c-0.5,3-1.5,4.5-3,4.7L382.9,875.1z"/>
	<path class="st16" d="M453.8,108.8l-2.6,0.1c-7.5,0.4-18.6,2.1-33.3,5.3c-11.8,5.7-21.3,11.4-28.4,17.1c-4.9,5.7-8,11.5-9.3,17.5
		c-1.2,4.3-1.1,12.6,0.2,25c1.8,7.3,5.9,14.9,12.3,22.9c1.5,3.1,8.5,8.4,21,15.8c10.2,5.6,21.1,9.6,32.8,12.1
		c15,2.5,24.2,3.5,27.7,3c14.8-1,27.3-3.3,37.4-6.9l7.2-2.9c4.5-2.1,8.4-4.6,11.7-7.3c12-10.2,16.9-23.2,14.6-39.1
		c-0.5-4.3-4.3-11-11.3-19.9c-1-1.3-7.2-5.5-18.8-12.6l-23.3-19.2C482.8,114,470.1,110.4,453.8,108.8z"/>
	<path class="st16" d="M487.8,121.2c5.4-15.6,8.6-27.7,9.5-36.3c1.3-14.9,1.5-27.4,0.3-37.4c-0.5-6.1-3.7-15.1-9.7-27
		c-1.5-2.5-3.2-4.8-5.2-6.8c-3.9-3.8-7.5-6.7-10.8-8.7c-0.5-0.5-0.8-1-0.8-1.6c1.8-2,7-3.1,15.5-3.3c4.9,0,8.5,1.2,10.8,3.6
		c4.9,5.3,9.2,13.1,12.8,23.4c2.5,6.1,4,12.9,4.7,20.5c1.5,11.6-0.3,26.3-5.6,44.1c-9,19.9-17,35.2-24.1,45.8L487.8,121.2z"/>
	<path class="st16" d="M410,204.3c-18.2-5.9-28.8-20.1-31.6-42.7c-3-18.8,4.3-34.4,21.9-46.8c12.5-8.5,29-13.1,49.6-13.8
		c5.5,0.1,11,0.8,16.2,2.1c18.7,7.3,28.4,10.7,29.3,10.2l30-0.6c5.8,0.3,10.6,1.2,14.3,2.7c15.1,6.5,23.3,20.1,24.6,40.9
		c0.6,19.5-8.1,37.2-26.1,53.1c-18,13.9-37.7,20.4-59,19.5c-23.8-1.2-43.2-7.9-58.1-20.2L410,204.3z"/>
	<path class="st17" d="M516.2,125.2c-4.2,4.2-5.7,7.4-4.6,9.5c0.6,1.5,1.5,2.9,2.6,4.4c5.2,5.3,8.3,8.9,9.5,10.8
		c1.6,2.3,2.9,4.4,3.9,6.4c2.7,5.3,3.4,10.7,2.2,16.2c-2.4,9.6-6.1,17.4-11.1,23.4c-2.1,2.7-4.8,5.5-8.2,8.5
		c-3.1,2.8-7.7,5.8-13.8,9.1c-0.7,0.7-0.7,1.1,0.1,1c17.2-5.7,28.4-11,33.5-15.8c11.3-11.2,18.2-20.9,20.6-29.1
		c2.7-9.6,0.7-20.1-5.9-31.4c-4.9-8.6-12-13.1-21.4-13.6L516.2,125.2z"/>
	<path class="st17" d="M467.2,210.6c-0.3,0.3-0.6,0.6-0.9,0.9c0,0-0.3,0.5-0.9,1.4L467.2,210.6z"/>
	<path class="st17" d="M475,220.6c4.1-0.9,6.6-1.8,7.6-2.5c0.6-0.4,1-0.9,1.2-1.4c0.2-0.4,0.2-1.2,0-2.2L475,220.6z"/>
	<path class="st17" d="M430.4,109.5c0.9-0.1,3.9-0.7,9.1-1.8c0.7-0.1,1.9-0.3,3.6-0.4c4.6-0.2,8.4-0.1,11.3,0.5
		c4.4,0.6,7.7,1.6,9.9,3c1.7,1.3,1.8,2.6,0.6,4c-2,1.4-4.7,2-8.1,1.9c-2.6-0.1-4.5-0.2-5.6-0.4c-0.9-0.1-4.3-0.6-10.2-1.6
		c-1.3-0.2-3.6-0.4-7-0.8c-3.9-0.3-6.9-0.2-9,0.2L430.4,109.5z"/>
	<path class="st18" d="M487.3,222.9c-21.2-0.9-43.2-6-66-15.5c-6.2-1.3-15.8-9.4-28.7-24.2c-7.9-9.9-10.1-20.6-6.6-32
		c2.7-12.1,10.3-22.2,22.9-30.5c2.3-1.4,3.3-1.6,2.9-0.6c-8.2,11.8-11.7,22.3-10.3,31.5c0.7,10.1,5.6,19.9,14.6,29.2
		c11.1,11.5,22.6,19.7,34.5,24.7c9.8,3.8,24.6,7.9,44.5,12.5L487.3,222.9z"/>
	<path class="st19" d="M323.5,887.5c-1.3-0.3-3-11.9-5-34.9c-1.1-13.7-1.7-29.4-1.7-47c-0.1-12,0.4-25.2,1.5-39.5
		c0.9-8.4,1.6-13.4,2-14.8c0.4-1.8,1.1-2.1,2.2-1c2.1,2.8,4,12.8,5.6,30c0.2,2.1,0.4,4.1,0.5,5.9c1,17.1,1.9,30.6,2.7,40.5
		c2.4,27.4,3.7,41.2,3.8,41.4c0.1,0.9,0.4,5.2,0.8,12.8c0.1,3.2-0.3,5.3-1.3,6.4c-1.4,2.1-3.6,4.1-6.7,6L323.5,887.5z"/>
	<path class="st19" d="M276.9,761.9L276.9,761.9c-0.3,0.1-0.5,0.3-0.7,0.9c-0.2,0.7-0.7,4.9-1.5,12.7c-1,10.2-2,23.8-2.9,40.8
		c-1.4,33.8-1.9,54.7-1.7,62.7c-3.3,2-6.5,3.7-9.4,5.2c-1.6,1-2.3,1.8-2.3,2.4c2.3,1.7,6,3,10.9,4.1c3.4,1.1,7.7,1.7,13,1.6
		c0.5,0,0.9-0.4,1.2-1.3c0.1-0.2,0.1-0.5,0.1-0.8l0.1-3.5c0.1-14-0.1-27.3-0.6-39.9c-0.6-14.1-1.7-36.8-3.4-68.1
		c-0.2-4.3-0.7-8.8-1.4-13.4C277.8,763,277.4,761.9,276.9,761.9z"/>
	<path class="st19" d="M225.4,766.6L225.4,766.6c-0.7,0.2-0.9,3.1-0.6,8.8c3.2,47.9,5.3,82.9,6.4,105l-5,4.1
		c-0.2,0.2-0.3,0.4-0.3,0.6c0,0.2,0.2,0.4,0.5,0.5l2.5,0.6c6.4,1.6,10.2,2.4,11.4,2.4c1.4-0.1,2.4-0.3,2.9-0.7
		c0.2,0,0.5-0.5,0.9-1.2c0.1-0.3,0.1-0.7,0-1.2c-4.4-35.5-7.2-56.1-8.2-61.8l-9-52.6C226.5,768.1,225.9,766.6,225.4,766.6z"/>
	<path class="st19" d="M158,753.2L158,753.2c-0.3,0.1-0.4,0.4-0.5,1.1c0.7,6.5,1.2,10.7,1.5,12.4c1.4,9.1,3.4,20,6.1,32.5
		c8.7,36.1,14.2,57.9,16.5,65.3c-2.6,1.1-4.5,2.1-5.6,2.9c-0.6,0.4-0.9,0.9-1,1.7c4.4,5,10.8,8,19.1,9.1c1,0,1.4-0.8,1.3-2.2
		c-0.3-2.8-1-5.9-2-9.3c-6.5-18.6-11.7-34.3-15.5-47.3c-7.4-29.4-11.6-45.8-12.7-49c-2.9-8.5-4.6-13.2-5.1-14
		C159.2,754.3,158.5,753.2,158,753.2z"/>
	<path class="st20" d="M86.9,585.8c9.5,7.4,28.3,9.9,56.5,7.6c8.6-0.7,19.2-2.5,31.9-5.6c8.6-1.9,24.8-6.6,48.4-14
		c3.5-1,5.8-1.2,7-0.8c3.9,4.3-3.7,12.3-22.7,24c-13.5,7.4-28.7,11.6-45.5,12.6c-11.5,1.4-26-0.5-43.6-5.8
		c-14.9-5-28.2-11.8-39.9-20.5L86.9,585.8z"/>
	<path class="st20" d="M357.1,589.8c27.4-6.9,53.4-22.5,77.8-47c11.5-11.6,21.2-23.5,29.3-35.7c10.3-14.9,19.8-34.5,28.5-58.9
		c1.8-2.9,2.8-1.8,3,3c-0.1,13-4.9,30.9-14.5,53.6c-9.6,21.6-19.8,38.2-30.5,49.6c-14.5,17-45.7,29.9-93.5,38.4L357.1,589.8z"/>
	<path class="st20" d="M598.5,565.4c16.5-9,28-23.7,34.4-44.2c2.5-8,4-18.4,4.5-31.4c0.2-2.4,0.1-9.5-0.4-21.3
		c-0.2-5.9-0.8-14.2-1.9-24.8c-0.1-1.8,0-2.8,0.3-3c4.8,3.3,9.5,18.8,14.1,46.6c4.4,21.8,4.9,37.9,1.3,48.5
		c-5.2,19.4-23.9,30.9-56.1,34.6L598.5,565.4z"/>
	<path class="st21" d="M500.5,73.4c0-0.5-0.5,1.3-1.3,5.5c-1.4,8-2.6,14.6-3.8,19.6c-0.5,2.1-1.9,6.6-4.2,13.3
		c0.4,1.8,2.7,2.7,6.8,2.7c2.2-2.9,5.6-12.1,10.4-27.6C510,81.3,511,75,511.4,68c-0.2-12.3-1.6-21.5-4.1-27.8
		c-0.3,14.8-0.7,23.8-1.2,26.9c-0.6,4.5-1.2,8.3-1.9,11.3c-1.4,6.6-2.2,9.3-2.5,8.2c-0.1-0.1-0.1-0.3,0-0.7
		c0.4-3.9,0.6-7.4,0.6-10.6c0-4.2-0.3-12.3-0.9-24.3L500.5,73.4z"/>
	<path class="st21" d="M445.3,204.8c14.2,6.3,29.8,9.9,46.9,11c6.3,0.1,12.7-0.5,19.4-1.9c3.2-0.4,10-2.7,20.4-7.1
		c0.5-0.2,0.5-0.1,0.1,0.5c-5.5,4.6-13.6,9.1-24.4,13.3c-5.7,2.4-13.3,3.9-22.9,4.4c-7.5,0.7-15.1,0.1-22.7-1.6
		c-6.5-1.3-14.9-4.6-25.3-10L445.3,204.8z"/>
	<path class="st21" d="M414.9,189.7c13.6,9.2,29.2,16.7,46.5,22.3c5.4,1.8,12.4,3.4,21,4.7c9.7,1,17.6,1.4,23.7,1.3
		c1.1,0,1.7,0.2,1.8,0.7c-2.5,2.2-9,3.8-19.7,4.8c-13.3,0.4-23.3-0.2-30-1.8c-9.7-1.9-15.8-3.7-18.4-5.3c-12.1-6-20.1-11-24-15.1
		L414.9,189.7z"/>
	<path class="st21" d="M399.8,182.8c10.2,9.4,25.2,18.3,44.8,26.8c10,4.1,17.9,6.8,23.6,8.2c3.4,0.9,6.2,1.5,8.3,1.9l19,3.1
		c0.1,0.6-3.2,1.2-9.9,1.6c-3.9,0.3-8.4,0.2-13.5-0.2c-9.9-1.2-20.2-3.3-30.9-6.5c-12.9-3.7-25.3-11.9-37.2-24.5L399.8,182.8z"/>
	<path class="st22" d="M400.2,628.4l64.8-27.5c11.9-4.4,22.5-7.6,31.8-9.6c10.9-2.3,20.7-3.6,29.3-3.9l46.8-0.6l38-2.2
		c1.9,0.3,2.7,1.3,2.2,2.9c-12.2,22.9-22.2,48.6-30,77.3c-2.6-36.3-6.4-55.2-11.3-56.8c-1.5-0.3-5.8,0.3-13,1.8
		c-5.2,1.1-11.5,3-18.7,5.4c-2.3,0.6-4,0.8-5.1,0.7c-1.7,0-3.5-0.6-5.3-1.6c-4.6-4.1-8.7-6.8-12.2-8.1c-2.9-1.1-6.8-1.4-11.7-0.8
		c-5.3,0.6-12.7,3.6-22,8.8c0.4,0.5-3.7,0.6-12.1,0.4c-1.6,0.1-2.8,0.3-3.6,0.6c-1.9,0.4-6.7,3.3-14.4,8.7c-1.4,0.8-3,1.4-4.7,1.8
		c-0.7,0.8-7,0.4-18.8-1.1c-5.5,0.2-9.9,0.4-13.1,0.8c-17.2,2.5-28.3,5-33.5,7.7L400.2,628.4z"/>
	<path class="st23" d="M618.2,587.1c0.6,0.2-4.7-0.3-15.9-1.3c-15.1-1.9-24.2-2.9-27.3-3.2c-11.7-1-21.7-1.4-30-1.2
		c-20.8,0.4-34.7,1-41.5,1.9c-13.8,1.2-22.9,2.7-27.4,4.5c-0.7,0.8,0.2,1.2,2.8,1.2c4.3,0,10.7-0.1,19-0.4c2.1,0,4.3,0,6.6,0
		c6.6,0.1,13.2,0.4,19.6,0.9c8.5,0.7,14.9,1.4,19.3,1.9c1.8,0.1,12.7,1.7,32.6,4.6c4.1,0.5,7.1,0.8,9.2,0.9c9,0.3,16.4-0.6,22.3-2.7
		L618.2,587.1z"/>
	<path class="st23" d="M568.6,590.1c10.9-4.1,17.1,3.6,18.7,23.3c0.9,19.7,0.4,36.3-1.4,49.9c-3.5,25.1-5.9,39.5-7.1,43
		c0.1-4.7,6.9-27.9,20.4-69.4l11.6-43.8c0.7-3.8,4.9-6.9,12.3-9.3L568.6,590.1z"/>
	<path class="st23" d="M505.5,813c3.1-9.5,7.3-26.4,12.6-50.8c0.7-3,2.7-15.3,6.1-36.8c7.2-40.7,12.5-68.9,15.7-84.8
		c1.4-4.1,2.4-2.7,3.1,4.1c-0.1,8-0.7,14.5-1.8,19.6c-2.6,13.1-4.1,20-4.4,20.6L516,761.6L505.5,813z"/>
	<path class="st23" d="M237.5,607.5c18-10.2,33.4-14.7,46-13.6c5.5,1,9.9,2.6,13.3,4.9c17.9,15.3,28.6,23,32,23.1
		c13.9,4.6,28.1,6.2,42.7,4.8c9.9-1.1,18.8-3.3,26.7-6.6c4.2-1.7,8.4-3.7,12.7-5.9c18.1-10.8,30.8-17.8,38.1-21
		c11.1-5,20.8-8.1,29.1-9.4c-12.8,7.5-28.5,18.4-47.1,32.7c-1.6,1.2-5.5,3.5-11.7,7c-17.2,8.9-31,13.7-41.4,14.3
		c-7.4,1.2-19.4,0.2-36.1-3c-4.8-1.4-8-2.4-9.8-3.1c-10.9-5.3-25.1-11.1-42.7-17.3c-6.1-2.2-12.9-4.1-20.5-5.8
		c-11.3-2.7-21.6-2.1-30.8,1.6L237.5,607.5z"/>
	<path class="st23" d="M294.6,606.4c-0.6-0.8-1.4-1.6-2.4-2.3c-2.8-2.1-5.1-3.6-6.8-4.5c-3.4-1.9-6.5-3.1-9.2-3.5L294.6,606.4z"/>
	<path class="st23" d="M310.7,617c-5.2-8.6-12.6-15.2-22.3-20c-11.3-6-20.5-8.2-27.6-6.5c-5.1,0.5-10.5,2.3-16.2,5.2
		c-2.7,1.4-5,2.8-6.9,4c-11.8,8.4-19.2,13.5-22.3,15.3c-3.5,2.1-8,4.3-13.3,6.4c-3.9,1.7-7.7,3-11.4,3.9c-17,3.3-27.4,5.6-31.1,6.9
		c-0.2,0.2,0.8,0.2,2.8,0l21.1-2.1c3.6-0.5,10-1.6,19.4-3.4c4-0.8,8.8-2.1,14.1-3.7c15.7-5.5,24.6-8.4,26.5-8.7
		c12.2-3,20.6-4.5,25.1-4.5c6-0.4,11.4,0.2,16.5,1.6c2,0.6,4,1.3,6.1,2.1l20.6,8.6c2.6,1,4.7,1.7,6.2,2L310.7,617z"/>
	<path class="st23" d="M83.3,671.1c0.3-2.9-0.9-9.4-3.4-19.4c-5.1-17.4-9.8-31.4-14.1-42.1c-0.4-1.1-0.4-1.9,0.2-2.3
		c0.7-0.4,2.2-0.2,4.6,0.8c20.5,10.8,35.2,17.3,44.2,19.5c9.9,2.6,20.6,3.7,32.2,3.2c-20,0.3-33.2,1-39.9,2.1
		c-7.6,1.3-11.9,2.6-13,4.1c-3.4,3.3-5.6,8.5-6.5,15.5c-1.9,11.8-2.2,21.5-0.9,29.1L83.3,671.1z"/>
	<path class="st14" d="M413.7,635c3.5-0.2,10-2.3,19.5-6.4c2.4-0.7,12.2-5.5,29.4-14.1c6-2.6,10.9-4.5,14.5-5.7
		c9.5-2.9,19.5-4.2,30.2-3.9c5.7,0.2,11.8,1.7,18.5,4.3c6.3,2.6,8.5,4.6,6.6,5.8c-0.8,0.5-2.3,0.7-4.3,0.8c-11-0.2-19.1,0-24.3,0.5
		c-7.5,0.7-14.1,1.8-19.8,3.2c-13.4,3.9-26.5,9.5-39.3,16.9L413.7,635z"/>
	<path class="st24" d="M146.6,818.9l-0.7,0.3c-0.9,0.8-1.8,3.1-2.5,7c-1.4,8.6-2.1,15.2-2.2,19.6c-0.2,2.8,0.3,6.2,1.5,10.2
		l-1.3-0.6c0.6,2.5,1.7,4.8,3.4,6.8c1.9,2.1,4,3.9,6.4,5.3c9.6,5.4,17.2,9.1,22.6,11.2c2.5,1.1,8,2.2,16.5,3.5
		c4.9,0.5,7.8,0.4,8.6-0.2c1-0.8,1.2-1.9,0.3-3.4l-5.3-10.6c-2.6-8-4.3-12.9-5.1-14.5c-1.1-2.8-2.2-4.7-3.3-5.6
		c-0.6-0.4-1.2,0.1-1.7,1.4c-0.3,7.7-0.7,12.4-1.2,14.1c-0.9,2.8-1.9,4.7-3.3,5.6c-1,0.8-3,0.6-5.9-0.4c-2.7-1.2-5.9-3.5-9.6-6.9
		c-2.3-2.5-4.5-6.1-6.6-10.7c-0.8-1.8-3.3-10.8-7.7-27.1C148.5,820.8,147.5,819.1,146.6,818.9z"/>
	<path class="st24" d="M156.4,640c-0.3-0.3-0.7-0.4-1.3-0.5c-7.3-1.1-13-1.9-17-2.4c-2.9-0.3-6.6-0.3-11,0.1
		c-4.9-0.1-12.3,2.2-22.2,7c-6,2.8-8.9,10.3-8.7,22.5c0,1.1,1.1,2.3,3.1,3.5c2.8,1.4,4.9,2.4,6.3,2.8c0.9,0.3,1.5,0.3,1.9,0.1
		c0.3-0.2,0.4-0.5,0.3-1.1c-0.9-3.5-1.2-5.9-1-7.3c0.2-1.6,1-3.3,2.3-5.2c4.9-6,10.6-10.1,17.3-12.3c3.3-0.9,7-1.3,11-1.2
		c3.9,0.2,10.7,1,20.4,2.3L156.4,640z"/>
	<path class="st24" d="M127.6,646c1.3,2,4.8,10.2,10.7,24.7c0.7,1.9,2.1,2.9,4,2.8c1.4-0.2,2.6-1.4,3.7-3.5
		c0.6-0.4,1.6-4.1,3.2-11.1c0.3-1,0.8-2.3,1.5-3.8c1-2.3,2.7-4.5,5-6.6c6.8-5.4,15.8-8.4,26.8-9.2L127.6,646z"/>
	<path class="st24" d="M160.8,641.2c3.3,16.8,5,25,5.2,24.6c1.9,5.1,3.8,7.6,5.5,7.6c1.1,0,2-0.6,2.7-1.7c0.4-0.6,0.7-1.3,0.9-2
		c1.4-5.4,2.3-8.4,2.8-8.9c1.3-2.7,3-4.9,5-6.6c1.8-2.2,11.1-6.4,27.9-12.6L160.8,641.2z"/>
	<path class="st24" d="M188.3,648.5c3.6-0.3,6.9,0.6,9.7,2.9c0.9,0.6,2.1,2.2,3.6,4.8c0.7,1,2.4,4.7,5.3,11c0.6,1.2,1.3,2.2,2,3.1
		c2,2.2,4.3,2.7,6.9,1.5c2.2-1.2,3.8-3.7,5-7.3c0.7-2.2,1.2-4.2,1.5-5.8c1.1-8,1.9-12.5,2.3-13.5c0.3-1.8,1.5-5,3.5-9.6
		c0.2-0.7,0.3-1.3,0.3-1.7c-0.4-2.8-6.3-1.8-17.6,2.9L188.3,648.5z"/>
	<path class="st25" d="M145.5,875.1l-0.2,3.3c-0.4,8.5,0.7,15.1,3.2,19.6c3.6,5.9,9.3,10.1,17,12.7c3.5,1.3,7.1,2.4,10.8,3.3
		l51.8,11.1c4.3,0.4,9.3-0.3,15-2.1c5.9-1.7,8.8-3.2,8.7-4.6c-0.3-0.7-0.8-1.1-1.4-1.3c-4.4-0.9-9.9-2.4-16.4-4.5
		c-3.1-1-6.1-2.4-9-4c-2.6-1.4-6.7-5.4-12.3-12.1c-1.5-1.2-3.1-2.1-4.8-2.5c-1.8-0.6-4.3-0.6-7.6-0.2c-1.9,0.2-6.9,1.3-14.9,3.3
		c-2.7,0.5-4.9,0.8-6.5,0.8c-4,0.3-8.4-0.5-13.1-2.5c-1.8-0.8-3.7-1.8-5.4-2.9c-4.4-3.2-7-5.3-7.8-6.4c-1.7-1.7-3.3-3.6-5-5.6
		L145.5,875.1z"/>
	<path class="st25" d="M178.3,903.9l36.7,19.3c0.4,0.8,6.3,2,17.8,3.7c24,3.2,47,5.9,69.2,8.2c17.4,1.8,27.7,2.7,31,2.7
		c5.5,0.3,11.8,0.2,18.8-0.3c5.2-0.4,9.7-1,13.5-1.6c11.3-2,26.8-4.4,46.4-7.1c6.6-1.1,14.5-2.9,23.5-5.4c9.5-4.2,14.5-6.6,15.1-7.3
		c2.5-1.5,4.4-3,5.7-4.3c2.7-2.7,3.1-5.2,1-7.6c-0.8-0.4-2.1-0.5-3.9-0.3c-6.1,1.2-13.2,2.1-21.4,2.8c-8.5,1.9-14,2.9-16.4,3.1
		c-2.4,0.1-4.4,0.1-5.8-0.1c-1-0.1-4.3-0.8-9.7-2c-1.5-0.2-2.7-0.3-3.9-0.1l-16.5,6.1c-6.1,1.4-10.2,2.2-12.3,2.2
		c-2.6,0.1-5.4-0.1-8.4-0.7c-3.1-0.5-8.3-2.3-15.7-5.3c-1.2-0.3-2.4-0.4-3.7-0.4l-18.6,6.4c-5,1.2-8.9,1.8-11.6,1.7
		c-2.2,0-4.4-0.3-6.7-1l-16.4-5.9l-10.1,0.2c-9.2-1-14.3-1.5-15.2-1.4l-17.5,2.4c-4.4,0.4-8.2,0.5-11.6,0.3
		c-3.4-0.3-6.5-0.6-9.2-1.1C211.7,908.8,197,906.4,178.3,903.9z"/>
	<path class="st25" d="M257.4,905.9L257.4,905.9c-0.9,0-1.8,0.2-2.7,0.6c-3.3,2.3-6.4,4-9.1,5.1c-2.6,0.9-5.2,1.5-7.8,1.7
		c-0.7,0.1-1.3,0.1-2,0.1l-21.7-5.6c1.1,0.7,2.4,1.4,3.7,2c5.4,2.4,11.4,3.6,18.1,3.6l63.2,16.2c5.1,0.2,9.1,0.3,11.9,0.2
		c4.4-0.1,7.2-0.3,8.4-0.5c0.5,0.1,3.4-0.5,8.7-1.7c6.2-1.6,9.1-3,8.9-4.3c-0.2-0.1-0.6-0.1-1.2-0.1c-3.1,0.6-5.3,0.9-6.7,1
		c-1.8,0.2-3.7,0.2-5.7,0.2c-2.5,0-5.4-0.4-8.8-1c-2.5-0.4-5.6-1.6-9.2-3.6c-3.1-1.7-6.7-4.5-10.7-8.2c-1.5-1.1-2.5-1.7-3.1-1.9
		c-0.6-0.2-1.2-0.2-1.8,0c-2.7,1.6-4.6,2.6-5.8,2.9c-2.6,0.6-4.7,0.8-6.3,0.6c-1.1-0.1-2-0.3-2.6-0.4l-2.7-0.7c-1-0.3-4.4-2-10.4-5
		C260.3,906.4,258.8,906,257.4,905.9z"/>
	<path class="st25" d="M157.2,901.7l-0.2,2.5c1.7,4.2,3.4,6.8,5.3,7.6c2.1,1.7,4.9,3.5,8.3,5.2c5.8,3.3,16.1,7.1,30.9,11.5
		c29.7,8.8,67.2,14.9,112.5,18.3c8.3,0.6,17.9,0.6,28.7-0.1c11.9-1.1,20.4-2.3,25.5-3.4c5.8-0.9,16.2-3.3,31-7.3l40.7-11.3
		c2-0.8,2.8-1.2,2.5-1.4c0-0.3-0.6-0.4-1.7-0.5l-27.4,2.6l-194.6-10.8c-7-0.6-12.6-1.4-16.6-2.3c-8.7-2.4-19-5-31.1-7.9
		C164.8,902.9,160.2,902,157.2,901.7z"/>
	<path class="st25" d="M533.3,887.6L533.3,887.6c-2.6,0.8-4.4,1.2-5.3,1.3c-1.5,0.3-5,0.4-10.6,0.3c-0.3,0-0.8,0.1-1.5,0.3l-8.6,5.6
		c-2.3,1.4-4.5,2.6-6.5,3.5c-4.1,1.9-9.1,3.5-15.1,4.7c-5.3,0.9-9.1,1.2-11.3,1c-2-0.2-7.8-1.2-17.4-3.1c-1.6-0.2-2.9-0.3-4-0.3
		c-0.9,0-2.1,0.4-3.7,1c-6.5,3.7-10.8,5.9-13.1,6.6c-2.7,1-5.9,1.9-9.6,2.7c-11.1,2.2-20.1,2.4-27,0.5L384.5,933
		c48.2-8.2,74.7-13.1,79.3-14.5c32.1-9.5,51.8-15.2,59.1-17.1c6.1-2.3,10.5-4.8,13.1-7.6C537.4,890.9,536.5,888.8,533.3,887.6z"/>
	<path class="st25" d="M525.6,896.2l-0.2,0c-0.7,0-1.5,0.2-2.6,0.4c-8.2,3.1-17.8,6.3-28.8,9.4c-2.3,0.8-11.3,3.1-27,6.9l-23.1,5.2
		l-8.1,1.6c-10.1,1.9-26.1,4.6-48.1,8.2l-5.2,9l22.7-4c19.2-4.1,32.5-7,39.7-8.7c10-2.3,19.5-4.6,28.6-6.8l30.2-8.5l7-2.5
		c3.8-1.6,7.9-3.7,12.3-6.1C527.2,897.7,528.1,896.3,525.6,896.2z"/>
	<path class="st25" d="M514.6,904.9l-120.8,24.7c-0.9,0.1-2.4,0.7-4.5,1.5l-18.5,8.4c-0.4,1.2,0.5,1.9,2.8,2.1
		c2.6,0.1,6.6-0.4,12.2-1.5c30.9-6.7,50.8-11.3,59.7-13.6C488.9,913.7,512,906.5,514.6,904.9z"/>
	<path class="st25" d="M553.3,797.5l-1.8,8.5c-3.6,16.6-7.3,30.7-11,42.2c-4.8,13.7-8.7,23.6-11.7,29.6c-3.3,7-6.3,12-8.9,15
		l-1.9,1.9l-15.2,11.1c20.1-5.2,31.3-9.5,33.4-12.9c2.9-9.3,5.3-18.1,7.3-26.7c3.7-15.9,6.1-27.7,7.3-35.5
		c1.9-12.1,2.8-19.6,2.8-22.5C553.9,803.7,553.8,800,553.3,797.5z"/>
	<path class="st25" d="M111.8,760.5l-0.2,2.7c0,8.6,3.5,28.5,10.5,59.7c11.8,46.8,19.3,72.8,22.4,78c3.1,5.2,10,9.3,20.4,12.4
		c5.4,1.7,11.9,3.3,19.5,4.8c2.4,0.9,16.2,2.9,41.4,6.1l-44.4-19.5c-2.1,0.3-7-1-14.5-3.6c-5.7-2.6-10.3-6.5-14-11.7
		c-1.8-2.6-3.4-5.6-4.7-8.8c0.1,0.3-0.1,0.1-0.7-0.6c-0.5-1-1.4-2.9-2.5-5.9c-3.3-8.5-9.5-26.5-18.8-53.8
		C125,815.9,120.1,796,111.8,760.5z"/>
	<path class="st25" d="M520.8,579.7l-3.9,0c-10.3,0.1-19.9,0.8-28.9,2c-9.7,1.5-18.3,3.9-25.8,7l-5.4,2.5c-3.5,1.8-6.7,3.8-9.6,5.9
		c-2.9,2.2-5.6,4.6-8,7.2l-19.7,14.1c17.4-10.8,34.5-18.2,51.3-22c15.6-3.4,24.6-5.2,27.1-5.3c19.7-2.4,41.6-4.4,65.7-6.1
		c2.3-0.2,3.9-0.5,4.8-0.8c-5.5-1.3-13.1-2.4-22.7-3.3c-1.3-0.2-6.6-0.6-15.9-1.1C527.3,579.8,524.3,579.7,520.8,579.7z"/>
	<path class="st26" d="M533.7,132l-0.1,0c-2.1,0.1-3.4,0.7-4,1.9c-0.6,1.3-0.6,2.7,0,4.2c0.5,1.1,1.4,2.7,2.9,4.9
		c4.4,5.8,6.7,8.9,6.9,9.3c1,1.9,1.9,3.6,2.6,5c0.6,1.1,1.6,3.5,3.2,7.1l0.4,0.8c1.7,3,2.9,4.4,3.5,4.3c0.4,0.2,0.9-0.6,1.4-2.4
		c0.2-0.6,0.3-1.4,0.4-2.1c0.1-0.3,0.2-1.6,0.2-3.9c-0.2-5.6-1-10.1-2.6-13.5c-0.5-1.2-1.1-2.4-1.8-3.5c-0.7-1.1-1.5-2.1-2.3-3.1
		l-3.9-6.1c-0.8-0.7-2-1.5-3.8-2.3C535.6,132.2,534.6,132,533.7,132z"/>
	<path class="st3" d="M479.1,527.9l-6.9,7.5c-17.8,19.1-31.3,30.5-40.7,34.3c-5.2,2.5-10.4,4.8-15.5,6.8l-7.6,2.8
		c-5,1.7-10,3.2-14.9,4.4c-8.9,2.4-19.3,3.7-31.1,4c-14.9,0-26.7-1.8-35.5-5.5c-6.6-2.5-16.1-7-28.6-13.5
		c-15.6-10.4-31.8-19.8-48.6-28c-5.6-2.3-10.2-3.8-13.9-4.6c-4.4-0.8-6.9-0.8-7.4,0.3c-0.8,0.6-0.7,2,0.2,4.4
		c7.9,11.9,11.8,18.4,11.7,19.6c1.1,5.8,0.1,11.6-3,17.6c-3.7,6.2-6.6,10-8.7,11.3c-2.8,2.5-6.1,5.1-10,7.7
		c-7.8,5.2-17.8,10.6-30.1,16c12.8-4,26.2-8.7,40.1-14.3l21.5-6.9c12.1-3.5,22.7-5.4,31.7-5.8c5.8-0.1,11.5,1.5,17.2,4.8
		c6.1,4.4,13.8,10.8,23.2,19.2c1.9,1.3,4,2.4,6.3,3.3c6.9,2.9,17.5,4.2,31.9,3.9c8.4-0.7,13.4-1.3,14.9-1.9
		c6.5-1.3,12.8-3.4,18.8-6.1l27.7-15.2c7.3-4.3,14-8.9,20-13.8C459.9,565.7,472.3,548.2,479.1,527.9z"/>
	<path class="st3" d="M658.7,497.2l-2,12.9c-3.6,16.4-10.5,29.5-21,39.3l-8.5,6.7l-9.7,5.5l-11,4.2l-12.3,3
		c-4.4,0.5-7.1,0.8-7.9,0.9c-15.8,1.2-29.8,0.8-42-1.3c-14.1-2.4-25.7-5.5-35-9.3c-7.4-3.1-13.3-7.2-17.8-12.2
		c-1.8-1.8-4.8-8.7-8.9-20.7c-5.5,15.4-9.6,25.3-12.2,29.5c-2,3.7-7.3,9.9-15.8,18.9l-1,2c-0.3,1,0.4,1.3,2.1,1.1
		c16.1-3.6,24.6-5.2,25.3-4.7c-8.6,1.7-15.2,3.7-19.8,6l27.9-6c-2-0.3-4.7-0.2-8,0.1l2-0.3c5.5-1,14.2-1.5,26.3-1.2
		c4.7,0,10.5,0.4,17.4,1.1c18.2,2.9,33.7,5,46.4,6.5c4,0.4,9.2,0.6,15.7,0.5c7.3-0.1,13.8-0.8,19.4-2c5.9-1.5,11.3-3.2,16.1-5.3
		c14.6-6.2,24.5-15,29.7-26.5C660.5,532,662.1,515.9,658.7,497.2z"/>
	<path class="st3" d="M627.4,373.5l-1.7,3.8c-4.9,10.3-12.1,23.3-21.6,38.9c-3,4.6-6.1,9-9.4,13.1c-5.8,7.1-10.1,12-12.9,14.6
		c0.3,0.2,1.4-0.4,3.1-1.6c7.3-6.3,12.9-10.7,16.8-13.3c3.6-2.4,7-4.4,10.4-5.9c7.3-3.5,14.1-4.3,20.5-2.1c0.1-0.2,0-0.5-0.2-0.8
		c-3.1-3.8-4.9-6.3-5.5-7.6c-1.7-4.1-2.7-8.2-2.9-12.2c-0.5-4.7,1.2-11.9,5-21.7L627.4,373.5z"/>
	<path class="st4" d="M57.7,384.3L57.7,384.3c-0.2,0-0.3,0.1-0.4,0.2c-0.2,2.7-0.6,5.1-1.1,7.2c-0.5,2.1-1.2,3.9-2.1,5.4l-1.4,2
		l-1.6,1.6l-1.9,1.1l-2.1,0.7c-3.1,0.8-7.1-0.1-12-2.6l-16.9-11.3l6.6,6.8c7.3,5,11.8,8.2,13.3,9.7c2.2,2.7,3.8,4.9,4.6,6.5
		c0.5,0.9,0.8,1.7,1.1,2.5l0.3,1.1c0.2,0,0.2,1.4,0,4.2c-0.6,3.7-1.6,6.8-3.1,9.5l17-16.2c1.5-1.7,3.4-4.6,5.6-8.8
		c0.5-1.2,0.8-2.5,0.9-3.8c0.1-1.3,0-2.7-0.2-4l-0.5-2.1c-0.1-0.7-1.1-2.9-3-6.5c-0.7-1.2-1.3-2.1-1.9-2.6
		C58.5,384.7,58.2,384.5,57.7,384.3L57.7,384.3z M40.8,429L40.8,429l-3.1,2.9l-18.2,29.9C30.2,447.3,37.3,436.4,40.8,429z"/>
</g>
</svg>
