<?xml version="1.0" encoding="utf-8"?>
<!-- Generator: Adobe Illustrator 25.0.0, SVG Export Plug-In . SVG Version: 6.00 Build 0)  -->
<svg version="1.1"
	 id="svg2" inkscape:version="0.48+devel r9935" sodipodi:docname="Documento nuevo 1" xmlns:cc="http://creativecommons.org/ns#" xmlns:dc="http://purl.org/dc/elements/1.1/" xmlns:inkscape="http://www.inkscape.org/namespaces/inkscape" xmlns:ns1="http://sozi.baierouge.fr" xmlns:rdf="http://www.w3.org/1999/02/22-rdf-syntax-ns#" xmlns:sodipodi="http://sodipodi.sourceforge.net/DTD/sodipodi-0.dtd" xmlns:svg="http://www.w3.org/2000/svg"
	 xmlns="http://www.w3.org/2000/svg" xmlns:xlink="http://www.w3.org/1999/xlink" x="0px" y="0px" viewBox="0 0 1279.4 948.4"
	 style="enable-background:new 0 0 1279.4 948.4;" xml:space="preserve">
<style type="text/css">
	.st0{opacity:0.9961;fill-rule:evenodd;clip-rule:evenodd;fill:#EEAE48;enable-background:new    ;}
	.st1{opacity:0.9961;fill-rule:evenodd;clip-rule:evenodd;fill:#F09A2E;enable-background:new    ;}
	.st2{opacity:0.9961;fill-rule:evenodd;clip-rule:evenodd;fill:#E6843A;enable-background:new    ;}
	.st3{opacity:0.9961;fill-rule:evenodd;clip-rule:evenodd;fill:#D16220;enable-background:new    ;}
	.st4{fill-rule:evenodd;clip-rule:evenodd;fill:#D16220;}
	.st5{opacity:0.9961;fill-rule:evenodd;clip-rule:evenodd;fill:#FFCE8A;enable-background:new    ;}
	.st6{opacity:0.9961;fill-rule:evenodd;clip-rule:evenodd;fill:#88220F;enable-background:new    ;}
	.st7{opacity:0.9961;fill-rule:evenodd;clip-rule:evenodd;fill:#FFD289;enable-background:new    ;}
	.st8{opacity:0.9961;fill-rule:evenodd;clip-rule:evenodd;fill:#F09A2D;enable-background:new    ;}
	.st9{opacity:0.9961;fill-rule:evenodd;clip-rule:evenodd;fill:#FFC367;enable-background:new    ;}
	.st10{opacity:0.9961;fill-rule:evenodd;clip-rule:evenodd;fill:#FFC366;enable-background:new    ;}
	.st11{opacity:0.9961;fill-rule:evenodd;clip-rule:evenodd;fill:#D87A30;enable-background:new    ;}
	.st12{opacity:0.9961;fill-rule:evenodd;clip-rule:evenodd;fill:#B55217;enable-background:new    ;}
	.st13{opacity:0.9961;fill-rule:evenodd;clip-rule:evenodd;fill:#B55216;enable-background:new    ;}
	.st14{opacity:0.9961;fill-rule:evenodd;clip-rule:evenodd;fill:#E68439;enable-background:new    ;}
	.st15{opacity:0.9961;fill-rule:evenodd;clip-rule:evenodd;fill:#D9782B;enable-background:new    ;}
	.st16{opacity:0.9961;fill-rule:evenodd;clip-rule:evenodd;fill:#BA160E;enable-background:new    ;}
	.st17{opacity:0.9961;fill-rule:evenodd;clip-rule:evenodd;fill:#E86B65;enable-background:new    ;}
	.st18{opacity:0.9961;fill-rule:evenodd;clip-rule:evenodd;fill:#8F0903;enable-background:new    ;}
	.st19{fill-rule:evenodd;clip-rule:evenodd;fill:#D8792F;}
	.st20{fill-rule:evenodd;clip-rule:evenodd;fill:#E68438;}
	.st21{fill-rule:evenodd;clip-rule:evenodd;fill:#8F0802;}
	.st22{fill-rule:evenodd;clip-rule:evenodd;fill:#B55216;}
	.st23{opacity:0.9961;fill-rule:evenodd;clip-rule:evenodd;fill:#A03F04;enable-background:new    ;}
	.st24{opacity:0.9961;fill-rule:evenodd;clip-rule:evenodd;fill:#D8792F;enable-background:new    ;}
	.st25{opacity:0.9961;fill-rule:evenodd;clip-rule:evenodd;fill:#A03E03;enable-background:new    ;}
	.st26{opacity:0.9961;fill-rule:evenodd;clip-rule:evenodd;fill:#FFDEDC;enable-background:new    ;}
	.st27{fill:#612D0A;}
	.st28{fill:#E9B07F;}
	.st29{fill:#CC905D;}
	.st30{fill:url(#SVGID_1_);}
	.st31{fill:url(#SVGID_2_);}
	.st32{fill:url(#SVGID_3_);}
	.st33{fill:url(#SVGID_4_);}
	.st34{fill:url(#SVGID_5_);}
	.st35{fill:url(#SVGID_6_);}
	.st36{fill:url(#SVGID_7_);}
	.st37{fill:url(#SVGID_8_);}
	.st38{fill:url(#SVGID_9_);}
	.st39{fill:url(#SVGID_10_);}
	.st40{fill:url(#SVGID_11_);}
	.st41{fill:#EFC6A1;}
	.st42{fill:url(#SVGID_12_);}
	.st43{fill:url(#SVGID_13_);}
	.st44{fill:url(#SVGID_14_);}
	.st45{fill:url(#SVGID_15_);}
	.st46{fill:url(#SVGID_16_);}
	.st47{fill:url(#SVGID_17_);}
	.st48{fill:url(#SVGID_18_);}
	.st49{fill:url(#SVGID_19_);}
	.st50{fill:url(#SVGID_20_);}
	.st51{fill:url(#SVGID_21_);}
	.st52{fill:url(#SVGID_22_);}
	.st53{fill:url(#SVGID_23_);}
	.st54{fill:#7C390D;}
	.st55{fill:#93461B;}
	.st56{fill:#A54819;}
	.st57{fill:#7D3A0D;}
</style>
<sodipodi:namedview  bordercolor="#666666" borderopacity="1.0" id="base" inkscape:current-layer="layer1" inkscape:cx="273.52498" inkscape:cy="614.84559" inkscape:document-units="px" inkscape:pageopacity="0.0" inkscape:pageshadow="2" inkscape:window-height="787" inkscape:window-maximized="0" inkscape:window-width="1440" inkscape:window-x="0" inkscape:window-y="0" inkscape:zoom="0.42014768" pagecolor="#ffffff" showgrid="false">
	</sodipodi:namedview>
<g>
	<path class="st0" d="M673.1,579.9c-28.8-7.3-47.2-25.8-55.3-55.5c-8.6-27.1,2.3-60.5,32.8-100.2l-34.2-43.6
		c-2.8-8.7-1.3-17.8,4.5-27.1c11-19.8,29.8-35.2,56.5-46.3c4.2-22.9,16.4-40.9,36.7-54c12.9-8.6,35.6-14.2,67.9-16.6
		c47.4-35.6,90.6-55,129.6-58.1c26.8-2.2,55.8-0.6,86.8,4.9c12.5,1.6,33,10.4,61.5,26.5c49.7-3.8,83,3.2,99.8,21
		c8.3,6.5,15,20.7,20.2,42.8c31.8,15.1,50.2,31.9,55,50.4c9.4,18,9.9,43.5,1.3,76.3c33.4,43.9,47.4,86.8,42.1,128.7
		c-5.6,30.6-31,51.7-76.4,63.2c9.4-4.3,10,12.5,1.8,50.5l-64.5,252.7c-60.8,32.7-139.2,47-235.1,42.9c-79-3.3-127.2-21-144.7-52.9
		c-62.9-193.1-87-321-72.3-383.8L673.1,579.9z"/>
	<path class="st0" d="M732.3,405.5c-40.8,1.4-70.7,13.6-89.6,36.8c-11.3,14-18.5,28-21.5,42c-4.1,20.6-3.6,38.4,1.7,53.3
		c9.5,29,30.4,50.7,62.5,65.2c35.8,14.6,71.8,16.2,107.9,4.7L732.3,405.5z"/>
	<path class="st1" d="M653.9,448.7c-10.5,19.3-16.3,37.5-17.5,54.7c0.3,15.5,5.5,30.5,15.4,44.9c27.3,32.4,59.4,43.3,96.3,32.5
		c1.4-1.5,1-3-1.1-4.7c-0.4-0.7-7.7-4.6-22.1-11.5c-2.7-1.6-5.6-3.9-8.7-7c-9.4-9-15.7-18.1-18.9-27.3c-4.3-11.7-6.3-22-5.9-30.9
		c-0.5-5.1,2.1-18.8,7.8-41c0.6-6.4,0.3-10.5-1.1-12.5c-4.3-5.6-14.3-8.5-30-8.7L653.9,448.7z"/>
	<path class="st1" d="M648.6,466.5c-23.8,41.3-26.6,73.4-8.4,96.5c21.2,34.2,57.4,52.7,108.7,55.5c18.7-0.3,36.1-3.1,52.1-8.6
		c6.4-1.3,24.2-11.1,53.4-29.3c6.9-3.3,12.2-5.1,16-5.3c5-0.4,10.5,0.8,16.4,3.7c27.1,15.2,44.5,23.9,52.3,26.1
		c9.4,3.4,21,5.4,34.7,6.2c11.1,0.6,24-1.9,38.5-7.5l69.4-37.4c3.8-0.4,7.5,0,11.2,1.1c44,16.5,65.9,23.9,65.5,22.1
		c9.2,2.4,21.6,1.5,37.1-2.7c28.4-8.3,48-25.3,58.9-50.9c7.1-25.1,2.3-46.2-14.4-63.3c-2.3-1.3-3.9-0.7-4.9,1.7
		c0.3,33.8-4.3,56.3-13.7,67.5c-11.3,15.6-25.6,23.7-42.8,24.2c-7.8,0.7-17.9-1.3-30.3-5.9c-6.9-1.9-25.6-12.3-56.2-31.3
		c-6.3-3.2-12.6-4.8-18.9-4.6c-5.7,0.1-10.9,1.4-15.8,4.1c-19.8,15.8-36.3,26.2-49.6,31.3c-7,3.6-14.9,5.9-24,6.9
		c-8.6,0.8-15,0.4-19-1c-39.1-13.9-61.1-20.9-66.1-21.2c-6.7-1.6-17.9-2.7-33.7-3.4c-14.2-0.1-26.2,0.7-36.1,2.2
		c-3.5-0.2-28.5,5.1-75.2,16c-11,1.9-19.6,2.4-25.7,1.4c-25.5-6.7-37.3-29.5-35.3-68.5L648.6,466.5z"/>
	<path class="st1" d="M879.6,552.7c-30.9-0.9-50.7-11.4-59.4-31.4c-7.1-12.6-11.6-24.9-13.6-37c-1.9-8.6-1.5-24.5,1.4-47.7
		c-0.1-3.6-0.9-6.1-2.4-7.5c-2.1-2.2-5.2-4.1-9.4-5.5c-19.6-4.2-33.2-8.5-40.9-13c-9.1-4.8-15.7-11.4-20-19.7
		c-5.4-10.5-6.9-21-4.2-31.6c4.6-15.9,13-31.2,25.4-45.9c-9.8,30.1-9.7,49.8,0.1,59.3c2,3.7,9.6,8.9,22.9,15.8
		c27,7.5,41.8,12.3,44.4,14.4c5.9,3.2,10.1,7.6,12.7,13.2c1.7,4.1,2.3,8.1,1.7,12.2c-6.2,25.6-9.1,40.5-8.6,44.6
		c0,13,2.6,22.2,8,27.8c6.8,9.2,15.7,17.1,26.6,23.7l85,51.7L879.6,552.7z"/>
	<path class="st1" d="M661.7,447.7L664,423c0.2-3.3,0-6-0.6-8.1c-1.3-4.2-3-8-5.4-11.4c-0.2-0.9-5.9-7.8-16.9-20.6
		c-1.2-1.5-2.3-3.5-3.5-6c-2-4.4-1.7-11.4,0.8-21c0.4-5,7.2-11.8,20.3-20.2c10.9-5.5,20.2-8.3,27.9-8.5c0.2,0.4-0.5,1.4-1.9,2.9
		c-8,7.5-13.1,12.9-15.2,16.2c-3.6,4.8-6.3,10.1-8.2,16c-0.8,2.3,0.1,7.3,2.8,15.1c0.9,3.4,4.2,10.4,9.8,20.8c1.3,3,2.1,5.3,2.5,6.8
		c1.7,5.6,2.3,12.6,1.8,20.9c-0.1,9.5-2.4,18.2-6.9,26.2c-2.2,4.3-7.6,8.6-16,12.8L661.7,447.7z"/>
	<path class="st1" d="M671.6,337c1.1,0.1,2.3-0.1,3.5-0.5c4.1-1.8,6.6-2.7,7.7-2.9l11.5-1.7c7-2.2,11.4-3.5,13.1-3.7
		c5.1-0.9,12.2-1.8,21.2-2.8c2.2-0.3,2.6,0.1,1.2,1.1c-1.9,1.4-5,2.8-9.4,4.3c-6.3,1.6-15.1,4.2-26.4,7.8
		c-5.9,1.4-15.8,4.1-29.9,8.2c-6,2.2-11.2,4.7-15.6,7.7L671.6,337z"/>
	<path class="st1" d="M674.1,336.2c13.1-30.7,20-46,20.7-46.1c7-12.8,13.8-21.4,20.3-25.9c13.7-11.4,27.4-18.6,41.1-21.4
		c8.3-2.5,19.9-2,35.1,1.4c0.4,0.4,0.1,0.8-1,1.2c-8.5,1.4-13.7,2.6-15.5,3.6c-6.4,2.7-13.7,6.2-21.9,10.5
		c-6,2.9-17.1,10.7-33.1,23.3c-4.4,3.5-7.7,7.6-9.8,12.1c-2.5,4.3-6.4,14.3-11.6,30.1c-0.9,2.1-1.7,3.8-2.6,5
		c-0.1,1.6-5.9,5.2-17.5,10.8L674.1,336.2z"/>
	<path class="st1" d="M995.1,567.2c47.6-25.5,77.1-50.3,88.4-74.2c7.9-14.7,11.6-28.2,11-40.4c2-9.2-2.8-22.9-14.3-40.9
		c-0.3-1.2,0.6-1.8,2.6-2c17.4,0.6,27.7,8.2,30.6,23c2.3,7.8,2.7,15.5,1,23.1c1.4-0.3-4.5,14.5-17.6,44.6c-1.8,6-2.3,11.4-1.7,16.4
		c1.2,7.4,4,13.8,8.3,19.2l27,27.6L995.1,567.2z"/>
	<path class="st2" d="M844.9,543.7c-66,14.1-101,20.4-105.1,19c-22.9,1.4-40.2-1.5-51.9-8.6c-10.3-5.5-16-16.5-16.9-32.8
		c-0.3-4.5,0.1-10.9,1.1-19.3c5.9-25.7,8.4-39.6,7.4-41.8c-7.8-17.9-10.9-41.8-9.4-71.6c0.2-2-2.4-8-7.7-18.2
		c0.7-4.9,4.7-10.1,11.8-15.7c0.8-0.3,1.5,0.6,2,2.7c-1.1,10.1-0.5,16.8,1.7,20.3c8.2,17.1,16.5,31.5,25.1,43.3
		c2.4,4.7,4,8.7,4.9,12c1.7,6.2,2.5,13.3,2.3,21.3l-4.2,42.2c0.7,7.7,4.6,16.1,11.5,25.2c19.4,19.9,41.7,20.5,67,2.1
		c6.9-7.8,11.4-15.9,13.6-24.1c0.8-3,1.2-5.8,1.2-8.7c-0.5-19-0.3-31,0.6-35.8c3.5-16.9,6.1-24.5,7.7-23c1-0.1,1.7,2.6,2.1,8.1
		c-1.1,24.8-1.1,37.8,0.1,39c0,3.6,3.4,13.8,10.2,30.4l6.3,23L844.9,543.7z"/>
	<path class="st2" d="M894.5,187.3l-5.8,1.4c-15.4,4-31.5,9.5-48.2,16.6c-13.3,6.9-33.3,18.9-60,36c-1.4,0.6-3.4,1.2-6,1.6
		c-11.1,0.6-18.3,1.3-21.6,2c-12.4,3.5-20.9,6.2-25.6,7.9c-0.7,0.3-1,0.5-0.8,0.5l4-1.1l-9.7,4.2c-10.6,7.3-16.4,11.5-17.2,12.5
		c-6.1,5-10.1,9.3-11.9,12.8c-0.9,1.8-1.3,3.3-1.1,4.7c3.9-6.3,9.4-11.6,16.2-15.8l2.3-1l30.3-9c5-0.4,13.3-1.9,24.9-4.6
		c11.8-1.2,20.1-1.8,25-1.7c2.4,0.5,5.3,2.8,8.8,7c8.1,12.3,16.4,23.4,25,33.5c3.4,3.5,6.4,5.5,8.9,6c0.7-0.1,0.9-0.8,0.8-1.8
		c-7.1-20-10.9-32.5-11.3-37.6c-1-11.6,0-19,3-22.2c1.2-2.1,3.8-4.8,7.9-8.1c16.1-10.6,31.2-21.7,45.1-33.3L894.5,187.3z"/>
	<path class="st2" d="M684.4,604.2c23.6,14.5,47.2,19.7,70.8,15.8c28.3-7.2,46.7-12.8,55.3-16.6c3.2,0.1,19.2-8.7,47.7-26.6
		c6.9-3.2,13.1-4.8,18.6-4.7c4.3-4.4,23.3,4.7,56.7,27.1c13.3,3.3,22.7,4.9,28,4.7c26.8-0.1,43.2-1.6,49.2-4.5l80.3-35.6
		c45.9,23.5,93.6,28.9,143.1,16.2c-11.1,5.1-17.9,11.1-20.4,18l-33.5,140.7l-40.9,134.8l-2.8,20.5c-4.6,5.4-13.2,10-25.7,13.7
		c-41.5,14.2-88,23.1-139.7,26.9c-91.3-0.8-143-6.7-155.1-17.7c-47.5-22.5-73-83.7-76.4-183.6L684.4,604.2z"/>
	<path class="st2" d="M830.3,594.6c-5.8,9.2-32.7,18.1-80.8,26.6c-8.1,0.3-15.9-0.5-23.3-2.4L680.3,604l7.9,54.1l47,183.1
		c14.5,47.9,23.1,69.9,25.8,66c9.9,12.9,39.7,23.9,89.4,33c25.6,5.9,60.9,8.6,105.8,8.2c67.4-6.9,121.5-24.2,162.3-51.7L830.3,594.6
		z"/>
	<path class="st2" d="M1157.3,673.3c15.1-18.7,28.2-37.8,39.2-57.4c3.7-2.9,5.5-0.9,5.3,6.1c-2.6,29.1-5.5,49.9-8.7,62.4
		c-3.7,17.3-10.3,42.5-19.8,75.6c-4.4,22.4-8.8,48.2-13.3,77.6l-10.5,51.7c-0.4,1.9-1.3,4.1-2.8,6.6c-23.9,17.5-73.1,28-147.4,31.6
		L1157.3,673.3z"/>
	<path class="st3" d="M692.6,672.8c-14.1-45.2-17.9-69.1-11.2-71.6c-1-1.6,11.2,2.5,36.6,12.2c1.3,0.6,6.1,1.6,14.5,3.1
		c11.5,2.9,25.4,3,41.4,0.5c18.9-1.9,49.8-15.7,92.5-41.5c6.9-2.6,13.3-3.8,19.2-3.7c4-0.3,9.1,1.3,15.5,4.7
		c21.7,16.8,35.9,25.7,42.8,26.6c3.2,2.8,17.7,3.6,43.5,2.4c10-0.8,19.8-2.9,29.3-6.2c4.7-1.6,25.3-12.1,62-31.4
		c7.6-3.7,12.8-5.5,15.7-5.2c2.6-0.1,5.1,0.4,7.4,1.4c11.6,6.1,20.9,10.3,28,12.6c11.7,4,18.6,6.1,20.8,6.2c18.7,2.4,36.7,3,54.1,2
		c-2.1,2.2-14.1,4-36,5.2c-8.3,0.6-29.1-0.7-62.4-3.8c-7.4-0.2-12.7,0.1-15.7,0.8c-3.4,0.6-7.7,2.4-12.9,5.3
		c-19.2,14.4-33.4,23.7-42.6,27.8c-13.2,6.5-27,10.5-41.4,11.8c-14.4,1.8-33.3-1.4-56.9-9.6c-10.1-3.6-24.2-12.5-42.3-26.7
		c-4.6-2.3-8.5-3.5-11.9-3.5c-4.1,0.1-8.7,1.3-13.8,3.6c-32.6,20.3-56.6,32-72,35c-14,2.7-22.8,4-26.4,3.8
		c-15.3,0.3-32-0.7-49.9-2.9c-3.7-0.1-6.1,0-7.3,0.4c-12.7,4.6-15.8,29.9-9.4,76.1L692.6,672.8z"/>
	<path class="st4" d="M731.9,645.7c0,0.6,0.1,1.8,0.3,3.2c0.2,1.3,0.3,2.8,0.5,4.5c0.2,1.6,0.4,3.4,1,10.1
		c0.6,6.7,1.9,17.3,3.2,26.5c1.3,9.2,2.4,17.1,3.5,23.6c1,6.5,1.9,11.7,4.3,24.1c2.4,12.4,6.4,31.2,10.2,47.8
		c3.8,16.6,7.3,30.8,10.5,42.8c3.1,12,5.7,21.7,7.5,27.8c1.7,6,2.9,9.7,4,13.2c1.2,3.5,2.4,6.8,3.7,9.9c1.3,3.1,2.7,5.9,3.5,8.1
		c0.8,2.1,0.8,2.1,0.4,0.7c0,0-0.4-3-0.6-6.2c-0.2-3.2-0.6-6.6-1-10.1c-0.4-3.5-0.9-7.2-1.5-11c-0.5-3.8-1.7-12.3-3.4-23
		s-3.9-23.7-6.7-38.9s-6.5-32.6-11-52.2c-4.5-19.6-5.5-23.7-6.9-29.2c-1.3-5.5-3-12.3-5-20.4c-2-8.1-4.4-17.6-7.4-28.3
		s-3.6-12.6-4.2-14.3c-0.6-1.7-1.3-3.2-1.9-4.5c-0.7-1.3-1.3-2.5-1.7-3C732.3,645.5,732.1,646.2,731.9,645.7z"/>
	<path class="st4" d="M750.6,870.8c0.1-0.8,0.1-2.6,0-4.9c-0.1-2.3-0.3-5.1-0.5-8.5c-0.3-3.3-0.6-7.2-1.4-11.6
		c-0.8-4.4-1.9-9-3-14.3c-1.1-5.3-2.4-11.4-3.7-18.3c-1.3-6.9-2.8-14.5-3.9-20.2c-1.2-5.7-2-9.2-3.2-13.5c-1.1-4.2-2.5-9.2-4.3-14.9
		c-1.7-5.7-3.8-12.1-5.7-18.4c-1.9-6.3-3.8-12.7-5.9-19.4s-4.4-13.8-7-21.2s-5.4-15.2-7.7-21.4c-2.3-6.3-3.9-10.7-5.4-14.7
		c-1.5-4.1-2.9-7.8-4.3-11.1c-1.4-3.3-2.7-6.3-3.3-8.4c-0.6-2.1-0.6-2.1-0.3-0.7c0,0,0.2,3,0.4,6.4c0.1,3.4,0.6,7.1,1.2,11.2
		c0.6,4.1,1.4,8.5,2.4,13.3s3,13.1,4.9,20.9c1.9,7.8,3.7,15.3,5.4,22.3s3.3,13.6,4.7,20c1.5,6.3,3.6,13.4,5.6,19.6
		c1.9,6.1,3.6,11.5,5.2,16.1c1.5,4.6,2.8,8.4,3.7,11.4c0.9,3,3,11,5,18.3s4,13.9,5.9,19.7c1.9,5.8,3.7,10.8,5.3,15
		c1.7,4.1,2.7,8,3.7,11.6s2,6.6,2.9,9.2c0.9,2.5,1.7,4.5,2.3,5.3C750.1,870.9,750.4,870.1,750.6,870.8z"/>
	<path class="st5" d="M698.4,666.5c5.2,3.2,16.4,7,33.7,11.6c33.3,4.4,57.3,6.9,72.1,7.2c35.5,1.9,85.2,1.3,149.2-1.7
		c84.6-7.6,126.2-12.2,124.8-13.8c16.4-3.5,29.9-7.1,40.4-10.8c51.5-19.9,78-31.4,79.5-34.4c1.7-0.8,2.9-0.1,3.7,1.9
		c2,0.4-3.5,19.4-16.7,56.9c-2.4,5.5-5.8,9.7-10,12.6c-38.3,21.7-78.2,35-119.6,39.8l-95,8.3c-2.1,0.3-10,0.6-23.7,0.9l-82.3-0.8
		c-21.3-1-37.7-2.5-49.3-4.6c-38.3-7.8-66-15.7-83.2-23.6c-6.1-2.2-13.4-14.5-22-36.9L698.4,666.5z"/>
	<path class="st4" d="M789.5,896.4c-0.1-1.6-0.8-4.4-1.6-7.2c-0.8-2.8-1.5-5.5-2.2-8.2s-1.3-5.4-3.9-19.3
		c-2.6-13.9-7.7-38.8-17.7-90.2c-10.1-51.4-12.5-59.9-14.6-66.8c-2.1-6.9-3.8-12.6-5.2-17c-1.3-4.5-2.2-7.7-2.7-9.8
		s-1.2-4.5-1.9-7.2c-0.7-2.8-1.6-6-2.5-9.8c-1-3.8-2.1-8-3.4-11.4c-1.3-3.4-1.3-3.4-1-1.1c0,0-1,4.9-0.9,9.2c0.1,4.3,0.3,8,0.6,11.3
		s0.6,6.1,0.8,8.1c0.2,2,0.6,4.7,1.2,8.6c0.6,3.9,1.6,8.9,2.8,15.2c1.3,6.3,2.8,13.8,8.4,43.6c5.5,29.8,16.4,81.2,23.9,105.8
		s8.6,27.5,9.8,30.1s2.4,5.2,3.9,7.8c1.4,2.5,3,5,4.1,6.1C789.1,896.7,788.9,895.1,789.5,896.4z"/>
	<path class="st4" d="M821.4,896.4c0.1-2.8-0.9-7.3-1.9-11c-0.9-3.7-1.7-6.6-2.2-8.6c-0.5-2.1-0.8-3.3-4.1-18.7
		s-10.5-45.4-11.6-50.3c-1.1-4.9-2.5-11-4.3-18s-3.7-15.1-6-24.3c-2.3-9.1-5-19.3-5.6-21.5c-0.6-2.3-1.5-5.9-2.6-10.9
		c-1.1-5-2.6-11.4-4.3-19.1c-1.8-7.7-3.9-16.8-4.5-18.8c-0.6-2-1.5-5-2.9-9.1c-1.3-4.1-3.1-9.2-5.7-13.3c-2.6-4.1-2.6-4.1-1.8-1.1
		c0,0-1.3,6.7-0.5,11.7c0.8,5,1.5,8.8,2,11.4c0.5,2.7,0.7,4.1,1.7,12.8c1.1,8.8,2.1,16.2,3,22.2c0.9,6,1.6,10.8,2.2,14.1
		c0.6,3.4,1.1,5.4,3.3,15.3c2.2,9.9,4.4,18.7,6.3,26.5c1.9,7.8,3.6,14.5,5.2,20.1c1.6,5.6,2.9,10.3,12.6,39.6
		c9.7,29.3,10,30.1,10.6,31.7c0.7,1.6,1.7,3.8,3.1,6.8c1.4,3,3.3,6.6,4.9,8.5C820.9,896.6,820.5,894,821.4,896.4z"/>
	<path class="st4" d="M796.9,660.5c0,0.4,0,1.1,0,1.9c0,0.7,0.1,1.4,0.1,2.1c0.1,0.7,0.1,1.4,0.3,5c0.2,3.6,0.8,10.2,1.4,14.3
		c0.6,4,1.3,7.8,1.8,11.4c0.6,3.6,1.1,7,1.5,10.2c0.4,3.2,0.9,6.1,1.1,8.8c0.3,2.7,0.6,6.1,1.1,10.1s1.1,8.7,1.8,13.9
		c0.7,5.3,1.5,11,6.6,48.3c5.1,37.3,6,42.1,6.9,46.9c0.9,4.8,1.9,9.5,2.9,14.3c1,4.7,2.1,9.4,3.2,14c1.1,4.6,3.3,15.9,6.4,24.4
		c3.1,8.4,3.1,8.4,2.4,2.6c0,0,2.6-12.1,1.8-20.4c-0.7-8.3-1.4-13.1-2-17.8c-0.6-4.7-1.2-9.5-1.8-14.2c-0.6-4.8-1.2-9.5-3.8-30.6
		c-2.6-21-8.1-58.3-9.2-64c-1.2-5.7-2.2-10.7-3.1-15.1c-0.9-4.4-1.7-8.1-2.3-11.2c-0.6-3.1-1.2-5.7-1.9-8.8
		c-0.7-3.1-1.6-6.4-2.6-9.8c-1-3.4-2-7-3.2-10.8s-2.5-7.6-4.4-13.8c-1.9-6.3-2.2-7-2.5-7.6c-0.3-0.6-0.6-1.3-0.9-1.9
		c-0.3-0.6-0.7-1.3-0.9-1.6C797.4,660.4,797,660.9,796.9,660.5z"/>
	<path class="st4" d="M845.3,644.8c-0.9,3-1.2,8.8-1.5,11.7c-0.2,2.9-0.4,5.8-0.5,8.5c-0.1,2.7-0.1,5.3-0.1,7.8s0,4.7-0.1,8.3
		c-0.1,3.6-0.2,6.7-0.3,9.4c0,2.7-0.1,4.9-0.1,6.6c0,1.7,0,3,0.2,9.3c0.2,6.3,0.4,12.3,0.7,18.1c0.3,5.7,0.6,11.2,0.9,16.4
		s0.7,9.7,1.1,25.3s0.7,21.8,0.9,26.5c0.2,4.7,0.2,8.3,0.3,11.7c0.1,3.4,0.2,6.7,0.4,9.8c0.2,3.1,0.4,6.1,1.9,18.1
		s4.5,33.1,9.3,51.9c4.9,18.8,4.9,18.8,3.3,6.1c0,0,1.8-26,0.6-47.1s-1.2-23.7-1.3-26.6c-0.1-2.9-0.1-6-0.2-9.2
		c-0.1-3.2-0.2-6.6-0.2-10.3s-0.4-9.8-0.7-20.6c-0.3-10.7-0.7-26.4-1.2-31.5s-1.1-10.4-1.7-15.9c-0.6-5.5-1.3-11.3-2-17.4
		c-0.7-6.1-1.5-12.4-1.6-13.7c-0.1-1.3-0.3-3.1-0.5-5.4c-0.2-2.3-0.4-5.1-0.7-8.3c-0.3-3.3-0.6-7.1-1-9.5c-0.3-2.4-0.7-4.9-1-7.4
		c-0.3-2.6-0.7-5.3-1.1-8.1c-0.4-2.8-0.8-5.9-2-8.7C845.8,644.8,845.5,647.7,845.3,644.8z"/>
	<path class="st4" d="M893.4,645.2c-0.3,0.6-0.5,1.6-0.7,2.4c-0.2,0.8-0.3,1.5-0.4,2c-0.1,0.5-0.1,0.8-0.2,1.6
		c-0.1,0.8-0.2,2.1-0.3,3.2c-0.1,1.1-0.2,2-0.2,2.8c-0.1,0.7-0.1,1.3-0.1,3s0,4.8,0.1,8.2c0,3.4,0.1,7,0.1,10.9s0.1,8,0.1,10.7
		s0,4.2,0,6.5c0,2.2-0.1,5.1-0.1,8.7c0,3.6-0.1,7.8-0.1,10.9c0,3,0,4.8,0,7.3s0.1,5.6,0.2,9.4c0.1,3.8,0.2,8.3,0.3,11.1
		c0.1,2.8,0.1,3.6,0.1,4.5s0.1,2,0.1,3.3c0,1.2,0.1,2.6,0.1,3.5s0,1.4,0.1,3.2c0,1.8,0.1,4.7,0.1,8.6c0,3.9,0.1,8.9,0.2,19.7
		c0.1,10.7,0.8,26.5,0.9,28.5c0.1,2,0.2,4.1,0.3,6.3c0.1,2.2,0.3,4.5,0.5,6.9s0.4,4.9,0.4,5.3c0,0.4,0.1,1,0.1,1.8s0.1,1.7,0.2,2.7
		c0.1,1.1,0.1,2.3,0.2,2.9c0,0.7,0.1,1.3,0.1,2s0.1,1.3,0.1,1.9c0,0.6,0,1.2,0.1,3.8c0.1,2.5,0.1,4.7,0.2,6.4c0,1.7,0.1,3.1,0.1,4
		s0.1,1.4,0.1,1.7s0,0.9,0.1,1.9c0,1,0.1,2.3,0.2,4c0.1,1.7,0.2,3.7,0.8,10.1c0.6,6.4,0.9,8.6,1.2,10.4c0.3,1.9,0.6,3.5,0.8,4.9
		c0.2,1.4,0.5,2.6,0.7,3.6s0.3,1.6,0.5,2.3c0.1,0.7,0.3,1.3,0.4,2c0.1,0.7,0.3,1.4,0.3,2c0,0.5,0,0.5,0,0.2c0,0,0.1-0.7,0.3-1.4
		s0.4-1.4,0.5-2.1c0.1-0.7,0.3-1.4,0.4-2.1c0.1-0.8,0.3-1.9,0.4-3.2c0.2-1.3,0.3-2.8,0.4-4.6c0.1-1.7,0.2-3.7,0.6-7.9
		c0.3-4.2,0.7-10.6,0.9-12.4c0.1-1.9,0.3-3.4,0.3-4.6c0.1-1.2,0.1-2,0.2-2.5c0-0.5,0.1-0.7,0.1-1.3s0.1-1.7,0.2-3.1
		c0.1-1.4,0.3-3.3,0.5-5.5c0.2-2.3,0.4-4.9,0.5-5.6c0-0.7,0.1-1.4,0.1-2.1c0-0.7,0.1-1.4,0.1-2.1c0-0.7,0.1-1.4,0.1-2.6
		c0-1.2,0.1-2.2,0.1-3.1c0-0.9,0-1.6,0.1-2.2c0-0.6,0-1.1,0-3.5c0-2.5,0-4.8,0-7s0-4.4,0.1-6.4c0-2,0-4,0-19.7s-0.1-21.4-0.1-26
		s-0.1-8.2-0.1-10.8c0-2.5-0.1-4.1-0.1-4.6s-0.1-1.9-0.1-3.3c0-1.4-0.1-2.6-0.1-3.6c0-1.1-0.1-2-0.2-2.8c-0.1-0.8-0.4-5.7-0.7-9.9
		c-0.3-4.2-0.6-7.8-0.8-10.7s-0.4-5.1-0.5-6.6c-0.1-1.5-0.4-6.2-0.7-10.2c-0.3-4-0.6-7.4-0.8-10.1c-0.2-2.7-0.4-4.7-0.5-6.1
		c-0.1-1.4-0.7-5.7-1.2-9.8s-1.1-7.9-1.7-11.4c-0.6-3.5-1.2-6.8-1.8-9.8s-0.7-3.3-0.8-3.9c-0.1-0.6-0.2-1.3-0.4-2.3
		c-0.1-1-0.3-2.1-0.6-3.5c-0.2-1.3-0.3-1.5-0.3-1.9c-0.1-0.3-0.2-0.9-0.3-1.6c-0.1-0.7-0.3-1.6-0.5-2.2
		C893.8,645.2,893.3,645.8,893.4,645.2z"/>
	<path class="st4" d="M951.5,647.4c-0.5,0.5-1.3,1.9-2.1,3.9c-0.8,1.9-1.6,4.4-2.3,7.3c-0.8,2.9-1.5,6.3-1.9,8.5
		c-0.4,2.2-0.7,3.5-0.9,5.2c-0.2,1.8-0.5,4.1-0.7,7c-0.3,2.9-0.5,6.4-0.7,8.6c-0.1,2.2-0.2,2.9-0.2,3.8c0,0.9-0.1,2.1-0.2,3.4
		c-0.1,1.4-0.1,3-0.2,5c-0.1,2-0.2,4.1-0.3,5.9c-0.1,1.8-0.1,3.3-0.2,4.4c-0.1,1.1-0.1,2-0.2,7.2c-0.1,5.3-0.2,15.2-0.3,17.3
		c-0.1,2.2-0.1,4.2-0.1,6s-0.1,3.4-0.1,4.8c0,1.4,0,2.6,0,3.4c0,0.7,0,1.4,0,2.2c0,0.7,0,1.4,0.1,2.2c0,0.7,0.1,1.6,0.2,3.7
		c0.1,2.2,0.2,4,0.3,5.6s0.1,2.9,0.2,3.8c0,1,0,1.7,0.1,2.2c0,0.5,0,1,0,1.6s0,1.2,0,1.8c0,0.7,0,1.3,0,3.4c0,2,0,3.9,0,5.6
		c0,1.7,0,3.3,0,4.8c0,1.4,0,2.7,0,3.3s0,1.1,0,1.7c0,0.6,0,1.1,0,1.7c0,0.5,0,1.1,0.1,2.4c0,1.3,0.1,3,0.2,5c0.1,2,0.3,4.4,0.4,7.2
		c0.2,2.8,0.4,5.9,0.4,6.4s0.1,0.9,0.1,1.4s0,0.9,0.1,1.4c0,0.5,0.1,0.9,0.1,1.4s0,0.9,0.1,1.4c0,0.5,0,0.9,0.1,1.3
		c0,0.4,0,0.9,0.1,5.9c0.1,5,0.1,6,0.2,6.9c0,0.9,0.1,1.6,0.1,2.3s0.1,1.2,0.1,1.7s0.1,1.1,0.1,1.8c0.1,0.7,0.1,1.6,0.2,2.5
		c0.1,1,0.2,2,0.3,3.2c0.1,1.2,0.3,3.1,0.6,5.1c0.2,2,0.5,4.4,0.8,7s0.6,5.5,0.9,8.6s0.4,3.7,0.5,4.5c0.1,0.7,0.1,1.6,0.2,2.5
		c0.1,1,0.2,2,0.3,3.2c0.1,1.2,0.2,2.7,0.4,4.1c0.1,1.4,0.3,2.7,0.4,4c0.1,1.2,0.3,2.4,0.4,3.4c0.1,1,0.5,3.2,0.8,5
		c0.3,1.9,0.7,3.4,1,4.7s0.6,2.2,0.6,2.8s0,0.6,0,0.2c0,0,0-0.8,0.2-1.8c0.2-1.1,0.4-2.4,0.7-4.1c0.3-1.7,0.5-3.6,0.7-5.2
		c0.2-1.6,0.3-2.6,0.4-3.8c0.1-1.1,0.2-2.4,0.4-3.7c0.1-1.3,0.3-2.8,0.4-4.2c0.1-1.4,0.2-2.6,0.3-3.6s0.1-2,0.2-2.8
		c0-0.8,0.1-1.5,0.1-3.5c0.1-2,0.2-5.1,0.2-7.9c0-2.8,0.1-5.4,0.1-7.7s0-4.3,0-5.7s0-2.6,0-3.6s0-1.9,0-2.7s0-1.5,0-1.9
		c0-0.5,0-0.9,0.1-1.5c0-0.6,0.1-1.2,0.1-2s0.1-1.7,0.3-4.6c0.2-3,0.4-8,0.5-8.5c0-0.5,0-1,0.1-1.5c0-0.5,0-1,0-1.5s0-1,0-1.5
		s0-1,0-1.5s0-1,0-1.5s0-1,0-4s0-5.7-0.1-7.9c0-2.3,0-4.2,0-5.7s0-2.6,0-3.2c0-0.5,0-1,0-1.6c0-0.5,0-1.1,0-1.6s0-1,0-2.4
		s0-2.9,0-4.5c0-1.7,0-3.4,0-5.4c0-1.9,0-4,0-4.7s0-1.4,0-2s0-1.2,0-1.7s0-1,0-1.9s-0.1-2.1-0.1-3.6c-0.1-1.5-0.2-3.2-0.3-5.2
		s-0.3-4.2-0.3-4.9c0-0.6,0-1.3-0.1-2c0-0.7,0-1.4-0.1-2.1c0-0.7-0.1-1.4-0.1-2.6c0-1.3-0.1-2.7-0.1-4.4c-0.1-1.6-0.1-3.5-0.2-5.5
		c-0.1-2-0.1-4.4-0.7-14.3c-0.5-9.9-0.6-10.4-0.6-11.3c-0.1-0.9-0.1-2.1-0.2-3.7c-0.1-1.6-0.1-3.5-0.2-5.7c-0.1-2.2-0.2-4-0.3-5.6
		c-0.1-1.5-0.2-2.8-0.2-3.9c-0.1-1-0.1-1.9-0.1-2.4c0-0.6-0.2-4.4-0.4-7.7c-0.2-3.2-0.3-5.9-0.3-8c-0.1-2.1-0.1-3.5-0.1-4.4
		s0.1-4.6,0.2-7.9c0.1-3.2,0.1-6,0.2-8.3c0.1-2.3,0.2-4.1,0.1-5C951.9,647.6,951.3,648,951.5,647.4z"/>
	<path class="st4" d="M1014.7,646.4c-0.7,1-1.6,3.3-2.4,6c-0.8,2.6-1.4,5.6-1.9,8.8s-1,6.8-1.6,13.1c-0.6,6.3-1.4,14.5-1.9,21.6
		c-0.6,7.1-1,13-1.3,17.9c-0.3,4.8-0.6,8.5-1.1,16c-0.6,7.5-1.4,19.8-1.5,21c0,1.2-0.1,3-0.1,5.3s-0.1,5.3-0.1,8.8
		s-0.1,7.6-0.2,10.4c-0.1,2.8-0.1,5.4-0.2,7.5c0,2.2-0.1,4-0.1,5.5s0,2.7,0.1,21.4c0.1,18.8,0.1,19.5,0.1,20.2s0,1.4,0,2.1
		c0,0.7,0,1.4,0,2.1c0,0.7,0,1.4,0,2.2s0,1.7-0.1,2.6c0,1-0.1,2-0.1,3.1s-0.3,5.5-0.5,9.8s-0.4,8.5-0.5,12.6
		c-0.1,4.1-0.2,8-0.3,11.9c0,3.8-0.1,4.9,0,5.9c0,1,0.1,2,0.1,3.1c0,1,0.1,2.1,0.2,3.1c0.1,1.1,0.4,4.5,0.7,7.4s0.7,5.3,1,7.1
		c0.3,1.9,0.6,3.2,0.6,3.9s0,0.7,0,0.2c0,0,0.1-1,0.5-2.5c0.4-1.5,0.8-3.5,1.3-6s0.9-5.6,1.2-7.8c0.3-2.2,0.4-3.2,0.6-4.2
		c0.1-1,0.3-2,0.4-3c0.1-1,0.3-1.9,0.7-4.3c0.4-2.3,1-6.1,1.6-10.1c0.6-3.9,1.2-8,1.9-12.2c0.6-4.2,1.3-8.5,1.7-11.3
		c0.4-2.8,0.6-4,0.7-5c0.1-1.1,0.2-2,0.3-2.9s0.2-1.7,0.2-2.5c0.1-0.8,0.1-1.5,0.2-2.2c0.1-0.7,0.1-1.5,0.1-2.2s0.1-1.5,0.5-11.2
		c0.4-9.8,0.9-28.5,0.9-29.8s0.1-2.9,0.1-4.8c0-1.9,0.1-4.2,0.2-6.9c0.1-2.6,0.1-5.7,0.2-9.6c0-3.9,0.1-7.3,0.1-10s0.1-4.8,0.1-6.3
		s0.1-2.3,0.3-14.6c0.3-12.3,0.2-15.3,0.2-19.4c0-4.1-0.1-9.3-0.2-15.7c-0.1-6.3-0.3-13.8-0.6-22.4c-0.3-8.6-0.5-12.3-0.6-15.6
		c-0.1-3.4-0.2-6.5-0.3-9.3s-0.1-5.4-0.4-6.7C1015.2,646.5,1014.5,647.5,1014.7,646.4z"/>
	<path class="st4" d="M1074.4,640.7c-0.1,0.2-0.2,0.6-0.4,1c-0.1,0.4-0.3,0.9-0.5,1.4c-0.2,0.5-0.4,1.1-1.1,2.8
		c-0.7,1.7-1.7,4.5-2.6,6.9c-0.8,2.4-1.5,4.5-2.1,6.4c-0.5,1.8-0.9,3.3-6.4,29.2s-14.1,76.6-15,82.9c-0.9,6.3-1.5,11.6-2,15.8
		c-0.5,4.3-0.8,7.5-1,9.8c-0.2,2.3-0.3,3.4-0.5,6.2c-0.3,2.8-0.5,6.4-0.8,10.6c-0.3,4.2-0.5,9.1-0.8,14.7
		c-0.2,5.6-0.4,11.8-0.9,18.4c-0.5,6.6-0.8,13-1,18.9c-0.2,6-0.2,11.6,0.5,15.8c0.8,4.1,0.8,4.1,1,1.5c0,0,2.9-5.1,4-10.7
		c1.1-5.6,2.3-11.6,3.5-17.9c1.2-6.3,2.4-13.1,3.3-19.2c0.8-6.1,1.5-11.4,2.1-16c0.6-4.6,1.1-8.5,1.6-11.7s0.8-5.8,1-7.3
		c0.2-1.5,0.6-4,1.1-7.5s1.1-8.1,1.9-13.7c0.7-5.6,1.6-12.1,7.7-63.2c6.1-51.1,6.2-52.4,6.4-53.9c0.1-1.6,0.4-3.5,0.6-5.8
		c0.3-2.3,0.5-4.9,0.8-7.9c0.3-3,0.3-3.7,0.3-4.3s0-1.2-0.1-1.7c0-0.5-0.1-1-0.2-1.2C1074.9,640.7,1074.4,640.9,1074.4,640.7z"/>
	<path class="st4" d="M1118.7,620c-1.4,2-3.6,8.3-6.3,17.7c-2.7,9.4-5.8,21.9-9.4,37.5s-7.6,34.3-11.8,58.6
		c-4.3,24.3-8.7,52-11.4,69.7c-2.7,17.7-4.7,32.4-6,44.3c-1.3,11.8-2,20.7-1.7,26c0.3,5.3,0.3,5.3,0.8,1.9c0,0,3.4-6.4,5.9-15.9
		c2.6-9.5,5.7-22.1,9.3-37.5c3.6-15.5,7.7-34,12.4-61.8c4.7-27.7,8.2-48.6,10.8-66.5c2.6-17.9,4.5-32.7,5.8-44.5
		c1.3-11.8,2.1-20.4,1.8-23.9C1119.2,620.1,1118.2,622.2,1118.7,620z"/>
	<path class="st4" d="M1156.7,614.9c0,0.2,0,0.9-0.2,2.2c-0.2,1.2-0.6,2.9-1.2,5.1c-0.6,2.2-1.3,4.9-7.4,27.4
		c-6,22.5-15.9,64.6-25.9,125.6c-10,61-10,61-1.1,20.8c0,0,24.7-78.9,31.1-121.8c6.4-43,6.6-46.2,6.7-49c0-2.7,0-4.9-0.3-6.6
		c-0.2-1.7-0.6-2.8-0.8-3.3C1157.1,614.6,1156.8,615.1,1156.7,614.9z"/>
	<path class="st4" d="M1198.4,643.7c-18,42.8-41.9,131.7-48.1,169.3c-6.2,37.6-6.6,43.1-6.7,47.5c-0.2,4.4-0.2,7.8-0.1,10.2
		c0.1,2.5,0,3.9-0.1,4.5s-0.1,0.6,0,0.2c0,0,0.2-0.8,0.9-2.5c0.7-1.7,1.6-4.3,2.7-7.9c1.1-3.6,2.3-8.1,8-28.9
		c5.7-20.8,14.8-57.4,23.5-102.7C1198.9,643.8,1186.6,688.1,1198.4,643.7z"/>
	<path class="st4" d="M763.1,891.3c0.9,1.8,4.4,5.1,9.8,8.5c5.5,3.5,12.8,7.1,22,11c9.2,3.9,20.2,7.9,30,10.9
		c9.8,3,16.4,4.4,22.4,5.7s11.5,2.3,16.5,3.1s9.5,1.3,21.7,2.6s32.6,3.3,35.7,3.5c3.1,0.2,6.3,0.3,9.7,0.4c3.4,0.1,6.9,0.2,10.7,0.2
		c3.7,0,7.6,0,11.1,0s8.1-0.2,13.9-0.5s12.7-0.7,20.9-1.3c8.1-0.6,17.5-1.2,21.7-1.8c4.1-0.5,8.6-1.3,13.5-2.1
		c4.9-0.9,10.1-2,15.8-3.4c5.7-1.4,11.8-3,21.8-6.1s19.4-6.6,28.1-10.5c8.7-3.9,16.7-8.3,21.7-12.7c5.1-4.4,5.1-4.4,1.2-2.5
		c0,0-9.1,0.9-17.5,3.9c-8.4,2.9-17.4,5.6-26.9,8s-19.7,4.6-25.5,5.7c-5.9,1.1-11.3,2.1-16.3,3c-5,0.9-9.5,1.7-13.6,2.3
		c-4.1,0.6-7.6,1.1-16.4,1.7c-8.8,0.6-16.5,1.1-22.9,1.5c-6.5,0.4-11.7,0.6-15.8,0.7c-4,0.1-6.9,0.1-10.7,0.1s-7.4,0-10.8-0.1
		c-3.4-0.1-6.6-0.2-9.6-0.3s-5.6-0.3-26-2.4c-20.3-2.1-24.2-2.5-28.6-3.1c-4.4-0.6-9.5-1.4-15.1-2.2c-5.6-0.8-11.8-1.8-18.3-2.8
		c-6.6-1-18.8-4.1-29.4-7c-10.6-2.8-19.3-5.4-26.3-7.7s-12.2-4.3-14.5-4.9C763.4,891,764.4,892.5,763.1,891.3z"/>
	<path class="st4" d="M867.6,565.4c3,5.2,11,13,19.3,19.5s16.8,11.9,25.4,16.2c8.6,4.3,17.4,7.6,25.6,9.8c8.3,2.2,16.8,3.5,25.9,3.8
		c9.2,0.2,18.9-0.5,29.3-2c10.4-1.6,21.4-4,30.5-6.5c9-2.5,15.7-5.1,22-8.5c6.4-3.4,12.5-7.5,18.3-12.4c5.8-4.9,11.3-10.7,16.1-18.1
		c4.8-7.4,8.2-15.4,11.1-23.7c2.9-8.4,5.4-17.2,7.3-26.5c1.9-9.3,3.1-19.1,3.9-26.6c0.7-7.5,0.7-7.5-0.3-2.6c0,0-3.7,9.4-7,18.4
		c-3.3,9-6.6,17.5-10,25.5c-3.4,8-7.1,15.6-10.8,22.3c-3.7,6.8-8.5,11.7-13.7,16.3c-5.3,4.6-10.5,8.7-15.9,12s-10.9,6-16.6,8
		c-5.7,2-16.7,4.9-26.9,6.9c-10.2,2-19.7,3.2-28.4,3.6c-8.7,0.3-16.7-0.1-24-1.2c-7.3-1.1-15.5-2.9-23.7-5.5
		c-8.2-2.7-16.5-6.2-25.1-10.8c-8.6-4.5-17.4-9.9-22.5-12.1C868,565,871.9,569.1,867.6,565.4z"/>
	<path class="st4" d="M1040.6,599.4c4.8-1.4,12.5-5.6,19.4-9c6.9-3.5,13-6.1,18.4-8c5.4-1.8,9.9-2.8,13.2-3.2s5.2-0.7,7-0.8
		c1.8-0.1,3.5-0.2,5.1-0.1c1.6,0,3,0.2,5.5,0.8c2.4,0.7,7.3,1.9,12.9,3.1c5.5,1.2,11.7,2.2,18.5,3.1c6.8,0.9,14.2,1.6,19.4,2.1
		c5.2,0.4,7.8,0.6,10.7,0.6c2.8,0,5.8-0.1,9-0.3c3.2-0.2,6.6-0.5,13.7-1.2s17.4-2.2,26.5-4.2s17-4.6,23.9-7.8
		c6.8-3.2,12.5-7.1,19.3-15c6.7-7.8,12.7-20.4,14.5-34.9c1.8-14.5-0.6-30.5-6.9-47.8s-16.7-35.9-26.5-50.4
		c-9.9-14.4-9.9-14.4-4.2-4.3c0,0,8.5,21.6,15,40.1c6.5,18.4,9.8,34.3,10,47.7c0.2,13.4-2.4,24.6-8.2,34.1
		c-5.8,9.5-9,12.4-13.8,15.2c-4.7,2.9-10.8,5.4-18.2,7.5s-16.2,3.8-26.3,5s-13.5,1.6-16.6,1.8c-3.1,0.3-5.9,0.4-8.6,0.5
		c-2.6,0.1-5,0-7.2-0.1c-2.2-0.1-9.9-0.8-16.9-1.6s-13.4-1.6-19.1-2.5c-5.7-0.8-10.8-1.7-15.3-2.7c-4.6-1-7.2-1.2-9.2-1.2
		s-4.1,0.2-6.2,0.4c-2.1,0.3-4.3,0.6-6.4,1.1c-2.2,0.5-7,1.5-12.5,3.5c-5.5,2.1-11.4,5-17.7,9c-6.3,4-12.9,9-15.8,12.6
		C1040.3,599,1044.4,596.6,1040.6,599.4z"/>
	<path class="st4" d="M1226.2,304.4c0.1,0.7,0.6,2.4,1.2,4.8c0.6,2.4,1.4,5.5,2.4,9.3s2.2,8.3,3.1,11.7c0.9,3.4,1.4,5.3,1.8,7.1
		c0.4,1.8,0.8,3.5,1.2,5.2c0.3,1.7,0.6,3.3,1,5.4s0.7,4.4,0.8,6.8s-0.1,4.9-0.5,7.6c-0.4,2.6-0.9,5.4-2.9,11.1s-5.3,14.7-9.5,23.3
		c-4.2,8.7-9.2,17.1-15.1,25.3c-5.9,8.2-12.5,16.5-18.1,22.6c-5.5,6.1-5.5,6.1-1.4,2.5c0,0,9.4-6,17.5-13.1s15.1-15,21.1-23.5
		s11-17.6,14.7-27.3c3.7-9.7,4.4-13.5,4.7-16.8c0.3-3.3,0.4-6.5,0.2-9.6c-0.2-3.1-0.7-6.1-1.4-8.9c-0.7-2.8-1.2-4.4-1.7-6.1
		s-1.2-3.5-1.8-5.3c-0.7-1.8-1.4-3.6-2.1-5.5c-0.8-1.9-2.8-6.6-4.7-10.6s-3.6-7.4-5.2-10c-1.5-2.6-2.9-4.5-3.6-5.2
		C1226.6,304.1,1226.6,304.9,1226.2,304.4z"/>
	<path class="st4" d="M1198.5,282.9c-0.5-0.8-2.2-2.4-4.5-4.2c-2.3-1.8-5.2-3.8-8.7-6.1c-3.5-2.3-7.6-4.8-10.1-6.3s-3.7-2.1-5.7-2.9
		c-1.9-0.8-4.7-2-8.4-3.4c-3.7-1.4-8.2-3.1-13.3-4.5c-5.1-1.3-9.4-2.1-13.4-2.7c-4-0.6-7.7-1.2-11-1.6c-3.3-0.4-6.3-0.7-8.8-0.9
		s-4.8-0.2-7.2-0.1c-2.4,0.1-5,0.3-7.8,0.7c-2.7,0.4-5.6,0.9-7.8,1.2c-2.2,0.2-2.2,0.2-0.7,0.2c0,0,3,0.4,5.8,0.9
		c2.8,0.6,5.4,1,7.8,1.5c2.4,0.4,4.7,0.9,6.7,1.3c2.1,0.4,4.6,1.1,7.6,1.9c2.9,0.8,6.2,1.7,9.8,2.7s7.6,2.1,11.8,3.4
		c4.2,1.2,9.2,2.8,13.6,3.9c4.4,1.2,7.8,2.1,10.3,2.8c2.5,0.7,4.1,1.1,4.7,1.3c0.6,0.2,5.4,2.2,9.6,3.9c4.2,1.7,7.8,3.2,10.9,4.3
		c3.1,1.2,5.5,2.1,6.7,2.3C1198.3,283.3,1197.8,282.4,1198.5,282.9z"/>
	<path class="st4" d="M1030.9,214.2c1.6-0.2,5.2-1,9.8-1.7c4.6-0.7,10.4-1.4,17.3-2s14.9-1,21.4-1s11.2,0.7,15.9,1.8
		c4.7,1.1,9.3,2.5,14,4.4c4.6,1.8,9.3,4,13.9,6.6s9,5.1,12.6,7.3s6.5,4.2,8.6,5.7c2.1,1.6,3.4,2.7,5.6,5.6c2.2,2.8,5.9,7.4,9.3,11.4
		s6.4,7.3,9.1,10.1s5.1,5.1,17.5,15.3c12.4,10.2,35.5,28.3,37.1,29.7c1.6,1.4,3,2.7,4.3,3.8c1.2,1.2,2.3,2.3,3,3.1
		c0.7,0.8,0.7,0.8,0.4,0.2c0,0-0.1-1.5-0.8-3.1c-0.6-1.6-1.5-3.3-2.7-5.1c-1.2-1.8-2.7-3.8-23.1-24.9s-22.2-22.8-24.2-25.1
		c-2-2.3-4.5-5.2-7.3-8.8c-2.8-3.6-6-7.8-9.6-12.6c-3.7-4.8-5.4-6.8-7.7-8.7c-2.3-1.9-5.1-3.9-8.5-6.2c-3.4-2.2-7.5-4.7-12.3-7.4
		c-4.8-2.7-10.2-5.2-15.5-7.2c-5.4-2-10.7-3.6-16.1-4.7c-5.4-1.1-10.8-1.7-16.3-1.9s-14.7,1.2-22.4,2.7c-7.7,1.5-14.3,3.2-19.6,5
		c-5.4,1.8-9.5,3.8-11,5.1C1030.7,213.8,1032.3,213.5,1030.9,214.2z"/>
	<path class="st4" d="M837.1,545.2c-2.3-3.7-7.3-9.8-11.4-16.1c-4-6.3-7-12.9-9-19.9c-2-7.1-2.9-14.6-3-21.5
		c-0.1-6.8,0.2-12.4,0.4-17.7c0.2-5.3,0.6-10.3,1.2-15.1c0.6-4.8,1.5-9.2,2.7-13.7s2.8-9.4,4.8-14.5c1.9-5.1,4.2-10.4,6.6-16
		c2.5-5.6,5-11.6,7.3-16.1c2.2-4.5,2.2-4.5,0.4-1.7c0,0-4.6,5-8.6,10.1s-7.5,10.2-10.4,15.3c-3,5.1-5.5,10.1-7.7,15
		c-2.2,4.9-3.8,9.6-5.1,14.6c-1.3,4.9-2.3,10.2-3.1,15.7c-0.7,5.5-1.1,11.3-0.9,17.4s1.2,15,3.5,23.2c2.3,8.3,5.8,15.8,10.4,22.5
		c4.7,6.7,10.5,12.5,14.4,14.4C836.8,545.5,833.8,542.6,837.1,545.2z"/>
	<path class="st4" d="M745.3,625.1c-4.7-2.8-14.3-6.4-23.6-10.2c-9.4-3.8-18.4-8-27.3-12.6c-8.8-4.6-17.4-9.8-23.9-14.3
		s-11.1-8.7-15.6-13.7s-8.8-11-12.8-17.9c-4.1-6.9-7.9-14.8-10.6-22s-4.1-13.2-4.6-19.4c-0.6-6.1-0.3-12.4,0.7-18.8
		c1.1-6.4,2.9-13,4.7-18.3c1.8-5.3,3.2-8.9,4.6-12.4c1.4-3.4,2.8-6.6,4.3-9.6s3-5.8,4.2-7.9s2.4-4.1,4.4-7.3c2-3.2,5-7.6,8.7-13.1
		s8.1-12.3,10.9-16.8s3.5-5.8,4.1-7.2c0.7-1.4,1.3-2.8,1.8-4.4c0.6-1.5,1.1-3.1,1.7-4.3c0.6-1.1,0.6-1.1,0.2-0.4c0,0-0.9,1.4-2,2.6
		s-2.2,2.4-3.2,3.5s-2,2.2-3,3.2c-0.9,1-7.2,7.5-12.3,13.2s-9.2,10.4-12.3,14.2c-3.1,3.8-5.3,6.6-6.5,8.4s-3.1,4.4-5,7.4
		c-1.9,3-3.8,6.2-5.6,9.7c-1.8,3.4-3.5,7.1-5.2,10.9c-1.7,3.9-4.6,11.2-6.4,18.7c-1.9,7.5-2.8,15-2.8,22.4c0,7.4,1,14.7,2.9,22
		c1.9,7.2,5.9,16.5,10.1,24.7s8.8,15.5,13.8,21.9c4.9,6.4,10.3,11.9,16.1,16.4c5.8,4.5,15,9.7,24.5,14.2c9.4,4.5,19.2,8.3,29.1,11.3
		c9.9,3.1,20.1,5.3,25.5,5.2C745.1,625.6,740.2,624,745.3,625.1z"/>
	<path class="st4" d="M649.8,431.1c1.2-0.7,2.8-2.6,3.8-4.6c1.1-2,1.6-4,1.5-6.1c0-2.1-0.6-4.2-1.3-5.6s-1.2-2.4-1.8-3.3
		c-0.5-1-1.1-1.8-1.8-2.7c-0.6-0.8-1.3-1.6-3.5-3.8c-2.3-2.2-5.5-5.2-8.1-7.7c-2.6-2.5-4.5-4.3-5.8-5.6c-1.2-1.2-1.6-1.7-2.4-2.7
		c-0.8-1-1.8-2.4-2.7-3.7c-0.9-1.4-1.7-2.7-2.5-4.1c-0.7-1.4-1.4-2.8-1.8-4.2c-0.4-1.4-0.7-3.1-0.6-5.2c0.1-2.1,0.5-4.5,1.2-7.2
		s1.9-5.7,3.8-10c1.9-4.3,4.3-9.4,6.5-13.6c2.2-4.3,4.4-7.7,6.4-10.3c2-2.6,3.9-4.4,5.1-5.3s1.6-1.2,2.2-1.5
		c0.6-0.4,1.4-0.8,2.4-1.3s2.1-1.1,5.6-2.5c3.5-1.5,8.9-3.7,13.7-5.7c4.8-1.9,8.9-3.6,12.4-5s6.3-2.5,8.3-3.3s3.4-1.6,4.7-2.4
		c1.3-0.8,2.6-1.6,3.8-2.5c1.2-0.9,2.4-1.8,3.3-2.3c0.9-0.5,0.9-0.5,0.3-0.2c0,0-1.3,0.6-2.7,0.9c-1.4,0.3-2.9,0.7-4.3,1
		s-2.9,0.6-4.3,1c-1.4,0.3-4,0.6-7.3,1.2c-3.3,0.6-7.3,1.4-11.9,2.6c-4.6,1.1-9.9,2.6-15.8,4.3c-5.9,1.7-7.5,2.3-8.8,2.7
		c-1.3,0.5-2.4,1-3.5,1.4c-1,0.5-1.9,0.9-2.7,1.4c-0.7,0.4-3.5,2.2-6.4,4.9c-3,2.7-5.8,6.1-8.6,10.2c-2.8,4.1-5.7,9-8.4,14.6
		c-2.8,5.6-4.2,9.6-5.2,13.3c-1,3.7-1.6,7.3-1.8,10.6c-0.2,3.4,0.2,6.6,1,9.6s1.8,5.1,2.8,6.9s2.1,3.5,3.4,5.1
		c1.2,1.6,2.6,3.2,3.9,4.6c1.3,1.4,1.6,1.7,2.8,2.9c1.2,1.2,3,2.6,5.5,4.5s5.7,4.2,9.6,6.9c3.9,2.7,4.3,3,4.8,3.6
		c0.6,0.5,1.2,1.1,1.7,1.8c0.6,0.7,1.2,1.4,1.8,2.2c0.6,0.8,1.6,2,2.1,3.2c0.5,1.1,0.8,2.5,0.7,4.1c-0.1,1.6-0.6,3.5-0.7,4.7
		C649.4,430.9,650.5,430.1,649.8,431.1z"/>
	<path class="st4" d="M669.2,314.3c0.4,0.1,1.3-0.2,2.8-1c1.4-0.8,3.4-2.3,5.7-4.4s5.1-4.8,8.2-8.6c3.1-3.8,6-7.9,9-11.8
		s5.9-7.7,8.9-11.4c3-3.7,6.1-7.2,8.9-10.3c2.9-3.2,5.4-5.8,7.7-8c2.3-2.2,4.4-4,6.2-5.4c1.8-1.4,3.3-2.3,4.9-3.2s3.3-1.6,6.1-2.6
		c2.8-0.9,6.5-2,11.1-3.2c4.6-1.2,10.2-2.4,13.7-3.1c3.6-0.7,4.8-0.9,7.2-0.9c2.4,0,5.7,0.2,9.9,0.5s9.2,0.9,13.1,1.2
		c3.9,0.3,5.3,0.3,6.6,0.1c1.3-0.1,2.6-0.3,3.9-0.6c1.3-0.3,2.5-0.6,3.6-1.1c1.2-0.5,2.4-1,3.6-1.7s2.5-1.4,3.7-2.2
		s2.5-1.7,12.7-10.2c10.3-8.5,29.1-24.6,31.5-25.9c2.3-1.3,5.2-2.9,8.3-4.6c3.1-1.7,6.4-3.4,10-5.3c3.5-1.9,7.3-3.9,8-4.4
		c0.8-0.4,1.7-0.9,2.8-1.4s2.3-1,3.3-1.6s1-0.6,0.3-0.4c0,0-1.6-0.4-2.9-0.4s-2.5,0.2-3.6,0.3c-1.1,0.2-2,0.4-6,1.5
		c-4.1,1.1-7.9,2.3-11.4,3.5c-3.6,1.2-6.9,2.5-10,3.7c-3.1,1.2-6.6,2.9-26.9,17.3c-20.3,14.4-21.3,15-22.2,15.6
		c-1,0.6-1.9,1.1-2.8,1.6c-0.9,0.4-1.7,0.8-2.4,1.1c-0.8,0.3-1.4,0.5-2,0.7c-0.6,0.2-1.3,0.3-2.1,0.4c-0.8,0.1-1.6,0.2-2.2,0.2
		s-6.1-0.6-11.1-1.1c-4.9-0.5-9.1-0.8-12.6-0.9c-3.5-0.1-6.3-0.1-8.4,0.3c-2.1,0.3-8.4,1.6-13.8,2.8c-5.5,1.3-10.2,2.5-14.1,3.8
		s-7.1,2.6-9.4,3.9c-2.3,1.3-4.2,2.4-6.4,4.1c-2.2,1.7-4.4,3.7-6.8,6.1c-2.3,2.4-4.7,5.2-7.3,8.3c-2.5,3.1-5.4,7-8.2,11
		c-2.8,4-5.5,8.2-8.1,12.5s-5,8.7-7.3,13.2s-4.5,7.9-6.5,10.8c-1.9,2.9-3.5,5.3-4.7,6.9c-1.2,1.7-2,2.7-2.2,3
		C669.3,313.8,669.5,314.3,669.2,314.3z"/>
	<path class="st3" d="M871.9,926.1c-4,0.3-6.5,0.3-7.6,0l-27.2-4.8c-20-5.6-33.5-8.8-40.3-9.7c-5.4-1.2-12.3-4.5-20.7-10
		c-18.8-14.9-29.7-34.9-32.9-59.8c24.5,18.9,44.5,31.2,59.7,36.9c8.7,3.6,29.7,8.1,62.8,13.6c33.5,4.1,50.6,5.6,51.4,4.5l71.9-3.2
		c10.2-0.7,21.9-2.8,35.1-6.1c0.7,0.4,17.7-5.1,51.1-16.7c3.4-1.2,15.1-3,34.9-5.5c2.8-0.5,5.9-1.3,9.2-2.6
		c7.4-2.2,17.5-10.6,30.4-25.3c1.2,0.8,1.7,4.1,1.4,9.9l-6.2,40.1c-0.3,2.9-2.7,5.4-7.1,7.4c-11.9,4.7-22.8,8.3-32.7,10.8
		l-100.8,25.6c-27.3,3.3-48.4,4.2-63.2,2.8L871.9,926.1z"/>
	<path class="st6" d="M981.3,489.9l-3.8,1.3c-4.4,0.6-8.5,1.6-12.3,3c-3.6,1.2-6.4,2.5-8.3,3.9c-2.1,1.3-3.6,2.9-4.6,4.6
		c-2,3.9-2.8,6.7-2.5,8.2c0.8,5.9,4.2,10.2,10.2,12.9c8.3,2.8,16.6,3.4,25,1.8c3-0.8,5.9-2,8.6-3.7c5.3-3.2,8.9-5.9,10.7-8.2
		c2.8-3.1,3.5-7.4,2.3-12.8c-1.2-4.9-6.4-8.7-15.6-11.3c-3.6-1.6-8.5-1.1-14.8,1.7L981.3,489.9z"/>
	<path class="st6" d="M1096.7,333.7c-3.8,0.3-8.2,2.3-13.3,6c-6.3,4.5-10.3,8.5-12.1,11.8c-2,4-2.4,7.6-1.3,10.8
		c1.6,4,4.1,6.4,7.7,7.2c5.5,1.6,11.8,0.5,18.7-3.5c8.5-4.6,14.1-9.9,16.7-16.1c1.2-2.2,1.4-5.5,0.7-9.9c-0.3-2.2-1.5-4.3-3.6-6.3
		c-4.8-4.1-10.3-4.4-16.6-0.9L1096.7,333.7z"/>
	<path class="st6" d="M1176.2,490.6c-1,3.3-0.3,7.7,2.1,13.2c3.2,6.3,6.3,10.6,9.2,12.9c7.4,5.2,14,4.9,19.7-0.8
		c2.2-2.2,3.4-4.5,3.6-6.9c0.7-4.9,0.5-9.1-0.6-12.6c-1.6-7.1-6.6-13.9-15.2-20.4c-5.2-2.8-8.9-4.3-11.1-4.6
		c-2.7-0.3-5.2,0.5-7.4,2.5c-2.4,1.9-3.9,4.4-4.7,7.6c-0.5,2.2-0.3,6.4,0.8,12.7L1176.2,490.6z"/>
	<path class="st6" d="M1232.8,333.9c-0.1,0.4-0.8-3.8-2-12.7c-0.3-1.5-0.8-3.3-1.4-5.5c-0.9-3.2-3.4-8.4-7.5-15.6
		c-4.5-8-11.6-14.4-21.1-19.1c-4.9-2.8-8.1-1.5-9.7,3.8c-1.1,5.1,0,10.4,3,15.7c7.9,12.5,14.1,20.6,18.7,24.5
		c7,6.8,12.2,9.1,15.6,6.9L1232.8,333.9z"/>
	<path class="st6" d="M961.2,194.4c-8.6,2.1-14.6,4-17.9,5.7c-3.6,1.7-5.9,4.2-7.1,7.2c-2.8,8.5,0.6,14.6,10.4,18.5
		c8.8,3.5,17.1,4.7,24.8,3.6c8.1-0.8,14.9-4.2,20.2-10c1.9-2.6,3.3-5.9,4.3-10.1c0.8-3.4,0.5-5.6-0.9-6.5
		c-5.7-5.6-14.2-7.4-25.5-5.2L961.2,194.4z"/>
	<path class="st6" d="M779.7,330.7c-4,3-7.2,7.2-9.8,12.7c-1.4,3-2.3,8.2-2.7,15.7c1.5,14.3,6.4,21.8,14.8,22.5
		c3.7,0.4,6.7-1.3,9.2-5.1c4.5-8.1,7.2-15.4,7.9-22c0.2-2.4-0.3-7.7-1.4-15.9c-0.4-2.8-0.9-4.9-1.7-6.2c-1.9-3-5.4-3.3-10.4-1
		L779.7,330.7z"/>
	<path class="st6" d="M715.6,498c-5.4,4.6-10.2,9.7-14.4,15.1c-4.8,6.4-7.4,11.3-7.7,14.8c-1,5.5-0.2,10,2.3,13.5
		c2.4,3.2,5.9,4.7,10.3,4.7c5.8,0.2,11.9-2,18.4-6.5c6.1-4.4,10.6-10.2,13.5-17.5c1-2.7,1.6-5.6,1.5-8.7c-0.2-5.5-0.9-9.3-2.3-11.4
		c-3.4-5.5-8-6.9-13.7-4.2L715.6,498z"/>
	<path class="st7" d="M1095.2,338.2c-1.5,0-3.8,0.6-6.7,2c-3.1,1.5-5,2.9-5.9,4c-2.6,3-3.7,5-3.6,6c0,1.7,0.9,2.9,2.8,3.3
		c2.3,0.1,4.6-0.4,6.9-1.6c5.8-3.1,9.2-5.3,10.2-6.6c1.8-1.8,2.7-3.8,2.7-6.1c-0.1-0.4-0.6-0.6-1.3-0.7c-1-0.2-2.3-0.2-3.8-0.1
		L1095.2,338.2z"/>
	<path class="st7" d="M988.9,491.2c-3.7-0.1-7.6,0.3-11.7,1.2c-2.9,0.8-5.3,1.9-7.4,3.2c-1.4,0.9-1.9,2.2-1.5,3.9
		c0.4,1.3,1.7,2.4,3.9,3.3c2.6,1.1,6.2,1.6,10.9,1.6c4.2-0.2,7.6-0.9,10.1-1.9c3.2-1.2,4.8-2.6,4.7-4.2c0.4-1.7-0.6-3.3-3-4.8
		L988.9,491.2z"/>
	<path class="st7" d="M718.8,501.7c-2.8,1.5-5.9,4-9.4,7.6c-2.2,2.3-3.8,4.6-4.8,6.8c-1.4,4.3,1.1,5.4,7.5,3.2
		c7.1-2.5,13.6-7.3,19.5-14.3c0.9-1.6,0.4-3.1-1.4-4.5c-2.6-1-5.2-1-7.9,0L718.8,501.7z"/>
	<path class="st7" d="M1216.9,297.1c-1-1.9-2.8-3.8-5.4-5.8c-5-4.2-8.3-6.3-10-6.3c-2.2-0.4-3.5,0.2-3.8,1.7
		c-0.1,2.2,0.7,4.7,2.5,7.5c5.4,8.1,10.4,13.2,15.1,15.4c2.8,0.6,4.5,0.1,5.1-1.6c0.9-1.4,0.6-3.7-1-6.9L1216.9,297.1z"/>
	<path class="st7" d="M1188,485.1c-0.1,1.7,1.2,5,3.8,9.8c2.3,3.9,4.5,6.7,6.8,8.6c2,1.2,3.7,1,4.9-0.6c1-1.3,1.1-3.7,0.3-7.2
		c-0.3-1.9-1.8-5.2-4.5-9.9c-1.5-2.6-3.2-4.6-4.9-6.2c-1.9-1.7-3.8-2.7-5.9-3.1c-1.6,0-2.3,1.1-1.9,3.2L1188,485.1z"/>
	<path class="st7" d="M789.6,334.9c-3.4-1.6-6.7-1.1-10,1.6c-1.7,1.3-3.2,3-4.3,5.2c-1.5,2.8-2.1,4.9-2,6.4c0,2.7,0.8,4.6,2.2,5.7
		c1.5,1,3.2,1,5,0.1c2.2-1.4,3.9-3.1,5.2-5.2c2.2-3.6,3.5-6.7,3.9-9.1V334.9z"/>
	<path class="st7" d="M774,359.7c-0.8,2.5-1.2,4-1.2,4.5c-0.1,0.8,0.1,1.5,0.6,2.1c1.2,1.3,2.4,1.3,3.6,0.2c0.6-0.6,1-1.2,1-1.9
		c0-0.5-0.3-1-1-1.5L774,359.7z"/>
	<path class="st7" d="M983.2,203.3c-0.8-0.8-3.7-1.6-8.8-2.6c-2.6-0.5-5.3-0.7-8.1-0.4c-5.5,0.6-7.9,2.3-7.2,5.2
		c0.9,1.7,2.8,3,5.5,4c4.3,1.5,8,2.3,11.1,2.3c3.7,0.1,6.4-0.4,7.9-1.3c0.9-0.5,1.4-1.3,1.6-2.2c0.1-1-0.1-1.6-0.7-1.9L983.2,203.3z
		"/>
	<path class="st8" d="M1063.6,367.9c4.5,5.4,11.5,7.1,21,5.2c3.4-0.6,6.9-1.9,10.3-3.9c3-1.5,8.1-5.1,15-10.7
		c0.4-0.3,0.9-0.5,1.5-0.4c1.3-0.1,2.1,1.7,2.5,5.2c0.1,2.6-0.5,5-1.8,7.2c-2,3.8-5.8,7.1-11.4,9.9c-6.9,3.4-13.8,5.2-20.7,5.7
		c-5.9,0.4-10.8-0.5-14.7-2.8c-3.3-1.7-5-4.9-5.1-9.5L1063.6,367.9z"/>
	<path class="st8" d="M1186.7,281.6c-1.1,8.7,1.3,17.6,7,26.4c2.4,3.9,6,7.9,10.5,11.9c0.9,1.1,8.9,7.1,23.9,18
		c2.1,2.4,2.8,5.8,2.3,10.1c-1.3,4.4-7.9,3.7-19.8-2.1c-9.9-5.4-17.7-12.4-23.4-20.9c-9.8-14-10.1-27.9-0.9-41.8L1186.7,281.6z"/>
	<path class="st8" d="M1157.9,475.3c0.9,9.8,4.9,19.1,12.1,28c2.6,3.2,6.2,6.6,11,10.1c3,2.5,8.8,5.7,17.2,9.5
		c1,0.5,1.4,1.5,1.4,2.7c-2.5,5.2-7.5,7.7-15.1,7.5c-6.5-1-12.9-4.6-19.3-10.8c-6.1-6.6-10.2-14.5-12.4-23.6
		c-1.5-7.7-0.1-13.2,4.2-16.7L1157.9,475.3z"/>
	<path class="st8" d="M924.5,213.8c6.3,11.6,17.5,17.7,33.4,18.3c8.1,0,15-0.9,20.7-2.8c4.9-1.5,11.8-6,20.9-13.8
		c1.2-0.6,2-0.3,2.3,0.9c0.6,6.6-3,13.4-10.6,20.4c-7.4,6.4-15.9,10-25.5,10.7c-9.8,0.7-18.8-1.7-27.1-7.1
		c-8.5-5.7-12.5-11.8-12.1-18.5L924.5,213.8z"/>
	<path class="st8" d="M761.2,386.5c13.1,4.5,24.4,2.8,33.8-5.2c3.7-3.5,6.1-8.3,7.2-14.3c0.5-2.9,0.8-5.5,0.9-7.7l-0.5-18.1
		c1.2-1.9,3.6-1.9,7.2,0c10.9,9.1,14,23.5,9.4,43.1c-1.8,6.6-5.2,11.8-10.2,15.6c-5.5,4.7-11.7,7.4-18.6,8L761.2,386.5z"/>
	<path class="st8" d="M714.2,551c8.2-4.8,14.6-11.3,19.3-19.5c2.6-4.1,5.1-9.3,7.3-15.5c1-2.3,1.9-7.1,2.8-14.3
		c0.4-1.1,1.2-1.6,2.4-1.4c4.2,1.7,7,6.1,8.3,13.1c1,8.4,0.2,15.4-2.3,21.2c-2.4,5.8-6.5,10.4-12.3,13.7c-5.3,3.2-10.6,4.3-15.9,3.3
		L714.2,551z"/>
	<path class="st9" d="M921.9,542c-38.5-10.5-62.3-29.5-71.3-57c-10.5-28.1-11.4-53-2.5-74.7c2.5-8.1,9.9-17.6,22-28.3
		c14.8-11.8,24.6-16.6,29.3-14.5c2.4,1.8,3.2,5.2,2.3,10.2c-0.7,3.1-1.7,6.1-3,9c-12.5,27.9-18.2,41.9-17.2,41.8
		c-3.7,14.3-4.9,25.7-3.6,34c1.1,11.5,5.7,24.1,13.8,37.6c7.2,10.6,15.4,19.7,24.6,27.3L921.9,542z"/>
	<path class="st9" d="M750.7,345.7c-4.3-12.4-0.7-26.8,10.6-43c10.5-10.9,21.8-14.5,33.7-10.9c6.5,3.1,9.1,5.7,7.9,7.7
		c-0.2,0.4-0.7,0.9-1.5,1.5c-9.6,5.7-15.3,9.5-17.3,11.2c-3.9,3.1-7.3,6.5-10.1,10.1c-5.1,6-8.5,15.6-10.1,28.5L750.7,345.7z"/>
	<path class="st9" d="M847.3,302.8c-5.9-4.8-9.6-13.7-11.3-26.5c-1.6-12.6-0.6-22.4,3.1-29.6c8-21.3,27.1-40.3,57.3-56.9
		c13.3-9.2,33.3-13.1,59.8-11.8c3.2-0.6,21,3.6,53.3,12.7c8.1,2.3,14.4,5.3,19.1,8.9C985.4,180.9,946,181,910.5,200
		c-17.4,8.6-31.7,21.8-43.1,39.6c-14.4,22.8-20.5,41.9-18.4,57.1L847.3,302.8z"/>
	<path class="st9" d="M912.7,224.6c-4.4,5.6-4.8,10.3-1.2,14c5.5,6.6,13.7,11.2,24.8,13.8c11.7,2.8,23.9,2.6,36.6-0.5
		c6.1-1.7,11.1-3.5,14.9-5.3c0,0.3,8.1-4.1,24.1-13.1c2.8-1.4,4.7-2.2,5.9-2.2c3,0,4.6,2,4.9,6c-0.1,4.6-1.6,8.3-4.4,11.2
		c-6,6.3-15.2,11.2-27.8,14.5c-19.7,4.9-34.8,6.3-45.2,4.4c-23.9-3.3-37.6-14.4-41.2-33.4L912.7,224.6z"/>
	<path class="st9" d="M1036.1,216c6.5-1.3,15.2-2,26.3-2.2c8.5-0.1,16.1,0.2,22.7,1c13.6,1.9,26.6,5.9,39,12.2
		c10,4.9,18.2,10,24.6,15.3c11.9,9.5,18.4,15.8,19.4,18.9c-19.7-11.4-37.8-19.8-54.4-25.3c-10.4-3.2-17-5.1-19.9-5.6
		c-6.7-1.5-16.5-3.1-29.3-4.7c-4.8-0.8-10-1.9-15.4-3.3L1036.1,216z"/>
	<path class="st9" d="M699,329.5c0.3-15.2,8.3-30.8,24-46.8c9.3-8.9,19.8-15,31.6-18.3c17.1-5.1,28-5.5,32.8-1.4
		c0,1.1-0.9,2-2.6,2.7c-16.9,6.7-26.7,11.2-29.3,13.6c-17.2,12.9-27.6,21.8-30.9,26.6L699,329.5z"/>
	<path class="st9" d="M668.1,321c-3.6-1.5-9.5,0.1-17.6,4.9c-7.1,5-12.8,10.2-17.1,15.6c-9.7,13.4-13.1,25.4-10.3,36.2
		c0.9,3.5,3,7.1,6.3,10.7c14.2,13.6,21.3,20,21.4,19.3c-14.8-17.1-21-31.2-18.4-42.3c1.7-9,6.2-16.8,13.5-23.4
		c1.8-1.8,5.1-4.4,9.7-7.8c3.3-1.8,11.3-7.1,24-15.9c1.5-1,2.5-1.8,3.1-2.6c2-4.6-3.2-3.9-15.6,2L668.1,321z"/>
	<path class="st9" d="M661.1,425.8c-13,11.6-21.7,23.8-26.1,36.6c-2.5,5.6-4.9,13.6-7.3,23.8c-1.1,4.7-1.7,10.7-1.9,18
		c-0.1,16.6,2.8,31.5,8.6,44.7c2.9,6.8,5.8,11.8,8.6,15.2c10.1,12.3,15.2,17.3,15.1,14.9c0.3-0.1,0.2-0.8-0.3-2
		c-3.8-5.9-7.8-13.4-11.8-22.5c-2.7-6.1-5.1-12.7-7.4-19.6c-3.2-10.3-4.5-20.9-3.9-31.7c0.8-9.3,2.4-17.3,4.8-24
		c3.3-9.1,11-25.5,23.2-49.1c0.4-0.8,1.3-3.2,2.7-7.3L661.1,425.8z"/>
	<path class="st9" d="M701.3,415.2c5.8,8.6,9.5,14.6,10.9,17.9c4,8.1,6.1,13.6,6.2,16.5c0.3,2.2-0.1,5.7-1.2,10.7
		c-4.7,12.8-7,20.2-7.1,22.1c-1.1,8-1.3,13-0.7,14.9c2,3,7-1.1,15.2-12.5c6-7.5,7.1-18.7,3.5-33.4c-0.8-3.4-4.2-10.3-10.1-20.5
		c-1.2-2.4-6.2-8.4-15-18.1L701.3,415.2z"/>
	<path class="st9" d="M1117.6,492c-4.7,15.2-4,26.1,2.4,32.8c1.1,1.2,2.9,2.6,5.4,4.3c9.4,5.3,17.1,10.2,23.3,14.9
		c2.8,1.8,5.7,3.3,8.4,4.5c6,2.7,10.7,2.6,14.1-0.4c2.3-2.2,2.7-4.7,1.1-7.4c-0.7-1.1-1.6-2.1-2.5-3.1c-5.9-5.2-10-9.3-12.2-12.1
		c-3-3.9-5.6-8.4-7.7-13.5c-1.7-2.4-4.2-12.8-7.5-31.2c-0.8-3.1-1.7-5.5-2.5-7.2c-5.8-8.4-11.5-10.6-17.3-6.5
		c-4.9,3.3-7,10.9-6.1,22.9L1117.6,492z"/>
	<path class="st9" d="M1196.2,454.6c1.9-0.2,4.1,0.7,6.5,2.9c0.2-0.3,3.8,4.7,10.6,15c1.7,2,3.3,3.5,4.9,4.4c3.9,2,7.2,0.6,9.9-4.3
		c6.5-19.7,9.7-30.7,9.6-33c1.1-6.1,0.2-10.8-2.8-14.2c-3.9-4.4-8.4-5.6-13.3-3.6c-1.8,0.9-3.3,2.1-4.5,3.4
		c-7,8.4-11.8,13.7-14.5,16.1L1196.2,454.6z"/>
	<path class="st9" d="M1183.6,339.8c0.3,1.9,3.9,3.9,10.6,6.1c1.5,0.7,7,1.7,16.7,2.8c2.1,0.5,3.7,1.1,4.7,1.7
		c3.8,2.2,6.7,6.5,8.7,12.6c4.3,14-2.5,28.9-20.5,44.9c-8.5,7.7-17,12-25.4,13.2c-10.1,0.4-16.4-2.9-18.8-9.9
		c-1.2-3.1-1.4-6.7-0.7-11c0.3-2.1,0.8-4,1.3-5.8c3.8-11.4,5.8-18,6-19.8l0.9-5.1c0.9-11.2,1.6-16.8,1.9-16.8
		c1.3-4.9,4.9-8,10.6-9.2L1183.6,339.8z"/>
	<path class="st9" d="M1032.3,304.2l-30,4.7c-3.8,0.7-17.5,1.2-41.1,1.6c-6.1,0.5-11.9,1.4-17.4,2.8c-17,6.2-26,13.1-27,20.7
		c0,2.7,1.8,5.5,5.4,8.6c21.9,14.3,33.3,22.9,34.4,25.7c1.2-0.4,8.4,11.3,21.5,35.2c4,5.6,8.8,10.7,14.5,15.4
		c13.9,10.3,30.1,14.2,48.5,11.6c8.4-2.1,11.9-6.7,10.7-13.8c-0.5-2.2-1.8-5.1-3.8-8.8c-10-13.6-16.2-23.1-18.5-28.5
		c-3.4-7.5-4.9-14.4-4.6-20.7c0.3-4.6,2.9-9.1,7.9-13.4c1.3-2,12.3-9.6,33.1-22.8c5.3-4.2,8.5-7.7,9.7-10.5c2.5-4.5,1.5-8.5-3-12
		c-2.9-2.6-8.3-3.3-16.3-2.2L1032.3,304.2z"/>
	<path class="st10" d="M1060.7,413.8c6.6,3,10.1,14.4,10.6,34.3c-1.3,16-5.8,29.9-13.3,41.7c-8.6,12.5-17.1,21.4-25.4,26.7
		c-4.3,4.3-21,12.9-50.3,25.8c-2.5,1.3-4.2,2.8-4.9,4.5c-0.7,5.4,6,6.5,20.2,3.2c8-2.2,19.8-8.6,35.5-19
		c27.5-21.4,44.6-45.1,51.3-71.1c2.9-9.7,3.1-18.4,0.5-26.2c-2.9-12.2-8.5-20.5-16.9-24.9L1060.7,413.8z"/>
	<path class="st10" d="M698.3,408.3c-0.8-2.5-2-4.4-3.7-5.6c-3.3-3.2-9.1-7.1-17.3-11.7c-4.5-3.4-7.7-6.1-9.4-8.1
		c-4.2-5.2-6.2-9.9-6-13.9c0.9-7.1,2.1-11.2,3.5-12.4c3.3-5.4,8-10.1,14-14.1c5.2-3.5,10.1-5.9,14.8-7.1c2.2-0.9,9.4-2.1,21.5-3.6
		c-7.8,0.2-15.9,2.5-24.5,7c-4.9,3.2-8.1,7.6-9.7,13.4c-1.1,5.4-1.1,10.4,0.2,15c0.8,1.7,1.5,3.1,2.2,4.1
		c5.8,7.3,9.1,12.1,10.1,14.5c2.7,5,4.4,10.5,5.1,16.5L698.3,408.3z"/>
	<path class="st10" d="M637.1,459.3l16.5-27l9-11.6c8.5-8.7,15.4-13.9,20.5-15.7c5.5-2.8,11.6-2,18.3,2.3
		c7.1,5.2,10.5,11.2,10.2,17.9c-0.1,7.8-4.1,15.2-12,22.1c-2.9,2.8-6.1,5.3-9.7,7.4c-13.5,6.8-23.6,12.6-30.2,17.2
		c-5.9,4.9-11.2,10.9-15.9,17.9c-10.1,13.1-13,30.2-8.7,51.2L637.1,459.3z"/>
	<path class="st11" d="M745.8,803.9c-0.7-4.1-1.4-7.3-2.1-9.5l-5.1-16.2c-1.2-5.3-4.4-16.7-9.5-34.2c-0.8-3-1.5-5.7-1.8-8
		c-0.9-4.6-0.4-7.5,1.4-8.6c1.1-1,2.7,0.7,4.8,5.1c1,2.6,2.1,6.1,3.3,10.5c3.5,16.1,5.4,24.6,5.8,25.5c7.8,24,13.6,43.5,17.4,58.5
		c1,3.7,2,8.2,3.2,13.6c0.3,1.9,0.3,3.2-0.1,4L745.8,803.9z"/>
	<path class="st11" d="M698.7,653.1c1.8-12.2,7.9-19.7,18.3-22.5c4.1-1.4,10.4-1.7,19.1-0.8l25.1,5.1c4.6,0.8,8.9,1.3,12.7,1.4
		c3.4,0.4,10.7-0.3,21.9-2.1c8-1.4,16.4-4.1,25.2-8.2c25.5-16.2,41.3-25.5,47.7-27.8c8.1-3,12.5-1.7,13.3,4.1
		c-1,16.5-15.7,29.7-44.4,39.6c-12.2,4.8-24,7.2-35.4,7.3c-13.1,0.6-33.8-1.2-62.1-5.4c-4.7-0.3-9.4,0.1-14,1
		c-16.5,5.6-24.8,13.4-24.9,23.6L698.7,653.1z"/>
	<path class="st11" d="M820.9,632.3c5.1-2,10.4-5,16-8.9c19.7-17.2,30.1-26,31.2-26.2c5.4-3.6,10.3-5.5,14.7-5.5
		c5,0.3,9.7,1.7,14.4,4.4c2.9,1.4,10.2,7.3,22,17.7c5.5,4.2,9.3,6.9,11.4,8.1c5.7,3.9,14.8,8,27.4,12.3c-2.5,0.9-7.4,1-14.8,0.1
		c-3.3-0.4-6.8-1-10.6-1.8c-14.2-3.3-22.8-5.2-25.6-5.6c-5.6-0.9-10.2-1.2-13.8-0.9c-2.5,0.1-7,0.8-13.4,2.3L844,639.1
		c-10.1,2-16.3,3-18.5,3L820.9,632.3z"/>
	<path class="st12" d="M719.8,765.6c-3.1-15.1-8.5-33.6-16.2-55.5c-5.8-22.2-8.9-33.9-9-35.2c-3.5-15.5-5.4-24.2-5.6-26.2l-4.8-33.9
		c-0.1-0.6,0-0.7,0.2-0.1c0.2,1.4,1.9,7,5.1,16.7l3.5,9.4c6.6,12.6,11.5,24.3,14.8,35.2c3.3,10.3,7.5,27.7,12.4,52l15.2,53.9
		c4.2,19.1,6.7,38.4,7.5,57.9L719.8,765.6z"/>
	<path class="st12" d="M697.6,671.8c-10.9-39.3-15.6-60.1-14.3-62.5c0-0.3,1,0,3,0.8c16,7.5,27.8,12.5,35.5,15
		c11,2.9,20.5,4.2,28.5,3.9c22.5-0.7,38-2.4,46.4-5.2c8.8-2,15.3-3.9,19.5-5.6c6.4-2.2,14.5-6.1,24.2-11.6c1.4-0.7,2.2-0.7,2.5-0.2
		c-1.1,5.1-6.8,10.9-17.2,17.1c-6.8,4.6-15.4,8-25.9,10.3c-4.8,1.5-12,2.2-21.5,2.1c-3,0.3-14.9-0.3-35.5-1.9
		c-3.3-0.1-6.7-0.1-10.3,0.1c-6.2,0.3-12.2,2.3-17.8,5.9c-5.2,3.4-8,10.3-8.5,20.7c-0.8,1.9,1.1,16.5,5.6,43.5L697.6,671.8z"/>
	<path class="st12" d="M693.4,669.7c-9.4-38.1-14.8-57.6-16.2-58.6c-1-1.7-2.5-3.5-4.7-5.2c-6.3-4.1-14.2-9.9-23.6-17.4
		c-1.1-0.8-3.6-3.3-7.4-7.5c-6.6-7.3-12.1-16.7-16.4-28c4.8,8.6,12.5,17.4,23.2,26.2c5.7,4.4,11.9,8.9,18.6,13.4
		c5.9,3,21.2,12.9,45.9,29.8L693.4,669.7z"/>
	<path class="st12" d="M1185.1,689.5c11.6-39.4,24.5-73.4,38.7-102c3.2-4.8,6.8-8.3,10.9-10.4l17.7-8.2c1.2-0.6,2.8-1.6,4.7-3.1
		c6.4-5,10.2-9.1,11.2-12.2c0.3-1-0.8-0.8-3.3,0.6c-9.1,6.2-16.8,10.8-23.3,13.7c-3,1.7-9.6,4.6-19.8,8.6
		c-9.5,6.5-13.9,10.1-13.2,11c-3,5-5.8,12.7-8.3,23.2c-3.6,15.3-7.9,38.4-12.7,69.3c-0.7,4-1.7,8.5-3.2,13.5L1185.1,689.5z"/>
	<path class="st12" d="M1253,564.8c-12.9,6.7-30.6,12.6-53.4,17.7c-9.2,1.8-17.9,3.1-26.3,4c-3.7,0.3-7,0.6-10,0.7
		c-6.2,0.1-12.8,0.3-19.7,0.7c-1.2,0.1-1.8,0.2-1.8,0.3c-2.1,1.7,7.6,2.6,29.1,2.8c3.8,0,8.8-0.2,15.1-0.6
		c5.7-0.4,13.5-1.2,23.6-2.6c2.4-0.2,4-0.3,4.8-0.3L1253,564.8z"/>
	<path class="st12" d="M1210.6,583.1c3.1-0.2,10-2.5,20.8-6.9c19.6-9.3,30.8-15,33.6-17.2c-10.7,8.5-17.9,13.7-21.8,15.9
		c-11.5,7.3-19.8,12-24.9,14.1L1210.6,583.1z"/>
	<path class="st12" d="M1217.5,584.6c13.5-5.4,24-10.6,31.3-15.7c3.5-2.3,6.9-4.9,10.1-7.7c5.5-5.4,9.3-9.5,11.4-12.3
		c0.5-0.6,0.7-0.6,0.6,0c-1.4,6.1-6.7,13-15.7,20.8c-7.3,5.6-12.5,9.2-15.4,11l-10.7,6.2c-6,2.8-10.4,5-13.2,6.6L1217.5,584.6z"/>
	<path class="st12" d="M1011.9,627.8c0.9-0.1,6-2.4,15.2-7c19.6-14.5,35.4-24.2,47.4-29.2c7.8-3.2,19.8-5.3,36.2-6.4
		c7.4-0.6,20.3-1,38.6-0.9c21.2,1,36.6,1.2,46.1,0.7c2.4,0.5,2.2,1.2-0.4,2.3c-3.3,0.9-6,1.5-8,1.7c-9.6,0.6-33.5,3.9-71.7,9.9
		l-37.8,10.6c-1.1,1-17.3,6.7-48.6,17.3c-10.7,3.1-19.2,5.3-25.5,6.8c-13.6,1.9-26.5,1.1-38.7-2.4L1011.9,627.8z"/>
	<path class="st12" d="M816,619.9c1.9-0.6,3.2-1.1,4.1-1.7c5.4-2.9,14.2-8.4,26.7-16.4c8.5-4.5,12.6-6.5,12.3-6.1
		c8.3-3.3,16.8-4.5,25.6-3.5c7.2,0.4,13.6,2.1,19.2,5c1.7,1,3.5,2.1,5.4,3.6c12.3,10.4,19.3,16,21,16.7c5.1,3.6,11.6,6.9,19.7,10.1
		c-4.6-0.7-9.9-2.3-16-4.7l-29.8-13.4c-6.7-2-14.4-3-23-2.9c-3.9-0.2-11.6,1.5-23.2,5.1c-0.9-0.2-13.3,4.7-37.1,14.8l-24.1,6.4
		L816,619.9z"/>
	<path class="st12" d="M725.1,769.5l17.7,78c8.8,27.6,14.3,42.4,16.3,44.4c10.8,16.7,29.9,25.7,57.5,26.8c-27-8.5-43-17.9-48.3-28.4
		c-11.4-18.7-23.1-54.2-35.1-106.5L725.1,769.5z"/>
	<path class="st12" d="M627.1,457.7c7-11.4,10.6-17.7,11-19c3.3-8.8,4.7-15.3,4.3-19.7c0-1.7-1.4-4.5-4.2-8.5
		c-9.5-7.9-16.1-14.9-19.6-20.9c-1.7-3.4-2.8-6.3-3.3-8.8c-0.9-6-1.1-9.5-0.6-10.3c3,6.3,6.5,11.9,10.5,16.8c0.7,1.5,9,9.5,24.9,24
		c1.9,1.9,3.3,3.7,4.1,5.5c0.9,2.3,0.8,4.9-0.4,7.7c-5.1,9.2-8.8,14.7-11.2,16.4L627.1,457.7z"/>
	<path class="st12" d="M626.7,330.6c1.1-3.7,4.4-7.5,9.9-11.4l7.9-4.6l17.7-7.7c7.6-4.4,11.8-7.2,12.7-8.5c1.4-1.3,4.5-4.7,9.1-10.3
		c9.9-14.6,17.5-25.2,22.9-31.9c0.7-0.5,0.4,0.6-0.9,3.2c-5.8,10.7-9.6,17.8-11.4,21.5c-3.2,5.8-5.9,10.1-8,12.8
		c-6.4,7.7-10.1,11.6-11.1,11.7c-3.2,1.6-5.5,2.6-6.7,2.9c-15.3,4.3-23.5,7-24.7,8c-5.5,2.2-9.9,5.1-13.2,8.7L626.7,330.6z"/>
	<path class="st3" d="M656.9,420.7c7.3-7.6,11.6-14.6,13-20.8c0.4-2.2,0.3-4.3-0.2-6.2c-0.1-1-1.9-4.6-5.4-10.6
		c-0.6-1.3-1.2-2.6-1.7-3.9c-1.1-3-1.7-6.3-1.7-9.9c-0.5-5.4,2.2-11.4,8.3-18.1c-4.5,7.9-4.9,16.3-1.3,25.2c0.8,2.3,3.1,5.2,6.9,8.9
		c5.7,4.5,11.2,9.3,16.5,14.6c1.3,1.3,1.7,2.3,1.3,3c-0.2,0.6-0.9,1.3-2.2,2.1c-8.5,2.8-15.5,6.3-21,10.7
		c-6.3,4.8-12.2,10.8-17.5,18.1L656.9,420.7z"/>
	<path class="st13" d="M1082.7,594.4c-9.8,4.3-15.9,7-18.3,8.3c-23.5,14.1-35.7,20.8-36.5,20.3c-13.8,5.7-24,8.5-30.5,8.5
		c-4.9,0.3-8.4,0.4-10.5,0.3c-0.8,0-1-0.2-0.7-0.6c9.8-3.9,19-8.4,27.6-13.4l40.3-25.3c11-5.4,21-9,30-10.9
		c12.3-3,23.5-4.4,33.7-4.4c7.8,0.1,14,0.3,18.6,0.8c22.4,2.4,34.4,3.5,36,3.3c21.6,0.2,34.3,0.1,37.8-0.1c1.1,0.3,0.7,0.7-1.3,1.2
		c-9.3,2.6-14.9,4-16.9,4.1c-6.1,1-14.6,1.6-25.5,1.8L1082.7,594.4z"/>
	<path class="st13" d="M1272.8,506.6c1.1-15.4,0-28.2-3.4-38.4c-1.5-5.9-6.1-16.5-13.9-31.7c-0.1-1-4.4-7.9-12.7-20.4l-10.7-13.6
		c-0.9-1.1-1.6-1.5-2.2-1.3c-1,0.2-2,1.2-3.2,2.9c-2.3,5.4-6.2,11.2-11.8,17.6c10.6-7.1,20.4-3.4,29.6,11.1
		c4.8,8,10.1,21.6,15.8,40.9c5.4,16.8,8.6,30.5,9.5,41.2L1272.8,506.6z"/>
	<path class="st8" d="M1232.1,555.4c6.4-7,11-22.9,13.6-47.5L1232.1,555.4z"/>
	<path class="st8" d="M1230.2,548.3c0.2-14.9,1.3-29.7,3.4-44.4c0.2-12.9,0.4-21.8,0.7-26.8c0.9-6.7,1.7-14.5,2.2-23.4
		c0.3-6.4,0.2-11.7-0.3-15.8c-1.4-14.2-11-15.1-28.9-2.8c-0.8-1.7,2.2-6,9.3-12.8c11.8-9.3,22.1-3.4,31,17.6l13.1,41.6
		c2.3,8.1,3.5,14,3.5,17.8c1.2,15.7-0.3,28.8-4.5,39.4c-0.6,1.7-1,2.2-1.3,1.4c0.6-9.4,0.3-17.8-0.8-25.2c-1,1.9-2.8,6.9-5.4,14.9
		L1230.2,548.3z"/>
	<path class="st8" d="M1094.2,252.5c15.5-1.7,26.4-1.9,32.8-0.4c11.4,2,17.9,3.4,19.5,4.1c4.7,1.4,7.1,2.1,7.3,2.2l18.3,6.8
		c0.4,0.1,0.7,0.1,0.8,0c-2.2-3.5-13.1-14.4-32.7-32.7c-3.3-2.6-5.4-4-6.1-4.3c-10.1-5.9-15.8-8.8-17.1-8.8
		c12.9,8.9,17.6,14.9,14,17.9c-1.1,1.6-3.7,2.8-7.7,3.8c-1,0.2-2.1,0.3-3.1,0.4c-9.1,0.3-13.6,0.5-13.4,0.7c-2.1,0.2-4.1,0.7-6,1.4
		c-4.8,1.7-8.1,4.7-9.7,9L1094.2,252.5z"/>
	<path class="st8" d="M1235.6,422.4c-6-2.7-11.7-2.4-17.2,0.9c-1,0.5-2.1,1.3-3.3,2.2c-3.3,3-8.7,7.4-16.3,13.4
		c-3.7,3.5-7.2,6.5-10.6,8.9c-1.4,1.3-2,1.9-1.8,1.9c0,0.9,2.4,0,7.4-2.7c3.6-2.1,9.2-6.3,16.9-12.7c1-0.8,3-2,6.2-3.5
		c7-3.2,11.8-4.3,14.3-3.2c2.4,0.4,4.2,4.6,5.6,12.5c0.7,3.6,0.6,12.1-0.3,25.6L1235.6,422.4z"/>
	<path class="st14" d="M774.7,555.8c5.6-2.6,12.9-4.9,21.7-7l23.9-4.4c4.2-0.5,8-0.4,11.5,0.1c6,1,12.3,4,18.7,9.1l13.5,12.5
		c0.6,1.2-0.1,2-2.1,2.2c-0.2,0.2-3,0.1-8.5-0.3l-28.4-3.3c-1.3-0.2-2.5-0.3-3.8-0.3c-0.2-0.1-3.6,0-10.1,0.5l-29.5,0.8h-15
		l-13.6-0.6c-16.8-1.5-28.7-3.1-35.6-5L774.7,555.8z"/>
	<path class="st14" d="M839.4,316.3c2,5.4,8.2,9.6,18.5,12.7c4.2,1.1,8.8,1.5,13.8,1.3c1.8,0.1,8.7-0.7,20.7-2.3c3-0.2,5.3-0.2,7,0
		c6.6,0.3,10.2,2.4,10.8,6.2c0.1,3-2.2,6.1-7,9.4c0.3,0.1-8.6,4.9-26.7,14.6l-11,7c-3.3,2.8-8.2,6.3-14.7,10.4
		c-2.6,1.5-5.5,2.6-8.7,3.3L839.4,316.3z"/>
	<path class="st14" d="M842,358.4c2.9-3.9,4.2-7.2,3.8-9.8c-0.2-1.5-0.9-3.1-1.9-4.5c-4.5-5.1-7.1-8.2-7.8-9.4c-1.2-2-2.1-4-2.6-6.1
		c-2.8-12.7-2.3-19.3,1.3-19.8c1-0.4,2.2,0.2,3.5,1.9l3.6,7.8c0.5,0.9,1.9,2.5,4.2,4.7c1.8,2,5.1,3.8,9.6,5.4
		c3.2,0.9,6.6,1.4,10.2,1.3c4-0.2,13.5-1.1,28.6-2.8c4.5-0.1,7.1,0.3,7.7,1.3c1.5,1.3,2.2,2.9,1.9,4.7c0.3,0.3-1.2,2.3-4.4,5.8
		c-2.7,3.3-7.9,6.6-15.7,10.2L842,358.4z"/>
	<path class="st15" d="M993.6,875c0.1-0.5,0.2-2,0.2-4.2c0-0.2,0-3.8,0-10.8c0.5-14,0.8-25.1,0.9-33.2l1.1-32.4
		c0.3-11.7,0.2-22.8-0.1-33.3c0-2.1,0.2-5.7,0.5-10.8c0.6-5.5,2.4-7.8,5.2-7c1.1,0.6,1.8,1.5,2.1,2.7c0-0.5,0.5,2.3,1.5,8.5
		c0.2,0.2,0.2,3.5,0.3,10l-1,16.3l-1.3,27.6l-0.4,14.4l0.1,24.7c0,1-0.2,3.9-0.5,8.6l-0.2,8.3c0,0.3-0.3,3.5-1,9.4
		c-0.1,4.6-0.2,7.5-0.4,8.9l-1.3,9.2c-0.5,3-1.5,4.5-3,4.7L993.6,875z"/>
	<path class="st16" d="M1064.5,108.7l-2.6,0.1c-7.5,0.4-18.6,2.1-33.3,5.3c-11.8,5.7-21.3,11.4-28.4,17.1c-4.9,5.7-8,11.5-9.3,17.5
		c-1.2,4.3-1.1,12.6,0.2,25c1.8,7.3,5.9,14.9,12.3,22.9c1.5,3.1,8.5,8.4,21,15.8c10.2,5.6,21.1,9.6,32.8,12.1
		c15,2.5,24.2,3.5,27.7,3c14.8-1,27.3-3.3,37.4-6.9l7.2-2.9c4.5-2.1,8.4-4.6,11.7-7.3c12-10.2,16.9-23.2,14.6-39.1
		c-0.5-4.3-4.3-11-11.3-19.9c-1-1.3-7.2-5.5-18.8-12.6l-23.3-19.2C1093.5,113.9,1080.8,110.3,1064.5,108.7z"/>
	<path class="st16" d="M1098.5,121.1c5.4-15.6,8.6-27.7,9.5-36.3c1.3-14.9,1.5-27.4,0.3-37.4c-0.5-6.1-3.7-15.1-9.7-27
		c-1.5-2.5-3.2-4.8-5.2-6.8c-3.9-3.8-7.5-6.7-10.8-8.7c-0.5-0.5-0.8-1-0.8-1.6c1.8-2,7-3.1,15.5-3.3c4.9,0,8.5,1.2,10.8,3.6
		c4.9,5.3,9.2,13.1,12.8,23.4c2.5,6.1,4,12.9,4.7,20.5c1.5,11.6-0.3,26.3-5.6,44.1c-9,19.9-17,35.2-24.1,45.8L1098.5,121.1z"/>
	<path class="st16" d="M1020.7,204.2c-18.2-5.9-28.8-20.1-31.6-42.7c-3-18.8,4.3-34.4,21.9-46.8c12.5-8.5,29-13.1,49.6-13.8
		c5.5,0.1,11,0.8,16.2,2.1c18.7,7.3,28.4,10.7,29.3,10.2l30-0.6c5.8,0.3,10.6,1.2,14.3,2.7c15.1,6.5,23.3,20.1,24.6,40.9
		c0.6,19.5-8.1,37.2-26.1,53.1c-18,13.9-37.7,20.4-59,19.5c-23.8-1.2-43.2-7.9-58.1-20.2L1020.7,204.2z"/>
	<path class="st17" d="M1126.9,125.1c-4.2,4.2-5.7,7.4-4.6,9.5c0.6,1.5,1.5,2.9,2.6,4.4c5.2,5.3,8.3,8.9,9.5,10.8
		c1.6,2.3,2.9,4.4,3.9,6.4c2.7,5.3,3.4,10.7,2.2,16.2c-2.4,9.6-6.1,17.4-11.1,23.4c-2.1,2.7-4.8,5.5-8.2,8.5
		c-3.1,2.8-7.7,5.8-13.8,9.1c-0.7,0.7-0.7,1.1,0.1,1c17.2-5.7,28.4-11,33.5-15.8c11.3-11.2,18.2-20.9,20.6-29.1
		c2.7-9.6,0.7-20.1-5.9-31.4c-4.9-8.6-12-13.1-21.4-13.6L1126.9,125.1z"/>
	<path class="st17" d="M1077.9,210.5c-0.3,0.3-0.6,0.6-0.9,0.9c0,0-0.3,0.5-0.9,1.4L1077.9,210.5z"/>
	<path class="st17" d="M1085.7,220.5c4.1-0.9,6.6-1.8,7.6-2.5c0.6-0.4,1-0.9,1.2-1.4c0.2-0.4,0.2-1.2,0-2.2L1085.7,220.5z"/>
	<path class="st17" d="M1041.1,109.4c0.9-0.1,3.9-0.7,9.1-1.8c0.7-0.1,1.9-0.3,3.6-0.4c4.6-0.2,8.4-0.1,11.3,0.5
		c4.4,0.6,7.7,1.6,9.9,3c1.7,1.3,1.8,2.6,0.6,4c-2,1.4-4.7,2-8.1,1.9c-2.6-0.1-4.5-0.2-5.6-0.4c-0.9-0.1-4.3-0.6-10.2-1.6
		c-1.3-0.2-3.6-0.4-7-0.8c-3.9-0.3-6.9-0.2-9,0.2L1041.1,109.4z"/>
	<path class="st18" d="M1098,222.8c-21.2-0.9-43.2-6-66-15.5c-6.2-1.3-15.8-9.4-28.7-24.2c-7.9-9.9-10.1-20.6-6.6-32
		c2.7-12.1,10.3-22.2,22.9-30.5c2.3-1.4,3.3-1.6,2.9-0.6c-8.2,11.8-11.7,22.3-10.3,31.5c0.7,10.1,5.6,19.9,14.6,29.2
		c11.1,11.5,22.6,19.7,34.5,24.7c9.8,3.8,24.6,7.9,44.5,12.5L1098,222.8z"/>
	<path class="st19" d="M934.2,887.4c-1.3-0.3-3-11.9-5-34.9c-1.1-13.7-1.7-29.4-1.7-47c-0.1-12,0.4-25.2,1.5-39.5
		c0.9-8.4,1.6-13.4,2-14.8c0.4-1.8,1.1-2.1,2.2-1c2.1,2.8,4,12.8,5.6,30c0.2,2.1,0.4,4.1,0.5,5.9c1,17.1,1.9,30.6,2.7,40.5
		c2.4,27.4,3.7,41.2,3.8,41.4c0.1,0.9,0.4,5.2,0.8,12.8c0.1,3.2-0.3,5.3-1.3,6.4c-1.4,2.1-3.6,4.1-6.7,6L934.2,887.4z"/>
	<path class="st19" d="M887.6,761.8L887.6,761.8c-0.3,0.1-0.5,0.3-0.7,0.9c-0.2,0.7-0.7,4.9-1.5,12.7c-1,10.2-2,23.8-2.9,40.8
		c-1.4,33.8-1.9,54.7-1.7,62.7c-3.3,2-6.5,3.7-9.4,5.2c-1.6,1-2.3,1.8-2.3,2.4c2.3,1.7,6,3,10.9,4.1c3.4,1.1,7.7,1.7,13,1.6
		c0.5,0,0.9-0.4,1.2-1.3c0.1-0.2,0.1-0.5,0.1-0.8l0.1-3.5c0.1-14-0.1-27.3-0.6-39.9c-0.6-14.1-1.7-36.8-3.4-68.1
		c-0.2-4.3-0.7-8.8-1.4-13.4C888.5,762.9,888.1,761.8,887.6,761.8z"/>
	<path class="st19" d="M836.1,766.5L836.1,766.5c-0.7,0.2-0.9,3.1-0.6,8.8c3.2,47.9,5.3,82.9,6.4,105l-5,4.1
		c-0.2,0.2-0.3,0.4-0.3,0.6c0,0.2,0.2,0.4,0.5,0.5l2.5,0.6c6.4,1.6,10.2,2.4,11.4,2.4c1.4-0.1,2.4-0.3,2.9-0.7
		c0.2,0,0.5-0.5,0.9-1.2c0.1-0.3,0.1-0.7,0-1.2c-4.4-35.5-7.2-56.1-8.2-61.8l-9-52.6C837.2,768,836.6,766.5,836.1,766.5z"/>
	<path class="st19" d="M768.7,753.1L768.7,753.1c-0.3,0.1-0.4,0.4-0.5,1.1c0.7,6.5,1.2,10.7,1.5,12.4c1.4,9.1,3.4,20,6.1,32.5
		c8.7,36.1,14.2,57.9,16.5,65.3c-2.6,1.1-4.5,2.1-5.6,2.9c-0.6,0.4-0.9,0.9-1,1.7c4.4,5,10.8,8,19.1,9.1c1,0,1.4-0.8,1.3-2.2
		c-0.3-2.8-1-5.9-2-9.3c-6.5-18.6-11.7-34.3-15.5-47.3c-7.4-29.4-11.6-45.8-12.7-49c-2.9-8.5-4.6-13.2-5.1-14
		C769.9,754.2,769.2,753.1,768.7,753.1z"/>
	<path class="st20" d="M697.6,585.7c9.5,7.4,28.3,9.9,56.5,7.6c8.6-0.7,19.2-2.5,31.9-5.6c8.6-1.9,24.8-6.6,48.4-14
		c3.5-1,5.8-1.2,7-0.8c3.9,4.3-3.7,12.3-22.7,24c-13.5,7.4-28.7,11.6-45.5,12.6c-11.5,1.4-26-0.5-43.6-5.8
		c-14.9-5-28.2-11.8-39.9-20.5L697.6,585.7z"/>
	<path class="st20" d="M967.8,589.7c27.4-6.9,53.4-22.5,77.8-47c11.5-11.6,21.2-23.5,29.3-35.7c10.3-14.9,19.8-34.5,28.5-58.9
		c1.8-2.9,2.8-1.8,3,3c-0.1,13-4.9,30.9-14.5,53.6c-9.6,21.6-19.8,38.2-30.5,49.6c-14.5,17-45.7,29.9-93.5,38.4L967.8,589.7z"/>
	<path class="st20" d="M1209.2,565.3c16.5-9,28-23.7,34.4-44.2c2.5-8,4-18.4,4.5-31.4c0.2-2.4,0.1-9.5-0.4-21.3
		c-0.2-5.9-0.8-14.2-1.9-24.8c-0.1-1.8,0-2.8,0.3-3c4.8,3.3,9.5,18.8,14.1,46.6c4.4,21.8,4.9,37.9,1.3,48.5
		c-5.2,19.4-23.9,30.9-56.1,34.6L1209.2,565.3z"/>
	<path class="st21" d="M1111.2,73.3c0-0.5-0.5,1.3-1.3,5.5c-1.4,8-2.6,14.6-3.8,19.6c-0.5,2.1-1.9,6.6-4.2,13.3
		c0.4,1.8,2.7,2.7,6.8,2.7c2.2-2.9,5.6-12.1,10.4-27.6c1.6-5.6,2.6-11.9,3-18.9c-0.2-12.3-1.6-21.5-4.1-27.8
		c-0.3,14.8-0.7,23.8-1.2,26.9c-0.6,4.5-1.2,8.3-1.9,11.3c-1.4,6.6-2.2,9.3-2.5,8.2c-0.1-0.1-0.1-0.3,0-0.7
		c0.4-3.9,0.6-7.4,0.6-10.6c0-4.2-0.3-12.3-0.9-24.3L1111.2,73.3z"/>
	<path class="st21" d="M1056,204.7c14.2,6.3,29.8,9.9,46.9,11c6.3,0.1,12.7-0.5,19.4-1.9c3.2-0.4,10-2.7,20.4-7.1
		c0.5-0.2,0.5-0.1,0.1,0.5c-5.5,4.6-13.6,9.1-24.4,13.3c-5.7,2.4-13.3,3.9-22.9,4.4c-7.5,0.7-15.1,0.1-22.7-1.6
		c-6.5-1.3-14.9-4.6-25.3-10L1056,204.7z"/>
	<path class="st21" d="M1025.6,189.6c13.6,9.2,29.2,16.7,46.5,22.3c5.4,1.8,12.4,3.4,21,4.7c9.7,1,17.6,1.4,23.7,1.3
		c1.1,0,1.7,0.2,1.8,0.7c-2.5,2.2-9,3.8-19.7,4.8c-13.3,0.4-23.3-0.2-30-1.8c-9.7-1.9-15.8-3.7-18.4-5.3c-12.1-6-20.1-11-24-15.1
		L1025.6,189.6z"/>
	<path class="st21" d="M1010.5,182.7c10.2,9.4,25.2,18.3,44.8,26.8c10,4.1,17.9,6.8,23.6,8.2c3.4,0.9,6.2,1.5,8.3,1.9l19,3.1
		c0.1,0.6-3.2,1.2-9.9,1.6c-3.9,0.3-8.4,0.2-13.5-0.2c-9.9-1.2-20.2-3.3-30.9-6.5c-12.9-3.7-25.3-11.9-37.2-24.5L1010.5,182.7z"/>
	<path class="st22" d="M1010.9,628.3l64.8-27.5c11.9-4.4,22.5-7.6,31.8-9.6c10.9-2.3,20.7-3.6,29.3-3.9l46.8-0.6l38-2.2
		c1.9,0.3,2.7,1.3,2.2,2.9c-12.2,22.9-22.2,48.6-30,77.3c-2.6-36.3-6.4-55.2-11.3-56.8c-1.5-0.3-5.8,0.3-13,1.8
		c-5.2,1.1-11.5,3-18.7,5.4c-2.3,0.6-4,0.8-5.1,0.7c-1.7,0-3.5-0.6-5.3-1.6c-4.6-4.1-8.7-6.8-12.2-8.1c-2.9-1.1-6.8-1.4-11.7-0.8
		c-5.3,0.6-12.7,3.6-22,8.8c0.4,0.5-3.7,0.6-12.1,0.4c-1.6,0.1-2.8,0.3-3.6,0.6c-1.9,0.4-6.7,3.3-14.4,8.7c-1.4,0.8-3,1.4-4.7,1.8
		c-0.7,0.8-7,0.4-18.8-1.1c-5.5,0.2-9.9,0.4-13.1,0.8c-17.2,2.5-28.3,5-33.5,7.7L1010.9,628.3z"/>
	<path class="st23" d="M1228.9,587c0.6,0.2-4.7-0.3-15.9-1.3c-15.1-1.9-24.2-2.9-27.3-3.2c-11.7-1-21.7-1.4-30-1.2
		c-20.8,0.4-34.7,1-41.5,1.9c-13.8,1.2-22.9,2.7-27.4,4.5c-0.7,0.8,0.2,1.2,2.8,1.2c4.3,0,10.7-0.1,19-0.4c2.1,0,4.3,0,6.6,0
		c6.6,0.1,13.2,0.4,19.6,0.9c8.5,0.7,14.9,1.4,19.3,1.9c1.8,0.1,12.7,1.7,32.6,4.6c4.1,0.5,7.1,0.8,9.2,0.9c9,0.3,16.4-0.6,22.3-2.7
		L1228.9,587z"/>
	<path class="st23" d="M1179.3,590c10.9-4.1,17.1,3.6,18.7,23.3c0.9,19.7,0.4,36.3-1.4,49.9c-3.5,25.1-5.9,39.5-7.1,43
		c0.1-4.7,6.9-27.9,20.4-69.4l11.6-43.8c0.7-3.8,4.9-6.9,12.3-9.3L1179.3,590z"/>
	<path class="st23" d="M1116.2,812.9c3.1-9.5,7.3-26.4,12.6-50.8c0.7-3,2.7-15.3,6.1-36.8c7.2-40.7,12.5-68.9,15.7-84.8
		c1.4-4.1,2.4-2.7,3.1,4.1c-0.1,8-0.7,14.5-1.8,19.6c-2.6,13.1-4.1,20-4.4,20.6l-20.8,76.7L1116.2,812.9z"/>
	<path class="st23" d="M848.2,607.4c18-10.2,33.4-14.7,46-13.6c5.5,1,9.9,2.6,13.3,4.9c17.9,15.3,28.6,23,32,23.1
		c13.9,4.6,28.1,6.2,42.7,4.8c9.9-1.1,18.8-3.3,26.7-6.6c4.2-1.7,8.4-3.7,12.7-5.9c18.1-10.8,30.8-17.8,38.1-21
		c11.1-5,20.8-8.1,29.1-9.4c-12.8,7.5-28.5,18.4-47.1,32.7c-1.6,1.2-5.5,3.5-11.7,7c-17.2,8.9-31,13.7-41.4,14.3
		c-7.4,1.2-19.4,0.2-36.1-3c-4.8-1.4-8-2.4-9.8-3.1c-10.9-5.3-25.1-11.1-42.7-17.3c-6.1-2.2-12.9-4.1-20.5-5.8
		c-11.3-2.7-21.6-2.1-30.8,1.6L848.2,607.4z"/>
	<path class="st23" d="M905.3,606.3c-0.6-0.8-1.4-1.6-2.4-2.3c-2.8-2.1-5.1-3.6-6.8-4.5c-3.4-1.9-6.5-3.1-9.2-3.5L905.3,606.3z"/>
	<path class="st23" d="M921.4,616.9c-5.2-8.6-12.6-15.2-22.3-20c-11.3-6-20.5-8.2-27.6-6.5c-5.1,0.5-10.5,2.3-16.2,5.2
		c-2.7,1.4-5,2.8-6.9,4c-11.8,8.4-19.2,13.5-22.3,15.3c-3.5,2.1-8,4.3-13.3,6.4c-3.9,1.7-7.7,3-11.4,3.9c-17,3.3-27.4,5.6-31.1,6.9
		c-0.2,0.2,0.8,0.2,2.8,0l21.1-2.1c3.6-0.5,10-1.6,19.4-3.4c4-0.8,8.8-2.1,14.1-3.7c15.7-5.5,24.6-8.4,26.5-8.7
		c12.2-3,20.6-4.5,25.1-4.5c6-0.4,11.4,0.2,16.5,1.6c2,0.6,4,1.3,6.1,2.1l20.6,8.6c2.6,1,4.7,1.7,6.2,2L921.4,616.9z"/>
	<path class="st23" d="M694,671c0.3-2.9-0.9-9.4-3.4-19.4c-5.1-17.4-9.8-31.4-14.1-42.1c-0.4-1.1-0.4-1.9,0.2-2.3
		c0.7-0.4,2.2-0.2,4.6,0.8c20.5,10.8,35.2,17.3,44.2,19.5c9.9,2.6,20.6,3.7,32.2,3.2c-20,0.3-33.2,1-39.9,2.1
		c-7.6,1.3-11.9,2.6-13,4.1c-3.4,3.3-5.6,8.5-6.5,15.5c-1.9,11.8-2.2,21.5-0.9,29.1L694,671z"/>
	<path class="st14" d="M1024.4,634.9c3.5-0.2,10-2.3,19.5-6.4c2.4-0.7,12.2-5.5,29.4-14.1c6-2.6,10.9-4.5,14.5-5.7
		c9.5-2.9,19.5-4.2,30.2-3.9c5.7,0.2,11.8,1.7,18.5,4.3c6.3,2.6,8.5,4.6,6.6,5.8c-0.8,0.5-2.3,0.7-4.3,0.8c-11-0.2-19.1,0-24.3,0.5
		c-7.5,0.7-14.1,1.8-19.8,3.2c-13.4,3.9-26.5,9.5-39.3,16.9L1024.4,634.9z"/>
	<path class="st24" d="M757.3,818.8l-0.7,0.3c-0.9,0.8-1.8,3.1-2.5,7c-1.4,8.6-2.1,15.2-2.2,19.6c-0.2,2.8,0.3,6.2,1.5,10.2
		l-1.3-0.6c0.6,2.5,1.7,4.8,3.4,6.8c1.9,2.1,4,3.9,6.4,5.3c9.6,5.4,17.2,9.1,22.6,11.2c2.5,1.1,8,2.2,16.5,3.5
		c4.9,0.5,7.8,0.4,8.6-0.2c1-0.8,1.2-1.9,0.3-3.4l-5.3-10.6c-2.6-8-4.3-12.9-5.1-14.5c-1.1-2.8-2.2-4.7-3.3-5.6
		c-0.6-0.4-1.2,0.1-1.7,1.4c-0.3,7.7-0.7,12.4-1.2,14.1c-0.9,2.8-1.9,4.7-3.3,5.6c-1,0.8-3,0.6-5.9-0.4c-2.7-1.2-5.9-3.5-9.6-6.9
		c-2.3-2.5-4.5-6.1-6.6-10.7c-0.8-1.8-3.3-10.8-7.7-27.1C759.2,820.7,758.2,819,757.3,818.8z"/>
	<path class="st24" d="M767.1,639.9c-0.3-0.3-0.7-0.4-1.3-0.5c-7.3-1.1-13-1.9-17-2.4c-2.9-0.3-6.6-0.3-11,0.1
		c-4.9-0.1-12.3,2.2-22.2,7c-6,2.8-8.9,10.3-8.7,22.5c0,1.1,1.1,2.3,3.1,3.5c2.8,1.4,4.9,2.4,6.3,2.8c0.9,0.3,1.5,0.3,1.9,0.1
		c0.3-0.2,0.4-0.5,0.3-1.1c-0.9-3.5-1.2-5.9-1-7.3c0.2-1.6,1-3.3,2.3-5.2c4.9-6,10.6-10.1,17.3-12.3c3.3-0.9,7-1.3,11-1.2
		c3.9,0.2,10.7,1,20.4,2.3L767.1,639.9z"/>
	<path class="st24" d="M738.3,645.9c1.3,2,4.8,10.2,10.7,24.7c0.7,1.9,2.1,2.9,4,2.8c1.4-0.2,2.6-1.4,3.7-3.5
		c0.6-0.4,1.6-4.1,3.2-11.1c0.3-1,0.8-2.3,1.5-3.8c1-2.3,2.7-4.5,5-6.6c6.8-5.4,15.8-8.4,26.8-9.2L738.3,645.9z"/>
	<path class="st24" d="M771.5,641.1c3.3,16.8,5,25,5.2,24.6c1.9,5.1,3.8,7.6,5.5,7.6c1.1,0,2-0.6,2.7-1.7c0.4-0.6,0.7-1.3,0.9-2
		c1.4-5.4,2.3-8.4,2.8-8.9c1.3-2.7,3-4.9,5-6.6c1.8-2.2,11.1-6.4,27.9-12.6L771.5,641.1z"/>
	<path class="st24" d="M799,648.4c3.6-0.3,6.9,0.6,9.7,2.9c0.9,0.6,2.1,2.2,3.6,4.8c0.7,1,2.4,4.7,5.3,11c0.6,1.2,1.3,2.2,2,3.1
		c2,2.2,4.3,2.7,6.9,1.5c2.2-1.2,3.8-3.7,5-7.3c0.7-2.2,1.2-4.2,1.5-5.8c1.1-8,1.9-12.5,2.3-13.5c0.3-1.8,1.5-5,3.5-9.6
		c0.2-0.7,0.3-1.3,0.3-1.7c-0.4-2.8-6.3-1.8-17.6,2.9L799,648.4z"/>
	<path class="st25" d="M756.2,875l-0.2,3.3c-0.4,8.5,0.7,15.1,3.2,19.6c3.6,5.9,9.3,10.1,17,12.7c3.5,1.3,7.1,2.4,10.8,3.3
		l51.8,11.1c4.3,0.4,9.3-0.3,15-2.1c5.9-1.7,8.8-3.2,8.7-4.6c-0.3-0.7-0.8-1.1-1.4-1.3c-4.4-0.9-9.9-2.4-16.4-4.5
		c-3.1-1-6.1-2.4-9-4c-2.6-1.4-6.7-5.4-12.3-12.1c-1.5-1.2-3.1-2.1-4.8-2.5c-1.8-0.6-4.3-0.6-7.6-0.2c-1.9,0.2-6.9,1.3-14.9,3.3
		c-2.7,0.5-4.9,0.8-6.5,0.8c-4,0.3-8.4-0.5-13.1-2.5c-1.8-0.8-3.7-1.8-5.4-2.9c-4.4-3.2-7-5.3-7.8-6.4c-1.7-1.7-3.3-3.6-5-5.6
		L756.2,875z"/>
	<path class="st25" d="M789,903.8l36.7,19.3c0.4,0.8,6.3,2,17.8,3.7c24,3.2,47,5.9,69.2,8.2c17.4,1.8,27.7,2.7,31,2.7
		c5.5,0.3,11.8,0.2,18.8-0.3c5.2-0.4,9.7-1,13.5-1.6c11.3-2,26.8-4.4,46.4-7.1c6.6-1.1,14.5-2.9,23.5-5.4c9.5-4.2,14.5-6.6,15.1-7.3
		c2.5-1.5,4.4-3,5.7-4.3c2.7-2.7,3.1-5.2,1-7.6c-0.8-0.4-2.1-0.5-3.9-0.3c-6.1,1.2-13.2,2.1-21.4,2.8c-8.5,1.9-14,2.9-16.4,3.1
		c-2.4,0.1-4.4,0.1-5.8-0.1c-1-0.1-4.3-0.8-9.7-2c-1.5-0.2-2.7-0.3-3.9-0.1l-16.5,6.1c-6.1,1.4-10.2,2.2-12.3,2.2
		c-2.6,0.1-5.4-0.1-8.4-0.7c-3.1-0.5-8.3-2.3-15.7-5.3c-1.2-0.3-2.4-0.4-3.7-0.4l-18.6,6.4c-5,1.2-8.9,1.8-11.6,1.7
		c-2.2,0-4.4-0.3-6.7-1l-16.4-5.9l-10.1,0.2c-9.2-1-14.3-1.5-15.2-1.4l-17.5,2.4c-4.4,0.4-8.2,0.5-11.6,0.3
		c-3.4-0.3-6.5-0.6-9.2-1.1C822.4,908.7,807.7,906.3,789,903.8z"/>
	<path class="st25" d="M868.1,905.8L868.1,905.8c-0.9,0-1.8,0.2-2.7,0.6c-3.3,2.3-6.4,4-9.1,5.1c-2.6,0.9-5.2,1.5-7.8,1.7
		c-0.7,0.1-1.3,0.1-2,0.1l-21.7-5.6c1.1,0.7,2.4,1.4,3.7,2c5.4,2.4,11.4,3.6,18.1,3.6l63.2,16.2c5.1,0.2,9.1,0.3,11.9,0.2
		c4.4-0.1,7.2-0.3,8.4-0.5c0.5,0.1,3.4-0.5,8.7-1.7c6.2-1.6,9.1-3,8.9-4.3c-0.2-0.1-0.6-0.1-1.2-0.1c-3.1,0.6-5.3,0.9-6.7,1
		c-1.8,0.2-3.7,0.2-5.7,0.2c-2.5,0-5.4-0.4-8.8-1c-2.5-0.4-5.6-1.6-9.2-3.6c-3.1-1.7-6.7-4.5-10.7-8.2c-1.5-1.1-2.5-1.7-3.1-1.9
		c-0.6-0.2-1.2-0.2-1.8,0c-2.7,1.6-4.6,2.6-5.8,2.9c-2.6,0.6-4.7,0.8-6.3,0.6c-1.1-0.1-2-0.3-2.6-0.4l-2.7-0.7c-1-0.3-4.4-2-10.4-5
		C871,906.3,869.5,905.9,868.1,905.8z"/>
	<path class="st25" d="M767.9,901.6l-0.2,2.5c1.7,4.2,3.4,6.8,5.3,7.6c2.1,1.7,4.9,3.5,8.3,5.2c5.8,3.3,16.1,7.1,30.9,11.5
		c29.7,8.8,67.2,14.9,112.5,18.3c8.3,0.6,17.9,0.6,28.7-0.1c11.9-1.1,20.4-2.3,25.5-3.4c5.8-0.9,16.2-3.3,31-7.3l40.7-11.3
		c2-0.8,2.8-1.2,2.5-1.4c0-0.3-0.6-0.4-1.7-0.5l-27.4,2.6l-194.6-10.8c-7-0.6-12.6-1.4-16.6-2.3c-8.7-2.4-19-5-31.1-7.9
		C775.5,902.8,770.9,901.9,767.9,901.6z"/>
	<path class="st25" d="M1144,887.5L1144,887.5c-2.6,0.8-4.4,1.2-5.3,1.3c-1.5,0.3-5,0.4-10.6,0.3c-0.3,0-0.8,0.1-1.5,0.3l-8.6,5.6
		c-2.3,1.4-4.5,2.6-6.5,3.5c-4.1,1.9-9.1,3.5-15.1,4.7c-5.3,0.9-9.1,1.2-11.3,1c-2-0.2-7.8-1.2-17.4-3.1c-1.6-0.2-2.9-0.3-4-0.3
		c-0.9,0-2.1,0.4-3.7,1c-6.5,3.7-10.8,5.9-13.1,6.6c-2.7,1-5.9,1.9-9.6,2.7c-11.1,2.2-20.1,2.4-27,0.5l-15.1,21.3
		c48.2-8.2,74.7-13.1,79.3-14.5c32.1-9.5,51.8-15.2,59.1-17.1c6.1-2.3,10.5-4.8,13.1-7.6C1148.1,890.8,1147.2,888.7,1144,887.5z"/>
	<path class="st25" d="M1136.3,896.1h-0.2c-0.7,0-1.5,0.2-2.6,0.4c-8.2,3.1-17.8,6.3-28.8,9.4c-2.3,0.8-11.3,3.1-27,6.9l-23.1,5.2
		l-8.1,1.6c-10.1,1.9-26.1,4.6-48.1,8.2l-5.2,9l22.7-4c19.2-4.1,32.5-7,39.7-8.7c10-2.3,19.5-4.6,28.6-6.8l30.2-8.5l7-2.5
		c3.8-1.6,7.9-3.7,12.3-6.1C1137.9,897.6,1138.8,896.2,1136.3,896.1z"/>
	<path class="st25" d="M1125.3,904.8l-120.8,24.7c-0.9,0.1-2.4,0.7-4.5,1.5l-18.5,8.4c-0.4,1.2,0.5,1.9,2.8,2.1
		c2.6,0.1,6.6-0.4,12.2-1.5c30.9-6.7,50.8-11.3,59.7-13.6C1099.6,913.6,1122.7,906.4,1125.3,904.8z"/>
	<path class="st25" d="M1164,797.4l-1.8,8.5c-3.6,16.6-7.3,30.7-11,42.2c-4.8,13.7-8.7,23.6-11.7,29.6c-3.3,7-6.3,12-8.9,15
		l-1.9,1.9l-15.2,11.1c20.1-5.2,31.3-9.5,33.4-12.9c2.9-9.3,5.3-18.1,7.3-26.7c3.7-15.9,6.1-27.7,7.3-35.5
		c1.9-12.1,2.8-19.6,2.8-22.5C1164.6,803.6,1164.5,799.9,1164,797.4z"/>
	<path class="st25" d="M722.5,760.4l-0.2,2.7c0,8.6,3.5,28.5,10.5,59.7c11.8,46.8,19.3,72.8,22.4,78s10,9.3,20.4,12.4
		c5.4,1.7,11.9,3.3,19.5,4.8c2.4,0.9,16.2,2.9,41.4,6.1l-44.4-19.5c-2.1,0.3-7-1-14.5-3.6c-5.7-2.6-10.3-6.5-14-11.7
		c-1.8-2.6-3.4-5.6-4.7-8.8c0.1,0.3-0.1,0.1-0.7-0.6c-0.5-1-1.4-2.9-2.5-5.9c-3.3-8.5-9.5-26.5-18.8-53.8
		C735.7,815.8,730.8,795.9,722.5,760.4z"/>
	<path class="st25" d="M1131.5,579.6h-3.9c-10.3,0.1-19.9,0.8-28.9,2c-9.7,1.5-18.3,3.9-25.8,7l-5.4,2.5c-3.5,1.8-6.7,3.8-9.6,5.9
		c-2.9,2.2-5.6,4.6-8,7.2l-19.7,14.1c17.4-10.8,34.5-18.2,51.3-22c15.6-3.4,24.6-5.2,27.1-5.3c19.7-2.4,41.6-4.4,65.7-6.1
		c2.3-0.2,3.9-0.5,4.8-0.8c-5.5-1.3-13.1-2.4-22.7-3.3c-1.3-0.2-6.6-0.6-15.9-1.1C1138,579.7,1135,579.6,1131.5,579.6z"/>
	<path class="st26" d="M1144.4,131.9L1144.4,131.9c-2.2,0.1-3.5,0.7-4.1,1.9c-0.6,1.3-0.6,2.7,0,4.2c0.5,1.1,1.4,2.7,2.9,4.9
		c4.4,5.8,6.7,8.9,6.9,9.3c1,1.9,1.9,3.6,2.6,5c0.6,1.1,1.6,3.5,3.2,7.1l0.4,0.8c1.7,3,2.9,4.4,3.5,4.3c0.4,0.2,0.9-0.6,1.4-2.4
		c0.2-0.6,0.3-1.4,0.4-2.1c0.1-0.3,0.2-1.6,0.2-3.9c-0.2-5.6-1-10.1-2.6-13.5c-0.5-1.2-1.1-2.4-1.8-3.5c-0.7-1.1-1.5-2.1-2.3-3.1
		l-3.9-6.1c-0.8-0.7-2-1.5-3.8-2.3C1146.3,132.1,1145.3,131.9,1144.4,131.9z"/>
	<path class="st3" d="M1089.8,527.8l-6.9,7.5c-17.8,19.1-31.3,30.5-40.7,34.3c-5.2,2.5-10.4,4.8-15.5,6.8l-7.6,2.8
		c-5,1.7-10,3.2-14.9,4.4c-8.9,2.4-19.3,3.7-31.1,4c-14.9,0-26.7-1.8-35.5-5.5c-6.6-2.5-16.1-7-28.6-13.5
		c-15.6-10.4-31.8-19.8-48.6-28c-5.6-2.3-10.2-3.8-13.9-4.6c-4.4-0.8-6.9-0.8-7.4,0.3c-0.8,0.6-0.7,2,0.2,4.4
		c7.9,11.9,11.8,18.4,11.7,19.6c1.1,5.8,0.1,11.6-3,17.6c-3.7,6.2-6.6,10-8.7,11.3c-2.8,2.5-6.1,5.1-10,7.7
		c-7.8,5.2-17.8,10.6-30.1,16c12.8-4,26.2-8.7,40.1-14.3l21.5-6.9c12.1-3.5,22.7-5.4,31.7-5.8c5.8-0.1,11.5,1.5,17.2,4.8
		c6.1,4.4,13.8,10.8,23.2,19.2c1.9,1.3,4,2.4,6.3,3.3c6.9,2.9,17.5,4.2,31.9,3.9c8.4-0.7,13.4-1.3,14.9-1.9
		c6.5-1.3,12.8-3.4,18.8-6.1l27.7-15.2c7.3-4.3,14-8.9,20-13.8C1070.6,565.6,1083,548.1,1089.8,527.8z"/>
	<path class="st3" d="M1269.4,497.1l-2,12.9c-3.6,16.4-10.5,29.5-21,39.3l-8.5,6.7l-9.7,5.5l-11,4.2l-12.3,3
		c-4.4,0.5-7.1,0.8-7.9,0.9c-15.8,1.2-29.8,0.8-42-1.3c-14.1-2.4-25.7-5.5-35-9.3c-7.4-3.1-13.3-7.2-17.8-12.2
		c-1.8-1.8-4.8-8.7-8.9-20.7c-5.5,15.4-9.6,25.3-12.2,29.5c-2,3.7-7.3,9.9-15.8,18.9l-1,2c-0.3,1,0.4,1.3,2.1,1.1
		c16.1-3.6,24.6-5.2,25.3-4.7c-8.6,1.7-15.2,3.7-19.8,6l27.9-6c-2-0.3-4.7-0.2-8,0.1l2-0.3c5.5-1,14.2-1.5,26.3-1.2
		c4.7,0,10.5,0.4,17.4,1.1c18.2,2.9,33.7,5,46.4,6.5c4,0.4,9.2,0.6,15.7,0.5c7.3-0.1,13.8-0.8,19.4-2c5.9-1.5,11.3-3.2,16.1-5.3
		c14.6-6.2,24.5-15,29.7-26.5C1271.2,531.9,1272.8,515.8,1269.4,497.1z"/>
	<path class="st3" d="M1238.1,373.4l-1.7,3.8c-4.9,10.3-12.1,23.3-21.6,38.9c-3,4.6-6.1,9-9.4,13.1c-5.8,7.1-10.1,12-12.9,14.6
		c0.3,0.2,1.4-0.4,3.1-1.6c7.3-6.3,12.9-10.7,16.8-13.3c3.6-2.4,7-4.4,10.4-5.9c7.3-3.5,14.1-4.3,20.5-2.1c0.1-0.2,0-0.5-0.2-0.8
		c-3.1-3.8-4.9-6.3-5.5-7.6c-1.7-4.1-2.7-8.2-2.9-12.2c-0.5-4.7,1.2-11.9,5-21.7L1238.1,373.4z"/>
	<path class="st4" d="M668.4,384.2L668.4,384.2c-0.2,0-0.3,0.1-0.4,0.2c-0.2,2.7-0.6,5.1-1.1,7.2s-1.2,3.9-2.1,5.4l-1.4,2l-1.6,1.6
		l-1.9,1.1l-2.1,0.7c-3.1,0.8-7.1-0.1-12-2.6l-16.9-11.3l6.6,6.8c7.3,5,11.8,8.2,13.3,9.7c2.2,2.7,3.8,4.9,4.6,6.5
		c0.5,0.9,0.8,1.7,1.1,2.5l0.3,1.1c0.2,0,0.2,1.4,0,4.2c-0.6,3.7-1.6,6.8-3.1,9.5l17-16.2c1.5-1.7,3.4-4.6,5.6-8.8
		c0.5-1.2,0.8-2.5,0.9-3.8c0.1-1.3,0-2.7-0.2-4l-0.5-2.1c-0.1-0.7-1.1-2.9-3-6.5c-0.7-1.2-1.3-2.1-1.9-2.6
		C669.2,384.6,668.9,384.4,668.4,384.2L668.4,384.2z M651.5,428.9L651.5,428.9l-3.1,2.9l-18.2,29.9
		C640.9,447.2,648,436.3,651.5,428.9z"/>
</g>
<g>
	<path class="st27" d="M199,345.7c-6.4-15.4,11.9-32.9,27.7-36.9c15.8-4,30.3-6.6,38.2-1.3c7.9,5.3,21.1,19.8,15.8,29
		S205.6,361.5,199,345.7z"/>
	<path class="st27" d="M31.6,491.9c-7.9-19.8-7.9-39.5-4-54c4-14.5,14.5-19.8,27.7-25s27.7,4,30.3,17.1S31.6,491.9,31.6,491.9z"/>
	<path class="st27" d="M456,394.4c15.8-2.6,27.7-17.1,44.8-6.6c17.1,10.5,30.3,29,30.3,38.2c0,9.2,0,26.4-21.1,26.4
		C488.9,452.4,456,394.4,456,394.4z"/>
	<g>
		<g>
			<path class="st28" d="M288.9,568.6c0,117.2,0,234.4,0,351.6c-3.1,0-6.3,0.1-9.3,0c-32.6-0.7-190.4-7.2-189.5-62
				c1.1-13,1.6-19.4,2.1-32.3c1.8-83.6-10.4-159.8-47.6-236.5C125.7,576.9,206.6,569.9,288.9,568.6z"/>
			<path class="st29" d="M49.8,569.7c1.7,3.6,2.5,5.4,4.2,9c5.2-2,7.8-3,13-4.9C60.2,572.1,56.8,571.3,49.8,569.7z"/>
			<path class="st29" d="M60.9,558.9c1.4,3.4,2.1,5,3.4,8.4c4.3-1,6.5-1.5,10.8-2.4C69.5,562.4,66.6,561.2,60.9,558.9z"/>
			<path class="st29" d="M44.4,580c2,4.4,3,6.5,4.9,10.9c0,0,16.7-8.6,15.7-8.5C64,582.6,44.4,580,44.4,580z"/>
			<linearGradient id="SVGID_1_" gradientUnits="userSpaceOnUse" x1="39.4189" y1="707.6608" x2="72.3284" y2="707.6608">
				<stop  offset="0" style="stop-color:#CC905D"/>
				<stop  offset="1" style="stop-color:#AE7441"/>
			</linearGradient>
			<path class="st30" d="M92.2,825.9c1.8-83.6-10.4-159.8-47.6-236.5c9.1,0,13.7,0,22.8,0.2C94.3,668,100.8,744.2,92.2,825.9z"/>
			<linearGradient id="SVGID_2_" gradientUnits="userSpaceOnUse" x1="54.7743" y1="749.1806" x2="96.1057" y2="737.6839">
				<stop  offset="0" style="stop-color:#CC905D"/>
				<stop  offset="1" style="stop-color:#AE7441"/>
			</linearGradient>
			<path class="st31" d="M114.8,886.8c-3.4-1.8-6.4-3.6-9.1-5.4c-3.3-2.2-6.2-4.4-8.5-6.6c-6.1-5.8-8.6-11.3-7.2-16.6
				c6.6-91.1-1.8-175.3-40-260.2c11.1-3.9,16.7-5.8,28-9.6C116.7,686.2,123.1,783.7,114.8,886.8z"/>
			<linearGradient id="SVGID_3_" gradientUnits="userSpaceOnUse" x1="71.8742" y1="743.9983" x2="110.0282" y2="741.4078">
				<stop  offset="0" style="stop-color:#CC905D"/>
				<stop  offset="1" style="stop-color:#AE7441"/>
			</linearGradient>
			<path class="st32" d="M118.5,888.7c-4.8-2.4-9.1-4.8-12.8-7.3c-3.3-2.2-6.2-4.4-8.5-6.6c6.9-93.6,0.1-180.9-36.6-269.1
				c9.1-4.1,13.7-6.2,23-10.4C119.9,691.6,125.9,787.7,118.5,888.7z"/>
			<linearGradient id="SVGID_4_" gradientUnits="userSpaceOnUse" x1="93.5921" y1="747.9128" x2="122.1252" y2="745.0878">
				<stop  offset="0" style="stop-color:#CC905D"/>
				<stop  offset="1" style="stop-color:#AE7441"/>
			</linearGradient>
			<path class="st33" d="M123.6,891.1c-0.9-0.4-1.8-0.8-2.7-1.2c-5.8-2.8-11-5.6-15.3-8.5c7.4-92.7,2.2-180.1-29.9-268.8
				c6.7-4.3,10.1-6.5,17-10.8C125.7,697,130.8,791.9,123.6,891.1z"/>
			<linearGradient id="SVGID_5_" gradientUnits="userSpaceOnUse" x1="95.2198" y1="758.5025" x2="145.818" y2="758.5025">
				<stop  offset="0" style="stop-color:#CC905D"/>
				<stop  offset="1" style="stop-color:#AE7441"/>
			</linearGradient>
			<path class="st34" d="M144.1,899.2c-0.9-0.3-1.8-0.6-2.7-1c-7.6-2.7-14.4-5.5-20.4-8.4c6.6-92.7,2.4-181.3-25.7-271
				c9.3-0.5,13.9-0.7,23.2-1.1C144.6,710.8,148.9,803.6,144.1,899.2z"/>
			<linearGradient id="SVGID_6_" gradientUnits="userSpaceOnUse" x1="118.4497" y1="764.1252" x2="165.8444" y2="764.1252">
				<stop  offset="0" style="stop-color:#CC905D"/>
				<stop  offset="1" style="stop-color:#AE7441"/>
			</linearGradient>
			<path class="st35" d="M164.9,905.6c-8.5-2.3-16.3-4.7-23.5-7.3c6.2-91.8,2.5-184.6-22.9-273.9c9.3-0.7,13.9-1.1,23.2-1.7
				C164,716.4,168.1,810,164.9,905.6z"/>
			<linearGradient id="SVGID_7_" gradientUnits="userSpaceOnUse" x1="144.9736" y1="768.555" x2="185.8362" y2="768.555">
				<stop  offset="0" style="stop-color:#CC905D"/>
				<stop  offset="1" style="stop-color:#AE7441"/>
			</linearGradient>
			<path class="st36" d="M184.7,910.3c-6.2-1.3-12.2-2.7-17.9-4.2c2.8-93.6-1.1-185.1-21.8-277c9.1-1,13.6-1.4,22.7-2.3
				C185,721,187.9,815,184.7,910.3z"/>
			<linearGradient id="SVGID_8_" gradientUnits="userSpaceOnUse" x1="174.2488" y1="772.3511" x2="209.2292" y2="772.3511">
				<stop  offset="0" style="stop-color:#CC905D"/>
				<stop  offset="1" style="stop-color:#AE7441"/>
			</linearGradient>
			<path class="st37" d="M208.2,914.6c-6.4-1-12.5-2.1-18.5-3.2c2.8-93.5,0.1-185.7-15.5-278.3c8.7-1.2,13-1.8,21.7-2.9
				C208.8,724.8,210.8,819.3,208.2,914.6z"/>
			<linearGradient id="SVGID_9_" gradientUnits="userSpaceOnUse" x1="205.6842" y1="775.4344" x2="239.5279" y2="775.4344">
				<stop  offset="0" style="stop-color:#CC905D"/>
				<stop  offset="1" style="stop-color:#AE7441"/>
			</linearGradient>
			<path class="st38" d="M239.5,918.4c-8.1-0.7-15.9-1.6-23.5-2.7c2.3-93.6,0.5-186.5-10.3-279.6c8.1-1.5,12.2-2.2,20.4-3.6
				C236.1,727.6,238.8,822.8,239.5,918.4z"/>
			<linearGradient id="SVGID_10_" gradientUnits="userSpaceOnUse" x1="238.63" y1="776.8896" x2="264.6173" y2="776.8896">
				<stop  offset="0" style="stop-color:#CC905D"/>
				<stop  offset="1" style="stop-color:#AE7441"/>
			</linearGradient>
			<path class="st39" d="M264.6,919.9c-5.3-0.2-10.5-0.5-15.6-0.8c-0.6-93.8-2.7-187.4-10.4-281c7.4-1.7,11.1-2.6,18.6-4.2
				C262.4,729.2,263.9,824.5,264.6,919.9z"/>
			<linearGradient id="SVGID_11_" gradientUnits="userSpaceOnUse" x1="272.4443" y1="777.2169" x2="288.8565" y2="777.2169">
				<stop  offset="0" style="stop-color:#CC905D"/>
				<stop  offset="1" style="stop-color:#AE7441"/>
			</linearGradient>
			<path class="st40" d="M288.9,634.2c0,95.3,0,190.7,0,286c-3.1,0-6.2,0-9.3,0c-2,0-4,0-6.1-0.1c0.9-93.7,0.8-187.4-1-281.1
				C279,637.1,282.3,636.1,288.9,634.2z"/>
			<path class="st41" d="M288.9,629.4C288.8,629.4,288.8,629.4,288.9,629.4c-0.4,0.1-0.5,0.1-0.9,0.2c-6.2,1.8-9.3,2.7-15.5,4.6
				c-5.7-2-8.6-2.9-14.3-4.8c-0.3-0.1-0.5-0.2-0.8-0.3c-0.3,0.1-0.5,0.1-0.8,0.2c-7.1,1.6-10.6,2.4-17.6,4c-4.6-2.1-7-3.1-11.6-5.2
				c-0.4-0.2-0.5-0.2-0.9-0.4c-0.4,0.1-0.6,0.1-0.9,0.2c-7.7,1.3-11.5,2-19.2,3.4c-3.4-2.1-5.1-3.2-8.6-5.3
				c-0.4-0.3-0.6-0.4-1.1-0.6c-0.5,0.1-0.7,0.1-1.1,0.2c-8.1,1.1-12.1,1.6-20.2,2.8c-2.1-2-3.2-3-5.3-5c-0.5-0.5-0.8-0.7-1.3-1.2
				c-0.6,0.1-0.9,0.1-1.6,0.2c-8.1,0.8-12.1,1.2-20.2,2.1c-0.8-1.5-1.2-2.3-2-3.8c-0.5-1-0.8-1.5-1.3-2.5c-1,0.1-1.5,0.1-2.5,0.2
				c-7.5,0.5-11.2,0.8-18.7,1.4c0-0.6,0-0.9,0-1.5c0-2,0-3,0-4.9c-1.8,0.1-2.7,0.1-4.4,0.2c-6.2,0.3-9.4,0.4-15.6,0.7
				c1.3-2.5,1.9-3.8,3.2-6.4c-3,0-4.5,0.1-7.4,0.1c-4.7,0.1-7,0.1-11.6,0.2c2.5-2.5,3.8-3.8,6.3-6.3c-4.3-0.1-6.4-0.1-10.7-0.2
				c-3,0-4.6,0-7.6-0.1c3.6-2.5,5.5-3.7,9.1-6.2c-5.3-0.3-8-0.5-13.3-0.7c-1.6-0.1-2.4-0.1-4-0.2c4.7-2.4,7-3.6,11.7-6.1
				c-5.9-0.7-8.9-1-14.9-1.5c-0.4,0-0.7-0.1-1.1-0.1c0.4-0.2,0.6-0.2,1-0.4c5.2-2.2,7.8-3.3,13.1-5.4c-5.7-1-8.5-1.5-14.3-2.5
				c1.5-0.5,2.2-0.8,3.7-1.3c4.9-1.7,7.4-2.5,12.4-4.2c-4.8-1.4-7.2-2.1-12.2-3.4c3-0.9,4.4-1.3,7.4-2.1c4.2-1.2,6.3-1.8,10.5-2.9
				c-3.8-1.8-5.7-2.6-9.5-4.3c4.8-1.1,7.1-1.7,11.9-2.8c3-0.7,4.6-1,7.6-1.7c-2.5-2.1-3.8-3.2-6.3-5.3c6.6-1.2,10-1.8,16.6-3
				c1.9-0.3,2.8-0.5,4.7-0.8c-0.8-1.9-1.2-2.9-2.1-4.8c-0.2-0.6-0.4-0.8-0.6-1.4c8.3-1.1,12.4-1.6,20.6-2.6c1.1-0.1,1.6-0.2,2.7-0.3
				c0.2-1.1,0.3-1.6,0.5-2.7c0.3-1.6,0.5-2.5,0.8-4.1c9.2-0.7,13.7-1,22.9-1.6c0.7,0,1.1-0.1,1.8-0.1c0.4-0.5,0.6-0.8,1.1-1.4
				c1.8-2.3,2.7-3.4,4.4-5.7c9.3-0.1,14-0.1,23.3-0.1c0.5,0,0.8,0,1.3,0c0.4-0.3,0.6-0.5,1-0.8c3.4-2.5,5.1-3.7,8.6-6.2
				c9,0.5,13.5,0.8,22.4,1.5c0.4,0,0.7,0.1,1.1,0.1c0.4-0.2,0.6-0.3,1-0.5c5-2.4,7.5-3.6,12.6-6c8.2,1.2,12.3,1.8,20.5,3.1
				c0.4,0.1,0.6,0.1,1,0.2c0.4-0.1,0.6-0.2,0.9-0.3c6.4-2.1,9.7-3.2,16.2-5.2c7.2,1.8,10.8,2.7,17.8,4.5c0.2,0.1,0.3,0.1,0.6,0.1
				c0-1.9,0-2.9,0-4.8c-7.4-1.9-11.1-2.9-18.6-4.7c-7,2.2-10.5,3.3-17.4,5.5c-8.7-1.4-13.1-2.1-21.9-3.3c-5.5,2.6-8.3,3.9-13.7,6.5
				c-9.5-0.7-14.3-1.1-24-1.6c-3.9,2.8-5.9,4.2-9.8,7.1c-10.1,0-15.2,0-25.3,0.2c-2.2,2.9-3.4,4.3-5.6,7.2
				c-10.4,0.6-15.6,1-25.9,1.9c-0.5,2.8-0.8,4.2-1.3,6.9c-10.3,1.3-15.5,1.9-25.8,3.4c1.2,2.5,1.7,3.8,2.9,6.3
				c-10,1.8-15,2.7-25,4.7c2.8,2.2,4.1,3.3,6.8,5.5c-9.4,2.2-14.1,3.3-23.5,5.6c4.2,1.8,6.3,2.7,10.4,4.5
				c-8.6,2.5-12.9,3.7-21.5,6.3c5.5,1.4,8.3,2.1,13.7,3.5c-7.7,2.7-11.5,4-19.1,6.7c6.6,0.9,9.9,1.5,16.4,2.5
				c-6.5,2.8-9.8,4.1-16.3,6.9c7.5,0.6,11.3,0.9,18.8,1.6c-5.3,2.8-8,4.2-13.3,6.9c8.3,0.3,12.4,0.4,20.6,0.8
				c-4,2.8-6.1,4.1-10.1,6.9c8.8,0,13.2,0,21.9,0.1c-2.7,2.7-4.1,4.1-6.7,6.8c9.1-0.3,13.7-0.4,22.8-0.5c-1.3,2.7-2,4-3.4,6.7
				c9.3-0.5,13.9-0.7,23.2-1.1c0,2.6,0,3.9,0,6.6c9.3-0.7,13.9-1.1,23.2-1.7c1.4,2.6,2,3.8,3.3,6.4c9.1-1,13.6-1.4,22.7-2.3
				c2.7,2.5,4,3.7,6.6,6.2c8.7-1.2,13-1.8,21.7-2.9c3.9,2.4,5.8,3.6,9.7,6c8.1-1.5,12.2-2.2,20.4-3.6c5.1,2.2,7.6,3.4,12.6,5.6
				c7.4-1.7,11.1-2.6,18.6-4.2c6.1,2,9.2,3.1,15.2,5.2c6.5-2,9.8-2.9,16.4-4.8C288.9,632.3,288.9,631.3,288.9,629.4z"/>
			<path class="st28" d="M288.9,568.6c0,117.2,0,234.4,0,351.6c3.1,0,6.3,0.1,9.3,0c35.5-0.8,189.2-6.7,189.5-62
				c-1.1-13-1.6-19.4-2.1-32.3c-1.8-83.6,10.4-159.8,47.6-236.5C452,576.9,371.1,569.9,288.9,568.6z"/>
			<linearGradient id="SVGID_12_" gradientUnits="userSpaceOnUse" x1="288.8565" y1="636.8119" x2="288.8565" y2="506.451">
				<stop  offset="0" style="stop-color:#C67B3A"/>
				<stop  offset="1" style="stop-color:#AA6223"/>
			</linearGradient>
			<path class="st42" d="M516.7,595.2c-5.7,0.6-8.5,0.9-14.1,1.6c2.3,2.3,3.4,3.5,5.7,5.8c-4.9,0.4-7.3,0.6-12.1,1.1
				c-1.8,0.2-2.7,0.3-4.4,0.4c1.2,2.2,1.8,3.3,2.9,5.5c0.1,0.1,0.1,0.2,0.2,0.3c-0.1,0-0.2,0-0.3,0c-7.7-0.2-11.6-0.2-19.3-0.3
				c1.3,2.8,2,4.1,3.3,6.9c-8.6-0.4-12.9-0.6-21.5-0.9c0,2.8-0.1,4.2-0.1,7c-8.5-1.1-12.8-1.7-21.3-2.7c-1.5,2.9-2.3,4.3-3.8,7.2
				c-9.1-1-13.7-1.5-22.8-2.5c-2.6,2.6-3.8,3.9-6.3,6.5c-8.3-1.5-12.4-2.2-20.8-3.6c-4.2,2.9-6.2,4.4-10.3,7.3
				c-7.9-2-11.8-2.9-19.7-4.8c-4.9,2.5-7.4,3.8-12.3,6.3c-7.5-2.2-11.3-3.2-18.8-5.4c-6.3,2.4-9.4,3.6-15.6,6.1
				c-6.6-3-9.9-4.5-16.5-7.4c-6.6,2.9-9.9,4.4-16.5,7.4c-6.2-2.5-9.3-3.7-15.6-6.1c-7.6,2.1-11.3,3.2-18.8,5.4
				c-4.9-2.5-7.3-3.8-12.3-6.3c-7.9,1.9-11.9,2.9-19.7,4.8c-4.1-2.9-6.2-4.4-10.3-7.3c-8.3,1.4-12.5,2.1-20.7,3.6
				c-2.5-2.6-3.8-3.9-6.3-6.5c-9.1,1-13.7,1.5-22.8,2.5c-1.5-2.9-2.2-4.3-3.8-7.2c-8.5,1.1-12.8,1.6-21.3,2.7c0-2.8,0-4.2-0.1-7
				c-8.6,0.3-12.9,0.5-21.5,0.9c1.3-2.7,2-4.1,3.3-6.9c-7.7,0.1-11.5,0.1-19.3,0.3c-0.1,0-0.2,0-0.3,0c0.1-0.1,0.1-0.2,0.2-0.3
				c1.2-2.2,1.8-3.3,2.9-5.5c-1.8-0.2-2.7-0.3-4.4-0.4c-4.8-0.5-7.2-0.7-12.1-1.1c2.3-2.3,3.4-3.4,5.7-5.8c-5.6-0.7-8.5-1-14.1-1.6
				c2.5-2.2,3.8-3.3,6.3-5.6c-4.2-1.3-6.3-1.9-10.6-3.1c3.3-1.6,4.9-2.5,8.2-4.1c-3.5-1.9-5.3-2.9-8.9-4.8c4.3-1.6,6.5-2.3,10.9-3.9
				c-2.4-1.7-3.6-2.5-6-4.2c5.6-1.9,8.4-2.9,14-4.8c-2.2-2.5-3.3-3.7-5.5-6.1c7.5-1.8,11.2-2.7,18.7-4.4c-2.2-2.1-3.3-3.1-5.6-5.1
				c8.7-1.5,13-2.2,21.7-3.5c0.5-0.1,0.8-0.1,1.4-0.2c-0.1-0.3-0.2-0.5-0.3-0.8c-0.9-2.5-1.4-3.8-2.4-6.3c4.4-0.6,6.7-0.8,11.1-1.4
				c5.2-0.6,7.9-0.9,13.1-1.5c0.5-2.8,0.7-4.2,1.2-7c10-0.8,15-1.1,24.9-1.7c2.7-2.7,4-4.1,6.7-6.8c10.1-0.4,15.1-0.6,25.1-0.8
				c3.5-2.6,5.3-3.9,8.9-6.5c9.6,0.5,14.4,0.8,23.9,1.5c5.4-2.3,8.2-3.5,13.7-5.8c8.6,1,12.8,1.6,21.3,2.7
				c6.9-1.9,10.3-2.8,17.3-4.7c7.5,2.3,11.3,3.5,18.7,6c7.4-2.4,11.1-3.6,18.7-6c6.9,1.8,10.4,2.8,17.3,4.7
				c8.5-1.2,12.7-1.7,21.3-2.7c5.5,2.3,8.2,3.4,13.7,5.8c9.5-0.7,14.3-1,23.9-1.5c3.6,2.6,5.4,3.9,8.9,6.5c10,0.2,15.1,0.4,25.1,0.8
				c2.7,2.7,4,4.1,6.7,6.8c10,0.6,14.9,0.9,24.9,1.7c0.5,2.8,0.7,4.2,1.2,7c5.2,0.6,7.9,0.9,13.1,1.5c4.4,0.5,6.7,0.8,11.1,1.4
				c-1,2.5-1.5,3.8-2.4,6.3c-0.1,0.3-0.2,0.5-0.3,0.8c0.5,0.1,0.8,0.1,1.4,0.2c8.7,1.3,13,2.1,21.7,3.5c-2.2,2-3.4,3.1-5.6,5.1
				c7.5,1.7,11.2,2.6,18.7,4.4c-2.2,2.4-3.4,3.7-5.5,6.1c5.6,1.9,8.4,2.8,14,4.8c-2.4,1.6-3.6,2.5-6,4.2c4.4,1.5,6.6,2.3,10.9,3.9
				c-3.6,1.9-5.4,2.8-8.9,4.8c3.3,1.7,5,2.5,8.2,4.1c-4.3,1.2-6.4,1.8-10.6,3.1C512.9,591.9,514.2,593,516.7,595.2z"/>
			<path class="st29" d="M527.9,569.7c-1.7,3.6-2.5,5.4-4.2,9c-5.2-2-7.8-3-13.1-4.9C517.5,572.1,520.9,571.3,527.9,569.7z"/>
			<path class="st29" d="M516.9,558.9c-1.4,3.4-2.1,5-3.4,8.4c-4.3-1-6.5-1.5-10.8-2.4C508.3,562.4,511.1,561.2,516.9,558.9z"/>
			<path class="st29" d="M533.3,580c-2,4.4-3,6.5-4.9,10.9c0,0-16.7-8.6-15.7-8.5C513.7,582.6,533.3,580,533.3,580z"/>
			
				<linearGradient id="SVGID_13_" gradientUnits="userSpaceOnUse" x1="1200.6991" y1="707.6608" x2="1233.6082" y2="707.6608" gradientTransform="matrix(-1 0 0 1 1738.9941 0)">
				<stop  offset="0" style="stop-color:#CC905D"/>
				<stop  offset="1" style="stop-color:#AE7441"/>
			</linearGradient>
			<path class="st43" d="M485.6,825.9c-1.8-83.6,10.4-159.8,47.6-236.5c-9.1,0-13.7,0-22.8,0.2C483.4,668.1,476.9,744.2,485.6,825.9
				z"/>
			
				<linearGradient id="SVGID_14_" gradientUnits="userSpaceOnUse" x1="1216.0547" y1="749.1802" x2="1257.386" y2="737.6835" gradientTransform="matrix(-1 0 0 1 1738.9941 0)">
				<stop  offset="0" style="stop-color:#CC905D"/>
				<stop  offset="1" style="stop-color:#AE7441"/>
			</linearGradient>
			<path class="st44" d="M462.9,886.8c3.4-1.8,6.4-3.6,9.1-5.4c3.3-2.2,6.2-4.4,8.5-6.6c6.1-5.8,8.6-11.3,7.2-16.6
				c-6.6-91.1,1.8-175.3,40-260.2c-11.1-3.9-16.7-5.8-28-9.6C461,686.2,454.6,783.7,462.9,886.8z"/>
			
				<linearGradient id="SVGID_15_" gradientUnits="userSpaceOnUse" x1="1233.1543" y1="743.9979" x2="1271.309" y2="741.4073" gradientTransform="matrix(-1 0 0 1 1738.9941 0)">
				<stop  offset="0" style="stop-color:#CC905D"/>
				<stop  offset="1" style="stop-color:#AE7441"/>
			</linearGradient>
			<path class="st45" d="M459.2,888.7c4.8-2.4,9.1-4.8,12.8-7.3c3.3-2.2,6.2-4.4,8.5-6.6c-6.9-93.6-0.1-180.9,36.6-269.1
				c-9.1-4.1-13.7-6.2-23-10.4C457.8,691.6,451.8,787.7,459.2,888.7z"/>
			
				<linearGradient id="SVGID_16_" gradientUnits="userSpaceOnUse" x1="1254.8722" y1="747.9128" x2="1283.4056" y2="745.0877" gradientTransform="matrix(-1 0 0 1 1738.9941 0)">
				<stop  offset="0" style="stop-color:#CC905D"/>
				<stop  offset="1" style="stop-color:#AE7441"/>
			</linearGradient>
			<path class="st46" d="M454.1,891.1c0.9-0.4,1.8-0.8,2.7-1.2c5.8-2.8,11-5.6,15.3-8.5c-7.4-92.7-2.2-180.1,29.9-268.8
				c-6.7-4.3-10.1-6.5-17-10.8C452,697.1,446.9,791.9,454.1,891.1z"/>
			
				<linearGradient id="SVGID_17_" gradientUnits="userSpaceOnUse" x1="1256.4989" y1="758.502" x2="1307.099" y2="758.502" gradientTransform="matrix(-1 0 0 1 1738.9941 0)">
				<stop  offset="0" style="stop-color:#CC905D"/>
				<stop  offset="1" style="stop-color:#AE7441"/>
			</linearGradient>
			<path class="st47" d="M433.6,899.2c0.9-0.3,1.8-0.6,2.7-1c7.6-2.7,14.4-5.5,20.4-8.4c-6.6-92.8-2.4-181.3,25.7-271
				c-9.3-0.5-13.9-0.7-23.2-1.1C433.1,710.8,428.8,803.6,433.6,899.2z"/>
			
				<linearGradient id="SVGID_18_" gradientUnits="userSpaceOnUse" x1="1279.7299" y1="764.1252" x2="1327.1256" y2="764.1252" gradientTransform="matrix(-1 0 0 1 1738.9941 0)">
				<stop  offset="0" style="stop-color:#CC905D"/>
				<stop  offset="1" style="stop-color:#AE7441"/>
			</linearGradient>
			<path class="st48" d="M412.8,905.6c8.5-2.3,16.3-4.7,23.5-7.3c-5.9-91.9-2.5-184.5,22.9-273.9c-9.3-0.7-13.9-1.1-23.2-1.7
				C413.7,716.4,409.7,810,412.8,905.6z"/>
			
				<linearGradient id="SVGID_19_" gradientUnits="userSpaceOnUse" x1="1306.2537" y1="768.555" x2="1347.1163" y2="768.555" gradientTransform="matrix(-1 0 0 1 1738.9941 0)">
				<stop  offset="0" style="stop-color:#CC905D"/>
				<stop  offset="1" style="stop-color:#AE7441"/>
			</linearGradient>
			<path class="st49" d="M393,910.3c6.2-1.3,12.2-2.7,17.9-4.2c-2.8-93.6,1.1-185.1,21.8-277c-9.1-1-13.6-1.4-22.7-2.3
				C392.7,721,389.8,815,393,910.3z"/>
			
				<linearGradient id="SVGID_20_" gradientUnits="userSpaceOnUse" x1="1335.5299" y1="772.3511" x2="1370.5099" y2="772.3511" gradientTransform="matrix(-1 0 0 1 1738.9941 0)">
				<stop  offset="0" style="stop-color:#CC905D"/>
				<stop  offset="1" style="stop-color:#AE7441"/>
			</linearGradient>
			<path class="st50" d="M369.5,914.6c6.4-1,12.5-2.1,18.5-3.2c-2.8-93.5-0.1-185.7,15.5-278.3c-8.7-1.2-13-1.8-21.7-2.9
				C368.9,724.8,366.9,819.3,369.5,914.6z"/>
			
				<linearGradient id="SVGID_21_" gradientUnits="userSpaceOnUse" x1="1366.9653" y1="775.434" x2="1400.808" y2="775.434" gradientTransform="matrix(-1 0 0 1 1738.9941 0)">
				<stop  offset="0" style="stop-color:#CC905D"/>
				<stop  offset="1" style="stop-color:#AE7441"/>
			</linearGradient>
			<path class="st51" d="M338.2,918.4c8-0.7,15.9-1.6,23.5-2.7c-2.3-93.6-0.5-186.5,10.3-279.6c-8.1-1.5-12.2-2.2-20.4-3.6
				C341.6,727.6,338.9,822.8,338.2,918.4z"/>
			
				<linearGradient id="SVGID_22_" gradientUnits="userSpaceOnUse" x1="1399.9121" y1="776.8896" x2="1425.8975" y2="776.8896" gradientTransform="matrix(-1 0 0 1 1738.9941 0)">
				<stop  offset="0" style="stop-color:#CC905D"/>
				<stop  offset="1" style="stop-color:#AE7441"/>
			</linearGradient>
			<path class="st52" d="M313.1,919.9c5.3-0.2,10.5-0.5,15.6-0.8c0.6-93.8,2.7-187.4,10.4-281c-7.4-1.7-11.1-2.6-18.6-4.2
				C315.3,729.2,313.8,824.5,313.1,919.9z"/>
			
				<linearGradient id="SVGID_23_" gradientUnits="userSpaceOnUse" x1="1428.056" y1="777.2169" x2="1462.5079" y2="777.2169" gradientTransform="matrix(-1 0 0 1 1738.9941 0)">
				<stop  offset="0" style="stop-color:#CC905D"/>
				<stop  offset="1" style="stop-color:#AE7441"/>
			</linearGradient>
			<path class="st53" d="M288.9,634.2c0,95.3,0,190.7,0,286c3.1,0,6.2,0,9.3,0c2,0,4,0,6.1-0.1c-0.9-93.7-0.8-187.4,1-281.1
				C298.7,637.1,295.4,636.1,288.9,634.2z"/>
			<path class="st41" d="M288.9,629.4C288.9,629.4,288.9,629.4,288.9,629.4c0.4,0.1,0.5,0.1,0.9,0.2c6.2,1.8,9.3,2.7,15.5,4.6
				c5.7-2,8.6-2.9,14.3-4.8c0.3-0.1,0.5-0.2,0.8-0.3c0.3,0.1,0.5,0.1,0.8,0.2c7.1,1.6,10.6,2.4,17.6,4c4.6-2.1,7-3.1,11.6-5.2
				c0.4-0.2,0.5-0.2,0.9-0.4c0.4,0.1,0.6,0.1,0.9,0.2c7.7,1.3,11.5,2,19.2,3.4c3.4-2.1,5.1-3.2,8.6-5.3c0.4-0.3,0.6-0.4,1.1-0.6
				c0.5,0.1,0.7,0.1,1.1,0.2c8.1,1.1,12.1,1.6,20.2,2.8c2.1-2,3.2-3,5.3-5c0.5-0.5,0.8-0.7,1.3-1.2c0.6,0.1,0.9,0.1,1.6,0.2
				c8.1,0.8,12.1,1.2,20.2,2.1c0.8-1.5,1.2-2.3,2-3.8c0.5-1,0.8-1.5,1.3-2.5c1,0.1,1.5,0.1,2.5,0.2c7.5,0.5,11.2,0.8,18.7,1.4
				c0-0.6,0-0.9,0-1.5c0-2,0-3,0-4.9c1.8,0.1,2.7,0.1,4.4,0.2c6.2,0.3,9.4,0.4,15.6,0.7c-1.3-2.5-1.9-3.8-3.2-6.4
				c3,0,4.5,0.1,7.4,0.1c4.7,0.1,7,0.1,11.6,0.2c-2.5-2.5-3.8-3.8-6.3-6.3c4.3-0.1,6.4-0.1,10.7-0.2c3,0,4.6,0,7.6-0.1
				c-3.6-2.5-5.5-3.7-9.1-6.2c5.3-0.3,8-0.5,13.3-0.7c1.6-0.1,2.4-0.1,4-0.2c-4.7-2.4-7-3.6-11.7-6.1c5.9-0.7,8.9-1,14.9-1.5
				c0.4,0,0.7-0.1,1.1-0.1c-0.4-0.2-0.6-0.2-1-0.4c-5.2-2.2-7.8-3.3-13.1-5.4c5.7-1,8.5-1.5,14.3-2.5c-1.5-0.5-2.2-0.8-3.7-1.3
				c-4.9-1.7-7.4-2.5-12.4-4.2c4.8-1.4,7.2-2.1,12.2-3.4c-3-0.9-4.4-1.3-7.4-2.1c-4.2-1.2-6.3-1.8-10.5-2.9c3.8-1.8,5.7-2.6,9.5-4.3
				c-4.8-1.1-7.1-1.7-11.9-2.8c-3-0.7-4.6-1-7.6-1.7c2.5-2.1,3.8-3.2,6.3-5.3c-6.6-1.2-10-1.8-16.6-3c-1.9-0.3-2.8-0.5-4.7-0.8
				c0.8-1.9,1.2-2.9,2.1-4.8c0.2-0.6,0.4-0.8,0.6-1.4c-8.3-1.1-12.4-1.6-20.6-2.6c-1.1-0.1-1.6-0.2-2.7-0.3
				c-0.2-1.1-0.3-1.6-0.5-2.7c-0.3-1.6-0.5-2.5-0.8-4.1c-9.2-0.7-13.7-1-22.9-1.6c-0.7,0-1.1-0.1-1.8-0.1c-0.4-0.5-0.6-0.8-1.1-1.4
				c-1.8-2.3-2.7-3.4-4.4-5.7c-9.3-0.1-14-0.1-23.3-0.1c-0.5,0-0.8,0-1.3,0c-0.4-0.3-0.6-0.5-1-0.8c-3.4-2.5-5.1-3.7-8.6-6.2
				c-9,0.5-13.5,0.8-22.4,1.5c-0.4,0-0.7,0.1-1.1,0.1c-0.4-0.2-0.6-0.3-1-0.5c-5-2.4-7.5-3.6-12.6-6c-8.2,1.2-12.3,1.8-20.5,3.1
				c-0.4,0.1-0.6,0.1-1,0.2c-0.4-0.1-0.6-0.2-0.9-0.3c-6.4-2.1-9.7-3.2-16.2-5.2c-7.2,1.8-10.8,2.7-17.8,4.5
				c-0.2,0.1-0.3,0.1-0.6,0.1c0-1.9,0-2.9,0-4.8c7.4-1.9,11.1-2.9,18.6-4.7c7,2.2,10.5,3.3,17.4,5.5c8.7-1.4,13.1-2.1,21.9-3.3
				c5.5,2.6,8.3,3.9,13.7,6.5c9.5-0.7,14.3-1.1,24-1.6c3.9,2.8,5.9,4.2,9.8,7.1c10.1,0,15.2,0,25.3,0.2c2.2,2.9,3.4,4.3,5.6,7.2
				c10.4,0.6,15.6,1,25.9,1.9c0.5,2.8,0.8,4.2,1.3,6.9c10.3,1.3,15.5,1.9,25.8,3.4c-1.2,2.5-1.7,3.8-2.9,6.3c10,1.8,15,2.7,25,4.7
				c-2.8,2.2-4.1,3.3-6.8,5.5c9.4,2.2,14.1,3.3,23.5,5.6c-4.2,1.8-6.3,2.7-10.4,4.5c8.6,2.5,12.9,3.7,21.5,6.3
				c-5.5,1.4-8.3,2.1-13.7,3.5c7.7,2.7,11.5,4,19.1,6.7c-6.6,0.9-9.9,1.5-16.4,2.5c6.5,2.8,9.8,4.1,16.3,6.9
				c-7.6,0.6-11.3,0.9-18.8,1.6c5.3,2.8,8,4.2,13.3,6.9c-8.3,0.3-12.4,0.4-20.6,0.8c4,2.8,6.1,4.1,10.1,6.9c-8.8,0-13.2,0-21.9,0.2
				c2.7,2.7,4.1,4.1,6.7,6.8c-9.1-0.3-13.7-0.4-22.8-0.5c1.3,2.7,2,4,3.4,6.7c-9.3-0.5-13.9-0.7-23.2-1.1c0,2.6,0,3.9,0,6.6
				c-9.3-0.7-13.9-1.1-23.2-1.7c-1.4,2.6-2,3.8-3.3,6.4c-9.1-1-13.6-1.4-22.7-2.3c-2.7,2.5-4,3.7-6.6,6.2c-8.7-1.2-13-1.8-21.7-2.9
				c-3.9,2.4-5.8,3.6-9.7,6c-8.1-1.5-12.2-2.2-20.4-3.6c-5.1,2.2-7.6,3.4-12.6,5.6c-7.4-1.7-11.1-2.6-18.6-4.2
				c-6.1,2-9.2,3.1-15.2,5.2c-6.5-2-9.8-2.9-16.4-4.8C288.9,632.3,288.9,631.3,288.9,629.4z"/>
		</g>
	</g>
	<path class="st54" d="M569.3,556.8c0,104.8-127.4,147.4-284.7,147.4C127.4,704.1,0,661.6,0,556.8c0-5.7,0.4-11.5,1.1-17.3
		c12.8-101,134.8-214.9,283.5-214.9c8.6,0,17.1,0.4,25.5,1.1c12,1,23.7,2.8,35.2,5.2c15.1,3.2,29.8,7.5,43.9,12.8
		C494.7,383.1,569.3,476.6,569.3,556.8z"/>
	<path class="st55" d="M511.3,523.8c0,94.2-114.5,132.3-255.7,132.3c-133.1,0-242.4-33.9-254.5-116.7c6.3-49.9,39.4-103,89.1-143.9
		c20.1-16.6,43-31.1,67.9-42.7c38.1-17.7,81.1-28.3,126.5-28.3c20.8,0,41.1,2.2,60.6,6.4C442.3,365.4,511.3,450.7,511.3,523.8z"/>
	<path class="st56" d="M395.4,484c0,61.1-74.3,86-166.1,86c-91.7,0-166.1-24.8-166.1-86c0-3.3,0.2-6.7,0.7-10.1
		c7.5-58.9,78.7-125.4,165.4-125.4c12.1,0,24,1.3,35.4,3.7C339.4,368,395.4,430.9,395.4,484z"/>
	<path class="st54" d="M180.1,574.1c11.5-9,13.2-23.7,22.8-26.4c9.7-2.6,22-3.5,31.6,0.9c9.7,4.4,25.5,14.1,23.7,22.8
		c-1.8,8.8,1.8,31.6-3.5,38.7c-5.3,7-12.3,23.7-24.6,22c-12.3-1.8-35.1-5.3-43.9-7C177.5,623.3,167.8,583.8,180.1,574.1z"/>
	<path class="st54" d="M157.3,456.4c12.2-1.7,17.6,12.3,26.4,14.9c8.8,2.6,14.9,13.2,12.3,21.1c-2.6,7.9-15.8,26.4-22,34.3
		c-6.2,7.9-22,14.1-30.8,7.9c-8.8-6.2-31.6-18.5-29.9-30.8c1.8-12.3,10.5-25.5,18.5-32.5C139.7,464.3,151.1,457.2,157.3,456.4z"/>
	<path class="st54" d="M162.5,378.2c-0.9,7.9-7.9,20.2-14.1,28.1c-6.1,7.9-29.9,13.2-45.7,14C90,421,89.9,408,90.3,395.6
		c20.1-16.6,43-31.1,67.9-42.7C160.4,361.5,163.1,373.4,162.5,378.2z"/>
	<path class="st54" d="M217.9,388.7c-4.1,12.4-16.7,25.5-12.3,34.3c4.4,8.8,17.6,13.2,26.4,16.7c8.8,3.5,24.6,10.5,32.5-2.6
		c7.9-13.2,7-23.7,14.1-32.5c7-8.8,4.4-22.8-7.9-27.2c-12.3-4.4-29.9-10.5-37.8-6.1C224.9,375.5,220.5,380.8,217.9,388.7z"/>
	<path class="st54" d="M311,444.1c13.2-0.7,28.1,1.8,35.1,6.2c7,4.4,20.2,15.8,19.3,26.4c-0.9,10.5,0.4,25.4-5.1,35.1
		c-5.5,9.7-14.2,18.5-28.3,15c-14.1-3.5-45.7-1.8-48.3-14.1c-2.6-12.3-0.9-23.7,1.8-37.8C288.2,460.8,294.3,444.9,311,444.1z"/>
	<path class="st54" d="M389.2,343.7c-2.8,8.3-6.7,19.5-8.8,25.7c-3.5,10.5-18.5,10.5-26.4,7.9c-7.9-2.6-29.9-15.8-39.5-22
		c-7.7-4.9-8.1-18.8-4.4-29.6c12,1,23.7,2.8,35.2,5.2C360.4,334.1,375.1,338.4,389.2,343.7z"/>
	<path class="st54" d="M387.5,401.9c-1,13.4-15.8,22.8-11.4,32.5c4.4,9.7,22,17.6,28.1,22c6.1,4.4,22.8,8.8,29,0.9
		c6.1-7.9,9.7-22,12.3-27.2s10.5-19.3,0.9-27.2c-9.7-7.9-21.1-10.5-34.3-12.3C398.9,388.7,388.3,389.6,387.5,401.9z"/>
	<path class="st54" d="M484.1,475.7c-4.5,6.7-3.5,19.3-5.3,32.5c-1.8,13.2-5.3,29,12.3,29s17.6-3.5,29-1.8
		c11.4,1.8,21.1-4.4,18.5-21.1c-2.6-16.7-5.3-29-7.9-38.7c-2.6-9.7-19.3-16.7-29.9-11.4C490.3,469.5,487.6,470.4,484.1,475.7z"/>
	<path class="st54" d="M423.5,553c12.7,4.2,22.8,9.7,26.4,18.4c3.5,8.8,8.8,15.8,2.6,26.4c-6.1,10.5,0.2,13.1-19.7,22.8
		c-19.9,9.7-36.6,9.7-42.7,0.1c-6.2-9.7-15.8-29-12.3-37.8c3.5-8.8,13.2-22.8,24.6-24.6C413.8,556.5,418.2,551.3,423.5,553z"/>
	<path class="st27" d="M510,468.2c0,0-23.7,4-23.7,18.5s-7.9,39.5,4,43.5s25,1.3,34.3,1.3c9.2,0,10.5-30.3,6.6-39.5
		C527.2,482.7,524.5,465.6,510,468.2z"/>
	<path class="st27" d="M415.1,560.5c-19.7,3.3-29,18.5-29,31.6s9.4,35.4,24.5,30.2c15.1-5.2,30.9-3.8,33.5-18.3
		c2.6-14.5,6.6-23.7-5.3-35.6C427,556.5,423,559.2,415.1,560.5z"/>
	<path class="st54" d="M47.1,518.1c-13.3,4.7-20.3,13.3-17.2,27.3s-3.1,34.3,10.9,35.1c14,0.8,26.5,7.8,38.2-0.8s23.4-3.9,21.8-21.1
		c-1.6-17.2,3.1-30.4-8.6-40.5c-11.7-10.1-11.7-6.2-25-4.7C54.1,515,47.1,518.1,47.1,518.1z"/>
	<path class="st27" d="M218.8,548.6c18.3,3.4,34.3,22.4,34.3,36.9c0,14.5-5.3,36.9-29,38.2c-23.7,1.3-40.9-4-40.9-21.1
		C183.2,585.5,197.7,544.7,218.8,548.6z"/>
	<path class="st27" d="M315,449.8c23.7-1.4,43.5,13.2,44.8,26.4s1.3,34.3-17.1,40.9c-18.5,6.6-58,2.6-55.4-17.1
		C289.9,480.1,292.6,451.1,315,449.8z"/>
	<path class="st27" d="M405.9,394.4c18.9,0,43.5,13.2,36.9,29c-6.6,15.8-5.3,29-19.8,31.6s-42.2-17.1-39.5-29
		S394.1,394.4,405.9,394.4z"/>
	<path class="st27" d="M40.9,520.9c19.9-5.4,40.9-7.9,46.1,1.3c5.3,9.2,13.2,43.5-2.6,51.4c-15.8,7.9-39.5,10.5-44.8,0
		C34.3,563.1,26.4,524.9,40.9,520.9z"/>
	<path class="st27" d="M156.8,463c15.9,0,34.3,18.4,32.9,27.7c-1.3,9.2-14.4,37-33.6,36.9c-19.2,0-33.7-15.9-32.3-29
		C125.2,485.4,145,463,156.8,463z"/>
	<path class="st27" d="M155.5,362.8c8.8,9.9-2.6,38.2-15.8,44.8c-13.2,6.6-38.2,9.2-40.9-1.3c-2.6-10.5-5.3-35.6,6.6-42.2
		C117.3,357.5,145,350.9,155.5,362.8z"/>
	<path class="st27" d="M243.8,374.7c17.5-1.3,31.6,14.5,30.3,25s-11.9,40.9-25,39.5c-13.2-1.3-42.2-11.9-36.9-27.7
		C217.5,395.7,225.4,376,243.8,374.7z"/>
	<path class="st27" d="M313.7,335.1c5.6-16.8,27.7-27.7,43.5-22.4c15.8,5.3,26.4,13.2,26.4,21.1c0,7.9,0,34.3-18.5,38.2
		C346.6,376,308.4,350.9,313.7,335.1z"/>
	<path class="st57" d="M239.9,383.4c3.4-0.7,7.9,23.7,1.8,28.1c-6.2,4.4-20.2,11.4-22.8,6.2C216.1,412.4,231.1,385.2,239.9,383.4z"
		/>
	<path class="st57" d="M311.9,458.1c7.7-1.7,14.9,9.7,15.8,16.7c0.9,7-10.5,28.1-16.7,28.1c-6.2,0-16.7-6.2-14.9-15.8
		S304,459.9,311.9,458.1z"/>
	<path class="st57" d="M215.3,559.2c7.9,1.6,11.4,14.9,7.9,22c-3.5,7-19.3,23.7-25.5,22c-6.1-1.8-7-14.9-2.6-24.6
		C199.4,568.8,206.5,557.4,215.3,559.2z"/>
	<path class="st57" d="M399.8,579.4c5.3-5.3,17.6,3.5,16.7,9.7c-0.9,6.2-7,15.8-10.5,15.8C402.4,604.8,391.9,587.3,399.8,579.4z"/>
	<path class="st57" d="M395.4,415.9c2.6-0.5,16.7,22,13.2,22.8c-3.5,0.9-22,0-21.1-7C388.3,424.7,391,416.8,395.4,415.9z"/>
	<path class="st57" d="M496.4,499.4c5.2-0.7,12.3,11.4,8.8,16.7s-8.8,13.2-11.4,7.9C491.1,518.7,490.3,500.3,496.4,499.4z"/>
	<path class="st57" d="M140.6,486.2c5.3,0,11.4,19.3,8.8,23.7c-2.6,4.4-19.3-0.9-19.3-7.9C130,495,134.4,486.2,140.6,486.2z"/>
	<path class="st57" d="M44.8,531c6.5-9.4,24.6-9.7,29.9-3.5c5.3,6.2-3.5,22.8-12.3,27.2C53.6,559.2,36.9,542.5,44.8,531z"/>
	<path class="st57" d="M108.1,372c7-5.7,22-9.7,25.5-6.2c3.5,3.5-15.8,40.4-22,39.5C105.4,404.5,98.4,379.9,108.1,372z"/>
</g>
</svg>
