<svg id="publicdomainvectors.org" xmlns="http://www.w3.org/2000/svg" viewBox="0 0 328.16 328.16"><defs><style>.cls-1{fill:#d9ab57;}.cls-2{fill:#634206;}.cls-3{fill:#a66f08;}.cls-4{fill:#7a5105;}.cls-4,.cls-5,.cls-6,.cls-7{fill-rule:evenodd;}.cls-5{fill:#dea131;}.cls-6{fill:#fcc358;}.cls-7{fill:#ffd587;}</style></defs><circle class="cls-1" cx="164.08" cy="164.08" r="164.08" transform="translate(-67.96 164.08) rotate(-45)"/><circle class="cls-2" cx="164.08" cy="164.08" r="150.15" transform="translate(-67.96 164.08) rotate(-45)"/><circle class="cls-3" cx="164.08" cy="164.08" r="135.17" transform="translate(-67.96 164.08) rotate(-45)"/><path class="cls-4" d="M164.08,272.08c59.48,0,108-48.52,108-108s-48.52-108-108-108a108.2,108.2,0,0,0-108,108C56.09,223.56,104.6,272.08,164.08,272.08Z"/><path class="cls-5" d="M146.28,208.83a31.47,31.47,0,0,1-23.94-3.16c-.86-.5-1.7-1-2.51-1.61l-1.56-.37-25,25A25.55,25.55,0,1,0,136,253.39a56.26,56.26,0,0,1,26.28-34.24,58,58,0,0,1,7.22-3.51A84.64,84.64,0,0,1,165.76,201a80.53,80.53,0,0,1-20.32,4.66l.84,3.14Zm-34.07-12.45-.18-.26-.25.11.43.15Zm-2.77-4.85a31.82,31.82,0,0,1-1.81-5,31.47,31.47,0,0,1,3.16-23.94h0A31.5,31.5,0,0,1,130,147.87a24.72,24.72,0,0,0,11.34-6.65c-.35-.52-.72-1-1.1-1.5a29.47,29.47,0,0,1-29-7.44c-.59-.6-1.2-1.17-1.83-1.72a32.87,32.87,0,0,1-30.15-9.31q-.94.12-1.89.27L77,122h0a47,47,0,0,0,7.48,56.79,75.31,75.31,0,0,0,20.43,14.54c1.52-.57,3-1.16,4.51-1.79Zm3.25-6.37a26.23,26.23,0,0,1,2.63-20h0a26.21,26.21,0,0,1,16-12.25,29.91,29.91,0,0,0,12.61-7,27.75,27.75,0,0,1-1.4,24.69,120.09,120.09,0,0,1-28.29,18.73,26.55,26.55,0,0,1-1.53-4.23Zm4.19,8.76q4-1.92,7.86-4.11L118.56,196q-.89-1-1.68-2.07Zm30.68-64a24,24,0,0,1-5.83,3.65,33,33,0,0,0-31.09-8.74,43.88,43.88,0,0,0-23-9,45,45,0,0,0-6.36-.09l0,0A47,47,0,0,1,130,100.07,24.72,24.72,0,0,1,148.28,124a25.09,25.09,0,0,1-.72,6Zm4.63,2.88a30.2,30.2,0,0,1-4.5,8.92,32.91,32.91,0,0,1,3.41,19.47q-.07.6-.18,1.2A120,120,0,0,0,178.73,112a44.24,44.24,0,0,0-4.42-33.66h0a44.24,44.24,0,0,0-26.94-20.66l1.35-5.06a49.42,49.42,0,0,1,30.11,23.11h0a49.4,49.4,0,0,1,5,37.63,125.2,125.2,0,0,1-32.42,56.17Q149,171.84,146.6,174a32.93,32.93,0,0,1-4.87,6.19L122.66,199.3a75.35,75.35,0,0,0,42.41-3.62c-.26-2.71-.39-5.45-.39-8.17a84.07,84.07,0,0,1,24.7-59.64,92.47,92.47,0,0,1,12.75-10.64,40.61,40.61,0,0,1,5.76-50.18,25.09,25.09,0,1,1,24.24,42,87,87,0,0,0-21,8.69h0l-1.51.89c.63.74,1.3,1.46,2,2.15a35.31,35.31,0,0,0,15.86,9.15,45.72,45.72,0,0,1,27.85,21.39h0a45.72,45.72,0,0,1,5.58,30.17,47.69,47.69,0,0,1,9.85,18.69,48.63,48.63,0,0,1-81.36,47,84.06,84.06,0,0,1-18-26.63,53.6,53.6,0,0,0-6.51,3.17,51,51,0,0,0-23.82,31.06A30.78,30.78,0,1,1,89.54,225l23-23a78,78,0,0,1-7.85-3q-4.65,1.65-9.47,2.95a43.85,43.85,0,1,1-21.14-85.11c.25-.39.51-.77.78-1.15a32.81,32.81,0,0,1,36.38-49,92.75,92.75,0,0,1,41.53,24,29.41,29.41,0,0,1,0,41.6l-.56.54Zm-4.86-27.1A29.91,29.91,0,0,0,131.3,95a52.29,52.29,0,0,0-53,16.22,27.58,27.58,0,0,1,31.57-39.46A87,87,0,0,1,149,94.39a24.21,24.21,0,0,1,4.45,28.08,29.92,29.92,0,0,0-6.16-16.75Zm-81.4,46.61a52.21,52.21,0,0,0,14.86,30.15,80.82,80.82,0,0,0,17.3,13.18c-1.4.43-2.82.83-4.24,1.22A38.62,38.62,0,0,1,70.4,123.37a52.25,52.25,0,0,0-4.47,29Zm104.22,41.16a75.15,75.15,0,0,0,20.76-14.71,47.73,47.73,0,0,1,65.25-2.1,40.63,40.63,0,0,0-5.38-22.75h0A40.56,40.56,0,0,0,226.09,135a40.59,40.59,0,0,1-18.2-10.5c-.95-1-1.86-2-2.71-3a87.19,87.19,0,0,0-12.09,10.09,78.81,78.81,0,0,0-23.17,55.93q0,3,.23,6Zm24.47-11A80.15,80.15,0,0,1,170.75,199a79.18,79.18,0,0,0,3.69,14.94,56,56,0,0,1,30.61-.4,40.66,40.66,0,0,0,49.79-28.75c.15-.57.29-1.13.41-1.71l-.57-.58a42.47,42.47,0,0,0-60.06,0Zm71.06,19A42.51,42.51,0,0,0,259.35,188a45.89,45.89,0,0,1-55.65,30.57,50.94,50.94,0,0,0-27.35.22,78.71,78.71,0,0,0,16.74,24.63,43.38,43.38,0,0,0,72.59-41.91Zm-59.15-87.15c.65-.39,1.31-.79,2-1.17h0A92.54,92.54,0,0,1,230.77,104a19.85,19.85,0,1,0-19.18-33.22,35.38,35.38,0,0,0-9.15,34.17,34.82,34.82,0,0,0,4.09,9.45Zm-70.67,21a24.36,24.36,0,0,1-3.91.32,24.12,24.12,0,0,1-16.33-6.35,27.74,27.74,0,0,1,20.24,6Zm-42.57-11A27.65,27.65,0,0,1,87,121.1l.18,0A38.53,38.53,0,0,1,102.91,126,27.69,27.69,0,0,1,93.29,124.33Z"/><path class="cls-6" d="M61.77,209.08a20.25,20.25,0,1,1,24.3-32.39,18.43,18.43,0,0,0,28.66-20.15c-.51,0-1,0-1.52,0A45.38,45.38,0,1,1,119,66.12a59.95,59.95,0,0,1,52.37,52.37,48.22,48.22,0,0,0,19,32.86,44.74,44.74,0,0,0,35,8.17,23.17,23.17,0,0,0-1.66-4.53,23.74,23.74,0,0,0-12-11.47,34.44,34.44,0,0,1-14-52.35,38.51,38.51,0,0,1,69,18.5A49.92,49.92,0,0,1,242,158.83h0a49.53,49.53,0,0,1-10.78,4.63,29,29,0,0,1-32.43,30.75,57.35,57.35,0,0,1-16.14-4.39,32.68,32.68,0,0,1-29.37,12,33.48,33.48,0,1,0,26.77,46.38,27,27,0,0,1,49.64,0,22.86,22.86,0,0,1-37.63,24.7h0a22.8,22.8,0,0,1-5.53-10l5.05-1.31a17.65,17.65,0,0,0,4.26,7.68h0a17.64,17.64,0,0,0,29-19.05,21.76,21.76,0,0,0-40,0,38.7,38.7,0,1,1-31-53.63,27.43,27.43,0,0,0,23.93-9.17,57.51,57.51,0,0,1-29.19-43.38l-.09-.67a27.3,27.3,0,0,0-7.81,4.09A45.25,45.25,0,0,1,120,156.1a24.13,24.13,0,0,1,.72,4.91,23.64,23.64,0,0,1-37.81,19.86,15,15,0,0,0-18,24l-3.13,4.18Zm54.82-60.55a23.49,23.49,0,0,1,1.52,2.55,40,40,0,0,0,19.52-7.78,32.63,32.63,0,0,1,9.89-5.05,39.1,39.1,0,0,0-33-28.33,15.84,15.84,0,0,0-8.13,30.29,23.68,23.68,0,0,1,10.19,8.32Zm-4.44,2.78a18.49,18.49,0,0,0-7.79-6.29,21.07,21.07,0,0,1,10.78-40.3,44.35,44.35,0,0,1,37.49,32.37,33.8,33.8,0,0,1,4.81-.32,32.65,32.65,0,0,1,16.74,4.76c-.43-.68-.85-1.37-1.25-2.06a53.44,53.44,0,0,1-6.8-20.37,54.75,54.75,0,0,0-47.78-47.78,40.15,40.15,0,1,0-6.2,80Zm41.56-9.09c.06.41.11.81.16,1.22a52.24,52.24,0,0,0,27.06,39.7,27.42,27.42,0,0,0-27.22-40.92Zm31.95,43.18A52.38,52.38,0,0,0,199.44,189a23.78,23.78,0,0,0,26.63-24.31,49.77,49.77,0,0,1-38.9-9.17l-.65-.49a32.6,32.6,0,0,1-.86,30.36Zm42.73-32.69a29.25,29.25,0,0,1,2,5.55,44.84,44.84,0,0,0,9-3.95h0a44.6,44.6,0,0,0,22-44,33.26,33.26,0,0,0-59.63-16,29.2,29.2,0,0,0,11.9,44.4A29,29,0,0,1,228.39,152.71Z"/><path class="cls-7" d="M108.54,259.75A23.51,23.51,0,1,1,75.29,226.5a49.5,49.5,0,0,0,0-70,36.84,36.84,0,0,1,26.05-62.88h0l0-.18a33.42,33.42,0,0,1,4.2-21.11,32.86,32.86,0,0,1,16.23-14.15,29.32,29.32,0,0,1,20.78-.48l-1.76,4.92a24,24,0,0,0-17.1.42A27.62,27.62,0,0,0,110,74.92a28.26,28.26,0,0,0-3.54,17.84c0,.41.12.83.19,1.24a36.65,36.65,0,0,1,20.69,10.4A60.63,60.63,0,0,1,139,120.64a40.22,40.22,0,0,0,14.4-1.18,36.37,36.37,0,0,1,44.52,25.71,23.22,23.22,0,0,0,36.73,12.27A29.22,29.22,0,0,1,237.88,124a23.06,23.06,0,0,0-5.94-4.89h0a23.12,23.12,0,0,0-17.61-2.31,27.51,27.51,0,0,1-26.57-46,39.11,39.11,0,0,1,56.88,53.65,28.52,28.52,0,0,1-3.16,33.8,23.92,23.92,0,0,0,24.74,7.95,22,22,0,0,1,11.36,42.41,32.51,32.51,0,0,0-23,23,20.47,20.47,0,0,1-30,12.43h0a20.49,20.49,0,0,1-4.24-32.21,19,19,0,1,0-31.84-8.53,38.92,38.92,0,0,1-47.66,47.67,38.32,38.32,0,0,1-17.18-64.12,55.7,55.7,0,0,0,11.77-61.31c-1.42-.24-2.83-.54-4.22-.92a45.42,45.42,0,0,1-20.4-11.77,33.35,33.35,0,0,1-8.33-13.88l-1.16,0A31.6,31.6,0,0,0,79,152.79a54.73,54.73,0,0,1,0,77.42,18.27,18.27,0,0,0,25.84,25.84l3.71,3.7ZM123.68,108.1a31.42,31.42,0,0,0-15.38-8.47,28.22,28.22,0,0,0,6.24,9.42,40.23,40.23,0,0,0,17.87,10.37,56.09,56.09,0,0,0-8.73-11.32ZM141.34,126a60.9,60.9,0,0,1-14,64.42,33.09,33.09,0,0,0,14.83,55.35,33.69,33.69,0,0,0,41.25-41.26,24.27,24.27,0,1,1,40.61,10.89,15.25,15.25,0,0,0,3.14,24h0a15.24,15.24,0,0,0,22.34-9.25,37.69,37.69,0,0,1,26.67-26.68,16.71,16.71,0,1,0-8.65-32.29,29.21,29.21,0,0,1-29.93-9.45,28.46,28.46,0,0,1-44.78-15.22,31.12,31.12,0,0,0-38.11-22A45.13,45.13,0,0,1,141.34,126Zm94.92,13.81a24.06,24.06,0,0,0,2.27,13.74,23.16,23.16,0,0,0,4.23-20.44,22.85,22.85,0,0,0-1.81-4.67,24,24,0,0,0-4.69,11.37Zm5.18-19.77a33.87,33.87,0,0,0-50-45.64A22.27,22.27,0,0,0,213,111.69a28.39,28.39,0,0,1,21.57,2.84h0A28.63,28.63,0,0,1,241.44,120.08Z"/><path class="cls-5" d="M48.52,216.05a18,18,0,1,1,36,0,21.54,21.54,0,0,0,21.52,21.53h0a21.51,21.51,0,0,0,21.52-21.52,42.28,42.28,0,0,1,21.13-36.59,29.06,29.06,0,0,1,39.71,10.64h0a29,29,0,0,1,3.91,14.53,19.7,19.7,0,1,0,36.77-9.87,28.44,28.44,0,0,1,0-28.51h0A28.52,28.52,0,0,1,253.82,152a12.21,12.21,0,0,0,6.1-22.78h0a42.91,42.91,0,0,0-58.62,15.72,35.63,35.63,0,0,1-66.48-17.82A31.45,31.45,0,0,1,139,111.39h0a31.42,31.42,0,0,1,11.51-11.5A60,60,0,0,0,172.41,78a27.29,27.29,0,0,0-47.26-27.29,45.07,45.07,0,0,0,0,45,28.47,28.47,0,0,1-38.89,38.9,22.43,22.43,0,1,0,0,38.86,24.11,24.11,0,0,1,36.16,20.88h0a27.13,27.13,0,0,1-.14,2.76,25.67,25.67,0,0,1-.38,2.75l-5.14-1c.14-.77.25-1.53.32-2.26a22.86,22.86,0,0,0,.1-2.29h0A18.89,18.89,0,0,0,88.88,178a27.67,27.67,0,1,1,0-47.92,23.24,23.24,0,0,0,31.75-31.74,50.14,50.14,0,0,1,0-50.22,32.51,32.51,0,0,1,56.31,32.51,64.64,64.64,0,0,1-23.79,23.79,26.15,26.15,0,0,0-9.58,9.59h0a26.14,26.14,0,0,0-3.51,13.09,30.39,30.39,0,0,0,56.72,15.19,48.11,48.11,0,0,1,65.75-17.61h0a17.44,17.44,0,0,1-8.72,32.54,23.26,23.26,0,0,0-20.17,11.64h0a23.36,23.36,0,0,0,0,23.29,24.94,24.94,0,1,1-46.55,12.47,23.82,23.82,0,0,0-3.18-11.92h0A23.85,23.85,0,0,0,151.35,184a37,37,0,0,0-18.51,32.06,26.75,26.75,0,0,1-26.76,26.76h0a26.73,26.73,0,0,1-26.76-26.75,12.78,12.78,0,0,0-25.55,0Z"/><path class="cls-6" d="M132,269.1a23,23,0,0,1,11.9-44.43,13.34,13.34,0,0,0,14.37-20.52,12.91,12.91,0,0,0-6.37-4.83,12.14,12.14,0,0,0-7.79,0,21.89,21.89,0,0,1-25.81-9.83h0a21.77,21.77,0,0,1-2.76-8.21A42.29,42.29,0,0,0,104.66,190a38.88,38.88,0,0,1-41.25,11.06,27.46,27.46,0,0,1-17.89-33.17v-.06a26.44,26.44,0,0,1,32.85-18.69l.07,0a37.16,37.16,0,0,0,26-4.24h0a37.17,37.17,0,0,0,16.72-20.56,37.73,37.73,0,0,1,24-24,32.8,32.8,0,0,1,.6-9.14A35,35,0,0,1,158,71.18c.92-.74,1.87-1.44,2.86-2.09a77.45,77.45,0,0,1-14.6-12.73A23.09,23.09,0,0,0,109,60.16h0a23.07,23.07,0,0,0,15.3,34.14l-1,5.12a28.3,28.3,0,0,1-18.78-41.88h0a28.31,28.31,0,0,1,45.66-4.68,71.89,71.89,0,0,0,15.92,13.37,35,35,0,0,1,41.71,10.61,72.11,72.11,0,0,0,18.65-3.54,21.38,21.38,0,1,1,0,40.61,16.78,16.78,0,0,0-19.82,7.54h0a16.56,16.56,0,0,0-1.87,4.82,42,42,0,0,1,8.58,3.75h0a41.83,41.83,0,0,1,18.41,21.9,38.57,38.57,0,0,0,11.57-.61A26.77,26.77,0,0,1,257.11,203a39.81,39.81,0,0,0-25.27,25.27,29.92,29.92,0,0,1-57.71-15.46A26.29,26.29,0,0,0,168,190a42.46,42.46,0,0,0-47.39-11.19,16.6,16.6,0,0,0,2.22,8h0a16.63,16.63,0,0,0,19.64,7.47,17.34,17.34,0,0,1,11.1.07,18.13,18.13,0,0,1,9,6.79,18.56,18.56,0,0,1-20,28.57,17.77,17.77,0,1,0-9.2,34.32L132,269.1Zm-16.39-93.8,0-.26a21.87,21.87,0,0,1,7-12.87,38,38,0,0,1,50.53,0,84,84,0,0,0,13.88,10h0a84.12,84.12,0,0,0,15.63,7,19.33,19.33,0,0,0,24.92-22.58q-1.75-.31-3.48-.78a43.51,43.51,0,0,1-17.72-9.56,22.06,22.06,0,0,1-7.09-13,22.73,22.73,0,0,1-.27-3.08,36.48,36.48,0,0,0-14.23.13,33.09,33.09,0,0,1-38.44-22.94c-.17-.59-.33-1.19-.48-1.79A32.38,32.38,0,0,0,126.18,126a42.39,42.39,0,0,1-19.09,23.44h0a42.34,42.34,0,0,1-29.84,4.81l-.15,0-.07,0a21.6,21.6,0,0,0-16.63,2.05,21.29,21.29,0,0,0-9.81,12.93v.06a22.19,22.19,0,0,0,14.47,26.84,33.64,33.64,0,0,0,35.7-9.56,47.6,47.6,0,0,1,14.89-11.22Zm10.56-9.22a16.63,16.63,0,0,0-4.6,6.82,47.7,47.7,0,0,1,50.33,13.62,31.47,31.47,0,0,1,7.32,27.3,24.69,24.69,0,0,0,47.62,12.77A45,45,0,0,1,255.47,198a21.54,21.54,0,0,0-11.14-41.54,43.68,43.68,0,0,1-11.2.84,24.55,24.55,0,0,1-32,26.91,89,89,0,0,1-16.61-7.45h0a89.14,89.14,0,0,1-14.75-10.66,32.77,32.77,0,0,0-43.57,0Zm99.39-15.27a36.56,36.56,0,0,0-14.89-16.26h0a37.07,37.07,0,0,0-6.24-2.86c0,.28.07.56.11.84a16.77,16.77,0,0,0,5.42,9.86,38.17,38.17,0,0,0,15.59,8.41Zm-41.73-25.53a41.81,41.81,0,0,1,15.79-.24,22,22,0,0,1,2.42-6.19h0a22,22,0,0,1,26-9.9,16.15,16.15,0,1,0,0-30.65,77,77,0,0,1-17,3.56,34.94,34.94,0,0,1,3.4,9.42A21.78,21.78,0,0,1,204,114.56h0A21.83,21.83,0,0,1,178.56,112,32.42,32.42,0,0,0,151,104.29c.13.56.28,1.12.44,1.68a27.89,27.89,0,0,0,32.38,19.31Zm-33-33a27.87,27.87,0,0,0-.56,6.79,37.65,37.65,0,0,1,31.72,9,16.56,16.56,0,0,0,19.31,2h0a16.56,16.56,0,0,0,7.94-17.73,29.53,29.53,0,0,0-4.15-10.13,77.3,77.3,0,0,1-21.28-2.62,77.37,77.37,0,0,1-18.05-7.38,29.81,29.81,0,0,0-14.93,20.13ZM180.1,68.55a30.09,30.09,0,0,0-7.92,1.06,71.91,71.91,0,0,0,13,4.89,72.31,72.31,0,0,0,15.57,2.39q-.9-.87-1.86-1.65A29.77,29.77,0,0,0,180.1,68.55Z"/><path class="cls-7" d="M112.55,249.89a17.11,17.11,0,0,1,34.21,0,57.41,57.41,0,0,0,7.68,28.7,24.93,24.93,0,0,0,9.14,9.13h0a25,25,0,0,0,25,0h0c.53-.31,1-.63,1.55-1a40.31,40.31,0,0,1-7.79.67,25,25,0,0,1-21.39-12.5h0a25,25,0,0,1-.14-24.78,115.23,115.23,0,0,0,10.83-26.55l.27-1a121,121,0,0,0-18.13-12.85l-.33-.19A31,31,0,0,1,142.16,198a34.74,34.74,0,0,0-9.9,3.85h0a97.14,97.14,0,0,1-48.69,13.05h0a51.22,51.22,0,0,1-25.63-6.88h0a51.24,51.24,0,0,1-18.75-18.75h0l-.1-.18h0l-.1-.18h0A36.23,36.23,0,0,1,52.08,140a45.08,45.08,0,0,1,62.23,16.68,46.19,46.19,0,0,0,16.85,17.16,46.71,46.71,0,0,0,7.43,3.51,30.73,30.73,0,0,1,3.37-9.58v0s.49-.89.54-.94a31,31,0,0,1,17.62-13.88,55.69,55.69,0,0,0-15.88-12.7l-.05,0A29.53,29.53,0,0,1,159,84.91a46.83,46.83,0,0,1,30.35,11.6,29.4,29.4,0,0,1,4.33-3h0a55.13,55.13,0,0,1,55.18,0h0a55.24,55.24,0,0,1,27.6,47.8,34.93,34.93,0,0,1-23.33,32.92,20.2,20.2,0,0,1-1.33,4.72,19.7,19.7,0,0,1-8.51,9.55l-2.55-4.57a14.5,14.5,0,0,0,6.25-7c.16-.4.32-.81.45-1.22a35.25,35.25,0,0,1-5.85.49,118.39,118.39,0,0,1-30.71-4.05l-.07,0,10.71,18.55h0a24,24,0,0,1-2.3,27.33c.27.92.53,1.83.78,2.75a103.18,103.18,0,0,1,3.49,25.47,40.73,40.73,0,0,1-11.94,29.28A40.59,40.59,0,0,1,201,283.09a30.16,30.16,0,0,1-9.86,9.16h0a30.12,30.12,0,0,1-30.17,0h0a30.26,30.26,0,0,1-11-11.06,62.56,62.56,0,0,1-8.4-31.3,11.86,11.86,0,0,0-23.71,0ZM197.41,279l.25-.42A25,25,0,0,0,201,266.11h0a24.93,24.93,0,0,0-3.34-12.48h0a120.18,120.18,0,0,0-19.08-24.87c-.78-.77-1.57-1.54-2.37-2.3a119.59,119.59,0,0,1-10.9,26.22,19.77,19.77,0,0,0,.1,19.6h0a19.85,19.85,0,0,0,16.92,9.88,35.34,35.34,0,0,0,13.82-2.64l1.26-.54Zm8.82-12.89h0a29.9,29.9,0,0,1-1.12,8.12,33.43,33.43,0,0,0,2.73-2.47,35.56,35.56,0,0,0,10.42-25.52A97.54,97.54,0,0,0,215,222.07v0q-.9.64-1.86,1.23h0l-.34.2A24,24,0,0,1,180.12,215h0l-.2-.33c-.25-.44-.51-.88-.78-1.3q-.62,3.69-1.44,7.34,2.35,2.12,4.59,4.37A125.27,125.27,0,0,1,202.19,251h0a30.22,30.22,0,0,1,4,15.09Zm-49.58-60.76a125.59,125.59,0,0,1,16.52,11.46c.62-3,1.11-6,1.48-9.09a36.19,36.19,0,0,0-3.71-3.29,34.91,34.91,0,0,0-23.1-7.16,25.8,25.8,0,0,0,8.5,7.89l.31.19ZM140,193.19c-.28-.79-.54-1.6-.75-2.42a30.81,30.81,0,0,1-1.07-8.06,51.4,51.4,0,0,1-28.38-23.48,39.84,39.84,0,0,0-55-14.74,31,31,0,0,0-11.22,41.88h0l.09.17h0l.09.16h0a46,46,0,0,0,16.83,16.85h0a46.05,46.05,0,0,0,23,6.15h0a92.19,92.19,0,0,0,46.07-12.34h0a40.24,40.24,0,0,1,10.3-4.18Zm4.3-3.77a26.06,26.06,0,0,0,.94,2.83,40,40,0,0,1,28.93,8l1.14.91c.12-2,.2-4,.22-6a64.71,64.71,0,0,0-1.32-13.68,51.32,51.32,0,0,1-30.75,2.68,26.5,26.5,0,0,0,.84,5.24Zm2.41-19.37a26,26,0,0,0-3,8.83,46.15,46.15,0,0,0,29.24-2.51,64.42,64.42,0,0,0-5.75-13.57,62.15,62.15,0,0,0-3.47-5.41c-.36.08-.72.17-1.07.27a25.85,25.85,0,0,0-15.39,11.48v.38l-.54.53Zm19.27-18.33a31,31,0,0,1,18.32,3.64h0l.63.36h0c2.58,1.48,5.21,2.87,7.88,4.14.64-.94,1.24-1.91,1.81-2.91.25-.43.49-.86.72-1.3L182.81,134a29.72,29.72,0,0,1,2.84-33.79,42.54,42.54,0,0,0-6.39-4.54A41.57,41.57,0,0,0,159,90.13a24.31,24.31,0,0,0-12.25,45.46,61.26,61.26,0,0,1,19.23,16.13Zm16.34,8.52a25.86,25.86,0,0,0-12.7-3.47q1.1,1.69,2.1,3.45a68.51,68.51,0,0,1,6,13.76,46,46,0,0,0,11.91-9.88q-3.36-1.64-6.63-3.5h0l-.62-.36ZM197.6,162l1.8.74-1.08-1.87c-.23.38-.47.76-.72,1.13Zm9.43,3.48.18.06a32.08,32.08,0,0,1,26.21-14,19.75,19.75,0,0,1,19.27,14.62,20.38,20.38,0,0,1,.48,2.4,29.65,29.65,0,0,0,18.06-27.29,49.92,49.92,0,0,0-25-43.27h0a50.07,50.07,0,0,0-50,0h0a24.14,24.14,0,0,0-3.2,2.2,45.7,45.7,0,0,1,5.65,7.65,51.42,51.42,0,0,1,2.48,47.61l5.81,10Zm-3.53,4.35q-4.59-1.56-9.05-3.49a51.48,51.48,0,0,1-14.23,12.14h0c-.4.23-.81.45-1.22.67a69.44,69.44,0,0,1,1.7,16c0,3.59-.24,7.17-.59,10.72a41.09,41.09,0,0,1,4.13,5.77l.2.34a18.81,18.81,0,0,0,25.66,6.89h0a18.61,18.61,0,0,0,3.19-2.32,97.23,97.23,0,0,0-7.59-17.13,32.26,32.26,0,0,1-1.54-28.42l-.69-1.2Zm9-2.74a113.42,113.42,0,0,0,29.06,3.78,29.54,29.54,0,0,0,6.49-.71,14.74,14.74,0,0,0-.46-2.68,14.45,14.45,0,0,0-14.17-10.74,27,27,0,0,0-20.92,10.35Zm-23.14-63.2a24.46,24.46,0,0,0-2.07,27.48l10.59,18.34a46.13,46.13,0,0,0-3.68-39.23,41.26,41.26,0,0,0-4.84-6.59ZM217,193.25l-9.34-16.18a26.9,26.9,0,0,0,2.64,19.85,102.14,102.14,0,0,1,6.86,14.84,18.79,18.79,0,0,0,0-18.19Z"/><path class="cls-7" d="M90.51,173.85a22.07,22.07,0,0,1-15.58-27A22.75,22.75,0,0,1,84.12,134a20.4,20.4,0,0,1,15-3.45A29.76,29.76,0,0,0,133.9,95.79a48.41,48.41,0,0,1,23.37-50.85h0A48.39,48.39,0,0,1,213,50.13a41.9,41.9,0,0,1,0,63.55,28.81,28.81,0,0,0,28.33,49A30.39,30.39,0,1,1,257,221.26a17,17,0,0,0-12.92,22.39,24.32,24.32,0,0,1-31,31A49.19,49.19,0,0,1,181,219.14a35.34,35.34,0,0,0-57.76-33.34,22.33,22.33,0,0,0,0,33.86,25.33,25.33,0,1,1-35.71,35.72l4-3.4a20.1,20.1,0,1,0,28.34-28.35,27.56,27.56,0,0,1,0-41.8,40.57,40.57,0,0,1,66.3,38.28,43.94,43.94,0,0,0,28.63,49.59,19.08,19.08,0,0,0,24.33-24.32A22.27,22.27,0,0,1,256,216.12a25.16,25.16,0,1,0-13-48.46,34,34,0,0,1-33.45-58,36.65,36.65,0,0,0,0-55.6,43.18,43.18,0,0,0-49.7-4.64h0A43.19,43.19,0,0,0,139,94.83a35,35,0,0,1-40.86,40.86,15.14,15.14,0,0,0-11.13,2.64A17.42,17.42,0,0,0,80,148.22a16.77,16.77,0,0,0,11.88,20.57Z"/></svg>