<?xml version="1.0" encoding="utf-8"?>
<!-- Generator: Adobe Illustrator 25.0.0, SVG Export Plug-In . SVG Version: 6.00 Build 0)  -->
<svg version="1.1"
	 id="svg2" inkscape:version="0.48+devel r9935" sodipodi:docname="Documento nuevo 1" xmlns:cc="http://creativecommons.org/ns#" xmlns:dc="http://purl.org/dc/elements/1.1/" xmlns:inkscape="http://www.inkscape.org/namespaces/inkscape" xmlns:ns1="http://sozi.baierouge.fr" xmlns:rdf="http://www.w3.org/1999/02/22-rdf-syntax-ns#" xmlns:sodipodi="http://sodipodi.sourceforge.net/DTD/sodipodi-0.dtd" xmlns:svg="http://www.w3.org/2000/svg"
	 xmlns="http://www.w3.org/2000/svg" xmlns:xlink="http://www.w3.org/1999/xlink" x="0px" y="0px" viewBox="0 0 121.9 49.8"
	 style="enable-background:new 0 0 121.9 49.8;" xml:space="preserve">
<style type="text/css">
	.st0{fill:#6B40D3;}
	.st1{fill:#8958E8;}
	.st2{fill:#BDA9ED;}
</style>
<g>
	<g>
		<path class="st0" d="M1.3,43l-1.1-4.2C-0.3,37,0,35.1,1,33.6c3.4-5.1,13-16.3,32.9-22c17-4.9,25.6-1.5,29.5,1.5
			c1.7,1.3,2.9,3.2,3.4,5.3l0.6,2.3L1.3,43z"/>
		<path class="st1" d="M67.4,20.7c2.4,7.6-11.5,19.8-29.9,25.6C19.1,52,3.7,50.6,1.3,43S11,21.4,34.2,14.2C52.6,8.4,65,13,67.4,20.7
			z"/>
		<path class="st2" d="M64.4,21.6c2.1,6.6-10.7,17.3-27.4,22.6c-16.8,5.2-30.6,4.2-32.7-2.4C2.2,35.2,13.4,23,34.5,16.4
			C51.2,11.1,62.3,15,64.4,21.6z"/>
		<path class="st1" d="M62.3,22.2c1.8,5.9-10.1,15.7-25.7,20.5C21,47.6,8.1,46.8,6.3,40.9c-1.8-5.9,8.6-17,28.3-23.1
			C50.2,13,60.5,16.3,62.3,22.2z"/>
		<path class="st2" d="M59.8,22.9c1.6,5.1-9.4,13.8-23.6,18.3c-14.3,4.4-26,3.9-27.6-1.2c-1.6-5.1,8-15,26-20.5
			C48.9,15,58.3,17.8,59.8,22.9z"/>
		<path class="st1" d="M57.1,23.7c1.3,4.2-8.6,11.7-21.4,15.7c-12.8,4-23.2,3.8-24.5-0.4s7.4-12.6,23.5-17.6
			C47.6,17.4,55.8,19.5,57.1,23.7z"/>
		<path class="st2" d="M55.1,24.3c1.2,3.7-8,10.3-19.6,14c-11.7,3.6-21.1,3.6-22.3-0.1c-1.2-3.7,6.9-11.1,21.6-15.7
			C46.5,18.9,54,20.6,55.1,24.3z"/>
		<path class="st1" d="M51.2,25.5c0.8,2.7-6.6,7.8-16.1,10.8S18,39.4,17.2,36.7C16.4,34,23,28.3,35,24.6
			C44.4,21.7,50.3,22.8,51.2,25.5z"/>
		<path class="st2" d="M49.7,26c0.7,2.4-6.1,6.9-14.8,9.6c-8.7,2.7-15.6,2.9-16.3,0.6c-0.7-2.4,5.4-7.4,16.3-10.8
			C43.5,22.7,49,23.6,49.7,26z"/>
		<path class="st1" d="M46.3,27c0.5,1.6-4.9,5-11.7,7.1s-12.2,2.5-12.7,0.8c-0.5-1.6,4.4-5.3,12.9-8C41.6,24.9,45.8,25.4,46.3,27z"
			/>
		<path class="st2" d="M45.2,27.3c0.4,1.4-4.5,4.5-10.7,6.4S23.4,36,23,34.6c-0.4-1.4,4-4.7,11.8-7.2C41,25.5,44.8,25.9,45.2,27.3z"
			/>
	</g>
	<g>
		<path class="st0" d="M69.6,21.5l1.1-3.1c0.5-1.3,1.5-2.4,2.8-2.9c4.4-1.7,15.3-4.5,30.3,0.7c12.8,4.5,16.6,10.3,17.7,13.9
			c0.5,1.6,0.4,3.3-0.2,4.8l-0.7,1.7L69.6,21.5z"/>
		<path class="st1" d="M120.7,36.6c-1.9,5.8-15.9,7.3-30,2.8c-14-4.5-23-12.2-21.1-18s15.6-9.2,33.3-3.5
			C116.9,22.5,122.6,30.8,120.7,36.6z"/>
		<path class="st2" d="M118.4,35.9c-1.6,5-14.3,6.1-27.1,2C78.5,33.8,70.3,27,71.9,22s14-7.8,30-2.6C114.8,23.5,120,30.8,118.4,35.9
			z"/>
		<path class="st1" d="M116.8,35.3c-1.4,4.5-13.2,5.3-25.1,1.5s-19.6-10-18.2-14.5s12.9-6.8,27.8-2
			C113.3,24.2,118.3,30.9,116.8,35.3z"/>
		<path class="st2" d="M115,34.7c-1.3,3.9-11.9,4.5-22.8,1s-18-9-16.7-12.9s11.6-5.8,25.3-1.4C111.6,25,116.2,30.8,115,34.7z"/>
		<path class="st1" d="M112.9,34c-1,3.2-10.5,3.5-20.3,0.4c-9.7-3.1-16.1-7.8-15.1-11.1c1-3.2,10.2-4.6,22.5-0.7
			C109.8,25.8,114,30.8,112.9,34z"/>
		<path class="st2" d="M111.4,33.5c-0.9,2.8-9.5,3-18.4,0.1s-14.8-7.1-13.9-9.9c0.9-2.8,9.2-3.9,20.4-0.3
			C108.4,26.3,112.3,30.7,111.4,33.5z"/>
		<path class="st1" d="M108.4,32.5c-0.7,2.1-7.6,2-14.8-0.4c-7.2-2.3-12.1-5.6-11.4-7.6c0.7-2.1,7.3-2.7,16.4,0.2
			C105.9,27.1,109.1,30.5,108.4,32.5z"/>
		<path class="st2" d="M107.3,32.2c-0.6,1.8-6.9,1.6-13.5-0.5s-11-5-10.5-6.8c0.6-1.8,6.6-2.3,15,0.4
			C104.9,27.4,107.9,30.4,107.3,32.2z"/>
		<path class="st1" d="M104.7,31.3c-0.4,1.2-5.3,1-10.5-0.7s-8.7-3.8-8.3-5.1c0.4-1.2,5.1-1.4,11.6,0.7
			C102.7,27.9,105.1,30.1,104.7,31.3z"/>
		<path class="st2" d="M103.9,31c-0.4,1.1-4.8,0.8-9.5-0.7s-7.9-3.4-7.6-4.5c0.4-1.1,4.6-1.2,10.6,0.7C102.1,28,104.3,29.9,103.9,31
			z"/>
	</g>
	<path class="st1" d="M90.7,12.4C82.5-0.5,70.1,5.2,69.5,5.5l-1.3-2.7c0.2-0.1,15.4-7.2,25,8L90.7,12.4z"/>
	<path class="st2" d="M86.4,9.8c13.3,11.2,24.9,0.7,25.4,0.3l2.3,2.5c-0.1,0.1-14.3,13-29.9-0.2L86.4,9.8z"/>
	<path class="st2" d="M46.3,12.4C38.1-0.5,25.7,5.2,25.1,5.5l-1.3-2.7c0.2-0.1,15.4-7.2,25,8L46.3,12.4z"/>
	<path class="st1" d="M12.4,16.8c-2.1,0-4.3-0.2-6.7-0.8l0.7-2.9C25.6,17.4,31.8,0.8,32.1,0l2.8,1C34.8,1.2,29.1,16.8,12.4,16.8z"/>
</g>
</svg>
