<?xml version="1.0" encoding="iso-8859-1"?>
<!-- Generator: Adobe Illustrator 19.0.0, SVG Export Plug-In . SVG Version: 6.00 Build 0)  -->
<svg version="1.1" id="Capa_1" xmlns="http://www.w3.org/2000/svg" xmlns:xlink="http://www.w3.org/1999/xlink" x="0px" y="0px"
	 viewBox="0 0 512 512" style="enable-background:new 0 0 512 512;" xml:space="preserve">
<g>
	<g>
		<path d="M483.313,85.672c-17.477,10.57-37.636,19.195-58.52,16.431c-5.414-0.717-10.795-2.336-15.733-4.768
			c2.915-1.802,5.74-3.779,8.452-5.936c18.458-14.684,37.827-49.531,11.084-66.505c-23.302-14.79-52.891,3.576-60.006,27.515
			c-3.812,12.826-1.58,25.851,4.45,37.058c-6.836,0.883-13.796,0.652-20.5-0.843c-12.655-2.82-18.059,16.635-5.366,19.464
			c13.446,2.996,27.144,2.47,40.028-1.141c4.656,3.988,9.874,7.298,15.429,9.688c30.578,13.153,63.776,2.851,90.869-13.534
			C504.602,96.387,494.467,78.925,483.313,85.672z M405.491,75.272c-3.862,3.283-8.169,6.044-12.744,8.275
			c-2.947-4.339-4.958-9.349-5.633-14.965c-1.674-13.935,10.144-31.042,25.578-28.528C433.202,43.396,413.091,68.813,405.491,75.272
			z"/>
	</g>
</g>
<g>
	<g>
		<path d="M478.753,459.795c-14.286-5.164-21.364-20.547-27.075-33.491c-6.338-14.365-12.014-29.103-22.921-40.772
			c-25.995-27.808-65.676-18.823-97.443-8.471c-12.297,4.007-7.034,23.504,5.366,19.464c27.618-9,63.916-19.386,83.056,10.075
			c8.146,12.539,12.512,26.979,19.38,40.177c7.652,14.706,18.409,26.747,34.27,32.481c5.127,1.853,11.051-2.086,12.415-7.048
			C487.342,466.601,483.898,461.655,478.753,459.795z"/>
	</g>
</g>
<g>
	<g>
		<path d="M146.583,137.365c-12.988,0-13.009,20.185,0,20.185C159.571,157.55,159.592,137.365,146.583,137.365z"/>
	</g>
</g>
<g>
	<g>
		<path d="M177.989,118.752c-12.988,0-13.009,20.185,0,20.185C190.977,138.937,190.999,118.752,177.989,118.752z"/>
	</g>
</g>
<g>
	<g>
		<path d="M178.914,155.979c-12.989,0-13.01,20.185,0,20.185C191.901,176.164,191.923,155.979,178.914,155.979z"/>
	</g>
</g>
<g>
	<g>
		<path d="M9.749,297.559c-12.988,0-13.009,20.185,0,20.185C22.737,317.744,22.758,297.559,9.749,297.559z"/>
	</g>
</g>
<g>
	<g>
		<path d="M41.155,278.945c-12.988,0-13.009,20.185,0,20.185C54.143,299.13,54.165,278.945,41.155,278.945z"/>
	</g>
</g>
<g>
	<g>
		<path d="M42.079,316.172c-12.988,0-13.01,20.185,0,20.185C55.067,336.357,55.088,316.172,42.079,316.172z"/>
	</g>
</g>
<g>
	<g>
		<path d="M303.827,171.618c-12.988,0-13.009,20.185,0,20.185C316.815,191.803,316.837,171.618,303.827,171.618z"/>
	</g>
</g>
<g>
	<g>
		<path d="M335.234,153.005c-12.988,0-13.009,20.185,0,20.185C348.222,173.19,348.243,153.005,335.234,153.005z"/>
	</g>
</g>
<g>
	<g>
		<path d="M336.158,190.232c-12.988,0-13.009,20.185,0,20.185C349.145,210.416,349.168,190.232,336.158,190.232z"/>
	</g>
</g>
<g>
	<g>
		<path d="M452.525,339.981c-12.988,0-13.01,20.185,0,20.185C465.513,360.166,465.534,339.981,452.525,339.981z"/>
	</g>
</g>
<g>
	<g>
		<path d="M483.931,321.368c-12.988,0-13.009,20.185,0,20.185C496.919,341.552,496.94,321.368,483.931,321.368z"/>
	</g>
</g>
<g>
	<g>
		<path d="M484.855,358.595c-12.988,0-13.009,20.185,0,20.185C497.843,378.78,497.864,358.595,484.855,358.595z"/>
	</g>
</g>
<g>
	<g>
		<path d="M178.914,339.982c-22.705,0.546-44.078,10.181-60.342,25.525c-16.129-4.812-34.573-3.2-49.624,4.153
			c-37.063,18.108-50.372,60.505-53.127,98.742c-0.393,5.443,4.919,10.092,10.092,10.092c5.788,0,9.699-4.633,10.092-10.092
			c1.909-26.493,8.96-54.128,29.555-72.356c10.497-9.291,24.818-14.588,38.483-13.245c-0.187,0.284-0.38,0.563-0.564,0.849
			c-8.014,12.447-13.001,27.129-13.709,41.947c-0.813,17.023,8.351,34.959,27.569,34.552c33.684-0.712,46.986-42.777,33.329-68.965
			c-3.305-6.338-7.723-11.567-12.891-15.74c11.72-9.192,26.091-14.916,41.136-15.278
			C191.88,359.855,191.929,339.669,178.914,339.982z M124.641,437.56c-3.22,1.937-8.43,3.909-11.717,1.152
			c-3.056-2.563-3.091-8.047-3.019-11.732c0.214-10.825,4.011-21.526,9.519-30.75c1.25-2.094,2.61-4.123,4.06-6.085
			c0.286,0.206,0.573,0.404,0.854,0.62C138.784,401.867,141.356,427.508,124.641,437.56z"/>
	</g>
</g>
<g>
	<g>
		<path d="M73.753,162.747c-23.974,0-43.478,19.508-43.478,43.488c-0.001,23.974,19.503,43.478,43.478,43.478
			c23.979,0,43.488-19.504,43.488-43.478C117.241,182.256,97.732,162.747,73.753,162.747z M73.753,229.528
			c-12.844,0-23.293-10.45-23.293-23.293c-0.001-12.849,10.449-23.303,23.293-23.303c12.849,0,23.303,10.454,23.303,23.303
			C97.056,219.08,86.603,229.528,73.753,229.528z"/>
	</g>
</g>
<g>
	<g>
		<path d="M237.045,19.75c-23.979,0-43.488,19.504-43.488,43.478c0,23.979,19.508,43.488,43.488,43.488
			c23.974,0,43.478-19.508,43.478-43.488C280.523,39.254,261.02,19.75,237.045,19.75z M237.045,86.53
			c-12.848,0-23.303-10.454-23.303-23.303c0-12.844,10.454-23.293,23.303-23.293c12.844,0,23.293,10.45,23.293,23.293
			C260.338,76.077,249.89,86.53,237.045,86.53z"/>
	</g>
</g>
<g>
	<g>
		<path d="M452.527,190.885c-23.98,0-43.489,19.508-43.489,43.488c0,23.973,19.508,43.478,43.489,43.478
			c23.973,0,43.477-19.504,43.477-43.478C496.003,210.393,476.5,190.885,452.527,190.885z M452.527,257.665
			c-12.849,0-23.304-10.45-23.304-23.293c0-12.85,10.454-23.303,23.304-23.303c12.843,0,23.292,10.454,23.292,23.303
			C475.819,247.217,465.37,257.665,452.527,257.665z"/>
	</g>
</g>
<g>
	<g>
		<path d="M270.431,411.472c-23.974,0-43.478,19.508-43.478,43.488s19.503,43.488,43.478,43.488
			c23.979,0,43.488-19.508,43.488-43.488C313.918,430.98,294.41,411.472,270.431,411.472z M270.431,478.263
			c-12.844,0-23.293-10.454-23.293-23.303s10.45-23.303,23.293-23.303c12.849,0,23.303,10.454,23.303,23.303
			S283.28,478.263,270.431,478.263z"/>
	</g>
</g>
<g>
	<g>
		<path d="M122.621,52.145L86.985,16.509c-1.893-1.893-4.461-2.956-7.137-2.956c-2.677,0-5.244,1.064-7.136,2.957L37.086,52.146
			c-3.94,3.941-3.939,10.33,0.001,14.271l35.626,35.626c1.97,1.971,4.553,2.956,7.136,2.956c2.583,0,5.164-0.985,7.135-2.955
			l35.636-35.626c1.893-1.892,2.957-4.46,2.957-7.137C125.577,56.605,124.513,54.037,122.621,52.145z M79.85,80.635L58.495,59.28
			L79.85,37.919l21.361,21.361L79.85,80.635z"/>
	</g>
</g>
<g>
	<g>
		<path d="M307.461,281.907l-35.636-35.636c-1.893-1.893-4.461-2.957-7.137-2.957c-2.677,0-5.243,1.064-7.136,2.957l-35.627,35.636
			c-3.94,3.942-3.939,10.331,0.001,14.273l35.627,35.626c1.971,1.971,4.554,2.956,7.136,2.956c2.583,0,5.164-0.985,7.135-2.955
			l35.636-35.626c1.893-1.892,2.957-4.46,2.957-7.137C310.417,286.367,309.354,283.799,307.461,281.907z M264.69,310.397
			l-21.355-21.355l21.355-21.361l21.361,21.361L264.69,310.397z"/>
	</g>
</g>
<g>
	<g>
		<path d="M502.252,466.929c-12.988,0-13.01,20.185,0,20.185C515.239,487.114,515.26,466.929,502.252,466.929z"/>
	</g>
</g>
<g>
</g>
<g>
</g>
<g>
</g>
<g>
</g>
<g>
</g>
<g>
</g>
<g>
</g>
<g>
</g>
<g>
</g>
<g>
</g>
<g>
</g>
<g>
</g>
<g>
</g>
<g>
</g>
<g>
</g>
</svg>
