<?xml version="1.0" encoding="utf-8"?>
<!-- Generator: Adobe Illustrator 25.0.0, SVG Export Plug-In . SVG Version: 6.00 Build 0)  -->
<svg version="1.1" id="Layer_1" xmlns="http://www.w3.org/2000/svg" xmlns:xlink="http://www.w3.org/1999/xlink" x="0px" y="0px"
	 viewBox="0 0 160.9 140.2" style="enable-background:new 0 0 160.9 140.2;" xml:space="preserve">
<style type="text/css">
	.st0{fill:#B7C91A;}
	.st1{fill:#FFB842;}
	.st2{fill:#E6F093;}
	.st3{fill:#D4A933;}
	.st4{fill:#29701C;}
	.st5{fill:#ACD192;}
	.st6{fill:#183305;}
	.st7{fill:#7C3A24;}
	.st8{fill:#45A428;}
	.st9{fill:#CCE01D;}
	.st10{fill:#BBC436;}
	.st11{fill:#343813;}
	.st12{fill:#494F1A;}
	.st13{fill:#838C31;}
	.st14{fill:#D9E38B;}
	.st15{fill:#3D4216;}
	.st16{fill:#C0D9A6;}
	.st17{fill:#C7E0AC;}
	.st18{fill:#D3EDB6;}
	.st19{fill:#DEE88E;}
	.st20{fill:#302203;}
	.st21{fill:#454010;}
	.st22{fill:#E6AA89;}
	.st23{opacity:0.71;}
	.st24{fill:#FFFFFF;}
	.st25{fill:#E5B579;}
	.st26{fill:#FAE5CD;}
	.st27{fill:#F8D6AD;}
	.st28{fill:#8B8B36;}
	.st29{opacity:0.8;fill:#B9A44C;}
	.st30{fill:#8A6E4E;}
</style>
<g>
	<g>
		<path class="st0" d="M56.1,55.9c-0.2,1.7-0.5,3.2-1,4.6c-0.2,0.4-0.3,0.9-0.5,1.3c-0.5,1.2-1.1,2.3-1.8,3.3
			c-0.5,0.7-1,1.3-1.5,1.9c-0.2,0.2-0.3,0.3-0.5,0.5c-0.9,0.9-1.8,1.6-2.7,2.3C48,69.9,47.9,70,47.7,70c-1.8,1.2-3.6,1.9-5.2,2.4
			h-0.1c-0.2,0.1-0.4,0.1-0.6,0.2h-0.1c-0.1,0-0.1,0-0.2,0c-0.3,0.1-0.6,0.1-1,0.2c-0.1,0-0.3,0-0.4,0.1c-0.1,0-0.3,0-0.4,0
			c-0.1,0-0.2,0-0.3,0c-0.4,0-0.9,0-1.3,0c-2.7,0-5.4-0.5-7.6-1.1c-0.2-0.1-0.4-0.1-0.6-0.2c-0.1,0-0.3-0.1-0.4-0.1
			s-0.2-0.1-0.4-0.1c-0.1,0-0.1,0-0.2-0.1c-0.1,0-0.3-0.1-0.4-0.1s-0.2-0.1-0.4-0.1c-0.1,0-0.3-0.1-0.4-0.1c-0.2,0-0.3-0.1-0.4-0.1
			s-0.1,0-0.2-0.1c-0.8-0.3-1.4-0.6-1.6-0.7c-0.1,0-0.1,0-0.1,0S25,70,24.5,69.8c-0.1,0-0.1,0-0.2-0.1c-0.9-0.3-2.2-0.9-3.6-2.1
			c-0.9-0.7-1.9-1.7-2.9-2.9c-0.3-0.4-0.6-0.8-1-1.3c-0.6-0.9-1.3-2-1.9-3.2c0,0,0-0.1-0.1-0.1c0-0.1-0.1-0.1-0.1-0.2
			c-0.1-0.3-0.2-0.6-0.3-1v-0.1c-0.1-0.1-0.1-0.3-0.2-0.5c-0.1-0.2-0.1-0.4-0.2-0.6c0-0.2-0.1-0.4-0.1-0.5c-0.1-0.2-0.1-0.5-0.2-0.7
			c-0.1-0.4-0.2-0.8-0.2-1.2c0-0.3-0.1-0.6-0.1-0.9c-0.1-0.9-0.1-1.8-0.1-2.6s0.1-1.6,0.2-2.4c0.1-1.3,0.4-2.5,0.8-3.6
			c0.1-0.3,0.2-0.5,0.3-0.8c0.3-0.8,0.6-1.5,0.9-2.2c0.6-1.3,1.3-2.5,2-3.7c0-0.1,0.1-0.1,0.1-0.2c0.7-1,1.3-2,2-2.8
			c0.4-0.5,0.7-0.9,1.1-1.3c0.5-0.6,1-1.2,1.5-1.6c0.4-0.5,0.8-0.9,1.1-1.2c0.4-0.4,0.7-0.8,1-1.2c1.3-1.8,1.8-3.8,2.8-5.7
			c0-0.1,0.1-0.2,0.1-0.3c0.1-0.1,0.2-0.3,0.2-0.5c0.1-0.2,0.2-0.4,0.4-0.6c0.7-1.1,1.6-2.2,2.8-3.3c1.1-0.9,2.2-1.5,3.3-1.9
			c3.7-1.2,7.2,0,7.5,0.1c0.5,0.2,1,0.4,1.5,0.6c0.4,0.2,0.7,0.4,1.1,0.7c0.2,0.2,0.5,0.4,0.7,0.6c0.5,0.4,0.9,0.9,1.3,1.4
			c0.1,0.1,0.2,0.3,0.3,0.4c0,0,0,0,0,0.1c0.1,0.1,0.1,0.2,0.2,0.3c0,0,0,0,0,0.1c0.1,0.2,0.3,0.4,0.4,0.6c0.8,1.3,1.5,2.8,2.1,4.4
			c0.4,1,0.8,2.1,1.1,3.1c0.1,0.2,0.1,0.3,0.2,0.5v0.1c0.1,0.3,0.2,0.6,0.3,0.9c0.3,1,0.6,2,1,3c0.1,0.2,0.1,0.4,0.2,0.6
			c0.1,0.3,0.2,0.6,0.3,0.9c0.1,0.2,0.2,0.5,0.2,0.7v0.1c0.3,0.8,0.6,1.6,0.8,2.3c0.1,0.2,0.2,0.5,0.3,0.7c1.5,3.9,2.3,7.4,2.6,10.5
			c0,0.2,0,0.4,0.1,0.6c0,0.1,0,0.1,0,0.2C56.2,53.2,56.2,54.6,56.1,55.9z"/>
	</g>
	<g>
		<path class="st1" d="M42.7,19.9c-0.5,0.1-1.2,0.4-1.3,0.9c0,0.1,0,0.3-0.1,0.4c-0.2,0.2-0.5,0-0.7-0.1c-1.1-0.6-1.7,0.2-2.7,0.2
			c-0.4,0-0.8-0.3-1.2-0.5c-1.4-0.4-1.5,0.8-2.4-0.4c0.1,0.2-0.5-1.1-0.5-0.9c-0.1-0.3-0.4-0.3-0.3-0.6c0.1-0.9,2.9-1.2,3.6-1.2
			c1.1,0,2.3,0.2,3.4,0.4c1.1,0.3,2.2,0.9,3.1,1.6C43.3,19.8,43,19.8,42.7,19.9z"/>
	</g>
	<g>
		<path class="st2" d="M56.1,55.9c-0.2,1.7-0.5,3.2-1,4.6c-0.2,0.4-0.3,0.9-0.5,1.3c-0.5,1.2-1.1,2.3-1.8,3.3
			c-0.5,0.7-1,1.3-1.5,1.9c-0.2,0.2-0.3,0.3-0.5,0.5c-0.9,0.9-1.8,1.6-2.7,2.3C48,69.9,47.9,70,47.7,70c-1.8,1.2-3.6,1.9-5.2,2.4
			h-0.1c-0.2,0.1-0.4,0.1-0.6,0.2h-0.1c-0.1,0-0.1,0-0.2,0c-0.3,0.1-0.6,0.1-1,0.2c-0.1,0-0.3,0-0.4,0.1c-0.1,0-0.3,0-0.4,0
			c-0.1,0-0.2,0-0.3,0c-0.4,0-0.9,0-1.3,0c-2.7,0-5.4-0.5-7.6-1.1c-0.2-0.1-0.4-0.1-0.6-0.2c-0.1,0-0.3-0.1-0.4-0.1
			s-0.2-0.1-0.4-0.1c-0.1,0-0.1,0-0.2-0.1c-0.1,0-0.3-0.1-0.4-0.1s-0.2-0.1-0.4-0.1c-0.1,0-0.3-0.1-0.4-0.1c-0.2,0-0.3-0.1-0.4-0.1
			s-0.1,0-0.2-0.1c-0.8-0.3-1.4-0.6-1.6-0.7c-0.1,0-0.1,0-0.1,0S25,70,24.5,69.8c-0.1,0-0.1,0-0.2-0.1c-0.9-0.3-2.2-0.9-3.6-2.1
			c-1-0.8-1.8-1.7-2.5-2.6c-1.2-1.6-2.1-3.3-3.3-4.9c0-0.1-0.1-0.1-0.1-0.2c-0.1-0.3-0.2-0.6-0.3-1v-0.1c-0.2-0.1-0.2-0.3-0.3-0.5
			c-0.1-0.2-0.1-0.4-0.2-0.6c0-0.2-0.1-0.4-0.1-0.5c-0.1-0.2-0.1-0.5-0.2-0.7c-0.1-0.4-0.2-0.8-0.2-1.2c0-0.3-0.1-0.6-0.1-0.9
			c-0.1-0.9-0.1-1.8-0.1-2.6s0.1-1.6,0.2-2.4c0.1-1.3,0.4-2.5,0.8-3.6c0.1-0.3,0.2-0.5,0.3-0.8c0.3-0.8,0.6-1.5,0.9-2.2
			c0.6-1.3,1.3-2.5,2-3.7c0-0.1,0.1-0.1,0.1-0.2c0.7-1,1.3-2,2-2.8c0.4-0.5,0.7-0.9,1.1-1.3c0.5-0.6,1-1.2,1.5-1.6
			c0.4-0.5,0.8-0.9,1.1-1.2c0.4-0.4,0.7-0.8,1-1.2c0.1-0.2,0.3-0.3,0.4-0.5c1-1.6,1.6-3.5,2.4-5.2c0-0.1,0.1-0.2,0.1-0.3
			c0.1-0.1,0.2-0.3,0.2-0.5c0.1-0.2,0.2-0.3,0.3-0.5c-1.9,2.8,4.5,6.5,6.2,7c2.4,0.7,5.1,0.8,7.7,1h0.2c1.6,0.1,6.8,0.2,4.1,2.3
			c-2.9,2.3-10.3-0.4-13.8-0.2c-3.3,0.2-9.8,0.8-12,3.7c-2.4,3.2-3.6,8.1-2.4,11.9c1.2,3.8,4.2,6.6,7.8,8.1
			c8.2,3.5,19.1,4.5,26.9-0.7c1.8-1.2,2.7-3.3,3.7-5.2C56.2,53.2,56.2,54.6,56.1,55.9z"/>
	</g>
	<g>
		<g>
			<path class="st3" d="M39.1,20.2c-0.3,0.1-0.6,0.1-0.9,0.1c-1.2-0.1-2.2-0.5-3.1-1.2c-0.6-0.4,0.9-0.2,1.1-0.2c1,0.1,2,0.3,3,0.3
				c0.9,0,1.7,0,2.5,0.5C40.8,19.7,40,20,39.1,20.2z"/>
		</g>
	</g>
	<g>
		<path class="st4" d="M63.5,37.4c0,0.5,0,1.1,0,1.6c-0.5-0.6-1.1-1.2-1.6-1.7c-0.1,0.2-0.1,0.5-0.1,0.7c-0.4-0.3-0.9-0.8-0.9-1.4
			c0,0.2-0.1,0.5-0.2,0.7c0,0,0,0.1-0.1,0.1c0,0,0,0-0.1,0c-0.2-0.4-0.5-0.7-0.7-1.1c-0.1-0.2-0.3-0.6-0.3-0.7c0,0.2,0,0.3-0.1,0.5
			c-0.2-0.2-1.6-1.9-1.5-2.1c-0.1,0.3-0.2,0.6-0.3,0.8c-0.4-0.8-0.9-1.6-1.3-2.5c-0.1,0.3-0.1,0.6-0.2,1c-0.3-0.2-1.5-1.8-1.4-2.2
			c0,0.1-0.2,0.4-0.2,0.5c-0.3-0.4-1.2-1.7-1.1-2.3c0,0.3-0.1,0.5-0.1,0.8c-0.4-0.7-0.6-1.5-0.8-2.3c-0.1,0.3-0.2,0.6-0.2,0.9
			c-0.2-0.4-1.1-1.8-1-2.2c-0.1,0.2-0.1,0.3-0.2,0.5c-0.6-0.7-1-1.6-1.1-2.5c-0.1,0.3-0.2,0.5-0.3,0.8c-0.9-1.3-1.3-3.5-1.2-3.5
			c-0.1,0.1-0.3,0.5-0.4,0.7c-0.5-0.9-0.9-1.9-0.9-3c-0.1,0.2-0.2,0.4-0.3,0.6c-0.1-0.4-0.9-2.7-0.5-3.3c-0.2,0.3-0.4,0.5-0.5,0.8
			c-0.1-1.1,0-2.2,0.1-3.3c-0.2,0.1-0.4,0.3-0.6,0.4c0-1.8,0.6-3.7,1.7-5.1c0.9-1.2,1.8-1.2,3.4-1.1c2.1,0.2,4.4,0.9,6.1,2.2
			c-0.1-0.1-0.5,0-0.6,0c1,0.5,1.7,1.3,2.4,2.1c-0.2,0-0.4-0.1-0.6-0.1c0.7,0.8,1.4,1.5,2,2.3c0,0-0.8-0.1-0.9-0.1
			c1.2,0.9,2.1,2.1,2.8,3.4c-0.3-0.1-0.6-0.1-0.9-0.2c0.8,0.9,1.5,2,1.9,3.1c-0.2-0.1-0.5-0.1-0.7-0.2c0.3,0.1,1.6,2.2,1.8,3.7
			c-0.2-0.1-0.3-0.2-0.4-0.4c0.7,1.7,0.7,2.8,0.7,2.8c-0.1-0.2-0.3-0.1-0.4-0.3c0.6,1.9,0.6,2.9,0.6,2.9c-0.2-0.2-0.4-0.4-0.6-0.7
			c0.8,1.9,0.8,2.2,0.8,3.3c-0.1-0.1-0.2-0.3-0.3-0.4c0.1,1,0.1,1.5,0.1,2.7c0,0.1-0.1,0.6,0,0.7c-0.2-0.2-0.3-0.4-0.5-0.6
			c0,0.8,0,1.6,0.1,2.3c-0.2-0.2-0.3-0.4-0.5-0.5C63.4,36.7,63.5,37.1,63.5,37.4z"/>
	</g>
	<g>
		<path class="st5" d="M48.5,10.3c-0.4-0.5-0.5-0.9,0-1.2c1.1-0.6,3.2,0.1,4.2,0.4c0.7,0.2,1.3,0.4,1.9,0.8c1,0.8,1.1,2.1,1.4,3.2
			c0.2,0.6,0.5,1.2,0.9,1.7c0.4,0.4,0.8,0.7,1.1,1.2c0.4,0.6,0.5,1.3,0.7,1.9c0.3,0.7,0.7,1.3,1.2,1.9c1,1.3,2.2,2.6,2.4,4.3
			c-0.2,0-0.3-0.1-0.5-0.1c0.6,1.2,1.2,2.5,1.6,3.8c-0.2-0.1-0.3-0.3-0.5-0.4c0.4,0.3,0.3,3.7,0.8,3.8c-0.2,0-0.3-0.1-0.4-0.3
			c0,1.1,0.4,2,0.6,3c-0.2-0.2-0.4-0.4-0.5-0.7c-0.1,0.9-0.2,1.8-0.1,2.7c-0.2-0.3-0.3-0.6-0.5-0.9c0.1,0.8,0,1.5,0.1,2.3
			c-0.7-2.8-1.4-5.5-2.5-8.2c-1-2.3-2.1-4.6-3.3-6.9c-1.3-2.5-2.8-4.8-4.4-7.1c-1-1.3-1.9-2.6-3-3.9C49.5,11.2,48.9,10.8,48.5,10.3z
			"/>
	</g>
	<g>
		<path class="st6" d="M60.9,31.6c-0.4-1.5-0.8-3.1-1.3-4.6c-0.6-1.5-1.3-3-2.1-4.5c-1.2-2.4-2.9-4.6-4.4-6.9
			c-1.5-2.2-3.5-4.1-5.4-6c-0.7-0.7-1.3,1.1-1.5,1.6s-0.3,1-0.4,1.4c0,0.2-0.1,1.3-0.2,1.4l0.6-0.4V14c-0.1,1-0.2,1.9-0.1,2.7
			l0.3-0.4l0.3,0.2c-0.1,0.2-0.2,0.7,0.4,2.7l0.4-0.8v0.7c0,0.9,0.3,1.8,0.7,2.6c0.1-0.2,0.2-0.4,0.3-0.4l0.2,0.3l0.1-0.1
			c0,0.2,0.3,1.9,1,3.1c0.1-0.1,0.1-0.2,0.1-0.4v-0.1h0.4c0.1,0.8,0.4,1.5,0.8,2.1l0.1-0.2l0.3,0.1c-0.1,0.2,0.5,1.2,0.7,1.6
			c0,0,0,0,0,0.1l0.1-0.4h0.4c0.1,0.6,0.3,1.2,0.5,1.7v-0.2l0.4,0.1c-0.1,0.4,0.5,1.3,0.9,1.8v-0.1l0.3,0.1c0,0.2,0.7,1.3,1.1,1.8
			l0.2-1.2l1.3,2.6l0.2-0.4l0.4,0.1c0,0.2,0.8,1.2,1.2,1.7v-0.1h0.4c0,0.1,0.1,0.3,0.2,0.4c0.1,0.1,0.1,0.2,0.1,0.3
			c0.1,0.3,0.3,0.5,0.4,0.8c0,0,0,0.1,0.1,0.1c0-0.1,0.1-0.3,0.1-0.4h0.4c0,0.4,0.2,0.7,0.6,1c0-0.2,0.1-0.3,0.1-0.4l0.1-0.2
			c0.2,0.2,0.4,0.5,0.7,0.7c0.1,0.1,0.4,0.4,0.5,0.5c-0.6-1.9-1.2-3.8-1.7-5.8C61.1,32.1,61,31.9,60.9,31.6z"/>
	</g>
	<g>
		<path class="st7" d="M47.7,3.4C46.9,4.5,45,4.3,44,5.2c-1.1,0.9-2.1,2.3-2.8,3.5c-1.6,2.6-2.3,5.8-2.4,8.8c0,0.5,0.3,1.4,0.3,2.1
			c0,0.2-0.1,0.3-0.2,0.5c-0.4,0.5-2.5-0.1-2.5-0.3c0.9-2,0.5-3.9,0.9-6c0.4-2.1,1.1-4.2,2.2-6c0.4-0.7,0.8-1.4,1.3-2.1
			s1.1-1.4,1.6-2.1c0.1-0.1,0.2-0.2,0.3-0.3c0.8-1,1.6-2,2.5-2.9C46.6-0.9,47.1,1,47.5,2C47.9,2.4,48,2.9,47.7,3.4z"/>
	</g>
	<g>
		<path class="st8" d="M63.3,32c-0.7-1.1-1.8-2-2.9-2.6c-0.5-1.5-1-2.9-2-4.9c1.9,0.6,3.5,1.5,4.8,3c0.1,0.1,0.1,0,0.1-0.1
			c-1.3-1.5-3.1-2.6-5-3.1c-0.8-1.6-1.7-3.3-2.6-4.9c2.3,0.5,4.5,1.3,6.4,2.7c0,0,0.1,0,0,0c-1.9-1.5-4.1-2.7-6.6-3
			c-0.9-1.5-1.9-2.9-2.9-4.3c1.5,0.4,2.6,0.4,5.9,1.7c0.1,0,0.1-0.1,0-0.1c-1.8-0.9-4.1-1.8-6.1-1.9c-1.4-1.8-2-2.4-3.2-3.7
			c4.2,0.1,5.5,1.1,7.8,1.8c-1.9-1.2-5.8-1.9-8.1-2.1c-0.8-1-1.6-2.1-2.1-3.4c-0.2-0.5-0.4-1-0.4-1.5c0-0.2,0.1-1.4,0.4-1.4
			c-0.3,0-0.8,0.4-1.1,0.1C46,4.9,45.9,5.6,46,6.2c0.1,0.7,0.4,1.4,0.7,2.1c0.4,0.7,0.8,1.3,1.3,1.9c0.2,0.2,1.5,1.6,1.5,1.7
			c-1.2,3.4-0.5,7.9-0.5,7.2c-0.2-3.5,0.4-5.3,0.7-6.9c1.6,1.7,2.2,2.3,3.6,4.2c-1.2,4-0.5,8.6-0.6,7.9c-0.1-2.6,0.3-5.1,0.8-7.7
			c1.3,1.8,2.6,4.1,3.7,6l0,0c-1.6,3.3-1.1,7.6-1.1,7.1c-0.1-2.5,0.5-4.6,1.3-6.9c0.9,1.7,1.6,3.2,2.2,4.7c0,0,0,0,0,0.1
			c-1,3.4-0.4,6.4-0.4,5.9c-0.2-1.9,0.1-3.8,0.6-5.6c1.7,4.4,3.1,10,2.9,9.3c-0.5-2.5-1.1-5-1.9-7.4C61.5,30.4,62.4,31.2,63.3,32
			C63.3,32.2,63.4,32.1,63.3,32z"/>
	</g>
	<g>
		<path class="st9" d="M55.1,60.5c-0.2,0.4-0.3,0.9-0.5,1.3c-0.5,1.2-1.1,2.3-1.8,3.3c-0.5,0.7-1,1.3-1.5,1.9
			c-0.2,0.2-0.3,0.3-0.5,0.5c-0.9,0.9-1.8,1.6-2.7,2.3C48,69.9,47.9,70,47.7,70c-1.8,1.2-3.6,1.9-5.2,2.4h-0.1
			c-0.2,0.1-0.4,0.1-0.6,0.2c-0.1,0-0.2,0-0.3,0.1c-0.3,0.1-0.6,0.1-1,0.2c-0.1,0-0.3,0-0.4,0.1c-0.1,0-0.3,0-0.4,0
			c-3.1,0.3-6.2-0.2-9.2-1c-0.2-0.1-0.4-0.1-0.6-0.2c-0.1,0-0.3-0.1-0.4-0.1s-0.2-0.1-0.4-0.1c-0.1,0-0.1,0-0.2-0.1
			c-0.1,0-0.3-0.1-0.4-0.1s-0.2-0.1-0.4-0.1c-0.1,0-0.3-0.1-0.4-0.1c-0.2-0.2-0.3-0.3-0.4-0.3s-0.1,0-0.2-0.1
			c-0.8-0.3-1.7-0.7-2.6-1c-0.1,0-0.1,0-0.2-0.1c-0.9-0.3-2.2-0.9-3.6-2.1c-0.9-0.7-1.9-1.7-2.9-2.9c-0.3-0.4-0.6-0.8-1-1.3
			c-0.6-0.9-1.3-2-1.9-3.2c0,0,0-0.1-0.1-0.1c0-0.1-0.1-0.1-0.1-0.2c-0.1-0.3-0.2-0.6-0.3-1v-0.1c-0.1-0.1-0.1-0.3-0.2-0.5
			c-0.1-0.2-0.1-0.4-0.2-0.6c0-0.2-0.1-0.4-0.1-0.5c-0.1-0.2-0.1-0.5-0.2-0.7c-0.1-0.4-0.2-0.8-0.2-1.2c0-0.3-0.1-0.6-0.1-0.9
			c-0.1-0.9-0.1-1.8-0.1-2.6c0,0.2,0.1,0.3,0.1,0.4c0.3,1.9,1.1,3.6,2.3,5.1c2.4,2.9,6,4.8,9.5,6.2c9.7,3.8,19.9,3,28.9-2.3
			C54.4,61,54.8,60.8,55.1,60.5z"/>
	</g>
	<g>
		<path class="st10" d="M51.3,67c-0.2,0.2-0.3,0.3-0.5,0.5c-0.9,0.9-1.8,1.6-2.7,2.3C48,69.9,47.9,70,47.7,70
			c-1.8,1.2-3.6,1.9-5.2,2.4h-0.1c-0.2,0.1-0.4,0.1-0.6,0.2h-0.1c-0.1,0-0.1,0-0.2,0c-0.3,0.1-0.6,0.1-1,0.2c-0.1,0-0.3,0-0.4,0.1
			c-0.1,0-0.3,0-0.4,0c-3.1,0.3-6.2-0.2-9.2-1c-0.2-0.1-0.4-0.1-0.6-0.2c-0.1,0-0.3-0.1-0.4-0.1s-0.2-0.1-0.4-0.1
			c-0.1,0-0.1,0-0.2-0.1c-0.1,0-0.3-0.1-0.4-0.1s-0.2-0.1-0.4-0.1c-0.1,0-0.3-0.1-0.4-0.1c-0.2-0.1-0.3-0.2-0.4-0.2s-0.1,0-0.2-0.1
			c-0.8-0.3-1.7-0.7-2.6-1c-0.1,0-0.1,0-0.2-0.1c-0.9-0.3-2.2-0.9-3.6-2.1c-0.9-0.7-1.9-1.7-2.9-2.9c0.1,0.1,0.3,0.2,0.4,0.3
			c0.3,0.2,0.6,0.4,0.9,0.6c1.8,1.2,3.2,1.3,5.2,1.8c1.8,0.4,3.4,1.5,5,2.3c1.9,1,4,1.4,6.2,1.5c4.1,0,8.3-1,12.1-2.5
			c0.5-0.2,0.9-0.4,1.4-0.6C49.8,67.8,50.5,67.4,51.3,67z"/>
	</g>
	<g>
		<path class="st11" d="M35,55.7c4.7,0.6,11.4-1.1,14.3-5.1c2.3-3.3,3.2-9.1-0.7-11.4c-4-2.3-7.3,0.9-11.3-0.1
			c-1.8-0.4-3.6-1.1-5.5-1.3c-1.9-0.3-3.9-0.1-5.4,1c-3,2.1-2.6,8.5-0.8,11.3C27.4,53.2,31.3,55.2,35,55.7z"/>
	</g>
	<g>
		<path class="st12" d="M42.5,30.7c-4.3,1.7-12.6-1.5-10.5-7c0.5-1.4,2-1.7,3.4-1.7c2.2,0,6.1-0.4,8,1.2c2,1.7,2.2,5.8-0.1,7.2
			C42.9,30.5,42.7,30.6,42.5,30.7z"/>
	</g>
	<g>
		<path class="st13" d="M34.7,52.7c-3.9-1.2-11.9-9.5-4.6-12.2c2.7-1,6.2,1,9,1.4c2.9,0.4,6.1,0.5,7.2,3.8
			C48.6,52.7,39.2,54.1,34.7,52.7z"/>
	</g>
	<g>
		<path class="st13" d="M38.8,29.5c1.2,0.1,2.3-0.3,3.1-1.3c1.1-1.4,0.9-2.7-0.8-3.1c-0.6-0.1-1.2-0.2-1.8-0.4
			c-0.9-0.2-1.8-0.8-2.8-0.9c-2.4-0.5-2.8,1.5-1.8,3.2C35.5,28.4,37.2,29.4,38.8,29.5z"/>
	</g>
	<g>
		<path class="st14" d="M35.9,33.4c0.7,0.1,3,0.3,1.8-1c-0.5-0.5-1.7-0.5-2.3-0.7c-1.8-0.4-3.7-0.9-5.4-1.8c-0.8-0.5-1.2-1.7-2.1-2
			c-0.8-0.3-1.3,0.3-1.5,1C26,30,25.8,30.8,25,31.7c-0.8,0.9-1.7,1.6-2.5,2.4c-0.3,0.3-0.6,0.9-0.3,1.2c0.7,0.7,4.4-1.3,5.2-1.5
			c2.5-0.8,5.3-0.7,7.9-0.5C35.5,33.3,35.7,33.3,35.9,33.4z"/>
	</g>
	<g>
		<path class="st15" d="M23.2,53.1c-1.2-1.7-2-3.7-1.9-5.9c0-4.4,2.7-9.6,7.6-11.2c7.8-2.5,20-0.4,22.7,7.3
			c2.2,6.2-2.8,14.8-10.1,16.4C34.8,61,26.9,58.1,23.2,53.1z"/>
	</g>
	<g>
		<g>
			<path class="st16" d="M30.5,42.7c0.3,0,0.5-0.2,0.6-0.5c0-0.3-0.2-0.5-0.5-0.6c-0.3,0-0.5,0.2-0.6,0.5
				C30,42.5,30.2,42.7,30.5,42.7L30.5,42.7z"/>
		</g>
	</g>
	<g>
		<g>
			<path class="st16" d="M39.5,37c0.4,0,0.4-0.6,0.1-0.6C39.2,36.3,39.1,37,39.5,37L39.5,37z"/>
		</g>
	</g>
	<g>
		<g>
			<path class="st16" d="M42.6,39.9c0.4,0,0.4-0.6,0.1-0.6C42.3,39.2,42.2,39.8,42.6,39.9L42.6,39.9z"/>
		</g>
	</g>
	<g>
		<g>
			<path class="st16" d="M45.2,37.5c0.4,0,0.5-0.6,0.1-0.7C44.9,36.8,44.8,37.5,45.2,37.5L45.2,37.5z"/>
		</g>
	</g>
	<g>
		<g>
			<path class="st16" d="M24.1,63.9c0.1,0,0.1,0,0.2,0s0.1-0.1,0.2-0.2c0.2-0.3-0.1-0.7-0.5-0.6c-0.1,0-0.2,0.1-0.2,0.2
				c0,0.1,0,0.1-0.1,0.2C23.6,63.7,23.9,63.9,24.1,63.9L24.1,63.9z"/>
		</g>
	</g>
	<g>
		<g>
			<path class="st16" d="M27.3,66.6c0.4,0,0.5-0.7,0.1-0.7C26.9,65.9,26.8,66.6,27.3,66.6L27.3,66.6z"/>
		</g>
	</g>
	<g>
		<g>
			<path class="st16" d="M33.7,63.7c0.3,0,0.3-0.4,0-0.4C33.4,63.3,33.4,63.7,33.7,63.7L33.7,63.7z"/>
		</g>
	</g>
	<g>
		<g>
			<path class="st17" d="M26.7,60.6c0.4,0,0.5-0.6,0.1-0.7C26.3,59.9,26.3,60.6,26.7,60.6L26.7,60.6z"/>
		</g>
	</g>
	<g>
		<g>
			<path class="st17" d="M35.9,52.9L35.9,52.9c0,0,0.1,0.1,0.2,0.1c0,0,0,0-0.1-0.1c-0.3-0.3-0.8-0.1-0.8,0.3c0,0.4,0.5,0.7,0.8,0.4
				c0,0,0,0,0.1-0.1c-0.1,0-0.2,0.1-0.3,0.1c0,0,0,0,0.1,0C36.3,53.6,36.4,53,35.9,52.9L35.9,52.9z"/>
		</g>
	</g>
	<g>
		<g>
			<path class="st17" d="M37.9,58c0.6,0,0.6-0.8,0.1-0.9C37.4,57.1,37.3,57.9,37.9,58L37.9,58z"/>
		</g>
	</g>
	<g>
		<g>
			<path class="st18" d="M35.9,61.5c0.3,0,0.3-0.4,0-0.5C35.6,61,35.6,61.5,35.9,61.5L35.9,61.5z"/>
		</g>
	</g>
	<g>
		<g>
			<path class="st18" d="M36.1,64.4L36.1,64.4c0.3,0.1,0.6-0.1,0.6-0.3c0-0.3-0.2-0.5-0.5-0.4h-0.1C35.8,63.8,35.8,64.3,36.1,64.4
				L36.1,64.4z"/>
		</g>
	</g>
	<g>
		<g>
			<path class="st18" d="M36.8,68c0.3,0,0.6-0.2,0.6-0.5s-0.2-0.6-0.5-0.6s-0.6,0.2-0.6,0.5S36.5,68,36.8,68L36.8,68z"/>
		</g>
	</g>
	<g>
		<g>
			<path class="st18" d="M41,66.4L41,66.4c-0.1,0.3,0.2,0.5,0.4,0.6c0.2,0,0.5-0.2,0.5-0.4v-0.1C41.8,65.9,41.1,65.8,41,66.4
				L41,66.4z"/>
		</g>
	</g>
	<g>
		<g>
			<path class="st18" d="M43,62.6c0.5,0,0.5-0.7,0.1-0.7C42.6,61.9,42.6,62.6,43,62.6L43,62.6z"/>
		</g>
	</g>
	<g>
		<path class="st18" d="M34.2,57c-0.1-0.2-0.3-0.4-0.5-0.2s-0.1,0.5,0.1,0.6C34,57.5,34.3,57.3,34.2,57z"/>
	</g>
	<g>
		<path class="st18" d="M39.3,56.4c-0.5,0-0.6,0.7-0.1,0.8C39.7,57.2,39.7,56.5,39.3,56.4z"/>
	</g>
	<g>
		<path class="st18" d="M41.5,60.1c-0.1-0.1-0.3-0.2-0.4-0.1c-0.3,0.2-0.1,0.6,0.1,0.6C41.5,60.7,41.7,60.3,41.5,60.1z"/>
	</g>
	<g>
		<path class="st18" d="M45,53.2c-0.5,0-0.5,0.7-0.1,0.7C45.4,54,45.5,53.2,45,53.2z"/>
	</g>
	<g>
		<path class="st18" d="M47.2,47.8c-0.5,0-0.6,0.7-0.1,0.8C47.6,48.6,47.7,47.9,47.2,47.8z"/>
	</g>
	<g>
		<path class="st18" d="M35.4,36.4L35.4,36.4c-0.1-0.4-0.6-0.5-0.8-0.1c0,0,0,0,0,0.1c-0.1,0.2,0.1,0.5,0.3,0.5
			C35.3,36.9,35.5,36.7,35.4,36.4z"/>
	</g>
	<g>
		<path class="st18" d="M37.6,33.9L37.6,33.9c-0.4,0.1-0.4,0.5-0.1,0.6c0,0,0,0,0.1,0c0.2,0.1,0.4-0.1,0.5-0.3
			C38,34,37.8,33.9,37.6,33.9z"/>
	</g>
	<g>
		<path class="st18" d="M40.7,31.8c-0.6-0.1-0.7,0.9-0.1,0.9C41.2,32.8,41.3,31.8,40.7,31.8z"/>
	</g>
	<g>
		<path class="st18" d="M35.6,31.1c-0.3,0-0.3,0.4,0,0.4C35.9,31.6,35.9,31.1,35.6,31.1z"/>
	</g>
	<g>
		<path class="st18" d="M38.3,30c-0.4,0-0.4,0.5-0.1,0.6C38.7,30.6,38.7,30.1,38.3,30z"/>
	</g>
	<g>
		<path class="st18" d="M34.6,27.9c-0.5,0-0.6,0.7-0.1,0.8C35,28.7,35.1,27.9,34.6,27.9z"/>
	</g>
	<g>
		<path class="st18" d="M30.5,39.9c-0.5,0-0.6,0.7-0.1,0.8C31,40.7,31,40,30.5,39.9z"/>
	</g>
	<g>
		<path class="st18" d="M28.2,41.6c-0.5,0-0.5,0.7-0.1,0.7C28.6,42.4,28.6,41.6,28.2,41.6z"/>
	</g>
	<g>
		<path class="st18" d="M26.7,47.1c-0.3,0-0.5,0.3-0.4,0.5l0,0c0.1,0.2,0.5,0.3,0.6,0.1l0,0C27.1,47.5,27,47.2,26.7,47.1z"/>
	</g>
	<g>
		<path class="st18" d="M29.5,50.2c-0.3,0-0.4,0.5,0,0.5C29.8,50.8,29.9,50.3,29.5,50.2z"/>
	</g>
	<g>
		<path class="st18" d="M27.5,51.8c-0.3,0-0.3,0.4,0,0.4C27.8,52.3,27.8,51.9,27.5,51.8z"/>
	</g>
	<g>
		<path class="st18" d="M23.3,53.1L23.3,53.1c-0.4-0.2-0.8,0.1-0.8,0.5s0.3,0.7,0.7,0.6c0,0,0,0,0.1,0
			C23.8,54.1,23.9,53.3,23.3,53.1z"/>
	</g>
	<g>
		<path class="st18" d="M22.9,48.4c-0.3,0-0.4,0.5,0,0.5C23.2,49,23.2,48.4,22.9,48.4z"/>
	</g>
	<g>
		<path class="st18" d="M25.4,45.1c-0.4,0-0.5,0.6-0.1,0.7C25.8,45.8,25.8,45.1,25.4,45.1z"/>
	</g>
	<g>
		<path class="st18" d="M26.8,41.2c-0.6-0.1-0.7,0.9-0.1,0.9C27.4,42.2,27.4,41.3,26.8,41.2z"/>
	</g>
	<g>
		<path class="st18" d="M27.9,54.1C27.3,54,27.2,55,27.8,55C28.4,55.1,28.5,54.2,27.9,54.1z"/>
	</g>
	<g>
		<path class="st18" d="M38.7,52.6L38.7,52.6c0,0.5,0.6,0.5,0.6,0.1c0,0,0,0,0-0.1C39.3,52.2,38.7,52.2,38.7,52.6z"/>
	</g>
	<g>
		<path class="st18" d="M24.7,58.6c-0.3,0-0.5,0.2-0.6,0.5c0,0.3,0.2,0.5,0.5,0.6c0.3,0,0.5-0.2,0.6-0.5
			C25.2,58.9,25,58.6,24.7,58.6z"/>
	</g>
	<g>
		<path class="st18" d="M27.5,58.2c-0.5,0-0.6,0.7-0.1,0.8C27.9,59,27.9,58.3,27.5,58.2z"/>
	</g>
	<g>
		<path class="st18" d="M28.7,63.7c-0.3,0-0.4,0.5,0,0.5C29,64.2,29.1,63.7,28.7,63.7z"/>
	</g>
	<g>
		<path class="st18" d="M19.2,58.6c-0.5,0-0.6,0.7-0.1,0.8C19.6,59.4,19.7,58.7,19.2,58.6z"/>
	</g>
	<g>
		<path class="st18" d="M21.1,58.3c-0.5,0-0.5,0.7-0.1,0.7C21.5,59.1,21.6,58.4,21.1,58.3z"/>
	</g>
	<g>
		<path class="st18" d="M18.7,54.4c-0.5,0-0.6,0.7-0.1,0.8C19.2,55.2,19.2,54.4,18.7,54.4z"/>
	</g>
	<g>
		<path class="st18" d="M21.2,47.2c-0.4,0-0.5,0.6-0.1,0.6C21.6,47.9,21.6,47.3,21.2,47.2z"/>
	</g>
	<g>
		<path class="st18" d="M21.8,43.2c-0.3,0-0.5,0.2-0.5,0.5c0,0,0,0,0,0.1c0,0.4,0.7,0.5,0.8,0.1c0,0,0,0,0-0.1
			C22.3,43.5,22.1,43.2,21.8,43.2z"/>
	</g>
	<g>
		<path class="st18" d="M45.2,41.5c-0.1-0.2-0.4-0.3-0.6-0.1c-0.2,0.1-0.2,0.4-0.1,0.6c0.2,0.2,0.5,0.2,0.7,0
			C45.3,41.8,45.3,41.6,45.2,41.5z"/>
	</g>
	<g>
		<path class="st18" d="M43.9,43.8c-0.5,0-0.5,0.7-0.1,0.7C44.3,44.6,44.4,43.9,43.9,43.8z"/>
	</g>
	<g>
		<path class="st18" d="M48,42.4C48,42.4,47.9,42.4,48,42.4c-0.6,0-0.7,0.7-0.1,0.8c0,0,0,0,0.1,0c0.2,0,0.4-0.2,0.5-0.4
			C48.4,42.6,48.2,42.4,48,42.4z"/>
	</g>
	<g>
		<path class="st18" d="M32.2,32.2c-0.5,0-0.6,0.8-0.1,0.8C32.7,33.1,32.7,32.3,32.2,32.2z"/>
	</g>
	<g>
		<path class="st18" d="M27.5,34.9c-0.1-0.1-0.2-0.1-0.3-0.1c-0.3-0.1-0.6,0.1-0.6,0.4c0,0.3,0.2,0.5,0.5,0.5c0.1,0,0.2,0,0.3-0.1
			C27.7,35.4,27.8,35,27.5,34.9z"/>
	</g>
	<g>
		<path class="st18" d="M32.9,20.8c0,0.1,0,0.2,0,0.3c0.1,0.3,0.4,0.3,0.5,0c0-0.1,0.1-0.2,0.1-0.3C33.5,20.5,32.9,20.4,32.9,20.8z"
			/>
	</g>
	<g>
		<path class="st18" d="M31.3,22.6c-0.1-0.1-0.1-0.2-0.2-0.3c-0.2-0.2-0.5-0.1-0.6,0.2c-0.1,0.2,0,0.5,0.2,0.6c0.1,0,0.2,0,0.3,0.1
			C31.2,23.1,31.5,22.8,31.3,22.6z"/>
	</g>
	<g>
		<path class="st18" d="M42.7,22.1C42.7,22.1,42.6,22.1,42.7,22.1c-0.5-0.1-0.6,0.6-0.1,0.7c0,0,0,0,0.1,0
			C43.1,22.8,43.1,22.1,42.7,22.1z"/>
	</g>
	<g>
		<path class="st18" d="M44,25.2c-0.5,0-0.6,0.8-0.1,0.8C44.4,26.1,44.5,25.3,44,25.2z"/>
	</g>
	<g>
		<path class="st18" d="M45,29.5c-0.2,0-0.4,0.2-0.3,0.3c0,0,0,0,0,0.1c0.1,0.3,0.4,0.3,0.5,0c0,0,0,0,0-0.1
			C45.3,29.7,45.1,29.5,45,29.5z"/>
	</g>
	<g>
		<path class="st18" d="M18,48.3c-0.4,0-0.5,0.6-0.1,0.7C18.4,49,18.5,48.3,18,48.3z"/>
	</g>
	<g>
		<path class="st18" d="M19.6,43.8c0,0.2,0,0.4,0.2,0.4c0.2,0,0.2-0.2,0.3-0.4C20.1,43.5,19.6,43.5,19.6,43.8z"/>
	</g>
	<g>
		<path class="st18" d="M50.7,49c-0.5,0-0.6,0.7-0.1,0.8C51.1,49.8,51.2,49,50.7,49z"/>
	</g>
	<g>
		<path class="st18" d="M48.5,59.3c-0.5,0-0.6,0.7-0.1,0.8C49,60.1,49,59.4,48.5,59.3z"/>
	</g>
	<g>
		<path class="st18" d="M36.1,51.7C36.1,51.7,36.2,51.7,36.1,51.7c0.1,0.4,0.5,0.4,0.6,0.1c0,0,0,0,0-0.1
			C36.9,51.2,36.1,51.1,36.1,51.7z"/>
	</g>
	<g>
		<path class="st18" d="M31.7,53.3c-0.1-0.2-0.4-0.3-0.6-0.1s-0.2,0.5,0,0.6c0.1,0.1,0.2,0.1,0.3,0.1c0.2,0,0.3-0.1,0.4-0.3
			C31.8,53.5,31.7,53.4,31.7,53.3z"/>
	</g>
	<g>
		<path class="st18" d="M29.8,63.7c-0.1-0.1-0.2-0.1-0.2-0.1C29.3,63.5,29,63.7,29,64s0.2,0.5,0.5,0.5c0.1,0,0.2,0,0.3-0.1
			C30,64.2,30.1,63.9,29.8,63.7z"/>
	</g>
	<g>
		<path class="st18" d="M37.4,70c-0.2,0-0.3,0.1-0.4,0.1c-0.2,0.1-0.2,0.4-0.1,0.6c0.1,0.2,0.4,0.2,0.6,0.1c0.1-0.1,0.2-0.2,0.2-0.4
			C37.8,70.2,37.7,70,37.4,70z"/>
	</g>
	<g>
		<path class="st18" d="M40.5,70.4c-0.5,0-0.6,0.8-0.1,0.8C41,71.2,41.1,70.4,40.5,70.4z"/>
	</g>
	<g>
		<path class="st18" d="M33.4,70.2c-0.2-0.1-0.4,0-0.7,0.1c-0.2,0.1-0.4,0.3-0.3,0.5c0.1,0.2,0.3,0.3,0.5,0.2
			c0.2-0.1,0.4-0.2,0.5-0.4C33.6,70.4,33.6,70.2,33.4,70.2z"/>
	</g>
	<g>
		<path class="st18" d="M41.7,68.7c-0.6-0.1-0.7,0.8-0.1,0.9C42.2,69.6,42.2,68.7,41.7,68.7z"/>
	</g>
	<g>
		<path class="st18" d="M43.3,66.6c-0.6-0.1-0.7,0.9-0.1,0.9C43.8,67.6,43.9,66.6,43.3,66.6z"/>
	</g>
	<g>
		<path class="st19" d="M52.1,36.6c-1.7-1.1-3.3-2.3-4.2-4.1c-0.8-1.7-0.9-3.6-1.2-5.4s-0.9-3.5-1.6-5.1c-0.2-0.3-0.4-1.1-0.4-1.7
			c0.5,0.4,0.9,0.9,1.3,1.4c0.1,0.1,0.2,0.3,0.3,0.4c0,0,0,0,0,0.1c0.1,0.1,0.1,0.2,0.2,0.3c0,0,0,0,0,0.1c0.1,0.2,0.3,0.4,0.4,0.6
			c0.8,1.3,1.5,2.8,2.1,4.4c0.4,1,0.8,2.1,1.1,3.1c0.1,0.2,0.1,0.3,0.2,0.5v0.1c0.1,0.3,0.2,0.6,0.3,0.9c0.3,1,0.6,2,1,3
			c0.1,0.2,0.1,0.4,0.2,0.6S52,36.3,52.1,36.6z"/>
	</g>
	<g>
		<path class="st20" d="M47,1.5c-0.3-0.5-0.8-0.9-1.4-0.6c-0.7,0.3-1.3,1.2-1.6,1.9c-0.4,0.7-0.9,1.1-1.4,1.7
			c-4.7,5.6-4.9,13.7-5.1,14.5c-0.1,0.3,0,0.9,0.5,0.7c0.4-0.1,0.3-0.9,0.3-1.2c0-3,0.4-6.1,1.7-8.9c0.7-1.5,1.5-2.9,2.5-4.2
			c0.8-0.8,1.6-1.5,2.9-1.7c0.8-0.1,2.3-0.1,2.1-1.3C47.4,2.1,47.2,1.8,47,1.5z"/>
	</g>
	<g>
		<path class="st21" d="M45.4,1.4c-0.1,0.2-0.2,0.5-0.4,0.7c-0.3,0.3-0.7,0.6-1,1c-0.6,0.6-1.2,1.3-1.8,2c-0.9,1-1.6,2.1-2.3,3.3
			c-0.9,1.7-1.5,3.5-1.8,5.4c-0.3,1.8-0.6,3.6-0.9,5.5c0,0.1,0,0.2,0,0.2c0.1,0.1,0.2,0.1,0.3,0s0.1-0.2,0.1-0.4
			c0.2-0.9,0.1-1.8,0.3-2.7c0.2-0.9,0.3-1.7,0.5-2.6c0.3-1.8,0.8-3.5,1.6-5.1c0.8-1.6,1.8-3.1,3-4.4c0.4-0.4,0.8-0.8,1.3-1
			c0.5-0.3,0.7-0.2,1.3,0c0.2,0.1,0.4,0.1,0.5,0c0.2-0.2,0-0.5,0.1-0.7c0.2,0.2,0.5,0.3,0.8,0.2c-0.4-0.4-0.5-0.8-0.6-1.4
			c-0.1-0.5-0.8-0.5-1.1-0.1C45.4,1.2,45.4,1.3,45.4,1.4z"/>
	</g>
	<g>
		<path class="st22" d="M39.1,19.6c0,0.2-0.1,0.3-0.2,0.5c-0.4,0.5-2.5-0.1-2.5-0.3c0.9-2,0.5-3.9,0.9-6c0.4-2.1,1.1-4.2,2.2-6
			c0.4-0.7,0.8-1.4,1.3-2.1c-1.1,1.8-2,3.8-2.6,5.9c-0.4,1.4-0.7,2.9-0.9,4.3c-0.1,0.7,0,1.4-0.2,2.1c-0.1,0.3-0.2,0.8-0.1,1.1
			c0,0.1,0.1,0.3,0.2,0.3l0.1,0.1c0.2,0.1,0.4,0.1,0.6,0.1C38.5,19.5,38.8,19.5,39.1,19.6z"/>
	</g>
	<g>
		<path class="st6" d="M51.5,16c-1.1-1.4-2.3-2.5-3.3-1.3c-1.2,1.5,0.7,4.3,1.4,5.6c1.3,2.1,2.8,4.2,4.3,6.2
			c1.3,1.6,2.6,3.2,4.1,4.6c0.1,0.1,0.2,0.2,0.4,0.2s0.2-0.2,0.2-0.4c0.3-1.9-1-3.7-1.8-5.3c-1-2.1-2.1-4.3-3.3-6.3
			C53.2,18.9,52.4,17.3,51.5,16z"/>
	</g>
	<g class="st23">
		<path class="st24" d="M41.6,46.4c-0.6-0.3-1.7,0.2-2.4,0c-0.8-0.1-1.6-0.5-2.2-1c-1-0.9-3.7-3.2-4.7-1c-0.9,2,1.6,3.8,3.1,4.4
			c1.3,0.5,2.9,0.8,4.3,0.6C41.1,49.3,44,47.4,41.6,46.4z"/>
	</g>
	<g class="st23">
		<path class="st24" d="M39.5,28.4c-0.4-0.3-1.9-0.1-2.5-0.4c-0.6-0.3-1.3-0.6-1.4-1.4c-0.2-1.4,1.1-2,2.2-1.5
			c0.6,0.2,1.1,0.7,1.5,1.1c1.2,0.2,0.3,0.2,1.4,0.4c0.3,0.1,0.6,0.1,0.8,0.3c0.2,0.2,0.1,0.6-0.2,0.7c0.2,0.4-0.2,0.3-0.5,0.7
			C40.5,28.5,39.9,28.6,39.5,28.4z"/>
	</g>
</g>
<g>
	<path class="st25" d="M48.1,81.4c-11.1,11.3-32.2,31.5-47.8,36c-1.2,4,1.4,5.7,2.9,8c10.3,15.7,42.4,7.4,71.7-18.6
		c29.2-26,44.5-59.8,34.2-75.5c-1.3-1.9-2.9-3.5-4.7-4.7C90.9,51.4,70.2,59,48.1,81.4z"/>
	<path class="st26" d="M104.3,26.6C90.9,51.4,70.2,59,48.1,81.4c-6.8,6.9-17.3,17.1-28,25c1.9-1.2,3.9-2.4,5.9-3.4
		c5.6-2.9,11.4-5.1,17.6-5.5c6.5-0.4,12.9-0.3,19.1-2.9c0.5-0.4,16.4-3,14.7-29.3c-0.5-8,9.3-12.7,13.9-18.6
		c4.9-6.2,9.6-12.7,14.1-19.4C105.1,27.2,104.7,26.9,104.3,26.6z"/>
	<path class="st27" d="M105.2,27.9c-13.6,22.9-33,31-54.4,52.4c-6.6,6.6-16.8,16.4-27,24.1c1.8-1.2,3.7-2.4,5.6-3.4
		c5.3-3,10.7-5.3,16.4-6.1c6-0.9,11.9-1.2,17.7-3.9c0.5-0.4,15.2-3.8,15.1-26.9c0-7,9.2-11.9,13.8-17.4c4.9-5.9,9.5-11.9,14-18.1
		C105.9,28.3,105.5,28.1,105.2,27.9z"/>
	<path class="st27" d="M12.6,111.6c-4.3,2.7-8.5,4.7-12.3,5.8c-0.4,1.4-0.4,2.5-0.1,3.5C4.4,117.8,8.5,114.6,12.6,111.6z"/>
	<path class="st28" d="M58.7,113.9c-13.5,7-41.1,18.4-57.5,9.2c0.4,3,6.9,11.2,9.8,12.6c15.6,7.9,42.4,7.4,71.7-18.6
		c29.2-26,44.5-59.8,34.2-75.5c-1.3-1.9-6.7-11-8.5-12.2C107.8,55.4,85.3,100,58.7,113.9z"/>
	<path class="st29" d="M81.1,102.1c-6.9,5.5-13,12.4-20.5,16.9c-7.5,4.5-16.3,6.7-24.6,8.6c-6.4,1.4-13,2.3-19.4,1.9
		c-4,0.4-8.2,0.3-12.2-0.5c2.2,3,5,6,6.7,6.9c15.6,7.9,42.4,7.4,71.7-18.6c0.5-0.5,1-1,1.6-1.4c1.1-4.4,1.7-11.3-2.6-13.4
		C81.5,102.2,81.3,102.2,81.1,102.1z"/>
	<path class="st30" d="M69.5,73.9c-2.3,0.3-3.8,2.8-5.3,4.7c-2.1,2.6-3.5,5.6-5.6,8.2c-0.2,0.3,0.2,0.7,0.4,0.5
		c2.8-2.1,5.9-3.3,8.6-5.6c2-1.7,4.1-4,3-7C70.5,74.1,70,73.8,69.5,73.9z"/>
	<path class="st30" d="M58.1,75.1c-2.2,1-3.1,3.8-4.2,6c-1.4,3.1-2.3,6.4-3.8,9.5C50,91,50.5,91.3,50.7,91c2.2-2.9,5.1-4.9,7.2-7.8
		c1.6-2.2,3.1-5,1.5-7.6C59.1,75.1,58.5,74.9,58.1,75.1z"/>
</g>
<g>
	<path class="st25" d="M84.3,77.1c-13.4,7.1-38.6,19.5-54.6,18.6c-2.2,3.4-0.1,6,0.8,8.7c6.1,18.5,38.9,21.2,73.2,6
		c34.4-15.2,57.3-42.5,51.2-61c-0.7-2.3-1.9-4.3-3.4-6.1C132.6,62.6,110.9,62.9,84.3,77.1z"/>
	<path class="st26" d="M151.5,43.3c-18.9,19.3-40.7,19.7-67.3,33.8c-8.2,4.4-20.8,10.7-33,14.7c2.2-0.5,4.3-1,6.5-1.3
		c6.1-0.9,12.1-1.1,18.2,0.6c6.3,1.7,12.5,4,19.1,3.6c0.6-0.2,16.4,2.6,21.3-23.2c1.5-7.9,12-9.1,17.9-13.2
		c6.3-4.3,12.3-9,18.3-13.9C152.2,44.1,151.9,43.7,151.5,43.3z"/>
	<path class="st27" d="M152,44.8c-18.7,17.4-39.2,18.8-65,32.2C79.1,81,67,87,55.2,91.1c2.1-0.6,4.1-1,6.2-1.4
		c5.8-1.1,11.5-1.5,17.2-0.4c5.9,1.2,11.7,2.8,17.9,2.1c0.6-0.2,15.5,1.4,21-20.8c1.7-6.8,11.7-8.3,17.4-12.1
		c6.1-4,12-8.3,17.8-12.7C152.6,45.4,152.3,45.1,152,44.8z"/>
	<path class="st27" d="M42.9,94.2c-4.8,1.1-9.3,1.7-13.2,1.5c-0.7,1.2-1,2.3-0.9,3.3C33.4,97.5,38.1,95.7,42.9,94.2z"/>
	<path class="st28" d="M86.5,111.8c-14.6,2.3-43.8,4-57.4-10.3c-0.3,3,3.9,13,6.3,15.4c13,12.8,38.9,21.2,73.2,6
		c34.4-15.2,57.3-42.5,51.2-61c-0.7-2.3-3.7-12.7-5.2-14.5C147.8,72,115.4,107.3,86.5,111.8z"/>
	<path class="st29" d="M110.8,107.9c-8,3-15.5,7.5-23.8,9.3c-8.3,1.8-17.3,1-25.7,0c-6.5-0.8-13-2.1-19.1-4.6
		c-3.9-1-7.9-2.4-11.5-4.5c1.4,3.6,3.3,7.4,4.7,8.8c13,12.8,38.9,21.2,73.2,6c0.6-0.3,1.2-0.6,1.9-0.8c2.2-3.9,4.3-10.2,0.8-13.7
		C111.2,108.2,111,108,110.8,107.9z"/>
	<path class="st30" d="M106.6,77c-2.3-0.5-4.3,1.4-6.2,2.7c-2.6,1.8-4.7,4.2-7.4,6c-0.3,0.2,0,0.7,0.3,0.6c3.2-1.1,6.5-1.2,9.6-2.5
		c2.3-0.9,4.9-2.5,4.6-5.7C107.4,77.5,107.1,77.1,106.6,77z"/>
	<path class="st30" d="M95.4,74.4c-2.3,0.2-3.9,2.6-5.5,4.4c-2.2,2.5-3.7,5.4-5.9,7.9c-0.3,0.3,0.1,0.7,0.4,0.5c2.9-2,6-3,8.8-5.1
		c2-1.6,4.2-3.8,3.3-6.8C96.3,74.7,95.8,74.4,95.4,74.4z"/>
</g>
</svg>
