<?xml version="1.0" encoding="utf-8"?>
<!-- Generator: Adobe Illustrator 25.0.0, SVG Export Plug-In . SVG Version: 6.00 Build 0)  -->
<svg version="1.1"
	 id="svg2" inkscape:version="0.48+devel r9935" sodipodi:docname="Documento nuevo 1" xmlns:cc="http://creativecommons.org/ns#" xmlns:dc="http://purl.org/dc/elements/1.1/" xmlns:inkscape="http://www.inkscape.org/namespaces/inkscape" xmlns:ns1="http://sozi.baierouge.fr" xmlns:rdf="http://www.w3.org/1999/02/22-rdf-syntax-ns#" xmlns:sodipodi="http://sodipodi.sourceforge.net/DTD/sodipodi-0.dtd" xmlns:svg="http://www.w3.org/2000/svg"
	 xmlns="http://www.w3.org/2000/svg" xmlns:xlink="http://www.w3.org/1999/xlink" x="0px" y="0px" viewBox="0 0 77.3 31.7"
	 style="enable-background:new 0 0 77.3 31.7;" xml:space="preserve">
<style type="text/css">
	.st0{fill:#66A555;}
	.st1{fill:#D4D680;}
	.st2{fill:#B2B25B;}
</style>
<g>
	<g>
		<g>
			<path class="st0" d="M77.2,25.7l0.1-2.8c0-0.4-0.2-1.1-0.4-1.4c-0.9-1.4-4.5-5.1-16-6.2c-6.2-0.6-9.9,0-12.1,0.9
				c-3,1.2-3.8,6.2-3.8,6.2L77.2,25.7z"/>
			<path class="st1" d="M45.2,22.6c0.2-3.1,6.3-4.9,15-4.1c8.8,0.8,17,4.1,16.7,7.2c-0.2,3.1-6.1,6.1-14.9,5.3
				C53.3,30.1,45,25.7,45.2,22.6z"/>
			<path class="st0" d="M52.6,18.3c2.2-0.3,4.8-0.3,7.7,0c8.4,0.8,17.2,4,16.9,7.4c-0.1,0.9-0.6,1.9-1.6,2.7
				c-2.1,1.8-6.8,3.4-13.6,2.8c-8.5-0.8-17.3-5.2-17.1-8.6l0,0c0.1-0.8,0.5-1.5,1.2-2.2C47.5,19.4,49.8,18.6,52.6,18.3z M68,30.7
				c3.5-0.4,6-1.5,7.3-2.6c0.9-0.7,1.4-1.6,1.4-2.4c0.2-2.8-7.7-6.1-16.5-6.9c-6.2-0.6-11.5,0.2-13.7,2c-0.6,0.5-1,1.2-1,1.8
				c-0.2,2.8,7.9,7.2,16.7,8.1C64.3,30.9,66.2,30.9,68,30.7z"/>
		</g>
		<g>
			<path class="st2" d="M72.3,24.9c0.5,0.4-0.3,1.4-0.8,1.7c-0.6,0.4-1.2,0.4-1.9,0.6c-0.9,0.2-1.4,1.1-2.2,1.4
				c-0.8,0.3-1.1-0.2-1.7-0.3c-0.9-0.2-1.9,0.3-2.9,0c-0.9-0.2-1.3-0.8-2.3-0.7c-0.9,0.1-1.8,0.2-2.7,0.3c-0.5,0.1-1.3,0.3-1.8,0.2
				c-0.9-0.2-0.9-1.3-1.6-1.7c-0.4-0.2-1-0.2-1.5-0.4c-0.7-0.2-0.8-0.3-1.2-0.9c-0.2-0.4-0.5-0.7-0.9-0.9s-0.8,0-1.2-0.2
				c-0.5-0.2-0.6-1-0.5-1.6c0.2-1.1,1.3-1,2.2-1.3c0.8-0.3,1.3-0.6,2.2-0.7c0.6,0,1.2,0,1.8,0.2c0.4,0.1,0.9,0.4,1.4,0.5
				c0.8,0.1,1.7-0.4,2.5-0.2c0.5,0.1,0.6,0.6,1,0.8s0.8,0.1,1.3,0.1c0.5-0.1,1.1-0.2,1.5-0.1c0.7,0.2,1.4,0.7,2,1
				c0.7,0.5,1.6,0.3,2.5,0.2c1.1-0.1,2-0.1,2.9,0.4c0.4,0.2,0.6,0.5,1,0.8C71.7,24.3,72.1,24.4,72.3,24.9z"/>
			<g>
				<path class="st1" d="M65.5,26.9C65.6,26.9,65.6,26.9,65.5,26.9c0.1,0.1,0.1,0.1,0.1,0.1l0.1,0.1c0,0,0,0,0.1,0c0,0,0,0,0.1,0
					l0,0l0,0V27l0,0l0,0l0,0c0,0,0,0-0.1-0.1c0,0,0,0,0-0.1l0,0l0,0l0,0c0,0,0,0-0.1,0c0,0,0,0-0.1,0C65.6,26.8,65.5,26.8,65.5,26.9
					C65.5,26.8,65.5,26.8,65.5,26.9z"/>
				<path class="st1" d="M63.4,27.2C63.4,27.3,63.4,27.3,63.4,27.2c0.1,0,0.2,0,0.2,0l0,0c0,0,0,0,0-0.1s0-0.2,0-0.2v-0.1h-0.1h-0.1
					l0,0c0,0,0,0,0,0.1C63.3,27,63.3,27.1,63.4,27.2C63.3,27.2,63.3,27.2,63.4,27.2z"/>
				<path class="st1" d="M64.2,27.6L64.2,27.6C64.3,27.6,64.3,27.6,64.2,27.6c0.1,0.1,0.1,0.1,0.1,0.1s0,0,0.1,0l0,0c0,0,0,0,0-0.1
					l0,0c0,0,0,0,0-0.1v-0.1l0,0l0,0c0,0,0,0-0.1,0c0,0,0,0-0.1,0l0,0c0,0,0,0,0,0.1l0,0C64.2,27.5,64.2,27.5,64.2,27.6
					C64.2,27.5,64.2,27.5,64.2,27.6z"/>
				<path class="st1" d="M60.9,26.8L60.9,26.8C61,26.8,61,26.8,60.9,26.8c0.1,0.1,0.1,0.1,0.1,0.1s0,0,0.1,0l0.1-0.1v-0.1
					c0,0,0,0,0-0.1l0,0l0,0l0,0l0,0c0,0,0,0-0.1,0L61,26.7C60.9,26.6,60.9,26.6,60.9,26.8C60.9,26.7,60.9,26.7,60.9,26.8L60.9,26.8z
					"/>
				<path class="st1" d="M58.9,26.9L58.9,26.9c0,0-0.1,0.1,0,0.1v0.1H59h0.1c0,0,0,0,0.1-0.1v-0.1c0,0,0,0,0-0.1v-0.1v-0.1h-0.1H59
					C59,26.7,58.9,26.8,58.9,26.9C58.9,26.8,58.9,26.8,58.9,26.9C58.9,26.8,58.9,26.8,58.9,26.9L58.9,26.9z"/>
				<path class="st1" d="M57.3,26.6C57.3,26.7,57.3,26.7,57.3,26.6c0.1,0.1,0.1,0.1,0.2,0.1c0,0,0.1,0,0.1-0.1c0,0,0-0.1,0.1-0.1
					l0.1-0.1l0,0l0.1-0.1v-0.1c0,0,0,0-0.1-0.1h-0.1c-0.1,0.1-0.2,0.2-0.2,0.3C57.3,26.5,57.3,26.6,57.3,26.6L57.3,26.6z"/>
				<path class="st1" d="M54.9,25.9C55,26,55,26,54.9,25.9c0.1,0.1,0.2,0,0.2,0s0,0,0.1,0h0.1h0.1h0.1v-0.1v-0.1h-0.1
					c-0.1,0-0.1,0-0.2,0s-0.1,0.1-0.2,0.1S54.9,25.8,54.9,25.9L54.9,25.9z"/>
				<path class="st1" d="M53,24.9c0.1,0,0.3,0,0.4-0.1c0.1,0,0.1-0.1,0.1-0.1c0-0.1-0.1-0.1-0.1-0.1c-0.1,0-0.3,0-0.4,0.1
					c-0.1,0-0.1,0.1-0.1,0.1C52.8,24.9,52.9,24.9,53,24.9z"/>
				<path class="st1" d="M52.7,24.1C52.8,24.1,52.8,24.1,52.7,24.1c0.2,0.1,0.2,0.1,0.3,0.1c0,0,0,0,0.1,0c0,0,0,0,0.1,0l0.1-0.1V24
					c0,0,0,0-0.1-0.1c-0.1,0-0.1,0-0.2,0c0,0,0,0-0.1,0c0,0,0,0-0.1,0C52.8,23.9,52.7,23.9,52.7,24.1C52.7,24,52.7,24.1,52.7,24.1z"
					/>
				<path class="st1" d="M52.1,22.5c0.1,0.1,0.3,0.2,0.5,0.2c0.1,0,0.2,0,0.2-0.1s0-0.1-0.1-0.2c0,0,0,0-0.1,0s-0.2-0.1-0.2-0.1
					s0,0-0.1,0s-0.1,0-0.2,0C52,22.4,52,22.5,52.1,22.5z"/>
				<path class="st1" d="M54.6,21.4c0,0.1,0,0.2,0.1,0.3c0,0,0,0.1,0.1,0.1h0.1c0.1,0,0.1-0.1,0.1-0.2c0-0.1,0-0.2-0.1-0.3
					c0,0,0-0.1-0.1-0.1h-0.1C54.6,21.3,54.6,21.4,54.6,21.4z"/>
				<path class="st1" d="M55.6,22C55.6,22.1,55.6,22.1,55.6,22c0.1,0,0.2,0,0.2,0v-0.1v-0.2v-0.1h-0.1h-0.1v0.1V22
					C55.5,22,55.6,22,55.6,22z"/>
				<path class="st1" d="M58.1,22.4L58.1,22.4c0.2,0,0.2,0,0.2-0.1V22v-0.1h-0.1c-0.1,0-0.1,0.1-0.1,0.1V22.4
					C58,22.3,58,22.3,58.1,22.4z"/>
				<path class="st1" d="M58.7,22.5L58.7,22.5C58.8,22.5,58.8,22.5,58.7,22.5c0.1,0.1,0.1,0.1,0.1,0.1l0,0c0,0,0,0,0.1,0v-0.1v-0.1
					l0,0l0,0l0,0c0,0,0,0-0.1,0l0,0c0,0,0,0-0.1,0V22.5L58.7,22.5C58.7,22.4,58.7,22.5,58.7,22.5z"/>
				<path class="st1" d="M61.6,23c0.1,0,0.1-0.1,0.1-0.1v-0.1c0-0.1,0-0.1,0.1-0.2l0,0v-0.1c0,0,0-0.1-0.1-0.1h-0.1
					c0,0-0.1,0-0.1,0.1s-0.1,0.1-0.1,0.2c0,0.1,0,0.1,0,0.2C61.5,23,61.6,23,61.6,23z"/>
				<path class="st1" d="M63.1,23.6L63.1,23.6c0.1,0.1,0.2,0.1,0.2,0c0.1-0.2,0.3-0.4,0.4-0.6v-0.1c0,0,0-0.1-0.1-0.1
					s-0.1,0-0.2,0.1c-0.1,0.2-0.3,0.4-0.4,0.6C63.1,23.5,63.1,23.5,63.1,23.6z"/>
				<path class="st1" d="M64.6,24.2L64.6,24.2c0.1,0.1,0.1,0.1,0.2,0.1l0,0c0,0,0,0,0-0.1c0.1-0.1,0.1-0.2,0.2-0.3v-0.1
					c0,0,0-0.1-0.1-0.1h-0.1l0,0c0,0,0,0,0,0.1c-0.1,0.1-0.1,0.2-0.2,0.3C64.6,24.1,64.6,24.1,64.6,24.2z"/>
				<path class="st1" d="M65.1,24.4C65.1,24.4,65.1,24.5,65.1,24.4c0.1,0.1,0.1,0.1,0.2,0.1s0.2-0.1,0.2-0.1l0,0l0,0v-0.1
					c0,0,0-0.1-0.1-0.1h-0.1c-0.1,0-0.2,0.1-0.2,0.1l0,0l0,0C65.1,24.3,65,24.4,65.1,24.4z"/>
				<path class="st1" d="M68.6,24.8c0.3,0,0.6-0.1,0.8-0.1c0.1,0,0.1-0.1,0.1-0.1c0-0.1-0.1-0.1-0.1-0.1c-0.3,0-0.6,0.1-0.8,0.1
					c-0.1,0-0.1,0.1-0.1,0.1C68.5,24.8,68.5,24.9,68.6,24.8z"/>
				<path class="st1" d="M68.6,25.3h0.3H69v-0.1c0-0.1-0.1-0.1-0.1-0.1h-0.3h-0.1v0.1C68.5,25.3,68.6,25.3,68.6,25.3z"/>
				<path class="st1" d="M67.3,26.3c0.1,0.1,0.1,0.1,0.2,0.2h0.1h0.1v-0.1v-0.1c-0.1-0.1-0.1-0.1-0.2-0.2h-0.1h-0.1
					C67.3,26.2,67.3,26.2,67.3,26.3L67.3,26.3z"/>
				<path class="st1" d="M66.1,25L66.1,25C66.1,25.1,66.1,25.1,66.1,25c0.1,0.1,0.1,0.1,0.1,0.1s0,0,0.1,0c0,0,0.1,0,0.1-0.1l0,0
					l0,0c0,0,0,0,0-0.1l0,0l0,0c0,0,0,0-0.1,0l0,0c0,0,0,0-0.1,0C66.2,24.9,66.1,24.9,66.1,25L66.1,25C66.1,24.9,66.1,24.9,66.1,25
					C66,24.9,66,25,66.1,25L66.1,25z"/>
				<path class="st1" d="M62.3,26.6C62.3,26.6,62.3,26.7,62.3,26.6C62.3,26.7,62.3,26.7,62.3,26.6L62.3,26.6
					c0.1,0.1,0.1,0.1,0.2,0.1l0,0c0,0,0,0,0-0.1l0.1-0.1c0,0,0,0,0-0.1c0,0,0,0,0-0.1l0,0l0,0l0,0c0,0,0,0-0.1,0l0,0c0,0,0,0,0,0.1
					l-0.1,0.1C62.3,26.5,62.3,26.6,62.3,26.6L62.3,26.6z"/>
				<path class="st1" d="M59.4,26.7C59.4,26.7,59.5,26.7,59.4,26.7c0.1,0,0.2,0,0.2,0v-0.1v-0.2v-0.1h-0.1h-0.1v0.1V26.7L59.4,26.7z
					"/>
			</g>
		</g>
	</g>
	<g>
		<g>
			<path class="st0" d="M37.5,19.2l-0.9-3.1c-0.1-0.4-0.6-1.2-0.9-1.4c-1.5-1.2-6.9-4.1-20.2-1.3c-7.1,1.5-11.1,3.5-13.3,5.3
				c-3,2.4-2.1,8.4-2.1,8.4L37.5,19.2z"/>
			<path class="st1" d="M0.5,27.2c-0.8-3.5,5.3-7.8,15.4-9.9c10.1-2.2,20.5-1.4,21.3,2.1s-4.7,9-14.8,11.2
				C12.3,32.7,1.4,30.7,0.5,27.2z"/>
			<path class="st0" d="M7.3,19.7c2.4-1.1,5.3-2,8.6-2.7c9.7-2.1,20.7-1.7,21.6,2.2c0.3,1.1,0,2.3-0.9,3.6c-1.7,2.7-6.4,6.3-14.2,8
				c-9.9,2.1-21.3,0.3-22.2-3.5l0,0c-0.2-0.9,0-1.9,0.6-2.9C2,22.7,4.2,21.1,7.3,19.7z M28.9,28.2c3.8-1.7,6.2-3.8,7.3-5.6
				c0.7-1.1,1-2.2,0.8-3.2c-0.8-3.2-10.8-4.1-21-1.9C8.8,19,3.2,21.8,1.4,24.7c-0.5,0.8-0.7,1.6-0.5,2.4c0.8,3.2,11.4,5.3,21.6,3.1
				C24.9,29.7,27.1,29,28.9,28.2z"/>
		</g>
		<g>
			<path class="st2" d="M31.7,20.1c0.7,0.3,0.1,1.7-0.3,2.2c-0.5,0.6-1.2,0.9-1.9,1.3c-0.9,0.5-1.2,1.7-2,2.4
				c-0.7,0.6-1.3,0.2-2,0.2c-1.1,0.1-2.1,1-3.2,1c-1.1,0.1-1.7-0.4-2.8,0c-1,0.4-1.9,0.9-2.9,1.3c-0.5,0.2-1.3,0.8-1.9,0.9
				c-1.1,0.1-1.4-1.1-2.4-1.3c-0.5-0.1-1.2,0.1-1.8,0.1c-0.8,0-1-0.1-1.6-0.6c-0.4-0.3-0.8-0.6-1.3-0.7c-0.5-0.1-1,0.2-1.4,0.2
				c-0.6-0.1-1-1-1.1-1.6c-0.1-1.3,1.1-1.6,2-2.3c0.8-0.6,1.3-1.2,2.2-1.6c0.7-0.3,1.3-0.4,2-0.5c0.5,0,1.2,0.2,1.7,0.1
				c0.9-0.2,1.8-1.1,2.7-1.2c0.6,0,0.9,0.4,1.4,0.6c0.5,0.1,0.9-0.1,1.5-0.4c0.5-0.2,1.1-0.6,1.7-0.6c0.9-0.1,1.8,0.2,2.6,0.5
				c1,0.3,1.9-0.2,2.9-0.6c1.2-0.5,2.2-0.8,3.4-0.6c0.6,0.1,0.9,0.4,1.4,0.6C30.8,19.7,31.3,19.6,31.7,20.1z"/>
			<g>
				<path class="st1" d="M24.8,24.7C24.9,24.7,24.9,24.8,24.8,24.7c0.1,0.1,0.1,0.1,0.2,0.1c0.1,0,0.1,0,0.2,0.1c0,0,0,0,0.1,0
					c0,0,0,0,0.1,0l0,0c0,0,0,0,0-0.1v-0.1l0,0c0,0,0,0-0.1,0l0,0h-0.1c0,0-0.1,0-0.1-0.1l0,0l0,0c0,0,0,0-0.1,0c0,0,0,0-0.1,0
					c0,0,0,0-0.1,0l-0.1,0.1C24.8,24.6,24.8,24.7,24.8,24.7z"/>
				<path class="st1" d="M22.5,25.9h0.1c0,0,0.1,0,0.1-0.1l0,0v-0.1c0-0.1,0-0.2-0.1-0.3c0,0,0-0.1-0.1-0.1h-0.1c0,0-0.1,0-0.1,0.1
					l0,0v0.1C22.4,25.7,22.4,25.8,22.5,25.9L22.5,25.9z"/>
				<path class="st1" d="M23.6,26L23.6,26C23.7,26,23.7,26,23.6,26c0.1,0.1,0.1,0.1,0.2,0c0,0,0,0,0.1,0l0,0c0,0,0,0,0-0.1l0,0v-0.1
					l-0.1-0.1l0,0c0,0,0,0-0.1,0c0,0,0,0-0.1,0c0,0,0,0-0.1,0l0,0c0,0,0,0,0,0.1l0,0v0.1C23.6,25.9,23.6,25.9,23.6,26z"/>
				<path class="st1" d="M19.6,26.3C19.6,26.3,19.7,26.3,19.6,26.3c0.1,0,0.1,0,0.1,0l0,0c0,0,0,0,0.1-0.1v-0.1c0-0.1,0-0.1,0-0.2
					c0,0,0,0,0-0.1l0,0c0,0,0,0-0.1,0c0,0,0,0-0.1,0l0,0c0,0,0,0-0.1,0.1V26c0,0.1,0,0.1,0,0.2C19.6,26.2,19.6,26.2,19.6,26.3
					L19.6,26.3z"/>
				<path class="st1" d="M17.4,27.1L17.4,27.1c0,0.1,0,0.1,0,0.1s0,0.1,0.1,0.1h0.1c0,0,0.1,0,0.1-0.1v-0.1V27c0,0,0,0,0-0.1v-0.1
					c0,0,0-0.1-0.1-0.1h-0.1c0,0-0.1,0-0.1,0.1v0.1C17.4,27,17.4,27,17.4,27.1C17.4,27,17.4,27.1,17.4,27.1L17.4,27.1z"/>
				<path class="st1" d="M15.5,27.4C15.5,27.4,15.6,27.5,15.5,27.4c0.1,0.1,0.2,0.1,0.2,0l0.1-0.1v-0.1c0,0,0-0.1,0.1-0.1l0,0V27
					c0,0,0-0.1-0.1-0.1h-0.1c0,0-0.1,0-0.1,0.1c-0.1,0.1-0.2,0.3-0.2,0.4C15.5,27.3,15.5,27.3,15.5,27.4L15.5,27.4z"/>
				<path class="st1" d="M12.6,27.5h0.1c0,0,0.1,0,0.1-0.1c0,0,0-0.1,0.1-0.1c0,0,0.1,0,0.1-0.1h0.1l0.1-0.1V27c0,0,0-0.1-0.1-0.1
					H13c-0.1,0-0.1,0.1-0.2,0.1c-0.1,0-0.1,0.1-0.2,0.2v0.1C12.6,27.4,12.6,27.5,12.6,27.5z"/>
				<path class="st1" d="M10,27c0.1-0.1,0.3-0.1,0.4-0.2c0.1,0,0.1-0.1,0.1-0.2c0-0.1-0.1-0.1-0.2-0.1c-0.1,0.1-0.3,0.1-0.4,0.2
					c-0.1,0-0.1,0.1-0.1,0.2C9.9,27,10,27.1,10,27z"/>
				<path class="st1" d="M9.5,26.2h0.1c0.1,0,0.2,0,0.2-0.1c0,0,0,0,0.1,0l0,0V26c0,0,0-0.1-0.1-0.1H9.7c-0.1,0-0.2,0-0.2,0.1
					c0,0,0,0-0.1,0l0,0v0.1C9.4,26.1,9.5,26.1,9.5,26.2z"/>
				<path class="st1" d="M8.2,24.6c0.2,0.1,0.4,0.1,0.6,0.1c0.1,0,0.2-0.1,0.1-0.2c0-0.1-0.1-0.1-0.2-0.1c0,0,0,0-0.1,0
					s-0.2,0-0.3,0H8.2c-0.1,0-0.2,0-0.2,0.1C8.1,24.5,8.1,24.6,8.2,24.6z"/>
				<path class="st1" d="M10.6,22.6c0.1,0.1,0.1,0.2,0.2,0.3l0.1,0.1H11c0.1-0.1,0.1-0.2,0-0.2c-0.1-0.1-0.1-0.2-0.2-0.3l-0.1-0.1
					h-0.1C10.6,22.4,10.6,22.5,10.6,22.6z"/>
				<path class="st1" d="M11.9,22.9H12c0,0,0.1,0,0.1-0.1v-0.1L12,22.4c0,0,0-0.1-0.1-0.1h-0.1c0,0-0.1,0-0.1,0.1v0.1L11.9,22.9
					C11.9,22.8,11.9,22.8,11.9,22.9z"/>
				<path class="st1" d="M14.8,22.3h0.1c0.1,0,0.1-0.1,0.1-0.2l-0.1-0.3c0,0,0-0.1-0.1-0.1h-0.1c-0.1,0-0.1,0.1-0.1,0.2L14.8,22.3
					L14.8,22.3z"/>
				<path class="st1" d="M15.6,22.2C15.6,22.3,15.7,22.3,15.6,22.2c0.1,0,0.1,0,0.1,0s0,0,0.1,0l0,0c0,0,0,0,0.1-0.1V22l-0.1-0.2
					c0,0,0,0,0-0.1l0,0c0,0,0,0-0.1,0c0,0,0,0-0.1,0l0,0c0,0,0,0-0.1,0.1v0.1L15.6,22.2L15.6,22.2z"/>
				<path class="st1" d="M19.1,21.8c0.1,0,0.1-0.1,0.1-0.2v-0.1c0-0.1,0-0.2,0-0.3l0,0v-0.1L19.1,21H19l-0.1,0.1c0,0.1,0,0.2,0,0.3
					s0,0.2,0.1,0.3C18.9,21.8,19,21.8,19.1,21.8z"/>
				<path class="st1" d="M20.9,21.9C20.9,22,21,22,20.9,21.9c0.2,0.1,0.3,0,0.3-0.1c0.1-0.3,0.2-0.5,0.2-0.8v-0.1l-0.1-0.1
					c-0.1,0-0.2,0.1-0.2,0.1c-0.1,0.3-0.2,0.5-0.2,0.8C20.9,21.8,20.9,21.9,20.9,21.9z"/>
				<path class="st1" d="M22.8,22.1L22.8,22.1c0.1,0.1,0.2,0.1,0.2,0l0,0c0,0,0,0,0-0.1s0.1-0.3,0.1-0.4v-0.1L23,21.4h-0.1l0,0
					c0,0,0,0,0,0.1s-0.1,0.3-0.1,0.4C22.8,22,22.8,22,22.8,22.1z"/>
				<path class="st1" d="M23.4,22.1C23.4,22.2,23.5,22.2,23.4,22.1c0.1,0.1,0.2,0.1,0.2,0c0.1-0.1,0.1-0.1,0.2-0.2l0,0
					c0,0,0,0,0-0.1v-0.1l-0.1-0.1h-0.1c-0.1,0.1-0.1,0.1-0.2,0.2l0,0c0,0,0,0,0,0.1C23.4,22.1,23.4,22.1,23.4,22.1z"/>
				<path class="st1" d="M27.5,21.4c0.3-0.1,0.6-0.3,0.9-0.4c0.1,0,0.1-0.1,0.1-0.2c0-0.1-0.1-0.1-0.2-0.1c-0.3,0.1-0.6,0.3-0.9,0.4
					c-0.1,0-0.1,0.1-0.1,0.2C27.4,21.4,27.4,21.4,27.5,21.4z"/>
				<path class="st1" d="M27.8,21.9l0.4-0.1l0.1-0.1v-0.1c0-0.1-0.1-0.1-0.2-0.1l-0.4,0.1l-0.1,0.1v0.1
					C27.6,21.9,27.7,21.9,27.8,21.9z"/>
				<path class="st1" d="M26.7,23.5c0.1,0,0.2,0.1,0.3,0.1h0.1l0.1-0.1v-0.1c0,0,0-0.1-0.1-0.1s-0.2-0.1-0.3-0.1h-0.1l-0.1,0.1
					C26.6,23.3,26.6,23.4,26.7,23.5C26.6,23.4,26.6,23.5,26.7,23.5z"/>
				<path class="st1" d="M24.8,22.5L24.8,22.5c0.1,0,0.1,0,0.1,0l0,0c0,0,0,0,0.1-0.1c0,0,0-0.1,0.1-0.1c0,0,0,0,0-0.1
					c0,0,0,0,0-0.1c0,0,0,0,0-0.1l0,0l0,0H25l0,0c0,0,0,0-0.1,0.1c0,0,0,0.1-0.1,0.1c0,0,0,0,0,0.1c0,0,0,0,0,0.1
					C24.7,22.4,24.7,22.4,24.8,22.5C24.7,22.5,24.8,22.5,24.8,22.5z"/>
				<path class="st1" d="M21.1,25.6C21.1,25.6,21.1,25.7,21.1,25.6C21.2,25.7,21.2,25.7,21.1,25.6l0.1,0.1h0.1l0,0c0,0,0,0,0-0.1
					v-0.1c0,0,0,0,0-0.1c0,0,0,0,0-0.1l0,0c0,0,0,0-0.1,0l0,0h-0.1l0,0c0,0,0,0,0,0.1v0.1C21.1,25.5,21.1,25.5,21.1,25.6L21.1,25.6z
					"/>
				<path class="st1" d="M17.9,26.7H18c0,0,0.1,0,0.1-0.1v-0.1L18,26.3c0,0,0-0.1-0.1-0.1h-0.1c0,0-0.1,0-0.1,0.1v0.1L17.9,26.7
					C17.8,26.7,17.9,26.7,17.9,26.7z"/>
			</g>
		</g>
	</g>
	<g>
		<g>
			<path class="st0" d="M64.3,7.3l-0.4-2.7c0-0.4-0.4-1.1-0.6-1.3c-1.2-1.2-5.4-4.2-16.9-3.1c-6.2,0.6-9.7,1.9-11.8,3.1
				C31.8,5,32,10.1,32,10.1L64.3,7.3z"/>
			<path class="st1" d="M32.3,10.3c-0.4-3,5.2-6,14-6.8c8.8-0.8,17.4,0.9,17.8,3.9c0.4,3-4.9,7.2-13.6,8
				C41.6,16.1,32.6,13.3,32.3,10.3z"/>
			<path class="st0" d="M38.7,4.7c2.1-0.7,4.7-1.2,7.5-1.4c8.4-0.8,17.6,0.7,18,4.1c0.1,0.9-0.3,2-1.1,3c-1.7,2.1-6,4.6-12.8,5.3
				c-8.5,0.8-18-1.9-18.4-5.2l0,0c-0.1-0.8,0.2-1.6,0.8-2.4C33.9,6.7,36,5.5,38.7,4.7z M56.1,14c3.4-1,5.6-2.6,6.7-4
				c0.7-0.9,1.1-1.8,1-2.6c-0.3-2.8-8.7-4.5-17.6-3.7C40,4.3,35,6,33.1,8.3c-0.5,0.7-0.8,1.3-0.7,2c0.3,2.8,9.1,5.6,17.9,4.8
				C52.6,14.9,54.5,14.5,56.1,14z"/>
		</g>
		<g>
			<path class="st2" d="M59.3,7.4c0.6,0.3-0.1,1.5-0.5,1.8c-0.5,0.5-1.1,0.7-1.7,0.9c-0.8,0.4-1.2,1.3-1.9,1.8c-0.7,0.4-1.1,0-1.7,0
				c-0.9,0-1.8,0.6-2.8,0.5c-0.9-0.1-1.4-0.5-2.4-0.2c-0.9,0.2-1.7,0.5-2.6,0.8c-0.5,0.1-1.2,0.5-1.7,0.5c-0.9,0-1.1-1.1-1.9-1.3
				c-0.5-0.1-1,0-1.5-0.1c-0.7,0-0.8-0.2-1.3-0.7c-0.3-0.3-0.6-0.6-1-0.7c-0.4-0.1-0.8,0.1-1.2,0c-0.5-0.1-0.8-0.9-0.8-1.5
				c0-1.1,1.1-1.2,1.9-1.7c0.7-0.4,1.2-0.9,2-1.1c0.6-0.2,1.1-0.2,1.8-0.2c0.5,0,1,0.3,1.4,0.2c0.8-0.1,1.6-0.8,2.4-0.7
				c0.5,0,0.7,0.5,1.1,0.6c0.4,0.2,0.8,0,1.3-0.2c0.5-0.1,1-0.4,1.5-0.4c0.7,0,1.5,0.4,2.1,0.7c0.8,0.4,1.6,0,2.5-0.2
				c1-0.3,1.9-0.5,2.9-0.2c0.5,0.1,0.7,0.4,1.1,0.6C58.6,7,59,7,59.3,7.4z"/>
			<g>
				<path class="st1" d="M53.1,10.6C53.1,10.7,53.1,10.7,53.1,10.6c0.1,0.1,0.1,0.1,0.1,0.1s0.1,0,0.1,0.1c0,0,0,0,0.1,0
					c0,0,0,0,0.1,0l0,0l0,0v-0.1l0,0c0,0,0,0-0.1,0l0,0c0,0,0,0-0.1,0c0,0,0,0-0.1-0.1l0,0l0,0l0,0C53.2,10.6,53.2,10.6,53.1,10.6
					c0,0,0,0-0.1,0c0,0-0.1,0-0.1,0.1C53,10.6,53,10.6,53.1,10.6z"/>
				<path class="st1" d="M51,11.4h0.1c0,0,0.1,0,0.1-0.1l0,0c0,0,0,0,0-0.1s0-0.2,0-0.2s0-0.1-0.1-0.1H51c0,0-0.1,0-0.1,0.1l0,0
					c0,0,0,0,0,0.1C50.9,11.2,50.9,11.3,51,11.4C50.9,11.4,50.9,11.4,51,11.4z"/>
				<path class="st1" d="M51.9,11.6L51.9,11.6L51.9,11.6c0.1,0.1,0.1,0.1,0.1,0.1s0,0,0.1,0l0,0c0,0,0,0,0-0.1l0,0c0,0,0,0,0-0.1
					v-0.1l0,0l0,0c0,0,0,0-0.1,0c0,0,0,0-0.1,0l0,0c0,0,0,0,0,0.1l0,0C51.9,11.5,51.9,11.5,51.9,11.6C51.9,11.5,51.9,11.5,51.9,11.6
					z"/>
				<path class="st1" d="M48.5,11.4C48.5,11.5,48.5,11.5,48.5,11.4C48.5,11.5,48.6,11.5,48.5,11.4c0.1,0,0.1,0,0.1,0s0,0,0.1,0v-0.1
					c0-0.1,0-0.1,0-0.2c0,0,0,0,0-0.1l0,0l0,0l0,0l0,0c0,0,0,0-0.1,0v0.1C48.5,11.3,48.5,11.3,48.5,11.4
					C48.4,11.4,48.5,11.4,48.5,11.4L48.5,11.4z"/>
				<path class="st1" d="M46.5,11.9L46.5,11.9V12c0,0,0,0.1,0.1,0.1h0.1c0,0,0.1,0,0.1-0.1v-0.1v-0.1c0,0,0,0,0-0.1v-0.1
					c0,0,0-0.1-0.1-0.1h-0.1c0,0-0.1,0-0.1,0.1v0.1C46.6,11.8,46.6,11.8,46.5,11.9C46.6,11.9,46.6,11.9,46.5,11.9
					C46.6,11.9,46.6,11.9,46.5,11.9z"/>
				<path class="st1" d="M44.9,12L44.9,12c0.1,0.1,0.1,0.1,0.2,0c0,0,0.1,0,0.1-0.1v-0.1c0,0,0-0.1,0.1-0.1l0,0v-0.1v-0.1h-0.1h-0.1
					c-0.1,0.1-0.2,0.2-0.2,0.3C44.9,11.9,44.9,11.9,44.9,12C44.9,11.9,44.9,12,44.9,12z"/>
				<path class="st1" d="M42.5,11.7C42.5,11.8,42.5,11.8,42.5,11.7c0.1,0,0.2,0,0.2,0s0,0,0.1-0.1c0,0,0.1,0,0.1-0.1H43
					c0,0,0.1,0,0.1-0.1v-0.1c0,0,0-0.1-0.1-0.1h-0.1c-0.1,0-0.1,0-0.2,0.1c-0.1,0-0.1,0.1-0.2,0.1C42.4,11.6,42.4,11.6,42.5,11.7
					C42.4,11.7,42.4,11.7,42.5,11.7z"/>
				<path class="st1" d="M40.3,11.1c0.1,0,0.3-0.1,0.4-0.1c0.1,0,0.1-0.1,0.1-0.2c0-0.1-0.1-0.1-0.2-0.1c-0.1,0-0.3,0.1-0.4,0.1
					c-0.1,0-0.1,0.1-0.1,0.2C40.2,11.1,40.2,11.1,40.3,11.1z"/>
				<path class="st1" d="M39.9,10.3C40,10.3,40,10.4,39.9,10.3c0.2,0,0.2,0,0.3,0c0,0,0,0,0.1,0l0,0v-0.1v-0.1h-0.1
					c-0.1,0-0.1,0-0.2,0c0,0,0,0-0.1,0l0,0C39.9,10.1,39.9,10.2,39.9,10.3L39.9,10.3z"/>
				<path class="st1" d="M39,8.9C39.2,9,39.3,9,39.5,9c0.1,0,0.1-0.1,0.1-0.1c0-0.1-0.1-0.1-0.1-0.1s0,0-0.1,0s-0.2,0-0.3-0.1H39
					c-0.1,0-0.1,0-0.2,0.1C38.9,8.8,38.9,8.9,39,8.9z"/>
				<path class="st1" d="M41.3,7.4c0,0.1,0.1,0.2,0.1,0.3c0,0,0,0.1,0.1,0.1h0.1c0.1,0,0.1-0.1,0.1-0.2c0-0.1-0.1-0.2-0.1-0.3
					c0,0,0-0.1-0.1-0.1h-0.1C41.3,7.2,41.2,7.3,41.3,7.4z"/>
				<path class="st1" d="M42.4,7.8h0.1c0,0,0.1,0,0.1-0.1V7.6l-0.1-0.2c0,0,0-0.1-0.1-0.1h-0.1c0,0-0.1,0-0.1,0.1v0.1L42.4,7.8
					C42.3,7.7,42.3,7.8,42.4,7.8z"/>
				<path class="st1" d="M44.9,7.6H45c0.1,0,0.1-0.1,0.1-0.2L45,7.1c0,0,0-0.1-0.1-0.1h-0.1c-0.1,0-0.1,0.1-0.1,0.2L44.9,7.6
					C44.8,7.6,44.8,7.6,44.9,7.6z"/>
				<path class="st1" d="M45.5,7.6L45.5,7.6C45.6,7.7,45.6,7.7,45.5,7.6c0.1,0,0.1,0,0.1,0l0,0c0,0,0,0,0.1-0.1V7.4V7.3l0,0l0,0l0,0
					c0,0,0,0-0.1,0l0,0c0,0,0,0-0.1,0.1v0.1V7.6L45.5,7.6z"/>
				<path class="st1" d="M48.5,7.6c0.1,0,0.1-0.1,0.1-0.2V7.3c0-0.1,0-0.1,0-0.2l0,0V7c0,0,0-0.1-0.1-0.1h-0.1c0,0-0.1,0-0.1,0.1
					s0,0.2,0,0.2c0,0.1,0,0.2,0,0.2C48.4,7.6,48.4,7.6,48.5,7.6z"/>
				<path class="st1" d="M50,7.9L50,7.9c0.2,0.1,0.2,0,0.2,0c0.1-0.2,0.2-0.4,0.3-0.6V7.2c0,0,0-0.1-0.1-0.1s-0.1,0-0.2,0.1
					c-0.1,0.2-0.2,0.4-0.3,0.6C50,7.8,50,7.9,50,7.9z"/>
				<path class="st1" d="M51.6,8.2L51.6,8.2c0.1,0.1,0.1,0.1,0.2,0l0,0c0,0,0,0,0-0.1s0.1-0.2,0.1-0.3V7.7c0,0,0-0.1-0.1-0.1h-0.1
					l0,0c0,0,0,0,0,0.1S51.6,7.9,51.6,8C51.6,8.1,51.6,8.2,51.6,8.2z"/>
				<path class="st1" d="M52.1,8.3C52.1,8.4,52.2,8.4,52.1,8.3c0.1,0.1,0.1,0.1,0.2,0c0.1,0,0.1-0.1,0.2-0.1l0,0l0,0V8.1
					c0,0,0-0.1-0.1-0.1h-0.1c-0.1,0-0.1,0.1-0.2,0.1l0,0l0,0C52.1,8.3,52.1,8.3,52.1,8.3z"/>
				<path class="st1" d="M55.7,8.1C56,8,56.2,7.9,56.5,7.8c0.1,0,0.1-0.1,0.1-0.2c0-0.1-0.1-0.1-0.2-0.1c-0.3,0.1-0.5,0.2-0.8,0.3
					c-0.1,0-0.1,0.1-0.1,0.2C55.5,8.1,55.6,8.1,55.7,8.1z"/>
				<path class="st1" d="M55.8,8.6l0.3-0.1c0,0,0.1,0,0.1-0.1V8.3c0-0.1-0.1-0.1-0.2-0.1l-0.3,0.1c0,0-0.1,0-0.1,0.1v0.1
					C55.7,8.6,55.7,8.6,55.8,8.6z"/>
				<path class="st1" d="M54.7,9.8c0.1,0,0.2,0.1,0.2,0.1H55c0,0,0.1,0,0.1-0.1V9.7c0,0,0-0.1-0.1-0.1s-0.2-0.1-0.2-0.1h-0.1
					c0,0-0.1,0-0.1,0.1C54.7,9.6,54.7,9.7,54.7,9.8L54.7,9.8z"/>
				<path class="st1" d="M53.2,8.7L53.2,8.7C53.3,8.8,53.3,8.8,53.2,8.7c0.1,0,0.1,0,0.1,0s0,0,0.1,0c0,0,0,0,0.1-0.1l0,0
					c0,0,0,0,0-0.1c0,0,0,0,0-0.1l0,0l0,0c0,0,0,0-0.1,0l0,0c0,0,0,0-0.1,0c0,0,0,0-0.1,0.1l0,0C53.2,8.6,53.2,8.6,53.2,8.7
					L53.2,8.7L53.2,8.7z"/>
				<path class="st1" d="M49.8,11C49.8,11,49.8,11.1,49.8,11C49.8,11.1,49.9,11.1,49.8,11l0.1,0.1c0,0,0,0,0.1,0l0,0c0,0,0,0,0-0.1
					v-0.1c0,0,0,0,0-0.1c0,0,0,0,0-0.1l0,0l0,0l0,0c0,0,0,0-0.1,0l0,0c0,0,0,0,0,0.1v0.1C49.8,10.9,49.8,11,49.8,11L49.8,11z"/>
				<path class="st1" d="M47,11.6h0.1c0,0,0.1,0,0.1-0.1v-0.1v-0.2c0,0,0-0.1-0.1-0.1H47c0,0-0.1,0-0.1,0.1v0.1L47,11.6
					C46.9,11.6,47,11.6,47,11.6z"/>
			</g>
		</g>
	</g>
	<g>
		<g>
			<path class="st0" d="M26.5,8.8l-0.3-2.1c0-0.3-0.3-0.8-0.5-1c-0.9-0.9-4.1-3.2-12.9-2.4c-4.7,0.4-7.4,1.4-9,2.4
				c-2.1,1.3-2,5.2-2,5.2L26.5,8.8z"/>
			<path class="st1" d="M2,11.1C1.7,8.8,6,6.5,12.7,5.9c6.7-0.6,13.3,0.7,13.6,3s-3.7,5.5-10.4,6.1C9.1,15.6,2.3,13.4,2,11.1z"/>
			<path class="st0" d="M6.9,6.8c1.6-0.5,3.6-0.9,5.8-1.1c6.4-0.6,13.5,0.5,13.8,3.1c0.1,0.7-0.2,1.5-0.8,2.3
				c-1.3,1.6-4.6,3.6-9.8,4c-6.5,0.6-13.8-1.4-14.1-4l0,0c-0.1-0.6,0.1-1.2,0.6-1.8C3.2,8.3,4.8,7.4,6.9,6.8z M20.2,13.9
				c2.6-0.8,4.3-2,5.1-3c0.6-0.7,0.8-1.4,0.7-2c-0.3-2.1-6.7-3.5-13.4-2.8C7.8,6.5,4,7.9,2.6,9.6c-0.4,0.5-0.6,1-0.5,1.5
				c0.3,2.1,6.9,4.3,13.7,3.7C17.5,14.6,19,14.3,20.2,13.9z"/>
		</g>
		<g>
			<path class="st2" d="M22.7,8.9c0.4,0.2-0.1,1.1-0.3,1.4c-0.4,0.4-0.8,0.5-1.3,0.7c-0.6,0.3-0.9,1-1.5,1.4c-0.5,0.3-0.8,0-1.3,0
				c-0.7,0-1.4,0.5-2.1,0.4c-0.7,0-1.1-0.4-1.8-0.2s-1.3,0.4-2,0.6c-0.4,0.1-0.9,0.4-1.3,0.4c-0.7,0-0.8-0.9-1.5-1
				c-0.3-0.1-0.8,0-1.2-0.1c-0.5,0-0.6-0.1-1-0.5c-0.2-0.2-0.5-0.5-0.8-0.5c-0.3-0.1-0.6,0.1-0.9,0c-0.4-0.1-0.6-0.7-0.6-1.1
				c0-0.8,0.9-0.9,1.5-1.3c0.5-0.3,0.9-0.7,1.5-0.8C8.6,8.2,9,8.1,9.4,8.2c0.3,0,0.7,0.2,1.1,0.2c0.6,0,1.3-0.6,1.8-0.5
				c0.4,0,0.6,0.3,0.9,0.5c0.3,0.1,0.6,0,1-0.1S15,8,15.3,8c0.6,0,1.1,0.3,1.6,0.5c0.6,0.3,1.2,0,1.9-0.2c0.8-0.2,1.5-0.4,2.2-0.2
				c0.4,0.1,0.5,0.3,0.8,0.5C22.1,8.6,22.4,8.6,22.7,8.9z"/>
			<g>
				<path class="st1" d="M17.9,11.4L17.9,11.4L17.9,11.4c0.1,0.1,0.2,0.1,0.2,0.1l0,0l0,0l0,0l0,0v-0.1l0,0l0,0l0,0
					C18.1,11.4,18.1,11.4,17.9,11.4L17.9,11.4L17.9,11.4L17.9,11.4L17.9,11.4L17.9,11.4L17.9,11.4C17.9,11.2,17.9,11.2,17.9,11.4
					C17.9,11.3,17.8,11.3,17.9,11.4z"/>
				<path class="st1" d="M16.3,12L16.3,12c0.1,0,0.1,0,0.1,0l0,0c0,0,0,0,0-0.1s0-0.1,0-0.2c0,0,0,0,0-0.1h-0.1c0,0-0.1,0-0.1,0.1
					l0,0c0,0,0,0,0,0.1C16.2,11.8,16.2,11.8,16.3,12C16.2,11.9,16.3,11.9,16.3,12z"/>
				<path class="st1" d="M17,12.1L17,12.1L17,12.1C17,12.1,17.1,12.1,17,12.1c0.1,0,0.1,0,0.1,0l0,0l0,0l0,0c0,0,0,0,0-0.1v-0.1l0,0
					l0,0l0,0l0,0l0,0l0,0l0,0C16.9,11.9,16.9,12,17,12.1C16.9,12,17,12,17,12.1z"/>
				<path class="st1" d="M14.4,12L14.4,12L14.4,12C14.4,12,14.5,12,14.4,12c0.1,0,0.1,0,0.1,0s0,0,0-0.1v-0.1l0,0l0,0l0,0l0,0l0,0
					l0,0c0,0,0,0,0,0.1C14.4,11.8,14.3,11.9,14.4,12C14.3,11.9,14.3,11.9,14.4,12C14.4,11.9,14.4,12,14.4,12z"/>
				<path class="st1" d="M12.9,12.3L12.9,12.3C12.9,12.4,12.9,12.4,12.9,12.3c0,0.1,0,0.1,0,0.2H13c0,0,0,0,0.1-0.1c0,0,0,0,0-0.1
					c0,0,0,0,0-0.1l0,0c0,0,0,0,0-0.1c0,0,0,0,0-0.1H13c0,0-0.1,0-0.1,0.1C12.9,12.2,12.9,12.2,12.9,12.3L12.9,12.3L12.9,12.3
					L12.9,12.3z"/>
				<path class="st1" d="M11.6,12.4C11.6,12.4,11.7,12.4,11.6,12.4c0.1,0,0.1,0,0.1,0s0,0,0.1-0.1c0,0,0,0,0-0.1v-0.1l0,0
					c0,0,0,0,0-0.1v-0.1c0,0,0,0-0.1,0h-0.1C11.7,12.1,11.6,12.2,11.6,12.4C11.6,12.3,11.6,12.3,11.6,12.4
					C11.6,12.3,11.6,12.4,11.6,12.4z"/>
				<path class="st1" d="M9.8,12.2L9.8,12.2c0.1,0,0.1,0,0.1,0l0,0c0,0,0,0,0.1,0c0,0,0,0,0.1,0c0,0,0.1,0,0.1-0.1V12c0,0,0,0,0-0.1
					c0,0,0,0-0.1,0c0,0-0.1,0-0.1,0.1l-0.1,0.1C9.7,12.1,9.7,12.1,9.8,12.2C9.7,12.1,9.7,12.2,9.8,12.2z"/>
				<path class="st1" d="M8.1,11.7c0.1,0,0.2-0.1,0.3-0.1s0.1-0.1,0.1-0.1c0-0.1-0.1-0.1-0.1-0.1c-0.1,0-0.2,0.1-0.3,0.1
					S8,11.6,8,11.6C8,11.7,8.1,11.7,8.1,11.7z"/>
				<path class="st1" d="M7.8,11.1C7.9,11.1,7.9,11.1,7.8,11.1c0.1,0,0.2,0,0.2,0l0,0l0,0c0,0,0,0,0-0.1v-0.1c0,0,0,0-0.1,0
					c-0.1,0-0.1,0-0.2,0l0,0l0,0C7.8,11,7.8,11,7.8,11.1L7.8,11.1z"/>
				<path class="st1" d="M7.1,10c0.1,0.1,0.3,0.1,0.4,0.1c0.1,0,0.1-0.1,0.1-0.1c0-0.1,0-0.1-0.1-0.1l0,0c-0.1,0-0.1,0-0.2,0
					c0,0,0,0-0.1,0H7.1C7.1,9.9,7.1,10,7.1,10z"/>
				<path class="st1" d="M8.8,8.9C8.8,9,8.9,9,8.9,9.1c0,0,0,0,0.1,0h0.1c0,0,0.1-0.1,0-0.1C9.1,8.9,9,8.9,9,8.8c0,0,0,0-0.1,0H8.8
					C8.8,8.7,8.8,8.8,8.8,8.9z"/>
				<path class="st1" d="M9.7,9.2L9.7,9.2c0.1,0,0.1,0,0.1,0V9.1V8.9c0,0,0,0,0-0.1H9.7c0,0-0.1,0-0.1,0.1V9L9.7,9.2
					C9.6,9.1,9.7,9.1,9.7,9.2z"/>
				<path class="st1" d="M11.6,9C11.6,9.1,11.6,9.1,11.6,9c0.1,0,0.2-0.1,0.2-0.1V8.7c0,0,0,0,0-0.1h-0.1c-0.1,0-0.1,0.1-0.1,0.1
					L11.6,9L11.6,9z"/>
				<path class="st1" d="M12.1,9C12.1,9.1,12.1,9.1,12.1,9C12.1,9.1,12.2,9.1,12.1,9c0.1,0,0.1,0,0.1,0l0,0l0,0V8.9V8.8l0,0l0,0l0,0
					l0,0l0,0l0,0v0.1L12.1,9L12.1,9z"/>
				<path class="st1" d="M14.4,9c0.1,0,0.1-0.1,0.1-0.1V8.8c0-0.1,0-0.1,0-0.2l0,0V8.5c0,0,0,0-0.1,0h-0.1c0,0,0,0-0.1,0.1
					c0,0.1,0,0.1,0,0.2c0,0.1,0,0.1,0,0.2C14.3,9,14.3,9,14.4,9z"/>
				<path class="st1" d="M15.5,9.2C15.5,9.3,15.6,9.3,15.5,9.2c0.1,0.1,0.2,0,0.2,0c0.1-0.2,0.1-0.3,0.2-0.5V8.6c0,0,0,0-0.1,0
					s-0.1,0-0.1,0.1C15.7,8.8,15.6,9,15.5,9.2L15.5,9.2z"/>
				<path class="st1" d="M16.7,9.5C16.8,9.5,16.8,9.5,16.7,9.5c0.1,0,0.1,0,0.1,0l0,0l0,0c0-0.1,0.1-0.2,0.1-0.2V9.2c0,0,0,0-0.1,0
					h-0.1l0,0l0,0C16.8,9.2,16.8,9.3,16.7,9.5C16.7,9.4,16.7,9.5,16.7,9.5z"/>
				<path class="st1" d="M17.1,9.6C17.2,9.6,17.2,9.6,17.1,9.6c0.1,0,0.1,0,0.1,0c0.1,0,0.1-0.1,0.2-0.1l0,0l0,0V9.4c0,0,0,0-0.1,0
					h-0.1c-0.1,0-0.1,0.1-0.2,0.1l0,0C17.1,9.5,17.1,9.5,17.1,9.6C17.1,9.5,17.1,9.6,17.1,9.6z"/>
				<path class="st1" d="M19.9,9.4c0.2-0.1,0.4-0.1,0.6-0.2c0.1,0,0.1-0.1,0.1-0.1C20.6,9,20.5,9,20.5,9c-0.2,0.1-0.4,0.1-0.6,0.2
					c-0.1,0-0.1,0.1-0.1,0.1C19.8,9.4,19.8,9.4,19.9,9.4z"/>
				<path class="st1" d="M20,9.8l0.2-0.1c0,0,0.1,0,0.1-0.1V9.5c0-0.1-0.1-0.1-0.1-0.1L20,9.5c0,0-0.1,0-0.1,0.1v0.1
					C19.9,9.8,19.9,9.8,20,9.8z"/>
				<path class="st1" d="M19.1,10.7c0.1,0,0.1,0.1,0.2,0.1c0,0,0,0,0.1,0c0,0,0.1,0,0.1-0.1v-0.1c0,0,0,0,0-0.1
					c-0.1,0-0.1-0.1-0.2-0.1c0,0,0,0-0.1,0c0,0-0.1,0-0.1,0.1S19.1,10.6,19.1,10.7L19.1,10.7z"/>
				<path class="st1" d="M18,9.9L18,9.9L18,9.9C18.1,9.9,18.1,9.9,18,9.9c0.1,0,0.1,0,0.1,0s0,0,0.1,0l0,0l0,0l0,0l0,0l0,0l0,0l0,0
					l0,0c0,0,0,0-0.1,0l0,0C18,9.8,18,9.8,18,9.9C18,9.8,18,9.9,18,9.9L18,9.9z"/>
				<path class="st1" d="M15.4,11.6C15.4,11.7,15.4,11.7,15.4,11.6C15.4,11.7,15.4,11.7,15.4,11.6L15.4,11.6c0.1,0,0.1,0,0.1,0l0,0
					l0,0v-0.1l0,0l0,0l0,0l0,0l0,0c0,0,0,0-0.1,0l0,0l0,0V11.6L15.4,11.6L15.4,11.6z"/>
				<path class="st1" d="M13.2,12.1C13.3,12.1,13.3,12.1,13.2,12.1c0.1,0,0.1,0,0.1,0V12v-0.2c0,0,0,0,0-0.1h-0.1c0,0-0.1,0-0.1,0.1
					v0.1L13.2,12.1L13.2,12.1z"/>
			</g>
		</g>
	</g>
</g>
</svg>
