<?xml version="1.0" encoding="utf-8"?>
<!-- Generator: Adobe Illustrator 25.0.0, SVG Export Plug-In . SVG Version: 6.00 Build 0)  -->
<svg version="1.1"
	 id="svg2" inkscape:version="0.48+devel r9935" sodipodi:docname="Documento nuevo 1" xmlns:cc="http://creativecommons.org/ns#" xmlns:dc="http://purl.org/dc/elements/1.1/" xmlns:inkscape="http://www.inkscape.org/namespaces/inkscape" xmlns:ns1="http://sozi.baierouge.fr" xmlns:rdf="http://www.w3.org/1999/02/22-rdf-syntax-ns#" xmlns:sodipodi="http://sodipodi.sourceforge.net/DTD/sodipodi-0.dtd" xmlns:svg="http://www.w3.org/2000/svg"
	 xmlns="http://www.w3.org/2000/svg" xmlns:xlink="http://www.w3.org/1999/xlink" x="0px" y="0px" viewBox="0 0 632.3 452.8"
	 style="enable-background:new 0 0 632.3 452.8;" xml:space="preserve">
<style type="text/css">
	.st0{fill:#BC5D1D;}
	.st1{fill:#A8251B;}
	.st2{fill:#EAAD63;}
	.st3{fill:#FFCA85;}
	.st4{fill:#D8722E;}
	.st5{fill:#719A12;}
	.st6{fill:#608111;}
	.st7{fill:#C43826;}
	.st8{fill:#E03124;}
	.st9{fill:#A0AB24;}
	.st10{fill:#BF2A1F;}
	.st11{fill:#9E4B13;}
</style>
<sodipodi:namedview  bordercolor="#666666" borderopacity="1.0" id="base" inkscape:current-layer="layer1" inkscape:cx="273.52498" inkscape:cy="614.84559" inkscape:document-units="px" inkscape:pageopacity="0.0" inkscape:pageshadow="2" inkscape:window-height="787" inkscape:window-maximized="0" inkscape:window-width="1440" inkscape:window-x="0" inkscape:window-y="0" inkscape:zoom="0.42014768" pagecolor="#ffffff" showgrid="false">
	</sodipodi:namedview>
<g>
	<path class="st0" d="M447.5,47.4c-4.2-14.4-0.8-36.4,8.5-40.6c9.3-4.2,19.5,9.3,30.4,11c11,1.7,20.3-3.4,32.1-0.8
		s12.7,14.4,22.8,16.9c10.1,2.5,22-7.6,34.7-0.8c12.7,6.8,8.5,15.2,17.8,20.3c9.3,5.1,17.8-5.9,30.4,1.7c12.7,7.6,8.5,25.4,0,38.1
		c-8.5,12.7-14.4,39.8-12.7,57.5C588.7,106.6,447.5,47.4,447.5,47.4z"/>
	<path class="st0" d="M612,93.2v102.5c0,12.7-8.8,23.6-21.1,26.4l-251.6,56.4c-11.1,2.5-21.6-5.9-21.6-17.3v-95.5
		c0-0.9,0-1.8,0.1-2.7c0.3-5.1,1.7-10.1,3.9-14.6c2.3-4.8,5.6-9.1,9.7-12.7l107.2-93.2c9.2-8,21.9-10.6,33.5-6.8L601,78.1
		c1.3,0.4,2.5,1,3.6,1.7C609.1,82.6,612,87.7,612,93.2z"/>
	<path class="st1" d="M593.4,164.4c-0.2,20.5-1.8,39.4-6.8,41.6c-2.6,1.1-14.9,4.4-32.7,8.7c-3.5,0.9-7.2,1.8-11.1,2.7
		c-15,3.6-32.7,7.8-51.2,12.1c-4.7,1.1-9.5,2.2-14.2,3.3c-14.8,3.4-29.8,6.9-44.1,10.2c-15.4,3.5-30.1,6.9-43,9.8
		c-20.4,4.6-36.3,8.3-43.6,9.9c-0.4,0.1-0.8,0.2-1.1,0.3c-14.2,3.2-22.9-0.5-27.9-4.9v-92.4c0-0.9,0-1.8,0.1-2.7
		c3.4,3.8,9.1,8.1,16.4,7.4c1.6-0.2,6.7-1.2,14.6-3c4.3-1,9.4-2.2,15.2-3.5c14.2-3.3,32.3-7.7,52.1-12.5c6.4-1.6,13.1-3.2,19.8-4.8
		c23.3-5.7,47.8-11.7,70.3-17.2c7.5-1.9,14.9-3.7,21.9-5.4c24.7-6.1,45.1-11.1,55.7-13.8c5.1-1.3,8-2,8-2S593.7,137.8,593.4,164.4z"
		/>
	<path class="st2" d="M604.4,88c-5.1,5.1-266.4,73.6-277.8,67.2c-3-1.7-4.4-4.1-4.9-6.8c0.3-0.5,0.5-1.1,0.8-1.6
		c2.2-4.2,5.2-7.9,8.9-11.1l107.2-93.2c9.2-8,21.9-10.6,33.5-6.8L601,78.1c0.3,0.1,0.6,0.2,0.9,0.3c1,0.4,1.9,0.9,2.7,1.4
		C605.7,83.3,605.9,86.4,604.4,88z"/>
	<path class="st3" d="M601.9,78.4c-1,2.5-2.5,4.8-4.7,6.2c-7.4,4.8-230.9,59.2-258.8,62.6c-8,1-12.9,0.6-15.9-0.4
		c2.2-4.2,5.2-7.9,8.9-11.1l107.2-93.2c9.2-8,21.9-10.6,33.5-6.8L601,78.1C601.3,78.1,601.6,78.3,601.9,78.4z"/>
	<path class="st4" d="M457.2,11c7.4-4.2,15.6,10.1,25.4,10.6c9.7,0.4,25.8-3.8,32.6-1.7c6.8,2.1,14.4,17.3,24.5,19
		c10.1,1.7,19-5.1,27.9-4.2c8.9,0.8,12.3,18.2,19.5,21.6c7.2,3.4,16.1,4.7,22.8,2.5c6.8-2.1,14,0,15.2,4.7c1.3,4.7-3.4,14-18.6,9.7
		C591.3,69,488.5,34.3,480,31.7s-24.1-4.7-25-9.3C454.2,17.8,454.2,12.7,457.2,11z"/>
	<g>
		<g>
			<path class="st5" d="M484.4,79.3c7.2-2,9.2-5.2,8.3-8.3c-0.8-3.1-4.1-5-11.4-3c-7.2,2-14.8,10.1-14.8,10.1S477.2,81.3,484.4,79.3
				z"/>
			<path class="st6" d="M491,82.6c4.7-5.9,4.3-9.6,1.7-11.6c-2.5-2-6.3-1.5-11,4.3c-4.7,5.9-5.9,16.9-5.9,16.9S486.3,88.5,491,82.6z
				"/>
			<path class="st5" d="M487.2,81.4c-0.3-7.5,2.2-10.3,5.5-10.4c3.3-0.1,6,2.5,6.3,9.9c0.3,7.5-5.2,17.2-5.2,17.2
				S487.5,88.9,487.2,81.4z"/>
			<path class="st6" d="M495.4,82.4c-5.1-5.5-5.1-9.2-2.7-11.5c2.4-2.2,6.1-2.1,11.3,3.4c5.1,5.5,7.3,16.4,7.3,16.4
				S500.5,87.9,495.4,82.4z"/>
			<path class="st5" d="M501.7,78.6c-7.4-1.3-9.6-4.4-9-7.6c0.6-3.2,3.7-5.3,11.1-4c7.4,1.3,15.6,8.8,15.6,8.8S509,79.9,501.7,78.6z
				"/>
		</g>
		<path class="st7" d="M465,50.7c-0.8-20.2,9.9-50.1,24.6-50.7c14.7-0.6,27.9,28.2,28.8,48.5c0.8,20.2-11,24.2-25.7,24.8
			C478,73.9,465.9,70.9,465,50.7z"/>
	</g>
	<g>
		<path class="st8" d="M440.8,98.3c-19.2-6.4-43.3-27-38.7-41c4.7-14,36.3-16.1,55.5-9.7c19.2,6.4,18.7,18.8,14.1,32.8
			C467.1,94.4,460.1,104.7,440.8,98.3z"/>
		<g>
			<path class="st6" d="M469.1,71.9c-0.1,7,1.7,8.9,3.9,8.2c2.2-0.8,4.1-4,4.1-11c0.1-7-3.9-14.5-3.9-14.5S469.2,64.9,469.1,71.9z"
				/>
			<path class="st5" d="M465.4,78.9c3,4.6,5.6,4.2,7.4,1.8c1.8-2.5,2.2-6.1-0.8-10.7c-3-4.6-10.1-5.9-10.1-5.9
				S462.4,74.3,465.4,78.9z"/>
			<path class="st6" d="M464.6,85.4c4.9,0.4,7.2-2.1,7.9-5.2c0.7-3.2-0.5-5.8-5.4-6.2c-4.9-0.4-12.3,4.9-12.3,4.9
				S459.7,85,464.6,85.4z"/>
			<path class="st5" d="M467.3,90.9c4.9-4,6.1-7.6,5.4-10.2c-0.7-2.6-3-3.3-7.9,0.6c-4.9,4-9.8,13.8-9.8,13.8S462.4,94.8,467.3,90.9
				z"/>
			<path class="st6" d="M470.8,92.1c3.6-6.4,3.6-9.9,2-11.4c-1.6-1.5-4.2-0.4-7.8,5.9c-3.6,6.4-5.2,17.2-5.2,17.2
				S467.2,98.5,470.8,92.1z"/>
			<path class="st5" d="M474.9,90.5c1.3-7.3,0-9.9-2.1-9.8c-2.2,0-4.4,2.7-5.7,10c-1.3,7.3,1,16.4,1,16.4S473.6,97.7,474.9,90.5z"/>
			<path class="st6" d="M479.1,85.1c-1.9-5.8-4.3-6.3-6.4-4.4c-2.1,1.9-3.1,5.5-1.2,11.3c1.9,5.8,8.1,9.7,8.1,9.7
				S481,90.9,479.1,85.1z"/>
			<path class="st5" d="M477.1,88.3c-4.6-1.5-5.4-4.6-4.4-7.7c1-3.1,3.5-5,8.1-3.5c4.6,1.5,8.5,9,8.5,9S481.7,89.8,477.1,88.3z"/>
			<path class="st6" d="M480.5,80.9c-5,3.5-7.2,2.5-7.7-0.2c-0.5-2.8,0.9-6.3,5.9-9.8c5-3.5,12.2-2.9,12.2-2.9
				S485.5,77.4,480.5,80.9z"/>
			<path class="st5" d="M480.3,74.1c-3.3,6.6-5.9,7.9-7.6,6.6c-1.7-1.3-1.9-4.8,1.4-11.4c3.3-6.6,10.6-12.5,10.6-12.5
				S483.6,67.5,480.3,74.1z"/>
		</g>
		<path class="st9" d="M471.3,84.9c-1.2-0.4-1.6-2.7-0.8-5c0.8-2.4,2.4-4,3.7-3.5c1.2,0.4,1.6,2.7,0.8,5
			C474.2,83.8,472.5,85.4,471.3,84.9z"/>
	</g>
	<path class="st10" d="M581.2,135.1c-11.6,16.6-38.3,33.7-50.4,25.2c-8.1-5.7-7.6-21.5-2.8-36.2c24.7-6.1,45.1-11.1,55.7-13.8
		C588.1,116.7,588.6,124.5,581.2,135.1z"/>
	<path class="st10" d="M593.4,164.4c-0.2,20.5-1.8,39.4-6.8,41.6c-2.6,1.1-14.9,4.4-32.7,8.7c-2.2-2.9-4.1-6.4-5.8-10.2
		c-6-13.4-7.8-25.8,10.7-34.1C568.5,166.1,582,163.7,593.4,164.4z"/>
	<path class="st10" d="M477.3,232.9c-14.8,3.4-29.8,6.9-44.1,10.2c-5.1-1.8-9.9-4.1-14-6.6c-17.1-10.8-13.6-22.8-5.7-35.3
		c7.9-12.5,17.2-20.7,34.3-9.9C462,200.3,477,219.4,477.3,232.9z"/>
	<path class="st10" d="M390.2,252.9c-20.4,4.6-36.3,8.3-43.6,9.9c-4.5-6.7-8.1-14.2-10.1-21.1c-5.5-19.5,5.1-26.1,19.3-30
		c14.2-4,26.7-3.8,32.1,15.7C390.2,234.8,390.9,244.1,390.2,252.9z"/>
	<path class="st10" d="M542.8,217.4c-15,3.6-32.7,7.8-51.2,12.1c-0.3-0.6-0.5-1.1-0.8-1.7c-7.8-18.7-8.1-50.4,5.5-56.1
		c13.6-5.7,36,16.8,43.8,35.5C541.7,211,542.5,214.4,542.8,217.4z"/>
	<path class="st10" d="M472.4,175.4c-18.5,8.2-26.5-1.3-32.5-14.8c-2.1-4.8-3.7-9.6-4-14c23.3-5.7,47.8-11.7,70.3-17.2
		c0.3,0.5,0.6,1,0.8,1.4C512.9,144.4,490.9,167.2,472.4,175.4z"/>
	<path class="st10" d="M359.4,190.9c-3.6,11-23.9,14.8-41.8,12.9v-38c0-0.9,0-1.8,0.1-2.7c3.4,3.8,9.1,8.1,16.4,7.4
		c1.6-0.2,6.7-1.2,14.6-3C356.7,175.1,361.7,183.8,359.4,190.9z"/>
	<path class="st10" d="M411.8,188.7c-11.5,9.2-23,14-35.7-1.7c-4.9-6.2-9.3-14.5-12.2-23c14.2-3.3,32.3-7.7,52.1-12.5
		c0.6,0.7,1.2,1.3,1.7,2C430.4,169.3,423.3,179.5,411.8,188.7z"/>
</g>
<g>
	<path class="st11" d="M266.2,359.8v82.4c0,7.4-7.5,12.5-14.4,9.8L18,359.1c-10.4-4.1-17.4-13.9-18-25c0-0.5,0-1,0-1.5v-69.1
		c0-1,0.1-2,0.2-3c1.2-10.8,9.2-19.9,20-22.5L130,212.1c7.9-1.9,16.1,0.1,22.2,5.3c1,0.9,2,1.8,2.9,2.9L258.8,340
		c1.2,1.4,2.3,2.9,3.2,4.5C264.8,349.1,266.2,354.4,266.2,359.8z"/>
	<g>
		<path class="st3" d="M266.2,422.7V437c-1.9,0.5-4,0.8-6.1,0.8c-5.4,0-10.9-1.5-14.5-3.1c-2.8-1.3-28-11-57.2-22.3
			c-58.6-22.6-138.9-53.6-165-64.9C13.2,343,5.4,338.5,0,334.1c0-0.5,0-1,0-1.5V316l1.6,1.8c0,0,0,0,0.1-0.1
			c-0.2,0.2-0.5,0.8-0.3,1.8c0.4,1.9,3.5,8.7,26.1,18.6c25.9,11.3,109.4,43.5,164.6,64.8c34.9,13.5,54.8,21.2,57.7,22.5
			c5.3,2.4,13.1,2.9,15.4,1c0.3-0.2,1-0.8,0.4-3.6L266.2,422.7z"/>
	</g>
	<g>
		<path class="st3" d="M266.2,395.4v14.3c-1.9,0.5-4,0.8-6.1,0.8c-5.4,0-10.9-1.5-14.5-3.1c-2.8-1.3-28-11-57.2-22.3
			c-58.6-22.6-138.9-53.6-165-64.9c-10.3-4.5-18.1-9-23.5-13.4v-18.1l1.6,1.8c0,0,0,0,0.1-0.1c-0.2,0.2-0.5,0.8-0.3,1.8
			c0.4,1.9,3.5,8.7,26.1,18.6c25.9,11.3,109.4,43.5,164.6,64.8c34.9,13.5,54.8,21.2,57.7,22.5c5.3,2.4,13.1,2.9,15.4,1
			c0.3-0.2,1-0.8,0.4-3.6L266.2,395.4z"/>
	</g>
	<g>
		<path class="st3" d="M266.2,366.9v14.3c-1.9,0.5-4,0.8-6.1,0.8c-5.4,0-10.9-1.5-14.5-3.1c-2.8-1.3-28-11-57.2-22.3
			c-58.6-22.6-138.9-53.6-165-64.9c-10.3-4.5-18.1-9-23.5-13.4v-14.8c0-1,0.1-2,0.2-3l1.4,1.6c0,0,0,0,0.1-0.1
			c-0.2,0.2-0.5,0.8-0.3,1.8c0.4,1.9,3.5,8.7,26.1,18.6c25.9,11.3,109.4,43.5,164.6,64.8c34.9,13.5,54.8,21.2,57.7,22.5
			c5.3,2.4,13.1,2.9,15.4,1c0.3-0.2,1-0.8,0.4-3.6L266.2,366.9z"/>
	</g>
	<path class="st3" d="M1.6,262c0,0,6.1,1.1,9.9,7.5c3.8,6.4,11.4,10.6,20.5,12.5c9.1,1.9,19.7,4.9,24.3,8.3s20.5,12.5,32.2,14
		c11.8,1.5,20.9,5.7,25.8,9.1c4.9,3.4,23.9,12.9,34.5,13.7c10.6,0.8,15.2,5.3,19,7.6c3.8,2.3,15.9,9.1,25.8,9.5
		c9.9,0.4,14,5.3,21.2,8.7c7.2,3.4,19.7,3.8,25.4,6.8c5.7,3,10.6,8.3,16.3,9.1c5.7,0.8,7,0.9,9.7-2c0,7.3,0,14.3,0,14.3
		s-5.9,4-16.6,1.3c-10.6-2.7-30.7-15.9-37.5-15.2c-6.8,0.8-33.4-6.8-37.2-11.4c-3.8-4.6-30-17.8-37.9-16.7
		c-8,1.1-25.4-6.4-29.2-10.6s-16.7-7.2-22.8-6.8c-6.1,0.4-14.8-6.8-19-9.5c-4.2-2.7-15.2-10.2-21.6-9.1c-6.4,1.1-16.7-7.2-20.5-9.9
		c-3.8-2.7-13.3-3.8-15.9-6.4c-2.7-2.7-8.1-8.7-8.1-8.7L1.6,262z"/>
	<path class="st3" d="M1.6,290.5c0,0,4.2,6.8,10.3,9.4c6.1,2.7,11.4,1.9,16.7,7.6c5.3,5.7,14.8,7.6,21.2,8.3
		c6.4,0.8,9.1,6.1,15.9,8.3c6.8,2.3,9.1,4.6,19.3,7.2c10.2,2.7,14.4,4.9,17.4,7.2c3,2.3,15.6,4.6,19.7,5.7c4.2,1.1,9.5,8.3,15.9,9.1
		c6.4,0.8,11.4,1.9,15.2,3.8s10.2,8,18.2,8.7c8,0.8,12.5,1.5,17.1,4.6c4.6,3,11.4,8.7,20.9,9.5c9.5,0.8,18.6,6.8,23.9,9.1
		c5.3,2.3,10.6,2.7,16.7,5.3c6.1,2.7,10.9,5.6,15.7,1.1c0,8,0,14.2,0,14.2s-6.6,3.6-13,2.9c-6.4-0.8-11.8-7.6-16.3-7.6
		c-4.6,0-17.4-3-20.1-6.1c-2.7-3-17.1-11.4-23.5-9.9c-6.4,1.5-14-2.7-17.4-6.4c-3.4-3.8-12.9-7.2-15.6-6.8
		c-2.7,0.4-25.8-6.1-29.6-9.9c-3.8-3.8-18.6-11.4-27.3-11.8c-8.7-0.4-17.8-6.4-22.8-9.1c-4.9-2.7-17.8-9.5-23.5-8.7
		c-5.7,0.8-19.7-5.3-23.1-9.5c-3.4-4.2-11-6.8-18.2-8.3C8.1,317,0,306.7,0,306.7L1.6,290.5z"/>
	<path class="st3" d="M1.7,317.7c0,0,2.6,6.1,9.4,9.5c6.8,3.4,11,4.2,15.9,8.3c4.9,4.2,17.1,6.1,22.4,8c5.3,1.9,15.6,9.5,24.7,11.4
		c9.1,1.9,16.3,4.9,21.2,7.6c4.9,2.7,15.9,8,22.4,8.7c6.4,0.8,11,2.7,16.3,6.8c5.3,4.2,14.8,4.9,25.4,9.1
		c10.6,4.2,16.3,9.9,26.9,11.8s19.7,3.4,26.2,8c6.4,4.6,14.4,10.6,22,10.6c7.6,0,11.4,3.4,16.7,6.1c5.3,2.7,11.1,4.3,15-0.9
		c0,9.6,0,14.3,0,14.3s-7.1,5.9-15.8,2.1c-8.7-3.8-23.9-13.3-31.5-12.9c-7.6,0.4-34.5-9.5-41.3-14.4c-6.8-4.9-22.4-13.7-31.5-14
		c-9.1-0.4-20.1-6.1-25.8-9.5c-5.7-3.4-29.2-14.8-36.4-14C76.7,375,52.5,364,49,359.8c-3.4-4.2-20.5-9.1-27.7-9.5
		c-7.2-0.4-12.9-6.8-14-8.7c-1.1-1.9-7.3-3.4-7.3-7.6C0,324.2,1.7,317.7,1.7,317.7z"/>
	<path class="st2" d="M121.1,193.3c0,0,9.9-7.2,17.1-1.9c7.2,5.3,12.9,23.9,7.2,29.2c-5.7,5.3-17.8,1.1-22.8,3.4
		c-4.9,2.3-1.5,8.7-14,11.8c-12.5,3-17.8-4.6-22.4-1.1c-4.6,3.4-3.4,10.2-15.6,11.8c-12.1,1.5-18.2-7.2-22.8-3.8
		c-4.6,3.4-1.9,12.5-11,13.7c-9.1,1.1-29.6,1.9-33.4-8.3c-3.8-10.2,3.8-26.9,14.8-27.7c11-0.8,23.1,2.3,29.2-1.9
		c6.1-4.2,10.2-11.8,18.2-12.1c8-0.4,11.8,3.4,18.2-0.8c6.4-4.2,10.2-9.9,20.1-9.5C113.9,196.4,116.9,196.8,121.1,193.3z"/>
	<path class="st0" d="M261.8,353c-4.9,3.4-17.5-3.4-27.7-8c-10.2-4.6-209.7-82.3-209.7-84.6c0-2.3,15.9,0.8,19-2.7
		c3-3.4,8-8,13.7-6.4c5.7,1.5,18.6,0.4,23.1-4.2c4.6-4.6,9.1-7.2,17.1-6.1c8,1.1,16.7-1.5,22.8-9.1c6.1-7.6,12.9,0,24.7-3.8
		c6.3-2,7.7-6.9,7.6-10.9c1,0.9,2,1.8,2.9,2.9L258.8,340c1.2,1.4,2.3,2.9,3.2,4.5C263.4,348.1,263.9,351.6,261.8,353z"/>
	<path class="st3" d="M142.3,202.8c-3.2-4.8-4.6-10.2-12.5-7.2c-8,3-4.2,24.3,8,23.5C146.9,215,144.6,206.2,142.3,202.8z"/>
	<path class="st3" d="M113.5,208.5c3,7.6,3.4,21.6-3.4,23.1c-6.8,1.5-20.9,0.4-23.9-10.6c-2.3,9.1-7.6,19.7-16.3,20.9
		c-8.7,1.1-15.2-4.2-17.4-10.6c-2.3-6.4,3.4-18.2,10.6-20.5c7.2-2.3,17.1,0.8,20.5,3.8C89.2,202.8,104.4,193,113.5,208.5z"/>
	<path class="st3" d="M32.3,225.6c7,3.8,9.5,21.2,6.4,24.7c-3,3.4-20.9-3.4-24.7-11.8C10.4,230.1,19.8,217.6,32.3,225.6z"/>
	<path class="st11" d="M109.3,273.2c-0.3,4.9,21.2,16.3,46.7,15.9c25.4-0.4,29.6-6.8,30-9.1c0.4-2.3-14.8-14.4-36.8-13.7
		C127.2,267.1,109.7,266,109.3,273.2z"/>
	<path class="st2" d="M118.5,259.6c0,0-9.3,11.8,3.7,19.9c13.1,8.1,49.9,6.9,54.8,1.9c5-5,6.9-16.2-1.2-21.8
		c9.3-9.3-5-26.2-17.4-24.9c13.1-9.3-8.7-26.2-8.7-26.2s5,12.5-2.5,16.2c-7.5,3.7-13.1,5-11.2,11.2c-13.7,3.7-5,20.6-5,20.6
		S124.1,254,118.5,259.6z"/>
	<path class="st3" d="M149.7,208.5c0,0,5.9,6.3,4.8,11.2c-1.1,4.9-2.3,9.5,1.1,9.9C159,229.9,166.5,220.8,149.7,208.5z"/>
	<path class="st3" d="M169.3,240.6c6,1.6,3.8,14.4-0.8,15.2c-4.6,0.8-30.3,0-30.3-6.1c0-6.1,7.6-9.5,14-9.1
		C158.6,240.9,165.1,239.4,169.3,240.6z"/>
	<path class="st3" d="M174.6,264.1c4.9,2.2,5.3,12.5-7.6,15.2c-12.9,2.7-36-3-36-8.3c0-5.3,5.7-8.7,17.4-7.2
		C160.2,265.2,170.4,262.2,174.6,264.1z"/>
</g>
</svg>
