<?xml version="1.0" encoding="utf-8"?>
<!-- Generator: Adobe Illustrator 25.0.0, SVG Export Plug-In . SVG Version: 6.00 Build 0)  -->
<svg version="1.1"
	 id="svg2" inkscape:version="0.48+devel r9935" sodipodi:docname="Documento nuevo 1" xmlns:cc="http://creativecommons.org/ns#" xmlns:dc="http://purl.org/dc/elements/1.1/" xmlns:inkscape="http://www.inkscape.org/namespaces/inkscape" xmlns:ns1="http://sozi.baierouge.fr" xmlns:rdf="http://www.w3.org/1999/02/22-rdf-syntax-ns#" xmlns:sodipodi="http://sodipodi.sourceforge.net/DTD/sodipodi-0.dtd" xmlns:svg="http://www.w3.org/2000/svg"
	 xmlns="http://www.w3.org/2000/svg" xmlns:xlink="http://www.w3.org/1999/xlink" x="0px" y="0px" viewBox="0 0 132.6 92.7"
	 style="enable-background:new 0 0 132.6 92.7;" xml:space="preserve">
<style type="text/css">
	.st0{fill:url(#SVGID_1_);}
	.st1{opacity:0.52;fill:#FFED94;}
	.st2{opacity:0.52;fill:#FFCF2A;}
	.st3{opacity:0.3;fill:#E6CD7A;}
	.st4{opacity:0.32;fill:#FFF1AD;}
	.st5{opacity:0.27;fill:#DBC26E;}
</style>
<sodipodi:namedview  bordercolor="#666666" borderopacity="1.0" id="base" inkscape:current-layer="layer1" inkscape:cx="273.52498" inkscape:cy="614.84559" inkscape:document-units="px" inkscape:pageopacity="0.0" inkscape:pageshadow="2" inkscape:window-height="787" inkscape:window-maximized="0" inkscape:window-width="1440" inkscape:window-x="0" inkscape:window-y="0" inkscape:zoom="0.42014768" pagecolor="#ffffff" showgrid="false">
	</sodipodi:namedview>
<g>
	<linearGradient id="SVGID_1_" gradientUnits="userSpaceOnUse" x1="23.7859" y1="30.0454" x2="118.1934" y2="91.3543">
		<stop  offset="0" style="stop-color:#FFE57B"/>
		<stop  offset="0.6296" style="stop-color:#E6C449"/>
		<stop  offset="1" style="stop-color:#D6B029"/>
	</linearGradient>
	<path class="st0" d="M66.7,2.8c5.1-0.8,12.7,3.1,18.6,9.4c5.9,6.3,45.5,48.5,46.9,52.1c1.3,3.6-0.8,10.2-8.9,13.6
		c-8.1,3.4-25,13-25,13l-42.8,1.8c0,0-15.6-5.7-23.7-6.3s-15.9-1-21.5-6.5c-5.7-5.5-11.3-11.2-10-13.6C1.5,64,16.1,47.9,22.3,41.6
		C28.5,35.4,52.3,5,66.7,2.8z"/>
	<g>
		<path class="st1" d="M37.8,50.1c0-0.5,0.4-1,1-1c0.5,0,1,0.4,1,1c0,0.5-0.4,1-1,1C38.3,51,37.8,50.6,37.8,50.1z"/>
		<circle class="st2" cx="84.3" cy="56.2" r="1.3"/>
		<circle class="st1" cx="75.7" cy="31.1" r="1"/>
		<path class="st2" d="M25.2,57.8c0-0.7,0.5-1.2,1.2-1.2c0.7,0,1.2,0.5,1.2,1.2S27.1,59,26.4,59C25.8,59,25.2,58.4,25.2,57.8z"/>
		<path class="st1" d="M49.4,83c0-0.9,0.7-1.5,1.5-1.5c0.9,0,1.5,0.7,1.5,1.5c0,0.9-0.7,1.5-1.5,1.5C50.1,84.6,49.4,83.9,49.4,83z"
			/>
		<circle class="st2" cx="50.9" cy="80.8" r="0.9"/>
		<circle class="st1" cx="92.2" cy="48.1" r="1.1"/>
		<path class="st2" d="M44,33.1c0-0.4,0.3-0.7,0.7-0.7c0.4,0,0.7,0.3,0.7,0.7s-0.3,0.7-0.7,0.7C44.4,33.8,44,33.5,44,33.1z"/>
		<circle class="st1" cx="9.5" cy="67.8" r="0.9"/>
		<path class="st2" d="M79.1,9.5c0-0.7,0.5-1.2,1.2-1.2c0.7,0,1.2,0.5,1.2,1.2s-0.5,1.2-1.2,1.2C79.6,10.6,79.1,10.1,79.1,9.5z"/>
		<path class="st1" d="M42.1,29.2c0-0.6,0.5-1.1,1.1-1.1c0.6,0,1.1,0.5,1.1,1.1c0,0.6-0.5,1.1-1.1,1.1
			C42.6,30.3,42.1,29.8,42.1,29.2z"/>
		<path class="st2" d="M70.5,21.5c0-0.8,0.7-1.5,1.5-1.5s1.5,0.7,1.5,1.5c0,0.8-0.7,1.5-1.5,1.5S70.5,22.4,70.5,21.5z"/>
		<path class="st2" d="M82.6,75.1c0-0.8,0.6-1.4,1.4-1.4c0.8,0,1.4,0.6,1.4,1.4c0,0.8-0.6,1.4-1.4,1.4
			C83.2,76.5,82.6,75.9,82.6,75.1z"/>
		<path class="st1" d="M78,51.3c0-0.5,0.4-1,1-1c0.5,0,1,0.4,1,1c0,0.5-0.4,1-1,1C78.4,52.3,78,51.8,78,51.3z"/>
		<path class="st2" d="M77.1,31.2c0-0.9,0.7-1.5,1.5-1.5c0.9,0,1.5,0.7,1.5,1.5s-0.7,1.5-1.5,1.5C77.8,32.7,77.1,32,77.1,31.2z"/>
		<circle class="st1" cx="45.3" cy="17.9" r="1.1"/>
		<circle class="st2" cx="32.9" cy="46.1" r="1"/>
		<path class="st1" d="M94.1,70.1c0-0.4,0.3-0.7,0.7-0.7c0.4,0,0.7,0.3,0.7,0.7c0,0.4-0.3,0.7-0.7,0.7
			C94.4,70.8,94.1,70.5,94.1,70.1z"/>
		<path class="st2" d="M103,75.6c0-0.5,0.4-0.8,0.8-0.8c0.5,0,0.8,0.4,0.8,0.8s-0.4,0.8-0.8,0.8C103.4,76.4,103,76.1,103,75.6z"/>
		<path class="st1" d="M102.6,82.7c0-0.6,0.5-1,1-1c0.6,0,1,0.5,1,1s-0.5,1-1,1C103,83.7,102.6,83.3,102.6,82.7z"/>
		<path class="st2" d="M68.2,72.5c0-0.8,0.6-1.4,1.4-1.4c0.8,0,1.4,0.6,1.4,1.4c0,0.8-0.6,1.4-1.4,1.4
			C68.8,73.9,68.2,73.3,68.2,72.5z"/>
		<path class="st2" d="M48.5,55c0-0.5,0.4-1,1-1c0.5,0,1,0.4,1,1c0,0.5-0.4,1-1,1C48.9,56,48.5,55.5,48.5,55z"/>
		<path class="st1" d="M62.2,46.3c0-0.6,0.5-1.1,1.1-1.1c0.6,0,1.1,0.5,1.1,1.1c0,0.6-0.5,1.1-1.1,1.1
			C62.7,47.3,62.2,46.9,62.2,46.3z"/>
		<path class="st2" d="M62.6,36.9c0-0.6,0.5-1.1,1.1-1.1c0.6,0,1.1,0.5,1.1,1.1c0,0.6-0.5,1.1-1.1,1.1C63.1,38,62.6,37.5,62.6,36.9z
			"/>
		<path class="st1" d="M27.4,52.7c0-0.7,0.6-1.3,1.3-1.3c0.7,0,1.3,0.6,1.3,1.3c0,0.7-0.6,1.3-1.3,1.3C28,54,27.4,53.4,27.4,52.7z"
			/>
		<path class="st2" d="M88.9,84.6c0-0.6,0.5-1.1,1.1-1.1c0.6,0,1.1,0.5,1.1,1.1s-0.5,1.1-1.1,1.1C89.4,85.7,88.9,85.2,88.9,84.6z"/>
		<circle class="st1" cx="59" cy="67.7" r="1.1"/>
		<circle class="st2" cx="102.3" cy="33.6" r="1.2"/>
		<circle class="st2" cx="42.8" cy="74.5" r="1.3"/>
		<circle class="st1" cx="107.6" cy="75.1" r="1.2"/>
		<path class="st2" d="M16.9,77.4c0-0.6,0.4-1,1-1c0.6,0,1,0.4,1,1c0,0.6-0.4,1-1,1C17.4,78.4,16.9,78,16.9,77.4z"/>
		<circle class="st1" cx="100.2" cy="55.9" r="0.9"/>
		<path class="st2" d="M23.8,76.7c0-0.5,0.4-1,1-1c0.5,0,1,0.4,1,1s-0.4,1-1,1C24.2,77.7,23.8,77.3,23.8,76.7z"/>
		<path class="st2" d="M95.1,87.5c0-0.4,0.4-0.8,0.8-0.8c0.4,0,0.8,0.4,0.8,0.8c0,0.4-0.4,0.8-0.8,0.8
			C95.5,88.3,95.1,87.9,95.1,87.5z"/>
		<path class="st1" d="M95.4,47.4c0-0.6,0.5-1.1,1.1-1.1c0.6,0,1.1,0.5,1.1,1.1s-0.5,1.1-1.1,1.1C95.8,48.4,95.4,47.9,95.4,47.4z"/>
		<path class="st2" d="M43.6,24.7c0-0.4,0.4-0.8,0.8-0.8c0.4,0,0.8,0.4,0.8,0.8c0,0.4-0.4,0.8-0.8,0.8
			C43.9,25.5,43.6,25.1,43.6,24.7z"/>
		<circle class="st1" cx="60.2" cy="74.9" r="1.1"/>
		<path class="st2" d="M80.8,28.7c0-0.7,0.6-1.3,1.3-1.3c0.7,0,1.3,0.6,1.3,1.3s-0.6,1.3-1.3,1.3C81.4,30.1,80.8,29.5,80.8,28.7z"/>
		<path class="st1" d="M43.9,46.7c0-0.6,0.5-1.1,1.1-1.1c0.6,0,1.1,0.5,1.1,1.1s-0.5,1.1-1.1,1.1C44.4,47.7,43.9,47.3,43.9,46.7z"/>
		<path class="st2" d="M79.8,37.5c0-0.7,0.6-1.3,1.3-1.3c0.7,0,1.3,0.6,1.3,1.3c0,0.7-0.6,1.3-1.3,1.3
			C80.4,38.8,79.8,38.2,79.8,37.5z"/>
		<path class="st1" d="M83.7,23.9c0-0.8,0.7-1.5,1.5-1.5s1.5,0.7,1.5,1.5c0,0.8-0.7,1.5-1.5,1.5S83.7,24.7,83.7,23.9z"/>
		<path class="st2" d="M50.6,40.3c0-0.7,0.5-1.2,1.2-1.2s1.2,0.5,1.2,1.2c0,0.7-0.5,1.2-1.2,1.2S50.6,41,50.6,40.3z"/>
		<path class="st1" d="M7.1,71.4c0-0.5,0.4-1,1-1c0.5,0,1,0.4,1,1c0,0.5-0.4,1-1,1C7.6,72.4,7.1,72,7.1,71.4z"/>
		<path class="st2" d="M61.2,60c0-0.8,0.7-1.5,1.5-1.5c0.8,0,1.5,0.7,1.5,1.5c0,0.8-0.7,1.5-1.5,1.5C61.9,61.5,61.2,60.8,61.2,60z"
			/>
		<path class="st1" d="M57.8,15.1c0-0.8,0.6-1.4,1.4-1.4c0.8,0,1.4,0.6,1.4,1.4c0,0.8-0.6,1.4-1.4,1.4
			C58.4,16.4,57.8,15.8,57.8,15.1z"/>
		<path class="st2" d="M61.2,75c0-0.6,0.5-1.1,1.1-1.1c0.6,0,1.1,0.5,1.1,1.1c0,0.6-0.5,1.1-1.1,1.1C61.7,76.1,61.2,75.6,61.2,75z"
			/>
		<path class="st1" d="M73.8,68.6c0-0.4,0.3-0.7,0.7-0.7c0.4,0,0.7,0.3,0.7,0.7c0,0.4-0.3,0.7-0.7,0.7C74.1,69.3,73.8,69,73.8,68.6z
			"/>
		<circle class="st2" cx="107.7" cy="55.2" r="0.9"/>
		<path class="st1" d="M65.8,90.1c0-0.5,0.4-0.9,0.9-0.9c0.5,0,0.9,0.4,0.9,0.9c0,0.5-0.4,0.9-0.9,0.9C66.2,91,65.8,90.6,65.8,90.1z
			"/>
		<path class="st2" d="M54.3,87.5c0-0.7,0.6-1.3,1.3-1.3c0.7,0,1.3,0.6,1.3,1.3c0,0.7-0.6,1.3-1.3,1.3
			C54.9,88.8,54.3,88.2,54.3,87.5z"/>
		<circle class="st2" cx="17.3" cy="63.1" r="1.1"/>
		<path class="st1" d="M61.6,50.8c0-0.5,0.4-1,1-1c0.5,0,1,0.4,1,1c0,0.5-0.4,1-1,1C62,51.8,61.6,51.3,61.6,50.8z"/>
		<circle class="st2" cx="76.6" cy="15.5" r="1.2"/>
		<path class="st1" d="M20.9,54.5c0-0.6,0.5-1.2,1.2-1.2s1.2,0.5,1.2,1.2c0,0.6-0.5,1.2-1.2,1.2S20.9,55.2,20.9,54.5z"/>
		<circle class="st2" cx="66" cy="81.8" r="1"/>
		<path class="st1" d="M75.3,20.8c0-0.7,0.5-1.2,1.2-1.2c0.7,0,1.2,0.5,1.2,1.2S77.2,22,76.6,22C75.9,22,75.3,21.5,75.3,20.8z"/>
		<path class="st2" d="M100.2,64.8c0-0.5,0.4-0.9,0.9-0.9s0.9,0.4,0.9,0.9c0,0.5-0.4,0.9-0.9,0.9S100.2,65.2,100.2,64.8z"/>
		<path class="st1" d="M64.1,31.6c0-0.8,0.6-1.4,1.4-1.4c0.8,0,1.4,0.6,1.4,1.4c0,0.8-0.6,1.4-1.4,1.4
			C64.7,32.9,64.1,32.3,64.1,31.6z"/>
		<circle class="st2" cx="43.2" cy="79.2" r="1"/>
		<path class="st1" d="M24,46.6c0-0.7,0.6-1.3,1.3-1.3c0.7,0,1.3,0.6,1.3,1.3c0,0.7-0.6,1.3-1.3,1.3C24.6,47.9,24,47.3,24,46.6z"/>
		<path class="st2" d="M45.8,61.4c0-0.7,0.6-1.3,1.3-1.3c0.7,0,1.3,0.6,1.3,1.3s-0.6,1.3-1.3,1.3C46.4,62.7,45.8,62.1,45.8,61.4z"/>
		<path class="st1" d="M100.9,77.9c0-0.5,0.4-0.9,0.9-0.9c0.5,0,0.9,0.4,0.9,0.9c0,0.5-0.4,0.9-0.9,0.9
			C101.3,78.7,100.9,78.4,100.9,77.9z"/>
		<circle class="st2" cx="8" cy="65.7" r="1"/>
		<path class="st2" d="M69.9,88.3c0-0.5,0.4-0.9,0.9-0.9c0.5,0,0.9,0.4,0.9,0.9s-0.4,0.9-0.9,0.9C70.3,89.2,69.9,88.8,69.9,88.3z"/>
		<circle class="st1" cx="126.2" cy="65.2" r="1.3"/>
		<path class="st2" d="M37.2,39.2c0-0.6,0.4-1,1-1c0.6,0,1,0.4,1,1c0,0.6-0.4,1-1,1C37.6,40.2,37.2,39.8,37.2,39.2z"/>
		<path class="st1" d="M14.6,68.5c0-0.5,0.4-0.9,0.9-0.9c0.5,0,0.9,0.4,0.9,0.9s-0.4,0.9-0.9,0.9C15,69.5,14.6,69.1,14.6,68.5z"/>
		<path class="st2" d="M73.1,9.2c0-0.8,0.6-1.4,1.4-1.4c0.8,0,1.4,0.6,1.4,1.4c0,0.8-0.6,1.4-1.4,1.4C73.7,10.5,73.1,9.9,73.1,9.2z"
			/>
		<path class="st1" d="M76.5,82.3c0-0.7,0.5-1.2,1.2-1.2c0.7,0,1.2,0.5,1.2,1.2c0,0.7-0.5,1.2-1.2,1.2C77,83.5,76.5,83,76.5,82.3z"
			/>
		<circle class="st2" cx="82.9" cy="66.8" r="1.1"/>
		<path class="st1" d="M17.8,70c0-0.7,0.6-1.3,1.3-1.3c0.7,0,1.3,0.6,1.3,1.3c0,0.7-0.6,1.3-1.3,1.3C18.4,71.3,17.8,70.7,17.8,70z"
			/>
		<path class="st2" d="M84.3,87.6c0-0.6,0.5-1.1,1.1-1.1c0.6,0,1.1,0.5,1.1,1.1c0,0.6-0.5,1.1-1.1,1.1
			C84.8,88.7,84.3,88.2,84.3,87.6z"/>
		<path class="st1" d="M118.9,72.2c0-0.5,0.4-0.9,0.9-0.9s0.9,0.4,0.9,0.9s-0.4,0.9-0.9,0.9S118.9,72.7,118.9,72.2z"/>
		<path class="st2" d="M54.3,16.3c0-0.6,0.5-1,1-1s1,0.5,1,1c0,0.6-0.5,1-1,1S54.3,16.8,54.3,16.3z"/>
		<path class="st2" d="M118.3,67.6c0-0.8,0.6-1.4,1.4-1.4c0.8,0,1.4,0.6,1.4,1.4c0,0.8-0.6,1.4-1.4,1.4
			C118.9,69,118.3,68.4,118.3,67.6z"/>
		<circle class="st1" cx="88" cy="63.7" r="0.9"/>
		<circle class="st2" cx="103.3" cy="67.9" r="1.1"/>
		<path class="st1" d="M100.9,57.9c0-0.6,0.5-1,1-1c0.6,0,1,0.5,1,1c0,0.6-0.5,1-1,1C101.3,58.9,100.9,58.5,100.9,57.9z"/>
		<path class="st2" d="M15,81.2c0-0.6,0.5-1.1,1.1-1.1c0.6,0,1.1,0.5,1.1,1.1c0,0.6-0.5,1.1-1.1,1.1C15.4,82.3,15,81.8,15,81.2z"/>
		<path class="st1" d="M32.2,76.4c0-0.7,0.6-1.3,1.3-1.3c0.7,0,1.3,0.6,1.3,1.3c0,0.7-0.6,1.3-1.3,1.3
			C32.8,77.6,32.2,77.1,32.2,76.4z"/>
		<path class="st2" d="M42,62.2c0-0.5,0.4-0.8,0.8-0.8c0.5,0,0.8,0.4,0.8,0.8c0,0.5-0.4,0.8-0.8,0.8C42.3,63,42,62.7,42,62.2z"/>
		<path class="st1" d="M110.2,41.8c0-0.7,0.5-1.2,1.2-1.2c0.7,0,1.2,0.5,1.2,1.2s-0.5,1.2-1.2,1.2C110.7,43,110.2,42.4,110.2,41.8z"
			/>
		<circle class="st2" cx="48.5" cy="65.3" r="1.2"/>
		<path class="st1" d="M20.3,66.9c0-0.6,0.5-1.1,1.1-1.1s1.1,0.5,1.1,1.1c0,0.6-0.5,1.1-1.1,1.1S20.3,67.5,20.3,66.9z"/>
		<path class="st2" d="M101.7,42.1c0-0.5,0.4-1,1-1s1,0.4,1,1s-0.4,1-1,1S101.7,42.6,101.7,42.1z"/>
		<path class="st1" d="M76.9,61.9c0-0.6,0.5-1.1,1.1-1.1c0.6,0,1.1,0.5,1.1,1.1c0,0.6-0.5,1.1-1.1,1.1
			C77.4,62.9,76.9,62.5,76.9,61.9z"/>
		<path class="st2" d="M79.4,72.5c0-0.5,0.4-0.9,0.9-0.9s0.9,0.4,0.9,0.9c0,0.5-0.4,0.9-0.9,0.9S79.4,73,79.4,72.5z"/>
		<circle class="st1" cx="58.4" cy="52.2" r="1.1"/>
		<path class="st2" d="M37.7,71c0-0.6,0.5-1,1-1c0.6,0,1,0.5,1,1s-0.5,1-1,1C38.1,72.1,37.7,71.6,37.7,71z"/>
		<path class="st1" d="M90,55.5c0-0.8,0.6-1.4,1.4-1.4c0.8,0,1.4,0.6,1.4,1.4c0,0.8-0.6,1.4-1.4,1.4C90.6,56.9,90,56.3,90,55.5z"/>
		<circle class="st2" cx="69.1" cy="58.2" r="1.3"/>
		<circle class="st1" cx="38.4" cy="41" r="1.4"/>
		<path class="st2" d="M30,65.4c0-0.6,0.5-1,1-1c0.6,0,1,0.5,1,1c0,0.6-0.5,1-1,1C30.4,66.5,30,66,30,65.4z"/>
		<path class="st1" d="M107.7,49.6c0-0.7,0.6-1.3,1.3-1.3c0.7,0,1.3,0.6,1.3,1.3c0,0.7-0.6,1.3-1.3,1.3
			C108.3,50.9,107.7,50.3,107.7,49.6z"/>
		<path class="st2" d="M85,44.5c0-0.6,0.5-1.1,1.1-1.1c0.6,0,1.1,0.5,1.1,1.1c0,0.6-0.5,1.1-1.1,1.1C85.5,45.6,85,45.1,85,44.5z"/>
		<path class="st1" d="M122.6,58.2c0-0.6,0.5-1.1,1.1-1.1c0.6,0,1.1,0.5,1.1,1.1c0,0.6-0.5,1.1-1.1,1.1
			C123.1,59.3,122.6,58.8,122.6,58.2z"/>
		<path class="st2" d="M73.6,64c0-0.5,0.4-0.9,0.9-0.9s0.9,0.4,0.9,0.9c0,0.5-0.4,0.9-0.9,0.9S73.6,64.4,73.6,64z"/>
		<path class="st1" d="M73.9,79.1c0-0.7,0.5-1.2,1.2-1.2c0.7,0,1.2,0.5,1.2,1.2c0,0.7-0.5,1.2-1.2,1.2
			C74.5,80.3,73.9,79.8,73.9,79.1z"/>
		<path class="st2" d="M53.5,33c0-0.9,0.7-1.6,1.6-1.6c0.9,0,1.6,0.7,1.6,1.6c0,0.9-0.7,1.6-1.6,1.6C54.2,34.6,53.5,33.9,53.5,33z"
			/>
		<circle class="st1" cx="39.3" cy="57.9" r="0.8"/>
		<circle class="st2" cx="37.4" cy="35" r="1.3"/>
		<circle class="st1" cx="94.7" cy="38.8" r="1.6"/>
		<circle class="st2" cx="59.1" cy="32.8" r="1.2"/>
		<circle class="st1" cx="69.9" cy="44.4" r="0.8"/>
		<circle class="st2" cx="51.4" cy="75.3" r="1.7"/>
		<path class="st1" d="M48.5,60.5c0-0.8,0.6-1.4,1.4-1.4c0.8,0,1.4,0.6,1.4,1.4c0,0.8-0.6,1.4-1.4,1.4
			C49.1,61.8,48.5,61.2,48.5,60.5z"/>
		<path class="st2" d="M15,59.4c0-0.8,0.7-1.5,1.5-1.5c0.8,0,1.5,0.7,1.5,1.5c0,0.8-0.7,1.5-1.5,1.5C15.7,60.9,15,60.2,15,59.4z"/>
		<circle class="st1" cx="118.1" cy="54.6" r="1"/>
		<circle class="st2" cx="116.9" cy="75.6" r="0.7"/>
		<path class="st1" d="M93.1,88.9c0-0.4,0.4-0.8,0.8-0.8c0.4,0,0.8,0.4,0.8,0.8c0,0.4-0.4,0.8-0.8,0.8
			C93.5,89.7,93.1,89.4,93.1,88.9z"/>
		<circle class="st2" cx="63.1" cy="24.8" r="1.1"/>
		<path class="st2" d="M34.8,57c0-0.5,0.4-0.9,0.9-0.9c0.5,0,0.9,0.4,0.9,0.9c0,0.5-0.4,0.9-0.9,0.9C35.2,57.8,34.8,57.4,34.8,57z"
			/>
		<circle class="st1" cx="82.1" cy="77.9" r="1.1"/>
		<path class="st2" d="M64.8,13.6c0-0.6,0.4-1,1-1c0.6,0,1,0.4,1,1c0,0.6-0.4,1-1,1C65.2,14.6,64.8,14.2,64.8,13.6z"/>
		<circle class="st1" cx="58.8" cy="40.1" r="1"/>
		<circle class="st2" cx="76.3" cy="42" r="1.1"/>
		<path class="st1" d="M78.1,56.2c0-0.6,0.5-1.1,1.1-1.1c0.6,0,1.1,0.5,1.1,1.1c0,0.6-0.5,1.1-1.1,1.1
			C78.6,57.3,78.1,56.8,78.1,56.2z"/>
		<circle class="st2" cx="118.7" cy="57.5" r="1"/>
		<path class="st2" d="M109.9,62.3c0-0.6,0.5-1.1,1.1-1.1s1.1,0.5,1.1,1.1c0,0.6-0.5,1.1-1.1,1.1S109.9,62.9,109.9,62.3z"/>
		<path class="st1" d="M36.5,44.5c0-0.6,0.5-1.2,1.2-1.2s1.2,0.5,1.2,1.2c0,0.6-0.5,1.2-1.2,1.2S36.5,45.1,36.5,44.5z"/>
		<path class="st2" d="M29.4,83.7c0-0.7,0.6-1.4,1.4-1.4c0.7,0,1.4,0.6,1.4,1.4c0,0.7-0.6,1.4-1.4,1.4C30,85.1,29.4,84.5,29.4,83.7z
			"/>
		<circle class="st1" cx="82" cy="13.2" r="1.2"/>
		<path class="st2" d="M43,42.6c0-0.5,0.4-1,1-1c0.5,0,1,0.4,1,1c0,0.5-0.4,1-1,1C43.5,43.6,43,43.1,43,42.6z"/>
		<circle class="st1" cx="52.1" cy="86.4" r="1.2"/>
		<path class="st2" d="M53.4,81.8c0-0.4,0.4-0.8,0.8-0.8c0.4,0,0.8,0.4,0.8,0.8s-0.4,0.8-0.8,0.8C53.7,82.6,53.4,82.2,53.4,81.8z"/>
		<path class="st1" d="M44.2,35.8c0-0.6,0.5-1.1,1.1-1.1s1.1,0.5,1.1,1.1s-0.5,1.1-1.1,1.1S44.2,36.4,44.2,35.8z"/>
		<circle class="st2" cx="44.9" cy="29.7" r="1.1"/>
		<path class="st1" d="M8.9,67.5c0-0.5,0.4-1,1-1c0.5,0,1,0.4,1,1c0,0.5-0.4,1-1,1C9.3,68.5,8.9,68,8.9,67.5z"/>
		<circle class="st2" cx="34.1" cy="60.6" r="1.3"/>
		<path class="st1" d="M73.9,71.7c0-0.5,0.4-0.9,0.9-0.9s0.9,0.4,0.9,0.9c0,0.5-0.4,0.9-0.9,0.9S73.9,72.2,73.9,71.7z"/>
		<circle class="st2" cx="33.3" cy="39" r="1.4"/>
		<circle class="st2" cx="68.4" cy="32.6" r="1.2"/>
		<path class="st1" d="M80.2,48.2c0-0.5,0.4-0.9,0.9-0.9c0.5,0,0.9,0.4,0.9,0.9c0,0.5-0.4,0.9-0.9,0.9
			C80.6,49.1,80.2,48.7,80.2,48.2z"/>
		<circle class="st2" cx="31.1" cy="58" r="1.2"/>
		<path class="st1" d="M45.4,21.7c0-0.6,0.5-1,1-1s1,0.5,1,1c0,0.6-0.5,1-1,1S45.4,22.3,45.4,21.7z"/>
		<path class="st2" d="M70.7,68.5c0-0.7,0.5-1.2,1.2-1.2c0.7,0,1.2,0.5,1.2,1.2c0,0.7-0.5,1.2-1.2,1.2
			C71.2,69.7,70.7,69.2,70.7,68.5z"/>
		<path class="st1" d="M119.5,76.1c0-0.4,0.3-0.8,0.8-0.8c0.4,0,0.8,0.3,0.8,0.8c0,0.4-0.3,0.8-0.8,0.8
			C119.9,76.9,119.5,76.5,119.5,76.1z"/>
		<path class="st2" d="M30.3,45c0-0.4,0.3-0.8,0.8-0.8s0.8,0.3,0.8,0.8c0,0.4-0.3,0.8-0.8,0.8S30.3,45.4,30.3,45z"/>
		<path class="st1" d="M94.5,75.3c0-0.5,0.4-0.9,0.9-0.9c0.5,0,0.9,0.4,0.9,0.9c0,0.5-0.4,0.9-0.9,0.9
			C94.9,76.2,94.5,75.8,94.5,75.3z"/>
		<circle class="st2" cx="126.7" cy="69.7" r="1.3"/>
		<path class="st2" d="M48.5,53.5c0-0.5,0.4-0.8,0.8-0.8c0.5,0,0.8,0.4,0.8,0.8c0,0.5-0.4,0.8-0.8,0.8
			C48.9,54.3,48.5,53.9,48.5,53.5z"/>
		<path class="st1" d="M44.1,27.6c0-0.7,0.5-1.2,1.2-1.2c0.7,0,1.2,0.5,1.2,1.2c0,0.7-0.5,1.2-1.2,1.2
			C44.7,28.8,44.1,28.3,44.1,27.6z"/>
		<path class="st2" d="M112.6,49.5c0-0.6,0.5-1.1,1.1-1.1c0.6,0,1.1,0.5,1.1,1.1s-0.5,1.1-1.1,1.1C113.1,50.6,112.6,50.1,112.6,49.5
			z"/>
		<path class="st1" d="M23,52.6c0-0.8,0.6-1.4,1.4-1.4c0.8,0,1.4,0.6,1.4,1.4c0,0.8-0.6,1.4-1.4,1.4C23.7,54,23,53.4,23,52.6z"/>
		<path class="st2" d="M99.5,47c0-0.5,0.4-0.9,0.9-0.9c0.5,0,0.9,0.4,0.9,0.9c0,0.5-0.4,0.9-0.9,0.9C99.9,47.9,99.5,47.5,99.5,47z"
			/>
		<path class="st1" d="M97.6,64.8c0-0.7,0.6-1.3,1.3-1.3s1.3,0.6,1.3,1.3c0,0.7-0.6,1.3-1.3,1.3S97.6,65.5,97.6,64.8z"/>
		<path class="st2" d="M97.4,33.4c0-0.7,0.6-1.3,1.3-1.3c0.7,0,1.3,0.6,1.3,1.3c0,0.7-0.6,1.3-1.3,1.3C98,34.7,97.4,34.1,97.4,33.4z
			"/>
		<path class="st2" d="M25,45.6c0-0.6,0.5-1.2,1.2-1.2c0.6,0,1.2,0.5,1.2,1.2c0,0.6-0.5,1.2-1.2,1.2C25.5,46.8,25,46.3,25,45.6z"/>
		<circle class="st1" cx="41.7" cy="62.3" r="1.4"/>
		<path class="st2" d="M19.3,82c0-0.7,0.6-1.2,1.2-1.2c0.7,0,1.2,0.6,1.2,1.2c0,0.7-0.6,1.2-1.2,1.2C19.8,83.2,19.3,82.6,19.3,82z"
			/>
		<path class="st1" d="M103.4,44.5c0-0.6,0.5-1.1,1.1-1.1c0.6,0,1.1,0.5,1.1,1.1c0,0.6-0.5,1.1-1.1,1.1
			C103.9,45.6,103.4,45.1,103.4,44.5z"/>
		<path class="st2" d="M21,75.2c0-0.4,0.3-0.8,0.8-0.8c0.4,0,0.8,0.3,0.8,0.8c0,0.4-0.3,0.8-0.8,0.8C21.3,76,21,75.6,21,75.2z"/>
		<path class="st2" d="M95.4,44.1c0-0.5,0.4-0.9,0.9-0.9c0.5,0,0.9,0.4,0.9,0.9c0,0.5-0.4,0.9-0.9,0.9C95.8,45,95.4,44.6,95.4,44.1z
			"/>
		<circle class="st1" cx="111.5" cy="67.7" r="1.1"/>
		<path class="st2" d="M46.4,22.6c0-0.5,0.4-1,1-1c0.5,0,1,0.4,1,1c0,0.5-0.4,1-1,1C46.9,23.6,46.4,23.2,46.4,22.6z"/>
		<path class="st1" d="M57.7,83.5c0-0.6,0.4-1,1-1c0.6,0,1,0.4,1,1c0,0.6-0.4,1-1,1C58.2,84.5,57.7,84,57.7,83.5z"/>
		<path class="st2" d="M100.1,86.5c0-0.8,0.7-1.5,1.5-1.5c0.8,0,1.5,0.7,1.5,1.5c0,0.8-0.7,1.5-1.5,1.5
			C100.8,88,100.1,87.3,100.1,86.5z"/>
		<circle class="st1" cx="10.6" cy="59.4" r="1"/>
		<circle class="st2" cx="75.2" cy="46.9" r="1.4"/>
		<path class="st1" d="M64.2,26.8c0-0.7,0.6-1.3,1.3-1.3c0.7,0,1.3,0.6,1.3,1.3c0,0.7-0.6,1.3-1.3,1.3
			C64.8,28.1,64.2,27.5,64.2,26.8z"/>
		<path class="st2" d="M23.3,50.2c0-0.7,0.6-1.3,1.3-1.3s1.3,0.6,1.3,1.3c0,0.7-0.6,1.3-1.3,1.3S23.3,51,23.3,50.2z"/>
		<path class="st1" d="M49.6,33.4c0-0.6,0.5-1.1,1.1-1.1c0.6,0,1.1,0.5,1.1,1.1c0,0.6-0.5,1.1-1.1,1.1C50.1,34.5,49.6,34,49.6,33.4z
			"/>
		<circle class="st2" cx="41.5" cy="50.9" r="1.3"/>
		<circle class="st1" cx="59" cy="18.2" r="1.5"/>
		<circle class="st2" cx="72.4" cy="55.5" r="1.3"/>
		<path class="st1" d="M42.5,68.7c0-0.5,0.4-0.9,0.9-0.9c0.5,0,0.9,0.4,0.9,0.9s-0.4,0.9-0.9,0.9C42.9,69.6,42.5,69.2,42.5,68.7z"/>
		<path class="st2" d="M108.2,53.3c0-0.5,0.4-0.8,0.8-0.8c0.5,0,0.8,0.4,0.8,0.8c0,0.5-0.4,0.8-0.8,0.8
			C108.6,54.1,108.2,53.8,108.2,53.3z"/>
		<path class="st1" d="M80,87.8c0-0.5,0.4-0.9,0.9-0.9c0.5,0,0.9,0.4,0.9,0.9c0,0.5-0.4,0.9-0.9,0.9C80.4,88.7,80,88.3,80,87.8z"/>
		<path class="st2" d="M50.6,27.9c0-1,0.8-1.8,1.8-1.8c1,0,1.8,0.8,1.8,1.8c0,1-0.8,1.8-1.8,1.8C51.4,29.7,50.6,28.9,50.6,27.9z"/>
		<path class="st2" d="M31.3,74c0-0.6,0.5-1.2,1.2-1.2c0.6,0,1.2,0.5,1.2,1.2c0,0.6-0.5,1.2-1.2,1.2C31.9,75.2,31.3,74.7,31.3,74z"
			/>
		<path class="st1" d="M65.9,50.7c0-0.5,0.4-0.8,0.8-0.8c0.5,0,0.8,0.4,0.8,0.8c0,0.5-0.4,0.8-0.8,0.8
			C66.3,51.5,65.9,51.1,65.9,50.7z"/>
		<circle class="st2" cx="77.8" cy="37.7" r="1"/>
		<path class="st1" d="M20.9,52.5c0-0.6,0.5-1.1,1.1-1.1S23,52,23,52.5c0,0.6-0.5,1.1-1.1,1.1S20.9,53.1,20.9,52.5z"/>
		<circle class="st2" cx="86.4" cy="66.8" r="1.1"/>
		<path class="st1" d="M62.5,9.3c0-0.7,0.6-1.3,1.3-1.3c0.7,0,1.3,0.6,1.3,1.3s-0.6,1.3-1.3,1.3C63.1,10.6,62.5,10.1,62.5,9.3z"/>
		<path class="st2" d="M94.8,64.4c0-0.5,0.4-0.9,0.9-0.9s0.9,0.4,0.9,0.9s-0.4,0.9-0.9,0.9S94.8,64.9,94.8,64.4z"/>
		<path class="st1" d="M68.4,24.9c0-0.9,0.7-1.6,1.6-1.6c0.9,0,1.6,0.7,1.6,1.6c0,0.9-0.7,1.6-1.6,1.6
			C69.1,26.5,68.4,25.8,68.4,24.9z"/>
		<path class="st2" d="M30.7,79.3c0-0.6,0.4-1,1-1c0.6,0,1,0.4,1,1s-0.4,1-1,1C31.1,80.3,30.7,79.8,30.7,79.3z"/>
		<path class="st1" d="M87.8,37.7c0-0.6,0.5-1.1,1.1-1.1c0.6,0,1.1,0.5,1.1,1.1c0,0.6-0.5,1.1-1.1,1.1
			C88.3,38.8,87.8,38.3,87.8,37.7z"/>
		<circle class="st2" cx="67" cy="78.7" r="1.5"/>
		<path class="st1" d="M83.1,41.7c0-0.5,0.4-0.9,0.9-0.9s0.9,0.4,0.9,0.9s-0.4,0.9-0.9,0.9S83.1,42.2,83.1,41.7z"/>
		<path class="st2" d="M4.4,69c0-0.5,0.4-0.9,0.9-0.9c0.5,0,0.9,0.4,0.9,0.9c0,0.5-0.4,0.9-0.9,0.9C4.8,69.9,4.4,69.5,4.4,69z"/>
		<path class="st2" d="M18.9,58.6c0-0.5,0.4-0.8,0.8-0.8s0.8,0.4,0.8,0.8c0,0.5-0.4,0.8-0.8,0.8S18.9,59,18.9,58.6z"/>
		<path class="st1" d="M116.9,63.5c0-0.6,0.5-1.1,1.1-1.1c0.6,0,1.1,0.5,1.1,1.1c0,0.6-0.5,1.1-1.1,1.1
			C117.4,64.6,116.9,64.1,116.9,63.5z"/>
		<path class="st2" d="M46.1,74.4c0-0.6,0.5-1.1,1.1-1.1c0.6,0,1.1,0.5,1.1,1.1c0,0.6-0.5,1.1-1.1,1.1C46.6,75.5,46.1,75,46.1,74.4z
			"/>
		<path class="st1" d="M15.8,50.9c0-0.6,0.5-1,1-1c0.6,0,1,0.5,1,1c0,0.6-0.5,1-1,1C16.3,52,15.8,51.5,15.8,50.9z"/>
		<path class="st2" d="M57.2,62.2c0-0.8,0.6-1.4,1.4-1.4s1.4,0.6,1.4,1.4c0,0.8-0.6,1.4-1.4,1.4S57.2,63,57.2,62.2z"/>
		<path class="st1" d="M71.4,42.7c0-0.6,0.5-1,1-1c0.6,0,1,0.5,1,1s-0.5,1-1,1C71.8,43.7,71.4,43.2,71.4,42.7z"/>
		<path class="st2" d="M81.2,32.5c0-0.7,0.6-1.3,1.3-1.3s1.3,0.6,1.3,1.3c0,0.7-0.6,1.3-1.3,1.3S81.2,33.2,81.2,32.5z"/>
		<path class="st1" d="M24.3,80.9c0-0.6,0.5-1.1,1.1-1.1c0.6,0,1.1,0.5,1.1,1.1c0,0.6-0.5,1.1-1.1,1.1C24.8,82,24.3,81.5,24.3,80.9z
			"/>
		<circle class="st2" cx="98.5" cy="30.5" r="1.3"/>
		<path class="st1" d="M84.1,50c0-0.5,0.4-1,1-1c0.5,0,1,0.4,1,1s-0.4,1-1,1C84.6,51,84.1,50.6,84.1,50z"/>
		<path class="st2" d="M49.1,18.3c0-0.5,0.4-1,1-1c0.5,0,1,0.4,1,1c0,0.5-0.4,1-1,1C49.6,19.2,49.1,18.8,49.1,18.3z"/>
		<path class="st2" d="M25.1,68.6c0-0.7,0.6-1.3,1.3-1.3s1.3,0.6,1.3,1.3s-0.6,1.3-1.3,1.3S25.1,69.3,25.1,68.6z"/>
		<path class="st1" d="M49,44.2c0-0.5,0.4-1,1-1c0.5,0,1,0.4,1,1c0,0.5-0.4,1-1,1C49.4,45.2,49,44.8,49,44.2z"/>
		<path class="st2" d="M59.2,44.8c0-0.5,0.4-1,1-1c0.5,0,1,0.4,1,1c0,0.5-0.4,1-1,1C59.6,45.7,59.2,45.3,59.2,44.8z"/>
		<circle class="st1" cx="85" cy="59.4" r="0.7"/>
		<circle class="st2" cx="37.1" cy="82.7" r="1"/>
		<path class="st1" d="M66.9,65.3c0-0.8,0.7-1.5,1.5-1.5c0.8,0,1.5,0.7,1.5,1.5c0,0.8-0.7,1.5-1.5,1.5
			C67.5,66.7,66.9,66.1,66.9,65.3z"/>
		<path class="st2" d="M42.7,66.5c0-0.6,0.5-1.1,1.1-1.1c0.6,0,1.1,0.5,1.1,1.1c0,0.6-0.5,1.1-1.1,1.1
			C43.2,67.7,42.7,67.2,42.7,66.5z"/>
		<path class="st1" d="M68.9,16.4c0-0.6,0.5-1,1-1c0.6,0,1,0.5,1,1c0,0.6-0.5,1-1,1C69.4,17.4,68.9,16.9,68.9,16.4z"/>
		<path class="st2" d="M58.7,70.6c0-0.7,0.5-1.2,1.2-1.2s1.2,0.5,1.2,1.2c0,0.7-0.5,1.2-1.2,1.2S58.7,71.2,58.7,70.6z"/>
		<circle class="st1" cx="21" cy="62.4" r="0.9"/>
		<path class="st2" d="M105.7,39.8c0-0.5,0.4-0.9,0.9-0.9s0.9,0.4,0.9,0.9c0,0.5-0.4,0.9-0.9,0.9S105.7,40.3,105.7,39.8z"/>
		<circle class="st1" cx="47.6" cy="70.6" r="1.3"/>
		<circle class="st2" cx="96.2" cy="80.3" r="0.8"/>
		<path class="st1" d="M36.1,31.9c0-0.6,0.5-1.2,1.2-1.2c0.6,0,1.2,0.5,1.2,1.2c0,0.6-0.5,1.2-1.2,1.2
			C36.6,33.1,36.1,32.6,36.1,31.9z"/>
		<path class="st2" d="M54.5,43.3c0-0.5,0.4-0.9,0.9-0.9c0.5,0,0.9,0.4,0.9,0.9c0,0.5-0.4,0.9-0.9,0.9
			C54.9,44.2,54.5,43.8,54.5,43.3z"/>
		<circle class="st1" cx="59.5" cy="57.8" r="1.3"/>
		<circle class="st2" cx="92.3" cy="43.8" r="1.6"/>
		<path class="st1" d="M39.7,42.8c0-0.8,0.6-1.4,1.4-1.4c0.8,0,1.4,0.6,1.4,1.4c0,0.8-0.6,1.4-1.4,1.4
			C40.3,44.2,39.7,43.6,39.7,42.8z"/>
		<circle class="st2" cx="91.5" cy="31.1" r="0.9"/>
		<path class="st1" d="M87.1,58.5c0-0.6,0.5-1.1,1.1-1.1c0.6,0,1.1,0.5,1.1,1.1c0,0.6-0.5,1.1-1.1,1.1C87.6,59.5,87.1,59,87.1,58.5z
			"/>
		<path class="st2" d="M80.5,49.2c0-0.6,0.5-1.1,1.1-1.1c0.6,0,1.1,0.5,1.1,1.1s-0.5,1.1-1.1,1.1C80.9,50.3,80.5,49.8,80.5,49.2z"/>
		<path class="st1" d="M53.5,71.6c0-0.5,0.4-0.9,0.9-0.9c0.5,0,0.9,0.4,0.9,0.9c0,0.5-0.4,0.9-0.9,0.9
			C53.9,72.5,53.5,72.1,53.5,71.6z"/>
		<circle class="st2" cx="96.1" cy="57.1" r="1.1"/>
		<circle class="st1" cx="68.1" cy="86.7" r="1.3"/>
		<circle class="st2" cx="84.1" cy="26.7" r="1.3"/>
		<path class="st1" d="M32,65.9c0-0.7,0.6-1.2,1.2-1.2s1.2,0.6,1.2,1.2s-0.6,1.2-1.2,1.2S32,66.6,32,65.9z"/>
		<path class="st1" d="M72.5,36.4c0-0.7,0.6-1.4,1.4-1.4c0.7,0,1.4,0.6,1.4,1.4s-0.6,1.4-1.4,1.4C73.1,37.7,72.5,37.1,72.5,36.4z"/>
		<circle class="st2" cx="128.6" cy="63.8" r="1.2"/>
		<path class="st1" d="M67.6,38.3c0-0.5,0.4-0.8,0.8-0.8s0.8,0.4,0.8,0.8c0,0.5-0.4,0.8-0.8,0.8S67.6,38.8,67.6,38.3z"/>
		<path class="st2" d="M87.2,31.6c0-0.7,0.6-1.3,1.3-1.3c0.7,0,1.3,0.6,1.3,1.3c0,0.7-0.6,1.3-1.3,1.3
			C87.8,32.9,87.2,32.3,87.2,31.6z"/>
		<path class="st1" d="M51.5,59.3c0-0.6,0.5-1,1-1c0.6,0,1,0.5,1,1c0,0.6-0.5,1-1,1C52,60.3,51.5,59.9,51.5,59.3z"/>
		<path class="st2" d="M96.7,75.2c0-0.9,0.7-1.6,1.6-1.6s1.6,0.7,1.6,1.6s-0.7,1.6-1.6,1.6S96.7,76.1,96.7,75.2z"/>
		<path class="st1" d="M114.5,58c0-0.5,0.4-0.9,0.9-0.9s0.9,0.4,0.9,0.9s-0.4,0.9-0.9,0.9S114.5,58.5,114.5,58z"/>
		<path class="st2" d="M112.6,73.5c0-0.6,0.5-1.1,1.1-1.1c0.6,0,1.1,0.5,1.1,1.1c0,0.6-0.5,1.1-1.1,1.1
			C113.1,74.6,112.6,74.1,112.6,73.5z"/>
		<circle class="st1" cx="91.7" cy="88" r="0.8"/>
		<path class="st2" d="M59.2,21.4c0-0.5,0.4-0.9,0.9-0.9c0.5,0,0.9,0.4,0.9,0.9c0,0.5-0.4,0.9-0.9,0.9
			C59.6,22.3,59.2,21.9,59.2,21.4z"/>
		<circle class="st2" cx="33.4" cy="54" r="1.2"/>
		<path class="st1" d="M89.4,26.1c0-0.4,0.3-0.8,0.8-0.8c0.4,0,0.8,0.3,0.8,0.8s-0.3,0.8-0.8,0.8C89.7,26.9,89.4,26.6,89.4,26.1z"/>
		<path class="st2" d="M40.8,39.3c0-0.7,0.6-1.2,1.2-1.2c0.7,0,1.2,0.6,1.2,1.2c0,0.7-0.6,1.2-1.2,1.2C41.3,40.6,40.8,40,40.8,39.3z
			"/>
		<path class="st1" d="M37.4,78.8c0-0.6,0.5-1,1-1c0.6,0,1,0.5,1,1c0,0.6-0.5,1-1,1C37.8,79.9,37.4,79.4,37.4,78.8z"/>
		<path class="st2" d="M97.2,59.8c0-0.6,0.5-1.1,1.1-1.1c0.6,0,1.1,0.5,1.1,1.1c0,0.6-0.5,1.1-1.1,1.1
			C97.7,60.9,97.2,60.4,97.2,59.8z"/>
		<path class="st1" d="M74,52.2c0-0.7,0.5-1.2,1.2-1.2c0.7,0,1.2,0.5,1.2,1.2s-0.5,1.2-1.2,1.2C74.6,53.4,74,52.9,74,52.2z"/>
		<path class="st2" d="M106.1,80.2c0-0.6,0.5-1,1-1c0.6,0,1,0.5,1,1c0,0.6-0.5,1-1,1C106.6,81.3,106.1,80.8,106.1,80.2z"/>
		<path class="st2" d="M89.3,54c0-0.5,0.4-0.9,0.9-0.9c0.5,0,0.9,0.4,0.9,0.9c0,0.5-0.4,0.9-0.9,0.9C89.7,55,89.3,54.6,89.3,54z"/>
		<path class="st1" d="M36.3,46.9c0-0.5,0.4-0.9,0.9-0.9c0.5,0,0.9,0.4,0.9,0.9c0,0.5-0.4,0.9-0.9,0.9
			C36.7,47.8,36.3,47.4,36.3,46.9z"/>
		<circle class="st2" cx="34.8" cy="31.3" r="1.5"/>
		<circle class="st1" cx="55.6" cy="39.1" r="0.8"/>
		<path class="st2" d="M17.6,74.4c0-0.6,0.5-1,1-1c0.6,0,1,0.5,1,1c0,0.6-0.5,1-1,1C18,75.4,17.6,74.9,17.6,74.4z"/>
		<path class="st1" d="M53.7,65.4c0-0.8,0.7-1.5,1.5-1.5s1.5,0.7,1.5,1.5c0,0.8-0.7,1.5-1.5,1.5S53.7,66.3,53.7,65.4z"/>
		<circle class="st2" cx="45.9" cy="82.3" r="0.8"/>
		<path class="st1" d="M87.4,33.4c0-0.6,0.5-1.1,1.1-1.1s1.1,0.5,1.1,1.1s-0.5,1.1-1.1,1.1S87.4,34,87.4,33.4z"/>
		<path class="st2" d="M45.4,32.6c0-0.4,0.3-0.7,0.7-0.7c0.4,0,0.7,0.3,0.7,0.7c0,0.4-0.3,0.7-0.7,0.7C45.8,33.3,45.4,33,45.4,32.6z
			"/>
		<path class="st1" d="M10.5,70.5c0-0.4,0.4-0.8,0.8-0.8c0.4,0,0.8,0.4,0.8,0.8s-0.4,0.8-0.8,0.8C10.8,71.3,10.5,70.9,10.5,70.5z"/>
		<path class="st2" d="M67.6,6.9c0-0.8,0.6-1.4,1.4-1.4c0.8,0,1.4,0.6,1.4,1.4c0,0.8-0.6,1.4-1.4,1.4C68.2,8.3,67.6,7.6,67.6,6.9z"
			/>
		<circle class="st1" cx="43.5" cy="30.1" r="0.8"/>
		<path class="st2" d="M65.2,18.3c0-0.8,0.6-1.4,1.4-1.4c0.8,0,1.4,0.6,1.4,1.4c0,0.8-0.6,1.4-1.4,1.4C65.8,19.7,65.2,19,65.2,18.3z
			"/>
		<circle class="st2" cx="83.4" cy="82" r="1.3"/>
		<path class="st1" d="M76.8,50.5c0-0.5,0.4-0.9,0.9-0.9c0.5,0,0.9,0.4,0.9,0.9c0,0.5-0.4,0.9-0.9,0.9
			C77.2,51.3,76.8,50.9,76.8,50.5z"/>
		<path class="st2" d="M68,49.7c0-0.8,0.6-1.4,1.4-1.4s1.4,0.6,1.4,1.4c0,0.8-0.6,1.4-1.4,1.4S68,50.5,68,49.7z"/>
		<circle class="st1" cx="51.9" cy="19" r="1"/>
		<path class="st2" d="M36.4,50c0-0.6,0.5-1.1,1.1-1.1c0.6,0,1.1,0.5,1.1,1.1c0,0.6-0.5,1.1-1.1,1.1C36.9,51.1,36.4,50.6,36.4,50z"
			/>
		<path class="st1" d="M92,67.9c0-0.5,0.4-0.9,0.9-0.9c0.5,0,0.9,0.4,0.9,0.9s-0.4,0.9-0.9,0.9C92.4,68.7,92,68.3,92,67.9z"/>
		<path class="st2" d="M95.7,77.9c0-0.5,0.4-1,1-1c0.5,0,1,0.4,1,1c0,0.5-0.4,1-1,1C96.1,78.9,95.7,78.5,95.7,77.9z"/>
		<path class="st1" d="M92.1,61.9c0-0.5,0.4-0.9,0.9-0.9s0.9,0.4,0.9,0.9s-0.4,0.9-0.9,0.9S92.1,62.4,92.1,61.9z"/>
		<circle class="st2" cx="59.1" cy="81.7" r="1.3"/>
		<path class="st2" d="M49.7,70.3c0-0.5,0.4-1,1-1c0.5,0,1,0.4,1,1c0,0.5-0.4,1-1,1C50.1,71.3,49.7,70.8,49.7,70.3z"/>
		<path class="st1" d="M59.7,37.9c0-0.6,0.5-1,1-1c0.6,0,1,0.5,1,1c0,0.6-0.5,1-1,1C60.2,39,59.7,38.5,59.7,37.9z"/>
		<circle class="st2" cx="71.4" cy="39.3" r="1.1"/>
		<path class="st1" d="M29.3,53.2c0-0.7,0.5-1.2,1.2-1.2c0.7,0,1.2,0.5,1.2,1.2c0,0.7-0.5,1.2-1.2,1.2
			C29.8,54.4,29.3,53.9,29.3,53.2z"/>
		<path class="st2" d="M91,79.1c0-0.6,0.5-1.1,1.1-1.1c0.6,0,1.1,0.5,1.1,1.1c0,0.6-0.5,1.1-1.1,1.1C91.5,80.2,91,79.7,91,79.1z"/>
		<path class="st1" d="M62.9,79.4c0-0.7,0.6-1.2,1.2-1.2c0.7,0,1.2,0.6,1.2,1.2c0,0.7-0.6,1.2-1.2,1.2
			C63.4,80.7,62.9,80.1,62.9,79.4z"/>
		<circle class="st2" cx="86.4" cy="39.4" r="1.2"/>
		<path class="st2" d="M55.3,76.3c0-0.7,0.5-1.2,1.2-1.2c0.7,0,1.2,0.5,1.2,1.2c0,0.7-0.5,1.2-1.2,1.2C55.8,77.5,55.3,77,55.3,76.3z
			"/>
		<path class="st1" d="M108.3,73.3c0-0.7,0.6-1.3,1.3-1.3c0.7,0,1.3,0.6,1.3,1.3c0,0.7-0.6,1.3-1.3,1.3
			C108.9,74.6,108.3,74,108.3,73.3z"/>
		<circle class="st2" cx="13.4" cy="75.9" r="1.1"/>
		<circle class="st1" cx="100.7" cy="54.9" r="0.9"/>
		<circle class="st2" cx="27.1" cy="75.6" r="1.1"/>
		<path class="st2" d="M97.9,83.2c0-0.5,0.4-0.9,0.9-0.9c0.5,0,0.9,0.4,0.9,0.9c0,0.5-0.4,0.9-0.9,0.9
			C98.3,84.1,97.9,83.7,97.9,83.2z"/>
		<circle class="st1" cx="112.3" cy="63.5" r="1"/>
		<circle class="st2" cx="39.2" cy="26.1" r="0.8"/>
		<path class="st1" d="M47.4,49.1c0-0.6,0.5-1.1,1.1-1.1c0.6,0,1.1,0.5,1.1,1.1c0,0.6-0.5,1.1-1.1,1.1
			C47.9,50.2,47.4,49.7,47.4,49.1z"/>
		<path class="st2" d="M70.8,23.3c0-0.8,0.7-1.5,1.5-1.5c0.8,0,1.5,0.7,1.5,1.5c0,0.8-0.7,1.5-1.5,1.5
			C71.4,24.8,70.8,24.1,70.8,23.3z"/>
		<path class="st1" d="M42,49.5c0-0.6,0.5-1.1,1.1-1.1c0.6,0,1.1,0.5,1.1,1.1c0,0.6-0.5,1.1-1.1,1.1C42.5,50.6,42,50.1,42,49.5z"/>
		<circle class="st2" cx="91" cy="23" r="1.3"/>
		<path class="st1" d="M70.9,27.9c0-0.8,0.7-1.5,1.5-1.5c0.8,0,1.5,0.7,1.5,1.5c0,0.8-0.7,1.5-1.5,1.5
			C71.5,29.4,70.9,28.7,70.9,27.9z"/>
		<path class="st2" d="M65,27.1c0-0.8,0.7-1.5,1.5-1.5s1.5,0.7,1.5,1.5c0,0.8-0.7,1.5-1.5,1.5S65,27.9,65,27.1z"/>
		<circle class="st1" cx="6.8" cy="74" r="1"/>
		<circle class="st2" cx="97.6" cy="52.7" r="1.3"/>
		<path class="st1" d="M58.9,12.8c0-0.8,0.6-1.4,1.4-1.4c0.8,0,1.4,0.6,1.4,1.4c0,0.8-0.6,1.4-1.4,1.4
			C59.5,14.2,58.9,13.6,58.9,12.8z"/>
		<path class="st2" d="M58.7,90.9c0-0.7,0.6-1.2,1.2-1.2c0.7,0,1.2,0.6,1.2,1.2c0,0.7-0.6,1.2-1.2,1.2
			C59.3,92.1,58.7,91.5,58.7,90.9z"/>
		<path class="st1" d="M77.3,67.1c0-0.4,0.3-0.7,0.7-0.7c0.4,0,0.7,0.3,0.7,0.7c0,0.4-0.3,0.7-0.7,0.7
			C77.6,67.8,77.3,67.5,77.3,67.1z"/>
		<path class="st2" d="M99.3,69.1c0-0.4,0.4-0.8,0.8-0.8c0.4,0,0.8,0.4,0.8,0.8c0,0.4-0.4,0.8-0.8,0.8
			C99.7,69.8,99.3,69.5,99.3,69.1z"/>
		<circle class="st1" cx="81.9" cy="82.5" r="0.9"/>
		<path class="st2" d="M62.9,87c0-0.7,0.5-1.2,1.2-1.2c0.7,0,1.2,0.5,1.2,1.2c0,0.7-0.5,1.2-1.2,1.2C63.5,88.2,62.9,87.6,62.9,87z"
			/>
		<path class="st2" d="M14.9,70c0-0.5,0.4-0.9,0.9-0.9c0.5,0,0.9,0.4,0.9,0.9s-0.4,0.9-0.9,0.9C15.3,70.9,14.9,70.5,14.9,70z"/>
		<circle class="st1" cx="64.6" cy="53.7" r="1"/>
		<circle class="st2" cx="112" cy="56" r="1.1"/>
		<path class="st1" d="M18.9,54.5c0-0.6,0.5-1.1,1.1-1.1s1.1,0.5,1.1,1.1c0,0.6-0.5,1.1-1.1,1.1S18.9,55.1,18.9,54.5z"/>
		<path class="st2" d="M73.1,76.4c0-0.6,0.4-1,1-1c0.6,0,1,0.4,1,1c0,0.6-0.4,1-1,1C73.6,77.4,73.1,77,73.1,76.4z"/>
		<path class="st1" d="M76.3,19c0-0.7,0.5-1.2,1.2-1.2c0.7,0,1.2,0.5,1.2,1.2c0,0.7-0.5,1.2-1.2,1.2C76.8,20.2,76.3,19.7,76.3,19z"
			/>
		<path class="st2" d="M101.4,60.3c0-0.5,0.4-1,1-1c0.5,0,1,0.4,1,1s-0.4,1-1,1C101.8,61.3,101.4,60.8,101.4,60.3z"/>
		<circle class="st1" cx="101.1" cy="37.7" r="1.5"/>
		<path class="st2" d="M39.3,75.9c0-0.6,0.5-1,1-1s1,0.5,1,1c0,0.6-0.5,1-1,1S39.3,76.5,39.3,75.9z"/>
		<circle class="st1" cx="24.2" cy="46.6" r="1.5"/>
		<path class="st2" d="M56.2,28.2c0-0.6,0.5-1.1,1.1-1.1c0.6,0,1.1,0.5,1.1,1.1s-0.5,1.1-1.1,1.1C56.7,29.3,56.2,28.8,56.2,28.2z"/>
		<path class="st1" d="M100.1,79.4c0-0.5,0.4-0.9,0.9-0.9c0.5,0,0.9,0.4,0.9,0.9c0,0.5-0.4,0.9-0.9,0.9
			C100.5,80.4,100.1,79.9,100.1,79.4z"/>
		<circle class="st2" cx="11" cy="62.8" r="1.1"/>
		<circle class="st2" cx="64.4" cy="82.3" r="0.9"/>
		<path class="st1" d="M124.9,68c0-0.7,0.6-1.3,1.3-1.3c0.7,0,1.3,0.6,1.3,1.3c0,0.7-0.6,1.3-1.3,1.3
			C125.4,69.3,124.9,68.7,124.9,68z"/>
		<path class="st2" d="M55.4,34.9c0-0.5,0.4-1,1-1c0.5,0,1,0.4,1,1c0,0.5-0.4,1-1,1C55.8,35.8,55.4,35.4,55.4,34.9z"/>
		<circle class="st1" cx="14" cy="68.9" r="1"/>
		<path class="st2" d="M70.7,13.2c0-0.6,0.5-1.1,1.1-1.1s1.1,0.5,1.1,1.1c0,0.6-0.5,1.1-1.1,1.1S70.7,13.8,70.7,13.2z"/>
		<path class="st1" d="M92.5,51.3c0-0.6,0.5-1.1,1.1-1.1c0.6,0,1.1,0.5,1.1,1.1c0,0.6-0.5,1.1-1.1,1.1
			C92.9,52.3,92.5,51.9,92.5,51.3z"/>
		<path class="st2" d="M87.8,73.2c0-0.7,0.6-1.3,1.3-1.3c0.7,0,1.3,0.6,1.3,1.3s-0.6,1.3-1.3,1.3C88.4,74.5,87.8,73.9,87.8,73.2z"/>
		<path class="st1" d="M36.5,66.3c0-0.7,0.6-1.3,1.3-1.3c0.7,0,1.3,0.6,1.3,1.3s-0.6,1.3-1.3,1.3C37,67.5,36.5,67,36.5,66.3z"/>
		<circle class="st2" cx="88.8" cy="77.8" r="1.2"/>
		<path class="st1" d="M114,70.2c0-0.5,0.4-0.8,0.8-0.8c0.5,0,0.8,0.4,0.8,0.8s-0.4,0.8-0.8,0.8C114.4,71.1,114,70.7,114,70.2z"/>
		<path class="st2" d="M62,8.1c0-0.6,0.5-1,1-1s1,0.5,1,1c0,0.6-0.5,1-1,1S62,8.7,62,8.1z"/>
		<circle class="st2" cx="119.7" cy="59.4" r="1.3"/>
		<path class="st1" d="M87.1,61.9c0-0.6,0.5-1,1-1c0.6,0,1,0.5,1,1c0,0.6-0.5,1-1,1C87.6,62.9,87.1,62.5,87.1,61.9z"/>
		<path class="st2" d="M107.4,70.8c0-0.5,0.4-0.9,0.9-0.9c0.5,0,0.9,0.4,0.9,0.9s-0.4,0.9-0.9,0.9C107.8,71.6,107.4,71.2,107.4,70.8
			z"/>
		<path class="st1" d="M102.7,58.9c0-0.5,0.4-0.9,0.9-0.9c0.5,0,0.9,0.4,0.9,0.9s-0.4,0.9-0.9,0.9C103.1,59.8,102.7,59.4,102.7,58.9
			z"/>
		<path class="st2" d="M9.4,74.4c0-0.6,0.5-1,1-1c0.6,0,1,0.5,1,1c0,0.6-0.5,1-1,1C9.9,75.4,9.4,75,9.4,74.4z"/>
		<path class="st1" d="M33.3,73.8c0-0.7,0.6-1.3,1.3-1.3c0.7,0,1.3,0.6,1.3,1.3c0,0.7-0.6,1.3-1.3,1.3
			C33.9,75.1,33.3,74.5,33.3,73.8z"/>
		<circle class="st2" cx="40.8" cy="59.4" r="1"/>
		<path class="st1" d="M56.6,25.7c0-0.7,0.6-1.3,1.3-1.3c0.7,0,1.3,0.6,1.3,1.3c0,0.7-0.6,1.3-1.3,1.3C57.2,27,56.6,26.4,56.6,25.7z
			"/>
		<circle class="st2" cx="52.7" cy="71" r="1.2"/>
		<path class="st1" d="M21.5,63.8c0-0.6,0.5-1.1,1.1-1.1c0.6,0,1.1,0.5,1.1,1.1c0,0.6-0.5,1.1-1.1,1.1C22,64.9,21.5,64.4,21.5,63.8z
			"/>
		<path class="st2" d="M100.8,42.3c0-0.5,0.4-0.9,0.9-0.9c0.5,0,0.9,0.4,0.9,0.9c0,0.5-0.4,0.9-0.9,0.9
			C101.2,43.2,100.8,42.8,100.8,42.3z"/>
		<circle class="st1" cx="77.3" cy="61.6" r="1.1"/>
		<circle class="st2" cx="79.8" cy="76.1" r="0.9"/>
		<path class="st1" d="M56.1,51.3c0-0.7,0.6-1.2,1.2-1.2c0.7,0,1.2,0.6,1.2,1.2c0,0.7-0.6,1.2-1.2,1.2C56.7,52.6,56.1,52,56.1,51.3z
			"/>
		<circle class="st2" cx="80.8" cy="87.2" r="0.9"/>
		<path class="st1" d="M81.3,34.3c0-0.7,0.5-1.2,1.2-1.2s1.2,0.5,1.2,1.2c0,0.7-0.5,1.2-1.2,1.2S81.3,34.9,81.3,34.3z"/>
		<path class="st2" d="M61.3,54.5c0-0.8,0.6-1.4,1.4-1.4c0.8,0,1.4,0.6,1.4,1.4c0,0.8-0.6,1.4-1.4,1.4
			C61.9,55.9,61.3,55.3,61.3,54.5z"/>
		<path class="st1" d="M52.9,55.7c0-0.8,0.6-1.4,1.4-1.4c0.8,0,1.4,0.6,1.4,1.4s-0.6,1.4-1.4,1.4C53.5,57.1,52.9,56.4,52.9,55.7z"/>
		<path class="st2" d="M27.2,66.1c0-0.5,0.4-1,1-1c0.5,0,1,0.4,1,1c0,0.5-0.4,1-1,1C27.6,67.1,27.2,66.7,27.2,66.1z"/>
		<path class="st1" d="M84,53.3c0-0.9,0.7-1.5,1.5-1.5c0.9,0,1.5,0.7,1.5,1.5s-0.7,1.5-1.5,1.5C84.7,54.8,84,54.1,84,53.3z"/>
		<circle class="st2" cx="68.7" cy="54.1" r="0.9"/>
		<circle class="st1" cx="122.2" cy="56.5" r="1.1"/>
		<path class="st2" d="M107.2,68.6c0-0.4,0.3-0.8,0.8-0.8c0.4,0,0.8,0.3,0.8,0.8s-0.3,0.8-0.8,0.8C107.5,69.4,107.2,69,107.2,68.6z"
			/>
		<path class="st1" d="M71.9,77.5c0-0.7,0.5-1.2,1.2-1.2c0.7,0,1.2,0.5,1.2,1.2c0,0.7-0.5,1.2-1.2,1.2
			C72.4,78.7,71.9,78.1,71.9,77.5z"/>
		<circle class="st2" cx="72.6" cy="61" r="1.4"/>
		<circle class="st1" cx="39" cy="54.3" r="0.8"/>
		<circle class="st2" cx="28.9" cy="48" r="1.4"/>
		<path class="st1" d="M90.6,36.4c0-0.8,0.7-1.5,1.5-1.5s1.5,0.7,1.5,1.5c0,0.8-0.7,1.5-1.5,1.5S90.6,37.2,90.6,36.4z"/>
		<circle class="st2" cx="79.7" cy="25.4" r="1.2"/>
		<path class="st1" d="M60.6,35.7c0-0.5,0.4-1,1-1s1,0.4,1,1c0,0.5-0.4,1-1,1S60.6,36.3,60.6,35.7z"/>
		<circle class="st2" cx="74" cy="81.5" r="1.6"/>
		<circle class="st1" cx="15.1" cy="55" r="1.1"/>
		<path class="st2" d="M24.2,72.3c0-0.8,0.7-1.5,1.5-1.5s1.5,0.7,1.5,1.5c0,0.8-0.7,1.5-1.5,1.5S24.2,73.1,24.2,72.3z"/>
		<circle class="st1" cx="116.1" cy="53.8" r="0.9"/>
		<path class="st2" d="M117.3,74.8c0-0.4,0.3-0.7,0.7-0.7c0.4,0,0.7,0.3,0.7,0.7c0,0.4-0.3,0.7-0.7,0.7
			C117.7,75.5,117.3,75.2,117.3,74.8z"/>
		<circle class="st1" cx="94.9" cy="90.5" r="0.7"/>
		<path class="st2" d="M48.9,23.8c0-0.6,0.5-1.1,1.1-1.1c0.6,0,1.1,0.5,1.1,1.1c0,0.6-0.5,1.1-1.1,1.1
			C49.4,24.8,48.9,24.4,48.9,23.8z"/>
		<circle class="st2" cx="20" cy="48.1" r="1"/>
		<path class="st1" d="M108.1,65.4c0-0.6,0.5-1,1-1c0.6,0,1,0.5,1,1c0,0.6-0.5,1-1,1C108.5,66.5,108.1,66,108.1,65.4z"/>
		<path class="st2" d="M61.4,13.9c0-0.6,0.5-1,1-1c0.6,0,1,0.5,1,1s-0.5,1-1,1C61.8,14.9,61.4,14.5,61.4,13.9z"/>
		<path class="st1" d="M19.1,75.7c0-0.5,0.4-0.9,0.9-0.9c0.5,0,0.9,0.4,0.9,0.9c0,0.5-0.4,0.9-0.9,0.9
			C19.5,76.6,19.1,76.2,19.1,75.7z"/>
		<circle class="st2" cx="66.8" cy="47.2" r="1.3"/>
		<path class="st1" d="M30.5,34.9c0-0.6,0.5-1,1-1s1,0.5,1,1s-0.5,1-1,1S30.5,35.5,30.5,34.9z"/>
		<path class="st2" d="M111.4,46.5c0-0.6,0.5-1.1,1.1-1.1c0.6,0,1.1,0.5,1.1,1.1c0,0.6-0.5,1.1-1.1,1.1
			C111.9,47.6,111.4,47.1,111.4,46.5z"/>
		<circle class="st2" cx="107.5" cy="59" r="1.2"/>
		<path class="st1" d="M36.1,48.3c0-0.7,0.5-1.2,1.2-1.2c0.7,0,1.2,0.5,1.2,1.2c0,0.7-0.5,1.2-1.2,1.2
			C36.6,49.5,36.1,48.9,36.1,48.3z"/>
		<circle class="st2" cx="46" cy="86.1" r="1"/>
		<circle class="st1" cx="80.7" cy="14.9" r="1.1"/>
		<path class="st2" d="M48.2,36c0-0.6,0.5-1.2,1.2-1.2c0.6,0,1.2,0.5,1.2,1.2c0,0.6-0.5,1.2-1.2,1.2C48.7,37.1,48.2,36.6,48.2,36z"
			/>
		<circle class="st1" cx="51.3" cy="87.6" r="1.4"/>
		<path class="st2" d="M47.3,78c0-0.4,0.3-0.8,0.8-0.8c0.4,0,0.8,0.3,0.8,0.8c0,0.4-0.3,0.8-0.8,0.8C47.6,78.8,47.3,78.4,47.3,78z"
			/>
		<circle class="st1" cx="45.1" cy="36.9" r="1.2"/>
		<path class="st2" d="M39.4,31.4c0-0.7,0.6-1.2,1.2-1.2c0.7,0,1.2,0.6,1.2,1.2s-0.6,1.2-1.2,1.2C39.9,32.7,39.4,32.1,39.4,31.4z"/>
		<path class="st1" d="M10.1,67.3c0-0.7,0.5-1.2,1.2-1.2s1.2,0.5,1.2,1.2s-0.5,1.2-1.2,1.2S10.1,67.9,10.1,67.3z"/>
		<path class="st2" d="M21.6,53.1c0-0.7,0.5-1.2,1.2-1.2c0.7,0,1.2,0.5,1.2,1.2c0,0.7-0.5,1.2-1.2,1.2
			C22.2,54.4,21.6,53.8,21.6,53.1z"/>
		<path class="st1" d="M62.8,74.5c0-0.5,0.4-0.9,0.9-0.9c0.5,0,0.9,0.4,0.9,0.9c0,0.5-0.4,0.9-0.9,0.9C63.2,75.4,62.8,75,62.8,74.5z
			"/>
		<path class="st2" d="M50.8,52.4c0-0.8,0.7-1.5,1.5-1.5s1.5,0.7,1.5,1.5c0,0.8-0.7,1.5-1.5,1.5S50.8,53.2,50.8,52.4z"/>
		<path class="st2" d="M60.5,30.7c0-0.6,0.5-1.2,1.2-1.2c0.6,0,1.2,0.5,1.2,1.2c0,0.6-0.5,1.2-1.2,1.2
			C61.1,31.9,60.5,31.4,60.5,30.7z"/>
		<path class="st1" d="M77.8,48.4c0-0.4,0.3-0.7,0.7-0.7c0.4,0,0.7,0.3,0.7,0.7c0,0.4-0.3,0.7-0.7,0.7
			C78.1,49.1,77.8,48.8,77.8,48.4z"/>
		<circle class="st2" cx="33.7" cy="70.5" r="1.4"/>
		<path class="st1" d="M48.1,21.2c0-0.5,0.4-0.9,0.9-0.9c0.5,0,0.9,0.4,0.9,0.9s-0.4,0.9-0.9,0.9C48.5,22.1,48.1,21.7,48.1,21.2z"/>
		<circle class="st2" cx="77.6" cy="90.2" r="1.2"/>
		<path class="st1" d="M112.4,78.6c0-0.5,0.4-0.9,0.9-0.9c0.5,0,0.9,0.4,0.9,0.9c0,0.5-0.4,0.9-0.9,0.9
			C112.8,79.5,112.4,79.1,112.4,78.6z"/>
		<circle class="st2" cx="28" cy="62.1" r="0.7"/>
		<path class="st1" d="M91.2,72.5c0-0.5,0.4-1,1-1c0.5,0,1,0.4,1,1c0,0.5-0.4,1-1,1C91.7,73.5,91.2,73.1,91.2,72.5z"/>
		<path class="st2" d="M110.5,78.6c0-0.7,0.6-1.3,1.3-1.3c0.7,0,1.3,0.6,1.3,1.3c0,0.7-0.6,1.3-1.3,1.3
			C111.1,80,110.5,79.4,110.5,78.6z"/>
		<circle class="st2" cx="46.4" cy="55.1" r="1"/>
		<path class="st1" d="M103,49.6c0-0.7,0.5-1.2,1.2-1.2c0.7,0,1.2,0.5,1.2,1.2c0,0.7-0.5,1.2-1.2,1.2C103.6,50.8,103,50.2,103,49.6z
			"/>
		<circle class="st2" cx="95.3" cy="25.4" r="1.4"/>
		<path class="st1" d="M25.5,64.7c0-0.7,0.6-1.3,1.3-1.3c0.7,0,1.3,0.6,1.3,1.3c0,0.7-0.6,1.3-1.3,1.3C26.1,66,25.5,65.4,25.5,64.7z
			"/>
		<path class="st2" d="M97.2,48.4c0-0.4,0.4-0.8,0.8-0.8c0.4,0,0.8,0.4,0.8,0.8c0,0.4-0.4,0.8-0.8,0.8
			C97.6,49.2,97.2,48.8,97.2,48.4z"/>
		<circle class="st1" cx="105.1" cy="63.2" r="1.3"/>
		<circle class="st2" cx="88.9" cy="41.8" r="1.3"/>
		<path class="st2" d="M27.2,39.8c0-0.6,0.5-1.1,1.1-1.1c0.6,0,1.1,0.5,1.1,1.1c0,0.6-0.5,1.1-1.1,1.1C27.7,41,27.2,40.5,27.2,39.8z
			"/>
		<path class="st1" d="M63.1,63.8c0-0.7,0.6-1.3,1.3-1.3c0.7,0,1.3,0.6,1.3,1.3c0,0.7-0.6,1.3-1.3,1.3
			C63.7,65.1,63.1,64.5,63.1,63.8z"/>
		<path class="st2" d="M24.2,82.4c0-0.8,0.6-1.4,1.4-1.4c0.8,0,1.4,0.6,1.4,1.4c0,0.8-0.6,1.4-1.4,1.4
			C24.8,83.8,24.2,83.2,24.2,82.4z"/>
		<circle class="st1" cx="81.4" cy="22.5" r="1.2"/>
		<path class="st2" d="M22.3,76.2c0-0.4,0.4-0.8,0.8-0.8c0.4,0,0.8,0.4,0.8,0.8S23.5,77,23.1,77C22.7,77,22.3,76.6,22.3,76.2z"/>
		<path class="st2" d="M95.6,42.6c0-0.6,0.5-1.1,1.1-1.1c0.6,0,1.1,0.5,1.1,1.1c0,0.6-0.5,1.1-1.1,1.1
			C96.1,43.8,95.6,43.3,95.6,42.6z"/>
		<path class="st1" d="M110.4,67.8c0-0.6,0.5-1,1-1c0.6,0,1,0.5,1,1c0,0.6-0.5,1-1,1C110.9,68.9,110.4,68.4,110.4,67.8z"/>
		<path class="st2" d="M52.6,47.3c0-0.5,0.4-0.9,0.9-0.9c0.5,0,0.9,0.4,0.9,0.9c0,0.5-0.4,0.9-0.9,0.9
			C52.9,48.2,52.6,47.8,52.6,47.3z"/>
		<path class="st1" d="M51.7,79.1c0-0.6,0.5-1.1,1.1-1.1c0.6,0,1.1,0.5,1.1,1.1c0,0.6-0.5,1.1-1.1,1.1
			C52.2,80.2,51.7,79.7,51.7,79.1z"/>
		<path class="st2" d="M79.5,18.2c0-0.9,0.7-1.6,1.6-1.6s1.6,0.7,1.6,1.6c0,0.9-0.7,1.6-1.6,1.6S79.5,19.1,79.5,18.2z"/>
		<path class="st1" d="M14.9,65.4c0-0.6,0.5-1.1,1.1-1.1c0.6,0,1.1,0.5,1.1,1.1s-0.5,1.1-1.1,1.1C15.3,66.4,14.9,65.9,14.9,65.4z"/>
		<path class="st2" d="M71.5,31c0-0.8,0.7-1.5,1.5-1.5s1.5,0.7,1.5,1.5s-0.7,1.5-1.5,1.5S71.5,31.8,71.5,31z"/>
		<path class="st1" d="M28.4,41.5c0-0.8,0.7-1.5,1.5-1.5s1.5,0.7,1.5,1.5c0,0.8-0.7,1.5-1.5,1.5S28.4,42.3,28.4,41.5z"/>
		<path class="st2" d="M22.2,58.6c0-0.7,0.6-1.3,1.3-1.3c0.7,0,1.3,0.6,1.3,1.3c0,0.7-0.6,1.3-1.3,1.3
			C22.8,59.9,22.2,59.3,22.2,58.6z"/>
		<path class="st1" d="M50.5,31.3c0-0.5,0.4-0.8,0.8-0.8c0.5,0,0.8,0.4,0.8,0.8s-0.4,0.8-0.8,0.8C50.9,32.1,50.5,31.7,50.5,31.3z"/>
		<path class="st2" d="M41.7,53.6c0-0.7,0.6-1.3,1.3-1.3s1.3,0.6,1.3,1.3c0,0.7-0.6,1.3-1.3,1.3S41.7,54.3,41.7,53.6z"/>
		<path class="st1" d="M78.1,65.7c0-0.8,0.6-1.4,1.4-1.4c0.8,0,1.4,0.6,1.4,1.4S80.2,67,79.5,67C78.7,67,78.1,66.4,78.1,65.7z"/>
		<circle class="st2" cx="72.1" cy="46.6" r="1.1"/>
		<circle class="st1" cx="102.5" cy="72.2" r="1"/>
		<path class="st2" d="M112.2,58.2c0-0.5,0.4-0.9,0.9-0.9c0.5,0,0.9,0.4,0.9,0.9s-0.4,0.9-0.9,0.9C112.6,59.1,112.2,58.7,112.2,58.2
			z"/>
		<path class="st1" d="M75.2,86.2c0-0.5,0.4-0.9,0.9-0.9c0.5,0,0.9,0.4,0.9,0.9c0,0.5-0.4,0.9-0.9,0.9C75.6,87,75.2,86.7,75.2,86.2z
			"/>
		<path class="st2" d="M78.1,42.8c0-0.9,0.7-1.7,1.7-1.7c0.9,0,1.7,0.7,1.7,1.7c0,0.9-0.7,1.7-1.7,1.7
			C78.9,44.5,78.1,43.8,78.1,42.8z"/>
		<path class="st2" d="M20.3,69.2c0-0.5,0.4-1,1-1s1,0.4,1,1c0,0.5-0.4,1-1,1S20.3,69.7,20.3,69.2z"/>
		<path class="st1" d="M65.1,53c0-0.5,0.4-0.8,0.8-0.8c0.5,0,0.8,0.4,0.8,0.8c0,0.5-0.4,0.8-0.8,0.8C65.5,53.8,65.1,53.5,65.1,53z"
			/>
		<circle class="st2" cx="68" cy="41.4" r="1.1"/>
		<path class="st1" d="M46.5,43.9c0-0.6,0.5-1.1,1.1-1.1c0.6,0,1.1,0.5,1.1,1.1c0,0.6-0.5,1.1-1.1,1.1C47,44.9,46.5,44.5,46.5,43.9z
			"/>
		<circle class="st2" cx="89.7" cy="66.8" r="1.2"/>
		<path class="st1" d="M63.6,7.5c0-0.7,0.6-1.2,1.2-1.2c0.7,0,1.2,0.6,1.2,1.2c0,0.7-0.6,1.2-1.2,1.2C64.1,8.8,63.6,8.2,63.6,7.5z"
			/>
		<circle class="st2" cx="96.5" cy="66.5" r="0.9"/>
		<path class="st1" d="M47.5,40.5c0-0.8,0.6-1.4,1.4-1.4s1.4,0.6,1.4,1.4c0,0.8-0.6,1.4-1.4,1.4S47.5,41.3,47.5,40.5z"/>
		<path class="st2" d="M35.6,76.2c0-0.6,0.5-1.1,1.1-1.1c0.6,0,1.1,0.5,1.1,1.1s-0.5,1.1-1.1,1.1C36.1,77.3,35.6,76.8,35.6,76.2z"/>
		<path class="st1" d="M87.1,36.7c0-0.5,0.4-0.9,0.9-0.9c0.5,0,0.9,0.4,0.9,0.9c0,0.5-0.4,0.9-0.9,0.9
			C87.5,37.6,87.1,37.2,87.1,36.7z"/>
		<path class="st2" d="M82.9,71.4c0-0.7,0.6-1.2,1.2-1.2c0.7,0,1.2,0.6,1.2,1.2c0,0.7-0.6,1.2-1.2,1.2
			C83.4,72.7,82.9,72.1,82.9,71.4z"/>
		<path class="st1" d="M98.5,43.8c0-0.5,0.4-0.9,0.9-0.9s0.9,0.4,0.9,0.9c0,0.5-0.4,0.9-0.9,0.9S98.5,44.3,98.5,43.8z"/>
		<path class="st2" d="M8.4,72.9c0-0.5,0.4-0.9,0.9-0.9c0.5,0,0.9,0.4,0.9,0.9c0,0.5-0.4,0.9-0.9,0.9C8.8,73.8,8.4,73.4,8.4,72.9z"
			/>
		<path class="st2" d="M13.1,53.7c0-0.5,0.4-0.8,0.8-0.8c0.5,0,0.8,0.4,0.8,0.8c0,0.5-0.4,0.8-0.8,0.8
			C13.4,54.6,13.1,54.2,13.1,53.7z"/>
		<path class="st1" d="M120.4,64.5c0-0.5,0.4-1,1-1s1,0.4,1,1c0,0.5-0.4,1-1,1S120.4,65,120.4,64.5z"/>
		<circle class="st2" cx="61" cy="64.6" r="1.1"/>
		<circle class="st1" cx="16" cy="50.7" r="0.8"/>
		<path class="st2" d="M51.9,64.7c0-0.7,0.6-1.3,1.3-1.3c0.7,0,1.3,0.6,1.3,1.3c0,0.7-0.6,1.3-1.3,1.3C52.5,66,51.9,65.4,51.9,64.7z
			"/>
		<path class="st1" d="M63,57.7c0-0.6,0.5-1.1,1.1-1.1c0.6,0,1.1,0.5,1.1,1.1s-0.5,1.1-1.1,1.1C63.5,58.8,63,58.3,63,57.7z"/>
		<path class="st2" d="M78.8,35.3c0-0.6,0.5-1.1,1.1-1.1c0.6,0,1.1,0.5,1.1,1.1s-0.5,1.1-1.1,1.1C79.3,36.4,78.8,35.9,78.8,35.3z"/>
		<path class="st1" d="M26.6,81.3c0-0.7,0.5-1.2,1.2-1.2s1.2,0.5,1.2,1.2c0,0.7-0.5,1.2-1.2,1.2S26.6,82,26.6,81.3z"/>
		<path class="st2" d="M95.5,37c0-0.6,0.5-1,1-1s1,0.5,1,1c0,0.6-0.5,1-1,1S95.5,37.5,95.5,37z"/>
		<path class="st1" d="M35.7,27.9c0-0.5,0.4-1,1-1c0.5,0,1,0.4,1,1s-0.4,1-1,1C36.1,28.9,35.7,28.4,35.7,27.9z"/>
		<circle class="st2" cx="52.6" cy="15.3" r="1"/>
		<circle class="st2" cx="14.9" cy="73.2" r="1.4"/>
		<path class="st1" d="M50.5,45c0-0.6,0.5-1,1-1c0.6,0,1,0.5,1,1c0,0.6-0.5,1-1,1C50.9,46,50.5,45.5,50.5,45z"/>
		<path class="st2" d="M63.8,43.1c0-0.5,0.4-0.9,0.9-0.9c0.5,0,0.9,0.4,0.9,0.9c0,0.5-0.4,0.9-0.9,0.9
			C64.2,43.9,63.8,43.5,63.8,43.1z"/>
		<circle class="st1" cx="4.9" cy="63.1" r="0.9"/>
		<path class="st2" d="M37.4,83.7c0-0.6,0.5-1.1,1.1-1.1c0.6,0,1.1,0.5,1.1,1.1c0,0.6-0.5,1.1-1.1,1.1
			C37.9,84.8,37.4,84.3,37.4,83.7z"/>
		<path class="st1" d="M54.6,47.2c0-0.9,0.7-1.6,1.6-1.6c0.9,0,1.6,0.7,1.6,1.6s-0.7,1.6-1.6,1.6C55.3,48.8,54.6,48.1,54.6,47.2z"/>
		<path class="st2" d="M46,58.3c0-0.5,0.4-1,1-1c0.5,0,1,0.4,1,1c0,0.5-0.4,1-1,1C46.4,59.3,46,58.9,46,58.3z"/>
		<path class="st1" d="M68.2,16.6c0-0.6,0.5-1.1,1.1-1.1s1.1,0.5,1.1,1.1c0,0.6-0.5,1.1-1.1,1.1S68.2,17.1,68.2,16.6z"/>
		<path class="st2" d="M49,86.5c0-0.7,0.5-1.2,1.2-1.2s1.2,0.5,1.2,1.2c0,0.7-0.5,1.2-1.2,1.2S49,87.2,49,86.5z"/>
		<circle class="st1" cx="21.8" cy="61.9" r="0.8"/>
		<circle class="st2" cx="107.7" cy="47.8" r="0.9"/>
		<circle class="st1" cx="46.4" cy="70.8" r="1.2"/>
		<path class="st2" d="M93.7,80.9c0-0.5,0.4-0.8,0.8-0.8s0.8,0.4,0.8,0.8c0,0.5-0.4,0.8-0.8,0.8S93.7,81.3,93.7,80.9z"/>
		<circle class="st1" cx="65.6" cy="22.8" r="1.2"/>
		<circle class="st2" cx="59.8" cy="41.5" r="0.9"/>
		<circle class="st1" cx="57.2" cy="57" r="1.3"/>
		<path class="st2" d="M80.3,61.5c0-0.9,0.7-1.6,1.6-1.6s1.6,0.7,1.6,1.6c0,0.9-0.7,1.6-1.6,1.6S80.3,62.4,80.3,61.5z"/>
		<path class="st1" d="M40.6,41.3c0-0.7,0.5-1.2,1.2-1.2c0.7,0,1.2,0.5,1.2,1.2c0,0.7-0.5,1.2-1.2,1.2
			C41.1,42.5,40.6,41.9,40.6,41.3z"/>
		<path class="st2" d="M91.9,34.4c0-0.6,0.5-1,1-1c0.6,0,1,0.5,1,1c0,0.6-0.5,1-1,1C92.3,35.4,91.9,35,91.9,34.4z"/>
		<path class="st1" d="M36,63.3c0-0.6,0.5-1.1,1.1-1.1c0.6,0,1.1,0.5,1.1,1.1c0,0.6-0.5,1.1-1.1,1.1C36.5,64.4,36,63.9,36,63.3z"/>
		<circle class="st2" cx="81.1" cy="53.2" r="0.9"/>
		<path class="st1" d="M38.2,66.8c0-0.5,0.4-0.9,0.9-0.9c0.5,0,0.9,0.4,0.9,0.9c0,0.5-0.4,0.9-0.9,0.9
			C38.6,67.7,38.2,67.3,38.2,66.8z"/>
		<path class="st2" d="M88,50c0-0.6,0.4-1,1-1c0.6,0,1,0.4,1,1c0,0.6-0.4,1-1,1C88.5,51,88,50.5,88,50z"/>
		<path class="st1" d="M84.8,71.8c0-0.8,0.6-1.4,1.4-1.4c0.8,0,1.4,0.6,1.4,1.4c0,0.8-0.6,1.4-1.4,1.4
			C85.4,73.2,84.8,72.6,84.8,71.8z"/>
		<path class="st2" d="M84.6,19.6c0-0.7,0.6-1.3,1.3-1.3c0.7,0,1.3,0.6,1.3,1.3c0,0.7-0.6,1.3-1.3,1.3
			C85.2,20.9,84.6,20.3,84.6,19.6z"/>
		<path class="st1" d="M32.9,64.5c0-0.6,0.5-1,1-1c0.6,0,1,0.5,1,1c0,0.6-0.5,1-1,1C33.4,65.5,32.9,65.1,32.9,64.5z"/>
		<path class="st1" d="M95.8,28.5c0-0.8,0.7-1.5,1.5-1.5c0.8,0,1.5,0.7,1.5,1.5c0,0.8-0.7,1.5-1.5,1.5
			C96.4,29.9,95.8,29.3,95.8,28.5z"/>
		<circle class="st2" cx="114.2" cy="68.1" r="1.1"/>
		<circle class="st1" cx="66.6" cy="37.1" r="0.9"/>
		<path class="st2" d="M52.8,21.7c0-0.8,0.6-1.4,1.4-1.4s1.4,0.6,1.4,1.4c0,0.8-0.6,1.4-1.4,1.4S52.8,22.4,52.8,21.7z"/>
		<path class="st1" d="M30.6,61.4c0-0.7,0.5-1.2,1.2-1.2s1.2,0.5,1.2,1.2s-0.5,1.2-1.2,1.2S30.6,62.1,30.6,61.4z"/>
		<circle class="st2" cx="103" cy="53.6" r="1.4"/>
		<circle class="st1" cx="113.4" cy="61" r="0.8"/>
		<path class="st2" d="M90.1,60.8c0-0.5,0.4-0.9,0.9-0.9c0.5,0,0.9,0.4,0.9,0.9c0,0.5-0.4,0.9-0.9,0.9
			C90.5,61.7,90.1,61.3,90.1,60.8z"/>
		<path class="st1" d="M89.6,88.9c0-0.4,0.4-0.8,0.8-0.8c0.4,0,0.8,0.4,0.8,0.8c0,0.4-0.4,0.8-0.8,0.8C90,89.7,89.6,89.4,89.6,88.9z
			"/>
		<path class="st2" d="M59.2,18.2c0-0.6,0.5-1.1,1.1-1.1c0.6,0,1.1,0.5,1.1,1.1c0,0.6-0.5,1.1-1.1,1.1
			C59.7,19.3,59.2,18.8,59.2,18.2z"/>
		<path class="st2" d="M64.8,66.5c0-0.6,0.5-1.1,1.1-1.1c0.6,0,1.1,0.5,1.1,1.1s-0.5,1.1-1.1,1.1C65.3,67.7,64.8,67.1,64.8,66.5z"/>
		<circle class="st1" cx="88.7" cy="26.5" r="0.7"/>
		<path class="st2" d="M37.6,44.5c0-0.6,0.5-1.2,1.2-1.2c0.6,0,1.2,0.5,1.2,1.2c0,0.6-0.5,1.2-1.2,1.2
			C38.1,45.7,37.6,45.2,37.6,44.5z"/>
		<path class="st1" d="M39.8,78.1c0-0.5,0.4-0.8,0.8-0.8c0.5,0,0.8,0.4,0.8,0.8s-0.4,0.8-0.8,0.8C40.2,78.9,39.8,78.6,39.8,78.1z"/>
		<path class="st2" d="M84.7,34.3c0-0.6,0.5-1.1,1.1-1.1c0.6,0,1.1,0.5,1.1,1.1c0,0.6-0.5,1.1-1.1,1.1
			C85.2,35.4,84.7,34.9,84.7,34.3z"/>
		<circle class="st1" cx="74.9" cy="56.2" r="1.4"/>
		<circle class="st2" cx="124.3" cy="72" r="1.2"/>
		<path class="st2" d="M64.5,70.5c0-0.6,0.5-1.1,1.1-1.1c0.6,0,1.1,0.5,1.1,1.1c0,0.6-0.5,1.1-1.1,1.1C65,71.6,64.5,71.1,64.5,70.5z
			"/>
	</g>
	<path class="st3" d="M55.4,92.7l42.8-1.8c0,0,17-9.6,25-13c8.1-3.4,10.2-9.9,8.9-13.6S91.2,18.4,85.3,12.2C80.9,7.5,75.5,4.1,71,3
		c5.3,7,9.6,19.8,4.2,42.4C70.6,65,50.6,79.4,36.8,87.2C45,88.9,55.4,92.7,55.4,92.7z"/>
	<path class="st4" d="M63.5,40.4C72.7,27.2,69.7,9,67.3,2.7c-0.2,0-0.4,0-0.5,0C52.3,5,28.5,35.4,22.3,41.6
		c-3.6,3.7-10.2,10.8-15.2,16.5C36.7,73.3,53.9,53.9,63.5,40.4z"/>
	<path class="st5" d="M132.2,64.3c-1.3-3.6-40.9-45.9-46.9-52.1c-2.3-2.4-4.8-4.5-7.3-6c5.2,6.8,12.4,18.7,17,29.4
		c6,13.8,3.9,31.3,0.3,37.9c-3.1,5.6-5.1,11.1-12.8,18.1l15.8-0.7c0,0,17-9.6,25-13C131.4,74.4,133.5,67.9,132.2,64.3z"/>
</g>
</svg>
