<?xml version="1.0" encoding="utf-8"?>
<!-- Generator: Adobe Illustrator 25.0.0, SVG Export Plug-In . SVG Version: 6.00 Build 0)  -->
<svg version="1.1"
	 id="svg2" inkscape:version="0.48+devel r9935" sodipodi:docname="Documento nuevo 1" xmlns:cc="http://creativecommons.org/ns#" xmlns:dc="http://purl.org/dc/elements/1.1/" xmlns:inkscape="http://www.inkscape.org/namespaces/inkscape" xmlns:ns1="http://sozi.baierouge.fr" xmlns:rdf="http://www.w3.org/1999/02/22-rdf-syntax-ns#" xmlns:sodipodi="http://sodipodi.sourceforge.net/DTD/sodipodi-0.dtd" xmlns:svg="http://www.w3.org/2000/svg"
	 xmlns="http://www.w3.org/2000/svg" xmlns:xlink="http://www.w3.org/1999/xlink" x="0px" y="0px" viewBox="0 0 64.8 56.9"
	 style="enable-background:new 0 0 64.8 56.9;" xml:space="preserve">
<style type="text/css">
	.st0{fill:#ED8F4F;}
	.st1{fill:#CC6520;}
	.st2{fill:#E3CCD9;}
	.st3{fill:#C15C17;}
	.st4{fill:#DD752F;}
	.st5{fill:#FFCA85;}
</style>
<sodipodi:namedview  bordercolor="#666666" borderopacity="1.0" id="base" inkscape:current-layer="layer1" inkscape:cx="273.52498" inkscape:cy="614.84559" inkscape:document-units="px" inkscape:pageopacity="0.0" inkscape:pageshadow="2" inkscape:window-height="787" inkscape:window-maximized="0" inkscape:window-width="1440" inkscape:window-x="0" inkscape:window-y="0" inkscape:zoom="0.42014768" pagecolor="#ffffff" showgrid="false">
	</sodipodi:namedview>
<g>
	<path class="st0" d="M54.4,12.9c-7.1-3.1-13-1.8-17.5,1.5c0,0-0.1,0-0.1,0.1c-0.2-1.3-0.6-2.5-1.1-3.6c-2.9-7-10-11.3-17.7-10.8
		C9.2,0.6,1.4,10.3,0.1,22.9c-1.3,12.7,6.8,25.4,21,31.2c14.2,5.8,29.3,2.3,37.6-8.8C67,34.2,67.9,18.7,54.4,12.9z M23.2,45.1
		c-4.6-2.3-7.8-5.3-10.1-8.8c-1.5-2.3-2.7-4.7-3.8-7.2c-3.3-7.7,1.5-17.2,8.2-20c5.1-2.1,8.5,0.8,11.4,5.6c0.9,1.6,1.8,3.3,2.6,5.2
		c0,0,0,0,0,0c-1.4,2-2.5,4.1-3.4,6.1c0,0.1-0.1,0.2-0.1,0.3c-0.8,1.9-1.2,3.9-1.3,5.9c-0.5,5.6,1.1,11.4,3.1,15.1
		c0,0,0,0.1,0.1,0.1c-0.4-0.1-0.7-0.2-1.1-0.3c-0.5-0.1-1-0.3-1.4-0.5C25.8,46.2,24.4,45.7,23.2,45.1z M42,46.8
		c-0.6,0.2-1.2,0.4-1.9,0.6c0,0,0,0,0,0C37.5,44,34.2,32.1,35.2,28c5.8-15.5,24.2-6.6,20.6,3.9C53.5,39.3,48.3,44.6,42,46.8z"/>
	<path class="st1" d="M33.7,30.2c0,0,0.7,6.7,2.6,11.7s4.9,9.6,1.9,11c-3,1.4-7.7-5.4-9.2-9.6c-1.4-4.1-3.1-11.2,0.5-18.5
		c3.7-7.3,11.6-16.4,23.9-11.5c12.3,4.9,12.2,21.4,5,30.3c-7.2,9-16.8,17.1-38.2,9.2C-1.1,45.1-1.3,20.9,5,10.9
		c6.4-10,14.1-13.1,22.3-7.9c8.3,5.2,9.1,11.6,9.1,11.6s-3.6,2.8-4.5,4.9c-2.4-7.1-6.1-11.6-11.6-12.1C14.8,7,8.2,13.4,7.4,21.8
		c-0.8,8.4,5,19.4,14,23.6c4.1,2,8.5,2.9,8.5,2.9s2.5,5.1,3.9,5.8s3.3,0.9,5.6,0.2c2.2-0.7,3.3-2.4,3.2-3.2c-0.1-0.8-1.9-3-1.9-3
		S53,44.3,56.5,33.4s-6.9-16-12.4-14.5C38.6,20.5,35.1,23.8,33.7,30.2z"/>
	<path class="st2" d="M36.9,14.4c0,0,0,0.1-0.1,0.1c-0.2,0.1-0.4,0.3-0.6,0.4c0,0,0,0,0,0c-0.2,0.2-0.4,0.3-0.6,0.5c0,0,0,0,0,0
		c-1.2,1.1-2.5,2.5-3.3,3.5c0,0,0,0,0,0c-0.4,0.5-0.7,0.9-0.8,1c0,0,0,0,0,0l0,0c0,0,0,0,0,0c-0.8-1.9-1.7-3.7-2.6-5.2
		c1,0.8,3.3,2.1,5.2,0.9c1.8-1.2,1.8-3.5,1.7-4.7C36.2,12,36.6,13.2,36.9,14.4C36.9,14.4,36.9,14.4,36.9,14.4z"/>
	<path class="st2" d="M34.3,27.1l-3.9,4.1l-3.8,1.1c0.2-2,0.6-4,1.3-5.9c0-0.1,0.1-0.2,0.1-0.3c-0.2,1-0.2,2,0.5,2.4
		C30.4,29.5,34.1,27.2,34.3,27.1z"/>
	<path class="st2" d="M40.6,54.3c-1.6,1-4.2,1.3-6.1,0.7c-1.9-0.6-2.6-1.9-4.2-4.8c-0.9-1.6-2.1-2.7-3.1-3.4
		c0.5,0.2,0.9,0.3,1.4,0.5c0.4,0.1,0.7,0.2,1.1,0.3c0,0,0-0.1-0.1-0.1l0.1,0.1c0,0,1.2,2.9,2.3,4.6c1.1,1.7,1.9,2.4,3.9,2.7
		c2,0.3,4.6-0.7,5.8-2c1.2-1.3,1-1.7,0-2.9c-0.9-1.2-1.6-2.2-1.7-2.4c0.6-0.2,1.2-0.4,1.9-0.6c-0.5,1.5,1.1,3.2,1.3,4.3
		C43.4,52.4,42.2,53.3,40.6,54.3z"/>
	<path class="st3" d="M33.3,14.3c1.2-0.4,1.1-2.8,0.4-4.1c-0.7-1.4-4.4-4.2-5.5-5.6c-1.1-1.4-4.7-3.4-6.8-3.3s-5.8,2.2-7.6,2.2
		c-1.8,0-3.6,0.5-4.9,3C7.8,9,4.8,12.9,3.8,15.1c-1,2.2-0.5,8.1-1,9.3c-0.5,1.2-1,7.1,0.1,8.2c1.1,1.1,3,6,3.2,7
		c0.1,1,2.9,5.7,5.2,6.9c2.3,1.2,5,3.4,6.2,4.2c1.3,0.9,5.6,3.4,7.9,2.8c2.3-0.6,3.6-0.1,4.8,0.7c1.2,0.7,2.3,1.1,2.6,0.8
		c0.3-0.3-2.9-2.9-3.7-4.4c-0.8-1.5-2.5-3.1-3.7-3.1c-1.2-0.1-8.5-2.5-9.9-4.4c-1.4-1.8-2.8-4.2-4.8-5.4c-2-1.2-3.3-5.8-3.3-7.2
		c0-1.4-0.7-6-0.9-7.9s1.1-6.8,2.4-8.3c1.3-1.5,3.1-3.5,3.6-4.9c0.5-1.5,3.2-3,5.1-2.8c1.9,0.2,3.2,0.1,4.7,0c1.5-0.1,4.5,1.4,5,2.7
		c0.6,1.3,2.1,3.8,3.3,4.4C31.8,14.3,32.4,14.6,33.3,14.3z"/>
	<path class="st3" d="M31.2,27.7c-1.3-0.5-0.7-3.6,0-4.5c0.8-0.9,3.3-2.8,4.3-4.6c1-1.8,3-3.7,5.2-4.4c2.1-0.7,7.4-0.8,9.6-0.9
		c2.2-0.1,6.1,1.6,6.8,2.9c0.8,1.2,3.9,4.8,4.5,7.1c0.6,2.3,1.6,7.3,0.5,10.3c-1,3-1.5,6.6-3.6,8.3c-2,1.7-3.2,3.9-3.7,4.8
		c-0.5,0.9-3.6,4.2-5.3,4.3c-1.7,0.1-3.2,2.4-4.7,2.8c-1.5,0.4-3.1,1.1-3.2,0.9c-0.2-0.2,1.9-1.3,2.3-2.6c0.4-1.4-1.5-2.3,0.1-4
		s3.1-1.5,5.1-3.2c2-1.6,3.3-2.5,4.1-4c0.8-1.5,3.6-3.4,4.3-5.8c0.7-2.3-0.4-5.2,0.3-6.8c0.7-1.6-0.4-4.9-1.9-5.9
		c-1.5-0.9-3.6-3.4-5.4-4c-1.8-0.6-4.7-1.3-6.2-0.4c-1.5,0.9-4.9,2.2-5.8,2.4c-1,0.3-1.9,1.7-2.4,2.6C35.6,23.9,33.6,27.7,31.2,27.7
		z"/>
	<path class="st3" d="M33.4,35.5c1.6-0.5,2.1,4.6,1.7,6.1s0.9,3.3,1.9,4.3c1,1,1.6,3.2,1.4,4.2c-0.2,1,0,2.3-1.8,2
		c-1.8-0.3-4.2-2.9-4.3-4.6c-0.1-1.7-1.6-2.8-2.2-4.3c-0.6-1.5-1.3-2.9-0.7-4C29.9,38.1,32.5,35.8,33.4,35.5z"/>
	<path class="st2" d="M23.2,45.1c-0.8-0.1-1.9-0.1-2.8,0.2c-1.6,0.4-2,1.5-4,1.3c-2-0.2-3.5-1.4-5-3.4c-1.4-1.9-0.8-4,0.7-5.5
		c0.5-0.5,0.8-1,0.9-1.4C15.4,39.7,18.6,42.8,23.2,45.1z"/>
	<path class="st0" d="M38,28.2C38,28.3,38,28.3,38,28.2c-0.2,0.4-0.4,0.9-0.6,1.3c-2.2,3.9-11,10.8-11,10.8l0-0.1
		c-2.4,2-5.3,4-8.8,5.8c-3.8,0.5-7.3-3.7-5.8-6.8c1.1-2.5,12-5.2,19.8-10c0,0,0.1,0,0.1-0.1c0.2-0.1,0.3-0.2,0.5-0.4
		c0.9-0.8,2-2.1,3-3.4c0.2-0.3,0.5-0.6,0.7-0.9c1-1.2,2-1.8,2.6-2c0.3-0.1,0.4-0.2,0.4-0.2S39.4,25,38,28.2z"/>
	<path class="st1" d="M37.5,27.6c-1.2,2.5-8.2,9.1-10.4,10.7c-2.2,1.5-10.2,8.1-13.3,4.4c-3.2-3.7,4-6.2,6.2-7.2
		c2.3-1,9.5-3.6,11.7-5.6c1.7-1.5,2.9-3.2,3.5-4.7c0.2-0.3,0.5-0.6,0.7-0.9c1-1.2,2-1.8,2.6-2C38.5,23.7,38.3,25.9,37.5,27.6z"/>
	<path class="st2" d="M38,28.2c0.2-1.2,0.3-2.4-0.5-2.8C36,24.8,32.1,29,32.1,29l0.1-0.2c0.9-0.8,2-2.1,3-3.4
		c0.2-0.3,0.5-0.6,0.7-0.9c1-1.2,2-1.8,2.6-2c0.3-0.1,0.4-0.2,0.4-0.2S39.4,25,38,28.2z"/>
	<path class="st3" d="M36.4,26.5c0.7,0.2,0.4,2.2-0.8,3c-1.2,0.8-2.5,3.1-4.1,4.2c-1.5,1.1-4.7,4-6.1,5.1c-1.3,1.2-4.2,3.3-5.3,3.3
		c-1,0.1-4.5,1.5-5.4,0.2c-0.9-1.3,0-3.1,1.8-4.1c1.8-0.9,4.1-1.5,5.5-2.6c1.4-1.1,4.4-2.2,6.2-2.7c1.8-0.5,3.9-1.8,4.6-2.8
		C33.7,29.1,35.3,26.2,36.4,26.5z"/>
	<path class="st4" d="M22.3,2.9c0.4,1.3-4.2,0.9-6.6,1.9c-2.3,1-5.6,5.3-6.7,4.9c-1.2-0.5,1.4-5.6,6.4-7.4C18.4,1.2,22,1.8,22.3,2.9
		z"/>
	<path class="st4" d="M24.1,3.7c-0.3,0.5,1.3,2,2.1,1.4C26.9,4.3,24.9,2.5,24.1,3.7z"/>
	<path class="st4" d="M15.6,40.4c0.6,1,10.1-4.6,10.1-5.4C25.6,34.1,14.1,37.9,15.6,40.4z"/>
	<path class="st4" d="M43.7,14c2.7-0.8,6.1-0.7,9.3,0.8s-1.9,0.4-4.3,0.3C46.3,14.9,40.2,15.1,43.7,14z"/>
	<path class="st5" d="M57.2,18.4c-0.1,0.2-0.6,0.2-1.2,0c-0.6-0.2-0.9-0.6-0.9-0.8c0.1-0.2,0.6-0.2,1.2,0S57.3,18.2,57.2,18.4z"/>
	<path class="st5" d="M15.8,47.8c0,0.2-0.5,0.4-1.1,0.3c-0.6-0.1-1.1-0.4-1-0.6c0-0.2,0.5-0.4,1.1-0.3
		C15.4,47.3,15.9,47.5,15.8,47.8z"/>
	<path class="st5" d="M19.8,6.3c0,0.2-0.5,0.4-1.1,0.4c-0.6,0-1.1-0.2-1.1-0.4c0-0.2,0.5-0.4,1.1-0.4C19.3,5.9,19.8,6.1,19.8,6.3z"
		/>
	<path class="st5" d="M21.4,48c-0.1,0.2-0.7,0.1-1.1-0.3c-0.5-0.4-0.8-0.8-0.6-1c0.1-0.2,0.7-0.1,1.1,0.3
		C21.3,47.3,21.6,47.8,21.4,48z"/>
	<path class="st5" d="M10.6,38.1c0,0.2-0.5,0.4-1.1,0.4c-0.6,0-1.1-0.2-1.1-0.4c0-0.2,0.5-0.4,1.1-0.4
		C10.1,37.6,10.6,37.8,10.6,38.1z"/>
	<path class="st5" d="M35.2,46.6c0,0.2-0.5,0.4-1.1,0.5c-0.6,0-1.1-0.2-1.1-0.4c0-0.2,0.5-0.4,1.1-0.5
		C34.7,46.1,35.2,46.3,35.2,46.6z"/>
	<path class="st5" d="M6.4,34.5c0,0.2-0.4,0.5-1,0.6c-0.6,0.1-1.1,0-1.2-0.2c0-0.2,0.4-0.5,1-0.6C5.8,34.2,6.3,34.3,6.4,34.5z"/>
	<path class="st5" d="M7,12.9c-0.1,0.2-0.6,0.2-1.2,0c-0.6-0.2-0.9-0.6-0.9-0.8c0.1-0.2,0.6-0.2,1.2,0C6.7,12.3,7.1,12.7,7,12.9z"/>
	<path class="st5" d="M31.2,42.9c-0.2,0.1-0.6-0.3-0.8-0.8c-0.2-0.6-0.2-1.1,0-1.2c0.2-0.1,0.6,0.3,0.8,0.8
		C31.4,42.3,31.4,42.8,31.2,42.9z"/>
	<path class="st5" d="M8,15.4c0.1,0.2-0.3,0.6-0.8,0.8c-0.6,0.2-1.1,0.2-1.2,0c-0.1-0.2,0.3-0.6,0.8-0.8C7.4,15.2,7.9,15.2,8,15.4z"
		/>
	<path class="st5" d="M4.5,27.5c0.1,0.2-0.4,0.5-1,0.7C3,28.3,2.4,28.2,2.4,28c-0.1-0.2,0.4-0.5,1-0.7C4,27.2,4.5,27.2,4.5,27.5z"/>
	<path class="st5" d="M34.6,21.1c0.1,0.2-0.2,0.6-0.7,0.9c-0.5,0.3-1,0.4-1.2,0.2c-0.1-0.2,0.2-0.6,0.7-0.9
		C34,20.9,34.5,20.9,34.6,21.1z"/>
	<path class="st5" d="M7.6,32.5c-0.2,0.1-0.6-0.3-0.8-0.9s-0.2-1.1,0-1.2c0.2-0.1,0.6,0.3,0.8,0.9C7.8,31.9,7.8,32.4,7.6,32.5z"/>
	<path class="st5" d="M36.2,43.8c-0.2,0.2-0.7,0-1.1-0.5c-0.4-0.4-0.6-0.9-0.5-1.1c0.2-0.2,0.7,0,1.1,0.5
		C36.2,43.1,36.4,43.6,36.2,43.8z"/>
	<path class="st5" d="M26.8,7.9c-0.1,0.2-0.6,0.2-1.2,0c-0.6-0.2-0.9-0.6-0.9-0.8c0.1-0.2,0.6-0.2,1.2,0C26.5,7.3,26.9,7.7,26.8,7.9
		z"/>
	<path class="st5" d="M33.3,26.7c-0.1,0.2-0.6,0.2-1.2,0c-0.6-0.2-0.9-0.6-0.9-0.8c0.1-0.2,0.6-0.2,1.2,0
		C33,26.1,33.4,26.5,33.3,26.7z"/>
	<path class="st5" d="M13.1,9c0.1,0.2-0.3,0.6-0.9,0.8c-0.6,0.2-1.1,0.2-1.2,0c-0.1-0.2,0.3-0.6,0.9-0.8C12.4,8.8,13,8.8,13.1,9z"/>
	<path class="st5" d="M52.7,16.8c-0.2,0.1-0.6-0.2-0.9-0.7c-0.3-0.5-0.4-1-0.2-1.2c0.2-0.1,0.6,0.2,0.9,0.7
		C52.8,16.2,52.9,16.7,52.7,16.8z"/>
	<path class="st5" d="M6,24.9c-0.2,0.1-0.6-0.3-0.8-0.8c-0.2-0.6-0.2-1.1,0-1.2c0.2-0.1,0.6,0.3,0.8,0.8C6.3,24.2,6.3,24.8,6,24.9z"
		/>
	<path class="st5" d="M41.8,16.3c-0.1,0.2-0.6,0.2-1.2,0c-0.6-0.2-0.9-0.6-0.9-0.8c0.1-0.2,0.6-0.2,1.2,0
		C41.5,15.7,41.9,16,41.8,16.3z"/>
	<path class="st5" d="M45.6,50.2c-0.2,0.1-0.6-0.1-1-0.6c-0.4-0.5-0.5-1-0.3-1.1c0.2-0.1,0.6,0.1,1,0.6
		C45.6,49.6,45.8,50.1,45.6,50.2z"/>
	<path class="st5" d="M61.4,36.7c0,0.2-0.4,0.5-1,0.6c-0.6,0.1-1.1,0-1.1-0.3c0-0.2,0.4-0.5,1-0.6C60.9,36.4,61.4,36.5,61.4,36.7z"
		/>
	<path class="st5" d="M21.9,2.8c-0.1,0.2-0.6,0.2-1.2,0c-0.6-0.2-0.9-0.6-0.9-0.8c0.1-0.2,0.6-0.2,1.2,0C21.6,2.2,22,2.6,21.9,2.8z"
		/>
	<path class="st5" d="M28.3,50.6c0.1,0.2-0.3,0.6-0.9,0.8c-0.6,0.2-1.1,0.2-1.2,0c-0.1-0.2,0.3-0.6,0.9-0.8
		C27.7,50.3,28.3,50.3,28.3,50.6z"/>
	<path class="st5" d="M61.1,27.2c-0.2,0.1-0.6-0.3-0.8-0.9c-0.2-0.6-0.2-1.1,0-1.2c0.2-0.1,0.6,0.3,0.8,0.9
		C61.4,26.6,61.3,27.1,61.1,27.2z"/>
	<path class="st5" d="M33.5,31.3c0,0.2-0.5,0.4-1.1,0.5c-0.6,0-1.1-0.2-1.1-0.4c0-0.2,0.5-0.4,1.1-0.5C33,30.9,33.5,31.1,33.5,31.3z
		"/>
	<path class="st5" d="M21,41.6c-0.2,0.1-0.6-0.2-1-0.6c-0.3-0.5-0.5-1-0.3-1.1s0.6,0.2,1,0.6C21,40.9,21.2,41.5,21,41.6z"/>
	<path class="st5" d="M34.5,38c-0.1,0.2-0.6,0.2-1.2,0c-0.6-0.2-0.9-0.6-0.9-0.8c0.1-0.2,0.6-0.2,1.2,0C34.2,37.4,34.6,37.8,34.5,38
		z"/>
	<path class="st5" d="M31.3,11.1c0.1,0.2-0.3,0.6-0.9,0.8c-0.6,0.2-1.1,0.2-1.2,0c-0.1-0.2,0.3-0.6,0.9-0.8
		C30.7,10.9,31.2,10.9,31.3,11.1z"/>
	<path class="st5" d="M23.1,52.5c-0.2,0.2-0.7,0-1.1-0.5c-0.4-0.4-0.6-0.9-0.5-1.1c0.2-0.2,0.7,0,1.1,0.5
		C23.1,51.8,23.3,52.3,23.1,52.5z"/>
	<path class="st5" d="M29,36.2c-0.2,0.2-0.7,0-1.1-0.5c-0.4-0.4-0.6-0.9-0.5-1.1c0.2-0.2,0.7,0,1.1,0.5C28.9,35.5,29.1,36,29,36.2z"
		/>
	<path class="st5" d="M23.8,36.8c0,0.2-0.5,0.4-1.1,0.5c-0.6,0-1.1-0.2-1.1-0.4c0-0.2,0.5-0.4,1.1-0.5
		C23.3,36.3,23.8,36.5,23.8,36.8z"/>
	<path class="st5" d="M4.4,20.2c-0.2,0.2-0.7,0-1.1-0.4c-0.5-0.4-0.7-0.8-0.6-1c0.2-0.2,0.7,0,1.1,0.4C4.3,19.6,4.5,20,4.4,20.2z"/>
	<path class="st5" d="M48.4,17.8c-0.2,0.1-0.6-0.2-1-0.6c-0.3-0.5-0.5-1-0.3-1.1c0.2-0.1,0.6,0.2,1,0.6
		C48.5,17.2,48.6,17.7,48.4,17.8z"/>
	<path class="st5" d="M37.6,51.1c-0.2,0.2-0.7,0-1.1-0.5c-0.4-0.4-0.6-0.9-0.5-1.1c0.2-0.2,0.7,0,1.1,0.5
		C37.5,50.5,37.7,50.9,37.6,51.1z"/>
	<path class="st5" d="M50.1,49c0.1,0.2-0.4,0.5-1,0.7c-0.6,0.1-1.1,0.1-1.2-0.2c-0.1-0.2,0.4-0.5,1-0.7C49.5,48.7,50,48.8,50.1,49z"
		/>
	<path class="st5" d="M54.8,47.2c-0.2,0-0.4-0.5-0.3-1.1c0.1-0.6,0.4-1.1,0.6-1c0.2,0,0.4,0.5,0.3,1.1C55.3,46.8,55,47.2,54.8,47.2z
		"/>
	<path class="st5" d="M58.8,23.1c-0.1,0.2-0.6,0.2-1.2,0c-0.6-0.2-0.9-0.6-0.9-0.8c0.1-0.2,0.6-0.2,1.2,0S58.8,22.8,58.8,23.1z"/>
	<path class="st5" d="M39.8,19.2c0,0.2-0.4,0.5-1,0.6c-0.6,0.1-1.1,0-1.1-0.3c0-0.2,0.4-0.5,1-0.6C39.2,18.8,39.8,18.9,39.8,19.2z"
		/>
	<path class="st5" d="M56.2,40.4c0,0.2-0.5,0.4-1.1,0.5c-0.6,0-1.1-0.2-1.1-0.4c0-0.2,0.5-0.4,1.1-0.5C55.7,40,56.2,40.2,56.2,40.4z
		"/>
	<path class="st5" d="M52.1,44.7c0.1,0.2-0.2,0.6-0.8,0.9c-0.5,0.3-1.1,0.3-1.2,0.1c-0.1-0.2,0.2-0.6,0.8-0.9
		C51.4,44.6,52,44.5,52.1,44.7z"/>
	<path class="st5" d="M14.5,4.5c0.1,0.2-0.4,0.5-0.9,0.7c-0.6,0.2-1.1,0.1-1.2-0.1c-0.1-0.2,0.4-0.5,0.9-0.7
		C13.9,4.2,14.5,4.3,14.5,4.5z"/>
	<path class="st5" d="M17.3,40.7c-0.1,0.2-0.6,0.2-1.2,0c-0.6-0.2-0.9-0.6-0.9-0.8c0.1-0.2,0.6-0.2,1.2,0
		C17,40.1,17.4,40.5,17.3,40.7z"/>
	<path class="st5" d="M59,32.9c-0.2,0.1-0.6-0.3-0.8-0.8c-0.2-0.6-0.2-1.1,0-1.2c0.2-0.1,0.6,0.3,0.8,0.8
		C59.2,32.2,59.2,32.8,59,32.9z"/>
	<path class="st5" d="M34.5,14.3c-0.2,0.1-0.6-0.3-0.8-0.9c-0.2-0.6-0.2-1.1,0-1.2c0.2-0.1,0.6,0.3,0.8,0.9
		C34.7,13.7,34.7,14.3,34.5,14.3z"/>
	<path class="st5" d="M29.9,8c-0.2,0-0.5-0.4-0.6-1c-0.1-0.6,0-1.1,0.2-1.2c0.2,0,0.5,0.4,0.6,1C30.2,7.4,30.1,7.9,29.9,8z"/>
</g>
</svg>
