<svg xmlns="http://www.w3.org/2000/svg" data-name="Layer 1" viewBox="0 0 128 160" x="0px" y="0px"><title>heavy and power industry final</title><path d="M53.407,77.29333,44.8999,69.9762,35.9967,81.21783V113.5h92V82.16663L117.37164,65.42389,91.64185,69.9762,85.46106,80.15405,75.31927,55.5,61.22253,61.59521ZM39.9967,109.5V91.68506a2.00851,2.00851,0,0,0,.39453-.146l5.814-2.90723L70.62091,109.5Zm84,0H76.77753L65.14246,99.55548,75.71155,87.96777,86.359,93.32129l3.03564,8.8291a1.99975,1.99975,0,0,0,2.99756,1.01563l21.05273-13.98437L123.88928,96.125c.03448.02295.07208.03632.10742.05682ZM73.16919,60.7876l8.59265,20.88818A3.99994,3.99994,0,0,0,85.15039,84.142q.15628.01218.31152.01215A4.00005,4.00005,0,0,0,88.88,82.23029l5.24121-8.63062,21.30884-3.77014,8.56665,13.49921v8.06512l-9.44385-6.27863a1.99772,1.99772,0,0,0-2.21387-.001L92.33557,98.40137,89.87659,91.25a1.99977,1.99977,0,0,0-.99268-1.13672l-12.73-6.40039a2.00571,2.00571,0,0,0-2.376.43945L62.1004,96.95551,47.796,84.72949a1.99924,1.99924,0,0,0-2.19385-.26855L39.9967,87.26367V82.60992L45.44952,75.725l5.34912,4.60089A4,4,0,0,0,56.98779,79.076l7.164-14.38953Z"/><path d="M70.37415,54.63086a1.99976,1.99976,0,0,0,1.938-1.5127l2.43164-9.66895a1.99974,1.99974,0,1,0-3.87891-.97461l-2.43164,9.668a2.00049,2.00049,0,0,0,1.94092,2.48828Z"/><path d="M57.9303,60.16406a1.99986,1.99986,0,0,0,.97559-3.87891l-9.66846-2.43066a1.99986,1.99986,0,0,0-.97559,3.87891Z"/><path d="M1.10394,73.90564a6.347,6.347,0,0,0,1.02728,8.30591q.07443.06583.15222.12787L5.73682,85.0968A5.82743,5.82743,0,0,0,9.49792,86.5a5.63772,5.63772,0,0,0,4.72766-2.58264l31.2489-44.59174a3.48929,3.48929,0,0,0,1.074.1734c.05573,0,.11121-.00916.16693-.01172A92.87039,92.87039,0,0,1,57.63367,52.66565,4,4,0,0,0,64.864,49.47821a47.01558,47.01558,0,0,0-10.00732-19.374,3.42116,3.42116,0,0,0-1.214-3.68042l-8.0791-6.20508a3.48251,3.48251,0,0,0-2.606-.68359,3.42707,3.42707,0,0,0-1.27655.45294A52.91327,52.91327,0,0,0,19.37048,14.5c-.33093,0-.506.00647-.506.00647a4.00094,4.00094,0,0,0-.62042,7.92633A46.066,46.066,0,0,1,34.99365,29.691,3.4113,3.4113,0,0,0,35.59,31.74988L1.28082,73.67267Q1.18817,73.78583,1.10394,73.90564ZM60.9967,50.5A95.07884,95.07884,0,0,0,50.0116,37.13232l2.55646-3.51685A43.46615,43.46615,0,0,1,60.9967,50.5ZM43.57141,23.73242l7.21045,5.53809L46.422,35.26758l-7.21-5.53613ZM18.9967,18.50427S19.126,18.5,19.37036,18.5a48.39124,48.39124,0,0,1,19.6853,4.64227L36.8681,26.15234A49.72914,49.72914,0,0,0,18.9967,18.50427ZM4.37634,76.206,38.64191,34.33649l3.53973,2.71808L10.905,81.68591a1.64829,1.64829,0,0,1-1.407.81409A1.8278,1.8278,0,0,1,8.29,82.01672L4.77924,79.21356A2.32831,2.32831,0,0,1,4.37634,76.206Z"/><text x="0" y="143" fill="#000000" font-size="5px" font-weight="bold" font-family="'Helvetica Neue', Helvetica, Arial-Unicode, Arial, Sans-serif">Created by priyanka</text><text x="0" y="148" fill="#000000" font-size="5px" font-weight="bold" font-family="'Helvetica Neue', Helvetica, Arial-Unicode, Arial, Sans-serif">from the Noun Project</text></svg>