<?xml version="1.0" encoding="utf-8"?>
<!-- Generator: Adobe Illustrator 25.0.0, SVG Export Plug-In . SVG Version: 6.00 Build 0)  -->
<svg version="1.1" id="Layer_1" xmlns="http://www.w3.org/2000/svg" xmlns:xlink="http://www.w3.org/1999/xlink" x="0px" y="0px"
	 viewBox="0 0 525.4 357.1" style="enable-background:new 0 0 525.4 357.1;" xml:space="preserve">
<style type="text/css">
	.st0{fill:#1A1919;}
	.st1{fill-opacity:0;stroke:#1A1919;stroke-width:17;stroke-linecap:round;stroke-linejoin:round;}
	.st2{fill:#F9D3A9;}
	.st3{fill:#F3B88A;}
</style>
<path class="st0" d="M101.1,240.8c4.1,11.8,8.6,12.6,8.6,12.6c0.3,0.5,0.6,0.9,0.9,1.4c-5.1-3.1-11.7-7-19.1-11.3
	C91.5,243.4,94.5,243.5,101.1,240.8z M516.5,217.4c-3.7-10.8-9.1-41.1-9.1-41.1c4.4-16.2-0.5-31.2-0.5-31.2
	C492.1,108.4,478,98.2,478,98.2c-19.4-14.2-39-9.2-39-9.2c-14-1.8-20.2-11.8-20.2-11.8c-7.8-13.1-17.9-21-17.9-21
	C377.5,26,322,43.5,322,43.5c-22,2.3-42.7-24.3-42.7-24.3C260.6,0.5,234.3,12,234.3,12c-8,4.1-33.5,11.2-33.5,11.2
	c-8.4-0.7-16.9-5.4-16.9-5.4c-31.4-12.1-55.5,15.5-55.5,15.5C98.2,54.8,97.5,94.5,97.5,94.5L96,131.8c-0.3,4.3-0.5,8.4-0.7,12.3
	c-9,8.5-22,17.9-38.2,22.1c0,0-26.9,2.7-28.7,22.7c0,0-5.9,47.3-15.8,57.5c0,0-18.5,24.6,23.7,44.2c0,0,19.8,17,31.7,36.1
	c0,0,50,50.9,95.1-2.5c0,0,11.7-13.3,2.1-45.5c0,0,1-6.4-16-11.9c1-0.2,1.6-0.4,1.6-0.4c14,1.8,16.6-16.6,16.6-16.6
	c-3.2,32.9,4.6,50,4.6,50C181,325.4,215,323,215,323c27.6,0.9,39.5-11.3,39.5-11.3c-2.1,29.3,37.6,32,37.6,32
	c33.3,6,39.9-10.5,39.9-10.5c25.4,13,44.2,11.5,44.2,11.5c44.5,0.3,89.7-72.3,98-77.6c8.4-5.3,26.6-18.9,26.6-18.9
	C521,240.1,516.5,217.4,516.5,217.4"/>
<path class="st1" d="M101.1,240.8c4.1,11.8,8.6,12.6,8.6,12.6c0.3,0.5,0.6,0.9,0.9,1.4c-5.1-3.1-11.7-7-19.1-11.3
	C91.5,243.4,94.5,243.5,101.1,240.8z M516.5,217.4c-3.7-10.8-9.1-41.1-9.1-41.1c4.4-16.2-0.5-31.2-0.5-31.2
	C492.1,108.4,478,98.2,478,98.2c-19.4-14.2-39-9.2-39-9.2c-14-1.8-20.2-11.8-20.2-11.8c-7.8-13.1-17.9-21-17.9-21
	C377.5,26,322,43.5,322,43.5c-22,2.3-42.7-24.3-42.7-24.3C260.6,0.5,234.3,12,234.3,12c-8,4.1-33.5,11.2-33.5,11.2
	c-8.4-0.7-16.9-5.4-16.9-5.4c-31.4-12.1-55.5,15.5-55.5,15.5C98.2,54.8,97.5,94.5,97.5,94.5L96,131.8c-0.3,4.3-0.5,8.4-0.7,12.3
	c-9,8.5-22,17.9-38.2,22.1c0,0-26.9,2.7-28.7,22.7c0,0-5.9,47.3-15.8,57.5c0,0-18.5,24.6,23.7,44.2c0,0,19.8,17,31.7,36.1
	c0,0,50,50.9,95.1-2.5c0,0,11.7-13.3,2.1-45.5c0,0,1-6.4-16-11.9c1-0.2,1.6-0.4,1.6-0.4c14,1.8,16.6-16.6,16.6-16.6
	c-3.2,32.9,4.6,50,4.6,50C181,325.4,215,323,215,323c27.6,0.9,39.5-11.3,39.5-11.3c-2.1,29.3,37.6,32,37.6,32
	c33.3,6,39.9-10.5,39.9-10.5c25.4,13,44.2,11.5,44.2,11.5c44.5,0.3,89.7-72.3,98-77.6c8.4-5.3,26.6-18.9,26.6-18.9
	C521,240.1,516.5,217.4,516.5,217.4z"/>
<path class="st2" d="M109.5,128c0,0-19.8,29.8-52.5,38.3c0,0-26.9,2.7-28.7,22.7c0,0-5.9,47.3-15.8,57.5c0,0-18.5,24.6,23.7,44.2
	c0,0,19.8,17,31.7,36.1c0,0,50,50.9,95.1-2.5c0,0,11.7-13.3,2.1-45.5c0,0,1.9-12-43.1-17.1c0,0-12.8-7.8-30.5-18.2
	c0,0,5.1,0.1,17-6.1C108.6,237.4,139.1,195.3,109.5,128"/>
<path class="st2" d="M97.5,94.5c0,0,0.7-39.7,30.9-61.2c0,0,24.1-27.5,55.5-15.5c0,0,8.5,4.7,16.9,5.4c0,0,25.6-7.1,33.5-11.2
	c0,0,26.3-11.5,44.9,7.1c0,0,20.7,26.6,42.7,24.3c0,0,55.5-17.5,79.1,12.7c0,0,10.1,7.9,17.9,21c0,0,6.1,9.9,20.2,11.8
	c0,0,19.6-5,39,9.2c0,0,14.1,10.3,28.9,46.9c0,0,4.8,15,0.5,31.2c0,0,5.4,30.3,9.1,41.1c0,0,4.5,22.7-15.6,30.9
	c0,0-18.2,13.6-26.6,18.9c-8.3,5.3-53.6,77.9-98,77.6c0,0-18.7,1.5-44.2-11.5c0,0-6.6,16.5-39.9,10.5c0,0-39.7-2.8-37.6-32
	c0,0-11.9,12.2-39.5,11.3c0,0-34,2.4-43.1-23.1c0,0-7.8-17.1-4.6-50c0,0-2.6,18.5-16.6,16.6c0,0-28.3,7.5-41-13.1
	c0,0-21.6-3.7-13.7-121.6L97.5,94.5"/>
<path class="st0" d="M302.1,35.1c1.2,1.2,2.6,2.4,4,3.5c1.4,1.2,2.8,2.3,4.3,3.4c2.9,2.2,5.9,4.2,9.1,6.1c6.3,3.8,12.9,7.1,20,9.5
	c-7.3-1.4-14.5-3.6-21.5-6.5c-3.5-1.5-6.9-3.1-10.3-4.9c-1.7-0.9-3.3-1.8-5-2.8c-1.7-1-3.2-2-4.9-3.2c-1.5-1.1-1.9-3.2-0.8-4.8
	c1.1-1.5,3.2-1.9,4.8-0.8C301.8,34.9,301.9,35,302.1,35.1L302.1,35.1"/>
<path class="st0" d="M194.6,19.2c2.5,1.7,5.1,3.3,7.8,4.9c2.6,1.6,5.3,3.1,8,4.5c2.7,1.4,5.5,2.8,8.3,4c2.8,1.2,5.7,2.3,8.7,3.2
	c-3.1-0.3-6.2-0.9-9.2-1.6c-3.1-0.7-6.1-1.6-9.1-2.5c-3-0.9-6-2-8.9-3c-3-1.1-5.9-2.2-8.8-3.5c-1.7-0.7-2.5-2.7-1.8-4.5
	c0.7-1.7,2.8-2.5,4.5-1.8C194.2,18.9,194.4,19,194.6,19.2L194.6,19.2"/>
<path class="st0" d="M454,106c-3.2-1.3-6.4-2.9-9.4-4.7c-3-1.8-5.9-3.8-8.6-5.9c-2.7-2.1-5.3-4.4-7.7-6.8c-2.4-2.4-4.7-4.9-6.8-7.6
	c2.5,2.3,5.1,4.4,7.9,6.3c2.7,1.9,5.6,3.7,8.5,5.3c2.9,1.6,5.9,3,9,4.1c3.1,1.2,6.1,2.1,9.3,2.8c1.8,0.4,3,2.2,2.6,4.1
	c-0.4,1.8-2.2,3-4.1,2.6C454.4,106.1,454.3,106.1,454,106L454,106"/>
<path class="st3" d="M451.5,105.8c0,0-24-8.3-31.3-17.7c0,0,8.3,14.6-4.2,74C416.1,162.1,427.6,104.7,451.5,105.8"/>
<path class="st3" d="M287.6,38.4c0,0,8.8,10.1,22,12.7c0,0-13.3,1.7-22.8,51.5C286.8,102.5,295.6,46.7,287.6,38.4"/>
<path class="st3" d="M192.9,27.4c0,0,14.7,9.3,27,8.7c0,0-17.7,2-26,68.3C193.9,104.4,201.6,40,192.9,27.4"/>
<path class="st3" d="M150.1,260.5c0,0,8.9,3.6,12-14.8c0,0,25.7-102.5,28.6-119.3c0,0-28.4,131.9-58.6,135.8
	C132.2,262.2,147.3,263,150.1,260.5"/>
<path class="st3" d="M248.7,307.2c0,0,15.1-69.3,27.7-135.3S253.8,314.4,213,315.8C213,315.8,233.6,318.1,248.7,307.2"/>
<path class="st3" d="M399.6,212.9c0,0-54.6,123.5-23.5,126c0,0-21.5,0-36-9C340.1,329.9,392.1,233.4,399.6,212.9"/>
<path class="st3" d="M477.1,261.2c0,0,19.3-12.9,22.3-15.9c0,0-3.3-0.4-2.7-2c8.8-23.3,8.5-39.2,8.2-38.1
	c-3.8,13.3-8.4,23.7-11.1,27.1c-1.2,1.5-3.1,1.7-0.7-2.2c0,0,12.1-30.9,11.2-53.2c-1.8,42.9-34.4,89.1-34.4,89.1L477.1,261.2"/>
<path class="st0" d="M468.5,268.7c4.5-6.9,8.7-14.1,12.6-21.3c3.9-7.3,7.5-14.8,10.7-22.4c3.2-7.6,6-15.5,8.2-23.5
	c2.2-8,3.8-16.2,4.3-24.5c-0.2,8.3-1.5,16.6-3.5,24.7c-1.9,8.1-4.5,16.1-7.4,23.9c-3,7.8-6.3,15.5-10,23c-3.7,7.5-7.6,14.9-12,22
	c-0.5,0.8-1.5,1.1-2.3,0.6C468.2,270.6,468,269.6,468.5,268.7C468.5,268.8,468.5,268.8,468.5,268.7L468.5,268.7"/>
<path class="st0" d="M471.7,264.3c2-1.4,4-3.2,5.8-5c1.9-1.8,3.6-3.7,5.3-5.7c3.4-4,6.4-8.3,9.1-12.8c5.4-9,9.4-19,11.9-29.3
	c-2,10.4-5.4,20.6-10.4,30.1c-2.5,4.7-5.4,9.3-8.6,13.6c-1.6,2.1-3.4,4.2-5.2,6.2c-1.9,2-3.7,3.9-6,5.7c-0.7,0.6-1.8,0.5-2.4-0.3
	c-0.6-0.7-0.5-1.8,0.3-2.4C471.6,264.4,471.6,264.4,471.7,264.3L471.7,264.3"/>
<path class="st3" d="M74.1,164c0,0,16.9-11.3,19.8-14.7c0,0-3.9,49.1,1.7,85.8c0,0-12.4-72.2-48.5-61C47,174.1,71.8,164.5,74.1,164"
	/>
<path class="st3" d="M79.7,218.7l15.8,17.5l-28.2,1.7c0,0,24.8,12.4,38.4,21.4c0,0,18.6,17.5,39.5,14.1c0,0-11.3,19.8-64.3-10.7
	c0,0-5.6,4.5-17.5,0.6c-4.5-3.9-6.2-3.4-6.8-6.8c-0.4-2.6,1.1-6.2,5.6-8.5c3.9-1.9,14.7-2.1,10.2-3.4c-13.5-4-23.4-18.6-20.9-20.9
	c2.4-2.2,22,12.5,26,11.3C80.7,234.1,75.4,218.8,79.7,218.7"/>
</svg>
