<?xml version="1.0" encoding="utf-8"?>
<!-- Generator: Adobe Illustrator 25.0.0, SVG Export Plug-In . SVG Version: 6.00 Build 0)  -->
<svg version="1.1"
	 id="svg3272" inkscape:output_extension="org.inkscape.output.svg.inkscape" xmlns:cc="http://creativecommons.org/ns#" xmlns:dc="http://purl.org/dc/elements/1.1/" xmlns:inkscape="http://www.inkscape.org/namespaces/inkscape" xmlns:ns1="http://sozi.baierouge.fr" xmlns:rdf="http://www.w3.org/1999/02/22-rdf-syntax-ns#" xmlns:sodipodi="http://sodipodi.sourceforge.net/DTD/sodipodi-0.dtd" xmlns:svg="http://www.w3.org/2000/svg"
	 xmlns="http://www.w3.org/2000/svg" xmlns:xlink="http://www.w3.org/1999/xlink" x="0px" y="0px" viewBox="0 0 304.5 307.8"
	 style="enable-background:new 0 0 304.5 307.8;" xml:space="preserve">
<style type="text/css">
	.st0{fill:#490B55;}
	.st1{fill-rule:evenodd;clip-rule:evenodd;fill:url(#path3246_1_);}
	.st2{fill-rule:evenodd;clip-rule:evenodd;fill:url(#path3316_1_);}
	.st3{fill:#682C91;}
	.st4{fill:url(#path5241_1_);}
	.st5{fill-rule:evenodd;clip-rule:evenodd;fill:url(#path5306_1_);}
	.st6{fill-rule:evenodd;clip-rule:evenodd;fill:url(#path4289_1_);}
	.st7{fill:url(#path5312_1_);}
</style>
<sodipodi:namedview  bordercolor="#666666" borderopacity="1.0" gridtolerance="10000" guidetolerance="10" id="base" inkscape:current-layer="layer1" inkscape:cx="271.24786" inkscape:cy="118.76196" inkscape:document-units="px" inkscape:pageopacity="0.0" inkscape:pageshadow="2" inkscape:window-height="744" inkscape:window-width="1280" inkscape:window-x="0" inkscape:window-y="22" inkscape:zoom="1.4" objecttolerance="10" pagecolor="#ffffff" showgrid="false">
	<inkscape:grid  id="grid2508" type="xygrid"></inkscape:grid>
</sodipodi:namedview>
<path id="path3244" sodipodi:nodetypes="cccccscccccccc" class="st0" d="M142.7,3.1c-10.9,0.4-19.2,4.9-27,8.3
	c-30.6,15.5-54.3,34-76,52.6C24.2,78.1,8.3,92.6,1.6,108.5c-2.8,4.9,0.5,18.4,5.1,23.7c2,5.6,8.1,5.4,11.7,9c3,3,22.2,0,27.3,0
	c15-1.7,30-2,45-2c36.9,7.2,58.6,0.4,88.4,0h10.6c80.8-5.9,112.3-10.2,69.8-57c-21.1-22.6-46.5-44.4-78.2-64
	c-10.5-5.7-20.8-12.7-36.5-15C144.2,3.1,143.4,3.1,142.7,3.1L142.7,3.1z"/>
<linearGradient id="path3246_1_" gradientUnits="userSpaceOnUse" x1="-94.0344" y1="70.4204" x2="-74.9744" y2="70.4204" gradientTransform="matrix(2.0016 0 0 -2.0016 317.2234 340.9791)">
	<stop  offset="0" style="stop-color:#9E7000"/>
	<stop  offset="1" style="stop-color:#FFC998"/>
</linearGradient>
<path id="path3246" sodipodi:nodetypes="cccccc" class="st1" d="M147.3,96.5c-8.1-1.8-16,4.4-13.9,13c5.1,62.1,7.2,125.1-4.4,186.5
	c0,9.8,38.2,11.2,39.3,0.1c15.1-58.9,9.8-87.3-15.9-178.5C149.8,112.5,156,94,147.3,96.5L147.3,96.5z"/>
<linearGradient id="path3316_1_" gradientUnits="userSpaceOnUse" x1="-93.6671" y1="127.7044" x2="-84.6171" y2="58.8344" gradientTransform="matrix(2.0016 0 0 -2.0016 317.2234 340.9791)">
	<stop  offset="0" style="stop-color:#614618"/>
	<stop  offset="1" style="stop-color:#FFFBF8;stop-opacity:0"/>
</linearGradient>
<path id="path3316" sodipodi:nodetypes="cccccc" class="st2" d="M147.3,96.5c-8.1-1.8-16,4.4-13.9,13c5.1,62.1,7.2,125.1-4.4,186.5
	c0,9.8,38.2,11.2,39.3,0.1c15.1-58.9,9.8-87.3-15.9-178.5C149.8,112.5,156,94,147.3,96.5L147.3,96.5z"/>
<path id="path3248" sodipodi:nodetypes="ccccccccccccccc" class="st3" d="M276.2,117.2c-8.2,3.7-7.5,18.9-30.8,5.7
	c-20.7,2.9-39.7,8-59.2,12.4c-14.7,3.1-28.9-1.9-41.2-5.2c-10.6-3.6-29.4,1.6-41.8,3.5c-20.5,2.5-32.9,3.5-54.3,4.6
	c-20-0.2-33.8,1-41.9-6.8c-5.1-4.5-9-19.4-6-24.7c6.6-15.8,22.5-30.3,38.1-44.5c21.7-18.6,45.4-37,76-52.6
	c8.2-3.6,17.2-8.5,29.2-8.3c15.8,2.3,26,9.3,36.5,15c31.7,19.5,57.1,41.4,78.2,64c8.8,10.4,18.7,21,19.5,32.4
	C278.3,114.2,277.9,115.8,276.2,117.2z"/>
<linearGradient id="path5241_1_" gradientUnits="userSpaceOnUse" x1="139.2022" y1="137.7978" x2="139.2022" y2="-9.094947e-13">
	<stop  offset="0" style="stop-color:#00A4FF;stop-opacity:0.5"/>
	<stop  offset="0.1688" style="stop-color:#2FB4FE;stop-opacity:0.4156"/>
	<stop  offset="0.5821" style="stop-color:#9EDAFB;stop-opacity:0.209"/>
	<stop  offset="0.8676" style="stop-color:#E4F2F9;stop-opacity:6.619173e-02"/>
	<stop  offset="1" style="stop-color:#FFFBF8;stop-opacity:0"/>
	<stop  offset="1" style="stop-color:#F7F8F8;stop-opacity:5.855240e-02"/>
</linearGradient>
<path id="path5241" class="st4" d="M136,0.9c-29,8.6-52.7,28.8-75.4,47.5C38.9,68.9,13.1,89,3.5,117.6c-1.7,8.5,2.9,15.1,10.7,19.2
	c-3.5-10.9-3.9-22.5,4.1-31.7c11.6-17.4,27.1-32.1,42.5-46.1c-15.5,18.1-34.5,36.6-39.2,60.3c0.5,7.7-0.3,21.3,11.4,17.7
	c-5.3-11.8-3.5-24.7,4.2-35.1c14.3-22.6,33.4-42.5,53-60.8C71.9,65,50.7,89.5,44.8,119c0.3,6.1-0.4,15.4,4.4,18.3
	c11.2,2.8,2.7-8.9,3.8-14.8c1.4-21.6,17.1-39.4,28.6-57.2c7.5-10.2,15.4-20.2,24-29.5C90,62.1,73,89,68.5,119.4
	c0.7,5.2-0.9,16.2,3.6,17.2c11.1-1.1,1.8-13.6,5.1-20.9c7-29.7,23.4-57.1,40.4-82.7C106,62.6,92.4,92.9,91.8,125
	c-3,9,8.8,13,8.5,3.4c-1.4-27.3,10.4-53.2,19.1-78.5c-6.1,26.6-13.8,53.7-12.2,81.3c11.2,3.4,7.5-6.6,7.9-13.5
	c1.8-24,7.7-47.8,13.6-71.3c-2.8,27.2-6.7,54.5-6.1,82c12.7,3.8,6.8-9.5,8.3-16.7c0.6-14.5,2.1-29,3.6-43.4
	c-0.3,19.8-0.8,39.6-0.4,59.4c14.5,3.2,5.7-16.1,8.2-24.5c0.3-19,0.3-42.3,0.9-58.6c2.4,28.4,7.6,57.1,5.4,85.5
	c8.4,5.6,9.3-1.6,9-8.4c-0.3-25.3-3.8-53.8-6-76.7c5.9,26.4,13.7,53.4,13,80.7c-4.2,6.8,1.6,12.8,6.8,7.1
	c5.2-22.7-3.4-45.9-6.8-68.3c-0.6-3.9-4.6-18.4-3.1-14.9c7.9,24.5,18.8,49.4,18.2,75.3c-1.9,4.9-6.4,16.4,3.3,10.2
	c7.7-6.5,5.2-19.9,3.6-29.5c-5.5-25.8-13.7-51.1-24.1-75.4c17.5,26.9,34,56.2,40.6,87.4c3.2,5.6-8.1,17.1,2.9,12.3
	c9.6-2.4,4.3-15.4,3.4-22.4c-7.9-26.3-20.7-51.1-35.2-74.4c21.3,25.1,42.7,52.5,52.4,83.7c-3.5,10.3,11.3,9.9,8.3,0.7
	c-6.2-28-25.1-51.7-41.9-74.7c-9.4-10.8,6.4,5.2,9.5,8.2c17.9,20.3,38.8,41,47.3,67c-2.5,6.9,10.4,12.8,8.7,3.8
	c-2.7-24.3-22.3-43.2-36.9-61.9c-9.6-10.6,6.5,5.4,9.3,8.3c15.2,16.8,33.6,33.5,38.8,56.2c8.4-5.1,5.6-12.9,1.6-19.5
	C246,66.4,210,34.1,170.3,9.5C160.3,3.9,146.4-2.4,136,0.9L136,0.9z"/>
<path id="path5304" sodipodi:nodetypes="ccccccccccccc" class="st0" d="M230.3,156.6c-5.9,0.2-10.4,2.7-14.5,4.6
	c-16.5,8.6-29.3,18.7-41,29c-8.4,7.8-17,15.8-20.6,24.5c-1.5,2.7,0.3,10.1,2.8,13.1c4,3.7,15.6,5.1,21,5c8.1-1,16.2-1.1,24.3-1.1
	c19.9,4,23.3-0.8,39.4-1c1.9,0,8.6-1.2,10.6-1.2c53.2,0.6,63.3,0,41.1-29.3c-11.4-12.5-25.1-24.5-42.2-35.3
	c-5.6-3.2-11.2-7-19.7-8.3C231.1,156.6,230.7,156.6,230.3,156.6z"/>
<linearGradient id="path5306_1_" gradientUnits="userSpaceOnUse" x1="248.9658" y1="-69.8949" x2="269.3658" y2="-74.4149" gradientTransform="matrix(1.0796 3.078859e-02 3.078859e-02 -1.0796 -52.7218 164.9748)">
	<stop  offset="0" style="stop-color:#9E7000"/>
	<stop  offset="1" style="stop-color:#FFC998"/>
</linearGradient>
<path id="path5306" sodipodi:nodetypes="cccccc" class="st5" d="M237,195c-4.3-1.1-8.7,2.1-7.7,6.8c-18.3,58.5-21,84.5-21.5,102
	c-0.1,5.3,25.2,5.5,25.9-0.4c-1.8-19.8,1.7-4,5.7-96.9C238.2,203.6,241.8,193.8,237,195z"/>
<linearGradient id="path4289_1_" gradientUnits="userSpaceOnUse" x1="269.9691" y1="-19.7254" x2="260.9091" y2="-85.0454" gradientTransform="matrix(1.0796 3.078859e-02 3.078859e-02 -1.0796 -52.7218 166.9766)">
	<stop  offset="0" style="stop-color:#614618"/>
	<stop  offset="1" style="stop-color:#FFFBF8;stop-opacity:0"/>
</linearGradient>
<path id="path4289" sodipodi:nodetypes="cccccc" class="st6" d="M237,197c-4.3-1.1-8.7,2.1-7.7,6.8c-18.3,58.5-21,84.5-21.5,102
	c-0.1,5.3,25.2,5.5,25.9-0.4c-1.8-19.8,1.7-4,5.7-96.9C238.2,205.6,241.8,195.8,237,197L237,197z"/>
<path id="path5310" sodipodi:nodetypes="cccccccccccccc" class="st3" d="M286.6,226.4c-25.6,1.2-18.3-5.7-28.9-3.4
	c-7.9,1.7-11,7.8-17.6,6c-5.7-2-14.5,4.5-21.2,5.6c-11.1,1.4-27.2-6.4-38.7-5.8c-10.8-0.1-18.6,1.1-23-3.1
	c-2.7-2.4-4.9-10.5-3.3-13.3c3.6-8.6,12.1-16.4,20.5-24c11.7-10.1,24.5-20,41-28.4c4.5-1.9,9.3-4.6,15.8-4.5
	c8.5,1.3,14.1,5,19.7,8.1c17.1,10.5,30.8,22.3,42.2,34.5c4.8,5.6,10.1,11.3,10.5,17.5C306.1,224.3,304.2,230.8,286.6,226.4
	L286.6,226.4z"/>
<linearGradient id="path5312_1_" gradientUnits="userSpaceOnUse" x1="228.7123" y1="233.6774" x2="228.7123" y2="154.8916">
	<stop  offset="0" style="stop-color:#00A4FF;stop-opacity:0.5"/>
	<stop  offset="0.1688" style="stop-color:#2FB4FE;stop-opacity:0.4156"/>
	<stop  offset="0.5821" style="stop-color:#9EDAFB;stop-opacity:0.209"/>
	<stop  offset="0.8676" style="stop-color:#E4F2F9;stop-opacity:6.619173e-02"/>
	<stop  offset="1" style="stop-color:#FFFBF8;stop-opacity:0"/>
	<stop  offset="1" style="stop-color:#F7F8F8;stop-opacity:5.855240e-02"/>
</linearGradient>
<path id="path5312" sodipodi:nodetypes="cccccccccccccccccccccccccccccccccccccccccccccccccccccccc" class="st7" d="M226.7,155.4
	c-15.7,4.6-28.4,15.4-40.7,25.4c-11.7,10.9-25.6,21.7-30.8,37c-0.9,4.5,1.4,7.1,5.6,9.3c-1.9-5.8-1.9-11.1,2.4-16
	c6.3-9.3,14.6-17.1,23-24.6c-8.4,9.7-18.6,19.5-21.2,32.2c0.3,4.1-0.2,11.4,6.2,9.5c-2.8-6.3-1.9-13.2,2.3-18.7
	c7.7-12.1,18-22.7,28.6-32.5c-9.9,12.7-21.3,25.8-24.5,41.5c0.2,3.2-0.2,8.2,2.4,9.8c6,1.5,1.4-4.7,2.1-7.9
	c0.8-11.6,9.2-21,15.5-30.5c4.1-5.4,8.3-10.8,13-15.8c-8.5,14-17.7,28.4-20.1,44.6c0.4,2.8-1.5,10.9,1,11.5c6-0.6,2-9.5,3.7-13.4
	c3.8-15.8,12.6-30.5,21.8-44.2c-6.3,15.8-17.1,40-17.4,57.1c-1.1,3.1,4.6,0.3,4.4-4.8c-0.8-14.6,9.3-29.7,13.9-43.3
	c-3.3,14.2-8.9,36.1-8,50.9c2.5,2.1,3.5,3.9,5.7-14.6c1-12.8,4.2-25.5,7.3-38.1c-1.5,14.5-3.6,29.1-3.3,43.8
	c-2.1,14,4.2,15.9,4.5-8.9c0.3-7.7,1.1-15.5,1.9-23.2c-0.2,10.6-0.4,21.2-0.2,31.7c-2.7,20,4,0.3,4.4-13.1
	c0.2-10.2,0.2-22.6,0.5-31.3c1.3,15.2,3.6,30.5,2.4,45.7c2.4,9.2,5.6-0.9,5.4-4.5c-0.2-13.5-2.1-28.7-3.2-40.9
	c3.2,14.1,7.4,28.5,7,43.1c-1.6,3.2,4.1,10.1,3.7,3.8c2.8-12.1-1.9-24.5-3.7-36.5c-0.3-2.1-2.5-9.8-1.7-8
	c4.3,13.1,10.1,26.4,9.8,40.2c-0.9,8.5,4.9-2.6,3.7-10.3c-3-13.8-7.4-27.3-13-40.3c9.5,14.4,18.4,30,21.9,46.7
	c2.4,9.8,5.7,6.4,3.4-5.4c-4.3-14-11.2-27.3-19-39.7c11.5,13.4,23,28,28.3,44.7c0.3,10.6,8.4,11.9,4.5,0.4
	c-3.3-14.9-13.5-27.6-22.6-39.9c-5.1-5.7,3.5,2.8,5.1,4.4c9.7,10.8,21,21.9,25.5,35.8c1.5,9.2,6.8,13.2,4.7,2
	c-1.5-13-12-23.1-19.9-33.1c-5.2-5.7,3.5,2.9,5,4.4c8.2,9,19.1,22.5,21.9,34.6c4.5-2.7,2.1-11.5-0.1-15
	c-13.7-20.5-33.1-37.8-54.5-50.9C239.8,157,232.3,153.6,226.7,155.4L226.7,155.4z"/>
</svg>
