<svg xmlns="http://www.w3.org/2000/svg" xmlns:xlink="http://www.w3.org/1999/xlink" version="1.1" x="0px" y="0px" viewBox="0 0 100 125" style="enable-background:new 0 0 100 100;" xml:space="preserve"><g><g><g><g><g><g><g><g><g><path d="M35.96,38.61c-0.51,0-1.02-0.2-1.41-0.59c-0.78-0.78-0.78-2.05,0-2.83l6.06-6.06           c5.88-11.39,13.3-14.42,16.08-15.18c-13.21,0.24-17.58,11.37-17.77,11.87c-0.1,0.27-0.26,0.51-0.46,0.71l-6.29,6.29           c-0.78,0.78-2.05,0.78-2.83,0s-0.78-2.05,0-2.83l6.02-6.01c1.14-2.56,7.58-15.19,23.96-13.95           c0.13,0.01,15.08,0.91,26.6-0.9l0.63-0.1c1.09-0.18,2.12,0.56,2.29,1.65c0.18,1.09-0.55,2.12-1.64,2.3           c-0.22,0.04-0.44,0.07-0.67,0.11l-28.18,4.59c-0.38,0.06-8.12,1.32-14.33,13.56c-0.1,0.19-0.22,0.36-0.37,0.51l-6.29,6.29           C36.98,38.42,36.47,38.61,35.96,38.61z"/></g></g></g></g></g><g><g><g><g><g><path d="M86.88,13c-0.88,0-1.68-0.58-1.93-1.47c-0.3-1.06,0.33-2.17,1.39-2.46c3.05-0.85,4.65-2.86,4.66-2.88           c0.67-0.87,1.92-1.04,2.8-0.37c0.87,0.67,1.05,1.91,0.39,2.78c-0.09,0.13-2.37,3.1-6.78,4.32           C87.23,12.98,87.05,13,86.88,13z"/></g></g></g></g></g></g><g><g><g><g><g><g><path d="M11.01,88.88c-0.11,0-0.22-0.01-0.33-0.03c-1.09-0.18-1.83-1.21-1.65-2.29l0.1-0.63           c1.81-11.51,0.91-26.47,0.9-26.63C8.8,42.97,21.42,36.49,23.98,35.36L29.34,30c0.78-0.78,2.05-0.78,2.83,0           c0.78,0.78,0.78,2.05,0,2.83l-5.63,5.63c-0.2,0.2-0.45,0.36-0.72,0.46c-0.49,0.19-11.63,4.56-11.86,17.76           c0.74-2.72,3.75-10.17,15.18-16.06l5.41-5.41c0.78-0.78,2.05-0.78,2.83,0c0.78,0.78,0.78,2.05,0,2.83l-5.63,5.63           c-0.15,0.15-0.32,0.27-0.51,0.37C18.84,50.32,17.69,58.22,17.68,58.3l-4.6,28.25c-0.04,0.22-0.07,0.45-0.11,0.67           C12.81,88.18,11.97,88.88,11.01,88.88z"/></g></g></g></g></g><g><g><g><g><g><path d="M7.41,94.6c-0.61,0-1.21-0.28-1.6-0.8C5.15,92.91,5.32,91.67,6.19,91c0.06-0.05,2.04-1.64,2.88-4.66           c0.29-1.06,1.4-1.68,2.46-1.39c1.06,0.3,1.69,1.4,1.39,2.46c-1.23,4.42-4.2,6.69-4.33,6.79C8.24,94.47,7.82,94.6,7.41,94.6           z"/></g></g></g></g></g></g></g><g><g><g><g><g><path d="M11.77,86.51c-0.51,0-1.02-0.2-1.41-0.59c-0.78-0.78-0.78-2.05,0-2.83l72.74-72.74c0.78-0.78,2.05-0.78,2.83,0         c0.78,0.78,0.78,2.05,0,2.83L13.18,85.92C12.79,86.31,12.28,86.51,11.77,86.51z"/></g></g></g></g></g><g><g><g><g><g><path d="M77.64,79.63c-0.51,0-1.03-0.2-1.42-0.59L13.93,16.4c-0.78-0.78-0.78-2.05,0.01-2.83c0.78-0.78,2.05-0.78,2.83,0.01         l62.29,62.65c0.78,0.78,0.78,2.05-0.01,2.83C78.66,79.44,78.15,79.63,77.64,79.63z"/></g></g></g></g></g><g><g><g><g><g><g><path d="M81.32,73.2h-9.57c-1.1,0-2-0.9-2-2s0.9-2,2-2h4.74l-4.47-4.47H63.1c-1.1,0-2-0.9-2-2s0.9-2,2-2h9.74          c0.53,0,1.04,0.21,1.41,0.59l8.47,8.47c0.57,0.57,0.74,1.43,0.43,2.18C82.85,72.71,82.12,73.2,81.32,73.2z"/></g></g></g></g></g><g><g><g><g><g><path d="M71.21,83.31c-0.52,0-1.03-0.2-1.41-0.59l-8.47-8.47c-0.38-0.38-0.59-0.88-0.59-1.41v-9.74c0-1.1,0.9-2,2-2          s2,0.9,2,2v8.91l4.47,4.47l0-4.74c0-1.1,0.9-2,2-2c0,0,0,0,0,0c1.1,0,2,0.9,2,2l0,9.57c0,0.81-0.49,1.54-1.23,1.85          C71.73,83.26,71.47,83.31,71.21,83.31z"/></g></g></g></g></g></g></g><g><g><g><g><g><path d="M15.34,27.22c-1.1,0-2-0.9-2-2V14.99c0-0.56,0.24-1.1,0.65-1.48c0.42-0.38,0.97-0.57,1.53-0.51l10.99,1.04        c1.1,0.1,1.91,1.08,1.8,2.18c-0.1,1.1-1.08,1.9-2.18,1.8l-8.81-0.83v8.04C17.34,26.32,16.45,27.22,15.34,27.22z"/></g></g></g></g></g></g><text x="0" y="115" fill="#000000" font-size="5px" font-weight="bold" font-family="'Helvetica Neue', Helvetica, Arial-Unicode, Arial, Sans-serif">Created by Line Icons Pro</text><text x="0" y="120" fill="#000000" font-size="5px" font-weight="bold" font-family="'Helvetica Neue', Helvetica, Arial-Unicode, Arial, Sans-serif">from the Noun Project</text></svg>