<?xml version="1.0" encoding="utf-8"?>
<!-- Generator: Adobe Illustrator 25.0.0, SVG Export Plug-In . SVG Version: 6.00 Build 0)  -->
<svg version="1.1"
	 id="svg2" xmlns:cc="http://creativecommons.org/ns#" xmlns:dc="http://purl.org/dc/elements/1.1/" xmlns:inkscape="http://www.inkscape.org/namespaces/inkscape" xmlns:ns1="http://sozi.baierouge.fr" xmlns:rdf="http://www.w3.org/1999/02/22-rdf-syntax-ns#" xmlns:sodipodi="http://sodipodi.sourceforge.net/DTD/sodipodi-0.dtd" xmlns:svg="http://www.w3.org/2000/svg"
	 xmlns="http://www.w3.org/2000/svg" xmlns:xlink="http://www.w3.org/1999/xlink" x="0px" y="0px" viewBox="0 0 78.6 43.3"
	 style="enable-background:new 0 0 78.6 43.3;" xml:space="preserve">
<style type="text/css">
	.st0{fill:#FF5F2F;}
	.st1{fill:#A6A8AD;}
	.st2{fill:#F3B5A3;}
	.st3{fill:#EF4816;}
	.st4{fill:#FF5043;}
	.st5{fill:#FF8D70;}
	.st6{fill:#FF9C83;}
	.st7{fill:#87A9BA;}
	.st8{fill:#AEC1CA;}
	.st9{fill:#7898A8;}
	.st10{fill:#FF8E70;}
	.st11{fill:#D1D4DA;}
	.st12{opacity:0.7;}
	.st13{fill:#A2A3B2;}
</style>
<sodipodi:namedview  bordercolor="#666666" borderopacity="1.0" id="base" inkscape:current-layer="layer1" inkscape:cx="273.52498" inkscape:cy="614.84559" inkscape:document-units="px" inkscape:pageopacity="0.0" inkscape:pageshadow="2" inkscape:window-height="787" inkscape:window-maximized="0" inkscape:window-width="1440" inkscape:window-x="0" inkscape:window-y="0" inkscape:zoom="0.42014768" pagecolor="#ffffff" showgrid="false">
	</sodipodi:namedview>
<g>
	<g>
		<path class="st0" d="M77.6,23.8c-0.4,1.5-0.8,3-1.5,4.5c-0.8,1.9-1.9,3.8-3.4,5.4c-0.2,0.2-0.4,0.4-0.5,0.6
			c-1.5,1.5-3.3,2.6-5,3.8c-2.6,1.8-5.1,3.3-8.3,4c-0.9,0.2-1.8,0.4-2.7,0.5c-3.9,0.6-7.9,0.6-11.7-0.2c-1.6-0.3-3.2-0.6-4.8-0.8
			c-2.3-0.3-4.6-0.5-6.6-0.7c-2.7-0.2-4.9-0.2-6.3-0.1c-0.1,0-0.2,0-0.3,0c0,0-0.1,0-0.1,0c-2.7,0.2-7.7,1.2-8.1,1.4
			c-0.2,0.1-3.4-0.1-6.5-0.9c-2.3-0.5-4.5-1.4-5.4-2.5c0-0.1-0.1-0.1-0.1-0.2c0-0.1-0.1-0.1-0.1-0.2c0,0,0-0.1,0-0.1
			c-0.9-1.6-0.6-4.1,0.4-5.9c0-0.1,0.1-0.1,0.1-0.2c0.1-0.1,0.2-0.3,0.3-0.4c0.3-0.4,0.6-0.7,1-1c0.1-0.1,0.2-0.1,0.3-0.2
			C8.6,30.5,9,30.2,9.4,30c3-1.6,6.4-2.2,9.9-2.8c3.6-0.6,7.4-1.3,11.1-1.1c3.1,0.2,4.7-1.4,5.3-2.2c0.1-0.1,0.1-0.1,0.1-0.2
			c0.1-0.1,0.1-0.2,0.2-0.3c0-0.1,0-0.1,0-0.1s0,0-0.2,0l-0.1,0c0,0-0.1,0-0.2,0c-0.1,0-0.3-0.1-0.6-0.1c-0.8-0.2-2.1-0.5-4.4-1.1
			c-0.3-0.1-0.6-0.2-1-0.2c0,0-0.1,0-0.1,0c-0.8-0.2-1.6-0.3-2.4-0.4c-0.2,0-0.3,0-0.5,0c-0.1,0-0.1,0-0.1,0c-1,0-1.9,0-2.9,0.2
			c-0.1,0-0.3,0-0.4,0.1c-0.2,0-0.5,0.1-0.7,0.1c-0.2,0-0.4,0.1-0.5,0.1c-0.1,0-0.2,0-0.3,0.1c0,0,0,0-0.1,0
			c-0.4,0.1-0.8,0.2-1.2,0.3c-0.2,0-0.3,0.1-0.5,0.1c-0.4,0.1-0.7,0.2-1.1,0.4c-0.1,0-0.2,0.1-0.3,0.1c-0.1,0.1-0.3,0.1-0.4,0.2
			c-0.2,0.1-0.4,0.2-0.6,0.2c-0.8,0.3-1.5,0.7-2.2,1.1l-0.1,0.1c-0.6,0.3-1.1,0.7-1.5,1c-0.1,0.1-0.2,0.1-0.2,0.2
			c-0.1,0-0.1,0.1-0.2,0.1c-0.1,0-0.1,0.1-0.2,0.1c-0.1,0.1-0.2,0.1-0.4,0.2c-0.5,0.3-1,0.5-1.6,0.7c-0.1,0-0.3,0.1-0.4,0.1
			c-0.4,0.1-0.8,0.2-1.2,0.3c-0.1,0-0.3,0.1-0.4,0.1c-0.1,0-0.1,0-0.2,0c-0.1,0-0.2,0-0.3,0.1c-0.1,0-0.1,0-0.1,0c0,0-0.1,0-0.1,0
			c0,0-0.1,0-0.1,0c0,0,0,0-0.1,0c-0.1,0-0.3,0-0.4,0.1c-1.3,0.1-2.5,0.1-3.7,0c-0.3,0-0.6-0.1-0.8-0.2c-0.6-1-1.2-2.1-1.6-3.2
			c-0.4-0.8-0.8-1.7-1.1-2.5C0.4,21,0.2,20.6,0,20.2c0-0.2,0.1-0.4,0.2-0.5c0.5-1.1,1.6-1.1,3.1-1.8c0.3-0.1,0.6-0.3,0.9-0.5
			c0.1-0.1,0.3-0.1,0.4-0.2c1.7-1,3.3-2.2,4.9-3.3c0.2-0.1,0.4-0.3,0.6-0.4c0.6-0.4,1.3-0.9,1.9-1.3c3.2-2,6.9-3.5,10.3-4.9
			c1-0.4,1.9-0.8,2.9-1.2c0.1,0,0.1,0,0.2-0.1c14.4-5.5,32.2-9.5,46.3-1.1C72.8,5.6,74,6.5,75,7.5c0.6,0.6,1.1,1.1,1.5,1.8
			c0.6,0.9,1.1,1.9,1.3,2.9c0,0.1,0,0.1,0,0.2c0,0.1,0.1,0.3,0.1,0.4c0.3,1.3,0.5,2.5,0.5,3.8c0,0.4,0,0.9,0,1.4
			c-0.1,1.6-0.3,3.2-0.6,4.7C77.8,23,77.7,23.4,77.6,23.8z"/>
	</g>
	<g>
		<path class="st1" d="M38.9,17.5c0.1-0.1,0.2-0.2,0.4-0.2c-0.8,0.1-1.6,0.2-2.4,0.2c-0.3,0-0.6-0.1-0.9-0.2c-0.4,0-0.8-0.1-1.2-0.1
			c-1.3-0.2-2.6-0.4-3.8-0.7c-2.8-0.7-5.5-1-8.4-0.5c-2.9,0.5-5.7,1.6-8.5,2.5c-2.9,1-6,1.8-8.7,3.1c-0.1,0,0,0.1,0.1,0.1
			c6.2-1.2,12-4.4,18.3-5.1c2.8-0.3,5.8,0.6,8.5,1.1c0.6,0.1,1.2,0.2,1.9,0.3c0.6,0.1,1.3,0.2,1.9,0.2c0.2,0,0.4-0.1,0.6-0.1
			c0.3,0,0.5-0.1,0.8-0.1c0.4-0.1,0.8-0.2,1.1-0.4C38.5,17.6,38.7,17.6,38.9,17.5C38.8,17.5,38.8,17.5,38.9,17.5z"/>
	</g>
	<g>
		<path class="st2" d="M74.8,13.4c0.2,0.7,0.3,1.4,0.3,2.2C75,14.9,74.9,14.2,74.8,13.4z M76.6,19.5c0.1-1.3,0.4-2.6,0.7-3.8
			c0.3-1.1,0.5-2.2,0.6-3.3c0-0.1,0-0.2,0-0.3c-0.3-1-0.7-2-1.3-2.9C76.1,8.6,75.6,8,75,7.5c-1-1-2.2-1.9-3.5-2.7
			C57.5-3.6,39.7,0.4,25.3,6c-0.1,0-0.1,0-0.2,0.1c-1,0.4-2,0.8-2.9,1.2c-3.5,1.4-7.2,2.9-10.3,4.9c-0.7,0.4-1.3,0.8-1.9,1.3
			c-0.2,0.1-0.4,0.3-0.6,0.4c-1.6,1.1-3.1,2.3-4.9,3.3c-0.1,0.1-0.2,0.1-0.4,0.2c-0.3,0.2-0.6,0.3-0.9,0.5c-1.7,0.8-2.8,0.7-3.2,2.3
			c0.2,0.4,0.4,0.8,0.6,1.3c0-0.4,0.2-0.7,0.4-1.1c0.2-0.4,0.6-0.8,1-1.2C2.1,19,2.1,19,2.2,18.9c0.5-0.4,1.2-0.8,1.9-1.2
			c0.1-0.1,0.3-0.2,0.4-0.2C5.4,17,6.3,16.6,7,16.2c0.1,0,0.2-0.1,0.3-0.1c0.6-0.3,1.1-0.5,1.5-0.8c0,0,0.1,0,0.1-0.1
			c0.1-0.1,0.2-0.1,0.3-0.2c3.1-1.8,6.2-3.6,9.4-5.2C25,6.8,31.6,5.2,38.2,3c1.2-0.4,2.5-0.8,3.8-1.1c7.1-1.4,14.5-1.6,21.6,0.5
			c3,0.9,6.3,2.1,8.6,4.2c6.5,5.8,2.7,14-2.8,18.8c-6.2,5.3-15.3,8.5-23.8,8.3c-5.8-0.2-11.5-1.8-17.4-1.7
			c-6.2,0.1-15.1,1.2-19.3,5.9c2.9,1.4,7.5,1.4,10.7,1.5c4.4,0.2,8.5-0.9,12.8-1.2l28-2c4.8-2.4,9.8-4.8,13-8.9
			C75.2,25.1,76.4,22.4,76.6,19.5z M8.1,30.8C8.6,30.6,9,30.3,9.4,30C9,30.2,8.6,30.5,8.1,30.8z M24.4,21c-3.2,0.2-6.6,1.1-9.7,2
			c-0.5,0.1-1,0.3-1.5,0.5c-0.1,0-0.2,0.1-0.3,0.1c-0.8,0.3-1.7,0.7-2.5,1c-0.2,0.1-0.4,0.2-0.7,0.2c-2.4,0.8-4.1,0.9-5.8-1.1
			c-0.8-1-1.4-2.2-2.1-3.3c-0.2-0.3-0.4-0.5-0.6-0.7c-0.3-0.2-0.7-0.2-1.1-0.1C0.1,19.8,0,20,0,20.2c0.2,0.4,0.4,0.8,0.6,1.3
			C1,22.3,1.3,23.1,1.7,24c0.5,1.1,1,2.1,1.6,3.2c0.3,0.1,0.5,0.1,0.8,0.2c0.7,0,1.3-0.1,2,0c0.7,0.1,1.4,0.1,2.1,0c0,0,0,0,0.1,0
			c0.1,0,0.1,0,0.2,0c0,0,0,0,0.1,0c0.1,0,0.3,0,0.4-0.1c0.1,0,0.1,0,0.2,0c0.1,0,0.3-0.1,0.4-0.1c0.4-0.1,0.8-0.2,1.2-0.3
			c0.1,0,0.3-0.1,0.4-0.1c0.6-0.2,1.1-0.4,1.5-0.7c0.1-0.1,0.3-0.1,0.4-0.2c0.1,0,0.1-0.1,0.2-0.1c0.1-0.1,0.1-0.1,0.2-0.1
			c0.1-0.1,0.2-0.1,0.2-0.2c0.4-0.3,0.9-0.7,1.5-1l0.1-0.1c0.6-0.4,1.4-0.7,2.1-1.1c0.2-0.1,0.4-0.2,0.6-0.2
			c0.1-0.1,0.3-0.1,0.4-0.2c0.1,0,0.2-0.1,0.3-0.1c0.4-0.1,0.7-0.3,1.1-0.4c0.2-0.1,0.3-0.1,0.5-0.1c0.4-0.1,0.8-0.2,1.2-0.3
			c0,0,0,0,0.1,0c0.1,0,0.2,0,0.3-0.1c0.2,0,0.4-0.1,0.5-0.1c0.2,0,0.4-0.1,0.7-0.1c0.1,0,0.3,0,0.4-0.1c1-0.1,1.9-0.2,2.9-0.2
			c0,0,0.1,0,0.1,0C26,21,25.3,20.9,24.4,21z"/>
	</g>
	<g>
		<g>
			<path class="st3" d="M20.6,40.4L20,40.3c-1.2,0.2-2.5,0.3-3.7,0.5C17.7,40.9,19.2,40.7,20.6,40.4z"/>
		</g>
		<g>
			<path class="st3" d="M10.7,35c0.4-0.2,0.8-0.4,1.2-0.5C11.4,34.7,11.1,34.8,10.7,35z"/>
		</g>
	</g>
	<g>
		<path class="st4" d="M41.1,18c-0.7,0.3-1.3,0.6-1.9,1c-0.2,0.2-0.4,0.3-0.7,0.5c-1,0.8-1.8,1.8-2.3,2.8c-0.1,0.2-0.1,0.3-0.2,0.5
			c-0.1,0.1-0.1,0.3-0.2,0.4c-0.1,0-0.1,0-0.2,0c-0.1,0-0.3-0.1-0.6-0.1c-0.8-0.2-2.1-0.5-4.4-1.1c-0.3-0.1-0.6-0.2-1-0.2
			c0,0-0.1,0-0.1,0c-0.8-0.2-1.6-0.3-2.4-0.4c-0.2,0-0.3,0-0.5,0c-0.1,0-0.1,0-0.1,0c-1,0-1.9,0-2.9,0.2c-0.1,0-0.3,0-0.4,0.1
			c-0.2,0-0.5,0.1-0.7,0.1c-0.2,0-0.4,0.1-0.5,0.1c-0.1,0-0.2,0-0.3,0.1c0,0,0,0-0.1,0c-0.4,0.1-0.8,0.2-1.2,0.3
			c-0.2,0-0.3,0.1-0.5,0.1c-0.4,0.1-0.7,0.2-1.1,0.4c-0.1,0-0.2,0.1-0.3,0.1c-0.1,0.1-0.3,0.1-0.4,0.2c-0.2,0.1-0.4,0.2-0.6,0.2
			c-0.8,0.3-1.5,0.7-2.2,1.1l-0.1,0.1c-0.6,0.3-1.1,0.7-1.5,1c-0.1,0.1-0.2,0.1-0.2,0.2c-0.1,0-0.1,0.1-0.2,0.1
			c-0.1,0-0.1,0.1-0.2,0.1c-0.1,0.1-0.2,0.1-0.4,0.2c-0.5,0.3-1,0.5-1.6,0.7c-0.1,0-0.3,0.1-0.4,0.1c-0.4,0.1-0.8,0.2-1.2,0.3
			c-0.1,0-0.3,0.1-0.4,0.1c-0.1,0-0.1,0-0.2,0c-0.1,0-0.2,0-0.3,0.1c0,0,0,0-0.1,0c0,0,0,0-0.1,0c0,0-0.1,0-0.1,0c0,0-0.1,0-0.1,0
			c-0.2,0-0.3,0-0.5,0.1c-0.2-0.4-0.4-0.7-0.6-1.1c-0.1-0.3-0.3-0.5-0.4-0.8c0-0.1-0.1-0.2-0.1-0.2c0,0,0,0,0,0
			c-0.1-0.3-0.3-0.5-0.4-0.8c-0.5-0.8-0.9-1.6-1.3-2.4c0.5,0,1-0.1,1.5-0.3c0.2,0,0.4-0.1,0.6-0.2c0.4-0.1,0.9-0.3,1.5-0.5
			c0,0,0.1,0,0.1,0c0.7-0.2,1.5-0.5,2.5-0.9c0.1,0,0.1,0,0.2-0.1c0,0,0.1,0,0.1,0c0,0,0,0,0.1,0c1.1-0.4,2.4-0.8,3.9-1.3
			c0.1,0,0.2-0.1,0.4-0.1c0.4-0.1,0.9-0.3,1.4-0.5c0.3-0.1,0.6-0.2,0.8-0.3c0.1,0,0.1,0,0.2-0.1c1.4-0.4,2.7-0.7,3.9-0.8
			c0.1,0,0.2,0,0.3,0c8.7-1.1,12.2,3.1,17.7-0.2c0.2-0.1,0.4-0.3,0.6-0.5c0.1,0.2,0.2,0.5,0.2,0.7c0,0.1,0,0.1,0,0.2
			c0,0.1,0.1,0.3,0.1,0.4C41,17.6,41.1,17.8,41.1,18z"/>
	</g>
	<g>
		<g>
			<path class="st5" d="M46.7,8.2c-3.1-0.7-4,2.5-3.5,4.8c0.1,0.2,0.4,0.2,0.4-0.1c0-0.9-0.2-1.7,0.1-2.6c0.4-1.2,1.5-1.9,2.8-1.7
				c1.1,0.2,1.9,0.9,2.2,1.9c0.4,1.1-0.1,2.1-0.5,3.1c-0.1,0.1,0.1,0.3,0.2,0.2C50.3,12.1,49.3,8.8,46.7,8.2z"/>
		</g>
		<g>
			<path class="st5" d="M42.8,14.9c-1-0.2-2.1-0.3-3.1-0.5c-1.1-0.3-3.1-0.9-3.7-1.9c-1.2-2.2,2.5-1.9,3.4-1.7
				c1.3,0.3,2.3,1,3.3,1.8c0.1,0.1,0.3,0,0.2-0.1c-0.9-1.4-2.5-2.1-4.2-2.3c-1.1-0.1-2.8-0.1-3.3,1c-0.6,1.2,0.7,2.3,1.7,2.9
				c1.7,1,3.8,1.3,5.8,1.3C42.9,15.3,43,15,42.8,14.9z"/>
		</g>
		<g>
			<path class="st5" d="M44.9,16.6c0-0.1-0.2-0.2-0.3-0.1c-0.6,1.6-1,3.4-2.4,4.7c-1.5,1.3-3.5,0.2-3.2-1.7c0.2-1.1,1.2-2,2.1-2.7
				c0.1-0.1,0-0.2-0.1-0.1c-1.2,0.7-2.4,1.7-2.5,3.1c-0.1,1,0.6,2.1,1.7,2.5C43.1,23.3,44.8,18.5,44.9,16.6z"/>
		</g>
		<g>
			<path class="st5" d="M49.2,15.8c-0.2-0.2-0.5,0.1-0.4,0.3c1,1.4,3.6,4.1,1.1,5.5c-1.2,0.7-2.7-0.1-3.5-0.9
				c-0.8-0.8-1.3-1.8-1.2-2.9c0-0.1-0.2-0.1-0.2,0c-0.3,2.3,2.1,5.6,4.9,4.6C53,21,50.9,17.1,49.2,15.8z"/>
		</g>
		<g>
			<path class="st5" d="M44.6,17.1c-0.1-0.2-0.4-0.1-0.4,0.1c0,3,0.2,6.4-2.8,8.3c-1.5,1-3.5,1-4.6-0.6c-1-1.4-0.8-3.3-0.2-4.9
				c0,0,0,0,0,0c-0.8,1.6-1.4,3.5-0.2,5.1c0.8,1.2,2.3,1.8,3.8,1.5C44.3,25.7,45.4,20.6,44.6,17.1z"/>
		</g>
		<g>
			<path class="st5" d="M52,14.2c-0.2-0.1-0.4,0.2-0.2,0.3c1.4,1.4,2.6,2.9,2.9,4.9c0.3,1.8-0.1,4-1.8,5.1c-2,1.3-5,0-6.5-1.5
				c-1.4-1.4-2-3.3-1.9-5.2c0-0.1-0.2-0.1-0.2,0c-0.5,2.1,0.2,4.2,1.8,5.8c1.5,1.4,4.5,2.7,6.6,1.7C57,23.1,55.5,16.3,52,14.2z"/>
		</g>
		<g>
			<path class="st5" d="M43,12.9c-0.9-1.9-2.3-3.9-4.5-4.5c-2.1-0.6-4.6,0.5-6.2,1.7c-4.8,3.8,3.7,7.2,7,7.6c0.3,0,0.4-0.3,0.1-0.4
				c-1.8-0.5-3.6-0.7-5.3-1.7c-0.9-0.5-2-1.3-2.5-2.2c-0.7-1.5,0.2-2.5,1.4-3.4C34.8,9,37,8.1,39,9c1.8,0.8,2.8,2.5,3.8,4
				C42.9,13.1,43.1,13.1,43,12.9z"/>
		</g>
		<g>
			<path class="st5" d="M47.7,6c-2.1,0-4.6,0.6-5.7,2.3c-0.9,1.3-0.7,3.2,1,4c0.1,0,0.1,0,0.1-0.1c-1.5-1.3-1.3-3.3,0.2-4.5
				c1.3-1.1,3.7-1.5,5.4-1.2c1.5,0.3,2.8,1.4,3.3,2.8c0.6,1.7-0.4,3.3-1.4,4.6c-0.1,0.2,0.2,0.4,0.4,0.2C54,11.4,52.5,6,47.7,6z"/>
		</g>
		<g>
			<path class="st5" d="M50.2,3.3c-3.8-1.4-8.1-0.8-11.1,1.6c-0.4,0.3-0.7,0.7-1.2,0.8c-0.3,0-0.9-0.2-1.3-0.2c-1-0.1-2,0-2.9,0.2
				c-1.8,0.4-3.4,1.4-4.4,2.8c-1.1,1.5-1.5,3.3-1.2,5.1c0.1,0.6,0.3,1.3,0.6,1.9c0.2,0.5,0.6,1.4,1.2,1.6c0.4,0.1,0-0.3,0-0.4
				c-0.1-0.2-0.3-0.4-0.4-0.6c-0.3-0.4-0.5-0.9-0.6-1.4c-0.3-0.9-0.5-1.9-0.4-2.9c0.1-1,0.4-1.9,1-2.7c1.8-2.7,5.5-3.8,8.7-2.8
				c0.1,0,0.2,0,0.2-0.1c2.7-2.5,6.5-3.8,10.3-2.9c1.9,0.5,3.8,1.5,5.1,2.9c1.4,1.4,1.7,3.2,1.3,5c-0.1,0.7-0.3,1.3-0.7,1.8
				c0.1,0,0.3,0,0.4-0.1c0.4-0.3,0.8-0.8,0.9-1.3c0.1-0.4,0.2-0.8,0.3-1.2C56.1,9.8,56,9,55.7,8.3c-0.6-1.5-1.8-2.8-3.2-3.7
				C51.8,4,51,3.6,50.2,3.3z"/>
		</g>
		<g>
			<path class="st5" d="M55.5,13.8c-0.2-0.1-0.4-0.1-0.6-0.2c0,0-0.1,0-0.1,0c0,0,0,0,0,0.1c1.2,0.9,2.2,2.2,2.8,3.4
				c0.8,1.7,1.1,3.5,0.6,5.3c-0.9,3-4.8,6.6-8.4,5.2c-1.2-0.5-2.1-0.8-3.5-0.6c-1.4,0.2-2.6,0.9-3.9,1.5c-1.7,0.8-3.4,1.3-5.3,0.7
				c-1.7-0.6-2.8-1.8-3.4-3.3C33.4,25.6,33,25.7,33,26c0.7,2.6,3.8,4.3,6.5,3.9c2.3-0.3,4-1.8,6.3-2.3c2.3-0.5,4,1.2,6.3,0.8
				c1-0.2,1.9-0.5,2.7-0.9c1.2-0.7,2.3-1.7,3-2.9c0.7-1.2,1.1-2.5,1.1-3.9c0.1-1.4-0.2-2.7-0.9-4c-0.3-0.6-0.7-1.2-1.2-1.7
				c-0.3-0.3-0.5-0.5-0.8-0.8C55.8,14.1,55.7,14,55.5,13.8C55.5,13.9,55.5,13.8,55.5,13.8z"/>
		</g>
		<g>
			<path class="st5" d="M59.2,12.9c-0.2-0.2-0.6,0-0.4,0.2c2.5,3.3,3.3,7.5,2.2,11.3c-0.6,2.1-1.7,4.1-3.7,5.3
				c-1.7,1-3.7,1.3-5.7,1.5c-1.4,0.1-3.3-0.1-4.5,0.5c-0.7,0.3-1.1,1-1.7,1.4c-1,0.6-2.2,0.9-3.3,0.8c-4.9-0.2-8.7-4.5-12.3-7
				c-0.1,0-0.1,0-0.1,0.1c1.7,1.9,3.9,3.4,6,4.9c1.9,1.3,4,2.5,6.4,2.6c1.9,0.1,3.2-0.5,4.5-1.7c1.1-1,2.4-0.8,3.8-0.9
				c1.1-0.1,2.2-0.1,3.3-0.3c4.2-0.7,6.8-3.1,7.9-6.9C62.8,20.5,61.8,16.3,59.2,12.9z"/>
		</g>
		<g>
			<path class="st5" d="M38.1,3c-3.6-0.1-7.7,0.6-10.3,3c-1.3,1.2-2,2.5-2.2,4.2c-0.3,2.4,0.1,4.6-1.8,6.4c0,0,0,0.1,0.1,0.1
				c3-1.9,1.6-6.4,3.1-9c2.2-3.8,6.9-4.2,11.1-4.5C38.2,3.2,38.2,3,38.1,3z"/>
		</g>
		<g>
			<path class="st5" d="M59.1,11.3C59,6.7,56.9,2.6,51.9,1.1c-5.1-1.6-10.8,0-15.4,2.2c0,0,0,0,0,0c4.7-1.2,9.2-3.2,14.2-2.1
				c5.3,1.2,7.7,5.3,7.9,10.1C58.7,11.6,59.1,11.6,59.1,11.3z"/>
		</g>
		<g>
			<path class="st5" d="M59.6,10.9c-0.6-2.1-0.3-4.4-1.1-6.5c-0.6-1.6-1.7-3.4-3.2-4.3c-0.1,0-0.2,0.1-0.1,0.1
				c0.3,0.2,0.5,0.5,0.7,0.8c-0.1-0.2-0.6-0.7-0.4-0.5c0.4,0.4,0.8,0.8,1.1,1.2c0.7,0.9,1.3,2,1.7,3.1c0.6,2,0.1,4.2,1,6.1
				C59.3,11.2,59.7,11.1,59.6,10.9z"/>
		</g>
		<g>
			<path class="st5" d="M65.4,25.3c0.1-1.7,0.1-3.4-0.2-5c-0.5-2.6-1.6-4.9-3.8-6.7c-0.1,0-0.1,0-0.1,0.1c2.1,2,3.2,4.7,3.5,7.4
				c0.2,1.5,0.1,3.1-0.1,4.7c-0.1,1.3-0.6,2.7-0.5,4.1c0,0.1,0.2,0.2,0.2,0C65.2,28.5,65.3,26.8,65.4,25.3z"/>
		</g>
		<g>
			<path class="st5" d="M72.8,23.5c-1.3-0.5-2.6-1.1-3.7-2c-1.1-0.9-1.7-2.1-2.5-3.2c-1.3-1.7-2.9-3.3-4.7-4.5
				c-0.2-0.1-0.3,0.1-0.2,0.3c2.3,1.9,4.1,3.8,5.7,6.3c1.1,1.6,3.3,3.3,5.3,3.5C72.9,23.9,72.9,23.6,72.8,23.5z"/>
		</g>
		<g>
			<path class="st5" d="M64.1,6.3c-0.7-0.8-2-2.5-3.2-1.5c-1.2,0.9-0.2,2.4,0.4,3.3c0.4,0.7,0.8,1.3,1.4,1.8c0.6,0.6,1.3,0.9,2.2,1
				c0.1,0,0.1,0,0.2,0c0.1,0,0.1,0,0.2-0.1c0-0.1-0.1-0.1-0.1-0.1c-0.1,0-0.2-0.1-0.3-0.1c-0.8-0.6-1.6-1-2.3-1.8
				C62,8.2,61.3,7.3,61,6.5c-0.4-0.9,0.1-1.3,1.7-1.2c0.2,0.2,0.4,0.3,0.5,0.5c0.4,0.4,0.8,0.9,1.1,1.3c0.6,0.8,1,1.7,1,2.7
				c0,0.2,0,0.5,0,0.7c0,0.2-0.2,0.6,0.2,0.4c0.4-0.2,0.3-0.7,0.3-1C65.8,8.6,65,7.3,64.1,6.3z"/>
		</g>
		<g>
			<path class="st5" d="M65.1,4.4c-0.8-1.5-1.7-3-3.7-2.5c-1.6,0.4-2.5,1.5-2.6,3c-0.1,1.5,0.6,3,1.5,4.2c0.5,0.6,1,1.2,1.6,1.7
				c0.1,0.1,0.2,0.2,0.3,0.3c0.1,0.1,0.3,0.1,0.4,0.1c-0.3-0.4-0.6-0.7-0.9-1.1c-0.2-0.3-0.4-0.6-0.6-0.9c-0.3-0.3-0.5-0.7-0.8-1
				c-0.1-0.2-0.2-0.3-0.3-0.5c-0.1-0.1-0.3-0.4-0.3-0.5c-0.9-1.9-0.8-4.2,1.7-4.8c1.9-0.5,3.1,2,3.7,3.4c0.3,0.8,0.5,1.7,0.5,2.6
				c0.1,0.9,0.2,1.8,0.1,2.7c0.3-0.4,0.4-1,0.5-1.4c0.1-0.5,0.1-1,0-1.5c-0.1-1-0.5-2.1-1-3C65.3,4.8,65.2,4.6,65.1,4.4z"/>
		</g>
		<g>
			<path class="st5" d="M69.2,14.7c-0.7-1.5-2.1-2.7-3.3-3.9c-0.1,0.1-0.3,0.1-0.4,0.2c0,0,0,0-0.1,0c0.2,0.4,0.5,0.6,0.8,0.9
				c0.3,0.3,0.7,0.7,1,1c0.6,0.6,2.8,3.4,1.3,3.9c-1.1,0.4-2.2-1.8-2.6-2.6c-0.5-1-0.9-2.1-1.2-3.2c0,0-0.1,0-0.1,0
				c-0.3,1.4,0.5,3.1,1.2,4.4c0.4,0.7,1.7,2.6,2.9,2.2C70,17.3,69.5,15.4,69.2,14.7z"/>
		</g>
		<g>
			<path class="st5" d="M67.3,10.2c-0.1,0.1-0.2,0.2-0.3,0.3c1.6,0.9,3.1,1.8,4.2,3.2c1.2,1.4,2.2,4,0.5,5.4c-2.1,1.8-4.8-1-6-2.5
				c-1-1.4-1.9-2.9-2.9-4.3c0,0-0.1,0-0.1,0c1.1,2.2,2.2,4.6,4.2,6.3c1.3,1.1,3.6,2.1,5,0.6C75,16.3,70.6,11.6,67.3,10.2z"/>
		</g>
		<g>
			<path class="st5" d="M67.9,4.5C67.9,4.5,67.9,4.5,67.9,4.5c0,1.1-0.1,2.2-0.3,3.2c-0.2,0.9-0.7,1.8-0.9,2.7
				c0,0.1,0.1,0.2,0.2,0.1C68.3,9,68.3,6.4,67.9,4.5z"/>
		</g>
		<g>
			<path class="st5" d="M74.6,7.3c-1.2-0.2-2.1,0.5-3,1.1c-0.9,0.5-1.8,0.9-2.8,1.2c-0.5,0.2-1,0.3-1.5,0.5
				c-0.3,0.1-0.4,0.1-0.7,0.3c-0.2,0.2-0.4,0.3-0.7,0.5c0.3-0.2,0.7-0.3,1-0.4c0.3-0.1,0.6-0.1,1-0.2c0.8-0.2,1.5-0.5,2.2-0.8
				c1.3-0.6,2.8-2,4.3-1.8C74.8,7.6,74.8,7.4,74.6,7.3z"/>
		</g>
		<g>
			<path class="st5" d="M70.1,4.9c0-0.1-0.2-0.1-0.2,0c-0.1,1-0.3,1.9-0.7,2.8c-0.2,0.4-0.5,0.9-0.8,1.2c-0.4,0.4-0.6,0.9-1,1.3
				c0,0,0.1,0,0.1,0c1-0.4,1.7-1.2,2.1-2.1c0.5-0.9,0.8-1.9,0.6-2.8C70.2,5.1,70.1,5,70.1,4.9z"/>
		</g>
		<g>
			<path class="st5" d="M76.3,13.3c-2.3-1.9-5-4.1-8.3-3.3c-0.1,0-0.1,0.1,0,0.2c1.8,0.1,3.4,0.3,5,1.3c1,0.7,1.9,1.6,3,2.2
				C76.3,13.7,76.5,13.4,76.3,13.3z"/>
		</g>
		<g>
			<path class="st5" d="M75.3,9.2c-1.1-0.3-2.6-0.3-3.7-0.2c-0.5,0-0.9,0.2-1.3,0.3c-0.4,0.1-0.9,0.2-1.2,0.4c0,0-0.1,0-0.1,0.1
				c0.6-0.1,1.3-0.2,1.9-0.3c0.6-0.1,1.2,0,1.8,0c0.8,0,1.8,0.2,2.6,0C75.4,9.4,75.4,9.2,75.3,9.2z"/>
		</g>
		<g>
			<path class="st5" d="M75.6,18.3c-1-3.6-3.2-6.8-6.8-8.5c-0.1,0-0.2,0.1-0.1,0.1c1.7,1.1,3.3,2.2,4.3,3.9c0.9,1.4,1.4,3.1,2.3,4.5
				C75.4,18.5,75.6,18.4,75.6,18.3z"/>
		</g>
		<g>
			<path class="st5" d="M22.3,16.9c0.1,0.2-0.2,0.3-0.2,0.1c-0.7-1.6-1-3.4-0.3-5c0.4-0.9,1-1.5,1.6-2.3c0.9-1.1,1.4-2.3,1.8-3.6
				c0.1,0,0.1,0,0.2-0.1c-0.1,1.6-0.7,2.9-1.8,4.2C21.9,12.1,21.1,14.5,22.3,16.9z"/>
		</g>
		<g>
			<path class="st5" d="M18.6,10.5c1.2-1.1,2.9-1.7,3.6-3.2c0-0.1,0-0.1-0.1-0.1c-1.3,1.3-3.4,2.1-4.5,3.6c-1.3,1.8-0.1,4.6,0.2,6.6
				c0,0.3,0.5,0.4,0.5,0C18,15.3,16.8,12.2,18.6,10.5z"/>
		</g>
		<g>
			<path class="st5" d="M15.8,18.5c-0.7-1.4-1.6-2.5-1.6-4c0-1.7,1.2-3.2,2-4.6c0-0.1,0-0.1-0.1-0.1c-2.7,2.5-3.3,6-0.7,8.8
				C15.6,18.8,15.9,18.6,15.8,18.5z"/>
		</g>
		<g>
			<path class="st5" d="M11.6,20c0,0.1-0.1,0.1-0.2,0.1c-1.5-1-2.6-3-2.5-4.7c0-0.5,0.2-1,0.5-1.5c0.2-0.1,0.4-0.3,0.6-0.4
				c-0.4,0.5-0.6,1.1-0.6,1.6c-0.1,0.7,0.1,1.5,0.4,2.2C10.2,18.3,11,19,11.6,20C11.6,19.9,11.6,20,11.6,20z"/>
		</g>
		<g>
			<path class="st5" d="M8.6,20.5c-0.5-0.6-1-1.2-1.1-1.9c-0.1-0.5-0.2-1-0.2-1.5c0-0.2,0.1-0.3,0.1-0.5c0-0.2,0-0.5,0-0.8
				c0-0.1,0-0.2,0-0.2c0-0.1-0.1-0.1-0.2-0.1c0,0-0.1,0.1-0.1,0.1c0,0.1,0,0.1,0,0.1c0.1,0.4,0,0.8,0,1.2c-0.1,0.4-0.1,0.9,0,1.3
				c0.1,0.5,0.3,0.9,0.5,1.3c0.2,0.4,0.4,0.8,0.8,1c0.1,0.1,0.4,0.2,0.5,0.1c0,0,0,0,0,0c0,0,0-0.1,0-0.1
				C8.7,20.7,8.6,20.6,8.6,20.5z"/>
		</g>
		<g>
			<path class="st5" d="M7,21.6c-0.1,0-0.2,0-0.3,0.1c0,0-0.1,0-0.1,0c0,0-0.1,0-0.1,0.1c0-0.2,0-0.4,0-0.6c-0.1-0.4-0.4-0.7-0.7-1
				c-0.3-0.3-0.7-0.6-0.9-1c-0.3-0.4-0.6-0.9-0.6-1.4c0-0.1,0-0.2,0-0.3c0.1-0.1,0.3-0.1,0.4-0.2c0,0.1,0,0.2,0.1,0.3
				c0.3,1.1,1.1,1.7,1.9,2.7C6.7,20.5,7.1,21.1,7,21.6z"/>
		</g>
		<g>
			<path class="st5" d="M2,18.8c0,0-0.1,0-0.1,0.1c0.2,0.6,0.6,1.2,0.8,1.8c0.2,0.6,0.4,1.3,0.6,1.9c0,0.1,0.2,0.1,0.3,0
				C3.6,21.3,3,19.6,2,18.8z"/>
		</g>
		<g>
			<path class="st5" d="M15.1,35.3c-1.1,0-8.4-1.1-8.6-2.8c0-0.1,0.1-0.1,0.1-0.2c0.3,1.1,3.6,1.7,4.5,2c1.3,0.4,2.7,0.5,4,0.9
				C15.2,35.1,15.2,35.3,15.1,35.3z"/>
		</g>
		<g>
			<path class="st5" d="M18.4,34.9c-1.5-0.7-3.1-1.1-4.5-1.9c-0.7-0.3-1.4-0.7-2-1.1c-0.5-0.3-2.3-1.1-2.4-1.8c0,0,0,0-0.1,0
				c-0.3,0.9,2.2,2.1,2.9,2.5c1.8,1,3.9,2.2,6,2.5C18.5,35.1,18.5,35,18.4,34.9z"/>
		</g>
		<g>
			<path class="st5" d="M21.5,34c-1.6-0.5-3.2-0.9-4.7-1.7c-1.5-0.8-2.6-2-3.8-3.1c-0.1-0.1-0.1,0-0.1,0.1c1.5,2.7,5.2,5,8.6,5.1
				C21.7,34.3,21.7,34.1,21.5,34z"/>
		</g>
		<g>
			<path class="st5" d="M25.5,33.6c-1.7-0.7-3.5-1-5.1-1.9c-1.6-0.8-2.9-2-3.9-3.4c0,0-0.1,0-0.1,0c1.4,3.1,5.5,5.3,9,5.5
				C25.6,33.9,25.7,33.6,25.5,33.6z"/>
		</g>
		<g>
			<path class="st5" d="M29.4,33c-1.5-0.8-3.1-1.4-4.6-2.3c-1.6-1-2.8-2.3-4.3-3.4c-0.1-0.1-0.2,0-0.1,0.1c0.9,1.5,2.5,2.7,3.9,3.6
				c1.5,1,3.2,2,4.9,2.3C29.5,33.4,29.6,33.1,29.4,33z"/>
		</g>
		<g>
			<path class="st5" d="M37.6,34.2c-0.8-0.6-1.8-0.9-2.8-1.3c-1.1-0.5-2.2-1-3.2-1.6c-2-1.1-5-2.5-5.9-4.7c0,0-0.1,0-0.1,0
				c-0.2,1.8,2.6,3.2,4,4.1c1.2,0.8,2.5,1.4,3.8,2c1.3,0.6,2.7,1.4,4.1,1.7C37.6,34.5,37.8,34.3,37.6,34.2z"/>
		</g>
		<g>
			<path class="st5" d="M36.1,23.5c-1.2-1.2-2.4-2.4-3.5-3.6c-0.5-0.5-0.9-1.1-1.5-1.6c-0.3-0.2-0.6-0.4-0.8-0.7
				c-0.1-0.1-0.3-0.6-0.5-0.5c-0.3,0.1,0.4,0.7,0.5,0.7c0.3,0.3,0.7,0.7,1,1.1c0.6,0.7,1.3,1.4,1.9,2.2c0.8,1,1.6,2,2.7,2.7
				C36.1,23.8,36.2,23.6,36.1,23.5z"/>
		</g>
		<g>
			<path class="st5" d="M30.6,21.9c-0.3-0.1-0.6-0.2-1-0.2c-0.7-0.6-1.3-1.1-2-1.7c-1.3-1-2.6-1.9-3.9-3c0,0,0-0.1,0-0.1
				c1.4,0.7,2.6,1.7,3.8,2.7C28.7,20.4,29.7,21.1,30.6,21.9z"/>
		</g>
		<g>
			<path class="st5" d="M27.1,21.3c-0.2,0-0.4,0-0.7,0c-0.6-0.6-1.2-1.2-1.9-1.8c-0.9-0.8-1.5-1.6-2.4-2.4c0,0,0-0.1,0-0.1
				c0-0.1,0.1-0.1,0.2-0.1c0,0,0,0,0.1,0C24.4,17.8,25.7,19.7,27.1,21.3z"/>
		</g>
		<g>
			<path class="st5" d="M23.6,21.4c-0.1,0-0.3,0-0.4,0.1c-0.8-0.5-1.4-1.1-2.1-1.6c-1-0.7-2.1-1.3-3-2c-0.1-0.1,0-0.1,0.1-0.1
				c0,0,0.1,0,0.1,0c1,0.4,2,1.1,2.9,1.7C22,20.1,22.9,20.7,23.6,21.4z"/>
		</g>
		<g>
			<path class="st5" d="M20.5,21.8c-0.9-0.6-1.9-1-2.8-1.6c-0.5-0.3-0.9-0.7-1.4-1c-0.1-0.1-0.3-0.3-0.5-0.4c-0.2-0.1-0.3,0-0.2,0.2
				c0.2,0.2,0.4,0.4,0.6,0.5c0.4,0.4,0.8,0.7,1.3,1c0.9,0.6,1.9,1.1,2.9,1.4C20.5,22,20.5,21.8,20.5,21.8z"/>
		</g>
		<g>
			<path class="st5" d="M18,23c-0.2,0.1-0.4,0.2-0.6,0.2c-2.2-0.5-4.3-1.5-6-2.9c-0.1-0.1-0.2-0.2-0.3-0.3c0,0-0.1-0.1,0-0.1
				c0.1-0.1,0.2,0,0.3,0c0.1,0.1,0.2,0.2,0.3,0.3c0.1,0,0.2,0,0.3,0.1c0.3,0.1,0.6,0.3,0.9,0.4c0.6,0.3,1.2,0.7,1.9,1
				C15.8,22.1,17,22.5,18,23z"/>
		</g>
		<g>
			<path class="st5" d="M15.3,24.3l-0.1,0.1c-0.8-0.2-1.6-0.4-2.3-0.7c-1.6-0.6-3.1-1.5-4.4-2.6c-0.1,0-0.1-0.1-0.2-0.1
				c0,0,0-0.1,0-0.1C8.5,20.9,8.6,21,8.7,21c1.5,1,3,1.8,4.6,2.5C13.9,23.8,14.6,24.1,15.3,24.3z"/>
		</g>
		<g>
			<path class="st5" d="M13.1,25.8c-0.1,0.1-0.2,0.1-0.4,0.2c-1-0.2-2-0.6-3-1.1c-1.4-0.8-2.7-1.8-3.7-2.8c-0.1-0.1,0-0.2,0.1-0.1
				c1.1,0.8,2.3,1.7,3.5,2.3c0.2,0.1,0.5,0.2,0.7,0.3C11.3,25,12.2,25.3,13.1,25.8z"/>
		</g>
		<g>
			<path class="st5" d="M9,27.2c-0.1,0-0.2,0-0.3,0.1c0,0,0,0-0.1,0c0,0,0,0,0,0c-0.5-0.3-0.9-0.7-1.3-1c-0.3-0.3-0.6-0.5-0.9-0.8
				c-0.1-0.1-0.2-0.1-0.3-0.2c-1-0.8-2-1.6-2.8-2.5c0,0,0-0.1,0.1-0.1c1,0.6,1.9,1.4,2.8,2.2c0.2,0.1,0.3,0.2,0.5,0.4
				c0.1,0.1,0.2,0.2,0.4,0.3C7.7,26,8.4,26.6,9,27.2z"/>
		</g>
		<g>
			<path class="st5" d="M62.7,14.5c-0.2-0.4-0.7-0.6-1-0.9c-0.4-0.4-0.7-0.8-0.9-1.3c-0.1-0.1-0.3-0.1-0.3,0.1
				c0.2,0.5,0.4,1,0.8,1.4c0.3,0.4,0.8,0.8,1.3,0.8C62.7,14.7,62.7,14.6,62.7,14.5z"/>
		</g>
		<g>
			<path class="st6" d="M58.1,11.2c-3.4,0.5-0.9,2.8-12.4,1c-0.8-0.1-2.1-0.5-2.9,0c-0.9,0.6-1.4,2.8-2,3.7
				c-0.2,0.3-0.5,0.6-0.7,0.9c-0.2,0.3-0.2,0.8,0,1.1c0.5,0.6,1.5-0.1,2.1-0.2c1-0.2,2.1-0.2,3.1,0.1c1.7,0.5,3.8,1.9,4.9-0.8
				c1.9-4.6,5.3-2.4,7.1-3.3c0.8-0.4,0.5-0.7,3-1.1c2.2-0.4,4.8-0.8,6.5-2.1C63.9,11.6,61.3,10.7,58.1,11.2z"/>
		</g>
	</g>
	<g>
		<path class="st7" d="M78.3,24.6c0.4-2.7,0.5-5.4,0.3-8c-0.1-1.3-0.3-2.6-0.5-3.8c0-0.1-0.1-0.3-0.1-0.4c-0.2-1.1-0.7-2.1-1.4-3.1
			C76.1,8.6,75.6,8,75,7.5c0,0.2,0.1,0.4,0.1,0.6c0,0.1,0,0.1,0,0.2c0.1,0.4,0.2,0.8,0.3,1.2c0.4,1.5,1,3,1.1,4.5
			c0.1,0.8,0,1.7-0.2,2.7c0,0.1-0.1,0.3-0.1,0.4c0,0.2-0.1,0.3-0.1,0.5c-0.1,0.2-0.1,0.4-0.2,0.6c0,0.1-0.1,0.3-0.1,0.4
			c0,0,0,0.1,0,0.1c-0.1,0.1-0.1,0.3-0.2,0.4c0,0,0,0.1,0,0.1c-0.1,0.3-0.3,0.7-0.5,1c-0.1,0.2-0.2,0.4-0.3,0.5
			c-0.1,0.2-0.2,0.3-0.3,0.5c0,0.1-0.1,0.1-0.1,0.2c-0.2,0.3-0.4,0.7-0.7,1c-0.3,0.5-0.7,0.9-1,1.4c-0.1,0.1-0.2,0.2-0.3,0.3
			c-0.1,0.2-0.3,0.3-0.4,0.5c0,0-0.1,0.1-0.1,0.1c-0.2,0.2-0.3,0.3-0.5,0.5c0,0-0.1,0.1-0.1,0.1c-0.2,0.2-0.3,0.3-0.5,0.5
			c-0.1,0.1-0.3,0.3-0.4,0.4c-0.1,0.1-0.2,0.2-0.3,0.3c-0.1,0.1-0.2,0.2-0.4,0.3c0,0-0.1,0.1-0.1,0.1c-0.1,0.1-0.2,0.2-0.4,0.3
			c-0.2,0.1-0.3,0.2-0.5,0.4c-0.1,0.1-0.3,0.2-0.5,0.3c0,0-0.1,0.1-0.1,0.1c-0.3,0.2-0.6,0.4-0.8,0.6c-1.6,1-3.3,2-5.3,2.9
			c-0.2,0.1-0.4,0.2-0.6,0.2c-0.2,0.1-0.4,0.2-0.6,0.2c-0.3,0.1-0.5,0.2-0.8,0.3c-0.2,0.1-0.3,0.1-0.5,0.2c-0.2,0.1-0.4,0.1-0.6,0.2
			c-1.4,0.5-2.9,0.9-4.4,1.2c-0.2,0-0.4,0.1-0.7,0.1c-0.3,0.1-0.6,0.1-0.9,0.2c-0.2,0-0.5,0.1-0.7,0.1c-0.3,0-0.6,0.1-0.8,0.1
			c-0.3,0-0.7,0.1-1,0.1c-0.2,0-0.4,0.1-0.6,0.1c-0.7,0.1-1.4,0.1-2.2,0.2c-3.7,0.3-7.2-0.1-10.7-0.6c-1.7,2.1-3,4.6-4,6.9
			c0,0,0,0,0.1,0c2.1,0.2,4.4,0.4,6.7,0.7c1.8,0.3,3.6,0.6,5.3,0.9c0.2,0.1,0.5,0.1,0.7,0.1c0.2,0,0.4,0.1,0.6,0.1
			c0.3,0,0.5,0.1,0.8,0.1c0.2,0,0.4,0.1,0.6,0.1c0.1,0,0.2,0,0.3,0c0.1,0,0.2,0,0.4,0c0.1,0,0.2,0,0.3,0c1.2,0.1,2.3,0.1,3.5,0.1
			c0.2,0,0.4,0,0.6,0c0.1,0,0.2,0,0.3,0c0.2,0,0.4,0,0.5,0c0.3,0,0.6,0,0.8-0.1c0.5,0,0.9-0.1,1.3-0.2c0.2,0,0.4-0.1,0.6-0.1
			c0,0,0.1,0,0.1,0c0.2,0,0.4-0.1,0.6-0.1c0.2,0,0.3-0.1,0.5-0.1c0.2,0,0.5-0.1,0.7-0.1c0.2,0,0.4-0.1,0.5-0.1
			c0.3-0.1,0.5-0.1,0.8-0.2c0.6-0.1,1.2-0.3,1.8-0.5l0.3-0.1c0.3-0.1,0.6-0.2,0.9-0.3c0.5-0.2,1-0.4,1.5-0.6
			c0.1-0.1,0.3-0.1,0.4-0.2c0.1,0,0.2-0.1,0.2-0.1c0.2-0.1,0.4-0.2,0.5-0.2c0.2-0.1,0.3-0.1,0.5-0.2c0.4-0.2,0.8-0.4,1.1-0.6
			c0.2-0.1,0.4-0.2,0.5-0.3c1.6-0.8,3-1.7,4.2-2.4c0.1-0.1,0.3-0.2,0.4-0.2c0.4-0.2,0.7-0.5,0.9-0.7c0.2-0.1,0.4-0.3,0.5-0.4
			c0.1-0.1,0.1-0.1,0.2-0.2c0.1-0.1,0.1-0.1,0.2-0.2c0.1-0.1,0.2-0.2,0.3-0.4C76.3,32.2,77.7,28.5,78.3,24.6z"/>
	</g>
	<g>
		<path class="st8" d="M74,34.7c-0.1,0.1-0.2,0.2-0.3,0.4c-0.1,0.1-0.1,0.1-0.2,0.2c-0.1,0.1-0.1,0.1-0.2,0.2
			c-0.1,0.1-0.3,0.3-0.5,0.4c-0.3,0.2-0.6,0.4-0.9,0.6c-0.2,0.1-0.3,0.2-0.4,0.3c-1.1,0.7-2.6,1.6-4.2,2.4c-0.2,0.1-0.3,0.2-0.5,0.3
			c-0.4,0.2-0.8,0.4-1.1,0.6c-0.2,0.1-0.3,0.2-0.5,0.2c-0.2,0.1-0.4,0.2-0.5,0.2c-0.1,0-0.2,0.1-0.2,0.1c-0.1,0.1-0.3,0.1-0.4,0.2
			c-0.5,0.2-1,0.4-1.5,0.6c-0.3,0.1-0.6,0.2-0.9,0.3l-0.3,0.1c-0.6,0.2-1.2,0.4-1.8,0.5c-0.3,0.1-0.5,0.1-0.8,0.2
			c-0.2,0-0.4,0.1-0.5,0.1c-0.2,0-0.5,0.1-0.7,0.1c-0.2,0-0.3,0.1-0.5,0.1c-0.2,0-0.4,0.1-0.6,0.1c0,0-0.1,0-0.1,0
			C56,43,55.8,43,55.6,43c-0.4,0.1-0.9,0.1-1.3,0.2c-0.3,0-0.6,0-0.8,0.1c-0.2,0-0.4,0-0.5,0c-0.1,0-0.2,0-0.3,0c-0.2,0-0.4,0-0.6,0
			c-1.2,0-2.3,0-3.5-0.1c-0.1,0-0.2,0-0.3,0c-0.1,0-0.2,0-0.4,0c-0.1,0-0.2,0-0.3,0c-0.2,0-0.4,0-0.6-0.1c-0.3,0-0.5-0.1-0.8-0.1
			c-0.2,0-0.4-0.1-0.6-0.1c-0.2,0-0.5-0.1-0.7-0.1c-1.7-0.3-3.5-0.6-5.3-0.9c-2.3-0.3-4.6-0.6-6.7-0.7c-2.1-0.2-3.9-0.4-6,0
			c-2.1,0.3-4.1,0.8-6.2,1.2C16.4,43,9.4,42.7,6.4,38.9c0-0.1-0.1-0.1-0.1-0.2c0-0.1-0.1-0.1-0.1-0.2c-0.6-1.1,3.8-2.3,6.9-2.9
			c1.3-0.3,2.4-0.4,2.7-0.4c1.5-0.1,3-0.4,4.6-0.7c2.1-0.4,4.2-1,6.2-1.2c0.7-0.1,1.4-0.1,2.2-0.1c0.6,0,1.1,0,1.7,0.1
			c2.2,0.3,4.2,0.6,6.3,0.9c3.6,0.5,7.2,1,11,0.7c0.7-0.1,1.5-0.1,2.2-0.2c0.2,0,0.4,0,0.6-0.1c0.3,0,0.7-0.1,1-0.1
			c0.3,0,0.6-0.1,0.8-0.1c0.2,0,0.5-0.1,0.7-0.1c0.3-0.1,0.6-0.1,0.9-0.2c0.2,0,0.4-0.1,0.7-0.1c1.6-0.3,3.1-0.7,4.4-1.2
			c0.2-0.1,0.4-0.1,0.6-0.2c0.2-0.1,0.3-0.1,0.5-0.2c0.3-0.1,0.5-0.2,0.8-0.3c0.2-0.1,0.4-0.2,0.6-0.2c0.2-0.1,0.4-0.2,0.6-0.3
			c2-0.8,3.8-1.8,5.3-2.9c0.3-0.2,0.6-0.4,0.8-0.6c0,0,0.1-0.1,0.1-0.1c0.2-0.1,0.3-0.2,0.5-0.3c0.2-0.1,0.3-0.2,0.5-0.4
			c0.1-0.1,0.2-0.2,0.4-0.3c0,0,0.1-0.1,0.1-0.1c0.1-0.1,0.2-0.2,0.4-0.3c0.1-0.1,0.2-0.2,0.3-0.3c0.2-0.1,0.3-0.3,0.4-0.4
			c0.2-0.2,0.3-0.3,0.5-0.5c0,0,0.1-0.1,0.1-0.1c0.2-0.2,0.3-0.3,0.5-0.5c0,0,0.1-0.1,0.1-0.1c0.1-0.1,0.3-0.3,0.4-0.5
			c0.1-0.1,0.2-0.2,0.3-0.3c0.4-0.5,0.7-0.9,1-1.4c0.2-0.3,0.5-0.7,0.7-1c0-0.1,0.1-0.1,0.1-0.2c0.1-0.2,0.2-0.3,0.3-0.5
			c0.1-0.2,0.2-0.4,0.3-0.5c0.2-0.3,0.3-0.7,0.5-1c0,0,0-0.1,0-0.1c0.1-0.1,0.1-0.3,0.2-0.4c0,0,0-0.1,0-0.1
			c0.1-0.1,0.1-0.3,0.1-0.4c0.1-0.2,0.1-0.4,0.2-0.6c0-0.2,0.1-0.3,0.1-0.5c0-0.1,0.1-0.3,0.1-0.4c0.2-1,0.3-1.9,0.2-2.7
			c-0.2-1.5-0.8-3.1-1.1-4.5c-0.1-0.4-0.2-0.8-0.3-1.2c0-0.1,0-0.1,0-0.2c0-0.2-0.1-0.4-0.1-0.6c0.6,0.6,1.1,1.1,1.5,1.8
			c0.7,0.9,1.2,2,1.4,3.1c0,0.1,0.1,0.3,0.1,0.4c0.2,1.2,0.4,2.4,0.5,3.8c0.2,2.6,0.1,5.4-0.3,8C77.7,28.5,76.3,32.2,74,34.7z"/>
	</g>
	<g>
		<path class="st7" d="M74.8,33.8c-0.7,1-1.3,1.5-2,2c-2.5,1.8-6.6,4.1-10.3,5.5c-0.3,0.1-0.6,0.2-0.9,0.3l-0.3,0.1
			c-0.6,0.2-1.2,0.4-1.8,0.5c-0.3,0.1-0.5,0.1-0.8,0.2c-0.2,0-0.4,0.1-0.5,0.1c-0.2,0-0.5,0.1-0.7,0.1c-0.2,0-0.3,0.1-0.5,0.1
			c-0.2,0-0.4,0.1-0.6,0.1c0,0-0.1,0-0.1,0C56,43,55.8,43,55.6,43c-0.4,0.1-0.9,0.1-1.3,0.2c-0.3,0-0.6,0-0.8,0.1
			c-0.2,0-0.4,0-0.5,0c-0.1,0-0.2,0-0.3,0c-0.2,0-0.4,0-0.6,0c-1.2,0-2.3,0-3.5-0.1c-0.1,0-0.2,0-0.3,0c-0.1,0-0.2,0-0.4,0
			c-0.1,0-0.2,0-0.3,0c-0.2,0-0.4,0-0.6-0.1c-0.3,0-0.5-0.1-0.8-0.1c-0.2,0-0.4-0.1-0.6-0.1c-0.2,0-0.5-0.1-0.7-0.1
			c-1.7-0.3-3.5-0.6-5.3-0.9c-2.3-0.3-4.6-0.6-6.7-0.7c0,0,0,0-0.1,0c0.1-0.2,0.2-0.5,0.3-0.7c0.9-2.1,2.1-4.4,3.6-6.2
			c5.6,0.8,9.6,1.1,15.4,0.1c7.1-1.1,14.6-4.1,19.2-8.9C80.1,16.7,76.8,11,75,7.5c2.6,2.6,3.2,4.9,3.5,9.1
			C79,22.1,78.2,29.3,74.8,33.8z"/>
	</g>
	<g>
		<path class="st9" d="M73.8,28.8c0.2-2.3,0.4-4.5,0.4-6.8c-0.1,0.2-0.3,0.4-0.4,0.6c-0.3,0.5-0.7,0.9-1,1.4
			c-0.1,0.1-0.2,0.2-0.3,0.3c-0.1,0.2-0.3,0.3-0.4,0.5c0,0-0.1,0.1-0.1,0.1c-0.2,0.2-0.3,0.3-0.5,0.5c0,0-0.1,0.1-0.1,0.1
			c-0.2,0.2-0.3,0.3-0.5,0.5c-0.1,0.1-0.3,0.3-0.4,0.4c-0.1,0.1-0.2,0.2-0.3,0.3c-0.1,0.1-0.2,0.2-0.4,0.3c0,0-0.1,0.1-0.1,0.1
			c-0.1,0.1-0.2,0.2-0.4,0.3c-0.2,0.1-0.3,0.2-0.5,0.4c-0.1,0.1-0.3,0.2-0.5,0.3c0,0-0.1,0.1-0.1,0.1c-0.3,0.2-0.6,0.4-0.8,0.6
			c-1.6,1-3.3,2-5.3,2.9c-0.2,0.1-0.4,0.2-0.6,0.2c-0.2,0.1-0.4,0.2-0.6,0.2c-0.3,0.1-0.5,0.2-0.8,0.3c-0.2,0.1-0.3,0.1-0.5,0.2
			c-0.2,0.1-0.4,0.1-0.6,0.2c-1.4,0.5-2.9,0.9-4.4,1.2c-0.2,0-0.4,0.1-0.7,0.1c-0.3,0.1-0.6,0.1-0.9,0.2c-0.2,0-0.5,0.1-0.7,0.1
			c-0.3,0-0.6,0.1-0.8,0.1c-0.3,0-0.6,0.1-0.9,0.1c-0.2,0.5-0.5,1-0.7,1.4c-0.2,2.6-1,5-2.2,7.2c0.1,0,0.1,0,0.2,0
			c0.1,0,0.2,0,0.4,0c0.1,0,0.2,0,0.3,0c1.2,0.1,2.3,0.1,3.5,0.1c0.2,0,0.4,0,0.6,0c0.1,0,0.2,0,0.3,0c0.2,0,0.4,0,0.5,0
			c0.3,0,0.6,0,0.8-0.1c0.5,0,0.9-0.1,1.3-0.2c0.2,0,0.4-0.1,0.6-0.1c0,0,0.1,0,0.1,0c0.2,0,0.4-0.1,0.6-0.1c0.2,0,0.3-0.1,0.5-0.1
			c0.2,0,0.5-0.1,0.7-0.1c0.2,0,0.4-0.1,0.5-0.1c0.3-0.1,0.5-0.1,0.8-0.2c0.6-0.1,1.2-0.3,1.8-0.5l0.3-0.1c0.3-0.1,0.6-0.2,0.9-0.3
			c0.5-0.2,1-0.4,1.5-0.6c0.1-0.1,0.3-0.1,0.4-0.2c0.1,0,0.2-0.1,0.2-0.1c0.2-0.1,0.4-0.2,0.5-0.2c0.2-0.1,0.3-0.1,0.5-0.2
			c0.4-0.2,0.8-0.4,1.1-0.6c0.2-0.1,0.4-0.2,0.5-0.3c1.6-0.8,3-1.7,4.2-2.4c0.1-0.1,0.3-0.2,0.4-0.2c0.3-0.2,0.5-0.3,0.7-0.5
			C73,33.6,73.5,31.2,73.8,28.8z"/>
	</g>
	<g>
		<path class="st10" d="M46.8,13.4c-0.4-0.1-0.9-0.1-1.3-0.1c-0.4,0-0.8,0.1-1.2,0.3c-0.3,0.1-0.6,0.2-0.9,0.4
			c-0.2,0.2-0.4,0.5-0.4,0.8c0,1,1.3,1.3,2.1,1.3c0.8,0,1.6,0,2.4-0.3c0.4-0.1,0.8-0.3,1-0.6c0.2-0.3,0.2-0.8,0-1.1
			c-0.1-0.2-0.4-0.3-0.6-0.4C47.5,13.6,47.1,13.5,46.8,13.4z"/>
	</g>
	<g>
		<path class="st2" d="M38.3,18.6c0.2,1.8-1.3,2.3-2,3.7c-0.1,0.2-0.1,0.3-0.2,0.5c-0.1,0.1-0.1,0.3-0.2,0.4c-0.1,0-0.1,0-0.2,0
			c-0.1,0-0.3-0.1-0.6-0.1c-0.8-0.2-2.1-0.5-4.4-1.1c-0.3-0.1-0.6-0.2-1-0.2c0,0-0.1,0-0.1,0c-0.8-0.2-1.6-0.3-2.4-0.4
			c-0.2,0-0.4,0-0.7,0c-1,0-1.9,0-2.9,0.2c-0.1,0-0.3,0-0.4,0.1c-0.5,0.1-1.1,0.2-1.6,0.3c-0.7-0.2-1.4-0.4-2-0.6
			c-2.6-0.7-5.3-1.1-8.1-1.2c0,0,0,0,0.1,0c1.1-0.4,2.4-0.8,3.9-1.3c0.1,0,0.2-0.1,0.4-0.1c0.4-0.1,0.9-0.3,1.4-0.5
			c0.3-0.1,0.6-0.2,0.8-0.3c0.1,0,0.1,0,0.2-0.1c1.4-0.4,2.7-0.7,3.9-0.8c0.1,0,0.2,0,0.3,0c2.9-0.4,5.6-0.1,8.5,0.4
			c2.3,0.4,4.4,1,6.8,0.9c0.2,0,0.4,0,0.5,0.1C38.2,18.4,38.3,18.5,38.3,18.6z"/>
	</g>
	<g>
		<path class="st5" d="M7,27.2c-1.1-0.6-2.1-1-3.1-1.8c-0.7-0.6-1.3-1.3-2.1-1.8c0,0-0.1,0-0.1,0c0.3,1,1.4,1.9,2.3,2.5
			c0.8,0.7,1.8,1.4,2.9,1.3C7.1,27.4,7.1,27.3,7,27.2z"/>
	</g>
	<g>
		<path class="st1" d="M47.8,13.7c-0.4-0.2-0.8-0.4-1.2-0.4c-0.7-0.2-1.5-0.1-2.1,0.1c-0.4,0.2-0.9,0.4-1.2,0.7
			c-0.3,0.4-0.3,0.9-0.2,1.4c0-0.2,0-0.5,0.2-0.6c0.1-0.2,0.3-0.4,0.5-0.5c0.8-0.6,2-0.6,3-0.4c0.4,0.1,0.7,0.2,1.1,0.3
			c0.3,0.2,0.6,0.4,0.8,0.7c0-0.1,0-0.3,0-0.4c0-0.1-0.1-0.3-0.2-0.4C48.3,14,48,13.8,47.8,13.7z"/>
	</g>
	<g>
		<path class="st1" d="M63.4,11.2c-1.1,0.1-2.3,0.1-3.4,0.1c-1.1,0-2.1,0.1-3.1,0.5c-1.3,0.6-2.4,1.3-3.9,1.5
			c-1.5,0.2-2.9,0-4.4,0.2c0,0,0,0.1,0,0.1c1.2,0.4,2.7,0.6,4,0.5c1.5-0.1,2.4-0.9,3.7-1.4c0.8-0.3,1.7-0.3,2.5-0.3c1,0,2,0.1,3-0.1
			c0.5-0.1,0.9-0.3,1.3-0.4c0.6-0.2,1.1-0.4,1.6-0.7c-0.2-0.1-0.4-0.1-0.6-0.1C64,11.1,63.7,11.2,63.4,11.2z"/>
	</g>
	<g>
		<path class="st1" d="M41.7,16.4c-0.3,0-0.5,0.2-0.7,0.3c-0.2,0.1-0.5,0.3-0.7,0.5c-0.2,0.1,0,0.4,0.2,0.3c0.3-0.1,0.5-0.3,0.8-0.4
			c0.2-0.1,0.5-0.3,0.6-0.5C41.9,16.6,41.9,16.4,41.7,16.4z"/>
	</g>
	<g>
		<path class="st1" d="M26.6,33.7c-0.8,1.4-2.7,2-3,3.7c-0.3,1.5,0,2.5-0.3,3.9c-2.4,0.4-4.7,0.8-5,1c-0.2,0.1-2.1,0-4.4-0.4
			c-1.3-0.4-2.6-0.6-3.9-0.9c-0.6-0.2-1.1-0.4-1.7-0.6c0,0,0,0-0.1,0c-3.6-1.9-1.5-2.7,1.1-3.5c1.2-0.4,2.4-0.7,3.6-1.1
			c1.3-0.3,2.4-0.4,2.7-0.4c1.5-0.1,3-0.4,4.6-0.7c2.1-0.4,4.2-1,6.2-1.2c0.1,0,0.1,0.1,0.1,0.2C26.7,33.5,26.6,33.6,26.6,33.7z"/>
	</g>
	<g>
		<path class="st11" d="M64.4,32.6c-0.5,0.2-0.9,0.2-1.2,0.2c-0.1,0-0.3,0-0.3,0c-0.1,0-0.1,0-0.1,0s0,0,0.1,0.1
			c0.1,0,0.2,0.1,0.3,0.1c0.3,0.1,0.8,0.2,1.4,0c0.6-0.2,0.9-0.6,1.1-0.8c0.1-0.1,0.1-0.2,0.1-0.3c0-0.1,0-0.1,0-0.1s0,0-0.1,0.1
			c-0.1,0.1-0.2,0.1-0.3,0.2C65.2,32.3,64.9,32.5,64.4,32.6z"/>
	</g>
	<g>
		<path class="st11" d="M62.9,35.6c0.6-0.3,0.9-0.6,1.1-0.9c0.1-0.1,0.1-0.3,0.1-0.3c0-0.1,0-0.1,0-0.1s0,0-0.1,0.1
			c-0.1,0.1-0.1,0.1-0.3,0.2c-0.2,0.2-0.6,0.4-1.1,0.6c-0.5,0.2-0.9,0.3-1.2,0.3c-0.2,0-0.3,0-0.4,0c-0.1,0-0.1,0-0.1,0s0,0,0.1,0.1
			c0.1,0,0.2,0.1,0.4,0.1C61.8,35.8,62.3,35.9,62.9,35.6z"/>
	</g>
	<g>
		<path class="st11" d="M59.1,34.3c-0.4,0.2-0.7,0.3-0.9,0.4c-0.2,0.1-0.4,0.1-0.4,0.1s0.1,0.1,0.4,0.1c0.3,0,0.7,0,1.1-0.2
			c0.4-0.2,0.7-0.5,0.8-0.7c0.1-0.2,0.2-0.3,0.2-0.3s-0.1,0.1-0.3,0.2C59.8,34,59.5,34.1,59.1,34.3z"/>
	</g>
	<g>
		<path class="st11" d="M68.9,30.3c-0.4,0.2-0.7,0.3-1,0.3c-0.1,0-0.2,0-0.3,0c-0.1,0-0.1,0-0.1,0s0,0,0.1,0.1
			c0.1,0,0.2,0.1,0.3,0.1c0.3,0.1,0.7,0.1,1.2-0.1c0.5-0.3,0.7-0.6,0.8-0.9c0-0.1,0.1-0.2,0.1-0.3c0-0.1,0-0.1,0-0.1s0,0-0.1,0.1
			c0,0.1-0.1,0.1-0.2,0.2C69.6,29.9,69.3,30.1,68.9,30.3z"/>
	</g>
	<g>
		<path class="st11" d="M64.2,30.1c-1.8,0.9-3.3,1.6-4.4,2c-1,0.4-1.6,0.7-1.6,0.7s0.2,0,0.4-0.1c0.3-0.1,0.7-0.2,1.3-0.3
			c1.1-0.3,2.7-0.9,4.5-1.8c1.8-1,3.2-1.9,4-2.6c0.4-0.3,0.8-0.6,1-0.8c0.2-0.2,0.3-0.3,0.3-0.3s-0.5,0.3-1.4,0.9
			C67.4,28.3,66.1,29.2,64.2,30.1z"/>
	</g>
	<g>
		<path class="st11" d="M57.2,37.1c-0.5,0-0.9,0-1.2-0.1c-0.1,0-0.3,0-0.3-0.1c-0.1,0-0.1,0-0.1,0s0,0,0.1,0.1
			c0.1,0.1,0.1,0.1,0.3,0.2c0.3,0.2,0.7,0.3,1.3,0.3c0.6,0,1-0.3,1.2-0.4c0.1-0.1,0.2-0.2,0.2-0.2c0-0.1,0.1-0.1,0.1-0.1s0,0-0.1,0
			c-0.1,0-0.2,0.1-0.3,0.1C58.1,37,57.7,37.1,57.2,37.1z"/>
	</g>
	<g>
		<path class="st11" d="M61,39.2c-0.5,0-0.9,0-1.2,0c-0.1,0-0.3,0-0.3-0.1c-0.1,0-0.1,0-0.1,0s0,0,0.1,0.1c0.1,0.1,0.2,0.1,0.3,0.2
			c0.3,0.2,0.7,0.3,1.4,0.3c0.6-0.1,1-0.3,1.3-0.5c0.1-0.1,0.2-0.2,0.3-0.2c0-0.1,0.1-0.1,0.1-0.1s0,0-0.1,0c-0.1,0-0.2,0.1-0.3,0.1
			C61.9,39.1,61.5,39.2,61,39.2z"/>
	</g>
	<g>
		<path class="st11" d="M67.6,34c-0.4,0.1-0.7,0.2-1,0.3c-0.2,0-0.4,0.1-0.4,0.1s0.1,0.1,0.4,0.1c0.3,0.1,0.7,0.1,1.2-0.1
			c0.5-0.2,0.8-0.5,0.9-0.7c0.2-0.2,0.2-0.3,0.2-0.3s-0.1,0.1-0.4,0.2C68.4,33.8,68.1,33.9,67.6,34z"/>
	</g>
	<g>
		<path class="st11" d="M73.1,26.7c-0.3,0.3-0.6,0.6-0.8,0.7c-0.2,0.1-0.3,0.2-0.3,0.2s0,0,0.1,0c0.1,0,0.2,0,0.3,0
			c0.3-0.1,0.7-0.2,1.1-0.6c0.3-0.4,0.5-0.8,0.5-1.1c0-0.1,0-0.2,0-0.3c0-0.1,0-0.1,0-0.1s-0.1,0.1-0.2,0.3
			C73.6,26.1,73.4,26.4,73.1,26.7z"/>
	</g>
	<g>
		<path class="st11" d="M73.4,30.6c-0.6,0.4-0.8,0.8-0.8,0.8s0.5-0.1,1.1-0.5c0.6-0.4,0.8-0.8,0.8-0.8S74.1,30.2,73.4,30.6z"/>
	</g>
	<g>
		<path class="st11" d="M51.2,35.6c-0.6,0-1.1-0.1-1.5-0.2c-0.2,0-0.3-0.1-0.4-0.1c-0.1,0-0.1,0-0.1,0s0,0,0.1,0.1
			c0.1,0.1,0.2,0.2,0.3,0.3c0.3,0.2,0.9,0.4,1.6,0.4c0.7,0,1.3-0.3,1.5-0.5c0.1-0.1,0.2-0.2,0.3-0.3c0.1-0.1,0.1-0.1,0.1-0.1
			s0,0-0.1,0.1c-0.1,0-0.2,0.1-0.4,0.1C52.4,35.5,51.9,35.6,51.2,35.6z"/>
	</g>
	<g>
		<path class="st11" d="M52.6,37.4c-0.5,0.1-0.8,0.4-0.8,0.4s0.3,0.2,0.9,0.1c0.5-0.1,0.8-0.4,0.8-0.4S53.1,37.3,52.6,37.4z"/>
	</g>
	<g>
		<path class="st11" d="M53.9,39.7c-0.4,0-0.7,0-1,0c-0.2,0-0.4,0-0.4,0s0.1,0.1,0.3,0.2c0.2,0.1,0.6,0.3,1.1,0.2
			c0.5,0,0.8-0.2,1-0.4c0.2-0.2,0.3-0.3,0.3-0.3s-0.2,0-0.4,0.1C54.6,39.7,54.3,39.7,53.9,39.7z"/>
	</g>
	<g>
		<path class="st11" d="M51.2,33.9c-2.4,0.3-4.3,0.5-5.6,0.5c-0.7,0-1.2,0-1.5,0.1c-0.3,0-0.5,0-0.5,0s0.2,0,0.5,0.1
			c0.3,0,0.9,0.1,1.5,0.1c1.3,0,3.3,0,5.7-0.3c2.4-0.3,4.3-0.9,5.5-1.3c0.6-0.2,1.1-0.4,1.4-0.5c0.3-0.1,0.5-0.2,0.5-0.2
			s-0.2,0-0.5,0.1c-0.3,0.1-0.8,0.2-1.5,0.4C55.5,33.1,53.6,33.5,51.2,33.9z"/>
	</g>
	<g>
		<path class="st11" d="M45.7,15.2c-0.5,0-1,0-1.3,0c-0.3,0-0.5-0.1-0.5-0.1s0,0,0.1,0.1c0.1,0,0.2,0.1,0.3,0.2
			c0.3,0.1,0.8,0.3,1.4,0.3c0.6,0,1.1-0.2,1.4-0.4c0.1-0.1,0.2-0.2,0.3-0.2c0.1-0.1,0.1-0.1,0.1-0.1s-0.2,0-0.5,0.1
			C46.7,15.1,46.3,15.2,45.7,15.2z"/>
	</g>
	<g>
		<path class="st11" d="M40.8,36.3c-0.3,0-0.6,0-0.8-0.1c-0.2,0-0.3,0-0.3,0s0.1,0.1,0.2,0.2c0.2,0.1,0.5,0.3,0.9,0.3
			c0.4,0,0.7-0.1,0.9-0.2c0.2-0.1,0.3-0.2,0.3-0.2s-0.1,0-0.3,0C41.4,36.4,41.1,36.4,40.8,36.3z"/>
	</g>
	<g>
		<path class="st11" d="M46.7,37.2c-0.6-0.1-1,0.1-1,0.1s0.3,0.3,0.9,0.4c0.6,0.1,1-0.1,1-0.1S47.3,37.3,46.7,37.2z"/>
	</g>
	<g>
		<path class="st11" d="M43.2,38.7c-0.9-0.1-1.4,0.1-1.4,0.1s0.5,0.3,1.4,0.4c0.9,0.1,1.4-0.1,1.4-0.1S44.1,38.8,43.2,38.7z"/>
	</g>
	<g>
		<path class="st11" d="M74.8,33.8c-0.2,0.3-0.5,0.6-0.8,0.9c-0.1,0.1-0.2,0.2-0.3,0.4c-0.1,0.1-0.1,0.1-0.2,0.2
			c-0.1,0.1-0.1,0.1-0.2,0.2c-0.1,0.1-0.3,0.3-0.5,0.4c-0.3,0.2-0.6,0.4-0.9,0.6c-0.2,0.1-0.3,0.2-0.4,0.3c-1.1,0.7-2.6,1.6-4.2,2.4
			c-0.2,0.1-0.3,0.2-0.5,0.3c-0.4,0.2-0.8,0.4-1.1,0.6c-0.2,0.1-0.3,0.2-0.5,0.2c-0.2,0.1-0.4,0.2-0.5,0.2c-0.1,0-0.2,0.1-0.2,0.1
			c-0.1,0.1-0.3,0.1-0.4,0.2c-0.5,0.2-1,0.4-1.5,0.6c-0.3,0.1-0.6,0.2-0.9,0.3l-0.3,0.1c-0.6,0.2-1.2,0.4-1.8,0.5
			c-0.3,0.1-0.5,0.1-0.8,0.2c-0.2,0-0.4,0.1-0.5,0.1c-0.2,0-0.5,0.1-0.7,0.1c-0.2,0-0.3,0.1-0.5,0.1c-0.2,0-0.4,0.1-0.6,0.1
			c0,0-0.1,0-0.1,0C56,43,55.8,43,55.6,43c-0.4,0.1-0.9,0.1-1.3,0.2c-0.3,0-0.6,0-0.8,0.1c-0.2,0-0.4,0-0.5,0c-0.1,0-0.2,0-0.3,0
			c-0.2,0-0.4,0-0.6,0c-1.2,0-2.3,0-3.5-0.1c-0.1,0-0.2,0-0.3,0c-0.1,0-0.2,0-0.4,0c-0.1,0-0.2,0-0.3,0c-0.2,0-0.4,0-0.6-0.1
			c-0.3,0-0.5-0.1-0.8-0.1c-0.2,0-0.4-0.1-0.6-0.1c-0.2,0-0.5-0.1-0.7-0.1c-1.7-0.3-3.5-0.6-5.3-0.9c-2.3-0.3-4.6-0.6-6.7-0.7
			c0,0,0,0-0.1,0c0.1-0.2,0.2-0.5,0.3-0.7c1.4,0,2.8,0.1,4.2,0.3c6.6,0.7,13,2.3,19.5,0.5C63.2,39.4,69.6,37.3,74.8,33.8z"/>
	</g>
	<g class="st12">
		<path class="st13" d="M67.5,5.5c-4.9-3-11.1-4.1-17-3.8C47,1.9,43.6,2.6,40.3,3.5c-4.7,1.3-9.6,2-14.1,3.9c-3.1,1.3-5.9,3.1-8,5.5
			c-0.2,0.2-0.4,0.6-0.2,0.9c0.1,0.2,0.3,0.2,0.5,0.2c2,0.3,4.1-0.2,6.2-0.3c5.1-0.2,9,1.5,13.5,3.2c1.6,0.6,2.9,0.7,4.1,2
			c1.5,1.5,2.3,3.6,3.9,5.1c2.8,2.6,7.1,3.4,11,2.9c4.6-0.6,8.9-3.2,12.2-6.2c5.1-4.5,5.2-10.1-0.4-14.2C68.6,6.2,68,5.8,67.5,5.5z"
			/>
	</g>
	<g>
		<path class="st13" d="M56,4.2c-2.9-0.1-6-0.4-8.9,0c-1.6,0.2-5.8,0.9-6.5,2.6c-0.9,2.3,3.1,2.6,4.8,2.9c5.1,0.7,10.3-0.1,15.3-1.2
			c0.7-0.2,1.6-0.5,1.7-1.2c0-0.3-0.1-0.7-0.3-0.9C60.7,4.8,58.2,4.3,56,4.2z"/>
	</g>
	<g class="st12">
		<path class="st13" d="M29.4,30.5c1.8-0.1,3.6-0.2,5.5-0.3c-2.2-0.3-4.4-0.6-6.6-1c-4.5-0.7-9.2-1.3-13.6-0.2
			c-2.6,0.7-5.3,3.4-1,3.9c2.4,0.3,4.9-1,7.2-1.4C23.7,31,26.6,30.7,29.4,30.5z"/>
	</g>
</g>
</svg>
