<?xml version="1.0" encoding="utf-8"?>
<!-- Generator: Adobe Illustrator 25.0.0, SVG Export Plug-In . SVG Version: 6.00 Build 0)  -->
<svg version="1.1"
	 id="svg2" xmlns:cc="http://creativecommons.org/ns#" xmlns:dc="http://purl.org/dc/elements/1.1/" xmlns:rdf="http://www.w3.org/1999/02/22-rdf-syntax-ns#"
	 xmlns="http://www.w3.org/2000/svg" xmlns:xlink="http://www.w3.org/1999/xlink" x="0px" y="0px" viewBox="0 0 953.7 695.4"
	 style="enable-background:new 0 0 953.7 695.4;" xml:space="preserve">
<style type="text/css">
	.st0{clip-path:url(#SVGID_2_);fill:url(#SVGID_3_);}
</style>
<g>
	<defs>
		<polygon id="SVGID_1_" points="857.4,634.4 913.2,-26.6 -32,-26.6 -32,668.8 		"/>
	</defs>
	<clipPath id="SVGID_2_">
		<use xlink:href="#SVGID_1_"  style="overflow:visible;"/>
	</clipPath>
	<linearGradient id="SVGID_3_" gradientUnits="userSpaceOnUse" x1="94.0179" y1="330.3777" x2="834.9884" y2="330.3777">
		<stop  offset="0" style="stop-color:#C2B294"/>
		<stop  offset="7.142900e-02" style="stop-color:#C7B89B"/>
		<stop  offset="0.1429" style="stop-color:#CBC1A3"/>
		<stop  offset="0.2143" style="stop-color:#D2C8AD"/>
		<stop  offset="0.2857" style="stop-color:#D8CFB6"/>
		<stop  offset="0.3571" style="stop-color:#D9D2B8"/>
		<stop  offset="0.4286" style="stop-color:#D9D2B8"/>
		<stop  offset="0.5" style="stop-color:#D9D2B8"/>
		<stop  offset="0.5714" style="stop-color:#D9D2B8"/>
		<stop  offset="0.6429" style="stop-color:#D6CFB5"/>
		<stop  offset="0.7143" style="stop-color:#D3C8AD"/>
		<stop  offset="0.7857" style="stop-color:#CDC1A6"/>
		<stop  offset="0.8571" style="stop-color:#C7B79C"/>
		<stop  offset="0.9286" style="stop-color:#BFAD8F"/>
		<stop  offset="1" style="stop-color:#BBAC89"/>
	</linearGradient>
	<path class="st0" d="M834.5,405.1c-0.6-3.4-1.6-6.6-1.6-10.1c-0.1-3.7,0.5-6.6-1.4-9.9c-5.6-9.5-6.5-20-4.7-30.9
		c0.7-4.6,2.2-8.9,5.2-12.5c-0.9-2-1.7-4.1-2.3-6.2c-2.3-7.2-6.8-14.6-5.3-22.3c1.1-5.8,4.7-10.8,6-16.6c1.4-6.5-0.1-11.8-1.9-18
		c-1.5-5.2-0.5-9.8,1-15c1.6-5.8,1.8-11.4,0.8-17.2c-0.3-0.6-0.4-1.3-0.5-2.1c0-3.7-0.3-7-1.6-10.4c-1.4-3.9-3.2-7.4-3.8-11.6
		c-1.1-7.5,2.2-14.3,3.4-21.5c1.5-9.4-1.2-18.4-1.5-27.8c-0.1-3.4,0.5-6.8,2.3-9.7c2.1-3.3,5.3-5.5,6.2-9.5c1.1-5.3-3.2-10-5.7-14.3
		c-3.5-6-5.2-12.2-4.1-19.1c0.2-1.4,0.7-2.6,1.2-3.8c-0.7-0.8-1.1-1.7-1.3-2.9c-0.4-3.8-1-7.5-0.7-11.3c0.2-2.6,1.4-4.7,1.7-7.2
		c-0.5-1.8-1.4-3.5-2.6-5.2c-6.8-2.6-14.4-1.7-21.5-2.4c-7.5-0.7-14.6-3.4-22.1-4c-8.4-0.6-16.3,2.7-24.2,4.8
		c-7,1.9-15.2,4.4-22.5,3.2c-6-0.9-10.5-5.6-16.4-7c-6.9-1.7-13.8,0.3-20.3,2.5c-7.2,2.4-14.1,4.8-21.7,5.7
		c-3.5,0.4-5.1-2.5-4.7-5.2c-8.8,2.6-17.8,4.7-27,4.5c-6.4-0.1-12.1-1.3-17.8-4.4c-5.7-3.1-11.3-4.6-17.8-4.8
		c-6.2-0.1-12.3,0.7-18.3,1.8c-4.4,1.6-9.3,2.8-13.9,2.9c-0.5,0-1.4,0-1.4,0s-1.9,0.8-2.9,0.9c-13.1,1.7-25.9-0.1-38.5-4.1
		c-1-0.3-3-0.8-3-0.8s-0.4,0-0.5,0c-1.1,1.1-2.6,1.6-4.6,0.8c-3.6-1.4-6.5-2.1-9.8,0c-2.8,1.8-5.3,4.1-8.3,5.7
		c-8.6,4.6-17.3,3.5-26.3,0.8c-4.5-1.4-9-3-13.8-2c-4,0.8-7.6,3-11.5,4.3c-8.6,3-17.9,1.7-26.8,2.9c-1.2,0.7-2.5,1.3-3.7,1.9
		c-12.2,5.7-23.7,6.4-36.8,3.6c-6.9-1.5-13.8-3.8-20.9-4.6c-6.7-0.8-13.6-0.3-20.3,0.3c-14.6,1.1-29.2,3.6-43.9,2.6
		c-2.4-0.2-5.4-2.2-5-5c0-0.2,0.1-0.5,0.1-0.7c-1.1-1.2-1.5-2.9-1.3-4.4c-0.2-0.1-0.4-0.1-0.7-0.2c-7.7-2.1-17.3-0.5-25.1,0.4
		c-7.6,0.9-15.2,2.1-22.9,3.1c-6.6,2.5-13.1,5.2-20.1,6.4c-6.5,1-12.4,0.5-18.2-2.7c-4.9-2.7-9-6.2-14.4-7.2c-1.4,0-2.8-0.1-4.2-0.3
		c-6.4,0.2-12.6,2.4-18.9,3.3c-7,1-13.3,0.5-19.8-2.3c-2.8-1.2-3.1-3.9-2-6c-0.9-0.5-1.8-1.2-2.7-1.9c-1.2,0.3-2.4,0.5-3.6,0.7
		c-3.1,0.4-6.3,0.4-9.5,0.1c-0.3,2.2-1.8,4.1-4.7,3.8c-8.2-0.8-16.3-2-24.5-3c-1.7,4.7-4.1,9-4.2,14.1c-0.1,6.4,2.5,12,4.7,17.8
		c4,10.9-1.8,19.8-5.4,29.9c-1.9,5.4-2.7,10.5-1.5,16.2c1,4.7,2.4,9.2,2.9,14c0.5,5.2-1,9.8-2.8,14.4c6.9,9.8-2,23.5-1.9,35
		c0.1,8.1,4.4,15.5,5.1,23.7c0.8,8.4,1,16.6,2.8,24.9c1.7,8,4.3,15.9,4.1,24.2c-0.1,4.1-1.2,8.1-1.5,12.2c-0.2,3.9,0.5,7.9,0.8,11.8
		c1,12.8-3.2,22.6-10.5,31.9c0.9,1.3,1.3,2.9,0.9,4.4c-1.2,4.7-0.4,9.7-1.6,14.4c-0.2,0.7-0.4,1.3-0.6,2c0.3-0.1,0.5-0.2,0.8-0.3
		c2.1-0.8,4.6,0.5,5.6,2.3c3.5,5.8,0.4,12.1-3,17.2c-1.5,2.2-3.2,4.4-4.3,6.9c-1.8,4.1-0.9,8.4,0.3,12.5c1.3,4.3,5.2,8.6,7,13.1
		c1.1,1,2,2.2,2.8,3.7c0.6,1.2,1.1,2.5,1.5,3.8c0.8,0.2,1.6,0.7,2.3,1.5c4.1,4.7,1.7,11.5-1.2,17c0,0.5-0.1,1-0.2,1.5
		c0,0.2,0,0.3-0.1,0.5c3,0.2,5.8,2.8,4.7,6.2c-1.7,5-6.6,10.2-6.9,15.6c-0.1,3.3,1,6.7,0.9,10c-0.1,3.1-0.7,6.1-1.5,9.1
		c2.7,2.3,5.1,5.1,7.1,8c6.3,9.3,2.6,18.5-0.3,28.4c-1.5,5.1-2.5,10.4-4.9,15.2c-1.6,3.3-4.3,5.7-6.6,8.4c1.6,2.9,3.2,5.9,3.8,9.2
		c0.4,2,0.2,4.5-0.3,7.1c2.1,0.3,4.1,0.7,6.1,1.3c3.8,1.2,7.3,3,11,4.3c9.1,3.1,19.6,1.3,28.7-0.8c0.4-0.1,0.8-0.1,1.2-0.1
		c1.1-1.3,2.8-2,4.9-1.5c6.9,1.6,11.9,0.6,17.6-3.4c4-2.9,8.1-5.6,13.2-5.8c5.8-0.2,10.5,4,16.1,5.2c6.4,1.4,13.1,1.4,19.6,1.1
		c6.9-0.3,13.8,0.1,20.7,0c6.9-0.2,12.5-2.2,18.8-4.4c5.1-1.8,10-1.6,15.3-0.4c5.2,1.2,9.4,1.4,14.8,0.8c0.5-0.1,0.9-0.1,1.3,0
		c5.4-0.2,10.8,0.7,16.2,0.6c4.7-0.1,8.9-1.6,13.3-3.2c8.5-3,16.6-4.3,24,1.7c0.4,0.3,0.7,0.7,1,1.1c0.6-0.4,1.4-0.7,2.3-0.8
		c0.4-0.6,1.1-1.2,2-1.6c18.8-8.6,38-7.5,58.2-7.4c3.4,0,5,2.7,4.8,5.4h1c6.2-8.9,23.6-6.5,32.2-5.4c6.1,0.8,12.2,3.1,18.3,3.5
		c10.4,0.7,20.7-1.8,31-1.9c1.7,0,3,0.7,3.8,1.8c0.1,0,0,0,0.1,0c6.3-0.8,10.9-4.7,17.6-3.8c7.5,1,14.3,6.3,21.9,6.3
		c7,0,13.9-4.2,20.7-5.6c7.2-1.5,14.1-0.8,21,1.6c2.6,0.9,4.1,3.8,3.5,6.3c0.7,0,1.4,0.1,2,0.1c5.9,0.1,10.2-2.3,15.7-3.8
		c5.5-1.4,10.4-0.5,15.5,1.7c0.6-0.3,1.2-0.4,1.9-0.5c4.9-0.4,8.9-5,13.9-5.8c5.9-1,11.4,1.1,17,2.4c6.3,1.5,12.5,1.1,19,1.3
		c5.7,0.2,11.3,1.2,17,1.5c9.3,0.5,17.6-3.1,26.7-4.2c5.2-0.6,10.2,0.2,13.8,3.1c12.6-1.4,25.5-0.8,37.9-3.4
		c8.6-1.8,15.9-3.6,24.6-1.6c6.4,1.5,12.6,3.4,19,4.7c1.1-1.2,2.4-2.2,3.9-3.1c3.4-2,7.2-2.8,10.9-2.4c-1.7-4.6-4.4-9-3.6-14.2
		c0.6-4.2,1.6-7.9,1.2-12.1c-0.5-4.9-1.9-9.6-2.8-14.4c-1.5-7.9-0.9-15.4,1.2-23.1c2.2-8,6.1-16.5,5.8-24.9
		c-0.2-6-1.4-12.8,2.2-18.1c0.5-0.7,1.1-1.4,1.8-2c-1.7-2.8-3.7-5.5-4.4-8.9c-1.1-5.3,1.2-10,4.5-14
		C834.5,417.8,835.8,412,834.5,405.1z"/>
</g>
</svg>
