<?xml version="1.0" encoding="utf-8"?>
<!-- Generator: Adobe Illustrator 25.0.0, SVG Export Plug-In . SVG Version: 6.00 Build 0)  -->
<svg version="1.1"
	 id="svg2" inkscape:version="0.48+devel r9935" sodipodi:docname="Documento nuevo 1" xmlns:cc="http://creativecommons.org/ns#" xmlns:dc="http://purl.org/dc/elements/1.1/" xmlns:inkscape="http://www.inkscape.org/namespaces/inkscape" xmlns:ns1="http://sozi.baierouge.fr" xmlns:rdf="http://www.w3.org/1999/02/22-rdf-syntax-ns#" xmlns:sodipodi="http://sodipodi.sourceforge.net/DTD/sodipodi-0.dtd" xmlns:svg="http://www.w3.org/2000/svg"
	 xmlns="http://www.w3.org/2000/svg" xmlns:xlink="http://www.w3.org/1999/xlink" x="0px" y="0px" viewBox="0 0 2368.4 385.5"
	 style="enable-background:new 0 0 2368.4 385.5;" xml:space="preserve">
<style type="text/css">
	.st0{opacity:0.9961;fill-rule:evenodd;clip-rule:evenodd;fill:#D68741;}
	.st1{fill-rule:evenodd;clip-rule:evenodd;fill:#D68741;}
	.st2{opacity:0.9961;fill-rule:evenodd;clip-rule:evenodd;fill:#E5A867;}
	.st3{opacity:0.9961;fill-rule:evenodd;clip-rule:evenodd;fill:#C17833;}
	.st4{opacity:0.9961;fill-rule:evenodd;clip-rule:evenodd;fill:#B0621A;}
	.st5{opacity:0.9961;fill-rule:evenodd;clip-rule:evenodd;fill:#FCCC99;}
	.st6{opacity:0.9961;fill-rule:evenodd;clip-rule:evenodd;fill:#FEE5B4;}
	.st7{fill-rule:evenodd;clip-rule:evenodd;fill:#FEE5B4;}
</style>
<sodipodi:namedview  bordercolor="#666666" borderopacity="1.0" id="base" inkscape:current-layer="layer1" inkscape:cx="273.52498" inkscape:cy="614.84559" inkscape:document-units="px" inkscape:pageopacity="0.0" inkscape:pageshadow="2" inkscape:window-height="787" inkscape:window-maximized="0" inkscape:window-width="1440" inkscape:window-x="0" inkscape:window-y="0" inkscape:zoom="0.42014768" pagecolor="#ffffff" showgrid="false">
	</sodipodi:namedview>
<g>
	<path class="st0" d="M352.8,104.9l-2.3,3.3c-8.6,10.8-23.6,20.2-45.1,28.1c-16.7,6.1-32.6,9.4-47.9,9.7
		c-10.1,0.3-21.9-0.8-35.4-3.3c-40.3-12.9-71-21.2-91.9-24.8c-15.3-2.6-29.1-2.8-41.6-0.6c-4.5,0.8-8.7,2-12.6,3.5
		c-14.4,6.9-26.7,14.2-37,21.9c-10.3,7.7-18.5,15.8-24.8,24.2C8,175.5,3.8,184.3,1.7,193.6L0,207.8c-0.1,9.7,1.9,19.7,5.9,30.2
		c15.3,24.5,41,40.9,77,49.2c15,4,31.5,4.4,49.4,1.2c9.7-2,17.7-4.1,23.9-6.3l64.7-23.7c19.8-5.3,36.5-7.8,50.1-7.5
		c11.6-0.3,26.2,0.9,43.7,3.7l126.1,25.5L352.8,104.9z"/>
	<path class="st0" d="M455.6,58.5L437.3,59l-17.2,1.8c-11.1,1.6-21.4,4-31,7.1c-19.2,6.3-35.4,15.8-48.6,28.5
		c-21.4,21.4-33.1,48.1-35.2,80.2c-0.6,10.5-0.1,21.5,1.6,32.9l3.4,17.5c3.2,16.7,10.2,32.2,20.9,46.5c4.4,6.1,11.3,13.7,20.8,22.7
		c1.2,1.9,23.9,13.3,68.1,34.2l178.6-222.5c-8.5-6.9-17.5-13.1-27-18.6l-14.5-7.7c-9.9-4.7-20.2-8.8-31-12.1
		C505.2,63,481.6,59.3,455.6,58.5z"/>
	<path class="st0" d="M543.6,15.4l-11,0.1c-40.2,0.5-70.8,4.1-91.9,10.8c-25.4,9.7-40.2,18.7-44.5,27
		c-24.5,45.3-29.2,95.7-14.1,151.2l246.8,40.1l57.7-0.2c148.6-0.9,254.2-4.1,316.8-9.6c22.6-1.9,44.1-4.1,64.6-6.4
		c11.6-0.9,39.9-4.9,85.2-12.1c34.7-6,65.2-12.9,91.6-20.7c62.7-20.3,107.2-43,133.4-68.1c16.4-17.6,29.7-37.4,40-59.3l4.4-12.7
		c1.9-7.8,1.8-14.4-0.2-19.7c-2.1-5.3-6.1-9.3-12.2-12c-2.5-2.5-14.1-4.2-34.7-4.9c-78.5,1.7-168.8,2.5-271.1,2.3L543.6,15.4z"/>
	<path class="st0" d="M1437.4,113.2l-72.6,0.9c-190.1,2.7-352,8.2-485.6,16.4c-86.1,6-140.7,10.7-163.8,14.3
		c-35.6,4.4-64.7,9.2-87.4,14.5c-37.4,7.6-69.5,16.2-96.2,25.6c-26.7,9.4-47.9,19.8-63.8,31l-19.8,17.5c-22.4,23.1-20.4,52,6.1,86.9
		c12.6,8.7,33.4,13.5,62.5,14.4c140.2-2.4,228.6-3.8,265.2-4.1c246.2,0.1,426.2-0.6,540.1-2c80.2-0.3,201.8,1.1,365,4.2
		L1437.4,113.2z"/>
	<path class="st0" d="M480.4,86.7l-17.9,13.5c-22.7,18.7-40.4,40.1-53.2,64.1c-12.3,17.3-20.7,50.6-25.3,99.9
		c-2.6,50.7,20.4,83.8,69.2,99.3c9.4,2,32.6,2.6,69.6,1.7c99.7-3.9,249.6-7.6,449.7-11.4c149.8-4.8,270-9.5,360.6-14.2l212.6-2
		L480.4,86.7z"/>
	<path class="st0" d="M452,69.5l-10,0.2c-19.8,0.6-37.6,3.2-53.5,7.6c-23.5,7.2-36.2,11.7-38.1,13.4c-7,3.4-13.3,7.5-19,12.2
		c-11.4,9.4-20.2,21.3-26.4,35.7c-6.9,17.2-10.8,36.1-11.8,56.5c-0.6,18.8,2.3,35.8,9,51.1c3.3,7.6,7.5,14.8,12.7,21.6
		c6.4,7.8,13.5,14.9,21.2,21.2c7.7,6.3,16.1,11.9,25.1,16.7l14,6.6c19.4,8.1,41.3,13.2,65.9,15.3l88.2-250.7
		C495.4,71.4,469.6,68.9,452,69.5z"/>
	<path class="st0" d="M438.8,119.8l-14,16c-17.5,21.7-30.2,45-38.2,69.9c-8.7,19-11.4,51.3-7.9,96.8c6.9,44.1,35.6,70.3,85.9,78.5
		c6.9,2.1,33.5,3.1,79.9,3.1c98.2-4.9,240-8.4,425.5-10.5c101.9-3.7,196.8-9.6,284.8-17.6l155.8-4.4c0.2-3.8-3.5-8.4-11.2-13.6
		c-7.7-5.2-19.4-11.1-35-17.6l-26.4-10.3c-39.2-14.5-94.2-31.6-165-51.5L438.8,119.8z"/>
	<path class="st0" d="M1746.4,25.1l-5.5,0.1c-17.2,0.5-54.4,2.9-111.4,7.2c-33.4,1.6-58.2,2.5-74.3,2.7
		c-76.4-1.6-219.2-1.8-428.4-0.7c-58.6-3.3-164-4.5-316.2-3.6c-17.7-0.1-61.1,2-130.2,6.3l-25.2,1.7l-5,2.3c-1.2,1.6,2,3.2,9.6,5
		l132.7,30.5L894,96.9c93.9,15,146.1,23.7,156.7,25.9c24.5,4.4,35.2,6.8,32,7.3l582.5,53.9l49.6-43.7c29.1-33,43-51.8,41.9-56.5
		c5-11.3,7-21.9,6.2-31.6c-0.8-9.7-4.6-18.6-11.2-26.7C1750.6,25.2,1748.8,25.1,1746.4,25.1z"/>
	<path class="st0" d="M997.7,23.9l-10.2,0c-31.1,0.2-93.6,1.2-187.4,3l-86.7,3.4c-31.6-0.1-66.7,0.8-105.1,2.8l-21.9-0.2
		c48.5,5.9,81.3,10.7,98.2,14.3c18.3,3.9,32.1,7.2,41.4,9.7l146.1,40c26.4,6.5,71.1,14.3,134.1,23.4l602.3-85.6l-270.2-3.9
		l-81.8-2.3l-65.7-0.7c-15.2-0.7-46.1-1.6-92.7-2.6C1074.4,24.8,1040.9,24.3,997.7,23.9z"/>
	<path class="st1" d="M711.6,33.3l-1.8,0c-4.4,0.1-5.8,0.8-4.4,2.1l1.5,0.3c1.1,0.2,2.5,0.4,4.1,0.6c1.6,0.2,3.5,0.3,5.6,0.5
		c4.3,0.3,9.5,0.5,15.9,0.6l52.1,0.5c-6-0.5-11.7-1-17.2-1.4l-7.9-0.6c-5.1-0.4-9.9-0.7-14.4-1c-4.5-0.3-8.7-0.5-12.6-0.7
		c-3.9-0.2-7.5-0.4-10.8-0.5c-1.8-0.1-3.5-0.2-5-0.3c-0.4,0-1.5-0.1-3.2-0.1C712.8,33.3,712.2,33.3,711.6,33.3L711.6,33.3z
		 M1816.5,23.9L1816.5,23.9l-2.5,0l-161.5,4.9l-564.2,5.5c-93.9,3-151.5,4.7-172.8,5l-131-1.4c242.8,22.5,449.8,43.6,620.9,63.2
		l243.3,178.1c26.3-4.4,50.8-9.4,73.3-15l32.3-9c20.6-6.3,39.3-13.2,56-20.8c52.3-25.9,83.3-51.3,93-76.3
		c8.8-14.9,14.7-28.7,17.6-41.6c2.9-12.9,2.8-24.7-0.2-35.6l-6.8-15.6c-6-9.9-15-18.7-26.9-26.6l-20.1-11.1
		C1854.8,24.9,1838,23.6,1816.5,23.9z"/>
	<path class="st0" d="M1195.1,20.3l-11,0c-55.4,0.8-97.8,2.4-127,4.8c-16.4,1.3-30.1,2.9-41.2,4.6c-3.6,0.4-10.5,1.8-20.6,4.2
		c-0.8,0.3,0,0.6,2.4,0.9c0.9,0.2,6.6,0.5,17,0.9c39.6,0.4,71.2,1.1,94.9,1.9c9.8,0.3,28.1,1.2,54.9,2.8
		c68.7,3.9,148.7,9.8,239.8,17.7c15.3,1.2,38.1,2.4,68.4,3.5c61.8,1.9,104.4,3,127.8,3.2l10.6,0l185.5-2.2c5-0.1,13.1,0.2,24.4,0.7
		l25.4,30.5c13.4-17.9,16.4-31.2,8.7-39.8c-4.8-6-19.9-10.3-45.2-12.9c-9.4-1-17.1-1.5-23.1-1.7c-13.3-0.5-35.8-1.1-67.4-1.6
		c-52.2-2.4-97.3-4.2-135.1-5.3c-57.7-2.9-101.3-5-130.9-6.1c-36.2-1.5-77.9-3-125.1-4.7C1319.4,21.4,1275.1,20.8,1195.1,20.3z"/>
	<path class="st0" d="M1290.6,7.4l-19,0C1213,7.3,1105.5,12.5,949,23c65.7,11.6,138.3,21.7,217.7,30.4
		c115.7,13.1,224.7,22.4,327.2,28c41.6,4.9,69,8.7,82.2,11.3l95,177l11.8,0.1c54.3,0,101.4-4.7,141.3-14.1
		c20-4.7,38.1-10.6,54.5-17.7l23.2-11.5c14.6-8.2,27.4-17.7,38.3-28.3l16.5-24.4c9.3-16,15.3-31.3,17.8-45.9
		c2.6-14.6,1.7-28.6-2.4-42c-8.4-26.7-30.3-50.7-65.7-72.2c-5.2-1.7-9.5-2.4-12.7-2.3c-48,2.5-97,3.6-147.1,3.2
		c-115.6-3.6-196.9-5.6-243.7-6C1436.6,7.9,1365.9,7.4,1290.6,7.4z"/>
	<path class="st0" d="M1345.4,10.5l-198,1.2l-509,6.4l-31.7,0.8c-41.1,1.2-77.2,3.1-108.5,5.6c-55.8,5.3-82.9,9.2-81.1,11.5
		c26.1-1.4,59.9-0.6,101.4,2.6c178.9,19.9,341,34.2,486.4,43c34.4,1,97.6,2.5,189.5,4.3c31.2,0.4,107.3,0.3,228.5-0.2
		c138,1.7,215.1,3.1,231.4,4.1l-158.2,70.8c68.1-16.8,119.8-36.9,155.3-60.3c41.7-32.7,55.9-58.7,42.8-77.8
		c-3.5-4.4-8.8-8.2-16-11.4L1345.4,10.5z"/>
	<path class="st0" d="M1853.1,0l-2,0c-150,0.2-275.2,1.9-375.7,5.1c-78.2,3.3-121.6,5.6-130.3,6.9c-55.1,4.1-83.7,7.8-85.9,11.3
		c-5.2,2.7-3.7,5.8,4.5,9.3c24.2,4.3,54,9.1,89.4,14.5l13.5,2l184.6,18.6L1226,307.9c-3.8,0.8,11.7,2.3,46.4,4.5
		c15.2,1.3,88.7,5.2,220.5,11.7l401.8,31.4c14.1,0,27.3-5.1,39.5-15.4c22.4-16.2,38.1-34.2,46.9-53.8c3.8-3.9,9.4-22.1,17-54.8
		c6.9-52.2,8.4-86.5,4.4-102.9c-5.9-36.7-23.7-69.3-53.4-98c-16.1-10.5-26-16.2-29.6-17.1c-6.8-3-13.9-5.6-21.1-7.6
		C1884.1,2,1868.9,0,1853.1,0z"/>
	<path class="st0" d="M1980.2,225.6l-906.8,128.7c40.7-1.8,64.4-2.6,71-2.4l129.1,2.7l261-1c62,0.9,116.2,2.4,162.7,4.5
		c22.6,0.5,49.1,0.8,79.6,0.8c53.3,0.4,99.4-1.5,138.5-5.6l12-5.2c7.6-4.2,14.5-10,20.5-17.2c6-7.2,11.2-15.9,15.6-26.1
		C1972.2,284.3,1977.8,257.9,1980.2,225.6z"/>
	<path class="st0" d="M1482.9,295l-11.3,0c-32,0.1-78.1,0.8-138.2,2.1l-687.9,82l-4.9,0.8l11.7-1.4c7.8,0.5,15.3,0.8,22.4,0.8
		c16.7,0.3,41.1,0.3,73.3,0c42.2,1.5,77.1,2.1,104.6,1.8c91-0.9,180-2.7,266.9-5.3c101.2-3,174.5-5.7,219.8-8.1
		c128.2-6.7,311-21.1,548.5-43.2c3.3-0.3,6.3-1.6,8.8-3.8c0.4-1.8-3.9-3.9-12.9-6.1c-13.4-4.1-37.2-7.2-71.5-9.4
		c-28.1-2.3-69.1-4.4-123.1-6C1606.7,296.8,1538.1,295.4,1482.9,295z"/>
	<path class="st1" d="M551.8,374.1l-0.2,0c-0.6,0.1-1.1,0.2-1.6,0.2L551.8,374.1L551.8,374.1L551.8,374.1z M1567.7,304.9
		L1567.7,304.9l-7.2,0c-25.3,0.3-99.5,1.6-222.6,4c-122.5,3.4-200.6,5.3-234.3,5.7c-63.4,0.8-107,0.5-130.6-0.6l-421.3,60.1
		c7.6-0.8,20.2-1,37.8-0.6l65.1,4.1c88.5,3.7,148.3,5.8,179.3,6.4c172.5,1.2,270.4,1.4,293.6,0.6l159.3,1l197.1-4.6l249.6-8.3
		l113.9-4.2c8.7-0.5,25.6-2.1,50.8-4.8c19.1-5.2,24.6-12.4,16.7-21.7c0.6-1.3-6.8-6.4-22.1-15.5c-1.1-0.9-11-3.3-29.6-7
		c-24.6-4.3-58.8-7.8-102.7-10.6C1731.2,306.9,1667,305.6,1567.7,304.9z"/>
	<path class="st0" d="M1926.3,244.3l-245.3,104c1.1,3.1,11.3,6.6,30.5,10.3c46.8,8.2,77.3,12.5,91.3,12.9
		c57.4,1.3,99-3.4,124.7-14.1c9.8-3.8,17.6-9.2,23.2-16.2c2.8-3.5,5.2-7.4,7-11.8c1.5-1.7,3.1-9.1,4.6-22.2
		c-0.4-4.8-1.2-9.6-2.6-14.3c-4.4-11.8-7.6-18.8-9.7-21.1C1944.1,262.6,1936.2,253.4,1926.3,244.3z"/>
	<path class="st0" d="M1897.4,13.7l-84,344c60.4,8,102.9,7.1,127.4-2.6c16.3-5.7,27.9-12.1,34.8-19.5c4.2-4,7.9-8.7,11.2-13.9
		c2.2-1.9,6.1-11.1,11.6-27.6c9.4-38.3,13.9-68.2,13.7-89.7l-0.2-18.7c-0.5-12.3-1.8-24.4-3.9-36.2c-2.1-11.8-4.9-23.3-8.6-34.6
		c-4.7-12.9-10-24.5-16-35l-9.4-14.8c-6.6-9.3-13.8-17.4-21.7-24.3C1936.6,27.1,1918.3,18,1897.4,13.7z"/>
	<path class="st0" d="M1991.7,236.1l-378.6,125c6.7,0.7,31.5,2,74.4,3.8c78.2,5.9,127,9.2,146.2,9.8c49.2,0.8,79.6-0.6,91.2-4.3
		c26.1-10.6,43.6-25,52.5-43.3C1988,313.3,1992.8,283,1991.7,236.1z"/>
	<path class="st0" d="M1575,361.3l7.1,1c18.2,2.6,45.1,5.2,80.6,7.9c18.4,1.2,32.8,1.9,43.3,2.1c9.7,0.3,15.8,0.5,18.3,0.5
		c10.8,0,20.5,0.1,29.2,0.3c8.1,0,18.1-0.2,30-0.7l49.4-3l11.9-0.6c11.9-0.2,23.9-0.6,36.1-1.3c6.2-0.4,14.2-1.7,23.9-4L1575,361.3z
		"/>
	<path class="st0" d="M1942.6,55l-1.6,0l-13.2,0.4L1873.4,326c33.4,5.9,57.3,8.6,71.8,8c22.3-0.7,36.9-2.9,43.9-6.8
		c16.5-7.2,28.2-16,34.8-26.4c6.6-10.4,10.8-18.1,12.6-23.1c2.8-6.6,5.1-13.5,7-20.9c3.9-17.7,5.9-28.1,5.9-31
		c1.8-13.4,2.7-27.5,2.6-42.3c-0.5-27.4-2.3-45.8-5.3-55.2c-3.6-14-9.7-28.3-18.2-42.9l-5.9-6.4c-4.2-4-9.1-7.6-14.5-10.6
		c-5.5-3-11.5-5.5-18.2-7.6C1976.6,57,1960.8,55,1942.6,55z"/>
	<path class="st0" d="M1994.6,112.6l4.6,1.9c12,5,21.8,8.7,29.2,11.1L1994.6,112.6z"/>
	<path class="st0" d="M1983.5,90.8l-29.1,192.9c16.4,2.5,34.1,2,52.9-1.4c10.8-2.3,39.8-12.1,87-29.5c15.3-4.4,28.7-6.9,40.1-7.6
		c18.7-0.4,33.1,0.7,43.1,3.4c34.6,12.9,57.8,20.2,69.7,21.9c16.7,2.9,36.3,2.2,58.7-1.9c15-2.5,27.4-8.1,37.3-16.7
		c4.9-4.3,9.3-9.3,12.9-15.1l5-9.3c3-6.5,5.5-13.9,7.2-21.9c-0.3-26.5-4.4-48.1-12.5-64.9c-4-8.4-9-15.6-15-21.6l-9.7-8.1
		c-6.9-4.8-14.9-8.4-23.8-10.7c-16.5-4.1-30.7-5.1-42.6-3.2c-25.3,3.9-39.1,6.3-41.5,7.1c-20.7,7.9-43,14.5-66.8,19.9
		c-11.4,2.3-26.6,3.3-45.6,3c-8.6-0.1-17.5-0.8-26.5-2.1c-4.3,0.1-18.2-3.1-41.7-9.6C2023.8,109.7,2004,101.4,1983.5,90.8z"/>
	<path class="st2" d="M377.6,80.1l-1,0.2c-20.2,12.4-36.3,29-48.3,49.9c-10.6,17.9-17,38.1-19.3,60.5c-0.2,4.4-0.1,8.7,0.2,13
		l0.7,6.4c0.6,4.3,1.5,8.5,2.6,12.8c2.3,8.5,5.6,16.8,10,25c5.2,8.4,10.8,15.3,16.7,20.5c3,2.6,6,4.9,9.1,6.8c8,4,12.8,5.9,14.6,5.7
		l4.4,5.2c-0.6-2.8-1.1-6.1-1.6-9.8l-0.5-5.8c-0.3-4.1-0.5-8.6-0.6-13.6c-0.2-9.9,0.1-21.5,0.7-34.7c1.2-18,2.3-31.4,3.3-40.1
		c2.6-21.1,5.8-41.7,9.6-61.9l2.1-18.6C381.5,90.1,380.5,82.9,377.6,80.1z"/>
	<path class="st2" d="M120.1,135.7l-0.7,0l-18.4,0.5c-6.7,0.5-13.1,1.6-19.3,3.3l-9.1,2.9c-6,2.2-11.7,4.9-17.2,8.2
		c-5.5,3.3-10.8,7.1-15.8,11.5l-7.4,7c-8.2,8.7-13.5,17.1-15.8,25.2c-2.3,8.1-1.7,15.8,1.9,23.2c2.6,5.7,7,11,13.2,15.9
		c12.8,10.6,29.8,15.7,51,15.3c8.5-0.2,16.7-1,24.7-2.5l73.1-16.1l20.1-3.7c2.2-0.4,11.7-1.5,28.3-3.3c24.6-0.4,37.5-1,38.5-1.8
		c10.1-2.3,15.6-5.8,16.4-10.4c0.3-23.9,2.2-42.5,5.8-55.8l-4.5,4.8c-2.1,0.4-4.2,0.7-6.3,1c-12.3,1.8-24.6,2.1-36.8,0.7
		c-6.1-0.8-11.9-1.7-17.2-2.9l-74.9-19.7C137.9,136.5,127.9,135.4,120.1,135.7z"/>
	<path class="st2" d="M1490.7,30.6l-8.9,0c-24.3,0.1-54.1,0.4-89.5,1.1c-74.7,2.7-145.9,4.8-213.6,6.3c-41.5-0.6-115.8,0-223,1.8
		c-123.1-1.3-211.9-1.4-266.2-0.3c-27.6-0.8-62.6-1.4-104.8-1.9c-1.7-0.2-26.4,0.6-74.3,2.3c-8.9,0.4-17.1,1-24.7,1.8
		c-38.6,5-60.1,12.2-64.2,21.7c-10.4,15.7-16.7,33.6-19.2,53.8l5,7l14.6,0.2c13.1-0.1,24-0.3,32.7-0.8
		c43.3-4.2,155.5-10.9,336.5-20.1c48-1.8,129.5-3.1,244.7-3.8c44.1-0.3,130.7,1.4,259.7,5.1c98.1,0.7,158.1,1.3,180.1,1.8l263.9,7.9
		l128.9,5.3c32.8,0.9,55.3,0.8,67.2-0.5c7.9-1,14-2.9,18.5-5.9c8.2-9.1,11.2-15.7,8.7-19.9c-9-32.4-23.8-50.4-44.3-54.2
		c2.4-0.7-13.8-1.5-48.7-2.2c-33.6-0.6-83.3-0.9-149.2-0.9c-32.7-0.5-100.1-2.2-202.3-5.2C1508.3,30.7,1499,30.6,1490.7,30.6z"/>
	<path class="st2" d="M1369.9,70.7l-927.5,36.4c-24,7.9-35,14-33.1,18.4c2.2,6.4,18.8,9.7,49.9,9.9c21.2,0,46.6-0.3,76.1-1.1
		c120.9-4.4,204-6.9,249.4-7.5c59.5-2.7,133-5.1,220.5-7.4c57.7-3,121-5.4,189.7-7.2l340.8-7.4l26.6-0.2c16.9-0.1,37.1,0,60.4,0.1
		l39-0.3c50.1-0.4,79.7-0.8,88.7-1.2c8.9-1.2,11.9-2.5,9-3.8c-9.1-2.3-22-4.1-38.5-5.1L1369.9,70.7z"/>
	<path class="st2" d="M1444.7,115.8l-9.1,0c-102.7,0.8-227,4.4-372.7,10.7c-40.2,1.8-78.7,3.8-115.2,6c-176,11.9-285.3,19-328,21.4
		c-94.1,4.8-144.4,7.3-151,7.5c-14.7,0.7-30,0.6-45.9-0.3l-23.6,24.3c16,0.8,29.2,1.2,39.5,1.2l117.7-0.6l96.2-3.5l177.9-3.5
		l363.6-4.3c33.2-0.5,54.3-0.9,63.3-1.2c136.1-4.4,296.6-11.4,481.6-21.2l137.3-4c35.4-2.3,60.6-5.3,75.8-8.9
		c19.9-5.5,20.9-8.7,2.8-9.6c-42.4-2.7-78.4-4.7-108-5.9l-29.7-1.1c-31.7-0.9-72.4-2.1-122.1-3.4l-93.2-2.4l-98.4-1
		C1481.7,115.9,1462.1,115.8,1444.7,115.8z"/>
	<path class="st2" d="M1989.9,70.9l-1.1,0c-3,0.1-6.1,0.5-9.4,1.2l-1.2,9.3c9.4,18.9,14.5,38,15.4,57.3c0.6,18,0.3,34.1-1,48.2
		c-0.4,6-3,25.8-7.8,59.5c-0.9,9.9-1.4,16.3-1.4,19.4c0.2,5.4,3.1,8,8.7,7.8c6.5,0,11.9-2.2,16.1-6.6c2.9-4.5,5.1-8.4,6.6-11.6
		c1.7-3.7,3.3-7.6,4.7-11.8l2-6.5l1.8-6.9c1.1-4.8,2.1-9.8,2.8-15.1c1.6-11.8,2.4-18.4,2.4-19.9c1.1-12.6,1.5-27.9,1.3-45.8
		c-0.3-14.6-1.5-27-3.7-37c-2.7-9.3-6.2-18.3-10.5-27c-2.4-4.6-4.4-7.4-6.1-8.4C2004.4,73.3,1997.9,71.2,1989.9,70.9z"/>
	<path class="st2" d="M2284.6,115.7l-3.2,0c-10.4,0.2-19.7,1.4-28,3.7c-3.4,0.8-6.7,1.8-9.8,2.8c-28.4,10.4-44.8,16.1-49.3,17.3
		c-13.4,3.1-25.4,5.2-36,6.5c-24,2.6-43.3,3.2-57.8,1.9c-5.7-0.4-11.2-1-16.6-1.9l-8-1.4c-10.6-2.1-20.6-5-30.2-8.7l0.8,10.1
		c4.2,6.7,8.7,11,13.6,12.9c4.9,2.7,12.3,5.3,22,7.7c7.5,1.6,18.5,3.5,33,5.5l58,7.1c7.5,0.9,16,2.3,25.6,4.1
		c17.6,3.4,44.5,10.7,80.6,22c9.4,2.1,15.6,3.4,18.5,3.7c3.4,0.5,7.2,0.7,11.5,0.8c3.7,0.2,9.1-0.4,16.3-2
		c6.5-1.7,11.4-4.1,14.8-7.1c8.8-7.3,13-16,12.5-26.1l-2.7-10.2c-2.1-6.5-4.9-12.4-8.3-17.6c-3.4-5.3-7.5-9.9-12.2-14
		c-4.7-4-10.1-7.5-16.1-10.3l-9.5-3.8l-10.5-2.8C2291.3,115.8,2288.2,115.7,2284.6,115.7z"/>
	<path class="st2" d="M1918.5,225.2l-1.4,0c-3.9,0-8.4,0.1-13.5,0.2l-135.1,3.8l-94.9,1.1c-61.5-0.7-99.8-1-115-1
		c-99.7,1.8-165.3,3-196.8,3.7l-119.4,1.4c-22,0.5-42.7,1.1-62.1,1.7c-122.2,4.6-194,7.2-215.6,7.9l-126,3.7l-185.5,7.3
		c-22.8,0.3-80.1,1.7-171.9,4.3c-10.7,0.2-31.5-0.6-62.4-2.2l13.3,7.1c-32.3,7.3-47.6,12.1-45.8,14.4c-1.5,1.7-1.3,3.3,0.9,4.7
		c2.1,1.5,6.1,2.9,11.8,4.2c1.4,0,3.2,0,5.4,0c3.8,0,8.5-0.1,14.2-0.3c20.7-1.7,35.5-2.7,44.3-3c11.8-0.6,23.5-0.9,35.2-1.1l46-0.4
		l96.5,2.3l96.8,0.5c16.1-0.6,58.8-1.1,127.9-1.7l99.6-3l53.7-1.3l101,0.5l118.3-2.2c147.1-4.7,231.3-7.8,252.8-9.2l91.9-1.3
		c43,0.2,69.1,0,78.1-0.4l62.3-3.6l47.5-3.9c28.2-4.1,60.4-7.4,96.7-10l35.8-5.2c22.2-3.7,33.7-7.4,34.4-11.1l-0.4-6.9
		C1935.6,225.6,1929.4,225.2,1918.5,225.2z"/>
	<path class="st3" d="M1882.3,295.6l-25.1,0.1c-65,0.4-114.8,0.8-149.5,1.2l-324.7,5.8l-423.5,1.1l-373.1,4.5
		c-21.9,0.3-59.5-1-112.7-4L421.1,336c12.1,15.5,28.9,23.2,50.4,23.1c48.3,2.1,100.9,3.9,157.9,5.4l247.4,4.7
		c22.3,0.4,65.5,0.2,129.6-0.5c114,0.4,211.2,1.4,291.4,3.1c1.1,0.2,40.3,0.2,117.5-0.1c80.6-1.4,164.7-2.2,252.3-2.6
		c10.9-0.1,27.6-0.5,50.2-1.2c42.6-1.6,90.9-6,145-13.2c54.5-7.9,79.3-18,74.3-30.4c1.6-8-3.7-14.6-15.8-19.7
		C1903.1,298.8,1890.1,295.8,1882.3,295.6z"/>
	<path class="st3" d="M2057.8,195.3h-0.3c-2.3,0-4,0.4-5.1,1.1c-1.1,0.3-2.1,1.8-3,4.4c-1.8,17-2.3,32.6-1.5,46.8l3.7-2.8
		c2.1-0.4,4.2-0.9,6.3-1.6c9.2-3.7,23-8.1,41.4-13.3c7.4-2.1,15.7-3.1,24.8-3c7,0.3,17.5,2,31.4,5.3c4.3,0.9,20.3,5.4,48.1,13.6
		c5.3,1.4,12.7,3.1,22,5.1c16.5,3.4,31,5.1,43.5,5c21.6,0,41.1-4.3,58.6-13l6.5-3.5c1.8-1.4,4.6-4.4,8.6-9.1c4-5.2,4.3-8.8,1.1-10.6
		c-0.8-0.2-2,0-3.7,0.4c-7.4,2.7-13,4.5-17,5.4c-5.8,1.3-11.6,2.3-17.7,2.8c-20.2,1.3-41.9,1-64.9-0.7c-15-1.5-37.5-5-67.5-10.4
		c-5.2-0.8-37-7.3-95.3-19.7C2069.5,196.1,2062.9,195.3,2057.8,195.3z"/>
	<path class="st3" d="M2073.6,193.2l-1.5,0c-3.9,0.2-6.9,1.4-8.9,3.4c-3.2,4.7-7.9,14-14,27.8l118.3,1.9c40,8.3,78.9,12,116.7,11.2
		c8.6-0.2,16.1-0.6,22.6-1.1c6.5-0.6,11.9-1.3,16.2-2.3l5.7-1.6c3.3-1.1,5.5-2.5,6.7-4l0.9-2.4l-0.6-2.7c-0.4-0.1-0.9-0.3-1.5-0.4
		c-2.7-0.5-5.4-0.8-8.1-0.8c-27.6,0-49.1-0.4-64.4-1.2c-12.6-0.5-30-2-52.1-4.5c-22-2.6-40.9-5.3-56.5-8.1
		c-11.9-2-34.3-6.6-67.1-13.9C2081.8,193.7,2077.7,193.2,2073.6,193.2z"/>
	<path class="st3" d="M1704.8,191.5l-3.7,0c-39.5,0.1-83.6,0.5-132.3,1.3l-257.8,5.3c-63.4,0.6-136.1,1.4-218.1,2.4
		c-10.3,0.1-61.7,0.3-154.2,0.6c-24.1-0.1-66-0.3-125.7-0.9c-4.6,0-33.7,0-87.4,0c-15.7,0-30.9,0.1-45.8,0.2
		c-48.8,0.7-79.5,1.1-91.9,1.2c-15,0.1-27.9,0.1-38.7,0c-10.6,0-27.2-0.2-49.7-0.5c-5,0-8.9,0-11.6,0.1l-89,13.8
		c13.5,1.2,24.1,1.9,32,2.1c16.7,0.6,31.5,0.8,44.6,0.6c6.7-0.1,11.2-0.3,13.7-0.4l41.1-2.1c4.8-0.2,11.3-0.3,19.6-0.4
		c-0.8-0.1,27.3,0.2,84.2,0.8l42.6,0.1c4.5,0.2,37,0.7,97.3,1.5c58.3,0.5,96.4,0.7,114.3,0.6c50-0.2,118.4-1.2,205.2-2.9l98.1-0.3
		l155.2-1.8c17.3-0.2,46.2-0.3,86.9-0.4c9.6-0.1,39.9-0.5,91.1-1.2l84.1-0.5c45.4-0.7,72.6-1.2,81.5-1.7
		c33.3-1.9,68.5-4.4,105.6-7.6c16.1-1.1,24.5-2.8,25.1-5.2c1.8-1.8-1.8-3.1-10.7-3.8C1791.6,192,1756.3,191.6,1704.8,191.5z"/>
	<path class="st4" d="M1695.5,313.1l-6.9,0c-25.7,0.1-52.9,0.6-81.6,1.6c-48,1.6-89.8,3.2-125.2,4.8l-58.7,1.7
		c-14.1,0.3-45.1,0.5-93.2,0.6l-81.5,2.3c-35.5-0.1-87.1,0.5-154.9,2.1c-96.7,4-178.3,6.7-244.9,8.3c-26.4,0.2-60.2-0.5-101.6-2
		l-98.2-5.2l-138.5,2.1c-7.9-1.4-13.3-2.2-16-2.4c-5.9-0.6-11-0.7-15.3-0.5c-1.8-0.1-5.4,0.5-11,2c-4.1,1.4-7.1,3.5-9.1,6.3
		c-3.9-0.1-1.7,3,6.4,9.1c6.2,4,14.4,6.9,24.6,8.6c5.1,0.9,10.7,1.4,16.9,1.7l12.2,0.3c8.4-0.1,26-0.7,52.8-1.7
		c38.3-2.1,87.2-4.4,146.8-7.2l167.5-3.1l167.9-0.1l6.7,0.1c19.9,0.4,57.2,1.6,111.8,3.8l77.7,1.8c11.9,0.2,27.6,0.2,47.2,0.2
		l23.8-0.2l176.3-5.1c25.5-0.3,66-1.3,121.5-2.9c41.6-0.7,64.9-1.1,69.9-1.3c58.4-2.1,104-4.5,136.8-7.3c29.1-2.3,42.7-4.6,40.9-6.9
		c-2.8-4.7-17-7.7-42.5-8.9c-18.2-1-40.7-1.7-67.5-2.1C1729.3,313.3,1709,313,1695.5,313.1z"/>
	<path class="st4" d="M1824.1,302.3l-4,0c-12.2,0.1-37.9,0.7-76.9,1.9c-46.1-0.4-91.8-0.3-137.1,0.3c-20.1,0.2-48.1,0.9-84,2.1
		c-74.8,4.2-216.1,11.1-424,20.6c-41.4,1.8-119.2,4.2-233.4,7.2l-167.7,9l-186.8,9c16.6,5.6,29.6,8.9,39,9.8
		c11.7,1.7,24.4,2.8,38.1,3.1l403.3,7.9l194.2,0.5c84.8,1.3,151.7,1.7,200.7,1.3c39.6,1,67.7,1.4,84.4,1.3
		c111.1-1.7,205.1-3.7,282.1-6c44.6-1.6,74.7-3.8,90.4-6.5c26.1-5.6,41.5-19.9,46.2-42.9C1886.7,310.1,1865.3,303.9,1824.1,302.3z"
		/>
	<path class="st4" d="M1569.6,313.5l-2,0l-240.1,7.7c-69.8,1.5-139,3.5-207.5,5.9c-8.3,0.3-71.9,1.4-190.7,3.2
		c-36.3,1.4-59.6,2.2-70.1,2.3c-50.8,0.1-95.7-0.3-134.8-1.2c-12.1-0.3-39.8-1.8-83.1-4.4c-8.2,0.2-19.1,0.3-32.5,0.2
		c-15.7-0.1-33.3-0.3-52.6-0.8c-3.4,0-6.6,0.1-9.5,0.3c-58.2,4.1-81.9,13.2-71.3,27.2c6.9,10.1,16.2,16.1,27.8,18.2
		c17.4,3.9,29.1,6,35.1,6.2c13.4,0.4,25.3,0.6,35.7,0.7c20.2-0.3,58.7-3,115.6-8c24.7-1.6,40.8-2.4,48.5-2.5l127.8-0.5
		c22.5,0.2,46.7,0.6,72.7,1.1c18.1,0.3,53.6,1.3,106.4,3c12.4,0.2,29.9-0.1,52.3-1l574.3-55.5C1613.3,314,1579.3,313.3,1569.6,313.5
		z"/>
	<path class="st4" d="M1020.2,342.1l-12.4,0c-21,0.2-33.8,0.5-38.3,0.6c-17.4,0.5-35.4,1.2-53.8,2.1C840,349,771.1,352.9,709,356.7
		c-58.6,3.6-96.8,7.1-114.3,10.5c-12.7,3.3-4.7,5.6,23.8,6.9c23.1,1,50.2,1.7,81.1,2.3c30.2,0.4,70.6,0.5,121.4,0.3l20.5-0.1
		c45.7-1.3,88.7-2.3,129.2-3l105.2-0.9l71.4-1.8c44.9-0.3,78-0.7,99.1-1.2l143-4.2l88.8-5.6l-201.3-0.1
		c-96.5-10-151.2-15.2-164-15.6c-8.9-0.5-20.1-1-33.7-1.3C1069.2,342.4,1049.6,342.2,1020.2,342.1z"/>
	<path class="st4" d="M1224.3,311.8l-1.7,0c-23-0.1-76.5,1-160.4,3.3l-163,2c-20.3,0.4-40,0.8-59,1.4l-28.1,0.9l-157.5,7
		c-35.7,1.2-65.3,2.1-89,2.7c-8,0.3-18.2,1.2-30.6,2.5c-18.2,2.1-28.9,6.1-32.3,12c-1.4,2.1,2.5,5.5,11.8,10.2
		c4.9,2,11.8,3.6,20.6,4.7c8.9,1.1,19.8,1.6,32.6,1.7c10,0.1,35.3,0,76-0.4c92.7,1.1,153.1,1.5,181.1,1.4c7.5,0,15.6,0,24.2-0.1
		l330.3-5.1l25.7-0.6c63.1-1.8,116.1-3.6,159.3-5.2c29.6-1.4,66.8-3.7,111.6-6.9l119.9-28.7c-12.1-0.2-24.4-0.3-36.9-0.3
		c-72,0.2-125.9,0.2-161.5,0l-125.5-2C1249.7,312,1233.9,311.8,1224.3,311.8z"/>
	<path class="st4" d="M2353.2,209.3l-0.2,0c-13.6,13.3-22.9,20.7-27.9,22.3c-8.3,4.1-17.7,6.2-28,6.3c-12.6,0.3-26.8-0.4-42.4-2
		c-14.6-1.9-27.1-3.6-37.4-5.2c-33.4-5.8-56.1-9.6-68-11.2c-16.3-2.4-32.1-4.1-47.3-5.3c-4.9-0.4-11.8-0.7-20.5-0.8
		c-5.9,0-10.2,0.2-13,0.6c-5.6,0.6-10.5,2.3-14.9,5.3c-2,1.6-3.4,3.5-4.2,5.9c-2.1,4.8-5.6,14.5-10.5,29.1l3.7,1.6
		c11.3-5.6,25.6-10.7,42.8-15.6c12.5-2.9,23.6-4.2,33.3-3.9c11.5,0.3,25,1.5,40.3,3.7l77.8,13.5c1.3,0.3,5.3,0.8,11.9,1.6
		c15.2,2.2,29.1,2.7,41.5,1.6c20.4-1.4,35.7-5.9,45.8-13.4C2351.2,229.3,2356.9,218,2353.2,209.3z"/>
	<path class="st4" d="M297.4,152.4l-2.1,0.8c-5.7,4.4-12.3,26.4-19.9,66.1c-2.7,3.8-7.5,6.7-14.6,8.8c-0.9,0.5-5,1.3-12.3,2.4
		l19.8-13.7c-45.7,10-83.6,19.4-113.6,28c-22.3,4.5-38,6.6-47.1,6c-19,0.1-33.1-1-42.4-3.4c-9-1.3-22.8-6.4-41.4-15.3
		c-1.5-0.5-2.6-0.4-3.3,0.1c0.8,2.5,1.9,4.9,3.4,7.3c4.4,6,7.4,9.6,9.1,10.8c5.1,4.7,11.7,9.4,19.6,14c7,4,18.2,8.5,33.7,13.4
		c8.3,2.4,17.4,4,27.3,4.8c7.8,0.3,18.4-1.1,31.6-4.2c7.5-1.8,17-4.4,28.7-7.7c38.7-13.2,61.1-20.5,67-22c1.4-0.3,1.9-0.4,1.5-0.1
		c2.8-0.9,7.1-1.9,12.8-2.9l29.9-4.5c4.1-1.6,6.7-5.5,7.8-11.6c-1.1-21.3-1.5-33.3-1.2-36.1L297.4,152.4z"/>
	<path class="st4" d="M376.9,187.7L376.9,187.7c-0.4-0.1-0.7,0.2-0.8,0.9c-0.4,2.8-0.8,5.7-1.1,8.6l-3.3,49.9
		c-0.3,3.5-0.8,8.5-1.7,15.2c-0.6,4.4-1.3,7.8-2.1,10.3c-0.5,2.1-1.7,4.1-3.7,5.9c-1.3,1-3.2,1.2-5.5,0.5c-2.8-0.8-6.4-2.7-10.7-5.9
		c-10.3-7.7-17.7-13.5-22.2-17.4c-1.8-1.4-4.8-4.3-9.2-8.9l-8.3-10.9l-0.1,1.7c0,4.8,2.6,12.8,7.9,24c4.7,8.4,9.9,15.2,15.7,20.5
		c7.6,6.7,14,11.4,19.4,14c15.9,7,25.3,10,28.3,8.9c1.9-0.8,2.8-2.5,2.6-5.1l-3.8-96.5C377.6,194.1,377.2,188.9,376.9,187.7z"/>
	<path class="st4" d="M1979.6,115l-1.9,83.9l-2.1,63.3l-0.5,6.3c-1,15.4-2.8,27.3-5.5,35.8c-1.5,5.6-5.2,12.4-11.1,20.3
		c-4.4,5.5-13.5,15-27.2,28.3c3.9,1,13.4-3.3,28.6-12.9c26.4-23.1,39.9-34.3,40.3-33.5c4.2-3.8,8.1-8.1,11.6-12.8
		c5.9-8.5,9.7-15.1,11.4-19.7c-16.3,11-25.8,16.6-28.3,16.6c-5.2,0.8-8.5-1.7-10-7.6c-0.8-2.4-1-7.5-0.8-15.2l5.1-86.5
		C1987.9,166,1984.7,143.9,1979.6,115z"/>
	<path class="st5" d="M1543.9,53h-2.5c-12.7-0.2-118,0.8-315.9,2.8c-28.4,0.5-53.9,0.9-76.6,1.3c-30.1,0.9-77.4,2-141.8,3.4
		c-36.3,0.8-71.5,1.4-105.5,1.9c-25.2,0.6-49.3,1.2-72.3,1.9c-37,0.9-87.2,3.1-150.5,6.6c-17.2,1.1-33.2,2.2-48.1,3.4
		c-17.8,1.9-29.8,3.7-35.8,5.4c-7.9,1.3-6.3,3.3,4.6,6c12.5,1.4,34,2.5,64.5,3.5c9,0.4,22.9,0.6,41.5,0.8
		c52.4,0.2,94.8,0.6,127.1,1.1c85.1,2.6,139.2,4.1,162.1,4.6c160.7,3,267.1,5.3,319.2,7c6.3,0.2,19.8,0.3,40.5,0.3
		c128-0.4,218.4-2,271-4.7c62-3,114.4-6,157.4-9.1c40.7-3.7,62.9-6,66.6-6.8c11.4-1.5,19.5-3,24.5-4.4c6.5-0.8,6.8-2.7,0.8-5.7
		l-86.8-12.6c-4.7,0.2-9.1,0.1-13.1-0.1c-34.9-2.8-58.9-4.4-72.1-4.7C1617.7,53.5,1564.8,52.8,1543.9,53z"/>
	<path class="st5" d="M1353.7,127.7l-12.3,0c-59.7,0.3-115.4,1.5-167.1,3.6c-2.5,0.1-8.7,0.4-18.3,0.9
		c-62.8,3.6-117.2,6.5-163.2,8.9c-50.6,3-80.8,4.9-90.4,5.8c-15.7,1.1-28.5,2.5-38.6,4.1c-4.1,1.3-4.6,3-1.5,5.1
		c1.4,0.8,11.8,1.8,31.1,3c7.4,0.4,21.3,0.7,41.8,0.7c7.9,0,25-0.2,51.1-0.5c40.3-0.6,98.4-1.5,174.3-2.6
		c46.9-0.4,88.9-0.9,125.9-1.4c57.7-1,97.4-1.7,119.3-2.1c68.1-1.3,123.9-3.3,167.3-6c17.1-1.4,25.8-2.9,26.1-4.5
		c3.9-2.3,1.1-4.2-8.3-5.5c-8.5-0.6-20.2-0.4-35.1,0.6l-139.1-9.1C1394.6,128,1373.7,127.7,1353.7,127.7z"/>
	<path class="st5" d="M1350.3,227.8l-3.6,0c-9.9,0-21,0.1-33.4,0.4l-97.9,2.5c-50.7,0.6-89.2,1.2-115.5,1.8
		c-13.7,0.3-29.6,0.7-47.6,1.3c-47,1.6-100.3,4.6-159.7,9.1c-17.4,2.1-24.8,3.6-22.2,4.4c-0.5,1.1,4.5,2.2,15.1,3.3
		c3.7,0.2,9.5,0.3,17.3,0.4l59.9,0l82.8,1.1c5.5,0,12.1,0,19.9,0c60.3-0.1,114.3-0.7,161.9-1.8c38.9-1,61.5-1.7,67.8-2.1
		c14.1-0.6,27.6-1.2,40.5-1.8l276.9-7.7c-6.6,0-11.4-0.1-14.3-0.3c-46.3-4.2-76.8-6.6-91.5-7.2c-23.3-0.9-43.8-1.6-61.4-1.9
		C1399.5,228.4,1367.8,227.9,1350.3,227.8z"/>
	<path class="st5" d="M1993.1,69.1l-0.3,0c-3.5,0.1-6.4,0.7-8.7,1.8c-0.8,0.1-2.1,1.2-3.8,3.3c-0.6,0.9-1,2-1.2,3.1l-0.4,3.2
		c-0.3,0.9,0.1,5.2,1.3,12.8c2,10.7,3.4,16.8,4,18.5c1.2,4.7,4.3,14.8,9.4,30.3c1.3,4.3,2.2,7.9,2.8,10.7c1.3,6,2,13.6,2.1,22.9
		l14.5,14.1c1.8-3,3.4-7.1,4.9-12.4c3.6-12.1,6-21,7.1-26.5c0.9-7.2,1.3-14,1-20.2c-0.4-6.3-1-12.1-1.8-17.5
		c-0.8-5.3-1.7-10.1-2.9-14.5c-1.2-4.3-2.5-8.2-4-11.5l-2.4-4.6c-1.7-2.8-3.6-5.2-5.7-7c-2.5-2.2-4-3.4-4.6-3.6
		C2000.9,70.1,1997.2,69.1,1993.1,69.1z"/>
	<path class="st5" d="M2285.4,125.1l-2.9,0.1c-7.4,0.2-17.4,1.9-29.9,5c-2.7,0.7-7.5,2.4-14.5,5.1c-7,2.8-16.1,6.6-27.5,11.4
		l-5.5,1.8c-8.4,2.8-18.7,5.1-30.7,6.8c-10.5,1.2-19,1.7-25.4,1.3c-6.4-0.3-11.3-0.7-14.7-1.2l-55.1-3.3c34.9,8,65.2,14.3,90.9,18.7
		c7.2,1.3,26.4,4.1,57.5,8.4c2.4,0.3,16.4,3,42.2,7.9c7.5,1,14.8,1.5,21.8,1.4c8.1-0.2,15.8-0.9,23-2.3l6.3-1.7
		c3.9-1.3,7.2-3,9.8-5.1l3.5-3.4c2.1-2.5,3.5-5.3,4.3-8.5c0.8-3.2,1-6.8,0.6-10.8c-1.7-4.4-3.8-8.3-6.3-11.8
		c-2.5-3.5-5.5-6.5-8.8-9.1l-5.3-3.5c-3.8-2.1-8-3.7-12.6-4.9l-7.2-1.4C2291.5,125.4,2287,125,2285.4,125.1z"/>
	<path class="st5" d="M377.5,80.9l-1.2,0.2c-1.9,0.6-4.7,2.3-8.5,5.3c-3.2,2.4-8.6,7-16.1,13.9c-2.7,2.2-7.9,8.8-15.7,19.7
		c-5.9,8.7-11.1,17.6-15.6,26.7c-2.5,6.7-4.4,13.8-5.6,21.4c-0.3,1.3-0.4,4-0.2,8.1c0.2,1.5,0.5,2.7,1,3.8l-2.3,9.8
		c0.3,5.9,1.1,8.5,2.2,7.8c0.1,0,0.3-0.3,0.6-0.6c3.6-11.3,6.6-20.2,9-26.8c2.4-6.6,4.3-10.9,5.6-12.9c9.4-14.6,16.6-20.9,21.5-18.8
		c1.7,0.7,3.1,4.9,4.3,12.6c0.4,2.9,0.8,6.4,1.1,10.5c0.8,17.4,1.3,28,1.7,31.7c0.4,3.9,0.9,5.8,1.6,5.8c0.3-0.1,0.6-0.5,0.9-1.4
		l18-93.9c1-10.6,1.3-16.7,0.8-18.1c-0.2-1.5-0.4-2.7-0.8-3.5C379.7,81.7,378.9,81.2,377.5,80.9z"/>
	<path class="st5" d="M1074.4,64.1l-2.2,0l-20.2,0.1l-70.2,1c-23.4,0.3-43.1,0.7-59.1,1.1L736.8,74c-55.1,1.8-96,3.2-122.9,4.2
		c-24.5,1.1-43.5,2.1-57.1,3c-26.4,1.7-43.7,3-52,3.9c-1.7,0.5-2.1,1-1.3,1.5c-1.2,0.3,2.9,0.9,12.1,1.9c6.8,0.7,23.3,1.4,49.4,2.1
		c22.8,0.5,54.5,1.1,95,1.8c41.8,1.2,74.9,2.1,99.1,2.5c8.4,0.2,35.7,0.5,81.7,0.9c23,0.6,37.9,1,44.7,1.1
		c10.1,0.2,18.7,0.3,25.9,0.4l195-32.1c0.9-0.3-2.5-0.6-10.3-0.9C1090.8,64.2,1083.6,64.1,1074.4,64.1z"/>
	<path class="st5" d="M647.1,73l-9.5,0c-26,0.2-56.6,1-91.9,2.4c-29.7,1.5-51,2.8-63.9,4c-3.3,0.2-7.7,0.8-13,1.7
		c-0.2,0.6,0.3,1.1,1.6,1.6c1.3,0.5,3.4,1,6.2,1.4c2.8,0.4,6.5,0.8,10.8,1.2l7.2,0.5c5.2,0.3,11.1,0.6,17.8,0.9l41,0.6
		c31,1.1,49.8,1.8,56.6,1.9l52.5,0.5c7.5,0.1,28.5,0.5,62.9,1.2c34.7,0.3,65,0.7,90.8,1.1c65.4,1.2,113.8,2.5,145.2,4l63-13.5
		c-0.4-0.4-2.9-0.8-7.3-1.1c-9.3-0.6-18.1-1.1-26.4-1.3c-3.6,0-21.2-0.4-52.9-1.3l-35.7-0.6l-156.2-4.4
		C733.4,73.5,700.6,73.3,647.1,73z"/>
	<path class="st6" d="M2282.3,129.4l-0.6,0c-2.4-0.2-6.2,0.4-11.2,1.8c-4,1.1-7,2.4-9.2,3.9c-1.1,0.8-2,1.6-2.7,2.5
		c-1.4,2.3-2,3.7-1.8,4.2c-0.3,1.9,0.2,3.9,1.5,5.9c3.6,5.2,10,9.1,19.1,11.9c2.9,0.9,6,1.6,9.3,2.1l5.1,0.6l5.5,0.4l7.3,0.1
		c4,0,8.2-0.3,12.6-0.6l17.9-2.3c-0.2-1.7-0.7-3.4-1.5-5.1l-1.4-2.5l-1.8-2.5c-1.4-1.7-3-3.3-5-5c-4.7-3.8-8.9-6.6-12.6-8.3
		C2303.5,132.1,2293.4,129.8,2282.3,129.4z"/>
	<path class="st6" d="M1685.3,54.5l-0.4,0c-34.4,1.2-59.3,1.8-74.9,1.9c-20.2,0.1-31.7,0.2-34.5,0.1c-16.5,0-43.1-0.3-79.8-0.7
		c-9,0-18.4,0-28.3,0.1c-32.4,0.4-77.2,1.1-134.5,2.1c-46.1,0.4-88.1,0.9-126,1.5c-67.8,0.3-130.8,0.9-189,1.7l-39.6,1l-67.2,2
		l-16.6,0.8c-21.3,1.2-39.6,2.5-54.9,4c-4.8,0.3-14.5,1.6-29.3,3.8c-19.2,3.6-17.8,6.7,4.2,9.2c12.8,0.9,33.3,2.1,61.5,3.4
		c3.4-0.1,35.6,1.1,96.7,3.6c45,1,95.8,1.7,152.3,2c30.9,0.3,77.4,0.3,139.7,0.2c1,0.1,10.3,0.2,28,0.3c8.6,0.1,43.6,0.2,105.2,0.5
		c21.8,0,45,0,69.7,0c75.2-0.4,134.9-1.8,179.1-4.1c84.7-5.4,146.3-11,184.6-16.9l-134.4-15.9C1692.6,54.7,1688.8,54.5,1685.3,54.5z
		"/>
	<path class="st7" d="M1982.9,69.4l-1.1,0c-2.8,0.2-4.5,1-5.1,2.6c-0.9,4.9-0.5,12.6,1.3,23.1c0,1.4,1,5.4,2.8,12.2
		c3.9,10.4,8.9,25.4,14.8,45.2l-9.1-56.7c3.9,5.6,7.2,12.5,9.9,20.6l1.9,6l1.5,5.4c2.4,10.4,4,17.7,4.8,21.9c0.3,1.3,0.6,1.9,0.8,2
		c0.3,0.1,0.5-0.3,0.6-1.2c-1-18.8-1.2-29.6-0.9-32.3c0.2-4.2,0.9-8,2.3-11.3c1.4-2.2,3.2-1.8,5.2,1.3c2,3,3.6,6.1,5,9.3
		c2.9,8,5.2,13.5,6.8,16.7c0.6,1.4,1.3,2.1,2,2.2c0.4,0.1,0.8-0.2,0.9-1.1c0.1-0.6,0.3-3.5,0.7-8.9c0.1-4-0.2-8.9-1-14.9
		c-1-5.9-2.7-11.3-5.2-16.3c-1.2-2.5-2.6-4.9-4.2-7.2l-2.5-3.3c-1.7-2.2-3.7-4.2-5.8-6.2C2001.4,72.8,1992.5,69.7,1982.9,69.4
		L1982.9,69.4z M1995.7,152.6L1995.7,152.6l1.9,12.1l0-1l-0.1-1.1l-0.1-1.2l-0.2-1.3l-0.2-1.3l-0.3-1.4l-0.3-1.5l-0.4-1.6
		L1995.7,152.6L1995.7,152.6z"/>
	<path class="st6" d="M121,151.1l-5.4,0.1c-14.4,0.4-27.8,2.6-40.2,6.4c-2.6,0.6-8.3,3.2-16.9,7.8c-6.4,3.8-11.2,8-14.5,12.7
		c-5.2,8.1-5.7,16-1.3,23.6c4.5,6.8,12.2,10.8,23.1,12c5.3-0.1,11.9-1.4,19.8-3.7c5.8-1.7,21.1-7.8,45.8-18.2
		c9.1-3.1,17.4-5.5,24.7-7.3c7.3-1.8,15.8-2.9,25.5-3.5c5.4-0.4,11.7-0.7,18.8-1c2.5-0.2,15.1-0.6,37.8-1l7.9-2.8
		c-15.3-2.5-26.7-4.6-34.1-6.4l-46.5-13l-9.5-2.1C145,152.2,133.4,151,121,151.1z"/>
	<path class="st6" d="M366.1,90.2l-0.7,0.1c-2.8,0.2-7.3,3.5-13.5,9.8c-0.9,0.8-4,4.1-9.1,10c-4.2,4.9-8.5,10.5-13.1,16.6
		c-1.3,1.8-2.7,4.7-4.2,8.7c-0.3,0.7-1.5,4.3-3.4,10.9l-2.4,9.3l32.7-27c8.2-2.5,14-6.2,17.2-11.1c1.1-1.6,1.9-3.4,2.4-5.2l0.6-2.9
		c0.3-4.1,0.2-7.6-0.2-10.4C371.3,93.4,369.2,90.5,366.1,90.2z"/>
	<path class="st6" d="M484.2,43.9l-0.3,0c-0.3-0.3-8.3,0.6-24.1,2.6l-22.3,2.9l-5.6,1.2c-9.2,2.4-16.2,5.9-20.9,10.6
		c-2.5,2.2-5.9,8.6-10.2,19.1c-1.3,2.8-3.6,12.3-7.1,28.6l1.3,30.6c2.1-5.1,4.2-10,6.5-14.7c1-2.6,4.7-9.1,11-19.5
		c4.7-7.5,10.8-15.2,18.3-23c3.2-3.5,9.9-8.8,20.1-15.8c1-0.9,12.5-7.3,34.5-19.3C488.6,44.9,488.3,43.8,484.2,43.9z"/>
	<path class="st7" d="M557.6,34.4l-4.3,0c-32.3-0.2-58.8,1.2-79.4,4.2c-18.2,2.7-36.8,5.9-55.8,9.7c-4.2,1.1-7.6,3.3-10.4,6.6
		c-2.1,2.2-3.2,8.9-3.2,20.2c-2.8,3.7-4.9,8.4-6.1,14c-2.2,13.3-3.4,24.5-3.8,33.7c-0.5,87.5,0.2,145.5,2,174
		c2.2-77.7,4.8-133.7,7.6-168c2.6-17.7,7.5-31.9,14.6-42.6c3.8-4,7.1-6.7,9.9-8.1c36.3-18.5,55.6-27.6,57.7-27.3l25.3-3.6l91.8-7.9
		C603.1,35.8,587.7,34.2,557.6,34.4L557.6,34.4z M396.8,297.2L396.8,297.2l0,0.2l0,0.1c0,0.1,0,0.2,0,0.3c0,0.1,0,0.2,0,0.2
		c0,0.2,0,0.3,0,0.4C396.9,298.4,396.8,298,396.8,297.2L396.8,297.2z"/>
</g>
</svg>
