<?xml version="1.0" encoding="utf-8"?>
<!-- Generator: Adobe Illustrator 25.0.0, SVG Export Plug-In . SVG Version: 6.00 Build 0)  -->
<svg version="1.1"
	 id="svg2" inkscape:version="0.48+devel r9935" sodipodi:docname="Documento nuevo 1" xmlns:cc="http://creativecommons.org/ns#" xmlns:dc="http://purl.org/dc/elements/1.1/" xmlns:inkscape="http://www.inkscape.org/namespaces/inkscape" xmlns:ns1="http://sozi.baierouge.fr" xmlns:rdf="http://www.w3.org/1999/02/22-rdf-syntax-ns#" xmlns:sodipodi="http://sodipodi.sourceforge.net/DTD/sodipodi-0.dtd" xmlns:svg="http://www.w3.org/2000/svg"
	 xmlns="http://www.w3.org/2000/svg" xmlns:xlink="http://www.w3.org/1999/xlink" x="0px" y="0px" viewBox="0 0 657.2 463.6"
	 style="enable-background:new 0 0 657.2 463.6;" xml:space="preserve">
<style type="text/css">
	.st0{opacity:0.9961;fill-rule:evenodd;clip-rule:evenodd;fill:#F1BD62;}
	.st1{opacity:0.9961;fill-rule:evenodd;clip-rule:evenodd;fill:#DF8A2D;}
	.st2{opacity:0.9961;fill-rule:evenodd;clip-rule:evenodd;fill:#661E0B;}
	.st3{opacity:0.9961;fill-rule:evenodd;clip-rule:evenodd;fill:#E7BCA4;}
	.st4{opacity:0.9961;fill-rule:evenodd;clip-rule:evenodd;fill:#F2B35B;}
	.st5{opacity:0.9961;fill-rule:evenodd;clip-rule:evenodd;fill:#F5C96E;}
	.st6{opacity:0.9961;fill-rule:evenodd;clip-rule:evenodd;fill:#FFEFA7;}
	.st7{opacity:0.9961;fill-rule:evenodd;clip-rule:evenodd;fill:#DF8A2C;}
	.st8{opacity:0.9961;fill-rule:evenodd;clip-rule:evenodd;fill:#DF8A2B;}
	.st9{opacity:0.9961;fill-rule:evenodd;clip-rule:evenodd;fill:#661E0A;}
	.st10{fill-rule:evenodd;clip-rule:evenodd;fill:#661E0A;}
	.st11{opacity:0.9961;fill-rule:evenodd;clip-rule:evenodd;fill:#DF892B;}
	.st12{fill-rule:evenodd;clip-rule:evenodd;fill:#DF892B;}
	.st13{opacity:0.9961;fill-rule:evenodd;clip-rule:evenodd;fill:#F2B35A;}
	.st14{opacity:0.9961;fill-rule:evenodd;clip-rule:evenodd;fill:#F19F42;}
	.st15{fill-rule:evenodd;clip-rule:evenodd;fill:#F1AA57;}
	.st16{opacity:0.9961;fill-rule:evenodd;clip-rule:evenodd;fill:#CD7320;}
	.st17{fill-rule:evenodd;clip-rule:evenodd;fill:#CD7320;}
	.st18{opacity:0.9961;fill-rule:evenodd;clip-rule:evenodd;fill:#F3AF54;}
	.st19{opacity:0.9961;fill-rule:evenodd;clip-rule:evenodd;fill:#FFEFA6;}
	.st20{opacity:0.9961;fill-rule:evenodd;clip-rule:evenodd;fill:#AF5A0D;}
	.st21{fill-rule:evenodd;clip-rule:evenodd;fill:#AF5A0D;}
	.st22{opacity:0.9961;fill-rule:evenodd;clip-rule:evenodd;fill:#F7D991;}
	.st23{fill-rule:evenodd;clip-rule:evenodd;fill:#F7D991;}
	.st24{opacity:0.9961;fill-rule:evenodd;clip-rule:evenodd;fill:#F1BD61;}
	.st25{fill-rule:evenodd;clip-rule:evenodd;fill:#F1BD61;}
	.st26{opacity:0.9961;fill-rule:evenodd;clip-rule:evenodd;fill:#AF5A0C;}
	.st27{fill-rule:evenodd;clip-rule:evenodd;fill:#AF5A0C;}
</style>
<sodipodi:namedview  bordercolor="#666666" borderopacity="1.0" id="base" inkscape:current-layer="layer1" inkscape:cx="273.52498" inkscape:cy="614.84559" inkscape:document-units="px" inkscape:pageopacity="0.0" inkscape:pageshadow="2" inkscape:window-height="787" inkscape:window-maximized="0" inkscape:window-width="1440" inkscape:window-x="0" inkscape:window-y="0" inkscape:zoom="0.42014768" pagecolor="#ffffff" showgrid="false">
	</sodipodi:namedview>
<g>
	<path class="st0" d="M84.3,28.7C130.3,9.9,172.2,0.3,210,0c65.8,0.1,121.3,8.1,166.5,23.9l120,46.2l86.7,48.6
		c10.1,6.1,16.5,10.3,19.3,12.4c32.7,33.6,50.1,67.5,52.1,101.7c3.5,13-4.9,38.5-25.2,76.4c-3.5,8.7-11,14.8-22.8,18.3
		c-66.7,10.9-120,16.1-159.8,15.6c-62.5,1.2-108.1-3.7-136.8-14.9c-88.2-31.6-139.6-52.1-154-61.6c-21.6-11.1-41.5-29.1-59.9-53.9
		c-34-42.8-50.1-78.7-48.3-107.8c-3-34,9.3-56.9,37-68.7L84.3,28.7z"/>
	<path class="st0" d="M67.1,93.1c-14.8-5-34.2,18.4-58.3,70.4c-7.1,41-3.9,68.9,9.7,83.7c3.1,8,18.3,21.9,45.5,41.6
		c9.7,9.8,18.2,21.7,25.3,35.5c4.4,5.6,8.5,9.7,12.2,12.2l36.7,17.6c16.9,16,28.2,25.4,33.7,28.2l34.5,14.7
		c15.7,14.9,26.5,24,32.7,27.3c0.3,2,13.9,4.9,40.9,8.7l23.9,9.1c7.6,1.8,20.3,0.6,38-3.7c30,10.3,55,12.8,75,7.6
		c17.3,8.6,29.8,12,37.6,10.3c8.6-0.3,20-4.5,34.1-12.6c17.9,1.2,28.4,0.8,31.3-1l31.9-20.5c22.5-1.2,34.9-3.7,37.3-7.7
		c19.6-15.3,34.9-49.2,45.9-101.8c11.2-44.1,6.5-72.7-14.2-85.8L67.1,93.1z"/>
	<path class="st0" d="M22.4,244.9c11.9,9.1,20.7,17.9,26.5,26.3c3.4,3.4,9.8,17.7,19.1,42.8c2.8,5.2,6.2,9.8,10.3,13.6
		c4,4.2,10.5,8.3,19.6,12.2c1,0.9,12.1,4.8,33.4,11.9c3.6,1.4,6.4,2.8,8.3,4.1c2.2,1.4,3.8,2.8,5.1,4.4c6,10,9.8,15.5,11.6,16.6
		c3.6,3.6,7.8,6.5,12.9,8.6c3.9,1.7,8.7,3.2,14.5,4.4l34.4,4.7l21,4.7c6.1,0.9,11,0.8,14.5-0.1c18-5.1,30.2-17.8,36.4-37.9
		L22.4,244.9z"/>
	<path class="st0" d="M113.3,321.4c7,38.2,27.8,62.4,62.4,72.6c23.5,5.7,45,6.7,64.7,2.9c19-3.1,34.9-10.8,47.5-23L113.3,321.4z"/>
	<path class="st1" d="M81.7,55.3c-23.1,29.8-16.1,59.6,20.8,89.3c88.1,53.3,170,91.6,245.7,114.9c87.1,21.8,159.6,29,217.4,21.6
		c48.6-6.1,77.8-26.6,87.6-61.4c11.8,29.6-5.3,53.4-51.2,71.6c-46.2,10.9-111.3,9.7-195.2-3.4c-27.4-3.7-55.2-9.4-83.5-16.8
		c-54.2-14.8-98.5-28.7-133.1-41.7c-46.1-17.5-90.2-48.6-132.5-93.4c-19.2-28.8-19.9-53.6-2.3-74.4L81.7,55.3z"/>
	<path class="st1" d="M142.7,188.2c-1.4,9.7-1.1,19,1.1,27.9c0.9,5.2,3.7,10.6,8.5,16.2c3.3,3.6,7.1,6.6,11.5,9.1
		c6.8,3.8,10.7,5.2,11.7,4.2c0.5-0.5,0.3-2-0.6-4.4c-2.1-4.6-4.6-9.4-7.6-14.6c-0.6-1.3-1-2.3-1.2-3.2c-0.9-3-0.8-6,0.3-9
		L142.7,188.2z"/>
	<path class="st1" d="M171.6,214.8c19.4,4.3,31.7,8,36.8,10.9c2.3,1.5,4.3,3.7,5.9,6.7c4,11.5,6.8,18.1,8.3,19.6
		c2.9,4.7,5.9,8.5,9,11.5c9.7,9.6,22.6,16.5,39,20.8c8.3,2.5,11.7,2.9,10.1,1c-0.3-0.9-0.9-1.9-1.8-3.2
		c-6.8-8.1-13.6-15.8-20.3-23.1c-1.2-1.4-2.3-3.1-3.4-5.1c-2.8-4.7-2.7-9.2,0.3-13.3L171.6,214.8z"/>
	<path class="st1" d="M336.3,261.8c-4.7,5.5-7.7,10.8-8.9,16.1c-1.8,5.4-1.6,10.4,0.6,15c4.3,10.4,16.3,21.8,35.8,34.2
		c0.9,0.1,0.7-1-0.5-3.5c-7.2-9.1-12.4-17.3-15.5-24.5c-2.9-6.2-4.3-11-4.1-14.5c0.5-8.5,9-12.5,25.6-11.9L336.3,261.8z"/>
	<path class="st2" d="M37.6,135.8c16.2,28.8,39.8,54.7,70.9,77.5c46.3,30.9,94.4,54.6,144.1,70.9c83.7,26.3,135.3,39,154.6,38.3
		c23.6,3.8,51.9,5.7,84.9,5.6l123-10c10.6-0.2,16.2,2.9,16.8,9.2c4.3,24.4-40,38.9-132.9,43.5c-31.7,1.3-69.6-0.2-113.6-4.5
		c-57-8.2-99.2-17.8-126.7-28.6c-63.9-19.6-124.3-53.9-181.1-103c-26.8-25.1-48.6-52.5-65.5-82.1c-1.8-16.6,6.1-26.1,23.7-28.4
		L37.6,135.8z"/>
	<path class="st3" d="M357.6,321.6c16.4,5.2,30.7,8.3,42.9,9.4c12.1,1.1,35.7,2.3,70.6,3.7c4.5,0.3,8.1,0.7,10.7,1.1
		c5.1,1.3,6.5,3,4.2,5c-4.2,1.2-10.5,1.9-18.8,2c-2.5,0.2-10.1-0.1-22.7-1.1l-40.2-4c-13.7-2-26.2-4.6-37.5-7.9
		c-3.1-0.9-7.4-2.3-13-4.4c-1.4-0.4-6-2.4-13.7-5.9c-1.6-0.7-3.9-1.4-7-2.3L357.6,321.6z"/>
	<path class="st3" d="M513.3,339.5c1.2,0.5,9.2-0.1,23.9-1.7c24.4-4.4,37.4-6.6,39-6.3c10.2-0.9,18.3-1.4,24.3-1.3
		c4.5,0.1,5.1,0.9,1.9,2.3c-12.8,4.1-22.9,6.4-30.5,7.1c-23.1,3-45.8,3.3-68,0.9L513.3,339.5z"/>
	<path class="st3" d="M57.8,183.7c15.9,20.4,42.5,41.4,79.9,63.1c21.3,12.5,40.1,22.5,56.3,30.1c15.4,7.4,40.4,17.2,74.9,29.5
		c4,1.6,7.2,3.4,9.6,5.2c7.3,7.3,2.8,9.6-13.4,6.9c-17.9-3.3-36.9-9.6-57.1-18.8c-10.6-4.8-21.2-10.8-32-18
		c-37.7-27.6-57.4-41.7-59.1-42.5c-5.7-3.8-16-9.5-31-17c-4.5-2.6-8.6-5.2-12.3-8c-7.8-5.9-16.8-14.6-26.9-26.1
		c-3.8-4.5-5.5-8.4-5-11.9L57.8,183.7z"/>
	<path class="st4" d="M283.7,225.2c-18.5-0.8-40.5-5.4-66-14c-8.8-2.4-32.8-14.6-71.9-36.6c-53.7-29.3-83.9-56.6-90.4-82
		c-1.4-25,19-43.8,61.2-56.3c50.8-15,96.9-16.7,138.2-5c1.2,0.7,0.9,1.2-1,1.6c-20.1,1.9-35.5,4.1-46.3,6.7
		c-13.5,3.3-24.9,6.9-34.4,10.8c-27.5,11.5-39.4,20.7-35.5,27.7c2.5,5.5,10.6,10.8,24.1,16l113.8,36.8l21.1,7.3
		c2,0.7,2.9,1.5,2.5,2.3c0.8,0.9-3.1,0.9-11.9-0.1l-85.3-11.4c-8.2-0.8-16-0.8-23.4-0.1c-24.7,2.5-33.2,11.1-25.5,25.9
		c13.2,21.4,39.9,41.3,80.1,59.8c22.7,14.7,68.2,30.9,136.4,48.6L283.7,225.2z"/>
	<path class="st4" d="M80.9,96.4C63,94,54.8,86.4,56.2,73.4c-0.1-12.1,9.2-23.8,28-35.1c25.7-14.9,68.5-21.3,128.3-19.1
		c-33.8,5-61.3,16.3-82.4,34c-19,15.2-23.1,30.6-12.2,46.3L80.9,96.4z"/>
	<path class="st5" d="M262.2,31.7c-22.7-5.6-48.5-2.7-77.4,8.5c-29.2,13.5-41,26.8-35.5,39.9c10.6,23.2,64,44.4,159.9,63.7
		c-28-3.6-62.2-17-102.6-40.1C185,88.3,182,75.7,197.6,66c11-5.1,27.4-7.7,49.3-7.8c16.3,0,36.2,0.9,59.9,2.8
		c68.8,7.4,103,10.8,102.5,10c13.8,0.5,25.4,0.2,34.8-1c3.7-0.5,3.9-2.3,0.6-5.2C400,46.8,342,32.4,270.5,21.9
		c-60.8-5.9-93.2-7.6-97-5.2c-13.4,1.1-22.8,3.4-28.3,7.1c-2.8,2.9,3.5,5.2,19,7L262.2,31.7z"/>
	<path class="st5" d="M559.2,124.6c-25.9-19.8-76.6-43.7-152.1-71.7c-38.8-13-73-17.9-102.6-14.8c-14.4,2.2-16.6,6.8-6.8,13.8
		c4.1,2.4,9,4.7,14.7,6.9c44.7,15.6,68.2,24.2,70.4,25.9c17.7,7.5,29.3,13.8,34.9,19c3,3.7,3.5,6.4,1.5,8.1l-31.1,15.5
		c-3.9,2.4-5,5.5-3.1,9.2c0.7,2.6,5.9,7.1,15.7,13.5c40.5,22.7,63.9,37,70.3,43c14.2,12.2,18.8,21.6,13.7,28.1
		c-14.7,14.1-60.3,16.6-136.7,7.5c-21.6-3-43.8-8-66.8-15c-22.7-7.2-51.6-18.7-86.9-34.5c-6.5-2.4-9.1-2.8-7.7-1.1
		c43.1,32.5,104.3,59.9,183.5,82c43.2,12.8,93.3,17.3,150.2,13.6c30.6-4,50.3-9.5,59.1-16.5c4-3.3,6.2-7.5,6.6-12.6
		c0.8-2.3-0.9-10.4-4.9-24.2c-0.3-2.5,0.2-4.6,1.3-6.3c0.3-3.2,10.5-8.3,30.7-15.5c2.7-1.4,4.4-3.1,5-5
		c-2.3-15.3-20.4-34.1-54.2-56.2L559.2,124.6z"/>
	<path class="st6" d="M501.8,115.4c-24.8-14.2-64.6-27.9-119.6-41c-40.1-7.5-73.6-8.4-100.4-2.6c-6.5,2.4-5.5,5.9,2.8,10.4
		c3.4,1.8,7.5,3.6,12.4,5.4c28.8,9.6,47.8,16.3,56.9,19.9c10.4,4,21.1,8.4,32,13.2c18.9,8.8,28.9,16,29.9,21.6
		c-0.9,3.5-7.4,7.1-19.5,10.6c2,0.8-33.1,7.3-105.1,19.7c-16.2,3.8-23.1,7.4-20.7,10.7c1.1,2.6,7.4,5.9,18.8,9.8
		c49.4,15.1,96.6,31.1,141.7,48c10.6,3.5,20.5,6.5,29.8,8.8c45.7,10.3,81.2,12.7,106.6,7.4c44.7-10.6,60.5-35.9,47.4-75.9
		c-7.2-17.9-17.8-30.9-31.7-38.9c-24-15.4-47.3-25.3-69.9-29.7L501.8,115.4z"/>
	<path class="st6" d="M603.7,197.6c-7.8,19.8-36.1,31.3-85.1,34.6c-14,1.1-50.1-1-108.1-6.1c-9.1-0.3-44.3-6.1-105.6-17.4
		c-7.5-1.2-11.8-1.6-13-1.2c-4.4,4.5,28.5,17.5,98.7,39.1c46.5,14.4,94.4,22.4,143.8,24c44,0.7,75.7-7.4,95.1-24.3
		c13.7-12.5,10.6-35.2-9.3-68c-17.1-24.3-42.2-45.7-75.3-64.2C500.5,90.6,455,74.1,408.6,64.3c-0.9,0.6,0,1.5,2.8,2.8
		c37.1,17.4,58.9,28.3,65.4,32.6c9.7,5.9,16.8,12,21.4,18.4c10.7,14,2.3,28-25.3,41.8L603.7,197.6z"/>
	<path class="st6" d="M239.7,94.4c-9.1-1.1-17.8-0.3-26.2,2.4c-1.8,1.3-1.9,2.6-0.5,3.8c2.1,1.8,5.3,3.3,9.7,4.5
		c7.1,1.7,11.6,2,13.7,0.8c1-0.8,0.5-1.9-1.3-3.1c-0.8-0.7-3.4-1.5-7.8-2.5L239.7,94.4z"/>
	<path class="st6" d="M254.4,57.6c-9.2-3.3-21.8-4.2-38-2.8c-6.5,0.8-10,1.7-10.6,2.7c-0.8,2.1,0.6,3.7,4.2,5
		c7.1,1.8,13.7,2.6,19.8,2.3c5.6-0.2,10.3-0.7,14.1-1.5c2.2-0.3,3.8-1,4.8-2.1c1.8-2.6-0.2-5.4-5.9-8.4c-4.8-2.6-11-4.3-18.6-4.9
		L254.4,57.6z"/>
	<path class="st6" d="M294.5,35.2c-3.2-1.5-7.3-2.8-12.3-3.7c-4.9-0.9-9.1-1.1-12.4-0.7c-3.3,0.3-4.7,1.1-4,2.3c0.4,1,1,1.7,1.7,2.1
		c1.1,0.8,2.5,1.6,4.4,2.2c4.5,1.6,8.5,2.5,12.1,2.6c2.3,0.1,4,0.1,5,0c1.8-0.3,2.8-0.7,3.2-1.3c0.7-1.3-0.7-3.3-4.4-6
		c-2.8-1.9-6.6-3.3-11.5-4.1L294.5,35.2z"/>
	<path class="st6" d="M183.9,27.5c-3.3-1.5-8.7-1-16.1,1.5c-1.7,0.5-3.2,1.3-4.3,2.4c-1.1,1.3-1.4,2.5-0.9,3.6
		c2.6,3.9,8.4,6.9,17.4,8.8c4,0.9,7,1,9,0.3c1.6-0.2,1.9-1.3,0.9-3.3L183.9,27.5z"/>
	<path class="st6" d="M138.3,60.5c-2.3,0.1-4.3,0.6-6.2,1.6c-2.3,1-3.6,2.2-3.9,3.6c-0.2,1,0.5,2.4,2,4c1.2,1.2,2.9,2.4,5.1,3.7
		c2.3,1.4,5.9,2.8,10.8,4.3c4.3,1.3,8.4,2.3,12.1,2.8c4.4,0.6,7.6,0.7,9.9,0.5c2-0.6,2.7-1.5,2-2.8c-1.5-2.7-5-5.1-10.6-7.3
		c-5.1-1.6-10.9-2.3-17.2-2L138.3,60.5z"/>
	<path class="st6" d="M148.8,121.9c-3.8-1.1-6.9-1.5-9.2-1c-4.5,0.6-8.5,1.7-12,3.4c-3.8,2.4-3.9,5.1-0.3,8.1
		c3.5,2.8,7.7,5,12.6,6.6c6.6,2.1,12.2,3.2,16.6,3.2c5.4,0.2,8.8-0.7,10.2-2.9c0.5-0.9,0.2-2.1-1.1-3.5c-0.8-0.9-2.2-1.9-4.3-3
		L148.8,121.9z"/>
	<path class="st6" d="M331.6,128.8c-4.4-1.1-10.3-1-17.6,0.3c-7.3,1.6-11.3,3.5-12.1,5.7c-0.5,0.9,0.1,2.3,1.8,4.2c1.2,1,3.2,2,6,3
		c6.5,2.1,12.1,2.5,16.7,1.1c1.9-0.9,2.4-2.2,1.4-3.8c-0.7-1.4-3-3.4-6.9-6.1L331.6,128.8z"/>
	<path class="st6" d="M241.2,162.8c-10.4-2.2-18.1-1.9-23.3,0.7c-2.3,1.2-1.8,3.3,1.5,6.2c4.2,2.8,8.9,4.7,14.2,5.8
		c2.5,0.6,4.3,0.8,5.4,0.6c1.1-0.3,1.7-0.9,1.7-1.7c-0.6-2-2.7-4.4-6.4-7.2L241.2,162.8z"/>
	<path class="st6" d="M423.1,140.9c-7.3-1.8-15.3-2.1-24-1.1c-7.9,1.3-10.9,3.3-8.8,6.1c1,2.5,3.9,5.1,8.7,7.8
		c4.8,2.6,10.4,4.5,16.8,5.7c9.7,1.3,13.8-1.1,12.2-7.1L423.1,140.9z"/>
	<path class="st7" d="M258.1,241.4c-2.6-0.2-5.3,2.1-7.9,7c-1.8,4.6-2,8.4-0.6,11.2c1.4,3.9,3.7,7.6,6.7,11.3
		c0.4,1,6.7,6.8,18.7,17.5c1,0.9,1.4,1.6,1.1,2.2c-0.1,1.4-3.9,1.3-11.5-0.3c-10.7-2.2-17.2-3.9-19.6-5.4
		c-10.8-6.5-16.4-15.6-16.6-27.2c0.7-9.9,7.1-17,19.4-21.5L258.1,241.4z"/>
	<path class="st7" d="M417.5,281.4c-4.7,2.6-7.3,6.5-8,11.7c-0.8,5.6,0.6,10.1,4.2,13.6c3.8,4,8.8,7.4,15.2,10.1
		c3.1,1.4,6.6,2.7,10.4,3.9c4.4,1.4,10.3,3,17.7,4.9c1.2,0.4,1.7,0.7,1.6,0.9c0.1,1.1-3.4,1.9-10.4,2.5c-8.3,0.3-15.1-0.2-20.4-1.3
		c-11-2.5-19.2-7.3-24.6-14.3c-7-9.4-9-17.3-5.8-23.7c1.8-5.4,8.5-9.1,20-11.4L417.5,281.4z"/>
	<path class="st7" d="M496.3,291.4c-4.3,0.2-7.6,1.9-10.1,5.1c-2.2,2.7-2.5,5.7-0.9,9.1c1.5,2.8,4,5.4,7.6,8
		c3.1,2.5,10.2,6.5,21.4,11.8c1.3,0.8,1.8,1.5,1.4,2.2c-2.1,1.8-6.5,2.6-13.2,2.6c-10.6-0.2-18.2-1.2-22.8-3.1
		c-14.3-6.1-22.8-15.7-25.5-28.9c-0.2-8.3,6.8-13.1,20.9-14.6L496.3,291.4z"/>
	<path class="st7" d="M558.7,290.8c-2.3,5.3-1.5,10.2,2.4,14.6c2.1,2.5,4.4,4.6,7.1,6.2c1.7,1.3,6.7,3.7,15,7.2
		c0.7,0.4,1,0.8,0.7,1.3c-5.4,2.9-13.1,3.6-22.9,2.1c-6.6-1.5-11.1-4.7-13.4-9.6c-3-6-3.7-11.8-2-17.6c1.6-4.3,5.2-7.3,10.7-8.9
		L558.7,290.8z"/>
	<path class="st7" d="M626.9,280.1c-1.7-1-4.8,0.3-9.3,3.7c-3.1,3-4.6,6.1-4.6,9.1c0.2,2.7,1.2,5.7,3.1,8.9
		c1.3,2.6,4.8,7.3,10.5,14.2c0.4,0.6,0.5,1.1,0.3,1.5c-0.4,1.1-3.1,1.1-8,0.1c-3.8-0.9-6.9-2.3-9.4-4c-6.6-4.8-9.6-11.8-9-20.9
		c1.5-9.2,6.5-15.9,15.1-20.2L626.9,280.1z"/>
	<path class="st7" d="M15.9,160.9c4,39.3,34.6,77.9,91.6,115.7c35.2,23.7,69.4,43.2,102.5,58.6c13.4,6.1,25.1,10.9,35.2,14.3
		c9.9,3.9,34.6,11.6,74.2,23c3.5,1,5.3,2,5.6,3c4,2.3-9.6,1.5-40.9-2.5c-20.6-3.3-43.7-9.6-69.3-19c-48.1-20.2-93.5-44.7-136.1-73.3
		c-21.3-14.4-40.8-36.5-58.5-66.5C3.8,172.9,1.1,151.3,12,149.3L15.9,160.9z"/>
	<path class="st7" d="M9.9,216.4c-1.6,13.8,2.1,25.7,11.2,35.7c4.4,4.8,8.6,8.7,12.5,11.6c23.8,12.9,36.2,21.1,37.2,24.8
		c2.3,1.4,3.8,10.9,4.5,28.5c2.1,6.8,5.1,11.6,8.8,14.3c3.8,3.3,8.5,5.9,14.4,7.8c8.4,3.2,18.3,5.3,29.6,6.5c3.4,0.9,6.1,2,8.1,3.4
		c1.4,0.9,2.4,2.1,3.1,3.7c2,9.9,4.3,16.4,6.8,19.5c2.2,3.5,7.3,7.3,15.4,11.3c8.2,3.7,14.7,5.9,19.7,6.7c3.1,0.9,11.9,1.4,26.4,1.5
		c1.8,0.1,2.9,0.4,3.5,1c-12.8,9.1-30.5,8.9-53-0.4c-12.3-6.6-20-11.9-23.1-15.9c-4.3-3.7-10-12.6-17-26.6c-2.1-2.7-3.9-4.7-5.7-6
		c1.3-0.6-7-3.3-25-8.1c-5-1.9-8.8-4.1-11.6-6.4c-3.3-3.1-5.9-6.9-7.8-11.4c-2-18.1-4.3-27.9-6.8-29.4c-1.8-2.3-3.9-4.3-6.3-6
		C41,275.1,31,268.7,24.4,263.2c-4.5-3.8-9-9.6-13.3-17.4c-7.6-14.5-10.3-27.9-8.2-40.1L9.9,216.4z"/>
	<path class="st8" d="M217.7,366.7l-0.5-0.1c-1-0.4-2.8,1.1-5.4,4.4c-1.6,2.3-2.4,4.8-2.4,7.5l-3.2,1.1l-0.6,4.3l0.1,4.2
		c0.3,2.8,1.1,5.6,2.3,8.4c1.3,2.8,3,5.5,5.2,8.2c2.2,2.7,4.9,5.4,8.1,8c5,4.1,9.4,7,13.2,8.8c7.3,3.9,17.5,7.1,30.6,9.6
		c15.2,2.9,21.4,2.8,18.7-0.2c0-0.1-0.6-0.6-1.7-1.3c-13.8-7.1-25-13.1-33.6-18.1c-6.2-3.7-11.6-7.7-16.2-11.9
		c-4-4.2-7.3-9.6-10.1-16.4c-1.6-3.5-3-8.9-4-16.2C218.1,366.9,217.9,366.8,217.7,366.7z"/>
	<path class="st8" d="M278.2,383.9l-1,0c-2.5,0.2-3.9,3.1-4.5,8.5l0.2-5.2c-0.8,4.8-1.2,9.3-1.2,13.6l0.4,6.1l1,5.6l1.7,5.2l2.3,4.7
		l3,4.3l3.6,3.8l4.3,3.3c4.3,2.7,7.9,4.7,10.9,5.8c5.3,2,14.1,3.4,26.3,4.2c1.8,0.3,9.5-0.1,23.1-1.3c3.3-0.4,4.4-1.3,3.2-2.7
		c-0.6-0.6-1.2-0.9-1.8-1.1c-4.6-1.6-11.3-4.4-20.3-8.2c-4.5-2-9.6-4.5-15.4-7.5c-4.2-2.3-10.1-6.3-17.8-12
		c-3.6-3.1-6.8-6.7-9.6-10.6c-0.8-0.9-2.7-4-5.5-9.5C280,388.6,279,386.3,278.2,383.9z"/>
	<path class="st8" d="M332.1,390.8l-1.6,3.4c-2,4.7-3.1,9.7-3.1,15c-0.1,1.8,1,5.9,3.4,12.5c0.2,1.1,1.6,3.8,4.3,8.1
		c1.2,1.7,2.4,3.3,3.9,4.8c2.9,3.1,6.3,5.8,10.2,8.3c8.6,4.8,17.6,7.4,27.2,7.9c22.1,0.1,37.9-1.8,47.4-5.8
		c-0.2-0.3-0.9-0.4-1.9-0.6c-4.9-0.2-12.4-0.8-22.5-1.9c-4.7-0.7-9.8-1.7-15.2-3c-4.5-1.2-7.7-2.1-9.6-2.8
		c-5.5-2.7-10.1-5.2-13.9-7.3c-8.6-5.4-14.6-10.6-17.8-15.5c-1.6-2.2-3.5-5.8-5.9-10.7c-1.6-4.1-2.7-7.7-3.5-10.9
		C332.7,391.3,332.4,390.8,332.1,390.8z"/>
	<path class="st8" d="M501.2,428l-0.2,0c-0.4-0.1-0.9,0-1.5,0.4c-6.2,4.6-10.2,7.4-12.1,8.3c-3.9,2.2-8.8,4-14.6,5.6
		c-8.6,1.7-16.9,1.5-25-0.7c-8.6-1.9-16.3-5.3-23.1-10.1c-6.3-4.4-14.6-11.8-24.7-22.1l-10.7-8.5c8.3,20.3,14.9,33,19.8,38.2
		l7.3,7.2c4.7,4,7.5,6.3,8.5,6.7c1.9,1.3,3.8,2.4,5.8,3.3l2.9,1.3c2.1,0.8,3.9,1.5,5.7,1.9c6.8,1.4,11.2,2.1,13.2,2.1
		c3.1,0.2,6.2,0.3,9.1,0c2.9-0.2,5.7-0.6,8.4-1.3c2.7-0.6,5.2-1.5,7.6-2.6l3.6-1.8c4.9-3.3,7.8-5.6,8.4-6.7c1.7-1.8,3.2-3.8,4.7-5.9
		c1.4-2.2,2.7-4.6,3.9-7.1l1.7-4L501.2,428z"/>
	<path class="st8" d="M552.4,422.1l-0.2-0.1c-0.7-0.2-1.5-0.2-2.7-0.2c-10.9,2.4-20.1,3.7-27.3,3.8c-6.7,0.3-14.8-0.6-24.4-2.8
		c-4.1-0.9-9.1-3.7-14.7-8.3c-3.1-2.7-6.1-6.6-9-11.5l-1.9,4.9c2.4,8.5,5.5,15.5,9.1,21l2.8,3.8l3,3.3l3.2,2.7l3.5,2.1l3.7,1.5
		c0.3,0.1,0.6,0.2,0.9,0.3c3.6,1,9.4,1.5,17.3,1.4c4.9-0.4,7.7-0.7,8.4-1c1.7-0.4,3.2-0.8,4.5-1.3c4-1.3,10.5-5.5,19.5-12.6
		c2.2-1.7,4.1-3.5,5.5-5.5C553.7,423,553.3,422.5,552.4,422.1z"/>
	<path class="st8" d="M617.8,378.8L617.8,378.8c-7.6,7.1-14.6,12.2-21,15.4c-7.2,3.2-12.6,5.3-16.4,6.3c-4.5,1.3-8.7,2.2-12.7,2.7
		c-6.7,0.7-11.3,0.9-13.8,0.6c-5.4-0.4-9.9-1.4-13.5-2.8c-2.3-1-4.3-2.4-6.2-4.1c-1.5-1.1-3.5-4-6-8.7l-1.8,11.4l1,2.9
		c0.7,1.9,1.6,3.6,2.6,5.2c4.5,6.6,9.9,10.5,16.2,11.8c6.4,1.6,13.9,2,22.4,1c2.8-0.3,5.8-0.8,8.8-1.4l5.2-1.4l5-2.1
		c6.6-3.3,12.7-8.8,18.4-16.2C612.9,389.5,616.8,382.6,617.8,378.8z"/>
	<path class="st9" d="M559,325.8l-6.1-0.9c-10.9-1.7-19.5-2.8-26-3.2l-52.5,1l-54.4-2l-35.6,1.6c32.6,3.8,50.7,6.1,54.2,6.8
		l45.2,4.6l3.5,0.1c14.7-0.2,32.9-1.3,54.4-3.3c4,0,7.6,0.2,10.8,0.5L559,325.8z"/>
	<path class="st10" d="M539.1,327.1l-1.4-0.2c-4.2-0.5-12.3-0.8-24.3-0.9c-6.1,0.2-10.7,0.4-13.9,0.5L539.1,327.1L539.1,327.1z
		 M499.4,326.6L499.4,326.6l-75.8-1c-0.9-0.1-3.1-0.2-6.5-0.3c-6.8-0.2-13-0.3-18.6-0.4c-2.5,0-3.9,0.2-4.2,0.6
		c11.6,3,22.1,4.6,31.7,4.7l3.5,0l52.8-2C485.5,327.5,491.2,327.1,499.4,326.6z"/>
	<path class="st10" d="M632.6,318.1l-1.3-0.4c-3.5-0.7-6.5-1.1-9-1c-11,0-16.6,0.1-16.9,0.3l-36.5,4.8l-37.5,2.6
		c-6.8,1-14.6,2.1-23.4,3.2l68-0.5c3.6-0.7,7.5-1.2,11.7-1.4c1-0.1,4.3-0.1,10,0.1l8.7,0.6c1,0.1,2.2,0.3,3.6,0.6
		c4.1,1,9.6,3.2,16.5,6.6c0.4,0.2,1.4,0.2,3,0.1c2.8-0.2,4.4-0.7,5-1.6c2-1.5,3.1-3.2,3.3-5.2c0.2-2-0.5-4.3-2-6.9
		C635,319.1,633.9,318.5,632.6,318.1L632.6,318.1z M508,327.6L508,327.6l-57.1,0.4c3,0.7,7.1,1.2,12.5,1.5l4.3,0.2
		c3,0.1,6.3,0.1,9.9,0.1c3.6,0,7.5-0.1,11.7-0.2C496.2,329,502.5,328.3,508,327.6z"/>
	<path class="st9" d="M631.1,323.7l-1.9-0.5c-5.2-1-11.9,0.2-20,3.8l-40.1,33.3c-0.9,0.9-0.7,1.5,0.4,1.7c1.5,0.4,5.2,0.3,10.9-0.4
		c4.3-0.5,8.2-1.4,11.9-2.8c1-0.4,2.1-0.9,3.5-1.7c3.5-2.6,6.1-4.4,7.9-5.3c15.3-6.6,23.7-10.5,25.2-11.8c0.5-0.1,1.9-1.3,4.2-3.5
		c1.1-1.1,1.9-2.3,2.4-3.3l0.6-1.6l0.1-1.6c0-1-0.4-2-1-3c-0.6-1-1.5-1.9-2.7-2.8L631.1,323.7z"/>
	<path class="st9" d="M637.4,299.5l-0.1,0c-0.4-0.1-0.8,0-1.3,0.2c-4.5,4-7.8,6.6-9.9,7.6l-2.1,1.2c-1.4,0.8-2.8,1.4-4.2,2
		c-3.5,1.4-6.7,2.6-9.4,3.5c-6.7,1.9-13.4,3.7-20.2,5.1c-4.4,1.3-7,2.1-7.8,2.7l13.1-1c5.3-1.5,9.8-2.2,13.7-2
		c4.5,0.3,7.8,1.5,9.9,3.7c1.6,1.6,1.9,4.1,0.8,7.3c-0.4,1-1,2.1-2,3.4c-4.1,4.7-6.3,7.3-6.7,8c-1,1.9-1.5,3.4-1.5,4.6
		c0.1,5,2.4,8.3,6.9,9.7c1.1,0.3,2.4,0.5,3.9,0.6c1.6-0.1,3-0.5,4.3-1.4l5-5.4c4.4-3.1,7.5-5.6,9.1-7.3c2.3-2.6,3.7-4.8,4.3-6.7
		c2-5.7,2.3-12.5,0.9-20.5c-0.6-3.7-1.4-6.8-2.3-9.3c-0.5-1.2-1-2.3-1.6-3.3c-0.6-0.9-1.2-1.7-1.8-2.4
		C637.8,299.7,637.6,299.5,637.4,299.5z"/>
	<path class="st11" d="M196.3,6.4l-19.7,1.1c-38.2,3-69.2,11.2-93,24.6c-8,4.5-15.1,9.5-21.5,15.2C54.2,55.1,49.9,59.7,49.3,61
		c-4.6,5.8-7.7,11.3-9.3,16.5c-1.3,5.3-1.7,9.9-1.3,13.8c0.7,16.5,6.7,28.9,18.1,37.3l106.9,68.3c13.3,1.4,20.5,2,21.6,1.7
		c3.1,0,4-0.5,2.8-1.4l-27.8-17.2c-14.3-12.8-39.1-32.5-74.4-59c-1.7-1.9-2-3.4-0.9-4.4c7.3-2.1,10.8-3.5,10.7-4.1
		C86,106.4,80.5,101.8,79,98.7c-2-4.1-2.6-9.7-2-16.8c0.1-1.5,0.6-3,1.3-4.6c2.6-4.2,4.5-6.8,5.8-7.9c3.4-3.5,8.6-7.8,15.5-12.9
		c2.8-2.2,15-7.7,36.4-16.3c-13.8,4.6-29.7,8.8-47.7,12.4c-2.9,0-3.7-0.8-2.6-2.3c1.9-2,4.2-3.8,6.9-5.3
		c16.4-9.7,32.3-17.6,47.8-23.8c7.7-3.1,15.4-5.7,22.9-7.9C167.3,11.7,178.3,9.4,196.3,6.4z"/>
	<path class="st12" d="M401.2,35l-0.6-0.1l-4.9-1.2l-45.4-14.3l-12.2-4.4L401.2,35L401.2,35z M417.8,35.8L417.8,35.8l-1.8-0.5
		c-8.1-2.3-14.7-4.4-19.6-6.3c-8.6-2.2-18.2-4.9-29-8.1l-47.6-10.5c-15.8-2.1-24.7-3.2-26.7-3.4c-4.3-0.4-6.4-0.5-6.3-0.3l0.8,0.4
		c1.6,0.2,2.7,0.4,3.4,0.6c7.1,2.3,13,4.1,17.7,5.2l13.5,2.6c2,0.4,4.1,0.9,6.4,1.5c3.6,1,10.7,3.2,21.2,6.7l8.5,2.1l13.3,4.1
		c7.8,1.9,12.6,3.1,14.4,3.7c27.2,9,45.4,15.2,54.5,18.7l6.4,2.5l15.5,6.7c6.1,2.1,17.3,6.4,33.5,12.9
		c33.3,14.7,74.2,39.2,122.9,73.4c-3.3-5.2-9.7-12-19.4-20.5c-19-16.1-30.2-24.7-33.5-25.9c-15-7.3-25.2-12-30.8-14.2
		c-1.2-0.9-13.2-7.1-36-18.8c-5.4-2.6-10.9-5.1-16.4-7.6c-3.9-1.7-10.6-4.6-20.1-8.5l-8.6-3.1l-9.3-4.1
		C437.3,42.6,428.2,39.5,417.8,35.8z"/>
	<path class="st12" d="M560.3,383.3l-11.6,1.9c-29.9,4.8-58.2,9.1-84.7,12.8c-5.7,0.7-18.5,2-38.5,3.9c-3.3,0.2-6.1,0.1-8.4-0.3
		l31,5.2c13.2-1.2,24.2-2.3,33.2-3.3l16.6-2.2C535.3,393.2,556.1,387.3,560.3,383.3L560.3,383.3z M417,401.6L417,401.6l-2.7-0.5
		l0.3,0.1c0.2,0,0.4,0.1,0.6,0.1c0.2,0,0.4,0.1,0.6,0.1c0.1,0,0.4,0.1,0.9,0.1L417,401.6L417,401.6z"/>
	<path class="st13" d="M141.6,37.1l-3.5,0.1c-4.6,0.2-9.3,0.8-13.9,1.7c-1.2,0.1-4.6,1-10.4,2.7c-7.5,2.4-12.2,4.2-14,5.3
		c-2.9,1.5-5.3,3.2-7.1,5c-2,1.9-2,3.9-0.1,6c0.8,0.9,5.4,3.6,13.8,8c1.3,1.1,1.9,2.2,1.8,3.1c0.2,1.1-1.1,2.8-4,5.2
		c-1.6,1.3-6,4-13,8.2l-1.6,1.3c-2.2,2.1-3.3,4-3.3,5.6c-0.1,0.3,0,1.1,0.4,2.5c0.3,1.2,1.2,2.4,2.7,3.8c3.1,2.3,6.1,3.8,8.9,4.7
		c6.3,2.3,13.6,4.2,22.1,5.8l6.3,1l4.5,0.5l2.8,0l1.1-0.5l-0.6-1l-2.3-1.5c0.4-0.2-5.4-2.7-17.3-7.6L141.6,37.1z"/>
	<path class="st14" d="M223.7,11.6L223.7,11.6c-19.8-2.4-37.8-3.3-53.8-2.6c-4.6-0.3-15.6,1-33,4c-6.6,1.5-12.8,3.3-18.5,5.5
		c-8.4,3.6-15.5,8.6-21.4,15.2c-2.9,3.3-5.5,6.9-7.8,10.9c-4.2,4.3-7.1,7.5-8.6,9.7c-2.5,4.5-4.9,10-7.2,16.3c-1.3,5-2,9.1-2.1,12.3
		c0.2,9.2,0.8,15.2,1.8,17.9c4.2,15,11.2,26.7,20.8,34.9c17.4,17.1,50.1,33,98,47.6c0.4-0.1-0.7-1.3-3.5-3.4
		c-29.2-17.9-46-28.5-50.4-32c-5.9-4.1-11.5-9.9-16.7-17.3c-5.3-9.8-6.1-16.8-2.4-21c1.7-1.9,3.9-3.3,6.4-4.2
		c2.4-1,10.4-2.5,23.8-4.6c1.6-0.5,2.4-1.4,2.5-2.6c-0.6-1.4-2-2.9-4.1-4.5c-15.3-9.3-24.2-15-26.7-17.3c-6.5-6.2-9.2-10.5-8.1-12.8
		c0.2-1.6,1.5-3.5,4.1-5.7c12-7,18.7-11,20.1-12.1L148.3,33c4.2-2.8,8.8-5.4,13.7-7.8c3.2-1.4,8.4-3,15.5-4.8
		c18.1-3.6,32.9-5.9,44.5-7.2C223.7,12.7,224.3,12.2,223.7,11.6z"/>
	<path class="st15" d="M189.1,169.9l0.5,0.8c4.3,5.7,12.9,12.9,25.8,21.6c15.5,10.2,31,19,46.5,26.5c3.7,1.8,10.6,4.5,20.8,8.1
		c7.8,2.7,15.9,5.3,24.1,7.6c8,2.3,15.3,4.1,21.7,5.4c2.6,0.5,5.1,1,7.2,1.3l8.6,1l3,0.5c-0.7-0.1-2.2-0.7-4.4-1.6
		c-6.4-3.3-12.4-6.3-17.9-8.8c-3.1-1.5-11.9-5.5-26.3-12c-3-1.4-6-2.8-8.9-4.1c-1-0.4-8.8-4.2-23.3-11.4c1,0.4-8-3.6-27-11.9
		l-10.1-4.5c-5.5-2.5-15.2-7-29.1-13.7c-1.7-0.8-3.3-1.4-4.9-2c-1.2-0.6-2-1-2.7-1.2c-0.8-0.3-1.6-0.5-2.4-0.5
		C190,170.6,189.7,170.3,189.1,169.9z"/>
	<path class="st15" d="M426.2,46.4l-0.3-0.1c-9.8-3.2-18.7-5.9-26.8-8.1c-10.7-3-19-5.1-24.9-6.2c-6.8-1.4-11.9-2.2-15.3-2.4l-3.7,0
		c-0.6,0-1.2,0.1-1.8,0.5c-0.4,0-0.7,0-1-0.1c0.6,0.5,1.4,1,2.4,1.6c1.7,1,5.6,2.8,11.7,5.4c28.8,12,47.8,20,57.1,24.1
		c3.1,1.3,5.6,2.3,7.6,3.1c1.7,0.7,5.2,2,10.6,4.1c8.8,3.2,23.5,8.7,44,16.3c2,0.8,8.9,3.3,20.7,7.5c1.4,0.5,4.5,1.7,9.4,3.6
		c0.3,0.1,0.3,0.1,0.1-0.1c-0.1-0.1-0.9-0.5-2.4-1.3c-5.8-4.5-11.9-8.8-18.3-13c-4.5-3-10.9-6.8-19.2-11.3c-10-5.4-19-10-27-13.7
		C438.9,51.3,431.3,48,426.2,46.4z"/>
	<path class="st15" d="M477.2,385.8l-0.6-0.2c-1.5-0.4-4.5-0.8-9.2-1.2c-21.6-1.8-38.8-3.3-51.6-4.6c-2.9-0.3-6.3-0.5-10.4-0.7
		c-8.2-0.4-18.8-0.6-31.8-0.7c-6.2,0-17.4,0.1-33.4,0.3l-4.3,0.1c-0.6,0-0.8,0.1-0.6,0.1c-0.2,0,1.6,0.2,5.4,0.6
		c15.7,4,29.5,6.9,41.3,8.8c7.1,1.2,14.6,2.4,22.3,3.4c4.1,0.5,7.6,0.8,10.5,0.9c12.1,0.3,25.9-0.3,41.4-1.8
		C467,389.7,473.9,388,477.2,385.8z"/>
	<path class="st15" d="M303.7,356l-0.4-0.1l-28.2-9.2c-2.1-0.7-3.9-1.2-5.3-1.5c-29.6-7-45.9-10.7-48.8-11.3c-7-1.6-11.8-2.2-14.3-2
		c-0.6,0-0.8,0.1-0.6,0.2c0.1,0.1,0.5,0.2,1,0.4c1.2,1.4,2.7,2.6,4.4,3.6c3.1,1.7,6.5,3.3,10.1,4.9c13.3,5.8,27.6,11.4,43,16.6
		c1.8,0.6,3.5,1.1,5.3,1.6c2.4,0.6,5.4,1.2,9,2c3.2,0.7,12,2.4,26.5,4.9c0,0.1,2.9,0.2,8.7,0.3c1.9,0.3,4.5,0.6,7.8,0.9
		c0.4,0.1,1.8,0.1,4.3-0.1c1.3,0.3,2.4,0.5,3.4,0.8c-1.6-1.2-5.1-3.1-10.7-5.8c-2.8-1.3-5.9-2.7-9.4-4.1
		C309.4,357.9,307.5,357.2,303.7,356z"/>
	<path class="st15" d="M222.3,370.2l0.2,1c1.2,3.9,3.6,8.7,7.2,14.4c2.7,4.3,5.9,8.3,9.5,12c3.7,3.6,7.7,6.9,12.1,9.9
		c1.6,1.2,4.3,2.9,7.9,5.2l8.2,5l1.3,0.8c0.2,0.1,0.3,0.1,0.2,0.1l-2.2-1.7l-2.4-2.7l-6.9-7.7l-11.3-13c-2.5-2.8-5-5.5-7.5-8.1
		c-2.6-2.7-4.9-5-7.1-7c-1.4-1.3-2.7-2.4-3.7-3.2c-0.6-0.7-1.5-1.5-2.7-2.6c-0.6-0.5-1.3-0.8-1.9-1.1L222.3,370.2z"/>
	<path class="st15" d="M294.5,395.4L294.5,395.4c-0.1,0-0.3,0-0.6,0.2c0,0-0.1,0-0.1,0c0.2,0.7,0.5,1.5,1,2.5
		c2.1,3.9,4.2,7.3,6.3,10.3l0.5,0.4l1,0.6c1.5,1.1,2.9,2.1,4.2,2.9c1.3,0.8,3.3,2,6.1,3.6c0.7,0.4,1.3,0.8,1.8,1.3
		c-0.9-0.8-1.7-1.7-2.4-2.5c-1.8-2.5-4-5.4-6.5-8.7c-0.2-0.3-0.5-0.7-0.8-1.3c0,0-0.2-0.2-0.4-0.5c-0.1-0.2-1.5-1.4-4.1-3.6
		L294.5,395.4z"/>
	<path class="st15" d="M347.7,401.3l0,0.2c0.5,2.6,1.8,5.9,4.1,10c2.4,4.5,4.6,7.7,6.6,9.6c1.7,2,4.7,4.3,8.8,7.1
		c1.2,0.8,2.3,1.5,3.4,2.1c0.3,0.2,2.3,1.2,5.8,2.9c0.3,0.1,1.1,0.6,2.3,1.3c-1.6-1.1-3.2-2.5-4.8-4.4c-3.7-4.4-7.1-8.6-10.1-12.8
		c-0.6-0.8-1.3-1.6-2-2.3l-11.8-12.2l-1.2-1.1c-0.2-0.2-0.5-0.2-0.9-0.2C347.9,401.5,347.8,401.5,347.7,401.3z"/>
	<path class="st15" d="M413,406.7l-0.2,0c-0.2-0.1-0.5-0.1-0.9,0c-0.1,0-0.3-0.1-0.6-0.4c0.5,1.2,1.6,2.9,3.4,5.3
		c4,5.1,7.3,8.5,9.9,10.3c2.6,1.9,6.1,3.9,10.4,6c1.2,0.6,2.8,1.3,4.8,2.1c0.3,0.2,2.5,1,6.7,2.4c0.3,0.1,1.1,0.4,2.2,1
		c-1-0.5-2.2-1.3-3.6-2.5c-9.4-8.7-14.8-13.5-16.2-14.4c-0.2-0.2-0.7-0.5-1.5-1l-3.8-2.4l-6.3-4.1c-0.7-0.4-1.3-0.8-1.9-1.1
		c-0.7-0.3-1.1-0.5-1.2-0.5c-0.2-0.2-0.5-0.3-0.8-0.5L413,406.7z"/>
	<path class="st15" d="M143.3,345.2l-0.1,0.6c-0.4,2.3,0,5.3,1.2,9.2c1.5,4.2,3.5,7.5,5.8,9.9c1.4,1.8,4.2,4,8.2,6.6
		c3.8,2.4,9.2,5.3,16.1,8.6l-2.1-1.4c-1.7-1.6-3.1-2.9-4.2-4c-3-2.9-5.9-5.9-8.5-9L149,353.7c-0.3-0.3-1.5-2-3.7-5.1
		c-0.1-0.4-0.4-1-0.9-1.8c-0.2-0.3-0.6-0.6-1-0.9L143.3,345.2z"/>
	<path class="st15" d="M325.8,383.3L325.8,383.3c-1.5-0.1-3.4-0.5-5.8-1.3c-6.5-2.2-11.9-4-16-5.3c-3.2-1-6.8-2.2-10.6-3.4
		c-11.5-3.6-18.1-5.7-19.7-6.2c-4.2-1.4-8.5-2.8-12.9-4.3l-22.2-7.9c-3.2-1.1-6.1-2.1-8.6-2.8c-1.9-0.6-5-1.5-9.3-2.8
		c-11-3.2-27-8-48.1-14.3l-19.6-5.9c-2.9-0.9-5.7-1.5-8.4-1.9c-0.4-0.1-0.8,0-1.3,0.2c-0.2,0-0.4-0.1-0.8-0.2l0.3,0.4
		c1.4,1.4,3.5,3,6.4,4.9c5.5,3.6,12.2,7.3,20.2,11.1c10.9,5.2,21.6,10,32,14.2c6.2,2.5,12,4.8,17.6,6.9c3.9,1.5,7.7,2.7,11.1,3.8
		c19.9,5.8,37.7,9.9,53.5,12.2c10.4,1.6,18.4,2.5,24,2.8C310.3,383.8,316.3,383.7,325.8,383.3z"/>
	<path class="st16" d="M217,237.3l0.9,7.2c1.4,9.2,3.4,16.7,6,22.7c1.3,3,2.8,5.6,4.4,7.7l2.5,3c2.1,1.9,3.7,3.2,4.6,3.7
		c4.9,3,11.5,5.3,19.9,6.8c1.7,0.4,10.3,1.7,25.9,3.8c8.1,1,12.6,1.5,13.4,1.6c0.8,0,1.3-0.1,1.4-0.4c0-0.2-0.2-0.5-0.8-0.8
		c-1.2-0.6-2.3-1.1-3.4-1.5c-9.3-2.4-17.2-5.1-23.7-7.9c-5.3-2.3-10.4-5-15.2-8.1c-1.7-1.3-3.4-2.7-4.9-4.2c-0.9-0.6-2.9-3.1-6-7.3
		c-2.3-3.5-4.1-7.3-5.5-11.5L217,237.3z"/>
	<path class="st16" d="M265.4,269.9l-0.5,2c1,0.6,1.9,1.4,2.6,2.2c5.5,6.1,8.4,9.3,8.8,9.5c3.7,3.5,6,5.6,6.9,6.4
		c2.1,1.8,4.2,3.2,6.2,4.5c3.9,2.3,6.9,3.9,9,4.7c7.7,3.3,15.3,5.8,22.7,7.4c6,1.3,11.8,2.4,17.3,3.2l10.3,1.4c0.7,0,1-0.2,1.1-0.5
		c0-0.3-0.4-0.7-1-1.1c-0.3-0.3-1.6-0.8-3.8-1.7c-1.2-0.4-2.5-0.9-4.1-1.3c-10.1-2.8-16.9-4.8-20.6-6c-6.3-2.1-11.4-4-15-5.8
		c-6-2.9-12-6.2-17.9-9.8c-3-1.8-5.9-3.7-8.8-5.7l-4.4-3C271.2,274.3,268.3,272.2,265.4,269.9z"/>
	<path class="st16" d="M280.5,284.4L280.5,284.4c-0.9-0.3-1.9-0.4-3-0.3c-4,0.5-9.7,0.9-17.2,1.3c-1.1,0.3-1.6,0.5-1.5,0.6
		c-0.1,0.2-0.1,0.4,0,0.6c0.1,0.2,0.4,0.5,0.8,0.8l0.7,0.4c0.9,0.5,2.4,1.1,4.5,1.9c10.5,3.9,19.2,7,26.3,9.3
		c6.1,2,10.4,3.3,12.7,3.9c1.8,0.5,5.2,1.2,10.4,2.2c6.2,1.1,14.4,1.8,24.6,2.1l-37.3-12.6c-1.3-0.4-2.4-0.7-3.3-1
		c-1.1-0.4-2.2-0.8-3.4-1.2c-2.7-1.1-4.8-2-6.4-2.8c-1.5-0.7-3.8-2.3-6.9-4.7C281.4,284.7,281,284.6,280.5,284.4z"/>
	<path class="st16" d="M44.1,95.6l-2.5,2.7c-3.1,3.7-5.3,7.8-6.5,12.2c-0.6,2.2-1,4.5-1.1,6.9c-0.1,2.4,0,4.8,0.3,7.4l0.6,2.3
		c3.8,14.2,12.2,28.6,25.5,43.2c-6.7-12.1-11.1-22.6-13.3-31.4c-0.9-4.4-0.2-10.6,1.9-18.7L44.1,95.6z"/>
	<path class="st16" d="M53.1,57.2l-3.8,3.7c-8,8.6-11.9,19.7-11.5,33.4l0.7,6.8c0.7,2.6,2.7,8.9,6.2,18.9c1.1,3.4,3.2,7.4,6.1,11.9
		c11.9,14,20.1,23.1,24.8,27.3l5.9,5.2c9.3,7.1,15.7,11.8,19.1,14.2c27.5,19.4,50.3,31.7,68.4,37.1c-20.4-12-41.2-26.7-62.5-44.1
		c-11.2-10.8-24.4-26.2-39.4-46c-9-13-14.1-23.1-15.2-30.2c-1-4.9-1.5-9.9-1.2-14.8c0.4-5.3,1.4-12.1,3-20.6
		C53.9,58.8,53.7,57.8,53.1,57.2z"/>
	<path class="st16" d="M93,169.3l-1-0.2c-0.7-0.1-1.3-0.1-2,0.1l-1,0.3c-0.6,0.3-1.3,0.7-1.9,1.2c-0.6,0.5-1.3,1.2-1.9,2l-0.9,1.3
		l-0.7,1.6c-0.3,0.6-0.8,2.1-1.3,4.7c-0.2,1-0.2,2-0.2,3c-0.1,1.4,0.5,3.8,1.7,7.3c0.8,2,1.8,4.1,3.1,6.1c1.3,2.1,2.9,4.1,4.8,6.2
		l3,3.1c2.1,2.1,4.6,4.2,7.3,6.3l4.2,3.2c1.1,0.7,3.3,1.7,6.6,2.9c0.5,0.2,0.6-0.2,0.1-1.1c-2.6-3.3-4-5.3-4.3-5.8
		c-1.1-1.9-1.9-3.7-2.5-5.5c-0.7-2-1.3-4.2-1.8-6.6c-0.3-2.1-0.3-4.1,0-5.7c0.5-1.8,1.1-3.1,1.7-4c0.1-0.3,0.8-1,2-2
		c0.5-0.4,1.1-0.8,1.8-1.1c0.4-0.2,1.4-0.6,2.9-1.1c0.5-0.1,1.1-0.3,1.7-0.3c1.8-0.2,4.1-0.2,6.9,0.2L93,169.3z"/>
	<path class="st16" d="M96,199.4l3.5,10.3c7.2,6.2,14,11.2,20.3,14.9c4.3,2.6,19.5,10.8,45.4,24.7c16.3,7.9,26.2,12.6,29.7,14
		l27.1,11.2c3.8,1.6,5.7,2.4,5.9,2.6c13.6,5.3,20.9,8.1,21.9,8.4c2.1,0.6,3.1,0.5,3.2-0.2c-0.3-0.6-1.4-1.3-3.1-2.2l-10.9-4.9
		l-36.3-17.5c-8.1-3.5-13.8-6.1-17.1-7.7l-21.7-10.6l-13.8-7l-25.2-13.5C111.1,214.3,101.5,206.9,96,199.4z"/>
	<path class="st17" d="M531.3,372.8l-15.8,0.4c-31.5,0.6-49,0.8-52.4,0.7c-3.3,0.1-11.5-0.3-24.8-1.3c-22.1-2.5-34.3-3.8-36.6-3.9
		c-5.8-0.5-8.8-0.7-8.9-0.5l-68.5-11.2l11.6,2.3c17.1,4.8,29.3,7.9,36.7,9.3c9.9,2,22.5,3.7,37.8,5c12.3,0.9,23.9,1.5,34.7,2
		l15.7,0.5c10.1,0.2,19.4,0.3,28,0.1C505.9,375.9,520.1,374.8,531.3,372.8L531.3,372.8z M324.2,356.9L324.2,356.9l-2.5-0.5
		c-6.4-1.2-10.2-1.8-11.5-1.8L324.2,356.9L324.2,356.9z"/>
	<path class="st16" d="M627.6,352L627.6,352c-2.2,1.8-4,3.1-5.4,3.7c-2.1,0.9-3.9,1.1-5.4,0.8l0.3,0.8l0,2l-0.2,2
		c-0.1,1.3-0.4,2.7-0.7,4.1l-0.6,2.1c-0.4,1.4-0.9,2.9-1.5,4.3c-0.4,1.2-1.3,3-2.5,5.3c-1.3,2.4-3.4,5.8-6.5,10.2
		c-2.7,3.7-4.3,5.9-4.9,6.7c-4.2,4.8-6.5,7.5-6.9,8c-1.3,1.7-1.8,2.6-1.4,2.6c0.8,0.3,2.2-0.2,4.2-1.5c2.8-1.9,4.8-3.3,5.7-4.1
		c1.5-1.2,3.2-2.6,5-4.2l1.3-1.3c1.7-1.8,3.4-3.8,4.9-6c2.4-3.6,4.3-7.1,5.8-10.5c0.1-0.1,1.9-5.3,5.1-15.5c0.8-2.3,2-5,3.4-8.1
		C627.8,352.5,627.8,352.1,627.6,352z"/>
	<path class="st16" d="M631.2,348.4L631.2,348.4l-0.6,0.1c-2.8,2-5,3.4-6.6,4.2l-6.8,3.5c-0.1,0.2-0.2,0.4-0.2,0.6
		c0.1,1.8,0.2,3.5,0.1,5.1l-2.2,12.5c-4,7.7-9.4,14.9-16.3,21.5c-6.3,5.5-11.3,9.3-15,11.4c-2.5,1.7-9.4,4.7-20.7,8.9
		c7.4,0.7,15.7-0.6,25-4.1c6.8-2.2,12.2-5.3,16.3-9.2c4-4.4,6.5-7.8,7.5-10.1c1.9-4,3.2-6.7,3.7-8l5-12.8
		c2.6-5.8,6.2-13.6,10.9-23.2C631.4,348.6,631.4,348.4,631.2,348.4z"/>
	<path class="st16" d="M653.7,229.8l-0.6,10.6c-0.4,5.5-1.1,10.2-2.1,14.2c-0.4,1.4-0.9,2.9-1.5,4.4c-1.4,3.4-2.6,6.5-3.7,9.1
		c-1.9,5.2-3,8-3.2,8.6c-0.4,1.1-0.7,2.3-1,3.6c-0.2,0.8-0.8,3.7-1.7,8.7l-0.3,1.3c-0.5,1.9-1.3,3.8-2.3,5.6
		c-0.9,1.6-1.9,2.8-2.9,3.5c-1.3,0.7-2.1,1.1-2.3,0.9l-18.6,12.3c1.4,0.3,7.7-2.6,19-8.7c3.4-2,5.8-3.5,7.1-4.4
		c1.2-1,2.1-2.3,2.8-3.8c0.2-0.5,0.6-1.7,1.2-3.7c1.3-5.2,2.5-9.6,3.7-13.3c0.6-2,2.2-6.3,4.8-12.9c0.2-0.6,0.4-1.3,0.7-2
		c1.1-3.4,2.1-7.8,3.1-13.2c0.3-1.3,0.4-4.4,0.6-9.1c0-1.8-0.1-3.4-0.3-4.9C655.8,233.8,654.9,231.5,653.7,229.8z"/>
	<path class="st16" d="M508.8,391.1l-27.5,0c-71.2-0.7-126.4-5.6-165.6-14.8l-37.5,0c1.1,0.5,7.5,2.6,19.1,6.1
		c27.6,7.9,58.7,12.9,93.4,15.2l17.6,0.9l22,0.5c5.4,0,12.3-0.2,20.6-0.7c23.5-1.6,39.2-3,47-4.1
		C506.9,392.9,510.6,391.9,508.8,391.1z"/>
	<path class="st18" d="M150.2,340.3l-0.7,1.5c-1.8,3.7-2.8,7.1-2.9,10.2c0.3,2.4,1.4,4.7,3.4,7c2.7,3.4,6.8,6.9,12.4,10.6
		c3.9,2.5,8.2,5.1,13,7.7l2.5,1.3c0.5,0,0.8-0.1,0.9-0.2c0.2-0.2-0.1-0.8-1-1.8c-0.3-0.4-3-3.5-8.3-9.3l-1.2-1.5L150.2,340.3z"/>
	<path class="st18" d="M81.3,290l-0.6-0.2c-1.7-0.5-3.5-1-5.4-1.4l3.4,2.8c-0.8,3.5-1.2,6.7-1.4,9.8l0.1,4.4l0.6,4.1l1.1,3.8
		l1.6,3.5l2.1,3.2l2.6,2.9c4.2,3.5,6.3,5.3,6.5,5.2c4.5,3.3,10.7,6.2,18.5,8.8c4,1.3,7.7,2.1,11.2,2.6c2.2,0.3,4.2,0.6,6.1,0.8
		c0.8,0.1,1.1-0.1,0.8-0.6c-0.2-0.4-0.6-0.8-1.2-1.1c-4.3-2.3-7.3-4.1-9-5.3c-2.4-2-4.3-3.6-5.5-4.9c-3.1-3.2-5.4-6.2-7-9
		c-4.3-6.9-7.9-13.1-10.9-18.6c-1.2-1.8-2.1-3-2.6-3.7C89.8,294,86.2,291.5,81.3,290z"/>
	<path class="st19" d="M473.9,100.8l-19.1,33.5c-2.9,5.3-6.7,12.6-11.4,21.7L473.9,100.8z"/>
	<polygon class="st19" points="442.2,146.1 443,146.5 443.7,146.8 	"/>
	<path class="st19" d="M268.8,264.7l-8.3-2.7c0.3,2.6,1.5,5.3,3.5,8c1,1.4,2.2,2.8,3.7,4.2l2.3,2.2c1.6,1.5,3.5,2.9,5.6,4.4l4.4,2.8
		c2.9,1.8,5.8,3.5,8.6,5.1c2.8,1.6,5.6,3.1,8.4,4.4c5.3,2.6,10.9,4.9,16.6,6.8c6.7,2.1,11.2,3.4,13.6,3.9c1.3,0.3,2.3,0.5,2.9,0.5
		l0.6-0.1c0.2-0.1,0-0.4-0.6-0.9c-0.3-0.2-1.3-0.8-3-1.7c-9.9-5.1-16.5-8.5-19.7-10.2c-3.4-1.8-7-4-10.8-6.4
		c-5.7-3.6-12.3-8.1-19.8-13.6C273,268.7,270.4,266.4,268.8,264.7z"/>
	<path class="st19" d="M349.7,279.6l-3,2c-0.5,2.3-0.7,4.5-0.7,6.6c-0.1,1.6,0.4,4.1,1.6,7.3c0.4,0.8,0.9,1.6,1.4,2.4
		c1.5,2,2.5,3.1,2.9,3.5c1.5,1.5,3.3,2.9,5.3,4.3c3,1.9,6.1,3.5,9.2,4.9c3.4,1.4,6.1,2.4,8.2,2.8c3.3,0.8,6.5,1.4,9.4,1.7
		c7.9,0.8,12.1,1.1,12.6,0.7c0.6-0.5,0.1-1.1-1.5-1.8c-8.6-3.2-14.3-5.5-17-7c-6.1-3.3-11.3-6.5-15.8-9.6l-2.8-2.4
		c-1.7-1.6-3.3-3-4.5-4.5c-1.3-1.4-2.3-2.8-3.2-4.1C350.3,283.9,349.5,281.6,349.7,279.6z"/>
	<path class="st19" d="M413.3,291.1l-2.5,0.9c-0.5,1.3-0.7,2.7-0.6,4.1l0.4,2.1l0.8,2.2l1.3,2.2l1.7,2.2l2.2,2.3l2.6,2.3l3.1,2.4
		c0.4,0.4,1.8,1.3,4.2,2.7c0.9,0.5,1.9,1,2.9,1.5c1.8,0.9,3.9,1.8,6.2,2.5c1.6,0.6,4.3,1.3,8.3,2.1c4.8,0.9,7.5,1.2,8.1,1.1
		c0.5-0.1,0.2-0.4-0.9-0.9c-6.5-2-11.1-3.8-13.8-5.2c-1.7-0.8-3-1.6-4-2.3c-0.6-0.3-2.5-1.8-6-4.5c-1.1-0.9-2.5-2.1-4-3.7
		c-1.3-1.3-3.2-3.5-5.6-6.4C416.1,296.8,414.7,294.3,413.3,291.1z"/>
	<path class="st19" d="M494.7,300.2l-5.2,2.1l1,1.7c0.7,1.1,1.5,2.2,2.5,3.2c0.9,1,2,2,3.1,2.9l1.8,1.3l2,1.2l2.1,1.1l2.7,1.2
		c2.7,1.1,6.6,2.1,11.7,2.9c4.4,0.6,7.5,1,9.2,1.1c3.6,0.3,5.9,0.4,6.8,0.2c0.2-0.2-0.2-0.5-1.3-1.1c-5.1-1.7-8.6-3-10.4-3.7
		c-2.7-1.1-6.4-2.7-11-5c-1.1-0.5-3.3-1.8-6.8-3.9C498.9,302.7,496.1,300.9,494.7,300.2z"/>
	<path class="st19" d="M173.4,224.9l-0.5,1.2c-0.2,0.9-0.2,2,0.1,3.2l0.7,2c0.6,1.4,1.4,3,2.5,4.7c1.1,1.7,2.5,3.7,4.1,5.7
		c1.7,2.3,3.5,4.3,5.6,6.2c4.3,4,8.5,7.3,12.6,9.9c2.8,1.8,7.6,4.2,14.4,7.2c-1.5-0.9-3.9-2.8-7.2-5.6c-1.9-1.7-3.8-3.4-5.7-5.4
		l-4.6-4.8C181,233.3,173.7,225.2,173.4,224.9z"/>
	<path class="st19" d="M114.3,188.5l-0.9,0.6c-1.7,1.3-3.1,2.9-4.1,4.8c-1.1,1.9-1.6,3.4-1.5,4.8c0.1,3,0.6,5.7,1.6,8.1
		c0.6,1.6,1.4,3,2.3,4.4l1.4,1.9l1.6,1.8c1.1,1.1,2.3,2.1,3.6,3.1c1.3,0.9,2.7,1.7,4.3,2.4l18.3,6.3c-9.1-6-15.2-11.3-18.3-15.8
		l-1.5-2.3l-0.7-1.3c-1-2.2-1.9-4.2-2.6-6c-1.2-3.7-2-6.1-2.3-7.1c-0.1-0.3-0.4-2-0.8-4.8C114.6,188.8,114.5,188.6,114.3,188.5z"/>
	<path class="st19" d="M49.3,135.4L49.3,135.4c-0.3,0-0.5,0.1-0.6,0.5c-0.2,0.8-0.4,1.9-0.5,3.3c-0.2,1.9-0.3,3.9-0.1,6
		c0.5,4.6,1.4,7.9,2.6,10.1c2.6,4.7,5.1,8.3,7.6,10.8c1.3,1.4,2.8,2.7,4.3,3.9l2.3,1.7c1.6,1.1,3.3,2,5,2.8l-1.3-2.5
		c-1.4-1.6-3.7-5-7-10.2c-1.9-3.1-3.8-6.5-5.7-10.2c-1.2-2.2-2.2-4.5-3.2-6.9C51.9,143.1,50.7,140,49.3,135.4z"/>
	<path class="st19" d="M25.8,255.5L25.8,255.5c0.1,0.1,0.2,0.1,0.2,0.1c0,0,0.1,0,0.2,0.1l0.1,0L25.8,255.5L25.8,255.5z"/>
	<path class="st19" d="M11.6,206.6L11.6,206.6c-0.2,0-0.4,0.4-0.5,1.1c-0.7,2.6-1.3,4.8-1.7,6.9c-0.4,1.9-0.6,3.8-0.7,5.7
		c-0.1,1.9-0.1,3.7,0,5.6l0.3,2.8c0.2,1.9,0.6,3.7,1.1,5.5c3,10.5,8.5,18.2,16.6,23.3l0.3-1.4c-5.2-10.4-9.1-20.3-11.9-29.7
		c-0.7-2.2-1.3-5-1.8-8.2c-0.5-3.3-1-7-1.5-11.2C11.7,206.7,11.6,206.6,11.6,206.6z"/>
	<path class="st19" d="M72.8,285.2l-0.2,0c-0.6-0.1-1,1.1-1.1,3.4c-0.4,5.3-0.4,8.9-0.2,10.9c0.3,2.9,0.9,6.3,1.8,10.2
		c1,4,1.8,6.4,2.4,7.5c1.4,3.4,3.3,6.1,5.5,8.3l1.8,1.5c1.2,1,2.5,1.8,3.9,2.4l4.5,3.2c-4.3-8.6-7.2-14.9-8.7-19
		c-1.2-3-4.1-11.9-8.7-26.6C73.3,285.8,73,285.2,72.8,285.2z"/>
	<path class="st19" d="M137.2,326.1L137.2,326.1c-0.2-0.1-0.4,0.3-0.4,1c-0.3,1.9-0.6,4.1-0.8,6.5c-0.4,5-0.6,8.8-0.5,11.3
		c0.1,2.4,0.3,4.8,0.7,7c0.2,1.1,0.4,2.2,0.7,3.2c0.3,1,0.6,2,0.9,3l0.5,1.4c0.6,1.7,1.5,3.5,2.6,5.2l1.8,2.6
		c1.3,1.7,2.8,3.5,4.6,5.2c3.5,3.4,7.9,6.9,13.1,10.3c-3.8-6.1-7.1-12.7-10.1-20.1c-1.6-3.9-3.2-8.1-4.9-12.7c-1.6-4.6-3.3-9.6-5-15
		l-2.6-8.3C137.5,326.3,137.3,326.1,137.2,326.1z"/>
	<path class="st19" d="M218.6,358.5L218.6,358.5c-0.4-0.2-0.8,0.2-1.1,1.1c-0.6,1.9-1.1,4.3-1.5,7.2c-0.5,2.9-0.5,6-0.3,9.3
		c0.3,2.6,0.8,5.2,1.6,7.8c0.5,2,1.9,5.3,4.4,10.1c1.2,2.1,2.7,4.1,4.5,6.1l2.9,3c2,1.9,4.3,3.9,6.9,5.7c2.6,1.9,5.4,3.7,8.5,5.5
		c1.8,1.1,6.5,3.5,14.1,7.1c-3-2.2-6.1-5.1-9.4-8.8c-1.7-1.8-3.4-3.9-5.1-6.1c-4.5-5.9-7.2-9.7-8.3-11.3c-2.5-3.9-5.1-8.7-7.8-14.4
		c-2-4.2-4.5-10.5-7.6-18.9C219.3,359.4,218.7,358.3,218.6,358.5z"/>
	<path class="st19" d="M277.5,378.9l-0.1,0c-0.4-0.1-0.5,0-0.4,0.4c0.1,0.4,0.5,2,1.4,4.8c1.3,3.9,3,7.9,5,12
		c3.1,6,6.9,11.2,11.3,15.7c3.1,3.4,7.2,6.6,12.4,9.5c8,4.4,14.4,7.3,19.1,8.6c1.4,0.4,2.9,0.7,4.7,0.9l-6.2-2.9
		c-3.7-2.5-8.7-6.8-15.1-12.8c-2.9-2.8-5.7-5.7-8.3-8.7c-3.2-3.5-10-11.6-20.3-24.1C279.3,380.2,278.1,379.2,277.5,378.9z"/>
	<path class="st19" d="M335.2,399.1l-0.2,0.1c-0.5,0.2-0.6,0.9-0.1,1.9c1.9,4,4.2,8.2,7.1,12.8c0.8,1.4,3.5,4.5,8.1,9.2
		c0.4,0.6,2.3,2.3,5.7,4.9c4.2,3,8.9,5.6,14.2,7.6c6.8,2.5,13.6,4.1,20.4,4.9l-5.5-5.2c-11.6-4.8-19.6-8.8-24-11.9
		c-3.9-2.8-7.4-5.8-10.7-8.8c-4.9-5-7.9-8.1-9-9.3c-1.8-2-3.2-3.5-4.1-4.6C336.2,399.7,335.5,399.2,335.2,399.1z"/>
	<path class="st19" d="M469.3,432.7l-3.5-0.5c-4.7-0.8-9.7-1.8-14.9-3c-2.6-0.6-5.3-1.3-8.1-2c-2.7-0.7-5.6-1.5-8.4-2.3
		c-0.4-0.1-0.9-0.3-1.7-0.5c-3.5-1.2-7.8-3-12.8-5.2c-1.4-0.7-2.9-1.3-4.2-2l-9.2-4.8c-0.7-0.4-1.1-0.5-1.1-0.4
		c1,2.5,3.4,5.5,7.1,9.2c0.4,0.5,2.6,2.5,6.6,6c1.5,1.1,3.1,2.2,4.7,3.2c7.8,5,16.3,8.6,25.5,10.6c8.8,1.6,16.9,1,24.2-1.8l2.7-1.2
		L469.3,432.7z"/>
	<path class="st19" d="M537.4,422.6l-14.1-4.3c-4.5-0.8-12.2-2.5-23-4.9c-2.9-0.7-8.7-2.2-17.3-4.5c-0.7-0.2-1-0.2-1.1-0.2
		c-0.5,0.2-0.2,0.8,0.9,1.8c3.1,2.5,5.3,4.2,6.8,5.1c4.6,2.7,9.3,4.7,14.2,6.2c2,0.6,4.1,1,6.2,1.3c1,0.2,2.1,0.3,3.2,0.4
		c2.7,0.2,4.3,0.3,4.8,0.3c8.8,0,13.9-0.1,15.1-0.3C535.9,423.2,537.2,422.9,537.4,422.6z"/>
	<path class="st19" d="M589.7,394.2l-13-0.1c-9.4,0.3-20.4,0.4-33,0c-2.2,0-4,0.2-5.5,0.5c-0.6,0,0.4,0.6,3.1,1.7
		c1.7,0.7,4,1.5,7,2.5c0.9,0.2,1.7,0.4,2.5,0.6c2.1,0.4,3.3,0.6,3.8,0.6c1.7,0.2,3.3,0.3,4.9,0.3c2.1,0,4.3-0.2,6.5-0.4l3.3-0.4
		c2.2-0.3,4.4-0.7,6.7-1.2C580.4,397.4,585,396,589.7,394.2z"/>
	<path class="st20" d="M14.2,150.9h-0.4c-0.8,0.5-1.3,1.1-1.5,1.6c-0.8,1.2-1.6,3.2-2.6,5.9c-2.1,6.1-3.7,11.5-4.6,16.4
		c-0.9,3.7-2.2,11.8-3.9,24.4c-0.5,5-0.6,8.9-0.3,11.8c0.2,3.6,0.7,7.6,1.4,11.9c0.1,1.3,2.1,6,6,14.1c2.8,5.7,5.4,9.9,7.8,12.8
		c2.7,2.9,4.5,4.2,5.5,4.1c-3.4-5.8-5.5-9.8-6-12c-2.5-7.8-4-14.8-4.4-21.1c-0.3-1.3-0.1-6,0.5-14.1c0.4-6.7,0.7-10.3,0.8-10.8
		c0.3-3.9,0.6-6.4,0.9-7.7c0.3-1.5,1-3.4,2.1-5.7c0.6-1.5,2.6-5.1,5.9-10.7c0.2-0.6,0.4-1.3,0.4-2c0-0.7-0.1-1.4-0.4-2.2
		c-1.8-4.2-3.4-8.6-4.7-13.1C15.9,152.5,15.1,151.5,14.2,150.9z"/>
	<path class="st20" d="M210.2,362.1l-0.6-0.1c-0.8,0-1.6,0.5-2.4,1.5c-0.7,0.6-1.8,2.3-3.3,5.1c-1.3,2.8-2.3,6.5-3,11.2
		c-0.2,0.8,0,3.1,0.5,7c0.3,1.6,0.7,3.1,1.2,4.7c1,3.1,2.4,6.2,4.3,9.3c0.2,0.6,1.7,2.4,4.3,5.4c1.1,1.2,2.4,2.3,3.8,3.5
		c2,1.8,6.1,4.5,12.1,8.2c7.8,4.8,16.6,8.6,26.4,11.3l-17.9-10.1c-5.1-4-9.8-9.3-14.2-15.9c-5.2-8-8.3-14.6-9.3-19.9
		c-0.6-2.2-1.2-4.9-1.7-8.1c-0.4-2-0.2-5.8,0.3-11.6C210.7,362.7,210.6,362.2,210.2,362.1z"/>
	<path class="st20" d="M273.4,384.1l-0.6,3.1c-1.5,8-2.2,14.9-2.1,20.5c0,4.7,1.1,10.4,3.2,17.1c0.1,0.7,0,1.3-0.2,1.7
		c-1.7,2-4.5,3.1-8.4,3.2c-3.2,0.1-7.8-0.8-14-2.4c-0.6,0-0.8,0.1-0.6,0.4c3.4,1.9,8.2,3.7,14.6,5.4l53.9,12.3
		c2.2,0.4,4.7,0.4,7.3,0.1c1.7,0,5.4-0.9,11.1-2.6c-3.4,0.8-7.5,0.8-12.1-0.1c-5.2-1.2-10-2.7-14.4-4.5c-9.1-3.6-17.7-8.7-25.8-15.2
		c-4.5-3.8-7.8-8.5-9.9-14c-1-2.8-1.8-5.8-2.2-9l-0.4-5C272.7,391.6,272.9,388,273.4,384.1z"/>
	<path class="st20" d="M208.7,389.6l-1.2,1.7c-0.9,1.1-2,2-3.3,2.8c-1.3,0.8-2.8,1.4-4.5,1.9l-2.8,0.6c-1.9,0.3-4.1,0.5-6.5,0.5
		l-3.7-0.1c-1.5-0.1-3-0.3-4.5-0.6c-3-0.4-6-1-9-1.7c-1.5-0.4-3-0.8-4.5-1.2c-3.2-0.9-5.4-1.7-6.8-2.2c-5.8-2.2-12.5-5.5-20.2-10.1
		c-0.8-0.2-1.4-0.1-1.7,0.2c0.5,1.6,3.6,4.5,9.4,8.9l2.4,1.6c1.6,1,3.3,2,5,2.8c1.5,0.7,3.5,1.6,6.1,2.7c4.4,1.6,10.9,3.4,19.5,5.2
		l20.2,2.5c1.9,0.3,3.7,0.7,5.6,1.3c2.6,0.9,5.3,2,8.1,3.5c5.7,3,10.3,5.6,13.9,7.8L208.7,389.6z"/>
	<path class="st20" d="M128.6,318.1l-2.1,1c-5.3,3-8.6,9.1-9.8,18.3c-0.3,1.5-0.2,5.4,0.3,11.8c0.3,2.5,0.8,4.9,1.4,7.1
		c1.2,4.6,3.1,8.8,5.7,12.6c4.9,8.1,12.7,15,23.5,20.8c3.6,1.9,7.5,3.7,11.8,5.4l6.6,2.4c4,1.4,9.7,3,17,4.8l-26.7-11.9l-3.4-2
		c-2.2-1.4-4.3-3-6.2-4.8l-2.8-2.8c-1.8-2-3.4-4.2-4.9-6.5c-4.3-6.6-7.8-16-10.5-28.2c-0.4-1.6-0.8-5.2-1-10.6c0.1-4,0.6-9.4,1.7-16
		C129.1,318.8,129,318.4,128.6,318.1z"/>
	<path class="st20" d="M71.2,281.2l-1.4,0.1c-2.8,0.4-5.3,2.2-7.7,5.3c-2.4,2.8-4.1,6.9-5,12.2c-1.4,7,1.1,15,7.3,24
		c5.7,7.3,11.2,12.6,16.6,16c2.3,1.5,5.3,2.9,8.8,4.4c4,1.5,11.3,3.9,21.8,7.1c1.8,0.7,3.4,1.4,4.7,2c3.7,1.5,8,5.4,12.9,11.6
		l-3.4-18.8c-11.5-0.9-21.5-3.5-30.2-7.8c-6.8-3.3-11-5.8-12.6-7.4c-2.3-1.8-4.5-4.2-6.7-7.1c-2.6-4.2-4.5-10.1-5.8-17.7
		c-0.5-5.3-0.1-12.6,1.4-22C72,282.1,71.7,281.5,71.2,281.2z"/>
	<path class="st20" d="M9.5,183.8l-0.4,0c-1.3,0.7-3.1,5.2-5.4,13.5c-1.8,6.8-3,13.9-3.5,21.2c-0.9,12.9,0.9,24,5.2,33.4
		c4.8,9,10.1,16.3,15.9,21.7c3.9,4,15.4,12.7,34.4,26.1c2.1,1.7,4.9,4.8,8.3,9.2l2.2-16.5c-5.4-2.7-10.4-5.6-15-8.7l-6.7-4.7
		c-4.3-3.2-8.2-6.5-11.7-10c-3.5-3.5-6.7-7.1-9.5-10.9c-2-2.4-5.2-7.7-9.7-15.9c-2.8-6-4.6-13.8-5.3-23.5c-0.3-4.9-0.4-10.2-0.2-16
		c0.2-5.8,0.7-12,1.4-18.8L9.5,183.8z"/>
	<path class="st20" d="M16,252.2L16,252.2c-0.1,0-0.2,0-0.2-0.1l0.1,1l0.3,1.1c0.3,0.8,0.7,1.7,1.3,2.6c1.8,2.6,3,4.3,3.8,5
		c1.1,1.3,2.3,2.6,3.7,4c2,2.1,5.9,5.8,11.9,11.1c3.5,3.1,7.2,6.2,11.2,9.4l18.4,16.1c-0.8-3.7-0.6-8.7,0.8-15
		c-0.1-0.9-0.5-1.7-1.1-2.4c-0.4-0.5-1.3-1-2.7-1.8c-7.5-3.1-12.8-5.4-16.1-7c-3.2-1.6-5.7-2.9-7.3-4c-5.1-3.5-9.1-6.4-12-8.8
		c-2-1.6-5.7-5.2-11-10.8C16.7,252.6,16.4,252.4,16,252.2z"/>
	<path class="st20" d="M228.9,1.6l-21,0.2c-13.7,0.4-26.7,1.3-39.1,2.8l-18.1,2.7c-11.7,2.1-22.8,4.7-33.2,7.9
		C96,21.6,78.3,30.2,64,40.8C46.6,55.6,35.6,74.4,31,97.2c-1.4,7.8-1.3,14.9,0.1,21.3c0.5,3.6,4.4,12.3,11.6,26.1
		c-0.8-2.6-1.3-7.4-1.5-14.3c0.2-4.8,1.6-7.7,4.1-8.4c5.1-1.4,14.5,4.7,28.2,18.5c-6.1-7.5-10.7-15.4-13.6-23.6
		c-1.5-4.1-2.5-8.3-3.2-12.7c-0.8-2-0.9-8.7-0.2-20.1c0.5-3.7,1.5-7.4,2.8-11l2.4-5.4c1.8-3.6,4-7.1,6.6-10.7
		c5.2-7,12.1-13.9,20.7-20.7c14.7-9.5,32.1-17.1,52.2-22.7c10-2.8,20.7-5.1,32.1-7l17.6-2.4C202.8,2.9,215.5,2,228.9,1.6z"/>
	<path class="st21" d="M643.3,332.7L643.3,332.7c-0.2,0-0.4,0.1-0.6,0.3c-0.1,0.6-0.3,1.3-0.5,2.1l1.5-1.1c0-0.4,0-0.7-0.1-0.9
		l0-0.2l0-0.1l-0.1-0.1L643.3,332.7L643.3,332.7L643.3,332.7z M642.1,335.2L642.1,335.2L625.7,347c-0.4,0.7-2.9,2.8-7.7,6.2
		c-2.1,1.4-4.4,2.7-6.9,4.1c-5.1,2.7-11.2,5.4-18.3,8.1c-6.4,2.4-12.2,4.4-17.3,5.8l-31.4,7.1c-1.3,0.3-2,0.6-2.1,0.9
		c1.2,1,5.6,1.2,13,0.7c3-0.2,10.1-1.4,21.1-3.6c3.4-0.5,18.1-5.2,44.1-14.1c0.8,0.3,1.2,1.2,1.1,2.9c0.2,0.9-0.6,4.1-2.2,9.6
		c-1.2,2.8-2.1,4.8-2.7,6c-1.3,2.3-3.9,6.1-7.7,11.7c-0.3,0.5-0.3,0.6,0,0.5c5.1-6.1,11-14.8,17.9-26.1c1.6-2.9,4-8.2,7.1-15.9
		l7.6-12.7C641.5,337.2,641.9,336.2,642.1,335.2z"/>
	<path class="st21" d="M450.7,49.8l-0.7-0.2c-1.7-0.6-3.2-1-4.4-1.4l28.8,13.9c7,2.1,13.8,4.3,20.3,6.5c5.7,1.9,11,3.8,15.9,5.7
		L497.7,68c-11.8-4.8-18.5-7.5-20.1-8.1c-4-1.6-7.6-3-10.9-4.3C460.1,53.1,454.7,51.1,450.7,49.8L450.7,49.8z M510.6,74.3
		L510.6,74.3l8.9,4.4c18.8,10.2,35.3,21.4,49.5,33.6c3.6,2.9,7.6,6.4,11.9,10.5c11.3,11.3,18.4,18.8,21.5,22.4
		c2.2,2.2,10.9,12.3,25.9,30.5c2.4,3,4.7,6.2,6.9,9.7c4.4,7,8.4,15,11.9,23.9c1,1.9,3.4,9.2,7.3,21.9c0.8-27.2-13-55.8-41.5-85.8
		c-16.3-16.9-33.2-31.7-50.8-44.3C546.8,90.2,529.7,81.2,510.6,74.3z"/>
	<path class="st20" d="M637.5,256.1l-7.1,4.8c-4.7,2.9-9.8,5.6-15.5,8.1c-2.2,1.5-11.9,4.7-29.1,9.5c-14.5,3.5-31,6.1-49.6,7.7
		c-18.9,1-38,0.6-57.3-1.2c-9.9-0.6-39-4.1-87.4-10.6c-3.3-0.5-5.6-0.4-7.1,0.3c-0.7,4.3,23.3,10.5,72,18.8
		c10.8,1.8,27.9,3.2,51.3,4.2c13.3,0.3,26.2,0,38.8-1c9-0.8,17.5-2.2,25.5-4l11.6-3.1c7.5-2.3,14.5-5.1,21-8.3
		C617.6,274.9,628.5,266.4,637.5,256.1z"/>
	<path class="st20" d="M68.5,123.2l3.3,5.4c9,14.3,18.9,26.7,29.7,37.4c8.7,7.7,17.4,14.8,26.1,21.3c15.3,10.9,26.2,18,32.8,21.4
		c29.8,15.4,58.2,27.2,85.1,35.6c15.6,4.3,30.6,8.7,45.1,13.2l23.7,5.3c17.6,2.9,26,3.4,25.2,1.5c-0.2-0.9-2.4-2-6.5-3.3
		c-24.1-6.2-41.2-10.9-51.2-14.2c-20.5-6.6-37.7-12.4-51.6-17.5c-23.5-8.7-44.4-17.9-62.5-27.8c-14.6-7.9-27.2-16-37.9-24.2
		c-5.3-4.1-10.1-8.3-14.4-12.6l-6.1-6.4L68.5,123.2z"/>
	<path class="st20" d="M572,287.7l-39.6,5.9c5.9,1.4,10.9,3.7,15,6.7c0.6,0.5,1.2,1.3,1.9,2.5c1.7,4.4,2.7,6.8,3.2,7.4
		c1.4,1.8,3.4,3.7,6.1,5.5c2.5,1.9,6.9,3.6,13.2,5.1c0.3,0,0.3-0.3-0.1-0.8c-1.2-0.8-2.3-1.6-3.4-2.4c-2.6-2.1-4-3.3-4.4-3.7
		c-1.8-1.7-3.3-3.4-4.7-5.1c-1.1-1.4-1.9-2.8-2.5-4.1c-0.3-0.7-0.5-1.3-0.7-2c-0.2-0.3-0.3-1.3-0.4-2.9c0-0.6,0.1-1.2,0.3-1.8
		c0.5-1.4,0.8-2.2,1.1-2.4c0.5-0.9,1.6-1.9,3.3-3c0.8-0.5,2.2-1.2,4.1-2l3.4-1.3L572,287.7z"/>
	<path class="st20" d="M650.9,238L650.9,238c-0.2-0.1-0.5,0.1-1,0.6l-15.2,18.2c-1.2,1.4-3.8,3.7-7.7,7c-2.9,2.4-9.8,5.1-20.8,8.2
		l2.3,3.6c-2.4,0.6-4.1,1.7-5.2,3.5c-0.6,0.9-1,1.9-1.2,3.1c-0.2,1.2-0.3,2.5-0.2,3.9l0.2,2.3c0.1,0.9,1,3.1,2.6,6.6
		c0.7,1.4,1.5,2.6,2.3,3.9c1.7,2.4,3.7,4.5,6,6.4c0.1-0.2,0.2-0.4,0.1-0.7c-0.5-3.1-0.7-5.3-0.8-6.5c-0.1-3.3-0.1-5.3,0-6
		c0.4-4.3,1.3-7.6,2.9-10c1.1-1.9,3.3-4.4,6.6-7.5l13.1-9.6c1.4-1.2,4-3.9,7.6-8.3c0.9-0.9,2.5-3.1,5-6.8c0.9-1.4,1.6-2.8,2.2-4.2
		c0.6-1.3,1-2.6,1.2-3.9l0.3-1.8l0-1.7L650.9,238z"/>
	<path class="st21" d="M434.6,281l-2.8-0.4l-2.6-0.3l-2.5-0.2l-2.3-0.1l-2.2,0l-2,0.1l-1.9,0.2l-1.7,0.4l-1.6,0.5
		c1.8,0.3,5.4,0.5,10.6,0.6L434.6,281L434.6,281L434.6,281z M415.2,281.1L415.2,281.1l-2.4-0.3c-6-0.8-11-1.3-14.8-1.3
		c-1.1,0-1.6,0.1-1.8,0.2c-0.2,0-0.4,0.3-0.7,0.8c-0.1,0.3-0.2,0.7-0.1,1.2c1.1,3.7,1.7,6.1,1.9,7.4c0.7,5.5,1.3,8.8,1.6,9.8
		c1.6,4.4,2.6,6.9,2.9,7.4c0.6,1.2,1.1,1.9,1.5,2c0.4,0,0.7-0.1,0.9-0.2c0.2-0.1,0.4-0.4,0.6-0.7c0.1,0,0.4-0.7,0.9-2
		c0.2-0.6,0.4-1.2,0.6-2c0.3-1.2,0.5-2.6,0.7-4.3c0.2-1,0.4-3.6,0.7-7.9c0.2-1.6,0.6-3.2,1.2-4.5c0.6-1.4,1.3-2.5,2.1-3.2
		c0.4-0.4,1-0.8,1.9-1.4l0.8-0.4L415.2,281.1L415.2,281.1z"/>
	<path class="st20" d="M494.7,289.6l-27.9-3.8c-2.5-0.4-6.3-0.4-11.5-0.1c-0.7,0.1-1.2,0.3-1.6,0.5c-0.4,0.1-0.5,0.6-0.5,1.5
		c0,0.3,0.7,1.3,2.1,3.1c0.6,0.9,3.5,4.3,8.5,10.2l7.1,9.7c1.8,2.1,3.2,3.6,4,4.5c0.4,0.4,0.8,0.6,1.1,0.6c0.4,0.1,0.6-0.1,0.6-0.7
		c-0.9-4.5-1.2-7.7-1.1-9.6c0.1-2.2,0.9-4.4,2.4-6.7c0.7-1,1.5-1.9,2.4-2.8c0.6-0.7,1.9-1.6,4-2.8c2.1-1.2,3.9-2,5.5-2.7
		c0.8-0.3,1.5-0.6,2.2-0.7l1-0.2C493.6,289.6,494.2,289.6,494.7,289.6z"/>
	<path class="st22" d="M497.4,105.4l-8.9-2.7c-28.2-8.6-41.6-12.7-40.2-12.5l-69.7-16c29.4,10.7,47.7,17.7,55,20.9
		c11.5,5.2,17,9.3,16.7,12.3c-0.7,1.8-7.6,2.5-20.8,1.9c-8.9-0.3-24.2-1.7-45.8-4c-4.1-0.3-8.1-0.5-11.9-0.5
		c-6.5,0.3-9.7,1.2-9.8,2.6c-0.8,2.2,4.1,5.8,14.8,10.7l76.2,34.3c7.4,3.2,12.9,5.3,16.6,6.5c5.4,1.9,7.9,1.4,7.5-1.2l-13-19.7
		c-0.9-2,0.3-3.5,3.7-4.4c1.1-0.5,6-0.2,14.8,0.9c6.2,0.8,18.2,2.8,36.1,6.1c6.6,1,11.5,1.6,14.7,1.8c8,0.4,13.1-0.8,15.2-3.7
		c1.2-1,0.1-3.4-3.3-7.2c-1.5-1.6-3.3-3.2-5.5-4.9l-3.6-2.6c-5.1-3.5-11.6-7.1-19.6-11C510.2,110,503.8,107.5,497.4,105.4z"/>
	<path class="st23" d="M359.3,53.7l-24.4-5.4c1.1,0.3,2.8,0.7,5.2,1.2c5.8,1.4,9,2.2,9.5,2.3C351.5,52.2,354.8,52.9,359.3,53.7
		L359.3,53.7z M334.6,48.2L334.6,48.2l-0.5-0.1c-1.3-0.3-2.4-0.6-3.2-0.8c-0.3-0.1-0.5-0.1-0.7-0.2c-0.6-0.1-1-0.2-1.1-0.2
		c-0.5-0.1-0.9-0.2-1.3-0.2L334.6,48.2L334.6,48.2z"/>
	<path class="st23" d="M406.1,122.2l1.1,0.4c2.9,1.2,5.3,2.3,7.3,3.4c2,0.3,3.7,0.5,5,0.7L406.1,122.2L406.1,122.2z M414.4,126
		c6.7,3.6,8.2,6.5,4.6,8.8l-1.6,0.8l-3.7,0.7c-6.3,1.2-12.2,2.1-17.6,2.9c-5.7-2.2-11.3-4.8-16.7-7.9c-0.8-0.5-1.5-1-2.2-1.4
		l-2.4-2.2l-0.8-1.8l0.9-1.3l2.5-0.9l4.1-0.4l5.8,0l7.4,0.4l9,0.9L414.4,126L414.4,126L414.4,126z M396.2,139.3L396.2,139.3
		l-4.7,0.7c-13,1.8-29.7,3.8-49.9,6l-45.7,9.4c-3.3,0.8-5.3,1.8-5.9,3.1c-0.6,1.1,1.3,2.6,5.7,4.4c41.1,13.5,66.8,22.6,76.9,27.4
		c8.9,4.5,13.2,6.9,13.1,7.1c1.9,1.3,3.3,2.4,4.3,3.5c2,2,2,4.1,0,6.1c-1.7,1.1-14,1.2-37,0.3c-21.2-1.9-45.6-3.8-73-5.5
		c47.3,8.8,82.7,14.8,106.2,17.9c30.2,4.4,61.9,8.5,95.1,12.2c1.2-1.2-0.1-3.1-4-5.7c-2.9-2-13.7-8.1-32.3-18.3
		c-3.5-2.9-4.4-4.9-2.9-5.8c0.8-1,6.1-1.8,16.1-2.2c23.6,0.9,37.2,1.3,40.8,1.4c6.7,0.2,11.1,0.2,13.2,0c3-0.2,4.3-1.4,4-3.4
		c-9.6-7.9-23.3-16.3-41-25C454.2,163.1,427.9,151.8,396.2,139.3z"/>
	<path class="st22" d="M417.5,125.4l-3.4-1.1c-2.3-0.7-4.7-1.3-7.1-1.9l-3.8-0.8c-5.1-1-10.6-1.9-16.4-2.5c-5.4-0.7-12.6-0.7-21.7,0
		c-1.5,0-4.2,0.5-8.2,1.5c-1.4,0.5-2.4,1-3.2,1.6c-2.9,2.1-3.4,4.8-1.7,8.2c0.6,1.1,1.5,2.3,2.6,3.5c2.7,2.8,4.4,4.3,5.2,4.6
		c0.3,0.4,3.1,2,8.4,4.8c2.3,1.2,5,2.4,7.9,3.7c8.1,3.9,30.6,11.9,67.3,24.1c5.2,1.6,9.5,2.4,12.9,2.4c2-0.8,3-1.6,2.8-2.3
		c0.2-0.8-0.1-1.8-0.9-3l-17.2-16.9c-1.2-1.3-1.9-2.5-2.1-3.7c-0.4-0.9,0.4-2,2.3-3.2c0.8-0.8,5.1-2.4,12.9-4.9l-34.2-13.4
		L417.5,125.4z"/>
	<path class="st22" d="M423.8,113.6l-15.6-4C366.3,99,322.4,89,276.3,79.6c-7.8-1.3-12.6-2.1-14.2-2.2c-6.4-0.9-12.8-1.5-19.4-2
		c-9.9-0.9-16.5-0.9-19.7,0c-5.3,1.2-4.1,4,3.6,8.4c1.2,0.6,2.5,1.2,4,1.9c12.1,4.5,27.6,10.4,46.6,17.8c10.1,4,18.3,7.3,24.6,10
		c15.2,6.8,23.2,11.1,24,12.7c1.9,2.2,0.3,3.8-4.9,4.7l-34.1-1.7c-9.2,0.1-18.4,0.9-27.5,2.3c-2.4,1.1-3.7,2.1-3.7,3.1
		c-0.4,0.3,0.3,1,2,2.3c6.6,2.8,14.4,5.3,23.2,7.5c4.9,1.6,20.4,4.8,46.5,9.8c5.6,1.2,16.5,2.8,32.9,4.9c8,1,16.5,1.1,25.6,0.3
		c2.1,0.1,9.2-1,21.4-3.2l7.6-1.7L423.8,113.6z"/>
	<path class="st22" d="M353.3,41.9l-1.3-0.4c-19.1-6.3-30.4-9.9-33.8-10.8c-7.1-2.2-13.7-4.1-19.8-5.8c-12.2-3.4-22.4-5.8-30.7-7.4
		c-20.2-3.4-37-4.3-50.7-2.8c-3.2,0.4-6.1,1-8.7,1.8l0,0.8c0.2,1,1.4,2.2,3.7,3.5c0.2,0.3,2.5,1.3,6.7,3.1l3,1.1
		c2.1,0.7,3.8,1.2,5.1,1.5c20.3,4.5,38.9,9.2,55.8,13.9c10.4,2.9,16.5,5.1,18.3,6.4c3.2,2.2,1.8,3.3-4.2,3.3
		c-9.4-0.8-21.4-2.2-36-4.3c-5.6-0.5-9.2-0.5-10.9,0.1c-1.7,0.6-0.7,2,2.8,4.2l2,1.1c5.1,1.9,8.9,3.2,11.4,4.1
		c3.1,1.1,6.3,2,9.7,2.9c-0.4-0.3,6.3,1.3,20.1,4.7c6.4,1.5,34.7,8.7,85,21.5c8.6,2.3,20.2,5.7,34.7,10.2
		c13.7,4.2,28.4,9.3,44.2,15.4c7.8,3.3,16.1,7.7,24.9,13.4l10.6-14.4c-29.4-18.4-51.4-31-66.1-37.8l-16.1-7.2
		c-4.1-1.7-8.6-3.6-13.7-5.5c-13.3-5-21.9-8.2-25.6-9.4C367.5,46.7,360.6,44.3,353.3,41.9z"/>
	<path class="st19" d="M415.7,46.9l-3.4-1.1c-9.2-3-19.9-6.3-32.2-9.9l-23.5-6c-14-3.5-24.8-6.1-32.4-7.8
		c-4.9-1.1-11.9-2.4-21.1-3.9c-14.6-1.9-27.8-2.5-39.8-1.7c-3,0.8-4.1,1.7-3.5,2.6c0.4,1.7,2.5,3.6,6.4,5.7
		c4.3,2.5,12.7,5.7,25.2,9.5c3.8,1.2,9.5,3,16.9,5.2c22.7,6.4,46.4,13.3,71,20.8c14.5,4.5,27.9,9,40,13.3c13,4.9,25.3,9.9,36.9,14.8
		c9.1,3.7,22.4,9.8,40,18.4l70,26.8c-3.1-4.3-8.5-9.5-16-15.4c-3.8-3-8.1-6.2-12.9-9.6c-1.7-1.4-10.3-7-25.6-16.6
		c-20.8-12-39.5-21.8-56.2-29.5c-5.6-2.6-10.9-4.9-16.1-6.9C430.7,52.1,422.8,49.2,415.7,46.9z"/>
	<path class="st19" d="M467.2,65.8l-0.3-0.1c-7-2.4-13.4-4.3-19.2-5.6c-4.6-1.1-9.8-2.3-15.6-3.5c-0.9-0.2-1.7-0.2-2.4-0.2
		c-2.5,0.6-3.2,2-2,4.2c1.2,1.5,3.4,3.4,6.4,5.6c3.8,2.9,11.4,7.4,22.9,13.7c16.9,8.8,37.5,19.2,61.9,31.1l6.8,3.8
		c5.7,3.1,13.8,8.1,24.3,14.9l60.4,35.6l-20.7-20.2c-10.6-11.8-18.3-20.1-23.3-24.8c-4.1-4.1-10.2-9-18.4-14.8
		c-12.2-8.3-23.5-14.9-33.7-19.9c-1.8-1.1-10.5-5-26.2-11.6C477.7,69.7,470.7,67,467.2,65.8z"/>
	<path class="st19" d="M382.1,55.7l-0.6-0.2c-11-3.1-27.5-6.4-49.5-10c-10.4-1.8-29-3.7-55.7-5.7c-16.1-1-26.3-0.9-30.6,0.3
		c-3.5,1.8-2.7,3.7,2.3,5.5c0.9,0.3,2.2,0.7,4,1.1l79.3,17.2c8.6,1.8,24.9,4.7,48.8,8.7c8.6,1.6,17.5,3.6,26.6,5.8
		c7.6,2,19.9,5.7,36.9,11c33.1,10.5,61.8,19.7,86.1,27.8L389.9,58.6C386.5,57.3,383.9,56.3,382.1,55.7z"/>
	<path class="st19" d="M421.7,130.2l-0.5,0.1c-0.6,0.2-1.1,0.4-1.3,0.8c-0.1,0.2-0.2,0.4-0.3,0.7c0,0.7,0,1.1,0.1,1.1
		c0.4,0.8,1.8,1.7,4.1,2.5c0.7,0.3,1.4,0.5,2.1,0.7c0.6,0.2,1.3,0.4,1.9,0.6l1,0.2c0.7,0.2,1.4,0.3,2.1,0.4c0.3,0.1,1.4,0.3,3.3,0.5
		c2,0.3,4.1,0.3,6.3-0.2l0.8-0.2L421.7,130.2z"/>
	<path class="st19" d="M460.3,117.4l0.4,0.3c1.1,0.8,2.1,1.4,3.1,1.9c1.3,0.6,2.1,1,2.4,1.1c0.5,0.2,1.1,0.5,1.6,0.7
		c1.1,0.5,2.1,0.9,3.2,1.3c1.4,0.5,3,1.1,4.7,1.6c0.9,0.3,1.8,0.6,2.7,0.8c0.2,0.1,0.9,0.3,2.1,0.6c0.5,0.2,1,0.3,1.5,0.4l0.7,0.2
		c0.4,0.1,0.9,0.2,1.2,0.3c0.8,0.2,1.4,0.3,2,0.3L460.3,117.4z"/>
	<path class="st19" d="M385.7,122.4l-1.3-0.4c-2.5-0.8-5-1.4-7.5-1.9c-0.8-0.2-1.7-0.3-2.5-0.4c-0.7-0.1-3-0.4-6.9-0.8
		c-4.3-0.4-9.7-0.8-16.2-1c-2.3-0.1-4,0-5.3,0.3c-3.1,0.8-3.8,2.1-2,3.9c2.2,1.8,6.5,3.8,12.9,5.8c3.5,1.1,6.9,2,10.2,2.6
		c1.6,0.4,5,0.7,10.1,1.1l16.7-6C391.8,124.7,389,123.6,385.7,122.4z"/>
	<path class="st19" d="M346.6,103.2l-1.8-0.6c-1.2-0.4-2.3-0.7-3.4-1c-0.6-0.2-2.2-0.6-4.8-1.1c-1-0.2-2.1-0.3-3-0.5l-4.4-0.5
		c-3.9-0.4-7.9-0.7-11.9-0.9c-1-0.1-4-0.1-9-0.1c-3.9,0-6.2,0.6-7,1.8l0.1,0.6l0.5,0.6l1,0.6l1.4,0.7l1.8,0.7c3.5,1.1,6,1.6,7.6,1.8
		c1.2,0.1,2.7,0.3,4.4,0.4c3.3,0.1,5.9,0.2,7.9,0.2l23.8-1.7C348.5,103.8,347.4,103.4,346.6,103.2z"/>
	<path class="st19" d="M350.9,131l-2.3-0.7c-1.5-0.5-3.1-0.9-4.7-1.3c-0.8-0.2-3.3-0.8-7.5-1.7c-3.5-0.7-7-1.2-10.6-1.6
		c-7.1-0.6-13.8-0.5-20.3,0.4c-2.8,0.5-3.8,1.9-3.1,4.1c0.5,0.8,1.8,1.7,3.8,2.7c1.7,0.8,3.7,1.6,6,2.3c2.4,0.8,5.7,1.5,10,2.2
		c2.3,0.3,4.5,0.4,6.7,0.1l27-4.7C353.9,132.1,352.2,131.4,350.9,131z"/>
	<path class="st19" d="M416.8,159l-1.6-0.2c-4.2-0.6-7.5-0.9-10-0.9c-4.4,0-8.5,0.2-12.4,0.7c-5.5,0.9-7.9,2.4-7,4.4l0.5,0.8
		l1.2,1.3c0.3,0.3,0.8,0.7,1.3,1.1c1.5,1.1,3.8,2.4,6.7,3.8c10.5,4.4,19.3,7.1,26.6,8.2c1.9,0.3,3.5,0.4,4.8,0.4l1.8-0.1l1.3-0.4
		l0.9-0.6l0.5-0.8l0-1.1L416.8,159z"/>
	<path class="st19" d="M297.3,148.4l-3.1-0.6c-8-1.4-14.9-2.2-20.6-2.4c-3.5,0-6.3,0.1-8.3,0.3c-2,0.2-3.3,0.4-3.9,0.7
		c-0.5,0.4-0.5,1.1,0.1,2c0.6,0.8,1.9,1.6,3.7,2.4l1.5,0.6c2.4,0.9,3.7,1.3,4,1.4c1.8,0.5,4.4,1.1,7.9,1.7c3.5,0.7,7.8,1.4,13,2.2
		L297.3,148.4z"/>
	<path class="st19" d="M236.6,130.5L168.9,110c-1.1-0.5-1.8-0.7-2.1-0.8c-0.3,0-0.2,0.2,0.3,0.5c1.6,0.9,4.2,2.2,7.8,3.7
		c3.9,1.6,6.5,2.7,7.7,3.1c2.8,1.1,4.9,1.8,6.4,2.3c7.7,2.2,14.9,4.1,21.8,5.8l5.2,1.3c3.5,0.8,6.9,1.6,10.4,2.4
		C229.9,129.1,233.3,129.8,236.6,130.5z"/>
	<path class="st24" d="M305.8,170.6l-28.9-5.1c-15.8,2.3-24.4,5.9-26,10.7l0.1,3.9l2.8,4.3l5.5,4.8l8.1,5.3l10.8,5.7
		c14.6,6.9,34.6,13.8,60,20.6c19.4,5.1,37.3,9.5,53.8,13.4c13.2,3.2,31.6,7,55.3,11.3c9.2,1.6,18.2,3,27,4.2
		c21.6,2.9,34.2,4.5,38,4.7c16.2,1.6,31.5,2.7,45.9,3.2c-74.9-10.8-122.2-18.5-141.9-23c-38.6-7.5-69.4-15.1-92.5-22.8l-9-3.3
		c-5.7-2.2-10.8-4.3-15.3-6.5c-4.5-2.1-8.4-4.2-11.6-6.3c-6.5-4.1-10.6-8.2-12.2-12.1c0.1-4.6,2.1-7.9,6.1-10.2
		c2-1.1,4.5-1.9,7.4-2.5C290,170.4,295.6,170.2,305.8,170.6z"/>
	<path class="st25" d="M288.3,165.2l-1.5,0.6c-3.9,1.6-6.9,3.6-8.9,5.9L288.3,165.2L288.3,165.2L288.3,165.2z M555.4,259L555.4,259
		l-0.1,0c-32.8-3.2-80-10.2-141.7-21.2c-20.9-4-36.7-7.4-47.4-10.1c-12.7-3.1-24.2-6.3-34.7-9.5c-45.9-14.8-63.8-30.3-53.6-46.5
		l-31.3,19.4c16.6,13.1,41.7,24.9,75.2,35.2c12.9,4.1,29,8.3,48.4,12.5c2.4,0.7,13,2.6,31.8,5.8l25.4,3.8c3.8,0.6,18.6,2.5,44.3,5.5
		c20.5,2.3,32.1,3.5,35,3.6c14,1.2,26,2,36,2.2c5,0.1,9.5,0.1,13.4,0C556.1,259.4,555.9,259.2,555.4,259z"/>
	<path class="st25" d="M572.9,125.9l12.4,9.5c-0.8-0.8-1.6-1.6-2.5-2.4l-1.3-1.1c-0.9-0.7-1.8-1.5-2.7-2.1
		C577,128.4,575,127.1,572.9,125.9L572.9,125.9z M585.4,135.4L585.4,135.4l2.6,2.8c8.1,8.6,13,22.3,14.7,41.2
		c0.4,16.7-3.7,30.3-12.4,40.7c-3.3,3.7-7.4,6.9-12.4,9.7c-3.7,2.4-11,5.2-21.9,8.3c-12.2,2.9-34.7,4.8-67.3,5.8
		c-2.4,0.2-3.6,0.8-3.7,1.7c-0.7,1,1.5,1.9,6.7,2.5c20.5,1.6,32,2.4,34.5,2.2c33.5-2.1,53-4.3,58.6-6.7c1.3-0.1,1.8,0.2,1.5,0.7
		c-7.1,3.2-17.8,5.6-32.1,7.2c-27.4,2.3-50.8,3-70.2,2.3c2.9,3.6,19.2,5.9,49.1,6.9c6,0.1,13.5-0.4,22.4-1.3
		c16.6-2.1,29.9-4.1,40.1-6.1l0.1,0.5c-0.5,1.2-11.3,3.7-32.2,7.5c-5.4,0.9-26.3,2.2-62.8,4c-4.5,0.5-6.2,1.5-5,2.8
		c13.9,5.4,35.3,6.9,63.9,4.6l20.4-3.7c14.2-3.4,21.9-5.5,23.2-6.3c8.3-3,14-6.3,17-9.9c4.6-8.3,7-13.2,7.4-14.7
		c2.6-6.3,4.2-12.4,5-18.2c0.4-2.9,0.5-5.8,0.4-8.5c-0.9-8.1-1.9-14.8-3.2-20.1c-6.4-18.4-11.5-29.5-15.2-33.3L585.4,135.4z"/>
	<path class="st25" d="M631.2,233L631.2,233c-0.7,5.6-1.1,9-1.2,10.2c-0.3,2.7-0.4,5-0.5,6.9c0-1.6-0.5-1.7-1.3-0.5
		c-0.3,0.4-0.6,1-0.9,1.7c-0.5,1.4-1,2.5-1.2,3.3c-0.1,0.3-0.2,0.6-0.2,0.8c0,0.6,0.2,0.7,0.6,0.3c0.1,0,1.3-1.8,3.6-5.6l0,0
		l-0.1,0.8c0.7-1.5,1.2-2.6,1.6-3.3l0,0l-1.5,2.5L631.2,233L631.2,233L631.2,233z M630.1,251.1L630.1,251.1l-0.1,1.6
		c-0.1,0.4-0.1,0.7-0.2,0.9c-0.1,0.3-0.1,0.6-0.2,0.9l-1.2,3.8c-0.2-0.3-0.2-0.6-0.3-0.8l0-0.3l0-0.3l0.1-0.4l0.1-0.5l0.1-0.5
		l0.2-0.6l0.2-0.7l0.2-0.7c0.3-0.8,0.6-1.5,0.9-2.1L630.1,251.1L630.1,251.1L630.1,251.1z M629.6,257.7L629.6,257.7L629.6,257.7
		c-0.2,0.2-0.4,0.5-0.7,1l0.1,0l0.1-0.1l0.1-0.1l0.1-0.1l0.1-0.1l0.1-0.1l0.1-0.1l0.1-0.2L629.6,257.7L629.6,257.7L629.6,257.7z
		 M628.4,258.4L628.4,258.4l-0.3,1.1c-0.1,0.2-0.1,0.3-0.1,0.5c0,0.1-0.1,0.2-0.1,0.5c0,0.1,0,0.1,0,0.2l0,0c0,0,0,0,0,0l0,0
		c0.3-0.6,0.6-1,0.7-1.2c0.2-0.3,0.3-0.5,0.4-0.7l0,0c-0.1,0-0.1,0-0.1,0c-0.1,0-0.1,0-0.1,0c-0.1,0-0.1-0.1-0.1-0.1
		C628.5,258.5,628.5,258.5,628.4,258.4L628.4,258.4z"/>
	<path class="st24" d="M345.1,122.5l-0.9-0.3c-7.7-2.5-13.9-4.3-18.7-5.3c-10.3-2.5-27.6-6.3-52.2-11.5c-5.6-1.4-11.9-3.8-18.8-7.1
		l-3.1,13.1c3.1,1.5,9.5,3.9,18.9,7.2c6.2,2.1,19.9,6.6,41,13.3c1.6,0.5,5.1,1.8,10.6,3.9c2.8,1,6.2,2.7,10.2,5.1
		c2.1,1.4,3.7,2.8,4.7,4.2c1.2,2,0.1,3.5-3.4,4.5c-31.2,4.2-48.1,6.7-50.7,7.6c-3.8,1.8-5.4,3-4.9,3.5c-0.3,0.7,0.7,1.6,3,2.7
		c6.1,1.1,19.7,1.4,40.8,1.1l34.5-1.5c8.1-0.4,13.8-0.5,17.3-0.5c2.1-0.1,3.7-0.5,4.7-1.2c1.6-1.1,1.6-2.7-0.1-4.9l-9.3-9.5
		c-1.5-1.6-2.3-2.7-2.5-3.5c-0.2-0.7-0.1-1.4,0.2-2.1c3.4-3.5,5.1-5.4,5.1-5.7c0.2-0.9,0-1.5-0.5-1.9c-1.2-1.2-3.2-2.3-6.2-3.5
		C357.4,127,350.8,124.4,345.1,122.5z"/>
	<path class="st24" d="M335.4,157l-0.2-0.1c-8.9-2-23.5-5.4-43.6-10.2c-2.5-0.6-6.4-1.4-11.6-2.5l-5.5-0.9l-8.8-1.3l-27.4-3.7
		l-12,11.9c0.7-0.6,1.8-1.1,3.4-1.6l2.6-0.6c2-0.3,4.4-0.6,7.2-0.7c5.2-0.3,13-0.2,23.7,0.4c4.3,0.3,10.4,1,18.3,2.1
		c25.4,4.6,39.8,7.1,43.1,7.5c5,0.6,8.8,0.8,11.5,0.6l1.1-0.1C337,157.7,336.4,157.4,335.4,157z"/>
	<path class="st24" d="M408.7,187.6l-1.4-0.5c-3.9-1.3-8.8-2.8-14.5-4.5c-14.8-4-25.7-6.8-32.7-8.4c-9.1-2.2-18.4-4.3-28.1-6.4
		c-6.7-1.3-13.2-2.4-19.7-3.2c-5.9-0.7-12.7-1.4-20.5-2l-38.5-2.2l-14.3,4.2c20.9,1.4,37.7,3.2,50.4,5.2l49,8.2
		c9,1.5,30.3,5.9,63.9,12.9c9.4,1.6,14.5,2.4,15.2,2.4c2,0.2,2.7,0.3,2.2,0.1l-0.4-0.2c0.7-0.1,1.1-0.2,1.1-0.4
		c0-0.2-0.2-0.5-0.9-0.9c-0.6-0.4-1.6-0.8-2.9-1.4C416.5,190.3,413.8,189.4,408.7,187.6z"/>
	<path class="st24" d="M385.4,190.2l-10-3.3c-26.9-8.5-55.4-15.3-85.5-20.4l-22.3,1.5c5.8,0.8,11.8,1.8,17.8,2.9
		c2.9,0.4,12.1,2.3,27.7,5.9c11.7,2.7,25.6,6.5,41.8,11.4c14.7,4.3,23.6,9,26.6,14.1c0.1,1-1.6,1.7-5.1,2.3c-2.1,0.6-8.8,1-20,1.4
		c-12.8,0.2-37.4-1.2-73.8-4.2c-3.3-0.1-5.8,0-7.4,0.5c-0.2,0.2-0.1,0.4,0.3,0.6l2.7,1.2c5.9,1.7,22.7,5.4,50.5,11.3
		c5.3,1.2,15.4,2.8,30.2,4.8c4.4,0.6,9.2,1.1,14.3,1.5c2.1,0.3,10.8,0.8,26.1,1.3c16.8,0.3,27.3,0.4,31.7,0.3
		c2.3-0.1,4.3-0.3,5.9-0.5c3.3-0.4,5.3-1.1,6-1.9c0.3-1.1,0.1-1.9-0.6-2.2L413.7,205c-2.2-1.1-9.1-4.8-20.8-11.4
		C390.1,192.2,387.6,191,385.4,190.2z"/>
	<path class="st9" d="M28.6,116l-1.4-0.3c-2.7-0.5-5.2-0.2-7.5,0.9c-2.5,1.3-5.1,3.5-7.8,6.7c-0.7,0.9-1.4,1.9-1.9,2.9l-0.8,1.5
		c-0.5,1-0.8,2.1-1.1,3.2c-1.1,3.2-1.5,6.5-1.2,10c0.3,3.5,1.2,7.1,2.9,10.9l1.4,2.9c1.4,2.6,2.8,5,4.2,7.3c3.5,5.2,5.7,8.1,6.4,8.7
		c2.8,3.3,5.7,5.8,8.6,7.6l9.6-34.5c-2.2-5.3-4.9-13.7-8.1-25.1C31.4,117.5,30.3,116.7,28.6,116z"/>
	<path class="st9" d="M644.1,297l-0.3-0.1c-0.9-0.3-1.9-0.4-2.9-0.5c-0.7,0.1-1.3,0.3-1.7,0.6c-11.9,8.1-20.9,13.7-27.1,16.6
		c-5.4,2.2-10.2,3.8-14.7,4.8l15.7,30.4c5.4,0.6,10.5-0.5,15.4-3.4c2.8-1.5,7.6-4.7,14.5-9.7c3.3-1.6,5.5-2.8,6.3-3.4
		c1.9-1.3,3.3-2.7,4.3-4.4c1.1-1.6,1.9-3.2,2.5-4.8l0.7-2.5c0.7-3.3,0.5-6.8-0.7-10.3c-1-3-2.9-6-5.6-9c-0.8-0.8-1.6-1.6-2.4-2.2
		C647.5,298.6,646.3,297.9,644.1,297z"/>
	<path class="st26" d="M402,449.5L402,449.5c-8.5-0.9-13.5-1.4-15.1-1.7c-3.8-0.6-7.7-1.3-11.5-2.4c-3.8-1.1-7.5-2.4-11.1-3.9
		c-2.8-1-8.6-3.7-17.5-8c-1.5-0.6-2.8-1-3.9-1.2c-0.7,0-1.1,0.2-1.3,0.5c-1.4,3-2.4,4.9-3.2,5.5c-0.9,1.1-1.9,1.9-3,2.3
		c-2.4,1.4-6.4,2-12.3,1.8c-3.5-0.2-7-0.6-10.6-1.2c-0.9-0.1-3.6-0.7-8.1-1.7c-1.8-0.5-3.6-1-5.4-1.5c-4.6-1.5-8.1-2.9-10.3-4.1
		c-1.3-0.6-2.4-1.3-3.3-1.9c-2-1.6-3-2.5-3.1-2.8l-2.5,6.3c8.6,3.3,16,5.8,22.1,7.7c4.4,1.3,8.5,2.4,12.2,3.3c1,0.3,3.6,0.8,8,1.5
		c0.8,0.1,3.9,0.2,9.1,0.4c9.2-0.3,14.9-0.4,17.2-0.2c8.4,1.3,15.2,2.3,20.4,2.9l3.9,0.4c2.4,0.3,4.6,0.4,6.4,0.6
		c5.3,0.2,10.6,0.1,15.9-0.4C399.6,451,402,450.3,402,449.5z"/>
	<path class="st26" d="M407.9,436.6L407.9,436.6c-1-0.3-1.7-0.2-2.2,0.2c-2.2,3.2-4.3,5.4-6.4,6.8c-2,1.3-4.6,2.4-7.9,3.1
		c-6.6,1.1-12.5,1.6-17.6,1.3c-7.4-0.5-13-1.7-16.9-3.7l-1.9,3.7c19,3.9,29.9,5.9,32.6,6c1.7,0.2,3.4,0.4,5.1,0.5
		c10.4,0,17.6,0.2,21.5,0.6c1.6,0.1,8,1.4,19,4c1.9,0.4,3.8,0.7,5.7,0.9c1.4,0.2,3.8,0.5,7.3,0.7c2.6,0.1,4.7,0,6.2-0.4
		c2.8-0.7,3.2-1.6,1.3-2.7c-0.3-0.2-0.6-0.3-1-0.5c-4.4-1.3-8.9-2.7-13.5-4.2c-3.9-1.4-7.2-2.7-10-3.9c-3.8-1.7-6.4-3.1-8-4.1
		c-4.5-2.8-8.4-5.3-11.5-7.5C409.2,437.1,408.6,436.8,407.9,436.6z"/>
	<path class="st26" d="M496.5,445.7l-0.3,0c-1,0.3-5.1,2.3-12.4,6c-1,0.4-2.5,1-4.6,1.7c-3.1,1.1-8.1,2-15.2,2.8
		c-4.8,0.5-11.1,0.5-19-0.1c-7.9-1-16.6-2.7-26.2-5.1l-11.1,2.5c4.1,1.6,8.1,2.8,11.9,3.6c4.3,1,9.4,1.9,15.2,2.7
		c7.6,1.1,12.4,1.7,14.5,1.7c3.6,0.1,7.4-0.1,11.3-0.6c4.5-0.7,8.1-1.3,10.8-2c1.2-0.2,5.9-2,14.4-5.5c5.9-3.4,9.1-5.4,9.6-5.9
		C496.8,446.5,497.1,445.9,496.5,445.7z"/>
	<path class="st26" d="M550.9,427.2l-2.6,1.6c-6.2,4-14.1,7.3-23.6,10c-6.1,1.5-16.5,2.5-31.2,2.8c-5,4.7-10.3,8.3-15.9,10.9
		c-5.8,2.5-11.4,4.2-16.9,4.8c-1.5,0.4-5.1,0.7-10.8,1c-2.2,0-4.2-0.1-6.1-0.3c-4.3-0.8-6.9-1.6-7.8-2.3l-28.8-3.8
		c6.6,4.4,18,8,34.2,10.9c7,1.2,16.5,0.9,28.4-1c4.2-0.7,8.1-1.7,11.6-3.2l16.2-8.7c4.2-0.1,8.2-0.5,12.2-1.2
		c3-0.4,7.7-1.8,14.1-4.2c12.5-6.3,19.6-10.1,21.4-11.7C548.8,430.4,550.7,428.5,550.9,427.2z"/>
	<path class="st26" d="M592.5,414.1L592.5,414.1c-5.3,1.3-9.9,2.2-13.9,2.5c-1.8,0.3-7.9,0.5-18.4,0.8c-2.5,0.2-4.5,0.5-5.8,0.9
		c-4.5,6.2-9.8,11.3-15.9,15.2c-3,2-6.3,3.6-9.7,5l-5.3,1.9c-3.6,1.1-7.4,1.9-11.4,2.5l-7.3,5.7c7.7-1,14.8-2.8,21.3-5.3
		c8.3-3.4,13.4-5.8,15.4-7.2c4.5-2.6,9-5.7,13.4-9.3c1.3-0.8,2.8-1.6,4.6-2.4c3-1.2,12.2-3.9,27.7-8.1
		C590.5,415.4,592.2,414.6,592.5,414.1z"/>
	<path class="st26" d="M555.1,379.7l-18,2.3c-55.8,7-94,10.2-114.7,9.5c-11.6,0-23-0.7-34.3-1.9c-14.1-1.8-22.5-3-25.2-3.7
		l-44.8-4.7c27.3,6.2,45.3,9.9,53.8,11c4.7,0.5,9.9,0.9,15.5,1.1c37.6,1,57.9,1.5,60.9,1.4c28.6-0.3,51.6-1.6,68.8-4
		C544.7,386.3,557.4,382.6,555.1,379.7z"/>
	<path class="st27" d="M592.2,411L592.2,411l-13.1,3.2c-3.4,0.8-6.1,1.2-8.1,1.4c-3.1,0.3-5.9,0.4-8.2,0.5c-7-0.2-11.8-0.2-14.4-0.1
		c-1.6,0.1-2.5,0.2-2.6,0.3c-0.3,0.1-0.4,0.3-0.5,0.5c1.1,2.3,1.4,4.4,0.8,6.3c-0.1,1.1-1.4,2.8-3.7,5.1c-3,2.8-7,5.7-12.1,8.7
		c-2.3,1.5-6,3.1-11.1,4.8l4.4-0.9c3.7-1.2,7.6-2.6,11.6-4.2l23.9-11.9c14.5-5.2,22.8-8.3,24.9-9.3c4.7-2,7-3.1,6.9-3.2
		C592,411.7,592.3,411.3,592.2,411L592.2,411z M519.1,441.8L519.1,441.8l-7.9,1.5c0.6-0.1,1.2-0.1,1.7-0.2l0.9-0.1
		c0.6-0.1,1.2-0.2,1.8-0.3c0.6-0.1,1.2-0.3,1.8-0.4l0.9-0.2L519.1,441.8L519.1,441.8z"/>
	<path class="st26" d="M624.4,364.3L624.4,364.3c-0.2,0-0.5,0.2-0.7,0.7c-1.5,3.2-4.2,7.9-7.8,14.1c-0.5,0.9-2.1,3.4-4.7,7.4
		c-4,5.8-8.2,10.6-12.5,14.6c-6.4,5.9-12.8,10.1-19.2,12.8c-2.1,0.9-9,2.5-20.8,4.7l3.3,4.2c4.3-0.8,8.2-1.6,11.9-2.6l5.2-1.5
		c3.3-1,6.3-2.1,9-3.3c2.7-1.2,5.1-2.5,7.1-3.8l2.9-2.1l3.9-3.6c4.2-4,9.6-10.9,16.1-20.5c2.6-5.5,4-8.6,4.2-9.3
		c0.7-1.8,1.3-3.4,1.7-4.9C624.8,368.3,625,366,624.4,364.3z"/>
	<path class="st26" d="M619.6,378.7L619.6,378.7c-0.4,0.1-0.8,0.4-1.3,1c-6.7,8.9-12,15.4-16,19.5c-2.8,2.9-6.5,6.1-11,9.4
		c-3.9,2.9-8,5.4-12.6,7.5c-2.3,1-4.6,2-7,2.8c-6.2,2-10,3-11.5,3.2l-11.6,8c2.5-1.3,5.5-2.5,9-3.7c11.8-2.3,19.6-4.1,23.4-5.4
		c6-2,10.8-4.5,14.3-7.3c4.7-3.4,10.4-9.6,17.2-18.4c2-2.8,4-6.5,6.1-10.9c0.6-1.4,1.1-2.8,1.5-4.4
		C620.1,379.3,620,378.8,619.6,378.7z"/>
	<path class="st19" d="M530.3,95.5l56.5,71.3c5.9,9.8,8.3,18.8,7.1,26.9c-0.6,4.1-2,7.9-4.4,11.5l-4.2,5.3
		c-3.2,3.4-7.3,6.6-12.3,9.6c-12.6,7.3-28,12.5-46.2,15.4c-22.8,4.2-47,5.9-72.6,5.2c3.4,2.1,8.4,4.2,14.9,6.5
		c12.8,3.6,20.9,5.3,24.3,5.3c17.8,2.2,38.9,1.7,63.2-1.4c6-0.8,11.5-1.8,16.6-3.2c5.1-1.4,9.6-3.1,13.8-5.2l5.8-3.3
		c7.3-4.7,12.7-10.8,16.3-18.1l4.5-13.1l1.2-13.4l-2.1-13.6l-5.4-13.8l-8.8-14l-12.1-14.2L571,124.9l-18.7-14.6L530.3,95.5z"/>
	<path class="st19" d="M557.1,246.4l-63.9-2.2c-2.1-0.8-4-1.4-5.6-1.7l-78-14.1c-34-4.8-56.3-7.4-66.9-7.9c-1.1,0.3-0.6,0.9,1.4,1.8
		c2.3,1,6.6,2.4,12.9,4.2l53.6,13.1c21.3,4.6,35.6,7.5,42.6,8.6c10.2,1.8,19.4,3.1,27.6,4c11.5,1.4,25.3,1.7,41.3,0.9
		C533.6,252.3,545.3,250.1,557.1,246.4z"/>
	<path class="st19" d="M165.3,94.5l-0.1,0l-0.5-0.2l-13.3-0.4c-0.7-0.2-1.4-0.3-2-0.4l-0.9-0.1c-0.6,0-1.1,0-1.6,0.1
		c-0.5,0.1-1,0.2-1.4,0.4l-0.6,0.3l-0.6,0.4c-0.2,0.3-0.3,0.5-0.3,0.8c0,0.6,0.3,1.1,0.9,1.8c0.3,0.3,0.7,0.6,1.2,1
		c0.9,0.6,1.7,1.1,2.4,1.4c1.2,0.6,2.5,1.2,4.1,1.7c2.4,0.8,4,1.2,4.8,1.3c2,0.3,4.5,0.6,7.7,0.7c2.5,0.1,4.8,0.1,6.8-0.1l1.2-0.2
		c0.7-0.1,1.3-0.3,1.6-0.5l0.4-0.4c0.2-0.3,0.2-0.6,0.1-0.9l-0.3-0.8c-0.3-0.5-0.6-1-1.2-1.5C172.1,97.3,169.3,95.8,165.3,94.5z"/>
	<path class="st19" d="M309.7,124.7l-0.3,0c-0.9-0.1-3.4-0.7-7.6-1.8c-0.5-0.1-1.3-0.3-2.3-0.4c-3.9-0.3-7.4-0.5-10.5-0.5
		c-0.5,0-2.2,0-5,0.1c-1.1,0.2-2,0.4-2.7,0.6c-1.4,0.5-2,1.1-1.8,2c0.3,0.8,1.3,1.8,3,2.9c0.9,0.5,2,1.1,3.3,1.7
		c0.1,0.1,1.4,0.6,3.8,1.5c0.8,0.3,6.8,2,18,5l2.3,0.4c1.5,0.3,3,0.5,4.4,0.7c4.3,0.5,8.4,0.6,12.3,0.2c1.9-0.5,2.6-1.3,1.9-2.5
		c-0.2-0.4-0.6-0.8-1.1-1.3l-0.8-0.8c-1-0.6-2.1-1.2-3.2-1.8c-0.5-0.3-2.2-1.2-5.2-2.5c-1.2-0.5-2.4-1-3.7-1.5
		c-0.8-0.3-2.6-1-5.2-1.8L309.7,124.7z"/>
	<path class="st19" d="M262.8,16.8l-0.3-0.1c-0.9-0.3-2-0.6-3.2-0.9c-1.2-0.3-4.5-0.8-10.1-1.7c-6.6-1-13.1-1.6-19.3-1.9l-7-1.7
		l-0.4,0c-1.3-0.1-4.6-0.1-10,0.1c-5.1-0.3-8.1-0.4-9-0.4c-2.2,0-3.6,0.2-4.2,0.5c-0.7,0.3-1,1-0.7,2.1c0.6,1.4,3.4,2.9,8.5,4.6
		l2.5,0.8l4.1,0.8c5.2,0.9,9,1.5,11.3,1.7c5.1,0.4,13.2,0.8,24.2,1.2c6.1-0.1,11.3-0.6,15.5-1.3c1.2-0.5,1.8-1,1.7-1.6
		c-0.1-0.3-0.3-0.6-0.7-0.8c-0.4-0.3-0.9-0.6-1.7-0.9L262.8,16.8z"/>
	<path class="st19" d="M417.2,377.9l-0.3-0.1c-0.8-0.3-2.1-0.5-3.6-0.8l-39.3-4.8c-7.4-2.2-15-4.5-22.9-6.6
		c-5.4-1.5-15.9-4.3-31.6-8.3c-3.4-0.9-10.1-2.1-20.1-3.6c-4-0.5-6.8-0.6-8.4-0.4c-1.9,0.6-2.4,1.4-1.3,2.6c0.3,0.4,0.8,0.7,1.4,1.2
		c0.1,0.2,1.4,0.8,3.7,2c4.8,1.8,9.1,3.3,13.1,4.5c8.5,2.7,17.7,5.2,27.7,7.5c12.1,2.7,21.2,4.5,27.3,5.3l3.4,0.4l34.8,2.5l5.5,0.2
		c3.6,0.1,7,0.1,10.2-0.1c0.9-0.1,1.5-0.4,1.7-0.8C418.4,378.4,418,378.2,417.2,377.9z"/>
	<path class="st19" d="M39.2,202.1l2.3,13.7c4.2,5.7,11.9,14.3,23,25.8C71,248,77.8,254.2,84.7,260c9.6,7.7,20.3,15.6,32.2,23.4
		c6.3,4,10.4,6.5,12.2,7.5c4.3,2.2,6.5,3,6.7,2.6c0.4-0.9-3.8-5-12.4-12.3c-3.1-2.8-12.6-10.5-28.5-23.2c-4.4-3.7-8.2-7.1-11.4-10.2
		C65.1,230.5,50.3,215.3,39.2,202.1z"/>
</g>
</svg>
