<?xml version="1.0" encoding="utf-8"?>
<!-- Generator: Adobe Illustrator 25.0.0, SVG Export Plug-In . SVG Version: 6.00 Build 0)  -->
<svg version="1.1" id="Layer_1" xmlns="http://www.w3.org/2000/svg" xmlns:xlink="http://www.w3.org/1999/xlink" x="0px" y="0px"
	 viewBox="0 0 112.7 45.2" style="enable-background:new 0 0 112.7 45.2;" xml:space="preserve">
<style type="text/css">
	.st0{fill:#FAD38C;}
	.st1{fill:#B3B3B3;}
	.st2{fill:#EDD096;}
	.st3{fill:#F0C77A;}
	.st4{fill:#9AC333;}
	.st5{fill:#C3E371;}
	.st6{fill:#88B021;}
	.st7{fill:#EB3B13;}
	.st8{fill:#E39F71;}
	.st9{fill:#D41E0C;}
	.st10{fill:#E8BCBC;}
	.st11{fill:#E89E9E;}
	.st12{fill:#FC9595;}
	.st13{fill:#E8CACA;}
	.st14{fill:#E36D6D;}
	.st15{fill:#E3B8B8;}
	.st16{fill:#FFB5B5;}
	.st17{fill:#999999;}
	.st18{fill:#AFCC66;}
	.st19{fill:#FADCA3;}
	.st20{fill:#FAD694;}
	.st21{fill:#FAD7A3;}
	.st22{fill:#FAEED7;}
	.st23{fill:#FAE3B6;}
	.st24{fill:#FACB96;}
	.st25{fill:#5C3B31;}
	.st26{fill:#915D4E;}
</style>
<g>
	<g>
		<g>
			<path class="st0" d="M107.2,41.3c0,1-0.1,1.6-0.1,1.6c-0.6,0-1.1,0-1.7,0.1c-32,1.3-61.1,2.1-96.1,1.8c0,0-0.6-1.6-0.8-3.4
				c-0.1-0.6-0.1-1.2-0.1-1.7c0.1-0.8,0.3-1.6,0.7-2.1c0,0,33.2-15.7,36.9-15.9c3.2-0.1,41.5,10.2,56,14.3c0.7,0.2,1.4,0.4,2,0.6
				c0.1,0,0.2,0.1,0.3,0.1c0,0,0.1,0,0.1,0c1.2,0.4,2.6,1.6,2.7,2.8c0,0.1,0,0.2,0,0.3C107.2,40.2,107.2,40.8,107.2,41.3z"/>
			<path class="st1" d="M107.2,40.1H90.8c-4.7,0.8-9.7,0.2-14.5,0.8c-12.3,1.7-24.8,2-37.2,0.5c-3.1-0.4-6.2-0.9-9.3-1
				c-3.2-0.1-6.4-0.1-9.5,0c-3.9,0.1-7.9,0.9-11.8,0.8c0.2,1.8,0.8,3.5,0.8,3.5c35.1,0.2,64.2-0.5,96.1-1.8c0.6,0,1.1,0,1.7-0.1
				c0,0,0.1-0.6,0.1-1.6C107.2,40.9,107.2,40.5,107.2,40.1z"/>
			<path class="st2" d="M107.1,41.2c-4.5-0.3-7.6-4.6-12.4-1.4c-1.6,1.1-1.9,2.1-3.8,1.7c-1.6-0.3-3-1.5-4.5-2.1
				c-2.7-1-6.4-2.4-8.9-0.2c-1.6,1.3-0.9,2.6-3.1,3.5c-2.1,0.9-4.5,1-6.6,0c-3.4-1.7-7.9-2.6-11.6-1.6c-2.9,0.8-5.6,2.2-8.6,1.3
				c-3.3-1-5-2.6-8.7-1.8c-0.9,0.2-1.3,0.9-2.1,1.1c-1.1,0.3-2.6,0.1-3.7,0.2c-1.4,0.1-2.5,0.3-3.9,0.1c-1.5-0.2-2.9-1-4.5-0.9
				c-2.9,0.1-5.2,2.3-8.2,2.1c-0.9-0.1-7.7-1-7.9-2c-0.2-1.4-0.1-3,0.7-3.9c0,0,33.2-15.7,36.9-15.9c3.7-0.2,8,1.6,11.5,2.4
				c9.4,2.3,18.7,4.8,28,7.3c4.3,1.2,8.5,2.3,12.8,3.5C101.9,35.8,107.8,36.3,107.1,41.2z"/>
			<g>
				<path class="st3" d="M107.2,41.3c0,1-0.1,1.6-0.1,1.6c-0.6,0-1.1,0-1.7,0.1l-0.3-2.2c-0.8-1.5-1.7-2.8-2.9-4
					c-0.2-0.3-0.3-0.6-0.1-0.8c0.2-0.4,0.8-0.7,1.2-0.3c0.3,0.3,0.5,0.5,0.7,0.8c0.2,0.2,0.4,0.5,0.6,0.7l-0.1-0.4
					c0-0.1-0.1-0.1-0.1-0.2c1.2,0.4,2.6,1.6,2.7,2.8C107.2,40,107.2,40.7,107.2,41.3z"/>
			</g>
			<path class="st4" d="M112.7,37.5c0.1,2.6-4.5,2.3-6.2,2.6c-3.2,0.5-5.1-2.2-7.9-3.1c-0.7-0.2-1.4-0.3-1.9-0.3c0,0-0.1,0-0.1,0
				c-0.1,0-0.1,0-0.2,0c-0.1,0-0.1,0-0.2,0c-0.1,0-0.1,0-0.2,0c-0.1,0-0.1,0-0.2,0c-0.1,0-0.1,0-0.2,0.1c-0.1,0-0.1,0-0.2,0.1
				c-0.1,0-0.1,0.1-0.2,0.1c0,0-0.1,0.1-0.2,0.1c-0.1,0-0.1,0.1-0.2,0.1c0,0-0.1,0.1-0.1,0.1c-0.1,0.1-0.2,0.2-0.3,0.3
				c0,0-0.1,0.1-0.1,0.1c0,0-0.1,0.1-0.1,0.1c-0.1,0.1-0.1,0.1-0.2,0.2c0,0-0.1,0.1-0.1,0.1c-0.1,0.1-0.2,0.3-0.3,0.4
				c-0.1,0.1-0.1,0.2-0.2,0.2c-0.1,0.1-0.2,0.3-0.3,0.4c-0.8,1.2-1.7,1.5-2.7,1.4c-0.4-0.1-0.7-0.2-1.1-0.3
				c-0.6-0.3-1.3-0.7-1.9-1.1c-2.8-1.8-7.1-2.9-10-0.9c-0.9,0.6-1.6,1.4-2.3,2c-1.3,1.2-2.4,2.3-4.5,2.2c0,0-0.1,0-0.1,0
				c-0.3,0-0.6-0.1-1-0.1c-2.8-0.5-5.1-2.1-7.8-2.7c-0.8-0.2-1.6-0.3-2.4-0.3c-1.2,0-2.3,0.2-3.3,0.6c-0.9,0.3-1.8,0.7-2.6,1.3
				c-0.6,0.4-1.1,0.7-1.6,0.9c-1.2,0.6-2.3,0.7-3.4,0c-0.4-0.2-0.9-0.6-1.3-1.1c-1.4-1.5-5.1-3.5-7-1.9c0,0-0.1,0.1-0.1,0.1
				c-1.5,1.3-1,3.2-3.4,3.7c-0.1,0-0.1,0-0.2,0c-0.4,0.1-0.7,0.1-1.1,0.1c-0.2,0-0.3,0-0.5,0c-3.7-0.2-6.9-3.3-10.6-3.3
				c-1.8,0-3.2,0.4-4.4,1.1c-0.9,0.6-1.6,1.3-2.4,2.3c-1.7,2.3-2.6,2.2-3.3,1.3c-0.2-0.2-0.3-0.5-0.4-0.8c-0.3-0.7-0.6-1.5-1-2.4
				c-0.2-0.6-0.5-1.1-0.9-1.5c-0.9-1.2-1.5-1.4-2-1.2C9.3,39,9,39.5,8.7,40.1c-0.4,0.8-0.8,1.6-1.2,2.1c-0.2,0.2-0.4,0.3-0.6,0.3
				c-0.9,0.1-1.8-1.1-2.1-1.9c-0.1-0.2-0.1-0.3-0.2-0.5c-0.1-0.4-0.2-0.7-0.2-1.1c0-0.2,0-0.4,0-0.6c0.1-1,0.5-1.9,1.3-2.8
				c0-0.1,0.1-0.1,0.1-0.2c0.2-0.2,0.8-1.1,1.2-2c0.5-1.1,0.6-2.1-0.7-2c-1.1,0.1-1.8,2.8-3,3.3c-1.5,0.6-2.3-0.4-2.8-1.7
				c-0.1-0.2-0.2-0.4-0.2-0.6c-0.1-0.2-0.1-0.3-0.1-0.5c-0.4-1.8,0.8-2.1,2.7-2.8C3.2,29,3.6,28.9,4,28.7c0,0,0,0,0.1,0
				c0.8-0.3,1.5-0.6,2.3-0.9c0.9-0.3,1.5-0.4,2-0.4c0.9,0,1.6,0.5,2.8,1.2c1.7,1,3.6,0.7,5.5,0.5c4.7-0.4,9.4-1.3,14.2-1.5
				c4-0.2,8,0.2,12,0.3c8.7,0.1,17.4,0.5,26.1,0.5c8.1,0,16.2-1.3,24.3-1.8c3.7-0.2,7.7-0.7,11.2,0.8c1.6,0.7,2.5,2,4,2.8
				c0.4,0.2,3.9,1.3,4.2,0.8c-0.2,0.4-0.5,0.7-0.9,1c-0.4,0.3-0.9,0.6-1.4,0.7c0,0,0.1,0.1,0.1,0.1c0.6,0.7,0,1.5,0.1,2.3
				c0,0.2,0.1,0.3,0.2,0.5c0.4,0.7,1.4,0.6,1.8,1.3c0,0.1,0.1,0.1,0.1,0.2c0,0,0,0.1,0,0.1C112.7,37.3,112.7,37.4,112.7,37.5z"/>
			<g>
				<path class="st5" d="M112.6,36.9c-0.3,0-0.6-0.1-0.9-0.1c-3.1-0.2-6.3,0.1-9.1-0.4c-0.4-0.1-0.8-0.2-1.2-0.3
					c-1.2-0.4-2.3-1-3.4-1.6c-0.3-0.2-0.7-0.5-1-0.7c-0.6-0.5-1.3-1.3-2-1.6c5.3,1.3,11.2,0.3,16.7-0.2c-0.4,0.3-0.9,0.6-1.4,0.7
					c0,0,0.1,0.1,0.1,0.1c0.6,0.7,0,1.5,0.1,2.3c0,0.2,0.1,0.3,0.2,0.5C111.2,36.2,112.3,36.2,112.6,36.9z"/>
			</g>
			<g>
				<path class="st5" d="M98.8,30.1c3.1,0.3,6.7,0,9.8,0.7c0.8,0.2,1.1,0.1,1.5,0.8c0.3,0.5,0.3,1.4,0.1,1.9c-0.5,0.9-1.9,1.3-2.6,2
					c-0.9,0.9-0.9,1.6-2.3,1.5c-1.3-0.1-2.8-0.7-4.2-0.8c-1.9-0.1-2.8-1.1-4.4-1.8c-0.8-0.3-2,0.3-2.5,0.2c-1.3-0.4-0.4-2.1,0.3-3.2
					C95.3,29.9,97.2,30.4,98.8,30.1z"/>
			</g>
			<path class="st6" d="M15.4,38.5c-0.7,1.4-1.5,3.4-1.8,5.3c-0.5-1.2-1-2.8-1.8-3.9c-2.5-3.4-2.9,1.1-4.3,2.3c-1,1-2.3-0.6-2.7-1.6
				c-0.1-0.2-0.1-0.3-0.2-0.5c1.5,0.1,2.8,0.1,4.1-1.3c1.7-1.9,3.6-2.8,5.8-4.3c0.9-0.6,1.8-1.4,2.8-1.6
				C16.7,34.9,16.3,36.6,15.4,38.5z"/>
			<path class="st6" d="M31,41.7c-0.7-0.6-1.5-1.1-2.3-1.5c-1.5-0.9-3.3-1.7-5.1-1.7c-1.6-0.1-3.1,0.6-4.5,1.3c-1,0.8-2,1.7-2.9,2.6
				c-0.6,0.6-1.6,1.4-2.2,2.2c0.7,0.9,1.6,1,3.3-1.3c1.8-2.4,3.6-3.5,6.7-3.5c2.8,0,5.3,1.7,7.9,2.7C31.7,42.2,31.4,41.9,31,41.7z"
				/>
			<path class="st6" d="M48.3,42.3c-0.4-0.2-0.9-0.6-1.3-1.1c-1.4-1.5-5.1-3.5-7-1.9c-1.6,1.3-1,3.3-3.5,3.8
				c0.5-2.4,2.7-4.5,4.9-5.3c0.8-0.3,2.3-0.9,3.1-0.7C46.7,37.6,47.2,40.5,48.3,42.3z"/>
			<path class="st6" d="M69.3,42c0.4,0.2,0.9,0.4,1.3,0.6c-0.3,0-0.7-0.1-1.1-0.1c-2.8-0.5-5.1-2.1-7.8-2.7c-2-0.4-3.9-0.3-5.7,0.3
				c0.1-0.2,0.2-0.3,0.3-0.4c0.7-1,1.9-1.4,3.1-1.5C63.2,38,66,40.5,69.3,42z"/>
			<path class="st6" d="M112.7,37.5c0.1,2.6-4.5,2.3-6.2,2.6c-3.2,0.5-5.1-2.2-7.9-3.1c-2.8-0.9-4,0.2-5.5,2.3
				c-0.8,1.2-1.7,1.5-2.7,1.4c0.7-1.1,1-2.6,1.8-3.6c1.2-1.5,5.2-3.1,7-2.6c0.7,0.2,1.2,1,1.9,1.4c1.5,0.9,3.2,1.2,4.8,1.9
				c1.4,0.6,2.3,1.7,3.9,1.2C110.8,38.7,111.6,37.9,112.7,37.5z"/>
			<path class="st4" d="M50.9,23.1c0.1-0.1,0.2-0.2,0.4-0.3c0,0,0,0.1,0,0.1C51.1,23,51,23.1,50.9,23.1z"/>
			<g>
				<path class="st5" d="M21.4,36.2c2.4,0.3,4.7,0.7,7,1.3c-2,0-4.3,0.3-6.2,1c-2.2,0.8-3.4,2.9-4.8,4.8c-1.7,2.3-2.6,2.2-3.3,1.3
					c-0.2-0.2-0.3-0.5-0.4-0.8c-0.3-0.7-0.6-1.5-1-2.4c-0.1-0.2,1.5-2.6,1.6-2.9c0.5-1.1,0.7-2.2,1-3.3c1.9-0.3,3.8,0.7,5.7,0.9
					C21.1,36.2,21.2,36.2,21.4,36.2z"/>
			</g>
			<g>
				<path class="st5" d="M39.8,39.3c-1.5,1.3-1,3.2-3.4,3.7c-0.1,0-0.1,0-0.2,0c-0.4,0.1-0.7,0.1-1.1,0.1c-0.2,0-0.3,0-0.5,0
					c0.4-2.5,1.6-5.1,2.3-6.9C37.9,36.9,38.9,38.1,39.8,39.3z"/>
			</g>
			<g>
				<path class="st5" d="M59.3,39.5c-1.1,0-2.3,0.2-3.3,0.6c-0.9,0.3-1.8,0.7-2.6,1.3c-2.4,1.5-1.6,0.6-1.9-1.2
					c-0.4-1.8-2-2.6-3.3-3.6c1.5-1.4,4.7-3,6.7-2.2c1.3,0.5,1.1,1.1,1.6,2.2C56.9,37.1,58.4,39.5,59.3,39.5z"/>
			</g>
			<g>
				<path class="st5" d="M74.8,40.3c-0.4,1.6-3.5,2.8-4.9,1.6c-1.6-1.3-3.9-3.9-4.8-5.7c0.2,0.5,4.4,1.1,5,1.2
					c1.4,0.2,3.2,0.1,4.3,1.3C74.8,39.3,75,39.8,74.8,40.3z"/>
			</g>
			<g>
				<path class="st5" d="M94.3,38.1c-0.7,1.2-2.4,2.8-3.8,2.5c-0.4-0.1-0.7-0.2-1.1-0.3c-0.3-1.2-0.6-2.3-1.4-3.2
					c-0.8-0.9-1.8-1.4-2.5-2.5c1.3-0.6,2.9-0.2,4.2-0.3c1.9-0.1,3.8-1.2,5.7-1.2c-0.7,0-0.7,4.2-1.1,4.8
					C94.4,38,94.3,38.1,94.3,38.1z"/>
			</g>
			<g>
				<path class="st5" d="M8.5,33.2c-0.6,0-1.1,0.1-1.6,0.2c0.5-1.1,0.6-2.1-0.7-2c-1.1,0.1-1.8,2.8-3,3.3c-1.5,0.6-2.3-0.4-2.8-1.7
					c-0.1-0.2-0.2-0.4-0.2-0.6C1.5,31.8,2.7,31,4,30.3c1.1-0.6,2.6-1.7,3.9-1.6C8,30.2,8.7,31.8,8.5,33.2z"/>
			</g>
			<g>
				<path class="st5" d="M12.7,34.5c-0.9,1.4-1.9,2.8-2.9,4.2c-0.4,0.5-0.7,0.9-1.1,1.4c-0.6,0.8-1.2,1.6-1.8,2.4
					c-0.9,0.1-1.8-1.1-2.1-1.9c-0.1-0.2-0.1-0.3-0.2-0.5c-0.1-0.4-0.2-0.7-0.2-1.1c1.4-1,2.7-2,3.1-2.3c1.7-1.3,4.2-4.1,6.3-4.7
					C13.8,33,13.2,33.7,12.7,34.5z"/>
			</g>
			<path class="st4" d="M7.9,32.7c1.5,1.8,4,2.8,6,3.9c1.7,1,3.5,1.6,5.4,2c7.3,1.6,15.1,1,22.4,0.1c13.6-1.8,15.1-2.4,15.1-2.4
				s15.8,4.5,31.3,0.9s17.5-5.9,17.5-5.9c-5.7-0.7-11.3-1.2-17-1.8c-14.9-1.4-29.9-2.6-44.9-3.1c-5.8-0.2-12-0.8-17.7,0.1
				c-1.7,0.3-3.1,1.1-4.7,1.4c-2.3,0.4-4.9,0-7.1-0.9c-1.9-0.7-3.7-1.4-5.8-1.2c-2.7,0.3-2.4,2.4-1.7,4.6
				C6.9,31.4,7.4,32.1,7.9,32.7z"/>
			<g>
				<path class="st7" d="M99.3,32.7c-1.6,0.8-3.3,1.4-5,2c-8.4,3-17.4,4-26.6,3.3c-2.1-0.2-4.4-0.4-6.6-0.9c-2.5-0.5-4.9-1.3-7-2.4
					c-1.7-0.9-3.4-2.3-3.2-4.2c0,0,0-0.1,0-0.1c0.1-0.5,0.2-0.9,0.4-1.3l12.3-0.6l16.3-0.8l18.2-0.9c0.8,0.5,1.6,1.1,2.1,1.8
					C100.9,29.4,100.9,31.9,99.3,32.7z"/>
				<path class="st8" d="M72.3,31.3c-1.4,2.1-5,3-7.2,4c-0.3,0.1-2.1,0.9-4,1.9c-2.5-0.5-4.9-1.3-7-2.4c-1.7-0.9-3.4-2.3-3.2-4.2
					c0,0,0-0.1,0-0.1c0.1-0.5,0.2-0.9,0.4-1.3l12.3-0.6c0.6,0.6,1.3,1.1,2.2,1.5C67.7,30.8,70.2,31.3,72.3,31.3z"/>
				<path class="st8" d="M57.7,36.4c1.7-1.2,3.4-2.6,5.2-3.7c1.2-0.7,2.5-1.4,3.7-2.2c-0.4-0.1-0.8-0.3-1.1-0.4
					c-0.9-0.4-1.6-0.9-2.2-1.5L51,29.2c-0.2,0.4-0.4,0.8-0.4,1.3c0,0,0,0.1,0,0.1c-0.2,1.9,1.5,3.2,3.2,4.2
					C55,35.4,56.3,35.9,57.7,36.4z"/>
				<path class="st9" d="M100,25.9l-48.3,2.5c1.5,2.9,7.6,8.6,28.8,6.1c10.5-1.3,16.5-4.1,19.6-6.1L100,25.9z"/>
			</g>
			<path class="st8" d="M99.3,32.7c-1.6,0.8-3.3,1.4-5,2c-0.9-0.7-1.9-1.2-2.8-1.9c-3.7-2.5-6.1-4-10.7-4l-0.8-1.3l18.2-0.9
				c0.8,0.5,1.6,1.1,2.1,1.8C100.9,29.4,100.9,31.9,99.3,32.7z"/>
			<g>
				<path class="st7" d="M60.2,32.9c-9.8,4.6-20.4,6.4-31.4,5.7c-4.5-0.3-9.7-1.2-13.6-3.2c-0.2-0.1-0.5-0.3-0.7-0.4
					c-1.4-0.9-2.7-2.1-2.5-3.7c0,0,0-0.1,0-0.1c0.1-0.5,0.2-0.9,0.4-1.3l4.6-0.3l42-2.6c0.8,0.5,1.6,1.1,2.1,1.7
					C61.8,29.6,61.8,32.1,60.2,32.9z"/>
				<g>
					<path class="st8" d="M25.6,33.6c-2.3-0.5-5.4-0.7-7.7,0.1c-1.2,0.4-2.3,0.8-3.4,1.3c-1.4-0.9-2.7-2.1-2.5-3.7c0,0,0-0.1,0-0.1
						c0.1-0.5,0.2-0.9,0.4-1.3l4.6-0.3c0.7,0.1,1.5,0.2,2.2,0.3c1.4,0.2,3.4-0.3,4.6,0.7c0.5,0.4,0.6,1,1,1.5
						C24.7,32,25.9,33.7,25.6,33.6z"/>
				</g>
				<path class="st9" d="M60.8,26.2l-48.1,3c1.5,2.9,7.7,8.5,28.7,5.8C52,33.5,57.9,30.7,61,28.6L60.8,26.2z"/>
			</g>
			<path class="st10" d="M44.7,33.4c0.6-0.1,1.1-0.1,1.7-0.1c4.6,0.2,9.2,1.2,13.8,1.2c3.1,0,6.3,0.1,9.4-0.2
				c2.9-0.3,5.9-1.3,8.8-1.1c2.6,0.2,4.6,1.4,7.1,0.7c2.7-0.7,5.4-1.6,8-2.6c3-1.1,6-1.3,9.1-1.4c0.2-1.1-3.5-3.1-4.4-3.7
				c-2.3-1.5-5.2-1.5-7.9-2.1c-2.9-0.6-5.2-1.3-8.2-1c-3.8,0.4-7.4,1.8-11.3,1.9c-2.8,0.1-5.6-0.3-8.5-0.1
				c-4.8,0.3-9.7,0.4-14.4,0.9c-4.5,0.5-9.2,0.1-13.7,0.7c-3.3,0.5-6.4,0.7-9.7,1c-4.4,0.4-8,2.6-11.3,5.3c1.8,0.1,3.5-0.6,5.4-0.2
				c1.4,0.3,2.8,0.7,4.1,1.1c3.5,1.1,6.8,2.3,10.6,2.3C37.4,36.1,41,33.9,44.7,33.4z"/>
			<path class="st11" d="M43.5,31.7c0.7,0,1.4,0,2.2,0.1c2.2,0.2,4.2,1.1,6.4,1.4c2.2,0.2,4.7-0.2,6.9-0.2c4.2,0,8.3-0.1,12.5-0.5
				c4.2-0.3,8.7,1,12.8-0.1c4.4-1.2,9-2,13.5-2c1.5,0,3.4,0.1,4.7-0.7c1.7-0.9-5.1-4.8-5.4-5c-2.3-1.5-5.2-1.5-7.9-2.1
				c-2.9-0.6-5.2-1.3-8.2-1c-3.8,0.4-7.4,1.8-11.3,1.9c-2.8,0.1-5.6-0.3-8.5-0.1c-4.8,0.3-9.7,0.4-14.4,0.9
				c-4.5,0.5-9.2,0.1-13.7,0.7c-3.3,0.5-6.4,0.7-9.7,1c-4.4,0.4-8,2.6-11.3,5.3c1.8,0.1,3.5-0.6,5.4-0.2c1.4,0.3,2.7,0.7,4.1,1.1
				c3.5,1.1,6.8,2.3,10.6,2.3c2.7,0,5.1-1,7.4-2.1C40.9,31.9,42.2,31.8,43.5,31.7z"/>
			<path class="st12" d="M109.2,32.2c-2,0.7-4.1,0.8-6.2,0.3c-2.4-0.6-4.6-1.6-6.9-2.5c-0.1,0-0.2-0.1-0.3-0.1
				c-2.1-0.8-2.4-0.1-3.5,1.5c-1.4,2-1.9,2.4-3.4,2.3c-0.4,0-0.8-0.1-1.2-0.1c-2.6-0.4-5.3-0.7-7.9-1.1c-0.7-0.1-3.9-1.1-4.6-0.6
				c0,0-4.5,3.1-4.5,3.1s-22.9-1-30.6-4.7c-1.7,3.8-3.9,5.7-3.9,5.7S23.3,34,17.1,31.5c-3,1.7-5.4,2.7-5.4,2.7s-5.7-3.6-4-5.5
				c0,0,0.9-1.3,1.9-2.5c0.9-1.1,1.8-2.3,2-2.3c0.6-0.2,1.4-0.1,2-0.1c9.7-0.4,19.3-0.6,29-0.9c11.6-0.4,23.2-0.7,34.8-1.1
				c1.7-0.1,3.4-0.1,5.1-0.2c4.9-0.1,9.7-0.3,14.6-0.4c1.4,0,2.9-0.2,4.3-0.1c0.9,0.1,1-0.2,1.5,0.6c0,0,0.1,0.1,0.1,0.1
				c0.5,0.8,0.6,2.5,1.1,3.4c0.5,0.9,1.2,1.8,2,2.5c0.3,0.3,0.8,0.6,1.4,0.9C109.8,29.7,112.6,31,109.2,32.2z"/>
			<path class="st13" d="M96.1,29.9c-0.1,0-0.2-0.1-0.3-0.1c-2.1-0.8-2.4-0.1-3.5,1.5c-1.4,2-1.9,2.4-3.4,2.3
				c0.1-1.3,1.2-2.8,2.1-3.6c1.1-1,2.9-2.1,4.4-2C96.4,28.1,96.9,29.3,96.1,29.9z"/>
			<path class="st13" d="M25.8,34.5c-1.9-1-3.7-2.4-5.5-3.5c3,0.3,4.9-2.3,6.6-4.3c0.5-0.6,1-1.6,2-1.5c0.1,0.9,0.3,1.9-0.1,2.8
				c-0.2,0.5-0.8,0.7-0.8,1.3c0,2.3,5.4,2.7,6.8,3.3c2.6,1.2,0.1,2.8-1.5,2.9c-2.1,0.1-4.5,0.3-6.5-0.5
				C26.5,34.8,26.2,34.7,25.8,34.5z"/>
			<g>
				<path class="st13" d="M107.7,28.5c-1,0-2.2-0.3-3-0.4c-2.5-0.4-5.2-0.4-7.7-1c-2.5-0.7-4.7-2.1-7.3-2.5c-3.8-0.6-8-1.8-11.6,0
					c-2.3,1.1-5.1,1.9-7.6,1.2c-3.8-1.1-7-2.6-10.9-0.8c-4.4,1.9-8.9,3.4-13.8,1.5c-2-0.7-4.2-1.4-6.2-0.5c-1.7,0.7-2.7,1.7-4.6,1.8
					c-2.6,0.2-5-1.4-7.6-0.8c-3.3,0.8-4.9,2.7-8.4,1.6c-3.1-0.9-6.1-2.1-9.3-2.4c-1.3-0.1-2.4,0-3.2,0.4v-4.8h96.7
					c0.5,0.8,0.6,2.5,1.1,3.4c0.5,0.9,1.2,1.8,2,2.5C106.6,27.9,107.1,28.2,107.7,28.5z"/>
			</g>
			<g>
				<path class="st13" d="M107.7,27.2c-1,0-2.2-0.3-3-0.4c-2.5-0.4-5.2-0.4-7.7-1c-2.5-0.7-4.7-2.1-7.3-2.5c-3.8-0.6-8-1.8-11.6,0
					c-2.3,1.1-5.1,1.9-7.6,1.2c-3.8-1.1-7-2.6-10.9-0.8c-4.4,1.9-8.9,3.4-13.8,1.5c-2-0.7-4.2-1.4-6.2-0.5c-1.7,0.7-2.7,1.7-4.6,1.8
					c-2.6,0.2-5-1.4-7.6-0.8c-3.3,0.8-4.9,2.7-8.4,1.6c-3.1-0.9-6.1-2.1-9.3-2.4c-1.3-0.1-2.4,0-3.2,0.4v-4.8h96.7
					c0.5,0.8,0.6,2.5,1.1,3.4c0.5,0.9,1.2,1.8,2,2.5C106.6,26.6,107.1,26.9,107.7,27.2z"/>
			</g>
			<path class="st14" d="M65.9,26.7c-1.3-0.5-5-2.5-6.1-1c-0.6,0.8-0.3,1.7,0.3,2.4c1.4,1.5,2.4,2.3,4.5,2.5
				c2.4,0.2,4.6,0.3,6.7,1.6c1.4,0.9,1.1,1.1,2.7,0.2c1.1-0.7,2.4-1.1,3.5-2c-1.4-0.9-3.9-1-5.5-1.6C69.9,28.1,67.9,27.5,65.9,26.7z
				"/>
			<path class="st14" d="M83.5,23.7c-1.6,0.1-2.9,0.7-2.6,2.3c0.3,1.8,3.6,2.8,5.1,3.2c2,0.5,5.1,0.8,5.9,3c0.2-1.8,2.8-3.5,4.6-3.2
				c-2.8-0.6-4.5-3.1-6.9-4.2C88.7,24.4,85.7,23.6,83.5,23.7z"/>
			<path class="st14" d="M30.3,30.9c-0.5-0.5-0.7-1-0.3-1.8c0.6-1,2.7-1.2,3.8-1.2c2.1-0.1,4.4,1,6.3,1.6c0.2,1.4-1.6,5.4-3.2,5.7
				c-1.5,0.3-2.2-1.6-3.2-2.4C32.9,32.2,31.2,31.7,30.3,30.9z"/>
			<path class="st14" d="M11.2,32.6c-2.9,0.3-3.8-3.9-0.6-4.5c2.5-0.5,4.3,2.3,6.8,2.4C16.2,32.9,11,35,11.2,32.6z"/>
			<path class="st13" d="M70,32.3c-1.1-3.3-7.1-2.1-9.7-2.5c-0.9-0.1-1.1-0.6-1.6-1.3c-0.1,0-0.2,0-0.2,0.1
				c-0.1-1.3,0.2-2.5,0.2-3.7c0-0.6-0.6-2.6-0.1-3.1c-0.1,0.1-0.3,0.5-0.3,0.4c-0.7,1-1.9,2.1-2.2,3.3c-0.2,1,0,2-0.3,3
				c-0.4,1.5-2,3.6-3.9,2.9c4,1.3,6.9,3.2,11.3,3.1C64.1,34.5,70.6,34.3,70,32.3z"/>
			<path class="st13" d="M80.3,30.6c-0.3-0.7-0.2-1.6-0.1-3.1c0.1-1.1-0.2-2.1,0.4-3.1c1.1-1.8,5.8-1.1,7.8-0.9
				c0.3,0-1.7,2.3-1.8,2.4c-0.7,0.9-1.2,2.2-1.4,3.4c-0.2,1.5,0.8,2.4,1.8,3.4c-1.9,1-3.3,0.5-4.9-0.5
				C81.1,31.6,80.5,31.1,80.3,30.6z"/>
			<path class="st15" d="M13.2,30.4c0.6-0.1,1.2-0.3,1.6-0.7c0.2-0.2,0.2-0.7,0-0.9C13.7,27.7,12,28,10.5,28c-1.2,0-2.5,0.1-3.1,1.3
				c-0.5,0.9-0.3,2.1,0.4,2.9c0.5,0.6,1.2,0.9,1.9,1c0,0,0.1,0.1,0.1,0.1c0.2,0.1,0.3,0.1,0.5,0c0.2,0,0.5,0,0.7,0
				c0.5,0,0.6-0.8,0.1-0.9c-0.1,0-0.3-0.1-0.4-0.1C11.1,31.3,12.3,31,13.2,30.4z"/>
			<path class="st15" d="M35.7,29c0.1-0.2-0.1-0.5-0.3-0.6c0,0,0,0-0.1,0c-0.9-0.6-3.2,0.3-4,0.4c-0.5,0.1-0.8,0.6-0.8,1.1
				c-0.1,1,0.3,2.2,1.2,2.7c0.1,0.2,0.4,0.2,0.5,0.1c0.3,0,0.5-0.2,0.6-0.5c0.4-0.5,0.8-1,1.2-1.5c0.1-0.2,0.3-0.3,0.5-0.4
				C35.2,30.2,35.8,29.7,35.7,29z"/>
			<path class="st15" d="M70.5,31.7c-0.7-0.2-1.4-0.4-2.2-0.6c-0.6-0.1-1.1,0.2-1.3,0.8c-0.3,0.8-1.3,1.4-1.3,2.2
				c0,0.2,0.1,0.4,0.3,0.4c0.8,0.6,1.8-0.2,2.5-1c0.5,0.2,1,0.3,1.4,0.5c0.5,0.2,1.1-0.1,1.3-0.5c0.1-0.2,0.1-0.4,0.2-0.6
				C71.4,32.3,71,31.9,70.5,31.7z"/>
			<path class="st16" d="M110.4,31.1c-0.8,2.5-6.2,2.4-8.1,2.1c-6.3-1-10.4-7.3-16.7-8.3c-0.5-0.1-1.5-0.2-2.3-0.1
				c-0.7,0-1.3,0.2-1.7,0.6c-0.4,0.4-0.2,0.8,0.2,1.2c0.2,0.2,0.4,0.3,0.7,0.5c0.5,0.3,1.1,0.6,1.4,0.7c1.7,0.8,3.5,0.9,5.3,1.3
				c1.1,0.2,2.7,0.5,2.9,1.8c0,0.2,0,0.4,0,0.5c-0.1,1-1.1,1.8-2.1,2.1c-2.3,0.8-5.2,0.1-7.5-0.4c-3.6-0.7-7.3-1.5-10.7-2.7
				c-1.6-0.6-3.1-1.4-4.7-2.2c-1.4-0.8-3-1.6-4.6-1.8c-0.4,0-0.9,0-1.3,0.1c-0.2,0.1-0.4,0.2-0.6,0.3c-0.9,0.9,0.4,1.7,1.1,2
				c1.7,0.6,3.5,0.6,5.3,0.8c1.7,0.2,7.4,1.4,5.4,4.2c0,0,0,0.1-0.1,0.1c-0.8,1.1-2.4,1.3-3.6,1.4c-2,0.2-3.9,0.1-5.9,0
				c-4.1-0.2-8.2-0.7-12.1-1.6c-3.9-0.9-7.7-2.4-11.6-3.3c-1.3-0.3-7.9-2.6-8.5-0.5c-0.5,1.5,1.1,1.5,1.9,1.5c1.2,0.1,3.8-0.1,4.9,1
				c0.4,0.4,0.6,0.8,0.5,1.5c-0.1,1.6-2,2.2-3.2,2.4c-1.8,0.3-3.7,0.1-5.5-0.2c-2.7-0.5-5.5-1.2-7.9-2.7c-2.2-1.4-4.9-1.6-7.2-2.9
				c-0.9-0.5-1.8-1.6-2.8-1.9c-0.6-0.2-1.1-0.2-1.8,0.3c-0.8,0.6-0.9,1.2-0.7,1.7c0.3,0.8,1.3,1.5,2.2,2.1c0.7,0.5,1.5,0.9,1.9,1.1
				c-0.2,0-0.3,0-0.5,0c-0.8-0.1-1.8-0.4-2.7-0.8c-2.2-1.1-3.7-3.1-1.3-5.1c1.9-1.5,4.9,0.1,6.6,1c3.3,1.6,6.7,2.7,10.2,3.8
				c2,0.6,4.1,1.1,6.2,1.3c1,0.1,2,0.1,2.9-0.1c0.1,0,0.4-0.1,0.6-0.2c-1.7-0.4-3.5-0.9-4.9-1.7c-1.7-1.1-2.1-3.2-0.2-4.4
				c2.1-1.3,5.2-0.6,7.5-0.1c3.6,0.7,7,2,10.5,3.1c4,1.2,8.1,1.9,12.3,2.2c2.1,0.2,4.3,0.2,6.4,0.2c1,0,2,0,3-0.1
				c0.3-0.1,0.7-0.2,1-0.3c-0.4-0.2-0.7-0.7-1.1-0.9c-0.4-0.2-0.9-0.3-1.4-0.4c-0.9-0.2-1.8-0.3-2.7-0.3c-1.7-0.2-3.5-0.2-5-1
				c-1.6-0.8-2.6-3.7-0.9-4.9c1.9-1.4,5.7,0.3,7.7,0.8c3,0.8,5.8,2.4,8.8,3.2c2.1,0.6,4.2,1.1,6.3,1.5c1.1,0.2,2.3,0.5,3.4,0.6
				c1.1,0.2,2.7,0.4,3.8,0c0,0,0.1-0.1,0.3-0.2c-0.1,0-0.2-0.1-0.3-0.1c-0.9-0.2-1.8-0.3-2.7-0.5c-1.6-0.3-3.1-0.8-4.5-1.6
				c-1-0.6-2.2-1.4-2.5-2.7c-0.3-1.2,0.4-2.3,1.5-2.8c2.6-1.3,6-0.5,8.5,0.6c2.2,0.9,3.9,2.5,6.1,3.7c2,1.1,4.2,1.9,6.2,2.8
				c2,0.9,6.9,1.9,8.4-0.2C110.5,30.6,110.5,30.9,110.4,31.1z"/>
			<path class="st4" d="M112.2,23.1c-0.2,0.4-0.6,0.6-1.1,0.8c-0.1,0-0.3,0.1-0.4,0.1c-1.4,0.3-3.4,0.2-4.8,0
				c-0.6-0.1-1.1-0.2-1.3-0.2c-0.1,0-0.3-0.1-0.4-0.1c-0.2,0-0.4,0-0.6,0c-0.8,0-1.5,0.3-2.4,0.4c-0.1,0-0.2,0-0.3,0
				c-1.4,0.1-3.9-0.6-5.2-1.1c-0.2-0.1-0.5-0.2-0.7-0.4c-0.1-0.1-0.2-0.2-0.3-0.2C93.8,21.7,93,21,92,21.2c-0.8,0.2-1.4,0.9-1.9,1.5
				c-0.1,0.1-0.2,0.2-0.2,0.3c-0.1,0.1-0.1,0.2-0.2,0.2c-0.2,0.2-0.4,0.4-0.6,0.6c-1.7,1.2-2.8,0.6-3.8-0.5
				c-0.1-0.1-0.3-0.3-0.4-0.5c-0.1-0.2-0.2-0.3-0.3-0.5c-0.2-0.3-0.5-0.7-0.7-1c0,0,0-0.1-0.1-0.1c-0.3-0.4-0.6-0.7-0.9-1
				c-0.4-0.3-0.8-0.6-1.3-0.8c-1-0.4-2.1-0.3-3.2,0.3c-0.1,0-0.1,0.1-0.2,0.1c-0.2,0.1-0.4,0.2-0.6,0.4c-0.4,0.3-0.8,0.7-1.2,1.1
				c-0.4,0.4-0.8,0.9-1.2,1.3c-1,1-2,1.8-3.2,1.9c-1.3,0.1-2.4-0.6-3.4-1.4c-0.7-0.5-1.3-1.1-2-1.6c-0.7-0.5-1.3-0.8-2.1-0.8
				c-0.3,0-0.7,0-1.1,0.2c-0.4,0.1-0.8,0.4-1.2,0.7c0,0-0.1,0.1-0.1,0.1c-0.3,0.3-0.7,0.7-1,1.1c0,0-0.1,0.1-0.1,0.1
				c-0.4,0.4-0.7,0.9-1.1,1.3c-0.8,0.8-1.6,1.3-2.6,0.8c-0.2-0.1-0.4-0.2-0.6-0.4c0,0-0.1-0.1-0.1-0.1c-0.5-0.5-0.9-1.1-1.3-1.6
				c-0.2-0.3-0.4-0.6-0.6-0.8c-0.1-0.1-0.2-0.2-0.4-0.3c-1.2-0.9-3-0.6-4,0.4c-0.7,0.7-0.8,1.6-1.2,2.4c-1.2,2.6-3.9,0.6-5.3-0.8
				c-0.6-0.6-1.1-1.2-1.4-1.6c-0.1-0.1-0.1-0.1-0.2-0.2c-0.7-0.7-1.3-1.3-2.3-1.1c-0.8,0.1-1.2,0.6-1.4,1.2
				c-0.1,0.2-0.1,0.5-0.2,0.7c-0.1,0.6-0.1,1.3-0.2,1.9c0,0.1,0,0.3-0.1,0.4c-0.1,0.4-0.2,0.8-0.3,1.1c-0.7,1.2-2,1.1-3.2,0.6
				c-0.3-0.1-0.7-0.3-1-0.5c-0.5-0.3-1-0.7-1.4-1c-1-0.8-1.9-1.6-3-2c-0.9-0.4-1.8-0.5-2.8-0.2c-0.1,0-0.2,0.1-0.3,0.1
				c-1.9,0.7-2.3,2.7-3.3,4c-0.3,0.4-0.7,0.7-1.1,1c-0.2,0.1-0.3,0.1-0.5,0.2c-0.3,0.1-0.7,0.1-1.1,0.1c-0.5,0-0.9-0.1-1.3-0.2
				c-0.4-0.1-0.7-0.3-1.1-0.4c-1.1-0.5-2-1.3-3-1.9c-0.8-0.5-1.6-0.8-2.5-0.8c-0.2,0-0.3,0-0.5,0c-0.1,0-0.1,0-0.2,0
				c-0.3,0.1-0.7,0.2-1.1,0.4c-0.3,0.2-0.7,0.5-1.1,0.8c-0.4,0.4-0.8,0.7-1.2,1c-0.6,0.5-1.3,0.9-2.1,1.1c-0.3,0.1-0.5,0.1-0.9,0.1
				c-0.3,0-0.8,0-1.3,0c0,0,0,0-0.1,0c0,0-0.1,0-0.1,0c-0.8-0.1-1.5-0.4-1.7-1.1c0-0.1,0-0.2,0-0.2c-0.1-1.4,2.2-1.8,2-3.1
				c0-0.2-0.1-0.4-0.3-0.6c0,0,0-0.1-0.1-0.1c-0.2-0.2-0.4-0.5-0.6-0.8c-0.1-0.1-0.1-0.2-0.2-0.2c-0.3-0.3-0.6-0.7-0.8-1
				c0-0.1-0.1-0.1-0.1-0.2c0-0.1-0.1-0.1-0.1-0.2c0,0,0-0.1,0-0.1c0-0.1-0.1-0.2-0.1-0.3c0,0,0-0.1,0-0.1c0-0.2,0-0.3,0.1-0.5
				c0.2-0.3,0.5-0.5,1.2-0.5c0.9-0.1,1.7,1.1,2.6,0.7c0.1,0,0.1-0.1,0.2-0.1c1.1-0.8-0.6-2.7-1.1-4.4C5.1,15.7,5,15.5,5,15.3
				c-0.1-0.7,0.1-1.2,0.8-1.6c0.1-0.1,0.3-0.1,0.5-0.2c0.4-0.1,0.8-0.1,1.2-0.1c1.1,0.2,2,1,3,1.7c0.1,0.1,0.3,0.2,0.4,0.3
				c0.1,0,0.1,0.1,0.2,0.1c0.1,0,0.2,0.1,0.2,0.1c0.2,0.1,0.4,0.2,0.6,0.2c0.1,0,0.1,0,0.2,0.1c0.4,0.1,0.8,0.1,1.2,0.1
				c0.5,0,1.1,0,1.6,0.1c0.3,0,0.7,0.1,1,0.1c1.7,0.2,3.2,0.6,5,0.4c1.2-0.2,2.5-0.4,3.7-0.6c0.1,0,0.2,0,0.3,0
				c0.7-0.1,1.4-0.1,2.1,0c0.1,0,0.2,0,0.2,0c0.4,0,0.8,0.1,1.2,0.1c0.1,0,0.2,0,0.4,0c2.8,0.3,5.6,0.5,8.4,0.7c0.2,0,0.4,0,0.6,0
				c0.2,0,0.3,0,0.5,0c0.7,0,1.4,0.1,2.2,0.1c3,0.1,6.1,0.2,9.1,0.3c0.5,0,1,0,1.5,0c0.2,0,0.3,0,0.5,0c0.6,0,1.2,0,1.8,0
				c0.4,0,0.8,0,1.3,0c1.1,0,2.3,0.1,3.4,0.2c1.4,0.1,2.8,0.2,4.2,0.3c0.3,0,0.7,0,1,0.1c2.1,0.1,4.1,0.2,6.2,0.1
				c4-0.3,7.7-0.7,11.7,0.1c0.5,0.1,1,0.2,1.5,0.2c3.8,0.6,7.8,0.6,11.7,0c0.7-0.1,1.4-0.2,2-0.3c0.8-0.2,1.5-0.5,2.1-1.3
				c0-0.1,0.1-0.1,0.1-0.2c0.2-0.3,0.4-0.6,0.6-0.9c0.1-0.1,0.2-0.3,0.2-0.4c0-0.1,0.1-0.1,0.1-0.2c0.1-0.1,0.1-0.2,0.2-0.3
				c0.2-0.3,0.3-0.6,0.4-0.9c0-0.1,0-0.1,0.1-0.2c0.1-0.1,0.1-0.3,0.2-0.4c0.2-0.4,0.4-0.7,0.5-1c0.8-1.1,1.5-0.3,2.7,1
				c1.4,1.5,2.7,0.8,4.3,1.4c0.1,0,0.2,0.1,0.4,0.2c1.1,0.6,1.3,1.3,1.3,2.2c0,0.9-0.3,1.9,0.2,2.8c0.2,0.4,0.5,0.6,0.8,0.8
				c0.4,0.2,0.9,0.4,1.2,0.7c0.1,0.1,0.2,0.2,0.2,0.3c0,0.1,0.1,0.1,0.1,0.2c0,0,0,0,0,0.1C112.4,22.2,112.4,22.7,112.2,23.1z"/>
			<g>
				<path class="st5" d="M13.6,23c-0.4,1-1,1.2-2,1.5c-3.2,1.1-6.2,1.9-9.3,3c0-0.1,0-0.2,0-0.2c-0.1-1.4,2.2-1.8,2-3.1
					C7.4,24.2,10.8,23,13.6,23z"/>
			</g>
			<path class="st17" d="M10.5,24.5c-1.4,0.1-2.7,0.1-4-0.2c-0.8-0.1-1.6-0.4-2.4-0.6c0,0,0-0.1-0.1-0.1c-0.2-0.2-0.4-0.5-0.6-0.8
				c-0.1-0.1-0.1-0.2-0.2-0.2c-0.3-0.3-0.6-0.7-0.8-1c0-0.1-0.1-0.1-0.1-0.2c0-0.1-0.1-0.1-0.1-0.2c0,0,0-0.1,0-0.1
				c0-0.1-0.1-0.2-0.1-0.3c0,0,0-0.1,0-0.1c0-0.2,0-0.3,0.1-0.5c0.3,0.2,0.6,0.4,0.8,0.5c0.4,0.2,0.7,0.4,1.1,0.6
				c0.7,0.4,1.5,0.8,2.3,1.1c1.3,0.6,2.7,1,4.1,1.3C10.9,23.9,10.8,24.4,10.5,24.5z"/>
			<path class="st17" d="M10.7,19.2c-0.2-0.1-0.5-0.2-0.7-0.4c-0.4-0.2-0.8-0.4-1.1-0.5c0,0-0.1,0-0.1,0c0,0-0.1,0-0.1-0.1
				c-0.3-0.1-0.5-0.3-0.8-0.4c-0.1-0.1-0.2-0.1-0.3-0.2c-0.1,0-0.1-0.1-0.2-0.1c0,0-0.1-0.1-0.1-0.1c-0.7-0.5-1.3-1-1.9-1.6
				c-0.1-0.1-0.2-0.3-0.4-0.4c-0.1-0.7,0.1-1.2,0.8-1.6c0.2,0.3,0.5,0.7,0.7,1c0.3,0.3,0.6,0.6,0.9,1c0.3,0.4,0.7,0.7,1.1,1
				c0,0,0.1,0.1,0.1,0.1c0,0,0.1,0.1,0.1,0.1c0.1,0.1,0.2,0.2,0.4,0.3c0.1,0.1,0.1,0.1,0.2,0.2c0.2,0.2,0.4,0.4,0.6,0.5c0,0,0,0,0,0
				c0.1,0.1,0.2,0.2,0.3,0.3c0.2,0.2,0.4,0.4,0.6,0.5c0.1,0.1,0.1,0.1,0.2,0.2C11.1,19,10.9,19.3,10.7,19.2z"/>
			<path class="st17" d="M6.3,29.4c-1.4,1.1-3.2,1.6-4.8,2.1c-0.5,0.2-1,0.3-1.5,0.5c-0.4-1.8,0.8-2.1,2.7-2.8
				C3.2,29,3.6,28.9,4,28.7c0,0,0.1,0,0.1,0c0.7-0.1,1.3-0.2,2-0.2c0.1,0,0.1,0,0.2,0C6.6,28.7,6.6,29.1,6.3,29.4z"/>
			<path class="st17" d="M10.7,34.7c-1.9,1.5-4.2,2.6-6.3,3.7c0.1-1,0.5-1.9,1.3-2.8c1.5-0.7,3.1-1.4,4.7-1.8
				C10.9,33.6,11.1,34.4,10.7,34.7z"/>
			<path class="st17" d="M109.5,16.8c0,0-0.1,0-0.1,0.1c-0.4,0.2-0.8,0.4-1.2,0.7c-1.8,0.9-3.6,1.8-5.5,2.3
				c-0.5,0.1-0.8-0.5-0.4-0.8c-0.6,0-1-0.9-0.4-1.3c1.8-1.1,3.7-2,5.5-2.9c0.1-0.1,0.3-0.1,0.4-0.2c0.1,0,0.2,0.1,0.4,0.2
				C109.4,15.2,109.6,16,109.5,16.8z"/>
			<path class="st17" d="M112.2,23.1c-0.5,0.1-1,0.2-1.5,0.2c-1.5,0.2-3.1,0.2-4.7,0c-0.6-0.1-0.6-0.9,0-0.9
				c1.2-0.1,2.4-0.2,3.6-0.4c0.8-0.1,1.5-0.3,2.3-0.4C112.4,22.2,112.4,22.7,112.2,23.1z"/>
			<g>
				<path class="st18" d="M6.7,19.9c0.4,0.4-0.5,1.7,0.4,2.5c1.1,1,3.5,0.9,4.8,1c1.3,0.1,2.8-0.2,4.1,0.1c1.2,0.2,2.3,1.3,3.6,1.3
					c0.7,0,0.8-0.4,1.5-0.6c1.9-0.7,4-0.9,6.1-1c1.6,0,3.1,0.4,4.6,0.6c1.9,0.3,2.9-0.1,4.7-0.5c1.5-0.4,3.1-0.4,4.6-0.3
					c1.6,0.1,2,0.5,3.2,1c2.2,0.8,3.6-0.6,5.6-0.9c1.3-0.2,2.7-0.1,4,0c0.6,0,1.4-0.1,1.9,0.1c0.3,0.1,0.4,0.5,0.7,0.7
					c0.7,0.3,1.5-0.1,2.2-0.3c1.1-0.3,1.7-0.5,2.8-0.5c2.6,0,5.4-0.3,7.9,0.4c2,0.5,3.1-0.1,5-0.5c1.5-0.3,2.9,0,4.4,0
					c5.1,0.2,10.3-0.1,15.4-0.2c3.2-0.1,6.3-0.2,9.4-0.5c1.5-0.1,5.7,0.4,5.4-2.2c-2.8-0.8-3.2-4.3-5.9-5c-0.8-0.2-1.8,0-2.6,0
					c-3.8,0-7.7-0.1-11.5-0.1c-12.5,0-24.9,0.1-37.4,0.4c-11.8,0.3-23.6,0.6-35.3,1.9c-2.4,0.3-7.9,0.3-9.6,2.4V19.9z"/>
			</g>
			<path class="st19" d="M106,19.9c0,0.6-0.1,1-0.1,1L8.1,22.8c0,0-0.5-0.7-0.9-1.7c-0.3-0.7-0.5-1.5-0.4-2.3c0-0.2,0-0.4,0.1-0.6
				c0.1-0.3,0.3-0.6,0.5-0.9c0,0,1.8-0.9,4.6-2.4H104c0.5,0.3,1,0.7,1.3,1.1c0.1,0.1,0.1,0.1,0.2,0.2c0.2,0.4,0.4,0.7,0.4,1.1
				C106,18.4,106,19.3,106,19.9z"/>
			<path class="st20" d="M105.5,16.2C105.4,16.2,105.4,16.2,105.5,16.2c-0.2,0-0.4,0-0.6,0c-0.1,0-0.1,0-0.2,0c-0.2,0-0.3,0-0.5,0
				c-1.5,0-3.2,0.1-5,0.1c-0.3,0-0.6,0-0.9,0c-1.4,0-2.9,0.1-4.4,0.1c-0.5,0-1.1,0-1.6,0c-1.2,0-2.4,0.1-3.7,0.1c0,0,0,0-0.1,0
				c-0.2,0-0.5,0-0.7,0c-0.5,0-1.1,0-1.7,0c-0.2,0-0.5,0-0.7,0c-0.1,0-0.1,0-0.2,0c-0.1,0-0.2,0-0.3,0c-0.4,0-0.8,0-1.2,0
				c-0.1,0-0.1,0-0.2,0c-0.5,0-1,0-1.6,0c-2.5,0.1-5,0.1-7.7,0.2c-0.4,0-0.7,0-1.1,0c-0.1,0-0.2,0-0.3,0c-0.3,0-0.7,0-1,0
				c-0.9,0-1.8,0-2.8,0.1c-2,0-4.1,0.1-6.1,0.1c-0.4,0-0.8,0-1.1,0c0,0-0.1,0-0.1,0c-1.1,0-2.3,0-3.4,0.1c-0.4,0-0.9,0-1.3,0
				c-1.2,0-2.5,0.1-3.7,0.1c-0.7,0-1.4,0-2.2,0c-0.3,0-0.6,0-1,0c-0.3,0-0.7,0-1,0c-2.4,0-4.8,0.1-7.1,0.1c-1.9,0-3.8,0.1-5.6,0.1
				c-0.3,0-0.5,0-0.8,0c-0.2,0-0.4,0-0.6,0c-9.7,0.2-18,0.3-23.2,0.4c-1,0-2,0-2.7,0c-0.6,0-1.2,0-1.6,0c-0.3,0-0.6,0-0.8,0
				c0,0-0.1,0-0.1,0c0-0.1,0-0.1,0.1-0.2c0.1-0.3,0.2-0.5,0.4-0.8c6.2-3.2,12.5-6.4,18.9-9.5c4.2-2.1,8.5-4.1,12.8-6
				c0.2-0.1,0.5-0.2,0.7-0.3c0.1,0,0.2-0.1,0.3-0.2c0.1-0.1,0.2-0.1,0.3-0.2c0.3-0.2,0.7-0.3,1-0.4c0.1,0,0.2-0.1,0.3-0.1
				c0.1,0,0.1,0,0.2-0.1c0.7-0.3,1.4-0.4,2.1-0.5c1.7-0.1,3.5,0.3,5,0.9c1.4,0.5,2.5,0.4,4,0.5c1.5,0.1,2.8,0.9,4,1.3
				c1.4,0.5,3.2,0.2,4.7,0.7c1.7,0.5,2.9,1.4,4.7,1.5c1.5,0.1,3.7,0,5.1,0.8c0.8,0.5,1.6,1,2.6,1.1c1,0.1,1.9-0.2,2.9,0.2
				c1.6,0.5,2.6,1.4,4.3,1.6c1.8,0.1,3.6,0.2,5.1,1.2c0,0,0,0,0.1,0c0.8,0.5,1.4,0.9,2,1.1c0.8,0.3,1.7,0.4,3,0.3
				c1.8-0.1,2.9,0.9,4.4,1.6c1.1,0.5,2.3,0.1,3.4,0.5c1.3,0.4,2.6,1,4,1.4c0.7,0.2,1.6,0.8,2.2,1.5
				C105.4,16.1,105.4,16.2,105.5,16.2C105.4,16.2,105.4,16.2,105.5,16.2z"/>
			<path class="st21" d="M105.5,16.2C105.4,16.2,105.4,16.2,105.5,16.2c-0.2,0-0.4,0-0.6,0c-0.1,0-0.1,0-0.2,0c-0.2,0-0.3,0-0.5,0
				c-0.3-0.2-0.6-0.3-0.8-0.4c-0.1,0-0.1,0-0.2-0.1c-2.6-0.7-4.5-0.5-7,0.6c0.6-0.5,1-0.9,1.2-1.4c0.2-0.5,0-1-0.7-1.3
				c-0.2-0.1-0.3-0.1-0.5-0.2c-0.1,0-0.3-0.1-0.4-0.1c-1-0.1-2.1,0-3,0.4c-1,0.3-1.9,0.8-2.6,1.4c-0.5,0.3-1.1,1.1-1.6,1.4
				c-0.1,0-0.1,0.1-0.2,0.1c-0.6,0.3-1.7,0.1-2.3,0.2c0.1-0.1,0.1-0.2,0.2-0.3c0.6-0.8,1.5-1.4,2.1-2.2c0.2-0.2,0.3-0.5,0.4-0.8
				c0-0.1,0-0.1,0.1-0.2c0.1-0.3,0.1-0.6,0-0.9c0,0,0-0.1,0-0.1c-0.4-1-1.7-1.5-2.8-1.9c-0.4-0.2-0.8-0.3-1.2-0.3
				c-0.7-0.1-1.5,0-2.2,0.2c-1.8,0.6-3.4,2-4.8,3.2c-0.9,0.8-1.7,1.7-2.7,2.4c-0.1,0.1-0.2,0.1-0.3,0.2c-0.4,0.3-0.7,0.4-1.1,0.4
				c-0.1,0-0.2,0-0.4,0c-0.1,0-0.3,0-0.5,0c0.6-0.9,2-1.9,3.1-2.6c0.2-0.1,0.3-0.3,0.5-0.4c0.4-0.3,1.4-1,2.1-1.8
				c0.3-0.3,0.6-0.6,0.8-0.9c0.1-0.1,0.2-0.2,0.2-0.4c0.2-0.4,0.2-0.7,0.1-1c-0.6-1.4-4.9-0.9-6-0.4c-0.9,0.4-1.6,0.9-2.4,1.5
				C70,11.5,69,12.4,68,13.2c-0.8,0.7-1.6,1.3-2.4,1.9c-0.5,0.4-1.7,1.7-2.5,2.1c-0.1,0.1-0.3,0.1-0.4,0.1c-0.1,0-0.4,0-0.8-0.1
				c0,0-0.1,0-0.1,0c-0.4-0.1-0.7-0.1-0.9-0.1c2.3-2.2,4.7-4.2,7.1-6.1c0.7-0.5,3-1.8,3.6-2.9c0.2-0.5,0.2-0.9-0.4-1.3
				c-0.2-0.1-0.4-0.3-0.7-0.4c-0.7-0.3-1.4-0.5-2.1-0.5c-1.9-0.1-3.8,0.7-5.4,1.8c-0.4,0.2-0.7,0.5-1,0.7C62,8.8,61.8,9,61.6,9.1
				c-1.4,1.2-2.8,2.5-4.2,3.7c-1,0.8-2,1.7-3.1,2.5c-0.6,0.5-1.2,0.9-1.8,1.3c-0.3,0.2-0.8,0.6-1.2,0.9c-0.2,0.1-0.4,0.2-0.5,0.2
				c-0.1,0-0.2,0-0.3,0c-0.5,0-1.1,0.1-1.4,0.1c0.1-0.1,0.2-0.2,0.3-0.3c2.2-2.1,5.9-4.5,8.7-6.7c0.4-0.3,0.7-0.6,1-0.8
				c2-1.6,3.3-3.1,2.6-4.1c-0.1-0.2-0.3-0.3-0.5-0.5c-1.4-1-3.3-0.6-5,0.3c-1.6,0.8-3.1,1.9-4,2.5c-1.1,0.7-2.3,1.5-3.4,2.2
				c-0.7,0.4-1.4,0.9-2.1,1.3c-3.3,2.1-6.6,4.2-10,6.1c-0.3,0.2-0.6,0.3-0.9,0.5c-0.2,0.1-0.3,0.2-0.5,0.3c-0.2,0-0.3,0.1-0.5,0.1
				c0,0,0-0.1,0-0.1c0.1-0.1,0.2-0.2,0.3-0.3c0.2-0.2,0.4-0.3,0.6-0.5c0.1-0.1,0.2-0.1,0.2-0.2c3.3-2.4,6.6-4.6,10-6.8
				c1.8-1.2,3.7-2.4,5.5-3.6c1.4-0.9,2.7-1.8,4.1-2.6c0.4-0.2,0.7-0.4,1.1-0.6c-0.6-0.3-1.1-0.4-1.6-0.5c-0.5,0-0.9,0-1.5-0.1
				c-1.3-0.1-2.5-0.9-3.8-0.5c-1.9,0.5-4,1.7-5.8,2.6c-2.7,1.3-5.3,3.1-7.8,4.7c-2.5,1.7-5.2,2.9-7.7,4.6c-0.7,0.4-1.9,1.5-3.2,2.3
				c-1.1,0.7-2.2,1.1-3,0.8c0.3-0.2,0.6-0.4,0.8-0.6c0.3-0.2,0.6-0.5,0.8-0.7c0.6-0.6,1.2-1.2,1.9-1.5c2-1.1,4-2.2,6.1-3.4
				c2.3-1.3,4.7-2.7,7-4c0.1-0.1,0.2-0.1,0.3-0.2c1.5-0.9,2.9-2,4.2-3.1c0.5-0.4,3.1-0.7,3.6-1.4c0.1-0.2,0.1-0.3-0.1-0.5
				c-1.8-1.5-3.6-1.3-5.5-0.7c-0.9,0.3-1.8,0.8-2.7,1.2c-0.2,0.1-0.4,0.2-0.6,0.2C34.3,5.1,30.2,7.1,26.1,9c-6,3-10.9,6.1-16.9,9.2
				c-0.1,0-0.1,0.1-0.2,0.1c-0.2,0-1.7-0.1-2.1-0.1c0,0-0.1,0-0.1,0c0-0.1,0-0.1,0.1-0.2c0.1-0.3,0.2-0.5,0.4-0.8
				c6.2-3.2,12.5-6.4,18.9-9.5c4.2-2.1,8.5-4.1,12.8-6c0.2-0.1,0.5-0.2,0.7-0.3c0.1,0,0.2-0.1,0.3-0.2c0.1-0.1,0.2-0.1,0.3-0.2
				c0.3-0.2,0.7-0.3,1-0.4c0.1,0,0.2-0.1,0.3-0.1c0.1,0,0.1,0,0.2-0.1C42.4,0.3,43,0.1,43.8,0c1.3-0.1,2.9,0.1,5,0.9
				c1.4,0.5,2.5,0.4,4,0.5c1.5,0.1,2.8,0.9,4,1.3c1.4,0.5,3.2,0.2,4.7,0.7c1.7,0.5,2.9,1.4,4.7,1.5c1.5,0.1,3.7,0,5.1,0.8
				c0.8,0.5,1.6,1,2.6,1.1c1,0.1,1.9-0.2,2.9,0.2c1.6,0.5,2.6,1.4,4.3,1.6c1.8,0.1,3.6,0.2,5.1,1.2c0,0,0,0,0.1,0
				c0.8,0.5,1.4,0.9,2,1.1c0.8,0.3,1.7,0.4,3,0.3c1.8-0.1,2.9,0.9,4.4,1.6c1.1,0.5,2.3,0.1,3.4,0.5c1.3,0.4,2.6,1,4,1.4
				c0.7,0.2,1.6,0.8,2.2,1.5C105.4,16.1,105.4,16.2,105.5,16.2C105.4,16.2,105.4,16.2,105.5,16.2z"/>
			<path class="st22" d="M100.8,14.6c-0.2,0.1-0.4,0.2-0.6,0.3c-0.9,0.3-1.9,0.3-2.9,0.2c-0.3,0-0.7-0.1-1-0.2
				c-0.4,0.2-0.8,0.4-1.1,0.6c-0.4,0.3-0.9,0.7-1.4,1c-0.5,0.3-0.9,0.5-1.4,0.5c-0.1,0-0.3-0.1-0.3-0.3c0-0.1,0-0.2,0-0.2
				c0.2-0.9,1.3-1.7,2-2.2c0,0,0,0,0.1,0c-0.1,0-0.2-0.1-0.3-0.1c-0.4-0.1-0.8-0.3-1.2-0.4c-0.9-0.3-1.8-0.5-2.7-0.6
				c-0.4,0.5-1.1,0.9-1.8,1.2c-0.3,0.2-0.6,0.3-0.8,0.5c-0.7,0.5-1.4,1.1-2.1,1.7c-0.5,0.4-1,0.8-1.5,1.1c-0.2,0.1-0.6-0.1-0.5-0.4
				c0.1-0.2,0.2-0.5,0.3-0.7c0-0.1,0.1-0.1,0.1-0.2c-0.1,0.1-0.2,0.1-0.3,0.2c-0.5,0.4-1,0.7-1.5,1c-0.3,0.2-0.6-0.2-0.4-0.4
				c0.1-0.2,0.2-0.4,0.4-0.5c0.8-1.2,1.9-2.2,3-3.2c0.6-0.5,1.3-1.2,2.1-1.8c-0.4-0.1-0.7-0.3-1.1-0.5c-0.7-0.2-1.4-0.4-1.9-0.5
				c-0.4-0.1-0.8-0.1-1.2-0.1c-0.1,0.1-0.2,0.3-0.3,0.4c-1.8,1.2-3.5,2.4-5.3,3.6c-0.8,0.5-1.5,1-2.3,1.5c-0.1,0.1-0.2,0.1-0.3,0.2
				c0,0,0,0-0.1,0c0.6-0.1,1.1-0.1,1.6-0.1c0.2,0,0.2,0.3,0,0.3c-0.6,0.2-1.3,0.3-1.9,0.3c-0.3,0-0.6,0-0.8,0.1
				c-0.2,0.1-0.4,0.2-0.5,0.2c-0.1,0-0.2,0-0.3,0.1c-0.1,0-0.3,0-0.4,0c-0.2,0-0.3-0.1-0.3-0.3c0,0,0-0.1,0-0.2
				c0.2-0.8,0.8-1.2,1.5-1.7c0.9-0.7,1.8-1.3,2.7-2c1-0.7,2-1.4,3-2.2c0.1-0.1,0.2-0.2,0.4-0.3c-0.1,0-0.1-0.1-0.2-0.1
				c-0.2-0.2-0.5-0.3-0.8-0.4c-0.7-0.4-1.5-0.6-2.3-0.9c-0.1,0-0.1,0.1-0.2,0.1c-0.7,0.4-1.3,0.7-2,1.1c-1.3,0.8-2.6,1.6-3.9,2.4
				c-1.3,0.9-2.6,1.8-3.9,2.7c-0.3,0.2-0.7,0.5-1,0.8c1.3-0.1,2.6-0.1,3.8,0.2c0.2,0.1,0.3,0.3,0.2,0.5c0,0-0.1,0.1-0.2,0.1
				c-1.1,0.2-2.2,0.2-3.3,0.2c-0.7,0-1.3,0.1-2,0.1c-0.3,0.2-0.7,0.4-1,0.4c-0.2,0.1-0.5-0.2-0.4-0.4c-0.1,0-0.1,0-0.2,0
				c-0.2,0-0.2-0.1-0.2-0.3c0-0.1,0.1-0.2,0.2-0.2c0.2-0.1,0.4-0.1,0.6-0.2c0.6-1,1.7-1.9,2.5-2.6c1.2-1.1,2.5-2,3.8-3
				c1.4-1,2.8-1.9,4.2-2.7c0.1,0,0.1-0.1,0.2-0.1c-0.6-0.1-1.1-0.3-1.7-0.4c-0.6-0.1-1.1-0.3-1.6-0.4c-0.3-0.1-0.7-0.2-1-0.2
				c-0.9-0.2-1.7-0.4-2.6-0.6c-0.8,0.8-1.9,1.5-2.7,2.1c-1.3,1-2.5,2-3.8,3c-1.9,1.5-3.7,3.2-5.7,4.5c0.4,0,0.7,0,1.1,0
				c0.3,0,0.3,0.4,0.1,0.5c-0.6,0.2-1.2,0.4-1.9,0.4c-0.3,0-0.6,0.1-0.9,0.1c-0.1,0.1-0.3,0.1-0.4,0.2c-0.2,0.1-0.4,0-0.5-0.1
				c-0.3,0-0.6,0-0.9,0.1c-0.1,0-0.2,0-0.3,0c0,0-0.1,0-0.1,0c-0.1,0-0.1-0.1-0.1-0.2c0-0.1,0.1-0.2,0.1-0.2c0.5-0.1,1-0.2,1.5-0.3
				c0.9-1.1,2-2.2,3.1-3.1c1.3-1.1,2.6-2.1,3.8-3.2c1.3-1.1,2.6-2.2,3.9-3.3c0.4-0.3,0.8-0.7,1.2-1c0,0,0,0-0.1,0
				c-0.7-0.2-1.5-0.3-2.2-0.5c0,0-0.1,0-0.1,0c-0.5-0.1-1-0.2-1.5-0.3c-1.3,1.2-3.1,2.1-4.5,3c-2,1.3-4,2.5-6,3.6
				c-3,1.8-6.2,3.5-9.4,4.9c0.8-0.1,1.6-0.1,2.3-0.1c0.3,0,0.4,0.5,0.1,0.6c-0.1,0-0.2,0.1-0.3,0.1c-1,0.3-2.2,0.3-3.2,0.4
				c-1.1,0.1-2.2,0.2-3.2,0.2c-0.2,0-0.4,0-0.6,0c-0.1,0-0.1,0-0.2,0c-0.2,0-0.3-0.3-0.1-0.4c0.1,0,0.1,0,0.2,0
				c0.3-0.1,0.6-0.1,0.9-0.2c0.3,0,0.5-0.1,0.8-0.1c3.7-2.6,7.8-4.7,11.7-7c0,0,0.1-0.1,0.2-0.1c1.9-1.1,3.8-2.3,5.6-3.5
				c0.6-0.4,1.2-0.8,1.8-1.2c0.4-0.2,0.7-0.5,1.1-0.7l-1.6-0.3c-1.4-0.3-2.8-0.6-4.2-0.8c-0.2,0-0.4-0.1-0.6-0.1
				c-0.9,0.8-2,1.2-3,1.7c-1.3,0.7-2.5,1.3-3.8,2c-2.4,1.3-4.8,2.6-7.2,3.9c-2.4,1.4-4.9,2.7-7.3,4.1c-0.9,0.5-1.7,1-2.6,1.5
				c-0.5,0-1,0-1.5,0.1c-0.7,0-1.3,0.1-2,0.2c0,0-0.1,0-0.2,0c-0.1,0-0.1,0-0.2,0c0.3-0.3,0.7-0.5,1.1-0.8c0.4-0.3,0.8-0.5,1.2-0.8
				c1.1-0.7,2.3-1.5,3.5-2.2c1.1-0.7,2.2-1.3,3.4-2c1.3-0.8,2.6-1.5,3.9-2.2c1.1-0.7,2.3-1.3,3.5-1.9c1.4-0.8,2.7-1.5,4.1-2.2
				c1.2-0.6,2.4-1.3,3.6-1.9c0.2-0.1,0.3-0.2,0.5-0.3c-0.1,0-0.2,0-0.4-0.1c-0.3-0.1-0.6-0.1-0.9-0.2c-0.8-0.1-1.7-0.2-2.6-0.4
				c-1.1,0.9-2.7,1.4-3.9,2.1c-1.5,0.8-3,1.5-4.5,2.3c-3,1.5-6,3-9,4.5c-3.1,1.5-6.2,3-9.3,4.4c-1.6,0.7-3.2,1.6-4.9,2.3
				c0,0,0,0.1,0,0.1c0,0.1-0.1,0.1-0.1,0.1c-0.6,0.3-1.4,0.5-2.2,0.5c-0.6,0.2-1.2,0.3-1.8,0.4c-0.2,0-0.3-0.2-0.4-0.3
				c-0.1,0-0.2,0-0.3,0c-0.5,0-0.6-0.6-0.3-0.9c0.1,0,0.1-0.1,0.2-0.1c0.1,0,0.3-0.1,0.4-0.1c0.1,0,0.2,0,0.3-0.1
				c0.4-0.1,0.7-0.1,1.1-0.2c1-0.6,2-1.1,3-1.6c1.5-0.7,3-1.5,4.5-2.2c3-1.5,6-3,9.1-4.4c1.8-0.9,3.6-1.8,5.4-2.7
				c1.3-0.6,2.6-1.3,3.8-1.9c1.5-0.8,3-1.5,4.5-2.3c0.4-0.2,0.8-0.4,1.2-0.7c0.3-0.2,0.6-0.4,1-0.5c0,0,0,0,0.1,0
				c0,0,0.1-0.1,0.1-0.1c0.7-0.3,1.4-0.6,2-0.7c0.4-0.1,0.7,0.2,0.8,0.6c0.7,0.1,1.4,0.3,2,0.4c1.1,0.2,2.2,0.3,3.3,0.5
				c0.7,0.1,1.4,0.2,2.1,0.3c2,0.3,4.1,0.6,6.1,1.1c1,0.3,1.9,0.8,2.9,1.1c0.4,0.1,0.7,0.3,1.1,0.3c0.2,0,0.5,0.1,0.7,0.1
				c0.7,0,1.3,0,2,0.1c1.4,0.3,2.6,0.9,4,1.1c1.4,0.2,2.9,0.2,4.3,0.5C74,6.8,74.9,7,75.8,7.3c0.5-0.2,0.9-0.3,1.4-0.2
				c0.4,0.1,0.6,0.4,0.6,0.8c0,0,0.1,0,0.1,0c0.7,0.2,1.4,0.5,2.1,0.9c0.4,0.2,0.8,0.5,1.1,0.9c0.1-0.1,0.3-0.2,0.4-0.3
				c0,0,0.1-0.1,0.1-0.1c0.4-0.2,0.8-0.1,1,0.2c0.5-0.1,1-0.1,1.5-0.1c0.6,0,1.4,0.1,2.2,0.3c0.4,0.1,0.8,0.3,1.1,0.5
				c0.4,0.2,0.7,0.4,0.9,0.6c0.1,0.1,0.3,0.3,0.4,0.5c0.1,0,0.2,0,0.3,0c0.3,0,0.5,0.2,0.6,0.4c1.1-0.1,2.3,0,3.3,0.3
				c1.2,0.3,2.3,0.8,3.5,1.1c0.3,0,0.5,0,0.7,0.1c0,0,0.1,0.1,0.1,0.1c1.1,0.2,2.3,0.3,3.4,0.4C101.1,13.8,101.1,14.4,100.8,14.6z"
				/>
			<path class="st17" d="M43.6,2.1c-2.3,0.6-4.5,2.2-6.5,3.3c-2.3,1.3-4.6,2.5-7,3.8c-4.5,2.5-9.2,4.9-13.5,7.9
				c-0.3,0.2,0,0.6,0.3,0.5c4.8-2,9.3-4.7,13.8-7.3c0.8-0.5,1.6-0.9,2.4-1.4c-1.2,0.7-2.3,1.5-3.5,2.2c-3.5,2.1-6.9,4.4-10.4,6.6
				c-0.2,0.1,0,0.4,0.2,0.3c3.6-2.1,7.3-4.1,10.9-6.2c3.4-2,7.1-3.9,10.3-6.4c0.2-0.2,0-0.4-0.2-0.4C41.7,4.3,43,3.6,44,2.7
				C44.2,2.5,43.9,2,43.6,2.1z"/>
			<path class="st17" d="M54.8,3.1c-2.1,0.3-4.1,1.9-6,3c-1.9,1.1-3.7,2.2-5.6,3.3c-1.9,1.1-3.7,2.3-5.6,3.4
				c-1.8,1.1-3.9,2.2-5.6,3.6c-0.2,0.2,0,0.6,0.3,0.5c2-0.8,4-2,5.9-3c1.9-1,3.8-2,5.8-3.1c1.9-1,3.8-2.1,5.7-3.2
				c1.9-1,4.2-2,5.6-3.7C55.7,3.6,55.3,3,54.8,3.1z"/>
			<path class="st17" d="M61.5,4.7c-1.5,0.7-2.9,2-4.2,3c-1.4,1.1-2.8,2.1-4.2,3.2c-1.3,1-2.7,2.1-4,3.1c-1.2,1-2.7,2.1-3.6,3.4
				c-0.1,0.2,0.1,0.4,0.3,0.4c1.4-0.5,2.9-1.6,4.1-2.4c1.5-1,3-2,4.4-3.1c1.4-1,2.8-2.1,4.2-3.1c1.3-1,3-1.9,4.1-3.2
				C63.1,5.2,62.3,4.3,61.5,4.7z"/>
			<path class="st17" d="M69.6,7.4c-2.5,0.6-4.7,2.8-6.7,4.4c-2.1,1.7-4.3,3.5-5.9,5.7c-0.2,0.3,0.2,0.7,0.5,0.5
				c2.3-1.4,4.3-3.3,6.4-4.9c2-1.6,4.7-3,6.1-5.1C70.2,7.7,69.9,7.3,69.6,7.4z"/>
			<path class="st17" d="M76.3,10.1c-1.7,0.6-3.1,1.8-4.4,3c-1.4,1.2-3,2.5-3.9,4.1c-0.2,0.3,0.2,0.5,0.4,0.4
				c1.6-0.9,2.9-2.3,4.3-3.4c1.4-1.1,2.9-2.2,4-3.6C76.8,10.3,76.6,10,76.3,10.1z"/>
			<path class="st17" d="M84.8,11.5c-1.4,0.3-2.6,1.5-3.7,2.3c-1.3,1-2.6,2.1-3.7,3.4c-0.2,0.2,0,0.5,0.3,0.4
				c1.5-0.8,2.8-1.8,4.1-2.8c1.1-0.8,2.6-1.6,3.3-2.8C85.4,11.7,85.1,11.5,84.8,11.5z"/>
			<path class="st17" d="M93.4,12.9c-2.3,0.7-4.3,2.4-6.1,3.8c-0.4,0.3,0.1,0.8,0.5,0.6c2-1.1,4.4-2.2,5.9-4
				C93.8,13.1,93.7,12.8,93.4,12.9z"/>
			<path class="st17" d="M100.1,17.9c-3-0.2-6,0-9,0c-3,0.1-6,0.1-9,0.1c-6,0.1-12,0.2-18,0.3c-5.9,0.1-11.8,0.3-17.7,0.4
				c-5.9,0.1-11.8,0-17.7,0.1c-3.3,0-6.6,0.3-9.9,0.4c-3.3,0.1-6.8,0-10,0.7c-0.2,0-0.2,0.4,0,0.4c2.8,0.5,5.7,0.3,8.6,0.3
				c3,0,6,0.1,9,0c6-0.1,12-0.5,18-0.7c11.8-0.3,23.6-0.4,35.4-0.8c3.3-0.1,6.6-0.2,9.9-0.3c3.4-0.1,7,0,10.4-0.4
				C100.5,18.6,100.5,17.9,100.1,17.9z"/>
			<path class="st23" d="M106,19.9c0,0.6-0.1,1-0.1,1L8.1,22.8c0,0-0.5-0.7-0.9-1.7c2.2,0.7,6,1.2,12.6,0.8
				C33.6,21,100.2,20.8,106,19.9z"/>
			<path class="st4" d="M111.3,24.5c-0.1,0.6-1.9,1.8-2.7,2.1c-0.1,0-0.1,0.1-0.2,0.1c-2.5,0.9-4.4-1-6.4-2.2
				c-0.3-0.2-0.6-0.3-0.9-0.4c-0.3-0.1-0.5-0.2-0.8-0.3c-0.4-0.1-0.8-0.2-1.2-0.2c-1.3-0.1-1.9-0.2-3-0.6c-0.2-0.1-0.4-0.2-0.6-0.3
				c-0.3-0.1-0.6-0.2-1-0.3c-0.7-0.2-1.4-0.3-2.1-0.3c-1.1,0-1.9,0.5-2.7,1c-0.5,0.3-1.1,0.6-1.7,0.8C87.8,23.9,87.5,24,87,24
				c-0.7,0-1.3-0.3-1.8-0.6c-0.6-0.4-1-0.9-1.5-1.3c-0.3-0.2-0.6-0.4-0.9-0.5c-0.1,0-0.1,0-0.2-0.1c-0.1,0-0.1,0-0.2,0
				c-0.1,0-0.1,0-0.1,0c-0.1,0-0.1,0-0.2,0c-0.1,0-0.1,0-0.2,0c-0.1,0-0.3,0-0.5,0c-2.2,0.3-3.9,2.2-5.9,2.8
				c-0.3,0.1-0.6,0.2-0.9,0.3c-1.9,0.5-3.9,0.4-5.5-0.8c-0.1,0-0.1-0.1-0.2-0.1c-1.5-1.1-2.8-1.4-4-1.2c-0.5,0.1-0.9,0.2-1.4,0.3
				c-1.1,0.4-2.1,1-3.4,1.6c-0.1,0-0.1,0-0.2,0.1c-0.9,0.4-1.6,0.8-2.4,0.8c-0.5,0-0.9-0.1-1.4-0.4c-0.2-0.1-0.4-0.7-0.8-1
				c-0.1,0-0.2-0.1-0.2-0.1c-0.2-0.1-0.3-0.1-0.5-0.2c-0.4-0.1-0.9-0.1-1.3-0.1c-1.1,0.2-2.2,0.9-3.3,1.5c-0.7,0.4-1.3,0.8-2,1
				c-0.1,0-0.3,0.1-0.4,0.1c-0.1,0-0.3,0.1-0.4,0.1c-0.9,0.2-1.7,0.1-2.6-0.3c0,0-0.1,0-0.1,0c-0.3-0.1-0.5-0.3-0.8-0.4
				c0,0-0.1-0.1-0.1-0.1c-1.4-0.9-1.8-1.8-4-1.1c-0.5,0.1-0.9,0.3-1.3,0.6c0,0-0.1,0-0.1,0.1c-0.3,0.2-0.6,0.3-0.9,0.5
				c-0.1,0.1-0.3,0.2-0.4,0.2c-0.1,0.1-0.2,0.1-0.3,0.2c-0.3,0.2-0.5,0.3-0.8,0.5c-0.3,0.2-0.7,0.4-1.1,0.5c0,0-0.1,0-0.1,0
				c-1.8,0.7-3-0.7-4.1-2c-0.1-0.1-0.2-0.2-0.3-0.4c-0.1-0.1-0.1-0.1-0.2-0.2L30,24.2c-0.1-0.1-0.2-0.2-0.3-0.3
				c-0.1,0-0.1-0.1-0.2-0.1c-0.1-0.1-0.2-0.2-0.4-0.2c0,0-0.1,0-0.1-0.1c0,0-0.1,0-0.1-0.1c0,0-0.1,0-0.1,0c-0.1,0-0.1,0-0.2,0
				c-0.1,0-0.1,0-0.2,0c-0.1,0-0.2,0-0.2,0c-0.1,0-0.2,0-0.3,0c-0.2,0-0.3,0.1-0.5,0.2c-0.2,0.1-0.4,0.2-0.6,0.3
				c-1.3,0.9-2,2.7-3.3,3.6c-0.2,0.2-0.5,0.3-0.8,0.4c-0.1,0-0.1,0.1-0.2,0.1c-0.1,0-0.2,0-0.2,0.1c-0.1,0-0.2,0-0.3,0.1
				c-0.1,0-0.2,0-0.3,0c-0.1,0-0.1,0-0.2,0c-0.1,0-0.1,0-0.2,0c-0.1,0-0.2,0-0.3,0c-0.2,0-0.4,0-0.6,0h-0.3c-0.4,0-0.9,0-1.3-0.1
				c-0.7-0.1-1.3-0.2-1.8-0.3c-0.2,0-0.4-0.1-0.5-0.2c-2.1-0.7-3.9-1.8-5.8-2.1c-0.4-0.1-0.9-0.1-1.4-0.1c-0.8,0-1.7,0.2-2.6,0.7
				c1.2-1.9,4.1-2.4,6.1-2.4c0.6,0,1.2,0.1,1.8,0.3c1.1,0.3,2.2,0.7,3.3,0.9c0.1,0,0.3,0,0.4,0.1c1.3,0.1,2.2-0.2,3.2-0.8
				c0.4-0.3,0.9-0.6,1.3-0.9c3.1-2.3,5.8-2.4,8.5-0.9c0.4,0.2,0.8,0.5,1.3,0.8c0.2,0.2,0.5,0.3,0.7,0.5c1.1,0.9,1.8,0.9,2.5,0.4
				c0.2-0.2,0.5-0.4,0.7-0.7c0.2-0.2,0.3-0.4,0.5-0.5c1.1-1.3,2.7-2.4,4.4-1.8c1.5,0.5,2.3,2.3,3.8,2.9c1.9,0.8,4.2-1.5,5.9-2.2
				c0.4-0.2,0.7-0.3,1-0.3c0,0,0.1,0,0.1,0c1-0.2,1.7,0.2,2.8,0.8c0.1,0.1,0.2,0.1,0.3,0.2c2.2,1.4,3.4,1.2,5.6,0.1
				c0.4-0.2,0.9-0.5,1.4-0.7c0.7-0.4,1.5-0.8,2.3-1c0.6-0.2,1.2-0.3,1.8-0.2h0.1c0.3,0,0.6,0.1,0.9,0.2c1.9,0.6,2.7,3.5,4.8,3.3
				c1.9-0.1,3.4-2.6,4.9-3.5c0.4-0.3,0.9-0.5,1.3-0.7c1.1-0.4,2.2-0.5,3.2-0.3c0.9,0.2,1.8,0.8,2.6,1.7c0.8,0.9,1.4,2.2,2.8,2.3
				c1.5,0.1,2.7-1.6,4.1-2.4c1-0.6,2.1-1,3.2-0.8c0.3,0,0.6,0.1,0.9,0.3c0.2,0.1,0.3,0.2,0.5,0.3c1.5,0.9,1.8,2.2,3.6,0.6
				c2.5-2.2,3.7,0.8,6.6,0c1.5-0.5,2.2-1.2,3.5,0c0,0,0.1,0.1,0.1,0.1c0.1,0.1,0.1,0.2,0.2,0.3c0.3,0.3,0.7,0.9,1,1.3
				c0.1,0.2,0.3,0.4,0.4,0.6C111.3,24.2,111.3,24.4,111.3,24.5z"/>
			<path class="st17" d="M20.6,28.2c-0.1,0-0.1,0-0.2,0c-0.5,0-1.1,0-1.6-0.1c-0.7-0.1-1.3-0.2-1.8-0.3c-2.3-0.6-4.2-1.9-6.4-2.3
				c-0.4-0.1-0.9-0.1-1.4-0.1c0.6-0.2,1.2-0.4,1.6-0.5c0.1,0,0.2-0.1,0.4-0.1c0.9-0.2,1.8-0.2,2.7-0.5l0.7-0.3l1.9-0.9
				c1,0,1.1,0.6,1.6,1.6c0.1,0.1,0.1,0.2,0.2,0.3c0.6,1.2,1.2,2.1,2.1,3.1C20.5,28.1,20.6,28.2,20.6,28.2z"/>
			<rect x="9.9" y="20.4" class="st20" width="0.8" height="0.8"/>
			<path class="st6" d="M30.3,24.5c-0.1-0.1-0.1-0.1-0.2-0.2c0,0-0.1-0.1-0.1-0.1c-0.1-0.1-0.2-0.2-0.3-0.3c-0.1,0-0.1-0.1-0.2-0.1
				c-0.1-0.1-0.2-0.2-0.4-0.2c0,0-0.1,0-0.1-0.1c0,0-0.1,0-0.1-0.1c0,0-0.1,0-0.1,0c-0.1,0-0.1,0-0.2,0c-0.1,0-0.1,0-0.2,0
				c-0.1,0-0.2,0-0.2,0c-0.1,0-0.2,0-0.3,0c-0.2,0-0.3,0.1-0.5,0.2c-0.2,0.1-0.4,0.2-0.6,0.3c-1.3,0.9-2,2.7-3.3,3.6
				c-0.2,0.2-0.5,0.3-0.8,0.4c-0.1,0-0.1,0.1-0.2,0.1c-0.1,0-0.2,0-0.2,0.1c-0.1,0-0.2,0-0.3,0.1c-0.1,0-0.2,0-0.3,0
				c-0.1,0-0.1,0-0.2,0c-0.1,0-0.1,0-0.2,0c-0.1,0-0.2,0-0.3,0c-0.2,0-0.4,0-0.6,0c0.1-0.1,0.3-0.3,0.4-0.4c0.1-0.1,0.1-0.2,0.2-0.3
				c1-1.2,1.6-2.8,2.7-3.9c1-1,2.3-1.5,3.5-1.4C28.5,22.4,29.6,23.1,30.3,24.5C30.2,24.5,30.2,24.5,30.3,24.5z"/>
			<path class="st6" d="M44.6,25.9c0,0-0.1,0-0.1,0c-2.2-1.1-2.3-2.4-4.9-1.6c-1.2,0.4-2.1,1-3.1,1.6c0.5-1.8,1-3.7,3.1-4.3
				c2.1-0.6,2.8,1.7,3.8,3C43.8,25.1,44.2,25.6,44.6,25.9z"/>
			<path class="st6" d="M54.7,23.5c-2.4-0.6-4.5,1.9-7.1,2.6c1.5-0.9,1.5-2.7,3.2-3.5C52.5,21.8,53.7,22.5,54.7,23.5z"/>
			<path class="st6" d="M69.1,23.7c-0.1,0-0.1-0.1-0.2-0.1c-2-1.5-3.7-1.5-5.4-0.9c0.1-0.2,0.3-0.4,0.4-0.6c0.7-0.9,1.7-1.9,3-1.5
				C68.2,21.1,68.7,22.4,69.1,23.7z"/>
			<path class="st6" d="M83.8,22.1c-0.3-0.2-0.6-0.4-0.9-0.5c-0.1,0-0.1,0-0.2-0.1c-0.1,0-0.1,0-0.2,0c-0.1,0-0.1,0-0.1,0
				c-0.1,0-0.1,0-0.2,0c-0.1,0-0.1,0-0.2,0c-0.1,0-0.3,0-0.5,0c-2.2,0.3-3.9,2.2-5.9,2.8c-0.3,0.1-0.6,0.2-0.9,0.3
				c0.1-0.1,0.2-0.3,0.3-0.4c0.8-1.1,1.5-2.2,2.4-3.1c0.9-0.9,1.5-1.5,3-1.4c0.5,0,0.9,0.2,1.4,0.4c0.6,0.3,1.2,0.8,1.7,1.4
				C83.5,21.5,83.6,21.7,83.8,22.1C83.7,22,83.7,22,83.8,22.1z"/>
			<path class="st6" d="M95.6,21c0.4,0.5,0.5,1.2,0.6,2c-0.2-0.1-0.4-0.2-0.6-0.3c-0.9-0.4-2-0.7-3.1-0.6c-1.9,0.1-2.9,1.3-4.4,1.8
				c0.5-0.5,1-1,1.3-1.3c1-0.6,3.1-2.2,4.8-2.2c0.4,0,0.8,0.1,1.1,0.3C95.5,20.8,95.6,20.9,95.6,21z"/>
			<path class="st6" d="M111.3,24.5c-0.1,0.6-1.9,1.8-2.7,2.1c-0.1,0-0.1,0.1-0.2,0.1c-2.5,0.9-4.4-1-6.4-2.2
				c-0.3-0.2-0.6-0.3-0.9-0.4c-0.3-0.1-0.5-0.2-0.8-0.3c0.6-0.8,1.1-1.6,1.7-2.1c0.6,0.6,1,1.4,1.5,2c0.8,1,1.7,1.8,3.3,1.7
				c0.2,0,0.5-0.1,0.8-0.1c1.2-0.2,2.2-1,3.3-1.4C111.3,24.2,111.3,24.4,111.3,24.5z"/>
			<path class="st6" d="M112.7,37.1c-0.3-0.1-0.6-0.2-1-0.3c-0.6-0.2-1.2-0.4-1.3-1c-0.1-0.5,0-0.7,0.3-0.8c0,0.2,0.1,0.3,0.2,0.5
				c0.4,0.7,1.4,0.6,1.8,1.3C112.6,37,112.6,37,112.7,37.1z"/>
			<path class="st17" d="M112.2,23.1c-0.2,0.4-0.6,0.6-1.1,0.8c0.2,0.3,0.2,0.5,0.2,0.6c-0.1,0.6-1.9,1.8-2.7,2.1
				c-0.6-0.3-1.2-0.8-1.7-1.3c-0.4-0.4-0.8-0.9-1-1.3c-0.4-0.7-0.7-1.5-0.8-2.3c1.6,0.2,3,0.2,4.3-0.1c0.8-0.1,1.5-0.4,2.3-0.6
				c0.1,0.1,0.2,0.2,0.2,0.3c0,0.1,0.1,0.1,0.1,0.2C112.4,22.2,112.4,22.7,112.2,23.1z"/>
			<path class="st24" d="M12.4,34.2c-1-0.3-2-0.6-2.7-1.2c-0.3-0.2-0.5-0.5-0.7-0.9c-0.2-0.5-0.3-1-0.2-1.6c0.3,0.8,1.3,1.5,2.2,2.1
				c0.4,0.4,1,0.8,1.4,1.1c0,0,0.1,0.1,0.1,0.1C12.8,33.9,12.6,34.3,12.4,34.2z"/>
			<path class="st24" d="M38,33.8c-0.1,1.6-2,2.2-3.2,2.4c-1.8,0.3-3.7,0.1-5.5-0.2c-2.7-0.5-5.5-1.2-7.9-2.7
				c-2.2-1.4-4.9-1.6-7.2-2.9c-0.9-0.5-1.8-1.6-2.8-1.9c0.6,0.1,1.1,0.3,1.7,0.5c1.7,0.6,3.3,1.4,4.9,2.1c3.3,1.5,6.7,3.2,10.3,3.8
				c1.8,0.3,3.6,0.4,5.4,0.2C35.1,34.8,36.5,34.2,38,33.8z"/>
			<path class="st24" d="M72.5,33.8c-0.8,1.1-2.4,1.3-3.6,1.4c-2,0.2-3.9,0.1-5.9,0c-4.1-0.2-8.2-0.7-12.1-1.6
				c-3.9-0.9-7.7-2.4-11.6-3.3c-1.3-0.3-7.9-2.6-8.5-0.5c-0.5,1.5,1.1,1.5,1.9,1.5c1.2,0.1,3.8-0.1,4.9,1c-2,0-8.8-0.4-6.9-2.9
				c0.8-1,2.8-1,3.9-1c1.8,0.1,3.5,0.6,5.3,1.1c3.8,1,7.5,2.1,11.3,3c3.8,0.9,7.7,1.5,11.6,1.7C65.9,34.3,69.2,33.9,72.5,33.8z"/>
			<path class="st24" d="M92.2,31.3c-0.1,1-1.1,1.8-2.1,2.1c-2.3,0.8-5.2,0.1-7.5-0.4c-3.6-0.7-7.3-1.5-10.7-2.7
				c-1.6-0.6-3.1-1.4-4.7-2.2c-1.4-0.8-3-1.6-4.6-1.8c-0.4,0-0.9,0-1.3,0.1c1.2-1,3.4-0.3,4.7,0.2c3,1.2,6.2,2.2,9.3,3
				c3.1,0.8,6.3,1.5,9.4,2.1c1.4,0.3,2.9,0.5,4.4,0.4C90.3,32,91.2,31.6,92.2,31.3z"/>
			<path class="st24" d="M81.9,26.5c0.2,0.2,0.4,0.3,0.7,0.5C82.2,27.1,81.9,26.9,81.9,26.5z"/>
			<path class="st24" d="M110.4,31.1c-0.8,2.5-6.2,2.4-8.1,2.1c-6.3-1-10.4-7.3-16.7-8.3c-0.5-0.1-1.5-0.2-2.3-0.1
				c1.4-0.5,3.5-0.1,4.5,0.2c3.2,0.8,6,2.8,8.9,4.4c2.9,1.6,6,2.5,9.3,2.4C107.5,31.7,109,31.5,110.4,31.1z"/>
			<path class="st17" d="M69.1,32c-2.9-0.2-5.9-0.1-8.8-0.4c-3-0.3-6-0.9-8.9-1.6c-5.6-1.3-11.4-2.8-17.2-2.6
				c-0.2,0-0.3,0.4-0.1,0.4c6,1.2,11.8,3.3,17.7,4.7c5.4,1.3,12.2,2.8,17.4,0.3C69.8,32.7,69.5,32.1,69.1,32z"/>
			<path class="st17" d="M83.1,29.3c-1.2-0.8-3-0.9-4.4-1.2c-1.6-0.3-3.2-0.6-4.7-1c-3.1-0.8-6.2-1.9-9.3-2.6
				c-0.4-0.1-0.6,0.4-0.3,0.7c2.6,1.9,6,3,9,3.9c1.6,0.4,3.1,0.8,4.7,1.1c1.5,0.3,3.4,0.7,4.8,0.2C83.5,30.2,83.6,29.6,83.1,29.3z"
				/>
			<path class="st17" d="M109,30.5c-1.2-1.2-3.1-1.4-4.6-1.9c-1.8-0.5-3.5-1.1-5.3-1.7c-3.5-1.2-6.9-2.5-10.5-3.6
				c-0.4-0.1-0.5,0.4-0.2,0.6c3.1,2,6.5,3.5,10,4.9c1.7,0.7,3.5,1.3,5.3,1.9c1.6,0.5,3.4,1.3,5.2,0.9
				C109.1,31.4,109.3,30.8,109,30.5z"/>
			<path class="st17" d="M31.1,33.3c-0.6-0.5-1.4-0.4-2.1-0.5c-0.8-0.1-1.7-0.3-2.5-0.5c-1.7-0.4-3.3-1.1-4.9-1.8
				c-2.8-1.3-5.8-3.1-8.9-3.4c-0.3,0-0.4,0.5-0.2,0.6c1.5,1,3.2,1.8,4.7,2.7c1.5,0.9,3,1.8,4.6,2.6c1.5,0.7,3.2,1.4,4.9,1.7
				c1.3,0.3,3.5,0.7,4.5-0.4C31.6,34.1,31.5,33.6,31.1,33.3z"/>
			<path class="st17" d="M12.6,32.9c-0.5-0.6-1.4-0.7-2-1.1c-0.8-0.5-1.4-1.2-1.9-1.9c-0.3-0.4-0.9-0.1-0.7,0.4
				c0.5,0.9,1.1,1.7,1.9,2.3c0.7,0.5,1.7,1.2,2.6,0.8C12.7,33.3,12.7,33,12.6,32.9z"/>
			<path class="st25" d="M90.5,33.7c-2.5,0.1-4.9,1.1-7.3,1.6c-2.6,0.5-5.3,0.8-8,1c-2.5,0.1-5.1,0.1-7.6,0
				c-2.6-0.2-5.3-0.7-7.9-0.8c-0.1,0-0.2,0.2-0.1,0.3c2.2,1,4.9,1.4,7.3,1.7c2.7,0.3,5.5,0.5,8.2,0.4c2.6-0.1,5.2-0.4,7.7-0.9
				c2.5-0.5,5.6-0.9,7.8-2.4C91,34.3,90.9,33.7,90.5,33.7z"/>
			<path class="st25" d="M43.5,35.4c-1.9,0.1-3.8,0.6-5.7,0.9c-1.9,0.3-3.9,0.5-5.9,0.5c-3.9,0.1-7.7-0.6-11.6-0.9
				c-0.2,0-0.3,0.4-0.1,0.5c3.6,1.5,7.9,1.9,11.7,1.8c1.9,0,3.9-0.2,5.8-0.5c2-0.3,4.1-0.7,5.9-1.7C44,35.9,43.9,35.3,43.5,35.4z"/>
			<path class="st3" d="M44.7,4.6c-3.6,2.2-7.1,4.6-10.7,6.7c-3.6,2.1-7.3,4.1-11,6.2c0,0,0,0.1,0,0.1c3.9-1.7,7.7-3.8,11.4-6
				C37.9,9.4,41.5,7.2,44.7,4.6C44.8,4.6,44.7,4.5,44.7,4.6z"/>
			<path class="st3" d="M77.5,7.7c-1.6,0-3.3,0.1-4.7,0.7c1.4-1.6-2.5-2.1-3.3-2.2c-2.6-0.3-4.3,0.1-6.4,1.7C63,8,62.9,8.1,62.7,8.2
				c-0.4,0.3-0.8,0.6-1.1,0.9c-0.7,0.6-1.4,1.1-2.2,1.6c-1.5,1.1-2.9,2.1-4.4,3.1c-0.9,0.6-1.8,1.3-2.7,1.9c-0.1,0-0.1,0-0.1-0.1
				c1.9-1.6,3.9-3.3,5.8-4.8c0.3-0.3,0.6-0.5,0.9-0.7c0,0,0.1-0.1,0.1-0.1c1-0.8,2.1-1.6,3.1-2.4c2.5-1.9,0.7-2.7-1.4-3.4
				C59.7,3.9,59,3.7,57.9,4c-0.4,0.1-2.1,1.1-2.1,1.1c1.3,0.1,0.6-1.3,0.1-1.8c-0.7-0.6-2-0.9-2.9-0.9c-1.7,0-4,0.2-5.6,0.8
				c1.3-0.9-1.3-1.6-1.9-1.7c-1.6-0.2-3.4,0.4-4.9,0.9c-2.6,0.9-5,1.9-7.5,3.1c-0.8,0.4-1.5,0.7-2.3,1.1c-2,0.9-4.1,1.9-6.1,2.9
				c-5.7,2.7-11.3,5.7-17,8.3c-0.1,0-0.1,0-0.2,0.1c-0.1,0-0.1,0-0.2,0c-0.1-0.1-0.1-0.2,0-0.2c5.5-3.4,11.3-6.2,17.1-8.9
				c2.9-1.4,5.9-2.8,8.9-4c1.4-0.6,2.8-1.2,4.2-1.8c0.9-0.4,1.8-0.8,2.7-1.2c0.4-0.2,0.8-0.3,1.2-0.4c-0.1,0-0.2-0.1-0.3-0.1
				c-0.1-0.1-0.2-0.3-0.1-0.5c0.1,0,0.2-0.1,0.3-0.1c0.1,0,0.1,0,0.2-0.1c0.7-0.3,1.4-0.4,2.1-0.5c1.3-0.1,2.9,0.1,5,0.9
				c1.4,0.5,2.5,0.4,4,0.5c1.5,0.1,2.8,0.9,4,1.3c1.4,0.5,3.2,0.2,4.7,0.7c1.7,0.5,2.9,1.4,4.7,1.5c1.5,0.1,3.7,0,5.1,0.8
				c0.8,0.5,1.6,1,2.6,1.1c1,0.1,1.9-0.2,2.9,0.2c1.6,0.5,2.6,1.4,4.3,1.6c1.8,0.1,3.6,0.2,5.1,1.2c0,0,0,0,0.1,0
				c0.4,0.1,0.8,0.3,1.1,0.5c0.4,0.2,0.7,0.4,0.9,0.6c0.8,0.3,1.7,0.4,3,0.3c1.8-0.1,2.9,0.9,4.4,1.6c1.1,0.5,2.3,0.1,3.4,0.5
				c1.3,0.4,2.6,1,4,1.4c0.7,0.2,1.6,0.8,2.2,1.5c0.6,0.7-1.6-0.4-1.6-0.4c-1.1-0.3-2.1-0.3-3.2,0.2c0.5-1.7-4.2-2.2-4.8-1.4
				c0-1.5-2-1.9-3.2-2c-1.9-0.2-2.6,0.3-4,1.4c-0.1,0.1-0.2,0.2-0.4,0.3c-1,0.9-2,1.7-3,2.6c-0.1,0.1-0.2,0.2-0.3,0.3
				c-0.1,0.1-0.2,0-0.1-0.1c0-0.1,0.1-0.1,0.1-0.2c1-1.4,2.3-2.9,3.7-4c0,0,0.1-0.1,0.1-0.1c-0.1,0-0.1,0-0.2,0c0,0-0.1,0-0.1-0.1
				c-1.6-1.2-3.3-2.2-5.4-2.1c-2.1,0.2-3.6,1.5-5.1,2.8c-1.5,1.1-3,2.3-4.4,3.6c-0.1,0.1-0.2,0.2-0.3,0.2c-0.1,0.1-0.2,0.2-0.3,0.2
				c-0.1,0-0.1,0.1-0.2,0.1c-0.1,0.1-0.2,0-0.1-0.1c0.1-0.1,0.2-0.2,0.2-0.3c0.1-0.1,0.1-0.2,0.2-0.2c0.8-0.9,1.7-1.8,2.6-2.7
				c0.5-0.5,1.1-1,1.7-1.5c0.3-0.2,0.6-0.5,0.9-0.7c1.2-0.9,2.5-1.9,3.8-2.5l-0.5-0.2C81.1,9.1,80.5,9,80,8.8
				c-0.6-0.2-1.2-0.3-1.8-0.4c-2.5-0.6-5.1-1.2-7.6-1.8c-0.7-0.2-1.4-0.3-2.1-0.5c-0.8-0.2-1.5-0.4-2.3-0.5c-0.1,0-0.2,0-0.3-0.1
				c-0.3,0.3-0.6,0.7-1,1L77.5,7.7z"/>
			<path class="st3" d="M55.8,4.7c-3.7,1.8-7.1,4.3-10.5,6.6c-3.3,2.3-6.5,4.7-9.6,7.2c-0.1,0.1,0,0.2,0.1,0.2
				c3.2-2.4,6.5-4.8,9.9-7.1c3.3-2.3,6.9-4.3,10.2-6.6C56,4.8,55.9,4.6,55.8,4.7z"/>
			<path class="st3" d="M73.8,7.8c-1,0.5-1.9,1.3-2.8,2c-1.1,0.8-2.1,1.7-3.2,2.5c-1.9,1.5-4.1,2.9-5.5,4.9c-0.1,0.1,0,0.2,0.1,0.1
				c2-1.3,3.9-2.9,5.7-4.4c0.9-0.8,1.9-1.5,2.8-2.3c1-0.8,2.2-1.6,3.1-2.7C74.1,7.9,74,7.7,73.8,7.8z"/>
			<path class="st3" d="M96.2,14.1c-1,0.4-2,1.3-2.9,1.9c-0.1,0.1,0,0.3,0.1,0.2c0.5-0.3,1-0.7,1.5-1c0.5-0.3,0.9-0.6,1.3-1
				C96.4,14.2,96.3,14,96.2,14.1z"/>
			<path class="st3" d="M100.7,15.4c0-0.1,0-0.2-0.1-0.2c-0.1-0.1-0.2-0.2-0.3-0.2c-0.1,0-0.2,0-0.3,0.1c0,0,0,0-0.1,0
				c-0.1,0.1-0.2,0.1-0.3,0.3c0,0-0.1,0.1-0.1,0.1c-0.2,0.2,0,0.6,0.2,0.7c0.3,0.1,0.6,0.1,0.7-0.2c0-0.1,0.1-0.1,0.1-0.2
				c0-0.1,0.1-0.2,0.1-0.3C100.7,15.5,100.7,15.4,100.7,15.4z"/>
			<g>
				<path class="st5" d="M94.8,32c0.1,0,0.2,0,0.3,0.1C95,32.1,94.9,32.1,94.8,32z"/>
			</g>
			<path class="st26" d="M40.9,36.5c-1.4,0-2.9,0.3-4.3,0.5c-1.5,0.2-2.9,0.2-4.4,0.3c-2.9,0-5.8-0.3-8.7-0.6c-0.1,0-0.1,0.1,0,0.1
				c2.9,1,5.9,1.4,9,1.5c2.7,0.1,6.2,0.1,8.7-1.1C41.3,36.9,41.2,36.5,40.9,36.5z"/>
			<path class="st26" d="M85.2,35.1c-3.6,0.7-7,1.7-10.7,1.9c-1.7,0.1-3.5,0.1-5.2,0c-1.6-0.1-3.4-0.6-4.9-0.3c0,0-0.1,0.1,0,0.1
				c1.3,0.8,3.2,0.9,4.7,1c1.9,0.2,3.9,0.2,5.8,0.1c3.5-0.2,7.3-0.7,10.5-2.4C85.6,35.4,85.4,35.1,85.2,35.1z"/>
			<path class="st26" d="M29.9,34c-1.7-1.1-3.8-1.5-5.6-2.2c-1.9-0.7-3.7-1.4-5.6-2c-1.8-0.7-3.7-1.4-5.6-1.8
				c-1.5-0.4-3.4-0.7-4.9,0c-0.1,0,0,0.1,0,0.1c1.1,0.1,2.1,0,3.2,0.2c0.9,0.2,1.7,0.4,2.6,0.7c1.8,0.6,3.6,1.3,5.3,1.9
				c1.7,0.6,3.5,1.2,5.2,1.9c1.7,0.6,3.5,1.5,5.3,1.7C30.1,34.5,30.1,34.1,29.9,34z"/>
			<path class="st26" d="M65.8,33.9c-1.1-0.6-2.4-0.8-3.7-1c-1.4-0.3-2.9-0.6-4.3-0.9c-2.8-0.6-5.6-1.2-8.5-1.8
				C43.7,29,38,27.9,32.3,27c-0.1,0-0.1,0.1,0,0.1c5.6,1.5,11.2,2.8,16.8,4c2.7,0.6,5.5,1.2,8.2,1.8c1.4,0.3,2.9,0.6,4.3,0.9
				c1.3,0.3,2.7,0.7,4,0.6C65.9,34.5,66,34.1,65.8,33.9z"/>
			<path class="st26" d="M88.9,31.8c-2.7-1.1-5.5-1.7-8.3-2.5c-2.8-0.7-5.6-1.5-8.4-2.2c-2.6-0.7-5.3-1.5-7.9-2.1
				c-1.5-0.3-3.5-0.5-4.4,1.1c-0.1,0.1,0.1,0.3,0.2,0.2c1.9-1.4,4.2-0.5,6.2,0c2.5,0.7,5,1.3,7.5,2c2.4,0.7,4.8,1.3,7.3,1.9
				c2.6,0.7,5.1,1.5,7.8,1.8C89,32.2,89.1,31.9,88.9,31.8z"/>
			<path class="st26" d="M32.3,42.3c-2.5-1.9-6-3.4-9.2-3c-2.9,0.4-5,2.3-6.8,4.4c0,0,0,0.1,0,0c1.9-2,4.5-3.8,7.4-3.8
				c3.1,0,5.6,1.6,8.5,2.6C32.4,42.7,32.5,42.4,32.3,42.3z"/>
			<path class="st26" d="M60.5,39.8c-2.8-0.6-5.7,0.5-8.1,1.8c-2.1,1.1-3.2-0.5-4.8-1.5c-1.2-0.8-2.4-1-3.8-1.1
				c-0.1,0-0.1,0.1,0,0.1c1.7,0.4,3.3,1.4,4.6,2.5c0.9,0.7,1.8,1.4,2.9,1.3c1.6-0.2,2.7-1.6,4.2-2.2c1.6-0.6,3.3-0.6,5-0.7
				C60.6,40.1,60.7,39.8,60.5,39.8z"/>
			<path class="st5" d="M35.9,24.2c0,0.7-0.1,1.4-0.1,2.1c-0.3,0.2-0.7,0.4-1.1,0.5c0,0-0.1,0-0.1,0c-1.8,0.7-3-0.7-4.1-2
				c0.7-0.6,1.4-1.1,2.1-1.6c0.6-0.4,1.1-0.8,1.6-1.1c0.7-0.5,1.5,0.2,1.5,0.9C35.9,23.4,35.9,23.8,35.9,24.2z"/>
			<path class="st5" d="M43.6,25.4c-1.4-0.9-1.8-1.8-4-1.1c-0.5,0.1-0.9,0.3-1.3,0.6c0,0-0.1,0-0.1,0.1c-0.5,0.2-0.9,0.5-1.3,0.8
				c0-0.1,0-0.2,0.1-0.3c0.2-0.9,0.9-1.8,1.8-2.1c1.4-0.4,2.8,0.4,3.8,1.2C42.9,24.7,43.3,25,43.6,25.4z"/>
			<path class="st5" d="M53.4,23.5c-1.8,0.3-3.5,1.8-5.4,2.5c-0.1,0-0.3,0.1-0.4,0.1c-0.1,0-0.3,0.1-0.4,0.1c0.3-1.7,2.6-2.8,4.1-3
				C52,23.2,52.7,23.3,53.4,23.5z"/>
		</g>
		<path class="st17" d="M55,16.6c5.7,0.8,12.3,2.9,18,1.7c2-0.4,3.7-1.3,5.8-1.7c3-0.5,5.9-0.7,8.6-2.2c-0.8-2.5-5.8-2.3-7.8-2.5
			c-7.9-1-15.5-2.9-23.2-5c-5.9-1.6-12.2-2.3-18.2-1.1c-4.2,0.8-7.9,2.4-11.5,4.5c-1.7,1-3.5,1.9-5.1,3c-0.9,0.6-4.8,4.5-5.5,4.4
			c2.9,0.3,6.2-0.6,9.2-0.7c4.8-0.1,9.5,0.1,14.3-0.2C44.7,16.5,49.9,15.8,55,16.6z"/>
		<path class="st26" d="M49.6,23.9c-1.4,1.2-3.1,1.9-4.7,0.5c-0.9-0.9-1.1-2.1-2.2-2.9C41,20.4,38.9,21,38,22.7
			c-0.1,0.1,0.1,0.2,0.2,0.1c1.3-1.7,3.8-1.9,5-0.1c0.7,0.9,1,2,2.1,2.6c1.6,0.9,3.9,0.5,4.7-1.3C50,23.9,49.7,23.8,49.6,23.9z"/>
		<path class="st26" d="M71.8,24.3c-1-0.3-1.6-0.7-2.3-1.4c-0.5-0.5-1-1-1.6-1.3c-0.9-0.5-1.9-0.4-2.7,0.2c-0.1,0,0,0.1,0.1,0.1
			c2.4-1.6,4.2,2.8,6.5,2.7C71.9,24.6,71.9,24.3,71.8,24.3z"/>
		<path class="st26" d="M97.7,22.3c-1.1-2.1-4.2-1.5-5.7-0.4c-0.1,0.1,0,0.2,0.1,0.1c0.9-0.6,2.1-0.6,3.1-0.4c0.8,0.2,1.5,0.7,2.3,1
			C97.6,22.7,97.8,22.5,97.7,22.3z"/>
		<path class="st26" d="M110.5,20.4c-0.2-0.1-0.4-0.2-0.6-0.3c-1.2-0.6-1.7-1.5-1.7-2.6c0-0.3,0-0.5,0-0.8c0.1-0.4,0.2-1,0.1-1.4
			c-0.2-0.4-0.5-0.5-0.8-0.6c-0.2,0-0.4,0-0.6,0c-0.9,0-1.8,0-2.7-0.2c-1.2-0.3-2.9-1.1-3.3-2.4c0.8-1.1,1.5-0.3,2.7,1
			c1.4,1.5,2.7,0.8,4.3,1.4c0.1,0,0.2,0.1,0.4,0.2c1.1,0.6,1.3,1.3,1.3,2.2c0,0.9-0.3,1.9,0.2,2.8C109.9,20,110.2,20.2,110.5,20.4z"
			/>
		<path class="st26" d="M112.2,23.1c-0.2,0.4-0.6,0.6-1.1,0.8c-0.1,0-0.3,0.1-0.4,0.1c-0.1-0.2-0.1-0.5,0.1-0.6
			c0.5-0.6,1.5-1,1.3-1.8C112.4,22.2,112.4,22.7,112.2,23.1z"/>
		<path class="st26" d="M6,20.4c0,0.1-0.1,0.2-0.1,0.3c-0.3,0.6-1,0.8-1.8,0.8c-0.4,0-0.8-0.1-1.2-0.2c0,0.3,0.1,0.5,0.2,0.8
			c0.1,0.3,0.2,0.5,0.2,0.7c-0.1-0.1-0.1-0.2-0.2-0.2c-0.3-0.3-0.6-0.7-0.8-1c0-0.1-0.1-0.1-0.1-0.2c0-0.1-0.1-0.1-0.1-0.2
			c0,0,0-0.1,0-0.1c0-0.1-0.1-0.2-0.1-0.3c0,0,0-0.1,0-0.1c0-0.2,0-0.3,0.1-0.5c0.2-0.3,0.5-0.5,1.2-0.5C4.4,19.6,5.1,20.8,6,20.4z"
			/>
		<path class="st26" d="M10.5,15.1c-0.4,0.2-0.9,0.3-1.3,0.4c-0.6,0.1-1.2,0.1-1.8,0.1c-0.2,0-0.4,0-0.6,0c-0.5,0-1.1-0.1-1.5,0.1
			c-0.1,0-0.2,0.1-0.2,0.2C5.1,15.7,5,15.5,5,15.3c-0.1-0.7,0.1-1.2,0.8-1.6c0.1-0.1,0.3-0.1,0.5-0.2c0.4,0,0.8,0,1.2-0.1
			C8.6,13.7,9.6,14.5,10.5,15.1z"/>
		<path class="st1" d="M37.2,17.9c-0.2,0-0.5,0-0.7,0.1h2.3C38.2,18,37.5,17.9,37.2,17.9z"/>
		<path class="st1" d="M43.4,15.4c-1.1,0.7-2.4,1.4-3.4,2.4c-0.1,0.1-0.3,0.1-0.5,0.1h52.4c-1.2,0-2.4-0.1-3.6-0.1
			c1.6-0.9,2.9-2.3,4-3.5c0.5-0.5-0.2-1.3-0.8-0.8c-1.8,1.5-3.9,2.6-5.5,4.3c-1.5,0-3.1,0-4.6,0c-0.7,0-1.4,0-2.1,0
			c1.1-0.3,2.1-1.3,2.8-2c0.9-1,2.2-2.5,2.1-3.9c0-0.2-0.2-0.3-0.4-0.2c-1.1,0.6-1.8,2-2.7,2.8c-0.9,0.8-2.5,1.5-3,2.6
			c-0.1,0.2-0.1,0.5,0.2,0.7c-3,0-6-0.1-8.9-0.1c0.2-0.2,0.4-0.3,0.6-0.5c0.9-0.7,1.7-1.4,2.6-2.1c0.8-0.7,1.7-1.4,2.5-2.1
			c0.7-0.6,1.6-1.3,1.9-2.2c0-0.1-0.1-0.3-0.2-0.2c-1,0.1-1.8,0.7-2.6,1.3c-0.9,0.6-1.8,1.3-2.7,1.9c-0.9,0.7-1.8,1.3-2.6,2
			c-0.8,0.6-1.8,1.2-2.5,2c-0.8,0-1.5,0-2.3,0c-2.2,0-4.5,0-6.7,0c1.1-0.9,2.3-1.8,3.4-2.7c2.4-1.9,4.7-3.9,6.7-6.2
			c0.2-0.2-0.1-0.6-0.4-0.5c-2.7,1.4-5.1,3.3-7.5,5.1c-1.1,0.9-2.2,1.7-3.3,2.6c-0.6,0.5-1.4,1-2,1.6c-3.5,0-7,0-10.4,0.1
			c0.3-0.2,0.5-0.3,0.7-0.5c1.6-1.1,3.3-2.1,4.9-3.2c1.6-1.1,3.3-2.2,4.9-3.3c1.5-1.1,3.2-2.3,4.5-3.6c0.2-0.2,0-0.6-0.3-0.5
			c-1.8,0.6-3.5,1.7-5.1,2.6c-1.7,1-3.3,2-5,3.1C46.7,13.3,45,14.4,43.4,15.4z"/>
		<path class="st1" d="M30.8,14.6c-0.9,0.6-1.8,1.2-2.7,1.9c-0.6,0.4-1.2,0.9-1.6,1.5h3.4c0.6-0.5,1.4-1,2.1-1.4
			c1.9-1.2,3.7-2.5,5.6-3.6c3.7-2.3,7.5-4.5,11.4-6.6c0.4-0.2,0.1-0.8-0.3-0.7c-4.2,1.5-8.3,3.3-12.2,5.5
			C34.5,12.2,32.6,13.3,30.8,14.6z"/>
		<path class="st1" d="M19.4,18c0.8-0.6,2-1.1,2.5-1.5c2.2-1.4,4.3-2.7,6.5-4.1c2.1-1.3,4.2-2.6,6.3-4c2.1-1.3,4.1-2.6,5.9-4.3
			c0.1-0.1,0-0.3-0.1-0.2c-2.3,0.7-4.4,1.8-6.5,2.9c-2.3,1.2-4.5,2.5-6.7,3.8c-2.2,1.3-4.3,2.6-6.4,3.9c-1,0.6-2.1,1.3-3.1,1.9
			c-0.8,0.5-1.6,1-2.4,1.6H19.4z"/>
	</g>
	<path class="st5" d="M39.1,23.1c1.1-0.3,2.6-0.5,2.1,0.4c-0.2,0.3-1.9,0.4-2.4,0.6c-0.7,0.4-1.1,1.2-1.4,1.8
		c-1.6,3.3-5.3,0.8-6.9-1.1c-0.1-0.1-0.2-0.2-0.3-0.4c-0.1-0.1-0.1-0.1-0.2-0.2L30,24.2c-0.1-0.1-0.2-0.2-0.3-0.3
		c-0.1,0-0.1-0.1-0.2-0.1c-0.1-0.1-0.2-0.2-0.4-0.2c0,0-0.1,0-0.1-0.1c0,0-0.1,0-0.1-0.1c0,0-0.1,0-0.1,0c-0.1,0-0.1,0-0.2,0
		c-0.1,0-0.1,0-0.2,0c-0.1,0-0.2,0-0.2,0c-0.1,0-0.2,0-0.3,0c-0.2,0-0.3,0.1-0.5,0.2c-0.2,0.1-0.4,0.2-0.6,0.3
		c-1.3,0.9-2,2.7-3.3,3.6l-2.2,0.1c0.7-0.5,1.3-1,1.9-1.4c1.2-1,2.5-3,4-3.8c0.2-0.1,0.4-0.2,0.5-0.2c2.3-0.6,3.4,1.9,4.9,3.1
		c1.7,1.4,4.1-0.9,5.5-1.8C38.4,23.4,38.7,23.2,39.1,23.1z"/>
	<path class="st5" d="M35,27.2l1.4,0C36,27.6,35.6,27.6,35,27.2z"/>
	<path class="st5" d="M43.8,25.4c0,0-0.1-0.1-0.1-0.1c-1.4-0.9-1.8-1.8-4-1.1c-0.5,0.1-0.9,0.3-1.3,0.6c0,0-0.1,0-0.1,0.1
		c-0.3,0.2-0.6,0.3-0.9,0.5c0.5-1.2,1.2-2.5,2.2-3.3c1.2-0.9,1.7,0.1,2.4,1.1C42.4,23.8,43,24.6,43.8,25.4z"/>
	<path class="st5" d="M55.2,23.7c-0.2-0.1-0.3-0.1-0.5-0.2c-0.4-0.1-0.9-0.1-1.3-0.1c-1.1,0.2-2.2,0.9-3.3,1.5
		c0.6-1.1,1.2-2.3,2-2.8C53.3,21.4,54.5,22.8,55.2,23.7z"/>
	<path class="st5" d="M83.7,22c-0.3-0.2-0.6-0.4-0.9-0.5c-0.1,0-0.1,0-0.2-0.1c-0.1,0-0.1,0-0.2,0c-0.1,0-0.1,0-0.1,0
		c-0.1,0-0.1,0-0.2,0c-0.1,0-0.1,0-0.2,0c-0.1,0-0.3,0-0.5,0c-2.2,0.3-3.9,2.2-5.9,2.8c-0.3,0.1-0.6,0.2-0.9,0.3
		c-1.9,0.5-3.9,0.4-5.5-0.8c-0.1,0-0.1-0.1-0.2-0.1c-1.5-1.1-2.8-1.4-4-1.2c1.1-1.5,1.5-1,3,0.1c1.5,1.1,3.6,2.3,5.5,2
		c0.5-0.1,1.1-0.2,1.5-0.4c1-0.4,1.9-0.9,2.8-1.5c0.7-0.4,1-0.6,1.4-1.2c0.4-0.6,0.5-1.1,1.3-1.4c0.4-0.1,0.9-0.1,1.3,0
		c0.6,0.1,1.2,0.4,1.6,0.9C83.6,21.2,83.7,21.6,83.7,22C83.7,22,83.7,22,83.7,22z"/>
	<g>
		<path class="st18" d="M21.3,28.3c-0.3,0.1-0.7,0.1-1.1,0.1c-0.5,0-0.9-0.1-1.3-0.2c-0.7-0.1-1.3-0.2-1.8-0.3
			c-2.3-0.6-4.2-1.9-6.4-2.3c-0.3,0.2-0.7,0.5-1.1,0.8c-0.4,0.4-0.8,0.7-1.2,1c-0.6,0.5-1.3,0.9-2.1,1.1c-0.3,0.1-0.5,0.1-0.9,0.1
			c-0.3,0-0.8,0-1.3,0c0,0,0,0-0.1,0c0,0-0.1,0-0.1,0c0.7-0.5,1.4-1,2-1.5c1.5-1.1,3.4-2.3,5.3-2.3h0.1c0.1,0,0.3,0,0.4,0
			c0.2,0,0.4,0.1,0.6,0.1c1.4,0.4,2.7,1.6,4,2.2c0.5,0.2,1,0.4,1.5,0.5c0.9,0.2,1.8,0.3,2.7,0.4c0.3,0,0.5,0,0.8,0
			C21.3,28.2,21.3,28.3,21.3,28.3z"/>
	</g>
	<path class="st26" d="M66.8,41.5c-1.2-1-2.7-1.6-4.2-2.1c-0.1,0-0.1,0.1,0,0.1c1.2,0.8,2.7,1.7,4.1,2.1
		C66.8,41.7,66.9,41.6,66.8,41.5z"/>
	<path class="st26" d="M74.3,40.5c-0.8,0.7-1.5,1.3-2.6,1.6c-1,0.3-2,0.3-3,0c-0.1,0-0.1,0.1,0,0.1c1.9,0.6,4.6,0.2,5.8-1.6
		C74.5,40.5,74.4,40.4,74.3,40.5z"/>
	<path class="st26" d="M93.4,39.1c-0.7,0.3-1.2,0.8-1.9,1c-1,0.3-1.8-0.1-2.7-0.5c-1-0.5-1.9-0.9-3-1.1c0,0-0.1,0.1,0,0.1
		c1.6,0.7,2.7,2.2,4.5,2.4c1.4,0.2,2.7-0.5,3.5-1.6C93.9,39.2,93.6,39,93.4,39.1z"/>
	<path class="st26" d="M62.5,33c-1,0-2.4-0.9-3.3-1.3c-2.2-0.9-4.4-1.8-6.6-2.6c-2.6-0.9-5.3-1.6-8-1.9c-3-0.3-6.4-1.1-9.3-0.7
		c-1.8,0.2-3.6,0.8-5.3,1.3c0.3,1,1.7,0.4,2.6,0.4c6.6-0.1,13,1.6,19.5,2.8c2.6,0.5,5.2,0.9,7.8,1.5C60.5,32.5,61.9,33,62.5,33z"/>
	<path class="st17" d="M86.5,16.9c-5-0.1-9.9,0.3-14.9,0.4c-5,0.2-9.9,0.3-14.9,0.5c-10,0.3-19.9,0.4-29.9,0.8
		c-2.8,0.1-5.5,0.2-8.3,0.4c-2.7,0.2-5.4,0.3-8,1.1c-0.1,0-0.1,0.3,0,0.3c2.4-0.3,4.9-0.2,7.3-0.2c2.5,0,4.9-0.1,7.4-0.2
		c5-0.2,9.9-0.4,14.9-0.7c9.9-0.5,19.8-0.9,29.6-1.3c2.8-0.1,5.5-0.2,8.3-0.3c2.8-0.1,5.6-0.2,8.5-0.4
		C86.7,17.3,86.7,16.9,86.5,16.9z"/>
</g>
</svg>
