<?xml version="1.0" encoding="utf-8"?>
<!-- Generator: Adobe Illustrator 25.0.0, SVG Export Plug-In . SVG Version: 6.00 Build 0)  -->
<svg version="1.1" id="Publicdomainvectors.org" xmlns="http://www.w3.org/2000/svg" xmlns:xlink="http://www.w3.org/1999/xlink"
	 x="0px" y="0px" viewBox="0 0 217.7 211.9" style="enable-background:new 0 0 217.7 211.9;" xml:space="preserve">
<style type="text/css">
	.st0{fill-rule:evenodd;clip-rule:evenodd;fill:#CA3927;}
	.st1{fill-rule:evenodd;clip-rule:evenodd;fill:#F04A23;}
	.st2{fill-rule:evenodd;clip-rule:evenodd;fill:#F4A51D;}
</style>
<g>
	<path class="st0" d="M161.4,17.1c50.7,25.9,70.9,87.9,45.1,138.6c-25.8,50.7-87.9,70.8-138.7,44.9l-11.4-5.8
		c8-15.7,69.4-136.1,93.6-183.5L161.4,17.1z"/>
	<path class="st1" d="M149.9,11.3c50.7,25.9,70.9,87.9,45.1,138.6c-25.8,50.7-87.9,70.8-138.7,44.9C5.6,168.9-14.6,106.9,11.3,56.2
		C37.1,5.5,99.2-14.6,149.9,11.3z"/>
	<path class="st0" d="M108.8,20.3c-17.6-9-58.5,8.5-77.6,46c-19.1,37.5-9.2,80.9,8.4,89.9c17.6,9,36.1-19.9,55.2-57.4
		C113.8,61.2,126.3,29.3,108.8,20.3L108.8,20.3z M166.7,49.9c17.6,9,27.5,52.3,8.4,89.9c-19.1,37.5-60.1,54.9-77.6,46
		c-17.6-9-5.1-40.9,14.1-78.4C130.7,69.8,149.2,40.9,166.7,49.9z"/>
	<path class="st2" d="M164.2,64.3c2.8,1.4,4.3,4.2,3.2,6.3c-1,2-4.2,2.5-7,1.1c-2.8-1.4-4.3-4.2-3.2-6.3
		C158.2,63.3,161.4,62.8,164.2,64.3L164.2,64.3z M97.3,30.2c-2.8-1.4-5.9-1-7,1.1c-1,2,0.4,4.8,3.2,6.3c2.8,1.4,5.9,0.9,7-1.1
		C101.6,34.4,100.1,31.6,97.3,30.2L97.3,30.2z M35.2,123c-2.4-1.2-5.1-0.9-5.9,0.8c-0.9,1.7,0.4,4,2.8,5.3c2.4,1.2,5.1,0.9,5.9-0.8
		C38.8,126.6,37.6,124.2,35.2,123L35.2,123z M62.6,122.2c-4.2-2.1-8.7-1.7-10,0.9c-1.4,2.7,0.9,6.5,5.1,8.7c4.2,2.1,8.7,1.7,10-0.9
		C69.1,128.2,66.8,124.3,62.6,122.2L62.6,122.2z M55,81.6c-5.1-2.6-10.5-2-12.2,1.2c-1.7,3.3,1.1,8,6.2,10.6
		c5.1,2.6,10.5,2,12.2-1.3C62.8,89,60.1,84.2,55,81.6L55,81.6z M87,74.4c-4.2-2.1-8.7-1.7-10,0.9c-1.4,2.7,0.9,6.5,5.1,8.7
		c4.2,2.1,8.7,1.7,10-0.9C93.4,80.4,91.1,76.5,87,74.4L87,74.4z M68.8,41.8c-3.4-1.8-7.1-1.5-8.1,0.5c-1,2,0.9,5.1,4.3,6.8
		c3.4,1.8,7.1,1.5,8.1-0.5C74.2,46.6,72.2,43.5,68.8,41.8L68.8,41.8z M125.6,169.1c2.4,1.2,3.7,3.6,2.8,5.3c-0.9,1.7-3.5,2-5.9,0.8
		c-2.4-1.2-3.7-3.6-2.8-5.3C120.5,168.2,123.1,167.8,125.6,169.1L125.6,169.1z M110.1,146.4c4.2,2.1,6.5,6,5.1,8.7
		c-1.4,2.7-5.8,3.1-10,0.9c-4.2-2.1-6.5-6-5.1-8.7C101.4,144.7,105.9,144.3,110.1,146.4L110.1,146.4z M147.4,128.7
		c5.1,2.6,7.8,7.3,6.2,10.6c-1.7,3.3-7.1,3.8-12.2,1.2c-5.1-2.6-7.8-7.3-6.2-10.6C136.8,126.7,142.3,126.1,147.4,128.7L147.4,128.7z
		 M134.5,98.6c4.2,2.1,6.5,6,5.1,8.7c-1.4,2.7-5.8,3.1-10,1c-4.2-2.1-6.5-6-5.1-8.7C125.8,96.9,130.3,96.5,134.5,98.6L134.5,98.6z
		 M171.5,94.2c3.4,1.8,5.4,4.8,4.3,6.8c-1,2-4.7,2.3-8.1,0.5c-3.4-1.8-5.4-4.8-4.3-6.8C164.5,92.7,168.1,92.5,171.5,94.2z"/>
</g>
</svg>
