<?xml version="1.0" encoding="utf-8"?>
<!-- Generator: Adobe Illustrator 25.0.0, SVG Export Plug-In . SVG Version: 6.00 Build 0)  -->
<svg version="1.1"
	 id="svg2" xmlns:cc="http://creativecommons.org/ns#" xmlns:dc="http://purl.org/dc/elements/1.1/" xmlns:inkscape="http://www.inkscape.org/namespaces/inkscape" xmlns:ns1="http://sozi.baierouge.fr" xmlns:rdf="http://www.w3.org/1999/02/22-rdf-syntax-ns#" xmlns:sodipodi="http://sodipodi.sourceforge.net/DTD/sodipodi-0.dtd" xmlns:svg="http://www.w3.org/2000/svg"
	 xmlns="http://www.w3.org/2000/svg" xmlns:xlink="http://www.w3.org/1999/xlink" x="0px" y="0px" viewBox="0 0 330.3 187.8"
	 style="enable-background:new 0 0 330.3 187.8;" xml:space="preserve">
<style type="text/css">
	.st0{fill:#BC5D1D;}
	.st1{fill:#9E4B13;}
	.st2{fill:#8F4411;}
	.st3{fill:#CC6520;}
	.st4{fill:#FFE1BD;}
	.st5{fill:#D88235;}
	.st6{fill:#E2B88A;}
	.st7{opacity:0.9961;fill-rule:evenodd;clip-rule:evenodd;fill:#F3D18E;enable-background:new    ;}
	.st8{opacity:0.9961;fill-rule:evenodd;clip-rule:evenodd;fill:#CB5E29;enable-background:new    ;}
	.st9{opacity:0.9961;fill-rule:evenodd;clip-rule:evenodd;fill:#F0AE5E;enable-background:new    ;}
	.st10{fill-rule:evenodd;clip-rule:evenodd;fill:#F0AE5E;}
	.st11{opacity:0.9961;fill-rule:evenodd;clip-rule:evenodd;fill:#F6C17A;enable-background:new    ;}
	.st12{opacity:0.9961;fill-rule:evenodd;clip-rule:evenodd;fill:#D47733;enable-background:new    ;}
	.st13{opacity:0.9961;fill-rule:evenodd;clip-rule:evenodd;fill:#FBECBD;enable-background:new    ;}
	.st14{opacity:0.9961;fill-rule:evenodd;clip-rule:evenodd;fill:#DBA151;enable-background:new    ;}
	.st15{opacity:0.9961;fill-rule:evenodd;clip-rule:evenodd;fill:#F6C179;enable-background:new    ;}
	.st16{opacity:0.9961;fill-rule:evenodd;clip-rule:evenodd;fill:#E68642;enable-background:new    ;}
	.st17{opacity:0.9961;fill-rule:evenodd;clip-rule:evenodd;fill:#B54E1C;enable-background:new    ;}
	.st18{fill-rule:evenodd;clip-rule:evenodd;fill:#B54E1B;}
	.st19{opacity:0.9961;fill-rule:evenodd;clip-rule:evenodd;fill:#B54E1B;enable-background:new    ;}
	.st20{fill-rule:evenodd;clip-rule:evenodd;fill:#DBA152;}
	.st21{fill-rule:evenodd;clip-rule:evenodd;fill:#F6C17A;}
	.st22{fill-rule:evenodd;clip-rule:evenodd;fill:#A04012;}
	.st23{fill-rule:evenodd;clip-rule:evenodd;fill:#D99343;}
	.st24{fill-rule:evenodd;clip-rule:evenodd;fill:#CB5E29;}
	.st25{fill-rule:evenodd;clip-rule:evenodd;fill:#DB994D;}
	.st26{fill-rule:evenodd;clip-rule:evenodd;fill:#E69C4D;}
	.st27{opacity:0.9961;fill-rule:evenodd;clip-rule:evenodd;fill:#E68541;enable-background:new    ;}
	.st28{opacity:0.9961;fill-rule:evenodd;clip-rule:evenodd;fill:#D47631;enable-background:new    ;}
	.st29{fill:#DE9B42;}
	.st30{fill:#FEEEC1;}
	.st31{fill:#FDD89A;}
	.st32{fill:#FDCA85;}
	.st33{fill:#E17D15;}
	.st34{fill:#C6844E;}
	.st35{fill:#EFC86F;}
	.st36{fill:#E39149;}
	.st37{fill:#F3E4B9;}
	.st38{fill:#EE975B;}
	.st39{fill:#F4D3AB;}
	.st40{fill:#FFEAC2;}
	.st41{fill:#F3D0BE;}
	.st42{fill:#EEC6B2;}
	.st43{fill:#FFE7BF;}
	.st44{fill:#FFEAC7;}
</style>
<sodipodi:namedview  bordercolor="#666666" borderopacity="1.0" id="base" inkscape:current-layer="layer1" inkscape:cx="273.52498" inkscape:cy="614.84559" inkscape:document-units="px" inkscape:pageopacity="0.0" inkscape:pageshadow="2" inkscape:window-height="787" inkscape:window-maximized="0" inkscape:window-width="1440" inkscape:window-x="0" inkscape:window-y="0" inkscape:zoom="0.42014768" pagecolor="#ffffff" showgrid="false">
	</sodipodi:namedview>
<g>
	<g>
		<path class="st0" d="M244.3,14.9l-27.8,49.3l-3.3,5.8l-0.7,1.3l-31.7-11.4c-1.5-0.2-2.7-1.5-2.9-3.2l-0.3-2.9l-3.2-27.7l-0.5-4.7
			c0,0-0.9-0.2-1.9-0.8c-0.9-0.5-1.8-1.3-2.3-2.4c-0.4-0.6-0.6-1.3-0.6-2.2c0-0.3,0-0.5,0-0.8c0.6-4.9,5.3-8.2,10.4-10.3
			c6.3-2.6,13.3-3.5,13.3-3.5s3-0.4,6.8-0.4c3,0,6.6,0.3,9.7,1.2c0.7,0.2,1.4,0.4,2,0.7C218.7,5.6,244.3,14.9,244.3,14.9z"/>
		<path class="st1" d="M216.5,64.2l-3.3,5.8l-0.7,1.3l-31.7-11.4c-1.5-0.2-2.7-1.5-2.9-3.2l-0.3-2.9l-3.2-27.7l-0.5-4.7
			c0,0-0.9-0.2-1.9-0.8l-0.1-1.9l39.8,12.4L216.5,64.2z"/>
		<path class="st1" d="M209.3,30.9l-2.8,2.3l-32.7-11.8c0,0-4.6-0.9-4.7-5.3L209.3,30.9z"/>
		<polygon class="st2" points="207.4,38 174.4,26.1 173.8,21.4 206.5,33.1 		"/>
		<path class="st1" d="M174.9,19.7l-5.3-1.6c-0.3-0.5-0.5-1.2-0.5-2.1c0-0.3,0-0.5,0-0.8c0.6-4.9,5.3-8.2,10.4-10.3
			c-3.6,2.1-7.8,5.3-8,8.6c0,3,2.3,3.9,6.2,5.9C181.6,21.3,174.9,19.7,174.9,19.7z"/>
		<path class="st2" d="M213.2,70l-0.7,1.3l-31.7-11.4c-1.5-0.2-2.7-1.5-2.9-3.2l-0.3-2.9c0.7,1.6,1.7,3.3,3.5,4.4
			C184.8,60.4,206.4,67.8,213.2,70z"/>
		<path class="st3" d="M231.1,11.5c0,0-13.8-1.4-27.6,7.8c-3.2,3-26.9-4.8-26.4-8.6s8-7.6,17.9-8.4S211.3,3.5,231.1,11.5z"/>
		<g>
			<g>
				<path class="st4" d="M214.1,71.1c-1.6,0-2.8-1.1-3-2.7L207,32.6l-0.4-0.1c-0.2,0-4.7-1-4.2-5.5c1.1-10.5,22.9-13.3,23.1-13.3
					c0,0,3-0.4,6.7-0.4c7.1,0,15.6,1.3,16.5,7.6c0.5,4.4-4,6.6-4.2,6.7l-0.4,0.3l-3.4,36.6c-0.2,1.9-1.7,3.5-3.4,3.7l-22.8,2.9
					C214.3,71.1,214.2,71.1,214.1,71.1L214.1,71.1z"/>
				<path class="st5" d="M232.2,13.9c5.6,0,15.1,0.9,15.9,7.1c0.5,4-3.7,6.1-3.9,6.2l-0.6,0.3l-0.1,0.6l-3.3,36.3
					c-0.1,1.6-1.4,3-3,3.2l-11.4,1.5l-11.4,1.5c-0.1,0-0.2,0-0.4,0c-1.3,0-2.2-0.9-2.4-2.2l-4-35.4l-0.1-0.8l-0.8-0.2
					c-0.4-0.1-4.2-1-3.8-4.9c1.1-10.1,22.4-12.7,22.6-12.8C225.6,14.3,228.5,13.9,232.2,13.9L232.2,13.9z M232.2,12.8
					c-3.8,0-6.8,0.4-6.8,0.4S203,15.9,201.8,27c-0.5,5.1,4.7,6.1,4.7,6.1l4.1,35.4c0.2,1.9,1.7,3.2,3.5,3.2c0.2,0,0.3,0,0.5,0
					l11.4-1.5l11.4-1.5c2-0.3,3.7-2.1,3.9-4.2l3.3-36.3c0,0,5.2-2.4,4.6-7.3C248.3,14.1,238.9,12.8,232.2,12.8L232.2,12.8z"/>
			</g>
			<path class="st6" d="M210.4,26c0,0,1-1.6,1.9-1.4c0.9,0.1,2.2,1.4,2.1,2.2c-0.1,0.8-0.6,2.6-1.7,2.6c-1.1,0-2.1-0.4-2.3-0.9
				C210.2,28,210.3,26.7,210.4,26z"/>
			<path class="st6" d="M214.5,22.1c0.5-0.4,1.2-0.7,1.6,0c0.4,0.7,0.5,1.8,0,2c-0.5,0.1-1.7-0.5-1.7-0.5S214.2,22.4,214.5,22.1z"/>
			<path class="st6" d="M217.3,27.2c0.5-0.5,1.1-0.1,1,0.5c-0.1,0.7-0.2,1-0.7,1C217.1,28.8,217,27.5,217.3,27.2z"/>
			<path class="st6" d="M239.3,20.3c0.8-0.2,2,1.4,1.7,2.4c-0.3,0.9-1.3,2.2-2,1.7s-1-1.6-0.8-2.4S238.8,20.4,239.3,20.3z"/>
			<path class="st6" d="M214.2,42.7c0.9-0.8,1.9-0.3,2,0.8c0.1,1-0.5,2.4-1.1,2.4C214.5,45.8,213.3,43.6,214.2,42.7z"/>
			<path class="st6" d="M218,41.4c0.1-0.6,0.9-1.6,1.4-1c0.5,0.5,0.6,1,0,1.6C218.8,42.4,217.9,42.2,218,41.4z"/>
			<path class="st6" d="M233.5,58.4c1.2-0.8,2.4,0.7,2.4,1.8c0,1.2-0.7,3.1-1.5,3.4c-0.8,0.3-2-0.7-2-2
				C232.4,60.3,233.1,58.6,233.5,58.4z"/>
			<path class="st6" d="M235.1,53.5c0.9-0.2,1.3,1.7,0.9,2.2c-0.4,0.5-1.6,1.2-1.8,0.5C234,55.6,234.5,53.7,235.1,53.5z"/>
			<path class="st6" d="M228.6,54.2c0,0,0.7-0.9,1.3-0.1c0.6,0.8,0.2,1.4-0.3,1.7C229.1,56,228,55.2,228.6,54.2z"/>
			<path class="st6" d="M217.4,59.7c0.5-0.7,1.4-0.3,1.4,0.3c0,0.5-0.4,1.7-0.9,1.6C217.4,61.4,216.9,60.4,217.4,59.7z"/>
			<path class="st6" d="M220.8,63.8c0.5-0.6,1.1-0.3,1.1,0.1s-0.2,1.2-0.8,1.2S220.3,64.3,220.8,63.8z"/>
			<path class="st6" d="M237.3,41.1c0.8,0.4,0.4,1.4,0,1.7s-1.3,0.1-1.3-0.5C236,41.6,236.4,40.7,237.3,41.1z"/>
		</g>
	</g>
	<g>
		<path class="st0" d="M258.3,22.2c0,4.9-5.3,7.2-5.3,7.2l-7.7,36.5c-0.5,2.2-2.4,4-4.4,4.3l-11.6,1.5l-6,0.8l-3.4,0.4l-1,1.5
			l-2.2-1.2c-1.6-0.2-2.7-1.5-2.7-3.3l0.7-34.5c0,0-5.1-2.9-3.9-8c2.7-11.2,25.3-13.3,25.3-13.3s13.1-1.5,19.2,2.6l3.6,1.8l-1,1.3
			C258.1,20.5,258.3,21.3,258.3,22.2z"/>
		<path class="st1" d="M223.3,72.3L223.3,72.3l-3.5,0.5l-1,1.5c0,0-5.1-0.6-4.9-4.5l0.7-34.5l3.4,0.1L223.3,72.3z"/>
		<g>
			<g>
				<path class="st4" d="M220.5,74.3c-0.7,0-1.4-0.2-1.8-0.7c-0.5-0.5-0.7-1.2-0.7-2l0.6-36.6l-0.5-0.1c0,0-1.2-0.3-2.2-1.1
					c-1.3-1.1-1.7-2.6-1.3-4.5c2.6-10.6,24.5-12.9,24.8-12.9c0,0,2.3-0.3,5.4-0.3c6.1,0,16.2,1,16.3,7.8c0,4.5-4.9,6.6-5,6.7
					l-0.3,0.1L248,67.5c-0.4,1.9-2.1,3.6-3.9,3.8l-23.2,3C220.7,74.3,220.6,74.3,220.5,74.3L220.5,74.3z"/>
				<path class="st5" d="M244.7,16.7c5.8,0,15.7,0.9,15.7,7.3c0,4.1-4.6,6.1-4.6,6.1l-0.5,0.2l-0.1,0.6l-7.7,36.5
					c-0.4,1.7-1.9,3.2-3.5,3.4l-11.5,1.5l-11.7,1.5c-0.1,0-0.2,0-0.4,0c-0.6,0-1.1-0.2-1.4-0.6c-0.4-0.4-0.6-1-0.6-1.6l0.7-36.1
					v-0.9l-0.9-0.2c-0.4-0.1-3.9-1.1-3.1-4.9c2.5-10.3,24.1-12.5,24.3-12.5C239.5,17,241.7,16.7,244.7,16.7L244.7,16.7z M244.7,15.6
					c-3.1,0-5.4,0.3-5.4,0.3s-22.5,2.1-25.2,13.3c-1.2,5.1,3.9,6.3,3.9,6.3l-0.7,36.1c0,2,1.3,3.3,3.1,3.3c0.2,0,0.3,0,0.5,0
					l11.7-1.5l11.5-1.5c2.1-0.3,4-2.1,4.4-4.3l7.7-36.5c0,0,5.3-2.3,5.3-7.2C261.5,16.7,251.3,15.6,244.7,15.6L244.7,15.6z"/>
			</g>
			<path class="st6" d="M222.9,28.3c0,0,1.2-1.6,2.1-1.4c0.9,0.1,2,1.5,1.8,2.3s-0.9,2.6-2,2.6s-2-0.4-2.2-1
				C222.4,30.3,222.7,29,222.9,28.3z"/>
			<path class="st6" d="M227.4,24.5c0.5-0.4,1.3-0.6,1.6,0c0.3,0.7,0.3,1.8-0.3,2c-0.5,0.1-1.6-0.6-1.6-0.6S227.1,24.7,227.4,24.5z"
				/>
			<path class="st6" d="M229.5,29.6c0.6-0.5,1.1-0.1,0.9,0.5c-0.2,0.7-0.3,1-0.8,1C229.1,31.2,229.2,29.9,229.5,29.6z"/>
			<path class="st6" d="M252,23.1c0.8-0.2,1.8,1.5,1.4,2.4c-0.4,0.9-1.5,2.2-2.1,1.7s-0.8-1.6-0.5-2.4C251.1,24,251.5,23.2,252,23.1
				z"/>
			<path class="st6" d="M224.5,45.2c1-0.8,1.9-0.2,1.9,0.8c0,1.1-0.8,2.4-1.4,2.4C224.4,48.4,223.4,46.1,224.5,45.2z"/>
			<path class="st6" d="M228.4,43.9c0.2-0.7,1.1-1.6,1.5-1c0.4,0.5,0.5,1.1-0.2,1.6C229.1,45,228.2,44.7,228.4,43.9z"/>
			<path class="st6" d="M241.6,61.3c1.2-0.8,2.3,0.7,2.1,1.9c-0.1,1.2-1.1,3.2-1.9,3.5c-0.8,0.3-1.9-0.7-1.7-2
				C240.3,63.3,241.2,61.6,241.6,61.3z"/>
			<path class="st6" d="M243.8,56.4c0.9-0.2,1.1,1.7,0.6,2.3c-0.5,0.5-1.7,1.2-1.8,0.5S243.2,56.5,243.8,56.4z"/>
			<path class="st6" d="M237.3,57c0,0,0.8-0.9,1.3-0.1c0.5,0.8,0,1.5-0.5,1.7C237.6,58.9,236.6,58.1,237.3,57z"/>
			<path class="st6" d="M225.4,62.6c0.6-0.7,1.4-0.3,1.4,0.3c-0.1,0.5-0.6,1.7-1.1,1.6S224.8,63.3,225.4,62.6z"/>
			<path class="st6" d="M228.2,66.8c0.6-0.6,1.1-0.3,1.1,0.1c-0.1,0.4-0.4,1.2-1,1.2C227.8,68.1,227.7,67.3,228.2,66.8z"/>
			<path class="st6" d="M247.5,43.9c0.7,0.4,0.2,1.4-0.2,1.7s-1.3,0.1-1.2-0.5C246.2,44.4,246.7,43.5,247.5,43.9z"/>
		</g>
	</g>
	<g>
		<path class="st0" d="M268.7,25.6c-0.4,4.8-5.8,7-5.8,7l-10.5,36.3c-0.6,2.2-2.7,4.1-4.8,4.3l-11.7,1.5l-6.1,0.8l-3.5,0.4l-1.1,1.5
			l-2.1-1.2c-1.6-0.2-2.6-1.5-2.4-3.3l3.8-34.5c0,0-4.7-2.8-3.1-7.9c3.7-10.9,26-13,26-13s12.9-1.4,18.6,2.6l3.4,1.8l-1,1.2
			C268.7,23.9,268.8,24.7,268.7,25.6z"/>
		<path class="st1" d="M230,75.4L230,75.4l-3.6,0.5l-1.1,1.5c0,0-5-0.6-4.4-4.6l3.8-34.5l3.4,0.1L230,75.4z"/>
		<g>
			<g>
				<path class="st4" d="M226.9,77.5c-0.7,0-1.3-0.2-1.7-0.7s-0.6-1.2-0.5-2.1l4-36.7l-0.5-0.1c0,0-1.9-0.5-2.8-2
					c-0.5-0.9-0.6-2.1-0.1-3.5c3.5-10.4,25.2-12.6,25.4-12.6c0,0,2.2-0.2,5-0.2c6.9,0,11.9,1.3,14.1,3.7c1,1.1,1.5,2.4,1.4,4
					c-0.3,4.4-5.3,6.5-5.4,6.5l-0.2,0.1l-10.5,36.6c-0.6,2-2.4,3.7-4.3,3.9l-23.4,3C227.2,77.5,227.1,77.5,226.9,77.5z"/>
				<path class="st5" d="M255.7,20.1c6.8,0,11.6,1.2,13.7,3.5c0.9,1,1.3,2.1,1.2,3.6c-0.3,4-5,6-5,6.1l-0.5,0.2L265,34l-10.5,36.3
					c-0.5,1.8-2.2,3.3-3.8,3.5l-11.6,1.6l-11.8,1.5c-0.1,0-0.2,0-0.4,0c-0.5,0-1-0.2-1.3-0.5c-0.3-0.4-0.5-1-0.4-1.6l3.9-36.2l0.1-1
					l-1-0.2c0,0-1.7-0.4-2.4-1.7c-0.4-0.8-0.5-1.8-0.1-3c3.4-10.1,24.7-12.2,25-12.2C250.8,20.4,252.9,20.1,255.7,20.1L255.7,20.1z
					 M255.7,19c-2.9,0-5.1,0.2-5.1,0.2s-22.3,2.1-25.9,13c-1.6,5,3.3,6.2,3.3,6.2l-3.9,36.3c-0.2,2,1,3.4,2.8,3.4c0.2,0,0.3,0,0.5,0
					l11.8-1.5l11.7-1.6c2.1-0.3,4.1-2.1,4.7-4.3l10.5-36.4c0,0,5.4-2.2,5.7-7C272.3,20.1,262.1,19,255.7,19L255.7,19z"/>
			</g>
			<path class="st6" d="M233.5,31.4c0,0,1.3-1.5,2.2-1.4c0.8,0.1,1.8,1.5,1.6,2.2c-0.3,0.8-1.1,2.6-2.2,2.6c-1.1,0-2-0.4-2-1
				C232.9,33.4,233.2,32.1,233.5,31.4z"/>
			<path class="st6" d="M238.3,27.7c0.5-0.4,1.3-0.6,1.5,0c0.2,0.7,0.1,1.8-0.4,1.9s-1.5-0.6-1.5-0.6S238,27.9,238.3,27.7z"/>
			<path class="st6" d="M239.9,32.7c0.6-0.4,1.1-0.1,0.9,0.5s-0.4,1-0.9,1C239.4,34.3,239.6,33,239.9,32.7z"/>
			<path class="st6" d="M262.6,26.4c0.8-0.2,1.6,1.4,1.2,2.3c-0.5,0.9-1.7,2.1-2.2,1.6c-0.6-0.5-0.6-1.6-0.3-2.3
				C261.5,27.3,262.1,26.5,262.6,26.4z"/>
			<path class="st6" d="M233.6,48.2c1-0.8,1.9-0.2,1.8,0.8c-0.1,1.1-1,2.4-1.6,2.4S232.4,49.1,233.6,48.2z"/>
			<path class="st6" d="M237.6,46.9c0.2-0.6,1.2-1.6,1.6-1c0.4,0.5,0.4,1.1-0.3,1.6S237.3,47.7,237.6,46.9z"/>
			<path class="st6" d="M249.2,64.3c1.3-0.8,2.2,0.7,2,1.9c-0.2,1.2-1.3,3.2-2.2,3.5c-0.8,0.3-1.8-0.7-1.6-2
				C247.7,66.3,248.8,64.6,249.2,64.3z"/>
			<path class="st6" d="M251.8,59.4c0.9-0.2,0.9,1.7,0.4,2.3c-0.5,0.5-1.8,1.2-1.9,0.5C250.3,61.5,251.2,59.5,251.8,59.4z"/>
			<path class="st6" d="M245.3,60c0,0,0.9-0.9,1.3-0.1c0.4,0.8-0.1,1.5-0.7,1.7C245.4,61.9,244.5,61.1,245.3,60z"/>
			<path class="st6" d="M233,65.6c0.6-0.7,1.4-0.3,1.3,0.3c-0.1,0.5-0.8,1.8-1.2,1.6C232.6,67.4,232.3,66.3,233,65.6z"/>
			<path class="st6" d="M235.4,69.8c0.7-0.6,1.2-0.3,1.1,0.1c-0.1,0.4-0.5,1.2-1.1,1.2C234.8,71.2,234.8,70.4,235.4,69.8z"/>
			<path class="st6" d="M256.5,46.9c0.7,0.4,0.1,1.4-0.3,1.7s-1.3,0.1-1.1-0.5C255.1,47.4,255.7,46.5,256.5,46.9z"/>
		</g>
	</g>
	<g>
		<path class="st0" d="M276.4,29.3c1.5,4.8-3.3,7.2-3.3,7.2l3.2,39.2c0.2,2.5-1.3,4.7-3.6,5l-12.5,1.8l-6.5,0.9l-3.6,0.6l-0.7,1.7
			l-2.7-1.4c-1.8-0.2-3.3-1.7-3.7-3.8L235.5,44c0,0-5.6-2.6-5.5-7.6c0.3-10.5,21.7-13.6,21.7-13.6s12.6-2.1,19.9,1.5l4.2,1.5
			l-0.6,1.3C275.8,27.7,276.2,28.5,276.4,29.3z"/>
		<path class="st1" d="M253.8,83.3L253.8,83.3l-3.7,0.7l-0.7,1.7c0,0-5.7-0.7-6.5-5.2L235.5,44h3.4L253.8,83.3z"/>
		<g>
			<g>
				<path class="st4" d="M251.4,85.8c-1.7,0-3.3-1.4-3.7-3.4l-8.3-39l-0.4-0.1c-0.2,0-4.8-0.9-4.7-5.3c0.2-9.9,21-13.1,21.2-13.1
					c0,0,3.6-0.6,8.1-0.6c6.4,0,14.4,1.2,16.3,6.8c1.4,4.2-2.8,6.5-3,6.6l-0.4,0.2l3.6,40c0.2,2.2-1.1,4.1-3,4.4l-25.2,3.6
					C251.8,85.8,251.6,85.8,251.4,85.8z"/>
				<path class="st5" d="M263.5,24.9c6.2,0,13.9,1.1,15.7,6.4c1.2,3.7-2.5,5.7-2.7,5.8l-0.8,0.4l0.1,0.8l3.6,39.6
					c0.2,1.9-0.9,3.5-2.5,3.7l-12.6,1.8l-12.5,1.8c-0.1,0-0.2,0-0.4,0c-1.4,0-2.7-1.2-3.1-2.9l-8.2-38.6l-0.2-0.8l-0.8-0.2
					c-0.2,0-4.3-0.8-4.2-4.7c0.2-9.4,20.4-12.5,20.7-12.5C255.6,25.5,259.2,24.9,263.5,24.9L263.5,24.9z M263.5,23.7
					c-4.5,0-8.1,0.6-8.1,0.6s-21.5,3.1-21.7,13.7c-0.1,5,5.2,6,5.2,6l8.2,38.6c0.5,2.3,2.3,3.9,4.3,3.9c0.2,0,0.4,0,0.5,0l12.5-1.8
					l12.6-1.8c2.3-0.3,3.8-2.5,3.6-5.1l-3.5-39.6c0,0,4.9-2.5,3.3-7.3C278.4,24.9,270,23.7,263.5,23.7L263.5,23.7z"/>
			</g>
			<path class="st6" d="M242.1,36.8c0,0,0.8-1.5,1.7-1.4s2.3,1.3,2.3,2.1s-0.3,2.6-1.4,2.6c-1.1,0-2.1-0.3-2.4-0.9
				C242.1,38.7,242.1,37.4,242.1,36.8z"/>
			<path class="st6" d="M245.7,32.9c0.4-0.4,1.1-0.7,1.6,0c0.5,0.6,0.7,1.8,0.2,1.9c-0.5,0.1-1.7-0.5-1.7-0.5S245.5,33.2,245.7,32.9
				z"/>
			<path class="st6" d="M249.1,37.8c0.5-0.5,1.1-0.2,1.1,0.5c0,0.6-0.1,1-0.6,1S248.8,38.1,249.1,37.8z"/>
			<path class="st6" d="M270.3,30.5c0.8-0.2,2.3,1.3,2.1,2.2c-0.1,0.9-0.9,2.2-1.7,1.7c-0.8-0.5-1.3-1.5-1.2-2.3
				C269.5,31.4,269.8,30.6,270.3,30.5z"/>
			<path class="st6" d="M247.9,53.6c0.8-0.9,1.9-0.3,2.2,0.8c0.2,1.1-0.2,2.5-0.8,2.5C248.6,56.9,246.9,54.6,247.9,53.6z"/>
			<path class="st6" d="M251.6,52.2c0-0.7,0.7-1.7,1.3-1.1c0.6,0.5,0.8,1.1,0.2,1.6C252.6,53.3,251.6,53,251.6,52.2z"/>
			<path class="st6" d="M270.8,70.6c1.1-0.9,2.8,0.7,3,2.1s-0.2,3.7-1,4s-2.3-0.8-2.6-2.3C270,72.9,270.4,70.9,270.8,70.6z"/>
			<path class="st6" d="M271.7,65.1c0.9-0.2,1.7,1.9,1.4,2.5c-0.3,0.6-1.5,1.4-1.9,0.6C270.9,67.5,271,65.3,271.7,65.1z"/>
			<path class="st6" d="M264.8,65.9c0,0,0.6-1,1.4-0.2c0.8,0.9,0.5,1.6,0,1.9C265.6,68,264.3,67.1,264.8,65.9z"/>
			<path class="st6" d="M253.4,72.3c0.4-0.8,1.5-0.3,1.5,0.3c0.1,0.6-0.2,2-0.7,1.8C253.7,74.3,253,73.1,253.4,72.3z"/>
			<path class="st6" d="M257.7,77c0.5-0.7,1.2-0.3,1.2,0.1c0.1,0.5,0,1.4-0.7,1.4C257.6,78.5,257.3,77.6,257.7,77z"/>
			<path class="st6" d="M271.8,51.6c0.9,0.4,0.7,1.5,0.3,1.8s-1.3,0.2-1.5-0.5C270.5,52.2,270.8,51.2,271.8,51.6z"/>
		</g>
	</g>
</g>
<g>
	<g>
		<path class="st4" d="M329.7,11.4c-1.3-11-22.9-10.8-22.9-10.8s-21.6-0.2-22.9,10.8c-0.5,5,4.5,6.8,4.5,6.8l3.6,36.2
			c0.2,2.1,1.9,3.7,3.8,3.7h11h11c2,0,3.6-1.6,3.8-3.7l3.6-36.2C325.2,18.2,330.2,16.5,329.7,11.4z"/>
		<path class="st5" d="M317.8,58.7h-22c-2.3,0-4.2-1.8-4.4-4.3l-3.5-35.8c-1.2-0.6-5-2.7-4.5-7.3C284.6-0.1,305.9,0,306.8,0
			s22.2-0.1,23.5,11.4l0,0c0.5,4.6-3.3,6.7-4.5,7.3l-3.5,35.8C322,56.9,320.1,58.7,317.8,58.7z M306.8,1.2c-1,0-21.1,0.1-22.2,10.3
			c-0.5,4.5,4,6.1,4.1,6.1l0.4,0.1l3.6,36.5c0.2,1.8,1.6,3.2,3.2,3.2h22c1.7,0,3.1-1.4,3.2-3.2l3.6-36.5l0.4-0.1
			c0.2-0.1,4.5-1.7,4.1-6.1C327.9,1.1,307,1.2,306.8,1.2L306.8,1.2z"/>
	</g>
	<path class="st6" d="M291.9,11.8c0,0,1.2-1.8,2.3-1.7c1.1,0.2,2.6,1.7,2.5,2.6c-0.1,0.9-0.7,3-2,3s-2.5-0.5-2.7-1.1
		C291.7,14.1,291.8,12.6,291.9,11.8z"/>
	<path class="st6" d="M296.8,7.3c0.6-0.5,1.4-0.8,1.9,0s0.6,2.1,0,2.3c-0.6,0.2-2-0.6-2-0.6S296.5,7.6,296.8,7.3z"/>
	<path class="st6" d="M300.2,13.2c0.6-0.5,1.3-0.2,1.2,0.6s-0.2,1.2-0.8,1.2C299.9,15,299.8,13.5,300.2,13.2z"/>
	<path class="st6" d="M321.2,7.4c0.9-0.2,2.4,1.7,2,2.7c-0.4,1.1-1.5,2.6-2.4,2c-0.8-0.6-1.2-1.8-1-2.7
		C320.2,8.5,320.7,7.6,321.2,7.4z"/>
	<path class="st6" d="M294.9,30.3c1-0.9,2.3-0.3,2.4,0.9s-0.6,2.7-1.3,2.7C295.3,33.9,293.7,31.3,294.9,30.3z"/>
	<path class="st6" d="M298.2,28.1c0.1-0.7,1.1-1.8,1.7-1.2c0.6,0.6,0.7,1.2,0,1.8C299.2,29.3,298.1,29,298.2,28.1z"/>
	<path class="st6" d="M315.3,49c1.4-0.9,2.9,0.8,2.9,2.1c0,1.4-0.8,3.6-1.8,3.9c-1,0.3-2.4-0.8-2.4-2.3
		C314,51.3,314.8,49.3,315.3,49z"/>
	<path class="st6" d="M317.9,41.9c1.1-0.2,1.5,2,1.1,2.6c-0.5,0.6-1.9,1.4-2.1,0.6C316.6,44.3,317.2,42,317.9,41.9z"/>
	<path class="st6" d="M310.2,53c0,0,0.8-1.1,1.5-0.2c0.7,0.9,0.2,1.7-0.4,2C310.8,55.1,309.5,54.2,310.2,53z"/>
	<path class="st6" d="M311.7,11.6c0.6-0.8,1.7-0.3,1.7,0.3s-0.5,2-1.1,1.8C311.7,13.5,311.1,12.3,311.7,11.6z"/>
	<path class="st6" d="M296.9,49.3c0.7-0.7,1.3-0.3,1.3,0.2s-0.2,1.4-1,1.4C296.6,50.8,296.4,49.9,296.9,49.3z"/>
	<path class="st6" d="M320.7,25.6c1,0.4,0.5,1.7,0,2s-1.5,0.2-1.5-0.6S319.6,25.1,320.7,25.6z"/>
</g>
<g>
	<path class="st7" d="M191.6,173.8c0-2.8,0.5-6.4,1.5-10.8c5.1-14.7,7.6-22.6,7.4-23.8c0.3-2,0.5-4.2,0.5-6.6l-0.9-15.2
		c0.3-2.9,1.1-4.9,2.4-6c2-2.4,6.1-3.6,12.5-3.6c0.2,0.3,1.1-0.9,2.5-3.4c0.4-0.4,1.5-0.9,3.4-1.6c1.7-0.7,4.3-1.2,7.9-1.4
		c1.3-0.2,8.5,0,21.6,0.9c1.9,1,3.6,3.3,5.1,7c1.2,3.1,1.8,6.1,1.9,9.1l-2.3,15.4c0.9,9.2,1.2,14.9,0.9,17
		c-2.2,12.2-3.8,22.5-4.9,30.9c-0.5,1.9-1.1,3.1-1.9,3.8c-0.8,2.4-5.1,2.6-12.8,0.9c-3-0.3-12.1-2.8-27.3-7.6
		c-2.9-0.7-8.4-1.8-16.6-3.3c-0.9-0.2-1.1-0.7-0.8-1.4L191.6,173.8z"/>
	<path class="st7" d="M227.2,104.7c2.7-3.8,9.4-7,20.1-9.5c10.5-2.2,19.9-2.8,28.2-1.7c14.4,1.2,26.3,3.5,35.6,7
		c7.1,3.3,10.7,7.1,10.7,11.3c0.2,1.2,0.1,2.1,0,2.8c-1.4,2.1-2,3.6-1.9,4.5c0.8,7.6,1,17.8,0.6,30.5c0,4.6-0.4,7-1.4,7l-12,7
		c-13.5,6.3-21.8,10.6-24.9,12.9c-4.2,0.8-8.3,2.5-12.3,5.1l-32.6-3.7L227.2,104.7z"/>
	<path class="st8" d="M199.1,114.9c8.5-3.4,16.5-4.3,24.1-2.7c6.4,1.3,11,2.5,13.9,3.8c6.1,2.9,11.3,5.9,15.7,9
		c3.3,2.2,4.9,4.2,4.7,6c0,0.7-0.2,1.4-0.5,1.8c-2.2,1.9-3.5,3.9-3.9,5.9c-0.8,3-1.1,6.5-0.9,10.5c0.2,0.3,1.2-2.3,3-7.8
		c0.3-0.7,0.6-1.4,1.1-2.2c0.1-0.7,1.9-2.6,5.6-5.6c0.6-0.7,1-1.3,1.2-2c1.5-4.1,0.1-8.2-4.3-12.4c-2.9-3-8.3-5.6-16.1-7.8
		c-10.2-3.2-19.6-4.8-28.3-4.6c-8,0.7-13,3.1-15.1,7L199.1,114.9z"/>
	<path class="st8" d="M246.4,172.4c0.1,2.3,0.1,3.4,0,3.5c-0.1,0.8-0.2,1.2-0.2,1.4c-0.5,2.2-0.8,3.9-1,5.2
		c-0.2,1.4-0.2,2.2-0.1,2.3c0.2,0.6,1.2,0.9,3.1,0.8c1.8-0.3,2.8-0.7,2.9-1.3c0.1-0.2,0.1-0.4,0.2-0.7c0.1-1.8,0.2-2.9,0.3-3.2
		c0.3-1.6,0.5-3.4,0.8-5.5c0-2.5,0.3-5.4,0.7-8.6c0.5-2.4,0.9-5.1,1.2-8.1l0.8-4.2c0.2-1.5,0.4-2.7,0.5-3.6l-2.1,8.4l-1,5.2
		l-1.6,7.1c-0.1,0.2-0.3,1.8-0.7,5c-0.3,1.8-0.6,2.6-0.6,2.6c-0.1,0-0.2-0.2-0.2-0.6v-3.3l-0.3-5.9c0-2.4,0-4,0.1-4.8
		c0.3-2.8,0.6-5.3,0.9-7.3c0.1-0.5,0.7-3.2,1.8-7.9c-0.3-0.1-0.8,0.9-1.4,2.8c-1.1,3.4-1.7,5.6-1.8,6.8l-1.1,15.7L246.4,172.4z"/>
	<path class="st8" d="M247.3,180.8c-0.8,0.1-1.2,0.1-1.2,0c-0.2-0.1-0.2-0.5-0.2-1.2c0.1-0.7,0.1-1.6,0.1-2.6l0.4-4.7l0.8-6.4
		c0-0.2,0.3-1.6,0.8-4.2c1-4.3,1.7-6.9,2-7.8c0.1-0.2,0.3-1.1,0.6-2.7c1.3-4.4,1.9-6.3,1.9-5.7c0.1,0,0.1,0.7-0.1,2.1l-0.9,4.9
		c-0.6,4.1-0.9,6.7-1,7.7l-1,12.1l-0.2,2c-0.2,2.1-0.3,4.4-0.4,7.1L247.3,180.8z"/>
	<path class="st8" d="M217.3,105.7c13.1-1.2,21.9-1.7,26.3-1.4c1.7-0.1,5.5,0.5,11.3,1.8c2.5,0.5,4.9,1.2,6.9,1.9
		c6.2,1.9,9.8,4,10.8,6.4c0.8,1.3,1.1,2.8,1,4.7c-0.7,2.9-1.5,4.6-2.5,5.2c-0.1,0.2,0.1,0.3,0.6,0.2c6.5-1,9.2-4.1,8.4-9.5
		c-1.4-5.3-5.6-9.1-12.8-11.6c-4-1.3-6.6-2-7.6-2.2c-5-0.5-9.2-1.1-12.6-1.8c-7.7-0.6-12.3-0.8-13.9-0.7c-4.4,0.2-8.1,0.8-11.3,1.9
		c-0.7,0.2-1.3,0.6-1.9,1c-0.4,0.4-2.1,1.7-5.1,4L217.3,105.7z"/>
	<path class="st8" d="M274.1,126.3c-1,0.4-1.7,0.9-2.2,1.6c-0.1,0.2-0.2,0.5-0.3,0.9l-0.2,2.3c0,0.4-0.1,0.8-0.1,1
		c0,1.4,0,2.6,0,3.7l0.1,5.6v8.7c0,1.4,0.2,2.1,0.5,1.8c0.1-0.1,0.2-0.4,0.3-0.9c0.3-2.4,0.4-3.5,0.4-3.4c0-0.3,0-0.6,0.1-0.9
		l0.2-4.1c0.1-1.4,0.2-2.9,0.3-4.6l0.2-3.3l0.5-5.1c0.1-0.7,0.2-1.2,0.3-1.6c0.1-0.3,0.5-1.3,1.2-2.9L274.1,126.3z"/>
	<path class="st8" d="M269.4,128.1c-0.1,1-0.2,1.5-0.2,1.6s0,0.6,0,1.7c0,0.3,0,0.5,0,0.8c0,0.2-0.1,1-0.1,2.4c0,0.4,0,0.7,0,0.9
		c0,0.1,0,1.5,0,4.2l-0.1,2.8c0,0.9,0,2-0.1,3.2v4.6c0,0.5,0,1.1,0,1.8c0,1.4,0.1,2,0.2,1.7c0.1,0,0.2-0.5,0.4-1.7
		c0-0.2,0.1-0.5,0.1-0.8l0.2-2.8c0-0.5,0-1.2,0.1-2.1v-3.1c0.1-2.7,0.2-4.6,0.2-5.6c0-0.3,0-1,0-1.9c0-0.2,0-0.5,0-0.7
		c0-0.3,0-1.2,0.1-2.5c0-0.3,0-0.9,0-1.6l0.1-2.4c0-0.4,0-0.8,0.1-1.1L269.4,128.1z"/>
	<path class="st8" d="M270.5,157.3c0,0,0,0.5-0.1,1.2l-0.5,5.4l-0.3,2.5c-0.1,1.3-0.2,2.4-0.2,3.3c-0.1,2.1-0.2,4.1-0.2,6.2
		c0,0.3,0,1.1-0.1,2.4c0,0.3,0,0.5,0.1,0.6c0.2,0.9,1.1,0.7,2.7-0.5c0.5-1.1,0.8-2.4,1-4c0.2-2.6,0.3-5.1,0.2-7.6
		c0-0.9-0.1-2.9-0.4-6c-0.1-0.7-0.2-1.8-0.5-3.2c0-0.2-0.2-0.8-0.4-1.9c-0.1-1.2-0.2-1.8-0.3-1.7s-0.1,0.3-0.1,0.6l-0.3,5
		L270.5,157.3z"/>
	<path class="st8" d="M233.7,97.8c-0.2,0.1,1.2,0.1,4.2,0.1c5.3-0.7,9.4-1,12.1-1c3.4,0,6.9,0.2,10.5,0.7c3.2,0.5,5.9,1.1,8.1,2
		c4.8,1.7,8.4,3.4,10.8,5.3c3.6,3.5,5.4,6.2,5.4,8.2c0.1,1.3,0.1,2.6-0.1,4c-1.4,2.7-2,4.8-1.8,6.2c-0.2,2.5,0.4,8.5,1.7,18
		c2.1-6.1,3.9-10.6,5.4-13.4c3.2-6.1,5.5-9.6,6.9-10.5c0.3-0.5,0.5-1.1,0.8-2c0.7-4.2-0.5-7.7-3.6-10.3c-1.7-2.5-10.7-5.5-27.2-9
		l-17.4-1.3c-1.3,0-2.1,0.1-2.5,0.2c-6.8,1.7-10.4,2.4-11,2.2L233.7,97.8z"/>
	<path class="st9" d="M195.3,156.8c3.4-5.5,5.4-11.7,5.9-18.7c0.3-0.3,0-3.6-0.9-10l-2.2-9.9c-0.1-1.1,0-1.9,0.3-2.5
		c4.7-3.9,12.9-5.2,24.5-3.8c-5.4,0.1-10.3,0.8-14.6,2c-2.9,0.6-4.6,1.6-5,2.9c-0.5,0.8-0.8,2.1-0.9,3.8c-0.2,0.1,0.2,1.9,1.2,5.3
		c0.2,1,0.3,1.8,0.3,2.3c0.2,11.2,0.1,16.8-0.3,16.7c-0.1,0.8-0.4,1.7-0.9,2.9c-1.8,3.1-3,5.3-3.5,6.8l-4.7,7.2
		c-0.7,1.5-1.3,3.1-1.6,4.8L195.3,156.8z"/>
	<path class="st10" d="M220.7,107L220.7,107L220.7,107L220.7,107L220.7,107L220.7,107L220.7,107L220.7,107L220.7,107L220.7,107
		L220.7,107L220.7,107L220.7,107L220.7,107L220.7,107z M231.1,104.1L231.1,104.1h-0.2c-0.6,0-1.1,0-1.5,0c-1.2,0.1-2.2,0.1-2.9,0.2
		l-10.4,1.2c-0.2,0-0.7,0.2-1.3,0.4c-0.7,0.3-1.1,0.7-1,1.2h0.1c0.3,0,0.7-0.1,1.2-0.1s1.1,0,1.7-0.1h0.5c0.6,0,1.1,0,1.4,0l0.7,0.1
		l0.8,0.1c0.6,0.1,1.4,0.2,2.6,0.4c0.1,0,0.3,0,0.5,0h0.1l5-1c2.2-0.3,4.3-0.5,6.3-0.7c1-0.1,3.5-0.3,7.7-0.5c0.7,0,2.4,0,5.1,0
		l-2.3-0.2c-1.8-0.3-3-0.4-3.8-0.5c-0.6-0.1-1.8-0.2-3.6-0.3C236,104.2,233.7,104.1,231.1,104.1z"/>
	<path class="st9" d="M255.7,142.9c-1.2,4.5-2.4,10.7-3.7,18.5l-1.7,10.1c-0.1,0.1-0.1,1.2-0.2,3.3c0,0.2-0.1,0.7-0.2,1.4
		c0,0.2,0,0.3,0,0.2c0.7-3.5,1.7-7.6,2.9-12.2l0.6-2.8c0.8-3,1.7-6.1,2.4-9.4c0.1-0.9,0.3-1.9,0.5-3c0.8-3.9,1.8-7.8,2.8-11.9
		c-0.1-0.7-0.6-0.4-1.6,0.9c-0.3,0.2-0.9,1.5-1.9,4.1L255.7,142.9z"/>
	<path class="st9" d="M235.2,106c1-0.2,6.5,0.6,16.4,2.4c4.5,1.2,8.2,2.4,11.2,3.8c7.3,4.1,10.2,8,8.6,11.7c1.9-2.2,2.2-5,1.1-8.5
		c-0.8-2.2-3.3-4.3-7.5-6.3c-2.6-1.1-4.7-1.8-6.3-2.1c-2.1-0.5-5.9-1.1-11.5-1.9c-6.9-0.6-12.6-0.7-17.3-0.1L235.2,106z"/>
	<path class="st9" d="M269.2,157.3c0,0.1,0.1-0.7,0.3-2.6l0.7-9.7c0.1-1.1,0.1-2.2,0.2-3.1c0.1-3.8,0.2-6.4,0.3-7.8
		c0.2-3.7,0.3-5.6,0.4-5.6c0,1.1,0.1,2.6,0.2,4.4c0,1.9,0.1,3,0.1,3.4c0.1,1.4,0.2,3.5,0.2,6.1c0.2,3.9,0.3,6,0.3,6.5
		c0.1,2,0.1,3.7,0.1,5.2c0,0.8-0.1,1.4-0.1,1.8c-0.2,1.6-0.2,2.2-0.3,1.9c0,0-0.1,0-0.1-0.2c-0.1-1-0.2-1.9-0.4-2.7
		c-0.1-0.2-0.2-0.2-0.3,0.3c-0.3,2.7-0.5,5.2-0.7,7.3c-0.3,2.8-0.6,5-0.7,6.6c-0.2,1.7-0.3,2.6-0.4,2.7L269.2,157.3z"/>
	<path class="st9" d="M267.4,167.9c0-0.4,0-0.7,0-0.8l-0.1-5.9c0-1,0-3.3,0-7c0-0.5,0-1.8,0-3.9c0-0.4,0-1,0-2
		c0-2.6,0.1-3.9,0.1-4.1c0.1-3.8,0.2-7,0.3-9.8c0-0.4,0-1.8,0-4c0-0.4,0-0.6,0-0.5c0,0.2,0.1,0.6,0.1,1.5c0,0.4,0,2,0.1,4.7
		c0,0.4,0,0.9,0,1.4c0,0.2,0.1,2.5,0.3,6.9c0,0.1,0,1.4,0.1,3.9c0,2.1,0.1,4.2,0.2,6.3c0,1.7,0,3.3,0.1,4.9c0,0.3,0,1.1,0,2.3
		c0,0.9,0,1.6,0,1.9c0,0.4,0,1.4-0.1,3c0,0.2,0,0.4,0,0.7c0,0.9,0.1,1.5,0.1,2l0.3,2.7c0.1,1.4,0.1,2,0.2,2L267.4,167.9z"/>
	<path class="st9" d="M281.5,170.7c-0.2-0.8-0.3-5.7-0.5-14.6c0-7.6,0-14.2,0-19.9c0-4.2,0-7.4-0.1-9.4c0-0.7,0-1.3,0-1.6
		c0.1-0.3,0.2-0.3,0.2-0.1c0.3,1.2,0.6,2.8,1,4.9l1.1,7.9c0.1,0.2,0.3,2.2,0.6,6c0.2,1.6,0.5,3.8,0.8,6.6c0.2,2.2,0.3,3.4,0.3,3.6
		c0.2,1.6,0.5,3.7,1.1,6.3c0,0.2,0.1,0.8,0.2,1.8l0.3,3.1c0.2,3.6,0.4,5.3,0.4,5.1c0,0.7-0.7,1.8-2.1,3.4c-2.2,2.3-3.5,3.3-3.7,2.9
		c-0.2,0-0.3-0.8-0.1-2.7l0.8-6.1c0.1-0.7,0.1-1.2,0.1-1.5L281.5,170.7z"/>
	<path class="st9" d="M268,165.4c-0.2-1.3-0.2-2.1-0.2-2.5c0,0,0,0.3,0,1.2l-0.3,3.9l-0.3,6.8c0,0.8-0.2,2.2-0.5,4.3
		c-0.1,0.5-0.1,0.8-0.1,0.8c0,0.3,0.2,0.6,0.6,0.7c0.9,0.3,1.7,0.4,2.3,0.4c0.1-0.1,0.1-0.3,0.2-0.7c0-1,0-2.8,0.1-5.6
		c0,0,0.1-1.3,0.3-3.9c0.1-1.8,0.2-2.9,0.2-3.4l0.1-6.5l-0.1-3.5c0-1.2,0-1.6,0.1-1c-0.3,3.8-0.7,6.4-1,7.8L268,165.4z"/>
	<path class="st9" d="M248.6,99.9c-1.1-0.4-4.1-0.7-9.1-0.9l-6.4-0.1c-0.4,0-1.7,0.1-4.1,0.2c-0.1-0.1,0.1-0.2,0.7-0.5
		c3.3-1.2,7.8-2,13.5-2.4c4.6-0.2,8.9-0.1,12.9,0.6c0.6,0.1,2,0.3,4.5,0.7c0.6,0.1,0.8,0.2,0.7,0.2c-1.4,0-2.1,0-2.2,0
		c-2.6,0.2-4.3,0.4-5,0.5c-2.3,0.4-3.2,0.7-2.6,0.9c2.1,0.9,5.7,1.9,10.8,2.8c0,0-0.2,0-0.5,0c-0.9-0.1-2-0.3-3.4-0.4
		c-1.2-0.2-1.8-0.3-1.8-0.3L248.6,99.9z"/>
	<path class="st8" d="M284.2,136.3c4.9-10.3,9.4-16.1,13.5-17.3c2.2-1.3,5.3-2.3,9.4-3c3-0.3,7.4,0,13.1,1c0.4,0,0.8-0.2,1.1-0.4
		c2.5-3.8,2-7.8-1.5-11.8c-3.5-3.5-6.8-5.6-9.7-6.4c-9.6-3-17.2-4.9-22.9-5.6c-2.3-0.3-5.2-0.5-8.6-0.7H260
		c-6.4,0.2-11.2,1.2-14.3,3c15.5,1,26.6,2.7,33.5,5.3c5.7,2.1,9.1,6.5,10.3,13.1L284.2,136.3z"/>
	<path class="st8" d="M280.6,97.3c1.4-2.2,1.1-3.5-0.7-4c-2-0.8-6.5-1.4-13.4-1.6c-4.5-0.1-8.8,0.3-13.1,1.1c-6,1.1-9.3,1.8-9.7,2
		c-0.8,0.2-2.5,0.6-4.9,1.2c-0.3,0.1-0.7,0.3-1.1,0.6c-0.2,0.2-0.1,0.3,0.4,0.3c3-0.1,7.1-0.2,12-0.2c3.3,0,6.8,0.1,10.3,0.4
		c6.5,0.5,12.3,1.3,17.5,2.5L280.6,97.3z"/>
	<path class="st9" d="M284.7,139.2c0.5-4.5,2.4-9.3,5.8-14.3c4.2-5.6,8.2-8.8,12-9.6c6.3-1.2,12.2-0.6,17.7,2c0.6,0.3,0.9,1.1,1,2.2
		l-0.3,9.5c-0.2,0.6-0.4,0.7-0.6,0.4c-1.3-2.7-2.4-4.8-3.4-6.1c-0.6-0.7-1.5-1.4-2.9-2.2c-3.2-1.2-6.2-1.3-9-0.2
		c-1.4,0.2-4.9,2.9-10.4,8l-6.9,8.7l-3.5,5.8L284.7,139.2z"/>
	<path class="st9" d="M307.3,115.9c0.7-0.6,2.2-0.7,4.5-0.6c1,0,2.2,0.2,3.4,0.4c0.8,0.1,2.2,0.4,3.9,0.9c0.2,0,0.5,0.1,0.9,0.1
		c0.9,0,1.5-0.4,1.8-1.2l-1.3,13.9c0,0.1-0.1,0-0.4-0.4c-0.9-1.5-1.6-2.6-2.1-3.2c-0.2-0.4-0.7-0.9-1.2-1.5c-1-1.1-2.1-2-3.4-2.7
		c-1.6-0.7-3.3-1.1-5.1-1.3c-0.3-0.2-2,0-5,0.5L307.3,115.9z"/>
	<path class="st9" d="M319.2,123.8c-4.2-4.6-10.1-4.9-17.7-1.1c-7.2,4.4-11.6,11.3-13.2,20.6c0,2.8,1.4,4.7,4.2,5.8
		c3,1,6.3,0.7,9.7-1.1c6.7-3.2,12.8-10.1,18.2-20.8c0.3,0.1,0.4,0.7,0.4,1.9l-0.4,21.2c-0.1,3.8-0.3,5.8-0.8,5.9
		c-0.3,0.7-2.2,1.9-5.9,3.8c-13.5,5.8-21.2,9.2-22.9,10.4c-2.4,1.1-5.3,2.9-8.5,5.3c3.6-4.2,5.5-7.5,5.6-9.9c0.1-1.1,0-2-0.4-2.8
		c-2.3-4-3.6-6.6-3.9-7.8c-0.5-1.4-0.8-2.8-0.9-4.4c0-4.6,1.3-9.1,3.8-13.2c2.6-5.1,8.3-10.8,17-17.1c4.5-2.5,8.5-3.2,12.3-2
		L319.2,123.8z"/>
	<path class="st11" d="M301.1,132.7c-2.1,2.1-3,3.7-2.7,4.8c0.5,1.6,1.9,2.1,4.2,1.7c1.9-0.4,3.8-1.2,5.8-2.5c2.3-1.4,5-3.6,8-6.4
		l1.1-0.8c0.1,0,0.2,0,0.3,0c-2.8,6.3-5.5,10.9-8.3,13.8c-1.7,2.1-4.2,3.7-7.6,5.1c-3.7,1.6-6.7,2-9.3,1.2c-2.2-0.4-3.8-1.9-4.9-4.6
		c-0.7-2-0.7-4.6,0.1-7.7c0.8-2.5,2.7-5.4,5.7-8.6c2.4-2.7,5-4.7,7.7-6.1c6.9-3.2,11.9-3.4,14.9-0.7c3,3.2,3.9,6,2.6,8.5
		c-0.1,0.1-0.2,0-0.2-0.1c-0.2-1-0.6-1.9-1-2.5c-0.5-0.8-1-1.2-1.5-1.5c-1.7-0.9-3.4-1.1-5.2-0.7c-3.9,0.8-7.7,3.9-11.6,9.3
		L301.1,132.7z"/>
	<path class="st11" d="M298.4,141.3c3.3,0,7-1.9,11.4-5.8c2.6-2.8,4.2-5,5-6.6c0.4-0.7,0.6-1.4,0.9-2.2c0.2-0.8,0.3-1.8,0.3-3
		c0-0.2,0.1-0.3,0.3-0.4c1.7-0.2,2.8,1.1,3.4,3.9c0.5,1.9,0.1,4.2-1.4,6.9c-3,4.8-6.4,8.3-10.2,10.7c-4.8,3.1-9.6,4.8-14.5,5
		L298.4,141.3z"/>
	<path class="st11" d="M286.9,170.9c-0.3-0.9-0.5-1.4-0.5-1.5l-0.9-4.7c-0.2-1.4-0.4-2.6-0.4-3.6c0-1.3,0.2-2.2,0.5-2.7
		c0.4-0.7,0.8-1,1.2-0.6c1.4,1.4,2.1,4,2.2,7.6C289.1,168.3,288.4,170.1,286.9,170.9L286.9,170.9z"/>
	<path class="st11" d="M251.6,140.6c-0.6,0.9-3.5,2.9-8.6,5.8c-27.6,14.7-44.4,24.2-50.3,28.5c-0.1,0.2,0.2,0.4,0.8,0.6
		c4.2,0.6,8.9,1.6,14.2,3.1l16.4,5c7.8,1.7,14,2.3,18.6,1.9c0.8-0.5,1.4-1.7,1.9-3.6l3.3-21c1.8-7.6,3.1-12.2,3.9-13.9
		c0.2-3,0.9-6.5,2-10.3L251.6,140.6z"/>
	<path class="st12" d="M309.4,106.2h-0.3c-1.9,0-3.4,0.1-4.4,0.3c-0.2,0-0.8,0.1-1.8,0.3l-3.9,0.7c-1.4,0.3-2.7,0.7-4,1.2
		c-0.3,0.1-1.2,0.5-2.6,1.3c-0.6,0.3-1.3,0.9-2.1,1.7c-0.4,0.5-0.8,1-1,1.5c-0.3,0.8-0.4,1.7-0.2,2.7c0.3,0.8,0.8,1.2,1.5,1.2
		c0.2,0,0.6-0.1,1-0.2c3.5-1.9,5.4-2.9,5.8-3c1.3-0.6,2.4-1,3.3-1.3s2.6-0.7,4.9-1.1c1-0.2,3.3-0.5,7-0.9l0.7-0.1
		c1.2-0.2,2-0.5,2.3-0.8l0.5-0.3c0.3-0.2,0.5-0.4,0.6-0.6c0.2-0.4,0.1-0.8-0.5-1.1C314.6,106.6,312.4,106.2,309.4,106.2z"/>
	<path class="st12" d="M273.8,94.9h-1.1c-0.7,0-1.3,0.1-1.9,0.1c-0.6,0.1-1.1,0.1-1.6,0.2l-0.7,0.2c-0.8,0.2-1.4,0.6-1.7,1
		c0,0.2,0.1,0.4,0.5,0.6c1.2,0.6,2.2,1.1,2.9,1.2c2.1,0.7,4.5,1.4,6.9,2c0.5,0.1,2,0.5,4.7,1c5.2,1,9.3,1.4,12.2,1.4
		c1.2,0,2.4-0.1,3.4-0.2c1.3-0.2,2-0.3,2.2-0.4c0.4-0.1,0.9-0.3,1.3-0.4c1.7-1,1.4-2-0.9-2.9l-1-0.3c-0.3-0.1-1.4-0.3-3.3-0.7
		c-2.3-0.5-4.9-0.9-7.7-1.2c-2.3-0.5-4-0.9-5-1C280.2,95.2,277.1,94.9,273.8,94.9z"/>
	<path class="st12" d="M240.5,100.6c2.4-0.1,7.4,0.4,15.2,1.7c5.3,0.9,9.7,2,13.1,3.3c5.9,2,9.1,5,9.7,8.9c0.1,1.4-0.4,1.8-1.5,1.3
		c-6-5.3-11.3-8.7-15.9-10.2c-1.4-0.5-3.4-1-5.9-1.5l-17.1-2.5C235.9,101,236.7,100.7,240.5,100.6L240.5,100.6z"/>
	<path class="st12" d="M220.2,108.9c1.4-0.3,5.3,0.3,11.6,1.7c9.7,2.8,16.1,5,19.1,6.5c4.2,2,7.2,4,9.1,6c1.9,2.5,2.2,4.2,0.9,5
		c-0.4,0-0.9-0.2-1.6-0.7c-4.7-3.7-8.1-6.1-10.2-7.1c-2.9-1.6-6.3-3.2-10.2-4.9c-2.8-1.2-6.7-2.5-11.6-4.1l-2.9-0.7
		c-1.6-0.2-5.1-0.8-10.6-1.8L220.2,108.9z"/>
	<path class="st13" d="M198.6,155.1c2.8-3.2,4.4-6.9,4.8-10.8c0.2-2.2,0.3-4.5,0.2-6.9c-1.5-9.7-2.1-15.5-1.7-17.5
		c0.3-3,1.4-4.8,3.1-5.3c3-1.5,6.7-2.2,11.1-1.9c1.3-0.2,7.2,1,17.8,3.9c2.8,0.4,6.5,2,11.1,4.8c3.9,2.6,5.5,4.4,4.8,5.2
		c-0.1,0.4-1.1,0.8-3.1,1.1c-9.6,0.4-14.4,0.9-14.4,1.6c-1.2,0.5-2.4,1.2-3.6,2.2c-4.5,4.9-7.1,7.4-7.9,7.5
		c-0.7,0.4-1.5,0.8-2.5,1.1c-3.7,0.6-5.6,1-5.6,1.3c-0.4-0.1-1.9,1.7-4.5,5.2l-4.9,4.2c-1.8,3.2-4.5,6.8-8.1,11L198.6,155.1z"/>
	<path class="st13" d="M258.7,98.6c2.3-0.1,6,0.7,11,2.3c3.2,1.2,6,2.6,8.3,4.3c5.2,4,7,8.1,5.3,12.2l-1.6-4.2
		c-0.4-1-0.8-1.8-1.2-2.4c-1.2-1.7-2.7-3.2-4.4-4.5c-0.8-0.5-1.6-1-2.5-1.4c-3.7-1.8-6.7-3.1-9-3.9c-3-1-6-1.7-9.1-2L258.7,98.6z"/>
	<path class="st13" d="M244.6,109.2c1.8-0.1,5.5,0.8,11.3,2.8c4.7,1.6,8.2,3.2,10.5,4.8c2.2,1.5,3.5,3,3.8,4.5
		c0.2,0.8,0.1,1.6-0.2,2.4c-0.8,2-1.3,2.9-1.5,2.6c-1.8-2.5-3.2-4.1-4-4.9c-2.9-2.9-5.1-4.8-6.6-5.6c-1.2-0.7-2.6-1.4-4.4-2.1
		c-6.8-2.6-11.4-4.2-13.9-4.9c-0.8-0.3-1.5-0.7-2.3-1.2L244.6,109.2z"/>
	<path class="st14" d="M235.7,147.4c-0.1,0-0.3,0.1-0.4,0.2c-0.1,0.1-0.2,0.2-0.2,0.4c-0.1,0.3,0,0.6,0.3,0.8
		c0.2,0.2,0.4,0.2,0.6,0.1c0.4-0.1,0.6-0.3,0.7-0.5c0.1-0.2,0-0.4-0.3-0.5c-0.2-0.1-0.5-0.1-0.8,0L235.7,147.4z"/>
	<path class="st14" d="M241.4,140.5c-0.2,0.1-0.4,0.3-0.4,0.5c-0.1,0.2,0,0.4,0.1,0.6c0.5,0.5,1,0.6,1.3,0.6
		c0.2-0.1,0.3-0.2,0.3-0.3s-0.1-0.2-0.3-0.3c-0.1,0-0.2-0.1-0.3-0.2L241.4,140.5z"/>
	<path class="st14" d="M230.5,151.6L230.5,151.6c-0.1,0.2-0.2,0.3-0.3,0.3c-0.2,0-0.3,0-0.5,0c-0.2-0.1-0.3-0.2-0.4-0.3
		c-0.1-0.1-0.1-0.3,0-0.4c0.1-0.1,0.2-0.2,0.3-0.3s0.3,0,0.5,0c0.2,0.1,0.3,0.2,0.4,0.3c0,0,0,0.1,0.1,0.1v0.1
		C230.6,151.5,230.6,151.5,230.5,151.6z"/>
	<path class="st14" d="M247.7,135.5L247.7,135.5c-0.1,0.2-0.2,0.3-0.3,0.3c-0.1,0.1-0.3,0.1-0.4,0c-0.1-0.1-0.2-0.2-0.3-0.3v-0.1
		v-0.1v-0.1c0-0.1,0.1-0.2,0.2-0.3c0.1-0.1,0.3-0.1,0.4,0c0.1,0.1,0.3,0.1,0.3,0.2C247.7,135.2,247.7,135.3,247.7,135.5z"/>
	<path class="st14" d="M232.6,135.1L232.6,135.1C232.6,135.1,232.5,135.1,232.6,135.1c-0.1,0.1-0.2,0.1-0.2,0.1s-0.1,0-0.1-0.1l0,0
		l0,0l0,0c0,0,0-0.1,0.1-0.1h0.1C232.5,134.9,232.5,134.9,232.6,135.1C232.6,135,232.6,135,232.6,135.1z"/>
	<path class="st14" d="M238.4,131.7v0.1c-0.1,0.2-0.2,0.4-0.5,0.5c-0.2,0.1-0.4,0.1-0.7,0c-0.2-0.1-0.4-0.2-0.5-0.5
		c-0.1-0.2-0.1-0.4,0-0.7c0.1-0.2,0.2-0.4,0.5-0.5s0.4-0.1,0.7,0c0.2,0.1,0.4,0.2,0.5,0.5c0,0.1,0.1,0.1,0.1,0.2v0.1
		C238.4,131.6,238.4,131.7,238.4,131.7z"/>
	<path class="st14" d="M231.4,145.2v0.1c-0.1,0.2-0.2,0.4-0.4,0.5s-0.4,0.1-0.7,0c-0.2-0.1-0.4-0.2-0.5-0.4c0-0.1-0.1-0.1-0.1-0.2
		v-0.1c0-0.1,0-0.2,0-0.2c0.1-0.2,0.2-0.4,0.4-0.5s0.4-0.1,0.6-0.1c0.2,0.1,0.4,0.2,0.5,0.4C231.4,144.8,231.4,145,231.4,145.2z"/>
	<path class="st14" d="M240.5,158.2L240.5,158.2c-0.1,0.2-0.2,0.3-0.3,0.4s-0.3,0.1-0.4,0c-0.1-0.1-0.2-0.2-0.3-0.3v-0.1v-0.1
		c0-0.1,0-0.1,0-0.2c0-0.2,0.1-0.3,0.3-0.3s0.3-0.1,0.4-0.1c0.2,0,0.3,0.1,0.3,0.3C240.5,157.9,240.5,158.1,240.5,158.2z"/>
	<path class="st14" d="M233.7,164.8L233.7,164.8c-0.1,0.2-0.2,0.3-0.3,0.4s-0.3,0.1-0.4,0c-0.1-0.1-0.2-0.2-0.3-0.3v-0.1v-0.1v-0.1
		c0-0.2,0.1-0.3,0.2-0.3c0.1-0.1,0.2-0.1,0.4-0.1c0.1,0,0.2,0.1,0.3,0.2C233.7,164.6,233.7,164.7,233.7,164.8z"/>
	<path class="st14" d="M246.2,147.1L246.2,147.1c-0.1,0.2-0.2,0.3-0.3,0.4c-0.1,0.1-0.3,0.1-0.4,0c-0.1-0.1-0.2-0.2-0.3-0.3v-0.1
		V147c0-0.1,0-0.1,0-0.2c0-0.2,0.1-0.3,0.2-0.3c0.1-0.1,0.3-0.1,0.4-0.1c0.2,0,0.3,0.1,0.3,0.2C246.2,146.8,246.3,146.9,246.2,147.1
		z"/>
	<path class="st14" d="M217,160.3L217,160.3c-0.1,0.2-0.3,0.4-0.4,0.4c-0.2,0.1-0.3,0-0.5,0c-0.1-0.1-0.2-0.2-0.3-0.4
		c0-0.2,0-0.3,0.1-0.5s0.2-0.3,0.4-0.3c0.2-0.1,0.3,0,0.5,0c0.1,0.1,0.2,0.2,0.3,0.4c0,0.1,0,0.1,0,0.2v0.1
		C217,160.2,217,160.3,217,160.3z"/>
	<path class="st14" d="M226.8,158.4L226.8,158.4c-0.2,0.3-0.3,0.4-0.5,0.5s-0.4,0-0.6-0.1s-0.3-0.3-0.4-0.5c0-0.1,0-0.1,0-0.2V158
		c0-0.1,0-0.1,0.1-0.2c0.1-0.2,0.2-0.4,0.4-0.5s0.4-0.1,0.6,0s0.4,0.2,0.5,0.4C226.9,158,226.9,158.2,226.8,158.4z"/>
	<path class="st14" d="M215.4,145.5L215.4,145.5c0,0.1-0.1,0.1-0.2,0.2c-0.1,0-0.1,0-0.2,0c-0.1,0-0.1-0.1-0.1-0.2c0,0,0,0,0-0.1
		l0,0c0,0,0,0,0-0.1s0.1-0.1,0.1-0.1c0.1,0,0.1,0,0.2,0c0.1,0,0.1,0.1,0.1,0.1C215.4,145.4,215.4,145.4,215.4,145.5z"/>
	<path class="st14" d="M222,144.3L222,144.3c-0.2,0.3-0.3,0.4-0.5,0.5s-0.4,0-0.6-0.1s-0.3-0.3-0.4-0.5c-0.1-0.2,0-0.4,0.1-0.6
		c0.1-0.2,0.3-0.3,0.5-0.4c0.2-0.1,0.4,0,0.6,0.1s0.3,0.3,0.4,0.5c0,0.1,0,0.1,0,0.2v0.1C222.1,144.1,222.1,144.2,222,144.3z"/>
	<path class="st14" d="M201.5,165.9l-0.1,0.1c-0.1,0.2-0.3,0.4-0.6,0.4c-0.2,0.1-0.5,0-0.7-0.1s-0.4-0.3-0.4-0.6
		c-0.1-0.2,0-0.5,0.1-0.7s0.3-0.4,0.6-0.4s0.5,0,0.7,0.1s0.4,0.3,0.4,0.6c0,0.1,0,0.2,0,0.2v0.1
		C201.6,165.7,201.5,165.8,201.5,165.9z"/>
	<path class="st14" d="M218.7,178.3l-0.1,0.1c-0.2,0.3-0.4,0.4-0.7,0.5s-0.6,0-0.9-0.1c-0.3-0.2-0.4-0.4-0.5-0.7c0-0.1,0-0.2,0-0.3
		v-0.2c0-0.1,0-0.2,0.1-0.3c0.1-0.3,0.3-0.5,0.6-0.6s0.6-0.1,0.9,0s0.5,0.3,0.6,0.6C218.8,177.7,218.8,178,218.7,178.3z"/>
	<path class="st14" d="M237.7,179.2l-0.1,0.1c-0.1,0.2-0.3,0.4-0.5,0.4s-0.4,0.1-0.5,0c-0.2-0.1-0.2-0.3-0.3-0.5c0-0.1,0-0.1,0-0.2
		v-0.1c0-0.1,0-0.2,0.1-0.2c0.1-0.2,0.2-0.4,0.4-0.5s0.4-0.1,0.5,0c0.2,0.1,0.3,0.2,0.3,0.4C237.9,178.7,237.8,179,237.7,179.2z"/>
	<path class="st14" d="M217.7,171.7L217.7,171.7c-0.2,0.3-0.3,0.4-0.5,0.4s-0.4,0-0.6-0.1s-0.3-0.3-0.4-0.5c0-0.1,0-0.1,0-0.2v-0.1
		c0-0.1,0-0.1,0.1-0.2c0.1-0.2,0.2-0.3,0.4-0.4c0.2-0.1,0.4-0.1,0.6,0s0.4,0.2,0.4,0.4C217.8,171.3,217.8,171.5,217.7,171.7z"/>
	<path class="st7" d="M214.9,123.6L214.9,123.6c-0.1,0.3-0.3,0.5-0.5,0.6s-0.4,0.1-0.7,0c-0.2-0.1-0.4-0.3-0.4-0.5
		c0-0.1,0-0.2,0-0.2v-0.1c0-0.1,0-0.2,0-0.2c0.1-0.2,0.2-0.4,0.4-0.6c0.2-0.1,0.4-0.2,0.7-0.1c0.2,0.1,0.4,0.2,0.5,0.4
		C215,123.1,215,123.4,214.9,123.6z"/>
	<path class="st7" d="M229.4,122.5L229.4,122.5c-0.1,0.3-0.3,0.5-0.5,0.6s-0.5,0.1-0.7,0s-0.4-0.3-0.5-0.5c0-0.1,0-0.1-0.1-0.2v-0.1
		c0-0.1,0-0.2,0-0.2c0.1-0.2,0.2-0.4,0.4-0.5s0.4-0.1,0.7-0.1c0.2,0.1,0.4,0.2,0.5,0.4C229.4,122,229.5,122.3,229.4,122.5z"/>
	<path class="st7" d="M220.8,133L220.8,133c-0.1,0.3-0.3,0.4-0.5,0.5s-0.4,0.1-0.6,0s-0.3-0.2-0.4-0.4c-0.1-0.2-0.1-0.4,0-0.6
		c0.1-0.2,0.2-0.3,0.4-0.4c0.2-0.1,0.4-0.1,0.6,0s0.3,0.2,0.4,0.4c0,0.1,0,0.1,0,0.2v0.1C220.8,132.8,220.8,132.9,220.8,133z"/>
	<path class="st7" d="M208,142.2v0.1c-0.1,0.2-0.3,0.4-0.5,0.5s-0.5,0.1-0.7,0s-0.4-0.3-0.5-0.5s-0.1-0.5,0-0.7s0.3-0.4,0.5-0.5
		s0.5-0.1,0.7,0s0.4,0.3,0.5,0.5c0,0.1,0,0.2,0.1,0.2v0.1C208.1,142,208,142.1,208,142.2z"/>
	<path class="st7" d="M213.5,142v0.1c-0.1,0.2-0.2,0.4-0.4,0.5s-0.4,0.1-0.5,0c-0.2-0.1-0.3-0.2-0.3-0.5s0-0.4,0.1-0.7
		c0.1-0.2,0.2-0.4,0.4-0.5s0.4-0.1,0.5,0c0.2,0.1,0.3,0.2,0.3,0.5c0,0.1,0,0.1,0,0.2v0.1C213.5,141.8,213.5,141.9,213.5,142z"/>
	<path class="st7" d="M243.9,126L243.9,126c-0.1,0.3-0.3,0.4-0.5,0.4c-0.2,0.1-0.4,0-0.6,0c-0.2-0.1-0.4-0.2-0.4-0.4
		c0-0.1,0-0.1-0.1-0.2v-0.1c0-0.1,0-0.1,0-0.2c0.1-0.2,0.2-0.3,0.4-0.4s0.4-0.1,0.6,0s0.4,0.2,0.5,0.4
		C244,125.7,244,125.8,243.9,126z"/>
	<path class="st15" d="M291.8,167.4c6.4-3.9,13.1-7.4,20.2-10.6c1-0.5,1.3-0.5,0.9,0.1c-0.5,0.6-1.5,1.4-3.1,2.5
		c-2.8,1.9-5.6,3.7-8.5,5.5c-7,4.3-12.6,7.4-16.8,9.5l-3.1,2.2c-0.7-0.1,1.3-2.1,6-6.1L291.8,167.4z"/>
	<path class="st13" d="M280.5,157.8c0-0.1,0-0.5,0-1.3V150c0-2.3,0-4,0-4.9c0-0.5,0-1.7-0.1-3.9c0-1.8,0-3.3-0.1-4.4V134
		c0-1.6-0.1-2.5-0.1-2.6c-0.1-0.8-0.2-1.1-0.4-0.7c-0.2,0.5-0.4,1.4-0.4,2.8c-0.1,0.7-0.1,2.5-0.2,5.4c0,0.7,0,3.3,0,7.9
		c0,0.7,0,1.3,0,1.7l0.3,5.4c0.1,1.9,0.1,3.6,0.2,4.9l0.2,3.3c0.2,1.9,0.3,3.6,0.3,5.1l0.2,2c0,0,0,0.5,0.1,1.5
		c0.1,1.1,0.2,1.7,0.2,2c0,0.2,0,0.3,0,0.4c0,0.7-0.1,1.2,0,1.6c0,0.3,0,0.6,0,0.7L280.5,157.8z"/>
	<path class="st13" d="M267.2,136.1L267.2,136.1c-0.2,0.5-0.2,1.4-0.3,2.6v0.7l-0.3,7.8c0,0.6-0.1,2.2-0.2,4.6
		c-0.1,3.5-0.2,5.4-0.2,5.5l-0.3,4.7c0,0.6-0.1,1.3-0.1,2.3c0,0.6,0,1.5,0,2.6c0.1,1.9,0.1,3.1,0.2,3.6c0.3,2.9,0.5,4.9,0.6,6
		c0,0.2,0,0.4,0,0.7c-0.1,1.3-0.2,2-0.2,2.3c0,0.1,0,0.2,0.1,0.1c0.1-0.1,0.2-1,0.3-2.6c0-0.1,0-0.4,0-0.9c0-0.3,0-0.9,0-1.8
		c0-0.4,0-0.7,0-1l0.1-1.5c0.1-0.5,0.2-1.9,0.3-4.2V165c0-0.1,0-1,0.1-2.7c0-0.5,0-0.9,0-1.4c0-0.7,0-1.2,0-1.3s0-0.3,0-0.5
		c0-0.6-0.1-1.1-0.1-1.4l0.1-1.7c0-0.8,0-1.5,0-1.9v-1.6c0-0.4,0-0.4-0.1-0.2c0-1.2,0.1-2.7,0.2-4.5c0-0.4,0-0.9,0.1-1.4l0.1-2.1
		c0,0,0-0.6,0-1.8c0-1.9,0-3.9-0.1-6C267.4,136.3,267.3,136.1,267.2,136.1z"/>
	<path class="st13" d="M245.7,173.2l1-6.2c0.5-2.2,1.5-7.4,2.8-15.5l1.6-6.7c0.1-0.3,0.2-1.8,0.4-4.5c0.1-1.1,0.3-1.8,0.4-2.3
		c1.3-3.7,2.9-5.6,4.9-5.7c-2.2,2.7-3.5,4.8-3.9,6.2c-0.2,0.9-0.3,1.7-0.4,2.2c0,1.2-0.1,2.8-0.3,4.9c-1.9,7.2-2.8,11.1-2.8,11.5
		l-2.3,12c-0.2,1-0.7,4.6-1.3,10.8c0,0.5-0.2,0.9-0.5,1.2L245.7,173.2z"/>
	<path class="st16" d="M263.1,95.5c4-0.5,9.2-0.6,15.7-0.3c4.2,0.4,7.8,1,10.7,1.8c3.1,0.9,4.1,1.6,3,2.2c0.2,0.2-2,0.6-6.5,1.4
		c-1.8,0.3-3.3,0.4-4.6,0.4c-2.4-0.1-4.1-0.3-5-0.6c-0.8-0.2-3.3-0.8-7.6-1.9c-6.2-1.3-9.4-2.1-9.7-2.3l-5-0.9
		c-0.2-0.1,0.1-0.1,0.8,0L263.1,95.5z"/>
	<path class="st16" d="M260.9,95c0.1,0,0.3,0,0.5,0c0.9-0.1,1.4-0.1,1.6-0.1h0.7c0.9,0,1.4,0,1.4,0c0.2,0,0.6,0,1.4-0.1
		c0.8,0,1.5-0.1,2-0.1c0.3,0,0.7,0,1.1,0c1.5,0,2.6,0,3.4,0l3.6,0.1c2,0.1,3.2,0.2,3.5,0.3c1.8,0.3,3.1,0.6,3.8,0.8L260.9,95z"/>
	<path class="st16" d="M276.3,97.2c-1.3-0.2-4-0.5-7.8-0.8c-4.6-0.6-7.6-1-9.2-1.1c-0.6-0.1-0.6-0.3-0.1-0.5
		c0.4-0.2,0.9-0.2,1.7-0.3l4.3-0.3c0.7,0,1.2-0.1,1.7-0.1c2.5,0,4.8,0,7,0c0.7,0,1.3,0,1.8,0c2.8,0.1,5.2,0.3,7,0.5
		c4.7,0.6,8.2,1.3,10.5,2.2c-0.9-0.3-3.3-0.7-7.2-1.2c-3.1-0.3-5.6-0.4-7.5-0.5c-1.8-0.1-4.4,0-7.7,0.2c-1.7,0.2-3,0.4-3.9,0.6
		L276.3,97.2z"/>
	<path class="st16" d="M301,107c-1.9,0.2-4.4,1-7.5,2.3c-2.7,1.3-4.1,2.1-4.2,2.5c-0.6,0.5-1.2,2.2-1.9,5.1
		c-0.6,2.4-0.9,4.6-0.9,6.4c0.7-2.1,1.4-3.5,1.8-4.1c0.8-1,1.6-1.7,2.3-2.1c3.7-1.7,6.9-3,9.5-4l10.4-3.3c0.1-0.1,0-0.2-0.2-0.2
		c-0.4,0-1,0.1-1.8,0.3c-8.1,1.8-12.2,2.7-12.2,2.7c-0.9,0.2-1.5,0.2-1.6,0c-0.1-0.5,1.4-1.7,4.6-3.5c1.5-0.9,4.4-2,8.7-3.2L301,107
		z"/>
	<path class="st17" d="M284.7,134.4c-0.5-3.9-0.5-7.7,0-11.7c0.2-3.6,0.9-5.9,2-7c0.4-0.4,1.3-0.7,2.8-0.9c3.3-0.3,8.6-1.2,16-2.6
		c3.7-0.6,6.8-0.9,9.2-0.8c-11,2.3-17.7,4.6-20.2,7.1c-4.6,3.6-7.7,8.4-9.2,14.5L284.7,134.4z"/>
	<path class="st17" d="M305.7,112.8c1.9-0.3,4.6-0.8,7.9-1.5c1.5-0.3,2.4-0.4,2.5-0.4c2-0.3,3.5-0.3,4.5-0.2
		c1.2,0.2,1.7,0.8,1.5,1.8c-0.3,1.8-0.9,2.9-1.8,3.3c-0.5,0.2-1.2,0.2-2.2,0c-0.3,0-0.7-0.1-1.1-0.2c-2.8-0.7-4.1-1-4.1-0.9
		c-1.4-0.2-2.5-0.4-3.2-0.4c-3.2-0.1-6.8,0.3-10.9,1.2c-0.4,0-0.5,0-0.5-0.1s0.2-0.1,0.7-0.2L305.7,112.8z"/>
	<path class="st17" d="M285.8,120.9c-0.1-0.5-0.1-1.2,0-2c0.1-0.5,0.1-1,0.2-1.3c0.4-2,0.6-3.1,0.6-3.4c0.1-0.6,0.1-1.2,0.1-1.9
		c0-0.6-0.2-1.2-0.4-1.8c-0.2-0.6-0.7-1.4-1.5-2.6c0-0.1,0-0.2,0.1-0.3c0.3-0.2,0.9,0.1,1.7,0.9c0.6,0.7,1,1.6,1.4,2.9
		c0.2,0.8,0.4,1.7,0.4,2.7c0,0.9-0.1,2.5-0.3,4.7L285.8,120.9z"/>
	<path class="st17" d="M274.9,117.3L274.9,117.3C274.8,117.3,274.8,117.3,274.9,117.3c-0.2,0.9-0.3,1.6-0.5,2.2
		c-0.1,0.6-0.3,1.1-0.4,1.5c-0.3,1-0.8,1.9-1.6,2.8l1.3-1.2l-0.5,0.7l-0.1,0.1c-0.1,0.1,0,0.1,0.1,0.1c0.7-0.2,1.4-0.5,2-0.7
		c0.3-0.1,0.6-0.2,0.8-0.4c0.6-0.3,0.9-0.5,1-0.6c0.5-0.3,0.9-0.7,1.3-1.1c0.4-0.5,0.6-0.7,0.6-0.8c0.1-0.2,0.2-0.4,0.2-0.6
		c0.1-0.4,0.2-0.7,0.2-0.8c0-0.1,0-0.2-0.1-0.3c-0.1,0-0.2,0-0.4,0.1c-0.2,0.1-0.6,0.4-1.1,0.8c-0.1,0.1-0.2,0.1-0.3,0.1
		s-0.2-0.1-0.3-0.2s-0.1-0.4-0.2-0.8c-0.1-0.1-0.1-0.2-0.2-0.1c-0.1,0-0.2,0.1-0.3,0.3c-0.4,0.7-0.7,1.1-0.8,1.3
		c-0.3,0.3-0.4,0.4-0.5,0.4c0,0-0.1-0.1-0.1-0.2c0.1-0.9,0.1-1.6,0.1-1.9C275,117.6,274.9,117.3,274.9,117.3z"/>
	<path class="st17" d="M262.5,128.1L262.5,128.1c-0.1,0-0.2,0-0.3,0.1c-0.2,0.2-0.5,0.3-0.9,0.5c-0.2,0.1-0.4,0.1-0.6,0.2
		c-0.3,0-0.8-0.1-1.5-0.3c-0.1,0-0.2,0-0.2,0l-0.1,0.1c-0.1,0.1-0.1,0.2-0.2,0.5c-0.1,1-0.1,1.8-0.2,2.3c-0.3,0.5-0.7,1.2-1.2,2.1
		c-1.2,1.6-1.9,2.4-2,2.6c-0.2,0.3-0.2,0.5-0.2,0.6s0.1,0.1,0.2,0.2c0.7-0.3,1.3-0.7,1.9-1.3c0.4-0.5,1-1.2,1.8-2.2c0,0,0,0,0,0.1
		l-0.5,1l-0.9,1.7c-0.1,0.2-0.1,0.3,0.1,0.3c0.1,0,0.1,0,0.2-0.1l1.1-0.8c0.1,0,0.4-0.3,0.9-0.7c0.4-0.3,0.7-0.7,1.1-1.1l0.5-0.5
		c0.3-0.4,0.5-0.7,0.8-1.1l0.3-0.6c0.2-0.3,0.3-0.8,0.6-1.5c0.1-0.1,0.1-0.4,0.1-0.9c0-0.2,0-0.3-0.1-0.5c0-0.1-0.1-0.2-0.2-0.3
		C262.7,128.2,262.6,128.1,262.5,128.1z"/>
	<path class="st17" d="M269.9,165.8c-0.1,5.2-0.2,8-0.3,8.5c-0.2,2.1-0.3,3.4-0.3,3.9l-0.4,2.6c0,0.4,0.1,0.7,0.3,0.8
		c2.1-0.3,3.2-1,3.4-2.2c0.2-0.8,0.3-1.6,0.4-2.5l0.3-9.9c0-0.7,0-1.6,0-2.4c0-0.1-0.1,0-0.1,0.2c-0.1,0.3-0.1,0.7-0.2,1.4
		c-0.1,0.6-0.2,1.7-0.3,3.3c0,0.3-0.1,0.8-0.2,1.5l-0.5,2.6c-0.1,0.2-0.2,0.3-0.2,0.1l-0.5-4.8c0-0.4-0.1-0.9-0.1-1.3
		c0-0.9-0.1-1.5-0.1-2c0-2.1,0-3.3,0-3.8c0-0.3,0-0.8-0.1-1.5c-0.1-0.5-0.1-0.8-0.2-1c-0.3-0.6-0.5-1.3-0.7-2.3L269.9,165.8z"/>
	<path class="st17" d="M272.4,174.6c0.2-0.8,0.2-1.4,0.3-2c0.1-1.8,0.2-3.5,0.2-5l-0.1-5.9l-0.1-2.1c0-1.2-0.1-2.3-0.1-3.1l-0.3-5.5
		c0-0.4,0-1.1,0-2c0-2.1,0-3.1,0.1-3.1c0.1-0.6,0.2,0,0.3,1.7c0,0.3,0.1,1.2,0.2,2.7c0.1,1.6,0.2,3.7,0.4,6.1l0.3,5.5
		c0,0.9,0,2.1,0,3.8c0,0.2,0,1.4-0.1,3.5c-0.1,1.6-0.1,2.7-0.2,3.6c-0.1,1.7-0.3,3.2-0.4,4.4c0,0.1-0.2,0.9-0.5,2.5L272.4,174.6
		L272.4,174.6z"/>
	<path class="st17" d="M272,163.1c0-0.2,0-0.7,0-1.5c0-0.7-0.1-1.7-0.2-3.1c0-0.3,0-0.7,0-1.1c0-0.8,0-1.8,0-3.2c0-0.7,0-1.3,0-1.8
		c0-1.4,0.1-2.9,0.2-4.3l0.1-4.9c0-0.7,0.1-1.5,0.1-2.4c0,0,0,0.2,0.1,0.5l0.1,8.4c0,0.7,0.1,1.9,0.1,3.4c0,0.7,0.1,1.9,0.2,3.9
		l0.4,4.3c0,0.6,0.1,1.3,0.1,2c0,0.5,0,0.8,0,1L272,163.1z"/>
	<path class="st17" d="M271.4,131.9c0-0.1,0-0.3,0-0.5l0.3-3.2c0.3-1.5,0.6-2.4,0.8-2.7c0.2-0.4,0.6-0.7,1.1-1l3.8-1.7
		c0,0.1-0.1,0.2-0.2,0.3c-1.2,1.4-1.9,2.2-1.9,2.3c-0.3,0.4-0.5,0.9-0.6,1.4c-0.2,0.4-0.5,1.9-0.9,4.6c-0.5,3.1-0.8,5.1-0.8,5.8
		L271.4,131.9z"/>
	<path class="st9" d="M202.6,142.3c-6.6,16.7-10.1,27.3-10.5,31.9c-0.3,0.7-0.6,0.5-0.9-0.5c-0.1-1.8,0.9-6.6,2.9-14.3l7.3-25
		L202.6,142.3z"/>
	<path class="st9" d="M266.3,179.9l-1.2-0.1c-2.3,0-4.2,0-5.7-0.1c-4-0.2-6.1-0.3-6.3-0.3c0,0,0.1,0.1,0.2,0.1
		c3.7,0.5,7.5,1,11.6,1.7c0.6,0.1,1.2,0.1,1.9,0.2c0,0,0.6,0,1.7,0h0.5c0.2,0,0.3-0.3,0.3-1c0-0.2,0-0.7-0.2-1.7
		c0.1-1.1,0.2-1.7,0.1-1.7L266.3,179.9z"/>
	<path class="st9" d="M245.8,180.9l-0.5,5c0,0.2-0.3,0.3-0.8,0.3c-1-0.1-2-0.2-2.8-0.3c-11-1.8-17-2.9-17.9-3.1
		c-3.5-0.7-7.2-1.7-11.1-2.9c1.2,0.4,3.6,0.8,7.2,1.5l16,2.5c0.4,0.1,2.1,0.3,5,0.6c0.3,0,0.6,0.1,0.8,0.1c1.5,0.1,2.4,0,2.6-0.3
		c0.6-0.5,1-1.5,1.3-2.8L245.8,180.9z"/>
	<path class="st9" d="M312.5,158.1c-2.6,1.7-11,6.3-25.2,13.7c-0.7,0.4-1,0.7-0.9,0.9c0.8,0.1,3.9-1.2,9.5-4
		c4.5-2.3,8.2-4.4,11.2-6.2l6.6-3.5L312.5,158.1z"/>
	<path class="st18" d="M280.7,133.4v0.1v0.1v0.1v0.1v0.1v0.1v0.1v0.1v0.1l0,0l0,0v0.1c0,0,0,0.1,0,0.2v0.1V133.4L280.7,133.4z
		 M280.7,135.1L280.7,135.1v5.4v5.4l-0.1,1.7c0,0.9,0,1.7,0,2.6c-0.2,6.5-0.2,10.3-0.2,11.5c0,1.9,0.2,4.7,0.4,8.2
		c0.2,2.7,0.5,4.9,0.9,6.8c0.4,0.2,0.8,0.1,1.4-0.5c0.1-0.1,0.1-0.3,0.1-0.7v-2.2c0-0.5,0-1.6-0.1-3.4c-0.1-2.7-0.3-5.9-0.4-9.6
		v-1.4l-0.2-7.6c0-0.5-0.1-1.5-0.1-3.1c0-1.1-0.1-3.4-0.2-7c0-0.5,0-1-0.1-1.5c-0.1-1.1-0.2-1.9-0.2-2.4c-0.1-0.2-0.1-0.1-0.2,0.1
		c-0.1-0.1-0.2,1.5-0.4,4.9c0-0.1,0-0.2,0-0.3l-0.3-3.7c0-0.2,0-0.6,0-1.2c0-0.3,0-0.5,0-0.6L280.7,135.1z"/>
	<path class="st19" d="M283,130.1c-0.1,0.4-0.1,0.9-0.1,1.3l-0.2,13.9c0,2-0.1,3.9-0.2,5.7c0,3.2-0.1,5.3,0,6.3
		c0,0.7-0.1,1.9-0.2,3.7c0,0.2,0,0.3,0,0.3c0.1,0.1,0.1-0.1,0.2-0.5l0.6-4.8c0.3-3.2,0.6-6.7,1-10.5c0.1-0.6,0.5-3.5,1.3-8.8
		l0.3-2.4c0-0.1,0-0.3-0.2-0.4c-0.5-0.2-0.7-0.3-0.9-0.5c-0.1-0.1-0.2-0.5-0.4-1c-0.2-0.8-0.2-1.7-0.3-2.5l-0.2-4l-0.1-4.5
		c-0.2-0.4-0.4,0-0.7,1.2L283,130.1z"/>
	<path class="st18" d="M263.6,91.9L263.6,91.9L263.6,91.9c-0.1,0-0.2,0-0.3,0.1l0,0L263.6,91.9L263.6,91.9L263.6,91.9L263.6,91.9z
		 M240.8,95.9L240.8,95.9L240.8,95.9L240.8,95.9c-0.4,0.1-0.8,0.1-1.1,0.2c0.1,0,0.4-0.1,0.7-0.1L240.8,95.9L240.8,95.9L240.8,95.9
		L240.8,95.9L240.8,95.9z M239.6,96.1L239.6,96.1h-0.2c-0.6,0.1-1.2,0.2-1.8,0.3c0.1,0,0.3,0,0.6-0.1c0,0,0.3,0,0.8-0.1l0.3-0.1
		L239.6,96.1L239.6,96.1L239.6,96.1L239.6,96.1z M273.6,90.9L273.6,90.9L273.6,90.9c-3.4,0-6.1,0.1-8,0.2c-0.6,0-2.2,0.1-4.7,0.3
		c-1,0.1-1.9,0.2-2.7,0.3c-2.2,0.4-4.2,0.7-5.9,1.2c-4,1.1-6.8,1.9-8.5,2.3l-3,0.6c1.7-0.1,2.9-0.2,3.6-0.3c2.9-0.5,6.1-1.1,9.6-1.9
		c2.4-0.3,4.4-0.6,5.8-0.9l-3.5,0.8l-3.6,1.1c2.9-0.7,6.8-1.4,11.7-2.1c1.3-0.2,2.5-0.3,3.6-0.4c0.9-0.1,2.1-0.1,3.7-0.1
		c4,0.2,8.1,0.6,12.3,1.2c0,0,3.5,0.6,10.5,1.8l11.3,2.5c-1.4-0.9-5.4-2.2-12.1-4l-7.4-1.5c-0.6-0.1-1.4-0.2-2.5-0.2l-4.7-0.7
		C275.4,91.1,273.7,90.9,273.6,90.9z"/>
	<path class="st19" d="M224.1,104.2l-5.8,1.2c-1.1,0.2-2.5,0.7-4.4,1.3c-0.2,0.1-0.3,0.1-0.3,0c-0.1-0.1,0.2-0.5,0.8-1l4.2-3.5
		c0.9-0.7,2.2-1.4,3.8-2.1c0.9-0.5,3.1-1,6.7-1.5c1.8-0.2,4.5-0.1,8,0.1c2.1,0.2,3.9,0.4,5.4,0.6c-4.6,0-8.1,0.3-10.6,0.9
		c-4.1,1-7.6,2.2-10.5,3.7L224.1,104.2z"/>
	<path class="st19" d="M209.4,111.5c-0.4,0-0.8,0.1-1.4,0.2c-1.8,0.5-3,1-3.6,1.3c-0.8,0.3-2.9,1.4-6.3,3.4
		c-0.3-0.5,0.2-1.7,1.6-3.5c1.2-1.4,2.5-2.5,4-3.3c2.2-1.2,5.7-1.9,10.5-2c0.1,0,0.1,0.1,0,0.2c-0.9,0.4-1.7,0.7-2.2,1
		c-0.2,0.1-0.2,0.2-0.1,0.4c0.1,0.1,0.3,0.2,0.6,0.2l5.3,0.9c0.2,0.1,0.2,0.1,0.2,0.1c-1.1,0.3-3.6,0.5-7.7,0.6L209.4,111.5z"/>
	<path class="st20" d="M260.1,143.1c-0.1,0-0.2,0.1-0.3,0.2c-0.1,0.1-0.1,0.2-0.1,0.3c-0.1,0.3,0,0.5,0.3,0.5c0.1,0,0.3,0,0.4,0
		c0.2,0,0.3-0.1,0.4-0.2c0.2-0.2,0.1-0.4-0.1-0.6L260.1,143.1z"/>
	<path class="st20" d="M293,164c0-0.1-0.1-0.3-0.2-0.5L293,164z"/>
	<path class="st21" d="M255.6,155.3c3.2-4.1,5.1-6.8,5.9-8.2c2.3-4.2,4.1-8.4,5.4-12.5c0.1-0.2,0.2-0.2,0.3,0c0.1,0.3,0.1,1.1,0,2.3
		c-0.7,5.7-1.5,15.3-2.5,28.9c-0.2,1.2,0,5.2,0.6,12c0,0.4-0.3,0.7-0.8,1.1c-0.2,0.4-1.8,0.5-5,0.5l-6.6-0.2c-0.3,0-0.4-0.1-0.5-0.4
		c-0.1-0.1-0.1-0.3-0.1-0.6c0.3-2,0.5-3.2,0.5-3.4l0.1-3.7c0.2-1.7,0.4-3.3,0.5-4.7c0.2-1,0.7-4.2,1.3-9.4c0.1-0.5,0.2-0.8,0.3-1.1
		L255.6,155.3z"/>
	<path class="st21" d="M273.1,178.8c0.4-1,0.6-1.9,0.6-2.7c0.2-2.2,0.5-4.8,0.9-7.7c0.1-1,0.2-2,0.2-2.8c0-0.5,0-1.1,0-1.6
		c-0.1-2.7-0.2-4.3-0.3-5c0-0.2-0.2-2.1-0.8-5.7c-0.2-2.8-0.3-4.9-0.4-6.3c0-1.4,0-2.3,0.1-2.7c0.4-2.7,0.6-4.1,0.6-4.2
		c0.2-4.1,0.4-6.8,0.6-8.2c0.3-3.3,1.7-5.9,4.4-7.7c0.6-0.1,0.9,0.9,0.9,2.8c0,0.6,0,1.3-0.1,2.1c-0.2,1.2-0.3,3.8-0.6,7.7
		c0,0.8-0.1,3-0.2,6.6l-0.4,6.9c0,1.1,0,2.3,0,3.6s0.3,4.6,0.9,10.1l0.5,6.9c0.1,2.6,0.1,4.2,0.2,4.9c0.1,0.6-0.4,1-1.4,1.3
		L273.1,178.8z"/>
	<path class="st20" d="M260,150.2c-0.1,0.1-0.2,0.2-0.3,0.3c0,0,0,0.1,0,0.2v0.1c0.1,0.3,0.3,0.3,0.6,0.3c0.1,0,0.2-0.1,0.2-0.3
		c0-0.1,0.1-0.2,0-0.4c0-0.1-0.1-0.2-0.2-0.3S260.1,150,260,150.2L260,150.2z"/>
	<path class="st20" d="M263.2,145.8c-0.1,0-0.2,0.1-0.2,0.3s0,0.3,0,0.4c0.1,0.1,0.2,0.2,0.3,0.3s0.3,0,0.4,0
		c0.2-0.1,0.3-0.3,0.3-0.5c0-0.1-0.1-0.2-0.2-0.4c0-0.1-0.1-0.1-0.2-0.2L263.2,145.8z"/>
	<path class="st20" d="M256.4,154.1c-0.2,0.2-0.3,0.4-0.3,0.7c0.1,0.3,0.2,0.4,0.5,0.4c0.3-0.1,0.4-0.2,0.4-0.6
		c0-0.3-0.1-0.5-0.4-0.5L256.4,154.1z"/>
	<path class="st20" d="M261,161.2c-0.1,0.1-0.2,0.2-0.2,0.3c0,0.2,0,0.3,0,0.4c0.1,0.1,0.2,0.2,0.3,0.2s0.3,0,0.4-0.1
		c0.3-0.2,0.4-0.4,0.4-0.5c-0.1-0.3-0.2-0.4-0.6-0.4L261,161.2z"/>
	<path class="st20" d="M255,165.4c-0.1,0.2-0.1,0.3-0.1,0.5s0,0.3,0.1,0.4c0.1,0.2,0.2,0.3,0.5,0.4c0.2,0.1,0.4,0,0.5-0.1
		s0.1-0.2,0.1-0.3s0-0.2,0-0.3c0-0.3-0.1-0.5-0.2-0.5c-0.2-0.1-0.4-0.1-0.5,0L255,165.4z"/>
	<path class="st20" d="M261.7,170.9c-0.2,0-0.3,0-0.4,0.1c-0.1,0.2-0.2,0.3-0.2,0.5c0,0.1,0,0.2,0.2,0.4c0.1,0.1,0.2,0.1,0.3,0.2
		c0.3,0.1,0.5-0.1,0.6-0.3c0.1-0.3,0.1-0.6-0.1-0.7L261.7,170.9z"/>
	<path class="st20" d="M275.2,144.6c0.1,0.3,0.2,0.5,0.4,0.6c0.3,0.2,0.5,0.2,0.7,0.1c0.1-0.1,0.3-0.2,0.4-0.4c0-0.1,0-0.2,0-0.3
		c-0.1-0.1-0.2-0.2-0.4-0.2c-0.2,0-0.4,0-0.5,0L275.2,144.6z"/>
	<path class="st20" d="M275,152.1c0.1,0.3,0.2,0.5,0.5,0.6c0.2,0.1,0.3,0.1,0.5,0c0.1,0,0.3-0.1,0.4-0.1c0.3-0.2,0.4-0.4,0.3-0.7
		c-0.2-0.2-0.3-0.4-0.4-0.4c-0.2-0.1-0.3-0.1-0.5,0L275,152.1z"/>
	<path class="st20" d="M277.8,158.9c-0.1,0.1-0.2,0.2-0.2,0.4c0,0.1,0,0.2,0,0.3s0,0.1,0,0.2c0.1,0.1,0.2,0.2,0.3,0.3s0.3,0.1,0.4,0
		c0.2-0.1,0.4-0.3,0.4-0.6c0-0.2-0.1-0.4-0.2-0.6c0-0.1-0.1-0.2-0.2-0.2L277.8,158.9z"/>
	<path class="st20" d="M275.6,167.6L275.6,167.6c-0.1,0.2-0.1,0.3-0.1,0.3c0,0.1,0,0.1,0,0.2c0,0.1,0,0.2,0,0.3
		c0.1,0.2,0.3,0.2,0.6,0.2c0.3-0.1,0.5-0.2,0.6-0.5c0-0.1,0-0.2-0.1-0.3c0,0-0.1-0.1-0.3-0.3L275.6,167.6z"/>
	<path class="st18" d="M287.4,122.3c1.2-2,3.4-3.8,6.4-5.5c1.5-1,4.2-1.9,8.1-2.6c5.1-0.9,9-1.1,11.8-0.7c1.4,0.2,2.8,0.5,4.1,0.9
		c2.3,0.8,3.3,1.4,2.9,1.6c-0.2,0.3-0.5,0.6-1,0.6c-2.1-0.1-4.8,0-8.1,0.4l-6,1.2c-2.6,0.8-5.1,1.7-7.4,2.8
		c-0.8,0.3-4.7,3.2-11.4,8.7c-1.7,1.5-2.7,3.3-2.9,5.2L287.4,122.3z"/>
	<path class="st18" d="M283.6,141.6c0.3-0.7,0.9-3,1.7-6.9c0.2-0.8,0.6-1.6,1.1-2.5c0.2-1.2,2.9-3.7,7.9-7.6c3.3-2.3,7-4.2,10.9-5.5
		c4-1.2,8.6-2.1,13.6-2.5c0.8-0.1,1.2-0.4,1.3-0.9c-0.1-1.6-2.4-2.4-7.1-2.5c-5.2,0.2-9.7,1.1-13.5,2.9c-5.4,2.6-9,4.9-10.8,6.9
		c-2.9,2.7-4.2,5.2-3.7,7.7L283.6,141.6z"/>
	<path class="st22" d="M289,120.2c0.9-1.7,4.3-3.2,10-4.6c5-1,8.9-1.6,11.5-1.7c1.8-0.2,3.7-0.2,5.6-0.1c0.9,0,1.3,0.2,1.2,0.5
		c-0.1,0.2-0.5,0.4-1.3,0.6c-3.2,0.5-6.2,1.1-9,1.8c-1.7,0.4-3.3,0.9-4.6,1.5c-1.5,0.6-2.6,1.1-3.5,1.6c-1.3,0.6-3.5,1.9-6.4,3.8
		c-1.2,0.7-2.1,1.1-2.5,1.1c-1,0.2-1.7,0-2.1-0.6c-0.4-0.7-0.3-1.6,0.2-2.5L289,120.2z"/>
	<path class="st22" d="M304.6,115.6c0.6-0.2,2.3-0.6,5.2-1.1c1.3-0.2,2.3-0.3,2.8-0.4c0.3,0,0.5-0.1,0.7-0.1c1.3,0,2.1-0.1,2.5-0.1
		c0.6,0,1.2-0.1,1.6-0.2c0.9-0.2,1.5-0.4,1.8-0.6c0.1,0,0.7-0.4,1.7-1.1c0.3-0.2,0.5-0.3,0.6-0.3c0.4,0.1,0.5,0.5,0.4,1.2
		c-0.4,1.8-0.8,2.8-1.2,2.9c-0.3,0.1-0.6,0.1-0.9,0c-1.5-0.7-2.3-1.1-2.3-1c-0.3-0.1-0.9-0.1-1.7-0.2c-0.8,0-2.3,0.3-4.3,0.8
		L304.6,115.6z"/>
	<path class="st22" d="M308.6,115.9c0.1,0,0.1,0,0.2,0l1-0.1c1.3-0.2,2.1-0.3,2.4-0.3c0.1,0,0.3,0,0.4,0c0.3,0,0.7,0,1.1,0
		c0.8,0,1.5-0.1,2-0.1h1.2c0.9,0,1.6,0,1.8,0c0.9-0.1,1.3-0.2,1.4-0.3c0.2-0.2-0.1-0.4-0.8-0.7c-0.6-0.2-1.5-0.3-2.4-0.3
		c-0.7,0-1.7,0-3.1,0.2c-1.9,0.2-3.3,0.4-4,0.6L308.6,115.9z"/>
	<path class="st22" d="M271.4,132.3c0-0.1,0-0.3,0-0.7c0-1.1-0.1-1.9-0.1-2.4c0-0.6,0-1.1,0-1.4c0.1-1,0.3-1.7,0.5-2.1
		c0.4-0.8,2-1.5,4.7-2.2c0,0.1-0.5,0.5-1.7,1.2c-0.4,0.3-0.6,0.5-0.7,0.6c-0.4,0.4-0.8,0.9-1,1.4c-0.9,2-1.5,4.7-1.8,8.3
		L271.4,132.3z"/>
	<path class="st22" d="M280.7,156.5c0-0.1,0-0.1,0-0.2v-0.8c0-0.1,0-0.3,0-0.5v-3.3c0-1.6,0-2.5,0-2.5l-0.2-5.3c0,0,0-0.7,0-2
		c0-1,0-2,0-2.8c0-1.5,0-2.8,0-4.1l-0.1-3.7l-0.1-1.4c0-1.6-0.1-2.3,0-2.3c0.1-0.3,0.2,0,0.3,0.7c0.2,2.2,0.3,3.3,0.3,3.3
		c0.2,2.4,0.3,4.6,0.4,6.6c0,1.1,0.1,2.9,0.2,5.2c0.1,2.4,0.1,3.9,0.2,4.6c0,0.9,0,1.6,0,2.1c0,0.2,0,0.6,0.1,1.2c0,0.8,0,1.3,0,1.5
		c0,0.5,0,1-0.1,1.6c0,0,0-0.1-0.1-0.2c-0.1-0.6-0.1-1.2-0.2-1.9c-0.3-3.2-0.5-5.3-0.5-6.3c0,0.2,0.1,0.5,0.1,1c0,1,0,1.6,0,1.8
		c0,0.1,0,0.3,0,0.5L280.7,156.5z"/>
	<path class="st22" d="M296.2,122.7c4.6-2.8,11.4-5,20.4-6.3c-2.5,0.4-5.2,1-8.1,1.9c-2,0.6-3.8,1.2-5.6,1.9
		c-3.2,1.2-7.7,3.8-13.4,7.7L296.2,122.7z"/>
	<path class="st23" d="M283.6,174.5c0.6-0.1,1.5-0.4,2.7-1c3.2-1.8,8.3-4.6,15.3-8.3l14-7.2c0.6-0.3,0.8-0.3,0.7-0.2
		c-1.1,1.2-8.5,5.2-22.1,12l-11.8,7L283.6,174.5z"/>
	<path class="st23" d="M300.6,166.2c0.5-0.4,1.2-0.9,2.3-1.4l10.2-5.1l2.8-1.5c1.9-0.9,3.2-2,4.1-3.2c0.2,0.1,0.1,0.5-0.4,1.2
		c-0.4,0.4-1.1,0.9-2.1,1.5l-5.1,2.7c-3.1,1.3-5.6,2.5-7.7,3.7L300.6,166.2z"/>
	<path class="st23" d="M302.1,165.6c8.3-4.1,13.3-6.7,15.1-7.8c1.1-0.5,2-1.5,2.7-3c0.3,0,0.3,0.6-0.1,1.7c-0.1,0.2-0.5,0.6-1.4,1.2
		c-0.7,0.5-1.2,0.7-1.5,0.9l-6.2,2.8c-1.9,0.9-3.4,1.7-4.6,2.4c-1,0.4-2.1,0.9-3.2,1.4L302.1,165.6z"/>
	<path class="st24" d="M247.5,180.8l-0.5-5.6c0-0.2-0.1-0.3-0.2-0.3c-0.1,0.1-0.2,0.3-0.3,0.7l-1,3.9c-0.2,1-0.4,2.6-0.7,4.9
		l-0.2,1.2c0,0.1-0.1,0.2-0.1,0.2c-0.2,0.2-0.4,0.2-0.7,0.3c-1.5,0.1-2.7,0.2-3.7,0.4c-0.3,0.1-0.9,0-1.9,0c-0.7,0.1-1.2,0.1-1.4,0
		c0,0,0,0,0.1,0.1c6.2,0.9,9.8,1.2,11.1,0.7c1.2-0.5,2.1-1.2,2.7-2.1c0.3-0.4,0.5-1.5,0.5-3.1L247.5,180.8z"/>
	<path class="st24" d="M251.2,179.3c0,1.9-0.1,3.9-0.2,5.8c-0.1,0.4-0.2,0.7-0.6,1c-1,0.8-2.1,1.2-3.2,1.3c-1.3,0.1-2.8,0-4.4-0.4
		L251.2,179.3z"/>
	<path class="st24" d="M245.4,181.6c0.2,2.1-0.5,3.6-2,4.3c-0.8,0.3-1.8,0.4-3.2,0.3l-6.3-0.3c-0.4,0-0.9-0.1-1.5-0.3l3.3,0.9
		l3.3,0.6c0.4,0.1,1.8,0.3,4.4,0.6c0.8,0.1,1.7,0.1,2.9,0.1c1-0.1,2-0.4,2.9-1c0.7-0.5,1.1-1.1,1.1-1.8L245.4,181.6z"/>
	<path class="st22" d="M237.7,186.3c0.3,0.1,0.9,0.2,1.7,0.3c0.3,0,1,0.1,2.2,0.1c0.6,0,1.2-0.1,1.8-0.2c0.2,0,0.9-0.2,2-0.6
		c0.1,0,0.2-0.1,0.4-0.1c0.1,0,0.3,0,0.6,0l1.6,0.2c0.9,0.1,1.4,0.1,1.4,0.1c0.3,0,0.4,0,0.4,0c0.2,0.2-0.6,0.6-2.6,1.1
		c-0.2,0.1-0.7,0.1-1.7,0.2c-1,0.1-1.7,0.1-2.3,0c-0.7,0-1.7-0.1-2.9-0.4l-3.4-0.6l-0.9-0.3L237.7,186.3z"/>
	<path class="st25" d="M283.5,170.2c0-0.2,0-0.4,0-0.5c-0.2-2.7-0.3-4.5-0.3-5.3c0-0.9,0-2.3,0.2-4.1c0.8-11.1,1.5-16.5,1.9-16.3
		c0.4,0,0.7,1.6,1,4.9c0,0.9,0,2.2-0.1,3.8c0,0-0.1,1.5-0.4,4.4c-0.2,2.6-0.3,3.9-0.3,3.9c-0.1,1.6-0.1,3.1-0.1,4.5
		c0,0.8,0,1.6,0.2,2.6c0.1,0.4,0.3,1,0.7,1.8c0.1,0.2,0.1,0.3,0.1,0.4c0,0.2-0.1,0.6-0.5,1.2c-0.4,0.6-0.9,1.3-1.7,2.1
		c-0.3,0.5-0.5,0.8-0.6,1.2L283.5,170.2z"/>
	<path class="st26" d="M308.8,155.3L308.8,155.3c0,0-0.1,0.1-0.2,0.1l-0.1,0.1L308.8,155.3L308.8,155.3L308.8,155.3L308.8,155.3z
		 M317.2,140L317.2,140L317.2,140c-0.2,0-0.5,0.4-0.8,1.1c-1.5,3.7-2.7,6.6-3.6,8.5c-0.8,1.5-1.6,2.8-2.5,4c-0.5,0.7-1,1.2-1.4,1.6
		l-7,4.6c-0.4,0.4-0.3,0.6,0.2,0.5c0.5,0.2,4.2-1.2,11.1-4.1c1.8-0.8,3-1.6,3.6-2.5l0.2-0.3c0.2-0.5,0.3-0.9,0.4-1.3
		c0.1-0.3,0.2-0.8,0.2-1.3v-7.6V142c0-0.7-0.1-1.2-0.2-1.6C317.3,140.1,317.2,140,317.2,140z"/>
	<path class="st27" d="M279.2,95.1c-0.3-0.1-0.6-0.2-1-0.2c-1.7-0.1-3.6-0.2-5.7-0.4c-3.2-0.1-5.3-0.2-6.1-0.1
		c-4.1,0.1-8.5,0.6-13.4,1.4c1.6,0.1,4.3,0.4,7.9,1l4.9,1c4,1,6.8,1.8,8.3,2.3l3.6,0.9c0.5,0.1,1,0.1,1.4,0.1c0.1,0,1-0.2,2.4-0.5
		L279.2,95.1z"/>
	<path class="st27" d="M268.7,95.5c-1.2,0.2-2.6,0.4-4.4,0.5c-0.2,0-0.8,0-1.7,0l-1.7,0.1c-1.1,0-1.8,0-2,0l-6.8,0.1
		c-0.9,0-1.2-0.1-0.9-0.2c0.4-0.4,4-1.1,10.9-2c1.8-0.3,4.8-0.5,9.1-0.7c1.7,0,2.9,0,3.5,0c1.5,0.1,3,0.2,4.5,0.3
		c1.3,0.1,3.9,0.6,7.7,1.5c0.3,0.1,0,0.2-1,0.2c-1.1,0-2.3-0.1-3.6-0.1c-2,0-3.8,0-5.5-0.1L268.7,95.5z"/>
	<path class="st19" d="M281.6,142.7c0,0,0-0.1-0.1-0.5c-0.1-1-0.1-1.8-0.1-2.3c-0.3-2.4-0.5-3.6-0.5-3.6c0-1.1-0.1-2.2-0.2-3.3
		l-0.1-1.3c-0.1-0.9-0.2-1.9-0.3-3c-0.1-0.6-0.1-0.9,0-0.9c0.2,0.3,0.4,0.8,0.5,1.5l0.6,3.9c0-0.2,0.2,1.5,0.6,4.9l0.1,1.1
		c0.1,1.1,0.2,1.7,0.2,2c0,0.4,0,0.8,0,1.2L281.6,142.7z"/>
	<path class="st19" d="M269.4,131.6c-0.1-0.5-0.1-0.7-0.1-0.7v-2.5c0.1-0.7,0.1-1,0.2-1.1c0.3-0.4,0.9-0.9,1.9-1.5
		c0.4-0.3,1.1-0.6,2-1c0,0,0,0,0,0.1c-0.4,0.3-1.1,0.9-2.1,1.8c-0.2,0.2-0.3,0.4-0.5,0.8c-0.1,0.2-0.2,0.5-0.2,0.8l-0.5,3.5
		c0,0.2-0.1,0.4-0.1,0.6L269.4,131.6z"/>
	<path class="st19" d="M254.2,137.2c0.4-1.1,0.8-1.9,1.3-2.4c0.3-0.3,0.6-0.7,1-0.9c1.2-0.8,2-1.3,2.1-1.6c0.1,0,0.1,0,0.2,0
		c0.2,0.2,0.4,0.5,0.7,0.8l0.8,0.5c0.1,0.1,0.1,0.2-0.1,0.5c-0.1,0.1-0.5,0.6-1.5,1.5c-0.1,0.1-0.8,0.6-2,1.5
		c-0.9,0.8-1.3,1.2-1.3,1.2c-0.8,0.9-1.4,2.1-1.8,3.5c-0.2,0-0.2-0.7,0-2.2c0.3-1.2,0.6-2.2,1-3.1L254.2,137.2z"/>
	<path class="st27" d="M294.8,111.1c0.4-0.6,3.4-1.6,9.2-3c1.2-0.3,2.5-0.5,4-0.6c2.5-0.3,4.5-0.4,6.2-0.5c0.3,0,0.5-0.1,0.5-0.1
		c0.1-0.1,0-0.2-0.3-0.3c-0.8-0.2-1.4-0.4-2-0.5c-1.6-0.2-3-0.4-4.3-0.3c-2.3,0-5.1,0.3-8.3,1.1c-1,0.2-2.5,0.9-4.4,2
		c-2,1.1-3.6,2.2-4.6,3.4L294.8,111.1z"/>
	<path class="st27" d="M295.5,113.2c0.9,0,1.7-0.1,2.5-0.2c0.7-0.1,2.2-0.5,4.6-1l6.7-1.7c0.9-0.2,3.4-0.7,7.5-1.4
		c-2.5,0.6-4.1,0.9-4.8,1.1c-1.8,0.3-5,0.9-9.6,1.8l-8.6,1.5L295.5,113.2z"/>
	<path class="st27" d="M282.7,95.2c0,0,0.4,0,1.3,0.2c2.5,0.2,4,0.3,4.5,0.4c0.2,0,0.8,0.1,2.1,0.4c1.7,0.3,3,0.6,3.9,0.8
		c0.5,0.1,0.8,0.1,0.8,0.1c0.1-0.1-1-0.6-3.5-1.3c-2.8-0.7-4.8-1.1-5.7-1.2L282.7,95.2z"/>
	<path class="st27" d="M281.4,94.1c0,0-0.1,0-0.2,0s-0.1,0-0.1,0H281c-0.1,0-0.2,0-0.2,0h-0.4c-0.1,0-0.1,0-0.2,0
		c-0.3,0-0.6,0.1-0.7,0.1s-0.2,0-0.2,0c-0.2,0-0.4,0-0.6,0c-0.1,0-0.2,0-0.3,0L281.4,94.1z"/>
	<path class="st27" d="M286.5,95.2h-0.4c-0.4,0-0.9-0.1-1.3-0.1h-0.9l-1.8-0.2c-0.3,0-0.5-0.1-0.7-0.1c-1.2-0.2-2.2-0.4-3.1-0.5
		c-0.7,0-1.7-0.1-2.9-0.3c-0.1-0.1,0-0.1,0.2-0.1c0.3,0,0.8,0,1.4-0.1c0.7,0,1.1,0,1.2,0l3.1,0.1c0.4,0,1,0.1,1.6,0.2
		c1.3,0.2,2.4,0.4,3.3,0.6l4.9,1.2L286.5,95.2z"/>
	<path class="st27" d="M288.2,95.3l-0.7-0.1c-0.8-0.1-1.9-0.3-3.2-0.4c-2.1-0.3-3.5-0.5-4.2-0.7l-2.2-0.5c-0.1,0,0,0,0,0
		c2.4,0.1,4.3,0.2,5.8,0.5c1,0.1,1.8,0.3,2.5,0.5s1.5,0.4,2.5,0.6l2.8,0.8L288.2,95.3z"/>
	<path class="st27" d="M289.9,95.6l-0.6-0.2l-2.3-0.5c-0.7-0.1-1.4-0.3-2.2-0.5c-1-0.2-1.5-0.3-1.6-0.3c-0.2-0.1-0.2-0.1,0-0.1
		c0.3,0,0.6,0.1,0.8,0.1c1.1,0.2,1.7,0.3,1.8,0.4c0.1,0,0.6,0.1,1.4,0.3c0.1,0,0.2,0.1,0.4,0.1L289.9,95.6z"/>
	<path class="st28" d="M294,99.2c-0.6,0-1.1,0.1-1.5,0.2c-0.6,0.2-2,0.5-3.9,0.9c-0.8,0.1-1.6,0.2-2.3,0.3c-1.2,0.1-2,0.1-2.2,0.1
		l-5.2-0.2h-1c0,0-0.5,0-1.5-0.1c-0.4,0-0.7,0-0.9,0c-0.1,0-0.1,0,0,0l7.8,2l3,0.5l2.2,0.1c3.3,0.1,5.7,0.1,7.2-0.1
		c3.2-0.5,5-0.9,5.4-1.4L294,99.2z"/>
</g>
<g>
	<path class="st29" d="M27.9,30c-33.2,0-28.7,17.8-26,20.3v37.4c0,2.1,1.7,3.8,3.8,3.8h22.2H50c2.1,0,3.8-1.7,3.8-3.8V50.3
		C56.8,48,62.3,30,27.9,30z"/>
	<path class="st30" d="M27.9,31.8C-2.5,31.8,1.7,48,4.2,50.4L3.9,86.9c0,1.9,1.6,3.5,3.5,3.5h20.2h20.2c1.9,0,3.5-1.6,3.5-3.5
		l0.3-36.5C54.3,48.2,59.3,31.8,27.9,31.8z"/>
	<g>
		<path class="st31" d="M17.2,39.4c0.6,1.7-0.9,3.8-3.3,4.6s-4.8,0-5.4-1.7s0.9-3.8,3.3-4.6S16.6,37.7,17.2,39.4z"/>
		<path class="st31" d="M13.6,47.5c0.2,0.9-0.6,1.8-1.8,2.1s-2.3-0.3-2.5-1.2s0.6-1.8,1.8-2.1C12.3,46.1,13.4,46.6,13.6,47.5z"/>
		<path class="st31" d="M20.2,45.3c0.1,0.4-0.2,0.8-0.7,1s-1,0-1.1-0.4s0.2-0.8,0.7-1C19.6,44.8,20.1,44.9,20.2,45.3z"/>
	</g>
	<g>
		<path class="st31" d="M39.5,81.6c-0.5-1,0.3-2.5,1.7-3.2s3-0.4,3.5,0.6s-0.3,2.5-1.7,3.2S40,82.7,39.5,81.6z"/>
		<path class="st29" d="M46.3,85.9c-0.1-0.5,0.4-1,1.1-1.2c0.7-0.1,1.3,0.2,1.4,0.7c0.1,0.5-0.4,1-1.1,1.2
			C47.1,86.7,46.4,86.4,46.3,85.9z"/>
		<path class="st32" d="M40,87.8c-0.1-0.3,0.2-0.7,0.6-0.8c0.4-0.1,0.9,0,1,0.3S41.4,88,41,88.1C40.5,88.2,40.1,88.1,40,87.8z"/>
		<path class="st31" d="M47.3,76.4c0-0.3,0.4-0.6,0.8-0.6c0.4,0,0.8,0.3,0.8,0.6c0,0.3-0.4,0.6-0.8,0.6S47.3,76.7,47.3,76.4z"/>
	</g>
</g>
<g>
	<path class="st33" d="M155.3,117.1c-33.2,0-28.7,17.8-26,20.3v37.4c0,2.1,1.7,3.8,3.8,3.8h22.2h22.1c2.1,0,3.8-1.7,3.8-3.8v-37.4
		C184.2,135.1,189.7,117.1,155.3,117.1z"/>
	<path class="st31" d="M155.3,119c-31.6,0-27.3,16.2-24.7,18.6l-0.3,36.5c0,1.9,1.6,3.5,3.6,3.5H155h21.1c2,0,3.6-1.6,3.6-3.5
		l0.3-36.5C182.8,135.4,188,119,155.3,119z"/>
	<g>
		<g>
			<path class="st29" d="M142.5,127.2c0.7,1.7-0.6,3.9-2.9,4.8c-2.3,1-4.8,0.4-5.5-1.3s0.6-3.9,2.9-4.8
				C139.3,124.9,141.8,125.5,142.5,127.2z"/>
			<path class="st29" d="M139,135.3c0.2,0.9-0.6,1.8-1.8,2.1s-2.3-0.3-2.5-1.2s0.6-1.8,1.8-2.1S138.8,134.4,139,135.3z"/>
			<path class="st29" d="M145.5,131.5c0.1,0.4-0.2,0.8-0.7,1s-1,0-1.1-0.4s0.2-0.8,0.7-1C144.8,131,145.4,131.1,145.5,131.5z"/>
		</g>
		<g>
			<path class="st29" d="M165.4,168.1c-0.5-1,0.3-2.5,1.7-3.2s3-0.4,3.5,0.6s-0.3,2.5-1.7,3.2C167.5,169.4,165.9,169.1,165.4,168.1z
				"/>
			<path class="st29" d="M173.7,173c-0.1-0.5,0.4-1,1.1-1.2c0.7-0.1,1.3,0.2,1.4,0.7c0.1,0.5-0.4,1-1.1,1.2
				C174.5,173.9,173.8,173.6,173.7,173z"/>
			<path class="st29" d="M165.3,174c-0.1-0.3,0.2-0.7,0.6-0.8c0.4-0.1,0.9,0,1,0.3s-0.2,0.7-0.6,0.8
				C165.8,174.5,165.4,174.4,165.3,174z"/>
			<path class="st29" d="M174.3,160.4c0-0.3,0.4-0.6,0.8-0.6c0.4,0,0.8,0.3,0.8,0.6s-0.4,0.6-0.8,0.6
				C174.6,161,174.3,160.8,174.3,160.4z"/>
		</g>
	</g>
</g>
<g>
	<path class="st34" d="M12.4,122.2c0,2.9,0.1,5.8,0.1,8.6c0,0.9,0,1.8,0.4,2.7c0.5,1.2,1.7,2,2.8,2.7c8,5.3,16.1,10.3,24.4,15.2
		c3.7,2.2,7.5,4.4,11.6,5.8c8.8,3.2,19.1,2.9,27.1-1.8c2.4-1.4,4.6-3.2,6.8-4.7c9.1-6.5,19.7-10.6,29.4-16.1c1.2-0.7,2.5-1.5,3-2.9
		c0.2-0.6,0.3-1.3,0.3-2c0.1-2.5,0.1-4.9,0.1-7.4c-11,2.5-22.6,2.1-33.9,2.3c-16.7,0.3-33.5,0.6-50.2,0.9c-2,0.1-3.8,0.1-5.8-0.3
		c-2.3-0.4-4.6-1.4-6.9-2C18.7,122.4,15.4,122.1,12.4,122.2z"/>
	<path class="st35" d="M16.1,117.5c6.6-3.4,14.2-4,21-6.9c4.4-1.9,8.4-4.7,12.6-7.1c4.2-2.3,8.8-4.3,13.6-4.2c3.1,0.1,6,1.1,9,2.1
		c15,5.2,29.6,11.3,43.8,18.3c0.7,0.3,1.5,0.8,1.9,1.4c0.8,1.4-0.2,3-1.3,4.1c-3.3,3.3-7.7,4.9-12,6.6c-9,3.6-17.7,7.8-26.1,12.6
		c-1.8,1-3.6,2.1-5.5,2.9c-6,2.4-12.8,1.9-18.9-0.1s-11.7-5.3-17.2-8.7c-5.9-3.6-11.7-7.1-17.6-10.7c-1.8-1.1-5.9-2.5-6.8-4.6
		C11.5,120.8,14.1,118.5,16.1,117.5z"/>
</g>
<g>
	<path class="st34" d="M180.3,87.5c0-2.5-0.1-5-0.1-7.5c0-0.8,0-1.6-0.4-2.3c-0.5-1-1.7-1.8-2.8-2.4c-8-4.6-16.1-9-24.4-13.1
		c-3.7-1.9-7.5-3.8-11.6-5c-8.8-2.7-19.1-2.5-27.1,1.6c-2.4,1.2-4.6,2.7-6.8,4.1c-9.1,5.6-19.7,9.2-29.4,14c-1.2,0.6-2.5,1.3-3,2.5
		c-0.2,0.5-0.3,1.1-0.3,1.7c-0.1,2.1-0.1,4.2-0.1,6.4c11-2.1,22.6-1.8,33.9-2c16.7-0.3,33.5-0.5,50.2-0.8c2,0,3.8-0.1,5.8,0.2
		c2.3,0.3,4.6,1.2,6.9,1.8C174.1,87.3,177.3,87.7,180.3,87.5z"/>
	<path class="st35" d="M176.6,91.6c-6.6,3-14.2,3.4-21,5.9c-4.4,1.6-8.4,4.1-12.6,6.1c-4.2,2.1-8.8,3.7-13.6,3.6c-3.1-0.1-6-1-9-1.8
		c-15-4.5-29.6-9.8-43.8-15.8c-0.7-0.3-1.5-0.7-1.9-1.2c-0.8-1.2,0.2-2.6,1.3-3.5c3.3-2.8,7.7-4.2,12-5.7c9-3.1,17.7-6.8,26.1-10.9
		c1.8-0.9,3.6-1.8,5.5-2.5c6-2.1,12.8-1.6,18.9,0.1c6.1,1.7,11.7,4.6,17.2,7.5c5.9,3.1,11.7,6.1,17.6,9.2c1.8,0.9,5.9,2.2,6.8,4
		C181.3,88.7,178.6,90.7,176.6,91.6z"/>
</g>
<g>
	<g>
		<g>
			<g>
				<path class="st36" d="M156.8,29.3c0-0.2,0.1-0.4,0.1-0.5c0.8-4.6-0.1-5.2-0.1-5.2c-0.4-0.5-1.4-1-5.3-1.7
					c-3-0.6-7.1-1.2-11.5-1.8c-5.1-0.7-10.4-1.5-14.8-2.4c-4-0.8-6.7-1.5-8.3-2.1c-0.4-0.2-2.5-0.7-4.9-1.2c-3.6-0.7-6-0.7-7.7-0.3
					c-2.2,0.5-3.4,1.6-4.7,3c-1.1,1.1-2.7,2.7-4.7,3.9c-3.2,1.8-8,4.9-10.3,7.2c-0.6,0.6-1,1.1-1.1,1.6c0,0.1-0.1,0.2-0.2,0.4
					c-0.2,2-0.3,3.9-0.4,5.9c0,0.2,6.6,2.6,14.2,3.7c0.1,0,0.1,0,0.2,0c2.5,0.4,4.9,0.8,7.1,1.3c11.1,2.4,19.2,3.8,27.6,7.4
					c2.5,1.1,4.3,0.9,6.1,0.5c4.8-1.1,6.9-5,8.7-7.7c0.1-0.1,0.1-0.2,0.2-0.3c0.1-0.1,0.1-0.2,0.2-0.3c0,0,0.1-0.1,0.1-0.1
					c0.7-0.9,1.7-2,2.7-3.1c1.9-2,4-4,5.4-5.4c0.1-0.1,0.2-0.2,0.2-0.2c0.2-0.2,0.3-0.3,0.4-0.5C156.4,30.8,156.6,30.1,156.8,29.3z"
					/>
				<path class="st37" d="M155.9,31.4c-0.1,0.2-0.3,0.4-0.4,0.5c-0.1,0.1-0.2,0.2-0.2,0.2c-1.4,1.4-3.6,3.4-5.4,5.4
					c-1,1.1-2,2.2-2.7,3.1c0,0-0.1,0.1-0.1,0.1c-0.1,0.1-0.1,0.2-0.2,0.3c-0.1,0.1-0.1,0.2-0.2,0.3c-1.8,2.7-3.9,6.7-8.7,7.7
					c0-0.1,0-0.3,0.1-0.4c0.8-3.7,1.5-7.3,2.2-10.8c0.5-2.5,1.9-5.2,4.3-6.8c0.8-0.6,1.8-0.8,2.7-1.2c1.6-0.7,2.8-1.8,3.9-3
					c1.1-1.2,2.4-2.3,3.4-3.5c0,0,1.1,0.8,1.2,0.9c0.4,0.5,0.5,1.1,0.6,1.7C156.6,27.7,156.5,29.6,155.9,31.4z"/>
				<path class="st38" d="M116.4,16.1c-0.6-0.3-8.7-2.4-12.3-1.6c-3.6,0.8-4.1,4-8.7,6.6c-4.7,2.6-12.7,7.6-11.5,9.2
					c1.2,1.7,28.6,7.9,35,9.3c7.4,1.6,15.9,5,19.3,3.7c4.6-1.8,5.7-7.5,10.2-10.9c4.5-3.3,7.5-6.7,7.7-8.5
					C156.3,21.5,124,19.4,116.4,16.1z"/>
				<path class="st39" d="M133.8,42.6c-4.9-1-2.9-1.3-15.6-4c-30.6-6.4-33.4-8.4-33.7-8.7c0,0,0-0.1,0-0.2c0.5-1.4,5-4.7,11.2-8.3
					c2.3-1.4,3.8-2.9,4.9-4.1c1.2-1.3,2.1-2.3,3.7-2.7c1.4-0.3,3.9-0.2,7.2,0.4c2.4,0.5,4.3,1,4.5,1.1c1.5,0.7,3.9,1.3,7.4,2
					c4.5,0.8,9.9,1.6,15.3,2.3c4.7,0.6,9.1,1.2,12.4,1.9c3.1,0.6,4,1,4.3,1.1c0.8,2.1-2.7,4.5-7.4,8.1c-2.2,1.7-3.7,3.9-5,5.9
					c-1.6,2.3-2.9,4.4-5.1,5.3C137,43.1,135.6,43,133.8,42.6C133.8,42.6,133.8,42.6,133.8,42.6z"/>
			</g>
			<path class="st40" d="M91.4,29.5c-0.1-0.4-0.5-0.6-1-0.8c0-0.1,0-0.1,0-0.2c0-0.2,0.1-0.3,0.1-0.5c0-0.1-0.3-0.2-0.4-0.1
				c-0.2,0.1-0.2,0.3-0.3,0.4c-0.1,0.2-0.3,0.3-0.4,0.5c-0.2,0.2-0.2,0.4,0.1,0.6c0.3,0.2,0.8,0.4,1.2,0.4c0.1,0,0.3,0,0.4,0
				C91.3,29.8,91.5,29.7,91.4,29.5z"/>
			<path class="st40" d="M95.6,24.4c-0.1-0.4-0.5-0.4-1-0.2c-0.3,0.2-0.4,0.4-0.5,0.7c0,0.1-0.1,0.2-0.1,0.3c0,0.1,0,0.1,0,0.2
				c0,0.1,0,0.1,0.1,0.1c-0.1,0.3,0.4,0.3,0.6,0.1c0.2-0.1,0.4-0.2,0.6-0.4C95.4,24.9,95.6,24.6,95.6,24.4z"/>
			<path class="st40" d="M105.9,16.2c-0.3,0.1-0.6,0.3-0.9,0.5c-0.3,0.2-0.6,0.4-0.6,0.7c0,0.1,0,0.1,0.1,0.2c0.4,0.1,0.7,0,1-0.2
				c0.3-0.1,0.7-0.3,0.9-0.5C106.9,16.5,106.5,16,105.9,16.2z"/>
			<path class="st40" d="M101,30c0-0.1,0-0.2-0.1-0.2c-0.2-0.1-0.4-0.3-0.5-0.5c-0.1-0.1-0.2-0.4-0.1-0.6c0.1-0.3-0.4-0.6-0.7-0.2
				c-0.3,0.4-0.5,0.8-0.3,1.2c0.1,0.4,0.4,0.8,1,0.9c0.1,0,0.3,0,0.4-0.1C100.9,30.3,101,30.1,101,30z"/>
			<path class="st40" d="M104.4,22.5c-0.3,0-0.6,0.3-0.4,0.5c0.3,0.3,1.7,1.4,2.2,0.8C106.8,23.1,104.9,22.5,104.4,22.5z"/>
			<path class="st40" d="M114.7,16.5c-0.3-0.3-0.6-0.4-1.1-0.5c-0.5-0.1-1-0.2-1.5-0.1c-0.3,0-0.5,0.4-0.2,0.5
				c0.4,0.2,0.9,0.3,1.3,0.4c0.5,0.1,0.9,0.2,1.4,0C114.7,16.7,114.8,16.6,114.7,16.5z"/>
			<path class="st40" d="M108.7,34.2c-0.3-0.3-0.9-0.4-1.4-0.5c-0.6-0.1-1.2-0.2-1.8-0.3c-0.5,0-0.8,0.5-0.3,0.7
				c0.6,0.2,1.2,0.3,1.8,0.5c0.5,0.1,1,0.2,1.6,0.1C108.8,34.6,108.9,34.3,108.7,34.2z"/>
			<path class="st40" d="M120.9,36.2c-0.2-0.6-1.2-0.8-1.9-0.8c-0.4,0-0.7,0.5-0.4,0.7c0.5,0.4,1.4,0.7,2.1,0.4
				C120.9,36.5,120.9,36.3,120.9,36.2z"/>
			<path class="st40" d="M110.9,28c-0.2-0.3-0.4-0.5-0.7-0.7c-0.2-0.2-0.5,0-0.5,0.2c0,0.3,0.1,0.6,0.3,1c0.1,0.3,0.2,0.7,0.7,0.8
				c0.2,0,0.5-0.1,0.6-0.3C111.4,28.6,111.1,28.3,110.9,28z"/>
			<path class="st40" d="M119.2,18.7c-0.1-0.3-0.5-0.3-0.8-0.3c-0.3,0-0.7-0.1-1,0c-0.2,0-0.3,0.2-0.1,0.3c0.2,0.2,0.6,0.3,0.9,0.3
				c0.3,0.1,0.7,0.2,1,0C119.2,19,119.2,18.9,119.2,18.7z"/>
			<path class="st40" d="M130.2,20.1c-0.2-0.5-1.1-0.6-1.6-0.5c-0.4,0-0.5,0.4-0.2,0.6c0.4,0.3,1.3,0.5,1.8,0.1
				C130.2,20.3,130.3,20.2,130.2,20.1z"/>
			<path class="st40" d="M121.7,25.5c0-0.1,0-0.2-0.1-0.3c0-0.1-0.1-0.2-0.1-0.3c0-0.1,0.1-0.3,0.1-0.5c0-0.2-0.1-0.3-0.4-0.3
				c0,0,0.1,0,0.1,0c-0.1,0-0.1,0-0.2,0c-0.1,0-0.1,0-0.2,0.1c-0.1,0.1-0.2,0.1-0.3,0.2c-0.2,0.2-0.3,0.4-0.3,0.6
				c0,0.4,0.3,0.9,0.9,0.8C121.6,25.8,121.7,25.7,121.7,25.5z"/>
			<path class="st40" d="M129.6,38.8c-0.7-0.5-1.9-0.3-2.7-0.2c-0.5,0.1-1.3,1.3-0.8,1.4c0.8,0.2,2.7-0.3,3.5-0.7
				C129.7,39.1,129.7,38.9,129.6,38.8z"/>
			<path class="st40" d="M138.1,40.7c0-0.1-0.1-0.2-0.2-0.2c-0.4,0-0.7,0.1-1,0.3c-0.3,0.2-0.6,0.4-0.8,0.7
				c-0.2,0.3,0.1,0.7,0.5,0.5c0.4-0.1,0.7-0.3,1-0.6C137.7,41.3,138,41,138.1,40.7z"/>
			<g>
				<path class="st40" d="M134.8,31.1c0,0,0-0.1-0.1-0.1c0,0-0.1-0.1-0.1-0.1c0-0.1,0-0.1-0.1-0.1c-0.1-0.1-0.1-0.2-0.1-0.2
					c-0.1-0.2-0.4-0.3-0.6-0.1c-0.2,0.1-0.3,0.2-0.4,0.4c-0.1,0.2,0,0.4,0.1,0.6c0.1,0.1,0.2,0.2,0.4,0.3c0.1,0,0.3,0,0.4,0
					c0.1,0,0.1,0,0.1,0c0,0,0.1,0,0.1,0C134.8,31.6,134.9,31.3,134.8,31.1z"/>
			</g>
			<path class="st40" d="M137,22.5c-0.2-0.2-0.5-0.4-0.8-0.5c-0.3-0.1-0.7-0.2-1-0.1c-0.4,0-0.6,0.4-0.4,0.6
				c0.2,0.2,0.5,0.3,0.9,0.4c0.3,0.1,0.7,0.2,1,0.1C137,23,137.2,22.7,137,22.5z"/>
			<path class="st40" d="M145.3,23.2c-0.3-0.1-0.6-0.2-0.9-0.2c-0.4,0-0.7,0.4-0.4,0.6c0.2,0.2,0.4,0.4,0.7,0.5
				c0.3,0.1,0.7,0.1,0.9-0.2C145.7,23.6,145.6,23.3,145.3,23.2z"/>
			<path class="st40" d="M149.7,24.5c-0.3,0.2-1.1,0.6-0.8,1c0.4,0.4,1-0.2,1.3-0.4C150.5,24.7,150.1,24.2,149.7,24.5z"/>
			<path class="st40" d="M123.3,31.4c0-0.4-0.7-0.6-1.1-0.6c-0.2,0-0.4,0.2-0.3,0.4c0.2,0.3,0.8,0.7,1.2,0.4
				C123.2,31.6,123.3,31.5,123.3,31.4z"/>
			<path class="st40" d="M113.2,22.3c0-0.3-0.3-0.5-0.6-0.7c-0.2-0.1-0.6-0.2-0.7,0c-0.1,0.2,0.1,0.4,0.3,0.6
				c0.2,0.2,0.5,0.3,0.8,0.3C113.1,22.5,113.2,22.4,113.2,22.3z"/>
			<path class="st40" d="M99.6,20.6c-0.8,0.2-1.8,0.8-2.3,1.4c-0.3,0.2-0.1,0.6,0.3,0.4c0.8-0.3,1.9-0.9,2.3-1.5
				C99.9,20.7,99.7,20.5,99.6,20.6z"/>
			<path class="st40" d="M143.3,30.7c-0.1-0.3-0.5-0.4-0.8-0.2c-0.4,0.3-0.3,0.7-0.1,1.1c0,0.1,0.2,0.1,0.3,0.1
				C143,31.4,143.4,31.1,143.3,30.7z"/>
			<path class="st40" d="M103.3,16.4c-0.3,0.3-0.5,0.6-0.7,0.9c-0.2,0.3,0.4,0.5,0.7,0.2c0.3-0.3,0.5-0.6,0.8-0.9
				C104.3,16.2,103.6,16.1,103.3,16.4z"/>
		</g>
		<g>
			<g>
				<path class="st41" d="M112.1,35.2c-0.6-0.2-1.1-0.3-1.7-0.5C111.1,34.5,111.8,34.6,112.1,35.2z"/>
			</g>
			<g>
				<path class="st42" d="M151.2,19.5c-0.3-0.3-0.6-0.6-1-0.8c-1.5-0.8-3.7-0.9-5.4-1c-14.2-0.7-28.5-0.8-42.6-0.3
					c-3.8,0.1-7.6,0.3-11.3,1.6c-4.1,1.5-12.3,5.7-7.9,9.3c1.8,1.5,2.6,2.5,4.5,2.9c1.1,0.1,2.2,0.3,3.3,0.5
					c3.5,0.5,7.2,0.8,10.8,1.7c27.6,7.1,31.7,9.1,36.4,6.2c2.3-1.4,3.7-3.5,5-5.5c0.6-0.9,0.9-1.9,1.6-2.7c0.7-0.8,1.2-1.6,1.9-2.3
					c0.6-0.7,1.4-1.3,2.1-2c1.3-1.2,2.8-2.5,3.5-4C152.6,21.8,152.1,20.6,151.2,19.5z"/>
				<path class="st36" d="M153.6,20c0-0.2,0.1-0.4,0.1-0.5c0.7-4.7-0.3-5.2-0.3-5.2c-0.4-0.5-1.4-1-5.3-1.6c-3-0.5-7.2-1.1-11.6-1.6
					c-5.2-0.7-10.5-1.3-14.9-2.1c-4.1-0.7-6.8-1.4-8.4-2c-0.4-0.2-2.6-0.7-4.9-1.1c-3.6-0.6-6-0.6-7.7-0.2c-2.2,0.6-3.4,1.7-4.7,3.1
					c-1,1.1-2.6,2.8-4.6,4c-3.2,1.9-7.9,5-10.2,7.4c-0.5,0.6-0.9,1.2-1.1,1.6c0,0.1-0.1,0.2-0.2,0.4c-0.2,2-0.2,4-0.3,5.9
					c0,0.2,6.7,2.4,14.4,3.5c0.1,0,0.1,0,0.2,0c2.5,0.4,4.9,0.6,7.1,1.2c11.3,2.7,19.5,5.4,27.8,7c2.7,0.5,4.3,0.9,6.1,0.4
					c4.8-1.1,6.8-5.2,8.5-7.9c0.1-0.1,0.1-0.2,0.2-0.3c0.1-0.1,0.1-0.2,0.2-0.3c0,0,0.1-0.1,0.1-0.1c0.7-1,1.6-2,2.7-3.2
					c1.8-2,3.9-4.1,5.3-5.5c0.1-0.1,0.1-0.2,0.2-0.2c0.2-0.2,0.3-0.4,0.4-0.5C153.3,21.4,153.5,20.7,153.6,20z"/>
				<path class="st37" d="M152.8,22.1c-0.1,0.2-0.3,0.4-0.4,0.5c-0.1,0.1-0.1,0.2-0.2,0.2c-1.4,1.5-3.5,3.5-5.3,5.5
					c-1,1.1-2,2.2-2.7,3.2c0,0-0.1,0.1-0.1,0.1c-0.1,0.1-0.1,0.2-0.2,0.3c-0.1,0.1-0.1,0.2-0.2,0.3c-1.7,2.7-3.7,6.8-8.5,7.9
					c0-0.1,0-0.3,0.1-0.4c0.7-3.7,1.3-7.4,2-10.9c0.5-2.5,1.8-5.2,4.2-6.9c0.8-0.6,1.8-0.8,2.7-1.3c1.6-0.8,2.8-1.9,3.9-3.1
					c1.1-1.2,2.3-2.3,3.4-3.5c0,0,1.1,0.8,1.2,0.9c0.5,0.5,0.5,1.1,0.6,1.7C153.5,18.4,153.4,20.3,152.8,22.1z"/>
				<path class="st38" d="M112.8,7.3c-0.6-0.3-8.8-2.3-12.4-1.4c-3.6,0.9-4.1,4.1-8.6,6.8c-4.6,2.7-12.5,7.8-11.3,9.4
					c1.3,1.6,28.9,7.5,35.4,8.7c7.5,1.4,16,4.8,19.4,3.4c4.5-1.9,5.5-7.6,10-11.1c4.4-3.4,7.4-6.8,7.5-8.7
					C153,12.1,120.5,10.5,112.8,7.3z"/>
				<path class="st39" d="M130.9,33.7c-4.9-1-3-1.2-15.7-3.7c-30.8-5.9-33.7-7.8-34.1-8.2c0,0,0-0.1,0-0.2c0.5-1.4,4.9-4.8,11.1-8.5
					c2.3-1.4,3.7-3,4.8-4.2c1.2-1.4,2.1-2.3,3.7-2.8c1.4-0.4,3.9-0.3,7.2,0.3c2.4,0.4,4.3,0.9,4.6,1c1.5,0.6,3.9,1.2,7.4,1.8
					c4.5,0.8,10,1.4,15.4,2.1c4.7,0.6,9.2,1.1,12.4,1.7c3.1,0.5,4,0.9,4.3,1.1c0.8,2.1-2.6,4.6-7.3,8.3c-2.2,1.7-3.6,4-4.9,6
					c-1.5,2.4-2.8,4.4-5,5.4C134.1,34.1,132.7,34.1,130.9,33.7C130.9,33.7,130.9,33.7,130.9,33.7z"/>
				<path class="st43" d="M129.4,32.1c-4.3-0.8-2.6-1.1-13.5-3.2c-6.1-1.2-12.2-2.4-18.3-3.8c-4.9-1.1-14.1-2.2-9-9.1
					c2.2-3,6.6-3.3,9.6-5.3c4.9-3.2,9.8-2.8,15.1-0.6c1.3,0.5,3.4,1.1,6.4,1.6c3.9,0.7,8.6,1.3,13.2,1.8c4.2,0.5,13.9-1.1,11.1,6.1
					c-0.9,2.3-3.2,3.3-4.8,5.1c-2.2,2.3-3.3,6.2-6.5,7.5C132.1,32.4,131,32.4,129.4,32.1z"/>
			</g>
			<path class="st40" d="M88.1,21.3c-0.1-0.4-0.5-0.6-1-0.7c0-0.1,0-0.1,0-0.2c0-0.2,0.1-0.3,0.1-0.5c0-0.2-0.3-0.2-0.4-0.1
				c-0.2,0.1-0.2,0.3-0.3,0.4c-0.1,0.2-0.2,0.3-0.4,0.5c-0.2,0.2-0.1,0.4,0.1,0.6c0.3,0.2,0.8,0.4,1.2,0.4c0.1,0,0.3,0,0.4,0
				C88,21.5,88.1,21.4,88.1,21.3z"/>
			<path class="st40" d="M92.1,16c-0.1-0.4-0.6-0.4-1-0.2c-0.3,0.2-0.4,0.5-0.5,0.7c0,0.1-0.1,0.2-0.1,0.3c0,0.1,0,0.1,0,0.2
				c0,0.1,0,0.1,0.1,0.1c-0.1,0.3,0.4,0.3,0.6,0.1c0.2-0.1,0.4-0.3,0.5-0.5C92,16.6,92.2,16.3,92.1,16z"/>
			<path class="st40" d="M102.2,7.7c-0.3,0.1-0.6,0.4-0.9,0.6c-0.3,0.2-0.5,0.4-0.6,0.7c0,0.1,0,0.1,0.1,0.2c0.4,0.1,0.7,0,1-0.2
				c0.3-0.2,0.7-0.3,0.9-0.6C103.3,8,102.9,7.4,102.2,7.7z"/>
			<path class="st40" d="M97.7,21.5c0-0.1,0-0.2-0.1-0.2c-0.2-0.1-0.4-0.3-0.5-0.5c-0.1-0.1-0.2-0.4-0.1-0.6
				c0.1-0.3-0.4-0.6-0.7-0.2c-0.3,0.4-0.4,0.8-0.3,1.2c0.1,0.4,0.4,0.8,1,0.8c0.1,0,0.3,0,0.4-0.1C97.6,21.9,97.7,21.7,97.7,21.5z"
				/>
			<path class="st40" d="M100.9,14c-0.3,0-0.6,0.3-0.4,0.5c0.3,0.3,1.7,1.4,2.3,0.7C103.4,14.5,101.4,14,100.9,14z"/>
			<path class="st40" d="M111.1,7.7c-0.3-0.3-0.6-0.4-1.1-0.5c-0.5-0.1-1-0.1-1.6-0.1c-0.3,0-0.5,0.4-0.2,0.5
				c0.4,0.2,0.9,0.3,1.3,0.4c0.5,0.1,0.9,0.2,1.4,0C111.1,8,111.3,7.9,111.1,7.7z"/>
			<path class="st40" d="M105.6,25.6c-0.3-0.3-0.9-0.4-1.4-0.5c-0.6-0.1-1.2-0.2-1.8-0.3c-0.5,0-0.8,0.5-0.3,0.7
				c0.6,0.2,1.2,0.3,1.8,0.4c0.5,0.1,1,0.2,1.6,0.1C105.6,26,105.7,25.8,105.6,25.6z"/>
			<path class="st40" d="M117.8,27.4c-0.2-0.6-1.2-0.7-1.9-0.7c-0.4,0-0.7,0.5-0.4,0.7c0.5,0.4,1.4,0.7,2.1,0.4
				C117.8,27.7,117.8,27.6,117.8,27.4z"/>
			<path class="st40" d="M107.5,19.4c-0.2-0.3-0.4-0.5-0.7-0.7c-0.2-0.2-0.5,0-0.5,0.2c0,0.3,0.2,0.6,0.3,1c0.1,0.3,0.2,0.7,0.7,0.8
				c0.2,0,0.5-0.1,0.6-0.3C108,20,107.8,19.7,107.5,19.4z"/>
			<path class="st40" d="M115.6,10c-0.1-0.2-0.5-0.3-0.9-0.3c-0.3,0-0.7-0.1-1,0c-0.2,0-0.2,0.2-0.1,0.3c0.2,0.2,0.6,0.2,0.9,0.3
				c0.3,0.1,0.7,0.2,1,0C115.7,10.2,115.7,10.1,115.6,10z"/>
			<path class="st40" d="M126.8,11.2c-0.2-0.5-1.1-0.6-1.7-0.5c-0.4,0.1-0.5,0.4-0.2,0.6c0.4,0.2,1.3,0.5,1.8,0.1
				C126.8,11.3,126.8,11.2,126.8,11.2z"/>
			<path class="st40" d="M118.4,16.7c0-0.1,0-0.2-0.1-0.3c0-0.1-0.1-0.2-0.1-0.3c0-0.1,0.1-0.3,0-0.5c0-0.2-0.2-0.3-0.4-0.3
				c0,0,0.1,0,0.1,0c-0.1,0-0.1,0-0.2,0c-0.1,0-0.1,0-0.2,0.1c-0.1,0.1-0.2,0.1-0.3,0.2c-0.2,0.2-0.2,0.4-0.3,0.6
				c0,0.4,0.3,0.9,0.9,0.8C118.2,17,118.4,16.9,118.4,16.7z"/>
			<path class="st40" d="M126.5,29.9c-0.7-0.5-1.9-0.3-2.8-0.1c-0.5,0.1-0.5,0.7,0,0.8c0.8,0.1,2,0.2,2.8-0.2
				C126.7,30.2,126.7,30,126.5,29.9z"/>
			<path class="st40" d="M135.7,30.1c0-0.1-0.1-0.2-0.2-0.2c-0.4,0-0.7,0.2-1,0.4c-0.3,0.2-0.6,0.4-0.8,0.7
				c-0.2,0.3,0.1,0.7,0.5,0.5c0.4-0.1,0.7-0.4,1-0.6C135.4,30.7,135.7,30.4,135.7,30.1z"/>
			<g>
				<path class="st40" d="M131.6,22.1c0,0,0-0.1-0.1-0.1c0,0-0.1-0.1-0.1-0.1c0-0.1,0-0.1-0.1-0.1c-0.1-0.1-0.1-0.2-0.2-0.2
					c-0.1-0.2-0.4-0.3-0.6-0.1c-0.2,0.1-0.3,0.2-0.4,0.4c-0.1,0.2,0,0.4,0.1,0.6c0.1,0.1,0.3,0.2,0.4,0.3c0.1,0,0.3,0,0.4,0
					c0.1,0,0.1,0,0.1,0c0,0,0.1,0,0.1,0C131.6,22.6,131.7,22.3,131.6,22.1z"/>
			</g>
			<path class="st40" d="M133.6,13.5c-0.2-0.2-0.5-0.4-0.8-0.5c-0.3-0.1-0.7-0.2-1-0.1c-0.4,0-0.6,0.4-0.3,0.7
				c0.2,0.2,0.6,0.3,0.9,0.4c0.3,0.1,0.7,0.2,1,0.1C133.6,13.9,133.8,13.6,133.6,13.5z"/>
			<path class="st40" d="M141.9,14c-0.3-0.1-0.6-0.2-1-0.2c-0.4,0-0.7,0.4-0.4,0.6c0.2,0.2,0.5,0.4,0.8,0.5c0.3,0.1,0.7,0.1,0.9-0.2
				C142.3,14.4,142.2,14.1,141.9,14z"/>
			<path class="st40" d="M146.4,15.2c-0.3,0.2-1.1,0.6-0.7,1c0.4,0.4,1-0.2,1.3-0.4C147.3,15.4,146.8,15,146.4,15.2z"/>
			<path class="st40" d="M120.1,22.7c0-0.4-0.7-0.6-1.1-0.6c-0.2,0-0.4,0.2-0.3,0.4c0.2,0.3,0.8,0.7,1.3,0.4
				C120,22.8,120.1,22.7,120.1,22.7z"/>
			<path class="st40" d="M109.7,13.6c0-0.3-0.3-0.5-0.6-0.6c-0.2-0.1-0.6-0.2-0.8,0c-0.1,0.2,0.2,0.4,0.3,0.6
				c0.2,0.2,0.5,0.3,0.8,0.3C109.6,13.8,109.7,13.7,109.7,13.6z"/>
			<path class="st40" d="M96,12.1c-0.8,0.2-1.7,0.9-2.3,1.4c-0.3,0.2-0.1,0.6,0.3,0.4c0.8-0.4,1.8-0.9,2.3-1.6
				C96.4,12.2,96.2,12.1,96,12.1z"/>
			<path class="st40" d="M140.1,21.5c-0.1-0.3-0.5-0.4-0.8-0.1c-0.3,0.3-0.3,0.8-0.1,1.1c0,0.1,0.2,0.1,0.3,0.1
				C139.9,22.3,140.2,21.9,140.1,21.5z"/>
			<path class="st40" d="M99.7,7.9c-0.3,0.3-0.5,0.6-0.7,0.9c-0.2,0.3,0.4,0.5,0.7,0.2c0.3-0.3,0.5-0.6,0.7-0.9
				C100.7,7.7,100,7.5,99.7,7.9z"/>
		</g>
	</g>
	<path class="st44" d="M137,22.4c-1.3,0.1-2.3,1.3-2.7,2.5c-0.5,1.2-0.8,2.5-1.7,3.4c-1.1,1-3,1.1-4.4,0.5c-1.5-0.6-2.5-1.8-3.5-2.8
		c-2.8,1.3-4.1-1-6.2-2c-1.4-0.7-3-0.4-4.4-1c-1.4-0.6-2.4-1.7-3.6-2.4c-3.4-1.9-6.1,0.2-9.5,0.4c-2.9,0.2-6.3,0.1-9.1-0.3
		c-0.5-0.1-1-0.2-1.2-0.6c-0.1-0.3,0.1-0.8,0.4-1c0.3-0.2,0.7-0.3,1.1-0.4c2.9-0.7,6.2-1.2,8.3-3.6c2-2.3,1.5-6.8,5.8-6.8
		c3,0,4.5,2.2,6.9,3.4c3.1,1.5,6.7,2.4,10.1,2c1.6-0.2,3.3-0.5,4.5,0.5c0.6,0.5,1,1.2,1.5,1.8c3,3.3,5.3,0.1,8.7,0.6
		c1,0.2,1.9,1.1,1.6,2c-0.1,0.5-0.6,0.9-1,1.2c-0.4,0.3-0.9,0.6-1.1,1.1c-0.2,0.5-0.1,1.2,0.5,1.3L137,22.4z"/>
</g>
</svg>
