<svg xmlns="http://www.w3.org/2000/svg" xmlns:xlink="http://www.w3.org/1999/xlink" version="1.1" x="0px" y="0px" viewBox="0 0 100 125" enable-background="new 0 0 100 100" xml:space="preserve"><path fill="none" d="M31.86,55.212c0,0.642-0.52,1.16-1.162,1.16h-4.641v7.94c0.829,0.031,1.571,0.047,2.187,0.059  c0.636,0.013,1.133,0.021,1.452,0.046c5.007,0.377,7.942,2.955,8.72,7.665c0.979,5.913-4.185,8.832-7.726,9.766l-0.021,2.215h29.556  l-0.002-2.017c-7.559-4.458-7.142-11.241-7.053-12.114c0.057-10.271,13.555-12.92,17.516-13.475v-3.398H31.86V55.212z"/><path fill="none" d="M23.736,56.372H7.558c2.758,5.839,10.513,7.368,16.178,7.808V56.372z"/><polygon fill="none" points="69.829,15.819 60.01,19.644 50.215,29.438 55.959,35.184 72.578,18.566 "/><path fill="none" d="M66.285,28.551l-2.799,2.799c4.748,5.126,24.387,25.542,24.599,25.761c0.421,0.422,1.005,0.673,1.582,0.673  c0,0,0,0,0.002,0c0.466,0,0.89-0.166,1.19-0.468l1.479-1.479c0.707-0.707,0.607-1.959-0.222-2.791  C83.061,44.334,69.627,31.506,66.285,28.551z"/><path d="M71.848,50.736H30.699c-0.641,0-1.16,0.52-1.16,1.162v2.15H5.881c-0.365,0-0.708,0.174-0.928,0.467  c-0.22,0.291-0.287,0.67-0.186,1.021C7.914,66.309,23.184,66.596,28.2,66.691c0.581,0.01,1.034,0.019,1.324,0.039  c2.667,0.201,5.827,1.033,6.604,5.729c0.961,5.823-6.479,7.255-6.797,7.313c-0.547,0.101-0.948,0.574-0.953,1.132l-0.038,4.307  c-0.002,0.31,0.118,0.608,0.336,0.828c0.217,0.22,0.514,0.344,0.824,0.344h31.891c0.006-0.001,0.014,0,0.021,0  c0.641,0,1.16-0.52,1.16-1.159c0-0.082-0.008-0.16-0.022-0.235l-0.007-3.62c-0.002-0.428-0.232-0.814-0.605-1.02  c-7.119-3.865-6.484-9.953-6.455-10.203c0.006-0.049,0.01-0.101,0.01-0.148c0-9.729,16.297-11.34,16.461-11.354  c0.599-0.058,1.057-0.559,1.057-1.158V51.9C73.01,51.256,72.49,50.736,71.848,50.736z M7.558,56.372h16.178v7.808  C18.071,63.74,10.316,62.211,7.558,56.372z M70.688,56.457c-3.961,0.555-17.459,3.202-17.516,13.475  c-0.089,0.873-0.506,7.656,7.053,12.114l0.002,2.017H30.67l0.021-2.215c3.541-0.934,8.704-3.853,7.726-9.766  c-0.778-4.71-3.713-7.288-8.72-7.665c-0.319-0.022-0.816-0.033-1.452-0.046c-0.616-0.012-1.358-0.025-2.187-0.059v-7.94h4.641  c0.642,0,1.162-0.521,1.162-1.16v-2.153h38.827V56.457L70.688,56.457z"/><path d="M93.742,51.391c-3.854-3.708-21.688-20.846-26.04-24.667l7.338-7.337c0.218-0.217,0.341-0.512,0.341-0.82  c0-0.309-0.123-0.603-0.341-0.822l-4.104-4.102c-0.326-0.327-0.813-0.426-1.242-0.26L58.939,17.57  c-0.149,0.058-0.285,0.147-0.398,0.262L47.753,28.618c-0.453,0.453-0.453,1.188,0,1.642l7.386,7.386  c0.217,0.217,0.512,0.34,0.819,0.34s0.603-0.123,0.821-0.34l4.867-4.867c4.496,4.872,23.895,25.04,24.78,25.958  c0.869,0.871,2.05,1.369,3.238,1.369c0,0,0,0,0.002,0c1.088,0,2.092-0.406,2.831-1.146l1.48-1.479  C95.592,55.865,95.492,53.141,93.742,51.391z M55.959,35.184l-5.744-5.745l9.795-9.794l9.819-3.825l2.749,2.747L55.959,35.184z   M92.339,55.838l-1.479,1.479c-0.301,0.302-0.725,0.468-1.189,0.468c-0.002,0-0.002,0-0.002,0c-0.577,0-1.161-0.251-1.582-0.673  c-0.212-0.221-19.852-20.635-24.6-25.761l2.8-2.799c3.342,2.956,16.774,15.784,25.832,24.496  C92.947,53.879,93.046,55.131,92.339,55.838z"/><text x="0" y="115" fill="#000000" font-size="5px" font-weight="bold" font-family="'Helvetica Neue', Helvetica, Arial-Unicode, Arial, Sans-serif">Created by Ivana Milchanska</text><text x="0" y="120" fill="#000000" font-size="5px" font-weight="bold" font-family="'Helvetica Neue', Helvetica, Arial-Unicode, Arial, Sans-serif">from the Noun Project</text></svg>