<?xml version="1.0" encoding="utf-8"?>
<!-- Generator: Adobe Illustrator 25.0.0, SVG Export Plug-In . SVG Version: 6.00 Build 0)  -->
<svg version="1.1" id="Layer_1" xmlns="http://www.w3.org/2000/svg" xmlns:xlink="http://www.w3.org/1999/xlink" x="0px" y="0px"
	 viewBox="0 0 262.1 398.7" style="enable-background:new 0 0 262.1 398.7;" xml:space="preserve">
<style type="text/css">
	.st0{fill:#86A841;}
	.st1{fill:#2D5437;}
	.st2{fill:#2F7139;}
	.st3{fill:#583E24;}
	.st4{fill:#C0783A;}
</style>
<g>
	<path class="st0" d="M228.6,200.5c-5.4-2.9-11.6-6.3-17.7-9.7c0.7,1.1,1.3,2.3,2.1,3.4c0.9,1.3,1.2,2.6,1.1,3.8l0.4,0.3
		c0,0,0,0.1,0,0.1c-0.4,3.1-0.1,6,0.7,8.8c0.4,1.6,2,3.9,4.1,3.5c2.2-0.4,2-3.2,1.6-4.4c-0.3-1.1-4.5-5.4-4.4-6.9l15.8,10.7
		C236.6,212.4,231.3,201.9,228.6,200.5z"/>
	<path class="st0" d="M191.1,178.7c0.9-9.4-0.4-23.5,2.7-19c4,2.5,8.1,7.1,11.3,10.5c3,3.1,11,1.6,8.5-1c-3.8-4-14.3-7.9-19.1-10.9
		c-1.4-0.8-0.8-4.4-2.1-3.2c-0.3-3.7-0.9-7.3-1.8-11c2.6,1.1,6,3.5,8.6,4.6c2.1,0.9,3.1-1.8,4.1-3.1c0.6-0.8,2.1-4.1,0.1-4.9
		c-3.1-1.3-3.4,6.4-10.3,1.6c-1.9-1.3-2.9-5.1-3.9-3.7c0,0,0,0.1-0.1,0.1c-0.7-2.1-1.5-4.3-2.3-6.6c-0.6,0.5-1.2,1.1-1.7,1.6
		c4,13.8,3.2,32.6-2.6,46.9C180.5,185.6,190.8,182.2,191.1,178.7z"/>
	<path class="st0" d="M108.8,256.4c-4.8-20.4,2-43.7,12.5-62.7c-0.9-0.8-1.6-1.8-1.9-3c-9.7,16.4-15.7,35.5-17.6,54.1
		c-0.4,0.1-0.7,2.4-1.2,2.5c-9.4,3.4-12.1,14.2-14.6,21.7c-1.7,5.2,7.9-1.1,8.5-4.5c1.7-10.6,3.7-12.7,7.5-15.7
		c-0.2,3.8-0.9,10.9-0.8,14.7C101.8,274.9,111,265.6,108.8,256.4z"/>
	<path class="st0" d="M94.2,188.9c1.6-9.9,11.5-21.3,20.9-29.3c-0.2-0.7-0.5-1.3-0.8-2c-4.5,3.6-9.2,7.4-13.6,11.7
		c-0.3-0.5-2.8,3.4-3.5,3.5c-6.5,0.5-8.6-5.3-12.8-4.3c-1.8,0.4-3.9,3.4-5,4.9c-1.5,2.1,5.2,2.6,6.7,2.3c2.9-0.7,6-0.8,9.1-0.6
		c-5.1,5.8-9.6,12.5-12.5,20.4C81,200,92.9,196.7,94.2,188.9z"/>
	<path class="st0" d="M160.9,210.6c2.6,0.6,4,2.4,4.6,4.4c1.5,0.9,3,1.8,4.4,2.9c6.1,4.6,9.1-0.7,6.3-2.7
		c-2.7-1.9-14.7-3.5-14.3-6.7c-0.4-2.9,6.9-2.2,8.6-1.6c5.2,1.9,9.4-1,8.2-1.8c-2.2-1.4-4.9-3-6.9-3.4c-5.8-1.2-12.3,2-17.1,3.6
		C156.2,208,158.2,210.1,160.9,210.6z"/>
	<path class="st0" d="M71.3,301.6c-3.8-5.2-7.5-10.3-11.7-15.6c-2.6-3.2-13,3-10.3,6.3c4,5,8.6,9.9,13.4,14.8
		C65.5,305.3,68.3,303.4,71.3,301.6z"/>
	<path class="st0" d="M199.5,294c-0.7-2.3-1.4-4.7-2-7c-4.3-6.8-8-13.1-11.3-19.3c-2.4,2-4.7,4-7,6.1c6,7.6,12.3,14.9,18.8,22
		C198.4,295.2,199,294.6,199.5,294z"/>
	<path class="st0" d="M145.8,126.7c1.5,1.1,2.2,2.4,2.3,3.8c2.2,1.6,4.3,3.2,6.4,4.7c-0.9-2.6-2-5.2-2.8-7.9
		c-0.2-0.6-0.3-1.1-0.3-1.6c-1.8-1.4-3.7-2.7-5.4-4.1c0.4-0.3-1.4-2.6-2.2-3c-4.1-2,1.7-4.9,6.6-6.7c-0.4-1-0.7-2-1.1-3
		c-4.6,1.8-8.1,4.2-8.6,7.6c0,0.3,0,0.5,0,0.8c-1.9-1.6-3.8-3.2-5.7-4.8c-2.4,0.7-4.8,1.3-7.3,1.8c0.6,0.5,1.3,1.1,2,1.7
		C135.2,119.5,140.6,122.9,145.8,126.7z"/>
	<path class="st0" d="M105.3,103.2c-4.3-3-8.7-5.9-13-8.9c-0.7-0.5-1.2-0.7-1.7-0.7c-0.1-1-0.2-2-0.4-3.1c0.1-0.8,0-1.7-0.3-2.4
		c-0.5-4.4-0.8-8.8-1-13.3c-0.9-0.6-1.8-1.1-2.7-1.7c0,0.5,0,1,0,1.5c-0.7-0.4,1.2,1.5-1.3,3.8c-2.4,2.1-6,0.2-7.9,2.7
		c-2.3,2.9-0.5,7.4,2.6,4.6c8-7.1,5.1-1.2,6.6-2.4c0,0.5,0,1,0.1,1.4c-0.6,0,0.2,7.6-0.3,8.3c-3.7,4.8-5.8,2.9-8.2,4.2
		c-3.3,1.8,2.9,9.7,5.1,6.3c1.4-2.2,2.6-6.3,3.9-8.5c0.5,5.1,1.4,12.1,2.4,17.2c0.7,3.4,4.7-0.3,3.6-5.7c-0.3-1.5-0.8-7.3-1.1-8.8
		c6.1-0.9,7.7,9.3,11.4,11.8C107.6,112.6,108.1,105.2,105.3,103.2z"/>
	<path class="st0" d="M54.9,331.6c1.9-0.4,3.9-0.8,5.8-1.2c-0.2-0.2-0.5-0.4-0.7-0.7c-0.7-1.6-2.4-3.2-3.8-3.6
		c-2.6-2.5-5.1-5-7.6-7.5c-1.2,0.8-2.8,1.2-4.4,1c-0.2,0.2-0.4,0.4-0.5,0.7C47.4,324.3,51.1,328,54.9,331.6z"/>
	<path class="st0" d="M156.4,174.2c-7-9.7-14.4-19.5-24.1-27.6c4.7-0.1,15.6-0.3,19.9,1.7c3.8,1.8-1.9-5.9-5.1-7.4
		c-7.5-3.5-9.7,0.1-17.9,2.1c-0.6,0.1-5.2-3.1-5.5-2.7c-1.3-0.8-2.9-1.8-4.7-2.8c-0.4,1-0.7,2-1,3.1c3.8,2.1,7.7,4.6,10.3,7
		c10.6,9.9,19.7,28,26.5,37.7C157.2,188.8,160.1,179.4,156.4,174.2z"/>
	<path class="st0" d="M220.8,264.5c0.2,0.3,0.4,0.6,0.7,0.9c0.9,1.2,1.3,2.4,1.3,3.6c5.3,5.6,9.2,11.5,11.3,18
		c-1.2,0.6-2.1,2-2.4,2.8c-0.8,2.2-1.9,4.3-3.4,6.2c-1.1,1.5-2.3,3.8-1.1,5.6c1.1,1.7,3.3,1.1,4.2-0.2c1.6-2.2,3-4.4,4.2-6.8
		c0.4,4.3,0.2,8.8-0.9,13.6c-1.2,5.4,4.6,2.2,5-2.1C241.2,289.8,234.2,275.8,220.8,264.5z"/>
	<path class="st1" d="M163.2,100.2c-0.1-0.1-0.1-0.1-0.1-0.2c0,0,0,0,0-0.1c-0.1-0.2-0.1-0.5-0.2-0.7c0.1,0,0.1-0.7,0.1-0.9
		c0.2-1-0.7-2.1-1.4-2.6c-1.1-0.9-2.7-1.4-4-1.6c-2.1-0.2-5.8-0.1-6.4,2.5c-0.8,3.6,1.8,6.6,4.8,8.2c1.3,0.7,3,1,4.5,1
		c1.1,0,2.8-0.3,3.7-1C166.2,103.2,165,101.3,163.2,100.2z"/>
	<path class="st1" d="M120.6,163.2c-1.3,0.9-5,4-3.3,6l5.6,6.7c1.7,2,5,1,6.9-0.3c1.3-0.9,5-4,3.3-6l-5.6-6.7
		C125.8,161,122.5,162,120.6,163.2z"/>
	<path class="st1" d="M83.7,133.1c-0.3-0.4-0.6-0.8-0.9-1.2c-0.1-0.1-0.1-0.1-0.1-0.2c-0.1-0.2-0.1-0.3-0.2-0.5
		c-0.4-0.9-0.6-1.8-0.7-2.8c-0.1-1-1.7-2-2.4-2.4c-1.3-0.7-3.1-1.1-4.5-1c-1.2,0.1-2.8,0.2-3.7,1c-0.9,0.7-1.1,1.4-1,2.5
		c0.2,2.4,1.3,4.7,2.9,6.4c1.8,2.1,5.2,2.9,7.9,2.4C82.7,137,85.6,135.3,83.7,133.1z"/>
	<path class="st1" d="M143.4,225.4c-0.7-1-2.2-1.7-3.3-2c-2.5-0.7-5.7-0.8-7.6,1.3l-6.4,7.2c-0.7,0.7-0.3,2,0.2,2.7
		c0.7,1,2.2,1.7,3.3,2c2.5,0.7,5.7,0.8,7.6-1.3c2.1-2.4,4.2-4.8,6.4-7.2C144.3,227.4,143.9,226.1,143.4,225.4z"/>
	<path class="st1" d="M92,234.2c-0.5-2.1-1-4.3-1.5-6.4c-0.2-1.1-1.6-1.9-2.4-2.4c-1.3-0.7-3.1-1-4.5-1c-2,0.1-5.3,0.9-4.7,3.5
		c0.5,2.1,1,4.3,1.5,6.4c0.2,1,1.6,1.9,2.4,2.4c1.3,0.7,3.1,1.1,4.5,1C89.3,237.7,92.7,236.9,92,234.2z"/>
	<path class="st1" d="M179.9,132.3c-0.7-1-2.2-1.7-3.3-2c-2.5-0.7-5.7-0.8-7.6,1.3c-1.6,1.8-2.5,4.1-2.8,6.4c-0.3,2.6,3.4,4,5.4,4.2
		c1.9,0.2,6.1,0.1,6.4-2.5c0.2-2,0.7-3.1,2.2-4.7C180.8,134.3,180.4,133,179.9,132.3z"/>
	<path class="st1" d="M229.1,179.3c-3.2-0.5-6.4-1.1-9.5-1.6c-1.9-0.3-6-0.1-6.4,2.5c-0.4,2.6,3.6,3.9,5.4,4.2
		c3.2,0.5,6.4,1.1,9.5,1.6c1.9,0.3,6,0.1,6.4-2.5C234.9,180.9,230.9,179.7,229.1,179.3z"/>
	<path class="st1" d="M128.6,59.3c-3-3.1-13.2,2.8-9.6,6.6c2,2.1,3.7,4.5,5,7.1c1.2,2.3,5,1.4,6.8,0.5c1.6-0.8,5.2-3.3,3.9-5.6
		C133.2,64.7,131.1,61.9,128.6,59.3z"/>
	<path class="st1" d="M81.8,318.4c-1.4-0.2-3-0.2-4.3,0.4c-0.8,0.4-2.1,1-2.1,2.1v1.6c0,2.6,3.2,3.9,5.4,4.2c1.4,0.2,3,0.2,4.3-0.4
		c0.8-0.4,2.1-1,2.1-2.1v-1.6C87.2,320,84,318.7,81.8,318.4z"/>
	<path class="st1" d="M217.9,283.6c-0.1,0-0.1-0.1-0.1-0.1c-0.1-0.1-0.2-0.2-0.3-0.3c-0.1-0.1-0.2-0.3-0.2-0.4c0,0,0,0,0-0.1
		c-0.1-0.4-0.3-0.8-0.4-1.2c0-0.1,0-0.2,0-0.2c0-0.2,0-0.4,0-0.6c0.2-2.6-3.3-3.9-5.4-4.2c-1.4-0.2-3-0.2-4.3,0.4
		c-0.9,0.4-2,1-2.1,2.1c-0.2,3.3,1.3,6.1,3.8,8.1c2.1,1.7,5.9,2.3,8.4,1.2c0.9-0.4,1.9-1,2.1-2.1
		C219.5,285.1,218.7,284.2,217.9,283.6z"/>
	<path class="st1" d="M251.9,292.3c-0.9-2.6-4.6-3.4-6.9-3.4h-0.8c-1.7,0-5.7,1-4.7,3.5c0.9,2.6,4.6,3.4,6.9,3.4h0.8
		C249,295.8,252.9,294.8,251.9,292.3z"/>
	<path class="st1" d="M99.2,31.4c-0.6-1.8-0.8-3.5-0.7-5.4c0.2-2.6-3.4-3.9-5.4-4.2c-1.8-0.2-6.2-0.1-6.4,2.5
		c-0.2,2.5,0.1,5,0.9,7.3c0.8,2.5,4.6,3.5,6.9,3.4C96.3,34.9,100.1,34,99.2,31.4z"/>
	<path class="st2" d="M60.7,147.9c-0.8-2.4-6.3-3.9-8.3-2c-2.9,3-7.1,5.1-11,3.3c-1.8-0.9-4.7-1.6-6.4,0c-1.6,1.5-0.5,3.6,1.1,4.3
		c1.4,0.7,2.8,1.2,4.3,1.6c0.1,0.2,0.2,0.5,0.4,0.8c1.3,1.9,4.1,2.6,6.2,2.1c0.3-0.1,0.6-0.2,0.9-0.3c-0.6,0.9-1.2,1.8-1.8,2.7
		c-1.4,1.9,1.6,3.7,2.8,4.1c1.9,0.7,2.9-5,4.2-6.9c2.8-3.7,5.2-7.8,9.3-6C64,152.2,62.3,148.7,60.7,147.9z"/>
	<path class="st2" d="M255.9,370.6c-11-4.8-22.3-9.4-34.8-11.3c4-2.5,13.2-8.2,18-8.7c4.2-0.4-4.6-4.1-8.2-3.7
		c-8.2,0.9-8.3,5-14.3,11c-0.4,0.4-6,0-6.1,0.5c-1.6,0-3.4,0-5.4,0c0.2,1,0.4,2.1,0.7,3.1c4.4-0.1,9,0,12.4,0.7
		c14.2,3,31.3,14,42,18.7C264.1,382.7,261.7,373.1,255.9,370.6z"/>
	<path class="st2" d="M54.4,377.4c9.4-0.6,23.1-4.3,19.2-0.5c-1.8,4.3-5.6,9.2-8.4,12.9c-2.6,3.4,0.3,11.1,2.4,8.3
		c3.3-4.4,5.4-15.4,7.5-20.7c0.6-1.5,4.2-1.5,2.8-2.6c3.6-0.9,7.1-2.1,10.5-3.6c-0.6,2.8-2.5,6.5-3.1,9.3c-0.5,2.2,2.3,2.7,3.8,3.5
		c0.9,0.4,4.4,1.4,4.9-0.7c0.8-3.3-6.9-2.2-3.3-9.9c1-2,4.5-3.7,3-4.5c0,0-0.1,0-0.1-0.1c2-1,4-2.2,6.1-3.4c-0.6-0.5-1.2-1-1.9-1.4
		c-13,6.2-31.6,8.5-46.7,5.2C45.7,368.2,50.9,377.7,54.4,377.4z"/>
	<path class="st2" d="M18.1,100l-18-10.6c-0.1,0-0.1-0.1,0-0.2l6.2-10.6c0-0.1,0.1-0.1,0.2,0l18,10.6c0.1,0,0.1,0.1,0,0.2L18.2,100
		C18.2,100,18.1,100,18.1,100z"/>
	<path class="st2" d="M51.3,16.9c-2.2,3-6.5,3.6-9.5,1.4l-8.2-6.1c-3-2.2-3.6-6.5-1.4-9.5c2.2-3,6.5-3.6,9.5-1.4l8.2,6.1
		C52.9,9.6,53.5,13.9,51.3,16.9z"/>
	<path class="st2" d="M164.1,60.4l-8-6.2c-1.7-1.3-2-3.9-0.7-5.6c1.3-1.7,3.9-2,5.6-0.7l8,6.2c1.7,1.3,2,3.9,0.7,5.6
		C168.3,61.4,165.8,61.7,164.1,60.4z"/>
	<path class="st3" d="M46.4,58.1h-0.9c-3.5,0-6.4-2.9-6.4-6.4c0-3.5,2.9-6.4,6.4-6.4h0.9c3.5,0,6.4,2.9,6.4,6.4
		C52.8,55.3,49.9,58.1,46.4,58.1z"/>
	<path class="st3" d="M150.5,24.3l-7.7-9.6c-2-2.6-1.6-6.3,0.9-8.4c2.6-2,6.3-1.6,8.4,0.9l7.7,9.6c2,2.6,1.6,6.3-0.9,8.4
		C156.4,27.2,152.6,26.8,150.5,24.3z"/>
	<path class="st3" d="M124.2,105.8c-2.3,0-4.2-1.9-4.2-4.2v-3.5c0-2.3,1.9-4.2,4.2-4.2c2.3,0,4.2,1.9,4.2,4.2v3.5
		C128.4,104,126.5,105.8,124.2,105.8z"/>
	<path class="st3" d="M61.8,219.8h-2.3c-2.5,0-4.6-2.1-4.6-4.6s2.1-4.6,4.6-4.6h2.3c2.5,0,4.6,2.1,4.6,4.6S64.3,219.8,61.8,219.8z"
		/>
	<path class="st3" d="M23.9,161.9c-3.6,0-6.5-2.9-6.5-6.5v-4c0-3.6,2.9-6.5,6.5-6.5c3.6,0,6.5,2.9,6.5,6.5v4
		C30.4,159,27.5,161.9,23.9,161.9z"/>
	<path class="st3" d="M180.2,109h-0.3c-2.5,0-4.5-2-4.5-4.5c0-2.5,2-4.5,4.5-4.5h0.3c2.5,0,4.5,2,4.5,4.5
		C184.7,107,182.6,109,180.2,109z"/>
	<path class="st3" d="M100.6,136.1h-0.3c-1.7,0-3.1-1.4-3.1-3.1c0-1.7,1.4-3.1,3.1-3.1h0.3c1.7,0,3.1,1.4,3.1,3.1
		C103.7,134.7,102.3,136.1,100.6,136.1z"/>
	<path class="st3" d="M139.6,186.2h-2.7c-3.2,0-5.7-2.6-5.7-5.7c0-3.2,2.6-5.7,5.7-5.7h2.7c3.2,0,5.7,2.6,5.7,5.7
		C145.3,183.6,142.7,186.2,139.6,186.2z"/>
	<path class="st3" d="M136.5,93.3c-0.9,0-1.6-0.7-1.6-1.6v-3c0-0.9,0.7-1.6,1.6-1.6c0.9,0,1.6,0.7,1.6,1.6v3
		C138.1,92.6,137.4,93.3,136.5,93.3z"/>
	<path class="st3" d="M63.3,50.2c-2.5,0-4.6-2.1-4.6-4.6v-0.4c0-2.5,2.1-4.6,4.6-4.6c2.5,0,4.6,2,4.6,4.6v0.4
		C67.8,48.1,65.8,50.2,63.3,50.2z"/>
	<path class="st3" d="M193.5,201.5h-4.8c-1.1,0-2-0.9-2-2c0-1.1,0.9-2,2-2h4.8c1.1,0,2,0.9,2,2C195.5,200.6,194.6,201.5,193.5,201.5
		z"/>
	<path class="st3" d="M102.6,63.8c-1.4,1.7-4,1.9-5.6,0.4L91.9,60c-1.7-1.4-1.9-4-0.4-5.6c1.4-1.7,4-1.9,5.6-0.4l5.1,4.3
		C103.8,59.6,104,62.2,102.6,63.8z"/>
	<path class="st3" d="M43.7,109h-1.4c-1.2,0-2.3-1-2.3-2.3c0-1.2,1-2.3,2.3-2.3h1.4c1.2,0,2.3,1,2.3,2.3C46,108,44.9,109,43.7,109z"
		/>
	<path class="st3" d="M180.7,17.4c-2.5,0-4.5-2-4.5-4.5v-1.3c0-2.5,2-4.5,4.5-4.5c2.5,0,4.5,2,4.5,4.5v1.3
		C185.2,15.4,183.2,17.4,180.7,17.4z"/>
	<path class="st3" d="M206.6,105.8c-2.3,0-4.2-1.9-4.2-4.2v-4.2c0-2.3,1.9-4.2,4.2-4.2c2.3,0,4.2,1.9,4.2,4.2v4.2
		C210.8,104,208.9,105.8,206.6,105.8z"/>
	<path class="st4" d="M35.9,199.3c-2.4-0.6-3.9-3.1-3.3-5.6l1-4.1c0.6-2.4,3.1-3.9,5.6-3.3c2.4,0.6,3.9,3.1,3.3,5.6l-1,4.1
		C40.9,198.5,38.4,199.9,35.9,199.3z"/>
	<path class="st4" d="M176.9,80.9h-6.3c-2.1,0-3.9-1.7-3.9-3.9c0-2.1,1.7-3.9,3.9-3.9h6.3c2.1,0,3.9,1.7,3.9,3.9
		C180.8,79.2,179.1,80.9,176.9,80.9z"/>
	<path class="st4" d="M205.8,228.6c-1.7,1.2-4.1,0.8-5.4-0.9l-4.1-5.7c-1.2-1.7-0.8-4.1,0.9-5.4c1.7-1.2,4.1-0.8,5.4,0.9l4.1,5.7
		C207.9,225,207.5,227.4,205.8,228.6z"/>
	<path class="st4" d="M222.2,137.7c-0.9,0-1.7-0.7-1.7-1.7v-5.5c0-0.9,0.7-1.6,1.7-1.6c0.9,0,1.6,0.7,1.6,1.6v5.5
		C223.8,136.9,223.1,137.7,222.2,137.7z"/>
	<path class="st4" d="M37.6,130.6h-1.8c-2.4,0-4.3-1.9-4.3-4.3c0-2.4,1.9-4.3,4.3-4.3h1.8c2.4,0,4.3,1.9,4.3,4.3
		C41.9,128.6,40,130.6,37.6,130.6z"/>
	<path class="st4" d="M135.1,267.7h-1.8c-2.3,0-4.2-1.9-4.2-4.2c0-2.3,1.9-4.2,4.2-4.2h1.8c2.3,0,4.2,1.9,4.2,4.2
		C139.3,265.9,137.4,267.7,135.1,267.7z"/>
	<path class="st4" d="M99.9,154.8c-2,0-3.7-1.6-3.7-3.7v-2.4c0-2,1.7-3.7,3.7-3.7c2,0,3.7,1.7,3.7,3.7v2.4
		C103.5,153.1,101.9,154.8,99.9,154.8z"/>
	<path class="st4" d="M137.3,12.2c-1,0-1.8-0.8-1.8-1.8V9c0-1,0.8-1.8,1.8-1.8c1,0,1.8,0.8,1.8,1.8v1.4
		C139.2,11.4,138.3,12.2,137.3,12.2z"/>
	<path class="st4" d="M28.4,24.2h-1c-1.6,0-3-1.3-3-3c0-1.6,1.3-3,3-3h1c1.6,0,3,1.3,3,3C31.4,22.9,30,24.2,28.4,24.2z"/>
	<path class="st4" d="M29.1,58.6h-1.7c-1.3,0-2.4-1.1-2.4-2.4c0-1.3,1.1-2.4,2.4-2.4h1.7c1.3,0,2.4,1.1,2.4,2.4
		C31.5,57.5,30.4,58.6,29.1,58.6z"/>
	<path class="st4" d="M32.3,70.7c-1.4-0.2-3-0.2-4.3,0.4c-0.8,0.4-2.1,1-2.1,2.1V78c0,2.6,3.2,3.9,5.4,4.2c1.4,0.2,3,0.2,4.3-0.4
		c0.8-0.4,2.1-1,2.1-2.1v-4.8C37.7,72.3,34.5,70.9,32.3,70.7z"/>
	<path class="st4" d="M195.1,35.8c-0.3-1-1.5-2-2.4-2.4c-1.4-0.7-3-1.1-4.5-1c-1.2,0-2.9,0.2-3.7,1c-1.6,1.6-3.2,3.2-4.8,4.8
		c-0.7,0.7-1.3,1.4-1,2.5c0.3,1,1.5,2,2.4,2.4c1.4,0.7,3,1.1,4.5,1c1.2,0,2.9-0.2,3.7-1c1.6-1.6,3.2-3.2,4.8-4.8
		C194.8,37.5,195.4,36.9,195.1,35.8z"/>
	<path class="st4" d="M222.7,5.9c-0.5-1.1-1.6-2.3-2.6-2.9c-1.6-1-4.7-2.5-6.2-0.6c-1.1,1.4-2.3,2.9-3.4,4.3
		c-0.6,0.7-0.3,1.9,0.1,2.7c0.5,1.1,1.6,2.3,2.6,2.9c1.6,1,4.7,2.5,6.2,0.6c1.1-1.4,2.3-2.9,3.4-4.3C223.3,7.9,223,6.7,222.7,5.9z"
		/>
</g>
</svg>
