<svg xmlns:dc="http://purl.org/dc/elements/1.1/" xmlns:cc="http://creativecommons.org/ns#" xmlns:rdf="http://www.w3.org/1999/02/22-rdf-syntax-ns#" xmlns:svg="http://www.w3.org/2000/svg" xmlns="http://www.w3.org/2000/svg" xmlns:sodipodi="http://sodipodi.sourceforge.net/DTD/sodipodi-0.dtd" xmlns:inkscape="http://www.inkscape.org/namespaces/inkscape" viewBox="0 0 16.933333 21.1666675" version="1.1" x="0px" y="0px"><g transform="translate(0,-280.06665)"><path style="color:#000000;font-style:normal;font-variant:normal;font-weight:normal;font-stretch:normal;font-size:medium;line-height:normal;font-family:sans-serif;font-variant-ligatures:normal;font-variant-position:normal;font-variant-caps:normal;font-variant-numeric:normal;font-variant-alternates:normal;font-feature-settings:normal;text-indent:0;text-align:start;text-decoration:none;text-decoration-line:none;text-decoration-style:solid;text-decoration-color:#000000;letter-spacing:normal;word-spacing:normal;text-transform:none;writing-mode:lr-tb;direction:ltr;text-orientation:mixed;dominant-baseline:auto;baseline-shift:baseline;text-anchor:start;white-space:normal;shape-padding:0;clip-rule:nonzero;display:inline;overflow:visible;visibility:visible;opacity:1;isolation:auto;mix-blend-mode:normal;color-interpolation:sRGB;color-interpolation-filters:linearRGB;solid-color:#000000;solid-opacity:1;vector-effect:none;fill:#000000;fill-opacity:1;fill-rule:nonzero;stroke:none;stroke-width:0.5291667;stroke-linecap:round;stroke-linejoin:round;stroke-miterlimit:4;stroke-dasharray:none;stroke-dashoffset:0;stroke-opacity:1;paint-order:normal;color-rendering:auto;image-rendering:auto;shape-rendering:auto;text-rendering:auto;enable-background:accumulate" d="m 7.090384,281.12541 a 0.26460981,0.26460981 0 0 0 -0.210937,0.13282 l -4.582027,7.9375 a 0.26460981,0.26460981 0 0 0 0.22851,0.39648 h 3.51172 l -1.4707,5.48828 a 0.26460981,0.26460981 0 0 0 0.48437,0.19922 l 4.583986,-7.9375 A 0.26460981,0.26460981 0 0 0 9.406791,286.94573 H 5.89507 l 1.468752,-5.48829 a 0.26460981,0.26460981 0 0 0 -0.273438,-0.33203 z m -0.755859,2.13672 -1.041015,3.88086 a 0.26460981,0.26460981 0 0 0 0.25586,0.33203 H 8.947806 L 5.5982,293.27776 6.637259,289.39494 A 0.26460981,0.26460981 0 0 0 6.383353,289.06291 H 2.98492 Z"/><path style="color:#000000;font-style:normal;font-variant:normal;font-weight:normal;font-stretch:normal;font-size:medium;line-height:normal;font-family:sans-serif;font-variant-ligatures:normal;font-variant-position:normal;font-variant-caps:normal;font-variant-numeric:normal;font-variant-alternates:normal;font-feature-settings:normal;text-indent:0;text-align:start;text-decoration:none;text-decoration-line:none;text-decoration-style:solid;text-decoration-color:#000000;letter-spacing:normal;word-spacing:normal;text-transform:none;writing-mode:lr-tb;direction:ltr;text-orientation:mixed;dominant-baseline:auto;baseline-shift:baseline;text-anchor:start;white-space:normal;shape-padding:0;clip-rule:nonzero;display:inline;overflow:visible;visibility:visible;opacity:1;isolation:auto;mix-blend-mode:normal;color-interpolation:sRGB;color-interpolation-filters:linearRGB;solid-color:#000000;solid-opacity:1;vector-effect:none;fill:#000000;fill-opacity:1;fill-rule:nonzero;stroke:none;stroke-width:0.52916676;stroke-linecap:butt;stroke-linejoin:round;stroke-miterlimit:4;stroke-dasharray:none;stroke-dashoffset:0;stroke-opacity:1;paint-order:normal;color-rendering:auto;image-rendering:auto;shape-rendering:auto;text-rendering:auto;enable-background:accumulate" d="m 11.230554,287.47593 c -1.019495,0 -1.851107,0.83357 -1.851107,1.85307 0,1.01948 0.831612,1.8511 1.851107,1.8511 1.019496,0 1.85306,-0.83162 1.85306,-1.8511 0,-1.0195 -0.833564,-1.85307 -1.85306,-1.85307 z m 0,0.52917 c 0.733584,0 1.323893,0.59032 1.323893,1.3239 0,0.73358 -0.590309,1.32193 -1.323893,1.32193 -0.733585,0 -1.32194,-0.58835 -1.32194,-1.32193 0,-0.73358 0.588355,-1.3239 1.32194,-1.3239 z"/><path style="color:#000000;font-style:normal;font-variant:normal;font-weight:normal;font-stretch:normal;font-size:medium;line-height:normal;font-family:sans-serif;font-variant-ligatures:normal;font-variant-position:normal;font-variant-caps:normal;font-variant-numeric:normal;font-variant-alternates:normal;font-feature-settings:normal;text-indent:0;text-align:start;text-decoration:none;text-decoration-line:none;text-decoration-style:solid;text-decoration-color:#000000;letter-spacing:normal;word-spacing:normal;text-transform:none;writing-mode:lr-tb;direction:ltr;text-orientation:mixed;dominant-baseline:auto;baseline-shift:baseline;text-anchor:start;white-space:normal;shape-padding:0;clip-rule:nonzero;display:inline;overflow:visible;visibility:visible;opacity:1;isolation:auto;mix-blend-mode:normal;color-interpolation:sRGB;color-interpolation-filters:linearRGB;solid-color:#000000;solid-opacity:1;vector-effect:none;fill:#000000;fill-opacity:1;fill-rule:nonzero;stroke:none;stroke-width:0.5291667;stroke-linecap:butt;stroke-linejoin:round;stroke-miterlimit:4;stroke-dasharray:none;stroke-dashoffset:0;stroke-opacity:1;paint-order:normal;color-rendering:auto;image-rendering:auto;shape-rendering:auto;text-rendering:auto;enable-background:accumulate" d="m 11.230554,291.70847 c -1.900479,0 -3.438606,1.53897 -3.438606,3.44019 v 0.52942 a 0.26454469,0.26466678 0 0 0 0.265559,0.26372 h 6.348048 a 0.26454469,0.26466678 0 0 0 0.265559,-0.26372 v -0.52942 c 0,-1.90122 -1.540081,-3.44019 -3.44056,-3.44019 z m 0,0.52941 c 1.61657,0 2.911394,1.29367 2.911394,2.91078 v 0.26373 H 8.321113 v -0.26373 c 0,-1.61711 1.29287,-2.91078 2.909441,-2.91078 z"/></g><text x="0" y="31.933334" fill="#000000" font-size="5px" font-weight="bold" font-family="'Helvetica Neue', Helvetica, Arial-Unicode, Arial, Sans-serif">Created by Ranah Pixel Studio</text><text x="0" y="36.933334" fill="#000000" font-size="5px" font-weight="bold" font-family="'Helvetica Neue', Helvetica, Arial-Unicode, Arial, Sans-serif">from the Noun Project</text></svg>