<?xml version="1.0" encoding="utf-8"?>
<!-- Generator: Adobe Illustrator 25.0.0, SVG Export Plug-In . SVG Version: 6.00 Build 0)  -->
<svg version="1.1" id="Layer_1" xmlns="http://www.w3.org/2000/svg" xmlns:xlink="http://www.w3.org/1999/xlink" x="0px" y="0px"
	 viewBox="0 0 251.8 246.6" style="enable-background:new 0 0 251.8 246.6;" xml:space="preserve">
<style type="text/css">
	.st0{fill-rule:evenodd;clip-rule:evenodd;fill:#C2C945;}
	.st1{fill-rule:evenodd;clip-rule:evenodd;fill:#B0B836;}
	.st2{fill-rule:evenodd;clip-rule:evenodd;fill:#C9CF54;}
	.st3{fill-rule:evenodd;clip-rule:evenodd;fill:#E0E673;}
	.st4{fill-rule:evenodd;clip-rule:evenodd;fill:#D1D657;}
	.st5{fill-rule:evenodd;clip-rule:evenodd;fill:#BFC740;}
	.st6{fill-rule:evenodd;clip-rule:evenodd;fill:#C7CF4D;}
	.st7{fill-rule:evenodd;clip-rule:evenodd;fill:#C9D152;}
	.st8{fill-rule:evenodd;clip-rule:evenodd;fill:#D4D95C;}
	.st9{fill-rule:evenodd;clip-rule:evenodd;fill:#D9DE63;}
	.st10{fill-rule:evenodd;clip-rule:evenodd;fill:#E8ED82;}
</style>
<polygon class="st0" points="49.9,147 50.4,142.9 53.6,134.6 58.1,123.7 64.1,111.3 69.8,98.9 75.5,87.9 79.9,79.9 82.9,76.5 
	84,75.3 84.7,74.7 84.9,74 85.4,73.5 85.4,73 86.1,73 87,73 88.6,73.3 92.9,73.5 102.3,74.7 114.5,76 128.4,78.1 141.9,79.7 
	154.1,81.5 163,83.1 167.4,84.7 168.3,85.4 169.2,86.3 169.6,86.8 170.3,87.2 171,87.9 172.6,88.8 173.8,91.8 175.8,99.6 
	177.7,110.1 179.7,122.7 181.1,134.9 182.2,146.3 182.5,154.6 181.8,158.9 180.2,160.1 179.5,161 178.8,161.9 178.3,162.8 
	177.9,163.5 177.4,164.6 176.7,165.8 176.1,167.4 172.2,170.4 164.8,175.4 154.5,181.6 142.9,188.7 130.7,195.1 120,200.6 
	111.3,204.3 106.5,205.2 103.9,204.5 102.3,204 101.2,203.8 100.7,203.8 100.3,203.6 99.8,203.6 99.1,203.3 98,203.3 94.6,200.6 
	88.8,194.6 81,185.9 72.8,176.3 64.3,166 57.2,157.1 52,150.2 "/>
<polygon class="st1" points="93.9,89.3 92.7,87 92,84.7 91.1,82.4 90.4,80.4 89.7,78.1 89.5,75.8 89.7,73.7 90.7,72.1 92,69.6 
	94.1,66.9 96.8,63.2 100.3,59.1 103.7,54.3 107.6,49.5 111.5,44 115.4,38.7 118.6,33.4 121.6,29.3 123.9,25.6 126.1,22.7 128,19.9 
	129.8,17.4 131.4,14.9 133,12.4 134.4,9.4 136,6.9 137.6,4.6 139.4,3 140.6,1.4 141.9,0.7 142.9,0 143.3,0 143.8,0.2 145.1,1.6 
	145.8,2.7 147,4.6 148.1,6.9 149.3,10.3 150,13.7 151.3,18.1 152.5,22.4 153.8,27 155,31.4 156.1,36 156.8,39.8 157.7,43.5 
	158.2,46.7 159.1,50.6 160,54.3 161.4,58.4 162.5,62.1 163.9,66 165.1,69.6 166,73 166.4,75.8 166.9,78.1 167.4,79.9 167.8,81.8 
	167.8,83.1 167.8,84.5 167.4,85.6 166.7,87.2 163.7,90 158.7,95 152,101.4 144.7,108.8 137.1,115.6 131,121.6 126.6,125.9 
	125,127.5 124.5,127.5 123.4,127.8 121.8,127.8 120,128 117.7,127.8 115.6,127.5 113.6,126.9 111.9,126.2 109.9,123.7 107.6,119.5 
	104.6,114.3 101.9,108.3 99.1,102.1 96.8,96.6 94.8,92.3 "/>
<polygon class="st2" points="94.3,90 93.2,87.7 92.5,85.6 91.6,83.4 90.9,81.3 90.2,79 90.2,76.7 90.4,74.7 91.3,73 92.5,70.8 
	94.6,67.8 97.1,64.3 100.5,60.5 103.9,55.6 107.6,51.1 111.5,45.8 115.4,40.5 118.6,35.3 121.3,31.1 123.9,27.5 126.1,24.7 
	127.7,21.8 129.6,19.5 131,16.7 132.6,14.2 133.9,11.2 135.8,8.7 137.4,6.6 139.2,5 140.6,3.7 141.9,3 142.6,2.3 143.1,2.3 
	143.5,2.5 144.7,3.9 145.4,5 146.5,6.9 147.4,9.2 148.6,12.4 149.3,15.8 150.6,19.9 151.8,24.3 153.2,28.9 154.3,33.2 155.4,37.6 
	156.4,41.7 157.3,45.1 157.7,48.3 158.7,52 159.6,55.6 160.9,59.5 162.1,63.2 163.2,67.1 164.1,70.5 165.1,74.2 165.3,76.7 166,79 
	166.4,80.8 166.9,82.7 166.9,84 166.9,85.4 166.4,86.6 166,88.2 163.2,90.7 158.2,95.5 151.6,101.9 144.2,109 136.9,115.6 
	130.7,121.6 126.4,125.9 124.8,127.5 124.3,127.5 123.2,127.8 121.6,127.8 120,128 117.7,127.8 115.6,127.5 113.8,126.9 
	112.2,126.2 110.1,123.7 107.8,119.8 105.1,114.5 102.3,108.8 99.6,102.6 97.3,97.3 95.2,92.7 "/>
<polygon class="st3" points="94.6,90.9 93.6,88.6 92.9,86.6 92,84.3 91.6,82.2 90.9,79.9 90.9,77.6 91.1,75.6 92,74 93.2,71.7 
	95.2,68.7 97.8,65.3 101,61.6 104.2,57 107.8,52.4 111.5,47.2 115.4,42.1 118.6,37.1 121.3,33 123.6,29.3 125.9,26.6 127.5,23.6 
	129.3,21.3 131,18.5 132.6,16 133.7,13.1 135.3,10.8 136.9,8.7 138.7,7.3 139.9,5.7 141.3,5 142.2,4.4 142.6,4.4 143.1,4.6 144.2,6 
	144.9,7.1 146.1,8.9 147,11.2 148.1,14.4 148.8,17.9 150.2,22 151.3,26.1 152.7,30.7 153.8,34.8 155,39.2 155.7,43 156.6,46.5 
	157.1,49.7 158,53.1 158.9,56.8 160.3,60.9 161.4,64.6 162.5,68.5 163.5,71.9 164.1,75.3 164.4,77.9 165.1,80.1 165.5,82 166,83.6 
	166,84.7 166.2,86.1 165.8,87.5 165.1,88.8 162.3,91.1 157.5,96.2 150.9,102.4 143.8,109.5 136.7,115.9 130.5,121.8 126.1,125.9 
	124.8,127.5 124.3,127.5 123.2,127.8 121.6,127.8 120,128 117.7,127.8 115.6,127.5 113.8,126.9 112.2,126.2 110.1,123.7 107.8,120 
	105.1,114.7 102.6,109.2 99.8,103.3 97.5,98 95.7,93.7 "/>
<polygon class="st4" points="95.5,90.5 94.6,88.4 93.9,86.3 92.9,84 92.5,82 91.8,79.9 91.8,77.9 92,75.8 92.9,74.2 94.1,71.9 
	96.2,69.2 98.4,65.7 101.6,62.1 104.9,57.5 108.5,52.9 111.9,47.9 115.6,43 118.6,38 121.3,34.1 123.6,30.7 125.9,27.9 127.5,25.2 
	129.1,22.9 130.7,20.4 132.3,17.9 133.7,14.9 135.3,12.6 136.7,10.5 138.5,9.2 139.7,7.6 141,6.9 141.7,6.2 142.2,6.2 142.6,6.4 
	143.8,7.8 144.5,8.9 145.6,11 146.5,13.3 147.7,16.3 148.4,19.5 149.5,23.6 150.6,27.7 152,32.1 152.9,36.2 154.1,40.3 155,44.2 
	155.7,47.6 156.1,50.6 156.8,54 157.7,57.5 159.1,61.4 160.3,64.8 161.4,68.5 162.3,71.9 163.2,75.3 163.5,77.9 164.1,79.9 
	164.6,81.8 165.1,83.4 165.1,84.5 165.1,85.9 164.6,87 164.1,88.4 161.4,90.7 156.6,95.5 150.2,101.7 143.3,108.5 136.2,115 
	130.3,120.7 126.1,124.6 124.8,126.2 124.3,126.2 123.4,126.4 121.8,126.4 120.2,126.6 118.1,126.4 116.1,126.4 114.2,125.7 
	112.9,125 110.8,122.5 108.5,118.8 106,113.8 103.5,108.3 100.7,102.4 98.4,97.3 96.6,93 "/>
<polygon class="st5" points="96.8,90 95.7,87.9 95,85.9 94.1,83.8 93.4,81.8 92.7,79.7 92.7,77.6 92.9,75.8 93.9,74.2 95,72.1 
	97.1,69.4 99.4,66 102.3,62.5 105.5,58.2 109,53.8 112.4,48.8 115.8,44 119,39.2 121.8,35.3 123.9,32.1 126.1,29.3 127.7,26.6 
	129.3,24.3 130.7,22 132.3,19.5 133.5,16.7 135.1,14.7 136.4,12.6 138.3,11.2 139.4,9.8 140.6,9.2 141.3,8.5 141.7,8.5 142.2,8.7 
	143.3,9.8 144,11 145.1,12.6 146.1,14.9 147.2,17.9 147.9,21.1 149,25 150.2,28.9 151.3,33.2 152.2,37.3 153.4,41.4 154.3,45.1 
	155,48.5 155.4,51.3 156.1,54.7 157.1,58.2 158.4,61.8 159.6,65.3 160.7,68.9 161.4,72.1 162.3,75.3 162.5,77.6 163.2,79.9 
	163.7,81.5 164.1,83.1 164.1,84.3 164.1,85.6 163.7,86.8 163.2,88.2 160.7,90.5 155.9,95.3 149.7,101 143.1,107.9 136.2,114 
	130.5,119.5 126.4,123.4 125,125 124.5,125 123.6,125 122,125 120.4,125.3 118.4,125 116.5,124.8 114.7,124.1 113.3,123.4 
	111.3,121.1 109.2,117.7 106.7,112.7 104.2,107.4 101.4,101.7 99.4,96.9 97.8,92.5 "/>
<polygon class="st0" points="100.7,90.9 100,88.8 99.6,87 98.9,85 98.7,83.1 98.2,81.1 98.2,79 98.4,76.9 99.4,75.6 100.3,73.3 
	101.9,70.5 103.9,67.1 106.7,63.4 109.4,59.1 112.4,54.5 115.6,49.5 118.8,44.7 121.6,39.8 123.9,36 125.9,32.5 127.7,29.8 
	129.1,27 130.7,24.7 131.9,22.4 133.2,19.9 134.4,17.2 135.8,14.9 137.1,12.8 138.7,11.4 139.7,9.8 140.8,9.2 141.3,8.5 141.7,8.5 
	141.9,8.7 143.1,9.8 143.8,11 144.5,12.6 145.1,14.9 146.1,17.9 146.5,21.1 147.4,24.7 148.1,28.9 149.3,33 150,36.9 150.6,41 
	151.1,44.4 151.8,47.9 152,50.6 152.7,54 153.4,57.2 154.3,60.9 155,64.3 155.9,67.8 156.6,71 157.3,74.2 157.3,76.5 157.7,78.5 
	158,80.1 158.4,81.8 158.4,82.9 158.4,84.3 158,85.4 157.5,86.8 155.2,89.3 151.1,94.1 145.6,100.1 139.9,106.9 133.9,113.4 
	128.9,119.1 125.2,123 124.1,124.6 123.6,124.6 122.7,124.8 121.3,124.8 120.2,125 118.4,124.8 116.8,124.8 115.2,124.3 114,123.7 
	112.4,121.4 110.6,117.9 108.5,113.1 106.7,108.1 104.6,102.6 102.8,97.6 101.4,93.4 "/>
<polygon class="st6" points="105.3,92.3 104.6,90.2 104.2,88.2 103.5,86.1 103.5,84.3 103.3,82.2 103.5,80.1 103.7,78.3 104.6,76.7 
	105.3,74.4 106.9,71.7 108.7,68.2 111,64.6 113.3,60 116.1,55.4 118.8,50.4 121.6,45.3 123.9,40.3 126.1,36.4 127.7,33 129.6,30.2 
	130.7,27.5 132.1,25.2 133.2,22.7 134.6,20.2 135.5,17.2 136.9,14.9 138,12.8 139.4,11.4 140.3,9.8 141.3,9.2 141.7,8.5 142.2,8.5 
	142.4,8.7 143.1,9.8 143.5,11 144,12.6 144.5,14.7 145.1,17.6 145.4,20.8 145.8,24.5 146.5,28.4 147.2,32.5 147.7,36.2 148.1,40.1 
	148.6,43.5 149,46.9 149,49.7 149.3,53.1 149.7,56.6 150.4,60 150.6,63.2 151.1,66.6 151.3,69.8 151.8,73 151.8,75.3 152.2,77.6 
	152.5,79.2 152.7,80.8 152.7,82 152.7,83.1 152.2,84.3 151.8,85.6 150,88.2 146.3,93.2 141.7,99.4 136.7,106.3 131.6,112.7 
	127.3,118.6 124.1,122.7 123.2,124.3 122,124.6 120,125.3 118.4,125.3 117,125.3 115.8,124.8 114.9,124.1 113.6,121.8 112.4,118.4 
	110.8,113.8 109.4,108.8 107.8,103.3 106.7,98.7 105.8,94.8 "/>
<polygon class="st7" points="109.4,93 109,90.9 108.7,89.1 108.5,87 108.5,85.2 108.5,83.1 108.7,81.3 109.2,79.5 109.9,77.9 
	110.6,75.6 111.9,72.8 113.3,69.4 115.4,65.5 117.2,60.9 119.5,56.1 121.8,51.1 124.5,46 126.4,41 128.2,36.9 129.8,33.2 
	131.4,30.5 132.3,27.7 133.5,25.4 134.4,22.9 135.5,20.4 136.4,17.4 137.6,15.1 138.7,13.1 139.9,11.4 140.6,9.8 141.3,9.2 
	141.7,8.5 142.2,8.5 142.2,8.7 142.9,9.8 143.1,10.8 143.3,12.4 143.5,14.4 144,17.4 144,20.4 144.5,24 144.7,27.7 145.1,31.8 
	145.1,35.5 145.4,39.4 145.6,42.8 145.8,46.3 145.8,49 145.8,52.2 146.1,55.6 146.3,59.1 146.3,62.3 146.5,65.7 146.5,68.7 
	146.7,71.7 146.7,74 146.7,76.3 147,77.9 147.2,79.5 147,80.6 147,81.8 146.7,82.9 146.5,84.3 144.7,87 141.7,92.1 137.8,98.5 
	133.7,105.6 129.3,112.2 125.9,118.2 123.4,122.5 122.5,124.1 121.6,124.3 119.7,125 117.4,125.3 115.8,124.1 114.9,122.1 
	114,118.6 112.9,114 111.9,109.2 111,104 110.3,99.4 109.7,95.5 "/>
<polygon class="st4" points="113.3,94.1 113.3,92.1 113.3,90.2 113.3,88.4 113.6,86.6 113.8,84.5 114.2,82.4 114.7,80.6 115.4,79 
	115.8,76.7 117,74 118.1,70.5 119.7,66.4 121.1,61.6 122.9,57 125,51.8 127.1,46.5 128.7,41.4 130.3,37.3 131.4,33.7 132.8,30.9 
	133.7,28.2 134.6,25.9 135.5,23.4 136.7,20.8 137.4,17.9 138.3,15.3 139.2,13.1 140.1,11.4 140.8,9.8 141.5,9.2 141.9,8.5 
	142.2,8.5 142.6,9.6 142.6,10.5 142.9,12.1 142.9,14.2 143.1,16.9 143.1,20.2 143.1,23.8 143.1,27.5 143.1,31.4 143.1,35 
	143.1,38.9 143.1,42.1 143.1,45.6 142.6,48.3 142.4,51.5 142.2,54.7 142.2,58.2 141.9,61.4 141.7,64.8 141.5,67.8 141.5,70.8 
	141.3,73 141.3,75.1 141.3,76.7 141.5,78.3 141.3,79.5 141.3,80.8 141,82 140.8,83.4 139.2,85.9 136.9,90.9 133.7,97.6 130.5,104.9 
	127.1,111.7 124.3,118.2 122.3,122.3 121.6,124.1 120.9,124.3 119.5,125 117.7,125.3 116.5,124.3 115.8,122.3 115.4,119.1 
	114.9,114.5 114.5,109.9 114,104.6 113.8,100.1 113.3,96.4 "/>
<polygon class="st8" points="117.9,94.8 117.9,93 117.9,91.1 118.1,89.3 118.6,87.5 118.8,85.6 119.3,83.8 120,82 120.7,80.4 
	121.1,77.9 122,75.1 122.7,71.4 124.1,67.6 125.2,62.7 126.6,57.7 128,52.4 129.8,47.2 131.2,41.9 132.6,37.8 133.5,34.1 
	134.6,31.4 135.3,28.4 136,26.1 136.7,23.4 137.6,20.8 138.3,17.9 139.2,15.6 139.9,13.3 140.6,11.7 141,10.1 141.7,9.2 141.9,8.5 
	142.2,8.5 142.2,9.6 142.2,10.5 142.2,12.1 142.2,14.2 142.2,16.9 141.7,19.9 141.5,23.6 141.3,27.3 141,31.1 140.6,34.8 
	140.3,38.5 140.1,41.7 139.9,45.1 139.4,47.6 139,50.8 138.5,53.8 138,57.2 137.4,60.5 136.9,63.7 136.4,66.6 136.4,69.6 136,71.7 
	136,74 135.8,75.3 135.8,76.9 135.5,78.1 135.5,79.5 135.3,80.6 135.1,82.2 133.9,85 132.1,90 129.6,96.6 127.3,104.2 124.5,111.1 
	122.5,117.5 121.1,121.8 120.7,123.7 120.2,123.9 119.3,124.8 118.1,125.3 117.4,124.6 117.2,122.5 117.2,119.3 117.2,115 
	117.2,110.4 117.2,105.3 117.4,100.8 117.7,97.1 "/>
<polygon class="st9" points="122,95.9 122,94.1 122.5,92.3 122.9,90.5 123.6,88.8 124.1,86.8 124.8,85 125.2,83.1 125.9,81.5 
	126.1,79 126.6,76.3 127.3,72.6 128.2,68.5 128.9,63.7 130,58.6 131.2,53.1 132.6,47.9 133.5,42.6 134.6,38.2 135.3,34.6 
	136.2,31.6 136.9,28.6 137.6,26.3 138.3,23.6 139,21.1 139.4,18.1 139.9,15.8 140.3,13.5 141,11.9 141.3,10.3 141.7,9.2 141.9,8.5 
	142.2,8.5 141.9,8.5 141.9,9.6 141.7,10.5 141.7,12.1 141.3,14 141,16.7 140.3,19.5 139.9,22.9 139.4,26.6 139,30.5 138.3,34.1 
	137.8,38 137.4,41.2 137.1,44.4 136.2,46.9 135.5,49.9 134.6,53.1 133.9,56.3 133,59.5 132.3,62.7 131.6,65.7 131.4,68.7 
	130.7,70.8 130.5,72.8 130.3,74.2 130.3,75.8 130,76.9 130,78.3 129.8,79.5 129.8,80.8 128.9,83.6 127.5,89.1 125.7,95.9 
	124.1,103.5 122.3,110.8 120.9,117.2 120,121.8 119.7,123.7 119.3,123.9 119,124.8 118.4,125.3 118.4,124.6 118.4,122.7 
	118.6,119.8 119,115.6 119.7,111.1 120.2,106.3 120.9,101.9 121.3,98.2 "/>
<polygon class="st9" points="111.3,123.7 111.7,123.4 112.4,123.4 112.9,123 114,121.8 114.5,120.7 115.2,119.8 116.1,118.4 
	117,117.5 118.8,115.6 120,115.9 120.4,117.2 121.1,118.8 121.6,120 122,121.1 122.3,121.8 123.4,122.7 124.3,123.9 125,125 
	125.2,124.3 125.9,123 125.9,122.5 125.9,123 125.5,124.1 125,126.6 124.3,128 123.6,129.4 122.7,130.5 121.8,131.7 119.5,133.3 
	117.4,134.6 116.8,134.9 116.5,135.1 114.7,133.3 113.6,131.9 112.9,131 112.4,130.1 112.2,128.7 112.4,126.9 111.3,125.5 
	111,124.6 111,123.7 "/>
<polygon class="st3" points="111.3,124.1 112.2,123.7 113.8,122.7 114.7,120.9 116.5,119.1 118.1,117.7 119.5,118.2 120,119.3 
	120.7,120.7 121.1,121.6 121.6,122.5 122,123.2 123.2,123.9 124.3,124.8 125,125.7 125.2,126.6 125,127.1 124.1,127.1 122.9,127.1 
	121.1,127.1 119.5,127.3 117.4,127.1 115.6,126.9 114.2,126.4 113.3,126.2 111.7,124.6 "/>
<polygon class="st10" points="111.3,124.6 112.2,124.3 113.3,123.7 114.5,122.5 116.1,121.1 117.7,120.2 118.8,120.7 120.4,122.5 
	121.3,124.1 121.8,124.6 122.9,125.3 124.1,125.9 124.8,126.6 125,127.1 124.8,127.5 123.4,128.2 121.3,130.3 120,131.4 
	118.6,132.6 117.2,133.5 116.5,134.4 115.4,133.5 114.7,131.4 114,130.1 113.8,128.9 113.3,128 113.3,127.8 111.9,126.6 
	111.5,125.7 111.3,124.8 "/>
<polygon class="st1" points="153.2,96.6 154.8,94.8 156.6,93.2 158.4,91.4 160.5,90 162.5,88.6 164.6,87.7 166.7,87 168.7,87.2 
	171,87.5 174.5,88.4 178.6,89.3 183.4,90.7 188.6,92.1 194.4,93.4 200.6,94.8 207,96.4 212.5,97.3 217.5,98.5 221.4,99.4 225,100.3 
	228,100.8 231,101.4 234,101.9 237.2,102.4 240.2,102.4 243.1,103 245.4,103.5 247.7,104.4 249.3,105.1 250.7,105.8 251.4,106.3 
	251.8,106.7 251.6,107.2 250.7,109 249.5,110.1 248.2,112 246.1,113.8 243.8,116.1 240.4,118.4 236.7,121.1 232.8,123.9 
	228.9,127.1 224.8,129.8 221.2,132.6 217.5,134.9 214.7,136.9 211.5,138.5 208.3,140.8 204.9,143.6 201.7,146.3 198.3,148.8 
	195.1,151.6 191.8,153.9 189.3,156.2 186.6,157.5 184.5,158.9 182.7,160.1 181.3,161.2 179.9,161.7 178.6,162.4 177.2,162.4 
	176.1,162.4 172.4,160.8 166.2,158.2 158,154.6 149.3,150.7 140.3,146.6 133,143.3 127.7,140.8 125.9,140.1 125.5,139.7 
	125.2,138.8 124.5,137.4 124.1,135.8 123.4,133.7 123.2,131.7 123.2,129.4 123.9,127.5 125.2,124.8 128.4,120.9 132.6,116.3 
	137.4,111.7 142.2,106.7 146.7,102.4 150.6,98.7 "/>
<polygon class="st2" points="152.7,97.3 154.3,95.5 156.1,93.9 157.7,92.3 159.8,90.9 161.6,89.5 163.7,88.6 165.8,87.9 167.8,88.2 
	170.1,88.4 173.5,89.1 177.4,90.2 182.2,91.6 187.3,92.7 193,94.1 198.9,95.5 205.4,96.9 210.9,97.8 215.7,98.9 219.6,99.8 
	223.2,100.8 226.2,101.2 229.2,101.9 232.1,102.1 235.3,102.6 238.1,102.8 241.1,103.5 243.4,104.2 245.7,105.1 247.3,105.8 
	248.6,106.5 249.3,106.9 249.8,107.4 249.3,107.9 248.4,109.7 247.3,110.8 245.9,112.4 244,114.3 241.5,116.6 238.1,118.8 
	234.7,121.6 230.8,124.3 227.1,127.3 223.2,130.1 219.6,132.8 215.9,134.9 213.1,136.9 209.9,138.5 206.7,140.8 203.5,143.6 
	200.3,146.3 196.9,148.8 193.7,151.6 190.7,153.9 188,155.9 185.2,157.3 183.1,158.7 181.5,159.8 180.2,161 178.8,161.4 
	177.7,161.9 176.3,161.9 175.1,161.9 171.7,160.5 165.5,158 157.5,154.3 148.8,150.7 140.1,146.6 132.8,143.3 127.7,140.8 
	125.9,140.1 125.5,139.7 125.2,138.8 124.5,137.4 123.9,135.8 123.2,133.7 122.9,131.7 122.7,129.6 123.4,127.8 124.8,125 
	128,121.4 132.1,116.8 136.9,112.2 141.7,107.2 146.3,103 150.2,99.4 "/>
<polygon class="st3" points="151.8,98.2 153.4,96.4 155.2,94.8 157.1,93 159.1,91.6 160.9,90.2 163,89.3 164.8,88.6 166.9,88.8 
	169.2,89.1 172.6,89.8 176.5,90.9 181.3,92.3 186.4,93.7 191.8,95 197.8,96.4 204,98 209.5,98.9 214.1,99.8 217.9,100.5 
	221.6,101.4 224.4,101.9 227.3,102.6 230.1,102.8 233.3,103.3 236,103.3 238.8,104 241.1,104.6 243.4,105.6 244.7,106.3 
	246.1,107.2 246.8,107.6 247.3,108.1 247,108.5 246.1,110.1 245,111.3 243.6,112.9 241.8,114.5 239.2,116.8 235.8,119.1 
	232.6,121.8 228.9,124.6 225.3,127.5 221.2,130.1 217.5,132.8 214.1,134.9 211.3,136.9 208.3,138.5 205.4,140.8 202.2,143.3 
	198.9,146.1 195.5,148.6 192.5,151.1 189.3,153.4 186.8,155.5 184.1,156.9 182.2,158.2 180.4,159.2 179.3,160.3 177.9,160.8 
	176.7,161.4 175.4,161.4 174.2,161.4 170.8,160.1 164.8,157.5 156.8,154.1 148.4,150.4 139.9,146.3 132.8,143.1 127.7,140.8 
	125.9,140.1 125.5,139.7 125.2,138.8 124.5,137.4 123.9,135.8 123.2,133.7 122.9,131.9 122.7,129.8 123.4,128.2 124.8,125.3 
	128,121.6 131.9,117 136.7,112.4 141,107.6 145.6,103.5 149.3,100.1 "/>
<polygon class="st4" points="152.7,98.9 154.1,97.1 155.9,95.7 157.5,93.9 159.6,92.5 161.4,91.1 163.5,90.2 165.3,89.5 167.4,89.8 
	169.4,90 172.8,90.7 176.5,91.8 181.1,93.2 185.9,94.3 191.4,95.7 197.1,97.1 203.1,98.5 208.3,99.4 212.9,100.5 216.6,101.2 
	220,102.1 222.8,102.6 225.7,103.3 228.5,103.5 231.5,104 234.2,104 236.9,104.6 239.2,105.1 241.5,106 242.9,106.7 244.3,107.4 
	245,107.9 245.4,108.3 245,108.8 244,110.6 242.9,111.7 241.8,113.1 239.7,115 237.4,117 234.2,119.1 230.8,121.8 227.1,124.3 
	223.7,127.3 220,129.8 216.6,132.6 213.1,134.6 210.4,136.7 207.4,138.3 204.4,140.4 201.2,142.7 198.3,145.4 194.8,147.7 
	191.8,150.2 188.9,152.5 186.4,154.6 183.8,155.9 182,157.3 180.4,158.2 179.3,159.4 177.9,159.8 176.7,160.5 175.4,160.5 
	174.2,160.5 170.8,159.2 165.1,156.6 157.3,153.2 149,149.5 140.8,145.6 133.9,142.4 128.9,140.1 127.3,139.5 126.8,139 
	126.6,138.1 125.9,136.7 125.5,135.3 124.8,133.3 124.5,131.4 124.3,129.6 125,127.8 126.1,125.3 129.3,121.6 133.2,117.2 
	137.8,112.9 142.2,108.1 146.5,104.2 150.2,100.8 "/>
<polygon class="st5" points="153.4,99.4 154.8,97.8 156.6,96.4 158.2,94.8 160,93.4 161.9,92.1 163.7,91.4 165.5,90.7 167.6,90.9 
	169.6,91.1 172.6,91.8 176.3,92.7 180.9,94.1 185.4,95.3 190.7,96.6 196.2,97.8 202.2,99.2 207.4,100.1 211.8,101.2 215.4,101.9 
	218.9,102.8 221.6,103.3 224.4,103.7 226.9,104 229.9,104.4 232.6,104.6 235.3,105.1 237.4,105.8 239.7,106.7 241.1,107.4 
	242.2,108.1 242.9,108.5 243.4,109 243.1,109.5 242.2,111.1 241.3,112 239.9,113.6 238.1,115.2 235.8,117.5 232.6,119.3 
	229.4,121.8 225.7,124.3 222.3,127.1 218.6,129.6 215.2,132.1 212,134.2 209.5,136.3 206.5,137.9 203.5,139.9 200.6,142.2 
	197.6,145 194.4,147.2 191.4,149.5 188.6,151.6 186.1,153.7 183.6,154.8 181.8,156.2 180.2,157.3 178.8,158.2 177.4,158.7 
	176.5,159.4 175.4,159.4 174.2,159.4 170.8,158.2 165.3,155.7 157.7,152.5 149.7,148.8 141.5,145.2 134.8,142.2 130,139.9 
	128.4,139.2 128.2,138.8 127.7,137.9 127.1,136.5 126.6,135.1 125.9,133.3 125.7,131.4 125.7,129.4 126.4,127.8 127.7,125.3 
	130.5,121.8 134.2,117.5 138.7,113.1 143.1,108.5 147.4,104.6 150.9,101.2 "/>
<polygon class="st0" points="153.4,104 154.8,102.4 156.6,101 158.4,99.6 160.5,98.5 162.3,97.1 164.1,96.4 166,95.7 167.8,95.9 
	169.9,96.2 172.8,96.9 176.5,97.6 181.1,98.5 185.7,99.2 191.2,100.1 196.7,101 202.6,101.9 207.6,102.6 212,103.3 215.7,103.7 
	218.9,104.4 221.6,104.6 224.4,105.1 226.9,105.3 229.9,105.6 232.6,105.6 235.3,106 237.4,106.5 239.7,107.2 241.1,107.6 
	242.2,108.3 242.9,108.8 243.4,109 243.1,109.2 242.2,110.8 241.1,111.5 239.9,112.9 237.9,114.3 235.6,116.1 232.4,117.9 
	229.2,120.2 225.7,122.5 222.3,125 218.6,127.3 215.2,129.6 211.8,131.7 209,133.5 206,134.6 203.3,136.5 200.3,138.5 197.3,140.8 
	194.1,142.9 191.2,145 188.4,146.8 185.9,148.6 183.1,149.8 181.3,150.9 179.7,151.8 178.6,152.7 177.2,153.2 176.1,153.7 
	174.9,153.7 173.8,153.9 170.6,152.7 164.8,150.9 157.5,148.4 149.5,145.6 141.5,142.9 134.8,140.6 130,138.8 128.4,138.3 
	128.2,137.9 127.7,137.2 127.1,136 126.6,134.9 125.9,133.3 125.7,131.7 125.7,130.1 126.4,128.7 127.7,126.4 130.7,123.4 
	134.4,119.5 139,115.9 143.3,111.7 147.4,108.3 150.9,105.6 "/>
<polygon class="st6" points="154.1,108.1 155.4,106.7 157.3,105.6 158.9,104.4 160.7,103.5 162.5,102.6 164.4,101.9 166.2,101.4 
	168.3,101.4 170.3,101.4 173.5,101.7 177.2,101.9 181.5,102.6 186.1,103 191.4,103.7 196.9,104.2 202.8,104.9 207.9,105.1 
	212.2,105.3 215.9,105.6 219.1,106 221.8,106.3 224.6,106.5 227.3,106.5 230.3,106.7 232.8,106.5 235.6,106.7 237.6,107.2 
	239.7,107.6 241.1,108.1 242.2,108.5 242.9,108.8 243.4,109 243.1,109.2 242.2,110.4 241.1,111.1 239.9,112.4 237.9,113.6 
	235.6,115.2 232.4,116.8 229.2,118.6 225.5,120.7 222.1,123 218.4,125 215,127.1 211.5,128.7 208.8,130.3 205.8,131.4 203.1,133 
	199.9,134.6 196.9,136.7 193.7,138.5 190.7,140.4 187.7,141.7 185.2,143.3 182.7,144.3 180.9,145.4 179.3,146.3 178.1,147.2 
	176.7,147.5 175.8,147.9 174.5,148.2 173.3,148.4 170.1,147.7 164.4,146.3 157.1,144.3 149.3,142.4 141.3,140.4 134.6,138.8 
	130,137.4 128.4,137.2 127.7,136.3 126.8,134.4 126.1,133 125.9,131.9 125.9,130.5 126.6,129.4 128,127.3 131,124.8 134.6,121.6 
	139.2,118.4 143.5,115 147.9,112 151.6,109.5 "/>
<polygon class="st7" points="154.1,112 155.4,111.1 157.3,110.1 159.1,109.2 160.9,108.5 162.8,107.9 164.6,107.2 166.4,106.7 
	168.5,106.7 170.6,106.7 173.8,106.7 177.4,106.7 181.8,106.9 186.4,106.9 191.6,107.2 197.1,107.2 202.8,107.4 207.9,107.4 
	212.2,107.4 215.9,107.6 219.3,107.9 221.8,107.9 224.6,107.9 227.3,107.9 230.3,108.1 232.8,107.6 235.6,107.6 237.6,107.9 
	239.7,108.1 241.1,108.3 242.2,108.5 242.9,108.8 243.4,109 243.1,109.2 242.2,110.1 241.1,110.8 239.9,111.7 237.9,112.9 
	235.6,114.3 232.1,115.6 228.9,117.2 225.3,119.1 221.8,121.1 218.2,122.7 214.7,124.6 211.3,125.9 208.8,127.5 205.8,128.5 
	202.8,129.6 199.6,131 196.7,132.6 193.5,134 190.5,135.6 187.5,136.9 185,138.3 182.2,139.2 180.4,140.1 178.8,140.8 177.7,141.5 
	176.3,141.7 175.1,142.2 174,142.4 172.8,142.7 169.6,142.2 163.9,141.5 156.8,140.4 149,139.5 141.3,138.1 134.6,137.2 130,136.3 
	128.4,136.3 127.7,135.6 126.8,134.2 125.9,132.4 126.6,130.3 128,128.7 131,126.4 134.8,123.7 139.4,120.9 143.8,117.9 
	148.1,115.4 151.6,113.1 "/>
<polygon class="st4" points="154.8,116.6 156.1,115.6 157.7,114.7 159.3,114 161.4,113.6 163.2,112.9 165.3,112.4 167.1,112 
	169.2,112 171.2,111.7 174.2,111.5 177.7,111.3 182,111.1 186.6,110.6 191.8,110.6 197.3,110.1 203.1,110.1 208.1,109.7 
	212.5,109.7 216.1,109.5 219.3,109.5 221.8,109.2 224.6,109.2 227.3,109 230.3,109 232.8,108.5 235.6,108.5 237.6,108.5 
	239.7,108.5 241.1,108.5 242.2,108.8 242.9,108.8 243.4,109 243.1,109 242.2,109.9 241.1,110.4 239.9,111.3 237.9,112 235.6,113.4 
	232.1,114.5 228.9,115.9 225.3,117.5 221.8,119.1 217.9,120.4 214.5,121.8 211.1,123 208.6,124.3 205.6,125 202.6,126.2 
	199.4,127.3 196.2,128.5 193,129.4 190,130.5 187,131.7 184.5,132.8 181.8,133.5 179.9,134.4 178.3,135.1 177.2,135.8 175.8,136 
	174.7,136.5 173.5,136.7 172.4,137.2 169.2,136.9 163.7,136.7 156.6,136.5 148.8,136.3 141,135.8 134.4,135.6 129.8,135.3 
	128.2,135.3 127.5,134.9 126.6,134 125.9,132.6 126.6,131.2 128,129.8 131,128 134.8,125.9 139.7,123.7 144,121.1 148.6,119.1 
	152.2,117.5 "/>
<polygon class="st8" points="154.8,120.7 156.1,120 158,119.3 159.8,118.8 161.9,118.6 163.7,118.2 165.5,117.9 167.4,117.5 
	169.4,117.5 171.5,117 174.5,116.6 177.9,115.9 182.2,115.4 186.8,114.7 191.8,114.3 197.3,113.6 203.1,113.1 208.1,112.4 
	212.7,112 216.3,111.5 219.6,111.3 222.3,110.8 225,110.6 227.6,110.4 230.5,110.1 233.1,109.5 235.6,109.2 237.6,109 239.7,109 
	241.1,109 242.2,109 242.9,109 243.4,109 242.9,109 242,109.7 240.8,109.9 239.7,110.6 237.6,111.3 235.3,112.4 232.1,113.1 
	228.9,114.5 225.3,115.6 221.6,117 217.7,118.2 214.3,119.3 210.9,120.2 208.1,121.1 205.1,121.8 202.4,122.7 199.2,123.4 
	196,124.3 192.5,125 189.6,125.9 186.4,126.9 183.8,127.8 181.3,128.5 179.5,129.2 177.9,129.6 176.7,130.3 175.4,130.5 174.2,131 
	173.1,131.2 171.9,131.7 169,131.7 163.5,131.9 156.4,132.4 148.6,133 140.8,133.5 134.4,134.2 129.8,134.4 128.2,134.6 
	127.5,134.2 126.6,133.7 125.9,132.8 126.6,132.1 128,131.2 131,129.8 134.8,128 139.7,126.4 144.2,124.3 148.8,122.7 152.2,121.4 
	"/>
<polygon class="st9" points="155,125 156.4,124.3 158.2,124.1 160,123.7 162.1,123.7 163.9,123.4 166,123.2 167.8,123 169.9,122.7 
	171.9,122.1 174.9,121.6 178.3,120.7 182.7,119.8 187.3,118.6 192.3,117.7 197.8,116.6 203.5,115.6 208.6,114.5 212.9,113.8 
	216.6,113.4 219.8,112.9 222.3,112.2 225,112 227.6,111.3 230.5,111.1 233.1,110.4 235.8,109.9 237.6,109.5 239.7,109.5 
	241.1,109.2 242.2,109.2 242.9,109.2 243.4,109.2 242.9,109.2 242,109.5 240.8,109.7 239.7,110.1 237.6,110.6 235.3,111.5 
	231.9,112.2 228.7,112.9 225,113.8 221.6,115 217.7,115.6 214.3,116.6 210.9,117.5 208.1,118.4 205.1,118.8 202.2,119.3 
	198.9,119.8 195.7,120.4 192.3,120.7 189.3,121.4 186.1,121.8 183.6,122.5 181.1,123 179.3,123.7 177.7,124.1 176.3,124.6 
	174.9,124.8 173.8,125.3 172.4,125.5 171.2,125.9 168.3,126.2 162.8,127.3 155.9,128.5 148.4,130.1 140.6,131.2 134.4,132.6 
	129.8,133.3 128.2,133.7 127.5,133.5 126.6,133.5 125.9,133.3 126.6,132.8 128.2,132.1 131.2,131.2 135.1,130.1 139.9,128.9 
	144.5,127.5 148.8,126.4 152.5,125.5 "/>
<polygon class="st9" points="125.7,126.2 125.9,126.4 126.4,126.9 126.8,127.1 128.2,127.8 129.1,127.8 130.5,128 131.9,128.2 
	133.2,128.9 134.4,129.2 135.3,129.6 135.8,130.3 135.5,131 134.2,131.9 133,133 131.9,134 131.4,134.6 130.7,135.3 130,136.9 
	129.1,138.1 128.4,139.2 128.9,139.2 130.3,139.2 130.5,139.2 130.3,139.2 129.1,139.2 127.1,139.7 125.5,139.5 123.9,139.5 
	122.5,139 121.1,138.8 119.7,138.1 118.6,137.4 117.7,136.7 117.2,136.3 116.5,135.6 116.5,135.3 117.2,133 118.1,131.2 
	118.6,130.3 119.7,129.6 121.1,128.9 123.2,128.2 123.9,126.9 124.8,126.2 125.2,125.9 "/>
<polygon class="st3" points="125.5,126.2 125.5,126.6 125.7,127.1 126.1,127.3 127.3,127.8 128,127.8 129.1,128.2 130.3,128.7 
	131.4,129.2 133,130.1 133.2,131.2 132.1,132.1 131.2,133.5 130.3,134.4 129.8,135.1 129.1,135.6 128.7,136.9 128.2,138.3 
	128,139.5 127.1,139.9 126.4,139.7 125.9,139 125.5,138.1 125,136.5 124.5,135.1 123.9,133.3 123.6,131.7 123.6,130.1 123.9,129.2 
	124.3,127.5 125,126.6 125.2,126.2 "/>
<polygon class="st10" points="124.8,126.2 125.2,127.1 126.4,128.2 127.5,128.7 129.1,129.6 130.5,130.5 130.7,131.7 130,132.6 
	129.3,133.7 128.7,134.6 128.2,135.3 127.7,136 127.5,137.4 127.3,138.5 127.1,139.5 126.4,140.1 125.9,140.1 125.2,139.5 
	124.5,139 123.4,138.3 122.3,137.9 120.7,136.9 119.3,136.3 118.1,135.6 117.2,135.1 117.2,134 119,132.1 121.1,130.3 122.5,129.4 
	122.9,127.8 123.9,126.9 124.3,126.2 "/>
<polygon class="st2" points="163.5,149.8 165.1,150.4 167.1,151.6 169,152.5 171,153.9 172.4,155.3 173.8,156.6 174.7,158.2 
	175.4,160.3 175.1,162.6 175.1,166.2 174.7,170.4 174.5,175.6 173.8,180.9 173.3,187.1 172.8,193.5 172.8,200.1 172.6,205.9 
	172.6,210.9 172.4,215.3 172.4,218.9 172.2,221.9 172.2,224.9 172.2,227.6 172.6,230.8 172.6,233.6 172.6,236.6 172.2,239.3 
	171.9,241.8 171.5,243.6 171,245.3 170.8,246.2 170.8,246.6 170.6,246.6 170.1,246.6 169.2,246.4 168,246.4 166.4,245.9 
	164.8,245.3 162.5,244.3 160.3,243 157.3,240.7 154.1,238.6 150.6,236.1 147.2,233.8 143.8,231.3 140.6,229 137.6,226.7 
	135.5,224.9 133,222.8 130.3,220.7 127.1,218.7 124.1,216.9 120.7,214.8 117.7,213 114.9,211.1 112.9,209.3 110.8,207.5 109,206.1 
	107.6,204.9 106.5,204.3 105.3,203.3 104.9,202.4 104.4,201.1 104.6,199.9 105.1,195.8 106.5,188.9 108.5,179.8 111,169.9 
	113.3,159.8 115.4,151.6 116.8,145.6 117.4,143.6 117.4,143.1 118.4,142.2 119.5,140.8 121.1,139.7 122.7,138.3 124.5,137.2 
	126.6,136.3 128.9,136 131.4,136 135.8,137.4 140.8,139 146.5,141.5 151.8,143.8 156.8,146.3 160.7,148.2 "/>
<polygon class="st3" points="162.8,149.5 164.4,150.2 166.4,151.4 168.3,152.3 170.1,153.7 171.5,154.8 172.8,156.4 173.8,157.8 
	174.5,159.8 174.2,162.4 174,165.8 173.5,169.9 173.3,175 172.6,180.2 172.4,186.4 171.9,192.6 171.9,199 171.7,204.5 171.7,209.5 
	171.5,213.7 171.5,217.3 171.2,220.3 171.2,223.3 171.2,226 171.9,229.2 171.9,232 171.9,234.9 171.5,237.5 171.2,240 170.6,241.8 
	170.1,243.2 169.9,244.1 169.9,244.6 169.2,244.6 167.4,244.6 165.8,244.1 164.1,243.4 162.1,242.5 159.8,241.1 156.6,238.8 
	153.6,236.8 150.2,234.5 146.7,232.2 143.3,229.7 140.1,227.4 137.1,225.3 135.1,223.5 132.6,221.4 130,219.4 127.1,217.5 
	124.1,215.7 120.7,213.7 117.9,211.8 115.2,210 113.1,208.2 111,206.3 109.4,204.9 107.8,203.8 106.9,203.1 105.8,202.2 
	105.1,201.3 104.6,199.9 104.9,198.8 105.3,194.9 106.9,188 108.7,178.8 111.3,169.2 113.3,159.4 115.4,151.1 116.8,145.4 
	117.4,143.3 117.4,142.9 118.4,142.2 119.3,140.8 120.9,139.7 122.5,138.3 124.5,136.9 126.4,136 128.4,135.8 131.2,136 
	135.3,137.2 140.3,139 145.8,141.5 151.1,143.8 156.1,146.1 160,148.2 "/>
<polygon class="st4" points="162.3,150.4 163.7,151.1 165.8,152.3 167.6,153.2 169.4,154.3 170.8,155.5 172.2,157.1 172.8,158.5 
	173.5,160.5 173.3,162.8 173.1,166 172.6,170.1 172.4,175.2 171.7,180.4 171.5,186.2 171.2,192.4 171.2,198.8 171,204 170.8,208.8 
	170.6,212.7 170.6,216.4 170.6,219.1 170.6,222.1 170.6,224.9 171,227.8 171,230.6 171,233.3 170.6,235.9 170.3,238.2 169.9,240 
	169.4,241.4 169.2,242.3 169.2,242.7 168.5,242.7 166.7,242.7 165.1,242.5 163.5,241.8 161.4,240.9 159.1,239.5 156.1,237.5 
	153.2,235.4 149.7,233.1 146.5,231.1 143.1,228.5 140.1,226.2 137.1,224.2 135.1,222.4 132.8,220.3 130.3,218.5 127.3,216.6 
	124.3,214.8 121.1,212.7 118.4,210.9 115.6,209.1 113.8,207.5 111.7,205.6 110.3,204.3 108.7,203.1 107.6,202.4 106.5,201.5 
	106,200.6 105.5,199.5 105.8,198.3 106.2,194.4 107.8,187.8 109.7,179.1 111.9,169.7 114,160.3 116.1,152.3 117.4,146.6 
	118.1,144.5 118.1,144 119,143.3 120,142 121.6,140.8 122.9,139.5 125,138.3 127.1,137.4 129.1,137.2 131.6,137.4 135.8,138.5 
	140.3,140.4 145.8,142.7 150.9,145 155.7,147.2 159.6,149.1 "/>
<polygon class="st5" points="161.6,151.4 163,152.1 165.1,153.2 166.7,154.1 168.5,155.3 169.9,156.4 171.2,157.8 171.9,159.2 
	172.6,161.2 172.4,163.3 172.2,166.7 171.7,170.6 171.5,175.4 171,180.4 170.8,186.2 170.3,191.9 170.3,198.1 170.1,203.3 
	169.9,208.2 169.6,211.8 169.6,215.5 169.6,218.2 169.6,221 169.6,223.7 170.1,226.7 170.1,229.2 170.1,232 169.6,234.3 
	169.4,236.6 169,238.4 168.5,239.8 168.3,240.7 168.3,241.1 167.6,241.1 165.8,241.1 164.1,240.7 162.8,240 160.7,239.1 
	158.7,237.7 155.9,235.6 152.9,233.8 149.7,231.5 146.5,229.4 143.1,227.2 140.3,224.9 137.6,222.8 135.5,221 133.2,219.1 
	130.7,217.3 127.7,215.5 125,213.7 122,211.8 119.3,210 116.5,208.2 114.7,206.6 112.6,204.7 111,203.6 109.7,202.7 108.7,202 
	107.8,201.1 107.4,200.1 106.9,199 107.1,197.6 107.6,194 108.7,187.5 110.6,179.1 112.9,169.9 114.9,160.5 116.8,152.7 
	118.1,147.2 118.8,145.4 118.8,145 119.7,144.3 120.7,143.1 122.3,142 123.6,140.6 125.7,139.5 127.5,138.8 129.6,138.5 
	131.9,138.8 135.8,139.9 140.3,141.7 145.6,144 150.6,146.1 155.2,148.4 159.1,150 "/>
<polygon class="st0" points="157.5,153.7 158.9,154.3 160.5,155.5 161.9,156.6 163.5,158 164.6,159.2 166,160.5 166.7,162.1 
	167.4,164 167.4,166 167.4,169.2 167.4,173.1 167.4,177.7 167.4,182.5 167.4,188 167.4,193.5 167.8,199.7 167.8,204.7 167.8,209.3 
	167.8,213 168,216.4 168,219.1 168.3,221.9 168.5,224.4 169.2,227.4 169.2,229.9 169.4,232.4 169.2,234.7 169,237 168.5,238.6 
	168.5,240 168.3,240.7 168.3,241.1 167.6,241.1 166,240.9 164.4,240.4 163,239.8 161.2,238.8 159.3,237.5 156.6,235.2 154.1,233.1 
	151.1,230.8 148.4,228.5 145.4,226 142.6,223.7 140.1,221.4 138.3,219.4 136,217.3 133.9,215.5 131.4,213.4 128.9,211.6 
	126.1,209.5 123.9,207.5 121.6,205.6 119.7,204 117.7,202.2 116.3,200.8 114.9,199.7 114,199 113.1,198.1 112.4,197.2 112.2,196 
	112.2,194.9 112.4,191.4 113.3,185.3 114.5,177 115.8,168.3 117,159.6 118.4,152.3 119.3,147 119.7,145.2 120.2,144 122.3,142 
	123.6,140.6 125,139.7 126.6,138.8 128.4,138.8 130.7,139.2 134.2,140.6 138.3,142.4 143.1,145.2 147.4,147.5 151.8,150 155,152.1 
	"/>
<polygon class="st6" points="153.4,155.9 154.5,156.9 155.9,158 157.3,159.2 158.9,160.5 159.8,161.9 160.9,163.3 161.6,164.6 
	162.3,166.5 162.5,168.5 162.8,171.5 163,175.2 163.2,179.8 163.5,184.3 163.9,189.6 164.4,195.1 165.1,200.8 165.3,205.9 
	165.8,210.2 166,213.9 166.4,217.1 166.4,219.6 166.7,222.4 167.1,224.9 167.8,227.6 168,230.1 168.5,232.7 168.5,234.9 168.5,237 
	168.3,238.6 168.3,240 168.3,240.7 168.3,241.1 167.6,241.1 166.4,240.9 165.1,240.2 163.9,239.5 162.3,238.2 160.7,236.8 
	158.2,234.5 155.7,232.4 152.9,229.9 150.4,227.4 147.7,224.9 145.1,222.4 143.1,220.1 141.5,218.2 139.2,215.9 137.1,213.9 
	134.8,211.6 132.8,209.5 130.3,207.2 128.2,205.2 126.1,203.1 124.5,201.3 122.7,199.5 121.3,198.1 120,196.9 119.3,196 
	118.4,195.1 117.9,194.2 117.4,193.3 117.4,192.1 117.2,188.7 117.7,182.7 118.1,175 118.8,166.7 119.3,158.2 120,151.1 
	120.4,146.1 120.7,144.5 121.1,143.6 122.7,141.7 123.6,140.6 124.8,139.9 126.1,139.2 127.5,139.5 129.3,139.9 132.6,141.5 
	136.2,143.6 140.6,146.6 144.5,149.1 148.4,151.8 151.3,154.1 "/>
<polygon class="st7" points="149.3,158 150.4,158.9 151.6,160.3 152.7,161.7 153.8,163 154.8,164.4 155.9,166 156.6,167.6 
	157.3,169.5 157.5,171.3 158,174.3 158.4,177.7 159.1,181.8 159.8,186.4 160.5,191.4 161.4,196.7 162.5,202.2 163.2,207 
	163.9,211.4 164.4,214.8 164.8,218 165.1,220.5 165.8,223 166.2,225.6 166.9,228.3 167.4,230.6 167.8,233.1 167.8,235.2 168,237.2 
	167.8,238.6 167.8,240 167.8,240.7 167.8,241.1 167.4,240.9 166.2,240.7 165.3,240 164.1,239.1 162.8,237.7 161.2,236.1 
	159.1,233.8 157.1,231.5 154.5,228.8 152.2,226.2 149.7,223.5 147.7,221 145.6,218.5 144,216.6 142.2,214.1 140.6,212 138.5,209.5 
	136.7,207.5 134.6,204.9 132.8,202.7 131,200.6 129.6,198.8 128,196.7 126.8,195.3 125.5,194 124.8,193.3 123.9,192.4 123.4,191.4 
	122.9,190.3 122.9,189.1 122.5,185.9 122.3,180.4 122,173.1 121.8,165.3 121.6,157.3 121.3,150.7 121.3,145.9 121.3,144.3 
	121.6,143.3 122.9,141.7 124.5,140.1 127.1,139.7 128.4,140.4 131.2,142.2 134.4,144.7 138,147.7 141.5,150.7 144.7,153.7 
	147.2,156.2 "/>
<polygon class="st4" points="145.1,160.3 146.1,161.4 147.2,162.8 148.1,164.2 149.3,165.8 150,167.2 150.9,168.8 151.6,170.4 
	152.2,172.2 152.5,174 153.4,176.8 154.1,180 155.2,184.1 156.1,188.5 157.3,193.3 158.4,198.3 159.8,203.8 160.7,208.4 
	161.6,212.5 162.3,215.7 163.2,218.7 163.7,221.2 164.4,223.7 165.1,226.2 166,229 166.4,231.3 166.9,233.6 167.1,235.6 
	167.6,237.7 167.6,238.8 167.6,240 167.6,240.7 167.8,241.1 167.4,240.9 166.7,240.4 165.8,239.8 164.8,238.8 163.7,237.5 
	162.5,235.9 160.5,233.3 158.7,230.8 156.6,228.1 154.5,225.3 152.2,222.4 150.2,219.8 148.4,217.1 147.2,215 145.4,212.5 
	143.8,210.2 142.2,207.7 140.6,205.4 138.7,202.7 137.4,200.1 135.8,197.9 134.6,195.8 133,193.7 131.9,192.4 131,191.2 
	130.3,190.3 128.9,188.5 128.2,186.4 127.5,183.2 126.8,177.9 125.7,170.8 124.8,163.5 123.6,155.7 122.9,149.5 122.3,145.2 
	122.3,143.6 122.3,142.9 122.9,141.5 124.1,140.1 125.9,140.1 127.1,141.1 129.3,143.1 132.1,145.9 135.5,149.3 138.5,152.5 
	141.3,155.7 143.5,158.2 "/>
<polygon class="st8" points="141,162.4 141.7,163.5 142.6,164.9 143.3,166.5 144.2,168.1 144.9,169.7 145.6,171.3 146.1,172.9 
	146.7,174.7 147.2,176.6 148.4,179.1 149.5,182.3 150.9,186.4 152.2,190.3 153.8,194.9 155.4,199.7 157.3,204.9 158.4,209.5 
	159.6,213.4 160.5,216.9 161.4,219.8 162.1,222.1 163,224.6 163.7,226.7 164.8,229.4 165.5,231.7 166.2,234 166.7,236.1 
	167.1,237.9 167.4,239.1 167.6,240.2 167.6,240.7 167.8,241.1 167.6,240.9 166.9,240.4 166.2,239.5 165.5,238.6 164.4,237.2 
	163.2,235.2 161.6,232.4 160,229.9 158.2,226.9 156.4,224.2 154.3,221.2 152.7,218.5 151.1,215.7 150,213.4 148.6,210.9 
	147.2,208.4 145.8,205.6 144.5,203.1 143.1,200.4 141.9,197.9 140.6,195.3 139.7,193.3 138.3,191 137.1,189.6 136.2,188.2 
	135.5,187.5 134.2,185.5 133.5,183.7 132.6,180.7 131.4,175.6 129.6,169.2 128,162.1 125.9,155 124.5,149.1 123.4,144.7 
	123.2,143.3 123.2,142.7 123.4,141.5 124.1,140.4 125.5,140.8 126.4,141.7 128.2,144 130.3,147 133,150.7 135.3,154.1 137.8,157.5 
	139.7,160.3 "/>
<polygon class="st9" points="137.1,164.4 137.6,165.8 138.3,167.4 138.7,169 139.4,170.8 139.9,172.4 140.3,174 141,175.6 
	141.7,177.5 142.2,179.3 143.5,181.8 144.7,184.8 146.7,188.5 148.4,192.4 150.4,196.7 152.5,201.5 154.8,206.6 156.1,210.9 
	157.7,214.8 158.9,217.8 160,220.7 160.7,223 161.6,225.3 162.5,227.4 163.7,230.1 164.6,232.2 165.5,234.5 166,236.3 166.7,238.2 
	166.9,239.3 167.4,240.4 167.6,241.1 167.8,241.6 167.6,241.4 167.1,240.4 166.4,239.5 166,238.4 165.3,236.8 164.4,234.9 
	162.8,232.2 161.4,229.4 159.8,226.2 158.2,223.3 156.6,220.1 155,217.1 153.6,214.3 152.7,211.8 151.6,209.3 150.6,206.8 
	149.5,203.8 148.6,201.1 147.4,198.1 146.3,195.3 145.1,192.6 144.2,190.5 143.1,188.2 142.2,186.6 141.5,185.3 140.8,184.3 
	139.7,182.5 139,180.4 137.6,177.7 135.8,173.1 133.2,166.9 130.7,160.3 128,153.7 125.9,148.2 124.3,144.3 123.9,142.9 
	123.6,142.2 123.6,141.3 123.6,140.4 124.5,141.1 125.2,142.2 126.6,144.7 128.4,147.9 130.5,152.1 132.3,155.7 134.4,159.4 
	135.8,162.4 "/>
<polygon class="st9" points="130.7,137.2 130,137.6 129.8,138.1 129.8,138.5 129.8,140.1 129.6,141.1 129.6,142.4 129.3,143.8 
	129.3,145.6 129.1,146.8 128.9,147.9 128.4,148.4 128,148.6 126.6,147.9 125.2,147.2 123.9,146.6 123.4,146.1 122.5,145.6 
	121.1,145.6 119.5,145.6 118.8,145.4 118.4,145.9 118.8,147.2 118.6,147.5 118.4,146.3 117.9,144.3 117.2,142.7 117.2,141.1 
	117.2,139.7 117.4,138.3 117.7,136.7 118.4,135.3 119,134.2 119.7,133.3 120,132.4 120.4,132.1 122.5,132.1 124.5,132.4 
	125.2,132.4 126.1,132.8 127.1,133.7 128.4,135.3 129.6,135.6 130.3,136.3 130.5,136.7 "/>
<polygon class="st3" points="130.7,136.7 130,136.9 129.8,137.4 129.6,138.1 129.6,139.5 129.3,140.1 129.1,141.3 128.9,142.4 
	128.7,143.8 128,145.6 127.3,146.3 125.9,145.9 124.5,145.4 123.4,145 122.9,144.7 121.8,144.5 120.7,144.7 119,144.7 118.4,144.7 
	117.4,144.3 117.4,143.8 117.9,143.1 119,142.2 120.2,141.1 122,139.9 123.4,138.5 125,137.6 126.1,136.7 127.5,136.7 128.9,136.5 
	129.8,136.5 130.5,136.5 "/>
<polygon class="st10" points="130.7,136.3 129.6,136.9 129.1,138.5 128.4,139.9 128,142.2 127.1,143.6 126.4,144.5 125,144 
	123.9,144 122.7,143.6 122.3,143.6 121.3,143.3 120.2,143.8 118.8,144 118.1,144.3 117,143.8 117.4,143.3 117.4,142.7 117.9,141.7 
	118.1,140.4 118.6,139 119,137.2 119.5,135.6 120,134 120.7,132.8 121.6,132.6 123.9,133.7 125.9,134.9 127.3,135.3 128.4,135.1 
	129.6,135.6 130.3,135.8 "/>
<polygon class="st1" points="109.7,187.5 109,189.6 108.3,191.9 107.4,194.2 106.7,196.7 105.5,198.5 104.6,200.6 103.3,202 
	101.9,203.3 99.1,204 95.9,205.2 91.8,206.1 87,207.5 81.5,208.8 75.8,210.4 69.8,212.3 64.1,214.3 58.4,215.9 53.6,217.5 
	49.4,218.7 46,220.1 43,221 40.3,222.1 37.5,223.3 34.8,224.9 31.8,225.8 29.1,226.7 26.6,227.2 24.5,227.6 22.4,227.6 21.1,227.6 
	20.1,227.6 19.9,227.8 19.7,227.6 19.5,227.2 19.2,226.2 19.2,225.1 19.2,223.3 19.7,221.4 20.1,218.7 21.5,215.9 22.7,212 
	24.3,207.9 25.6,203.6 27.5,199.2 29.1,194.6 30.9,190.5 32.5,186.9 34.3,183.9 35.7,180.4 37.1,177 38.5,173.1 39.8,169.5 
	41,165.3 42.4,161.7 43.7,158 45.3,155.3 46.5,152.3 47.4,150.2 48.1,148.2 48.8,146.8 49.4,145.4 50.1,144.5 51.3,143.6 
	52.9,143.3 56.3,142.4 63.4,141.7 72.1,140.8 82.2,139.9 91.6,139 99.8,138.3 105.8,137.6 108.1,137.6 108.3,137.6 109.2,138.1 
	110.3,138.8 111.9,140.1 113.6,141.3 115.2,142.9 116.3,144.7 117.2,146.8 117.2,149.5 116.5,154.3 115.6,160.3 114.5,166.9 
	112.9,173.3 111.5,179.5 110.1,184.3 "/>
<polygon class="st2" points="109.7,186.6 109,188.7 108.3,191 107.6,193.3 106.9,195.8 106,197.6 104.9,199.5 103.5,200.8 
	102.1,202.2 99.4,202.9 96.2,203.8 92,204.9 87.5,206.3 82,207.5 76.2,209.1 70.3,210.9 64.6,213.2 58.8,214.8 54.3,216.4 
	50.4,217.5 47.2,218.9 44.2,219.6 41.4,220.7 38.9,221.7 36.4,223.3 33.4,224.2 30.7,225.1 28.2,225.6 26.1,226.2 24,226.2 
	22.7,226.2 21.7,226.2 21.5,226.5 21.3,226.2 21.1,225.8 20.8,224.9 20.8,223.7 20.8,221.9 21.3,220.1 21.7,217.3 23.1,214.3 
	24.3,210.7 25.6,206.8 27.2,202.4 29.1,198.1 30.7,193.7 32.3,189.6 33.9,185.9 35.7,183 37.1,179.8 38.5,176.3 39.8,172.4 
	41.2,168.8 42.4,164.6 43.7,161 45.1,157.5 46.7,154.8 47.6,152.1 48.8,150 49.4,148.2 50.1,146.8 50.8,145.4 51.5,144.5 
	52.4,143.6 54,143.3 57.2,142.4 63.9,141.7 72.6,140.6 82.4,139.9 91.8,138.8 100,138.1 105.8,137.6 108.1,137.6 108.3,137.6 
	109.2,138.1 110.3,138.8 111.9,139.9 113.6,141.1 115.2,142.7 116.3,144.3 117.2,146.3 117.2,149.3 116.5,154.1 115.6,159.8 
	114.5,166.5 112.9,172.9 111.5,178.6 110.1,183.4 "/>
<polygon class="st3" points="109.9,185.7 109.2,187.8 108.5,190.1 107.8,192.4 107.1,194.6 106,196.5 104.9,198.5 103.5,199.9 
	102.1,201.3 99.6,202 96.4,202.9 92.3,203.8 87.9,205.2 82.4,206.3 76.9,207.9 71.2,209.8 65.5,211.8 60,213.4 55.4,215 51.5,216.2 
	48.3,217.3 45.3,218 42.8,219.1 40.1,220.1 37.5,221.7 34.8,222.6 32.1,223.5 29.5,224 27.5,224.6 25.4,224.6 24.3,224.6 
	23.4,224.6 23.1,224.9 22.9,224.6 22.7,224.2 22.4,223.3 22.4,222.1 22.4,220.5 22.9,218.5 23.4,215.9 24.7,213.2 25.9,209.3 
	27.2,205.4 28.8,201.1 30.7,196.9 32.3,192.8 33.9,188.9 35.5,185.3 37.3,182.3 38.5,179.1 39.8,175.6 41,172 42.4,168.3 
	43.5,164.4 44.9,160.8 46.2,157.3 47.6,154.6 48.8,151.8 49.7,149.8 50.4,147.7 51.1,146.6 51.7,145.2 52.4,144.3 53.6,143.6 
	55.2,143.3 58.4,142.4 65,141.7 73.5,140.6 83.1,139.7 92.3,138.5 100.5,137.9 106,137.2 108.3,137.2 108.5,137.2 109.4,137.6 
	110.6,138.3 112.2,139.7 113.6,140.8 115.2,142.4 116.3,144.3 117.2,146.3 117.2,149.1 116.5,153.7 115.6,159.4 114.5,165.8 
	112.9,172 111.7,177.9 110.3,182.5 "/>
<polygon class="st4" points="108.7,185.5 108.1,187.3 107.4,189.6 106.7,191.7 106,194 105.1,195.8 103.9,197.6 102.6,199 
	101.4,200.1 99.1,200.8 95.9,201.7 92,202.9 87.7,204.3 82.4,205.6 77.2,207.2 71.4,208.8 65.9,210.9 60.4,212.5 56.1,214.1 
	52.4,215 49.2,216.2 46.2,216.9 43.7,217.8 41,218.9 38.5,220.3 35.7,221.4 33.2,222.4 30.9,222.8 28.8,223.3 27,223.3 25.6,223.3 
	24.7,223.3 24.7,223.5 24.5,223.3 24.3,222.8 24,221.9 24,221 24,219.4 24.5,217.3 25,215 26.3,212.3 27.2,208.6 28.6,204.7 
	30.2,200.6 31.8,196.5 33.2,192.4 35,188.5 36.4,184.8 38.2,182 39.4,178.8 40.8,175.6 41.9,172 43.3,168.5 44.4,164.6 45.8,161.2 
	47.2,157.8 48.5,155.3 49.4,152.5 50.4,150.4 51.1,148.6 51.7,147.2 52.4,145.9 53.1,145 54,144.3 55.4,143.8 58.6,143.1 65,142.4 
	73.3,141.5 82.9,140.8 91.8,139.7 99.6,139 105.1,138.5 107.4,138.5 107.6,138.5 108.5,139 109.7,139.7 111,140.8 112.4,142 
	113.8,143.3 114.9,145 115.8,147 115.8,149.8 115.4,154.3 114.5,159.8 113.3,166 111.7,172 110.6,177.7 109.2,182.3 "/>
<polygon class="st5" points="108.1,185 107.4,187.1 106.7,189.1 106,191.2 105.3,193.5 104.4,195.3 103.3,197.2 101.9,198.3 
	100.5,199.7 98.2,200.4 95.2,201.1 91.3,202 87.2,203.3 82.2,204.7 76.9,206.1 71.4,207.7 66.2,209.8 60.9,211.1 56.5,212.7 
	52.9,213.7 49.9,214.8 46.9,215.7 44.6,216.6 42.1,217.5 39.8,219.1 37.1,220.1 34.6,220.7 32.1,221.2 30,221.7 28.2,221.7 
	26.8,221.7 25.9,221.7 25.9,221.9 25.6,221.7 25.6,221.2 25.4,220.3 25.4,219.4 25.4,217.8 25.6,215.9 26.3,213.7 27.5,210.9 
	28.6,207.5 30,203.6 31.4,199.7 33,195.8 34.3,191.7 36.2,188 37.5,184.6 39.4,182 40.5,178.8 41.7,175.6 42.8,172 44.2,168.5 
	45.3,164.9 46.5,161.4 47.8,158 49.2,155.5 50.1,153 51.1,150.9 51.7,149.3 52.4,147.9 53.1,146.6 53.8,145.9 54.7,145.2 
	56.1,144.7 59.3,144 65.5,143.3 73.7,142.4 82.6,141.7 91.3,140.6 98.9,139.9 104.4,139.5 106.5,139.5 106.7,139.5 107.6,139.9 
	108.7,140.6 110.1,141.7 111.5,142.9 112.9,144.3 114,145.9 114.7,147.9 114.7,150.4 114,154.8 113.1,160.1 112.2,166.2 110.8,172 
	109.7,177.7 108.5,182 "/>
<polygon class="st0" points="105.3,181.6 104.4,183.4 103.7,185.5 102.8,187.3 102.1,189.4 101,191 100,192.8 98.7,194 97.3,195.1 
	95,195.8 92.3,197.2 88.6,198.3 84.5,199.9 79.7,201.3 74.9,203.3 69.6,205.2 64.6,207.5 59.5,209.3 55.2,210.9 51.5,212 
	48.8,213.4 46,214.3 43.7,215.5 41.4,216.6 39.1,218.2 36.4,219.4 34.1,220.3 31.6,220.7 29.8,221.4 27.9,221.4 26.8,221.7 
	25.9,221.7 25.9,221.9 25.6,221.2 25.6,219.6 25.6,218 26.1,216.4 26.8,214.1 28.2,211.8 29.3,208.4 30.9,204.9 32.5,201.1 
	34.3,197.4 35.9,193.5 37.8,190.1 39.4,186.6 41,184.1 42.4,181.1 44,178.2 45.3,175 46.9,171.7 48.3,168.3 49.7,165.3 51.1,162.4 
	52.7,159.8 53.8,157.5 54.7,155.5 55.4,153.9 56.1,152.7 56.8,151.4 57.5,150.7 58.4,150 60,149.5 62.7,148.4 68.7,147.2 
	76.2,145.6 84.7,144 92.9,142.4 100,141.3 105.1,140.4 107.1,140.1 107.8,140.6 110.1,142 111.3,142.7 112.4,144 113.3,145.4 
	114,147.2 113.8,149.5 113.1,153.7 111.7,158.5 110.6,164.2 108.7,169.7 107.4,174.7 106,178.8 "/>
<polygon class="st6" points="102.8,178.2 101.6,179.8 100.7,181.8 99.8,183.7 98.9,185.5 97.8,186.9 96.6,188.5 95.2,189.6 
	93.9,190.8 91.8,191.7 89.1,193 85.6,194.4 82,196.5 77.4,198.3 72.8,200.4 67.8,202.7 62.7,205.2 57.9,207.2 54,209.1 50.6,210.4 
	47.8,212 45.1,213.2 43,214.6 40.8,215.7 38.5,217.3 35.7,218.5 33.4,219.6 31.4,220.3 29.5,221 27.9,221.2 26.8,221.7 25.9,221.7 
	25.9,221.9 25.6,221.4 25.9,219.8 25.9,218.5 26.6,216.9 27.2,214.8 28.8,212.5 30.2,209.3 31.8,206.1 33.7,202.7 35.7,199.2 
	37.5,195.6 39.4,192.1 41,189.1 42.8,186.6 44.4,183.9 46,181.1 47.6,178.2 49.4,175.2 50.8,172 52.7,169.2 54,166.5 55.9,164 
	57,161.7 58.1,159.8 58.8,158.2 59.5,157.1 60.2,155.7 60.9,155 61.8,154.3 63.4,153.9 66.2,152.7 71.7,150.9 78.8,148.8 
	86.8,146.6 94.3,144.3 101.2,142.4 105.8,141.3 107.8,140.8 108.5,141.1 110.6,142.2 111.5,142.9 112.4,143.8 113.1,145 
	113.8,146.3 113.3,148.4 112.2,152.1 110.6,156.6 109,161.9 106.9,166.9 105.1,171.7 103.7,175.6 "/>
<polygon class="st7" points="99.8,174.7 98.7,176.1 97.8,177.9 96.8,179.5 95.9,181.4 94.6,182.7 93.2,184.1 91.8,185.3 90.7,186.6 
	88.6,187.5 86.1,188.9 82.6,190.8 79.2,192.8 74.9,194.9 70.5,197.6 65.7,200.1 61.1,203.1 56.3,205.4 52.7,207.5 49.2,209.1 
	46.7,210.7 44.2,211.8 41.9,213.2 39.6,214.6 37.5,216.4 35,217.5 33,218.9 30.9,219.8 29.3,220.7 27.7,221 26.8,221.4 25.9,221.7 
	25.9,221.9 25.6,221.4 25.9,220.1 26.1,218.7 26.8,217.3 27.7,215.5 29.3,213.4 30.9,210.4 33,207.5 35,204 37.1,200.8 38.9,197.4 
	41,194.4 42.8,191.4 44.9,189.1 46.2,186.6 48.1,184.1 49.9,181.4 52,178.6 53.8,175.6 55.6,172.9 57.5,170.1 59.3,168.1 
	60.4,165.8 61.6,164.2 62.3,162.6 63.2,161.7 63.9,160.5 64.6,159.8 65.5,159.2 66.9,158.5 69.4,156.9 74.6,154.8 81,152.1 
	88.6,149.3 95.5,146.3 101.9,144 106.2,142.2 108.1,141.7 108.7,141.7 110.6,142.4 112.2,143.8 113.1,145.9 112.4,147.7 
	111.3,151.1 109.2,155 107.1,159.8 104.6,164.4 102.8,168.8 101,172.2 "/>
<polygon class="st4" points="97.3,171.5 96.2,172.9 95,174.3 93.6,175.6 92.5,177.2 91.1,178.4 89.7,179.8 88.4,180.9 87.2,182.3 
	85.4,183.4 82.9,185 79.9,186.9 76.5,189.4 72.3,191.9 68.2,194.6 63.6,197.6 59.3,200.8 54.7,203.6 51.3,205.9 48.1,207.7 
	45.6,209.3 43.3,210.7 41.2,212 38.9,213.4 36.9,215.3 34.3,216.6 32.3,218 30.2,219.1 28.8,220.1 27.5,220.5 26.6,221.2 
	25.9,221.4 25.9,221.7 25.6,221.2 26.1,220.3 26.3,219.1 27.2,217.8 28.2,216.2 30,214.1 31.6,211.4 33.7,208.6 35.9,205.4 
	38.2,202.4 40.3,199.2 42.6,196.2 44.6,193.5 46.7,191.4 48.3,188.9 50.4,186.6 52.4,184.1 54.5,181.8 56.5,179.1 58.6,176.6 
	60.4,174.3 62.5,172.2 63.6,170.1 64.8,168.5 65.7,167.2 66.6,166.2 68.2,164.2 70.3,162.8 72.6,161.2 77.6,158.7 83.8,155.3 
	90.7,151.8 97.1,147.9 103,145 107.1,142.9 108.7,142.2 109.2,142.2 110.8,142.4 111.9,143.3 112.4,145.2 111.5,146.8 110.1,149.8 
	107.8,153.4 105.5,157.8 102.8,161.9 100.5,166 98.4,169 "/>
<polygon class="st8" points="94.6,168.1 93.2,169.2 92,170.6 90.7,171.7 89.5,173.1 87.9,174.3 86.5,175.4 85.2,176.6 83.8,177.9 
	82,179.1 79.7,180.9 76.9,183 73.7,185.9 70.1,188.7 66.2,191.9 61.8,195.3 57.7,198.8 53.6,201.5 50.1,204 46.9,206.1 44.6,208.2 
	42.4,209.8 40.5,211.4 38.5,212.7 36.4,214.8 33.9,216.2 32.1,217.5 30,218.7 28.6,219.8 27.2,220.3 26.6,221 25.9,221.4 
	25.9,221.7 25.6,221.4 26.3,220.5 26.8,219.6 27.7,218.5 28.8,216.9 30.7,215 32.5,212.3 34.8,209.8 37.1,206.8 39.6,204 
	41.9,201.1 44.4,198.5 46.5,195.8 48.5,194 50.4,191.7 52.4,189.6 54.7,187.3 57,185 59.3,182.7 61.6,180.4 63.4,178.4 65.5,176.6 
	66.9,174.5 68.2,172.9 69.1,171.5 70.3,170.6 71.7,168.8 73.7,167.2 76,165.3 80.6,162.4 86.3,158.2 92.7,154.1 98.7,149.8 
	104.2,146.3 107.8,143.8 109.4,142.9 109.9,142.7 111,142.7 111.7,143.1 111.9,144.5 110.8,145.9 109.2,148.6 106.5,151.8 
	103.9,155.7 100.7,159.4 98.2,163 95.9,166 "/>
<polygon class="st9" points="92,164.6 90.7,165.6 89.3,166.9 87.7,167.9 86.3,169.2 84.7,170.1 83.3,171.3 82,172.4 80.6,173.8 
	78.8,175.2 76.7,177.2 73.9,179.5 71,182.5 67.3,185.5 63.6,189.1 59.8,192.6 55.9,196.5 51.7,199.7 48.5,202.4 45.6,204.5 
	43.5,206.8 41.4,208.4 39.6,210 37.5,211.8 35.7,213.9 33.4,215.5 31.6,217.1 29.8,218.2 28.4,219.6 26.3,221 25.9,221.7 
	25.9,221.4 26.6,220.7 27,219.8 28.2,218.9 29.3,217.5 31.4,215.9 33.2,213.4 35.7,210.9 38,208.4 40.8,205.9 43.3,203.1 
	45.8,200.8 48.1,198.3 50.4,196.5 52.4,194.4 54.7,192.4 57.2,190.3 59.8,188.5 62.3,186.4 64.8,184.3 66.9,182.3 69.1,180.7 
	70.5,178.6 71.9,177.2 72.8,175.9 73.9,175.2 75.3,173.3 77.2,172 79.2,169.7 83.3,166.2 88.6,161.7 94.6,156.9 100,151.8 
	105.1,147.7 108.5,144.7 109.9,143.8 110.1,143.3 111,142.9 111.7,142.7 111.5,143.6 110.1,144.7 108.3,147 105.3,150 102.3,153.4 
	98.9,156.9 95.9,160.1 93.4,162.6 "/>
<polygon class="st9" points="116.3,148.8 115.6,148.6 115.2,148.4 114.5,148.4 113.3,148.8 112.2,148.8 111,149.5 109.7,149.8 
	108.3,150.2 106.9,150.2 105.8,150.4 105.1,150.2 105.3,149.8 105.5,148.2 105.8,146.6 106,145.2 106.5,144.3 106.5,143.1 
	106.5,141.7 106,140.4 106.5,139.5 105.8,139.2 104.9,139.9 104.4,139.9 104.6,139.9 105.3,139 107.4,137.9 108.5,136.9 
	109.9,136.5 111.3,135.8 112.9,135.8 114,135.6 115.4,135.6 116.5,135.8 117.9,136.3 118.6,136.3 119,136.7 119.3,138.8 
	119.5,140.8 119.3,141.5 119,142.9 118.1,144 117.2,145.9 117.2,147.2 117,148.2 116.3,148.6 "/>
<polygon class="st3" points="116.5,148.6 115.8,148.2 115.6,148.2 114.9,147.9 114,148.4 112.9,148.4 111.9,148.6 110.6,148.6 
	109.4,149.1 107.6,149.1 107.1,148.4 107.1,147 107.4,145.6 107.4,144.3 107.8,143.6 107.6,142.4 107.1,141.1 106.7,139.7 
	107.1,138.8 107.1,137.6 108.1,137.6 108.5,137.9 109.4,138.5 110.8,139.5 112.2,140.8 113.3,142 114.7,143.1 115.6,144.3 
	116.3,145.4 116.3,146.8 116.5,147.7 116.5,148.4 "/>
<polygon class="st10" points="117,148.4 115.8,147.7 114.7,147.7 112.9,147.7 111,147.7 109.2,147.5 108.7,146.8 108.7,145.4 
	108.7,144 108.7,142.7 108.7,142.2 108.5,141.3 108.1,140.1 107.6,138.8 107.8,138.3 107.6,137.4 108.3,137.2 108.5,137.2 
	109.7,137.2 110.8,137.2 112.4,137.2 114,136.9 115.8,136.9 117.2,136.9 118.8,137.2 118.8,138.1 118.4,140.4 117.7,141.5 
	117.4,142.9 117,143.8 117.2,144.5 117.2,145.9 117.2,147.2 117,147.9 "/>
<polygon class="st1" points="67.1,145.9 64.8,146.1 62.5,146.6 60,146.8 57.7,147 55.4,146.8 53.3,146.6 51.3,145.6 50.1,144.7 
	48.3,142.7 46.5,140.1 44,136.7 41.2,132.8 38,128.2 34.6,123.9 30.9,119.1 27.2,114.3 23.4,109.7 20.4,106 17.9,102.6 15.8,100.1 
	13.7,97.6 11.9,95.3 9.8,93.2 8,91.4 5.7,88.8 3.9,86.8 2.5,84.5 1.6,82.7 0.7,80.6 0.2,79.5 0,78.5 0,78.3 0.2,77.9 2.1,76.7 
	3.4,76 5.5,75.6 8,74.9 11.4,74.9 15.1,74.4 19.2,74.4 23.8,74 28.6,74 33,73.5 37.5,73.5 41.4,73.3 45.1,73.7 48.3,73.7 52,73.7 
	56.1,73.3 60.2,73 64.1,72.4 68.2,72.1 71.9,71.9 75.3,72.1 77.8,72.1 80.1,72.1 82,72.1 83.8,72.1 84.9,72.1 86.3,72.4 87.5,72.8 
	88.6,74.2 90.2,77.2 93.4,83.4 97.1,91.1 101.6,100.1 105.5,108.5 109.2,116.1 111.7,121.4 112.9,123.4 112.6,123.7 112.6,124.8 
	112.2,126.2 111.7,128.2 110.8,130.1 110.1,132.1 108.7,134 107.4,135.8 104.4,136.9 99.8,138.5 94.1,139.9 87.7,141.5 81,142.7 
	75.1,144 70.1,145 "/>
<polygon class="st2" points="68,145.4 65.7,145.6 63.4,146.1 60.9,146.3 58.8,146.8 56.5,146.6 54.5,146.3 52.7,145.6 51.5,144.7 
	49.7,142.7 47.6,140.1 45.1,136.7 42.6,132.8 39.4,128.2 35.9,123.9 32.3,119.1 28.8,114.3 25,109.7 22,106 19.5,102.8 17.4,100.3 
	15.3,97.8 13.7,95.7 11.7,93.7 9.8,91.8 7.6,89.5 6,87.5 4.3,85.2 3.4,83.4 2.5,81.5 2.3,80.4 2.1,79.5 2.1,79.2 2.3,78.8 4.1,77.6 
	5.3,76.9 7.3,76.5 9.8,76.3 13.3,76.3 16.7,75.8 21.1,75.6 25.4,75.1 30.2,74.9 34.6,74.4 38.9,74.4 42.8,74.4 46.5,74.9 49.4,74.7 
	53.1,74.7 57,74.2 61.1,74 65,73.5 68.9,73 72.6,72.8 76,73 78.5,73 80.8,73 82.6,73 84.5,73 85.6,73 87,73.5 88.1,74 89.3,75.3 
	90.9,78.1 93.9,84.3 97.5,91.8 101.9,100.8 105.8,109 109.4,116.6 111.7,121.6 112.9,123.7 112.6,123.9 112.6,124.8 112.2,126.2 
	111.7,128.2 110.8,130.1 110.1,132.1 108.7,134 107.4,135.8 104.4,136.9 100,138.5 94.3,139.9 88.1,141.5 81.5,142.7 75.8,143.8 
	71,144.7 "/>
<polygon class="st3" points="69.1,145.2 66.6,145.4 64.3,145.9 62,146.1 59.8,146.3 57.5,146.1 55.4,146.1 53.6,145.2 52.4,144.5 
	50.6,142.4 48.8,139.9 46.5,136.5 44,132.8 40.8,128.2 37.3,123.9 33.7,119.1 30,114.5 26.3,110.1 23.6,106.5 21.1,103.5 19.2,101 
	17.2,98.5 15.6,96.4 13.5,94.3 11.7,92.5 9.4,90.2 7.8,88.2 6.2,86.1 5.3,84.3 4.3,82.4 4.1,81.3 3.9,80.4 4.1,79.7 6,78.8 
	7.1,78.1 9.2,77.4 11.7,76.7 14.9,76.7 18.3,76.3 22.4,76.3 26.8,75.8 31.6,75.8 35.9,75.3 40.3,75.3 44.2,75.1 47.6,75.6 
	50.6,75.6 54.3,75.6 57.9,75.1 62,74.9 65.7,74.4 69.6,74.2 73.3,74 76.7,74.2 79.2,74 81.5,74 83.3,74 84.9,74 86.1,74 87.5,74.4 
	88.4,74.9 89.5,76.3 91.1,79 94.1,85 97.8,92.5 102.1,101.2 106,109.5 109.4,116.6 111.7,121.6 112.9,123.7 112.6,123.9 
	112.6,124.8 112.2,126.2 111.7,128.2 110.8,130.1 110.1,132.1 109,134 107.8,135.8 104.9,136.9 100.5,138.3 94.8,139.7 88.8,141.3 
	82.4,142.4 76.7,143.6 72.1,144.5 "/>
<polygon class="st4" points="69.1,144.3 66.6,144.5 64.6,145 62,145.2 60,145.4 57.7,145.2 55.6,145.2 53.8,144.3 52.7,143.6 
	51.1,141.5 49.2,139 46.9,135.6 44.4,132.1 41.4,127.8 38.2,123.4 34.8,118.8 31.4,114.5 27.7,110.1 25,106.7 22.4,103.7 
	20.6,101.2 18.5,98.9 16.9,96.9 15.1,94.8 13.3,93.2 11,90.9 9.4,88.8 8,86.8 7.1,85 6.2,83.1 6,81.8 5.7,80.8 6,80.4 7.6,79.5 
	8.7,78.8 10.8,78.3 13.3,77.9 16.5,77.9 19.7,77.4 23.8,77.2 27.9,76.7 32.5,76.7 36.6,76.3 41,76.3 44.9,76.3 48.3,76.7 51.1,76.5 
	54.5,76.5 58.1,76.3 62.3,76 65.9,75.3 69.6,75.1 72.8,75.1 76.2,75.3 78.8,75.1 81,75.1 82.9,75.1 84.5,75.1 85.6,75.1 87,75.3 
	87.9,76 88.8,77.2 90.2,79.9 93.2,85.6 96.8,93.2 101,101.4 104.9,109.5 108.3,116.6 110.6,121.4 111.5,123.4 111.3,123.7 
	111.3,124.6 110.8,125.9 110.3,127.8 109.4,129.6 108.7,131.4 107.6,133 106.5,134.6 103.7,136 99.6,137.4 94.1,138.8 88.1,140.4 
	82,141.5 76.5,142.9 71.9,143.6 "/>
<polygon class="st5" points="68.7,143.3 66.4,143.3 64.3,143.8 62.3,143.8 60.2,144.3 58.1,144 56.3,143.8 54.5,143.1 53.3,142.2 
	51.7,140.4 49.9,137.9 47.6,134.6 45.1,131.2 42.1,127.1 38.9,123 35.5,118.6 32.3,114.3 28.8,110.1 26.1,106.7 23.6,103.5 
	22,101.2 19.9,98.9 18.3,97.1 16.7,95 14.9,93.4 12.6,91.4 11.2,89.3 9.6,87.2 8.9,85.6 8,83.8 7.6,82.7 7.3,81.8 7.6,81.3 
	9.2,80.4 10.3,79.7 12.4,79.2 14.9,78.8 18.1,78.8 21.3,78.3 25.2,78.1 29.3,77.6 33.7,77.6 37.5,77.2 41.7,77.2 45.3,76.9 
	48.5,77.4 51.3,77.2 54.7,77.2 58.4,76.9 62.3,76.7 65.9,76.3 69.6,76 72.8,76 76,76.3 78.3,76 80.6,76 82.4,76 84,76 85.2,76 
	86.3,76.3 87.2,76.9 88.1,78.1 89.5,80.8 92.5,86.3 95.9,93.2 100,101.4 103.7,109 107.1,116.1 109.4,120.7 110.3,122.7 110.1,123 
	110.1,123.9 109.7,125.3 109.2,127.1 108.3,128.9 107.6,131 106.5,132.6 105.3,134.2 102.6,135.1 98.4,136.5 93.2,137.9 87.5,139.5 
	81.3,140.6 76,141.7 71.4,142.4 "/>
<polygon class="st0" points="71.2,139.2 69.1,139.2 67.1,139.5 65,139.5 63,139.7 60.9,139.5 59.1,139.2 57.2,138.3 56.1,137.6 
	54.3,135.8 52.4,133.5 49.9,130.8 47.4,127.5 44.2,123.7 41,119.8 37.3,115.6 33.9,111.7 30.2,107.9 27.2,104.6 24.7,101.9 
	22.7,99.8 20.6,97.6 19,95.7 16.9,94.1 15.1,92.5 13.1,90.7 11.4,88.8 10.1,86.8 9.2,85.4 8.2,83.8 7.6,82.7 7.3,81.8 7.6,81.3 
	9.2,80.6 10.3,80.1 12.1,79.9 14.4,79.7 17.4,79.7 20.6,79.5 24.5,79.5 28.4,79.5 32.5,79.5 36.4,79.5 40.3,79.5 43.7,79.7 
	46.9,80.4 49.7,80.4 53.1,80.6 56.5,80.6 60.2,80.6 63.6,80.4 67.1,80.4 70.3,80.4 73.5,80.8 75.5,80.8 77.8,81.1 79.4,81.1 
	81,81.3 82.2,81.3 83.3,81.5 84.2,82.2 85.4,83.4 87,85.6 90.2,90.7 93.9,97.1 98.4,104.4 102.6,111.3 106.2,117.7 108.7,121.8 
	109.9,123.7 109.7,123.9 109.7,124.8 109.4,125.9 109.2,127.5 108.5,128.9 107.8,130.8 106.9,132.1 105.8,133.5 103.3,134.2 
	99.4,135.1 94.3,136 88.8,136.9 83.1,137.6 78.1,138.3 73.7,138.8 "/>
<polygon class="st6" points="73.5,135.3 71.4,135.1 69.6,135.1 67.5,134.9 65.7,134.9 63.6,134.4 62,134 60.2,133.3 59.1,132.6 
	57,131 54.9,128.9 52.4,126.2 49.7,123.4 46.2,120 42.8,116.6 38.9,112.9 35.3,109.5 31.4,105.8 28.4,102.8 25.6,100.3 23.6,98.2 
	21.5,96.2 19.7,94.6 17.6,93 15.8,91.6 13.5,89.5 11.7,87.7 10.3,86.1 9.2,84.7 8.2,83.4 7.6,82.4 7.3,81.8 7.6,81.3 8.9,80.8 
	10.1,80.4 11.7,80.4 13.7,80.1 16.7,80.6 19.9,80.6 23.6,80.8 27.2,81.1 31.4,81.5 35,81.8 38.9,82.2 42.4,82.4 45.3,83.1 
	48.1,83.4 51.3,83.6 54.5,83.8 57.9,84.3 61.1,84.3 64.6,84.7 67.5,85 70.5,85.6 72.8,85.6 74.9,85.9 76.5,86.1 78.1,86.3 
	79.2,86.3 80.4,86.8 81.3,87.5 82.6,88.4 84.2,90.5 87.7,95 91.8,100.8 96.8,107.4 101.4,113.6 105.5,119.1 108.3,123 109.4,124.6 
	109.2,124.6 109.2,125.5 109,126.4 109,127.8 108.5,129.2 108.1,130.5 107.1,131.4 106.2,132.6 103.9,133 100.3,133.7 95.5,134.2 
	90.2,134.6 84.7,134.9 79.9,135.1 76,135.1 "/>
<polygon class="st7" points="75.5,131.7 73.7,131.2 71.9,131 69.8,130.5 68.2,130.3 66.2,129.6 64.6,129.2 63,128.2 61.8,127.5 
	59.8,126.2 57.7,124.3 54.9,122.1 52,119.5 48.3,116.6 44.6,113.4 40.5,109.9 36.6,106.7 32.5,103.3 29.3,100.8 26.6,98.5 
	24.5,96.6 22.4,94.8 20.4,93.4 18.3,91.8 16.5,90.5 14.2,88.6 12.4,87.2 10.8,85.6 9.6,84.5 7.8,82.4 7.3,81.8 7.6,81.3 8.9,81.1 
	10.1,80.8 11.7,80.8 13.7,80.8 16.5,81.5 19.2,81.8 22.7,82.4 26.3,82.7 30.2,83.4 33.9,83.8 37.5,84.5 40.8,85.2 44,85.9 
	46.5,86.3 49.4,87 52.4,87.5 55.9,88.2 59.1,88.6 62.3,89.3 65,90 68,90.7 70.1,90.9 72.1,91.4 73.5,91.6 75.1,91.8 76.2,91.8 
	77.4,92.3 78.3,92.5 79.4,93.4 81.3,95.3 85.2,99.4 89.7,104.4 95.2,110.1 100.3,115.6 104.6,120.4 107.6,123.9 109,125.3 
	109,125.9 109,127.8 108.3,130.1 106.9,131.7 104.6,131.9 101.2,132.1 96.6,132.1 91.6,132.4 86.3,131.9 81.7,131.9 77.8,131.7 "/>
<polygon class="st4" points="77.8,127.5 76,127.1 74.4,126.6 72.6,126.2 71,125.7 69.1,125 67.5,124.3 65.9,123.4 64.6,122.7 
	62.7,121.4 60.4,119.8 57.5,117.7 54.3,115.6 50.4,112.9 46.5,110.1 42.4,107.2 38.2,104.2 34.1,101.2 30.7,98.9 27.7,96.6 25.4,95 
	23.1,93.4 21.3,92.1 19.2,90.7 17.2,89.3 14.7,87.7 12.8,86.3 11,85 9.8,84 8,82 7.6,81.5 7.8,81.3 8.9,81.3 9.8,81.3 11.2,81.5 
	13.1,81.8 15.8,82.4 18.5,82.9 22,83.6 25.4,84.3 29.3,85.2 32.7,85.9 36.2,87 39.4,87.7 42.4,88.8 44.9,89.5 47.6,90.2 50.6,91.1 
	53.8,92.1 56.8,92.7 59.8,93.7 62.5,94.6 65.2,95.5 67.3,95.9 69.1,96.4 70.7,96.6 72.3,96.9 74.4,97.6 76.7,98.9 78.8,100.5 
	82.6,104 87.7,108.1 93.4,113.1 98.7,117.7 103.5,122.1 106.9,125 108.3,126.2 108.3,126.6 108.7,128.2 108.3,129.6 107.1,131 
	105.1,130.8 101.9,130.5 97.8,130.1 93.2,129.6 88.1,128.9 83.8,128.2 80.1,127.8 "/>
<polygon class="st8" points="80.1,123.4 78.3,122.7 76.7,122.3 75.1,121.6 73.5,121.1 71.9,120.2 70.3,119.3 68.9,118.4 67.5,117.7 
	65.5,116.6 63,115.2 59.8,113.6 56.5,111.7 52.4,109.2 48.3,106.9 43.7,104.2 39.4,101.7 35,98.7 31.6,96.6 28.6,94.8 26.3,93.4 
	24,91.8 22,90.7 19.7,89.3 17.6,88.4 15.1,87 13.3,85.6 11.4,84.3 10.1,83.6 8,82 7.6,81.5 7.6,81.3 8.7,81.5 9.4,81.5 10.8,82 
	12.6,82.4 15.1,83.4 17.9,84 21.1,85.2 24.5,86.1 28.2,87.2 31.4,88.2 34.8,89.3 37.8,90.5 40.8,91.6 43,92.3 45.8,93.4 48.8,94.6 
	51.7,95.7 54.5,96.9 57.2,98 60,98.9 62.7,100.1 64.8,100.5 66.6,101.2 68,101.4 69.4,101.9 71.4,102.6 73.7,104 76,105.3 
	80.4,108.3 85.9,111.7 92,116.1 97.8,120 103,123.4 106.5,125.7 108.1,126.9 108.3,127.3 108.5,128.5 108.5,129.4 107.8,130.1 
	106,129.6 102.8,129.2 98.9,128 94.6,127.1 89.7,125.9 85.6,124.8 82.2,123.9 "/>
<polygon class="st9" points="82.2,119.5 80.6,118.8 79.2,118.2 77.6,117.2 76.2,116.3 74.6,115.2 73.3,114.5 71.7,113.4 70.3,112.7 
	68.2,111.7 65.5,110.6 62.3,109 58.6,107.6 54.5,105.6 50.1,103.7 45.6,101.4 41,99.2 36.4,96.6 33,94.8 29.8,93.2 27.2,91.8 
	24.7,90.5 22.7,89.5 20.4,88.4 18.3,87.5 15.6,86.1 13.5,85 11.7,83.8 10.3,83.1 8.9,82.2 8.2,81.8 7.6,81.5 8.5,81.8 9.2,81.8 
	10.8,82.4 12.4,82.9 14.9,84 17.4,85 20.4,86.3 23.6,87.7 27,89.1 30.2,90.2 33.4,91.6 36.4,92.7 39.1,94.1 41.2,95 44,96.4 
	46.7,97.8 49.4,99.4 52,100.8 54.7,102.4 57.2,103.5 60,104.9 61.8,105.6 63.6,106.3 65,106.7 66.4,107.4 68.7,108.1 71,109.2 
	73.3,110.1 77.8,112.7 83.6,115.6 90.2,119.1 96.4,122.1 101.9,125 105.8,126.9 107.4,127.8 107.6,128 108.5,128.5 108.7,128.9 
	108.1,129.4 106.5,128.7 103.7,127.5 99.8,126.2 95.9,124.8 91.3,123 87.7,121.4 84.2,120 "/>
<polygon class="st9" points="104.9,136 104.9,135.1 104.9,134.6 104.6,134.2 103.9,133.3 103,132.1 102.3,131 101.4,129.8 
	100.7,128.9 99.6,126.6 100.3,125.9 101.6,125.5 103.3,125.3 104.6,125 105.8,125 106.7,124.6 108.1,123.9 109.2,123 110.3,122.7 
	109.9,122.3 109,121.6 108.5,121.1 109,121.4 109.9,122.1 111.9,123.4 114,125 115.8,127.3 116.3,128.5 116.8,129.6 117,130.8 
	117.2,132.1 117.2,132.8 117.2,133.5 115.2,134.4 113.6,135.6 112.4,135.8 111.3,136 109.7,136 108.1,135.8 106.7,136 105.8,136.3 
	"/>
<polygon class="st3" points="105.3,136.3 105.3,134.9 104.9,133.5 103.7,131.7 102.6,129.8 101.6,127.8 102.3,126.9 103.5,126.4 
	105.1,126.2 106.2,125.7 107.1,125.7 107.8,125.3 109.2,124.3 110.1,123.4 111.3,123.2 111.9,122.7 112.4,123.4 112.2,123.9 
	111.9,125.3 111.3,126.6 110.8,128.7 110.1,130.3 109.4,131.9 108.7,133.3 108.1,134.4 106.7,135.1 106,135.8 105.3,136 "/>
<polygon class="st10" points="105.8,136.3 105.8,135.1 105.5,133.7 104.6,132.4 104.2,130.5 103.7,128.9 104.4,128.2 105.3,127.5 
	106.7,126.9 107.6,126.2 108.3,126.2 108.7,125.7 110.1,124.8 111,123.7 111.9,123.4 112.6,123.2 112.9,123.7 112.9,123.9 
	113.1,124.8 113.6,125.9 114.2,127.5 114.7,128.9 115.4,130.3 115.8,131.7 116.5,133.3 116.1,133.5 115.6,133.7 114.5,134 
	113.3,134.2 111.9,134.2 110.6,134.4 109.7,134.6 109.4,135.1 108.1,135.8 106.9,136.3 106,136.3 "/>
</svg>
