<?xml version="1.0" encoding="utf-8"?>
<!-- Generator: Adobe Illustrator 25.0.0, SVG Export Plug-In . SVG Version: 6.00 Build 0)  -->
<svg version="1.1" id="Layer_1" xmlns="http://www.w3.org/2000/svg" xmlns:xlink="http://www.w3.org/1999/xlink" x="0px" y="0px"
	 viewBox="0 0 413 250" style="enable-background:new 0 0 413 250;" xml:space="preserve">
<style type="text/css">
	.st0{fill-rule:evenodd;clip-rule:evenodd;fill:#F0F0ED;}
	.st1{fill-rule:evenodd;clip-rule:evenodd;fill:#E3E3DE;}
	.st2{fill-rule:evenodd;clip-rule:evenodd;fill:#D6D6CF;}
	.st3{fill-rule:evenodd;clip-rule:evenodd;fill:#C7C7BA;}
	.st4{fill-rule:evenodd;clip-rule:evenodd;fill:#B8B8A8;}
	.st5{fill-rule:evenodd;clip-rule:evenodd;fill:#A6A696;}
	.st6{fill-rule:evenodd;clip-rule:evenodd;fill:#91917D;}
	.st7{fill-rule:evenodd;clip-rule:evenodd;fill:#7D7D66;}
	.st8{fill-rule:evenodd;clip-rule:evenodd;fill:#757A0A;}
	.st9{fill-rule:evenodd;clip-rule:evenodd;fill:#7D8212;}
	.st10{fill-rule:evenodd;clip-rule:evenodd;fill:#878C1C;}
	.st11{fill-rule:evenodd;clip-rule:evenodd;fill:#8C9121;}
	.st12{fill-rule:evenodd;clip-rule:evenodd;fill:#919626;}
	.st13{fill-rule:evenodd;clip-rule:evenodd;fill:#999E2E;}
	.st14{fill-rule:evenodd;clip-rule:evenodd;fill:#858A1C;}
	.st15{fill-rule:evenodd;clip-rule:evenodd;fill:#949929;}
	.st16{fill-rule:evenodd;clip-rule:evenodd;fill:#8A8F14;}
	.st17{fill-rule:evenodd;clip-rule:evenodd;fill:#949924;}
	.st18{fill-rule:evenodd;clip-rule:evenodd;fill:#9EA330;}
	.st19{fill-rule:evenodd;clip-rule:evenodd;fill:#A8AD42;}
	.st20{fill-rule:evenodd;clip-rule:evenodd;fill:#B5B852;}
	.st21{fill-rule:evenodd;clip-rule:evenodd;fill:#ADB34D;}
	.st22{fill-rule:evenodd;clip-rule:evenodd;fill:#A6AB3D;}
	.st23{fill-rule:evenodd;clip-rule:evenodd;fill:#A6AB3B;}
	.st24{fill-rule:evenodd;clip-rule:evenodd;fill:#999E2B;}
	.st25{fill-rule:evenodd;clip-rule:evenodd;fill:#949C29;}
	.st26{fill-rule:evenodd;clip-rule:evenodd;fill:#8F941C;}
	.st27{fill-rule:evenodd;clip-rule:evenodd;fill:#8C941C;}
	.st28{fill-rule:evenodd;clip-rule:evenodd;fill:#919926;}
	.st29{fill-rule:evenodd;clip-rule:evenodd;fill:#878F1F;}
	.st30{fill-rule:evenodd;clip-rule:evenodd;fill:#8C9421;}
	.st31{fill-rule:evenodd;clip-rule:evenodd;fill:#949C26;}
	.st32{fill-rule:evenodd;clip-rule:evenodd;fill:#99A129;}
	.st33{fill-rule:evenodd;clip-rule:evenodd;fill:#9CA32B;}
	.st34{fill-rule:evenodd;clip-rule:evenodd;fill:#A1A62E;}
	.st35{fill-rule:evenodd;clip-rule:evenodd;fill:#B5BA47;}
	.st36{fill-rule:evenodd;clip-rule:evenodd;fill:#CCD161;}
	.st37{fill-rule:evenodd;clip-rule:evenodd;fill:#969C2E;}
	.st38{fill-rule:evenodd;clip-rule:evenodd;fill:#999E24;}
	.st39{fill-rule:evenodd;clip-rule:evenodd;fill:#A3A833;}
	.st40{fill-rule:evenodd;clip-rule:evenodd;fill:#B0B542;}
	.st41{fill-rule:evenodd;clip-rule:evenodd;fill:#BABF54;}
	.st42{fill-rule:evenodd;clip-rule:evenodd;fill:#C4C761;}
	.st43{fill-rule:evenodd;clip-rule:evenodd;fill:#BDC25C;}
	.st44{fill-rule:evenodd;clip-rule:evenodd;fill:#B8BD4F;}
	.st45{fill-rule:evenodd;clip-rule:evenodd;fill:#B5BA4A;}
	.st46{fill-rule:evenodd;clip-rule:evenodd;fill:#ABB03D;}
	.st47{fill-rule:evenodd;clip-rule:evenodd;fill:#A3AB38;}
	.st48{fill-rule:evenodd;clip-rule:evenodd;fill:#BFC44A;}
	.st49{fill-rule:evenodd;clip-rule:evenodd;fill:#C9CF59;}
	.st50{fill-rule:evenodd;clip-rule:evenodd;fill:#D4D969;}
	.st51{fill-rule:evenodd;clip-rule:evenodd;fill:#DEE378;}
	.st52{fill-rule:evenodd;clip-rule:evenodd;fill:#EBED87;}
	.st53{fill-rule:evenodd;clip-rule:evenodd;fill:#B0B840;}
	.st54{fill-rule:evenodd;clip-rule:evenodd;fill:#E3E880;}
	.st55{fill-rule:evenodd;clip-rule:evenodd;fill:#DBE073;}
	.st56{fill-rule:evenodd;clip-rule:evenodd;fill:#CCD15E;}
	.st57{fill-rule:evenodd;clip-rule:evenodd;fill:#C7CC54;}
	.st58{fill-rule:evenodd;clip-rule:evenodd;fill:#D1D67D;}
	.st59{fill-rule:evenodd;clip-rule:evenodd;fill:#DBE091;}
	.st60{fill-rule:evenodd;clip-rule:evenodd;fill:#EDEDB0;}
	.st61{fill-rule:evenodd;clip-rule:evenodd;fill:#FAF7E8;}
	.st62{fill-rule:evenodd;clip-rule:evenodd;fill:#F0F2A3;}
	.st63{fill-rule:evenodd;clip-rule:evenodd;fill:#F2F5C4;}
	.st64{fill-rule:evenodd;clip-rule:evenodd;fill:#FFFFFF;}
	.st65{fill-rule:evenodd;clip-rule:evenodd;fill:#BABF5E;}
	.st66{fill-rule:evenodd;clip-rule:evenodd;fill:#D4D98F;}
	.st67{fill-rule:evenodd;clip-rule:evenodd;fill:#D6DB85;}
	.st68{fill-rule:evenodd;clip-rule:evenodd;fill:#E6E8B3;}
</style>
<polygon class="st0" points="72.4,189.5 63.3,192.5 54.7,195.7 46.4,198.7 39.6,201.9 34.4,205 32,208 32.6,211.2 37.2,214.6 
	49.7,218.6 73,224.7 104.2,231.5 140.8,238.3 179.6,244.2 218.8,248.4 255.2,250 286.5,248.4 314.1,243.8 340.4,238.5 363.3,232.1 
	381.2,225.5 391.7,218 393.3,210.8 384.1,203.5 362.1,196.9 328.2,190.9 286.9,186.8 241.9,184.2 196.3,183.2 153,183 115.8,184.2 
	87.9,186.4 "/>
<polygon class="st1" points="83.4,190.3 75,193.1 66.8,196.1 58.9,198.9 52.5,201.9 47.7,204.7 45.2,207.6 45.8,210.6 50.3,213.8 
	62.1,217.8 84.1,223.7 113.6,230.1 148.2,236.7 185.2,242.2 222.2,246.2 256.8,247.6 286.5,246 312.7,241.8 337.6,236.5 
	359.3,230.7 376.2,224.3 386.1,217.2 387.7,210.4 378.8,203.5 357.9,197.3 325.7,191.7 286.9,187.9 244.3,185.2 201.1,184.2 
	160.3,184.2 124.9,185.4 98.1,187.2 "/>
<polygon class="st2" points="93.3,190.9 85.5,193.5 77.6,196.3 70.2,199.1 63.9,201.9 59.3,204.7 57.1,207.6 57.5,210.6 61.7,213.6 
	73,217.2 94.1,222.6 122.1,228.7 155,234.9 190.2,239.9 225.4,244 258.2,245.4 286.5,244 311.3,239.7 335,234.9 355.5,229.3 
	371.6,223.3 381,216.6 382.5,210.2 374,203.5 354.3,197.5 323.7,192.3 286.7,188.7 246.1,186.2 205.1,185.2 166.1,185 132.7,186.2 
	107.4,188.1 "/>
<polygon class="st3" points="102.6,191.5 94.9,194.1 87.3,196.7 80.2,199.3 74.4,202.1 69.8,204.7 67.8,207.4 68.4,210 72.4,213 
	83,216.6 103.2,221.6 129.7,227.5 161.1,233.5 194.6,238.3 228.2,242 259.6,243.4 286.5,242 310.1,238.1 332.6,233.5 352.1,228.1 
	367.4,222.2 376.4,216 377.8,209.8 369.8,203.5 351.1,197.7 321.9,192.7 286.7,189.3 248.1,187 208.9,186 171.9,185.8 140,187 
	115.8,188.9 "/>
<polygon class="st4" points="110.4,191.9 103.2,194.3 96.1,196.9 89.3,199.5 83.9,202.1 79.4,204.5 77.4,207 77.8,209.6 81.6,212.4 
	91.9,215.8 111.2,220.8 136.7,226.5 166.7,232.1 198.7,236.7 230.6,240.3 260.6,241.6 286.3,240.3 308.9,236.5 330.4,232.1 
	349.1,226.9 363.8,221.4 372.2,215.4 373.6,209.4 366,203.3 348.1,198.1 320.1,193.3 286.5,189.9 249.7,187.7 212.3,186.8 
	176.7,186.6 146.2,187.7 123.1,189.5 "/>
<polygon class="st5" points="118,192.5 111.2,194.9 104.4,197.3 97.7,199.7 92.5,202.3 88.5,204.5 86.5,207 86.9,209.4 90.5,212.2 
	100.3,215.4 118.6,220.2 143,225.5 171.7,230.9 202.3,235.3 233.1,238.7 261.6,239.9 286.3,238.7 307.9,235.1 328.4,230.9 
	346.3,225.9 360.3,220.6 368.6,214.8 370,209.2 362.5,203.5 345.3,198.3 318.5,193.5 286.3,190.5 251.1,188.3 215.4,187.5 
	181.4,187.5 152.2,188.5 130.3,190.1 "/>
<polygon class="st6" points="124.9,192.9 118.2,195.1 111.6,197.5 105.4,199.9 100.3,202.3 96.3,204.5 94.5,206.8 94.9,209.2 
	98.5,211.8 108,215 125.5,219.4 148.8,224.5 176.3,229.7 205.7,233.9 235.3,237.1 262.6,238.3 286.3,237.1 307,233.7 326.8,229.7 
	343.8,224.9 357.3,219.8 365.2,214.4 366.4,209 359.3,203.5 342.6,198.5 317.1,194.1 286.3,190.9 252.4,188.9 218.2,188.1 
	185.6,188.1 157.6,188.9 136.5,190.5 "/>
<polygon class="st7" points="131.5,193.3 125.1,195.5 118.6,197.7 112.8,199.9 107.8,202.3 104,204.3 102.1,206.6 102.6,209 
	106,211.4 115,214.4 131.9,218.8 154.2,223.7 180.8,228.7 208.9,232.9 237.1,235.9 263.4,237.1 286.1,235.9 306,232.5 324.9,228.7 
	341.4,224.1 354.3,219.2 361.9,213.8 363.1,208.6 356.3,203.3 340.4,198.5 315.9,194.3 286.3,191.5 253.8,189.5 221,188.9 
	189.8,188.7 162.9,189.5 142.6,191.1 "/>
<polygon class="st8" points="375,104.4 379.2,104.4 382.9,104.6 385.7,104.6 388.3,105 390.3,105 392.5,105 394.7,104.4 
	397.5,103.8 400.1,102.6 402.8,102 405.2,101.6 407.6,102 409.4,102.6 411,104.4 412,106.8 412.4,110.4 412.4,114.8 412.8,120.3 
	413,125.9 413,131.3 412.4,135.6 411.2,138.6 408.8,139.6 405.6,138.4 401.6,135.8 398.3,133.7 395.3,132.1 392.5,131.3 
	389.7,130.5 386.9,130.3 383.7,130.3 380.2,130.9 376.8,130.9 374.2,130.5 372.4,129.7 371.2,128.9 369.8,126.9 369.6,126.1 "/>
<polygon class="st9" points="376.2,104 380,104 383.5,104.2 386.1,104.2 388.7,104.6 390.7,104.4 392.7,104.4 394.9,104 
	397.5,103.4 399.9,102.4 402.6,101.8 404.8,101.6 407.2,102 408.8,102.6 410.2,104.2 411.2,106.4 411.6,109.6 411.6,113.6 
	411.8,118.5 412,123.3 412.2,127.9 411.6,131.7 410.4,134.4 408.2,135.4 405.2,134.4 401.4,131.9 398.3,130.1 395.3,128.7 
	392.9,127.9 390.1,127.3 387.5,127.1 384.5,127.1 381.2,127.7 377.8,127.7 375.2,127.3 373.4,126.7 372.4,125.9 371,124.1 
	371,123.3 371.6,120.9 372.2,118.5 372.8,116.1 373.4,113.6 374,111.2 374.6,108.8 375.4,106.4 "/>
<polygon class="st10" points="377.2,103.8 381,103.8 384.3,104 386.7,104 389.1,104.2 390.9,104 392.9,104 394.9,103.6 397.5,103.2 
	399.9,102.4 402.4,101.8 404.4,101.6 406.6,101.8 408.2,102.4 409.6,103.6 410.6,105.6 411,108.4 411,111.8 411.2,116.1 
	411.4,120.3 411.6,124.5 411,127.7 409.8,130.1 407.8,130.9 405,129.9 401.4,127.9 398.3,126.3 395.5,125.1 393.1,124.5 
	390.5,123.9 388.1,123.7 385.1,123.7 382,124.3 378.8,124.3 376.6,124.1 374.8,123.3 373.6,122.7 372.4,121.3 372.4,120.7 
	373,118.5 373.6,116.3 374.2,114 374.8,112 375.4,109.8 376,107.8 376.6,105.6 "/>
<polygon class="st11" points="378.4,103.4 382,103.4 385.1,103.4 387.5,103.6 389.7,103.8 391.5,103.6 393.3,103.6 395.1,103.4 
	397.5,103 399.7,102.2 402,101.8 404,101.6 406,101.8 407.6,102.2 408.8,103.4 409.6,105 410,107.4 410,110.2 410.2,113.6 
	410.4,117.1 410.4,120.7 409.8,123.3 408.8,125.3 407,125.9 404.4,125.3 401,123.5 398.1,122.3 395.5,121.3 393.3,120.9 
	390.9,120.3 388.5,120.3 385.9,120.3 383.1,120.7 380,120.7 377.8,120.5 376.2,119.9 375.2,119.5 374,118.1 374,117.7 374.4,115.8 
	375,114 375.4,112.2 376,110.4 376.6,108.6 377.2,106.8 377.8,105 "/>
<polygon class="st12" points="379.8,103 383.1,103 385.9,103 388.1,103 390.1,103.2 391.5,103.2 393.3,103.2 394.9,102.8 
	397.1,102.6 399.3,102 401.6,101.6 403.4,101.6 405.4,101.8 406.8,102.2 408,103 408.6,104.2 409,106 409,108 409.2,110.8 
	409.4,113.4 409.4,116.3 408.8,118.3 408,119.9 406.2,120.3 403.8,119.9 400.5,118.5 398.1,117.5 395.7,116.7 393.7,116.3 
	391.3,115.8 389.3,115.8 386.7,115.8 384.3,116.3 381.4,116.1 379.4,115.8 377.8,115.4 376.8,115 375.6,114 375.6,113.6 376,112.2 
	376.6,110.8 377,109.4 377.6,108.2 378,106.8 378.6,105.6 379.2,104.2 "/>
<polygon class="st13" points="381.4,102.6 384.3,102.6 386.9,102.6 388.7,102.6 390.7,102.8 392.1,102.6 393.5,102.6 395.1,102.4 
	397.1,102.4 398.9,102 401,101.8 402.6,101.6 404.4,101.8 405.6,101.8 406.8,102.6 407.4,103.2 407.8,104.6 407.8,105.8 408,107.6 
	408,109.2 408.2,111 407.6,112.4 406.8,113.4 405.2,113.6 403,113.4 400.1,112.4 397.9,111.8 395.7,111.2 393.9,111 391.9,110.8 
	389.9,110.8 387.7,110.8 385.3,111 382.7,110.8 380.8,110.8 379.4,110.6 378.8,110.4 377.8,109.8 377.8,109.6 "/>
<polygon class="st8" points="4.6,126.7 2.4,128.1 1,130.7 0,134.4 0,138.6 0.6,143.2 2.4,148.6 5.4,154.1 9.9,159.9 14.9,165.7 
	20.9,172.2 28,178.8 36.6,185.4 46.7,191.9 59.1,197.7 73.8,202.9 91.7,207.4 114,211.6 142,216.6 173.3,221.6 206.1,226.5 
	237.9,230.1 266.8,232.3 290.8,232.5 307.9,230.5 320.5,225.9 333.4,220 345.3,212.8 356.1,204.5 364.8,194.9 371.6,184.6 
	375.4,173.4 376.2,161.5 375.4,150.6 376,142.6 377,136.6 378.4,132.5 379.2,129.5 379.2,127.5 377.8,125.5 374.6,123.7 
	356.3,121.7 316.1,120.7 261.2,120.3 199.1,120.5 136.9,120.5 82.8,120.9 43.4,120.7 26.7,120.3 22.5,120.9 19.1,121.7 15.9,122.5 
	13.5,123.3 11.1,123.9 8.8,124.9 6.6,125.7 "/>
<polygon class="st14" points="6.2,127.3 4,128.7 2.4,131.1 1.4,134.6 1.2,138.8 1.8,143.2 3.8,148.4 6.8,153.9 11.3,159.7 
	16.3,165.3 22.3,171.8 29.2,178.2 37.8,184.6 47.7,190.9 60.1,196.7 74.8,201.7 92.5,206.4 114.8,210.4 142.6,215.2 173.5,220 
	205.9,224.7 237.3,228.3 266,230.5 290,230.7 307,228.7 319.7,224.3 332.2,218.4 344,211.4 354.7,203.5 363.3,194.1 370,184 
	373.8,173 374.6,161.5 373.8,150.8 374.4,143 375.4,137.2 376.8,133.1 377.4,130.1 377.4,128.1 376,126.1 372.8,124.3 354.7,122.3 
	315.1,121.3 260.8,120.7 199.5,120.7 137.9,120.7 84.1,121.1 44.8,121.1 28.2,121.1 24.1,121.3 20.9,121.9 17.7,122.5 15.3,123.3 
	12.7,124.1 10.5,125.1 8.2,126.1 "/>
<polygon class="st15" points="7.8,127.7 5.6,129.1 4,131.5 2.8,135 2.8,139 3.4,143.4 5.4,148.4 8.4,153.9 12.9,159.3 17.9,164.9 
	23.9,171.2 30.8,177.4 39.2,183.8 49.1,189.9 61.3,195.5 75.8,200.5 93.3,205 115.2,209 142.8,213.8 173.5,218.6 205.7,223.3 
	236.9,226.7 265.4,228.9 289.2,229.1 306,227.1 318.5,222.6 331,217 342.6,210.2 353.1,202.3 361.7,193.1 368.4,183.2 372,172.6 
	372.8,161.3 372.2,150.8 372.8,143.2 373.8,137.4 375.2,133.5 375.8,130.7 375.8,128.5 374.4,126.7 371.2,124.7 353.5,122.7 
	314.1,121.7 260.4,121.1 199.7,121.1 138.7,121.1 85.3,121.3 46.4,121.5 29.6,121.7 25.7,121.5 22.7,122.1 19.5,122.7 17.1,123.7 
	14.7,124.5 12.3,125.7 10.1,126.7 "/>
<polygon class="st16" points="9.2,127.5 7.2,128.5 5.8,130.9 4.8,134.2 4.8,138.2 5.2,142.4 7,147.4 9.9,152.5 14.3,157.9 
	19.3,163.1 25.1,169.1 32,175.2 40.2,181.4 50.1,187.2 62.1,192.7 76.6,197.5 93.9,201.7 115.6,205.6 143,210.2 173.5,214.8 
	205.5,219.2 236.5,222.4 264.8,224.7 288.1,224.9 304.8,222.9 317.1,218.6 329.6,213.2 341.2,206.6 351.7,199.1 360.3,190.5 
	367,181 370.6,170.8 371.4,159.9 370.8,149.8 371.2,142.4 372.2,137 373.6,133.1 374.4,130.3 374.4,128.3 373,126.5 369.8,124.7 
	352.1,122.7 312.9,121.7 259.4,121.1 198.9,121.3 138.3,121.5 85.3,122.1 46.7,122.5 30,122.9 26.5,122.9 23.5,123.3 20.5,123.7 
	18.1,124.3 15.5,124.9 13.3,125.7 11.1,126.5 "/>
<polygon class="st17" points="9.9,127.3 7.6,128.3 6.2,130.5 5.2,133.5 5.2,137.6 5.8,141.8 7.6,146.6 10.5,151.7 14.9,156.9 
	19.9,162.1 25.7,167.9 32.6,174 40.8,180 50.7,185.6 62.5,191.1 76.8,195.7 94.1,199.9 116,203.7 143.2,208.2 173.7,212.6 
	205.5,217 236.3,220.2 264.6,222.2 287.9,222.4 304.6,220.6 316.9,216.6 329.4,211.4 340.8,204.7 351.3,197.5 359.9,188.9 
	366.6,179.8 370.2,169.8 371,159.1 370.2,149.2 370.8,142 371.6,136.6 373,132.9 373.8,130.1 373.8,128.1 372.4,126.5 369.2,124.7 
	351.5,122.7 312.5,121.7 259.2,121.1 198.9,121.3 138.5,121.5 85.5,122.1 47.1,122.5 30.6,122.9 27.1,122.9 24.1,123.3 21.1,123.7 
	18.7,124.3 16.1,124.9 13.9,125.5 11.7,126.3 "/>
<polygon class="st18" points="10.1,126.9 8,127.9 6.6,130.3 5.6,133.3 5.6,137.2 6,141.2 7.8,146 10.7,150.8 15.1,156.1 20.1,161.1 
	25.9,166.7 32.8,172.6 41.2,178.6 50.9,184 62.9,189.5 77.2,194.1 94.5,198.1 116.2,201.7 143.4,206.2 173.7,210.6 205.5,214.8 
	236.3,218 264.4,220.2 287.5,220.4 304.2,218.4 316.5,214.4 328.8,209.4 340.4,203.1 350.9,195.9 359.5,187.5 366,178.4 
	369.6,168.5 370.4,158.3 369.6,148.4 370.2,141.4 371.2,136 372.6,132.5 373.2,129.9 373.2,128.1 371.8,126.3 368.8,124.7 
	351.1,122.9 312.3,121.9 259,121.3 198.9,121.5 138.5,121.5 85.9,121.9 47.7,122.1 31.2,122.5 27.5,122.5 24.5,122.9 21.5,123.5 
	19.1,124.1 16.5,124.7 14.3,125.3 12.1,126.1 "/>
<polygon class="st19" points="10.7,126.7 8.6,127.7 7.2,130.1 6.2,132.9 6.2,136.8 6.6,140.8 8.4,145.4 11.3,150.2 15.7,155.3 
	20.7,160.1 26.5,165.7 33.4,171.4 41.6,177.2 51.3,182.4 63.3,187.7 77.4,192.3 94.7,196.3 116.4,199.9 143.6,204.1 173.7,208.6 
	205.5,212.8 236.1,215.8 264.2,217.8 287.3,218 304,216.2 316.3,212.2 328.6,207.4 340,201.3 350.5,194.3 359.1,186 365.6,177.2 
	369.4,167.5 370.2,157.5 369.4,148 370,141 370.8,135.8 372.2,132.5 372.8,129.9 372.8,128.1 371.4,126.3 368.4,124.7 350.7,122.9 
	312.1,121.9 259,121.3 198.9,121.5 138.7,121.5 86.1,121.9 47.9,122.1 31.4,122.5 28,122.5 24.9,122.9 21.9,123.3 19.5,123.9 
	16.9,124.5 14.7,125.1 12.5,125.9 "/>
<polygon class="st20" points="11.3,126.5 9.2,127.5 7.8,129.9 6.8,132.7 6.8,136.4 7.2,140.2 9,144.6 11.9,149.4 16.3,154.3 
	21.3,159.1 26.9,164.7 33.8,170.2 42,175.8 51.7,181 63.5,186.2 77.8,190.7 94.9,194.5 116.4,198.1 143.6,202.3 173.7,206.6 
	205.3,210.6 235.9,213.6 264,215.6 287.1,215.8 303.8,214 315.9,210.2 328.2,205.4 339.6,199.5 350.1,192.7 358.7,184.6 365.2,176 
	368.8,166.5 369.6,156.5 368.8,147.2 369.4,140.4 370.4,135.4 371.8,132.1 372.4,129.5 372.4,127.9 371,126.3 368,124.7 
	350.3,122.9 311.7,121.9 258.6,121.3 198.9,121.5 138.9,121.5 86.5,121.9 48.3,122.1 32,122.5 28.6,122.5 25.5,122.9 22.5,123.3 
	20.1,123.9 17.5,124.5 15.3,125.1 13.1,125.7 "/>
<polygon class="st21" points="11.3,125.9 9.2,126.9 7.8,128.7 6.8,131.3 6.8,134.8 7.2,138.4 9,142.6 11.9,146.8 16.3,151.2 
	21.3,155.7 26.9,160.7 33.8,165.9 42,171.2 51.7,176 63.5,180.8 77.8,184.8 94.9,188.5 116.4,191.7 143.6,195.7 173.7,199.5 
	205.3,203.5 235.9,206.4 264,208.2 287.1,208.4 303.8,207 315.9,203.3 328.2,198.7 339.6,193.3 350.1,186.8 358.7,179.4 
	365.2,171.6 368.8,162.9 369.6,153.9 368.8,145.4 369.4,139.2 370.4,134.8 371.8,131.5 372.4,129.1 372.4,127.5 371,125.9 
	368,124.5 350.3,122.7 311.7,121.9 258.6,121.3 198.9,121.3 138.9,121.3 86.5,121.7 48.3,121.9 32,122.1 28.6,122.1 25.5,122.3 
	22.5,122.7 20.1,123.3 17.5,123.7 15.3,124.3 13.1,125.1 "/>
<polygon class="st19" points="11.3,125.1 9.2,125.9 7.8,127.7 6.8,130.1 6.8,133.3 7.2,136.6 9,140.4 11.9,144.4 16.3,148.6 
	21.3,152.7 26.9,157.1 33.8,161.7 42,166.5 51.7,170.8 63.5,175.2 77.8,178.8 94.9,182.2 116.4,185.2 143.6,188.9 173.7,192.5 
	205.3,196.1 235.9,198.7 264,200.5 287.1,200.9 303.8,199.5 315.9,196.1 328.2,192.1 339.6,187 350.1,181.2 358.7,174.6 
	365.2,167.3 368.8,159.3 369.6,151 368.8,143.4 369.4,137.8 370.4,133.5 371.8,130.7 372.4,128.5 372.4,127.1 371,125.7 368,124.3 
	350.3,122.7 311.7,121.9 258.6,121.1 198.9,121.1 138.9,121.1 86.5,121.3 48.3,121.3 32,121.7 28.6,121.7 25.5,122.1 22.5,122.3 
	20.1,122.7 17.5,123.1 15.3,123.7 13.1,124.3 "/>
<polygon class="st22" points="11.3,124.3 9.2,125.1 7.8,126.7 6.8,128.9 6.8,131.7 7.2,134.6 9,138.2 11.9,141.6 16.3,145.4 
	21.3,149 26.9,153.3 33.8,157.5 42,161.9 51.7,165.9 63.5,169.8 77.8,173.2 94.9,176.2 116.4,178.8 143.6,182.2 173.7,185.6 
	205.3,188.9 235.9,191.3 264,193.1 287.1,193.3 303.8,191.9 315.9,188.9 328.2,185.4 339.6,180.8 350.1,175.8 358.7,169.8 
	365.2,163.3 368.8,156.1 369.6,148.6 368.8,141.6 369.4,136.4 370.4,132.5 371.8,129.9 372.4,127.9 372.4,126.7 371,125.5 
	368,124.3 350.3,122.7 311.7,121.9 258.6,121.1 198.9,121.1 138.9,120.9 86.5,121.1 48.3,121.1 32,121.5 28.6,121.5 25.5,121.5 
	22.5,121.7 20.1,122.3 17.5,122.7 15.3,123.1 13.1,123.7 "/>
<polygon class="st23" points="11.3,123.7 9.2,124.3 7.8,125.7 6.8,127.5 6.8,130.1 7.2,132.9 9,136 11.9,139 16.3,142.4 21.3,145.8 
	26.9,149.4 33.8,153.3 42,157.3 51.7,160.7 63.5,164.3 77.8,167.5 94.9,170.4 116.4,172.8 143.6,175.8 173.7,178.8 205.3,181.8 
	235.9,184 264,185.6 287.1,185.8 303.8,184.8 315.9,182.2 328.2,178.8 339.6,174.8 350.1,170.2 358.7,164.7 365.2,158.9 
	368.8,152.5 369.6,145.8 368.8,139.4 369.4,134.8 370.4,131.3 371.8,129.1 372.4,127.3 372.4,126.1 371,124.9 368,123.9 
	350.3,122.5 311.7,121.7 258.6,121.1 198.9,120.9 138.9,120.7 86.5,120.7 48.3,120.7 32,120.9 28.6,120.9 25.5,121.1 22.5,121.3 
	20.1,121.7 17.5,122.1 15.3,122.5 13.1,123.1 "/>
<polygon class="st18" points="11.3,122.9 9.2,123.5 7.8,124.7 6.8,126.3 6.8,128.5 7.2,130.7 9,133.5 11.9,136.4 16.3,139.4 
	21.3,142.2 26.9,145.6 33.8,149 42,152.5 51.7,155.7 63.5,158.9 77.8,161.7 94.9,164.1 116.4,166.3 143.6,169.1 173.7,171.8 
	205.3,174.6 235.9,176.6 264,178 287.1,178.2 303.8,177.4 315.9,175 328.2,172.2 339.6,168.5 350.1,164.5 358.7,159.7 365.2,154.7 
	368.8,148.8 369.6,143 368.8,137.4 369.4,133.3 370.4,130.3 371.8,128.5 372.4,126.9 372.4,125.9 371,124.9 368,123.9 350.3,122.7 
	311.7,121.9 258.6,121.3 198.9,121.1 138.9,120.7 86.5,120.7 48.3,120.7 32,120.7 28.6,120.7 25.5,120.7 22.5,120.9 20.1,121.3 
	17.5,121.5 15.3,121.9 13.1,122.3 "/>
<polygon class="st24" points="11.3,122.1 9.2,122.5 7.8,123.7 6.8,125.1 6.8,127.1 7.2,129.1 9,131.5 11.9,134 16.3,136.6 21.3,139 
	26.9,141.8 33.8,144.8 42,147.8 51.7,150.6 63.5,153.5 77.8,155.7 94.9,157.9 116.4,159.9 143.6,162.3 173.7,164.7 205.3,167.1 
	235.9,168.9 264,170.2 287.1,170.6 303.8,169.8 315.9,167.9 328.2,165.5 339.6,162.5 350.1,159.1 358.7,154.9 365.2,150.4 
	368.8,145.6 369.6,140.6 368.8,135.8 369.4,132.1 370.4,129.5 371.8,127.7 372.4,126.3 372.4,125.3 371,124.5 368,123.7 
	350.3,122.5 311.7,121.9 258.6,121.1 198.9,120.7 138.9,120.3 86.5,120.1 48.3,120.1 32,120.1 28.6,120.1 25.5,120.1 22.5,120.3 
	20.1,120.7 17.5,120.9 15.3,121.3 13.1,121.5 "/>
<polygon class="st25" points="11.3,121.5 9.2,121.9 7.8,122.7 6.8,123.9 6.8,125.5 7.2,127.1 9,129.1 11.9,131.1 16.3,133.5 
	21.3,135.8 26.9,138.2 33.8,140.6 42,143.2 51.7,145.6 63.5,148 77.8,150 94.9,152.1 116.4,153.7 143.6,155.7 173.7,157.9 
	205.3,160.1 235.9,161.7 264,162.9 287.1,163.3 303.8,162.7 315.9,160.9 328.2,158.9 339.6,156.3 350.1,153.3 358.7,149.6 
	365.2,146 368.8,142 369.6,137.8 368.8,133.5 369.4,130.5 370.4,128.3 371.8,126.9 372.4,125.7 372.4,125.1 371,124.3 368,123.7 
	350.3,122.5 311.7,121.9 258.6,121.1 198.9,120.7 138.9,120.1 86.5,119.9 48.3,119.9 32,119.9 28.6,119.9 25.5,119.9 22.5,120.1 
	20.1,120.3 17.5,120.5 15.3,120.9 13.1,121.1 "/>
<polygon class="st26" points="11.3,120.7 9.2,120.9 7.8,121.7 6.8,122.5 6.8,123.9 7.2,125.1 9,126.9 11.9,128.7 16.3,130.5 
	21.3,132.3 26.9,134.4 33.8,136.4 42,138.6 51.7,140.6 63.5,142.6 77.8,144.2 94.9,146 116.4,147.4 143.6,149.2 173.7,151 
	205.3,152.9 235.9,154.3 264,155.3 287.1,155.5 303.8,155.3 315.9,153.9 328.2,152.3 339.6,150 350.1,147.8 358.7,144.8 
	365.2,141.8 368.8,138.4 369.6,135 368.8,131.5 369.4,129.1 370.4,127.3 371.8,126.1 372.4,125.1 372.4,124.5 371,123.9 368,123.3 
	350.3,122.5 311.7,121.7 258.6,121.1 198.9,120.5 138.9,119.9 86.5,119.5 48.3,119.3 32,119.3 28.6,119.3 25.5,119.3 22.5,119.5 
	20.1,119.7 17.5,119.7 15.3,120.1 13.1,120.3 "/>
<polygon class="st27" points="11.3,120.1 9.2,120.1 7.8,120.7 6.8,121.3 6.8,122.5 7.2,123.5 9,124.7 11.9,126.1 16.3,127.7 
	21.3,128.9 26.9,130.5 33.8,132.1 42,134 51.7,135.6 63.5,137.2 77.8,138.6 94.9,140 116.4,141 143.6,142.6 173.7,144 205.3,145.6 
	235.9,146.6 264,147.6 287.1,147.8 303.8,147.6 315.9,146.6 328.2,145.4 339.6,143.8 350.1,142.2 358.7,140 365.2,137.6 368.8,135 
	369.6,132.1 368.8,129.5 369.4,127.7 370.4,126.3 371.8,125.5 372.4,124.7 372.4,124.3 371,123.7 368,123.3 350.3,122.5 
	311.7,121.9 258.6,121.1 198.9,120.5 138.9,119.7 86.5,119.3 48.3,118.9 32,118.9 28.6,118.9 25.5,118.9 22.5,118.9 20.1,119.1 
	17.5,119.3 15.3,119.5 13.1,119.7 "/>
<polygon class="st16" points="11.3,119.3 9.2,119.3 7.8,119.7 6.8,120.3 6.8,121.1 7.2,121.7 9,122.7 11.9,123.5 16.3,124.7 
	21.3,125.7 26.9,126.9 33.8,128.1 42,129.3 51.7,130.3 63.5,131.5 77.8,132.7 94.9,134 116.4,134.8 143.6,136 173.7,137.2 
	205.3,138.4 235.9,139.4 264,140.2 287.1,140.6 303.8,140.6 315.9,139.8 328.2,139 339.6,137.8 350.1,136.6 358.7,135 365.2,133.3 
	368.8,131.5 369.6,129.7 368.8,127.7 369.4,126.3 370.4,125.3 371.8,124.7 372.4,124.1 372.4,123.7 371,123.3 368,123.1 
	350.3,122.5 311.7,121.9 258.6,121.1 198.9,120.5 138.9,119.7 86.5,119.1 48.3,118.7 32,118.7 28.6,118.7 25.5,118.7 22.5,118.7 
	20.1,118.7 17.5,118.7 15.3,118.7 13.1,118.9 "/>
<polygon class="st10" points="6,104.6 3.6,105 2,105.8 1,106.8 1,108.2 1.6,109.6 3.4,111.4 6.4,113.2 10.9,115 16.1,116.9 
	22.1,118.9 29,120.9 37.6,123.1 47.7,124.9 60.1,126.9 74.8,128.5 92.7,129.9 115.2,131.1 143.2,132.7 174.5,134.2 207.3,135.6 
	239.1,136.6 268,137.2 292,137 309.3,136.4 321.9,134.6 334.6,132.7 346.5,130.1 357.3,127.5 366,124.3 372.8,121.1 376.6,117.5 
	377.2,114 376.6,110.2 377.2,107.6 378.2,105.6 379.6,104.4 380.2,103.2 380.2,102.6 378.8,102 375.6,101.6 357.5,100.8 
	317.3,100.8 262.4,101 200.5,101.4 138.3,101.8 84.3,102.2 44.8,102.4 28.2,102.4 23.9,102.4 20.3,102.6 17.1,102.8 14.7,103.2 
	12.3,103.4 10.1,103.8 8,104 "/>
<polygon class="st28" points="4.6,106.8 5.8,101.4 6.4,99.4 6.2,99.8 6.4,102.4 6.6,106 8,110.2 10.5,114 14.9,117.3 20.1,119.3 
	25.9,121.3 32.8,123.1 41,124.9 50.7,126.5 62.9,128.1 77.6,129.7 95.5,131.3 117.8,132.7 145.6,134.4 176.5,135.8 208.9,137.2 
	240.3,138 269,138.4 292.8,138.2 309.9,137.2 321.9,135.4 333,133.5 342.8,131.1 351.7,128.9 359.1,125.9 365.6,122.9 370.6,119.3 
	374.8,115.6 377.4,113 378.8,113.6 378.6,116.7 377,121.7 373.6,127.7 368.8,134.6 361.9,141.6 353.3,148.2 333.8,152.9 
	298.2,155.7 252,156.3 200.5,155.7 148.4,153.5 101.9,150.6 66,146.8 45.8,142.8 35.6,138.6 26.5,134.8 18.7,131.1 12.5,127.5 
	7.6,123.3 4.6,118.9 3.6,113.2 "/>
<polygon class="st10" points="4.6,106.8 5.8,101.4 6.4,99.4 6.2,99.8 6.4,102.4 6.6,105.8 8,110 10.5,113.6 14.9,116.7 20.1,118.7 
	25.9,120.7 32.8,122.5 41,124.3 50.7,125.9 62.9,127.7 77.6,129.3 95.5,130.9 117.8,132.1 145.6,133.5 176.5,135 208.9,136.4 
	240.3,137.2 269,137.6 292.8,137.4 309.9,136.4 321.9,134.4 333,132.5 342.8,130.3 351.7,128.1 359.1,125.3 365.6,122.3 
	370.6,119.1 374.8,115.4 377.4,112.8 378.8,113.4 378.6,116.5 377,121.3 373.6,127.3 368.8,134 361.9,140.8 353.3,147.2 
	333.8,151.9 298.2,154.5 252,155.1 200.5,154.5 148.4,152.3 101.9,149.4 66,145.8 45.8,142 35.6,137.8 26.5,134.2 18.7,130.5 
	12.5,127.1 7.6,122.9 4.6,118.5 3.6,113 "/>
<polygon class="st29" points="4.6,107.4 5.8,102.2 6.4,100.2 6.4,100.4 6.6,102.8 7,106 8.4,109.8 10.9,113.4 15.1,116.5 
	20.3,118.3 26.1,120.3 32.8,122.1 41,124.1 50.9,125.7 63.1,127.3 77.8,128.7 95.5,130.3 117.8,131.5 145.6,133.1 176.5,134.4 
	208.9,135.6 240.3,136.2 269,136.8 292.8,136.4 309.9,135.6 321.9,133.7 333,132.1 342.8,129.9 351.7,127.7 359.1,125.1 
	365.6,122.1 370.6,118.9 374.8,115.4 377.2,113 378.6,113.6 378.4,116.5 376.6,121.1 373,126.7 368,133.1 361.1,139.4 352.5,145.2 
	332.8,149.4 297.4,151.9 251.1,152.5 199.9,151.9 148.2,149.8 102.1,147 66.4,143.4 46.7,139.8 36.4,135.8 27.5,132.5 19.7,129.3 
	13.3,126.1 8,122.5 5,118.3 3.6,113.2 "/>
<polygon class="st30" points="4.6,107.8 5.8,102.8 6.4,101 6.6,101.2 6.8,103.4 7,106.2 8.4,109.8 10.9,113 15.3,115.8 20.3,117.7 
	26.1,119.5 33,121.3 41.2,123.3 50.9,124.9 63.1,126.7 77.8,128.1 95.5,129.7 117.8,130.9 145.6,132.3 176.5,133.5 208.9,134.8 
	240.3,135.4 269,136 292.8,135.6 309.9,134.8 321.9,132.9 333,131.3 342.8,129.3 351.7,127.3 359.1,124.7 365.6,122.1 370.6,118.9 
	374.8,115.6 377.2,113.4 378.4,114 378,116.5 376.2,120.9 372.6,126.1 367.4,131.9 360.1,137.8 351.5,143.2 331.8,147 296.6,149 
	250.5,149.6 199.5,149 148,147.2 102.1,144.6 66.8,141.2 47.3,137.8 37.4,134 28.6,130.9 20.5,127.9 13.9,125.1 8.6,121.9 
	5.2,118.1 3.6,113.4 "/>
<polygon class="st28" points="4.6,108.4 5.8,103.6 6.4,101.8 6.6,102 6.8,103.8 7.2,106.4 8.8,109.8 11.3,112.8 15.7,115.4 
	20.7,117.3 26.3,119.3 33,121.1 41.2,122.9 50.9,124.5 63.1,126.1 77.8,127.5 95.5,128.9 117.8,130.1 145.6,131.3 176.5,132.5 
	208.9,134 240.3,134.6 269,135 292.8,134.8 309.9,134 321.9,132.3 333,130.7 342.8,128.9 351.7,126.9 359.1,124.3 365.6,121.9 
	370.6,118.7 374.8,115.6 377.2,113.4 378.4,114 377.8,116.7 375.8,120.7 372,125.5 366.6,130.9 359.3,136.4 350.5,141.4 
	330.8,144.6 295.6,146.6 249.7,147 198.9,146.4 147.8,144.6 102.1,142.4 67.2,139.2 48.1,135.8 38.4,132.1 29.6,129.3 21.5,126.7 
	14.7,124.3 9,121.3 5.4,117.9 3.8,113.6 "/>
<polygon class="st31" points="4.6,109 5.8,104.4 6.4,102.6 6.6,102.6 6.8,104.2 7.4,106.6 8.8,109.6 11.5,112.4 15.9,115 
	20.9,116.9 26.7,118.7 33.4,120.5 41.4,122.3 51.1,123.9 63.1,125.5 77.8,126.9 95.5,128.3 117.8,129.5 145.6,130.7 176.5,131.9 
	208.9,133.1 240.3,133.7 269,134.2 292.8,134 309.9,133.1 321.9,131.5 333,129.9 342.8,128.1 351.7,126.3 359.1,123.9 365.6,121.5 
	370.6,118.7 374.8,115.8 377.2,113.8 378.2,114.2 377.4,116.5 375.2,120.3 371.2,124.7 365.6,129.9 358.3,134.8 349.3,139.2 
	329.8,142 294.6,143.8 249.1,144.2 198.5,143.8 147.6,142 102.3,139.8 67.6,136.8 48.9,133.5 39.4,130.3 30.6,127.9 22.3,125.5 
	15.5,123.5 9.7,120.9 5.8,117.9 3.8,114 "/>
<polygon class="st32" points="4.6,109.6 5.8,105.2 6.6,103.4 6.8,103.4 7,104.8 7.6,106.8 9,109.6 11.5,112.2 15.9,114.4 
	20.9,116.1 26.7,117.9 33.4,119.7 41.4,121.7 51.1,123.3 63.1,124.9 77.8,126.3 95.5,127.7 117.8,128.9 145.6,130.1 176.5,131.1 
	208.9,132.3 240.3,132.7 269,133.1 292.8,132.9 309.9,132.1 321.9,130.7 333,129.3 342.8,127.5 351.7,125.9 359.1,123.7 
	365.6,121.5 370.6,118.7 374.8,115.8 377.2,114 378,114.4 377.2,116.7 374.8,120.3 370.6,124.3 365,128.9 357.5,133.3 348.5,137.2 
	328.8,139.6 293.6,141.2 248.1,141.4 197.7,141 147.2,139.6 102.3,137.6 67.8,134.8 49.5,131.7 40.4,128.5 31.6,126.3 23.3,124.3 
	16.1,122.5 10.1,120.3 6,117.7 3.8,114 "/>
<polygon class="st33" points="4.6,110 5.8,106 6.6,104.2 6.8,104 7.2,105.4 7.8,107.2 9.2,109.6 11.9,111.8 16.3,114 21.3,115.6 
	26.9,117.5 33.6,119.3 41.6,121.3 51.3,122.9 63.1,124.5 77.8,125.9 95.5,127.3 117.8,128.1 145.6,129.3 176.5,130.3 208.9,131.3 
	240.3,131.7 269,132.1 292.8,131.9 309.9,131.3 321.9,129.9 333,128.7 342.8,127.1 351.7,125.5 359.1,123.5 365.6,121.3 
	370.6,118.9 374.8,116.3 377.2,114.2 378,114.8 377,116.9 374.6,120.1 370.2,123.9 364.4,128.1 356.5,131.9 347.5,135.4 
	327.8,137.2 292.8,138.6 247.3,138.8 197.1,138.4 147,137 102.3,135.2 68.4,132.5 50.3,129.7 41.4,126.7 32.8,124.7 24.3,122.9 
	16.9,121.5 10.7,119.5 6.2,117.3 4,114.2 "/>
<polygon class="st34" points="6,104.4 3.6,104.8 2,105.4 1,106.4 1,107.8 1.6,109 3.4,110.6 6.4,112.2 10.9,114 16.1,115.6 
	22.1,117.7 29,119.5 37.6,121.5 47.7,123.1 60.1,124.9 74.8,126.3 92.7,127.7 115.2,128.9 143.2,130.3 174.5,131.7 207.3,133.1 
	239.1,134 268,134.6 292,134.6 309.3,134 321.9,132.1 334.6,130.3 346.5,128.1 357.3,125.7 366,122.7 372.8,119.7 376.6,116.3 
	377.2,112.8 376.6,109.6 377.2,107.2 378.2,105.4 379.6,104.2 380.2,103.2 380.2,102.6 378.8,102 375.6,101.6 357.5,100.8 
	317.3,100.8 262.4,100.8 200.5,101.4 138.3,101.6 84.3,102 44.8,102.2 28.2,102.2 23.9,102.4 20.3,102.6 17.1,102.8 14.7,103.2 
	12.3,103.2 10.1,103.6 8,103.8 "/>
<polygon class="st35" points="7.4,104.4 5.2,104.6 3.6,105.2 2.4,106.2 2.4,107.4 3,108.6 5,110 8,111.6 12.7,113.4 17.7,114.8 
	23.7,116.7 30.6,118.5 39.2,120.3 49.1,121.9 61.5,123.7 76,125.1 93.7,126.5 115.8,127.5 143.6,128.7 174.7,129.9 207.1,131.1 
	238.7,131.9 267.4,132.3 291.4,132.3 308.3,131.7 320.7,130.1 333.2,128.5 345,126.5 355.7,124.3 364.6,121.5 371.2,118.7 
	375,115.4 375.6,112.2 375,109 375.6,106.8 376.6,105.2 378,104.2 378.6,103.2 378.6,102.6 377.2,102.2 374,101.8 355.9,101 
	316.3,101 262,101 200.7,101.4 139.1,101.6 85.5,102 46.2,102.2 29.6,102.4 25.5,102.4 22.1,102.4 18.9,102.6 16.5,103 13.9,103.2 
	11.7,103.6 9.5,103.8 "/>
<polygon class="st36" points="9,104 6.8,104.4 5.2,105 4.2,106 4.2,107.2 4.8,108.4 6.6,109.8 9.7,111.2 14.1,112.8 19.1,114 
	25.1,115.8 32,117.5 40.4,119.1 50.3,120.5 62.3,122.1 76.8,123.3 94.5,124.7 116.6,125.7 144.2,126.9 174.7,128.1 207.1,129.3 
	238.3,129.9 266.6,130.3 290.2,130.3 307,129.7 319.5,128.3 332,126.9 343.6,124.9 354.3,122.9 362.9,120.3 369.6,117.7 
	373.4,114.6 374.2,111.8 373.6,108.8 374,106.6 375,105 376.4,104 377.2,103.2 377.2,102.6 375.8,102.2 372.6,101.8 354.7,101.2 
	315.5,101 261.8,101 200.9,101.4 140,101.6 86.7,102 47.7,102.2 30.8,102.4 26.9,102.4 23.9,102.4 20.9,102.6 18.3,102.8 15.7,103 
	13.5,103.4 11.1,103.6 "/>
<polygon class="st10" points="4.6,101.6 2.4,99.8 1,97.1 0,93.5 0,89.5 0.6,84.7 2.4,79.4 5.4,74 9.9,68.6 14.9,62.6 20.9,56.3 
	28,49.7 36.6,43.2 46.7,36.8 59.1,31.2 73.8,26.1 91.7,22.1 114,17.9 142,13.5 173.3,8.9 206.1,4.8 237.9,1.6 266.8,0 290.8,0.2 
	307.9,2.8 320.5,7.2 333.4,13.3 345.3,20.5 356.1,29.2 364.8,38.6 371.6,49.1 375.4,60.3 376.2,72.4 375.4,83.1 376,91.3 377,97.1 
	378.4,101.4 379.2,104.2 379.2,106.6 377.8,108.4 374.6,110.6 356.3,112 316.1,112.4 261.2,111.8 199.1,110.8 136.9,109.4 
	82.8,108.4 43.4,108 26.7,108.4 22.5,107.4 19.1,106.6 15.9,105.8 13.5,105 11.1,104 8.8,103.2 6.6,102.4 "/>
<polygon class="st37" points="6.2,101 4,99.4 2.4,96.9 1.4,93.3 1.2,89.3 1.8,84.5 3.8,79.4 6.8,74.2 11.3,69 16.3,63 22.3,56.7 
	29.2,50.3 37.8,44 47.7,37.8 60.1,32.2 74.8,27.4 92.5,23.5 114.8,19.5 142.6,14.9 173.5,10.3 205.9,6.4 237.3,3.2 266,1.6 290,1.8 
	307,4.4 319.7,8.9 332.2,14.7 344,21.7 354.7,30.2 363.3,39.4 370,49.9 373.8,60.9 374.6,72.8 373.8,83.1 374.4,91.1 375.4,96.7 
	376.8,101 377.4,103.6 377.4,105.8 376,107.6 372.8,109.8 354.7,111.2 315.1,111.8 260.8,111.4 199.5,110.4 137.9,109.2 84.1,108.2 
	44.8,107.4 28.2,107.6 24.1,107 20.9,106.6 17.7,105.8 15.3,105 12.7,104 10.5,103 8.2,102 "/>
<polygon class="st23" points="7.8,100.8 5.6,99 4,96.5 2.8,93.1 2.8,89.1 3.4,84.3 5.4,79.4 8.4,74.2 12.9,69 17.9,63.2 23.9,57.1 
	30.8,50.9 39.2,44.9 49.1,38.6 61.3,33.2 75.8,28.4 93.3,24.7 115.2,20.7 142.8,16.3 173.5,11.9 205.7,8 236.9,4.8 265.4,3.2 
	289.2,3.4 306,6 318.5,10.3 331,16.3 342.6,23.1 353.1,31.4 361.7,40.2 368.4,50.5 372,61.1 372.8,72.8 372.2,82.9 372.8,90.7 
	373.8,96.3 375.2,100.4 375.8,103 375.8,105.2 374.4,107 371.2,109.2 353.5,110.6 314.1,111.2 260.4,110.8 199.7,110.2 138.7,109 
	85.3,108 46.4,107.2 29.6,107 25.7,106.8 22.7,106.4 19.5,105.6 17.1,104.8 14.7,103.8 12.3,102.8 10.1,101.6 "/>
<polygon class="st38" points="9.2,101 7.2,99.4 5.8,97.1 4.8,93.9 4.8,90.1 5.2,85.5 7,80.7 9.9,75.6 14.3,70.6 19.3,65.2 
	25.1,59.3 32,53.3 40.2,47.5 50.1,41.6 62.1,36.4 76.6,31.6 93.9,28 115.6,24.1 143,19.9 173.5,15.7 205.5,12.1 236.5,9.1 
	264.8,7.4 288.1,7.4 304.8,10.1 317.1,14.3 329.6,19.7 341.2,26.3 351.7,34.4 360.3,43 367,52.7 370.6,63 371.4,74.2 370.8,84.1 
	371.2,91.5 372.2,96.7 373.6,100.8 374.4,103.4 374.4,105.4 373,107 369.8,109.2 352.1,110.6 312.9,111 259.4,110.6 198.9,109.8 
	138.3,108.4 85.3,107.2 46.7,106.2 30,106 26.5,105.6 23.5,105.2 20.5,104.6 18.1,104 15.5,103.2 13.3,102.4 11.1,101.6 "/>
<polygon class="st39" points="9.9,101.2 7.6,99.6 6.2,97.3 5.2,94.1 5.2,90.5 5.8,85.9 7.6,81.3 10.5,76.2 14.9,71.4 19.9,66 
	25.7,60.3 32.6,54.5 40.8,48.9 50.7,43 62.5,38 76.8,33.4 94.1,30 116,26.1 143.2,22.1 173.7,17.9 205.5,14.3 236.3,11.3 264.6,9.7 
	287.9,9.7 304.6,12.3 316.9,16.3 329.4,21.7 340.8,28.2 351.3,36 359.9,44.4 366.6,53.9 370.2,64.2 371,75 370.2,84.5 370.8,91.9 
	371.6,97.1 373,101.2 373.8,103.6 373.8,105.6 372.4,107.2 369.2,109.2 351.5,110.6 312.5,111 259.2,110.6 198.9,109.8 138.5,108.6 
	85.5,107.4 47.1,106.4 30.6,106 27.1,105.6 24.1,105.2 21.1,104.6 18.7,104.2 16.1,103.4 13.9,102.6 11.7,101.8 "/>
<polygon class="st40" points="10.1,101.6 8,100 6.6,97.7 5.6,94.5 5.6,90.9 6,86.7 7.8,82.1 10.7,77.2 15.1,72.4 20.1,67 25.9,61.5 
	32.8,55.7 41.2,50.1 50.9,44.4 62.9,39.6 77.2,35 94.5,31.6 116.2,28 143.4,23.9 173.7,19.7 205.5,16.3 236.3,13.5 264.4,12.1 
	287.5,12.1 304.2,14.5 316.5,18.3 328.8,23.7 340.4,30 350.9,37.6 359.5,45.9 366,55.1 369.6,65.2 370.4,75.8 369.6,85.3 
	370.2,92.3 371.2,97.3 372.6,101.2 373.2,103.6 373.2,105.6 371.8,107.2 368.8,109.2 351.1,110.6 312.3,111 259,110.6 198.9,109.8 
	138.5,108.6 85.9,107.4 47.7,106.4 31.2,106 27.5,105.6 24.5,105.2 21.5,104.6 19.1,104.2 16.5,103.4 14.3,102.8 12.1,102.2 "/>
<polygon class="st41" points="10.7,101.6 8.6,100.2 7.2,97.9 6.2,94.9 6.2,91.3 6.6,87.1 8.4,82.7 11.3,78 15.7,73.4 20.7,68 
	26.5,62.6 33.4,56.9 41.6,51.5 51.3,45.9 63.3,41 77.4,36.8 94.7,33.6 116.4,30 143.6,25.9 173.7,21.9 205.5,18.5 236.1,15.7 
	264.2,14.3 287.3,14.5 304,16.7 316.3,20.5 328.6,25.7 340,32 350.5,39.4 359.1,47.5 365.6,56.5 369.4,66.2 370.2,76.6 369.4,85.9 
	370,92.7 370.8,97.7 372.2,101.4 372.8,103.8 372.8,105.8 371.4,107.2 368.4,109.2 350.7,110.6 312.1,111 259,110.6 198.9,109.8 
	138.7,108.6 86.1,107.4 47.9,106.4 31.4,106.2 28,105.8 24.9,105.4 21.9,104.8 19.5,104.4 16.9,103.6 14.7,103 12.5,102.2 "/>
<polygon class="st42" points="11.3,101.8 9.2,100.4 7.8,98.4 6.8,95.3 6.8,91.9 7.2,87.7 9,83.5 11.9,78.8 16.3,74.2 21.3,69.2 
	26.9,63.8 33.8,58.3 42,52.9 51.7,47.5 63.5,42.8 77.8,38.6 94.9,35.2 116.4,31.8 143.6,28 173.7,23.9 205.3,20.7 235.9,17.9 
	264,16.5 287.1,16.7 303.8,18.9 315.9,22.7 328.2,27.8 339.6,33.8 350.1,41.2 358.7,49.1 365.2,57.9 368.8,67.4 369.6,77.4 
	368.8,86.3 369.4,93.1 370.4,97.9 371.8,101.8 372.4,104 372.4,106 371,107.4 368,109.2 350.3,110.6 311.7,111 258.6,110.8 
	198.9,110 138.9,108.8 86.5,107.6 48.3,106.6 32,106.2 28.6,105.8 25.5,105.6 22.5,105 20.1,104.6 17.5,103.8 15.3,103.2 
	13.1,102.4 "/>
<polygon class="st43" points="11.3,102.6 9.2,101.2 7.8,99.4 6.8,96.5 6.8,93.3 7.2,89.5 9,85.5 11.9,81.3 16.3,77.2 21.3,72.4 
	26.9,67.6 33.8,62.3 42,57.5 51.7,52.5 63.5,48.1 77.8,44.2 94.9,41.2 116.4,38 143.6,34.6 173.7,31 205.3,28 235.9,25.3 264,24.1 
	287.1,24.1 303.8,26.3 315.9,29.8 328.2,34.4 339.6,40 350.1,46.9 358.7,54.1 365.2,62.1 368.8,70.8 369.6,80.2 368.8,88.3 
	369.4,94.5 370.4,99 371.8,102.4 372.4,104.6 372.4,106.4 371,107.8 368,109.6 350.3,110.8 311.7,111 258.6,110.6 198.9,110 
	138.9,108.8 86.5,107.8 48.3,107 32,106.8 28.6,106.4 25.5,106 22.5,105.6 20.1,105.2 17.5,104.4 15.3,103.8 13.1,103.2 "/>
<polygon class="st41" points="11.3,103.4 9.2,102.2 7.8,100.4 6.8,97.9 6.8,95.1 7.2,91.5 9,87.9 11.9,84.1 16.3,80.2 21.3,75.8 
	26.9,71.4 33.8,66.6 42,62.1 51.7,57.5 63.5,53.5 77.8,50.1 94.9,47.3 116.4,44.2 143.6,41.2 173.7,37.8 205.3,35.2 235.9,32.8 
	264,31.6 287.1,31.6 303.8,33.6 315.9,36.6 328.2,41 339.6,46.3 350.1,52.3 358.7,58.9 365.2,66.4 368.8,74.4 369.6,83.1 
	368.8,90.5 369.4,96.1 370.4,100.2 371.8,103.4 372.4,105.4 372.4,106.8 371,108.2 368,109.8 350.3,110.6 311.7,111 258.6,110.6 
	198.9,110 138.9,109 86.5,108 48.3,107.2 32,107 28.6,106.6 25.5,106.4 22.5,106 20.1,105.8 17.5,105.2 15.3,104.6 13.1,104 "/>
<polygon class="st44" points="11.3,104 9.2,103 7.8,101.4 6.8,99 6.8,96.5 7.2,93.3 9,90.1 11.9,86.5 16.3,83.1 21.3,79 26.9,75.2 
	33.8,71 42,67 51.7,62.8 63.5,59.3 77.8,55.9 94.9,53.5 116.4,50.7 143.6,47.9 173.7,44.9 205.3,42.4 235.9,40.2 264,39.2 
	287.1,39.2 303.8,41 315.9,43.8 328.2,47.7 339.6,52.5 350.1,57.9 358.7,64 365.2,70.6 368.8,77.6 369.6,85.5 368.8,92.3 
	369.4,97.5 370.4,101.4 371.8,104 372.4,105.8 372.4,107.2 371,108.4 368,109.8 350.3,110.8 311.7,111.2 258.6,110.8 198.9,110.2 
	138.9,109.2 86.5,108.4 48.3,107.8 32,107.6 28.6,107.2 25.5,106.8 22.5,106.4 20.1,106 17.5,105.4 15.3,105 13.1,104.4 "/>
<polygon class="st45" points="11.3,104.8 9.2,103.8 7.8,102.2 6.8,100.2 6.8,97.9 7.2,95.1 9,92.3 11.9,89.1 16.3,86.1 21.3,82.5 
	26.9,78.8 33.8,75.2 42,71.6 51.7,67.8 63.5,64.6 77.8,61.7 94.9,59.5 116.4,57.1 143.6,54.5 173.7,51.7 205.3,49.5 235.9,47.7 
	264,46.7 287.1,46.9 303.8,48.5 315.9,50.9 328.2,54.3 339.6,58.5 350.1,63.4 358.7,68.8 365.2,74.8 368.8,81.3 369.6,88.3 
	368.8,94.3 369.4,99 370.4,102.2 371.8,104.8 372.4,106.2 372.4,107.6 371,108.6 368,110 350.3,110.8 311.7,111 258.6,110.6 
	198.9,110.2 138.9,109.4 86.5,108.6 48.3,108 32,107.8 28.6,107.4 25.5,107.2 22.5,106.8 20.1,106.6 17.5,106 15.3,105.6 
	13.1,105.2 "/>
<polygon class="st40" points="11.3,105.6 9.2,104.6 7.8,103.4 6.8,101.6 6.8,99.6 7.2,96.9 9,94.5 11.9,91.7 16.3,88.9 21.3,85.7 
	26.9,82.5 33.8,79 42,76 51.7,72.8 63.5,70 77.8,67.4 94.9,65.6 116.4,63.4 143.6,61.1 173.7,58.7 205.3,56.7 235.9,55.1 264,54.1 
	287.1,54.3 303.8,55.7 315.9,57.9 328.2,60.9 339.6,64.6 350.1,69 358.7,73.6 365.2,79 368.8,84.9 369.6,91.1 368.8,96.3 
	369.4,100.4 370.4,103.4 371.8,105.6 372.4,106.8 372.4,108 371,108.8 368,110 350.3,110.8 311.7,111 258.6,110.8 198.9,110.4 
	138.9,109.6 86.5,109 48.3,108.2 32,108.2 28.6,108 25.5,107.8 22.5,107.4 20.1,107.2 17.5,106.8 15.3,106.4 13.1,106 "/>
<polygon class="st46" points="11.3,106.2 9.2,105.6 7.8,104.4 6.8,102.8 6.8,101.2 7.2,99 9,96.7 11.9,94.3 16.3,91.9 21.3,89.3 
	26.9,86.5 33.8,83.7 42,80.9 51.7,77.8 63.5,75.4 77.8,73.2 94.9,71.6 116.4,69.8 143.6,67.8 173.7,65.6 205.3,64 235.9,62.3 
	264,61.7 287.1,61.7 303.8,63.2 315.9,65 328.2,67.6 339.6,70.8 350.1,74.6 358.7,78.6 365.2,83.5 368.8,88.1 369.6,93.5 
	368.8,97.9 369.4,101.6 370.4,104.2 371.8,106.2 372.4,107.4 372.4,108.4 371,109.2 368,110.4 350.3,111 311.7,111 258.6,110.8 
	198.9,110.4 138.9,109.8 86.5,109.2 48.3,108.8 32,108.8 28.6,108.4 25.5,108.2 22.5,108 20.1,107.8 17.5,107.2 15.3,107 
	13.1,106.4 "/>
<polygon class="st47" points="11.3,107 9.2,106.4 7.8,105.4 6.8,104 6.8,102.6 7.2,100.6 9,98.8 11.9,96.7 16.3,94.9 21.3,92.5 
	26.9,90.3 33.8,87.9 42,85.5 51.7,83.1 63.5,81.1 77.8,79 94.9,77.8 116.4,76.2 143.6,74.6 173.7,72.8 205.3,71.4 235.9,70 
	264,69.4 287.1,69.4 303.8,70.6 315.9,72.2 328.2,74.4 339.6,77 350.1,80.2 358.7,83.7 365.2,87.5 368.8,91.7 369.6,96.3 
	368.8,100.2 369.4,103.2 370.4,105.2 371.8,107 372.4,108 372.4,108.8 371,109.6 368,110.4 350.3,111 311.7,111 258.6,110.8 
	198.9,110.6 138.9,110 86.5,109.4 48.3,109 32,109 28.6,108.8 25.5,108.6 22.5,108.4 20.1,108.2 17.5,107.8 15.3,107.6 13.1,107.2 
	"/>
<polygon class="st34" points="11.3,107.8 9.2,107.2 7.8,106.4 6.8,105.2 6.8,104.2 7.2,102.6 9,101.2 11.9,99.6 16.3,97.9 
	21.3,95.9 26.9,93.9 33.8,91.9 42,90.1 51.7,88.1 63.5,86.5 77.8,84.9 94.9,83.9 116.4,82.5 143.6,81.1 173.7,79.6 205.3,78.4 
	235.9,77.2 264,76.8 287.1,76.8 303.8,77.8 315.9,79 328.2,81.1 339.6,83.3 350.1,85.9 358.7,88.7 365.2,91.7 368.8,95.1 369.6,99 
	368.8,102 369.4,104.6 370.4,106.4 371.8,107.8 372.4,108.4 372.4,109.2 371,109.8 368,110.6 350.3,111 311.7,111.2 258.6,111 
	198.9,110.8 138.9,110.2 86.5,109.8 48.3,109.2 32,109.2 28.6,109 25.5,109 22.5,108.8 20.1,108.8 17.5,108.4 15.3,108.2 13.1,108 
	"/>
<polygon class="st33" points="11.3,108.8 9.2,108 7.8,107.4 6.8,106.6 6.8,105.6 7.2,104.4 9,103.2 11.9,102 16.3,100.8 21.3,99.2 
	26.9,97.7 33.8,96.1 42,94.7 51.7,93.1 63.5,91.9 77.8,90.7 94.9,89.9 116.4,88.7 143.6,87.7 173.7,86.5 205.3,85.7 235.9,84.7 
	264,84.5 287.1,84.5 303.8,85.3 315.9,86.3 328.2,87.7 339.6,89.3 350.1,91.5 358.7,93.7 365.2,96.1 368.8,98.8 369.6,101.8 
	368.8,104.2 369.4,106 370.4,107.4 371.8,108.6 372.4,109 372.4,109.6 371,110 368,110.6 350.3,110.8 311.7,111 258.6,110.8 
	198.9,110.8 138.9,110.4 86.5,110 48.3,109.8 32,109.8 28.6,109.6 25.5,109.6 22.5,109.4 20.1,109.4 17.5,109.2 15.3,109 
	13.1,108.8 "/>
<polygon class="st38" points="11.3,109.2 9.2,108.8 7.8,108.4 6.8,107.8 6.8,107.2 7.2,106.2 9,105.4 11.9,104.6 16.3,103.8 
	21.3,102.6 26.9,101.6 33.8,100.6 42,99.6 51.7,98.4 63.5,97.3 77.8,96.5 94.9,95.9 116.4,95.1 143.6,94.3 173.7,93.5 205.3,92.9 
	235.9,92.3 264,92.1 287.1,92.1 303.8,92.7 315.9,93.3 328.2,94.3 339.6,95.3 350.1,96.9 358.7,98.4 365.2,100.4 368.8,102.2 
	369.6,104.4 368.8,106.2 369.4,107.4 370.4,108.4 371.8,109.2 372.4,109.6 372.4,110 371,110.4 368,111 350.3,111 311.7,111.2 
	258.6,111 198.9,111 138.9,110.6 86.5,110.4 48.3,110 32,110 28.6,109.8 25.5,109.8 22.5,109.8 20.1,109.8 17.5,109.6 15.3,109.4 
	13.1,109.2 "/>
<polygon class="st48" points="10.5,104 8.4,104.4 7,105 6,105.8 5.8,107 6.4,108.2 8.2,109.4 11.3,110.8 15.7,112.2 20.7,113.6 
	26.5,115.2 33.4,116.9 41.6,118.7 51.5,120.1 63.5,121.5 78,122.7 95.3,123.9 117,124.7 144.4,125.7 174.9,126.9 206.9,128.1 
	237.9,128.7 266.2,129.3 289.6,129.1 306.2,128.7 318.5,127.3 331,125.9 342.4,124.1 352.9,122.1 361.5,119.5 368.2,116.9 
	371.8,114 372.6,111.2 371.8,108.4 372.4,106.4 373.4,105 374.8,104 375.4,103.2 375.4,102.6 374,102.2 371,101.8 353.3,101.2 
	314.3,101.2 260.6,101.2 200.3,101.6 139.5,101.8 86.5,102.2 48.1,102.4 31.4,102.6 28,102.6 24.9,102.8 21.9,103 19.5,103.2 
	16.9,103.2 14.7,103.4 12.3,103.6 "/>
<polygon class="st49" points="10.9,104 8.8,104.2 7.4,104.8 6.4,105.4 6.4,106.6 6.8,107.8 8.6,109 11.5,110.4 15.9,111.8 20.9,113 
	26.7,114.6 33.6,116.3 42,117.9 51.9,119.3 63.9,120.7 78.2,121.7 95.5,122.9 117.2,123.7 144.4,124.7 174.9,125.7 206.7,126.9 
	237.7,127.5 266,128.1 289.4,127.9 306,127.5 318.3,126.3 330.8,124.9 342.2,123.1 352.7,121.1 361.3,118.7 367.8,116.3 
	371.4,113.6 372,111 371.4,108.2 371.8,106.2 372.8,104.8 374.2,103.8 375,103 375,102.6 373.6,102 370.4,101.8 352.9,101.2 
	313.9,101.2 260.6,101.2 200.3,101.6 139.8,101.8 86.9,102.2 48.5,102.4 32,102.6 28.6,102.6 25.5,102.8 22.5,103 19.9,103.2 
	17.3,103.2 15.1,103.4 12.7,103.6 "/>
<polygon class="st50" points="11.5,103.8 9.5,104 8,104.6 7,105.2 7,106.4 7.4,107.4 9.2,108.6 12.1,109.8 16.5,111.2 21.5,112.4 
	27.1,114 34,115.4 42.2,117.1 52.1,118.5 64.1,119.9 78.6,120.9 95.9,122.1 117.6,122.7 144.8,123.7 174.9,124.7 206.7,125.7 
	237.5,126.3 265.6,126.9 289,126.9 305.6,126.5 317.9,125.1 330.2,123.7 341.8,121.9 352.3,120.3 360.7,117.9 367.4,115.6 371,113 
	371.8,110.4 371,107.8 371.6,106 372.6,104.6 374,103.8 374.6,103 374.6,102.6 373.2,102 370.2,101.8 352.5,101.2 313.7,101.2 
	260.4,101.2 200.3,101.6 140,101.6 87.1,102 48.7,102.2 32.2,102.6 28.8,102.6 25.7,102.6 22.7,102.6 20.3,102.8 17.7,103 
	15.5,103.2 13.3,103.4 "/>
<polygon class="st51" points="12.1,103.8 9.9,104 8.4,104.6 7.4,105.2 7.4,106.2 7.8,107.2 9.7,108.4 12.5,109.6 16.7,111 21.7,112 
	27.5,113.4 34.4,114.6 42.8,116.3 52.5,117.5 64.5,118.7 78.8,119.7 96.1,120.9 117.6,121.5 144.8,122.7 174.9,123.5 206.7,124.5 
	237.3,124.9 265.4,125.5 288.7,125.5 305.4,125.1 317.5,123.9 329.8,122.7 341.4,120.9 351.9,119.3 360.3,117.1 366.8,114.8 
	370.4,112.4 371.2,110 370.6,107.6 371,105.8 372,104.4 373.4,103.8 374.2,103 374.2,102.6 372.8,102 369.6,101.8 351.9,101.2 
	313.1,101.2 260,101.2 200.1,101.6 140,101.6 87.3,102 49.1,102.2 32.6,102.6 29.2,102.6 26.3,102.6 23.3,102.6 20.9,102.8 
	18.3,103 16.1,103.2 13.9,103.4 "/>
<polygon class="st52" points="12.3,103.4 10.3,103.6 8.8,104.2 7.8,104.8 7.8,106 8.2,106.8 10.1,108 12.9,109.2 17.3,110.4 
	22.3,111.4 28.2,112.6 35,114 43.2,115.4 52.9,116.7 64.9,117.9 79,118.9 96.3,120.1 117.8,120.7 144.8,121.5 174.9,122.3 
	206.5,123.3 237.1,123.7 265.2,124.3 288.3,124.3 304.8,123.9 317.1,122.7 329.4,121.5 340.8,119.9 351.3,118.3 359.7,116.3 
	366.2,114.2 369.8,111.8 370.6,109.6 370,107.2 370.4,105.6 371.4,104.2 372.8,103.6 373.6,102.8 373.6,102.4 372.2,102 369,101.8 
	351.5,101.2 312.9,101.2 259.8,101.2 200.1,101.4 140,101.6 87.5,102 49.3,102.2 33,102.4 29.6,102.4 26.5,102.4 23.5,102.6 
	21.1,102.8 18.5,102.8 16.3,103 14.1,103.2 "/>
<polygon class="st47" points="12.3,101 10.5,101.2 9.2,101.6 8.2,101.8 8,102 8.4,102 10.3,102.2 12.9,102.4 17.3,103 22.3,103.2 
	28.4,104 35.4,104.6 43.8,105.6 53.7,106 65.8,106.4 79.8,106.2 96.3,105.4 117.2,103.8 143.6,102.6 173.3,101.8 204.7,101.6 
	235.3,101.4 263.4,102 286.9,103 304.2,104.6 317.1,105.8 329.8,106.4 341.4,106.4 351.9,106 360.1,105 366.4,104.2 370,103.2 
	370.6,102.6 369.8,102 370.2,102.4 371,102.8 371.4,102.8 371.6,102.8 370.8,101.8 369,100.4 348.7,93.9 311.5,90.5 262.4,89.1 
	207.5,89.7 152.2,91.1 102.6,93.5 63.9,95.7 42.4,97.9 32.4,99.2 25.5,99.8 20.7,100.2 17.7,100.4 15.7,100.4 14.7,100.4 
	13.5,100.4 "/>
<polygon class="st53" points="12.3,101.2 10.5,101.6 9.2,102 8.2,102.2 8,102.4 8.4,102.4 10.3,102.6 12.9,102.6 17.3,103 
	22.3,103.4 28.4,104 35.4,104.8 43.8,105.8 53.7,106.2 65.8,106.6 79.8,106.2 96.3,105.4 117.2,104 143.6,103 173.3,102.2 
	204.7,102 235.3,101.8 263.4,102.2 286.9,103 304.2,104.6 317.1,105.8 329.8,106.4 341.4,106.4 351.9,106 360.1,105.2 366.4,104.4 
	370,103.6 370.6,103 369.8,102.4 370.2,102.8 371,103.2 371.4,103.2 371.6,103.2 370.8,102.4 369,101 348.7,95.1 311.5,91.7 
	262.4,90.5 207.5,91.1 152.2,92.5 102.6,94.5 63.9,96.7 42.4,98.6 32.4,99.6 25.5,100.2 20.7,100.6 17.7,100.8 15.7,100.8 
	14.7,100.8 13.5,100.8 "/>
<polygon class="st54" points="12.3,103.2 10.5,103.4 9,104 8,104.6 8,105.4 8.4,106.2 10.3,107.2 12.9,108 17.3,109.2 22.3,110 
	28.2,111.2 35,112.4 43.2,113.8 53.1,114.8 64.9,116.1 79.2,116.9 96.3,117.7 117.6,117.9 144.6,118.5 174.7,119.1 206.3,119.9 
	236.9,120.3 264.8,120.7 288.1,120.7 304.8,120.7 317.1,119.9 329.4,119.1 340.8,117.7 351.3,116.3 359.9,114.2 366.4,112.4 
	370,110.4 370.6,108.4 369.8,106.4 370.4,105 371.4,104 372.6,103.4 373.2,102.8 373.2,102.6 371.8,102.2 369,101.8 350.9,100.6 
	312.5,100 260.2,99.6 201.3,100 142.2,100.2 90.3,100.8 51.9,101.2 34.8,101.8 30.2,102 26.3,102.2 23.1,102.2 20.5,102.4 
	18.1,102.4 16.1,102.6 14.1,102.8 "/>
<polygon class="st55" points="12.3,103 10.5,103.2 9,103.6 8,104.2 8,104.8 8.4,105.4 10.3,106.2 12.9,107 17.3,108.2 22.3,108.8 
	28.2,110 35,111 43.4,112.2 53.1,113 64.9,114 79.2,114.4 96.3,115 117.6,115 144.4,115.4 174.3,115.8 205.9,116.5 236.5,116.9 
	264.6,117.3 287.9,117.5 304.8,117.7 317.1,117.3 329.6,116.7 341,115.4 351.5,114.2 359.9,112.4 366.4,110.8 370,109 370.6,107.4 
	369.8,105.6 370.2,104.6 371.2,103.8 372.2,103.4 372.8,103 373,102.8 371.6,102.2 369,101.6 350.5,99.4 312.3,98.4 260.6,98.2 
	202.5,98.6 144.2,99 92.7,100 54.3,100.8 36.2,101.6 30.6,101.8 26.1,102 22.5,102.2 19.9,102.4 17.5,102.4 15.7,102.6 13.9,102.6 
	"/>
<polygon class="st50" points="12.3,102.6 10.5,102.8 9,103.2 8,103.6 8,104.2 8.4,104.6 10.3,105.2 12.9,106 17.3,106.8 22.3,107.4 
	28.2,108.6 35,109.6 43.4,110.6 53.3,111.4 65.2,112.2 79.2,112.6 96.3,112.6 117.6,112.2 144.4,112.4 174.3,112.4 205.7,112.8 
	236.3,113 264.4,113.4 287.7,113.8 304.6,114.2 317.1,114.2 329.6,114 341,113.2 351.5,112.2 359.9,110.8 366.4,109.4 370,107.8 
	370.6,106.6 369.8,105.2 370.2,104.4 370.8,103.8 371.8,103.6 372.4,103.2 372.4,102.8 371.4,102.2 369,101.6 350.1,98.6 
	312.1,96.9 261,96.3 203.7,96.7 146,97.5 95.1,98.8 56.7,99.8 37.8,101 31,101.4 25.9,101.8 22.1,101.8 19.3,102 17.1,102 
	15.5,102.2 13.9,102.2 "/>
<polygon class="st56" points="12.3,102.4 10.5,102.6 9,103 8,103.2 8,103.6 8.4,104 10.3,104.4 12.9,105 17.3,105.6 22.3,106 
	28.4,107 35.2,108 43.6,109 53.5,109.6 65.4,110.2 79.4,110.4 96.3,110.4 117.4,109.8 144.2,109.4 173.9,109.2 205.3,109.4 
	235.9,109.4 264,110 287.5,110.4 304.6,111.2 317.3,111.4 329.8,111.4 341.2,110.8 351.7,110 360.1,108.8 366.4,107.6 370,106.4 
	370.6,105.4 369.8,104.2 370,103.8 370.6,103.6 371.6,103.6 372,103.4 372,103.2 371,102.4 369,101.6 349.7,97.7 311.9,95.7 
	261.4,94.9 204.9,95.3 148.2,96.1 97.5,97.7 58.9,99.2 39.2,100.4 31.4,100.8 25.7,101.2 21.5,101.4 18.7,101.6 16.5,101.6 
	15.1,101.8 13.7,101.8 "/>
<polygon class="st57" points="12.3,102.2 10.5,102.4 9,102.6 8,102.8 8,103.2 8.4,103.4 10.3,103.8 12.9,104 17.3,104.6 22.3,105 
	28.4,105.6 35.2,106.4 43.8,107.4 53.7,107.8 65.6,108.4 79.6,108.2 96.3,107.8 117.4,106.8 144,106.2 173.7,105.8 205.1,105.8 
	235.5,105.8 263.6,106.2 287.1,106.8 304.2,107.8 317.1,108.6 329.8,108.8 341.2,108.4 351.7,108 360.1,107 366.4,106.2 370,105 
	370.6,104.4 369.8,103.4 370,103.2 370.4,103.2 371.4,103.4 371.8,103.2 372,103.2 371,102.6 369,101.6 349.3,96.9 311.7,94.3 
	262,93.3 206.3,93.7 150.2,94.7 99.9,96.5 61.5,98.4 40.8,100 32,100.6 25.5,101.2 21.1,101.4 18.3,101.6 16.3,101.6 14.9,101.6 
	13.7,101.8 "/>
<polygon class="st48" points="12.3,101.8 10.5,102 9.2,102.4 8.2,102.4 8,102.6 8.4,102.6 10.3,102.8 12.9,103 17.3,103.4 
	22.3,103.6 28.4,104.2 35.4,105 43.8,105.8 53.7,106.2 65.8,106.4 79.8,106.2 96.3,105.4 117.2,104.2 143.6,103.2 173.3,102.6 
	204.7,102.4 235.3,102.2 263.4,102.6 286.9,103.4 304.2,104.8 317.1,105.8 329.8,106.2 341.4,106.2 351.9,106 360.1,105.2 
	366.4,104.4 370,103.6 370.6,103.2 369.8,102.6 369.8,102.8 370.2,103 371,103.4 371.4,103.4 371.6,103.2 370.8,102.4 369,101.2 
	348.7,95.7 311.5,92.7 262.4,91.7 207.5,92.1 152.2,93.5 102.6,95.5 63.9,97.5 42.4,99.4 32.4,100.4 25.5,101 20.7,101.2 
	17.7,101.4 15.7,101.4 14.7,101.4 13.5,101.4 "/>
<polygon class="st58" points="166.9,28 173.3,26.1 182.8,24.5 194,22.7 206.7,21.5 219,20.1 230.4,19.1 239.9,18.3 246.5,18.3 
	252,17.7 259,17.3 266.6,16.7 275.1,16.3 283.3,16.3 291,17.1 297.6,18.5 302.8,21.1 306.2,23.3 308.7,25.1 309.9,26.1 310.5,26.8 
	309.9,26.8 308.3,26.8 305.8,26.3 302.6,25.9 297.6,25.3 291,24.9 282.9,24.5 274.5,24.5 265.4,24.3 256.8,24.3 248.7,24.5 
	242.1,25.1 233.7,25.5 221.6,26.5 207.5,27.4 193.6,28.4 180.8,28.8 170.9,29.2 165.7,28.8 "/>
<polygon class="st59" points="173.3,27.2 179.4,25.9 188.2,24.7 198.5,23.3 209.9,22.3 221,21.1 231.4,20.1 240.1,19.5 246.5,19.3 
	251.8,18.9 258.4,18.7 265.6,18.1 273.7,18.1 281.3,17.9 288.7,18.5 295,19.3 300.2,21.1 303.4,22.7 305.8,23.9 306.8,24.5 
	306.8,25.1 305.6,25.1 303.8,25.1 301.2,24.9 298,24.7 293.2,24.1 287.1,23.7 279.9,23.3 272.3,23.3 264,23.1 256.2,23.1 
	248.7,23.1 242.3,23.7 234.1,24.1 223,24.9 209.9,25.7 197.1,26.8 185.2,27.4 176.3,27.8 171.7,27.8 "/>
<polygon class="st60" points="177.2,26.5 183,25.5 191.4,24.7 201.3,23.7 211.9,22.7 222.4,21.7 232.2,20.9 240.3,20.3 246.5,20.3 
	251.8,19.9 258.2,19.7 265.2,19.1 272.9,19.1 280.3,18.9 287.3,19.3 293.4,19.9 298.4,21.3 301.6,22.3 303.8,23.3 304.4,23.7 
	304.4,24.1 303.2,23.9 301.2,23.9 298.4,23.7 295.2,23.7 290.6,23.3 284.9,23.1 278.1,22.7 271.1,22.7 263.4,22.5 256,22.5 
	248.9,22.5 242.7,22.9 234.7,23.3 223.8,23.9 211.5,24.7 199.3,25.7 188,26.3 179.8,27 175.5,27 "/>
<polygon class="st61" points="180.2,26.3 186,25.5 194,24.7 203.3,23.9 213.3,23.1 223.2,22.1 232.6,21.5 240.5,20.9 246.5,20.7 
	251.5,20.5 257.8,20.3 264.6,19.9 272.3,19.9 279.3,19.7 286.3,19.9 292.2,20.3 297.2,21.3 300.2,22.1 302.2,22.7 302.8,23.1 
	302.6,23.5 301.2,23.3 299.2,23.3 296.4,23.3 293.2,23.3 288.5,22.9 283.1,22.7 276.9,22.3 270,22.3 262.8,22.1 255.8,22.1 
	248.9,22.1 242.9,22.5 235.1,22.7 224.6,23.3 212.7,24.1 200.9,25.1 190.2,25.7 182.4,26.3 178.6,26.5 "/>
<polygon class="st52" points="166.7,122.9 170.9,123.7 179.4,124.5 190.4,125.1 203.5,125.7 216.4,126.1 228.8,126.7 238.7,126.9 
	245.7,127.3 251.1,127.3 258.4,127.5 266.4,127.5 275.3,127.9 283.9,127.7 292,127.5 298.8,127.1 304.2,126.5 307.6,125.3 
	309.9,124.7 311.1,123.9 311.3,123.5 310.3,122.9 308.7,122.9 306,122.7 302.8,123.1 297.8,123.1 291.2,123.1 283.1,123.3 
	274.7,123.5 265.6,123.3 257,123.3 248.9,123.3 242.3,123.3 234.1,122.9 222.8,122.7 209.7,122.1 196.5,122.1 183.8,121.7 
	173.7,121.9 167.5,122.1 "/>
<polygon class="st62" points="173.7,123.7 178.6,124.1 186.8,124.5 197.1,124.9 208.7,125.5 220.2,125.7 231,126.1 239.9,126.3 
	246.5,126.5 251.8,126.5 258.6,126.7 266,126.7 274.3,126.9 282.3,126.7 290,126.7 296.4,126.5 301.6,126.1 304.8,125.3 
	306.8,124.7 307.9,124.3 307.9,124.1 306.6,123.9 304.8,123.7 302,123.7 298.8,123.9 294,123.9 287.9,124.1 280.7,124.1 
	273.1,124.3 264.8,124.3 257,124.3 249.3,124.3 243.1,124.3 235.1,123.9 224.2,123.7 211.7,123.3 199.1,123.3 187.4,122.9 
	178.6,122.9 173.3,123.1 "/>
<polygon class="st63" points="178.2,123.9 183.6,124.1 191.8,124.5 201.5,124.7 212.1,125.3 222.8,125.5 232.6,125.7 241.1,125.9 
	247.1,126.1 252.4,126.1 258.8,126.1 265.8,126.1 273.7,126.3 281.1,126.1 288.3,126.1 294.6,125.9 299.6,125.9 302.8,125.3 
	305,125.1 305.6,124.7 304.2,124.5 302.4,124.5 299.6,124.5 296.2,124.7 291.6,124.7 285.9,124.9 279.3,124.9 272.1,125.1 
	264.4,125.1 257,125.1 249.9,125.1 243.7,125.1 235.7,124.7 225.2,124.5 212.9,124.1 200.9,123.9 189.6,123.7 181.4,123.5 
	176.9,123.5 "/>
<polygon class="st64" points="181.2,124.3 187,124.3 195,124.7 204.5,124.7 214.6,125.1 224.4,125.3 233.7,125.5 241.5,125.7 
	247.5,125.9 252.6,125.9 259,125.9 265.8,125.9 273.5,125.9 280.5,125.9 287.5,125.9 293.4,125.7 298.4,125.5 301.6,125.1 
	303.6,124.9 304.2,124.9 304,124.9 302.6,124.9 300.6,124.9 297.6,125.1 294.4,125.3 290,125.3 284.5,125.3 278.3,125.3 
	271.5,125.3 264.2,125.3 257.2,125.3 250.1,125.3 244.1,125.3 236.3,125.1 225.8,124.9 213.9,124.7 202.1,124.5 191.4,124.3 
	183.4,124.1 179.6,124.1 "/>
<polygon class="st23" points="150.8,15.3 157.2,13.9 166.9,12.7 178.4,11.1 191,9.7 203.3,8 214.8,6.8 224.2,5.6 230.8,5.2 
	236.1,4.4 243.1,3.8 250.9,3 259.4,2.4 267.4,1.8 275.3,1.6 281.9,1.8 287.1,2.6 290.6,3.2 293,3.8 294.2,4.2 294.6,4.6 293.8,4.6 
	292.4,4.6 289.8,4.6 286.5,4.8 281.5,4.8 275.1,5 267,5.4 258.6,6 249.5,6.6 240.7,7.2 232.6,7.8 226,8.6 217.6,9.5 205.5,10.7 
	191.4,12.1 177.6,13.7 164.7,14.7 154.8,15.7 149.6,15.7 "/>
<polygon class="st65" points="157.2,14.5 163.3,13.3 172.1,12.3 182.6,10.9 194,9.7 205.1,8.4 215.6,7.2 224.2,6.2 230.4,5.8 
	235.7,5 242.3,4.4 249.7,3.8 257.8,3.2 265.4,2.6 272.9,2.4 279.1,2.2 284.3,2.8 287.5,3.2 289.8,3.6 290.8,3.8 291,4 289.8,4 
	288.1,4.2 285.3,4.2 282.1,4.4 277.3,4.4 271.3,4.8 264,5 256.4,5.6 248.1,6.2 240.3,6.8 232.6,7.4 226.4,8 218.2,8.6 207.1,10.1 
	194,11.3 181.2,12.7 169.3,13.7 160.5,14.7 155.8,14.9 "/>
<polygon class="st66" points="161.3,14.1 167.1,13.1 175.5,12.1 185.2,10.9 195.9,9.7 206.3,8.4 216.2,7.4 224.4,6.4 230.4,6 
	235.7,5.4 242.1,5 249.1,4.4 257,3.8 264.4,3.2 271.5,2.8 277.5,2.6 282.5,3 285.7,3.2 287.7,3.4 288.5,3.4 288.5,3.6 287.1,3.6 
	285.3,3.8 282.5,4 279.1,4.4 274.5,4.4 268.8,4.8 262.2,5 255,5.6 247.3,6 239.9,6.6 232.8,7.2 226.6,7.8 218.6,8.2 207.9,9.5 
	195.7,10.7 183.4,12.1 172.1,13.1 163.9,13.9 159.7,14.3 "/>
<polygon class="st61" points="164.1,13.9 169.9,13.1 178,12.1 187.2,10.9 197.3,9.9 207.1,8.6 216.6,7.6 224.4,6.8 230.4,6.4 
	235.5,5.8 241.9,5.4 248.7,4.8 256.4,4.2 263.4,3.6 270.5,3.2 276.3,2.8 281.3,3 284.3,3 286.3,3.2 286.9,3.4 286.7,3.6 285.3,3.6 
	283.3,3.6 280.5,3.8 277.3,4.2 272.7,4.2 267.2,4.6 261,4.8 254.2,5.4 246.9,5.8 239.9,6.2 232.8,6.8 226.8,7.4 219,7.8 208.5,9.1 
	196.7,10.3 184.8,11.7 174.1,12.7 166.3,13.5 162.5,13.9 "/>
<polygon class="st36" points="152.2,126.9 159.3,127.5 169.7,128.1 182,128.7 195.7,129.5 209.1,129.9 221.6,130.5 231.8,130.9 
	239.1,131.1 244.9,131.1 252.6,131.3 261,131.5 270.2,131.9 279.1,131.7 287.5,131.5 294.8,130.9 300.4,130.3 304,129.1 
	306.6,128.5 308.1,127.9 308.7,127.9 307.9,127.7 306,127.7 303.2,127.9 299.8,128.3 294.4,128.3 287.1,128.5 278.5,128.5 
	269.2,128.7 259.4,128.7 249.9,128.7 241.3,128.7 234.1,128.7 224.8,128.1 211.7,127.7 196.7,127.1 181.4,126.7 167.3,126.3 
	156.4,126.3 150.8,126.3 "/>
<polygon class="st67" points="159.1,127.5 165.7,127.9 175.3,128.3 186.6,128.7 199.1,129.3 211.1,129.7 222.4,130.1 231.8,130.3 
	238.7,130.5 244.3,130.5 251.8,130.7 259.8,130.9 268.4,131.1 276.9,130.9 284.9,130.9 291.8,130.7 297.4,130.3 301,129.5 
	303.4,128.9 304.4,128.7 304.6,128.7 303.4,128.5 301.4,128.5 298.4,128.7 295,128.9 289.8,128.9 283.3,128.9 275.5,128.9 
	267,129.1 258.2,128.9 249.5,128.9 241.5,128.9 234.7,128.9 225.6,128.5 213.3,128.3 199.1,127.9 185,127.5 172.1,127.1 
	162.5,126.9 157.4,126.9 "/>
<polygon class="st68" points="163.5,127.5 169.9,127.7 179,128.1 189.6,128.5 201.3,129.1 212.5,129.5 223.2,129.9 232,130.1 
	238.7,130.3 244.3,130.3 251.3,130.5 259,130.5 267.4,130.9 275.5,130.7 283.1,130.7 290,130.5 295.4,130.3 298.8,129.7 
	301.2,129.3 302,128.9 300.6,128.9 298.4,128.9 295.4,128.9 291.8,129.1 286.7,129.1 280.5,129.1 273.3,129.1 265.6,129.3 
	257.4,129.3 249.1,129.3 241.5,129.1 234.7,129.1 226,128.7 214.4,128.5 200.9,128.1 187.4,127.9 175.3,127.3 166.3,127.3 
	161.9,127.1 "/>
<polygon class="st64" points="166.7,127.7 172.9,127.7 181.8,128.1 191.8,128.5 202.9,128.9 213.5,129.1 223.8,129.5 232.2,129.7 
	238.7,129.9 244.3,129.9 251.1,130.1 258.6,130.3 266.8,130.5 274.7,130.5 282.1,130.5 288.5,130.3 294,130.3 297.4,129.7 
	299.6,129.5 300.4,129.3 300.2,129.3 298.6,129.1 296.4,129.1 293.2,129.3 289.6,129.5 284.7,129.5 278.7,129.5 271.9,129.5 
	264.6,129.5 256.8,129.5 248.9,129.5 241.5,129.5 234.9,129.5 226.2,129.1 215,128.7 202.1,128.3 189.2,128.1 177.6,127.5 
	169.1,127.5 164.9,127.3 "/>
</svg>
