<svg xmlns:dc="http://purl.org/dc/elements/1.1/" xmlns:cc="http://creativecommons.org/ns#" xmlns:rdf="http://www.w3.org/1999/02/22-rdf-syntax-ns#" xmlns:svg="http://www.w3.org/2000/svg" xmlns="http://www.w3.org/2000/svg" xmlns:sodipodi="http://sodipodi.sourceforge.net/DTD/sodipodi-0.dtd" xmlns:inkscape="http://www.inkscape.org/namespaces/inkscape" version="1.1" x="0px" y="0px" viewBox="0 0 100 125"><g transform="translate(0,-952.36218)"><path style="text-indent:0;text-transform:none;direction:ltr;block-progression:tb;baseline-shift:baseline;color:#000000;enable-background:accumulate;" d="m 76.993918,960.16977 c -1.83871,3.471 -1.94875,7.4302 -3.81216,10.6958 -0.58048,0.992 -1.22974,1.6927 -2.12481,2.0953 -6.40704,-8.9372 -16.12685,-14.6675 -27.06008,-14.6675 -19.39578,0 -34.9968705,18.0036 -34.9968705,40.03091 0,5.57802 1.0031005,10.89592 2.8122505,15.73102 -1.65981,6.6395 -2.1991705,12.6785 -1.1874,17.0131 1.0487,4.4926 3.407,7.8659 6.62441,10.2891 6.43482,4.8466 16.13404,6.0047 26.18516,6.0047 10.00559,0 19.9688,-0.4457 26.74761,-4.9414 3.38941,-2.2477 5.93119,-5.567 7.09312,-10.1953 1.1229,-4.4728 0.56326,-10.8548 -1.1249,-18.139 1.8181,-4.8451 2.84349,-10.1696 2.84349,-15.76222 0,-4.13011 -0.54324,-8.12911 -1.56236,-11.88421 1.71624,-3.272 3.51129,-4.8284 4.71833,-5.1915 1.31135,-0.3945 2.8608,0.062 4.93706,0.062 1.8932,0 3.27203,-1.4355 3.718423,-3.0023 0.44639,-1.5668 0.14347,-3.3885 -1.093663,-4.6911 -1.35836,-1.4303 -3.44582,-1.4196 -5.46826,-1.3447 -1.2112,0.045 -2.20782,0.014 -3.3122,0.031 1.95774,-2.2454 4.12927,-3.7738 5.87447,-6.0047 1.78828,-2.3019 1.44238,-5.5542 -0.4687,-7.3806 -3.12744,-2.1581 -7.27615,-2.3602 -9.34292,1.2516 z m 7.99929,0.219 c 1.25754,1.666 1.35616,3.2393 0.24997,4.691 -2.16572,2.8537 -5.66157,4.8114 -7.53057,7.6622 -0.35935,0.5497 0.0107,1.4139 0.65619,1.5325 1.88891,0.3329 4.06163,0.07 5.96821,0 1.90659,-0.07 3.39469,0.1481 3.93715,0.7193 0.6638,0.699 0.86012,1.8481 0.5937,2.7834 -0.26642,0.9349 -0.82295,1.5324 -1.78109,1.5324 -1.72561,0 -3.48421,-0.5748 -5.49951,0.031 -1.68837,0.5081 -3.28482,1.8744 -4.90581,4.7225 -1.09368,-3.2762 -2.5434,-6.3623 -4.31212,-9.1633 1.20166,-0.5997 1.77245,-1.7373 2.53103,-3.0336 2.0578,-3.4044 2.04532,-7.3843 3.8434,-10.727 1.40237,-2.0962 4.1575,-2.6089 6.24945,-0.7504 z m -40.99634,-0.094 c 18.15616,0 32.99705,16.9452 32.99705,38.02941 0,21.08422 -14.84089,38.02942 -32.99705,38.02942 -18.15606,0 -32.99705,-16.9452 -32.99705,-38.02942 0,-8.75141 2.55369,-16.79601 6.84314,-23.20541 2.99464,-1.085 13.98431,-5.8343 22.81046,-5.8483 -5.94819,-1.3625 -14.39236,-0.8353 -19.43576,1.5637 5.93405,-6.53 13.95898,-10.5394 22.77921,-10.5394 z m 0,17.0131 c -7.18984,0 -14.34784,2.0139 -19.77948,5.3792 -5.43164,3.3653 -9.21793,8.1646 -9.21793,13.63561 0,4.25332 1.56067,8.64572 4.06214,12.07182 2.50147,3.4261 6.00839,5.9421 9.93661,5.9421 2.83308,0 5.67586,-1.3708 8.31176,-2.627 2.63589,-1.2563 5.10371,-2.3769 6.6869,-2.3769 1.58319,0 4.05101,1.1206 6.6869,2.3769 2.6359,1.2562 5.47868,2.627 8.31176,2.627 3.92822,0 7.43515,-2.516 9.93661,-5.9421 2.50147,-3.4261 4.06214,-7.8185 4.06214,-12.07182 0,-5.47101 -3.78628,-10.27031 -9.21793,-13.63561 -5.43164,-3.3653 -12.58964,-5.3792 -19.77948,-5.3792 z m 0,2.0016 c 6.80891,0 13.64966,1.9579 18.71708,5.0978 5.06741,3.1396 8.28051,7.3785 8.28051,11.91541 0,3.75292 -1.43906,7.83572 -3.68717,10.91462 -2.24811,3.0792 -5.2406,5.0978 -8.31176,5.0978 -2.16648,0 -4.8232,-1.1626 -7.43683,-2.4081 -2.61364,-1.2458 -5.14537,-2.5959 -7.56183,-2.5959 -2.41645,0 -4.94819,1.3501 -7.56182,2.5959 -2.61364,1.2456 -5.27036,2.4081 -7.43684,2.4081 -3.07115,0 -6.06365,-2.0186 -8.31175,-5.0978 -2.24811,-3.0789 -3.68718,-7.1617 -3.68718,-10.91462 0,-4.53691 3.2131,-8.77581 8.28051,-11.91541 5.06742,-3.1398 11.90817,-5.0978 18.71708,-5.0978 z m -16.99848,11.0085 c -0.99991,0 -1.99982,2.0015 -1.99982,3.0023 l 3.93715,0.563 c -1.74842,0.6995 -2.93724,1.98091 -2.93724,3.44011 0,2.2109 2.68605,4.00322 5.99946,4.00322 3.31342,0 5.99947,-1.79232 5.99947,-4.00322 0,-0.8551 -0.40906,-1.66391 -1.09365,-2.31431 l 2.09356,0.3128 c 0,-1.0008 -10.99902,-5.0039 -11.99893,-5.0039 z m 33.99696,0 c -0.99991,0 -11.99893,4.0031 -11.99893,5.0039 l 2.09357,-0.3128 c -0.6846,0.6504 -1.09366,1.45921 -1.09366,2.31431 0,2.2109 2.68605,4.00322 5.99947,4.00322 3.31341,0 5.99946,-1.79232 5.99946,-4.00322 0,-1.4571 -1.16176,-2.74001 -2.90599,-3.44011 l 3.9059,-0.563 c 0,-1.0008 -0.99991,-3.0023 -1.99982,-3.0023 z m 13.99875,26.55173 c 1.27476,6.2596 1.28231,11.1167 0.34372,14.8553 -1.05158,4.1888 -3.25206,7.0299 -6.28069,9.0382 -6.05726,4.0172 -15.68478,4.5973 -25.62271,4.5973 -9.89249,0 -19.19485,-1.2508 -24.96652,-5.598 -2.88583,-2.1735 -4.95592,-5.0944 -5.90572,-9.1634 -0.83716,-3.5864 -0.78534,-8.0875 0.43746,-13.6981 5.84196,12.731 17.49657,21.4542 30.99723,21.4542 13.50986,0 25.15922,-8.7405 30.99723,-21.4855 z" fill="#000000" fill-opacity="1" stroke="none" marker="none" visibility="visible" display="inline" overflow="visible"/></g><text x="0" y="115" fill="#000000" font-size="5px" font-weight="bold" font-family="'Helvetica Neue', Helvetica, Arial-Unicode, Arial, Sans-serif">Created by AFY Studio</text><text x="0" y="120" fill="#000000" font-size="5px" font-weight="bold" font-family="'Helvetica Neue', Helvetica, Arial-Unicode, Arial, Sans-serif">from the Noun Project</text></svg>