<?xml version="1.0" encoding="utf-8"?>
<!-- Generator: Adobe Illustrator 25.0.0, SVG Export Plug-In . SVG Version: 6.00 Build 0)  -->
<svg version="1.1"
	 id="svg2" inkscape:version="0.91 r13725" xmlns:cc="http://creativecommons.org/ns#" xmlns:dc="http://purl.org/dc/elements/1.1/" xmlns:inkscape="http://www.inkscape.org/namespaces/inkscape" xmlns:ns1="http://sozi.baierouge.fr" xmlns:rdf="http://www.w3.org/1999/02/22-rdf-syntax-ns#" xmlns:sodipodi="http://sodipodi.sourceforge.net/DTD/sodipodi-0.dtd"
	 xmlns="http://www.w3.org/2000/svg" xmlns:xlink="http://www.w3.org/1999/xlink" x="0px" y="0px" viewBox="0 0 43.1 34.8"
	 style="enable-background:new 0 0 43.1 34.8;" xml:space="preserve">
<style type="text/css">
	.st0{fill-rule:evenodd;clip-rule:evenodd;fill:#AB7422;}
	.st1{fill-rule:evenodd;clip-rule:evenodd;fill:#E3CA6C;}
	.st2{fill-rule:evenodd;clip-rule:evenodd;fill:#CC841D;}
	.st3{fill-rule:evenodd;clip-rule:evenodd;fill:#F0A537;}
	.st4{fill-rule:evenodd;clip-rule:evenodd;fill:#FFE894;}
	.st5{fill-rule:evenodd;clip-rule:evenodd;fill:url(#path52_1_);}
	.st6{fill-rule:evenodd;clip-rule:evenodd;fill:url(#path70_1_);}
	.st7{fill-rule:evenodd;clip-rule:evenodd;fill:url(#path88_1_);}
	.st8{fill-rule:evenodd;clip-rule:evenodd;fill:url(#path106_1_);}
	.st9{fill-rule:evenodd;clip-rule:evenodd;fill:url(#path124_1_);}
	.st10{fill-rule:evenodd;clip-rule:evenodd;fill:url(#path142_1_);}
	.st11{fill-rule:evenodd;clip-rule:evenodd;fill:url(#path160_1_);}
</style>
<path id="path14" inkscape:connector-curvature="0" class="st0" d="M22.3,31.7l-6.9-1.8l5.4-9l22.1-3l0.2,2.4L25,34.8L22.3,31.7z"/>
<path id="path16" inkscape:connector-curvature="0" class="st1" d="M25.8,23.5l5.4-3.8l9.9-1.2l1.3,0l0.2,2.3L26.1,33.9
	C26.1,33.9,25.8,23.5,25.8,23.5z"/>
<path id="path18" inkscape:connector-curvature="0" class="st2" d="M0,17.8c0-2.2,0.5-4.2,1.4-6L2.8,10l13.3,2l8.7,17.8l0.2,5.1
	L13.8,31c-3.4-1.1-7.5-2.5-12.3-4.3c-0.2-0.2-0.5-0.8-0.7-1.6C0.2,23.3,0,20.9,0,17.8z"/>
<path id="path32" inkscape:connector-curvature="0" class="st3" d="M42,18.7l-16.5,7.6l0.7,4.8l-1.3,1C17.2,26,12,21.8,9.2,19.4
	c-3-2.5-4.7-4.1-5.2-4.6c-1.3-1.3-2-2.4-1.9-3.1c0.1-0.9,0.6-1.7,1.4-2.6c0.8-0.9,2.4-2.1,4.6-3.6c4.9-3.4,8.6-5.2,11.1-5.5
	C20.7-0.1,21.9,0,23,0.2c1.2,0.3,2.5,1,4,2c1.3,0.9,3.4,2.9,6.3,5.8c1.5,1.6,3.3,3.4,5.4,5.7c1.3,1.3,2.7,2.7,4.3,4.3
	C43.1,18,42,18.7,42,18.7z"/>
<path id="path34" inkscape:connector-curvature="0" class="st4" d="M29.1,5c1.1,1,2.7,2.7,4.9,5c2.4,2.3,5.2,5.1,8.4,8.4
	c-5.5,4-9.2,6.7-11.1,8.2c-1.9,1.4-3.6,3-5.3,4.6c-4.6-3.3-8.1-6.2-10.5-8.5c-3.1-2.7-5.4-4.7-7-6.1c-2.8-2.5-4.1-4.1-3.8-4.9
	c0.4-1,0.9-1.8,1.4-2.4c0.7-0.7,2.1-1.7,4.2-3c3.9-2.4,6.2-3.7,6.9-4.1c2.7-1.3,4.9-1.6,6.6-0.9C25.6,2.1,27.3,3.3,29.1,5z"/>
<g id="g36">
	<g id="g38">
		<g id="g44">
			
				<linearGradient id="path52_1_" gradientUnits="userSpaceOnUse" x1="108.5026" y1="851.3939" x2="115.2196" y2="851.3939" gradientTransform="matrix(0.7071 0.7071 0.7071 -0.7071 -669.0092 535.1105)">
				<stop  offset="0" style="stop-color:#C2A353"/>
				<stop  offset="1" style="stop-color:#F2DC88"/>
			</linearGradient>
			<path id="path52" inkscape:connector-curvature="0" class="st5" d="M11.2,8.9c2.2,0,3.7,0.8,4.6,2.2c0.8,1.2,0.8,2.3,0.2,3.2
				c-0.6,0.8-1.7,1.3-3.2,1.3c-1.6,0-2.9-0.6-4-1.7c-1-1.1-1.1-2.2-0.2-3.4C9.4,9.5,10.2,8.9,11.2,8.9z"/>
		</g>
	</g>
</g>
<g id="g54">
	<g id="g56">
		<g id="g62">
			
				<linearGradient id="path70_1_" gradientUnits="userSpaceOnUse" x1="113.9116" y1="858.5416" x2="118.2256" y2="858.5416" gradientTransform="matrix(0.7071 0.7071 0.7071 -0.7071 -669.0092 535.1105)">
				<stop  offset="0" style="stop-color:#C2A353"/>
				<stop  offset="1" style="stop-color:#F2DC88"/>
			</linearGradient>
			<path id="path70" inkscape:connector-curvature="0" class="st6" d="M19.8,7.9c0.8,0,1.5,0.3,2.1,0.8c0.6,0.5,0.9,1.2,0.8,2
				c-0.1,0.9-0.5,1.4-1.4,1.8c-0.9,0.3-1.7,0.2-2.5-0.5c-0.9-0.6-1.2-1.5-0.9-2.5C18.1,8.4,18.8,7.9,19.8,7.9z"/>
		</g>
	</g>
</g>
<g id="g72">
	<g id="g74">
		<g id="g80">
			
				<linearGradient id="path88_1_" gradientUnits="userSpaceOnUse" x1="123.8116" y1="851.6332" x2="131.2356" y2="851.6332" gradientTransform="matrix(0.7071 0.7071 0.7071 -0.7071 -669.0092 535.1105)">
				<stop  offset="0" style="stop-color:#C2A353"/>
				<stop  offset="1" style="stop-color:#F2DC88"/>
			</linearGradient>
			<path id="path88" inkscape:connector-curvature="0" class="st7" d="M25,20.2c1.6,0.9,2.5,2.1,2.7,3.5c0.1,1.4-0.4,2.4-1.7,3.1
				c-1.2,0.7-2.5,0.6-4-0.4c-1.4-0.9-2.2-2-2.5-3.3c-0.4-1.7,0.2-2.8,1.8-3.2C22.7,19.5,23.9,19.6,25,20.2z"/>
		</g>
	</g>
</g>
<g id="g90">
	<g id="g92">
		<g id="g98">
			
				<linearGradient id="path106_1_" gradientUnits="userSpaceOnUse" x1="128.2306" y1="864.0889" x2="134.0286" y2="864.0889" gradientTransform="matrix(0.7071 0.7071 0.7071 -0.7071 -669.0092 535.1105)">
				<stop  offset="0" style="stop-color:#C2A353"/>
				<stop  offset="1" style="stop-color:#F2DC88"/>
			</linearGradient>
			<path id="path106" inkscape:connector-curvature="0" class="st8" d="M35.7,14.4c1.7,0.9,2.5,2,2.4,3.4c-0.1,1.3-0.8,2-2.1,2.3
				c-1.1,0.2-2.1-0.1-2.9-1c-0.7-0.9-1.1-1.9-1.1-3c0-1,0.3-1.7,1.1-2C33.8,13.7,34.6,13.9,35.7,14.4z"/>
		</g>
	</g>
</g>
<g id="g108">
	<g id="g110">
		<g id="g116">
			
				<linearGradient id="path124_1_" gradientUnits="userSpaceOnUse" x1="110.8186" y1="864.3899" x2="113.6116" y2="864.3899" gradientTransform="matrix(0.7071 0.7071 0.7071 -0.7071 -669.0092 535.1105)">
				<stop  offset="0" style="stop-color:#C2A353"/>
				<stop  offset="1" style="stop-color:#F2DC88"/>
			</linearGradient>
			<path id="path124" inkscape:connector-curvature="0" class="st9" d="M21.7,2.1c1.6,0.3,2.1,0.9,1.4,1.9c-0.7,1.1-1.6,1.2-2.5,0.3
				c-0.7-0.6-1-1.2-0.6-1.7C20.2,2.2,20.8,2,21.7,2.1z"/>
		</g>
	</g>
</g>
<g id="g126">
	<g id="g128">
		<g id="g134">
			
				<linearGradient id="path142_1_" gradientUnits="userSpaceOnUse" x1="120.8596" y1="861.2326" x2="125.3496" y2="861.2326" gradientTransform="matrix(0.7071 0.7071 0.7071 -0.7071 -669.0092 535.1105)">
				<stop  offset="0" style="stop-color:#C2A353"/>
				<stop  offset="1" style="stop-color:#F2DC88"/>
			</linearGradient>
			<path id="path142" inkscape:connector-curvature="0" class="st10" d="M27.3,11.1c1.2,0.4,2,1,2.3,1.9c0.3,0.8,0.2,1.5-0.4,2
				c-0.6,0.5-1.2,0.7-2,0.6c-0.9-0.2-1.6-0.7-2.2-1.7c-0.6-0.9-0.5-1.7,0.2-2.3C25.8,11,26.5,10.8,27.3,11.1z"/>
		</g>
	</g>
</g>
<g id="g144">
	<g id="g146">
		<g id="g152">
			
				<linearGradient id="path160_1_" gradientUnits="userSpaceOnUse" x1="118.2436" y1="865.6213" x2="120.3286" y2="865.6213" gradientTransform="matrix(0.7071 0.7071 0.7071 -0.7071 -669.0092 535.1105)">
				<stop  offset="0" style="stop-color:#C2A353"/>
				<stop  offset="1" style="stop-color:#F2DC88"/>
			</linearGradient>
			<path id="path160" inkscape:connector-curvature="0" class="st11" d="M28,6.6c0.8,0.7,0.9,1.2,0.3,1.7c-0.6,0.4-1.1,0.3-1.7-0.4
				c-0.5-0.6-0.5-1.1,0-1.3C27.1,6.2,27.5,6.3,28,6.6z"/>
		</g>
	</g>
</g>
</svg>
