<svg xmlns="http://www.w3.org/2000/svg" data-name="Layer 1" viewBox="0 0 68 85" x="0px" y="0px"><title>Artboard 48@5x</title><path d="M38.5,50.08A6.33,6.33,0,0,1,34,48.2a6.31,6.31,0,0,1-10.79-4.65,6.31,6.31,0,0,1-4.5-9.85A6.48,6.48,0,0,1,17,31.38a6.32,6.32,0,0,1,2.38-7.81l-.12-.37a6.3,6.3,0,0,1,3.27-7.52,6.3,6.3,0,0,1,5.17-7.42,7.44,7.44,0,0,1,.09-1,6.32,6.32,0,0,1,12.55,1,6.14,6.14,0,0,1,1.12.29,6.32,6.32,0,0,1,4.05,7.13l.39.21a6.31,6.31,0,0,1,2.76,7.68,6.32,6.32,0,0,1,2.66,7,6.21,6.21,0,0,1-2,3.12,6.41,6.41,0,0,1,1.11,3.57,6.32,6.32,0,0,1-5.61,6.28,6.31,6.31,0,0,1-2.93,5.55A6.38,6.38,0,0,1,38.5,50.08ZM34,45.6h0a1,1,0,0,1,.85.47,4.31,4.31,0,0,0,7.84-3.27,1,1,0,0,1,.22-.89,1,1,0,0,1,.84-.34l.34,0a4.32,4.32,0,0,0,3-7.38,1,1,0,0,1-.29-.84,1,1,0,0,1,.5-.74A4.3,4.3,0,0,0,49,26.76a4.34,4.34,0,0,0-2-1.84,1,1,0,0,1-.56-.6,1,1,0,0,1,.09-.82,4.32,4.32,0,0,0-1.59-5.88,4.11,4.11,0,0,0-.89-.38,1.08,1.08,0,0,1-.6-.51,1,1,0,0,1,0-.79,4.29,4.29,0,0,0-4.05-5.76h0a1,1,0,0,1-.78-.36A1,1,0,0,1,38.26,9a4.32,4.32,0,0,0-8.52-1.39,4.63,4.63,0,0,0,0,1.39,1,1,0,0,1-.22.81,1,1,0,0,1-.78.36,4.31,4.31,0,0,0-4.09,5.76,1,1,0,0,1,0,.79,1,1,0,0,1-.61.5,4.32,4.32,0,0,0-2.85,5.39,3.82,3.82,0,0,0,.39.88,1,1,0,0,1,.08.82,1,1,0,0,1-.56.6,4.31,4.31,0,0,0-.4,7.71,1,1,0,0,1,.5.74,1,1,0,0,1-.28.84,4.27,4.27,0,0,0-1.28,3,4.33,4.33,0,0,0,1.25,3.06,4.28,4.28,0,0,0,3.41,1.25,1,1,0,0,1,1.06,1.22,4.31,4.31,0,0,0,7.84,3.28A1,1,0,0,1,34,45.6Z"/><path d="M36.58,66H31.42a1,1,0,0,1-1-1V48.71a1,1,0,0,1,.64-.93,4.41,4.41,0,0,0,2.1-1.71A1,1,0,0,1,34,45.6h0a1,1,0,0,1,.84.46,4.37,4.37,0,0,0,2.1,1.72,1,1,0,0,1,.64.93V65A1,1,0,0,1,36.58,66Zm-4.16-2h3.16V49.36A6.23,6.23,0,0,1,34,48.19a6.48,6.48,0,0,1-1.58,1.17Z"/><path d="M55.21,49.69a5.32,5.32,0,0,1-3.65-1.45,5.34,5.34,0,0,1-2.88,1.39,5.31,5.31,0,0,1-6-4.5c0-.05,0-.09,0-.14a1.07,1.07,0,0,1,0-.25,4.13,4.13,0,0,0,.12-1,3.87,3.87,0,0,0,0-.48.54.54,0,0,1,0-.18l0-.58a1,1,0,0,1,1.06-.93h.23a4.32,4.32,0,0,0,3-7.38,1,1,0,0,1,.21-1.58,4.32,4.32,0,0,0-.4-7.72,1,1,0,0,1-.45-1.45,4.3,4.3,0,0,0-1.61-5.84,1,1,0,0,1,0-1.77,5.13,5.13,0,0,1,1.32-.44c0-.22,0-.44.06-.65a5.32,5.32,0,0,1,10.56.65,4.52,4.52,0,0,1,.8.22,5.29,5.29,0,0,1,3.42,5.85l.2.11a5.33,5.33,0,0,1,2.38,6.32A5.31,5.31,0,0,1,66,32.3h0a5.33,5.33,0,0,1-1.77,4,5.31,5.31,0,0,1-3.7,8.13A5.3,5.3,0,0,1,58,48.87,5.19,5.19,0,0,1,55.21,49.69Zm-3.65-4h0a1,1,0,0,1,.84.47,3.31,3.31,0,0,0,6-2.51,1,1,0,0,1,1.06-1.22h.27a3.31,3.31,0,0,0,3.31-3.31,3.32,3.32,0,0,0-1-2.35,1,1,0,0,1-.29-.85,1,1,0,0,1,.5-.74A3.31,3.31,0,0,0,62,29.26a1,1,0,0,1-.55-.6,1,1,0,0,1,.08-.82,3.3,3.3,0,0,0-1.22-4.51,2.76,2.76,0,0,0-.68-.3,1,1,0,0,1-.6-.51,1,1,0,0,1,0-.79,3.3,3.3,0,0,0-2-4.22,3.41,3.41,0,0,0-1.13-.2h0a1.05,1.05,0,0,1-.78-.35,1,1,0,0,1-.24-.81,3.29,3.29,0,0,0-.58-2.47,3.31,3.31,0,0,0-6,1.4,3.2,3.2,0,0,0,0,1.07,1,1,0,0,1-.23.81,1,1,0,0,1-.51.32,6.29,6.29,0,0,1,1.09,6.28A6.34,6.34,0,0,1,51,31.38a6.48,6.48,0,0,1-1.73,2.32,6.31,6.31,0,0,1-.72,8,6.41,6.41,0,0,1-3.77,1.83v.2A6.74,6.74,0,0,1,44.67,45a3.31,3.31,0,0,0,6,1.14A1,1,0,0,1,51.56,45.68ZM65,32.3h0Z"/><path d="M53.66,66h-4.2a1,1,0,0,1-1-1V48.4a1,1,0,0,1,.64-.94,3.24,3.24,0,0,0,1.61-1.31,1,1,0,0,1,1.69,0A3.34,3.34,0,0,0,54,47.46a1,1,0,0,1,.65.94V65A1,1,0,0,1,53.66,66Zm-3.2-2h2.2V49a5,5,0,0,1-1.1-.79,5.43,5.43,0,0,1-1.1.8Z"/><path d="M20.09,49.68a5.34,5.34,0,0,1-3.65-1.44,5.31,5.31,0,0,1-9-3.86,5.34,5.34,0,0,1-4.55-5.29,5.26,5.26,0,0,1,.85-2.84A5.21,5.21,0,0,1,2.46,34.4a5.32,5.32,0,0,1,1.88-6.49l-.06-.16a5.33,5.33,0,0,1,2.63-6.27,5.31,5.31,0,0,1,4.23-6.07,4.91,4.91,0,0,1,.06-.66,5.32,5.32,0,0,1,10.56.66,5.32,5.32,0,0,1,1.31.44,1,1,0,0,1,.56.86,1,1,0,0,1-.48.9,4.32,4.32,0,0,0-1.62,5.89,1,1,0,0,1-.47,1.42,4.31,4.31,0,0,0-.4,7.71,1,1,0,0,1,.5.74,1,1,0,0,1-.28.84,4.27,4.27,0,0,0-1.28,3.06,4.32,4.32,0,0,0,1.26,3.06,4.22,4.22,0,0,0,3.26,1.25,1,1,0,0,1,1.08.94l0,.58a1,1,0,0,1,0,.17,3.87,3.87,0,0,0,0,.48,4.07,4.07,0,0,0,.12,1,1,1,0,0,1,0,.24.92.92,0,0,1,0,.16,5.29,5.29,0,0,1-5.25,4.54Zm-3.65-4a1,1,0,0,1,.85.47,3.31,3.31,0,0,0,6-1.14,6.55,6.55,0,0,1-.13-1.25h0a1.34,1.34,0,0,1,0-.2,6.32,6.32,0,0,1-5.61-6.28,6.41,6.41,0,0,1,1.11-3.57,6.31,6.31,0,0,1,.65-10.13,6.33,6.33,0,0,1,1.1-6.3,1,1,0,0,1-.74-1.12,3.31,3.31,0,1,0-6.54-1.07,3.2,3.2,0,0,0,0,1.07,1,1,0,0,1-1,1.16A3.31,3.31,0,0,0,8.84,20.6,3.09,3.09,0,0,0,9,21.73a1,1,0,0,1,0,.79,1,1,0,0,1-.6.51A3.3,3.3,0,0,0,6.2,27.16a3.48,3.48,0,0,0,.29.69A1,1,0,0,1,6,29.26,3.31,3.31,0,0,0,4.3,33.61a3.26,3.26,0,0,0,1.41,1.57,1,1,0,0,1,.22,1.59,3.3,3.3,0,0,0,0,4.68,3.36,3.36,0,0,0,2.35,1h.27a1,1,0,0,1,.84.34,1,1,0,0,1,.22.88A3.25,3.25,0,0,0,10,46.13a3.31,3.31,0,0,0,5.6,0A1,1,0,0,1,16.44,45.68Z"/><path d="M18.54,66H14.35a1,1,0,0,1-1-1V48.4a1,1,0,0,1,.64-.94,3.29,3.29,0,0,0,1.61-1.31,1,1,0,0,1,.84-.47h0a1,1,0,0,1,.85.47,3.34,3.34,0,0,0,1.61,1.31,1,1,0,0,1,.64.94V65A1,1,0,0,1,18.54,66Zm-3.19-2h2.19V49a5,5,0,0,1-1.09-.79,5.43,5.43,0,0,1-1.1.8Z"/><path d="M65,66H3a1,1,0,0,1,0-2H65a1,1,0,0,1,0,2Z"/><text x="0" y="83" fill="#000000" font-size="5px" font-weight="bold" font-family="'Helvetica Neue', Helvetica, Arial-Unicode, Arial, Sans-serif">Created by Bernd Lakenbrink</text><text x="0" y="88" fill="#000000" font-size="5px" font-weight="bold" font-family="'Helvetica Neue', Helvetica, Arial-Unicode, Arial, Sans-serif">from the Noun Project</text></svg>