<?xml version="1.0" encoding="utf-8"?>
<!-- Generator: Adobe Illustrator 25.0.0, SVG Export Plug-In . SVG Version: 6.00 Build 0)  -->
<svg version="1.1"
	 id="svg2" inkscape:version="0.48+devel r9935" sodipodi:docname="Documento nuevo 1" xmlns:cc="http://creativecommons.org/ns#" xmlns:dc="http://purl.org/dc/elements/1.1/" xmlns:inkscape="http://www.inkscape.org/namespaces/inkscape" xmlns:ns1="http://sozi.baierouge.fr" xmlns:rdf="http://www.w3.org/1999/02/22-rdf-syntax-ns#" xmlns:sodipodi="http://sodipodi.sourceforge.net/DTD/sodipodi-0.dtd" xmlns:svg="http://www.w3.org/2000/svg"
	 xmlns="http://www.w3.org/2000/svg" xmlns:xlink="http://www.w3.org/1999/xlink" x="0px" y="0px" viewBox="0 0 89.6 54.8"
	 style="enable-background:new 0 0 89.6 54.8;" xml:space="preserve">
<style type="text/css">
	.st0{fill:#F98D44;}
	.st1{fill:#EB8540;}
	.st2{fill:#CA6019;}
	.st3{fill:#FF9F5B;}
	.st4{fill:#E77526;}
	.st5{opacity:0.8;}
	.st6{fill:#FFC655;}
	.st7{fill:#FFB22B;}
	.st8{fill:#FFF3DD;}
	.st9{fill:#FFE578;}
	.st10{fill:#FFDA3E;}
	.st11{fill:#FFFFFF;}
</style>
<sodipodi:namedview  bordercolor="#666666" borderopacity="1.0" id="base" inkscape:current-layer="layer1" inkscape:cx="273.52498" inkscape:cy="614.84559" inkscape:document-units="px" inkscape:pageopacity="0.0" inkscape:pageshadow="2" inkscape:window-height="787" inkscape:window-maximized="0" inkscape:window-width="1440" inkscape:window-x="0" inkscape:window-y="0" inkscape:zoom="0.42014768" pagecolor="#ffffff" showgrid="false">
	</sodipodi:namedview>
<g>
	<g>
		<path class="st0" d="M6.7,31.5v6c0,3.5,2.4,6.7,6.7,9.4c7.4,4.8,20.2,7.9,34.8,7.9c9.1,0,17.5-1.2,24.4-3.3
			c10.4-3.2,17.1-8.3,17.1-14v-6h-2.5C81.3,24.8,66,20.1,48.2,20.1c-17.9,0-33.1,4.7-38.9,11.4H6.7z"/>
		<path class="st1" d="M13,28.9l0.4,18c7.4,4.8,20.2,7.9,34.8,7.9c9.1,0,17.5-1.2,24.4-3.3l0.1-19.6L13,28.9z"/>
		<g>
			<ellipse class="st2" cx="48.2" cy="31.5" rx="40.3" ry="16.2"/>
			<path class="st3" d="M48.2,16.5c10.8,0,20.8,1.7,28.4,4.9c6.8,2.8,10.7,6.5,10.7,10.1s-3.9,7.2-10.7,10.1
				c-7.5,3.2-17.6,4.9-28.4,4.9s-20.8-1.7-28.4-4.9C13,38.7,9.1,35,9.1,31.5s3.9-7.2,10.7-10.1C27.3,18.2,37.4,16.5,48.2,16.5
				L48.2,16.5z M48.2,14.1c-22.9,0-41.5,7.8-41.5,17.4s18.6,17.4,41.5,17.4s41.5-7.8,41.5-17.4S71.1,14.1,48.2,14.1L48.2,14.1z"/>
		</g>
		<g>
			<path class="st3" d="M61.1,47.4c-0.1,0-0.3,0-0.4-0.1L9,28.4c-0.6-0.2-0.9-0.9-0.7-1.5c0.2-0.6,0.9-0.9,1.5-0.7l51.7,19
				c0.6,0.2,0.9,0.9,0.7,1.5C62,47.1,61.6,47.4,61.1,47.4z"/>
		</g>
		<g>
			<path class="st3" d="M78.6,42.6c-0.1,0-0.3,0-0.4-0.1L19.4,21.2c-0.6-0.2-0.9-0.9-0.7-1.5c0.2-0.6,0.9-0.9,1.5-0.7l58.9,21.4
				c0.6,0.2,0.9,0.9,0.7,1.5C79.6,42.3,79.1,42.6,78.6,42.6z"/>
		</g>
		<g>
			<path class="st3" d="M86.6,35.3c-0.1,0-0.3,0-0.4-0.1L35.2,17.4c-0.6-0.2-1-0.9-0.7-1.5c0.2-0.6,0.9-1,1.5-0.7L87,32.9
				c0.6,0.2,1,0.9,0.7,1.5C87.6,35,87.1,35.3,86.6,35.3z"/>
		</g>
		<g>
			<path class="st3" d="M34.1,47c-0.5,0-0.9-0.3-1.1-0.8c-0.2-0.6,0.1-1.3,0.7-1.6l50.9-20.4c0.6-0.2,1.3,0.1,1.6,0.7
				c0.2,0.6-0.1,1.3-0.7,1.6L34.6,47C34.4,47,34.3,47,34.1,47z"/>
		</g>
		<g>
			<path class="st3" d="M17.8,42.8c-0.5,0-0.9-0.3-1.1-0.7c-0.3-0.6,0-1.3,0.6-1.6l54.3-22.7c0.6-0.3,1.3,0,1.6,0.6
				c0.3,0.6,0,1.3-0.6,1.6L18.2,42.8C18.1,42.8,17.9,42.8,17.8,42.8z"/>
		</g>
		<g>
			<path class="st3" d="M10,36.3c-0.5,0-0.9-0.3-1.1-0.7c-0.3-0.6,0-1.3,0.6-1.6L53,14.4c0.6-0.3,1.3,0,1.6,0.6
				c0.3,0.6,0,1.3-0.6,1.6L10.5,36.2C10.3,36.2,10.2,36.3,10,36.3z"/>
		</g>
		<path class="st4" d="M78.3,25.4c0.6-0.3,0.6-1.2,0-1.6c-1.7-1-4.6-2.7-5.9-2.7c-1.1,0-3.6,1.2-5.3,2.1c-0.7,0.4-0.6,1.4,0.1,1.7
			l6.6,2.6c0.3,0.1,0.5,0.1,0.8,0L78.3,25.4z"/>
		<path class="st4" d="M63.9,18.8c-2.3-0.5-6.3-1.3-9.7-1.3c-0.1,0-0.2,0-0.3,0.1c-0.8,0.4-1.4,0.7-1.9,0.9c-0.5,0.3-0.5,1,0.1,1.2
			l6.8,2.4c0.2,0.1,0.3,0.1,0.5,0l4.7-2C64.6,19.8,64.5,19,63.9,18.8z"/>
		<path class="st4" d="M84.5,28.4L82.1,29c-0.6,0.2-0.6,1,0,1.2l2.9,1c0.4,0.2,0.9-0.2,0.8-0.7c-0.1-0.6-0.2-1.4-0.7-2
			C85,28.4,84.7,28.3,84.5,28.4z"/>
		<path class="st4" d="M82.6,35l-7.9-2.8c-0.3-0.1-0.5-0.1-0.8,0L69.8,34c-0.9,0.4-0.8,1.6,0.1,2l8.6,3.1c0.3,0.1,0.5,0.1,0.8,0
			c0.8-0.3,2.6-1.2,3.7-2.2C83.5,36.2,83.3,35.3,82.6,35z"/>
		<path class="st4" d="M70.2,40.7l-8.6-3.1c-0.2-0.1-0.5-0.1-0.7,0l-5.1,2.1c-0.8,0.3-0.8,1.5,0,1.9l6.3,2.5
			c0.2,0.1,0.3,0.1,0.5,0.1c1-0.2,4.7-0.7,7.5-1.5C71.1,42.4,71.1,41.1,70.2,40.7z"/>
		<path class="st4" d="M50.1,44.7l-3.4-1.3c-0.1,0-0.2,0-0.4,0l-2.6,1c-0.5,0.2-0.4,0.9,0.1,1c1.7,0.1,4.1,0.3,6.1,0.3
			C50.5,45.7,50.7,44.9,50.1,44.7z"/>
		<path class="st4" d="M52.2,36l-5.8,2.2c-0.2,0.1-0.4,0.1-0.6,0l-5.6-1.9c-0.7-0.3-0.8-1.3,0-1.6l5.8-2.2c0.2-0.1,0.4-0.1,0.6,0
			l5.6,2C52.9,34.7,52.9,35.7,52.2,36z"/>
		<path class="st4" d="M65.7,29.2l-6.6-2.1c-0.1,0-0.3,0-0.5,0l-4.4,1.7c-0.6,0.2-0.6,1.1,0,1.3l6.3,1.9c0.1,0,0.3,0,0.4,0l4.8-1.6
			C66.4,30.3,66.4,29.4,65.7,29.2z"/>
		<path class="st4" d="M50.8,23.9L45,21.8c-0.2-0.1-0.4-0.1-0.6,0l-4.1,1.9c-0.6,0.3-0.6,1.2,0.1,1.5l5.5,2c0.2,0.1,0.4,0.1,0.6,0
			l4.4-1.8C51.5,25.1,51.5,24.1,50.8,23.9z"/>
		<path class="st4" d="M37.3,19.2L35,18.3c-0.1,0-0.2,0-0.3,0c-0.7,0.1-3.9,0.5-6.5,1.4c-0.6,0.2-0.6,1,0,1.2l4,1.4
			c0.1,0,0.3,0,0.4,0l4.8-1.9C37.8,20.1,37.8,19.3,37.3,19.2z"/>
		<path class="st4" d="M32.7,27.2l-5.4,2.5c-0.8,0.4-0.8,1.5,0,1.8l4.4,1.8c0.2,0.1,0.5,0.1,0.7,0l5.8-2.4c0.8-0.3,0.8-1.5,0-1.8
			l-4.7-1.9C33.2,27,32.9,27,32.7,27.2z"/>
		<path class="st4" d="M20.2,22.7l3.7,1.3c1.1,0.4,1.1,1.8,0.1,2.3l-4.4,1.9c-0.3,0.1-0.6,0.1-0.9,0l-3.4-1.2
			c-1-0.3-1.1-1.6-0.3-2.2c1.3-0.8,3-1.8,4.4-2.2C19.7,22.6,20,22.6,20.2,22.7z"/>
		<path class="st4" d="M10.8,30l1.9,0.5c0.4,0.1,0.5,0.7,0.1,0.9l-1.9,0.9c-0.3,0.2-0.7-0.1-0.7-0.4c0-0.4,0-0.9,0-1.5
			C10.3,30.1,10.6,29.9,10.8,30z"/>
		<path class="st4" d="M14.9,35.3l4.2-1.9c0.3-0.2,0.7-0.2,1-0.1l2.9,1c1.2,0.4,1.3,2.1,0.1,2.6l-4.9,2c-0.3,0.1-0.7,0.1-1.1,0
			c-0.5-0.2-1.4-0.6-2.2-1.1C13.8,37.3,13.9,35.8,14.9,35.3z"/>
		<path class="st4" d="M26.1,40.8l5.8-2.6c0.2-0.1,0.5-0.1,0.7,0l5.4,1.9c0.8,0.3,0.8,1.4,0,1.7l-5.4,1.9c-0.2,0.1-0.3,0.1-0.5,0
			c-0.8-0.2-3.5-0.7-5.8-1.2C25.4,42.3,25.3,41.1,26.1,40.8z"/>
	</g>
	<g>
		<path class="st0" d="M82.9,17.4v6c0,3.5-2.4,6.7-6.7,9.4c-7.4,4.8-20.2,7.9-34.8,7.9c-9.1,0-17.5-1.2-24.4-3.3
			C6.7,34.2,0,29.1,0,23.3v-6h2.5C8.4,10.7,23.6,6,41.5,6c17.9,0,33.1,4.7,38.9,11.4H82.9z"/>
		<path class="st1" d="M76.6,14.8l-0.4,18c-7.4,4.8-20.2,7.9-34.8,7.9c-9.1,0-17.5-1.2-24.4-3.3L17,17.8L76.6,14.8z"/>
		<g>
			<ellipse class="st2" cx="41.5" cy="17.4" rx="40.3" ry="16.2"/>
			<path class="st3" d="M41.5,2.4c10.8,0,20.8,1.7,28.4,4.9c6.8,2.8,10.7,6.5,10.7,10.1c0,3.6-3.9,7.2-10.7,10.1
				c-7.5,3.2-17.6,4.9-28.4,4.9c-10.8,0-20.8-1.7-28.4-4.9C6.3,24.6,2.4,20.9,2.4,17.4c0-3.6,3.9-7.2,10.7-10.1
				C20.6,4.1,30.7,2.4,41.5,2.4L41.5,2.4z M41.5,0C18.6,0,0,7.8,0,17.4s18.6,17.4,41.5,17.4s41.5-7.8,41.5-17.4S64.4,0,41.5,0
				L41.5,0z"/>
		</g>
		<g>
			<path class="st3" d="M28.5,33.3c-0.5,0-0.9-0.3-1.1-0.8c-0.2-0.6,0.1-1.3,0.7-1.5l51.7-19c0.6-0.2,1.3,0.1,1.5,0.7
				c0.2,0.6-0.1,1.3-0.7,1.5l-51.7,19C28.8,33.3,28.7,33.3,28.5,33.3z"/>
		</g>
		<g>
			<path class="st3" d="M11,28.5c-0.5,0-0.9-0.3-1.1-0.8c-0.2-0.6,0.1-1.3,0.7-1.5L69.4,4.9C70.1,4.6,70.7,5,71,5.6
				c0.2,0.6-0.1,1.3-0.7,1.5L11.4,28.5C11.2,28.5,11.1,28.5,11,28.5z"/>
		</g>
		<g>
			<path class="st3" d="M3,21.2c-0.5,0-1-0.3-1.1-0.8C1.6,19.7,2,19,2.6,18.8L53.7,1.1c0.6-0.2,1.3,0.1,1.5,0.7
				c0.2,0.6-0.1,1.3-0.7,1.5L3.4,21.1C3.3,21.1,3.1,21.2,3,21.2z"/>
		</g>
		<g>
			<path class="st3" d="M55.5,32.9c-0.1,0-0.3,0-0.4-0.1L4.1,12.5c-0.6-0.2-0.9-0.9-0.7-1.6C3.7,10.3,4.4,10,5,10.3l50.9,20.4
				c0.6,0.2,0.9,0.9,0.7,1.6C56.4,32.6,55.9,32.9,55.5,32.9z"/>
		</g>
		<g>
			<path class="st3" d="M71.8,28.7c-0.2,0-0.3,0-0.5-0.1L17.1,5.9c-0.6-0.3-0.9-1-0.6-1.6c0.3-0.6,1-0.9,1.6-0.6l54.3,22.7
				c0.6,0.3,0.9,1,0.6,1.6C72.7,28.5,72.3,28.7,71.8,28.7z"/>
		</g>
		<g>
			<path class="st3" d="M79.6,22.1c-0.2,0-0.3,0-0.5-0.1L35.6,2.5c-0.6-0.3-0.9-1-0.6-1.6c0.3-0.6,1-0.9,1.6-0.6l43.5,19.6
				c0.6,0.3,0.9,1,0.6,1.6C80.5,21.9,80.1,22.1,79.6,22.1z"/>
		</g>
		<path class="st4" d="M11.3,11.3c-0.6-0.3-0.6-1.2,0-1.6c1.7-1,4.6-2.7,5.9-2.7c1.1,0,3.6,1.2,5.3,2.1c0.7,0.4,0.6,1.4-0.1,1.7
			l-6.6,2.6c-0.3,0.1-0.5,0.1-0.8,0L11.3,11.3z"/>
		<path class="st4" d="M25.7,4.7c2.3-0.5,6.3-1.3,9.7-1.3c0.1,0,0.2,0,0.3,0.1c0.8,0.4,1.4,0.7,1.9,0.9c0.5,0.3,0.5,1-0.1,1.2
			L30.8,8c-0.2,0.1-0.3,0.1-0.5,0l-4.7-2C25.1,5.7,25.1,4.9,25.7,4.7z"/>
		<path class="st4" d="M5.2,14.3l2.4,0.7c0.6,0.2,0.6,1,0,1.2l-2.9,1c-0.4,0.2-0.9-0.2-0.8-0.7c0.1-0.6,0.2-1.4,0.7-2
			C4.6,14.3,4.9,14.2,5.2,14.3z"/>
		<path class="st4" d="M7,20.9l7.9-2.8c0.3-0.1,0.5-0.1,0.8,0l4.1,1.8c0.9,0.4,0.8,1.6-0.1,2l-8.6,3.1c-0.3,0.1-0.5,0.1-0.8,0
			c-0.8-0.3-2.6-1.2-3.7-2.2C6.1,22.1,6.3,21.2,7,20.9z"/>
		<path class="st4" d="M19.4,26.6l8.6-3.1c0.2-0.1,0.5-0.1,0.7,0l5.1,2.1c0.8,0.3,0.8,1.5,0,1.9L27.5,30c-0.2,0.1-0.3,0.1-0.5,0.1
			c-1-0.2-4.7-0.7-7.5-1.5C18.5,28.3,18.5,27,19.4,26.6z"/>
		<path class="st4" d="M39.5,30.6l3.4-1.3c0.1,0,0.2,0,0.4,0l2.6,1c0.5,0.2,0.4,0.9-0.1,1c-1.7,0.1-4.1,0.3-6.1,0.3
			C39.1,31.6,39,30.8,39.5,30.6z"/>
		<path class="st4" d="M37.5,21.9l5.8,2.2c0.2,0.1,0.4,0.1,0.6,0l5.6-1.9c0.7-0.3,0.8-1.3,0-1.6l-5.8-2.2c-0.2-0.1-0.4-0.1-0.6,0
			l-5.6,2C36.7,20.5,36.7,21.6,37.5,21.9z"/>
		<path class="st4" d="M23.9,15.1l6.6-2.1c0.1,0,0.3,0,0.5,0l4.4,1.7c0.6,0.2,0.6,1.1,0,1.3L29,18c-0.1,0-0.3,0-0.4,0l-4.8-1.6
			C23.2,16.2,23.2,15.3,23.9,15.1z"/>
		<path class="st4" d="M38.8,9.8l5.7-2.1c0.2-0.1,0.4-0.1,0.6,0l4.1,1.9c0.6,0.3,0.6,1.2-0.1,1.5l-5.5,2c-0.2,0.1-0.4,0.1-0.6,0
			l-4.4-1.8C38.1,11,38.2,10,38.8,9.8z"/>
		<path class="st4" d="M52.3,5l2.3-0.8c0.1,0,0.2,0,0.3,0c0.7,0.1,3.9,0.5,6.5,1.4c0.6,0.2,0.6,1,0,1.2l-4,1.4c-0.1,0-0.3,0-0.4,0
			l-4.8-1.9C51.8,6,51.8,5.2,52.3,5z"/>
		<path class="st4" d="M57,13l5.4,2.5c0.8,0.4,0.8,1.5,0,1.8l-4.4,1.8c-0.2,0.1-0.5,0.1-0.7,0l-5.8-2.4c-0.8-0.3-0.8-1.5,0-1.8
			l4.7-1.9C56.4,12.9,56.7,12.9,57,13z"/>
		<path class="st4" d="M69.4,8.6l-3.7,1.3c-1.1,0.4-1.1,1.8-0.1,2.3l4.4,1.9c0.3,0.1,0.6,0.1,0.9,0l3.4-1.2c1-0.3,1.1-1.6,0.3-2.2
			c-1.3-0.8-3-1.8-4.4-2.2C69.9,8.5,69.6,8.5,69.4,8.6z"/>
		<path class="st4" d="M78.8,15.9l-1.9,0.5c-0.4,0.1-0.5,0.7-0.1,0.9l1.9,0.9c0.3,0.2,0.7-0.1,0.7-0.4c0-0.4,0-0.9,0-1.5
			C79.4,16,79.1,15.8,78.8,15.9z"/>
		<path class="st4" d="M74.7,21.2l-4.2-1.9c-0.3-0.2-0.7-0.2-1-0.1l-2.9,1c-1.2,0.4-1.3,2.1-0.1,2.6l4.9,2c0.3,0.1,0.7,0.1,1.1,0
			c0.5-0.2,1.4-0.6,2.2-1.1C75.8,23.2,75.8,21.7,74.7,21.2z"/>
		<path class="st4" d="M63.6,26.6L57.8,24c-0.2-0.1-0.5-0.1-0.7,0l-5.4,1.9c-0.8,0.3-0.8,1.4,0,1.7l5.4,1.9c0.2,0.1,0.3,0.1,0.5,0
			c0.8-0.2,3.5-0.7,5.8-1.2C64.2,28.2,64.4,27,63.6,26.6z"/>
	</g>
	<g class="st5">
		<path class="st6" d="M25.8,22.9c0.8,2.8,6.2,3.1,8.5,3.9c2.3,0.8,4.3,3,3.8,4.6c-0.5,1.7-0.7,1.5-0.5,3.3c0.3,1.7-1.2,4.2,1.3,4.7
			c2.5,0.5,2.8-3.1,2.4-4.3c-0.4-1.2-0.9-3.5,0.4-5.1c1.3-1.6,2.8-4.3,5.5-5c2.7-0.7,5.9,1.7,8.9-0.1c3-1.9,7.1-0.8,7.5,0.8
			c0.4,1.6,1.2,2.4,0.2,3.7c-1,1.3-2.3,2.2-1.5,4.1c0.8,1.9,2.3,3,2.1,4.6c-0.1,1.6-0.9,2.7-0.7,4.6c0.3,1.9,0.5,3.1,1.2,4.8
			c0.7,1.7,0.4,5.2,2.7,4.4c2.3-0.8,2.1-2.1,1.1-4.3c0-0.1-0.1-0.1-0.1-0.2c-1-1.9-2-1.2-1.7-2.9c0.4-1.7-0.8-2.8,0.1-5.1
			c0.9-2.3,0.7-2.7-0.3-4.2c-0.9-1.5-0.9-2.3-0.4-4.8c0.5-2.5,1.9-4.3,0.7-7.2c-1.2-3-0.9-2.3-1.2-4.3c-0.3-2,2.3-4.6-3-5.1
			c-5.2-0.5-7.1-0.1-10.6-2.6c-4-2.7-7.4-0.9-10.2,0.1c-2.4,0.9-6.8-0.4-9.7,0c-0.5,0.1-1,0.2-1.4,0.4c-2.5,1.3-3.6,3.2-1.6,5
			C31.6,18.5,25,20.1,25.8,22.9z"/>
		<path class="st7" d="M25.8,22.9c0.8,2.8,6.2,3.1,8.5,3.9c2.3,0.8,4.3,3,3.8,4.6c-0.5,1.7-0.7,1.5-0.5,3.3c0.3,1.7-1.2,4.2,1.3,4.7
			c2.5,0.5,2.8-3.1,2.4-4.3c-0.4-1.2-0.9-3.5,0.4-5.1c1.3-1.6,2.8-4.3,5.5-5c2.7-0.7,5.9,1.7,8.9-0.1c3-1.9,7.1-0.8,7.5,0.8
			c0.4,1.6,1.2,2.4,0.2,3.7c-1,1.3-2.3,2.2-1.5,4.1c0.8,1.9,2.3,3,2.1,4.6c-0.1,1.6-0.9,2.7-0.7,4.6c0.3,1.9,0.5,3.1,1.2,4.8
			c0.7,1.7,0.4,5.2,2.7,4.4c2.3-0.8,2.1-2.1,1.1-4.3c0-0.1-0.1-0.1-0.1-0.2c0.1,0.8,0,1.8-0.7,2.2c-1.2,0.8-1.6-1.4-2.4-2.5
			c-0.8-1.1-0.5-3.7-0.9-4.9c-0.4-1.2,0.7-3.4,0.8-4.8c0.1-1.4-1.5-3.1-2.5-4.8c-1-1.7,1.7-2.3,2.4-4c0.7-1.7-0.9-4.3-3.1-5.3
			c-2.2-1-4,0.3-6.3,0.8c-2.3,0.5-4.5-0.9-7.1-1.2c-2.6-0.3-3.7,1.2-4.7,3c-1,1.8-2.4,3.3-3.4,5c-1,1.6-0.2,3.2,0.3,4.6
			c0.5,1.4,0.6,3.4-1.5,3.3c-2.1-0.1-0.8-2.9-1.1-4c-0.3-1.1,0-1.8,0.5-3.2c0.5-1.4-0.4-3.1-2-4.4c-1.6-1.3-3.3-1.4-5-1.7
			c-1.7-0.3-4-0.8-4.5-2.8c-0.5-2,2.2-3,3.6-4.4c1.4-1.4-0.2-2.1-0.8-4c-0.3-1.1,1.1-2,2.5-2.6c-0.5,0.1-1,0.2-1.4,0.4
			c-2.5,1.3-3.6,3.2-1.6,5C31.6,18.5,25,20.1,25.8,22.9z"/>
		<path class="st8" d="M64.1,14.4c1,0.5,1.9,1.2,1.2,3.2c-0.7,2,1.1,4.6,1.3,5.5c0.2,0.9,0.7,2.8,0.2,3.3c-0.5,0.5-1.1-2.2-2.2-3.3
			c-1.1-1.1-3.2-1.9-4.3-1.7c-1.1,0.2-3.7,1.5-5.5,1.5c-1.8,0-3.2-1.1-5.2-1c3.7-0.9,5.5,0.2,8.7-1.1c3.1-1.3,5.1-2.4,5.8-3.6
			C64.7,16.1,65.1,15.1,64.1,14.4z"/>
		<path class="st8" d="M39.7,32.3c0.2,1.3,1.2,3.6,0.9,4.5c-0.3,0.9-0.5,1.3-1.2,1.1C38.7,37.7,40.2,35.2,39.7,32.3z"/>
		<path class="st8" d="M34.5,24.5c-2.2-0.2-4.5-0.3-5.5-1.2c-1-0.9-1.2-1.9,0.2-2.8C28.9,21.9,32.8,24.7,34.5,24.5z"/>
		<path class="st8" d="M65.8,31.7c-0.3,1.3,0.7,4.2,1.1,5c0.4,0.8,0.4,2-0.2,3.2c-0.6,1.2-0.8,3.9-0.5,4.8c0.4,0.9,2.4,2.7,2,3.7
			c-1.4-0.6-2.3-1.9-2.6-3.8c-0.3-1.9-0.1-4.3,0.3-5.3c0.4-1,0.7-1.8,0.2-2.9C65.6,35.2,65.7,33.1,65.8,31.7z"/>
	</g>
	<g>
		<path class="st9" d="M36.2,12.8v2.5c0,0.5,0.3,0.9,0.7,1l6.8,2.6c0.2,0.1,0.5,0.1,0.7,0l10-3.3c0.4-0.2,0.8-0.6,0.8-1v-2.3
			c0-0.5-0.3-0.9-0.7-1l-0.1,0l-5.9-2.1c-0.2-0.1-0.4-0.1-0.6,0L37,11.8c-0.2,0-0.3,0.1-0.5,0.2C36.4,12.2,36.2,12.5,36.2,12.8z"/>
		<path class="st10" d="M36.2,12.8v2.5c0,0.5,0.3,0.9,0.7,1l6.8,2.6c0.2,0.1,0.5,0.1,0.7,0l10-3.3c0.4-0.2,0.8-0.6,0.8-1v-2.3
			c0-0.5-0.3-0.9-0.7-1l-0.1,0c-0.3,0.5-0.9,1-1.9,1.3c-1.3,0.4-7,1.8-8.2,1.9c-1.2,0.1-3.9-0.8-6.4-1.7c-0.7-0.2-1.1-0.5-1.3-0.8
			C36.4,12.2,36.2,12.5,36.2,12.8z"/>
		<path class="st11" d="M46.7,14.2c-3.2-0.4,6.9-1.8,6.9-1.8S49.9,14.5,46.7,14.2z"/>
	</g>
</g>
</svg>
