<?xml version="1.0" encoding="utf-8"?>
<!-- Generator: Adobe Illustrator 25.0.0, SVG Export Plug-In . SVG Version: 6.00 Build 0)  -->
<svg version="1.1" id="Layer_1" xmlns="http://www.w3.org/2000/svg" xmlns:xlink="http://www.w3.org/1999/xlink" x="0px" y="0px"
	 viewBox="0 0 57.8 54" style="enable-background:new 0 0 57.8 54;" xml:space="preserve">
<style type="text/css">
	.st0{fill:#F94354;}
	.st1{fill:#3D1719;}
	.st2{fill:#F5B0BE;}
	.st3{fill:#F5C9D2;}
	.st4{fill:#94363C;}
	.st5{fill:#E4D899;}
	.st6{fill:#EEF5C2;}
	.st7{fill:#E89BA3;}
	.st8{fill:#DB536E;}
	.st9{fill:#311007;}
	.st10{fill:#29130C;}
	.st11{fill:#A86565;}
	.st12{fill:#5C3737;}
	.st13{fill:#6BA636;}
	.st14{fill:#517D29;}
	.st15{fill:#214A18;}
	.st16{fill:#8DCCB7;}
	.st17{fill:#7EB5A5;}
	.st18{fill:#FFFFFF;}
</style>
<g>
	<g>
		<path class="st0" d="M57.8,35.3c0,0-3.3,9.4-21.3,15.8c-0.4,0.1-1.1,0.4-1.5,0.4c-2.9,0.3-5.7,0.7-8.6,0.9
			c-2.6,0.2-5.2,0.4-7.8,0.1c-2.8-0.4-5.2-1.9-7.8-2.9c-1.5-0.5-3-1.1-4.6-1.1c-0.5,0-1,0-1.6,0.1C1.3,46,0,43.5,0,43.5l0.1-0.1
			l0.1-0.3l1-2.3l0.3-0.7l0.3-0.7c0,0,8.1-19,8.1-19l8.7-20.3L18.6,0c0,0,0,0,0.1,0c0.7,0,4,0.1,5.7,0.8c0.1,0,0.1,0.1,0.2,0.1
			C24.7,1,24.8,1,24.8,1c0,0,0.1,0.1,0.1,0.1c0.1,0,0.2,0.1,0.3,0.2c1.1,1,4.5,4.6,8.8,9c5.7,5.9,12.8,13.4,17.8,18.6
			c0.8,0.9,1.6,1.7,2.3,2.4c0.2,0.3,0.5,0.5,0.7,0.7c0.6,0.6,1.1,1.1,1.5,1.6C57.2,34.7,57.8,35.3,57.8,35.3z"/>
	</g>
	<g>
		<path class="st1" d="M51.8,29c-2.6,5.1-7.5,9.3-12.9,10.3c-9.7,1.9-18.7-5.9-19.3-15.6c-0.3-4.7,1.4-9.3,3-13.5
			c0.4-1.2,1-2.4,1.2-3.7c0.2-1.2-0.2-2.6,0.2-3.8c0.1-0.3,0.3-0.6,0.6-0.9c0.2-0.2,0.3-0.3,0.5-0.5c1.1,1,4.5,4.6,8.8,9
			C39.7,16.3,46.9,23.8,51.8,29z"/>
	</g>
	<g>
		<path class="st2" d="M44.5,26.3c0-0.8-0.8-1.3-1.6-1.4c-0.8-0.1-1.5,0.2-2.2,0.5c-0.7,0.3-1.5,0.6-2.1,1.1
			C38,27,37.6,27.7,37,28.3c-2.6,2.7-5.9,1.9-9.1,0.9c-0.9-0.3-1.9-0.7-2.9-0.5c-1,0.2-1.9,1.1-2.9,1c-1,0-1.8-0.9-2.6-1.5
			c-0.8-0.6-2.1-1.1-2.8-0.3c-0.4-0.5-0.7,0.3-0.8,0.9c-0.1,0.6,0.4,1.2,0.8,1.7c0.4,0.5,0.8,1.1,0.7,1.7c-0.1,0.6-0.7,1-1.2,1.4
			c-0.5,0.4-1,1-0.8,1.6c0.2,0.8,1.3,1,2,0.6c0.7-0.3,1.3-1,2-1.3c1.8-0.9,3.9,0.3,5.9,0.6c1.4,0.2,2.7,0,4.1-0.2
			c1.9-0.3,3.7-0.8,5.5-1.4c0.5-0.2,1.2-0.2,1.6-0.4c0.7-0.4,0.8-1.3,1.4-1.8c0.4-0.3,0.9-0.4,1.4-0.6c1.3-0.4,2.4-1.2,3.4-2.1
			C43.2,28.1,44.5,27.4,44.5,26.3z"/>
	</g>
	<g>
		<path class="st1" d="M31.5,30.7c-1.1-0.7-2.1-1.5-2.8-2.5c-0.7-1.1-1-2.4-0.6-3.7c0.3-1,1.1-2.1,0.6-3.1c-0.6-1.2-2.5-0.8-3.7-1.4
			c-3.1-1.2-1.5-4.7-0.8-6.9c0.5-1.7-0.6-4.3,0.6-5.8c2.3-2.9,3.7,1.8,5.4,2.6c2.1,1,3.6,1.5,4.9,3.8c1.1,1.9,1.9,4.1,3.4,5.7
			c1.8,1.9,4.5,3,6.6,4.6c1.7,1.3,4.4,2.6,3.6,5.3c-0.7,2.7-4.7,3.3-7,3.5C38.2,33.1,34.5,32.5,31.5,30.7z"/>
	</g>
	<g>
		<path class="st3" d="M28.6,19.4c3.7-1.9,8.3-2.5,12-0.1c0.4,0.2,0.8,0.7,0.5,1.1c-0.1,0.2-0.3,0.2-0.4,0.3
			c-1.5,0.7-1.8,1.3-2.8,2.4c-1.1,1.2-2.7,1.3-4.2,1.5c-1.7,0.2-2.5,0.9-3.9,1.8c-1.5,0.9-3.6,1.1-5.2,1c-0.9,0-1.9-0.2-2.7,0.1
			c-0.6,0.2-1.2,0.7-1.8,1c-0.6,0.3-1.4,0.3-1.9-0.1c-0.4-0.4-0.4-1.1-0.2-1.7c0.2-0.6,0.5-1.1,0.6-1.7c0.1-1-0.4-2-0.4-3
			c0-0.9,0.5-1.7,1.2-2.2c1.2-0.8,2.8-0.4,4,0.2c0.7,0.3,1.4,0.7,2.2,0.7C26.6,20.6,27.6,19.9,28.6,19.4z"/>
	</g>
	<g>
		<path class="st4" d="M56.3,33.7c-0.5,3.5-4.7,6.7-7.3,8.5c-4.8,3.3-10.3,5.7-16,6.8c-4.4,0.9-8.9,1.1-13.4,0.6
			c-2.1-0.2-4.5-0.5-6.5-1.2c-0.9-0.3-1.3-1-2-1.6c-0.5-0.4-0.9-0.5-1.4-0.6c-0.2-0.1-0.3-0.1-0.5-0.2c-1.7-0.6-3.3-1.3-4.8-2.2
			C3.2,43,2,42.1,1.1,40.9l0.3-0.7l0.3-0.7c0.3,0.1,0.6,0.2,0.7,0.2c0.7,0.4,1.3,0.5,2,0.7c2,0.5,3.7,1.8,5.7,2.2
			c0.1,0,0.2,0,0.3,0.1c1,0.3,1.8,0.9,2.7,1.2c1.8,0.7,3.5,1.7,5.5,2.1c2.1,0.5,4.2,0.7,6.3,0.8c5.4,0.1,10.8-1.2,15.6-3.7
			c2.7-1.4,5.3-3.1,7.6-5.1c1.2-1,2.3-2.1,3.3-3.3c0.2-0.3,2.7-3.2,2.7-3.3c0.2,0.3,0.5,0.5,0.7,0.7C55.4,32.8,55.9,33.3,56.3,33.7z
			"/>
	</g>
	<g>
		<path class="st5" d="M57.1,34.6c-0.1-0.1-0.1-0.1-0.2-0.2c0,0,0-0.1-0.1-0.1c0,0-0.1-0.1-0.1-0.1c-0.5-0.5-1.2-1.2-2-2.1
			c-2.2,3.6-7.8,11-19.8,14.5c-14.5,4.3-24.8-3.3-24.8-3.3s0,0-0.1,0c-0.7-0.2-6.9-2.6-8.7-3.2c0,0-1,2.4-1,2.4l-0.3,0.6
			c0,0-0.1,0.3-0.1,0.3c0,0-0.1,0.1-0.1,0.1c0,0,0,0.1,0.1,0.2c0.1,0.1,0.1,0.3,0.3,0.5c0.5,0.6,1,1.2,1.5,1.9
			c0.3,0.4,0.7,0.8,1,1.2c0,0,0,0,0,0c0.5,0.1,0.9,0.2,1.4,0.3c0.5,0.1,1,0.3,1.5,0.4c0.2,0.1,0.5,0.1,0.7,0.2c1,0.3,2.1,0.7,3.1,1
			c1.8,0.6,3.7,1,5.5,1.4c1.8,0.4,3.7,0.8,5.6,1.1c3.7,0.5,7.5,0.4,11.2,0.3c0.6,0,1.3,0,2-0.1c0.3-0.1,0.5-0.1,0.8-0.2
			c0.1,0,0.3-0.1,0.4-0.1c0.2-0.1,0.5-0.1,0.7-0.2c0.1,0,0.2-0.1,0.4-0.1c0.2-0.1,0.5-0.2,0.7-0.3c0.2-0.1,0.5-0.2,0.7-0.3
			c0.2-0.1,0.3-0.1,0.5-0.2c0.1,0,0.2-0.1,0.3-0.1c0.3-0.1,0.5-0.2,0.8-0.3c0.2-0.1,0.3-0.1,0.5-0.2c0.8-0.6,1.7-1,2.6-1.4
			c0.9-0.5,1.9-1,2.9-1.5c0.2-0.1,0.3-0.2,0.5-0.2c0.4-0.2,0.8-0.5,1.2-0.7c0.3-0.2,0.7-0.4,1-0.6c0.1,0,0.1-0.1,0.2-0.1
			c0.3-0.2,0.6-0.4,0.9-0.6c0.1-0.1,0.2-0.1,0.2-0.2c0.5-0.4,1-0.8,1.5-1.2c0.1-0.1,0.2-0.1,0.2-0.2c0.2-0.2,0.4-0.3,0.5-0.5
			c0.1-0.1,0.2-0.2,0.4-0.3c0.1-0.1,0.3-0.3,0.4-0.4c0.1-0.1,0.2-0.2,0.4-0.3c0.8-0.8,1.5-1.5,2.1-2.2c0.1-0.1,0.2-0.2,0.3-0.3
			c0.7-0.9,1.3-1.7,1.8-2.3c0.1-0.1,0.2-0.2,0.2-0.3c0.6-1,0.9-1.6,0.9-1.6S57.5,35,57.1,34.6z"/>
	</g>
	<g>
		<path class="st6" d="M57.1,34.6c-0.1-0.1-0.1-0.1-0.2-0.2c0,0,0-0.1-0.1-0.1c-5,5.5-10.9,10.2-17.7,13C34,49.5,28.3,50.5,22.8,50
			c-2.8-0.3-5.5-1-8-2c-4.7-2-9.4-4-14.3-5.4l-0.3,0.6c0,0-0.1,0.3-0.1,0.3c0,0-0.1,0.1-0.1,0.1c0,0,0,0.1,0.1,0.2
			c0,0.1,0.1,0.1,0.1,0.2c0,0,0,0,0,0c0.4,0.7,1,1.2,1.5,1.8c0.4,0.5,1.1,1.1,1.5,1.7c0.4,0.1,0.7,0.2,1.1,0.2
			c0.5,0.1,1,0.3,1.5,0.4l1.1-0.4c-0.2,0.2-0.3,0.4-0.4,0.6c1,0.3,2.1,0.7,3.1,1c1.8,0.6,3.7,1,5.5,1.4c1.8,0.4,3.7,0.8,5.6,1.1
			c3.7,0.5,7.5,0.4,11.2,0.3c0.6,0,1.3,0,2-0.1C34,52,34,52,34.1,52c0,0,0-0.1,0.1-0.1c1.7-0.5,3.3-1.3,5-2c0.7-0.3,1.4-0.6,2.1-0.9
			c0.6-0.3,1.1-0.8,1.7-1.1c0.1-0.1,0.2,0,0.2,0.1c0.8-0.5,1.6-0.9,2.4-1.3c0.5-0.2,0.9-0.4,1.4-0.6c0.2-0.1,0.4-0.3,0.6-0.4
			c0,0,0,0,0,0c0.1-0.1,0.2-0.1,0.2-0.2c0.3-0.2,0.6-0.4,0.9-0.6c0.1-0.1,0.2-0.1,0.2-0.2c0.5-0.4,1-0.8,1.5-1.2
			c0.1-0.1,0.2-0.1,0.2-0.2c0.2-0.2,0.4-0.3,0.5-0.5c0.1-0.1,0.2-0.2,0.4-0.3c0.1-0.1,0.3-0.3,0.4-0.4c0.1-0.1,0.2-0.2,0.4-0.3
			c0.8-0.8,1.5-1.5,2.1-2.2c0.1-0.1,0.2-0.2,0.3-0.3c0.7-0.9,1.3-1.7,1.8-2.3c0.1-0.1,0.2-0.2,0.2-0.3c0.6-1,0.9-1.6,0.9-1.6
			S57.5,35,57.1,34.6z"/>
	</g>
	<g>
		<path class="st7" d="M18.8,0c-0.1,0-0.1,0-0.1,0l-0.1,0.2L9.9,20.5c0,0-8.1,19-8.1,19c0,0-0.3,0.7-0.3,0.7l-0.3,0.7l-1,2.3
			c0,0-0.1,0.3-0.1,0.3c0,0-0.1,0.1-0.1,0.1c0,0.1,0,0.1,0.1,0.2c0.1,0.1,0.1,0.3,0.3,0.5c0.3,0.4,0.7,0.7,1,1.1
			c0.3,0.4,0.6,0.8,0.9,1.2c1,0.4,2,0.7,2.9,1.1c1,0.4,2.1,0.8,3.1,1.3c0.2-0.6,0.4-1.2,0.7-1.9C9,46.9,9,46.7,9.1,46.5
			c0.1-0.2,0.1-0.3,0.2-0.5c0.3-0.8,0.6-1.7,0.9-2.6c0,0,0-0.1,0-0.1c0.1-0.2,0.2-0.5,0.2-0.7c3-8.8,6.9-20.2,9.8-29
			c0.2-0.7,0.5-1.4,0.7-2.1C22.5,6.8,23.8,3,24.4,1c0-0.1,0-0.1,0.1-0.2C22.8,0.1,19.4,0,18.8,0z"/>
	</g>
	<g>
		<path class="st2" d="M19.6,4.4c-0.4,0.5-0.7,1-0.8,1.7c-0.4,2,0.1,4.1,0,6.1c0,0.2,0,0.5-0.1,0.7c-0.2,0.3-0.5,0.3-0.8,0.5
			c-0.5,0.4-0.5,1.4-1.1,1.7c-0.6,0.3-1.4-0.2-2,0.1c-0.6,0.3-0.6,1.2-0.4,1.9c0.8,2.2,0.7,5.2-0.7,7.2c-0.7,1.1-2.4,1.2-2.7,2.4
			c-0.3,1.2,1,2.1-0.3,3.2c-1.1,0.9-2.9,1-4.1,1.8c-1.1,0.7-1.6,1.6-1.9,2.9c-0.3,1.2,0.8,4.4-1,4.7c0.8,0.4,1.3,1.1,2.1,1.4
			C6.7,41,8,41.5,8.8,41.4c1.7-0.2,2.7-2.6,2.9-4.2c0.7-3.8,3-7.1,3.6-11c0.8-4.8,3.8-9.1,5.3-13.7c0.7-2.1,0.7-4.4,1.4-6.6
			c0.2-0.6,1.7-3.5,0.6-3.9c-0.2-0.1-0.5,0.1-0.7,0.3C21.1,3,20.2,3.6,19.6,4.4z"/>
	</g>
	<g>
		<path class="st8" d="M25.1,36c-1.6-1-1.9-5-0.9-6.5c1-1.5,2.2-0.7,2.8,0.6c0.9,1.5,2.3,5.6-0.5,6.1C25.9,36.3,25.5,36.2,25.1,36z"
			/>
	</g>
	<g>
		<path class="st9" d="M28.2,33.4c0,0.4,0,0.9-0.2,1.3c-0.1,0.1-0.1,0.2-0.2,0.3c-0.7,0.7-1.5,0.5-2.2,0.1c-1-0.6-1.2-1.7-1.1-2.7
			c0.1-1,0.3-2.1,0.9-3c0.3-0.5,0.6-0.1,0.9,0.2c0.2,0.3,0.4,0.6,0.5,0.7c0.5,0.8,1.1,1.5,1.3,2.4c0,0,0,0.1,0,0.1
			C28.2,32.9,28.2,33.2,28.2,33.4z"/>
	</g>
	<g>
		<path class="st8" d="M15.2,34.2c-1-1.3-0.1-4.5,1.1-5.5c1.2-0.9,1.9,0.1,2.1,1.2c0.3,1.5,0.3,5.1-2.1,4.8
			C15.8,34.7,15.5,34.5,15.2,34.2z"/>
	</g>
	<g>
		<path class="st9" d="M18.5,32c0,0.7-0.2,1.4-0.7,1.8c-0.2,0.2-0.6,0.3-0.9,0.2c-1.2-0.1-1.7-1-1.7-2.1c0-0.4,0.1-0.8,0.3-1.1
			c0.2-0.4,0.4-0.8,0.7-1.2c0.2-0.3,0.6-1,0.9-1.1c0.2-0.1,0.4-0.1,0.5,0.1c0.1,0.1,0.1,0.2,0.2,0.3c0.2,0.5,0.3,1.4,0.4,1.7
			C18.3,31,18.5,31.5,18.5,32z"/>
	</g>
	<g>
		<path class="st8" d="M18.5,25.7c-0.9-1.4,0.2-4.5,1.4-5.4c1.3-0.8,1.9,0.2,2,1.4c0.2,1.5-0.1,5.1-2.4,4.6
			C19.1,26.2,18.7,26,18.5,25.7z"/>
	</g>
	<g>
		<path class="st9" d="M22.4,23.7c0,0.7-0.2,1.3-0.6,1.7c-0.3,0.2-0.6,0.4-1.1,0.3c-1.2-0.1-1.7-1-1.7-2.1c0-0.4,0.1-0.8,0.3-1.1
			c0.3-0.5,0.6-1,1-1.5c0.3-0.3,0.5-0.8,0.9-0.8c0.1,0,0.3,0.1,0.4,0.3c0,0,0,0,0,0.1c0.3,0.5,0.3,1.1,0.4,1.7
			C22.1,22.7,22.4,23.2,22.4,23.7z"/>
	</g>
	<g>
		<path class="st8" d="M27.8,25.7c-1.4-1-1.4-4.3-0.4-5.5c0.9-1.2,1.9-0.4,2.4,0.6c0.7,1.4,1.7,4.8-0.8,5.2
			C28.6,26.1,28.1,26,27.8,25.7z"/>
	</g>
	<g>
		<path class="st9" d="M30.9,24.4c-0.1,0.3-0.4,0.6-0.8,0.7c-0.9,0.3-1.7-0.1-2.2-0.8c-0.5-0.8-0.4-2-0.1-2.9c0.1-0.5,0-1.1,0.4-1.5
			c0.2-0.2,0.3-0.2,0.4-0.1c0.1,0,0.2,0.1,0.3,0.2c0.1,0.1,0.2,0.3,0.3,0.4c0.6,0.7,1.3,1.4,1.7,2.2C31,23.3,31.1,23.9,30.9,24.4z"
			/>
	</g>
	<g>
		<path class="st8" d="M36.6,22.9c-1.5-0.5-2.4-3.6-1.8-4.9c0.6-1.3,1.7-0.9,2.4-0.1c1,1,2.8,3.9,0.6,4.9C37.3,23,36.9,23,36.6,22.9
			z"/>
	</g>
	<g>
		<path class="st9" d="M39,21.1c-0.1,0.4-0.3,0.8-0.8,1.1c-1.2,0.6-1.9-0.2-2.3-1.2c-0.3-0.8-0.5-1.6-0.6-2.4c0-0.8,0.1-1.2,0.7-1.1
			c0.1,0,0.2,0.1,0.3,0.1c0.1,0,0.2,0.1,0.3,0.2c0.3,0.2,0.6,0.4,0.9,0.7c0.1,0.1,0.1,0.1,0.2,0.2c0.4,0.3,0.7,0.7,0.9,1.1
			C38.9,20,39.1,20.6,39,21.1z"/>
	</g>
	<g>
		<path class="st8" d="M36.3,31.7c-1.5-0.5-2.4-3.7-1.9-5.1c0.2-0.5,0.6-1,1.1-0.8c0.2,0.1,0.4,0.2,0.6,0.4c0.6,0.4,1,0.7,1.4,1.3
			c0.3,0.5,0.6,1,0.7,1.5c0.3,1,0.2,2.1-0.8,2.6C37,31.9,36.6,31.9,36.3,31.7z"/>
	</g>
	<g>
		<path class="st9" d="M37.9,30.5c-0.1,0-0.1,0.1-0.2,0.1c-1.2,0.6-1.9-0.2-2.3-1.2c-0.3-0.8-0.5-1.6-0.6-2.4c0-0.5,0-0.9,0.2-1.1
			c0.2-0.1,0.4-0.1,0.7,0.1c0.1,0,0.2,0.1,0.3,0.2c0.8,0.5,1.6,1.2,2,1.9C38.6,28.9,38.8,29.9,37.9,30.5z"/>
	</g>
	<g>
		<path class="st8" d="M43.5,27.3c-1.6-0.3-2.7-3.3-2.3-4.7c0.4-1.4,1.6-1.1,2.4-0.4c1.1,0.9,3.2,3.6,1.1,4.8
			C44.2,27.3,43.8,27.4,43.5,27.3z"/>
	</g>
	<g>
		<path class="st9" d="M45.4,24.8c0,0.5-0.2,1-0.7,1.4c-1.1,0.7-2,0-2.4-1.1c-0.3-0.8-0.6-1.6-0.7-2.4c-0.1-0.6,0-1,0.2-1.1
			c0.1-0.1,0.4-0.1,0.7,0.1c0.1,0,0.2,0.1,0.3,0.1c0.1,0,0.1,0.1,0.2,0.1c0.7,0.4,1.5,1,2,1.7C45.2,24,45.4,24.4,45.4,24.8z"/>
	</g>
	<g>
		<path class="st8" d="M10.4,24.9c-0.7-1.3,0.3-4.5,1.4-5.4c1.1-0.9,1.6,0.1,1.6,1.3c0.1,1.5-0.2,5-2.1,4.7
			C10.8,25.4,10.6,25.2,10.4,24.9z"/>
	</g>
	<g>
		<path class="st9" d="M12.9,20C12.9,20,12.9,20.1,12.9,20c0,0.1,0,0.2,0,0.3c0,0.4-0.1,0.9-0.2,1.4c-0.1,0.5,0,0.9-0.1,1.4
			c-0.2,1-0.7,1.9-1.4,1.7c-0.1,0-0.1,0-0.2-0.1c-0.5-0.3-0.6-1.1-0.3-2c0.1-0.4,0.2-0.7,0.4-1c0.3-0.5,0.6-0.9,0.9-1.3
			C12.3,20.1,12.8,19.3,12.9,20z"/>
	</g>
	<g>
		<path class="st10" d="M18.5,32c0,0.7-0.2,1.4-0.7,1.8c-0.4-0.1-0.7-0.4-0.9-0.8c-0.5-0.8-0.4-1.8,0-2.7c0.2-0.6,0.5-1.2,0.8-1.8
			c0.1,0.1,0.1,0.2,0.2,0.3c0.2,0.5,0.3,1.4,0.4,1.7C18.3,31,18.5,31.5,18.5,32z"/>
	</g>
	<g>
		<path class="st10" d="M22.4,23.7c0,0.7-0.2,1.3-0.6,1.7c-0.4,0-0.8-0.2-1-0.4c-0.5-0.4-0.7-1.1-0.6-1.7c0-1.2,0.7-2,1.1-3
			c0.1,0,0.3,0.1,0.4,0.3c0,0,0,0,0,0.1c0.3,0.5,0.3,1.1,0.4,1.7C22.1,22.7,22.4,23.2,22.4,23.7z"/>
	</g>
	<g>
		<path class="st10" d="M30.9,24.4c-0.2,0.2-0.4,0.3-0.7,0.4c-1.3,0.4-1.8-0.9-1.9-2c-0.1-0.7,0-1.3,0-2c0-0.2,0-0.7,0.2-1
			c0.1,0,0.2,0.1,0.3,0.2c0.1,0.1,0.2,0.3,0.3,0.4c0.6,0.7,1.3,1.4,1.7,2.2C31,23.3,31.1,23.9,30.9,24.4z"/>
	</g>
	<g>
		<path class="st10" d="M39,21.1c-0.2,0.3-0.5,0.4-0.8,0.4c-0.2,0-0.4-0.2-0.7-0.4c-0.4-0.4-0.6-1-0.8-1.5c-0.1-0.4-1-1.7-0.7-2.1
			c0.1,0,0.2,0.1,0.3,0.1c0.1,0,0.2,0.1,0.3,0.2c0.3,0.2,0.6,0.4,0.9,0.7c0.1,0.1,0.1,0.2,0.1,0.2c0,0,0,0,0.1,0
			c0.4,0.3,0.7,0.7,0.9,1.1C38.9,20,39.1,20.6,39,21.1z"/>
	</g>
	<g>
		<path class="st10" d="M45.4,24.8c-0.2,0.4-0.6,0.8-1,0.9c-0.4,0-0.7-0.2-1-0.4c-0.2-0.3-0.4-0.6-0.5-0.9c-0.1-0.3-1-2-1.1-2.7
			c0.1-0.1,0.4-0.1,0.7,0.1c0.1,0,0.2,0.1,0.3,0.1c0.1,0,0.1,0.1,0.2,0.1c0.7,0.4,1.5,1,2,1.7C45.2,24,45.4,24.4,45.4,24.8z"/>
	</g>
	<g>
		<path class="st10" d="M37.9,30.5c-0.4,0-0.8-0.1-1-0.4c-0.7-0.6-0.7-1.5-0.8-2.3c-0.2-0.7-0.6-1.3-1-1.9c0.2-0.1,0.4-0.1,0.7,0.1
			c0.1,0,0.2,0.1,0.3,0.2c0.8,0.5,1.6,1.2,2,1.9C38.6,28.9,38.8,29.9,37.9,30.5z"/>
	</g>
	<g>
		<path class="st10" d="M28.2,33.4c0,0.4,0,0.9-0.2,1.3c-0.5,0.1-1.1,0-1.5-0.1c-0.7-0.4-1-1.1-1-1.8c0-0.8,0.2-1.5,0.1-2.2
			c0-0.4-0.1-0.8-0.2-1.1c0.3-0.5,0.6-0.1,0.9,0.2c0.2,0.3,0.4,0.6,0.5,0.7c0.5,0.8,1.1,1.5,1.3,2.4C28.1,32.9,28.2,33.1,28.2,33.4z
			"/>
	</g>
	<g>
		<path class="st10" d="M12.9,20C12.9,20,12.9,20.1,12.9,20c0,0.1,0,0.2,0,0.3c0,0-0.1,0.1-0.1,0.1c-0.6,0.6-0.9,1.4-1.1,2.2
			c-0.1,0.6-0.1,1.3-0.4,1.8c-0.1,0.1-0.2,0.2-0.3,0.3c-0.5-0.3-0.6-1.1-0.3-2c0.1-0.4,0.2-0.7,0.4-1c0.3-0.5,0.6-0.9,0.9-1.3
			C12.3,20.1,12.8,19.3,12.9,20z"/>
	</g>
	<g>
		<path class="st4" d="M21.3,19.5c-0.1-0.1-0.3,0.1-0.2,0.2c0.4,0.8,0.8,1.5,1.1,2.3c0.2,0.9,0.1,1.7,0.1,2.5c0,0.2,0.2,0.2,0.3,0.1
			C23.3,23,22.8,20.5,21.3,19.5z"/>
	</g>
	<g>
		<path class="st4" d="M28.5,19.4c-0.2-0.1-0.3,0.2-0.2,0.3c0.7,0.6,1.4,1.2,2,1.9c0.5,0.8,0.9,1.6,1.2,2.5c0,0.1,0.2,0.1,0.2,0
			C31.7,22.1,30.4,20,28.5,19.4z"/>
	</g>
	<g>
		<path class="st4" d="M35.5,17.2C35.4,17.2,35.4,17.2,35.5,17.2c1.8,0.6,2.9,1.8,3.5,3.6c0,0.2,0.3,0.2,0.3,0
			C39.3,18.8,37.3,17.1,35.5,17.2z"/>
	</g>
	<g>
		<path class="st4" d="M42,21.1c-0.2,0-0.2,0.2-0.1,0.3c0.9,0.4,1.7,0.7,2.4,1.5c0.6,0.7,0.9,1.5,1.4,2.2c0.1,0.1,0.3,0.1,0.3-0.1
			C46.1,23.1,43.9,21.2,42,21.1z"/>
	</g>
	<g>
		<path class="st4" d="M35.3,25.8C35.2,25.8,35.2,25.8,35.3,25.8c0.7,0.5,1.5,0.9,2.1,1.5c0.6,0.6,1,1.4,1.5,2.1
			c0.1,0.1,0.2,0,0.2-0.1C38.7,27.7,37,25.9,35.3,25.8z"/>
	</g>
	<g>
		<path class="st4" d="M25.9,28.9c-0.1-0.1-0.2,0.1-0.2,0.2c0.6,0.9,1.3,1.7,1.7,2.7c0.4,1,0.6,2.1,0.8,3.1c0,0.1,0.2,0.1,0.2,0
			C28.8,32.7,27.7,30.1,25.9,28.9z"/>
	</g>
	<g>
		<path class="st4" d="M17.7,28.6c-0.1-0.1-0.2,0-0.1,0.1c0.8,2,0.9,3.6,0.3,5.7c0,0.1,0.1,0.2,0.2,0.1
			C19.2,32.8,19.1,30.1,17.7,28.6z"/>
	</g>
	<g>
		<path class="st4" d="M12.9,19c0-0.1-0.1-0.1-0.2-0.1c-0.2,0.1-0.3,0.2-0.2,0.4c0,0.1,0.2,0.1,0.1,0c0.1,0.7,0.3,1.4,0.3,2.1
			c0,0.7-0.2,1.4-0.3,2.1c0,0.1,0.2,0.2,0.3,0.1C13.7,22.4,13.6,20.4,12.9,19z"/>
	</g>
	<g>
		<path class="st1" d="M21.9,44.6c-0.6-0.4-1.1-1-1.7-1.3c-1.5-0.7-3.3,0.3-4.8-0.1c-3.7-1.1-0.7-6.4,0.9-8c0.3-0.3,0.7-0.6,1.1-0.6
			c0.6,0,1,0.6,1.3,1.1c0.5,1.2,1.2,1.7,1.9,2.7c0.7,1,0.7,2.7,1.6,3.4c0.7,0.5,1.6,0.3,2.3-0.1c0.7-0.3,1.4-0.8,2.3-0.8
			c1,0,1.7,0.7,2.6,1.1c1.3,0.5,2.8,0.3,4.2,0.1c1.9-0.3,3.9-0.6,5.8-0.9c-0.5,0.1-2,1.5-2.6,1.8c-0.9,0.4-1.8,0.8-2.8,0.9
			c-1.2,0.2-2.5,0.3-3.7,0.5C27.9,44.7,24,45.8,21.9,44.6z"/>
	</g>
	<g>
		<path class="st2" d="M13.6,25c-0.6,0.5-1.2,1.2-1,2c0.1,0.4,0.3,0.7,0.3,1c0,0.6-0.7,0.9-1.1,1.4c-0.6,0.7-0.6,1.7-0.9,2.6
			c-0.4,1.1-1.3,2-2.4,2.3c-1,0.3-2.4,0.1-2.9,1.2c-0.4,1,0,2.5,0.8,3.1c0.9,0.7,2.2,0.8,3.3,0.5c0.3-0.1,0.5-0.2,0.7-0.4
			c0.3-0.3,0.1-0.8,0.1-1.3c-0.2-1.3,0.2-2.7,1.1-3.6c-0.3-0.9-0.1-1.1,0.5-1.9c0.5-0.8,1.2-1.5,1.5-2.4c0.3-0.9,0.1-1.8,0.2-2.7
			c0.2-1.4,1.1-2.5,1.7-3.8c0.6-1.2,1.1-2.8,0.4-4C15.3,21.6,15.3,23.4,13.6,25z"/>
	</g>
	<g>
		<path class="st3" d="M30.1,11.4c0.4,0.1,0.9,0.2,1.4,0.3c3.1,0.8,0.6,3.9-1.8,3c-0.7-0.3-1.3-0.8-1.9-1.2
			c-0.6-0.4-1.5-0.7-2.2-0.3c-0.4,0.2-0.7,0.6-1,0.9c-0.3,0.3-0.8,0.5-1.2,0.3c-1.2-0.6-0.2-7.8,1.2-8.3c0.5-0.2,1,0.2,1.3,0.6
			c0.4,0.4,0.8,0.8,1.3,0.8c1.5-0.1,1.1,2.8,2.3,3.6C29.7,11.3,29.9,11.4,30.1,11.4z"/>
	</g>
	<g>
		<path class="st11" d="M21.6,22.3c0-0.1-0.2,0-0.1,0c0.2,0.5,0.2,1.1-0.1,1.5c-0.2,0.3-0.6,0.6-0.4,1C21,25,21,25,21.1,25
			c0.5,0.1,0.7-0.7,0.7-1.1C21.9,23.4,21.9,22.9,21.6,22.3z"/>
	</g>
	<g>
		<path class="st11" d="M29.3,21.1c-0.1-0.1-0.3,0.1-0.2,0.2c0.2,0.3,0.4,0.6,0.6,0.9c0.2,0.3,0.3,0.6,0.5,0.9
			c0.1,0.1,0.3,0,0.3-0.1C30.5,22.2,29.8,21.4,29.3,21.1z"/>
	</g>
	<g>
		<path class="st11" d="M38,18.9c-0.1-0.2-0.3-0.5-0.5-0.5c-0.1,0-0.2,0-0.2,0.1c0,0.3,0.1,0.5,0.3,0.8c0.1,0.2,0.3,0.5,0.5,0.6
			c0.1,0.1,0.3-0.1,0.3-0.2C38.3,19.4,38.1,19.2,38,18.9z"/>
	</g>
	<g>
		<path class="st11" d="M17.7,31.3c0-0.1-0.2-0.1-0.2,0c-0.4,0.5-0.2,1.2,0.1,1.7c0.1,0.1,0.3,0,0.2-0.1
			C17.8,32.3,17.8,31.8,17.7,31.3z"/>
	</g>
	<g>
		<path class="st11" d="M27.3,32c-0.3-0.5-0.5-1-0.8-1.4c0-0.1-0.1,0-0.1,0.1c0.2,0.5,0.5,1,0.6,1.6c0.1,0.4,0,0.9,0.3,1.2
			c0.1,0.2,0.4,0,0.4-0.1C27.9,32.8,27.5,32.4,27.3,32z"/>
	</g>
	<g>
		<path class="st11" d="M37.4,27.6c-0.2-0.2-0.3-0.5-0.6-0.6c-0.2-0.1-0.3,0.1-0.2,0.2c0.1,0.3,0.3,0.5,0.4,0.7
			c0.1,0.2,0.3,0.5,0.5,0.5c0.1,0,0.2,0,0.2-0.1C37.8,28,37.6,27.8,37.4,27.6z"/>
	</g>
	<g>
		<path class="st11" d="M44.1,23.3c-0.1-0.2-0.2-0.4-0.3-0.6c0-0.1-0.2-0.1-0.2,0c0,0.4,0.1,1.1,0.6,1.2c0.1,0,0.2-0.1,0.2-0.1
			C44.3,23.6,44.2,23.5,44.1,23.3z"/>
	</g>
	<g>
		<path class="st11" d="M11.1,22.5c-0.1,0.2-0.1,0.4-0.1,0.6c0,0.2,0.2,0.2,0.2,0c0-0.2,0.1-0.4,0-0.6
			C11.3,22.4,11.2,22.4,11.1,22.5z"/>
	</g>
	<g>
		<path class="st12" d="M30.1,35.2c-0.6-0.2-1.2-0.2-1.7,0.1c-0.6,0.4-0.8,1.1-1.5,1.4c-0.4,0.2-1.3,0-1.8,0c-0.6,0-1.1,0.1-1.7-0.1
			c-0.4-0.1-0.7-0.4-1.1-0.4c-0.8-0.2-1.5,0-2.2,0.3c-0.1,0,0,0.2,0.1,0.2c1.3-0.1,2.1,0.7,3.2,0.9c0.7,0.2,1.4-0.2,2.1-0.3
			c0.7,0,1.1,0.1,1.7-0.3c0.1-0.1,0.2-0.2,0.3-0.4c0.4-0.2,0.8-0.4,1.2-0.6c0.4-0.1,0.9-0.1,1.4-0.3C30.4,35.8,30.5,35.3,30.1,35.2z
			"/>
	</g>
	<g>
		<path class="st12" d="M37.4,31.8c-1,0.9-1.8,1.3-3.1,1.6c-0.7,0.1-1.3,0.4-1.7,1c-0.1,0.1,0.1,0.3,0.2,0.2
			c1.5-1.1,4.2-0.4,4.7-2.6C37.6,31.8,37.5,31.8,37.4,31.8z"/>
	</g>
	<g>
		<path class="st12" d="M38.2,31.6c-0.1,0-0.1,0.2,0,0.2C38.4,31.8,38.4,31.6,38.2,31.6z"/>
	</g>
	<g>
		<path class="st12" d="M29.3,19c-0.5-0.2-1,0-1.5,0.1c-0.6,0.1-1.2,0.1-1.7,0.4c-0.2,0.1-0.1,0.3,0.1,0.4c0.6,0.1,1.2,0,1.7-0.1
			c0.5-0.1,1.1,0,1.5-0.4C29.5,19.2,29.4,19.1,29.3,19z"/>
	</g>
	<g>
		<path class="st12" d="M39.6,34.1c-0.7,0.1-1.3,0.4-1.8,0.7c-0.5,0.3-0.9,0.5-1.3,0.9c-0.1,0.1,0,0.2,0.1,0.1
			c1-0.4,2.3-0.7,3.1-1.5C39.9,34.3,39.8,34.1,39.6,34.1z"/>
	</g>
	<g>
		<path class="st12" d="M29.7,12.8c-0.5,0-1,0.2-1.5,0.3c-0.2,0.1-0.2,0.4,0.1,0.3c0.5-0.1,1-0.2,1.5-0.5
			C29.8,12.9,29.8,12.8,29.7,12.8z"/>
	</g>
	<g>
		<path class="st12" d="M34.1,10.4c0,0.4,0,0.8,0,1.2c-0.1-0.4-0.4-0.6-0.8-0.8c-0.2-0.1-0.4-0.1-0.6-0.1c-0.6-0.1-1.2-0.2-1.5-0.7
			C31,9.7,31,9.2,30.7,9.1c-0.3-0.1-0.6,0-0.8,0c-0.7,0-1.2-0.7-1.5-1.3c-0.3-0.7-0.4-1.4-0.9-1.9c-0.2,0.3-0.6,0.2-0.8,0.1
			c-0.2-0.2-0.4-0.5-0.5-0.8c-0.4-1-0.9-1.9-1.3-2.8c0-0.1-0.1-0.2-0.2-0.4C24.6,1.5,24.4,1,24.4,1c-0.7-0.1-1.4-0.2-2.2-0.2
			c-0.9,0-2,0.1-2.9-0.1c-1.4,1.4-2.1,4.1-2.8,5.6c-2.1,4.8-4.2,9.5-6.5,14.1c0,0.1-0.1,0.1-0.1,0l8.7-20.3c0,0,0,0,0.1,0
			c0.1-0.1,0.1-0.1,0.2-0.2c0.7,0,4,0.1,5.7,0.8c0.1,0,0.1,0.1,0.2,0.1C24.7,1,24.8,1,24.8,1c0.1,0,0.1,0.1,0.1,0.1
			c0.1,0,0.2,0.1,0.3,0.2C26.3,2.4,29.8,5.9,34.1,10.4z"/>
	</g>
	<g>
		<path class="st1" d="M24,2.2c-3.5,8.5-6.3,17.5-8.9,26.3c0,0.1,0.1,0.1,0.1,0.1c3.3-8.6,6.5-17.4,9-26.3C24.2,2.1,24,2,24,2.2z"/>
	</g>
	<g>
		<path class="st12" d="M46.8,40.3c-1.5,1-3,2.1-4.6,3c-1.7,0.9-3.6,1.7-5.4,2.3c-1.7,0.5-3.4,1-5.1,1.3c-1.9,0.4-3.8,0.5-5.6,1
			c-0.2,0-0.1,0.2,0,0.3c3.5,0.7,7.7-0.4,11-1.7c3.4-1.4,7.2-3.3,9.9-5.8C47.1,40.4,47,40.1,46.8,40.3z"/>
	</g>
	<g>
		<g>
			<path class="st13" d="M34.5,50.5c-0.2,0-0.3,0.1-0.5,0.1c-1.6,0.4-3.3,0.6-4.9,0.8c-0.2,0-0.4,0-0.6,0.1
				c-2.1,0.2-4.2,0.1-6.2-0.1c-0.7-0.1-1.4-0.2-2-0.3c-1.4-0.3-2.7-0.6-4-1.1c-0.6-0.2-1.2-0.4-1.7-0.7c-1.2-0.5-2.4-1.1-3.5-1.8
				c-0.3-0.2-0.7-0.4-1-0.6c-0.3-0.2-0.5-0.3-0.8-0.5c0,0-0.1,0-0.1-0.1c-1.1-0.6-7.9-2.8-8.9-3.1c0,0.1-0.1,0.2-0.1,0.2
				c0.6,1.1,1.3,2.1,2.2,3c0.9,0.9,1.9,1.8,3.1,2.5c0.7,0.5,1.5,0.9,2.3,1.4c0.6,0.3,1.1,0.5,1.7,0.8c0.6,0.3,1.2,0.5,1.8,0.7
				c1.1,0.4,2.2,0.7,3.3,1c0.9,0.2,1.8,0.4,2.8,0.5c0.3,0.1,0.7,0.1,1,0.1c1.2,0.2,2.3,0.2,3.4,0.3c1.6,0.1,3.1,0,4.6-0.1
				c0.7-0.1,1.4-0.2,2.1-0.3c2-0.3,3.9-0.8,5.8-1.5c0.2-0.1,0.5-0.2,0.7-0.2c4.3-1.5,8.7-3.6,13.2-6.2
				C44.7,47.3,39.2,49.4,34.5,50.5z"/>
		</g>
		<g>
			<path class="st14" d="M48,45.7c-4.7,3.3-11.2,6.5-19.5,7.9c-0.7,0.1-1.4,0.2-2.1,0.3c-1.3,0.1-2.6,0.2-4,0.2c-0.2,0-0.4,0-0.6,0
				c-1.1,0-2.3-0.1-3.4-0.3c-0.2,0-0.3,0-0.5-0.1c-0.2,0-0.3,0-0.5-0.1c-0.2,0-0.5-0.1-0.7-0.1c-0.7-0.1-1.4-0.3-2.1-0.4
				c-1.1-0.3-2.3-0.6-3.3-1c-0.1,0-0.2-0.1-0.3-0.1c-0.5-0.2-1-0.4-1.5-0.6c-0.6-0.3-1.2-0.5-1.7-0.8c-0.8-0.4-1.6-0.9-2.3-1.4
				c-0.6-0.4-1.1-0.8-1.6-1.2c-0.5-0.4-1-0.9-1.5-1.4c-0.9-0.9-1.6-1.9-2.2-3c0,0,0-0.1-0.1-0.1c0,0,0,0,0,0c0-0.1,0-0.1,0-0.1
				c0,0,2.2,0.7,4.4,1.4c2,0.7,4.1,1.4,4.7,1.7c0,0,0.1,0,0.1,0.1c0.3,0.2,0.5,0.4,0.8,0.5c0.3,0.2,0.7,0.4,1,0.6
				c0.6,0.4,1.2,0.7,1.8,1c0.6,0.3,1.2,0.6,1.7,0.8c0.6,0.2,1.2,0.5,1.7,0.7c0.5,0.2,1.1,0.4,1.6,0.5c0.8,0.2,1.6,0.4,2.4,0.6
				c0.7,0.1,1.4,0.2,2,0.3c2,0.2,4.1,0.3,6.2,0.1c0.2,0,0.4,0,0.6-0.1c1.6-0.1,3.3-0.4,4.9-0.8c0.2,0,0.3-0.1,0.5-0.1
				c0.2-0.1,0.5-0.1,0.7-0.2c1.3-0.3,2.5-0.7,3.7-1.1c0.5-0.2,1-0.3,1.4-0.5c4.5-1.7,8-3.9,10-5.5c1.8-1.5,3.5-3.2,4.9-5.1
				c0.8-1.1,1.6-2.2,2.4-3.3C58.3,35.4,55.1,40.7,48,45.7z"/>
		</g>
		<g>
			<path class="st15" d="M10.9,47.8C10.9,47.8,10.9,47.8,10.9,47.8c-0.1,1.2-1.3,1.4-2.3,1c-0.2,0.4-0.4,0.7-0.7,1
				c-0.2,0.2-0.5,0.2-0.7,0c-0.5-0.3-1-0.4-1.5-0.5c-0.1,0-0.2,0-0.3,0c-0.1,0-0.1,0-0.2,0c-1.1-0.8-2.2-1.6-3.1-2.5
				c0-0.1,0.1-0.2,0.2-0.3c0.4-0.3,0.8-0.4,1.3-0.2c0.2,0.1,0.4,0.2,0.6,0.4c0.7,0.6,1.1,0.7,2.1,0.6C7.1,47.1,8,46.9,8.8,47
				c0.4-0.1,0.7-0.1,1,0.2c0,0,0.1-0.1,0.1-0.1C10.3,47.4,10.6,47.6,10.9,47.8z"/>
		</g>
		<g>
			<path class="st15" d="M16.2,50.2c0,0.1,0,0.2,0,0.3c-0.2,0.7-0.6,0.8-1.1,1.1c-0.6,0.4-0.6,0.9-0.5,1.4c-1.1-0.3-2.3-0.6-3.3-1
				c0.2-0.1,0.3-0.2,0.4-0.3c0.1-0.4,0.4-0.9,0.7-1.2c0-0.1,0-0.3,0-0.4c0-0.4,0.6-0.7,0.9-0.3c0.1,0.1,0.2,0.2,0.3,0.2
				c0.3-0.2,0.6-0.4,0.8-0.5C15,49.8,15.6,50,16.2,50.2z"/>
		</g>
		<g>
			<path class="st15" d="M22.7,52.2c0,0.8-0.4,1.4-1,1.9c-1.1,0-2.3-0.1-3.4-0.3c0.6-0.6,1.2-1,2-1.4c-0.1-0.1-0.1-0.2-0.2-0.3
				C20,51.9,20,51.8,20,51.6c0-0.1,0.1-0.2,0.2-0.3c0.7,0.1,1.4,0.2,2,0.3C22.5,51.6,22.7,51.8,22.7,52.2z"/>
		</g>
		<g>
			<path class="st15" d="M28.5,51.7c-0.9,0.5-1.6,1.3-2.1,2.2c0.7-0.1,1.4-0.2,2.1-0.3c0-0.1,0-0.1-0.1-0.2c0.1-0.3,0.2-0.6,0.1-0.9
				c0.2-0.2,0.4-0.5,0.6-0.7c0.1-0.1,0.1-0.1,0.1-0.2L28.5,51.7z"/>
		</g>
		<g>
			<path class="st15" d="M35,51.9c-0.2,0.1-0.5,0.2-0.7,0.2c0-0.1,0-0.2-0.1-0.3c-0.1-0.3-0.2-0.7-0.2-1c0.2,0,0.3-0.1,0.5-0.1
				c0.2,0.3,0.3,0.6,0.4,0.9C34.9,51.8,35,51.8,35,51.9z"/>
		</g>
	</g>
	<g>
		<path class="st16" d="M48,45.7c-4.7,3.3-11.2,6.5-19.5,7.9c-0.7,0.1-1.4,0.2-2.1,0.3c-1.3,0.1-2.6,0.2-4,0.2c-0.2,0-0.4,0-0.6,0
			c-1.1,0-2.3-0.1-3.4-0.3c-0.2,0-0.3,0-0.5-0.1c-0.2,0-0.3,0-0.5-0.1c-0.2,0-0.5-0.1-0.7-0.1c-0.7-0.1-1.4-0.3-2.1-0.4
			c-1.1-0.3-2.3-0.6-3.3-1c-0.1,0-0.2-0.1-0.3-0.1c-0.5-0.2-1-0.4-1.5-0.6c-0.6-0.3-1.2-0.5-1.7-0.8c-0.8-0.4-1.6-0.9-2.3-1.4
			c-0.6-0.4-1.1-0.8-1.6-1.2c2.9,0.7,6,0.9,9,0.7c0.6,0.3,1.2,0.6,1.7,0.8c0.6,0.2,1.2,0.5,1.7,0.7c0.5,0.2,1.1,0.4,1.6,0.5
			c0.8,0.2,1.6,0.4,2.4,0.6c0.7,0.1,1.4,0.2,2,0.3c2,0.2,4.1,0.3,6.2,0.1c0.2,0,0.4,0,0.6-0.1c1.6-0.1,3.3-0.4,4.9-0.8
			c0.2,0,0.3-0.1,0.5-0.1c0.2-0.1,0.5-0.1,0.7-0.2c2.8-0.7,5.5-1.6,8.1-2.7c1.4-0.6,2.8-1.3,4.1-2C47.6,45.8,47.8,45.7,48,45.7z"/>
	</g>
	<g>
		<path class="st17" d="M46.9,45.8c-1.8,1.1-4,2.2-6.6,3.2c-0.4,0.2-0.9,0.4-1.4,0.5c-0.3,0.1-0.6,0.2-0.9,0.3
			c-1.2,0.4-2.3,0.7-3.5,1c-0.2,0-0.3,0.1-0.5,0.1c-1.6,0.4-3.3,0.6-4.9,0.8c-0.2,0-0.4,0-0.6,0.1c-2.1,0.2-4.2,0.1-6.2-0.1
			c-0.7-0.1-1.4-0.2-2-0.3c-0.8-0.1-1.6-0.3-2.4-0.6c-0.5-0.1-1.1-0.3-1.6-0.5c-0.6-0.2-1.2-0.4-1.7-0.7c-0.6-0.2-1.2-0.5-1.7-0.8
			c-0.6-0.3-1.2-0.6-1.8-1c-0.3-0.2-0.7-0.4-1-0.6c-0.3-0.2-0.5-0.3-0.8-0.5c0,0-0.1,0-0.1-0.1c-0.6-0.3-2.6-1-4.7-1.7
			c1.1,3,4.9,5.4,7.6,6.8c1.8,0.9,3.7,1.5,5.6,2c0.2,0,0.4,0.1,0.6,0.1c1.2,0.2,2.4,0.3,3.5,0.3c1.6,0.1,3.1,0,4.6-0.1
			c0.7-0.1,1.4-0.2,2.1-0.3c9-1.5,15.8-5.1,20.7-8.7C48.4,45.2,47.6,45.5,46.9,45.8z"/>
	</g>
	<g>
		<path class="st1" d="M19,5.1c-0.1,0.8,0,1.5-0.3,2.2c-0.2,0.5-0.5,0.9-0.6,1.4c-0.3,1.3,0.5,2.4,0,3.7c0,0.1,0.1,0.1,0.1,0.1
			c0.6-0.9,0.5-2.1,0.5-3.2c0-1.4,0.5-2.8,0.5-4.2C19.2,4.9,19,4.9,19,5.1z"/>
	</g>
	<g>
		<path class="st1" d="M13.1,25.6c-0.6,1.1-0.9,2.4-1.4,3.5c-0.5,1-1.2,2.1-1.5,3.2c0,0.2,0.2,0.4,0.3,0.2c0.9-0.7,1-1.8,1.3-2.9
			c0.4-1.4,1-2.7,1.4-4.1C13.3,25.6,13.2,25.5,13.1,25.6z"/>
	</g>
	<g>
		<path class="st18" d="M21.4,24.3c0,0-0.1,0-0.1-0.1c-0.2-0.2-0.5,0.1-0.4,0.3c0,0.2,0.4,0.3,0.5,0.1c0,0,0-0.1,0.1-0.1
			C21.5,24.5,21.5,24.4,21.4,24.3z"/>
	</g>
	<g>
		<path class="st18" d="M30.3,23c-0.2,0-0.2,0.4,0.1,0.4C30.6,23.3,30.5,23,30.3,23z"/>
	</g>
	<g>
		<path class="st18" d="M38.3,19.7c0,0-0.1,0-0.1,0c-0.3,0-0.2,0.5,0.1,0.4c0,0,0.1,0,0.1,0C38.6,20.1,38.5,19.7,38.3,19.7z"/>
	</g>
	<g>
		<path class="st18" d="M17.5,30.7c0,0.1-0.1,0.2-0.1,0.3c-0.1,0.2,0.3,0.3,0.4,0.1l0.1-0.3C17.8,30.6,17.5,30.5,17.5,30.7z"/>
	</g>
	<g>
		<path class="st18" d="M26.8,3.5C26.7,3.5,26.7,3.5,26.8,3.5C26.9,3.8,27,4,27.2,4.2c0,0,0.1,0,0,0C27.1,4,26.9,3.7,26.8,3.5z"/>
	</g>
	<g>
		<path class="st18" d="M29.1,5.8C29.1,5.8,29,5.8,29.1,5.8c0.3,0.5,0.6,1.1,1,1.5c0,0,0.1,0,0.1-0.1C29.9,6.8,29.5,6.3,29.1,5.8z"
			/>
	</g>
	<g>
		<path class="st18" d="M33,12.6c-0.2-0.3-0.3-0.5-0.6-0.8c-0.2-0.2-0.5-0.4-0.7-0.6c-0.2-0.2-0.5,0.1-0.4,0.3
			c0.2,0.3,0.3,0.6,0.5,0.8c0.2,0.3,0.4,0.5,0.7,0.7C32.7,13.4,33.1,13,33,12.6z"/>
	</g>
	<g>
		<path class="st18" d="M34,13.8c-0.3-0.2-0.6,0.2-0.3,0.4c0.2,0.1,0.7,0.6,0.9,0.3C34.8,14.2,34.2,13.9,34,13.8z"/>
	</g>
</g>
</svg>
