<?xml version="1.0" encoding="utf-8"?>
<!-- Generator: Adobe Illustrator 25.0.0, SVG Export Plug-In . SVG Version: 6.00 Build 0)  -->
<svg version="1.1"
	 id="svg2" inkscape:version="0.48+devel r9935" sodipodi:docname="Documento nuevo 1" xmlns:cc="http://creativecommons.org/ns#" xmlns:dc="http://purl.org/dc/elements/1.1/" xmlns:inkscape="http://www.inkscape.org/namespaces/inkscape" xmlns:ns1="http://sozi.baierouge.fr" xmlns:rdf="http://www.w3.org/1999/02/22-rdf-syntax-ns#" xmlns:sodipodi="http://sodipodi.sourceforge.net/DTD/sodipodi-0.dtd" xmlns:svg="http://www.w3.org/2000/svg"
	 xmlns="http://www.w3.org/2000/svg" xmlns:xlink="http://www.w3.org/1999/xlink" x="0px" y="0px" viewBox="0 0 216 116"
	 style="enable-background:new 0 0 216 116;" xml:space="preserve">
<style type="text/css">
	.st0{fill:#BC5D1D;}
	.st1{fill:#9E4B13;}
	.st2{fill:#CC6520;}
	.st3{fill:#EAB68B;}
	.st4{fill:#EA863B;}
	.st5{fill:#C69067;}
</style>
<sodipodi:namedview  bordercolor="#666666" borderopacity="1.0" id="base" inkscape:current-layer="layer1" inkscape:cx="273.52498" inkscape:cy="614.84559" inkscape:document-units="px" inkscape:pageopacity="0.0" inkscape:pageshadow="2" inkscape:window-height="787" inkscape:window-maximized="0" inkscape:window-width="1440" inkscape:window-x="0" inkscape:window-y="0" inkscape:zoom="0.42014768" pagecolor="#ffffff" showgrid="false">
	</sodipodi:namedview>
<g>
	<g>
		<g>
			<path class="st0" d="M186.6,35.1c-0.3,3.9-5.2,6.7-11.8,8.2c-0.1,0-0.2,0.1-0.3,0.1c-5.6,1.2-13.6,3.2-18.3,4.4
				c-2.5,0.6-5,1.4-7.4,2.3c-1.8,0.7-4.1,1.5-6.5,2.4c-3.8,1.4-7.9,3-11.1,4.4c-3.4,1.4-6.3,2.2-8.7,2.3c-1-0.1-2-0.2-3-0.4
				c-18.7-2.6-31.9-9.7-31.9-22.5c0-6.4,3.3-13.3,9-19.3l0,0c1.4-1.5,3.3-2.4,5.2-2.4c0.3,0,0.5,0,0.7,0c1.1-3.3,3.9-5.7,3.9-5.7
				c3.8-2.4,7.1-4.6,12.1-6c3.4-0.8,6.9-0.1,6.9-0.1c1-1.6,3.5-2.1,4.1-2.3h0.1l0,0c2.5-0.3,5.1-0.5,7.7-0.5c0.8,0,1.6,0,2.4,0.1
				l0,0h0.1c0.6,0,3.2,0.3,4.9,1.7c0.3-0.1,0.6-0.2,0.8-0.3c0.9-0.2,2.4-0.4,4.6,0c4.6,1.1,9,2.7,13,4.7l0,0l0,0l0,0
				c0.1,0,0.1,0.1,0.2,0.1h0.1c0.8,0.4,2.6,1.7,3.9,4.4l0,0l0,0c0.1,0,2.6-0.2,5.8,1.9c1.7,1.4,3.3,2.9,4.7,4.4l0,0l0,0
				c4.7,5,7.8,10.6,8.7,16C186.5,33.7,186.6,34.4,186.6,35.1z"/>
			<path class="st0" d="M177.7,17L177.7,17L177.7,17z"/>
			<path class="st1" d="M137.1,52.6c1.8,0,3.6,0,5.2-0.1c-3.8,1.4-7.9,3-11.1,4.4c-3.4,1.4-6.3,2.2-8.7,2.3c-1-0.1-2-0.2-3-0.4
				c-18.7-2.6-31.9-9.7-31.9-22.5c0-6.4,3.3-13.3,9-19.3c-0.2,0.4-15.1,26.6,19.8,33.8C121.8,51.9,128.7,52.6,137.1,52.6z"/>
			<path class="st1" d="M186.6,35.1c-0.3,3.9-5.2,6.7-11.8,8.2c5.8-5.1,6.6-11.5,5.9-16.7c-0.7-5.3-3-9.4-3.1-9.6
				c4.7,5,7.8,10.6,8.7,16C186.5,33.7,186.6,34.4,186.6,35.1z"/>
			<path class="st2" d="M170.8,24c0,9.5-15.1,16.6-33.7,16.6s-33.7-7.1-33.7-16.6s15.1-20.8,33.7-20.8S170.8,14.5,170.8,24z"/>
			<path class="st1" d="M167.1,10.7c-3.1,0.9-7.1,2.3-11.6,4.7c-0.6,0.3-1.2,0.7-1.8,1c-3.7,2.2-7.7,5.1-11.8,8.8
				c-0.5,0.5-1,0.9-1.5,1.4c-3.4,3.4-6.9,7.4-10.3,12.2c2.7-5.2,5.6-9.6,8.5-13.4c0.5-0.6,0.9-1.2,1.4-1.7c3.4-4.1,6.8-7.3,10.1-9.9
				c0.6-0.5,1.2-0.9,1.8-1.4c4.2-3.1,8-5.1,10.9-6.3l0,0l0,0l0,0c0.1,0,0.1,0.1,0.2,0.1h0.1C164,6.7,165.9,8,167.1,10.7z"/>
			<path class="st1" d="M152.9,37.6c-4-4.4-8.2-8.1-12.4-11c-0.6-0.4-1.2-0.8-1.8-1.2c-6.6-4.2-13.2-6.8-19.2-8.4
				c-0.5-0.1-1-0.2-1.4-0.4c-6.1-1.5-11.5-1.9-15.7-2c1.1-3.3,3.9-5.7,3.9-5.7c4.1,0.9,9.5,2.3,15.2,4.5c0.5,0.2,1.1,0.4,1.6,0.6
				c5.7,2.3,11.6,5.4,17.1,9.6c0.6,0.5,1.3,1,1.9,1.5C146.1,28.6,149.8,32.7,152.9,37.6z"/>
			<path class="st1" d="M170.3,32.5c-5.6-6.7-11.2-12-16.6-16.1c-1.2-0.9-2.4-1.8-3.6-2.6c-5.3-3.6-10.3-6.1-14.8-7.9
				c-1.1-0.4-2.1-0.8-3.1-1.2c-2.6-0.9-5-1.5-7.1-1.9c1-1.6,3.5-2.1,4.1-2.3h0.1l0,0c1.8,0.6,3.7,1.3,5.8,2.2c1.1,0.5,2.2,1,3.4,1.5
				c4.2,2,8.8,4.7,13.4,8.2c1.2,0.9,2.4,1.9,3.6,2.9C160.8,19.8,165.9,25.5,170.3,32.5z"/>
			<path class="st1" d="M144.5,1.8c-1.8,0.6-3.7,1.4-5.9,2.5c-1,0.5-2.1,1-3.2,1.6c-3.7,2-7.9,4.7-12.4,8.2
				c-1.2,0.9-2.3,1.9-3.5,2.9c-4.7,4-9.6,9-14.6,15.1c4.3-6,8.8-11.2,13.2-15.5c1.1-1.1,2.3-2.2,3.4-3.2c3.9-3.5,7.6-6.4,10.8-8.7
				l0,0c1-0.7,2-1.4,2.9-2c1.6-1.1,3-1.9,4.3-2.7l0,0h0.1C140.2,0.1,142.8,0.4,144.5,1.8z"/>
		</g>
		<g>
			<path class="st3" d="M122,58.6c-0.9,0-1.7-0.1-2.4-0.4c-1.8-0.6-2.8-2-3-4.2c-0.1-0.8,0-2,0.3-3.2c0.8-3.6,2.8-7.8,5.5-11.7
				c1.9-2.7,4.2-5.3,6.8-7.6c2.7-2.4,5.7-4.5,8.9-6.2c0.7-0.4,1.4-0.7,2.1-1l0.2-0.1c2-0.9,4-1.7,6.1-2.3c3.7-1.1,7.6-1.6,11.4-1.7
				h0.5c0.7,0,1.3,0,2,0.1c1.3,0.1,2.6,0.2,3.9,0.4c2.1,0.3,4.2,0.8,6.1,1.4c3.8,1.2,7.3,2.9,10.2,4.9c2.6,1.8,4.5,3.9,5.2,5.6
				c0.1,0.2,0.2,0.4,0.2,0.6c0.2,0.7,0.3,1.3,0.2,1.9c-0.3,3.3-4.4,6.1-11.4,7.7l-0.3,0.1c-5.7,1.3-13.9,3.3-18.3,4.4
				c-2.5,0.6-5,1.4-7.4,2.3c0,0-5.1,1.9-6.5,2.4c-3.1,1.2-7.7,2.9-11.2,4.4c-3.4,1.4-6.2,2.2-8.5,2.3
				C122.2,58.6,122.1,58.6,122,58.6z"/>
			<path class="st4" d="M158.4,20.8c0.6,0,1.3,0,1.9,0.1c1.3,0.1,2.6,0.2,3.8,0.4c2.1,0.3,4.1,0.8,6.1,1.3c3.7,1.1,7.2,2.8,10,4.8
				c2.5,1.8,4.3,3.8,5,5.4c0.1,0.2,0.1,0.4,0.2,0.5c0.2,0.6,0.3,1.2,0.2,1.7c-0.3,3.1-4.3,5.7-11,7.2h-0.2h-0.2
				c-5.7,1.3-13.9,3.3-18.3,4.4c-2.5,0.6-5.1,1.4-7.5,2.3c-0.7,0.3-1.6,0.6-2.5,0.9c-1.3,0.5-2.6,1-4.1,1.5
				c-3.1,1.2-7.7,2.9-11.2,4.4c-3.3,1.4-6.1,2.1-8.4,2.2c-0.1,0-0.3,0-0.4,0c-0.9,0-1.6-0.1-2.2-0.3c-1.6-0.5-2.5-1.8-2.7-3.7
				c-0.1-0.6-0.1-1.5,0.3-3.1c0.7-3.5,2.7-7.7,5.5-11.5c1.9-2.7,4.2-5.2,6.8-7.5c2.7-2.4,5.7-4.5,8.8-6.2c0.7-0.4,1.4-0.7,2.1-1
				c0,0,0.1,0,0.2-0.1c1.9-0.9,4-1.7,6-2.3c3.7-1.1,7.5-1.6,11.3-1.6C158.1,20.8,158.2,20.8,158.4,20.8L158.4,20.8z M158.4,19.8
				c-0.2,0-0.3,0-0.5,0c-3.9,0-7.8,0.6-11.6,1.7c-2.1,0.6-4.2,1.4-6.2,2.3c-0.1,0-0.1,0.1-0.2,0.1c-0.7,0.3-1.4,0.7-2.1,1.1
				c-3.2,1.7-6.2,3.8-9,6.3s-5.1,5.1-6.9,7.7c-3.2,4.4-5,8.7-5.6,11.9c-0.3,1.4-0.4,2.5-0.3,3.4c0.3,2.4,1.5,3.9,3.4,4.6
				c0.8,0.3,1.6,0.4,2.6,0.4c0.2,0,0.3,0,0.5,0c2.4-0.1,5.4-0.9,8.7-2.3c3.2-1.4,7.4-2.9,11.1-4.4c2.5-0.9,4.8-1.8,6.5-2.4
				c2.4-0.9,4.9-1.7,7.4-2.3c4.7-1.2,12.7-3.2,18.3-4.4c0.1,0,0.2-0.1,0.3-0.1c6.6-1.5,11.4-4.3,11.8-8.2c0.1-0.7,0-1.4-0.2-2.1
				c-0.1-0.2-0.1-0.4-0.2-0.6c-0.7-1.6-2.5-3.7-5.4-5.8c-2.6-1.9-6.1-3.7-10.3-5c-1.9-0.6-4-1.1-6.2-1.4c-1.3-0.2-2.6-0.3-3.9-0.4
				C159.7,19.8,159,19.8,158.4,19.8L158.4,19.8z"/>
		</g>
		<path class="st5" d="M122.4,49.4c0,0,1.1-1.5,2.1-1.3c1,0.1,2.4,1.3,2.3,2.1c-0.1,0.7-0.7,2.4-1.9,2.4c-1.2,0-2.3-0.4-2.5-0.8
			C122.2,51.3,122.3,50.1,122.4,49.4z"/>
		<path class="st5" d="M127,45.8c0.5-0.4,1.3-0.6,1.8,0c0.4,0.6,0.6,1.7,0,1.8s-1.9-0.5-1.9-0.5S126.6,46.1,127,45.8z"/>
		<path class="st5" d="M130,50.5c0.6-0.4,1.2-0.1,1.1,0.5s-0.2,1-0.8,1C129.8,52,129.7,50.8,130,50.5z"/>
		<path class="st5" d="M159,26.9c0.9-0.2,2.2,1.3,1.9,2.2c-0.3,0.8-1.4,2.1-2.2,1.6s-1.1-1.5-0.9-2.2C158,27.8,158.4,27,159,26.9z"
			/>
		<path class="st5" d="M136.1,33.1c1-0.7,2.1-0.2,2.2,0.7c0.1,1-0.6,2.2-1.2,2.2C136.4,36,135,34,136.1,33.1z"/>
		<path class="st5" d="M140.3,31.9c0.1-0.6,1-1.5,1.5-1c0.6,0.5,0.7,1,0,1.5C141.2,32.9,140.2,32.6,140.3,31.9z"/>
		<path class="st5" d="M174.8,35.1c1.3-0.7,2.7,0.6,2.7,1.7c0,1.1-0.8,2.9-1.7,3.2c-0.9,0.2-2.2-0.6-2.2-1.8
			C173.5,36.9,174.3,35.4,174.8,35.1z"/>
		<path class="st5" d="M176.5,30.6c1-0.2,1.4,1.6,1,2.1s-1.8,1.1-2,0.5C175.3,32.6,175.9,30.7,176.5,30.6z"/>
		<path class="st5" d="M169.3,31.2c0,0,0.8-0.8,1.4-0.1c0.7,0.7,0.2,1.3-0.3,1.6C169.9,32.9,168.7,32.2,169.3,31.2z"/>
		<path class="st5" d="M146.8,41c0.6-0.6,1.5-0.2,1.5,0.2c0,0.5-0.4,1.6-1,1.5C146.8,42.5,146.3,41.6,146.8,41z"/>
		<path class="st5" d="M150.6,44.7c0.6-0.5,1.2-0.2,1.2,0.1s-0.2,1.1-0.9,1.1C150.3,45.9,150,45.2,150.6,44.7z"/>
		<path class="st5" d="M164.4,39.2c0.9,0.3,0.4,1.3,0,1.6c-0.4,0.2-1.4,0.1-1.4-0.5S163.4,38.8,164.4,39.2z"/>
	</g>
	<g>
		<path class="st1" d="M214.1,77c-0.6,0.9-2.7,3.7-7.4,6c-2.1,1-4.7,2-7.9,2.7c-3.8,0.8-8.4,1.3-14,1c-2.8-0.1-5.3-0.4-7.8-0.7
			c-2.9-0.4-5.6-1-8-1.7c-7.6-2.1-12.8-4.9-15.3-6.5c-1-0.7-1.6-1.9-1.5-3.2l0.4-4.4l63.3-6.4C215.9,63.8,215.3,75.2,214.1,77z"/>
		<path class="st0" d="M207.9,69.6L206.7,83c-2.1,1-4.7,2-7.9,2.7c-3.8,0.8-8.4,1.3-14,1c-2.8-0.1-5.3-0.4-7.8-0.7
			c-2.9-0.4-5.6-1-8-1.7l0.9-12.3L207.9,69.6z"/>
		<path class="st2" d="M199.9,74.9l-1.1,10.8c-3.8,0.8-8.4,1.3-14,1c-2.8-0.1-5.3-0.4-7.8-0.7l0.5-12L199.9,74.9z"/>
		<g>
			<path class="st3" d="M153.2,71.2c-0.3-0.8-0.1-1.7,0.5-2.2c4.2-3.5,19.1-5.5,26.5-6.1c7.9-0.6,19.3-5.8,23.3-7.6s9.5-2.3,11,2.2
				S217.1,74,203.7,79C191.1,83.7,156.3,78.5,153.2,71.2z"/>
			<path class="st4" d="M190.1,81.3c-15.4,0-35-4.5-37.3-10c-0.4-1-0.1-2.2,0.7-2.8c4.4-3.5,19.4-5.6,26.8-6.2
				c7.6-0.6,18.6-5.5,22.7-7.4l0.4-0.2c3.3-1.5,6.6-1.7,8.8-0.7c1.4,0.6,2.4,1.7,2.9,3.3c1.9,6,1.7,17.4-11.2,22.2
				C200.4,80.8,195.5,81.3,190.1,81.3z M209.1,54.5c-1.8,0-3.8,0.6-5.3,1.2l-0.4,0.2c-4.2,1.9-15.4,6.9-23.1,7.5
				c-8.4,0.7-22.4,2.8-26.2,6c-0.5,0.4-0.6,1.1-0.4,1.6l0,0c3,6.9,37.4,12.2,49.8,7.6c12.1-4.5,12.3-15.2,10.5-20.9
				c-0.4-1.3-1.2-2.2-2.3-2.7C210.9,54.6,210,54.5,209.1,54.5z"/>
		</g>
		<path class="st5" d="M159,70.9c0,0,1.2-0.7,2.2-0.5s2.4,1,2.2,1.3c-0.1,0.4-0.8,1.2-2,1.1s-2.3-0.4-2.5-0.7
			C158.7,71.8,158.9,71.2,159,70.9z"/>
		<path class="st5" d="M163.7,69.4c0.5-0.1,1.3-0.2,1.8,0.2c0.4,0.4,0.5,1-0.1,1s-1.8-0.5-1.8-0.5S163.4,69.5,163.7,69.4z"/>
		<path class="st5" d="M166.6,72.2c0.6-0.2,1.2,0.1,1.1,0.4c-0.1,0.3-0.3,0.5-0.8,0.4C166.3,73,166.2,72.3,166.6,72.2z"/>
		<path class="st5" d="M195.8,63.5c0.9,0,2.1,0.9,1.8,1.4c-0.4,0.4-1.5,0.9-2.3,0.6c-0.7-0.3-1-0.9-0.8-1.3
			C194.8,63.9,195.3,63.5,195.8,63.5z"/>
		<path class="st5" d="M208.8,61.3c1.3-0.2,2.6,0.6,2.6,1.2c-0.1,0.6-0.9,1.5-1.8,1.5s-2.2-0.6-2.1-1.2
			C207.5,62.1,208.4,61.3,208.8,61.3z"/>
		<path class="st5" d="M210.8,59.1c1,0,1.4,1,0.9,1.2s-1.8,0.4-2,0.1C209.5,60,210.1,59.1,210.8,59.1z"/>
		<path class="st5" d="M203.6,58.6c0,0,0.8-0.4,1.4,0.1c0.6,0.5,0.2,0.7-0.4,0.8C204.1,59.6,202.9,59.1,203.6,58.6z"/>
		<path class="st5" d="M173.1,67.7c1-0.3,2.1,0.1,2.2,0.6c0.1,0.5-0.7,1.1-1.3,1C173.3,69.3,172,68,173.1,67.7z"/>
		<path class="st5" d="M177.4,67.5c0.1-0.3,1.1-0.7,1.6-0.4c0.5,0.3,0.6,0.6-0.1,0.8C178.2,68.1,177.2,67.9,177.4,67.5z"/>
		<path class="st5" d="M183.5,73c0.6-0.3,1.6,0,1.5,0.3c0,0.3-0.5,0.8-1.1,0.7C183.4,73.8,182.9,73.3,183.5,73z"/>
		<path class="st5" d="M187,75.4c0.6-0.2,1.2,0,1.2,0.2s-0.3,0.6-0.9,0.5C186.7,76,186.5,75.6,187,75.4z"/>
		<path class="st5" d="M200.3,73.2c0.9,0.3,0.4,0.8-0.1,0.8c-0.5,0.1-1.4-0.1-1.4-0.4C198.8,73.3,199.3,72.9,200.3,73.2z"/>
	</g>
	<g>
		<path class="st1" d="M207.6,57.9c-0.4,1-2.1,4.1-6.4,7.3c-1.9,1.4-4.3,2.8-7.4,4.1c-3.6,1.5-8.1,2.8-13.7,3.6
			c-2.7,0.4-5.3,0.6-7.8,0.7c-2.9,0.1-5.7,0-8.1-0.2c-7.8-0.7-13.4-2.5-16.1-3.7c-1.1-0.5-1.9-1.6-2-2.9l-0.3-4.4l61.5-17.8
			C207.4,44.5,208.5,55.9,207.6,57.9z"/>
		<path class="st0" d="M200.4,51.8l0.9,13.4c-1.9,1.4-4.3,2.8-7.4,4.1c-3.6,1.5-8.1,2.8-13.7,3.6c-2.7,0.4-5.3,0.6-7.8,0.7
			c-2.9,0.1-5.7,0-8.1-0.2l-1-12.4L200.4,51.8z"/>
		<path class="st2" d="M193.3,58.4l0.6,10.8c-3.6,1.5-8.1,2.8-13.7,3.6c-2.7,0.4-5.3,0.6-7.8,0.7l-1.3-11.9L193.3,58.4z"/>
		<g>
			<path class="st3" d="M146.7,63.2c-0.4-0.7-0.3-1.7,0.2-2.3c3.7-4.2,18-8.9,25.2-10.8c7.7-2.1,18.2-9.3,21.8-11.7
				c3.7-2.5,9-4,11.1,0.2s5,15.8-7.5,23.2C185.9,68.7,150.9,69.9,146.7,63.2z"/>
			<path class="st4" d="M166.6,68.1c-9.9,0-18.4-1.5-20.4-4.6l0,0c-0.6-0.9-0.5-2.1,0.2-2.9c3.8-4.3,18.3-9.1,25.5-11
				c7.4-2,17.5-8.8,21.3-11.4l0.4-0.2c3.1-2.1,6.3-2.9,8.6-2.3c1.5,0.4,2.6,1.3,3.3,2.7c2.8,5.6,4.3,16.8-7.7,23.9
				C191.3,66.1,178.1,68.1,166.6,68.1z M200.7,36.5c-2.2,0-4.7,1.1-6.4,2.3l-0.4,0.2c-3.9,2.6-14.1,9.6-21.6,11.6
				c-7.1,1.9-21.4,6.6-25,10.7c-0.4,0.5-0.5,1.2-0.1,1.7l0,0c4,6.3,38.7,5.2,50.2-1.6c11.3-6.7,9.9-17.3,7.3-22.5
				c-0.6-1.1-1.5-1.9-2.6-2.2C201.6,36.5,201.1,36.5,200.7,36.5z"/>
		</g>
		<path class="st5" d="M152.4,61.9c0,0,1.1-0.9,2-0.9c1,0,2.5,0.5,2.4,0.9s-0.6,1.3-1.8,1.4c-1.2,0.1-2.3,0-2.6-0.3
			C152.2,62.9,152.3,62.2,152.4,61.9z"/>
		<path class="st5" d="M156.8,59.6c0.5-0.2,1.3-0.4,1.8-0.1c0.5,0.3,0.6,0.9,0.1,1s-1.9-0.1-1.9-0.1S156.5,59.8,156.8,59.6z"/>
		<path class="st5" d="M160,61.9c0.6-0.3,1.2-0.2,1.1,0.2c-0.1,0.3-0.2,0.5-0.7,0.6C159.9,62.7,159.7,62,160,61.9z"/>
		<path class="st5" d="M187.6,48c0.9-0.2,2.3,0.5,1.9,1c-0.3,0.5-1.4,1.2-2.1,1c-0.8-0.2-1.2-0.7-1-1.1
			C186.6,48.5,187,48.1,187.6,48z"/>
		<path class="st5" d="M200,43.4c1.3-0.5,2.7,0.1,2.7,0.7c0,0.6-0.7,1.6-1.5,1.8c-0.9,0.2-2.2-0.1-2.3-0.8
			C198.9,44.4,199.6,43.5,200,43.4z"/>
		<path class="st5" d="M201.6,40.8c1-0.2,1.5,0.7,1.1,1s-1.7,0.7-2,0.4C200.5,42,201,40.9,201.6,40.8z"/>
		<path class="st5" d="M194.5,41.7c0,0,0.7-0.5,1.4-0.2s0.3,0.7-0.3,0.9C195.1,42.6,193.9,42.3,194.5,41.7z"/>
		<path class="st5" d="M165.8,56.2c0.9-0.5,2.1-0.3,2.2,0.2c0.1,0.5-0.5,1.2-1.1,1.3C166.3,57.7,164.8,56.7,165.8,56.2z"/>
		<path class="st5" d="M170,55.2c0.1-0.3,0.9-0.9,1.5-0.6s0.7,0.5,0.1,0.8C170.9,55.7,169.9,55.6,170,55.2z"/>
		<path class="st5" d="M176.8,59.5c0.5-0.4,1.5-0.3,1.6,0c0,0.3-0.4,0.9-0.9,0.9C176.9,60.4,176.3,59.9,176.8,59.5z"/>
		<path class="st5" d="M180.7,61.2c0.6-0.3,1.2-0.2,1.2,0s-0.2,0.6-0.8,0.7C180.4,61.9,180.2,61.5,180.7,61.2z"/>
		<path class="st5" d="M193.4,56.7c0.9,0.1,0.5,0.7,0.1,0.8c-0.4,0.2-1.4,0.2-1.4-0.1C192,57.1,192.4,56.6,193.4,56.7z"/>
	</g>
</g>
<g>
	<path class="st0" d="M98.4,76.3c0,15-22,21.3-49.2,21.3S0,91.3,0,76.3c0-5.8,3.3-12,8.9-17.5l0,0c1.4-1.4,3.3-2.1,5.2-2.2
		c0.2,0,0.5,0,0.7,0c1.1-3,3.8-5.1,3.8-5.1c3.7-2.2,7-4.1,12-5.4c3.3-0.7,6.8-0.1,6.8-0.1c1-1.4,3.4-1.9,4-2h0.1l0,0
		c2.5-0.3,5-0.5,7.6-0.5c0.8,0,1.6,0,2.4,0l0,0h0.1c0.6,0,3.1,0.3,4.8,1.6c0.3-0.1,0.6-0.2,0.8-0.2c0.9-0.2,2.4-0.4,4.5,0
		c4.6,1,8.9,2.4,12.9,4.2l0,0l0,0l0,0c0.1,0,0.1,0.1,0.2,0.1h0.1c0.8,0.4,2.6,1.5,3.9,3.9l0,0l0,0c0.1,0,2.6-0.2,5.7,1.8
		c1.7,1.3,3.3,2.6,4.7,4l0,0l0,0C95.1,64.3,98.4,70.5,98.4,76.3z"/>
	<path class="st0" d="M89.5,58.9L89.5,58.9L89.5,58.9z"/>
	<path class="st1" d="M98.4,76.3c0,15-22,21.3-49.2,21.3S0,91.3,0,76.3c0-5.8,3.3-12,8.9-17.5C8.7,59.3-11.1,91,49.2,91
		s40.6-31.8,40.3-32.2C95.1,64.3,98.4,70.5,98.4,76.3z"/>
	<path class="st2" d="M82.7,65.2c0,8.6-15,15-33.5,15s-33.5-6.4-33.5-15s15-18.8,33.5-18.8C67.7,46.4,82.7,56.6,82.7,65.2z"/>
	<path class="st1" d="M79.1,53.1c-3.1,0.8-7.1,2.1-11.5,4.2c-0.6,0.3-1.2,0.6-1.8,0.9c-3.7,2-7.7,4.6-11.7,8c-0.5,0.4-1,0.8-1.5,1.3
		c-3.4,3-6.9,6.7-10.2,11.1c2.7-4.7,5.5-8.7,8.5-12.1c0.5-0.5,0.9-1.1,1.4-1.6c3.4-3.7,6.8-6.6,10-9c0.6-0.4,1.2-0.9,1.8-1.2
		c4.2-2.8,8-4.6,10.8-5.7l0,0l0,0l0,0c0.1,0,0.1,0.1,0.2,0.1h0.1C75.9,49.6,77.8,50.7,79.1,53.1z"/>
	<path class="st1" d="M64.9,77.5c-3.9-4-8.1-7.3-12.3-9.9c-0.6-0.4-1.2-0.7-1.8-1.1c-6.5-3.8-13.1-6.2-19.1-7.6
		c-0.5-0.1-0.9-0.2-1.4-0.3c-6-1.3-11.4-1.8-15.5-1.8c1.1-3,3.8-5.1,3.8-5.1c4.1,0.8,9.4,2.1,15,4.1c0.5,0.2,1,0.4,1.6,0.6
		c5.6,2.1,11.5,4.9,17,8.7c0.6,0.4,1.2,0.9,1.9,1.4C58.2,69.4,61.9,73.1,64.9,77.5z"/>
	<path class="st1" d="M82.2,72.9C76.6,66.8,71.1,62,65.7,58.3c-1.2-0.8-2.4-1.6-3.5-2.3C57,52.7,52,50.4,47.5,48.8
		c-1.1-0.4-2.1-0.7-3.1-1c-2.6-0.8-4.9-1.4-7-1.8c1-1.4,3.4-1.9,4-2h0.1l0,0c1.7,0.5,3.7,1.2,5.8,2c1.1,0.4,2.2,0.9,3.4,1.4
		c4.2,1.8,8.7,4.2,13.3,7.4c1.2,0.8,2.4,1.7,3.6,2.6C72.8,61.4,77.8,66.5,82.2,72.9z"/>
	<path class="st1" d="M56.6,45.1c-1.7,0.6-3.7,1.3-5.9,2.2c-1,0.4-2.1,0.9-3.2,1.5c-3.7,1.8-7.9,4.2-12.3,7.4
		c-1.1,0.8-2.3,1.7-3.5,2.6c-4.7,3.7-9.6,8.1-14.5,13.7c4.2-5.4,8.7-10.1,13.1-14c1.1-1,2.2-2,3.3-2.9c3.8-3.2,7.5-5.8,10.8-7.9l0,0
		c1-0.7,2-1.3,2.9-1.8c1.6-1,3-1.8,4.2-2.4l0,0h0.1C52.4,43.6,54.9,43.8,56.6,45.1z"/>
</g>
<g>
	<g>
		<path class="st3" d="M160.6,115.4c-1.1,0-2.3,0-3.6-0.1c-6.7-0.5-16.3-1-21.5-1.3c-1.5-0.1-3-0.1-4.4-0.1c-1.5,0-3,0-4.4,0.1
			c-5.2,0.3-14.8,0.8-21.5,1.3c-1.2,0.1-2.4,0.1-3.6,0.1c-5.3,0-9.2-1.1-10.8-3.1c-0.9-1-1.2-2.3-1-3.8c0.7-4.3,7.6-13.2,20.4-18.7
			c6.6-2.9,13.7-4.3,20.9-4.3c7.3,0,14.3,1.5,20.9,4.3c12.8,5.5,19.7,14.4,20.4,18.7c0.2,1.5-0.1,2.8-1,3.8
			C169.8,114.3,165.9,115.4,160.6,115.4C160.6,115.4,160.6,115.4,160.6,115.4z"/>
		<g>
			<path class="st4" d="M131.1,86.1c7.2,0,14.1,1.4,20.7,4.3c13.8,5.9,19.5,15,20,18.2c0.2,1.4-0.1,2.5-0.8,3.4
				c-1.6,1.9-5.3,2.9-10.4,2.9c-1.1,0-2.3,0-3.5-0.1c-6.6-0.5-16.3-1-21.5-1.3c-1.5-0.1-3-0.1-4.5-0.1c-1.5,0-3,0-4.5,0.1
				c-5.2,0.3-14.9,0.8-21.5,1.3c-1.2,0.1-2.4,0.1-3.5,0.1c-5.1,0-8.8-1-10.4-2.9c-0.8-0.9-1-2-0.8-3.4c0.5-3.2,6.3-12.3,20-18.2
				C117,87.5,123.9,86.1,131.1,86.1L131.1,86.1z M131.1,84.9c-7.2,0-14.4,1.5-21.2,4.4c-13.3,5.7-20.1,14.9-20.7,19.1
				c-0.8,5.3,4.6,7.6,12.4,7.6c1.2,0,2.4-0.1,3.6-0.1c6.5-0.5,16-1,21.5-1.3c1.5-0.1,2.9-0.1,4.4-0.1c1.5,0,2.9,0,4.4,0.1
				c5.5,0.3,14.9,0.8,21.5,1.3c1.2,0.1,2.5,0.1,3.6,0.1c7.8,0,13.2-2.3,12.4-7.6c-0.7-4.2-7.4-13.4-20.7-19.1
				C145.5,86.4,138.3,84.9,131.1,84.9L131.1,84.9z"/>
		</g>
	</g>
	<path class="st5" d="M97.9,106.7c0,0,1.3-1.5,2.4-1.4c1.1,0.1,2.8,1.4,2.7,2.2c-0.1,0.8-0.8,2.5-2.2,2.5c-1.4,0-2.7-0.4-2.9-0.9
		C97.7,108.6,97.8,107.3,97.9,106.7z"/>
	<path class="st5" d="M103.1,102.8c0.6-0.4,1.5-0.6,2,0s0.6,1.8,0,1.9s-2.2-0.5-2.2-0.5S102.7,103.1,103.1,102.8z"/>
	<path class="st5" d="M106.7,107.8c0.7-0.5,1.4-0.1,1.3,0.5c-0.1,0.6-0.3,1-0.9,1S106.3,108,106.7,107.8z"/>
	<path class="st5" d="M140.3,88.8c1-0.2,2.5,1.4,2.2,2.3c-0.4,0.9-1.6,2.2-2.5,1.6c-0.9-0.5-1.3-1.5-1-2.3
		C139.2,89.7,139.7,88.9,140.3,88.8z"/>
	<path class="st5" d="M159.7,105c1.5-0.7,3,0.6,3,1.8c0,1.1-0.9,3-1.9,3.3c-1,0.3-2.5-0.6-2.5-1.9
		C158.4,106.9,159.2,105.2,159.7,105z"/>
	<path class="st5" d="M161.8,100.3c1.1-0.2,1.6,1.6,1.1,2.2c-0.5,0.5-2,1.1-2.3,0.5S161,100.4,161.8,100.3z"/>
	<path class="st5" d="M153.5,100.9c0,0,0.9-0.9,1.6-0.1c0.8,0.8,0.3,1.4-0.4,1.6C154.2,102.7,152.8,101.9,153.5,100.9z"/>
	<path class="st5" d="M114.9,95.5c1.1-0.8,2.4-0.3,2.5,0.8c0.1,1-0.6,2.3-1.4,2.3S113.6,96.4,114.9,95.5z"/>
	<path class="st5" d="M119.7,94.2c0.1-0.6,1.1-1.5,1.8-1c0.6,0.5,0.8,1,0,1.5C120.7,95.2,119.6,95,119.7,94.2z"/>
	<path class="st5" d="M127.2,103.7c0.6-0.6,1.8-0.3,1.8,0.3c0,0.5-0.5,1.6-1.1,1.5C127.2,105.3,126.6,104.3,127.2,103.7z"/>
	<path class="st5" d="M131.6,107.6c0.7-0.6,1.4-0.3,1.4,0.1s-0.3,1.1-1,1.1C131.2,108.9,130.9,108.1,131.6,107.6z"/>
	<path class="st5" d="M146.3,106.7c1,0.3,0.5,1.4,0,1.6c-0.5,0.3-1.6,0.1-1.6-0.5C144.7,107.2,145.2,106.3,146.3,106.7z"/>
</g>
</svg>
