<svg width="474" height="291" xmlns="http://www.w3.org/2000/svg" xml:space="preserve" version="1.1">

 <g>
  <title>Layer 1</title>
  <path id="svg_5" fill="#E0D7D4" clip-rule="evenodd" fill-rule="evenodd" d="m324.7,42.39609l130.4,-41.7c7.1,-2.3 14.7,1.3 17.5,8.1s-0.2,14.5 -6.7,18.1l-122.8,69.6l-18.4,-54.1z" class="st3"/>
  <polygon id="svg_6" fill="#342E2A" clip-rule="evenodd" fill-rule="evenodd" points="272.5,45.99609375 322.20001220703125,35.69609451293945 363.70001220703125,70.29609680175781 342.29998779296875,121.69609069824219 " class="st4"/>
  <path id="svg_7" fill="#D55527" clip-rule="evenodd" fill-rule="evenodd" d="m4.6,165.69609l10.6,27.3c14.5,37.6 44.2,67.3 81.8,81.8c24.2,9.3 49.6,14.7 75.1,16c25.5,-1.3 50.9,-6.7 75.1,-16c37.6,-14.5 67.3,-44.2 81.8,-81.8l10.6,-27.4c-222,36.9 -113,36.9 -335,0.1z" class="st5"/>
  <path id="svg_8" fill="#7D706A" clip-rule="evenodd" fill-rule="evenodd" d="m172.1,216.89609c79.8,0 144.9,-41.3 144.9,-91.9s-65.1,-91.9 -144.9,-91.9c-79.9,0 -145,41.3 -145,91.9s65.1,91.9 145,91.9z" class="st6"/>
  <path id="svg_9" fill="#4E4542" clip-rule="evenodd" fill-rule="evenodd" d="m292.2,176.49609c-26.1,24.4 -70.1,40.5 -120.1,40.5s-94.1,-16.1 -120.1,-40.5c-0.8,-3.5 -1.2,-7.1 -1.2,-10.8c0,-42.5 54.3,-76.9 121.3,-76.9s121.3,34.4 121.3,76.9c0,3.6 -0.4,7.2 -1.2,10.8z" class="st7"/>
  <path id="svg_11" fill="#E0D7D4" clip-rule="evenodd" fill-rule="evenodd" d="m172,21.89609c-95,0 -172,52.4 -172,117.1s77,117.1 172,117.1s172,-52.4 172,-117.1c0.1,-64.7 -76.9,-117.1 -172,-117.1zm0,195.4c-79.8,0 -144.9,-41.3 -144.9,-91.9s65.1,-91.9 144.9,-91.9s144.9,41.3 144.9,91.9c0.1,50.6 -65,91.9 -144.9,91.9z" class="st3"/>
 </g>
</svg>