<svg xmlns="http://www.w3.org/2000/svg" xmlns:xlink="http://www.w3.org/1999/xlink" xml:space="preserve" version="1.1" style="shape-rendering:geometricPrecision;text-rendering:geometricPrecision;image-rendering:optimizeQuality;" viewBox="0 0 300 297.5" x="0px" y="0px" fill-rule="evenodd" clip-rule="evenodd"><defs><style type="text/css">
   
    .fil0 {fill:black}
    .fil1 {fill:black;fill-rule:nonzero}
   
  </style></defs><g><polygon class="fil0" points="32,166 46,183 67,175 54,193 68,210 47,204 34,223 34,201 12,196 33,188 "/><path class="fil1" d="M183 135l-98 87c-55,48 -119,-24 -63,-73l99 -87 4 5 -99 87c-50,43 6,106 55,63l98 -87 4 5z"/><polygon class="fil1" points="107,107 45,161 41,156 103,102 "/><polygon class="fil1" points="225,5 140,80 135,75 221,0 "/><polygon class="fil1" points="164,81 97,140 93,135 160,76 "/><polygon class="fil1" points="277,7 177,94 173,89 273,2 "/><polygon class="fil1" points="146,124 84,179 79,175 142,119 "/><polygon class="fil1" points="300,33 237,88 233,84 296,28 "/><polygon class="fil1" points="211,89 151,141 146,136 207,84 "/><polygon class="fil1" points="175,10 128,52 123,47 171,5 "/></g><text x="0" y="253" fill="#000000" font-size="5px" font-weight="bold" font-family="'Helvetica Neue', Helvetica, Arial-Unicode, Arial, Sans-serif">Created by OneShoot</text><text x="0" y="258" fill="#000000" font-size="5px" font-weight="bold" font-family="'Helvetica Neue', Helvetica, Arial-Unicode, Arial, Sans-serif">from the Noun Project</text></svg>