<?xml version="1.0" encoding="utf-8"?>
<!-- Generator: Adobe Illustrator 25.0.0, SVG Export Plug-In . SVG Version: 6.00 Build 0)  -->
<svg version="1.1" id="publicdomainvectors.org" xmlns="http://www.w3.org/2000/svg" xmlns:xlink="http://www.w3.org/1999/xlink"
	 x="0px" y="0px" viewBox="0 0 202.1 155.3" style="enable-background:new 0 0 202.1 155.3;" xml:space="preserve">
<style type="text/css">
	.st0{fill-rule:evenodd;clip-rule:evenodd;fill:#A15D38;}
	.st1{fill-rule:evenodd;clip-rule:evenodd;fill:#B56E47;}
	.st2{fill-rule:evenodd;clip-rule:evenodd;fill:#CCAB98;}
	.st3{fill-rule:evenodd;clip-rule:evenodd;fill:#FEE6D9;}
	.st4{fill-rule:evenodd;clip-rule:evenodd;fill:#DDC3B4;}
</style>
<path class="st0" d="M86.3,149.8c10,5.9,23,7.2,34.4,3.3c11.4-3.8,19.6-12.2,21.8-22.2c1.9-8.9,11.8-15,22.6-14.2
	c18.1,1.4,34.3-9.2,36.7-24c0.3-1.6,0.4-3.2,0.3-4.8h0V55h-27.5v6.5c-0.1,0-0.3,0-0.4-0.1c-21.2-3.1-41.3-10.1-58.9-20.5
	c-12.5-7.4-28.8-9-43-4.2C58.1,41.5,47.8,52,45.1,64.6c-1.8,8.1-6.6,15.4-13.7,21v-5.2H0v35c-0.1,0.9-0.1,1.8,0,2.7
	c0.7,10.8,9.3,20.3,21.8,23.7c6.5,1.8,13.3,1.8,19.6,0.2c13.6-3.4,26.9-1.9,38.9,4.5L86.3,149.8z"/>
<path class="st1" d="M96.2,153.9c6,1.6,12.3,1.8,18.5,0.7V104H96.2V153.9L96.2,153.9z M170.7,116.8c4.5-0.3,8.9-1.3,12.8-2.9V60.8
	h-8.8v0.6c-0.1,0-0.3,0-0.4-0.1c-1.2-0.2-2.4-0.4-3.6-0.6h0V116.8L170.7,116.8z M30.1,143.1c3.8,0.2,7.6-0.2,11.3-1.1
	c4.9-1.2,9.8-1.8,14.6-1.8V94.7H30.1V143.1z"/>
<path class="st2" d="M86.3,115.8c10,5.9,23,7.2,34.4,3.3c11.4-3.8,19.6-12.2,21.8-22.2c1.9-8.9,11.8-15,22.6-14.2
	c18.1,1.4,34.3-9.2,36.7-24c2.5-14.9-9.7-28.7-27.5-31.3c-21.2-3.1-41.3-10.1-58.9-20.5c-12.5-7.4-28.8-9-43-4.2
	C58.1,7.6,47.8,18.1,45.1,30.6C42.4,43,32.6,53.4,18.7,58.6C6.8,63.2-0.6,73.2,0,84.1c0.7,10.9,9.3,20.3,21.8,23.7
	c6.5,1.8,13.3,1.8,19.6,0.2c13.6-3.4,26.9-1.9,38.9,4.5L86.3,115.8z"/>
<path class="st0" d="M88.4,109.2c9.3,5.5,21.1,6.3,31,3c7.4-2.5,16.4-8.5,18.5-18.2c1.4-6.5,5.5-11.3,10.4-14.4
	c5.2-3.3,11.3-4.5,17.2-4.1c7.3,0.6,15.2-1,21.6-5.2c4.6-3,9.1-7.8,10.1-14.2c0.3-1.6,0.3-3.3,0.1-5c-0.7-5-3.6-9.2-7-12.2
	c-4.7-4.2-10.7-6.5-16.6-7.4c-20.8-3.1-41.5-9.9-60.4-21c-11.9-7-27-8.1-39.7-3.8c-9.7,3.3-21.2,11.1-23.9,23.8
	C46.1,47.1,33,57.8,20.2,62.6c-7,2.6-16,9.4-15.4,19.6c0.6,10.3,10.7,16.5,18.1,18.6c5.7,1.6,11.8,1.6,17.5,0.2
	c14.1-3.6,28.6-2.2,41.8,4.9L88.4,109.2L88.4,109.2z"/>
<path class="st2" d="M75.6,44.7l0.6-4.9c0.1-0.9-0.2-1.8-0.7-2.6c-0.7-1-1.8-1.9-3.2-2.5c-1.5-0.7-3.2-1-4.8-0.9
	c-1.7,0.1-3.3,0.5-4.7,1.2c-2.5,1.3-5.3,2-8.2,1.9c-2.8,0-5.6-0.7-8.1-2.2l1.5-3.8c2,1.1,4.3,1.7,6.6,1.7c2.4,0,4.7-0.5,6.7-1.6
	c1.8-1,3.9-1.5,6-1.6c2.1-0.1,4.3,0.3,6.2,1.2c2,0.9,3.6,2.2,4.7,3.8c1.2,1.7,1.7,3.8,1.5,5.9L79,45.2L75.6,44.7L75.6,44.7z
	 M113.5,46.1l10.6-0.6c1-0.1,1.9-0.4,2.7-1c0.8-0.6,1.5-1.4,2-2.4l0,0c0.5-1,0.7-2.1,0.8-3.3c0-1.1-0.2-2.3-0.6-3.3
	c-0.8-1.8-1.1-3.7-1.1-5.7c0-2,0.5-3.9,1.3-5.6l0,0c0.8-1.7,2.2-3.2,3.8-4.2c1.7-1.1,3.6-1.8,5.3-1.9l0.2,4.2
	c-1.2,0.1-2.6,0.6-3.8,1.4c-1.1,0.7-2,1.6-2.5,2.6v0c-0.5,1.1-0.8,2.4-0.8,3.6c0,1.2,0.2,2.5,0.7,3.6c0.7,1.7,1.1,3.5,1,5.3
	c0,1.8-0.4,3.7-1.2,5.3v0c-0.8,1.6-1.9,3-3.2,3.9c-1.3,1-2.8,1.5-4.4,1.6l-10.6,0.6L113.5,46.1L113.5,46.1z M111.8,63.8l2.5,5
	c0.5,0.9,1.2,1.7,2,2.4c0.9,0.7,2,1.2,3.3,1.5c1.3,0.3,2.6,0.3,3.8,0.1c1.2-0.2,2.4-0.6,3.4-1.3c2.1-1.4,4.5-2.3,7-2.7
	c2.5-0.4,5.1-0.3,7.6,0.3c2.5,0.6,4.8,1.7,6.8,3.2c2,1.5,3.6,3.4,4.8,5.7l-3,2.2c-0.8-1.7-2.1-3.1-3.6-4.3c-1.6-1.2-3.5-2.1-5.6-2.6
	c-2.1-0.5-4.3-0.6-6.4-0.2c-2.1,0.3-4.1,1.1-5.8,2.2c-1.4,0.9-3,1.5-4.6,1.8c-1.6,0.3-3.3,0.2-4.9-0.2c-1.7-0.4-3.2-1.1-4.5-2.1
	c-1.3-1-2.4-2.3-3.2-3.8l-2.5-5L111.8,63.8L111.8,63.8z M87.4,69.2l-10.1,2.4c-1,0.2-2,0.7-2.8,1.3c-0.8,0.6-1.5,1.3-2,2.2
	c-0.5,0.8-0.8,1.7-0.9,2.6c-0.1,0.9,0,1.8,0.2,2.6c0.8,2.5,1,5,0.7,7.5c-0.3,2.5-1.1,4.9-2.4,7.1c-1.2,2.1-2.8,3.8-4.6,5.3
	c-2,1.6-4.2,2.9-6.6,4l-1.2-4c2.2-0.9,4.2-2.1,5.9-3.5c1.5-1.2,2.8-2.6,3.7-4.3c1-1.6,1.6-3.4,1.8-5.3v0c0.2-1.8,0.1-3.7-0.5-5.5
	c-0.5-1.5-0.6-3.1-0.4-4.7c0.2-1.6,0.7-3.1,1.5-4.4c0.8-1.3,1.8-2.4,3-3.3c1.2-0.9,2.5-1.5,4-1.8l7.3-1.7L87.4,69.2z"/>
<path class="st3" d="M93.8,70.7c14.2,0,25.7-7.3,25.7-16.1c0-8.9-11.5-16.1-25.7-16.1c-14.2,0-25.7,7.3-25.7,16.1
	C68.1,63.4,79.7,70.7,93.8,70.7z"/>
<path class="st4" d="M93.8,64.9c9.1,0,16.5-4.6,16.5-10.3c0-5.7-7.4-10.3-16.5-10.3c-9.1,0-16.5,4.6-16.5,10.3
	C77.4,60.2,84.8,64.9,93.8,64.9z"/>
<path class="st2" d="M93.8,44.2c3.5,0,6.7,0.7,9.4,1.8c-10.6,0.3-19.1,6.1-19.1,13.2c0,1.4,0.3,2.8,0.9,4c-4.6-1.8-7.7-5.1-7.7-8.7
	C77.4,48.8,84.7,44.2,93.8,44.2z"/>
</svg>
