<?xml version="1.0" encoding="utf-8"?>
<!-- Generator: Adobe Illustrator 25.0.0, SVG Export Plug-In . SVG Version: 6.00 Build 0)  -->
<svg version="1.1"
	 id="svg4165" inkscape:version="0.91 r13725" sodipodi:docname="MilkCan.svg" xmlns:cc="http://creativecommons.org/ns#" xmlns:dc="http://purl.org/dc/elements/1.1/" xmlns:inkscape="http://www.inkscape.org/namespaces/inkscape" xmlns:rdf="http://www.w3.org/1999/02/22-rdf-syntax-ns#" xmlns:sodipodi="http://sodipodi.sourceforge.net/DTD/sodipodi-0.dtd" xmlns:svg="http://www.w3.org/2000/svg"
	 xmlns="http://www.w3.org/2000/svg" xmlns:xlink="http://www.w3.org/1999/xlink" x="0px" y="0px" viewBox="0 0 99.1 181.5"
	 style="enable-background:new 0 0 99.1 181.5;" xml:space="preserve">
<style type="text/css">
	.st0{fill:#AEAEAE;}
	.st1{fill:#FFFFFF;}
	.st2{fill:#FFFFFF;stroke:#000000;stroke-width:0.75;stroke-miterlimit:10;}
	.st3{fill:#020202;}
	.st4{clip-path:url(#SVGID_2_);fill:url(#SVGID_3_);}
	.st5{fill:#DEAA87;stroke:#080505;stroke-width:0.5;stroke-miterlimit:10;}
	.st6{fill:#502D16;stroke:#080505;stroke-width:0.5;stroke-miterlimit:10;}
	.st7{opacity:0.9959;fill:#FFFFFF;stroke:#080505;stroke-width:0.5;stroke-miterlimit:10;enable-background:new    ;}
	.st8{opacity:0.9959;fill:#DEAA87;stroke:#080505;stroke-width:0.5;stroke-miterlimit:10;enable-background:new    ;}
	.st9{opacity:0.9959;stroke:#080505;stroke-width:0.5;stroke-miterlimit:10;enable-background:new    ;}
</style>
<sodipodi:namedview  bordercolor="#666666" borderopacity="1" gridtolerance="10" guidetolerance="10" id="namedview4167" inkscape:current-layer="svg4165" inkscape:cx="50.15625" inkscape:cy="90.9375" inkscape:pageopacity="0" inkscape:pageshadow="2" inkscape:window-height="837" inkscape:window-maximized="1" inkscape:window-width="1600" inkscape:window-x="-8" inkscape:window-y="-8" inkscape:zoom="3.6838488" objecttolerance="10" pagecolor="#ffffff" showgrid="false">
	</sodipodi:namedview>
<path class="st0" d="M34.9,180.4c-23.7-3.6-37.1-13.9-33.6-26.1c1.3-4.6,1.5-11.7,1.4-52.4L2.5,54.9l2.3-2.3
	c3.8-3.8,4.9-7.4,3.1-9.9c-2-2.8-2-2.7,1.5-6.6l3-3.4l3.7,1.4c2.1,0.8,5.3,1.7,7.2,1.9s3.7,0.8,4,1.3c1.4,2.3,2.3,0.2,2.1-5.5
	l-0.2-6.3L28.9,31l-0.6,5.6l-0.4-5.5c-2-4.2-2.1-5.6-1.6-6c1-0.8,5.5,1.9,6.9,6c1.7,5-2,9.6-2.4,10.1c-2.1-1.9-4.1-3.7-6.2-5.6
	l-0.2-6.2c-0.2-5.5-0.5-6.4-2.5-7.7C2.4,8.9,22.6-2.5,59.6,0.5C90.4,3,99.5,12.2,81.2,22.4c-3.1,1.7-4.3,3-4.5,4.8
	c-0.3,2.4-0.2,2.5,1.9,1c2.6-1.7,7.2-0.6,10.7,2.6c1.2,1,2.1,1.5,2.1,1.1s1.1,0.2,2.3,1.4c2.8,2.7,2.9,4.2,0.4,8.3
	c-2.3,3.7-0.5,9.8,3.9,13.3c1.3,1.1,1.8,6.4,0.7,9c-0.8,1.9-1.2,16.9-1.4,51.3c-0.2,26.7-0.5,49.3-0.8,50.3
	c-0.5,1.7-9.9,9.4-11.4,9.4c0,0-1.7,0.8-3.5,1.5C71.7,179.9,38.1,180.4,34.9,180.4z"/>
<path d="M73.7,15.6c-0.3,0.5-1.3,0.9-2.3,0.9s-2,0.4-2.3,0.9c-1,1.7,5.6,1,9.7-1c5-2.4,5-3.1-0.1-2.4c-3.2,0.4-3.5,0.4-1.3-0.3
	c7.2-2.3,5.5-7.6-2.4-7.5c-1.9,0-1.7,0.2,0.9,1.4c3.8,1.7,4,2.5,0.2,1.4c-3.3-0.9-3.8-0.3-0.7,0.9c2.1,0.8,2.1,0.8-0.2,0.9
	c-3.9,0.1-6.9,1.2-5.6,2c1.3,0.8-9.6,2.2-13.2,1.7c-1.8-0.3-0.9-0.8,3.8-2.6c9.5-3.6,12.5-6.9,4.6-5.2c-2,0.4-3.2,0.2-4-0.8
	c-1-1.2-2.6-0.9-13.3,2.7c-9,3-12.7,3.9-14.1,3.2c-1-0.5-2.7-1.1-3.8-1.3C28,10.2,28.1,10.1,30,10c1.2-0.1,2.1-0.5,2.1-0.9
	c0-0.5-1.4-0.5-3.3-0.1c-4.1,0.9-4.2,0.3-0.2-1.5l3-1.4l-3.9,0.3c-9.8,0.7-7.8,5.4,3,6.9c2.1,0.3,4.4,1,5.1,1.6
	C37,16,60,16.2,69.8,15.2C72.5,14.9,74.1,15.1,73.7,15.6z M52.1,11.7c-4.1,1.5-8,2.4-8.6,2c-0.7-0.4,2.3-1.9,7.3-3.6
	c4.9-1.7,8.7-2.6,9-2C60.1,8.6,60.1,9,60,9C59.8,9,56.2,10.2,52.1,11.7z"/>
<path d="M24.2,14.5c-2-1-3.8-1.7-4.1-1.4s0.9,1.1,2.7,1.9C27.5,17,28.4,16.7,24.2,14.5z"/>
<path d="M94.2,163.7c-0.5,0-1.5,0.6-2.1,1.4c-1.8,2.2-10.2,7.1-10.7,6.2c-0.3-0.4,1.5-1.9,4-3.2c2.4-1.3,5.5-3.6,6.8-5
	c2.1-2.3,1.8-2.2-2.4,0.8c-7.3,5.2-12.2,7.3-23.4,10.2c-5.7,1.5-9.6,2.7-8.6,2.7c1.5,0,13.2-2.7,18.8-4.3c1-0.3,1.5-0.1,1.2,0.4
	c-0.6,1-1,1.1-12.8,3.8c-4.7,1.1-6.8,1.9-5.1,1.9c5.1,0.1,22.5-5.3,27.8-8.7C92.7,166.6,95.8,163.7,94.2,163.7z"/>
<path d="M39.6,6.7c0-1.5-3.2-2.8-4.6-2c-0.5,0.3-0.7,1.2-0.4,1.9C35.2,8.4,39.6,8.5,39.6,6.7z"/>
<path d="M17.2,65.7c3.8,1.2,7,2.3,7.2,2.3c3.1,0.6-1.5-1.9-5.9-3.1c-3.4-1-6.3-2.1-6.6-2.6c-0.3-0.4-1.2-0.8-2-0.8
	C6.8,61.5,10.2,63.5,17.2,65.7z"/>
<path d="M61.8,111.9c0.2-4.5,0.2-11.9,0-16.4c-0.2-4.5-0.3-0.8-0.3,8.2S61.7,116.4,61.8,111.9z"/>
<path d="M26.9,121.5c0,13.7,0.1,19.3,0.3,12.4s0.2-18,0-24.8S26.9,107.8,26.9,121.5z"/>
<path d="M34.6,45.2c-1.7-0.4-2.4-0.3-2.1,0.3c0.3,0.5,1.7,1,3,1C38.5,46.5,38.2,46,34.6,45.2z"/>
<path d="M17.2,59.6c4.4,1.6,10.3,2.6,9.2,1.5c-0.2-0.2-2.9-1-6-1.8c-3.1-0.8-6.5-1.7-7.5-2.1s-1.6-0.4-1.3,0
	C11.9,57.5,14.4,58.6,17.2,59.6z"/>
<path d="M61.8,125.9c0.2-0.9,0.2-2.4,0-3.3s-0.4-0.2-0.4,1.6S61.5,126.8,61.8,125.9z"/>
<path d="M97.8,54.9c-4.4-3.5-6.2-9.6-3.9-13.3c2.5-4.1,2.4-5.6-0.4-8.3c-1.3-1.2-2.3-1.8-2.3-1.4c0,0.4-0.9-0.1-2.1-1.1
	c-3.6-3.2-8.1-4.3-10.8-2.6c-2.2,1.4-2.2,1.4-2-1c0.2-1.9,1.4-3.1,4.5-4.8C99.2,12.2,90,2.9,59.2,0.5C22-2.5,1.7,8.9,21.3,21.7
	c2,1.3,2.3,2.3,2.5,7.7l0.2,6.2l0.3-5.5c0.5-7.2,2.4-6.7,3,0.8l0.4,5.6l0.6-5.6l0.6-5.6l0.2,6.3c0.1,5.7-0.7,7.8-2.1,5.5
	c-0.3-0.5-2.1-1-4-1.3c-1.9-0.3-5.2-1.1-7.3-1.9l-3.6-1.4c-0.1,0-0.2,0-0.3,0l-2.9,3.3c-3.5,3.9-3.5,3.8-1.5,6.6
	c1.8,2.6,0.7,6.2-3.1,10l-2.3,2.3L2,102c0.1,40.8-0.1,47.9-1.4,52.5c-3.5,12.2,9.9,22.5,33.8,26.1c15,2.3,39,0.1,47-4.1
	c1.5-0.8,3.1-1.5,3.6-1.5c1.5,0,10.9-7.7,11.4-9.4c0.1-0.3,0.2-2.2,0.3-5.4c0,0.3-0.1,0.7-0.2,1.1c-1.2,6.4-12.9,14.2-26.3,17.5v0
	c-5.5,1.4-25,1.9-32.3,0.9c-9.4-1.3-28.1-7.2-23.3-7.4c3.2-0.1,2.6-1.9-1.3-3.9c-2.2-1.1-5-2.9-6.3-4c-1.8-1.6-2.2-1.7-1.7-0.4
	c0.3,0.9,0.2,1.8-0.3,2.1c-1.3,0.8-3.8-3.4-3.8-6.4v-2.7l3.7,3.3c19.4,17.6,67.9,17.5,87.5-0.2c2.7-2.4,4-3.1,4.3-2
	c0.2-9,0.4-25,0.5-42.8c0.2-34.4,0.6-49.4,1.4-51.3C99.6,61.3,99.1,56,97.8,54.9z M9.6,169.8c1.5,0.8,2.8,1.7,2.8,1.9
	c0,0.6-0.1,0.6-3-1C5.8,168.7,6,167.9,9.6,169.8z M83.2,31.5l3,1.9c3.4,2.2,3.8,4,1.5,6.6c-0.9,0.9-1.3,2-1,2.3
	c1.1,1.1,2.6-0.8,3.8-4.9c1.2-4.2,1.3-4.2,2.9-2.3c1.7,1.8,1.6,2-0.8,6.2c-1.4,2.4-2.3,4.9-2,5.7s0.3,1.3,0.1,1.3
	c-0.7,0-4.2-4-4.2-4.8c0-0.8-1.9-2.8-5.3-5.5l-2.5-2L83.2,31.5z M27.2,19.3c-1.6-1.2-3.5-1.8-4.7-1.6c-6.4,1.7-10.2-9.1-3.8-11
	C39,0.9,56.5,0,74.2,3.8c13.1,2.8,18.3,10,10.2,14.1c-2.4,1.2-2.6,1.2-2.1,0c0.7-1.8-0.6-1.8-4,0c-1.5,0.8-4,1.4-5.5,1.4
	c-2.1,0-2.5,0.2-1.4,0.9c0.9,0.5,3,0.5,5.1,0c4.8-1.1,5.4-0.4,0.8,1C67.4,24.2,32.1,22.9,27.2,19.3z M74.6,36.4
	c-0.2,0.9-0.8,1.6-1.3,1.6c-1.4,0-1-7.9,0.5-9.9C75.2,26.3,75.7,31.8,74.6,36.4z M27.8,22.9c-1-1,1.6-0.7,11.1,1.1
	c2.5,0.5,10.7,0.9,18.3,1L71,25.1l-5.6,1.3c-5.2,1.2-16.5,1.8-17.4,1c-0.2-0.2-3.1-0.6-6.4-1c-3.3-0.3-6.4-0.8-6.8-1.1
	c-0.4-0.3-2-0.7-3.4-1C29.9,24.1,28.4,23.4,27.8,22.9z M71.4,34.2c0,3.6-0.1,6.6-0.3,6.6c-1.7,0-2.3-11.6-0.6-12.7
	C71.1,27.8,71.4,30.1,71.4,34.2z M68.6,33c0,2.5-0.4,5.5-0.9,6.5c-0.5,1.2-0.6-0.4-0.3-4.2C68,27.9,68.7,26.6,68.6,33z M64.6,41.8
	c-0.4,0-0.6-3.1-0.6-6.8c0.1-7.2,0.6-6.4,1,1.9C65.2,39.6,65,41.8,64.6,41.8z M62.8,35.2c0,5-0.3,6.6-1.3,6.6
	c-1.4,0-1.9-8.6-0.7-11.6C62,27,62.7,28.9,62.8,35.2z M38.6,34.3c0,5.2-0.3,6.6-1.4,6.6c-1.3,0-1.4-1.7-0.6-12
	C37,24.5,38.6,28.9,38.6,34.3z M31.1,28.8c0-1.5,1.9-2.4,2.9-1.4c0.5,0.5,0.8,3.6,0.6,6.9l-0.3,6l-0.2-6.4c-0.2-5.6-0.4-6.3-1.6-5.3
	C31.6,29.4,31.1,29.5,31.1,28.8z M31.8,37.3c-0.2,1.2-0.4,0-0.4-2.6s0.2-3.5,0.4-2.1C32,34.1,32,36.2,31.8,37.3z M7.7,40.4
	c-1-0.6-0.9-1,0.5-1.8c1-0.6,2.5-1.7,3.4-2.6c2.6-2.4,12.9,2.6,12.7,6.2c-0.1,1.3-0.1,2.4-0.1,2.3c0-0.1-2.8-1.6-6.3-3.4
	c-6-3.1-11.1-3.6-9.5-1C8.7,40.8,8.5,40.9,7.7,40.4z M7.7,50.8c5.6-7.1,8.8-8.4,12-4.8c2.5,2.8,2.6,3.4,0.5,2.6
	c-1-0.4-1.3-0.2-0.9,0.5c0.4,0.6,1.3,1.1,2,1.1c0.7,0,1.4,0.4,1.4,1c0,0.7-0.6,0.7-1.8,0c-2.7-1.4-3.6-1.1-1.5,0.5
	c1,0.8,2.5,1.4,3.4,1.4s2.2,0.7,2.9,1.6c1.1,1.4,1.1,1.5-0.4,0.9c-1-0.4-2.8-0.9-4.2-1.2c-1.4-0.3-3-1-3.7-1.5s-1.4-0.7-1.7-0.4
	c-0.8,0.8,2.6,2.4,8.3,3.9c3.8,1,4.3,1.3,2.2,1.4c-1.5,0-5-0.7-7.7-1.7c-5.6-2-6.2-1.8-1.9,0.5c3.4,1.8,16,2.2,17.7,0.6
	c2.9-2.9,2.6-7.9-0.6-9.8c-1.7-1-4.7-3.8-6.7-6.1c-2.9-3.5-3.1-4-1.2-2.8c1.3,0.8,5.5,2.4,9.3,3.4c6.6,1.8,3.5,2.2-3.8,0.5
	c-1.3-0.3-0.7,0.1,1.4,0.9c2.6,1,5.6,1.3,9.8,1c2.9-0.2,8.8-0.6,14-0.9c-0.4-0.3-0.8-1-1.1-2.2c-0.4-1.6-0.4-1.6-0.5,0
	c-0.1,1.7-3.9,2-12.1,1l-3-0.4v-13l6.3,0c6.6,0,8,0.5,8.9,2.8c0.4,1.1,0.6,1.1,0.6-0.2c0.3-5.9,3.8-1.3,3.8,4.9
	c0,3.6-0.8,6.3-1.8,7.1c0.4,0,0.8,0,1.2-0.1c11.3-0.6,14.4-1.4,16.7-4.4l1.5-2l4.7,4c2.6,2.2,5,4.7,5.3,5.6c0.3,0.9,2.1,2.5,4,3.5
	c4.2,2.2,4.6,4.5,1.3,8.1c-2.2,2.5-4.6,3.6-3.4,1.6c0.8-1.2,0.2-1.2-2.8,0.2c-1.8,0.8-2.1,1.3-1.2,1.9c0.8,0.5,0.5,0.6-0.8,0.3
	c-2.7-0.8-7,0.4-6.3,1.6c0.4,0.6,0.2,0.7-0.5,0.3c-0.6-0.4-3.1-0.4-5.5,0c-3.5,0.5-4,0.8-2.5,1.4c1.3,0.5-0.1,0.8-4.2,0.9
	c-3.4,0.1-8.4,0.3-11.2,0.3C27.5,67.3,1.6,58.5,7.7,50.8z M28.6,46.9c-0.6-1.6-0.5-1.7,0.9-0.5c1.2,1,1.3,1.6,0.5,2.6
	c-0.6,0.7-1.5,1.3-2.1,1.3c-0.7,0-0.6-0.3,0.1-0.8C28.9,49,29.1,48,28.6,46.9z M27.6,53.6c1.1,0.4,1.6,0.1,1.6-0.8
	c0-1.8,3.4-4.8,4.6-4c1.3,0.8,1.3,2.6-0.1,5.6c-1.3,2.9-2.7,3-5.6,0.5C26.7,53.6,26.5,53.2,27.6,53.6z M7.5,161.2
	c-0.4-0.4-0.8-12.6-0.9-27l-0.2-26.3l-0.3,25.6C5.8,156.1,5.6,159,4.4,158C2,156,2.3,64.8,4.7,66.3c1.2,0.8,1.7,2.1,1.6,4.8
	c-0.1,2,0.2,3.9,0.6,4.2s0.7,0.1,0.6-0.3c-0.4-2.3,0.2-6.2,0.8-5.4C9.3,70.6,8.4,162.2,7.5,161.2z M12.4,117.4
	c-0.2,45-0.2,47.3-1.4,45.4c-0.7-1.1-0.8-91.1-0.1-91.8C12.4,69.6,12.6,75.7,12.4,117.4z M16.3,109.9c-0.2,20.5-0.7,41.3-1.2,46.2
	c-0.5,5.6-0.6-5.6-0.4-30.5C15,104,15.2,83,15.2,79c0-4,0.3-7.1,0.8-6.8C16.4,72.4,16.6,89.4,16.3,109.9z M69.1,169.6
	c-0.8,0.3-1.8-0.2-2.4-1.1c-0.9-1.4-1-1.4-0.6-0.1c0.3,1.1-0.2,1.7-1.8,2c-2.2,0.4-2.3,0.3-2.4-5.8l-0.2-6.2l-1.1,12.2l-3.3,0.1
	c-1.8,0.1-4.8,0.3-6.6,0.6c-3.1,0.5-16.9-0.6-21.3-1.7c-2-0.5-2.1-0.9-2.1-9.5c0-10.9-0.5-11.1-1.2-0.4c-0.6,8.5-0.8,9.1-2.9,8.2
	c-1.3-0.5-1.4-5.5-1.4-41.5c0-22.5-0.2-40.8-0.4-40.6c-0.2,0.2-0.5,18.6-0.7,40.8c-0.3,38.2-0.4,40.4-2,39.6
	c-1.4-0.8-1.6-2.5-1.6-14.8c0-55.7,2-92.9,3.8-72.2l0.5,6l0.2-5.3c0.2-6.3,0.3-6.4,5.8-5.4c2.3,0.4,9.3,1.1,15.5,1.5
	c8.6,0.5,11.5,1,12.4,2.2c1,1.4,1.1,1.3,1.2-0.1c0-1.9,3.8-2.3,3.8-0.5c0,0.9,0.2,0.9,0.7,0.1c0.4-0.6,1.7-1.2,3-1.4l2.3-0.3
	l0.5,29.5l0.5,29.5l0.2-29.8c0.2-25.7,0.4-29.8,1.6-29.8C71.2,75.5,71.2,168.8,69.1,169.6z M72.8,168.7c-1.2,0.5-1.4-5.1-1.4-46.3
	c0-41,0.2-46.8,1.4-46.8c1.2,0,1.4,5.8,1.4,46.3C74.3,162.1,74.1,168.2,72.8,168.7z M76.1,167.4c-0.6,0-0.9-15.9-0.9-46.4
	c0-25.5,0.3-46.4,0.7-46.4c0.4,0,0.8,20.9,0.9,46.4C77,151.6,76.8,167.4,76.1,167.4z M80.1,118.9c-0.1,24.9-0.4,45.7-0.6,46.2
	s-0.4-19.8-0.5-45.2s0.2-46.2,0.6-46.2S80.2,94,80.1,118.9z M83.6,139.8c-0.1,13.1-0.5,23.9-0.9,23.9s-0.8-10.8-0.8-23.9
	c0-15,0.3-23.9,0.9-23.9C83.4,115.8,83.7,124.7,83.6,139.8z M83.2,108.3c-0.7,0-1-33.2-0.3-34.7c0.4-0.8,0.7,6.7,0.7,16.6
	S83.4,108.3,83.2,108.3z M86.5,162.2c-0.7,0.5-1-8.9-1-33.7c0-18.9,0.3-34.1,0.7-33.9s0.9,15.4,1,33.7
	C87.5,151.8,87.3,161.7,86.5,162.2z M87.3,81.9c-0.1,5.8-0.4,10.5-0.8,10.5c-0.7,0-0.4-19.7,0.4-20.5C87.2,71.6,87.4,76.1,87.3,81.9
	z M91.1,114.4c-0.1,26.7-0.5,44.8-1,45.1c-0.5,0.3-0.9-16.5-0.8-44c0-28,0.4-44.8,1-45.1C90.9,70,91.1,85.5,91.1,114.4z M95.2,152.6
	c-0.3,1.9-1,3.5-1.5,3.5c-1.5,0-0.6-87.4,0.9-87.9C95.9,67.9,96.4,145.3,95.2,152.6z M96.3,63.7c-1,0.4-1.2,0.1-0.8-1.1
	c0.5-1.3,0.3-1.4-0.8-0.5c-2.6,2.1-11.8,5-18.6,5.9c-3.7,0.5-7.1,1.2-7.4,1.5s0.5,0.5,2,0.2c1.4-0.3,2.6-0.1,2.6,0.3s-1.8,0.9-4,1.2
	c-2.2,0.2-0.2,0.3,4.5,0.2c4.6-0.1,9.3-0.6,10.3-1c1.4-0.6,1.6-0.5,0.8,0.4c-0.6,0.6-4.4,1.7-8.5,2.3C43.1,78.4,0.5,70,2.7,58.4
	c0.6-3.2,0.9-3.2,5.7,0.3c16.2,11.9,75,12.1,86,0.2c1.8-1.9,2.2-2,2.6-0.7C98.1,60.8,97.8,63.1,96.3,63.7z M78.3,70
	c-2.2,0.3-3.6,0.1-3.2-0.3c0.4-0.4,2.2-0.6,4-0.5C82.1,69.5,82.1,69.5,78.3,70z"/>
<path d="M67.1,147.7c0,5.9,0.2,8.4,0.3,5.4s0.2-7.8,0-10.8S67.1,141.8,67.1,147.7z"/>
<path d="M61.4,152.9L61.4,152.9c0,3.1,0.2,4.5,0.4,3.1c0.2-1.4,0.2-3.9,0-5.6C61.6,148.6,61.4,149.8,61.4,152.9z"/>
<path d="M17.8,67.6c-4.3-1.4-8.4-3-9.1-3.6c-1.2-0.9-1.2-0.8,0,0.6c0.8,0.9,4.1,2.6,7.5,3.9c5.5,2.1,9.4,3,9.4,2.1
	C25.5,70.3,22,69,17.8,67.6z"/>
<path d="M74.5,57.7c-3.5,0.9-5.6,1.7-4.7,1.8c4.3,0.2,16.7-4.2,18.1-6.5c0.3-0.5-1.1-0.1-3.3,1S77.9,56.8,74.5,57.7z"/>
<path d="M87.4,57.5c1.1-0.4,4.3-4.5,3.5-4.5c-0.2,0-1.4,1.1-2.5,2.5S86.8,57.8,87.4,57.5z"/>
<path d="M70,52.7c-2.1,0.3-4.6,0.9-5.6,1.4c-1.2,0.5-0.5,0.6,1.9,0.2c2.1-0.3,4.6-0.9,5.6-1.4C73.1,52.4,72.4,52.3,70,52.7z"/>
<path d="M84.1,58.2c-1,0.4-5.5,1.5-9.8,2.4c-5.2,1.1-6.8,1.7-4.7,1.7c4.3,0.1,14.1-2.3,15.4-3.7C85.7,57.7,85.5,57.6,84.1,58.2z"/>
<path d="M76,41.3c-0.3-0.3-1.8,0.2-3.4,1c-1.6,0.8-5.8,1.9-9.3,2.3l-6.3,0.8l6.1-0.3C68.6,44.9,77,42.4,76,41.3z"/>
<path d="M73.3,54.8c-3.4,1-5.5,1.8-4.8,1.9c2.7,0.2,14.1-3.8,16.2-5.6l2.2-1.9l-3.8,1.9C81.1,52.2,76.7,53.8,73.3,54.8z"/>
<path d="M61.8,48.2c6.6,0.3,18.1-3.3,18.1-5.7c0-0.6-0.7-0.5-1.6,0.4c-1.8,1.6-7.6,3.4-14.8,4.4C60,47.9,59.6,48.1,61.8,48.2z"/>
<path d="M62.1,51.2c0,0.9,12-1.4,16.1-3.1c3.3-1.4,5.5-3.5,3.6-3.5c-0.5,0-1,0.4-1,0.8c0,1.1-8.8,3.9-14.3,4.5
	C64.1,50.2,62.1,50.8,62.1,51.2z"/>
<path d="M75.2,51.4C74,51.9,74,52,75.3,52c1.5,0.1,9.3-3.4,9.3-4.1c0-0.2-1.8,0.3-4,1.3S76,51.1,75.2,51.4z"/>
<path d="M24.6,25"/>
<polyline class="st1" points="82.5,32.2 83.2,31.5 86.8,33.9 87.8,34.7 88.6,35.6 89,36.3 89.2,37.1 89.1,37.8 88.6,38.9 88.2,39.5 
	87.4,40.4 86.9,41.1 86.6,42.1 86,42.6 84.9,41.4 83,39.6 78.6,36.1 "/>
<path class="st2" d="M86.8,42.9l-0.5-0.6L86.8,42.9z"/>
<path class="st2" d="M86.3,43.4l-0.5-0.6L86.3,43.4z"/>
<path class="st3" d="M96.6,158.1l-0.1,2.2L96.6,158.1z"/>
<g>
	<g>
		<defs>
			<polygon id="SVGID_1_" points="161.5,333.9 167.8,259.6 61.6,259.6 61.6,337.7 			"/>
		</defs>
		<clipPath id="SVGID_2_">
			<use xlink:href="#SVGID_1_"  style="overflow:visible;"/>
		</clipPath>
		
			<linearGradient id="SVGID_3_" gradientUnits="userSpaceOnUse" x1="75.7958" y1="-116.5613" x2="159.0008" y2="-116.5613" gradientTransform="matrix(1 0 0 -1 0 183.1933)">
			<stop  offset="0" style="stop-color:#C2B294"/>
			<stop  offset="7.142900e-02" style="stop-color:#C7B89B"/>
			<stop  offset="0.1429" style="stop-color:#CBC1A3"/>
			<stop  offset="0.2143" style="stop-color:#D2C8AD"/>
			<stop  offset="0.2857" style="stop-color:#D8CFB6"/>
			<stop  offset="0.3571" style="stop-color:#D9D2B8"/>
			<stop  offset="0.4286" style="stop-color:#D9D2B8"/>
			<stop  offset="0.5" style="stop-color:#D9D2B8"/>
			<stop  offset="0.5714" style="stop-color:#D9D2B8"/>
			<stop  offset="0.6429" style="stop-color:#D6CFB5"/>
			<stop  offset="0.7143" style="stop-color:#D3C8AD"/>
			<stop  offset="0.7857" style="stop-color:#CDC1A6"/>
			<stop  offset="0.8571" style="stop-color:#C7B79C"/>
			<stop  offset="0.9286" style="stop-color:#BFAD8F"/>
			<stop  offset="1" style="stop-color:#BBAC89"/>
		</linearGradient>
		<path class="st4" d="M158.9,308.1c-0.1-0.4-0.2-0.7-0.2-1.1c0-0.4,0.1-0.7-0.2-1.1c-0.6-1.1-0.7-2.2-0.5-3.5
			c0.1-0.5,0.2-1,0.6-1.4c-0.1-0.2-0.2-0.5-0.3-0.7c-0.3-0.8-0.8-1.6-0.6-2.5c0.1-0.7,0.5-1.2,0.7-1.9c0.2-0.7,0-1.3-0.2-2
			c-0.2-0.6-0.1-1.1,0.1-1.7c0.2-0.7,0.2-1.3,0.1-1.9c0-0.1,0-0.1-0.1-0.2c0-0.4,0-0.8-0.2-1.2c-0.2-0.4-0.4-0.8-0.4-1.3
			c-0.1-0.8,0.2-1.6,0.4-2.4c0.2-1.1-0.1-2.1-0.2-3.1c0-0.4,0.1-0.8,0.3-1.1c0.2-0.4,0.6-0.6,0.7-1.1c0.1-0.6-0.4-1.1-0.6-1.6
			c-0.4-0.7-0.6-1.4-0.5-2.1c0-0.2,0.1-0.3,0.1-0.4c-0.1-0.1-0.1-0.2-0.1-0.3c0-0.4-0.1-0.8-0.1-1.3c0-0.3,0.2-0.5,0.2-0.8
			c-0.1-0.2-0.2-0.4-0.3-0.6c-0.8-0.3-1.6-0.2-2.4-0.3c-0.8-0.1-1.6-0.4-2.5-0.4c-0.9-0.1-1.8,0.3-2.7,0.5c-0.8,0.2-1.7,0.5-2.5,0.4
			c-0.7-0.1-1.2-0.6-1.8-0.8c-0.8-0.2-1.5,0-2.3,0.3c-0.8,0.3-1.6,0.5-2.4,0.6c-0.4,0-0.6-0.3-0.5-0.6c-1,0.3-2,0.5-3,0.5
			c-0.7,0-1.4-0.1-2-0.5c-0.6-0.3-1.3-0.5-2-0.5c-0.7,0-1.4,0.1-2.1,0.2c-0.5,0.2-1,0.3-1.6,0.3c-0.1,0-0.2,0-0.2,0
			s-0.2,0.1-0.3,0.1c-1.5,0.2-2.9,0-4.3-0.5c-0.1,0-0.3-0.1-0.3-0.1s0,0-0.1,0c-0.1,0.1-0.3,0.2-0.5,0.1c-0.4-0.2-0.7-0.2-1.1,0
			c-0.3,0.2-0.6,0.5-0.9,0.6c-1,0.5-1.9,0.4-3,0.1c-0.5-0.2-1-0.3-1.5-0.2c-0.4,0.1-0.9,0.3-1.3,0.5c-1,0.3-2,0.2-3,0.3
			c-0.1,0.1-0.3,0.1-0.4,0.2c-1.4,0.6-2.7,0.7-4.1,0.4c-0.8-0.2-1.5-0.4-2.3-0.5c-0.8-0.1-1.5,0-2.3,0c-1.6,0.1-3.3,0.4-4.9,0.3
			c-0.3,0-0.6-0.2-0.6-0.6c0,0,0-0.1,0-0.1c-0.1-0.1-0.2-0.3-0.1-0.5c0,0,0,0-0.1,0c-0.9-0.2-1.9-0.1-2.8,0
			c-0.9,0.1-1.7,0.2-2.6,0.3c-0.7,0.3-1.5,0.6-2.3,0.7c-0.7,0.1-1.4,0.1-2-0.3c-0.6-0.3-1-0.7-1.6-0.8c-0.2,0-0.3,0-0.5,0
			c-0.7,0-1.4,0.3-2.1,0.4c-0.8,0.1-1.5,0.1-2.2-0.3c-0.3-0.1-0.3-0.4-0.2-0.7c-0.1-0.1-0.2-0.1-0.3-0.2c-0.1,0-0.3,0.1-0.4,0.1
			c-0.3,0-0.7,0-1.1,0c0,0.2-0.2,0.5-0.5,0.4c-0.9-0.1-1.8-0.2-2.8-0.3c-0.2,0.5-0.5,1-0.5,1.6c0,0.7,0.3,1.3,0.5,2
			c0.4,1.2-0.2,2.2-0.6,3.4c-0.2,0.6-0.3,1.2-0.2,1.8c0.1,0.5,0.3,1,0.3,1.6c0.1,0.6-0.1,1.1-0.3,1.6c0.8,1.1-0.2,2.6-0.2,3.9
			c0,0.9,0.5,1.7,0.6,2.7c0.1,0.9,0.1,1.9,0.3,2.8c0.2,0.9,0.5,1.8,0.5,2.7c0,0.5-0.1,0.9-0.2,1.4c0,0.4,0.1,0.9,0.1,1.3
			c0.1,1.4-0.4,2.5-1.2,3.6c0.1,0.1,0.1,0.3,0.1,0.5c-0.1,0.5,0,1.1-0.2,1.6c0,0.1,0,0.1-0.1,0.2c0,0,0.1,0,0.1,0
			c0.2-0.1,0.5,0.1,0.6,0.3c0.4,0.7,0,1.4-0.3,1.9c-0.2,0.2-0.4,0.5-0.5,0.8c-0.2,0.5-0.1,0.9,0,1.4c0.1,0.5,0.6,1,0.8,1.5
			c0.1,0.1,0.2,0.2,0.3,0.4c0.1,0.1,0.1,0.3,0.2,0.4c0.1,0,0.2,0.1,0.3,0.2c0.5,0.5,0.2,1.3-0.1,1.9c0,0.1,0,0.1,0,0.2
			c0,0,0,0,0,0.1c0.3,0,0.7,0.3,0.5,0.7c-0.2,0.6-0.7,1.1-0.8,1.8c0,0.4,0.1,0.8,0.1,1.1c0,0.3-0.1,0.7-0.2,1
			c0.3,0.3,0.6,0.6,0.8,0.9c0.7,1,0.3,2.1,0,3.2c-0.2,0.6-0.3,1.2-0.6,1.7c-0.2,0.4-0.5,0.6-0.7,0.9c0.2,0.3,0.4,0.7,0.4,1
			c0,0.2,0,0.5,0,0.8c0.2,0,0.5,0.1,0.7,0.1c0.4,0.1,0.8,0.3,1.2,0.5c1,0.3,2.2,0.1,3.2-0.1c0,0,0.1,0,0.1,0
			c0.1-0.1,0.3-0.2,0.6-0.2c0.8,0.2,1.3,0.1,2-0.4c0.4-0.3,0.9-0.6,1.5-0.7c0.7,0,1.2,0.4,1.8,0.6c0.7,0.2,1.5,0.2,2.2,0.1
			c0.8,0,1.5,0,2.3,0c0.8,0,1.4-0.2,2.1-0.5c0.6-0.2,1.1-0.2,1.7,0c0.6,0.1,1.1,0.2,1.7,0.1c0.1,0,0.1,0,0.1,0
			c0.6,0,1.2,0.1,1.8,0.1c0.5,0,1-0.2,1.5-0.4c1-0.3,1.9-0.5,2.7,0.2c0,0,0.1,0.1,0.1,0.1c0.1,0,0.2-0.1,0.3-0.1
			c0-0.1,0.1-0.1,0.2-0.2c2.1-1,4.3-0.8,6.5-0.8c0.4,0,0.6,0.3,0.5,0.6h0.1c0.7-1,2.6-0.7,3.6-0.6c0.7,0.1,1.4,0.3,2.1,0.4
			c1.2,0.1,2.3-0.2,3.5-0.2c0.2,0,0.3,0.1,0.4,0.2c0,0,0,0,0,0c0.7-0.1,1.2-0.5,2-0.4c0.8,0.1,1.6,0.7,2.5,0.7
			c0.8,0,1.6-0.5,2.3-0.6c0.8-0.2,1.6-0.1,2.4,0.2c0.3,0.1,0.5,0.4,0.4,0.7c0.1,0,0.2,0,0.2,0c0.7,0,1.1-0.3,1.8-0.4
			c0.6-0.2,1.2-0.1,1.7,0.2c0.1,0,0.1,0,0.2-0.1c0.6,0,1-0.6,1.6-0.7c0.7-0.1,1.3,0.1,1.9,0.3c0.7,0.2,1.4,0.1,2.1,0.1
			c0.6,0,1.3,0.1,1.9,0.2c1,0.1,2-0.3,3-0.5c0.6-0.1,1.1,0,1.5,0.3c1.4-0.2,2.9-0.1,4.3-0.4c1-0.2,1.8-0.4,2.8-0.2
			c0.7,0.2,1.4,0.4,2.1,0.5c0.1-0.1,0.3-0.2,0.4-0.3c0.4-0.2,0.8-0.3,1.2-0.3c-0.2-0.5-0.5-1-0.4-1.6c0.1-0.5,0.2-0.9,0.1-1.4
			c-0.1-0.6-0.2-1.1-0.3-1.6c-0.2-0.9-0.1-1.7,0.1-2.6c0.2-0.9,0.7-1.9,0.7-2.8c0-0.7-0.2-1.4,0.2-2c0.1-0.1,0.1-0.2,0.2-0.2
			c-0.2-0.3-0.4-0.6-0.5-1c-0.1-0.6,0.1-1.1,0.5-1.6C158.9,309.5,159.1,308.9,158.9,308.1z"/>
	</g>
</g>
<g>
	<path id="path7861" class="st5" d="M20.3,97.5c-2,2.3,0.2,7,1.6,9.9c1.1,2.3,5,5.2,5,5.2l4.8-8.5c0,0-2.3-3.5-3.8-4.6
		C25.6,98.1,22.1,95.3,20.3,97.5L20.3,97.5z"/>
	<path id="path7861-5" class="st5" d="M71.1,100.4c-1.4-2.9-5.6-1.5-8.2-0.6c-2.1,0.7-5.4,4.7-5.4,4.7l5.5,7.8c0,0,3.3-1.8,4.6-3.4
		C69.3,106.5,72.4,103.1,71.1,100.4L71.1,100.4z"/>
	<path id="path7883-6" class="st6" d="M35.2,97c0,0-1.8-1.9-2-3.3C33,92.4,34.1,90,34.1,90s-3.7,1.9-4.4,4.1c-0.9,2.7,1,8.8,1,8.8
		L35.2,97L35.2,97z"/>
	<path id="path7883" class="st6" d="M54.8,97.5c0,0,1.9-1.9,2.1-3.3c0.2-1.3-0.9-3.7-0.9-3.7s3.9,1.9,4.7,4.1
		c0.9,2.7-1.1,8.8-1.1,8.8L54.8,97.5L54.8,97.5z"/>
	<path id="path7331-6" class="st7" d="M63.7,115.2c0,11.4-8.7,20.7-19.3,20.7S25,126.7,25,115.2c0-11.4,8.6-20.7,19.3-20.7
		C55,94.5,63.6,103.7,63.7,115.2C63.7,115.2,63.7,115.2,63.7,115.2L63.7,115.2z"/>
	<path id="path7331" class="st8" d="M64.5,138.3c0,9.3-8.9,16.8-19.9,16.8s-19.9-7.5-19.9-16.8c0-9.3,8.9-16.8,19.9-16.8
		C55.6,121.5,64.5,129,64.5,138.3C64.5,138.3,64.5,138.3,64.5,138.3L64.5,138.3z"/>
	<path id="path7942" class="st9" d="M40.1,119.6c0,1.4-1,2.6-2.3,2.6c-1.2,0-2.3-1.2-2.3-2.6s1-2.6,2.3-2.6
		C39.1,117,40.1,118.2,40.1,119.6z"/>
	<path id="path7942-7" class="st9" d="M52.5,119.3c0,1.4-1,2.6-2.3,2.6s-2.3-1.2-2.3-2.6s1-2.6,2.3-2.6S52.5,117.9,52.5,119.3z"/>
	<path id="path7942_2_" class="st9" d="M49.6,140.6c0,1.4-0.7,2.6-1.6,2.6c-0.9,0-1.6-1.2-1.6-2.6c0-1.4,0.7-2.6,1.6-2.6
		C48.9,138,49.6,139.2,49.6,140.6z"/>
	<path id="path7942_1_" class="st9" d="M41.7,140.9c0,1.4-0.7,2.6-1.6,2.6c-0.9,0-1.6-1.2-1.6-2.6c0-1.4,0.7-2.6,1.6-2.6
		C41,138.3,41.7,139.5,41.7,140.9z"/>
</g>
</svg>
