<?xml version="1.0" encoding="UTF-8" standalone="no"?>
<!-- Created with Inkscape (http://www.inkscape.org/) -->
<svg xmlns:inkscape="http://www.inkscape.org/namespaces/inkscape" xmlns:rdf="http://www.w3.org/1999/02/22-rdf-syntax-ns#" xmlns="http://www.w3.org/2000/svg" xmlns:xlink="http://www.w3.org/1999/xlink" xmlns:ns1="http://sozi.baierouge.fr" xmlns:cc="http://creativecommons.org/ns#" xmlns:sodipodi="http://sodipodi.sourceforge.net/DTD/sodipodi-0.dtd" xmlns:dc="http://purl.org/dc/elements/1.1/" id="svg2" xml:space="preserve" viewBox="0 0 41.6 28.691" version="1.1" inkscape:version="0.91 r13725">
  <g id="g10" transform="matrix(1.25 0 0 -1.25 0 28.691)">
    <g id="g12">
      <path id="path14" style="fill-rule:evenodd;fill:#1e1c1f" d="m32.922 3.519c0.156 0.27 0.266 0.547 0.316 0.84-0.078-0.133-0.199-0.226-0.359-0.277l-0.078 0.238c-0.16-0.293-0.321-0.453-0.481-0.48v0.281c-0.004-0.055-0.07-0.137-0.199-0.242-0.082 0.297-0.094 0.547-0.043 0.761l0.082-0.16c-0.082 0.188-0.082 0.399 0 0.641-0.082 0.668-0.176 1.144-0.281 1.441-0.059 0.086-0.113 0.172-0.16 0.258-0.039 0.067-0.074 0.125-0.098 0.18-0.141 0.25-0.226 0.476-0.262 0.679l-0.14 0.184c0.039-0.066 0.058-0.18 0.058-0.34h-0.039l0.121-0.64-0.078 0.078 0.117-0.961-0.199 0.199 0.16-0.797-0.078 0.039c0-0.293 0.028-0.707 0.078-1.242l-0.238 0.281c0.051-0.078 0.078-0.215 0.078-0.398l-0.078 0.078c-0.055-0.504-0.148-0.867-0.281-1.078l-0.078 0.078c-0.028-0.504-0.215-0.797-0.563-0.879-0.027 0.055-0.027 0.106 0 0.16l-0.437-0.199c0-0.055-0.043-0.109-0.121-0.16-0.028 0.105-0.039 0.211-0.039 0.32-0.055-0.109-0.227-0.293-0.524-0.562l-0.117 0.121c-0.082-0.239-0.215-0.36-0.399-0.36l0.118 0.2c-0.266-0.348-0.547-0.52-0.84-0.52v0.121l-0.199-0.121-0.039 0.199-0.161-0.16-0.082 0.121c-0.105-0.215-0.371-0.347-0.8-0.398l0.48 0.238c0.242 0.133 0.359 0.266 0.359 0.398 0.243 0.083 0.547 0.254 0.922 0.52 0.188 0.082 0.321 0.16 0.399 0.242 0.293 0.238 0.48 0.36 0.558 0.36 0.11 0.082 0.161 0.214 0.161 0.398l0.16-0.117c0.187 0.16 0.281 0.398 0.281 0.719 0.133 0.082 0.215 0.226 0.242 0.441v0.559l0.199-0.122c0.078 0.188 0.106 0.43 0.078 0.723l0.082-0.121c0.055 0.027 0.106 0.106 0.161 0.242l-0.082 0.918 0.043 0.039c-0.028 0.453-0.137 1.149-0.321 2.082l-0.043 0.078 0.16-0.16c-0.21 0.43-0.304 0.75-0.277 0.961l-0.601 1.082c0.105 0.028 0.347-0.121 0.718-0.441 0.348-0.293 0.574-0.52 0.684-0.68l0.117 0.121c0.133-0.375 0.293-0.64 0.481-0.801v0.36c0.132-0.293 0.253-0.492 0.359-0.602 0 0.242-0.012 0.43-0.039 0.563 0.082-0.215 0.172-0.535 0.281-0.961l0.039 0.558c0.051-0.425 0.149-0.746 0.281-0.961l-0.082 0.282c0.133-0.184 0.227-0.453 0.282-0.801v0.32c0.082-0.293 0.16-0.718 0.238-1.281v0.363c0.055-0.32 0.176-0.8 0.359-1.441 0.11-0.586 0-1.121-0.316-1.602zm-6.602-2.918c0.348 0.028 0.719 0.094 1.118 0.2-0.344-0.106-0.68-0.172-1-0.2h-0.118zm3.918 8.321 0.043 0.199c-0.027 0.027-0.066 0.078-0.121 0.16l0.078-0.359zm-6.398-8.2c0.07-0.05 0.144-0.074 0.219-0.082-0.098 0.004-0.184 0.032-0.258 0.082h0.039z" inkscape:connector-curvature="0"/>
      <path id="path16" style="fill-rule:evenodd;fill:#656466" d="m30.238 8.922-0.078 0.359c0.051-0.082 0.094-0.133 0.117-0.16l-0.039-0.199z" inkscape:connector-curvature="0"/>
      <path id="path18" style="fill-rule:evenodd;fill:#322f33" d="m28.801 3.199c0 0.027 0.011 0.066 0.039 0.121 0.027-0.027 0.039-0.066 0.039-0.121 0.027-0.023 0.027-0.066 0-0.117h0.043c0.023 0.051 0.039 0.094 0.039 0.117 0.105 0.215 0.184 0.402 0.238 0.563v0.238l0.16-0.481c0.133 0.321 0.106 0.762-0.082 1.321 0.028-0.028 0.137-0.161 0.321-0.399 0.054 0.184 0.054 0.438 0 0.758-0.106 0.348-0.172 0.602-0.2 0.762 0.11-0.242 0.266-0.426 0.481-0.563-0.16 0.617-0.227 1.043-0.199 1.281l0.441-0.64-0.199 1.082 0.355-0.359c-0.156 0.585-0.211 1.011-0.156 1.281 0.051-0.11 0.117-0.16 0.199-0.16l-0.082 0.757 0.043-0.078c0.184-0.933 0.293-1.629 0.321-2.082l-0.043-0.039 0.082-0.922c-0.055-0.132-0.106-0.211-0.161-0.238l-0.082 0.117c0.028-0.289 0-0.531-0.078-0.719l-0.199 0.122v-0.559c-0.027-0.215-0.109-0.359-0.242-0.441 0-0.321-0.094-0.559-0.281-0.719l-0.16 0.117c0-0.184-0.051-0.316-0.161-0.398-0.078 0-0.265-0.122-0.558-0.36-0.078-0.082-0.211-0.16-0.399-0.242-0.375-0.266-0.679-0.437-0.922-0.52 0-0.132-0.117-0.265-0.359-0.398l-0.48-0.238h-0.079c-0.191-0.051-0.488-0.078-0.878-0.082 0.05 0.054 0.105 0.093 0.16 0.121h0.316l-0.039 0.117c0.242 0.055 0.414 0.082 0.52 0.082l-0.079 0.199c0.161 0.11 0.293 0.16 0.399 0.16 0.055 0.11 0.215 0.254 0.48 0.442 0.106 0.078 0.2 0.144 0.282 0.199 0.027 0.055 0.039 0.094 0.039 0.121l0.082 0.117h0.078c0.16 0.028 0.308 0.149 0.441 0.36 0 0.027 0.012 0.054 0.039 0.082v-0.16c0.055 0 0.11 0.027 0.16 0.082 0.028 0 0.082 0.039 0.161 0.117 0.027 0.054 0.078 0.121 0.16 0.199z" inkscape:connector-curvature="0"/>
      <path id="path20" style="fill-rule:evenodd;fill:#171617" d="m29.719 1.441-1.719-0.519c-0.105-0.028-0.215-0.055-0.32-0.082l-0.121-0.039h-0.118c-0.402-0.106-0.773-0.172-1.121-0.2-0.054 0-0.082-0.015-0.082-0.039l-0.238-0.043c-0.055 0-0.105-0.011-0.16-0.039h-0.961c-0.133 0-0.25 0.012-0.359 0.039-0.161 0.028-0.305 0.067-0.442 0.121h-0.016c-0.078 0.008-0.152 0.032-0.222 0.082 0.16-0.054 0.348-0.082 0.562-0.082 0.825-0.054 1.52 0.082 2.078 0.399h0.082c0.426 0.055 0.692 0.187 0.801 0.402l0.078-0.121 0.161 0.16 0.039-0.199 0.199 0.117v-0.117c0.297 0 0.574 0.172 0.84 0.52l-0.121-0.2c0.187 0 0.32 0.121 0.402 0.36l0.117-0.121c0.297 0.269 0.469 0.453 0.524 0.562 0-0.109 0.011-0.215 0.039-0.32 0.082 0.051 0.121 0.105 0.121 0.16l0.437 0.199c-0.027-0.054-0.027-0.105 0-0.16 0.348 0.082 0.535 0.375 0.563 0.879l0.078-0.078c0.133 0.211 0.226 0.574 0.281 1.078l0.078-0.078c0 0.183-0.023 0.32-0.078 0.398l0.238-0.281c-0.05 0.535-0.078 0.949-0.078 1.242l0.078-0.039-0.16 0.797 0.199-0.199-0.117 0.961 0.078-0.078-0.121 0.636h0.043c0 0.164-0.019 0.278-0.058 0.34l0.136-0.18c0.036-0.203 0.121-0.429 0.262-0.679-0.07 0.09-0.141 0.156-0.223 0.199 0.27-0.426 0.364-0.957 0.282-1.598 0-0.402-0.078-0.972-0.239-1.718-0.027-0.348-0.363-0.895-1-1.641-0.109-0.133-0.203-0.227-0.281-0.281-0.133-0.133-0.332-0.293-0.601-0.481h0.043c0-0.027 0.039-0.039 0.117-0.039zm0.359 0.16c0.055 0.028 0.11 0.067 0.16 0.121 0.242 0.133 0.442 0.305 0.602 0.52 0.32 0.344 0.547 0.797 0.68 1.359 0.16 0.481 0.269 0.825 0.32 1.039 0.105 0.426 0.133 0.801 0.082 1.122-0.055 0.48-0.094 0.746-0.121 0.796-0.024 0.094-0.051 0.184-0.078 0.262 0.047-0.086 0.097-0.172 0.156-0.262 0.109-0.293 0.199-0.773 0.281-1.437-0.082-0.242-0.082-0.453 0-0.641l-0.082 0.16c-0.051-0.214-0.039-0.468 0.043-0.761 0.133 0.105 0.199 0.187 0.199 0.242v-0.281c0.16 0.027 0.321 0.187 0.481 0.48l0.078-0.242c0.16 0.055 0.281 0.148 0.363 0.281-0.054-0.293-0.16-0.574-0.32-0.84-0.399-0.668-1.149-1.238-2.242-1.718l-0.602-0.2zm-25.277 14.239c0.16-0.051 0.254-0.09 0.277-0.118 0.027 0.293 0.043 0.504 0.043 0.641l0.199-0.32 0.039 0.238c0.137-0.066 0.239-0.168 0.301-0.301-0.015 0.035-0.019 0.071-0.019 0.102-0.028 0.32 0.105 0.453 0.398 0.398 0.027 0 0.066-0.011 0.121-0.039l0.078-0.082 0.082-0.078c0.215-0.187 0.348-0.348 0.399-0.48-0.051 0.187-0.106 0.359-0.16 0.519 0.109-0.055 0.203-0.105 0.281-0.16-0.051 0.16-0.121 0.293-0.199 0.398 0.293-0.371 0.586-0.824 0.879-1.359 0.425-0.746 0.988-1.801 1.679-3.16 0.535-0.852 1.735-2.106 3.602-3.758v-0.121c-0.242 0.133-0.453 0.32-0.641 0.562 0-0.082-0.027-0.23-0.082-0.441l-0.68 0.52-0.078-0.161c-0.187 0.133-0.386 0.493-0.601 1.082 0-0.027-0.051-0.132-0.16-0.32-0.211 0-0.399 0.094-0.559 0.281l-0.039 0.039c-0.106 0.133-0.199 0.317-0.281 0.559l-0.16-0.441-0.079 0.718c-0.082-0.078-0.242-0.238-0.48-0.48 0 0.75-0.082 1.297-0.242 1.641v-0.04c-0.078-0.105-0.145-0.343-0.199-0.718h-0.04c-0.027 0.027-0.039 0.054-0.039 0.082-0.187 0.371-0.308 0.801-0.363 1.281h-0.039c-0.133 0-0.238-0.055-0.32-0.16-0.133-0.11-0.227-0.27-0.278-0.481-0.082-0.242-0.136-0.468-0.16-0.683l-0.043-0.238v0.64c-0.023 0.375-0.05 0.68-0.078 0.918l-0.039 0.203c-0.047 0.215-0.098 0.375-0.16 0.477v-0.039c-0.293-0.481-0.453-0.973-0.481-1.481l-0.039-0.121c-0.054 0.906-0.066 1.707-0.043 2.403-0.105-0.321-0.293-0.829-0.558-1.52-0.051 1.172-0.121 1.945-0.199 2.32-0.106-0.136-0.293-0.32-0.563-0.562-0.051 0.828-0.039 1.387 0.043 1.679-0.16-0.078-0.348-0.199-0.562-0.359v0.121c-0.051 0.266-0.079 0.426-0.079 0.481 0.028 0 0.051-0.012 0.079-0.039 0.082-0.133 0.16-0.243 0.242-0.321v0.278zm0.758 0.64c-0.051 0.188-0.079 0.293-0.079 0.321h0.04l0.039-0.321zm-0.758 0.321c0 0.027 0.011 0.054 0.039 0.082l0.238 0.039c-0.051-0.082-0.133-0.172-0.238-0.282-0.028 0.055-0.039 0.11-0.039 0.161zm1.519 0.398 0.16 0.082c0.266-0.027 0.559-0.016 0.879 0.039 0.028-0.027 0.082-0.066 0.161-0.121 0.16-0.133 0.265-0.266 0.32-0.398 0.027-0.106 0.082-0.266 0.16-0.481 0.293-0.558 0.652-1.121 1.078-1.68 0.32-0.425 0.789-1.082 1.402-1.961 0.532-0.773 1.028-1.386 1.481-1.839l1.801-1.879c0.211-0.293 0.398-0.508 0.558-0.641l1.961-1.641 0.117-0.441c0.137-0.211 0.481-0.426 1.043-0.641-0.187 0-0.402 0.043-0.64 0.122-1.442 1.171-2.629 2.093-3.563 2.761-1.383 0.985-2.57 2.266-3.558 3.84-0.879 1.598-1.492 2.652-1.84 3.16-0.508 0.746-0.985 1.293-1.442 1.641-0.023 0.027-0.05 0.055-0.078 0.078zm-2.761-1.156c0.027 0.023 0.054 0.039 0.082 0.039 0.027-0.055 0.054-0.106 0.078-0.16-0.078-0.055-0.16-0.106-0.239-0.16v0.039c0.028 0.109 0.055 0.187 0.079 0.242zm-0.079 0.398 0.122 0.121 0.16 0.078v-0.16l-0.282-0.281v0.242zm0.52-1.64-0.238-0.239c-0.11 0.184-0.137 0.426-0.082 0.719 0.027 0.16 0.066 0.305 0.121 0.441 0.027-0.109 0.054-0.253 0.078-0.441 0.027-0.187 0.066-0.348 0.121-0.48zm0.441 0.398c-0.136-0.105-0.253-0.211-0.363-0.316-0.051 0.105-0.078 0.199-0.078 0.277-0.027 0.109-0.039 0.203-0.039 0.281-0.023 0.051-0.039 0.098-0.039 0.141v0.097c0.023 0.11 0.066 0.215 0.117 0.321 0.082-0.106 0.176-0.211 0.281-0.321v-0.078c0.028-0.16 0.067-0.293 0.121-0.402z" inkscape:connector-curvature="0"/>
      <path id="path22" style="fill-rule:evenodd;fill:#3a3728" d="m30.078 1.601c-0.078-0.027-0.144-0.066-0.199-0.121-0.078 0-0.133-0.011-0.156-0.039-0.082 0-0.121 0.012-0.121 0.039h-0.043c0.269 0.188 0.468 0.348 0.601 0.481 0.078 0.054 0.172 0.148 0.281 0.281 0.637 0.746 0.973 1.293 1 1.641 0.161 0.746 0.239 1.32 0.239 1.718 0.082 0.641-0.012 1.176-0.282 1.602 0.082-0.047 0.153-0.113 0.223-0.203 0.024-0.055 0.059-0.113 0.098-0.18 0.031-0.078 0.058-0.164 0.082-0.258 0.027-0.054 0.066-0.32 0.121-0.8 0.051-0.321 0.023-0.696-0.082-1.122-0.055-0.211-0.16-0.558-0.32-1.039-0.133-0.558-0.36-1.011-0.68-1.359-0.16-0.215-0.36-0.387-0.602-0.52-0.05-0.054-0.105-0.093-0.16-0.121z" inkscape:connector-curvature="0"/>
      <path id="path24" style="fill-rule:evenodd;fill:#373538" d="m28.879 3.199h0.082c0-0.023-0.016-0.066-0.039-0.117h-0.043c0.027 0.051 0.027 0.094 0 0.117zm-0.078 0c-0.082-0.078-0.133-0.145-0.16-0.199-0.133-0.024-0.243-0.039-0.321-0.039-0.078-0.028-0.132-0.039-0.16-0.039 0.028 0 0.067-0.016 0.121-0.043-0.133-0.211-0.281-0.332-0.441-0.36-0.906 0.11-2.094 0.254-3.559 0.442-0.242 0.054-0.453 0.133-0.64 0.238l1.32 0.082c-0.641 0-1.535 0.148-2.684 0.441 0.664 0.051 1.231 0.032 1.703-0.062-0.941 0.215-1.843 0.594-2.703 1.141-1.355 0.054-2.851 0.574-4.476 1.562 0.265 0.024 0.625 0.012 1.078-0.043 0.508-0.133 0.883-0.211 1.121-0.238-2.055 0.851-3.402 1.734-4.039 2.64l0.437-0.121-0.359 0.321c0.133 0.027 0.32-0.016 0.563-0.121 0.265-0.079 0.453-0.122 0.558-0.122-1.039 0.614-1.801 1.083-2.281 1.403l0.199 0.039c-0.586 0.215-1.105 0.574-1.558 1.082 0.855-0.32 1.375-0.492 1.558-0.52-1.066 0.454-1.719 0.946-1.957 1.481 0.348-0.188 0.785-0.336 1.32-0.442-0.773 0.215-1.679 0.668-2.722 1.36 0.426-0.266 0.84-0.414 1.242-0.442-0.106 0.11-0.481 0.403-1.121 0.883-0.481 0.344-0.813 0.664-1 0.957 0.48-0.211 0.855-0.343 1.121-0.398-0.34 0.183-1.121 0.742-2.34 1.68 0.219-0.161 0.438-0.239 0.66-0.239-0.215 0.239-0.441 0.438-0.679 0.598 0.132 0.027 0.343 0 0.636-0.078 0.102-0.035 0.196-0.063 0.282-0.082-0.411 0.148-0.864 0.402-1.36 0.761 0.641-0.054 1.051-0.066 1.238-0.043-0.371 0.161-1.039 0.375-2 0.641l0.043 0.039c0.239-0.051 0.493-0.051 0.758 0l-0.398 0.082c0.027 0.028 0.066 0.055 0.121 0.078 0.266-0.023 0.504-0.066 0.719-0.117 0.746-0.242 1.304-0.441 1.679-0.601 0.668-0.239 1.149-0.559 1.442-0.961-0.375 0.16-0.922 0.269-1.641 0.32 0.266-0.027 0.574-0.145 0.918-0.359 0.188-0.133 0.469-0.332 0.84-0.602-0.133 0-0.359 0.094-0.68 0.281 0.242-0.16 0.481-0.371 0.723-0.64 0.183-0.184 0.453-0.493 0.797-0.918-0.344 0.347-0.797 0.558-1.36 0.64 0.215-0.109 0.563-0.347 1.039-0.718 0.43-0.348 0.79-0.575 1.082-0.684-0.453 0.109-1.015 0.293-1.679 0.562 0.746-0.48 1.758-1.027 3.039-1.64l-0.918 0.238c0.637-0.32 1.09-0.641 1.359-0.961l-0.519 0.203c0.398-0.215 0.718-0.429 0.957-0.64-0.371 0-0.774 0.093-1.199 0.277 0.214-0.105 0.613-0.277 1.199-0.52 0.508-0.21 0.883-0.414 1.121-0.597-0.453 0-0.84 0.051-1.16 0.16 0.773-0.348 1.308-0.563 1.601-0.641-1.121 0.188-1.961 0.348-2.519 0.481 0.265-0.106 0.625-0.281 1.078-0.52 0.48-0.293 0.84-0.468 1.082-0.519 0.293-0.11 0.68-0.188 1.16-0.242 0.664-0.106 1.051-0.172 1.16-0.2-0.453-0.132-1.015-0.172-1.68-0.121 0.852-0.211 1.305-0.332 1.36-0.359 0.719-0.106 1.144-0.199 1.277-0.281-0.32-0.078-0.652-0.118-1-0.118 0.801-0.293 1.321-0.453 1.563-0.48-0.668 0-1.309 0.066-1.922 0.199 1.254-0.719 2.332-1.121 3.238-1.199h-0.598c1.254-0.348 2.293-0.68 3.122-1l-0.563 0.078c0.293-0.133 0.723-0.387 1.281-0.758-0.375 0-0.945 0.078-1.718 0.239 0.293-0.211 0.785-0.372 1.48-0.481 0.773-0.105 1.281-0.226 1.52-0.359l-1.04-0.117c0.559-0.188 1.118-0.282 1.68-0.282l-0.363-0.039c0.484-0.187 1.07-0.297 1.762-0.32 0.05-0.004 0.105-0.004 0.16-0.004zm-0.321-0.316c-0.054-0.055-0.105-0.082-0.16-0.082v0.082h0.16z" inkscape:connector-curvature="0"/>
      <path id="path26" style="fill-rule:evenodd;fill:#252426" d="m27.559 0.801 0.121 0.039v-0.039h-0.121zm-1.68 0.281-0.16 0.238c0.027-0.078 0.066-0.16 0.121-0.238h-0.082c-0.051-0.028-0.106-0.067-0.16-0.121 0.394 0.004 0.687 0.031 0.882 0.082-0.558-0.321-1.253-0.453-2.082-0.403-0.21 0-0.398 0.028-0.558 0.082 0.531-0.054 1.012-0.015 1.437 0.118-0.211 0.214-0.382 0.441-0.515 0.683l0.078-0.441c-0.399 0.078-0.879 0.465-1.442 1.16 0.11-0.375 0.137-0.641 0.082-0.801-0.132 0.051-0.265 0.172-0.402 0.36-0.183 0.293-0.305 0.453-0.355 0.48l0.316-0.559c-0.738 0.606-1.266 1.09-1.578 1.457 0.801-0.199 1.555-0.355 2.258-0.457l0.922-0.16c1.199-0.215 2.199-0.308 3-0.281-0.082-0.055-0.176-0.121-0.282-0.199-0.265-0.188-0.425-0.332-0.48-0.442-0.106 0-0.242-0.05-0.402-0.16l0.082-0.199c-0.106 0-0.282-0.027-0.52-0.082l0.039-0.117h-0.199zm-15.879 8.597c0.16-0.183 0.348-0.277 0.559-0.277 0.109 0.184 0.16 0.293 0.16 0.32 0.215-0.589 0.414-0.949 0.601-1.082l0.078 0.161 0.68-0.52c0.055 0.211 0.082 0.359 0.082 0.441 0.188-0.242 0.399-0.429 0.641-0.562v0.121c0.105-0.105 0.211-0.215 0.32-0.32l1.277-1.117c0.43-0.348 0.856-0.696 1.282-1.043v-0.039c-0.028-0.161 0.015-0.508 0.121-1.04-0.293 0.344-0.574 0.801-0.84 1.36l0.199-1.281c-0.082 0.187-0.254 0.507-0.519 0.961-0.243 0.398-0.387 0.718-0.442 0.96-0.078-0.296-0.039-1.027 0.121-2.203-0.16 0.535-0.293 0.961-0.398 1.282-0.215 0.586-0.43 0.949-0.641 1.082 0-0.348 0.051-0.922 0.16-1.723-0.535 0.801-0.855 1.441-0.961 1.922l0.04-0.68c-0.133 0.106-0.282 0.332-0.442 0.68-0.156 0.426-0.293 0.707-0.398 0.84l0.039-0.52c-0.078 0.16-0.199 0.465-0.36 0.918-0.16 0.375-0.304 0.641-0.437 0.801v-0.121c-0.11 0.16-0.176 0.281-0.203 0.363-0.211-0.48-0.266-1.027-0.16-1.641-0.184 0.907-0.371 1.559-0.559 1.957zm5.922-4.058v0.019l0.637-0.48v-0.039c0.054-0.508 0.132-0.934 0.242-1.281-0.321 0.718-0.602 1.308-0.84 1.761-0.023 0-0.035 0.008-0.039 0.02zm-7.481 5.422c0-0.028 0.012-0.055 0.039-0.082h0.04c0.054 0.375 0.121 0.613 0.199 0.718v0.043c0.16-0.347 0.242-0.894 0.242-1.64l0.48 0.48 0.079-0.722 0.16 0.441c0.082-0.238 0.175-0.426 0.281-0.559-0.133-0.187-0.242-0.507-0.32-0.96-0.055-0.399-0.067-0.747-0.039-1.04-0.055 0.188-0.11 0.598-0.161 1.239-0.082 0.562-0.187 0.933-0.32 1.121-0.187-0.215-0.32-0.586-0.402-1.121-0.051-0.321-0.067-0.641-0.039-0.961-0.16 1.336-0.266 2.308-0.321 2.922 0-0.055-0.078-0.629-0.238-1.719-0.133-0.695-0.16-1.309-0.082-1.84-0.238 0.531-0.371 1.25-0.398 2.16-0.028 1.012-0.067 1.731-0.121 2.156 0.027-0.558-0.079-1.414-0.321-2.558-0.207-0.988-0.312-1.777-0.32-2.359-0.004 0.437-0.098 1.222-0.277 2.359-0.137 1.016-0.161 1.84-0.082 2.48l-0.04-0.121c0.028 0.508 0.188 1 0.481 1.481 0.059-0.098 0.113-0.246 0.16-0.438l0.039-0.199c0.028-0.242 0.051-0.547 0.078-0.922v-0.64l0.043 0.242c0.024 0.211 0.078 0.437 0.16 0.679 0.051 0.211 0.145 0.371 0.278 0.481 0.082 0.105 0.187 0.16 0.32 0.16 0.055-0.586 0.16-1.055 0.32-1.402l0.039-0.039c0 0.05 0.016 0.105 0.043 0.16zm-6.019 3.719c-0.02-0.012-0.039-0.028-0.063-0.04h0.039l-0.16-0.082c0.055 0.161 0.149 0.336 0.282 0.52h0.039c0.109 0.027 0.214 0.094 0.32 0.199-0.149-0.176-0.305-0.375-0.457-0.597zm16.297-10.762c-0.211 0.027-0.332 0.054-0.36 0.082 0.028-0.082 0.016-0.215-0.039-0.403-0.508 0.481-0.906 0.844-1.199 1.083l0.078-0.36-0.16 0.399v0.043l1.68-0.844zm-14.278 11.199c0.028-0.184 0.094-0.332 0.2-0.437v0.281c-0.028 0.105-0.055 0.199-0.082 0.277 0.214 0.16 0.402 0.281 0.562 0.359-0.082-0.292-0.094-0.851-0.043-1.679 0.27 0.242 0.453 0.426 0.563 0.562 0.078-0.375 0.148-1.148 0.199-2.32 0.265 0.691 0.453 1.199 0.558 1.52-0.023-0.696-0.011-1.497 0.043-2.403-0.082-0.449-0.253-1.199-0.519-2.238l-0.281 2.68c-0.321-0.668-0.547-1.399-0.68-2.2-0.133-0.746-0.188-1.441-0.16-2.082-0.082 0.883-0.133 1.563-0.16 2.043-0.106 0.907-0.094 1.664 0.039 2.278-0.453-0.317-0.801-1.184-1.039-2.598-0.055 0.641 0.078 1.574 0.398 2.801 0.133 0.344 0.227 0.597 0.281 0.758 0.106 0.347 0.16 0.613 0.16 0.8-0.718-0.691-1.148-1.132-1.281-1.32-0.054-0.105-0.144-0.305-0.277-0.602-0.11-0.265-0.203-0.464-0.281-0.597-0.028 0.879 0.214 2.039 0.718 3.48-0.027-0.054-0.238-0.269-0.64-0.64-0.321-0.348-0.531-0.614-0.641-0.801 0 0.32 0.11 0.668 0.32 1.039 0.297 0.43 0.497 0.734 0.602 0.922 0.133 0.133 0.227 0.226 0.281 0.281 0.078 0.106 0.145 0.238 0.199 0.399 0.079 0.054 0.161 0.105 0.239 0.16 0-0.055 0.027-0.121 0.082-0.2-0.055-0.132-0.094-0.281-0.121-0.441-0.055-0.293-0.028-0.531 0.082-0.719l0.238 0.239c0-0.024 0.012-0.051 0.039-0.079v-0.043l0.039-0.039c0.027-0.05 0.055-0.105 0.082-0.16-0.027 0.16-0.055 0.293-0.082 0.403 0.11 0.105 0.227 0.211 0.363 0.316z" inkscape:connector-curvature="0"/>
      <path id="path28" style="fill-rule:evenodd;fill:#5f5b43" d="m4.84 18.801v-0.039l-0.039 0.039c-0.242-0.028-0.481 0.148-0.723 0.519-0.238 0.453-0.426 0.746-0.558 0.879-0.559 0.828-0.895 1.402-1 1.723-0.051 0.105-0.067 0.238-0.04 0.398 0 0.16-0.015 0.293-0.039 0.402l-0.121 0.2c-0.082 0-0.16-0.016-0.242-0.039 0.16 0.078 0.375 0.093 0.641 0.039l0.48-0.2 0.082-0.203-0.203 0.121c0.027-0.132 0.016-0.32-0.039-0.558 0-0.242 0.016-0.453 0.039-0.641 0.082-0.293 0.215-0.574 0.402-0.84 0.133-0.242 0.332-0.613 0.598-1.121 0.242-0.293 0.442-0.437 0.602-0.437-0.106 0.183-0.239 0.492-0.399 0.918 0.184-0.453 0.371-0.84 0.559-1.16zm16.621-15.622c-0.023 0.012-0.043 0.016-0.063 0.02h0.043c-1.066 0.242-1.976 0.508-2.718 0.801l-1.684 0.84v-0.039c-0.16 0.109-0.316 0.214-0.48 0.32v0.039l-0.637 0.48v-0.019c-0.07 0.051-0.152 0.094-0.242 0.141v0.039c-0.426 0.347-0.852 0.695-1.282 1.043l-1.277 1.117c-0.109 0.105-0.215 0.215-0.32 0.32-1.867 1.652-3.067 2.906-3.602 3.762-0.691 1.359-1.254 2.41-1.679 3.156-0.293 0.535-0.586 0.988-0.879 1.363-0.082 0.184-0.188 0.317-0.321 0.399-0.054 0.082-0.093 0.148-0.121 0.199l0.121 0.039c0.028-0.023 0.055-0.051 0.078-0.078 0.457-0.348 0.934-0.895 1.442-1.641 0.348-0.508 0.961-1.558 1.84-3.16 0.988-1.574 2.175-2.851 3.558-3.84 0.934-0.668 2.121-1.586 3.563-2.758 0.238-0.187 0.492-0.386 0.758-0.601 1.734-1.094 3.949-1.813 6.64-2.16h0.082c1.465-0.188 2.653-0.332 3.559-0.442h-0.078l-0.082-0.117c0-0.027-0.012-0.066-0.039-0.121-0.801-0.027-1.801 0.066-3 0.281l-0.922 0.16c-0.703 0.102-1.457 0.258-2.258 0.457z" inkscape:connector-curvature="0"/>
      <path id="path30" style="fill-rule:evenodd;fill:#504c39" d="m4.801 18.48c-0.055 0.055-0.106 0.094-0.16 0.121-0.321 0.161-0.536 0.293-0.641 0.399-0.16 0.187-0.348 0.453-0.559 0.801-0.269 0.453-0.441 0.734-0.519 0.839-0.481 0.747-1 1.309-1.563 1.68l0.442 0.402c0.078 0.079 0.172 0.133 0.277 0.161 0.082 0.023 0.16 0.039 0.242 0.039l0.121-0.2c0.028-0.109 0.039-0.242 0.039-0.402-0.027-0.16-0.015-0.293 0.04-0.398 0.105-0.321 0.441-0.895 1-1.723 0.132-0.133 0.32-0.426 0.558-0.879 0.242-0.371 0.481-0.547 0.723-0.519l0.039-0.039c-0.028-0.083-0.039-0.176-0.039-0.282z" inkscape:connector-curvature="0"/>
      <path id="path32" style="fill-rule:evenodd;fill:#413d2d" d="m1.359 22.32c0.563-0.371 1.082-0.933 1.563-1.68 0.078-0.105 0.25-0.386 0.519-0.839 0.211-0.348 0.399-0.614 0.559-0.801 0.105-0.106 0.32-0.238 0.641-0.399 0.054-0.027 0.105-0.066 0.16-0.121-0.028-0.133-0.082-0.238-0.16-0.32-0.293 0.266-0.52 0.309-0.68 0.121-0.082-0.055-0.094-0.172-0.039-0.359-0.055 0.105-0.082 0.199-0.082 0.277-0.106 0.297-0.559 1.055-1.36 2.281l-1.199 1.762 0.078 0.078z" inkscape:connector-curvature="0"/>
      <path id="path34" style="fill-rule:evenodd;fill:#aca8ad" d="m1.441 15.562c-0.507-0.109-0.828-0.16-0.961-0.16h-0.039c0.028 0.051 0.079 0.09 0.161 0.117 0.238 0.133 0.586 0.243 1.039 0.321h0.281c0.344 0.027 0.625 0.066 0.84 0.121h0.078c0.027 0.027 0.066 0.039 0.121 0.039l-0.242-0.121-0.399-0.117c-0.132-0.028-0.254-0.055-0.359-0.083-0.188-0.027-0.359-0.066-0.52-0.117zm0.239 1.16c0.132 0.024 0.242 0.04 0.32 0.04 0.508 0 0.945-0.067 1.32-0.2 0.028 0 0.055-0.015 0.078-0.043l-0.039-0.359c-0.027 0-0.066-0.012-0.121-0.039h-0.277c-0.32 0.027-0.723 0.078-1.199 0.16-0.028 0.027-0.082 0.039-0.16 0.039-0.082 0.027-0.149 0.039-0.204 0.039-0.265 0.082-0.543 0.176-0.839 0.281 0.48 0.055 0.855 0.082 1.121 0.082zm2.082 1.2c0.133-0.188 0.226-0.348 0.277-0.481 0.293-0.027 0.613-0.105 0.961-0.242h-0.039l-1.481 0.121c0.079 0.055 0.188 0.082 0.321 0.082l-0.281 0.039c-0.079 0.106-0.145 0.227-0.2 0.36-0.16 0.265-0.293 0.546-0.398 0.839-0.055 0.215-0.11 0.426-0.16 0.641-0.028 0.133-0.055 0.266-0.082 0.398 0.105-0.32 0.332-0.718 0.679-1.199 0.161-0.187 0.293-0.371 0.403-0.558zm2.16 1.8c0.078 0.184 0.133 0.278 0.156 0.278-0.023-0.106-0.012-0.266 0.043-0.481v-0.039c0.106 0.028 0.211 0.055 0.32 0.082 0.028 0 0.067 0.012 0.118 0.039 0.16 0.055 0.269 0.106 0.32 0.161-0.024-0.161-0.078-0.309-0.16-0.442 0-0.051-0.012-0.105-0.039-0.16-0.078-0.078-0.16-0.172-0.239-0.277-0.214-0.215-0.496-0.403-0.839-0.563 0.078 0.082 0.144 0.16 0.199 0.242 0.078 0.133 0.144 0.239 0.199 0.321 0.055 0.16 0.078 0.304 0.078 0.437-0.105-0.238-0.277-0.465-0.519-0.68-0.133-0.132-0.348-0.32-0.637-0.558 0.078 0.16 0.144 0.398 0.199 0.719 0.024 0.054 0.039 0.121 0.039 0.199 0 0.027 0.012 0.043 0.039 0.043 0.028 0.211 0.055 0.465 0.082 0.758l0.278-0.641c0.109 0.187 0.203 0.348 0.281 0.48l0.082 0.082zm-0.922-2.523c0.535 0.137 0.973 0.055 1.32-0.238 0.133-0.082 0.239-0.215 0.321-0.399 0.078-0.109 0.148-0.242 0.199-0.402-0.078 0.055-0.172 0.105-0.281 0.16-0.586 0.43-1.106 0.723-1.559 0.879zm2.281 1.203h-0.043c-0.023-0.055-0.05-0.109-0.078-0.16l-0.238-0.242c-0.137-0.078-0.254-0.145-0.363-0.199l0.32 0.082 1.68 0.316c-0.106-0.105-0.305-0.184-0.598-0.238-0.293-0.055-0.496-0.121-0.602-0.199 0.055-0.028 0.121-0.04 0.2-0.04 0.214 0.051 0.402 0.067 0.562 0.04 0.024 0.027 0.051 0.039 0.078 0.039 0.453 0.105 0.735 0.16 0.84 0.16-0.211-0.188-0.586-0.332-1.117-0.442-0.11 0-0.203-0.011-0.281-0.039-0.668-0.133-1.188-0.148-1.563-0.039h0.281c-0.347 0.055-0.558 0.172-0.64 0.36h-0.16l0.16 0.039v-0.039c0.215 0.054 0.426 0.148 0.64 0.281 0.028 0.027 0.067 0.051 0.121 0.078 0.051 0.055 0.122 0.105 0.2 0.16 0.019 0.039 0.047 0.067 0.082 0.082h0.039c0.054 0.078 0.133 0.145 0.238 0.199v0.039c0.215 0.243 0.359 0.481 0.441 0.719 0.028-0.078 0.04-0.16 0.04-0.238 0-0.106-0.012-0.227-0.04-0.359-0.054-0.055-0.093-0.133-0.121-0.243-0.027-0.023-0.054-0.066-0.078-0.117z" inkscape:connector-curvature="0"/>
      <path id="path36" style="fill-rule:evenodd;fill:#88838a" d="m2.719 15.883c-0.16-0.082-0.266-0.133-0.321-0.161-0.16-0.242-0.265-0.402-0.32-0.48-0.023 0-0.039-0.016-0.039-0.043 0 0.082-0.027 0.215-0.078 0.402v0.078c0.105 0.028 0.227 0.055 0.359 0.083l0.399 0.121zm0.043 0.078c-0.215-0.051-0.496-0.094-0.84-0.121h-0.281c-0.453-0.078-0.801-0.184-1.039-0.317 0.05 0.051 0.132 0.106 0.238 0.156v0.043l0.801 0.438 0.121 0.121c0.476-0.082 0.879-0.133 1.199-0.16-0.055-0.055-0.121-0.106-0.199-0.16zm0.558 0.601c-0.375 0.133-0.812 0.2-1.32 0.2-0.078 0-0.188-0.016-0.32-0.04 0.105 0.157 0.215 0.266 0.32 0.317v0.16c-0.238-0.078-0.426-0.172-0.559-0.277 0.184 0.211 0.454 0.359 0.797 0.437 0.078 0.028 0.278 0.055 0.602 0.082-0.059-0.012-0.098-0.039-0.121-0.082 0.082 0.028 0.176 0.055 0.281 0.082h-0.078c0.09 0.004 0.183 0.016 0.277 0.039l0.121 0.121c-0.347 0.078-0.867 0.145-1.558 0.2 0.636 0.105 1.16 0.105 1.558 0 0.055-0.133 0.121-0.254 0.2-0.36l0.281-0.039c-0.133 0-0.242-0.027-0.321-0.082l1.481-0.121h0.039c-0.348 0.137-0.668 0.215-0.961 0.242-0.051 0.133-0.144 0.293-0.277 0.481 0.05-0.028 0.105-0.055 0.16-0.082v0.082c-0.055 0.187-0.043 0.304 0.039 0.359 0.16 0.188 0.387 0.145 0.68-0.121 0.078 0.082 0.132 0.187 0.16 0.32 0 0.106 0.011 0.199 0.039 0.282v0.039c-0.028 0.16-0.039 0.32-0.039 0.48l0.32-0.48c-0.055-0.321-0.121-0.559-0.199-0.719 0.293 0.238 0.504 0.426 0.637 0.558 0.242 0.215 0.414 0.442 0.519 0.68 0-0.133-0.023-0.277-0.078-0.437-0.078-0.055-0.16-0.11-0.238-0.161l0.039-0.16c-0.055-0.082-0.121-0.16-0.199-0.242 0.343 0.16 0.625 0.348 0.839 0.563-0.082-0.11-0.148-0.188-0.203-0.243 0.696 0.266 1.137 0.668 1.321 1.2 0.082-0.211 0.066-0.453-0.039-0.719 0 0.078-0.012 0.16-0.04 0.238-0.082-0.238-0.226-0.476-0.441-0.719-0.027 0-0.051-0.011-0.078-0.039h0.078c-0.105-0.054-0.184-0.121-0.238-0.199h-0.039c-0.168-0.035-0.305-0.086-0.403-0.16 0.106 0.027 0.215 0.051 0.321 0.078-0.078-0.051-0.149-0.105-0.2-0.16-0.105 0-0.214-0.027-0.32-0.078h0.199c-0.214-0.133-0.425-0.227-0.64-0.281v0.039l-0.16-0.039h0.16c0.082-0.188 0.293-0.305 0.64-0.36h-0.281c0.375-0.105 0.895-0.094 1.563 0.039 0.078 0.028 0.171 0.039 0.281 0.039-0.055-0.023-0.094-0.05-0.121-0.078-0.133-0.027-0.254-0.054-0.36-0.082l-0.043-0.039h-0.039c-0.32-0.051-0.613-0.066-0.879-0.039l-0.16-0.082-0.121-0.039c0.028-0.051 0.067-0.117 0.121-0.199-0.347 0.293-0.785 0.371-1.32 0.238 0.453-0.156 0.973-0.449 1.559-0.879 0.054-0.16 0.109-0.332 0.16-0.519-0.051 0.132-0.184 0.293-0.399 0.48l-0.16 0.16c0.035-0.015 0.07-0.039 0.102-0.058-0.215 0.175-0.461 0.332-0.742 0.457v-0.039h-0.04c0-0.028 0.028-0.133 0.079-0.321l-0.118 0.282-0.203-0.282c-0.078 0.215-0.133 0.375-0.16 0.481v-0.039l-0.238-0.039c-0.028-0.028-0.039-0.055-0.039-0.082-0.055 0.109-0.082 0.199-0.082 0.281-0.344-0.16-0.52-0.469-0.52-0.922l-0.078 0.641-0.359-0.321v0.16l-0.16-0.078-0.122-0.121c0 0.16 0.012 0.281 0.04 0.36-0.079-0.079-0.145-0.161-0.2-0.239zm-2.84-1.16c0.133 0 0.454 0.051 0.961 0.16-0.054-0.027-0.109-0.054-0.16-0.082-0.375-0.293-0.761-0.73-1.16-1.32-0.082 0.16-0.109 0.32-0.082 0.48l-0.039-0.039 0.039 0.121c0.055 0.239 0.199 0.465 0.441 0.68zm0.918 0.957c0.055 0 0.122-0.012 0.204-0.039-0.215-0.105-0.348-0.16-0.403-0.16 0.055 0.082 0.121 0.148 0.199 0.199zm4.524 3.363-0.082-0.082c0.027 0.055 0.055 0.122 0.082 0.2v-0.118zm0.519-0.16c-0.109-0.027-0.214-0.054-0.32-0.082v0.039c0.133 0.082 0.254 0.137 0.359 0.16 0-0.05-0.015-0.093-0.039-0.117zm-3.679-0.281c0.05-0.215 0.105-0.426 0.16-0.641-0.16 0.266-0.227 0.508-0.203 0.719 0-0.023 0.015-0.051 0.043-0.078zm2.398-0.281-0.359 1.519c0.187-0.558 0.32-1.05 0.398-1.476-0.027 0-0.039-0.016-0.039-0.043zm1.52 0.16c0.027 0.055 0.039 0.105 0.039 0.16 0.109 0.133 0.203 0.242 0.281 0.32-0.133-0.187-0.238-0.347-0.32-0.48zm-1.879-3.32v-0.278c-0.082 0.078-0.16 0.184-0.242 0.317 0.082-0.024 0.16-0.039 0.242-0.039zm0.84 0.242c0-0.031 0.004-0.067 0.019-0.102-0.062 0.133-0.164 0.231-0.301 0.301v0.199l0.282-0.398zm1.718 2.437c0.028 0.11 0.067 0.188 0.121 0.243 0.161 0.078 0.293 0.132 0.399 0.16 0.453 0.132 0.828 0.066 1.121-0.2-0.078 0-0.508-0.054-1.281-0.16-0.133 0-0.254-0.015-0.36-0.043zm-0.078-0.117c0.293 0.078 0.481 0.117 0.559 0.117 0.187 0 0.453-0.039 0.801-0.117 0.308-0.078 0.543-0.105 0.699-0.082-0.293-0.051-0.82-0.078-1.578-0.078h-0.602c0.028 0.051 0.051 0.105 0.078 0.16h0.043zm-0.402-0.519-0.32-0.082c0.109 0.054 0.226 0.121 0.363 0.199l1.156 0.199c-0.156-0.051-0.558-0.156-1.199-0.316zm-3.32-1.84c-0.028-0.055-0.051-0.133-0.079-0.242v-0.039c-0.054-0.161-0.121-0.293-0.199-0.403-0.054-0.051-0.148-0.144-0.281-0.277-0.145-0.074-0.34-0.184-0.578-0.32 0.152 0.222 0.308 0.421 0.457 0.597 0.082 0.055 0.16 0.133 0.242 0.242 0.051 0.051 0.106 0.121 0.16 0.2 0.078 0.109 0.172 0.187 0.278 0.242zm0.441-0.883c-0.027 0.027-0.039 0.066-0.039 0.121-0.027 0.125-0.039 0.227-0.039 0.301 0-0.047 0.016-0.094 0.039-0.141 0-0.082 0.012-0.176 0.039-0.281zm0.441 0.039c-0.054 0.109-0.093 0.242-0.121 0.402v0.078c0-0.054 0.016-0.105 0.039-0.156l0.282-0.48v-0.281c-0.106 0.105-0.176 0.253-0.2 0.437zm2.118 3.281h-0.481l-0.277-0.199-0.039-0.16 0.679 0.32 0.118 0.039z" inkscape:connector-curvature="0"/>
      <path id="path38" style="fill-rule:evenodd;fill:#6c686e" d="m2.52 15.16c-0.133 0-0.332-0.039-0.598-0.117h-0.082c0.027 0 0.039 0.011 0.039 0.039h0.043c0.023 0.078 0.066 0.117 0.117 0.117 0 0.027 0.016 0.043 0.039 0.043l0.641 0.641 0.242 0.117c-0.055 0-0.094-0.012-0.121-0.039h-0.078c0.078 0.054 0.144 0.105 0.199 0.16h0.277c0.055 0.027 0.094 0.039 0.121 0.039l0.039 0.359c-0.023 0.028-0.05 0.043-0.078 0.043 0.055 0.078 0.121 0.16 0.2 0.239-0.028-0.079-0.04-0.2-0.04-0.36v-0.242l0.282 0.281 0.359 0.321 0.078-0.641c0 0.453 0.176 0.762 0.52 0.922 0-0.082 0.027-0.176 0.082-0.281 0-0.055 0.011-0.11 0.039-0.161 0.105 0.106 0.187 0.2 0.238 0.282v0.039c0.027-0.106 0.082-0.266 0.16-0.481l0.203 0.282 0.118-0.282-0.039 0.321v0.039c0.281-0.125 0.527-0.282 0.742-0.457-0.032 0.019-0.067 0.039-0.102 0.058-0.055 0.028-0.094 0.039-0.121 0.039-0.293 0.055-0.426-0.078-0.398-0.398l-0.282 0.398v-0.199l-0.039-0.238-0.199 0.316c0-0.133-0.016-0.344-0.043-0.637-0.023 0.024-0.117 0.067-0.277 0.118-0.082 0-0.16 0.015-0.242 0.039-0.028 0.027-0.051 0.043-0.079 0.043 0-0.055 0.028-0.215 0.079-0.481v-0.121c0.027-0.078 0.054-0.172 0.082-0.281l-0.282 0.48c-0.023 0.051-0.039 0.106-0.039 0.16-0.105 0.11-0.199 0.215-0.281 0.321-0.051-0.106-0.094-0.215-0.117-0.321v-0.097c0-0.074 0.012-0.176 0.039-0.301 0-0.055 0.012-0.094 0.039-0.121 0-0.078 0.027-0.172 0.078-0.281 0.027-0.106 0.055-0.239 0.082-0.399-0.027 0.055-0.055 0.106-0.082 0.16l-0.039 0.039v0.043c-0.027 0.024-0.039 0.051-0.039 0.079-0.055 0.132-0.094 0.293-0.121 0.48-0.024 0.188-0.051 0.332-0.078 0.441-0.055 0.079-0.082 0.145-0.082 0.2-0.024 0.054-0.051 0.105-0.078 0.16-0.028 0-0.055-0.016-0.082-0.039-0.106-0.055-0.2-0.133-0.278-0.242-0.054-0.079-0.109-0.149-0.16-0.2-0.082-0.109-0.16-0.187-0.242-0.242-0.106-0.105-0.211-0.172-0.32-0.199h-0.039z" inkscape:connector-curvature="0"/>
      <path id="path40" style="fill-rule:evenodd;fill:#282629" d="m26.238 0.562c0 0.024 0.028 0.039 0.082 0.039h0.121c-0.054-0.027-0.121-0.039-0.203-0.039zm-1.359-0.082h0.441c-0.187-0.051-0.308-0.066-0.359-0.039-0.027 0.024-0.055 0.039-0.082 0.039zm-6.16 3.52c0.746-0.293 1.652-0.559 2.719-0.801h-0.04c0.02-0.004 0.04-0.008 0.063-0.02 0.312-0.367 0.84-0.851 1.578-1.457l-0.32 0.559c0.054-0.027 0.176-0.187 0.359-0.48 0.133-0.188 0.27-0.309 0.402-0.36 0.051 0.16 0.028 0.426-0.082 0.801 0.563-0.695 1.04-1.082 1.442-1.16l-0.078 0.437c0.133-0.238 0.304-0.465 0.515-0.679-0.425-0.133-0.906-0.172-1.437-0.118h-0.039c0.074-0.05 0.16-0.078 0.258-0.082h-0.258c-0.293 0.082-0.492 0.215-0.602 0.399 0.028-0.371 0.094-0.719 0.199-1.039l-1.398 1.679c0.055-0.585 0.199-1.066 0.441-1.437-0.64 0.48-1.093 0.934-1.363 1.359 0-0.136 0.043-0.347 0.121-0.64 0.11-0.293 0.16-0.508 0.16-0.641-0.214 0.106-0.48 0.348-0.8 0.719 0.16-0.348 0.269-0.598 0.32-0.758-0.453 0.051-0.891 0.371-1.32 0.957-0.321 0.481-0.571 0.867-0.758 1.16-0.082 0.133-0.16 0.242-0.242 0.321 0-0.055 0.043-0.161 0.121-0.321 0.082-0.211 0.242-0.531 0.48-0.957 0.32-0.617 0.442-1.015 0.36-1.203-0.532 0.082-1.122 0.816-1.758 2.203 0.078-0.777 0.199-1.375 0.359-1.801-0.32-0.027-0.601 0.106-0.844 0.399-0.211 0.402-0.398 0.68-0.558 0.84 0.027-0.371 0.066-0.934 0.121-1.68-0.426 0.453-0.746 0.867-0.961 1.242l0.121-0.402c-0.426 0.269-0.789 0.707-1.082 1.32-0.16 0.348-0.371 0.895-0.641 1.641 0.137-1.176 0.364-2.133 0.684-2.879-0.27 0.105-0.508 0.316-0.723 0.637-0.183 0.429-0.332 0.734-0.437 0.921l0.117-1.402c-0.293 0.297-0.598 0.707-0.918 1.242-0.32 0.586-0.562 1.028-0.723 1.321 0.11-0.961 0.309-1.707 0.602-2.243-0.375 0.11-0.734 0.481-1.078 1.122-0.297 0.507-0.496 1-0.602 1.48 0.028-0.293 0.121-0.691 0.281-1.199 0.133-0.563 0.211-0.961 0.239-1.203-0.453 0.269-0.879 0.843-1.281 1.722-0.372 0.985-0.653 1.664-0.84 2.039l-0.321 0.879v-0.238c0.055-1.121 0.27-2.039 0.641-2.762-0.641 1.071-1.051 2.27-1.238 3.602 0.05-0.481 0.078-1.133 0.078-1.961 0.054-0.934 0.281-1.68 0.68-2.238-0.77 0.586-1.317 1.882-1.637 3.882-0.082-0.214-0.106-0.468-0.082-0.761 0-0.16 0.027-0.414 0.082-0.762-0.293 0.27-0.547 0.828-0.762 1.684 0-0.481 0.055-1.094 0.16-1.84 0.133-0.989 0.215-1.602 0.242-1.844-0.375 0.535-0.652 1.16-0.839 1.883l0.117-0.68c-0.399 0.371-0.664 0.934-0.797 1.68-0.215 0.984-0.375 1.597-0.481 1.84-0.109-1.039-0.054-2.012 0.161-2.922-0.215-0.106-0.508 0.16-0.883 0.801-0.344 0.562-0.641 1.187-0.879 1.882-0.133-0.375-0.145-1.015-0.039-1.921-0.508 0.425-0.789 1.16-0.84 2.199-0.055 1.308-0.133 2.109-0.242 2.402-0.266-0.375-0.371-0.867-0.321-1.48 0.055-0.774 0.055-1.282 0-1.52-0.32 0.426-0.543 0.852-0.679 1.281-0.078 0.157-0.133 0.547-0.16 1.157-0.051 0.535-0.145 0.91-0.278 1.121 0.024 0.773 0 1.32-0.082 1.64-0.265-0.586-0.387-1.32-0.359-2.199-0.051 0.984-0.067 1.641-0.039 1.961 0.054 0.664 0.105 1.066 0.16 1.199 0.051 0.188 0.211 0.453 0.48 0.801 0.211 0.293 0.371 0.531 0.481 0.719 0.266 0.078 0.465 0.117 0.598 0.117-0.133-0.184-0.227-0.359-0.282-0.52l0.16 0.082h-0.039c0.024 0.012 0.043 0.028 0.063 0.04 0.238 0.14 0.433 0.246 0.578 0.32-0.105-0.188-0.305-0.492-0.602-0.922-0.21-0.371-0.32-0.719-0.32-1.039 0.11 0.187 0.32 0.453 0.641 0.801 0.402 0.371 0.613 0.586 0.64 0.64-0.504-1.441-0.746-2.601-0.718-3.48 0.078 0.133 0.171 0.332 0.281 0.597 0.133 0.297 0.223 0.497 0.277 0.602 0.133 0.188 0.563 0.629 1.281 1.32 0-0.187-0.054-0.453-0.16-0.8-0.054-0.161-0.148-0.414-0.281-0.758-0.32-1.227-0.453-2.16-0.398-2.801 0.238 1.414 0.586 2.281 1.039 2.598-0.133-0.614-0.149-1.371-0.039-2.278 0.027-0.48 0.078-1.16 0.16-2.043-0.028 0.641 0.027 1.336 0.16 2.082 0.133 0.801 0.359 1.532 0.68 2.2l0.281-2.68c0.266 1.039 0.437 1.785 0.519 2.238l0.079 0.242c-0.079-0.64-0.051-1.468 0.082-2.48 0.179-1.137 0.273-1.922 0.277-2.359 0.008 0.582 0.113 1.371 0.32 2.359 0.242 1.144 0.348 2 0.321 2.558 0.054-0.425 0.093-1.144 0.121-2.16 0.027-0.906 0.16-1.625 0.398-2.16-0.078 0.535-0.051 1.149 0.082 1.84 0.16 1.094 0.238 1.668 0.238 1.723 0.055-0.614 0.161-1.586 0.321-2.922-0.028 0.32-0.012 0.64 0.039 0.961 0.082 0.531 0.215 0.906 0.402 1.121 0.133-0.188 0.238-0.563 0.32-1.121 0.051-0.641 0.106-1.051 0.161-1.239-0.028 0.293-0.016 0.637 0.039 1.04 0.078 0.453 0.187 0.773 0.32 0.96l0.039-0.043c0.188-0.398 0.375-1.05 0.559-1.957-0.106 0.614-0.051 1.157 0.16 1.637 0.027-0.078 0.093-0.199 0.203-0.359v0.121c0.133-0.16 0.277-0.426 0.437-0.801 0.161-0.453 0.282-0.758 0.36-0.918l-0.039 0.52c0.105-0.133 0.242-0.414 0.398-0.84 0.16-0.348 0.309-0.574 0.442-0.684l-0.04 0.684c0.106-0.481 0.426-1.121 0.961-1.922-0.109 0.801-0.16 1.375-0.16 1.719 0.211-0.133 0.426-0.492 0.641-1.078 0.105-0.321 0.238-0.747 0.398-1.282-0.16 1.172-0.199 1.907-0.121 2.2 0.055-0.239 0.199-0.559 0.442-0.957 0.265-0.454 0.437-0.774 0.519-0.961l-0.199 1.281c0.266-0.563 0.547-1.016 0.84-1.36-0.106 0.532-0.149 0.879-0.121 1.04 0.09-0.047 0.172-0.094 0.242-0.141 0.004-0.012 0.016-0.02 0.039-0.02 0.238-0.453 0.519-1.039 0.84-1.761-0.11 0.347-0.188 0.773-0.242 1.281 0.16-0.106 0.32-0.211 0.48-0.32l0.16-0.399-0.078 0.36c0.293-0.239 0.691-0.602 1.199-1.083 0.051 0.188 0.067 0.321 0.039 0.403 0.028-0.028 0.149-0.055 0.36-0.082zm-16.68 11.199c-0.051 0-0.094-0.039-0.117-0.117v0.039c0-0.027-0.016-0.039-0.043-0.039 0-0.028-0.012-0.039-0.039-0.043-0.133-0.106-0.348-0.293-0.641-0.559-0.344-0.293-0.586-0.547-0.719-0.758l0.122 0.52c0.105 0.238 0.464 0.625 1.078 1.16 0.054 0.051 0.148 0.117 0.281 0.199 0.051-0.187 0.078-0.32 0.078-0.402zm23.84-14.117h-0.039c-0.051 0.078-0.094 0.16-0.117 0.238l0.156-0.238zm-23.801 14.16c0.055 0.078 0.16 0.238 0.32 0.48 0.055 0.028 0.161 0.079 0.321 0.161-0.184-0.188-0.399-0.403-0.641-0.641zm4.883-2.281v0.039c0.062-0.102 0.113-0.262 0.16-0.481-0.047 0.196-0.101 0.34-0.16 0.442zm1.48-1.918c-0.027-0.055-0.043-0.11-0.043-0.16l-0.039 0.039c-0.16 0.343-0.265 0.812-0.32 1.398h0.039c0.055-0.48 0.176-0.906 0.363-1.277z" inkscape:connector-curvature="0"/>
      <path id="path42" style="fill-rule:evenodd;fill:#736f51" d="m4.281 19.961c0.16-0.426 0.293-0.735 0.399-0.918-0.16 0-0.36 0.144-0.602 0.437-0.266 0.508-0.465 0.879-0.598 1.121-0.187 0.266-0.32 0.547-0.402 0.84-0.023 0.188-0.039 0.399-0.039 0.641 0.055 0.238 0.066 0.426 0.039 0.558l0.203-0.121 1-2.558z" inkscape:connector-curvature="0"/>
      <path id="path44" style="fill-rule:evenodd;fill:#242324" d="m18.68 2.402c-0.078 0.16-0.118 0.266-0.118 0.32 0.079-0.082 0.161-0.187 0.239-0.32h-0.121zm-11.321 14.918h0.039c0.961-0.266 1.629-0.48 2-0.641-0.183-0.023-0.597-0.011-1.238 0.043 0.496-0.359 0.949-0.613 1.36-0.761-0.086 0.019-0.18 0.047-0.282 0.082-0.293 0.078-0.504 0.105-0.636 0.078 0.238-0.16 0.464-0.359 0.679-0.598-0.222 0-0.441 0.078-0.66 0.239 1.219-0.938 2-1.497 2.34-1.68-0.266 0.055-0.641 0.187-1.121 0.398 0.187-0.293 0.519-0.613 1-0.957 0.64-0.48 1.015-0.773 1.121-0.883-0.402 0.028-0.816 0.176-1.242 0.442 1.043-0.692 1.949-1.149 2.722-1.36-0.535 0.106-0.972 0.254-1.32 0.442 0.238-0.535 0.891-1.027 1.957-1.481-0.183 0.028-0.703 0.2-1.558 0.52 0.453-0.508 0.972-0.867 1.558-1.082l-0.199-0.039c0.48-0.32 1.242-0.789 2.281-1.403-0.105 0-0.293 0.043-0.558 0.122-0.243 0.109-0.43 0.148-0.563 0.121l0.359-0.321-0.437 0.121c0.641-0.91 1.984-1.789 4.039-2.64-0.238 0.027-0.613 0.105-1.121 0.238-0.453 0.055-0.813 0.067-1.078 0.039 1.625-0.984 3.121-1.504 4.48-1.558 0.86-0.547 1.758-0.926 2.699-1.141-0.472 0.09-1.039 0.113-1.699 0.062 1.145-0.296 2.039-0.441 2.68-0.441l-1.32-0.082c0.187-0.105 0.398-0.184 0.64-0.238h-0.082c-2.691 0.347-4.906 1.066-6.637 2.16-0.269 0.211-0.523 0.414-0.761 0.598 0.238-0.079 0.453-0.118 0.64-0.118-0.562 0.211-0.906 0.426-1.039 0.641l-0.121 0.437-1.961 1.641c-0.16 0.133-0.347 0.348-0.558 0.641l-1.801 1.879c-0.453 0.453-0.949 1.07-1.481 1.839-0.613 0.883-1.082 1.536-1.402 1.961-0.426 0.559-0.785 1.122-1.078 1.68-0.078 0.215-0.133 0.375-0.16 0.481-0.051 0.132-0.16 0.265-0.32 0.402-0.079 0.051-0.133 0.09-0.161 0.117zm0.442 0.121 0.398-0.082c-0.265-0.051-0.519-0.051-0.758 0 0.106 0.028 0.227 0.055 0.36 0.082z" inkscape:connector-curvature="0"/>
    </g>
  </g>
<metadata><rdf:RDF><cc:Work><dc:format>image/svg+xml</dc:format><dc:type rdf:resource="http://purl.org/dc/dcmitype/StillImage"/><cc:license rdf:resource="http://creativecommons.org/licenses/publicdomain/"/><dc:publisher><cc:Agent rdf:about="http://openclipart.org/"><dc:title>Openclipart</dc:title></cc:Agent></dc:publisher></cc:Work><cc:License rdf:about="http://creativecommons.org/licenses/publicdomain/"><cc:permits rdf:resource="http://creativecommons.org/ns#Reproduction"/><cc:permits rdf:resource="http://creativecommons.org/ns#Distribution"/><cc:permits rdf:resource="http://creativecommons.org/ns#DerivativeWorks"/></cc:License></rdf:RDF></metadata></svg>
