<?xml version="1.0" encoding="utf-8"?>
<!-- Generator: Adobe Illustrator 25.0.0, SVG Export Plug-In . SVG Version: 6.00 Build 0)  -->
<svg version="1.1"
	 id="svg2" xmlns:cc="http://creativecommons.org/ns#" xmlns:dc="http://purl.org/dc/elements/1.1/" xmlns:inkscape="http://www.inkscape.org/namespaces/inkscape" xmlns:ns1="http://sozi.baierouge.fr" xmlns:rdf="http://www.w3.org/1999/02/22-rdf-syntax-ns#" xmlns:sodipodi="http://sodipodi.sourceforge.net/DTD/sodipodi-0.dtd"
	 xmlns="http://www.w3.org/2000/svg" xmlns:xlink="http://www.w3.org/1999/xlink" x="0px" y="0px" viewBox="0 0 369.5 849.8"
	 style="enable-background:new 0 0 369.5 849.8;" xml:space="preserve">
<style type="text/css">
	.st0{fill-rule:evenodd;clip-rule:evenodd;fill:url(#path11_1_);}
	.st1{fill-rule:evenodd;clip-rule:evenodd;fill:#ADAFB2;}
	.st2{fill-rule:evenodd;clip-rule:evenodd;fill:#CDCFD0;}
	.st3{fill-rule:evenodd;clip-rule:evenodd;fill:#C7C8CA;}
	.st4{fill-rule:evenodd;clip-rule:evenodd;fill:url(#path100_1_);}
	.st5{fill-rule:evenodd;clip-rule:evenodd;fill:url(#path107_1_);}
	.st6{fill-rule:evenodd;clip-rule:evenodd;fill:url(#path114_1_);}
	.st7{fill-rule:evenodd;clip-rule:evenodd;fill:url(#path121_1_);}
	.st8{fill-rule:evenodd;clip-rule:evenodd;fill:url(#path128_1_);}
	.st9{fill-rule:evenodd;clip-rule:evenodd;fill:url(#path135_1_);}
	.st10{fill-rule:evenodd;clip-rule:evenodd;fill:url(#path142_1_);}
	.st11{fill-rule:evenodd;clip-rule:evenodd;fill:url(#path149_1_);}
	.st12{fill-rule:evenodd;clip-rule:evenodd;fill:url(#path156_1_);}
	.st13{fill-rule:evenodd;clip-rule:evenodd;fill:url(#path163_1_);}
	.st14{fill-rule:evenodd;clip-rule:evenodd;fill:url(#path170_1_);}
	.st15{fill-rule:evenodd;clip-rule:evenodd;fill:url(#path177_1_);}
	.st16{fill-rule:evenodd;clip-rule:evenodd;fill:url(#path184_1_);}
	.st17{fill-rule:evenodd;clip-rule:evenodd;fill:url(#path191_1_);}
	.st18{fill-rule:evenodd;clip-rule:evenodd;fill:url(#path198_1_);}
	.st19{fill-rule:evenodd;clip-rule:evenodd;fill:url(#path205_1_);}
	.st20{fill-rule:evenodd;clip-rule:evenodd;fill:url(#path212_1_);}
	.st21{fill-rule:evenodd;clip-rule:evenodd;fill:#A78A56;}
	.st22{fill-rule:evenodd;clip-rule:evenodd;fill:url(#path221_1_);}
	.st23{fill-rule:evenodd;clip-rule:evenodd;fill:url(#path228_1_);}
	.st24{fill-rule:evenodd;clip-rule:evenodd;fill:#615031;}
	.st25{fill-rule:evenodd;clip-rule:evenodd;fill:#8B7347;}
	.st26{fill-rule:evenodd;clip-rule:evenodd;fill:#A58D54;}
	.st27{fill-rule:evenodd;clip-rule:evenodd;fill:url(#path241_1_);}
	.st28{fill-rule:evenodd;clip-rule:evenodd;fill:#735E39;}
	.st29{fill-rule:evenodd;clip-rule:evenodd;fill:#4D4027;}
	.st30{fill-rule:evenodd;clip-rule:evenodd;fill:url(#path252_1_);}
	.st31{fill-rule:evenodd;clip-rule:evenodd;fill:#CBA769;}
	.st32{fill-rule:evenodd;clip-rule:evenodd;fill:url(#path261_1_);}
	.st33{fill-rule:evenodd;clip-rule:evenodd;fill:url(#path268_1_);}
	.st34{fill-rule:evenodd;clip-rule:evenodd;fill:url(#path275_1_);}
	.st35{fill-rule:evenodd;clip-rule:evenodd;fill:url(#path282_1_);}
	.st36{fill-rule:evenodd;clip-rule:evenodd;fill:url(#path289_1_);}
	.st37{fill-rule:evenodd;clip-rule:evenodd;fill:url(#path296_1_);}
	.st38{fill-rule:evenodd;clip-rule:evenodd;fill:url(#path303_1_);}
	.st39{fill-rule:evenodd;clip-rule:evenodd;fill:url(#path310_1_);}
	.st40{fill-rule:evenodd;clip-rule:evenodd;fill:url(#path317_1_);}
	.st41{fill-rule:evenodd;clip-rule:evenodd;fill:url(#path324_1_);}
	.st42{fill-rule:evenodd;clip-rule:evenodd;fill:url(#path331_1_);}
	.st43{fill-rule:evenodd;clip-rule:evenodd;fill:url(#path352_1_);}
	.st44{fill:#3F7F00;}
	.st45{opacity:0.97;}
	.st46{fill:#7F3F00;fill-opacity:0;stroke:#3F7F00;stroke-width:2;stroke-miterlimit:10;}
	.st47{opacity:0.5;fill:#7FFF00;stroke:#00FF00;stroke-linecap:round;stroke-linejoin:round;enable-background:new    ;}
	.st48{fill:url(#imagebot_136_2_);}
	.st49{fill:url(#imagebot_134_2_);}
	.st50{fill:url(#imagebot_132_2_);}
	.st51{fill:url(#imagebot_130_2_);}
	.st52{fill:url(#imagebot_128_2_);}
	.st53{fill:url(#imagebot_126_2_);}
	.st54{fill:url(#imagebot_124_2_);}
	.st55{fill:url(#imagebot_122_2_);}
	.st56{fill:url(#imagebot_120_2_);}
	.st57{fill:url(#imagebot_118_2_);}
	.st58{fill:url(#imagebot_116_2_);}
	.st59{fill:url(#imagebot_114_2_);}
	.st60{fill:url(#imagebot_112_2_);}
	.st61{fill:url(#imagebot_110_2_);}
	.st62{fill:url(#imagebot_108_2_);}
	.st63{fill:url(#imagebot_106_2_);}
	.st64{fill:url(#imagebot_104_2_);}
	.st65{fill:url(#imagebot_102_2_);}
	.st66{fill:url(#imagebot_100_2_);}
	.st67{fill:url(#imagebot_98_2_);}
	.st68{fill:url(#imagebot_96_2_);}
	.st69{fill:url(#imagebot_84_2_);}
	.st70{fill:url(#imagebot_78_2_);}
	.st71{fill:url(#imagebot_72_2_);}
	.st72{fill:url(#imagebot_66_2_);}
	.st73{fill:url(#imagebot_60_2_);}
	.st74{fill:url(#imagebot_54_2_);}
	.st75{fill:url(#imagebot_48_2_);}
	.st76{fill:url(#imagebot_34_2_);}
	.st77{fill:url(#imagebot_10_2_);}
	
		.st78{opacity:0.5;fill:#7FFF00;stroke:#7FFF00;stroke-linecap:round;stroke-linejoin:round;stroke-opacity:0;enable-background:new    ;}
	.st79{fill:url(#imagebot_136_3_);}
	.st80{fill:url(#imagebot_134_3_);}
	.st81{fill:url(#imagebot_132_3_);}
	.st82{fill:url(#imagebot_130_3_);}
	.st83{fill:url(#imagebot_128_3_);}
	.st84{fill:url(#imagebot_126_3_);}
	.st85{fill:url(#imagebot_124_3_);}
	.st86{fill:url(#imagebot_122_3_);}
	.st87{fill:url(#imagebot_120_3_);}
	.st88{fill:url(#imagebot_118_3_);}
	.st89{fill:url(#imagebot_116_3_);}
	.st90{fill:url(#imagebot_114_3_);}
	.st91{fill:url(#imagebot_112_3_);}
	.st92{fill:url(#imagebot_110_3_);}
	.st93{fill:url(#imagebot_108_3_);}
	.st94{fill:url(#imagebot_106_3_);}
	.st95{fill:url(#imagebot_104_3_);}
	.st96{fill:url(#imagebot_102_3_);}
	.st97{fill:url(#imagebot_100_3_);}
	.st98{fill:url(#imagebot_98_3_);}
	.st99{fill:url(#imagebot_96_3_);}
	.st100{fill:url(#imagebot_84_3_);}
	.st101{fill:url(#imagebot_78_3_);}
	.st102{fill:url(#imagebot_72_3_);}
	.st103{fill:url(#imagebot_66_3_);}
	.st104{fill:url(#imagebot_60_3_);}
	.st105{fill:url(#imagebot_54_3_);}
	.st106{fill:url(#imagebot_48_3_);}
	.st107{fill:url(#imagebot_34_3_);}
	.st108{fill:url(#imagebot_10_3_);}
</style>
<sodipodi:namedview  bordercolor="#666666" borderopacity="1" gridtolerance="10" guidetolerance="10" id="namedview369" inkscape:current-layer="svg2" inkscape:cx="8.408" inkscape:cy="19.320253" inkscape:pageopacity="0" inkscape:pageshadow="2" inkscape:window-height="645" inkscape:window-maximized="0" inkscape:window-width="785" inkscape:window-x="0" inkscape:window-y="0" inkscape:zoom="6.1077403" objecttolerance="10" pagecolor="#ffffff" showgrid="false">
	</sodipodi:namedview>
<linearGradient id="path11_1_" gradientUnits="userSpaceOnUse" x1="843.0957" y1="1216.8301" x2="1265.3442" y2="1216.8301" gradientTransform="matrix(0.85 0 0 0.85 -714.3 -473.3056)">
	<stop  offset="0" style="stop-color:#FFFFFF;stop-opacity:0.298"/>
	<stop  offset="1" style="stop-color:#ABD9DB;stop-opacity:0.549"/>
</linearGradient>
<path id="path11" inkscape:connector-curvature="0" class="st0" d="M326.5,304.9c20.6,14.3,30.8,27.1,30.8,38.3l12.2,338.3
	c0,15.6-2.8,36.2-8.4,61.7c-6.8,29.9-15,51.1-24.3,63.6c-6.9,8.1-25.2,17.2-55.2,27.1c-33.6,10.6-67,15.9-100,15.9
	c-31.8-0.6-63.9-6.2-96.3-16.8c-28.6-9.3-46-18.1-52.3-26.2c-9.2-11.8-17.4-33-24.2-63.6c-5.5-24.9-8.4-45.5-8.4-61.7l11.2-338.3
	c0-11.2,10.3-24,30.9-38.3c18.7-13.1,38.3-22.1,58.9-27.1c12.5-3.1,22.4-5,29.9-5.6H238c7.5,0.6,17.4,2.5,29.9,5.6
	c20.5,5,40.2,14,58.8,27.1L326.5,304.9L326.5,304.9z"/>
<path id="path18" inkscape:connector-curvature="0" class="st1" d="M310.6,380.6c16.2-8.1,26.5-15.9,30.9-23.4l6.5,149.5
	c4.4,102.7,5.9,163.4,4.7,182.1c-1.8,30.6-13.7,69.5-35.5,116.8c-3.1,6.2-10.6,12.4-22.4,18.7C271.2,836.7,236.9,843,192,843
	s-81.6-6.2-110.2-18.7l-29.9-18.7c-15.5-29.9-24.9-53.6-28-71l-5.6-43.9l10.3-329l26.2,20.5c28,13.7,67.3,20.6,117.7,20.6
	c59.8,0,105.9-7.5,138.3-22.4L310.6,380.6z"/>
<path id="path20" inkscape:connector-curvature="0" class="st2" d="M345.2,366.5v2.8c0,15.6-15.6,29-46.7,40.2
	c-30.3,11.2-67.7,16.7-112.2,16.7c-43.5,0-80.9-5.7-112.2-16.9c-31-11.2-46.6-24.6-46.6-40.2l0.9-2.9c2.6,13.7,19.1,25.2,49.5,34.6
	c30.3,9.3,66.9,14,108.4,14c42.4,0,79-4.6,109.5-14c30.6-9.3,47.1-20.9,49.6-34.5L345.2,366.5z"/>
<path id="path27" inkscape:connector-curvature="0" class="st3" d="M345.2,363.7c0,14.3-15.6,26.5-46.7,36.4
	c-31,10-68.4,15-112.2,15c-43.5,0-80.9-5-112.2-15c-31-10-46.6-22.1-46.6-36.4c0-13.7,15.6-25.8,46.8-36.4
	c31.2-10.1,68.5-15.2,112.2-15.2s81,5,112.2,15s46.8,22.1,46.8,36.5L345.2,363.7z"/>
<linearGradient id="path100_1_" gradientUnits="userSpaceOnUse" x1="878.7229" y1="1215.6537" x2="1027.1935" y2="1215.6537" gradientTransform="matrix(0.85 0 0 0.85 -714.3 -473.3056)">
	<stop  offset="0" style="stop-color:#FFFFFF;stop-opacity:0.639"/>
	<stop  offset="1" style="stop-color:#FFFFFF;stop-opacity:0"/>
</linearGradient>
<path id="path100" inkscape:connector-curvature="0" class="st4" d="M44.2,391.8c12.5,16.8,30.3,26.2,53.3,28l-0.9,32.7
	c-1.9,29.9-5,64.2-9.3,102.8c-4.4,38.7,6.2,79.2,31.8,121.5c12.5,21.2,25.7,38.3,39.4,51.4h-29.9c-13.1,0-33-4.7-59.8-14l-36.5-14
	L44.2,391.8L44.2,391.8z"/>
<linearGradient id="path107_1_" gradientUnits="userSpaceOnUse" x1="840.6766" y1="1216.2419" x2="1054.4397" y2="1216.2419" gradientTransform="matrix(0.85 0 0 0.85 -714.3 -473.3056)">
	<stop  offset="0" style="stop-color:#FFFFFF"/>
	<stop  offset="1" style="stop-color:#ABD9DB"/>
</linearGradient>
<path id="path107" inkscape:connector-curvature="0" class="st5" d="M101.3,277.7c11.9-3,22.9-4.7,33.2-5.1
	c-8.1,0.7-17.3,2.3-27.6,5.1c-18.7,5-36.9,14-54.3,27.1c-18.7,14.3-28.1,27.1-28.1,38.3L13.2,681.5c0,15.6,2.8,36.2,8.4,61.7
	c6.2,29.9,13.3,51.1,21.5,63.6c5.6,8.1,21.8,16.8,48.6,26.2c22.9,7.9,45.4,13.1,67.7,15.4c-24.6-2.1-49.4-7.3-74.3-15.4
	c-28.6-9.3-46.1-18.1-52.3-26.2c-9.3-11.8-17.4-33-24.3-63.6C2.8,718.3,0,697.7,0,681.5l11.2-338.3c0-11.2,10.3-24,30.8-38.3
	c18.7-13.1,38.3-22.1,58.9-27.1h0.4V277.7z"/>
<linearGradient id="path114_1_" gradientUnits="userSpaceOnUse" x1="1058.1787" y1="1216.1831" x2="1274.8013" y2="1216.1831" gradientTransform="matrix(0.85 0 0 0.85 -714.3 -473.3056)">
	<stop  offset="0" style="stop-color:#FFFFFF"/>
	<stop  offset="1" style="stop-color:#ABD9DB"/>
</linearGradient>
<path id="path114" inkscape:connector-curvature="0" class="st6" d="M235.4,272.6c9.9,0.5,20.6,2.2,32.2,5.1
	c20.6,5,40.2,14,58.9,27.1c20.6,14.3,30.8,27.1,30.8,38.3l12.2,338.3c0,15.6-2.6,36.2-8.4,61.7c-6.8,29.9-15,51.1-24.2,63.6
	c-6.8,8.1-24.6,16.8-53.2,26.2c-25.9,8.1-51.5,13.3-76.6,15.4c22.7-2.3,45.7-7.5,69.2-15.4c26.8-9.3,43.3-18.1,49.5-26.2
	c8.7-11.8,16.2-33,22.4-63.6c5-24.9,7.5-45.5,7.5-61.7l-10.2-338.3c0-11.2-9.3-24-28-38.3c-18-13.1-36.4-22.1-55.1-27.1
	c-9.4-2.8-18.3-4.5-26.7-5.1L235.4,272.6L235.4,272.6z"/>
<linearGradient id="path121_1_" gradientUnits="userSpaceOnUse" x1="887.8192" y1="977.0654" x2="1110.8197" y2="977.0654" gradientTransform="matrix(0.85 0 0 0.85 -714.3 -473.3056)">
	<stop  offset="0" style="stop-color:#FFFFFF;stop-opacity:0.639"/>
	<stop  offset="1" style="stop-color:#FFFFFF;stop-opacity:0"/>
</linearGradient>
<path id="path121" inkscape:connector-curvature="0" class="st7" d="M230.3,401.7h-36.4c-51.1,0-93.8-7.1-128-21.5
	c-19.9-8.1-28-16.3-24.3-24.4c8.7-8.8,14.3-15.4,16.8-19.7c3.7-5.6,12.8-11.2,27.1-16.8c7.5-2.5,14.3-4.6,20.6-6.6l24.4,5.6
	c15.6,4.4,20.9,9.7,16,15.8c-7.5,10,17.4,21.6,74.8,34.6l-38.3,1.9c-28.7,1.8-43.9,3.1-45.8,3.7c-10.6,1.2-13.4,3.7-8.4,7.5
	c7.5,5.6,41.4,12.2,101.8,19.6L230.3,401.7z"/>
<linearGradient id="path128_1_" gradientUnits="userSpaceOnUse" x1="918.5285" y1="1521.34" x2="1110.9596" y2="1521.34" gradientTransform="matrix(0.85 0 0 0.85 -714.3 -473.3056)">
	<stop  offset="0" style="stop-color:#FFFFFF;stop-opacity:0.639"/>
	<stop  offset="1" style="stop-color:#FFFFFF;stop-opacity:0"/>
</linearGradient>
<path id="path128" inkscape:connector-curvature="0" class="st8" d="M118.1,815.2c32.4,11.2,69.8,14.6,112.2,10.3
	c-19.4,9.5-48.6,11.7-87.9,6.6c-33.6-4.4-56.4-9.9-68.2-16.7c-9.9-6.2-10.8-9.7-2.6-10.3c8.8-1.1,24.3,2.2,46.8,10.3L118.1,815.2z"
	/>
<linearGradient id="path135_1_" gradientUnits="userSpaceOnUse" x1="-7873.1313" y1="-1615.7933" x2="-7810.4546" y2="-1615.7933" gradientTransform="matrix(-0.85 0 0 -0.85 -6363.0713 -1040.5745)">
	<stop  offset="0" style="stop-color:#FFFFFF;stop-opacity:0.639"/>
	<stop  offset="1" style="stop-color:#FFFFFF;stop-opacity:0"/>
</linearGradient>
<path id="path135" inkscape:connector-curvature="0" class="st9" d="M312.5,317c3.1,4.4,9,11,17.7,19.7c3.7,8.1-4.4,16.2-24.3,24.3
	l-32.7,11.2c5-13.9,5-27.9,0-42.2c-5-14.3-13.7-25.3-26.2-32.8l18.7-3.7l20.6,6.5c13.6,5.6,22.4,11.2,26.2,16.8L312.5,317z"/>
<linearGradient id="path142_1_" gradientUnits="userSpaceOnUse" x1="871.6852" y1="1447.8107" x2="1025.6036" y2="1447.8107" gradientTransform="matrix(0.85 0 0 0.85 -714.3 -473.3056)">
	<stop  offset="0" style="stop-color:#FFFFFF;stop-opacity:0.639"/>
	<stop  offset="1" style="stop-color:#FFFFFF;stop-opacity:0"/>
</linearGradient>
<path id="path142" inkscape:connector-curvature="0" class="st10" d="M36.7,712.4c11.2,6.2,23.7,11.5,37.4,15.8
	c27.4,8.1,55.2,12.2,83.2,12.2c-13.7,1.2-25.5,2.5-35.5,3.7c-19.3,2.5-30.2,6.2-32.7,11.2c-5.5,9.3-3.7,20.6,5.7,33.6
	c4.4,6.2,8.5,11.2,12.3,15c-17.4-4.4-33.6-9-48.6-14l-17.7-6.6l-3.8-13c-3.1-8.7-5.9-18.7-8.4-29.9c-2.5-14.3-2.8-23.4-0.9-27.1
	c1.8-3.1,4.9-3.3,9.3-0.9H36.7z"/>
<linearGradient id="path149_1_" gradientUnits="userSpaceOnUse" x1="-7901.7217" y1="-2104.6169" x2="-7834.645" y2="-2104.6169" gradientTransform="matrix(-0.85 0 0 -0.85 -6363.0713 -1040.5745)">
	<stop  offset="0" style="stop-color:#FFFFFF;stop-opacity:0.639"/>
	<stop  offset="1" style="stop-color:#FFFFFF;stop-opacity:0"/>
</linearGradient>
<path id="path149" inkscape:connector-curvature="0" class="st11" d="M347.1,698.3h8.4c0,19.4-5,37.1-15,53.3
	c-5,9.3-11.5,19-19.6,29c-1.8,2.6-6.2,7-13,13.2c-1.5,1.7-3.1,3.3-4.2,4.6c1.1-3.1,1.8-6.8,2.4-11.2c0-11.2,0.3-18.9,0.9-23.3v-18.7
	c0.6-5.5,0.3-9-0.9-10.3c-0.6-1.1-3.7-2.2-9.4-2.7c-13.7,1.3-24,1.3-30.8,0c4.4-3.1,10.9-5.9,19.6-8.4c4.4-1.3,11-3.4,19.7-6.6
	l17.6-8.5c11.9-2.4,19.9-5.9,24.3-10.2V698.3z"/>
<linearGradient id="path156_1_" gradientUnits="userSpaceOnUse" x1="941.8402" y1="830.5361" x2="1168.7991" y2="830.5361" gradientTransform="matrix(0.85 0 0 0.85 -714.3 -473.3056)">
	<stop  offset="0" style="stop-color:#FFFFFF;stop-opacity:0.298"/>
	<stop  offset="1" style="stop-color:#ABD9DB;stop-opacity:0.549"/>
</linearGradient>
<path id="path156" inkscape:connector-curvature="0" class="st12" d="M177,136.6l7.5,0.9l7.5-0.9c23.7,0,43.6,2.8,59.8,8.4
	c15.6,5.6,23.4,12.1,23.4,19.6c0,49.2,0.9,78.8,2.8,88.8c1.9,8.7,3.7,18.1,5.6,28c1.3,6.8,0.9,12.1-0.9,15.9
	c-10,18.7-38.6,29.2-86,31.7h-24.3c-48.6-2.6-77-13.2-85-31.9c-1.9-3.7-2.2-9-0.9-15.9c1.9-10,3.4-19.3,4.7-28
	c1.9-10,2.8-39.6,2.8-88.8c0-7.5,7.8-14.1,23.4-19.7c16.2-5.6,36.1-8.4,59.8-8.4L177,136.6z"/>
<linearGradient id="path163_1_" gradientUnits="userSpaceOnUse" x1="958.1141" y1="886.6173" x2="1058.1787" y2="886.6173" gradientTransform="matrix(0.85 0 0 0.85 -714.3 -473.3056)">
	<stop  offset="0" style="stop-color:#FFFFFF;stop-opacity:0.639"/>
	<stop  offset="1" style="stop-color:#FFFFFF;stop-opacity:0"/>
</linearGradient>
<path id="path163" inkscape:connector-curvature="0" class="st13" d="M105,271.2l3.7-35.5l66.4,4.7c-2.5,5-7.5,8.7-15,11.2
	c-5.6,1.3-10.3,8.1-14,20.6c-3.7,11.8-4.7,22.1-2.8,30.8c2.5,11.9,17.1,18.4,43.9,19.7l-20.6,1.8c-10,1.3-22.1-0.3-36.5-4.7
	c-15-4.4-24.4-9-28.1-14c-3.1-3.7-4.2-8.7-2.9-15c2.5-7.5,4.4-14,5.6-19.6L105,271.2z"/>
<linearGradient id="path170_1_" gradientUnits="userSpaceOnUse" x1="-7218.875" y1="-2852.0134" x2="-7183.0718" y2="-2852.0134" gradientTransform="matrix(-0.809 0.261 -0.261 -0.809 -6313.9287 -159.6405)">
	<stop  offset="0" style="stop-color:#FFFFFF;stop-opacity:0.639"/>
	<stop  offset="1" style="stop-color:#FFFFFF;stop-opacity:0"/>
</linearGradient>
<path id="path170" inkscape:connector-curvature="0" class="st14" d="M267.6,225.4l0.9,29.9l5.7,21.5c2.4,8.7,2.4,14.6,0,17.8
	c-3.1,5-9.7,9.3-19.6,13.1c2.5-8.7,2.5-18.4,0-29c-1.8-11.7-3.4-20.2-4.6-25.1c-3.1-9.3-8.1-14.3-15-15l32.8-13.1L267.6,225.4z"/>
<linearGradient id="path177_1_" gradientUnits="userSpaceOnUse" x1="886.8235" y1="780.5359" x2="1228.141" y2="780.5359" gradientTransform="matrix(0.85 0 0 0.85 -714.3 -473.3056)">
	<stop  offset="0" style="stop-color:#FFFFFF;stop-opacity:0.298"/>
	<stop  offset="1" style="stop-color:#ABD9DB;stop-opacity:0.549"/>
</linearGradient>
<path id="path177" inkscape:connector-curvature="0" class="st15" d="M289.1,132.9c27.4,13.1,41.1,28.6,41.1,46.7
	c0,18.7-14.3,34.9-43,48.6c-28.7,13.1-62.9,19.6-102.8,19.6s-74.1-6.6-102.8-19.7c-28-13.7-42.1-29.9-42.1-48.6
	c0-18,13.1-33.6,39.3-46.7l0.9,7.5v0.9l0.9,10.1v0.9l0.9,13.1v0.9l0.9,1.8l7.5,7.5h0.9l2.9,1.9l0.9,0.9l11.2,5.6l5.5,1.9h1.9
	l8.4,2.8l6.5,0.9l10.3,2.8h3.7l8.4,0.9l3.7,0.9l10.3,1h3.7c6.8,0,12.1,0.3,15.8,0.9c36.1,0.7,63.8-3.7,83.1-13.1
	c10-4.3,16.3-9,18.7-14v-7.5l3-28.9L289.1,132.9z"/>
<linearGradient id="path184_1_" gradientUnits="userSpaceOnUse" x1="1057.7384" y1="779.1243" x2="1228.8379" y2="779.1243" gradientTransform="matrix(0.85 0 0 0.85 -714.3 -473.3056)">
	<stop  offset="0" style="stop-color:#FFFFFF"/>
	<stop  offset="1" style="stop-color:#ABD9DB"/>
</linearGradient>
<path id="path184" inkscape:connector-curvature="0" class="st16" d="M287.2,228.2c-18.6,8.5-39.6,14.1-63.1,16.8
	c20.9-3,39.8-8.7,56.5-16.8c26.8-13.7,40.2-29.9,40.2-48.6c0-16.8-11-31.1-32.8-43l1-3.7c27.4,13.1,41.1,28.7,41.1,46.7
	C330.3,198.3,315.9,214.5,287.2,228.2L287.2,228.2z"/>
<linearGradient id="path191_1_" gradientUnits="userSpaceOnUse" x1="886.6397" y1="778.889" x2="1050.4813" y2="778.889" gradientTransform="matrix(0.85 0 0 0.85 -714.3 -473.3056)">
	<stop  offset="0" style="stop-color:#FFFFFF"/>
	<stop  offset="1" style="stop-color:#ABD9DB"/>
</linearGradient>
<path id="path191" inkscape:connector-curvature="0" class="st17" d="M140,244.6c-22.5-3.3-42.6-9.4-60.3-18.3
	c-26.8-13.1-40.2-28.6-40.2-46.7s13.1-33.6,39.3-46.7v3.7c-20.6,13-30.9,27.3-30.9,42.9c0,18,13,33.6,38.5,46.6
	c15.6,8.6,33.5,14.6,53.8,18.3L140,244.6z"/>
<linearGradient id="path198_1_" gradientUnits="userSpaceOnUse" x1="924.0266" y1="801.6071" x2="1039.4852" y2="801.6071" gradientTransform="matrix(0.85 0 0 0.85 -714.3 -473.3056)">
	<stop  offset="0" style="stop-color:#FFFFFF;stop-opacity:0.639"/>
	<stop  offset="1" style="stop-color:#FFFFFF;stop-opacity:0"/>
</linearGradient>
<path id="path198" inkscape:connector-curvature="0" class="st18" d="M168.6,195.5l0.9,6.6c-12.4,1.9-22.4,3.4-29.9,4.7
	c-13.7,2.5-21.5,5.6-23.4,9.3c-3.1,6.8,0,15.3,9.3,25.2c-1.9,0-7.5-1.8-16.8-5.6c-16.8-6.2-28.4-17.2-34.6-32.7
	c-6.8-15-3.3-24.3,10.3-28c2-0.6,5.1,0.3,9.5,2.8c7.5,3.7,15.8,7.3,25.3,10.3c18.7,6.8,35.2,9.5,49.6,7.5L168.6,195.5z"/>
<linearGradient id="path205_1_" gradientUnits="userSpaceOnUse" x1="1192.9906" y1="796.0188" x2="1130.9725" y2="796.0188" gradientTransform="matrix(0.85 0 0 0.85 -714.3 -473.3056)">
	<stop  offset="0" style="stop-color:#FFFFFF;stop-opacity:0.639"/>
	<stop  offset="1" style="stop-color:#FFFFFF;stop-opacity:0"/>
</linearGradient>
<path id="path205" inkscape:connector-curvature="0" class="st19" d="M286.3,174.9c13.7,3.7,17.2,13.1,10.3,28
	c-5.6,13.1-14,22.7-25.2,29c-3.3-18.7-13-32.4-29-41.1l9.2-2.8c8.7-3.1,17.2-6.6,25.2-10.3c3.7-2.5,6.8-3.4,9.3-2.8L286.3,174.9z"/>
<linearGradient id="path212_1_" gradientUnits="userSpaceOnUse" x1="-6973.5371" y1="-470.9775" x2="-6899.8638" y2="-470.9775" gradientTransform="matrix(-1 0 0 -1 -6647.0425 -462.7775)">
	<stop  offset="0" style="stop-color:#C1A064"/>
	<stop  offset="1" style="stop-color:#706341"/>
</linearGradient>
<path id="path212" inkscape:connector-curvature="0" class="st20" d="M278.7,12.6h-1.1c-16.1,0-25.6-0.7-28.6-2.2s-3.7-3.3-2.2-5.5
	V3.8l34.1,8.8H278.7z"/>
<path id="path214" inkscape:connector-curvature="0" class="st21" d="M65.3,23.6L84,15.9c19.8-7.3,45.8-12.1,78.1-14.3
	c30.1-2.9,58.3-1.8,84.7,3.3c-1.5,2.2-0.7,4,2.2,5.5s12.4,2.2,28.6,2.2h1.1c8.8,2.2,16.1,5.1,22,8.8c-4.4,8.8-11,14.7-19.8,17.6
	l-3.3,1.1l-1.1,1.1c-3.7-1.5-7.7-2.6-12.1-3.3l-4.4-1.1c-1.4-0.7-2.9-1.1-4.4-1.1h-1.1c-2.9-0.7-5.5-0.7-7.7,0h-2.2
	c-2.2-0.7-3.7-0.7-4.4,0l-1.1,2.2l1.1,3.3l2.2,4.4l4.4,2.2l1.1,2.2l2.2,2.2c0.7,0.7,1.5,1.1,2.2,1.1h-4.4
	c-7.3-2.2-11.4-3.7-12.1-4.4c-4.4-1.5-6.6-5.1-6.6-11c-1.5,0-2.9,1.1-4.4,3.3c-0.7,2.2-1.5,3.7-2.2,4.4s-2.2,1.5-4.4,2.2h-27.5
	c-29.3,0-46.2-0.4-50.6-1.1l-42.9-11c-9.5-1.5-16.9-4-22-7.7C72.3,25.1,69,23.6,65.3,23.6z M276.5,18.1c-0.7,1.5-0.7,2.6,0,3.3
	c8,1.5,12.8,0.4,14.3-3.3H276.5z M210.5,12.6c-1.5-2.2-3.7-3.3-6.6-3.3h-3.3l-1.1,3.3H210.5z M166.5,25.8c-5.9,0.7-8.4,2.9-7.7,6.6
	l26.4,1.1c2.9-0.7,5.1-2.6,6.6-5.5l-12.1-2.2C174.6,25.1,170.2,25.1,166.5,25.8z M145.6,10.4c-22,0-32.6,3.7-31.9,11
	c2.9,0.7,13.2,1.1,30.8,1.1c6.6,0,11-0.7,13.2-2.2c2.2-2.2,3.3-4,3.3-5.5c0-2.9-1.5-4.4-4.4-4.4H145.6z"/>
<linearGradient id="path221_1_" gradientUnits="userSpaceOnUse" x1="-6940.5493" y1="-482.852" x2="-6924.0552" y2="-482.852" gradientTransform="matrix(-1 0 0 -1 -6647.0425 -462.7775)">
	<stop  offset="0" style="stop-color:#C1A064"/>
	<stop  offset="1" style="stop-color:#706341"/>
</linearGradient>
<path id="path221" inkscape:connector-curvature="0" class="st22" d="M276.5,18.1h14.3c-1.5,3.7-6.2,4.8-14.3,3.3
	C275.7,20.7,275.7,19.6,276.5,18.1z"/>
<linearGradient id="path228_1_" gradientUnits="userSpaceOnUse" x1="-3908.449" y1="3204.8149" x2="-3878.5837" y2="3204.8149" gradientTransform="matrix(-0.11 -0.994 0.994 -0.11 -3358.0591 -3468.6665)">
	<stop  offset="0" style="stop-color:#C1A064"/>
	<stop  offset="1" style="stop-color:#706341"/>
</linearGradient>
<path id="path228" inkscape:connector-curvature="0" class="st23" d="M255.6,35.7c1.5,0.1,3,0.8,4.4,2.2l4.4,1.1
	c4.4,1.5,6.6,4,6.6,7.7c0,5.1-0.7,8.8-2.2,11c-3.7,5.1-7.7,6.2-12.1,3.3l-5.5-7.7h1.1c-0.8,0-1.5-0.4-2.2-1.1l-2.2-2.2l-1.1-2.2
	l-4.4-2.2l-2.2-4.4l-1.1-3.3c0.8-1.5,2.6-2.2,5.5-2.2h2.2c2.2-0.7,4.8-0.7,7.7,0C254.5,35.7,255.6,35.7,255.6,35.7z"/>
<path id="path230" inkscape:connector-curvature="0" class="st24" d="M239.1,37.9l1.1-2.2c0.7-0.7,2.2-0.7,4.4,0
	C241.7,35.7,239.8,36.4,239.1,37.9z M264.4,37.9c2.9,0.7,6.2,1.8,9.9,3.3v4.4c0,12.4-2.9,19.1-8.8,19.8c-4.4,0-7.3-1.5-8.8-4.4
	c4.4,2.9,8.4,1.8,12.1-3.3c1.5-2.2,2.2-5.9,2.2-11c0-3.7-2.2-6.2-6.6-7.7l-4.4-1.1c-1.4-1.4-2.9-2.1-4.4-2.2c1.5,0,3,0.4,4.4,1.1
	C260,36.8,264.4,37.9,264.4,37.9z"/>
<path id="path232" inkscape:connector-curvature="0" class="st25" d="M274.3,41.2h2.2l1.1-1.1v1.1c0,13.2-2.6,21.3-7.7,24.2
	c-3.7,1.5-9.5,1.8-17.6,1.1c-8.1-0.7-11.7-2.9-11-6.6c-9.5-2.9-17.2-4.4-23.1-4.4h-31.9c19,2.9,33.4,7,42.9,12.1
	c2.9,2.2,6.6,5.9,11,11c8,5.9,12.1,11.7,12.1,17.6c0,2.9-2.6,7.3-7.7,13.2c-5.9,5.1-8.8,9.5-8.8,13.2c0,2.2,1.1,4.8,3.3,7.7
	c0,2.9-1.8,6.2-5.5,9.9c-1.5,2.9-3.3,5.5-5.5,7.7c0,2.9,0.4,6.2,1.1,9.9c1.5,5.1-0.4,8.4-5.5,9.9c-2.9,0.7-5.9,0.4-8.8-1.1
	c-3.7-1.5-6.9-2.6-9.9-3.3l-6.6,6.6l-3.3,1.1l-4.4,2.2c-2.9,2.2-8.1,3.3-15.4,3.3c-5.9,4.4-11.4,6.6-16.5,6.6
	c-2.2,0-12.4-1.8-30.8-5.5c-2.9-0.7-4.8-1.1-5.5-1.1s-1.8-1.5-3.3-4.4c-1.5-4.4-2.6-6.6-3.3-6.6l-8.8-6.6c-6.6,3.7-13.2,3.7-19.8,0
	l-6.6-6.6l-2.2-23.1c0.7,2.2,2.6,4.8,5.5,7.7c5.1,5.1,10.3,7,15.4,5.5c2.2-0.7,4.8-2.6,7.7-5.5c5.9,8.8,13.6,14.3,23.1,16.5
	c2.9,0.7,7.3,1.5,13.2,2.2c5.1,1.5,7.7,4,7.7,7.7c4.4,1.5,7.7,0.7,9.9-2.2c1.5-5.1,3.3-8.1,5.5-8.8c3.7,3.7,8.8,4,15.4,1.1
	c0-8.8,3.3-13.9,9.9-15.4c2.9-0.7,5.5-1.5,7.7-2.2s3.7-2.6,4.4-5.5c2.9-5.9,2.6-11.4-1.1-16.5c0-2.9-1.5-5.1-4.4-6.6
	c-2.9-2.2-5.1-1.5-6.6,2.2c-5.1,0-8.8-3.7-11-11c-4.4-9.5-7-14.7-7.7-15.4c-5.1-7.3-14.7-14.3-28.6-20.9c-5.9-1.5-11.4-4.4-16.5-8.8
	l-1.1-1.1l-1.1-1.1c12.5,1.5,23.8,2.6,34.1,3.3l88-1.1h2.2l1.1,1.1h-1.1c1.5,2.9,3.3,5.1,5.5,6.6h1.1c1.5,2.9,4.4,4.4,8.8,4.4
	c5.9-0.7,8.8-7.3,8.8-19.8C274.3,45.6,274.3,41.2,274.3,41.2z M212.7,72c-5.1,0-6.9,4-5.5,12.1c1.5,6.6,4.4,10.6,8.8,12.1
	c4.4,0.7,6.6-1.8,6.6-7.7c0.7-7.3-1.1-12.8-5.5-16.5H212.7z M184.1,155.5c-5.1,6.6-5.9,11.4-2.2,14.3c4.4,2.9,8.4,1.1,12.1-5.5
	c-0.7-0.7-2.6-2.2-5.5-4.4L184.1,155.5z M211.6,134.6h6.6c2.2-5.9,1.1-9.2-3.3-9.9l-2.2-3.3C210.5,123.7,210.1,128,211.6,134.6z"/>
<path id="path234" inkscape:connector-curvature="0" class="st26" d="M276.5,41.2h-2.2c-3.7-1.5-7-2.6-9.9-3.3
	C268.8,38.6,272.8,39.7,276.5,41.2z M78.5,129.1v-3.3l5.5-1.1c0.7-7.3-1.1-10.6-5.5-9.9c-2.2-13.9-4-24.2-5.5-30.8l-2.2-22
	l-3.3-19.8l-2.2-18.7l22,16.5c11,4.4,24.2,8.4,39.6,12.1l1.1,1.1c5.1,4.4,10.6,7.3,16.5,8.8c13.9,6.6,23.4,13.6,28.6,20.9
	c0.7,0.7,3.3,5.9,7.7,15.4c2.2,7.3,5.9,11,11,11c1.5-3.7,3.7-4.4,6.6-2.2c2.9,1.5,4.4,3.7,4.4,6.6c3.7,5.1,4,10.6,1.1,16.5
	c-0.7,2.9-2.2,4.8-4.4,5.5s-4.8,1.5-7.7,2.2c-6.6,1.5-9.9,6.6-9.9,15.4c-6.6,2.9-11.7,2.6-15.4-1.1c-2.2,0.7-4,3.7-5.5,8.8
	c-2.2,2.9-5.5,3.7-9.9,2.2c0-3.7-2.6-6.2-7.7-7.7c-5.9-0.7-10.3-1.5-13.2-2.2c-9.5-2.2-17.2-7.7-23.1-16.5c-2.9,2.9-5.5,4.8-7.7,5.5
	c-5.1,1.5-10.3-0.4-15.4-5.5C81.1,133.9,79.3,131.3,78.5,129.1z M251.2,53.3v1.1l-1.1-1.1H251.2z M300.7,21.4l-14.3,148.4l4.4-66
	l1.1-18.7C291.9,85.2,300.7,21.4,300.7,21.4z M89.5,67.6c-2.2,3.7-2.9,8.1-2.2,13.2c0.7,5.1,2.6,9.5,5.5,13.2c2.9,2.9,6.2,4,9.9,3.3
	c3.7,0,6.2-2.2,7.7-6.6c2.9-4.4,3.7-8.8,2.2-13.2c-0.7-5.1-2.6-9.2-5.5-12.1c-2.9-3.7-6.2-5.1-9.9-4.4C93.6,61.7,91,63.9,89.5,67.6z
	 M106,122.6c2.2,5.1,7.3,6.9,15.4,5.5c2.2-10.3,1.1-16.5-3.3-18.7l-8.8-1.1c-2.2,0.7-3.7,2.9-4.4,6.6
	C104.2,117.8,104.6,120.4,106,122.6z M137.9,83c-12.5,6.6-15,16.1-7.7,28.6c6.6,13.2,16.9,17.2,30.8,12.1c6.6-1.5,8.8-10.3,6.6-26.4
	c-1.5-6.6-4.4-11-8.8-13.2c-2.2-0.7-6.9-1.1-14.3-1.1H137.9z"/>
<linearGradient id="path241_1_" gradientUnits="userSpaceOnUse" x1="-3909.1748" y1="3201.4546" x2="-3879.3096" y2="3201.4546" gradientTransform="matrix(-0.11 -0.994 0.994 -0.11 -3358.0591 -3468.6665)">
	<stop  offset="0" style="stop-color:#C1A064"/>
	<stop  offset="1" style="stop-color:#706341"/>
</linearGradient>
<path id="path241" inkscape:connector-curvature="0" class="st27" d="M251.2,54.4v-1.1l5.5,7.7h-1.1c-2.2-1.5-4-3.7-5.5-6.6
	C250.1,54.4,251.2,54.4,251.2,54.4z"/>
<path id="path243" inkscape:connector-curvature="0" class="st28" d="M81.8,167.6l-1.1-15.4l6.6,6.6c6.6,3.7,13.2,3.7,19.8,0
	l8.8,6.6c0.7,0,1.8,2.2,3.3,6.6c1.5,2.9,2.6,4.4,3.3,4.4s2.6,0.4,5.5,1.1c18.3,3.7,28.6,5.5,30.8,5.5c5.1,0,10.6-2.2,16.5-6.6
	c7.3,0,12.4-1.1,15.4-3.3l4.4-2.2l3.3-1.1l6.6-6.6c2.9,0.7,6.2,1.8,9.9,3.3c2.9,1.5,5.8,1.8,8.8,1.1c5.1-1.5,7-4.8,5.5-9.9
	c-0.7-3.7-1.1-7-1.1-9.9c2.2-2.2,4-4.8,5.5-7.7c3.7-3.7,5.5-6.9,5.5-9.9c-2.2-2.9-3.3-5.5-3.3-7.7c0-3.7,2.9-8.1,8.8-13.2
	c5.1-5.9,7.7-10.3,7.7-13.2c0-5.9-4-11.7-12.1-17.6c-4.4-5.1-8-8.8-11-11c-9.5-5.1-23.8-9.2-42.8-12.1h31.9c5.8,0,13.5,1.5,23.1,4.4
	c-0.7,3.7,2.9,5.9,11,6.6c8,0.7,13.9,0.4,17.6-1.1c5.1-2.9,7.7-11,7.7-24.2V40l3.3-1.1l3.3,12.1c0,3.7-1.1,9.2-3.3,16.5
	c-1.4,5.1-2.2,12.8-2.2,23.1c0,2.9-0.7,5.5-2.2,7.7l-5.5,7.7c-0.7,2.2-1.1,9.2-1.1,20.9c0,0.7,0.7,3.3,2.2,7.7
	c1.5,2.9,1.8,5.5,1.1,7.7c-1.5,8.8-4,14.7-7.7,17.6c-0.7,0.7-3.3,1.8-7.7,3.3c-2.9,0.7-4.8,2.6-5.5,5.5c-5.1,0-11,2.2-17.6,6.6
	c-8.8,5.9-13.9,8.8-15.4,8.8c-5.1,2.2-19.1,3.3-41.8,3.3c-14.7,0-25.7-0.7-33-2.2c-6.6,0-11.7-0.4-15.4-1.1
	c-8.1-4.4-13.9-6.6-17.6-6.6l-14.3-4.4c-5.9-2.9-10.3-4.8-13.2-5.5C84,167.6,81.8,167.6,81.8,167.6z M255.6,110.5h-7.7
	c-3.7,0.7-5.9,4-6.6,9.9c0,4.4,1.8,7,5.5,7.7c5.9,2.2,9.5,0.7,11-4.4C258.5,119.3,257.8,114.9,255.6,110.5z"/>
<path id="path245" inkscape:connector-curvature="0" class="st29" d="M300.7,21.4l-8.8,63.8c-3.7,0-5.5,3.7-5.5,11
	c1.5,4.4,2.9,7,4.4,7.7l-4.4,66c-2.2,5.1-8.4,9.9-18.7,14.3c-19,8.8-46.9,12.8-83.6,12.1c-14.6,0-28.2-0.7-40.7-2.2l-13.2-2.2
	c-23.5-5.1-39.6-13.2-48.4-24.2H84c2.9,0.7,7.3,2.6,13.2,5.5l14.3,4.4c3.7,0,9.5,2.2,17.6,6.6c3.7,0.7,8.8,1.1,15.4,1.1
	c7.3,1.5,18.3,2.2,33,2.2c22.7,0,36.7-1.1,41.8-3.3c1.5,0,6.6-2.9,15.4-8.8c6.6-4.4,12.4-6.6,17.6-6.6c0.7-2.9,2.6-4.8,5.5-5.5
	c4.4-1.5,6.9-2.6,7.7-3.3c3.7-2.9,6.2-8.8,7.7-17.6c0.7-2.2,0.4-4.8-1.1-7.7c-1.5-4.4-2.2-6.9-2.2-7.7c0-11.7,0.4-18.7,1.1-20.9
	l5.5-7.7c1.5-2.2,2.2-4.8,2.2-7.7c0-10.3,0.7-17.9,2.2-23.1c2.2-7.3,3.3-12.8,3.3-16.5L280.9,39C289.7,36.1,296.3,30.2,300.7,21.4z"
	/>
<linearGradient id="path252_1_" gradientUnits="userSpaceOnUse" x1="-6858.6289" y1="-473.7275" x2="-6847.6289" y2="-473.7275" gradientTransform="matrix(-1 0 0 -1 -6647.0425 -462.7775)">
	<stop  offset="0" style="stop-color:#C1A064"/>
	<stop  offset="1" style="stop-color:#706341"/>
</linearGradient>
<path id="path252" inkscape:connector-curvature="0" class="st30" d="M210.5,12.6h-11l1.1-3.3h3.3C206.8,9.3,209,10.4,210.5,12.6z"
	/>
<path id="path254" inkscape:connector-curvature="0" class="st31" d="M126.9,52.2c-15.4-3.7-28.6-7.7-39.6-12.1l-22-16.5
	c3.7,0,7,1.5,9.9,4.4c5.1,3.7,12.4,6.2,22,7.7l42.9,11c4.4,0.7,21.3,1.1,50.6,1.1h27.5c2.2-0.7,3.7-1.5,4.4-2.2s1.5-2.2,2.2-4.4
	c1.5-2.2,2.9-3.3,4.4-3.3c0,5.9,2.2,9.5,6.6,11c0.7,0.7,4.8,2.2,12.1,4.4l-88,1.1c-10.3-0.7-21.6-1.8-34.1-3.3
	C125.8,51.1,126.9,52.2,126.9,52.2z M70.8,62.1L69.7,61l-2.2-18.7L70.8,62.1z"/>
<linearGradient id="path261_1_" gradientUnits="userSpaceOnUse" x1="-3929.7649" y1="3162.2568" x2="-3904.3201" y2="3162.2568" gradientTransform="matrix(-0.108 -0.994 0.994 -0.108 -3351.4133 -3467.9993)">
	<stop  offset="0" style="stop-color:#C1A064"/>
	<stop  offset="1" style="stop-color:#706341"/>
</linearGradient>
<path id="path261" inkscape:connector-curvature="0" class="st32" d="M212.7,72h4.4c4.4,3.7,6.2,9.2,5.5,16.5c0,5.9-2.2,8.4-6.6,7.7
	c-4.4-1.5-7.3-5.5-8.8-12.1C205.7,76,207.5,72,212.7,72z"/>
<linearGradient id="path268_1_" gradientUnits="userSpaceOnUse" x1="-3988.3962" y1="3186.7278" x2="-3969.043" y2="3186.7278" gradientTransform="matrix(-0.114 -0.994 0.994 -0.114 -3371.3501 -3469.9993)">
	<stop  offset="0" style="stop-color:#C1A064"/>
	<stop  offset="1" style="stop-color:#706341"/>
</linearGradient>
<path id="path268" inkscape:connector-curvature="0" class="st33" d="M255.6,110.5c2.2,4.4,2.9,8.8,2.2,13.2
	c-1.5,5.1-5.1,6.6-11,4.4c-3.7-0.7-5.5-3.3-5.5-7.7c0.7-5.9,2.9-9.2,6.6-9.9C247.9,110.5,255.6,110.5,255.6,110.5z"/>
<linearGradient id="path275_1_" gradientUnits="userSpaceOnUse" x1="-3944.0034" y1="3236.3389" x2="-3923.5286" y2="3236.3389" gradientTransform="matrix(-0.107 -0.994 0.994 -0.107 -3348.0906 -3467.6643)">
	<stop  offset="0" style="stop-color:#C1A064"/>
	<stop  offset="1" style="stop-color:#706341"/>
</linearGradient>
<path id="path275" inkscape:connector-curvature="0" class="st34" d="M291.9,85.2l-1.1,18.7c-1.5-0.7-2.9-3.3-4.4-7.7
	C286.4,88.8,288.2,85.2,291.9,85.2z"/>
<linearGradient id="path282_1_" gradientUnits="userSpaceOnUse" x1="-4015.5225" y1="3009.7214" x2="-4002.7671" y2="3009.7214" gradientTransform="matrix(-0.129 -0.992 0.992 -0.129 -3421.8596 -3468.3599)">
	<stop  offset="0" style="stop-color:#C1A064"/>
	<stop  offset="1" style="stop-color:#706341"/>
</linearGradient>
<path id="path282" inkscape:connector-curvature="0" class="st35" d="M78.5,125.8l-1.1-11h1.1c4.4-0.7,6.2,2.6,5.5,9.9L78.5,125.8z"
	/>
<linearGradient id="path289_1_" gradientUnits="userSpaceOnUse" x1="-6842.3984" y1="-492.165" x2="-6808.8604" y2="-492.165" gradientTransform="matrix(-1 0 0 -1 -6647.0425 -462.7775)">
	<stop  offset="0" style="stop-color:#C1A064"/>
	<stop  offset="1" style="stop-color:#706341"/>
</linearGradient>
<path id="path289" inkscape:connector-curvature="0" class="st36" d="M166.5,25.8c3.7-0.7,8-0.7,13.2,0l12.1,2.2
	c-1.5,2.9-3.7,4.8-6.6,5.5l-26.4-1.1C158.1,28.7,160.6,26.5,166.5,25.8z"/>
<linearGradient id="path296_1_" gradientUnits="userSpaceOnUse" x1="-6814.0947" y1="-479.2275" x2="-6764.6123" y2="-479.2275" gradientTransform="matrix(-1 0 0 -1 -6647.0425 -462.7775)">
	<stop  offset="0" style="stop-color:#C1A064"/>
	<stop  offset="1" style="stop-color:#706341"/>
</linearGradient>
<path id="path296" inkscape:connector-curvature="0" class="st37" d="M145.6,10.4h11c2.9,0,4.4,1.5,4.4,4.4c0,1.5-1.1,3.3-3.3,5.5
	c-2.2,1.5-6.6,2.2-13.2,2.2c-17.6,0-27.9-0.4-30.8-1.1C113,14.1,123.6,10.4,145.6,10.4z"/>
<linearGradient id="path303_1_" gradientUnits="userSpaceOnUse" x1="-3939.5737" y1="3042.8877" x2="-3900.8455" y2="3042.8877" gradientTransform="matrix(-0.114 -0.994 0.994 -0.114 -3371.3501 -3469.9993)">
	<stop  offset="0" style="stop-color:#C1A064"/>
	<stop  offset="1" style="stop-color:#706341"/>
</linearGradient>
<path id="path303" inkscape:connector-curvature="0" class="st38" d="M89.5,67.6c1.5-3.7,4-5.9,7.7-6.6c3.7-0.7,6.9,0.7,9.9,4.4
	c2.9,2.9,4.8,7,5.5,12.1c1.5,4.4,0.7,8.8-2.2,13.2c-1.5,4.4-4,6.6-7.7,6.6c-3.7,0.7-7-0.4-9.9-3.3c-2.9-3.7-4.8-8.1-5.5-13.2
	C86.6,75.6,87.3,71.2,89.5,67.6z"/>
<linearGradient id="path310_1_" gradientUnits="userSpaceOnUse" x1="-3986.8784" y1="3050.9316" x2="-3963.6326" y2="3050.9316" gradientTransform="matrix(-0.118 -0.993 0.993 -0.118 -3384.9751 -3468.0122)">
	<stop  offset="0" style="stop-color:#C1A064"/>
	<stop  offset="1" style="stop-color:#706341"/>
</linearGradient>
<path id="path310" inkscape:connector-curvature="0" class="st39" d="M106,122.6c-1.5-2.2-1.8-4.8-1.1-7.7c0.7-3.7,2.2-5.9,4.4-6.6
	l8.8,1.1c4.4,2.2,5.5,8.4,3.3,18.7C113.3,129.5,108.2,127.7,106,122.6z"/>
<linearGradient id="path317_1_" gradientUnits="userSpaceOnUse" x1="-3988.22" y1="3086.3494" x2="-3941.7065" y2="3086.3494" gradientTransform="matrix(-0.118 -0.993 0.993 -0.118 -3384.9751 -3468.0122)">
	<stop  offset="0" style="stop-color:#C1A064"/>
	<stop  offset="1" style="stop-color:#706341"/>
</linearGradient>
<path id="path317" inkscape:connector-curvature="0" class="st40" d="M137.9,83h6.6c7.3,0,12.1,0.4,14.3,1.1
	c4.4,2.2,7.3,6.6,8.8,13.2c2.2,16.1,0,24.9-6.6,26.4c-13.9,5.1-24.2,1.1-30.8-12.1C122.9,99.1,125.4,89.6,137.9,83z"/>
<linearGradient id="path324_1_" gradientUnits="userSpaceOnUse" x1="-3973.9766" y1="3130.2944" x2="-3957.3945" y2="3130.2944" gradientTransform="matrix(-0.1 -0.995 0.995 -0.1 -3324.4973 -3468.6526)">
	<stop  offset="0" style="stop-color:#C1A064"/>
	<stop  offset="1" style="stop-color:#706341"/>
</linearGradient>
<path id="path324" inkscape:connector-curvature="0" class="st41" d="M184.1,155.5l4.4,4.4c2.9,2.2,4.8,3.7,5.5,4.4
	c-3.7,6.6-7.7,8.4-12.1,5.5C178.2,166.9,178.9,162.1,184.1,155.5z"/>
<linearGradient id="path331_1_" gradientUnits="userSpaceOnUse" x1="-4006.1165" y1="3149.3201" x2="-3992.2834" y2="3149.3201" gradientTransform="matrix(-0.119 -0.993 0.993 -0.119 -3388.2979 -3468.3467)">
	<stop  offset="0" style="stop-color:#C1A064"/>
	<stop  offset="1" style="stop-color:#706341"/>
</linearGradient>
<path id="path331" inkscape:connector-curvature="0" class="st42" d="M211.6,134.6c-1.5-6.6-1.1-11,1.1-13.2l2.2,3.3
	c4.4,0.7,5.5,4,3.3,9.9C218.2,134.6,211.6,134.6,211.6,134.6z"/>
<linearGradient id="path352_1_" gradientUnits="userSpaceOnUse" x1="879.7113" y1="1207.5087" x2="1238.8878" y2="1207.5087" gradientTransform="matrix(0.85 5.000000e-03 0 0.85 -714.3 -456.6915)">
	<stop  offset="0" style="stop-color:#F8ECC6"/>
	<stop  offset="8.000000e-03" style="stop-color:#F7EBC5"/>
	<stop  offset="0.196" style="stop-color:#DFD3AB"/>
	<stop  offset="0.365" style="stop-color:#D1C49B"/>
	<stop  offset="0.498" style="stop-color:#CCBF95"/>
	<stop  offset="0.624" style="stop-color:#D0C49B"/>
	<stop  offset="0.78" style="stop-color:#DDD1AA"/>
	<stop  offset="0.957" style="stop-color:#F2E7C4"/>
	<stop  offset="1" style="stop-color:#F8EDCB"/>
</linearGradient>
<path id="path352" inkscape:connector-curvature="0" class="st43" d="M46.7,431l38.4,9.3c32.4,6.9,66,10.6,100.9,11.2
	c55.4-0.6,101.6-6.9,138.3-18.7l14,239.3l-19.6,20.6C294.5,707,255.1,715.1,201,717l-5.5,1.1h-18.7l-6.6-0.9
	C116,714.7,76.7,706,52.5,691L33,670.5l14-239.3L46.7,431z"/>
<g>
	<path id="imagebot_25_1_" class="st44" d="M273.4,490.6c2.1-3.7,0.5-12.2,0.5-12.2s-3.9,1.4-7.1,3.5c-2.5-2.8-6-5.1-6-5.1
		s-1.8,3.7-2.5,7.4c-3.7-0.2-8,0.7-8,0.7s1.4,3.9,3.5,7.1c-2.8,2.5-5.3,6-5.3,6s3.7,1.8,7.4,2.5c-0.2,3.7,0.5,8,0.5,8
		s9-3.4,10.4-7.3c0.9-2.5,0.2-6.4-1.9-7.6c0,0,0,0,0-0.2c0,0,0,0,0-0.2c0,0,0,0,0.2,0c0,0,0.2,0,0.2,0.2c2.3,1.2,6-0.2,7.6-2.1
		C273,490.9,273.2,490.8,273.4,490.6L273.4,490.6z"/>
	<g id="imagebot_177_1_" transform="translate(0 2.44141) matrix(1 0 0 1 -4.88281 0)" class="st45">
		<path id="imagebot_40_1_" class="st46" d="M261.8,531.6c0,0,20.9-14,38.2-1.8c17.4,12.2,17,16.8,15.4,32
			c-1.6,15.2,6.4,19.1,6.4,19.1"/>
		<path id="imagebot_22_1_" class="st46" d="M289.4,524.7c0,0-0.7-8.3-5.3-17.5c-4.6-9.2-14.9-17-14.9-17"/>
		<path id="imagebot_19_1_" class="st46" d="M286.6,511.1c0,0,2.1,5.3,11.5,2.8c9.4-2.5,6.6-16.1,6.6-16.1"/>
	</g>
	<path id="imagebot_28_1_" class="st44" d="M305.9,505.5c4.1,0,10.1-5.5,10.1-5.5s-3-2.5-6.2-3.9c1.1-3.4,1.2-7.3,1.2-7.3
		s-3.9,0.4-7.3,1.6c-1.6-3.2-4.2-6-4.2-6s-2.5,3-3.9,6.2c-3.4-1.1-7.4-1.2-7.4-1.2s0.4,3.9,1.6,7.1c-3.2,1.6-6.2,4.2-6.2,4.2
		s6.9,5.7,11,5c2.5-0.5,5.1-2.8,5.1-5.3l0,0c0,0,0,0,0.2,0l0,0v0.2c0,2.5,3,4.8,5.5,5.1C305.6,505.5,305.8,505.5,305.9,505.5
		L305.9,505.5z"/>
	<path id="imagebot_12_1_" class="st47" d="M303.5,503c2.1,0,5.5-3,5.5-3s-1.6-1.4-3.4-2.1c0.5-1.8,0.7-4.1,0.7-4.1
		s-2.1,0.2-3.9,0.9c-0.9-1.8-2.3-3.4-2.3-3.4s-1.4,1.6-2.1,3.4c-1.8-0.5-4.1-0.7-4.1-0.7s0.2,2.1,0.9,3.9c-1.8,0.9-3.4,2.3-3.4,2.3
		s3.7,3,6,2.7c1.2-0.2,2.8-1.6,2.8-2.8l0,0l0,0l0,0c0,0,0,0,0,0.2c0,1.4,1.6,2.5,3,2.8C303.3,503,303.5,503,303.5,503L303.5,503z"/>
	<g id="imagebot_156_1_">
		
			<linearGradient id="imagebot_136_2_" gradientUnits="userSpaceOnUse" x1="-1573.9275" y1="276.3558" x2="-1574.1365" y2="276.5646" gradientTransform="matrix(66.315 107.6982 -107.4637 66.1707 134262.8281 151830.1719)">
			<stop  offset="0" style="stop-color:#007F00;stop-opacity:0.9961"/>
			<stop  offset="1" style="stop-color:#AAFFAA;stop-opacity:0.9961"/>
		</linearGradient>
		<path id="imagebot_136_1_" class="st48" d="M173,616.5c-7.3,0.9-13.8-4.4-14.5-11.7c-0.9-7.3,4.4-13.8,11.7-14.5
			c7.3-0.9,13.8,4.4,14.5,11.7C185.4,609.2,180.2,615.8,173,616.5z"/>
		
			<linearGradient id="imagebot_134_2_" gradientUnits="userSpaceOnUse" x1="-1573.5886" y1="276.7156" x2="-1573.7974" y2="276.9244" gradientTransform="matrix(66.315 107.6982 -107.4638 66.1707 134283.2969 151754.0938)">
			<stop  offset="0" style="stop-color:#007F00;stop-opacity:0.9961"/>
			<stop  offset="1" style="stop-color:#AAFFAA;stop-opacity:0.9961"/>
		</linearGradient>
		<path id="imagebot_134_1_" class="st49" d="M177.2,600.7c-7.3,0.9-13.8-4.4-14.5-11.7c-0.9-7.3,4.4-13.8,11.7-14.5
			c7.3-0.9,13.8,4.4,14.5,11.7C189.6,593.3,184.5,599.8,177.2,600.7z"/>
		
			<linearGradient id="imagebot_132_2_" gradientUnits="userSpaceOnUse" x1="-1576.5945" y1="272.103" x2="-1576.8031" y2="272.3117" gradientTransform="matrix(14.203 125.7262 -125.2977 14.1546 56685.3945 194951.6719)">
			<stop  offset="0" style="stop-color:#007F00;stop-opacity:0.9961"/>
			<stop  offset="1" style="stop-color:#AAFFAA;stop-opacity:0.9961"/>
		</linearGradient>
		<path id="imagebot_132_1_" class="st50" d="M186.1,585.5c-7.3,0.9-13.8-4.4-14.5-11.7c-0.9-7.3,4.4-13.8,11.7-14.5
			c7.3-0.9,13.8,4.4,14.5,11.7l0,0C198.5,578,193.3,584.6,186.1,585.5L186.1,585.5z"/>
		
			<linearGradient id="imagebot_130_2_" gradientUnits="userSpaceOnUse" x1="-1573.1309" y1="277.6132" x2="-1573.3395" y2="277.822" gradientTransform="matrix(66.315 107.6981 -107.4637 66.1707 134366.8125 151616.375)">
			<stop  offset="0" style="stop-color:#007F00;stop-opacity:0.9961"/>
			<stop  offset="1" style="stop-color:#AAFFAA;stop-opacity:0.9961"/>
		</linearGradient>
		<path id="imagebot_130_1_" class="st51" d="M194.7,571.8c-7.3,0.9-13.8-4.4-14.5-11.7c-0.9-7.3,4.4-13.8,11.7-14.5
			c7.3-0.9,13.8,4.4,14.5,11.7C207.1,564.6,201.8,571.1,194.7,571.8z"/>
		
			<linearGradient id="imagebot_128_2_" gradientUnits="userSpaceOnUse" x1="-1576.0144" y1="272.7553" x2="-1576.2231" y2="272.9641" gradientTransform="matrix(14.203 125.7262 -125.2976 14.1545 56778.3984 194847.8438)">
			<stop  offset="0" style="stop-color:#007F00;stop-opacity:0.9961"/>
			<stop  offset="1" style="stop-color:#AAFFAA;stop-opacity:0.9961"/>
		</linearGradient>
		<path id="imagebot_128_1_" class="st52" d="M205.5,563.7c-7.3,0.9-13.8-4.4-14.5-11.7c-0.9-7.3,4.4-13.8,11.7-14.5
			c7.3-0.7,13.8,4.4,14.5,11.7l0,0C217.9,556.3,212.8,562.8,205.5,563.7L205.5,563.7z"/>
		
			<linearGradient id="imagebot_126_2_" gradientUnits="userSpaceOnUse" x1="-1575.6415" y1="273.0582" x2="-1575.8505" y2="273.2669" gradientTransform="matrix(14.203 125.7262 -125.2976 14.1545 56819.5938 194783.2344)">
			<stop  offset="0" style="stop-color:#007F00;stop-opacity:0.9961"/>
			<stop  offset="1" style="stop-color:#AAFFAA;stop-opacity:0.9961"/>
		</linearGradient>
		<path id="imagebot_126_1_" class="st53" d="M214,550.2c-7.3,0.9-13.8-4.4-14.5-11.7c-0.9-7.3,4.4-13.8,11.7-14.5
			c7.3-0.9,13.8,4.4,14.5,11.7l0,0C226.6,542.8,221.3,549.4,214,550.2L214,550.2z"/>
		
			<linearGradient id="imagebot_124_2_" gradientUnits="userSpaceOnUse" x1="-1574.1887" y1="275.873" x2="-1574.3976" y2="276.082" gradientTransform="matrix(66.315 107.6982 -107.4637 66.1707 134219.1562 151906.1562)">
			<stop  offset="0" style="stop-color:#007F00;stop-opacity:0.9961"/>
			<stop  offset="1" style="stop-color:#AAFFAA;stop-opacity:0.9961"/>
		</linearGradient>
		<path id="imagebot_124_1_" class="st54" d="M163.9,632.4c-7.3,0.9-13.8-4.4-14.5-11.7c-0.9-7.3,4.4-13.8,11.7-14.5
			c7.3-0.9,13.8,4.4,14.5,11.7C176.3,625,171,631.5,163.9,632.4z"/>
		
			<linearGradient id="imagebot_122_2_" gradientUnits="userSpaceOnUse" x1="-1577.7208" y1="271.7934" x2="-1577.9298" y2="272.0021" gradientTransform="matrix(14.203 125.7262 -125.2976 14.1545 56656.6641 195136.2656)">
			<stop  offset="0" style="stop-color:#007F00;stop-opacity:0.9961"/>
			<stop  offset="1" style="stop-color:#AAFFAA;stop-opacity:0.9961"/>
		</linearGradient>
		<path id="imagebot_122_1_" class="st55" d="M180.1,623.9c-7.3,0.9-13.8-4.4-14.5-11.7c-0.9-7.3,4.4-13.8,11.7-14.5
			c7.3-0.7,13.8,4.4,14.5,11.7l0,0C192.4,616.6,187.3,623.2,180.1,623.9L180.1,623.9z"/>
		
			<linearGradient id="imagebot_120_2_" gradientUnits="userSpaceOnUse" x1="-1577.1157" y1="272.131" x2="-1577.3245" y2="272.3398" gradientTransform="matrix(14.203 125.7262 -125.2977 14.1546 56699.2227 195033.9062)">
			<stop  offset="0" style="stop-color:#007F00;stop-opacity:0.9961"/>
			<stop  offset="1" style="stop-color:#AAFFAA;stop-opacity:0.9961"/>
		</linearGradient>
		<path id="imagebot_120_1_" class="st56" d="M189.1,602.7c-7.3,0.9-13.8-4.4-14.5-11.7c-0.9-7.3,4.4-13.8,11.7-14.5
			c7.3-0.9,13.8,4.4,14.5,11.7l0,0C201.5,595.2,196.2,601.8,189.1,602.7L189.1,602.7z"/>
		
			<linearGradient id="imagebot_118_2_" gradientUnits="userSpaceOnUse" x1="-1576.7434" y1="272.4326" x2="-1576.9521" y2="272.6413" gradientTransform="matrix(14.203 125.7262 -125.2976 14.1545 56740.3828 194969.3906)">
			<stop  offset="0" style="stop-color:#007F00;stop-opacity:0.9961"/>
			<stop  offset="1" style="stop-color:#AAFFAA;stop-opacity:0.9961"/>
		</linearGradient>
		<path id="imagebot_118_1_" class="st57" d="M197.6,589c-7.3,0.9-13.8-4.4-14.5-11.7c-0.9-7.3,4.4-13.8,11.7-14.5
			c7.3-0.9,13.8,4.4,14.5,11.7l0,0C210,581.8,204.8,588.3,197.6,589L197.6,589z"/>
		
			<linearGradient id="imagebot_116_2_" gradientUnits="userSpaceOnUse" x1="-1574.5016" y1="276.8024" x2="-1574.7106" y2="277.0114" gradientTransform="matrix(66.3152 107.6985 -107.4639 66.1708 134372.0156 151871.5938)">
			<stop  offset="0" style="stop-color:#007F00;stop-opacity:0.9961"/>
			<stop  offset="1" style="stop-color:#AAFFAA;stop-opacity:0.9961"/>
		</linearGradient>
		<path id="imagebot_116_1_" class="st58" d="M195.6,625.1c-7.3,0.9-13.8-4.4-14.5-11.7c-0.9-7.3,4.4-13.8,11.7-14.5
			c7.3-0.9,13.8,4.4,14.5,11.7l0,0C208,617.7,202.9,624.3,195.6,625.1L195.6,625.1z"/>
		
			<linearGradient id="imagebot_114_2_" gradientUnits="userSpaceOnUse" x1="-1577.4705" y1="272.2974" x2="-1577.6793" y2="272.5063" gradientTransform="matrix(14.203 125.7262 -125.2976 14.1545 56732.0703 195087.375)">
			<stop  offset="0" style="stop-color:#007F00;stop-opacity:0.9961"/>
			<stop  offset="1" style="stop-color:#AAFFAA;stop-opacity:0.9961"/>
		</linearGradient>
		<path id="imagebot_114_1_" class="st59" d="M195.8,613.6c-7.3,0.9-13.8-4.4-14.5-11.7c-0.9-7.3,4.4-13.8,11.7-14.5
			c7.3-0.9,13.8,4.4,14.5,11.7l0,0C208.2,606.4,203.1,612.9,195.8,613.6L195.8,613.6z"/>
		
			<linearGradient id="imagebot_112_2_" gradientUnits="userSpaceOnUse" x1="-1574.646" y1="277.3389" x2="-1574.8547" y2="277.5477" gradientTransform="matrix(66.3152 107.6985 -107.464 66.1708 134457.0312 151846.2969)">
			<stop  offset="0" style="stop-color:#007F00;stop-opacity:0.9961"/>
			<stop  offset="1" style="stop-color:#AAFFAA;stop-opacity:0.9961"/>
		</linearGradient>
		<path id="imagebot_112_1_" class="st60" d="M213.5,619.8c-7.3,0.9-13.8-4.4-14.5-11.7c-0.9-7.3,4.4-13.8,11.7-14.5
			c7.3-0.9,13.8,4.4,14.5,11.7l0,0C225.9,612.4,220.6,618.9,213.5,619.8L213.5,619.8z"/>
		
			<linearGradient id="imagebot_110_2_" gradientUnits="userSpaceOnUse" x1="-1574.7512" y1="278.0197" x2="-1574.96" y2="278.2284" gradientTransform="matrix(66.3152 107.6985 -107.464 66.1708 134558.2812 151803.5625)">
			<stop  offset="0" style="stop-color:#007F00;stop-opacity:0.9961"/>
			<stop  offset="1" style="stop-color:#AAFFAA;stop-opacity:0.9961"/>
		</linearGradient>
		<path id="imagebot_110_1_" class="st61" d="M234.6,610.8c-7.3,0.9-13.8-4.4-14.5-11.7c-0.7-7.3,4.4-13.8,11.7-14.5
			c7.3-0.9,13.8,4.4,14.5,11.7l0,0C247,603.5,241.8,610.1,234.6,610.8L234.6,610.8z"/>
		
			<linearGradient id="imagebot_108_2_" gradientUnits="userSpaceOnUse" x1="-1577.3209" y1="273.1107" x2="-1577.5297" y2="273.3195" gradientTransform="matrix(14.203 125.7262 -125.2977 14.1546 56858.1211 195048.9531)">
			<stop  offset="0" style="stop-color:#007F00;stop-opacity:0.9961"/>
			<stop  offset="1" style="stop-color:#AAFFAA;stop-opacity:0.9961"/>
		</linearGradient>
		<path id="imagebot_108_1_" class="st62" d="M222.2,605.7c-7.3,0.9-13.8-4.4-14.5-11.7c-0.9-7.3,4.4-13.8,11.7-14.5
			c7.3-0.9,13.8,4.4,14.5,11.7l0,0C234.6,598.4,229.4,605,222.2,605.7L222.2,605.7z"/>
		
			<linearGradient id="imagebot_106_2_" gradientUnits="userSpaceOnUse" x1="-1577.0903" y1="272.7709" x2="-1577.299" y2="272.9796" gradientTransform="matrix(14.203 125.7262 -125.2977 14.1546 56800.0977 195018.4219)">
			<stop  offset="0" style="stop-color:#007F00;stop-opacity:0.9961"/>
			<stop  offset="1" style="stop-color:#AAFFAA;stop-opacity:0.9961"/>
		</linearGradient>
		<path id="imagebot_106_1_" class="st63" d="M210,599.3c-7.3,0.9-13.8-4.4-14.5-11.7c-0.9-7.3,4.4-13.8,11.7-14.5
			c7.3-0.9,13.8,4.4,14.5,11.7l0,0C222.5,592,217.2,598.6,210,599.3L210,599.3z"/>
		
			<linearGradient id="imagebot_104_2_" gradientUnits="userSpaceOnUse" x1="-1576.5353" y1="272.7844" x2="-1576.7443" y2="272.993" gradientTransform="matrix(14.203 125.7262 -125.2977 14.1546 56792.2617 194930.0312)">
			<stop  offset="0" style="stop-color:#007F00;stop-opacity:0.9961"/>
			<stop  offset="1" style="stop-color:#AAFFAA;stop-opacity:0.9961"/>
		</linearGradient>
		<path id="imagebot_104_1_" class="st64" d="M208.4,580.9c-7.3,0.9-13.8-4.4-14.5-11.7c-0.9-7.3,4.4-13.8,11.7-14.5
			c7.3-0.9,13.8,4.4,14.5,11.7l0,0C220.8,573.6,215.6,580,208.4,580.9L208.4,580.9z"/>
		
			<linearGradient id="imagebot_102_2_" gradientUnits="userSpaceOnUse" x1="-1573.3652" y1="278.2561" x2="-1573.574" y2="278.4648" gradientTransform="matrix(66.315 107.6982 -107.4637 66.1706 134473.875 151594.875)">
			<stop  offset="0" style="stop-color:#007F00;stop-opacity:0.9961"/>
			<stop  offset="1" style="stop-color:#AAFFAA;stop-opacity:0.9961"/>
		</linearGradient>
		<path id="imagebot_102_1_" class="st65" d="M217.1,567.4c-7.3,0.9-13.8-4.4-14.5-11.7c-0.9-7.3,4.4-13.8,11.7-14.5
			c7.3-0.9,13.8,4.4,14.5,11.7C229.4,560,224.3,566.5,217.1,567.4z"/>
		
			<linearGradient id="imagebot_100_2_" gradientUnits="userSpaceOnUse" x1="-1573.9924" y1="278.1772" x2="-1574.2014" y2="278.3859" gradientTransform="matrix(66.3152 107.6985 -107.4639 66.1708 134516.0938 151687.2031)">
			<stop  offset="0" style="stop-color:#007F00;stop-opacity:0.9961"/>
			<stop  offset="1" style="stop-color:#AAFFAA;stop-opacity:0.9961"/>
		</linearGradient>
		<path id="imagebot_100_1_" class="st66" d="M225.7,586.5c-7.3,0.9-13.8-4.4-14.5-11.7c-0.9-7.3,4.4-13.8,11.7-14.5
			c7.3-0.9,13.8,4.4,14.5,11.7l0,0C238.1,579.3,233,585.8,225.7,586.5L225.7,586.5z"/>
		
			<linearGradient id="imagebot_98_2_" gradientUnits="userSpaceOnUse" x1="-1574.4625" y1="278.505" x2="-1574.6715" y2="278.7138" gradientTransform="matrix(66.3152 107.6985 -107.4639 66.1707 134599.9844 151723.9531)">
			<stop  offset="0" style="stop-color:#007F00;stop-opacity:0.9961"/>
			<stop  offset="1" style="stop-color:#AAFFAA;stop-opacity:0.9961"/>
		</linearGradient>
		<path id="imagebot_98_1_" class="st67" d="M243.3,594.3c-7.3,0.9-13.8-4.4-14.5-11.7c-0.9-7.3,4.4-13.8,11.7-14.5
			c7.3-0.9,13.8,4.4,14.5,11.7l0,0C255.7,586.9,250.5,593.4,243.3,594.3L243.3,594.3z"/>
		
			<linearGradient id="imagebot_96_2_" gradientUnits="userSpaceOnUse" x1="-1575.3512" y1="273.587" x2="-1575.5599" y2="273.7958" gradientTransform="matrix(14.203 125.7262 -125.2976 14.1546 56898.0781 194727.4219)">
			<stop  offset="0" style="stop-color:#007F00;stop-opacity:0.9961"/>
			<stop  offset="1" style="stop-color:#AAFFAA;stop-opacity:0.9961"/>
		</linearGradient>
		<path id="imagebot_96_1_" class="st68" d="M230.5,538.6c-7.3,0.9-13.8-4.4-14.5-11.7c-0.9-7.3,4.4-13.8,11.7-14.5
			c7.3-0.9,13.8,4.4,14.5,11.7l0,0C242.9,531.3,237.8,537.9,230.5,538.6L230.5,538.6z"/>
		
			<linearGradient id="imagebot_84_2_" gradientUnits="userSpaceOnUse" x1="-1575.8378" y1="273.4409" x2="-1576.0464" y2="273.6495" gradientTransform="matrix(14.203 125.7262 -125.2977 14.1546 56883.6523 194807.4844)">
			<stop  offset="0" style="stop-color:#007F00;stop-opacity:0.9961"/>
			<stop  offset="1" style="stop-color:#AAFFAA;stop-opacity:0.9961"/>
		</linearGradient>
		<path id="imagebot_84_1_" class="st69" d="M227.5,555.4c-7.3,0.9-13.8-4.4-14.5-11.7c-0.9-7.3,4.4-13.8,11.7-14.5
			c7.3-0.7,13.8,4.4,14.5,11.7l0,0C239.9,547.9,234.8,554.5,227.5,555.4L227.5,555.4z"/>
		
			<linearGradient id="imagebot_78_2_" gradientUnits="userSpaceOnUse" x1="-1576.4308" y1="273.5314" x2="-1576.6394" y2="273.7401" gradientTransform="matrix(14.203 125.7262 -125.2975 14.1545 56908.6719 194900.0938)">
			<stop  offset="0" style="stop-color:#007F00;stop-opacity:0.9961"/>
			<stop  offset="1" style="stop-color:#AAFFAA;stop-opacity:0.9961"/>
		</linearGradient>
		<path id="imagebot_78_1_" class="st70" d="M232.8,574.7c-7.3,0.9-13.8-4.4-14.5-11.7c-0.9-7.3,4.4-13.8,11.7-14.5
			c7.3-0.7,13.8,4.4,14.5,11.7l0,0C245.2,567.2,239.9,573.8,232.8,574.7L232.8,574.7z"/>
		
			<linearGradient id="imagebot_72_2_" gradientUnits="userSpaceOnUse" x1="-1574.0836" y1="278.9506" x2="-1574.2926" y2="279.1593" gradientTransform="matrix(66.3152 107.6985 -107.4639 66.1708 134628.6875 151635.0156)">
			<stop  offset="0" style="stop-color:#007F00;stop-opacity:0.9961"/>
			<stop  offset="1" style="stop-color:#AAFFAA;stop-opacity:0.9961"/>
		</linearGradient>
		<path id="imagebot_72_1_" class="st71" d="M249.3,575.7c-7.3,0.9-13.8-4.4-14.5-11.7c-0.9-7.3,4.4-13.8,11.7-14.5
			c7.3-0.9,13.8,4.4,14.5,11.7l0,0C261.7,568.3,256.5,574.9,249.3,575.7L249.3,575.7z"/>
		
			<linearGradient id="imagebot_66_2_" gradientUnits="userSpaceOnUse" x1="-1577.3384" y1="274.09" x2="-1577.5471" y2="274.2988" gradientTransform="matrix(14.203 125.7262 -125.2976 14.1546 57013.4062 195034.2344)">
			<stop  offset="0" style="stop-color:#007F00;stop-opacity:0.9961"/>
			<stop  offset="1" style="stop-color:#AAFFAA;stop-opacity:0.9961"/>
		</linearGradient>
		<path id="imagebot_66_1_" class="st72" d="M254.6,602.7c-7.3,0.9-13.8-4.4-14.5-11.7c-0.9-7.3,4.4-13.8,11.7-14.5
			c7.3-0.9,13.8,4.4,14.5,11.7l0,0C267,595.2,261.8,601.8,254.6,602.7L254.6,602.7z"/>
		
			<linearGradient id="imagebot_60_2_" gradientUnits="userSpaceOnUse" x1="-1576.8607" y1="274.3705" x2="-1577.0693" y2="274.5791" gradientTransform="matrix(14.203 125.7262 -125.2976 14.1545 57049.4219 194953.2969)">
			<stop  offset="0" style="stop-color:#007F00;stop-opacity:0.9961"/>
			<stop  offset="1" style="stop-color:#AAFFAA;stop-opacity:0.9961"/>
		</linearGradient>
		<path id="imagebot_60_1_" class="st73" d="M262.2,585.7c-7.3,0.9-13.8-4.4-14.5-11.7c-0.9-7.3,4.4-13.8,11.7-14.5
			c7.3-0.9,13.8,4.4,14.5,11.7l0,0C274.6,578.4,269.3,584.9,262.2,585.7L262.2,585.7z"/>
		
			<linearGradient id="imagebot_54_2_" gradientUnits="userSpaceOnUse" x1="-1576.2736" y1="274.5436" x2="-1576.4824" y2="274.7526" gradientTransform="matrix(14.203 125.7262 -125.2976 14.1545 57066.2266 194857.0781)">
			<stop  offset="0" style="stop-color:#007F00;stop-opacity:0.9961"/>
			<stop  offset="1" style="stop-color:#AAFFAA;stop-opacity:0.9961"/>
		</linearGradient>
		<path id="imagebot_54_1_" class="st74" d="M265.6,565.6c-7.3,0.9-13.8-4.4-14.5-11.7c-0.9-7.3,4.4-13.8,11.7-14.5
			c7.3-0.9,13.8,4.4,14.5,11.7l0,0C278,558.2,272.8,564.8,265.6,565.6L265.6,565.6z"/>
		
			<linearGradient id="imagebot_48_2_" gradientUnits="userSpaceOnUse" x1="-1575.4553" y1="274.288" x2="-1575.6641" y2="274.497" gradientTransform="matrix(14.203 125.7262 -125.2975 14.1545 57010.9766 194731.5938)">
			<stop  offset="0" style="stop-color:#007F00;stop-opacity:0.9961"/>
			<stop  offset="1" style="stop-color:#AAFFAA;stop-opacity:0.9961"/>
		</linearGradient>
		<path id="imagebot_48_1_" class="st75" d="M254.1,539.4c-7.3,0.9-13.8-4.4-14.5-11.7c-0.9-7.3,4.4-13.8,11.7-14.5
			c7.3-0.7,13.8,4.4,14.5,11.7l0,0C266.5,532,261.3,538.6,254.1,539.4L254.1,539.4z"/>
		
			<linearGradient id="imagebot_34_2_" gradientUnits="userSpaceOnUse" x1="-1573.7438" y1="279.828" x2="-1573.9526" y2="280.0368" gradientTransform="matrix(66.3152 107.6985 -107.4639 66.1708 134719.4062 151515.3906)">
			<stop  offset="0" style="stop-color:#007F00;stop-opacity:0.9961"/>
			<stop  offset="1" style="stop-color:#AAFFAA;stop-opacity:0.9961"/>
		</linearGradient>
		<path id="imagebot_34_1_" class="st76" d="M268.2,550.8c-7.3,0.9-13.8-4.4-14.5-11.7c-0.7-7.3,4.4-13.8,11.7-14.5
			c7.3-0.9,13.8,4.4,14.5,11.7l0,0C280.6,543.3,275.5,549.9,268.2,550.8L268.2,550.8z"/>
		
			<linearGradient id="imagebot_10_2_" gradientUnits="userSpaceOnUse" x1="-1573.5211" y1="279.2681" x2="-1573.7299" y2="279.4768" gradientTransform="matrix(66.3152 107.6985 -107.4639 66.1708 134624.6719 151531.8281)">
			<stop  offset="0" style="stop-color:#007F00;stop-opacity:0.9961"/>
			<stop  offset="1" style="stop-color:#AAFFAA;stop-opacity:0.9961"/>
		</linearGradient>
		<path id="imagebot_10_1_" class="st77" d="M248.4,554.1c-7.3,0.9-13.8-4.4-14.5-11.7c-0.9-7.3,4.4-13.8,11.7-14.5
			c7.3-0.9,13.8,4.4,14.5,11.7l0,0C260.8,546.9,255.7,553.3,248.4,554.1L248.4,554.1z"/>
	</g>
	<path id="imagebot_16_1_" class="st78" d="M269.3,491.1c1.2-1.9,0.4-6.7,0.4-6.7s-2.1,0.7-3.9,1.9c-1.4-1.6-3.4-2.8-3.4-2.8
		s-1.1,2.1-1.4,4.1c-2.1-0.2-4.4,0.4-4.4,0.4s0.7,2.1,1.9,3.9c-1.6,1.4-2.8,3.4-2.8,3.4s2.1,0.9,4.1,1.4c-0.2,2.1,0.4,4.4,0.4,4.4
		s5-1.8,5.8-4.1c0.5-1.4,0.2-3.4-1.1-4.1l0,0l0,0l0,0l0,0c1.2,0.7,3.2,0,4.2-1.2C269.3,491.3,269.3,491.3,269.3,491.1L269.3,491.1z"
		/>
</g>
<g>
	<path id="imagebot_25" class="st44" d="M95.1,539c-2.1-3.7-0.5-12.2-0.5-12.2s3.9,1.4,7.1,3.5c2.5-2.8,6-5.3,6-5.3s1.8,3.7,2.5,7.4
		c3.7-0.2,8,0.5,8,0.5s-1.4,3.9-3.4,7.1c2.8,2.5,5.3,6,5.3,6s-3.7,1.8-7.4,2.5c0.4,3.7-0.5,8-0.5,8s-9-3.2-10.4-7.1
		c-0.9-2.5-0.4-6.2,1.9-7.6c0,0,0,0,0-0.2c0,0,0,0,0-0.2c0,0,0,0-0.2,0c0,0-0.2,0-0.2,0.2c-2.3,1.2-5.8,0-7.6-2.1
		C95.3,539.4,95.3,539.2,95.1,539L95.1,539z"/>
	<g id="imagebot_177" transform="translate(0 2.44141) matrix(1 0 0 1 -4.88281 0)" class="st45">
		<path id="imagebot_40" class="st46" d="M116.6,579.7c0,0-20.9-13.6-38.1-1.4c-17.2,12.4-16.6,17-15,32c1.8,15-6,18.9-6,18.9"/>
		<path id="imagebot_22" class="st46" d="M89.2,573c0,0,0.7-8.3,5.1-17.4c4.4-9.2,14.7-17.2,14.7-17.2"/>
		<path id="imagebot_19" class="st46" d="M92,559.5c0,0-2.1,5.3-11.5,2.8c-9.4-2.5-6.6-15.9-6.6-15.9"/>
	</g>
	<path id="imagebot_28" class="st44" d="M62.7,554.1c-3.9,0-10.1-5.3-10.1-5.3s3-2.5,6.2-3.9c-1.1-3.4-1.4-7.3-1.4-7.3
		s3.9,0.4,7.3,1.6c1.6-3.2,4.2-6,4.2-6s2.5,3,4.1,6c3.4-1.1,7.3-1.4,7.3-1.4s-0.4,3.9-1.6,7.1c3.2,1.6,6.2,4.2,6.2,4.2
		s-6.9,5.7-10.8,5c-2.5-0.4-5.1-2.8-5.1-5.1l0,0c0,0,0,0-0.2,0l0,0v0.2c0,2.5-2.8,4.8-5.3,5.1C63.3,554.1,62.9,554.1,62.7,554.1
		L62.7,554.1z"/>
	<path id="imagebot_12" class="st47" d="M65.2,551.6c-2.1,0-5.5-3-5.5-3s1.6-1.4,3.4-2.1c-0.5-1.8-0.7-3.9-0.7-3.9s2.1,0.2,3.9,0.9
		c0.9-1.8,2.3-3.4,2.3-3.4s1.4,1.6,2.1,3.4c1.8-0.5,4.1-0.7,4.1-0.7s-0.2,2.1-0.9,3.9c1.8,0.9,3.4,2.3,3.4,2.3s-3.7,3-5.8,2.7
		c-1.2-0.2-2.8-1.6-2.8-2.8l0,0l0,0l0,0c0,0,0,0,0,0.2c0,1.2-1.6,2.5-2.8,2.8C65.4,551.4,65.4,551.6,65.2,551.6L65.2,551.6z"/>
	<g id="imagebot_156">
		
			<linearGradient id="imagebot_136_3_" gradientUnits="userSpaceOnUse" x1="-1578.6273" y1="284.3428" x2="-1578.8347" y2="284.55" gradientTransform="matrix(-65.4107 108.2498 108.0142 65.2683 -133793.0469 152982.3281)">
			<stop  offset="0" style="stop-color:#3F007F;stop-opacity:0.9961"/>
			<stop  offset="1" style="stop-color:#D4AAFF;stop-opacity:0.9961"/>
		</linearGradient>
		<path id="imagebot_136" class="st79" d="M195.9,663.3c7.3,0.7,13.6-4.4,14.3-11.7c0.7-7.3-4.4-13.6-11.7-14.3
			c-7.3-0.7-13.6,4.4-14.3,11.7C183.5,656.1,188.6,662.6,195.9,663.3z"/>
		
			<linearGradient id="imagebot_134_3_" gradientUnits="userSpaceOnUse" x1="-1578.2883" y1="284.7028" x2="-1578.4956" y2="284.91" gradientTransform="matrix(-65.4107 108.2498 108.0143 65.2684 -133814.1406 152906.3125)">
			<stop  offset="0" style="stop-color:#3F007F;stop-opacity:0.9961"/>
			<stop  offset="1" style="stop-color:#D4AAFF;stop-opacity:0.9961"/>
		</linearGradient>
		<path id="imagebot_134" class="st80" d="M191.5,647.6c7.3,0.7,13.6-4.4,14.3-11.7c0.7-7.3-4.4-13.6-11.7-14.3s-13.6,4.4-14.3,11.7
			C179.1,640.3,184.2,646.9,191.5,647.6z"/>
		
			<linearGradient id="imagebot_132_3_" gradientUnits="userSpaceOnUse" x1="-1577.4564" y1="281.3439" x2="-1577.6637" y2="281.5513" gradientTransform="matrix(-13.1495 125.8408 125.4118 13.1047 -55857.0234 195452.6094)">
			<stop  offset="0" style="stop-color:#3F007F;stop-opacity:0.9961"/>
			<stop  offset="1" style="stop-color:#D4AAFF;stop-opacity:0.9961"/>
		</linearGradient>
		<path id="imagebot_132" class="st81" d="M182.6,632.5c7.3,0.7,13.6-4.4,14.3-11.7c0.7-7.3-4.4-13.6-11.7-14.3
			c-7.3-0.7-13.6,4.4-14.3,11.7l0,0C170.2,625.3,175.3,631.8,182.6,632.5L182.6,632.5z"/>
		
			<linearGradient id="imagebot_130_3_" gradientUnits="userSpaceOnUse" x1="-1577.8289" y1="285.6028" x2="-1578.0363" y2="285.8102" gradientTransform="matrix(-65.4107 108.2497 108.0142 65.2683 -133898.8125 152769.3906)">
			<stop  offset="0" style="stop-color:#3F007F;stop-opacity:0.9961"/>
			<stop  offset="1" style="stop-color:#D4AAFF;stop-opacity:0.9961"/>
		</linearGradient>
		<path id="imagebot_130" class="st82" d="M173.9,619.2c7.3,0.7,13.6-4.4,14.3-11.7c0.7-7.3-4.4-13.6-11.7-14.3
			c-7.3-0.7-13.6,4.4-14.3,11.7C161.5,612,166.7,618.3,173.9,619.2z"/>
		
			<linearGradient id="imagebot_128_3_" gradientUnits="userSpaceOnUse" x1="-1576.875" y1="281.9982" x2="-1577.0824" y2="282.2055" gradientTransform="matrix(-13.1495 125.8408 125.4117 13.1047 -55950.8867 195349.4688)">
			<stop  offset="0" style="stop-color:#3F007F;stop-opacity:0.9961"/>
			<stop  offset="1" style="stop-color:#D4AAFF;stop-opacity:0.9961"/>
		</linearGradient>
		<path id="imagebot_128" class="st83" d="M163.1,611.1c7.3,0.7,13.6-4.4,14.3-11.7c0.7-7.3-4.4-13.6-11.7-14.3s-13.6,4.4-14.3,11.7
			l0,0C150.7,603.8,155.9,610.4,163.1,611.1L163.1,611.1z"/>
		
			<linearGradient id="imagebot_126_3_" gradientUnits="userSpaceOnUse" x1="-1576.5017" y1="282.3013" x2="-1576.7091" y2="282.5087" gradientTransform="matrix(-13.1495 125.8408 125.4117 13.1047 -55992.6289 195285.2031)">
			<stop  offset="0" style="stop-color:#3F007F;stop-opacity:0.9961"/>
			<stop  offset="1" style="stop-color:#D4AAFF;stop-opacity:0.9961"/>
		</linearGradient>
		<path id="imagebot_126" class="st84" d="M154.5,597.8c7.3,0.7,13.6-4.4,14.3-11.7c0.7-7.3-4.4-13.6-11.7-14.3
			c-7.3-0.7-13.6,4.4-14.3,11.7l0,0C142.1,590.6,147.2,597.1,154.5,597.8L154.5,597.8z"/>
		
			<linearGradient id="imagebot_124_3_" gradientUnits="userSpaceOnUse" x1="-1578.8898" y1="283.8582" x2="-1579.0972" y2="284.0658" gradientTransform="matrix(-65.4107 108.2498 108.0142 65.2683 -133748.7344 153057.9375)">
			<stop  offset="0" style="stop-color:#3F007F;stop-opacity:0.9961"/>
			<stop  offset="1" style="stop-color:#D4AAFF;stop-opacity:0.9961"/>
		</linearGradient>
		<path id="imagebot_124" class="st85" d="M205.1,678.9c7.3,0.7,13.6-4.4,14.3-11.7c0.7-7.3-4.4-13.6-11.7-14.3s-13.6,4.4-14.3,11.7
			C192.7,671.8,197.8,678.2,205.1,678.9z"/>
		
			<linearGradient id="imagebot_122_3_" gradientUnits="userSpaceOnUse" x1="-1578.5847" y1="281.0343" x2="-1578.7921" y2="281.2417" gradientTransform="matrix(-13.1495 125.8408 125.4117 13.1047 -55826.7461 195636.8594)">
			<stop  offset="0" style="stop-color:#3F007F;stop-opacity:0.9961"/>
			<stop  offset="1" style="stop-color:#D4AAFF;stop-opacity:0.9961"/>
		</linearGradient>
		<path id="imagebot_122" class="st86" d="M188.8,670.8c7.3,0.7,13.6-4.4,14.3-11.7c0.7-7.3-4.4-13.6-11.7-14.3s-13.6,4.4-14.3,11.7
			l0,0C176.4,663.5,181.5,669.9,188.8,670.8L188.8,670.8z"/>
		
			<linearGradient id="imagebot_120_3_" gradientUnits="userSpaceOnUse" x1="-1577.9788" y1="281.3716" x2="-1578.1862" y2="281.5789" gradientTransform="matrix(-13.1495 125.8408 125.4118 13.1047 -55870.1641 195534.9688)">
			<stop  offset="0" style="stop-color:#3F007F;stop-opacity:0.9961"/>
			<stop  offset="1" style="stop-color:#D4AAFF;stop-opacity:0.9961"/>
		</linearGradient>
		<path id="imagebot_120" class="st87" d="M179.8,649.5c7.3,0.7,13.6-4.4,14.3-11.7c0.7-7.3-4.4-13.6-11.7-14.3s-13.6,4.4-14.3,11.7
			l0,0C167.4,642.4,172.7,648.8,179.8,649.5L179.8,649.5z"/>
		
			<linearGradient id="imagebot_118_3_" gradientUnits="userSpaceOnUse" x1="-1577.6057" y1="281.674" x2="-1577.813" y2="281.8815" gradientTransform="matrix(-13.1495 125.8407 125.4117 13.1047 -55911.8555 195470.625)">
			<stop  offset="0" style="stop-color:#3F007F;stop-opacity:0.9961"/>
			<stop  offset="1" style="stop-color:#D4AAFF;stop-opacity:0.9961"/>
		</linearGradient>
		<path id="imagebot_118" class="st88" d="M171.1,636.2c7.3,0.7,13.6-4.4,14.3-11.7c0.7-7.3-4.4-13.6-11.7-14.3
			c-7.3-0.7-13.6,4.4-14.3,11.7l0,0C158.7,629,164,635.5,171.1,636.2L171.1,636.2z"/>
		
			<linearGradient id="imagebot_116_3_" gradientUnits="userSpaceOnUse" x1="-1579.2037" y1="284.7897" x2="-1579.411" y2="284.9969" gradientTransform="matrix(-65.4109 108.2501 108.0143 65.2684 -133901.7969 153024.6406)">
			<stop  offset="0" style="stop-color:#3F007F;stop-opacity:0.9961"/>
			<stop  offset="1" style="stop-color:#D4AAFF;stop-opacity:0.9961"/>
		</linearGradient>
		<path id="imagebot_116" class="st89" d="M173.4,672c7.3,0.7,13.6-4.4,14.3-11.7s-4.4-13.6-11.7-14.3s-13.6,4.4-14.3,11.7l0,0
			C161,664.7,166.1,671.3,173.4,672L173.4,672z"/>
		
			<linearGradient id="imagebot_114_3_" gradientUnits="userSpaceOnUse" x1="-1578.3337" y1="281.5394" x2="-1578.5414" y2="281.7466" gradientTransform="matrix(-13.1495 125.8408 125.4117 13.1047 -55902.5586 195588.5938)">
			<stop  offset="0" style="stop-color:#3F007F;stop-opacity:0.9961"/>
			<stop  offset="1" style="stop-color:#D4AAFF;stop-opacity:0.9961"/>
		</linearGradient>
		<path id="imagebot_114" class="st90" d="M173,660.7c7.3,0.7,13.6-4.4,14.3-11.7c0.7-7.3-4.4-13.6-11.7-14.3s-13.6,4.4-14.3,11.7
			l0,0C160.7,653.4,166,660,173,660.7L173,660.7z"/>
		
			<linearGradient id="imagebot_112_3_" gradientUnits="userSpaceOnUse" x1="-1579.348" y1="285.3276" x2="-1579.5553" y2="285.5349" gradientTransform="matrix(-65.4109 108.2501 108.0144 65.2685 -133987 152999.9688)">
			<stop  offset="0" style="stop-color:#3F007F;stop-opacity:0.9961"/>
			<stop  offset="1" style="stop-color:#D4AAFF;stop-opacity:0.9961"/>
		</linearGradient>
		<path id="imagebot_112" class="st91" d="M155.7,666.9c7.3,0.7,13.6-4.4,14.3-11.7c0.7-7.3-4.4-13.6-11.7-14.3
			c-7.3-0.7-13.6,4.4-14.3,11.7l0,0C143.3,659.6,148.4,666.2,155.7,666.9L155.7,666.9z"/>
		
			<linearGradient id="imagebot_110_3_" gradientUnits="userSpaceOnUse" x1="-1579.4528" y1="286.0101" x2="-1579.6599" y2="286.2174" gradientTransform="matrix(-65.4109 108.2501 108.0144 65.2685 -134088.625 152958.0781)">
			<stop  offset="0" style="stop-color:#3F007F;stop-opacity:0.9961"/>
			<stop  offset="1" style="stop-color:#D4AAFF;stop-opacity:0.9961"/>
		</linearGradient>
		<path id="imagebot_110" class="st92" d="M134.6,658.2c7.3,0.7,13.6-4.4,14.3-11.7c0.7-7.3-4.4-13.6-11.7-14.3
			c-7.3-0.7-13.6,4.4-14.3,11.7l0,0C122.2,650.9,127.4,657.5,134.6,658.2L134.6,658.2z"/>
		
			<linearGradient id="imagebot_108_3_" gradientUnits="userSpaceOnUse" x1="-1578.1843" y1="282.3533" x2="-1578.3916" y2="282.5607" gradientTransform="matrix(-13.1495 125.8408 125.4118 13.1047 -56028.9297 195551.3281)">
			<stop  offset="0" style="stop-color:#3F007F;stop-opacity:0.9961"/>
			<stop  offset="1" style="stop-color:#D4AAFF;stop-opacity:0.9961"/>
		</linearGradient>
		<path id="imagebot_108" class="st93" d="M146.8,652.9c7.3,0.7,13.6-4.4,14.3-11.7s-4.4-13.6-11.7-14.3
			c-7.3-0.7-13.6,4.4-14.3,11.7l0,0C134.5,645.8,139.8,652.2,146.8,652.9L146.8,652.9z"/>
		
			<linearGradient id="imagebot_106_3_" gradientUnits="userSpaceOnUse" x1="-1577.9532" y1="282.0129" x2="-1578.1605" y2="282.2203" gradientTransform="matrix(-13.1495 125.8408 125.4118 13.1047 -55971.1562 195520.3281)">
			<stop  offset="0" style="stop-color:#3F007F;stop-opacity:0.9961"/>
			<stop  offset="1" style="stop-color:#D4AAFF;stop-opacity:0.9961"/>
		</linearGradient>
		<path id="imagebot_106" class="st94" d="M158.9,646.5c7.3,0.7,13.6-4.4,14.3-11.7c0.7-7.3-4.4-13.6-11.7-14.3s-13.6,4.4-14.3,11.7
			l0,0C146.5,639.2,151.6,645.8,158.9,646.5L158.9,646.5z"/>
		
			<linearGradient id="imagebot_104_3_" gradientUnits="userSpaceOnUse" x1="-1577.397" y1="282.0266" x2="-1577.6044" y2="282.2339" gradientTransform="matrix(-13.1495 125.8408 125.4118 13.1047 -55964.0625 195431.8594)">
			<stop  offset="0" style="stop-color:#3F007F;stop-opacity:0.9961"/>
			<stop  offset="1" style="stop-color:#D4AAFF;stop-opacity:0.9961"/>
		</linearGradient>
		<path id="imagebot_104" class="st95" d="M160.3,628.3c7.3,0.7,13.6-4.4,14.3-11.7c0.7-7.3-4.4-13.6-11.7-14.3
			c-7.3-0.7-13.6,4.4-14.3,11.7l0,0C147.9,621,153.2,627.4,160.3,628.3L160.3,628.3z"/>
		
			<linearGradient id="imagebot_102_3_" gradientUnits="userSpaceOnUse" x1="-1578.0652" y1="286.2462" x2="-1578.2723" y2="286.4534" gradientTransform="matrix(-65.4107 108.2498 108.0141 65.2683 -134005.9688 152748.6875)">
			<stop  offset="0" style="stop-color:#3F007F;stop-opacity:0.9961"/>
			<stop  offset="1" style="stop-color:#D4AAFF;stop-opacity:0.9961"/>
		</linearGradient>
		<path id="imagebot_102" class="st96" d="M151.6,614.8c7.3,0.7,13.6-4.4,14.3-11.7c0.7-7.3-4.4-13.6-11.7-14.3s-13.6,4.4-14.3,11.7
			C139.2,607.7,144.5,614.1,151.6,614.8z"/>
		
			<linearGradient id="imagebot_100_3_" gradientUnits="userSpaceOnUse" x1="-1578.6937" y1="286.1667" x2="-1578.901" y2="286.3741" gradientTransform="matrix(-65.4109 108.2501 108.0143 65.2684 -134047.4062 152841.4688)">
			<stop  offset="0" style="stop-color:#3F007F;stop-opacity:0.9961"/>
			<stop  offset="1" style="stop-color:#D4AAFF;stop-opacity:0.9961"/>
		</linearGradient>
		<path id="imagebot_100" class="st97" d="M143.1,633.9c7.3,0.7,13.6-4.4,14.3-11.7c0.7-7.3-4.4-13.6-11.7-14.3s-13.6,4.4-14.3,11.7
			l0,0C130.7,626.8,136,633.2,143.1,633.9L143.1,633.9z"/>
		
			<linearGradient id="imagebot_98_3_" gradientUnits="userSpaceOnUse" x1="-1579.1646" y1="286.4952" x2="-1579.3721" y2="286.7025" gradientTransform="matrix(-65.4109 108.2501 108.0143 65.2684 -134130.9844 152878.7969)">
			<stop  offset="0" style="stop-color:#3F007F;stop-opacity:0.9961"/>
			<stop  offset="1" style="stop-color:#D4AAFF;stop-opacity:0.9961"/>
		</linearGradient>
		<path id="imagebot_98" class="st98" d="M125.8,641.7c7.3,0.7,13.6-4.4,14.3-11.7c0.7-7.3-4.4-13.6-11.7-14.3
			c-7.3-0.7-13.6,4.4-14.3,11.7l0,0C113.4,634.5,118.7,641,125.8,641.7L125.8,641.7z"/>
		
			<linearGradient id="imagebot_96_3_" gradientUnits="userSpaceOnUse" x1="-1576.2107" y1="282.8304" x2="-1576.418" y2="283.0377" gradientTransform="matrix(-13.1495 125.8408 125.4118 13.1047 -56071.6719 195230.1562)">
			<stop  offset="0" style="stop-color:#3F007F;stop-opacity:0.9961"/>
			<stop  offset="1" style="stop-color:#D4AAFF;stop-opacity:0.9961"/>
		</linearGradient>
		<path id="imagebot_96" class="st99" d="M138,586.3c7.3,0.7,13.6-4.4,14.3-11.7c0.7-7.3-4.4-13.6-11.7-14.3s-13.6,4.4-14.3,11.7
			l0,0C125.6,579.2,130.9,585.6,138,586.3L138,586.3z"/>
		
			<linearGradient id="imagebot_84_3_" gradientUnits="userSpaceOnUse" x1="-1576.6985" y1="282.6838" x2="-1576.906" y2="282.8912" gradientTransform="matrix(-13.1495 125.8408 125.4118 13.1047 -56056.4844 195310.0938)">
			<stop  offset="0" style="stop-color:#3F007F;stop-opacity:0.9961"/>
			<stop  offset="1" style="stop-color:#D4AAFF;stop-opacity:0.9961"/>
		</linearGradient>
		<path id="imagebot_84" class="st100" d="M141.2,602.9c7.3,0.7,13.6-4.4,14.3-11.7c0.7-7.3-4.4-13.6-11.7-14.3s-13.6,4.4-14.3,11.7
			l0,0C128.8,595.7,133.9,602.2,141.2,602.9L141.2,602.9z"/>
		
			<linearGradient id="imagebot_78_3_" gradientUnits="userSpaceOnUse" x1="-1577.2919" y1="282.7752" x2="-1577.4993" y2="282.9828" gradientTransform="matrix(-13.1495 125.8408 125.4117 13.1047 -56080.8164 195402.8125)">
			<stop  offset="0" style="stop-color:#3F007F;stop-opacity:0.9961"/>
			<stop  offset="1" style="stop-color:#D4AAFF;stop-opacity:0.9961"/>
		</linearGradient>
		<path id="imagebot_78" class="st101" d="M136,622.2c7.3,0.7,13.6-4.4,14.3-11.7c0.7-7.3-4.4-13.6-11.7-14.3s-13.6,4.4-14.3,11.7
			l0,0C123.7,615,129,621.4,136,622.2L136,622.2z"/>
		
			<linearGradient id="imagebot_72_3_" gradientUnits="userSpaceOnUse" x1="-1578.785" y1="286.9416" x2="-1578.9923" y2="287.1491" gradientTransform="matrix(-65.4109 108.2501 108.0143 65.2685 -134160.4375 152790.125)">
			<stop  offset="0" style="stop-color:#3F007F;stop-opacity:0.9961"/>
			<stop  offset="1" style="stop-color:#D4AAFF;stop-opacity:0.9961"/>
		</linearGradient>
		<path id="imagebot_72" class="st102" d="M119.8,623.3c7.3,0.7,13.6-4.4,14.3-11.7c0.7-7.3-4.4-13.6-11.7-14.3
			c-7.3-0.7-13.6,4.4-14.3,11.7l0,0C107.4,616.2,112.5,622.6,119.8,623.3L119.8,623.3z"/>
		
			<linearGradient id="imagebot_66_3_" gradientUnits="userSpaceOnUse" x1="-1578.2012" y1="283.3346" x2="-1578.4084" y2="283.5419" gradientTransform="matrix(-13.1495 125.8408 125.4118 13.1047 -56184.4219 195537.9219)">
			<stop  offset="0" style="stop-color:#3F007F;stop-opacity:0.9961"/>
			<stop  offset="1" style="stop-color:#D4AAFF;stop-opacity:0.9961"/>
		</linearGradient>
		<path id="imagebot_66" class="st103" d="M114.6,650.2c7.3,0.7,13.6-4.4,14.3-11.7c0.7-7.3-4.4-13.6-11.7-14.3
			c-7.3-0.7-13.6,4.4-14.3,11.7l0,0C102.2,643,107.5,649.5,114.6,650.2L114.6,650.2z"/>
		
			<linearGradient id="imagebot_60_3_" gradientUnits="userSpaceOnUse" x1="-1577.7225" y1="283.6162" x2="-1577.9299" y2="283.8235" gradientTransform="matrix(-13.1495 125.8408 125.4117 13.1047 -56221.0195 195457.1875)">
			<stop  offset="0" style="stop-color:#3F007F;stop-opacity:0.9961"/>
			<stop  offset="1" style="stop-color:#D4AAFF;stop-opacity:0.9961"/>
		</linearGradient>
		<path id="imagebot_60" class="st104" d="M107,633.4c7.3,0.7,13.6-4.4,14.3-11.7c0.7-7.3-4.4-13.6-11.7-14.3s-13.6,4.4-14.3,11.7
			l0,0C94.6,626.3,99.9,632.7,107,633.4L107,633.4z"/>
		
			<linearGradient id="imagebot_54_3_" gradientUnits="userSpaceOnUse" x1="-1577.1346" y1="283.7898" x2="-1577.3419" y2="283.9972" gradientTransform="matrix(-13.1495 125.8408 125.4117 13.1047 -56238.6289 195361.1094)">
			<stop  offset="0" style="stop-color:#3F007F;stop-opacity:0.9961"/>
			<stop  offset="1" style="stop-color:#D4AAFF;stop-opacity:0.9961"/>
		</linearGradient>
		<path id="imagebot_54" class="st105" d="M103.5,613.6c7.3,0.7,13.6-4.4,14.3-11.7c0.7-7.3-4.4-13.6-11.7-14.3
			c-7.3-0.7-13.6,4.4-14.3,11.7l0,0C91.1,606.3,96.2,612.7,103.5,613.6L103.5,613.6z"/>
		
			<linearGradient id="imagebot_48_3_" gradientUnits="userSpaceOnUse" x1="-1576.3149" y1="283.5331" x2="-1576.5226" y2="283.7404" gradientTransform="matrix(-13.1495 125.8408 125.4117 13.1047 -56184.5273 195235.1719)">
			<stop  offset="0" style="stop-color:#3F007F;stop-opacity:0.9961"/>
			<stop  offset="1" style="stop-color:#D4AAFF;stop-opacity:0.9961"/>
		</linearGradient>
		<path id="imagebot_48" class="st106" d="M114.6,587.4c7.3,0.7,13.6-4.4,14.3-11.7c0.7-7.3-4.4-13.6-11.7-14.3
			c-7.3-0.7-13.6,4.4-14.3,11.7l0,0C102.2,580.3,107.4,586.7,114.6,587.4L114.6,587.4z"/>
		
			<linearGradient id="imagebot_34_3_" gradientUnits="userSpaceOnUse" x1="-1578.4447" y1="287.8203" x2="-1578.6522" y2="288.0276" gradientTransform="matrix(-65.4109 108.2501 108.0143 65.2684 -134252.1562 152671.3594)">
			<stop  offset="0" style="stop-color:#3F007F;stop-opacity:0.9961"/>
			<stop  offset="1" style="stop-color:#D4AAFF;stop-opacity:0.9961"/>
		</linearGradient>
		<path id="imagebot_34" class="st107" d="M100.6,598.7c7.3,0.7,13.6-4.4,14.3-11.7s-4.4-13.6-11.7-14.3C96,572,89.7,577.1,89,584.4
			l0,0C88.2,591.4,93.6,598,100.6,598.7L100.6,598.7z"/>
		
			<linearGradient id="imagebot_10_3_" gradientUnits="userSpaceOnUse" x1="-1578.2216" y1="287.2591" x2="-1578.4292" y2="287.4665" gradientTransform="matrix(-65.4109 108.2501 108.0143 65.2684 -134157.2812 152687.0156)">
			<stop  offset="0" style="stop-color:#3F007F;stop-opacity:0.9961"/>
			<stop  offset="1" style="stop-color:#D4AAFF;stop-opacity:0.9961"/>
		</linearGradient>
		<path id="imagebot_10" class="st108" d="M120.3,601.9c7.3,0.7,13.6-4.4,14.3-11.7c0.7-7.3-4.4-13.6-11.7-14.3
			c-7.3-0.7-13.6,4.4-14.3,11.7l0,0C107.9,594.8,113.2,601.2,120.3,601.9L120.3,601.9z"/>
	</g>
	<path id="imagebot_16" class="st78" d="M99,539.6c-1.2-1.9-0.4-6.6-0.4-6.6s2.1,0.7,3.9,1.9c1.4-1.6,3.2-2.8,3.2-2.8
		s1.1,2.1,1.4,4.1c2.1-0.2,4.2,0.4,4.2,0.4s-0.7,2.1-1.8,3.9c1.6,1.4,2.8,3.4,2.8,3.4s-1.9,0.9-4.1,1.4c0.2,2.1-0.2,4.2-0.2,4.2
		s-5-1.8-5.7-3.9c-0.5-1.4-0.2-3.4,1.1-4.1l0,0l0,0l0,0l0,0c-1.2,0.7-3.2,0-4.1-1.2C99.2,539.7,99,539.7,99,539.6L99,539.6z"/>
</g>
</svg>
