<?xml version="1.0" encoding="utf-8"?>
<!-- Generator: Adobe Illustrator 25.0.0, SVG Export Plug-In . SVG Version: 6.00 Build 0)  -->
<svg version="1.1" id="Publicdomainvectors.org" xmlns="http://www.w3.org/2000/svg" xmlns:xlink="http://www.w3.org/1999/xlink"
	 x="0px" y="0px" viewBox="0 0 233.3 267.2" style="enable-background:new 0 0 233.3 267.2;" xml:space="preserve">
<style type="text/css">
	.st0{fill-rule:evenodd;clip-rule:evenodd;fill:#FFFFFF;}
	.st1{fill-rule:evenodd;clip-rule:evenodd;fill:#D18B45;}
	.st2{fill-rule:evenodd;clip-rule:evenodd;fill:#BF7934;}
	.st3{fill-rule:evenodd;clip-rule:evenodd;fill:#B36C26;}
	.st4{fill-rule:evenodd;clip-rule:evenodd;fill:#A86018;}
	.st5{fill-rule:evenodd;clip-rule:evenodd;fill:#1F1308;}
	.st6{clip-path:url(#SVGID_2_);fill-rule:evenodd;clip-rule:evenodd;fill:url(#SVGID_3_);}
	.st7{fill-rule:evenodd;clip-rule:evenodd;fill:url(#path30_1_);}
	.st8{fill-rule:evenodd;clip-rule:evenodd;fill:url(#path48_1_);}
	.st9{fill-rule:evenodd;clip-rule:evenodd;fill:url(#path66_1_);}
	.st10{fill-rule:evenodd;clip-rule:evenodd;fill:url(#path84_1_);}
	.st11{filter:url(#Adobe_OpacityMaskFilter);}
	.st12{clip-path:url(#SVGID_5_);fill-opacity:0.1797;}
	.st13{mask:url(#mask94_2_);}
	.st14{clip-path:url(#SVGID_7_);}
	.st15{clip-path:url(#SVGID_9_);}
	.st16{filter:url(#Adobe_OpacityMaskFilter_1_);}
	.st17{clip-path:url(#SVGID_11_);}
	.st18{clip-path:url(#SVGID_13_);fill-rule:evenodd;clip-rule:evenodd;}
	.st19{mask:url(#mask122_2_);}
	.st20{clip-path:url(#SVGID_15_);}
	.st21{clip-path:url(#SVGID_17_);}
	.st22{fill-rule:evenodd;clip-rule:evenodd;}
	.st23{filter:url(#Adobe_OpacityMaskFilter_2_);}
	.st24{clip-path:url(#SVGID_19_);fill-opacity:0.4805;}
	.st25{mask:url(#mask194_2_);}
	.st26{clip-path:url(#SVGID_21_);}
	.st27{clip-path:url(#SVGID_23_);}
	.st28{fill-rule:evenodd;clip-rule:evenodd;fill:url(#path244_1_);}
	.st29{fill-rule:evenodd;clip-rule:evenodd;fill:#CDDB32;}
	.st30{fill-rule:evenodd;clip-rule:evenodd;fill:#E5E835;}
	.st31{fill-rule:evenodd;clip-rule:evenodd;fill:#B1D12F;}
	.st32{fill-rule:evenodd;clip-rule:evenodd;fill:#B0A009;}
	.st33{fill-rule:evenodd;clip-rule:evenodd;fill:#A19208;}
	.st34{fill-rule:evenodd;clip-rule:evenodd;fill:#A19C08;}
	.st35{fill-rule:evenodd;clip-rule:evenodd;fill:#94A108;}
</style>
<polygon class="st0" points="103.5,348.1 104.1,352 107.9,352.6 104.1,353.2 103.5,357 102.9,353.2 99,352.6 102.9,352 "/>
<polygon class="st0" points="247.1,369.1 248.2,376.3 255.3,377.4 248.2,378.5 247.1,385.6 245.9,378.5 238.8,377.4 245.9,376.3 "/>
<path class="st1" d="M198.4,0.1c21.7,33.9,35.2,81.2,35.2,133.6s-13.5,99.7-35.2,133.6H35.3C13.6,233.3,0,186,0,133.6
	S13.5,33.9,35.2,0h163.2V0.1z"/>
<path class="st2" d="M186.6,0.1c18.6,33.9,30.2,81.2,30.2,133.6s-11.6,99.7-30.2,133.6H47.1c-18.6-34-30.2-81.3-30.2-133.7
	S28.5,33.9,47.1,0h139.5V0.1z"/>
<path class="st3" d="M169.9,0.1C184,34,192.8,81.3,192.8,133.7s-8.8,99.7-22.9,133.6H63.8c-14.2-34-22.9-81.3-22.9-133.7
	S49.7,33.9,63.8,0h106.1V0.1z"/>
<path class="st4" d="M140.6,0.1c6.3,33.9,10.3,81.2,10.3,133.5c0,52.4-3.9,99.7-10.3,133.6H93.1c-6.3-33.9-10.3-81.2-10.3-133.6
	S86.7,33.9,93.1,0h47.5V0.1z"/>
<path class="st5" d="M198.4,0.1c5.6,8.7,10.7,18.4,15.1,28.8H20.2c4.4-10.4,9.5-20,15.1-28.8L198.4,0.1L198.4,0.1z M233.2,117.6
	c0.3,5.3,0.4,10.6,0.4,16c0,4.3-0.1,8.5-0.3,12.8H0.3c-0.2-4.2-0.3-8.5-0.3-12.8c0-5.4,0.1-10.7,0.4-16H233.2L233.2,117.6z
	 M213.5,238.5c-4.4,10.4-9.5,20-15.1,28.8H35.3c-5.6-8.7-10.7-18.4-15.1-28.8L213.5,238.5L213.5,238.5z"/>
<g>
	<g>
		<defs>
			<polygon id="SVGID_1_" points="220.8,211.8 234.8,46.9 -1.1,46.9 -1.1,220.4 			"/>
		</defs>
		<clipPath id="SVGID_2_">
			<use xlink:href="#SVGID_1_"  style="overflow:visible;"/>
		</clipPath>
		
			<linearGradient id="SVGID_3_" gradientUnits="userSpaceOnUse" x1="-2297.5208" y1="-283.1031" x2="-2298.0496" y2="-104.5434" gradientTransform="matrix(2.024178e-16 -1.1019 -1.0483 -1.925717e-16 -86.6035 -2394.5681)">
			<stop  offset="0" style="stop-color:#C2B294"/>
			<stop  offset="7.142900e-02" style="stop-color:#C7B89B"/>
			<stop  offset="0.1429" style="stop-color:#CBC1A3"/>
			<stop  offset="0.2143" style="stop-color:#D2C8AD"/>
			<stop  offset="0.2857" style="stop-color:#D8CFB6"/>
			<stop  offset="0.3571" style="stop-color:#D9D2B8"/>
			<stop  offset="0.4286" style="stop-color:#D9D2B8"/>
			<stop  offset="0.5" style="stop-color:#D9D2B8"/>
			<stop  offset="0.5714" style="stop-color:#D9D2B8"/>
			<stop  offset="0.6429" style="stop-color:#D6CFB5"/>
			<stop  offset="0.7143" style="stop-color:#D3C8AD"/>
			<stop  offset="0.7857" style="stop-color:#CDC1A6"/>
			<stop  offset="0.8571" style="stop-color:#C7B79C"/>
			<stop  offset="0.9286" style="stop-color:#BFAD8F"/>
			<stop  offset="1" style="stop-color:#BBAC89"/>
		</linearGradient>
		<path class="st6" d="M210.1,156.7c-0.2-0.9-0.4-1.6-0.4-2.5s0.1-1.6-0.3-2.5c-1.4-2.4-1.6-5-1.2-7.7c0.2-1.2,0.6-2.2,1.3-3.1
			c-0.2-0.5-0.4-1-0.6-1.5c-0.6-1.8-1.7-3.6-1.3-5.6c0.3-1.5,1.2-2.7,1.5-4.2c0.3-1.6,0-2.9-0.5-4.5c-0.4-1.3-0.1-2.5,0.2-3.7
			c0.4-1.4,0.5-2.8,0.2-4.3c-0.1-0.2-0.1-0.3-0.1-0.5c0-0.9-0.1-1.7-0.4-2.6c-0.3-1-0.8-1.9-1-2.9c-0.3-1.9,0.5-3.6,0.8-5.4
			c0.4-2.4-0.3-4.6-0.4-6.9c0-0.9,0.1-1.7,0.6-2.4c0.5-0.8,1.3-1.4,1.5-2.4c0.3-1.3-0.8-2.5-1.4-3.6c-0.9-1.5-1.3-3-1-4.8
			c0.1-0.3,0.2-0.7,0.3-1c-0.2-0.2-0.3-0.4-0.3-0.7c-0.1-0.9-0.2-1.9-0.2-2.8c0-0.7,0.3-1.2,0.4-1.8c-0.1-0.4-0.3-0.9-0.6-1.3
			c-1.7-0.6-3.6-0.4-5.4-0.6c-1.9-0.2-3.7-0.9-5.5-1c-2.1-0.1-4.1,0.7-6,1.2c-1.7,0.5-3.8,1.1-5.6,0.8c-1.5-0.2-2.6-1.4-4.1-1.8
			c-1.7-0.4-3.4,0.1-5.1,0.6c-1.8,0.6-3.5,1.2-5.4,1.4c-0.9,0.1-1.3-0.6-1.2-1.3c-2.2,0.7-4.4,1.2-6.7,1.1c-1.6,0-3-0.3-4.4-1.1
			c-1.4-0.8-2.8-1.2-4.4-1.2c-1.6,0-3.1,0.2-4.6,0.4c-1.1,0.4-2.3,0.7-3.5,0.7c-0.1,0-0.2,0-0.4,0s-0.5,0.1-0.7,0.1
			c-3.3,0.4-6.5,0-9.6-1c-0.3-0.1-0.5-0.2-0.8-0.3h-0.1c-0.3,0.3-0.7,0.4-1.1,0.2c-0.9-0.4-1.6-0.5-2.4,0c-0.7,0.4-1.3,1-2.1,1.4
			c-2.1,1.1-4.3,0.9-6.6,0.2c-1.1-0.3-2.2-0.7-3.4-0.5c-1,0.2-1.9,0.7-2.9,1.1c-2.2,0.7-4.5,0.4-6.7,0.7c-0.3,0.2-0.6,0.3-0.9,0.5
			c-3,1.4-5.9,1.6-9.2,0.9c-1.7-0.4-3.4-0.9-5.2-1.1c-1.7-0.2-3.4-0.1-5.1,0.1c-3.6,0.3-7.3,0.9-10.9,0.6c-0.6,0-1.3-0.5-1.2-1.2
			c0-0.1,0-0.1,0-0.2c-0.3-0.3-0.4-0.7-0.3-1.1c-0.1,0-0.1,0-0.2,0c-1.9-0.5-4.3-0.1-6.3,0.1c-1.9,0.2-3.8,0.5-5.7,0.8
			c-1.6,0.6-3.3,1.3-5,1.6c-1.6,0.3-3.1,0.1-4.5-0.7c-1.2-0.7-2.2-1.5-3.6-1.8c-0.4,0-0.7,0-1-0.1c-1.6,0-3.2,0.6-4.7,0.8
			c-1.7,0.3-3.3,0.1-4.9-0.6c-0.7-0.3-0.8-1-0.5-1.5c-0.2-0.1-0.5-0.3-0.7-0.5c-0.3,0.1-0.6,0.1-0.9,0.2c-0.2,0-0.4,0-0.5,0
			c-1.7,2.1-4.1,3.2-6.9,3.1c-1,0-2-0.2-3.1-0.2h-0.1c0,0.2-0.1,0.4-0.1,0.6c0,0.5,0.1,1,0.1,1.6c0.2,1,0.6,2,1,3
			c1,2.7-0.4,4.9-1.3,7.5c-0.5,1.4-0.7,2.6-0.4,4c0.3,1.2,0.6,2.3,0.7,3.5c0.1,1.3-0.3,2.4-0.7,3.6c1.7,2.5-0.5,5.9-0.5,8.7
			c0,2,1.1,3.9,1.3,5.9c0.2,2.1,0.2,4.2,0.7,6.2c0.4,2,1.1,4,1,6c0,1-0.3,2-0.4,3s0.1,2,0.2,2.9c0.3,3.2-0.8,5.6-2.6,8
			c0.2,0.3,0.3,0.7,0.2,1.1c-0.3,1.2-0.1,2.4-0.4,3.6c0,0.2-0.1,0.3-0.2,0.5c0.1,0,0.1-0.1,0.2-0.1c0.5-0.2,1.1,0.1,1.4,0.6
			c0.9,1.4,0.1,3-0.7,4.3c-0.4,0.6-0.8,1.1-1.1,1.7c-0.4,1-0.2,2.1,0.1,3.1c0.3,1.1,1.3,2.1,1.7,3.3c0.3,0.2,0.5,0.6,0.7,0.9
			c0.1,0.3,0.3,0.6,0.4,1c0.2,0.1,0.4,0.2,0.6,0.4c1,1.2,0.4,2.9-0.3,4.2c0,0.1,0,0.2,0,0.4v0.1c0.7,0,1.5,0.7,1.2,1.5
			c-0.4,1.2-1.7,2.6-1.7,3.9c0,0.8,0.3,1.7,0.2,2.5c0,0.8-0.2,1.5-0.4,2.3c0.7,0.6,1.3,1.3,1.8,2c1.6,2.3,0.7,4.6-0.1,7.1
			c-0.4,1.3-0.6,2.6-1.2,3.8c-0.4,0.8-1.1,1.4-1.6,2.1c0.4,0.7,0.8,1.5,1,2.3c0.1,0.5,0.1,1.1-0.1,1.8c0.5,0.1,1,0.2,1.5,0.3
			c0.9,0.3,1.8,0.8,2.7,1.1c2.3,0.8,4.9,0.3,7.2-0.2c0.1,0,0.2,0,0.3,0c0.3-0.3,0.7-0.5,1.2-0.4c1.7,0.4,3,0.2,4.4-0.8
			c1-0.7,2-1.4,3.3-1.4c1.5,0,2.6,1,4,1.3c1.6,0.4,3.3,0.4,4.9,0.3c1.7-0.1,3.4,0,5.2,0c1.7,0,3.1-0.5,4.7-1.1
			c1.3-0.5,2.5-0.4,3.8-0.1c1.3,0.3,2.3,0.4,3.7,0.2c0.1,0,0.2,0,0.3,0c1.4-0.1,2.7,0.2,4,0.2c1.2,0,2.2-0.4,3.3-0.8
			c2.1-0.8,4.1-1.1,6,0.4c0.1,0.1,0.2,0.2,0.2,0.3c0.2-0.1,0.3-0.2,0.6-0.2c0.1-0.2,0.3-0.3,0.5-0.4c4.7-2.1,9.5-1.9,14.5-1.9
			c0.8,0,1.2,0.7,1.2,1.3h0.2c1.5-2.1,5.9-1.5,8-1.3c1.5,0.2,3,0.7,4.6,0.8c2.6,0.2,5.2-0.4,7.7-0.5c0.4,0,0.7,0.2,0.9,0.4l0,0
			c1.6-0.2,2.7-1.2,4.4-0.9c1.9,0.3,3.6,1.6,5.5,1.6c1.7,0,3.5-1,5.2-1.4c1.8-0.4,3.5-0.2,5.2,0.4c0.7,0.2,1,1,0.9,1.6
			c0.2,0,0.3,0,0.5,0c1.5,0,2.6-0.6,3.9-0.9c1.4-0.4,2.6-0.1,3.9,0.4c0.1-0.1,0.3-0.1,0.5-0.1c1.2-0.1,2.2-1.2,3.5-1.5
			c1.5-0.3,2.8,0.3,4.2,0.6c1.6,0.4,3.1,0.3,4.7,0.3c1.4,0,2.8,0.3,4.2,0.4c2.3,0.1,4.4-0.8,6.7-1c1.3-0.2,2.5,0,3.4,0.8
			c3.1-0.4,6.4-0.2,9.5-0.8c2.1-0.5,4-0.9,6.1-0.4c1.6,0.4,3.2,0.8,4.8,1.2c0.3-0.3,0.6-0.6,1-0.8c0.9-0.5,1.8-0.7,2.7-0.6
			c-0.4-1.2-1.1-2.2-0.9-3.5c0.2-1,0.4-2,0.3-3c-0.1-1.2-0.5-2.4-0.7-3.6c-0.4-2-0.2-3.8,0.3-5.8c0.6-2,1.5-4.1,1.4-6.2
			c-0.1-1.5-0.3-3.2,0.5-4.5c0.1-0.2,0.3-0.4,0.4-0.5c-0.4-0.7-0.9-1.4-1.1-2.2c-0.3-1.3,0.3-2.5,1.1-3.5
			C210.1,159.8,210.4,158.4,210.1,156.7z"/>
	</g>
</g>
<g id="g10" transform="matrix(1.25 0 0 -1.25 0 35.878)">
	<g id="g12">
		<g id="g14">
			<g id="g16">
				<g id="g22">
					
						<linearGradient id="path30_1_" gradientUnits="userSpaceOnUse" x1="-1306.9335" y1="-1151.8354" x2="-1244.8397" y2="-1151.8354" gradientTransform="matrix(-0.9556 -0.2946 -0.2946 0.9556 -1466.8759 643.0675)">
						<stop  offset="0" style="stop-color:#B8B306"/>
						<stop  offset="1" style="stop-color:#8CA104"/>
					</linearGradient>
					<path id="path30" class="st7" d="M123.3-43.1c3.9-0.3,6.9-2,9-5.2c2-3.1,2.8-6.6,2.4-10.7c-0.3-3.1-1.1-5.6-2.1-7.5
						c-1.4-2.2-2.1-3.4-2.1-3.8c-0.7-3.1-2.5-5.7-5.4-8c-1.2-1-1.9-1.6-2.1-2c-0.3-0.9-0.9-2-1.7-3.5c-1.6-2.7-4.6-5.8-9.1-9.4
						c-0.5-0.5-1.8-1.7-3.7-3.6c-1.9-1.9-3.3-3.2-4.1-3.8c-0.9-0.7-2.1-1.5-3.6-2.3c-0.8-0.5-2-1.2-3.6-2c-0.3-0.2-1.2-1-2.8-2.5
						c-1.2-1.1-2.4-1.8-3.9-2.2c-1.1-0.3-2.8-1.2-5.2-2.6c-2.4-1.4-4.4-2.4-5.9-2.8c-2-0.5-4.3-0.8-6.6-0.8c-2.1,0-3.8,0.2-5.1,0.6
						c-2.1,0.8-4,2.4-5.7,4.7c-2.5,3.3-2.8,6.8-0.9,10.3c1.9,3.5,4.9,6.6,9,9.1c2.9,1.8,5.7,3.1,8.6,3.9c2.5,0.7,5.8,3,9.8,7
						c3.9,3.4,6.5,5.8,7.8,7.2c2.1,2.3,3.7,4.5,4.9,6.8c1,2.2,1.5,3.6,1.7,4.2c1,2.5,2.4,5.1,4.3,8.1c1.8,2.7,3.4,4.6,4.6,5.6
						c1.5,1.3,3.3,2.4,5.3,3.4C119.5-43.6,121.6-43,123.3-43.1z"/>
				</g>
			</g>
		</g>
		<g id="g32">
			<g id="g34">
				<g id="g40">
					
						<linearGradient id="path48_1_" gradientUnits="userSpaceOnUse" x1="-1047.9753" y1="-1332.0032" x2="-950.3897" y2="-1332.0032" gradientTransform="matrix(-0.7791 -0.6268 -0.6268 0.7791 -1516.2032 329.8883)">
						<stop  offset="0" style="stop-color:#DBD50F"/>
						<stop  offset="1" style="stop-color:#B7D106"/>
					</linearGradient>
					<path id="path48" class="st8" d="M119.8-53.8c-0.5,0.4-1.2,0.2-2.1-0.6c-0.1,0-0.9-0.8-2.5-2.5c-1-0.9-2.4-3.6-4.1-7.8
						c-0.5-1-1.3-2.7-2.5-4.9c-1.3-2.2-2.3-3.7-3-4.7c-3-3.9-5-6.4-6.1-7.4c-2.6-2.7-6.3-5.6-10.9-8.8c-2.8-2-5.9-4-9.3-6l3.6,2.5
						c1.9,1.3,4.4,3.2,7.3,5.7c1.6,1.3,4.7,4,9.1,8.1c1,0.8,1.7,1.5,2.1,2c0.4,0.6,0.9,1.7,1.4,3.3c0.5,1.4,1.3,2.7,2.4,4.2
						c0.6,0.8,1.6,2.1,2.8,3.8c0.8,1.2,1.4,2.1,1.6,2.5c0,0.1,0.4,1.2,1.1,3.2c0.9,2.2,2.7,5.2,5.5,9c0.4,0.7,0.6,1.5,0.5,2.5
						c-0.1,0.9-0.4,1.5-0.8,1.9c-0.4,0.4-1.3,0.2-2.5-0.5c-1.3-0.7-2.6-1.9-3.9-3.5c-2.6-3.2-4.8-6.5-6.7-9.8l1.1,2.2
						c1.8,3.9,3.7,7,5.6,9.5c1.1,1.3,2,2.3,2.9,2.9c0.9,0.7,2.7,1.6,5.2,2.9c5.8,2.9,10.8,1.8,14.8-3.4c1.8-2.4,2.7-5.2,2.7-8.5
						c0-1.6-0.2-3-0.6-4.2c-0.5,0.7-1.2,0.9-2,0.5c-0.5-0.2-0.9-0.9-1-2.2c-0.1-0.7-0.3-1.9-0.4-3.6c-0.1-0.7-0.5-1.8-1.2-3.1
						c-0.7-1.3-1.2-2.3-1.2-3.1c-0.1-0.9-0.5-1.8-1.3-2.7c-1.2-1-2.1-1.8-2.8-2.5c-0.7-0.6-1.7-2-3-4.2c-1.5-2.4-2.7-4.2-3.6-5.2
						c-2.1-2.4-5.2-5.2-9.3-8.4l-8.6-6.6c-1.8-1.6-4.7-3-8.5-4.4c3.1,1.4,5.5,2.9,7.4,4.5l8.3,6.4c3.8,3,6.7,5.7,8.6,8.1
						c0.7,0.9,2.2,2.9,4.5,6.1c1.8,2.7,3.1,4.3,3.8,4.9c0.7,0.7,1.5,1.8,2.3,3.1c0.5,0.7,1.2,2,2.1,3.9c0.7,1.4,1.2,3.3,1.4,5.6
						c0.2,2.3,0,3.8-0.5,4.4c-0.4,0.5-0.8,0.7-1.3,0.4c-0.6-0.5-1.2-1-1.6-1.3c-0.6-0.5-1.3-1.4-2-2.8c-0.8-1.3-1.3-2.3-1.5-3.2
						c-0.2-0.7-1.2-2.4-3-5.1c-1.7-2.5-2.9-4.2-3.7-5.1l-11-13.3c-0.8-0.9-2.5-2.3-4.9-4.3c-3.1-2.4-5.6-4.4-7.4-5.8
						c-3.5-2.9-8.2-5.1-14.1-6.7c5,2,8.5,3.7,10.3,5.1c7.5,5.6,11.9,9,13,10.4c1.4,1.8,2.4,3.1,3.1,4c1.2,1.6,2.3,2.8,3.3,3.7
						c3.5,3.2,5.6,5.6,6.5,7.1c1,1.6,2.2,3.7,3.9,6.1c1.1,1.6,2,3.3,2.8,5.1c0.9,2.3,1.3,4.1,1,5.3
						C122.5-57.1,121.5-55.4,119.8-53.8L119.8-53.8z"/>
				</g>
			</g>
		</g>
		<g id="g50">
			<g id="g52">
				<g id="g58">
					
						<radialGradient id="path66_1_" cx="-1042.7462" cy="276.3437" r="13.7118" gradientTransform="matrix(-0.7786 -0.6275 0.6275 -0.7786 -855.1452 -491.0968)" gradientUnits="userSpaceOnUse">
						<stop  offset="0" style="stop-color:#EDE824"/>
						<stop  offset="1" style="stop-color:#E3E10F"/>
					</radialGradient>
					<path id="path66" class="st9" d="M132.4-55.6c-2-1.9-4.5-1.6-7.5,0.8c-2.9,2.2-4.3,4.3-4.2,6.1c0,1.8,0.7,3.2,2.2,4.2
						c1.8,1.2,3.9,0.7,6.5-1.3c2.5-2,3.9-4.1,4.1-6.1C133.7-53.5,133.3-54.7,132.4-55.6z"/>
				</g>
			</g>
		</g>
		<g id="g68">
			<g id="g70">
				<g id="g76">
					
						<radialGradient id="path84_1_" cx="-1042.1691" cy="276.5737" r="9.79" gradientTransform="matrix(-0.778 -0.6283 0.6283 -0.778 -854.4388 -491.1424)" gradientUnits="userSpaceOnUse">
						<stop  offset="0" style="stop-color:#FFFB42"/>
						<stop  offset="1" style="stop-color:#F2F010"/>
					</radialGradient>
					<path id="path84" class="st10" d="M132.1-53.8c-0.9-1.2-2.3-1.4-4.2-0.7c-2,0.7-3.3,2.1-4.1,4.2c-0.8,1.9-0.4,3.2,1,4
						c1.2,0.7,2.4,0.7,3.5,0.1c1.8-1,3-2.3,3.8-4C132.8-51.8,132.8-53,132.1-53.8z"/>
				</g>
			</g>
		</g>
		<g id="g86">
			<defs>
				<filter id="Adobe_OpacityMaskFilter" filterUnits="userSpaceOnUse" x="59.8" y="42.6" width="76.5" height="73.9">
					<feColorMatrix  type="matrix" values="1 0 0 0 0  0 1 0 0 0  0 0 1 0 0  0 0 0 1 0"/>
				</filter>
			</defs>
			<mask maskUnits="userSpaceOnUse" x="59.8" y="42.6" width="76.5" height="73.9" id="mask94_2_">
				<g id="g96_2_" class="st11">
					<g>
						<defs>
							<rect id="SVGID_4_" x="52.1" y="-108.5" width="76.5" height="73.9"/>
						</defs>
						<clipPath id="SVGID_5_">
							<use xlink:href="#SVGID_4_"  style="overflow:visible;"/>
						</clipPath>
						<g id="g98_2_">
							<path id="path100_2_" class="st12" d="M59.8-42H121v-59.1H59.8C59.8-101.1,59.8-42,59.8-42z"/>
						</g>
					</g>
				</g>
			</mask>
			<g id="g102" class="st13">
				<g id="g148">
					<g>
						<defs>
							<rect id="SVGID_6_" x="50.2" y="-125.8" width="95.6" height="92.4"/>
						</defs>
						<clipPath id="SVGID_7_">
							<use xlink:href="#SVGID_6_"  style="overflow:visible;"/>
						</clipPath>
						<g id="g150" class="st14">
							<g id="g152" transform="translate(0 -.29787)">
								<g id="g156">
									<g>
										<defs>
											<rect id="SVGID_8_" x="50.2" y="-125.5" width="95.6" height="92.4"/>
										</defs>
										<clipPath id="SVGID_9_">
											<use xlink:href="#SVGID_8_"  style="overflow:visible;"/>
										</clipPath>
										<g id="g158" class="st15">
											<g id="g160">
												<g id="g162">
													<defs>
														<filter id="Adobe_OpacityMaskFilter_1_" filterUnits="userSpaceOnUse" x="59.8" y="42.3" width="66.3" height="73.9">
															<feColorMatrix  type="matrix" values="1 0 0 0 0  0 1 0 0 0  0 0 1 0 0  0 0 0 1 0"/>
														</filter>
													</defs>
													<mask maskUnits="userSpaceOnUse" x="59.8" y="42.3" width="66.3" height="73.9" id="mask122_2_">
														<g id="g124_2_" class="st16">
															<g>
																<defs>
																	<rect id="SVGID_10_" x="53.1" y="-108.8" width="66.3" height="73.9"/>
																</defs>
																<clipPath id="SVGID_11_">
																	<use xlink:href="#SVGID_10_"  style="overflow:visible;"/>
																</clipPath>
																<g id="g126_2_">
																	<g id="g128_2_">
																		<g id="g132_2_">
																			<g>
																				<defs>
																					<rect id="SVGID_12_" x="53.1" y="-108.8" width="66.3" height="73.9"/>
																				</defs>
																				<clipPath id="SVGID_13_" class="st17">
																					<use xlink:href="#SVGID_12_"  style="overflow:visible;"/>
																				</clipPath>
																				<g id="g134_2_">
																					<g id="g136_2_">
																						<path id="path138_2_" class="st18" d="M92.8-82.6c0.8-1.7,1.2-2.9,1.4-3.3c0.8-2,1.9-4.1,3.4-6.4
																							c1.5-2.2,2.7-3.7,3.7-4.5c1.2-1,2.6-1.9,4.2-2.7c2-1,3.7-1.5,5.1-1.5l1.5,0.2c-3.5,0.1-6,1.6-7.4,4.3
																							c-0.7,1.4-1.9,3-3.7,4.8c-1.6,1.6-2.9,3.5-3.8,5.8c-1.1,3-3.3,6.4-6.5,10c-3.2,3.8-6.5,6.6-9.8,8.5
																							c-2.2,1.3-5.4,3.1-9.8,5.3c-3.6,2-6.2,3.9-7.9,5.8c-1.6,1.7-2.3,3.5-2.1,5.5c0.2,1.7,0.9,3.3,2.4,4.6l3.3,3
																							l-0.7-0.2c-1.7-0.7-3.2-1.9-4.6-3.8c-2-2.7-2.3-5.4-0.7-8.2c1.5-2.8,3.9-5.2,7.2-7.3c2.3-1.5,4.6-2.5,6.9-3.1
																							c2-0.5,4.6-2.4,7.8-5.6c3.1-2.7,5.2-4.7,6.3-5.8C90.6-79,91.9-80.8,92.8-82.6z"/>
																					</g>
																				</g>
																			</g>
																		</g>
																	</g>
																</g>
															</g>
														</g>
													</mask>
													<g id="g166" class="st19">
														<g id="g170">
															<g>
																<defs>
																	<rect id="SVGID_14_" x="51.5" y="-125.5" width="82.9" height="92.4"/>
																</defs>
																<clipPath id="SVGID_15_">
																	<use xlink:href="#SVGID_14_"  style="overflow:visible;"/>
																</clipPath>
																<g id="g172" class="st20">
																	<g id="g174">
																		<g id="g178">
																			<g>
																				<defs>
																					<rect id="SVGID_16_" x="51.5" y="-125.5" width="82.9" height="92.4"/>
																				</defs>
																				<clipPath id="SVGID_17_">
																					<use xlink:href="#SVGID_16_"  style="overflow:visible;"/>
																				</clipPath>
																				<g id="g180" class="st21">
																					<g id="g182">
																						<path id="path184" class="st22" d="M101.1-65.8c1,2.2,1.5,3.6,1.7,4.2c1,2.5,2.4,5.1,4.3,8.1
																							c1.8,2.7,3.4,4.6,4.6,5.6c1.5,1.3,3.3,2.4,5.3,3.4c2.5,1.3,4.6,1.9,6.3,1.8l1.8-0.3c-4.4-0.1-7.4-1.9-9.3-5.4
																							c-0.9-1.7-2.4-3.7-4.6-6c-2-2-3.6-4.4-4.7-7.2c-1.4-3.8-4.2-8-8.2-12.5c-4-4.7-8.1-8.2-12.2-10.6
																							c-2.7-1.6-6.8-3.8-12.2-6.6c-4.5-2.5-7.8-4.9-9.9-7.2c-2-2.1-2.9-4.4-2.6-6.8c0.2-2.2,1.2-4.1,3-5.7l4.1-3.8
																							l-0.8,0.2c-2.1,0.8-4,2.4-5.7,4.7c-2.5,3.3-2.8,6.8-0.9,10.3c1.9,3.5,4.9,6.6,9,9.1c2.8,1.8,5.7,3.1,8.6,3.9
																							c2.5,0.7,5.8,3,9.8,7c3.9,3.4,6.5,5.8,7.8,7.2C98.3-70.4,99.9-68.1,101.1-65.8z"/>
																					</g>
																				</g>
																			</g>
																		</g>
																	</g>
																</g>
															</g>
														</g>
													</g>
												</g>
											</g>
										</g>
									</g>
								</g>
							</g>
						</g>
					</g>
				</g>
			</g>
		</g>
		<g id="g186">
			<defs>
				<filter id="Adobe_OpacityMaskFilter_2_" filterUnits="userSpaceOnUse" x="67.4" y="55.3" width="61.2" height="56.1">
					<feColorMatrix  type="matrix" values="1 0 0 0 0  0 1 0 0 0  0 0 1 0 0  0 0 0 1 0"/>
				</filter>
			</defs>
			<mask maskUnits="userSpaceOnUse" x="67.4" y="55.3" width="61.2" height="56.1" id="mask194_2_">
				<g id="g196_2_" class="st23">
					<g>
						<defs>
							<rect id="SVGID_18_" x="59.8" y="-96.5" width="61.2" height="56.1"/>
						</defs>
						<clipPath id="SVGID_19_">
							<use xlink:href="#SVGID_18_"  style="overflow:visible;"/>
						</clipPath>
						<g id="g198_2_">
							<path id="path200_2_" class="st24" d="M65.9-46.1h48.9v-44.9H65.9C65.9-90.9,65.9-46.1,65.9-46.1z"/>
						</g>
					</g>
				</g>
			</mask>
			<g id="g202" class="st25">
				<g id="g224">
					<g>
						<defs>
							<rect id="SVGID_20_" x="59.8" y="-118.4" width="76.5" height="70.1"/>
						</defs>
						<clipPath id="SVGID_21_">
							<use xlink:href="#SVGID_20_"  style="overflow:visible;"/>
						</clipPath>
						<g id="g226" class="st26">
							<g id="g228" transform="translate(0 -.29787)">
								<g id="g232">
									<g>
										<defs>
											<rect id="SVGID_22_" x="59.8" y="-118.1" width="76.5" height="70.1"/>
										</defs>
										<clipPath id="SVGID_23_">
											<use xlink:href="#SVGID_22_"  style="overflow:visible;"/>
										</clipPath>
										<g id="g234" class="st27">
											<g id="g236">
												<g id="g238">
													<g id="g240">
														<g id="g242">
															
																<linearGradient id="path244_1_" gradientUnits="userSpaceOnUse" x1="91.5466" y1="-937.955" x2="105.1226" y2="-956.3112" gradientTransform="matrix(1 0 0 1 3.1631 858.1387)">
																<stop  offset="0" style="stop-color:#F4FF7D"/>
																<stop  offset="1" style="stop-color:#000000"/>
															</linearGradient>
															<path id="path244" class="st28" d="M125.8-57.2c1.2,0.5,1.5-2.5,0.7-9.1c-0.3-2.7-3.1-7.4-8.5-14
																c-1-1.3-2.7-3.2-5.1-5.6c-2.7-2.7-4.4-4.5-5.1-5.2c-1.8-2-6.1-5.7-12.8-11.1c-1.6-1.3-4.6-2.8-8.8-4.6
																c-3.8-1.5-6.5-2.4-8.1-2.6c-3.4-1.1-5.9-1.6-7.4-1.4c-2.4,0.3-3.4,2.5-2.7,6.5c0.6,4.1,1.9,6.4,4,6.6
																c1.7,0.2,5.7,2.6,11.9,7.2c5.8,4.3,9.6,7.4,11.5,9.5c1.1,1.1,3.8,3.7,8.1,7.5c4.3,3.9,6.8,6.4,7.6,7.2
																c1.3,1.4,3.9,3.3,7.9,5.5C121.1-59.6,123.4-58.5,125.8-57.2z"/>
														</g>
													</g>
												</g>
											</g>
										</g>
									</g>
								</g>
							</g>
						</g>
					</g>
				</g>
			</g>
		</g>
		<path id="path246" class="st29" d="M113.5-92.9c-1.4-1.6-2.4-2-3.1-1c-0.7,1-0.3,2,1.1,2.8c1.2,0.7,2.1,0.9,2.5,0.4
			C114.6-91.2,114.4-91.9,113.5-92.9z"/>
		<path id="path248" class="st30" d="M119.1-82.1c-2.2,0.8-2.3,2-0.3,3.5c2.1,1.6,3.4,1.8,3.8,0.8c0.3-1,0.1-2-0.7-3.1
			C121.1-82.1,120.2-82.5,119.1-82.1z"/>
		<path id="path250" class="st30" d="M124.7-68.3c-1.4,1.4-1.2,2.5,0.7,3.4c2,0.9,3.1,0.9,3.3,0c0.3-0.8-0.1-1.8-1.1-3
			C126.6-69,125.6-69.1,124.7-68.3z"/>
		<path id="path252" class="st30" d="M116.7-69.9c-2.4-1.3-3.9-0.1-4.6,3.5c-0.1,0.5,0.3,0.6,1.2,0.3c0.5-0.1,1.6-0.5,3.1-1
			C118.5-67.9,118.6-68.8,116.7-69.9z"/>
		<path id="path254" class="st31" d="M94-101.2c0.1,0.8,0.6,0.9,1.7,0.4c1.1-0.6,1.5-1.2,1.1-1.7c-0.4-0.7-1-0.9-1.8-0.8
			C94.2-103.1,93.9-102.4,94-101.2z"/>
		<path id="path256" class="st31" d="M74.1-101.4h2.1c0.7-0.1,1.1-0.4,1.1-0.9c0.1-0.8-0.1-1.5-0.6-1.9c-0.5-0.5-1.2-0.5-1.9,0.2
			c-0.8,0.7-1.3,1.4-1.3,1.9C73.4-101.6,73.6-101.4,74.1-101.4z"/>
		<path id="path258" class="st29" d="M105.7-84.8c-1.3-0.9-2.2-0.8-2.6,0.5c-0.5,1.4-0.4,2.2,0.3,2.5c0.5,0.3,1.2-0.1,1.9-1.1
			C106-83.8,106.1-84.4,105.7-84.8z"/>
		<path id="path260" class="st31" d="M89.7-109c-0.8,0-1.2,0.4-1.2,1.1c0.1,0.7,0.4,1.1,0.9,1c0.5-0.1,0.9-0.4,1.1-1.1
			C90.6-108.7,90.3-109,89.7-109z"/>
		<path id="path262" class="st31" d="M80.8-112.8c-1.2-0.6-2.1-0.4-2.7,0.5c-0.5,0.6-0.7,1.5-0.8,2.6c-0.1,0.7,0.1,0.9,0.5,0.6
			c0.3-0.1,1-0.5,2.1-1.2c1.4-0.6,2.1-1,2.2-1.1C82.4-111.7,81.9-112.2,80.8-112.8z"/>
		<path id="path264" class="st31" d="M69.6-114.1c-0.9,0.1-1.4,0.7-1.4,1.8c-0.1,1.1,0.3,1.7,1.2,1.8c0.8,0.1,1.2-0.5,1.2-1.8
			C70.6-113.7,70.2-114.3,69.6-114.1z"/>
		<path id="path266" class="st31" d="M87.6-98.2C85.8-99,85-98.6,85.1-97c0,1.7,0.4,2.5,1.2,2.4c0.6-0.1,1.1-0.6,1.4-1.7
			C88.1-97.4,88-98.1,87.6-98.2z"/>
		<path id="path268" class="st31" d="M77.9-92c-0.2,0.8-0.3,1.5-0.2,1.9c0.1,0.6,0.5,0.9,1,0.8c0.6-0.1,0.7-0.8,0.3-2.1
			C78.6-92.8,78.3-93,77.9-92z"/>
		<path id="path270" class="st29" d="M93.4-86.7c-0.7-1.4-1.2-1.4-1.6,0c-0.4,1.4-0.1,2.3,0.8,2.7c0.9,0.4,1.4,0.2,1.4-0.6
			C94-85.3,93.8-86,93.4-86.7z"/>
		<path id="path272" class="st30" d="M108.7-57.1c-1-1.3-1.5-1-1.4,0.8c0,1.8,0.5,2.9,1.6,3.2c1.1,0.3,1.5-0.1,1.3-1
			C110.1-55.1,109.6-56,108.7-57.1z"/>
		<path id="path274" class="st31" d="M65.1-103.2c-0.9-0.9-1.4-0.5-1.4,1c0,1.6,0.4,2.7,1.2,3.3c0.9,0.6,1.5,0.3,1.7-0.8
			C66.8-101,66.3-102.1,65.1-103.2z"/>
		<path id="path276" class="st32" d="M124-66c0.1,0.1,0.3-0.2,0.5-1.1c0.2-1,0.5-1.6,0.8-1.6l0.8-0.2c-1.2-0.5-2.2-0.5-2.9,0
			c-0.5,0.4-0.6,0.9-0.4,1.4C123.1-67,123.5-66.5,124-66z"/>
		<path id="path278" class="st32" d="M117.3-80.3l0.1-0.9c0.1-0.5,0.4-0.8,0.9-0.8c1.2-0.1,2.1-0.1,2.7,0l-0.9-0.9
			c-0.7-0.4-1.6-0.5-2.5-0.4c-0.6,0.1-0.9,0.5-0.9,1.4C116.7-81,117-80.5,117.3-80.3z"/>
		<path id="path280" class="st33" d="M111-91.7c-0.2-0.1-0.4-0.3-0.5-0.5c-0.3-0.5-0.4-0.9-0.1-1.3l0.6-0.9c-1.2-0.5-1.8-0.4-2,0.3
			c-0.2,0.5,0,1,0.5,1.5C109.9-92.1,110.4-91.8,111-91.7z"/>
		<path id="path282" class="st34" d="M94.1-100.6l-0.2-0.8c-0.1-0.6,0-1,0.3-1.3l0.7-0.6c-0.7-0.3-1.2-0.3-1.5,0.1
			c-0.3,0.4-0.5,1-0.4,1.7C93.1-100.7,93.5-100.4,94.1-100.6z"/>
		<path id="path284" class="st32" d="M112.1-66.4l0.2-1.1c0.2-0.7,0.4-1.3,0.7-1.6c0.4-0.5,1-0.8,1.8-1c-1-0.6-2-0.7-3-0.3
			c-0.6,0.2-0.8,0.9-0.6,2.1C111.4-67.2,111.7-66.5,112.1-66.4z"/>
		<path id="path286" class="st32" d="M108-53.9l-0.3-0.6c-0.1-0.5-0.2-1-0.3-1.5c0-0.9,0.1-1.5,0.3-1.7c-1,0.3-1.6,0.8-1.6,1.6
			C106.1-55.2,106.7-54.4,108-53.9z"/>
		<path id="path288" class="st35" d="M92.6-87.7C91-86.9,90.4-86,91-85.1l1.2,1.7l0.1-0.2c-0.1-0.2-0.3-0.5-0.6-1
			C91.2-85.4,91.5-86.4,92.6-87.7z"/>
		<path id="path290" class="st34" d="M76.3-104.8c-0.3-0.1-1.1,0.1-2.1,0.6c-1.2,0.5-1.8,1.1-1.8,1.5c-0.1,0.4,0.2,0.7,0.8,0.9
			c0.3,0.1,0.6,0.2,0.9,0.3l-0.2-0.6c-0.1-0.5,0-0.9,0.3-1.3C74.7-104,75.4-104.5,76.3-104.8z"/>
		<path id="path292" class="st34" d="M89.3-106.9l-0.6-0.4c-0.3-0.4-0.4-0.7-0.2-1l0.4-0.7c-1.2,0.1-1.6,0.5-1.2,1
			c0.2,0.3,0.5,0.5,1,0.8L89.3-106.9z"/>
		<path id="path294" class="st35" d="M103.4-85.3c-1.2,1.2-1.6,2.2-1.1,2.9c0.3,0.5,0.5,0.7,0.7,0.8c0.1,0,0.2,0,0.3-0.1l-0.4-1.4
			C102.8-83.7,103-84.5,103.4-85.3z"/>
		<path id="path296" class="st34" d="M77.9-92c-1,1-1.4,1.7-1.1,2.1c0.1,0.3,0.3,0.4,0.6,0.5c0.1,0.1,0.3,0.1,0.4,0.1l-0.2-0.3
			C77.5-89.8,77.6-90.6,77.9-92z"/>
		<path id="path298" class="st34" d="M64-103.7c-1.6,1.6-1.8,2.9-0.7,4c0.6,0.7,1.3,1.1,1.9,1.1c0.3,0,0.5,0,0.7-0.1l-0.6-0.4
			c-0.4-0.4-0.8-0.9-1.2-1.4C63.4-101.5,63.3-102.5,64-103.7z"/>
		<path id="path300" class="st34" d="M86.3-94.6l-0.8-0.9c-0.5-0.7-0.6-1.4-0.5-1.9l0.4-1.4c-1,1.3-1.5,2.2-1.5,2.9
			c0,0.5,0.2,1,0.7,1.3C85-94.3,85.6-94.3,86.3-94.6z"/>
		<path id="path302" class="st34" d="M76.9-108.8v-0.6c0.1-0.5,0.3-1,0.6-1.5l1.3-2.1c-0.7-0.2-1.3,0.1-1.9,0.8
			c-0.5,0.7-0.7,1.5-0.8,2.3C76-109.1,76.3-108.7,76.9-108.8z"/>
		<path id="path304" class="st34" d="M69.4-110.5l-0.9-0.5c-0.5-0.4-0.6-0.9-0.3-1.4c0.4-0.9,0.9-1.5,1.4-1.7
			c-1.4,0.1-2.2,0.7-2.5,1.7c-0.2,0.7,0.1,1.2,1,1.5C68.4-110.7,68.9-110.5,69.4-110.5z"/>
	</g>
</g>
</svg>
