<?xml version="1.0" encoding="utf-8"?>
<!-- Generator: Adobe Illustrator 25.0.0, SVG Export Plug-In . SVG Version: 6.00 Build 0)  -->
<svg version="1.1" id="publicdomainvectors.org" xmlns="http://www.w3.org/2000/svg" xmlns:xlink="http://www.w3.org/1999/xlink"
	 x="0px" y="0px" viewBox="0 0 473.6 438.7" style="enable-background:new 0 0 473.6 438.7;" xml:space="preserve">
<style type="text/css">
	.st0{fill-rule:evenodd;clip-rule:evenodd;fill:#E0D7D4;}
	.st1{fill-rule:evenodd;clip-rule:evenodd;fill:#342E2A;}
	.st2{fill-rule:evenodd;clip-rule:evenodd;fill:#D55527;}
	.st3{fill-rule:evenodd;clip-rule:evenodd;fill:#7D706A;}
	.st4{fill-rule:evenodd;clip-rule:evenodd;fill:#4E4542;}
	.st5{fill-rule:evenodd;clip-rule:evenodd;fill:#F5EAE7;}
	.st6{fill-rule:evenodd;clip-rule:evenodd;fill:#DEA796;}
	.st7{fill-rule:evenodd;clip-rule:evenodd;fill:#ECC6BA;}
	.st8{fill-rule:evenodd;clip-rule:evenodd;fill:#953F20;}
	.st9{fill-rule:evenodd;clip-rule:evenodd;fill:#732A14;}
	.st10{fill-rule:evenodd;clip-rule:evenodd;fill:#B65838;}
	.st11{fill-rule:evenodd;clip-rule:evenodd;fill:#D47D60;}
	.st12{fill-rule:evenodd;clip-rule:evenodd;fill:#D59984;}
	.st13{fill-rule:evenodd;clip-rule:evenodd;fill:#FEF492;}
</style>
<path class="st0" d="M324.7,42.4L455.1,0.7c7.1-2.3,14.7,1.3,17.5,8.1c2.8,6.8-0.2,14.5-6.7,18.1L343.1,96.5L324.7,42.4z"/>
<polygon class="st1" points="272.5,46 322.2,35.7 363.7,70.3 342.3,121.7 "/>
<path class="st2" d="M4.6,165.7L15.2,193c14.5,37.6,44.2,67.3,81.8,81.8c24.2,9.3,49.6,14.7,75.1,16c25.5-1.3,50.9-6.7,75.1-16
	c37.6-14.5,67.3-44.2,81.8-81.8l10.6-27.4C117.6,202.5,226.6,202.5,4.6,165.7z"/>
<path class="st3" d="M172.1,216.9c79.8,0,144.9-41.3,144.9-91.9c0-50.6-65.1-91.9-144.9-91.9C92.2,33.1,27.1,74.4,27.1,125
	C27.1,175.6,92.2,216.9,172.1,216.9z"/>
<path class="st4" d="M292.2,176.5c-26.1,24.4-70.1,40.5-120.1,40.5c-50,0-94.1-16.1-120.1-40.5c-0.8-3.5-1.2-7.1-1.2-10.8
	c0-42.5,54.3-76.9,121.3-76.9c67,0,121.3,34.4,121.3,76.9C293.4,169.3,293,172.9,292.2,176.5z"/>
<path class="st1" d="M601.8,365.7c10,5.9,23,7.2,34.4,3.3c11.4-3.8,19.6-12.2,21.8-22.2c1.9-8.9,11.8-15,22.6-14.2
	c18.1,1.4,34.3-9.2,36.7-24c2.5-14.9-9.7-28.7-27.5-31.3c-21.2-3.1-41.3-10.1-58.9-20.5c-12.5-7.4-28.8-9-43-4.2
	c-14.3,4.8-24.6,15.3-27.3,27.8c-2.7,12.4-12.5,22.8-26.3,28.1c-12,4.5-19.4,14.6-18.7,25.4c0.7,10.8,9.3,20.3,21.8,23.7
	c6.5,1.8,13.3,1.8,19.6,0.2c13.6-3.4,26.9-1.9,38.9,4.5L601.8,365.7z"/>
<g>
	<path class="st5" d="M69.7-519.3c19.8-11.5,27-12.5,43.4-16.3c6.6-9.4,8.5-13.6,28.3-25.1c19.8-11.5,63.8-21.5,100.4-17.9
		c36.6,3.6,73.5,16.4,102,37.7c28.5,21.3,43.1,47.1,43.8,71.4c0.7,24.3-25.4,54.6-40,63.1c-14.6,8.4-3.6,2.1-5.5,3
		c-1.7,1.1,9.4-5.3-5.2,3.2c-14.6,8.4-67.2,23.5-109.3,23.1c-42.1-0.4-86.7-8.9-123.5-25.3c-36.9-16.4-59.1-37.7-65.3-58.8
		C32.5-482.4,49.9-507.8,69.7-519.3z"/>
	<path class="st6" d="M44-503c13.9-7.2,21.1-8.5,34.9-11.7c6.6-9.4,8.5-13.6,28.3-25.1c19.8-11.5,63.8-21.5,100.4-17.9
		c36.6,3.6,73.5,16.4,102,37.7c7.2,5.4,13.5,11.1,19,16.9h24.9v54.4c0.7,24.3-25.4,54.6-40,63.1c-14.6,8.4-3.6,2.1-5.5,3
		c-1.7,1.1,9.4-5.3-5.2,3.2c-14.6,8.4-67.2,23.5-109.3,23.1c-42.1-0.4-86.7-8.9-123.5-25.3C33-397.9,10.8-419.2,4.6-440.3
		c-0.8-2.7-1.2-5.4-1.3-8.2h0v-0.9V-503H44z"/>
	<path class="st7" d="M35.6-551.8c19.8-11.5,27-12.5,43.4-16.3c6.6-9.4,8.5-13.6,28.3-25.1c19.8-11.5,63.8-21.5,100.4-17.9
		c36.6,3.6,73.5,16.4,102,37.7c28.5,21.3,43.1,47.1,43.8,71.4c0.7,24.3-25.4,54.6-40,63.1c-14.6,8.4-3.6,2.1-5.5,3
		c-1.7,1.1,9.4-5.3-5.2,3.2c-14.6,8.4-67.2,23.5-109.3,23.1c-42.1-0.4-86.7-8.9-123.5-25.3C33-451.4,10.8-472.7,4.6-493.8
		C-1.6-514.9,15.8-540.3,35.6-551.8z"/>
	<path class="st8" d="M147.6-359.7c-27.3-4-54.1-11.2-77.7-21.8c-24.2-10.8-42.1-23.7-53.3-37.3v-53.4l131.1,20V-359.7z"/>
	<path class="st9" d="M123.8-364.1c-1.9-0.4-3.8-0.8-5.6-1.3l3.9-35.7L123.8-364.1L123.8-364.1z M72.6-380.3
		c-0.9-0.4-1.8-0.8-2.7-1.2c-0.5-0.2-1.1-0.5-1.6-0.7l3.6-20.4L72.6-380.3L72.6-380.3z M37.8-399.5c-2.1-1.5-4.1-3-6-4.5l2.6-34
		L37.8-399.5z"/>
	<path class="st10" d="M82.5-557.8c-15.6,3.9-29.8,9.2-41.7,16.1C22.2-531,10.6-517.3,8.6-501.9c-1.3,10.3,1.7,20.3,7.9,29.7
		c11.2,13.6,29.1,26.5,53.3,37.3c23.6,10.5,50.4,17.8,77.7,21.8c8.1,0.9,16.4,1.6,24.6,1.9c37.1,1.5,74.2-3.3,104-15.5
		c5.8-2.4,11.4-5,16.4-8c1.7-1,3.4-2,5-3.1c0.2-0.1,0.5-0.3,0.7-0.4c0.2-0.1,0.5-0.2,0.7-0.4c1.8-0.9,3.6-1.9,5.3-2.9
		c5.1-2.9,9.7-6.1,13.8-9.5c21.1-17.2,29.4-38.6,26.8-60c-2.6-21.4-16.1-42.8-38.6-59.9c-14.1-10.7-32-19.9-52.2-26.1
		c-20.2-6.2-42.8-9.5-66.1-8.5c-26.8,1.1-50.4,7.9-69,18.6c-11.9,6.9-21.2,15.1-27.9,24.1c-0.9,1.2-1.7,2.3-2.5,3.5
		C86.5-558.8,84.5-558.3,82.5-557.8z"/>
	<path class="st11" d="M212.5-590.3c3.5,0.8,7,1.5,10.5,2.3c20.5,3,26.6,20.6,11.2,32c-2.4,1.9-13.1,9.5,7.9,16.5
		c-16.3-7.5-4-13.5-2.8-14.7C260.3-575.1,248.2-590.3,212.5-590.3L212.5-590.3z M82.1-543l15-3.2c10.1-2.1,19.2-6.9,26.3-13.6
		c3.3-3.1,5.7-6.9,7.1-11.1l-0.2,4.4c-0.3,7.5-4.8,14.5-11.9,18.5C105.8-540.8,95.9-540.4,82.1-543L82.1-543z M212.1-529.5l10.7,3.7
		c17.7,6,36.8,6,54.5,0c15.4-5.3,32-5.3,47.4,0l-20.3,2.1c-11.5,1.2-22.8,4.2-33.4,9c-20.8,9.3-44.5,9.3-65.3,0L212.1-529.5
		L212.1-529.5z M66.6-466.4l12.1,3.6c15.1,4.6,31.3,4.6,46.4,0c17.6-5.3,36.4-5.3,54,0l-6.6-4.2c-14.6-9.3-48.3-9.2-62.9,0.1
		C97.6-461.6,74.3-466.3,66.6-466.4L66.6-466.4z M161.8-543.4l17.3-4.9c5.1-1.4,8.6-6.1,8.6-11.4c0-5.3-3.5-10-8.6-11.4
		c-10.6-3-20.3-8.6-28.3-16.3l6,0.8c11.2,1.5,22.1,4.4,32.5,8.7c8.3,3.4,13.2,12,12,20.9c-1.2,9-1.2,18.2,0,27.2L161.8-543.4
		L161.8-543.4z M200.4-495.6l20.4,3.7c8.8,1.6,14.8,6.9,14.8,13.1c0,6.1-6.1,11.5-14.8,13.1c-9.9,1.8-17.6,7-20.2,13.6
		c-2.6,6.6,0.2,13.7,7.4,18.6l-11.6-6.6c-4.9-2.8-7.8-7-7.8-11.3c0-4.4,2.9-8.5,7.8-11.3c5.8-3.3,11.3-7,16.2-10.9
		c2.4-1.9,6.4-7.7-8.1-8.8c-26-2.1-32.4-6.8-37.7-8.3L200.4-495.6L200.4-495.6z M134.5-504.4l-29.7-0.5c-12.8-0.2-25.5,3.2-36.5,9.8
		c-14.8,8.9-33.2,8.9-48,0l11.3-0.5c10.2-0.4,20.2-3.1,29.3-7.9c18.6-9.8,39.1-15.3,60.1-16.1L134.5-504.4L134.5-504.4z
		 M324.7-495.6l-7.2,1.7c-10.8,2.5-22.2,2.5-32.9,0c-11.4-2.6-23.5-2.6-34.9,0h4.3c10.6,0,21.1,2.2,30.3,6.5
		c6.9,3.2,15.4,3.2,22.3,0L324.7-495.6z"/>
	<path class="st7" d="M130.8-538.2c19.3-11.1,51.2-10.8,71.3,0.9c20.1,11.6,20.8,30,1.5,41.2c-19.3,11.2-51.2,10.8-71.3-0.8
		C112.2-508.6,111.5-527,130.8-538.2z"/>
	<path class="st6" d="M143.6-530.8c12.5-7.2,33.2-7,46.2,0.6c13,7.5,13.5,19.5,1,26.7c-12.5,7.2-33.2,7-46.2-0.5
		C131.6-511.6,131.1-523.6,143.6-530.8z"/>
	<path class="st12" d="M143.6-530.8c9.4-5.4,23.5-6.6,35.4-3.7c-8.2,0-16.2,1.7-22.3,5.3c-12.5,7.2-12.1,19.2,0.9,26.7
		c3.2,1.9,6.9,3.3,10.8,4.2c-8.6,0-17.2-2-23.9-5.8C131.6-511.6,131.1-523.6,143.6-530.8z"/>
	<polygon class="st10" points="268.4,-428.9 279.2,-423.5 281.9,-389 286.1,-425.8 279.6,-433.6 	"/>
	<polygon class="st10" points="320.5,-458.7 334.3,-458.1 335.2,-444.8 339.2,-464.5 322.7,-467.2 	"/>
	<path class="st10" d="M98.8-571.6l1.6-3c4.2-8.2,10.8-14.8,19-19l-1.4,1.8c-4.6,5.9-6.6,13.4-5.6,20.8L98.8-571.6z"/>
	<path class="st10" d="M66.6-553.1l-5.7,0.4c-12.1,0.9-24,4.1-34.9,9.4l5.6-1.1c10.5-2,21.3-2,31.8,0L66.6-553.1z"/>
	<polygon class="st10" points="222.8,-358 224.1,-383.3 228.2,-358.7 	"/>
	<polygon class="st10" points="322,-391.8 324.3,-407.5 327.3,-396.8 	"/>
	<polygon class="st10" points="44.2,-454.3 46.1,-431.6 49.7,-450.1 82.1,-438 85.2,-399.3 88.6,-433.6 54.7,-461.1 	"/>
</g>
<path class="st13" d="M103.3,139.4c10.9-6.3,14.8-6.8,23.7-8.9c3.6-5.2,4.6-7.4,15.5-13.7c10.9-6.3,34.9-11.8,54.9-9.8
	c20,2,40.2,9,55.8,20.6c15.6,11.7,23.6,25.7,24,39c0.4,13.3-13.9,29.9-21.9,34.5c-8,4.6-2,1.1-3,1.7c-0.9,0.6,5.1-2.9-2.9,1.7
	c-8,4.6-36.8,12.9-59.8,12.6c-23-0.2-47.4-4.9-67.6-13.9c-20.2-9-32.4-20.6-35.7-32.2C82.9,159.5,92.4,145.7,103.3,139.4z"/>
<path class="st6" d="M89.2,148.3c7.6-3.9,11.6-4.6,19.1-6.4c3.6-5.2,4.6-7.4,15.5-13.7c10.9-6.3,34.9-11.8,54.9-9.8
	c20,2,40.2,9,55.8,20.6c3.9,2.9,7.4,6.1,10.4,9.3h13.6v29.8c0.4,13.3-13.9,29.9-21.9,34.5c-8,4.6-2,1.1-3,1.7
	c-0.9,0.6,5.1-2.9-2.9,1.7c-8,4.6-36.8,12.9-59.8,12.6c-23-0.2-47.4-4.9-67.6-13.9c-20.2-9-32.4-20.6-35.7-32.2
	c-0.4-1.5-0.7-3-0.7-4.5h0v-0.5v-29.3H89.2z"/>
<path class="st7" d="M84.6,121.6c10.9-6.3,14.8-6.8,23.7-8.9c3.6-5.2,4.6-7.4,15.5-13.7c10.9-6.3,34.9-11.8,54.9-9.8
	c20,2,40.2,9,55.8,20.6c15.6,11.7,23.6,25.7,24,39c0.4,13.3-13.9,29.9-21.9,34.5c-8,4.6-2,1.1-3,1.6c-0.9,0.6,5.1-2.9-2.9,1.7
	c-8,4.6-36.8,12.9-59.8,12.7c-23-0.2-47.4-4.9-67.6-13.9c-20.2-9-32.4-20.6-35.7-32.2C64.2,141.7,73.8,127.8,84.6,121.6z"/>
<path class="st8" d="M145.9,226.7c-14.9-2.2-29.6-6.2-42.5-11.9c-13.3-5.9-23.1-13-29.2-20.4v-29.2l71.7,10.9V226.7z"/>
<path class="st9" d="M132.9,224.3c-1-0.2-2.1-0.5-3.1-0.7l2.1-19.5L132.9,224.3L132.9,224.3z M104.8,215.4c-0.5-0.2-1-0.4-1.5-0.6
	c-0.3-0.1-0.6-0.3-0.9-0.4l2-11.2L104.8,215.4L104.8,215.4z M85.8,204.9c-1.1-0.8-2.2-1.6-3.3-2.5l1.4-18.6L85.8,204.9z"/>
<path class="st10" d="M110.3,118.3c-8.5,2.1-16.3,5.1-22.8,8.8c-10.2,5.9-16.5,13.3-17.6,21.8c-0.7,5.6,0.9,11.1,4.3,16.2
	c6.1,7.4,15.9,14.5,29.2,20.4c12.9,5.8,27.6,9.7,42.5,11.9c4.5,0.5,9,0.9,13.5,1.1c20.3,0.8,40.6-1.8,56.9-8.5
	c3.2-1.3,6.2-2.8,9-4.4c0.9-0.5,1.8-1.1,2.7-1.7c0.1-0.1,0.2-0.2,0.4-0.2c0.1-0.1,0.3-0.1,0.4-0.2c1-0.5,2-1,2.9-1.6
	c2.8-1.6,5.3-3.3,7.5-5.2c11.5-9.4,16.1-21.1,14.6-32.8c-1.4-11.7-8.8-23.4-21.1-32.8c-7.7-5.8-17.5-10.9-28.6-14.3
	c-11.1-3.4-23.4-5.2-36.2-4.7c-14.6,0.6-27.6,4.3-37.8,10.2c-6.5,3.8-11.6,8.3-15.3,13.2c-0.5,0.6-0.9,1.3-1.4,1.9
	C112.5,117.8,111.4,118,110.3,118.3z"/>
<path class="st11" d="M181.4,100.5c1.9,0.4,3.8,0.8,5.7,1.3c11.2,1.7,14.5,11.3,6.1,17.5c-1.3,1.1-7.2,5.2,4.3,9
	c-8.9-4.1-2.2-7.4-1.5-8C207.6,108.8,201,100.5,181.4,100.5L181.4,100.5z M110.1,126.4l8.2-1.7c5.5-1.2,10.5-3.7,14.4-7.5
	c1.8-1.7,3.1-3.8,3.9-6.1l-0.1,2.4c-0.2,4.1-2.6,7.9-6.5,10.1C123,127.6,117.6,127.8,110.1,126.4L110.1,126.4z M181.2,133.8l5.9,2
	c9.7,3.3,20.2,3.3,29.8,0c8.4-2.9,17.5-2.9,25.9,0l-11.1,1.2c-6.3,0.7-12.5,2.3-18.3,4.9c-11.4,5.1-24.4,5.1-35.7,0L181.2,133.8
	L181.2,133.8z M101.6,168.3l6.6,2c8.3,2.5,17.1,2.5,25.4,0c9.6-2.9,19.9-2.9,29.6,0l-3.6-2.3c-8-5.1-26.4-5-34.4,0.1
	C118.5,171,105.8,168.4,101.6,168.3L101.6,168.3z M153.6,126.2l9.5-2.7c2.8-0.8,4.7-3.3,4.7-6.2c0-2.9-1.9-5.4-4.7-6.2
	c-5.8-1.6-11.1-4.7-15.5-8.9l3.3,0.4c6.1,0.8,12.1,2.4,17.8,4.8c4.5,1.9,7.2,6.6,6.6,11.4c-0.7,4.9-0.7,10,0,14.9L153.6,126.2
	L153.6,126.2z M174.8,152.3l11.2,2c4.8,0.9,8.1,3.8,8.1,7.1c0,3.3-3.3,6.3-8.1,7.1c-5.4,1-9.6,3.8-11,7.5c-1.4,3.6,0.1,7.5,4,10.2
	l-6.4-3.6c-2.7-1.5-4.3-3.8-4.3-6.2c0-2.4,1.6-4.7,4.3-6.2c3.2-1.8,6.2-3.8,8.9-6c1.3-1.1,3.5-4.2-4.4-4.8
	c-14.2-1.1-17.7-3.7-20.6-4.6L174.8,152.3L174.8,152.3z M138.7,147.5l-16.3-0.3c-7-0.1-13.9,1.7-19.9,5.3c-8.1,4.9-18.2,4.9-26.3,0
	l6.2-0.2c5.6-0.2,11.1-1.7,16-4.3c10.2-5.3,21.4-8.3,32.9-8.8L138.7,147.5L138.7,147.5z M242.8,152.3l-3.9,0.9
	c-5.9,1.4-12.1,1.4-18,0c-6.2-1.4-12.9-1.4-19.1,0h2.4c5.8,0,11.5,1.2,16.6,3.6c3.8,1.7,8.4,1.7,12.2,0L242.8,152.3z"/>
<path class="st7" d="M136.7,129c10.6-6.1,28-5.9,39,0.5c11,6.4,11.4,16.4,0.8,22.5c-10.6,6.1-28,5.9-39-0.5
	C126.5,145.2,126.2,135.1,136.7,129z"/>
<path class="st6" d="M143.7,133.1c6.8-3.9,18.2-3.8,25.3,0.3c7.1,4.1,7.4,10.7,0.5,14.6c-6.9,4-18.2,3.8-25.3-0.3
	C137.1,143.6,136.9,137,143.7,133.1z"/>
<path class="st12" d="M143.7,133.1c5.2-3,12.9-3.6,19.4-2c-4.5,0-8.9,0.9-12.2,2.9c-6.8,4-6.6,10.5,0.5,14.6c1.8,1,3.8,1.8,5.9,2.3
	c-4.7,0-9.4-1.1-13.1-3.2C137.1,143.6,136.9,137,143.7,133.1z"/>
<polygon class="st10" points="212,188.8 217.9,191.8 219.4,210.7 221.7,190.5 218.1,186.2 "/>
<polygon class="st10" points="240.5,172.5 248.1,172.9 248.5,180.1 250.7,169.4 241.7,167.9 "/>
<path class="st10" d="M119.2,110.7l0.8-1.7c2.3-4.5,5.9-8.1,10.4-10.4l-0.8,1c-2.5,3.2-3.6,7.3-3.1,11.4L119.2,110.7z"/>
<path class="st10" d="M101.6,120.8l-3.1,0.2c-6.6,0.5-13.1,2.2-19.1,5.1l3.1-0.6c5.7-1.1,11.7-1.1,17.4,0L101.6,120.8z"/>
<polygon class="st10" points="187,227.6 187.8,213.8 190,227.2 "/>
<polygon class="st10" points="241.3,209.1 242.6,200.5 244.2,206.4 "/>
<polygon class="st10" points="89.3,174.9 90.3,187.3 92.4,177.2 110.1,183.8 111.7,205 113.6,186.2 95.1,171.2 "/>
<path class="st0" d="M172,21.9C77,21.9,0,74.3,0,139c0,64.7,77,117.1,172,117.1s172-52.4,172-117.1C344.1,74.3,267.1,21.9,172,21.9z
	 M172,217.3c-79.8,0-144.9-41.3-144.9-91.9c0-50.6,65.1-91.9,144.9-91.9c79.8,0,144.9,41.3,144.9,91.9
	C317,176,251.9,217.3,172,217.3z"/>
<path class="st13" d="M617.2,183.4c10,5.9,23,7.2,34.4,3.3c11.4-3.8,19.6-12.2,21.8-22.2c1.9-8.9,11.8-15,22.6-14.2
	c18.1,1.4,34.3-9.2,36.7-24c2.5-14.9-9.7-28.7-27.5-31.3c-21.2-3.1-41.3-10.1-58.9-20.5c-12.5-7.4-28.8-9-43-4.2
	C589,75.1,578.7,85.6,576,98.1c-2.7,12.4-12.5,22.8-26.3,28.1c-12,4.5-19.4,14.6-18.7,25.4c0.7,10.8,9.3,20.3,21.8,23.7
	c6.5,1.8,13.3,1.8,19.6,0.2c13.6-3.4,26.9-1.9,38.9,4.5L617.2,183.4z"/>
</svg>
