<?xml version="1.0" encoding="utf-8"?>
<!-- Generator: Adobe Illustrator 25.0.0, SVG Export Plug-In . SVG Version: 6.00 Build 0)  -->
<svg version="1.1" id="publicdomainvectors.org" xmlns="http://www.w3.org/2000/svg" xmlns:xlink="http://www.w3.org/1999/xlink"
	 x="0px" y="0px" viewBox="0 0 473.6 438.7" style="enable-background:new 0 0 473.6 438.7;" xml:space="preserve">
<style type="text/css">
	.st0{fill-rule:evenodd;clip-rule:evenodd;fill:#FEBB12;}
	.st1{fill-rule:evenodd;clip-rule:evenodd;fill:#FFCD05;}
	.st2{fill-rule:evenodd;clip-rule:evenodd;fill:#FEF081;}
	.st3{fill-rule:evenodd;clip-rule:evenodd;fill:#E0D7D4;}
	.st4{fill-rule:evenodd;clip-rule:evenodd;fill:#342E2A;}
	.st5{fill-rule:evenodd;clip-rule:evenodd;fill:#D55527;}
	.st6{fill-rule:evenodd;clip-rule:evenodd;fill:#7D706A;}
	.st7{fill-rule:evenodd;clip-rule:evenodd;fill:#4E4542;}
	.st8{fill-rule:evenodd;clip-rule:evenodd;fill:#82582C;}
	.st9{fill-rule:evenodd;clip-rule:evenodd;fill:#71481E;}
	.st10{fill-rule:evenodd;clip-rule:evenodd;fill:#9A6733;}
	.st11{fill-rule:evenodd;clip-rule:evenodd;fill:#AD7640;}
	.st12{fill-rule:evenodd;clip-rule:evenodd;fill:#F5EAE7;}
	.st13{fill-rule:evenodd;clip-rule:evenodd;fill:#DEA796;}
	.st14{fill-rule:evenodd;clip-rule:evenodd;fill:#ECC6BA;}
	.st15{fill-rule:evenodd;clip-rule:evenodd;fill:#953F20;}
	.st16{fill-rule:evenodd;clip-rule:evenodd;fill:#732A14;}
	.st17{fill-rule:evenodd;clip-rule:evenodd;fill:#B65838;}
	.st18{fill-rule:evenodd;clip-rule:evenodd;fill:#D47D60;}
	.st19{fill-rule:evenodd;clip-rule:evenodd;fill:#D59984;}
</style>
<g>
	<path class="st0" d="M263.4,355.5l0.2-0.4c9-17,11.5-36.7,7.2-55.4c-2.2-9.5-5.9-18.5-11.1-26.7c-5.5-8.8-7-19.5-3.9-29.5l-5.8,3.3
		c-9.7,5.6-16.7,14.8-19.6,25.6c-1.9,7.1-8.8,11.7-16.1,10.8c-7.3-1-12.8-7.2-12.8-14.5c0-8.9,3.5-17.5,9.8-23.8
		c11.6-11.7,15.1-29.2,8.8-44.4c-6.3-15.2-21.2-25.1-37.7-25.1l4.1,4.9c6.6,8,8.3,18.9,4.5,28.5c-3.8,9.6-12.6,16.3-22.9,17.6
		c-10.3,1.2-20.4-3.2-26.4-11.6c-3.3-4.6-4-10.5-2.1-15.7l-6.5,7.6c-13,15.1-15.7,36.4-7.1,54.2c10.9,22.4,7.4,49.2-8.9,68.1
		c-9.5,11-12,26.4-6.4,39.9c5.6,13.4,18.3,22.6,32.8,23.6c0,0,89.9-12.5,91.1-12.3l4.8-2.2C250.2,373,257.9,365.8,263.4,355.5z"/>
	<path class="st1" d="M152.5,368.2c14.3-2,28.6-4,42.9-5.9c10.4-1.4,20.7-2.8,31.1-4.2c2.9-0.4,7.6-1.2,12-1.6l1.6-0.7
		c24.3-10.9,23.8-51,2.5-71.9c0.5,13.5-8.6,19.1-21.9,17.4c-17.8-2.3-31.1-17.5-31.1-35.4c0-9.4,14.5-21.8,13.5-39.4
		c-16.2,24.6-56.5,29.8-68.9,8.3c-10.4,27.9,40.8,66.9,8.1,104.9c-4.3,5-5.4,12-2.9,18.1C141.7,363.3,146.7,367.2,152.5,368.2z"/>
	<path class="st2" d="M163.9,336.9l2.6-13.3c4.2-21-10.3-41.2,0-57.2c1.2,19.1,4.7,34,22.9,44.5c13.1,7.5,29.1,8,42.6,1.3l1.3,5.7
		c3.3,14.7-5.2,29.4-19.6,33.9L163.9,336.9z"/>
</g>
<path class="st3" d="M324.7,42.4L455.1,0.7c7.1-2.3,14.7,1.3,17.5,8.1c2.8,6.8-0.2,14.5-6.7,18.1L343.1,96.5L324.7,42.4z"/>
<polygon class="st4" points="272.5,46 322.2,35.7 363.7,70.3 342.3,121.7 "/>
<path class="st5" d="M4.6,165.7L15.2,193c14.5,37.6,44.2,67.3,81.8,81.8c24.2,9.3,49.6,14.7,75.1,16c25.5-1.3,50.9-6.7,75.1-16
	c37.6-14.5,67.3-44.2,81.8-81.8l10.6-27.4C117.6,202.5,226.6,202.5,4.6,165.7z"/>
<path class="st6" d="M172.1,216.9c79.8,0,144.9-41.3,144.9-91.9c0-50.6-65.1-91.9-144.9-91.9C92.2,33.1,27.1,74.4,27.1,125
	C27.1,175.6,92.2,216.9,172.1,216.9z"/>
<path class="st7" d="M292.2,176.5c-26.1,24.4-70.1,40.5-120.1,40.5c-50,0-94.1-16.1-120.1-40.5c-0.8-3.5-1.2-7.1-1.2-10.8
	c0-42.5,54.3-76.9,121.3-76.9c67,0,121.3,34.4,121.3,76.9C293.4,169.3,293,172.9,292.2,176.5z"/>
<path class="st4" d="M162.2,207.6c10,5.9,23,7.2,34.4,3.3c11.4-3.8,19.6-12.2,21.8-22.2c1.9-8.9,11.8-15,22.6-14.2
	c18.1,1.4,34.3-9.2,36.7-24c2.5-14.9-9.7-28.7-27.5-31.3c-21.2-3.1-41.3-10.1-58.9-20.5c-12.5-7.4-28.8-9-43-4.2
	c-14.3,4.8-24.6,15.3-27.3,27.8c-2.7,12.4-12.5,22.8-26.3,28.1c-12,4.5-19.4,14.6-18.7,25.4c0.7,10.8,9.3,20.3,21.8,23.7
	c6.5,1.8,13.3,1.8,19.6,0.2c13.6-3.4,26.9-1.9,38.9,4.5L162.2,207.6z"/>
<path class="st8" d="M193.8,98.6c2.5,2.6,4.4,5.6,5.8,9l2.8-0.1l0.1,14.4c0,8.7-2.8,17.5-8.4,23.8c-8.9,10-34.5,10.7-43.5,1.3
	c-5.7-6-8.6-14.6-8.7-23.3l-0.1-14.4l2.8-0.1c1.4-3.4,3.3-6.6,5.7-9.3C159.2,89.9,184.7,89.2,193.8,98.6z"/>
<path class="st9" d="M165.5,153.3c-6.1-0.8-11.7-2.9-15-6.3c-0.2-0.2-0.4-0.4-0.5-0.6l-0.2-45.9c0.2-0.2,0.4-0.4,0.5-0.6
	c3.3-3.7,8.8-6.1,14.9-7.2L165.5,153.3z"/>
<path class="st10" d="M193.7,84.2c11.5,12,11.6,34.4,0.2,47.1c-8.9,10-34.5,10.7-43.5,1.3c-11.5-12-11.6-34.4-0.2-47.1
	C159.1,75.5,184.7,74.8,193.7,84.2z"/>
<path class="st11" d="M190.9,87.9c8.3,8.7,8.4,25,0.2,34.2c-6.5,7.2-25,7.8-31.6,0.9c-8.3-8.7-8.4-25-0.2-34.2
	C165.8,81.6,184.3,81,190.9,87.9z"/>
<path class="st8" d="M190,108.2c0.1,12.1-0.6,21.9-1.6,21.9c-0.9,0-1.7-9.7-1.8-21.8c-0.1-12.1,0.6-21.9,1.6-21.9
	C189.1,86.3,189.9,96.1,190,108.2L190,108.2z M170.7,111.5c-0.1-12.4-1.1-22.3-2.3-22.3c-1.2,0-2.1,10.1-2.1,22.4
	c0.1,12.4,1.1,22.3,2.3,22.3C169.9,133.9,170.8,123.8,170.7,111.5L170.7,111.5z M159.4,107.7c-0.1-11.3-1.1-20.5-2.3-20.5
	c-1.2,0-2.1,9.3-2.1,20.6c0.1,11.3,1.1,20.5,2.3,20.5C158.5,128.3,159.4,119.1,159.4,107.7L159.4,107.7z M180.5,103.4
	c-0.1-11.1-0.9-20-1.9-20c-1,0-1.8,9-1.7,20.1c0.1,11.1,0.9,20,1.9,20C179.8,123.5,180.5,114.5,180.5,103.4z"/>
<path class="st8" d="M263.9,134c2.5,2.6,4.4,5.6,5.8,9l2.8-0.1l0.1,14.4c0,8.7-2.8,17.5-8.4,23.8c-8.9,10-34.5,10.7-43.5,1.3
	c-5.7-6-8.6-14.6-8.7-23.3l-0.1-14.4l2.8-0.1c1.4-3.4,3.3-6.6,5.7-9.3C229.3,125.3,254.9,124.5,263.9,134z"/>
<path class="st9" d="M235.6,188.7c-6.1-0.8-11.7-2.9-15-6.3c-0.2-0.2-0.4-0.4-0.5-0.6l-0.2-45.9c0.2-0.2,0.4-0.4,0.5-0.6
	c3.3-3.7,8.8-6.1,14.9-7.2L235.6,188.7z"/>
<path class="st10" d="M263.8,119.6c11.5,12,11.6,34.4,0.2,47.1c-8.9,10-34.5,10.7-43.5,1.3c-11.5-12-11.6-34.4-0.2-47.1
	C229.2,110.9,254.8,110.1,263.8,119.6z"/>
<path class="st11" d="M261,123.2c8.3,8.7,8.4,25,0.2,34.2c-6.5,7.2-25,7.8-31.6,0.9c-8.3-8.7-8.4-25-0.2-34.2
	C235.9,116.9,254.4,116.4,261,123.2z"/>
<path class="st8" d="M260.1,143.5c0.1,12.1-0.6,21.9-1.6,21.9c-0.9,0-1.7-9.7-1.8-21.8c-0.1-12.1,0.6-21.9,1.6-21.9
	C259.3,121.7,260.1,131.5,260.1,143.5L260.1,143.5z M240.9,146.8c-0.1-12.4-1.1-22.3-2.3-22.3c-1.2,0-2.1,10.1-2.1,22.4
	c0.1,12.4,1.1,22.3,2.3,22.3C240,169.2,240.9,159.2,240.9,146.8L240.9,146.8z M229.5,143.1c-0.1-11.3-1.1-20.5-2.3-20.5
	s-2.1,9.3-2.1,20.6c0.1,11.3,1.1,20.5,2.3,20.5C228.6,163.6,229.5,154.4,229.5,143.1L229.5,143.1z M250.6,138.8
	c-0.1-11.1-0.9-20-1.9-20c-1,0-1.8,9-1.7,20.1c0.1,11.1,0.9,20,1.9,20C249.9,158.8,250.7,149.8,250.6,138.8z"/>
<path class="st8" d="M132.6,143.9c2.5,2.6,4.4,5.6,5.8,9l2.8-0.1l0.1,14.4c0,8.7-2.8,17.5-8.4,23.8c-8.9,10-34.5,10.7-43.5,1.3
	c-5.7-6-8.6-14.6-8.7-23.3l-0.1-14.4l2.8-0.1c1.4-3.4,3.3-6.6,5.7-9.3C98,135.2,123.5,134.5,132.6,143.9z"/>
<path class="st9" d="M104.3,198.7c-6.1-0.8-11.7-2.9-15-6.3c-0.2-0.2-0.4-0.4-0.5-0.6l-0.2-45.9c0.2-0.2,0.4-0.4,0.5-0.6
	c3.3-3.7,8.8-6.1,14.9-7.2L104.3,198.7z"/>
<path class="st10" d="M132.5,129.5c11.5,12,11.6,34.4,0.2,47.1c-8.9,10-34.5,10.7-43.5,1.3c-11.5-12-11.6-34.4-0.2-47.1
	C97.9,120.8,123.5,120.1,132.5,129.5z"/>
<path class="st11" d="M129.7,133.2c8.3,8.7,8.4,25,0.2,34.2c-6.5,7.2-25,7.8-31.6,0.9c-8.3-8.7-8.4-25-0.2-34.2
	C104.6,126.9,123.1,126.3,129.7,133.2z"/>
<path class="st8" d="M128.8,153.5c0.1,12.1-0.6,21.9-1.6,21.9c-0.9,0-1.7-9.7-1.8-21.8c-0.1-12.1,0.6-21.9,1.6-21.9
	C127.9,131.7,128.7,141.4,128.8,153.5L128.8,153.5z M109.5,156.8c-0.1-12.4-1.1-22.3-2.3-22.3c-1.2,0-2.1,10.1-2.1,22.4
	c0.1,12.4,1.1,22.3,2.3,22.3C108.7,179.2,109.6,169.1,109.5,156.8L109.5,156.8z M98.2,153c-0.1-11.3-1.1-20.5-2.3-20.5
	c-1.2,0-2.1,9.3-2.1,20.6c0.1,11.3,1.1,20.5,2.3,20.5C97.3,173.6,98.2,164.4,98.2,153L98.2,153z M119.3,148.7
	c-0.1-11.1-0.9-20-1.9-20c-1,0-1.8,9-1.7,20.1c0.1,11.1,0.9,20,1.9,20C118.6,168.8,119.3,159.8,119.3,148.7z"/>
<path class="st8" d="M200.9,185c2.5,2.6,4.4,5.6,5.8,9l2.8-0.1l0.1,14.4c0,8.7-2.8,17.5-8.4,23.8c-8.9,10-34.5,10.7-43.5,1.3
	c-5.7-6-8.6-14.6-8.7-23.3l-0.1-14.4l2.8-0.1c1.4-3.4,3.3-6.6,5.7-9.3C166.3,176.3,191.9,175.6,200.9,185z"/>
<path class="st9" d="M172.6,239.8c-6.1-0.8-11.7-2.9-15-6.3c-0.2-0.2-0.4-0.4-0.5-0.6l-0.2-45.9c0.2-0.2,0.4-0.4,0.5-0.6
	c3.3-3.7,8.8-6.1,14.9-7.2L172.6,239.8z"/>
<path class="st10" d="M200.8,170.6c11.5,12,11.6,34.4,0.2,47.1c-8.9,10-34.5,10.7-43.5,1.3c-11.5-12-11.6-34.4-0.2-47.1
	C166.2,161.9,191.8,161.2,200.8,170.6z"/>
<path class="st11" d="M198,174.3c8.3,8.7,8.4,25,0.2,34.2c-6.5,7.2-25,7.8-31.6,0.9c-8.3-8.7-8.4-25-0.2-34.2
	C172.9,168,191.4,167.4,198,174.3z"/>
<path class="st8" d="M197.1,194.6c0.1,12.1-0.6,21.9-1.6,21.9c-0.9,0-1.7-9.7-1.8-21.8c-0.1-12.1,0.6-21.9,1.6-21.9
	C196.3,172.7,197.1,182.5,197.1,194.6L197.1,194.6z M177.9,197.9c-0.1-12.4-1.1-22.3-2.3-22.3c-1.2,0-2.1,10.1-2.1,22.4
	c0.1,12.4,1.1,22.3,2.3,22.3C177,220.3,177.9,210.2,177.9,197.9L177.9,197.9z M166.5,194.1c-0.1-11.3-1.1-20.5-2.3-20.5
	s-2.1,9.3-2.1,20.6c0.1,11.3,1.1,20.5,2.3,20.5C165.6,214.7,166.6,205.5,166.5,194.1L166.5,194.1z M187.6,189.8
	c-0.1-11.1-0.9-20-1.9-20c-1,0-1.8,9-1.7,20.1c0.1,11.1,0.9,20,1.9,20C186.9,209.9,187.7,200.9,187.6,189.8z"/>
<g>
	<path class="st12" d="M69.7-519.3c19.8-11.5,27-12.5,43.4-16.3c6.6-9.4,8.5-13.6,28.3-25.1c19.8-11.5,63.8-21.5,100.4-17.9
		c36.6,3.6,73.5,16.4,102,37.7c28.5,21.3,43.1,47.1,43.8,71.4c0.7,24.3-25.4,54.6-40,63.1c-14.6,8.4-3.6,2.1-5.5,3
		c-1.7,1.1,9.4-5.3-5.2,3.2c-14.6,8.4-67.2,23.5-109.3,23.1c-42.1-0.4-86.7-8.9-123.5-25.3c-36.9-16.4-59.1-37.7-65.3-58.8
		C32.5-482.4,49.9-507.8,69.7-519.3z"/>
	<path class="st13" d="M44-503c13.9-7.2,21.1-8.5,34.9-11.7c6.6-9.4,8.5-13.6,28.3-25.1c19.8-11.5,63.8-21.5,100.4-17.9
		c36.6,3.6,73.5,16.4,102,37.7c7.2,5.4,13.5,11.1,19,16.9h24.9v54.4c0.7,24.3-25.4,54.6-40,63.1c-14.6,8.4-3.6,2.1-5.5,3
		c-1.7,1.1,9.4-5.3-5.2,3.2c-14.6,8.4-67.2,23.5-109.3,23.1c-42.1-0.4-86.7-8.9-123.5-25.3C33-397.9,10.8-419.2,4.6-440.3
		c-0.8-2.7-1.2-5.4-1.3-8.2h0v-0.9V-503H44z"/>
	<path class="st14" d="M35.6-551.8c19.8-11.5,27-12.5,43.4-16.3c6.6-9.4,8.5-13.6,28.3-25.1c19.8-11.5,63.8-21.5,100.4-17.9
		c36.6,3.6,73.5,16.4,102,37.7c28.5,21.3,43.1,47.1,43.8,71.4c0.7,24.3-25.4,54.6-40,63.1c-14.6,8.4-3.6,2.1-5.5,3
		c-1.7,1.1,9.4-5.3-5.2,3.2c-14.6,8.4-67.2,23.5-109.3,23.1c-42.1-0.4-86.7-8.9-123.5-25.3C33-451.4,10.8-472.7,4.6-493.8
		C-1.6-514.9,15.8-540.3,35.6-551.8z"/>
	<path class="st15" d="M147.6-359.7c-27.3-4-54.1-11.2-77.7-21.8c-24.2-10.8-42.1-23.7-53.3-37.3v-53.4l131.1,20V-359.7z"/>
	<path class="st16" d="M123.8-364.1c-1.9-0.4-3.8-0.8-5.6-1.3l3.9-35.7L123.8-364.1L123.8-364.1z M72.6-380.3
		c-0.9-0.4-1.8-0.8-2.7-1.2c-0.5-0.2-1.1-0.5-1.6-0.7l3.6-20.4L72.6-380.3L72.6-380.3z M37.8-399.5c-2.1-1.5-4.1-3-6-4.5l2.6-34
		L37.8-399.5z"/>
	<path class="st17" d="M82.5-557.8c-15.6,3.9-29.8,9.2-41.7,16.1C22.2-531,10.6-517.3,8.6-501.9c-1.3,10.3,1.7,20.3,7.9,29.7
		c11.2,13.6,29.1,26.5,53.3,37.3c23.6,10.5,50.4,17.8,77.7,21.8c8.1,0.9,16.4,1.6,24.6,1.9c37.1,1.5,74.2-3.3,104-15.5
		c5.8-2.4,11.4-5,16.4-8c1.7-1,3.4-2,5-3.1c0.2-0.1,0.5-0.3,0.7-0.4c0.2-0.1,0.5-0.2,0.7-0.4c1.8-0.9,3.6-1.9,5.3-2.9
		c5.1-2.9,9.7-6.1,13.8-9.5c21.1-17.2,29.4-38.6,26.8-60c-2.6-21.4-16.1-42.8-38.6-59.9c-14.1-10.7-32-19.9-52.2-26.1
		c-20.2-6.2-42.8-9.5-66.1-8.5c-26.8,1.1-50.4,7.9-69,18.6c-11.9,6.9-21.2,15.1-27.9,24.1c-0.9,1.2-1.7,2.3-2.5,3.5
		C86.5-558.8,84.5-558.3,82.5-557.8z"/>
	<path class="st18" d="M212.5-590.3c3.5,0.8,7,1.5,10.5,2.3c20.5,3,26.6,20.6,11.2,32c-2.4,1.9-13.1,9.5,7.9,16.5
		c-16.3-7.5-4-13.5-2.8-14.7C260.3-575.1,248.2-590.3,212.5-590.3L212.5-590.3z M82.1-543l15-3.2c10.1-2.1,19.2-6.9,26.3-13.6
		c3.3-3.1,5.7-6.9,7.1-11.1l-0.2,4.4c-0.3,7.5-4.8,14.5-11.9,18.5C105.8-540.8,95.9-540.4,82.1-543L82.1-543z M212.1-529.5l10.7,3.7
		c17.7,6,36.8,6,54.5,0c15.4-5.3,32-5.3,47.4,0l-20.3,2.1c-11.5,1.2-22.8,4.2-33.4,9c-20.8,9.3-44.5,9.3-65.3,0L212.1-529.5
		L212.1-529.5z M66.6-466.4l12.1,3.6c15.1,4.6,31.3,4.6,46.4,0c17.6-5.3,36.4-5.3,54,0l-6.6-4.2c-14.6-9.3-48.3-9.2-62.9,0.1
		C97.6-461.6,74.3-466.3,66.6-466.4L66.6-466.4z M161.8-543.4l17.3-4.9c5.1-1.4,8.6-6.1,8.6-11.4c0-5.3-3.5-10-8.6-11.4
		c-10.6-3-20.3-8.6-28.3-16.3l6,0.8c11.2,1.5,22.1,4.4,32.5,8.7c8.3,3.4,13.2,12,12,20.9c-1.2,9-1.2,18.2,0,27.2L161.8-543.4
		L161.8-543.4z M200.4-495.6l20.4,3.7c8.8,1.6,14.8,6.9,14.8,13.1c0,6.1-6.1,11.5-14.8,13.1c-9.9,1.8-17.6,7-20.2,13.6
		c-2.6,6.6,0.2,13.7,7.4,18.6l-11.6-6.6c-4.9-2.8-7.8-7-7.8-11.3c0-4.4,2.9-8.5,7.8-11.3c5.8-3.3,11.3-7,16.2-10.9
		c2.4-1.9,6.4-7.7-8.1-8.8c-26-2.1-32.4-6.8-37.7-8.3L200.4-495.6L200.4-495.6z M134.5-504.4l-29.7-0.5c-12.8-0.2-25.5,3.2-36.5,9.8
		c-14.8,8.9-33.2,8.9-48,0l11.3-0.5c10.2-0.4,20.2-3.1,29.3-7.9c18.6-9.8,39.1-15.3,60.1-16.1L134.5-504.4L134.5-504.4z
		 M324.7-495.6l-7.2,1.7c-10.8,2.5-22.2,2.5-32.9,0c-11.4-2.6-23.5-2.6-34.9,0h4.3c10.6,0,21.1,2.2,30.3,6.5
		c6.9,3.2,15.4,3.2,22.3,0L324.7-495.6z"/>
	<path class="st14" d="M130.8-538.2c19.3-11.1,51.2-10.8,71.3,0.9c20.1,11.6,20.8,30,1.5,41.2c-19.3,11.2-51.2,10.8-71.3-0.8
		C112.2-508.6,111.5-527,130.8-538.2z"/>
	<path class="st13" d="M143.6-530.8c12.5-7.2,33.2-7,46.2,0.6c13,7.5,13.5,19.5,1,26.7c-12.5,7.2-33.2,7-46.2-0.5
		C131.6-511.6,131.1-523.6,143.6-530.8z"/>
	<path class="st19" d="M143.6-530.8c9.4-5.4,23.5-6.6,35.4-3.7c-8.2,0-16.2,1.7-22.3,5.3c-12.5,7.2-12.1,19.2,0.9,26.7
		c3.2,1.9,6.9,3.3,10.8,4.2c-8.6,0-17.2-2-23.9-5.8C131.6-511.6,131.1-523.6,143.6-530.8z"/>
	<polygon class="st17" points="268.4,-428.9 279.2,-423.5 281.9,-389 286.1,-425.8 279.6,-433.6 	"/>
	<polygon class="st17" points="320.5,-458.7 334.3,-458.1 335.2,-444.8 339.2,-464.5 322.7,-467.2 	"/>
	<path class="st17" d="M98.8-571.6l1.6-3c4.2-8.2,10.8-14.8,19-19l-1.4,1.8c-4.6,5.9-6.6,13.4-5.6,20.8L98.8-571.6z"/>
	<path class="st17" d="M66.6-553.1l-5.7,0.4c-12.1,0.9-24,4.1-34.9,9.4l5.6-1.1c10.5-2,21.3-2,31.8,0L66.6-553.1z"/>
	<polygon class="st17" points="222.8,-358 224.1,-383.3 228.2,-358.7 	"/>
	<polygon class="st17" points="322,-391.8 324.3,-407.5 327.3,-396.8 	"/>
	<polygon class="st17" points="44.2,-454.3 46.1,-431.6 49.7,-450.1 82.1,-438 85.2,-399.3 88.6,-433.6 54.7,-461.1 	"/>
</g>
<path class="st3" d="M172,21.9C77,21.9,0,74.3,0,139c0,64.7,77,117.1,172,117.1s172-52.4,172-117.1C344.1,74.3,267.1,21.9,172,21.9z
	 M172,217.3c-79.8,0-144.9-41.3-144.9-91.9c0-50.6,65.1-91.9,144.9-91.9c79.8,0,144.9,41.3,144.9,91.9
	C317,176,251.9,217.3,172,217.3z"/>
</svg>
