<?xml version="1.0" encoding="utf-8"?>
<!-- Generator: Adobe Illustrator 25.0.0, SVG Export Plug-In . SVG Version: 6.00 Build 0)  -->
<svg version="1.1" id="Publicdomainvectors.org" xmlns="http://www.w3.org/2000/svg" xmlns:xlink="http://www.w3.org/1999/xlink"
	 x="0px" y="0px" viewBox="0 0 1156.9 811.8" style="enable-background:new 0 0 1156.9 811.8;" xml:space="preserve">
<style type="text/css">
	.st0{fill-rule:evenodd;clip-rule:evenodd;fill:#F29E73;}
	.st1{fill-rule:evenodd;clip-rule:evenodd;fill:#DF9D7C;}
	.st2{clip-path:url(#SVGID_2_);}
	.st3{clip-path:url(#SVGID_4_);}
	.st4{fill-rule:evenodd;clip-rule:evenodd;fill:#FFFFFF;}
	.st5{clip-path:url(#SVGID_6_);}
	.st6{clip-path:url(#SVGID_8_);}
	.st7{fill-rule:evenodd;clip-rule:evenodd;fill:#343462;}
	.st8{fill-rule:evenodd;clip-rule:evenodd;fill:url(#path30_1_);}
	.st9{fill:none;}
	.st10{fill-rule:evenodd;clip-rule:evenodd;fill:#E85353;}
	.st11{fill-rule:evenodd;clip-rule:evenodd;fill:#700F10;}
	.st12{fill-rule:evenodd;clip-rule:evenodd;fill:url(#path472_1_);}
	.st13{fill-rule:evenodd;clip-rule:evenodd;fill:url(#path494_1_);}
	.st14{fill-rule:evenodd;clip-rule:evenodd;fill:url(#path514_1_);}
	.st15{fill-rule:evenodd;clip-rule:evenodd;fill:#F8F0E6;}
	.st16{clip-path:url(#SVGID_10_);fill:url(#SVGID_11_);}
	.st17{fill:#A31E22;}
	.st18{opacity:0.439;fill:#EBB5B5;enable-background:new    ;}
	.st19{fill:url(#path6819_3_);}
	.st20{opacity:0.6516;fill:#5A0E12;enable-background:new    ;}
	.st21{opacity:0.3031;fill-rule:evenodd;clip-rule:evenodd;fill:#010101;enable-background:new    ;}
	.st22{fill-rule:evenodd;clip-rule:evenodd;fill:#9D6A28;}
	.st23{fill-rule:evenodd;clip-rule:evenodd;fill:#75471C;}
	.st24{fill-rule:evenodd;clip-rule:evenodd;fill:#3E1C14;}
	.st25{fill:url(#path6819_4_);}
	.st26{fill-rule:evenodd;clip-rule:evenodd;fill:#F5B290;}
	.st27{fill-rule:evenodd;clip-rule:evenodd;fill:#FBC4A7;}
	.st28{fill-rule:evenodd;clip-rule:evenodd;fill:url(#path11_1_);}
	.st29{fill-rule:evenodd;clip-rule:evenodd;fill:#AFB0B2;}
	.st30{fill-rule:evenodd;clip-rule:evenodd;fill:#CED0D1;}
	.st31{fill-rule:evenodd;clip-rule:evenodd;fill:#C7C8C9;}
	.st32{fill-rule:evenodd;clip-rule:evenodd;fill:url(#path100_1_);}
	.st33{fill-rule:evenodd;clip-rule:evenodd;fill:url(#path107_1_);}
	.st34{fill-rule:evenodd;clip-rule:evenodd;fill:url(#path114_1_);}
	.st35{fill-rule:evenodd;clip-rule:evenodd;fill:url(#path121_1_);}
	.st36{fill-rule:evenodd;clip-rule:evenodd;fill:url(#path128_1_);}
	.st37{fill-rule:evenodd;clip-rule:evenodd;fill:url(#path135_1_);}
	.st38{fill-rule:evenodd;clip-rule:evenodd;fill:url(#path142_1_);}
	.st39{fill-rule:evenodd;clip-rule:evenodd;fill:url(#path149_1_);}
	.st40{fill-rule:evenodd;clip-rule:evenodd;fill:url(#path156_1_);}
	.st41{fill-rule:evenodd;clip-rule:evenodd;fill:url(#path163_1_);}
	.st42{fill-rule:evenodd;clip-rule:evenodd;fill:url(#path170_1_);}
	.st43{fill-rule:evenodd;clip-rule:evenodd;fill:url(#path177_1_);}
	.st44{fill-rule:evenodd;clip-rule:evenodd;fill:url(#path184_1_);}
	.st45{fill-rule:evenodd;clip-rule:evenodd;fill:url(#path191_1_);}
	.st46{fill-rule:evenodd;clip-rule:evenodd;fill:url(#path198_1_);}
	.st47{fill-rule:evenodd;clip-rule:evenodd;fill:url(#path205_1_);}
	.st48{fill-rule:evenodd;clip-rule:evenodd;fill:url(#path212_1_);}
	.st49{fill-rule:evenodd;clip-rule:evenodd;fill:#A78A56;}
	.st50{fill-rule:evenodd;clip-rule:evenodd;fill:url(#path221_1_);}
	.st51{fill-rule:evenodd;clip-rule:evenodd;fill:url(#path228_1_);}
	.st52{fill-rule:evenodd;clip-rule:evenodd;fill:#625132;}
	.st53{fill-rule:evenodd;clip-rule:evenodd;fill:#8B7448;}
	.st54{fill-rule:evenodd;clip-rule:evenodd;fill:#A58D54;}
	.st55{fill-rule:evenodd;clip-rule:evenodd;fill:url(#path241_1_);}
	.st56{fill-rule:evenodd;clip-rule:evenodd;fill:#745F3A;}
	.st57{fill-rule:evenodd;clip-rule:evenodd;fill:#4D4128;}
	.st58{fill-rule:evenodd;clip-rule:evenodd;fill:url(#path252_1_);}
	.st59{fill-rule:evenodd;clip-rule:evenodd;fill:#CAA769;}
	.st60{fill-rule:evenodd;clip-rule:evenodd;fill:url(#path261_1_);}
	.st61{fill-rule:evenodd;clip-rule:evenodd;fill:url(#path268_1_);}
	.st62{fill-rule:evenodd;clip-rule:evenodd;fill:url(#path275_1_);}
	.st63{fill-rule:evenodd;clip-rule:evenodd;fill:url(#path282_1_);}
	.st64{fill-rule:evenodd;clip-rule:evenodd;fill:url(#path289_1_);}
	.st65{fill-rule:evenodd;clip-rule:evenodd;fill:url(#path296_1_);}
	.st66{fill-rule:evenodd;clip-rule:evenodd;fill:url(#path303_1_);}
	.st67{fill-rule:evenodd;clip-rule:evenodd;fill:url(#path310_1_);}
	.st68{fill-rule:evenodd;clip-rule:evenodd;fill:url(#path317_1_);}
	.st69{fill-rule:evenodd;clip-rule:evenodd;fill:url(#path324_1_);}
	.st70{fill-rule:evenodd;clip-rule:evenodd;fill:url(#path331_1_);}
	.st71{fill-rule:evenodd;clip-rule:evenodd;fill:url(#path352_1_);}
	.st72{fill:#41803C;}
	.st73{opacity:0.97;}
	.st74{fill:#7F421C;fill-opacity:0;stroke:#41803C;stroke-width:2;stroke-miterlimit:10;}
	.st75{opacity:0.5;fill:#94C93D;stroke:#6ABD45;stroke-linecap:round;stroke-linejoin:round;enable-background:new    ;}
	.st76{fill:url(#imagebot_136_2_);}
	.st77{fill:url(#imagebot_134_2_);}
	.st78{fill:url(#imagebot_132_2_);}
	.st79{fill:url(#imagebot_130_2_);}
	.st80{fill:url(#imagebot_128_2_);}
	.st81{fill:url(#imagebot_126_2_);}
	.st82{fill:url(#imagebot_124_2_);}
	.st83{fill:url(#imagebot_122_2_);}
	.st84{fill:url(#imagebot_120_2_);}
	.st85{fill:url(#imagebot_118_2_);}
	.st86{fill:url(#imagebot_116_2_);}
	.st87{fill:url(#imagebot_114_2_);}
	.st88{fill:url(#imagebot_112_2_);}
	.st89{fill:url(#imagebot_110_2_);}
	.st90{fill:url(#imagebot_108_2_);}
	.st91{fill:url(#imagebot_106_2_);}
	.st92{fill:url(#imagebot_104_2_);}
	.st93{fill:url(#imagebot_102_2_);}
	.st94{fill:url(#imagebot_100_2_);}
	.st95{fill:url(#imagebot_98_2_);}
	.st96{fill:url(#imagebot_96_2_);}
	.st97{fill:url(#imagebot_84_2_);}
	.st98{fill:url(#imagebot_78_2_);}
	.st99{fill:url(#imagebot_72_2_);}
	.st100{fill:url(#imagebot_66_2_);}
	.st101{fill:url(#imagebot_60_2_);}
	.st102{fill:url(#imagebot_54_2_);}
	.st103{fill:url(#imagebot_48_2_);}
	.st104{fill:url(#imagebot_34_2_);}
	.st105{fill:url(#imagebot_10_2_);}
	
		.st106{opacity:0.5;fill:#94C93D;stroke:#94C93D;stroke-linecap:round;stroke-linejoin:round;stroke-opacity:0;enable-background:new    ;}
	.st107{fill:url(#imagebot_136_3_);}
	.st108{fill:url(#imagebot_134_3_);}
	.st109{fill:url(#imagebot_132_3_);}
	.st110{fill:url(#imagebot_130_3_);}
	.st111{fill:url(#imagebot_128_3_);}
	.st112{fill:url(#imagebot_126_3_);}
	.st113{fill:url(#imagebot_124_3_);}
	.st114{fill:url(#imagebot_122_3_);}
	.st115{fill:url(#imagebot_120_3_);}
	.st116{fill:url(#imagebot_118_3_);}
	.st117{fill:url(#imagebot_116_3_);}
	.st118{fill:url(#imagebot_114_3_);}
	.st119{fill:url(#imagebot_112_3_);}
	.st120{fill:url(#imagebot_110_3_);}
	.st121{fill:url(#imagebot_108_3_);}
	.st122{fill:url(#imagebot_106_3_);}
	.st123{fill:url(#imagebot_104_3_);}
	.st124{fill:url(#imagebot_102_3_);}
	.st125{fill:url(#imagebot_100_3_);}
	.st126{fill:url(#imagebot_98_3_);}
	.st127{fill:url(#imagebot_96_3_);}
	.st128{fill:url(#imagebot_84_3_);}
	.st129{fill:url(#imagebot_78_3_);}
	.st130{fill:url(#imagebot_72_3_);}
	.st131{fill:url(#imagebot_66_3_);}
	.st132{fill:url(#imagebot_60_3_);}
	.st133{fill:url(#imagebot_54_3_);}
	.st134{fill:url(#imagebot_48_3_);}
	.st135{fill:url(#imagebot_34_3_);}
	.st136{fill:url(#imagebot_10_3_);}
</style>
<path class="st0" d="M866.8,629.1l-69.5-12.7c-8.6-1.6-15.9-4.4-22.1-10.6L737.5,568c-4.8-4.8-7.5-10.1-8.7-16.8l-3.7-21.7
	c-0.4-2.5,0.4-4.9,2.3-6.5c1.9-1.7,4.3-2.2,6.8-1.5c6.5,2,11.8,6.7,14.7,13.3l5.9,13.6l49.1,30.6l62.9,0.8V629.1z"/>
<path class="st0" d="M881.9,644.7l-89.3-16.3c-11.1-2-20.4-5.7-28.4-13.6l-48.6-48.6c-6.1-6.1-9.7-13-11.1-21.6l-4.7-27.9
	c-0.5-3.2,0.5-6.2,3-8.4c2.5-2.2,5.6-2.8,8.7-1.9c8.3,2.5,15.2,8.6,18.8,17l7.6,17.5l63.1,39.4l80.9,1V644.7z"/>
<path class="st0" d="M844.4,630.1l-89.3-16.3c-11.1-2-20.4-5.7-28.4-13.6l-48.6-48.6c-6.1-6.1-9.7-13-11.1-21.6l-4.7-27.9
	c-0.5-3.2,0.5-6.2,3-8.4c2.5-2.2,5.6-2.8,8.7-1.9c8.3,2.5,15.2,8.6,18.8,17l7.6,17.5l63.1,39.4l80.9,1V630.1z"/>
<path class="st1" d="M794.7,579c6.5-0.4,0.3-20.6-5.9-18.6l-13.9,4.3c-5.1,1.6-0.7,15.5,4.6,15.2L794.7,579z"/>
<path class="st0" d="M290.1,633.1l69.5-12.7c8.6-1.6,15.9-4.4,22.1-10.6l37.8-37.8c4.8-4.8,7.5-10.1,8.7-16.8l3.7-21.7
	c0.4-2.5-0.4-4.9-2.3-6.5c-1.9-1.7-4.3-2.2-6.8-1.5c-6.5,2-11.8,6.7-14.7,13.3l-5.9,13.6L353,582.9l-62.9,0.8V633.1z"/>
<path class="st0" d="M275.1,648.7l89.3-16.3c11.1-2,20.4-5.7,28.4-13.6l48.6-48.6c6.1-6.1,9.7-13,11.1-21.6l4.7-27.9
	c0.5-3.2-0.5-6.2-3-8.4c-2.5-2.2-5.6-2.8-8.7-1.9c-8.3,2.5-15.2,8.6-18.8,17l-7.6,17.5l-63.1,39.4l-80.9,1V648.7z"/>
<path class="st0" d="M312.5,634.1l89.3-16.3c11.1-2,20.4-5.7,28.4-13.6l48.6-48.6c6.1-6.1,9.7-13,11.1-21.6l4.7-27.9
	c0.5-3.2-0.5-6.2-3-8.4c-2.5-2.2-5.6-2.8-8.7-1.9c-8.3,2.5-15.2,8.6-18.8,17l-7.6,17.5l-63.1,39.4l-80.9,1V634.1z"/>
<path class="st1" d="M362.2,583c-6.5-0.4-0.3-20.6,5.9-18.6l13.9,4.3c5.1,1.6,0.7,15.5-4.6,15.2L362.2,583z"/>
<g id="g516">
	<g id="g532">
		<g id="g544">
			<g>
				<g>
					<g>
						<defs>
							<rect id="SVGID_1_" x="202.3" y="190.6" width="139.5" height="31.1"/>
						</defs>
						<clipPath id="SVGID_2_">
							<use xlink:href="#SVGID_1_"  style="overflow:visible;"/>
						</clipPath>
						<g id="g546" class="st2">
							<g id="g548" transform="translate(0 -.66858)">
								<g id="g552">
									<g>
										<g>
											<g>
												<defs>
													<rect id="SVGID_3_" x="202.3" y="190.4" width="139.5" height="31.1"/>
												</defs>
												<clipPath id="SVGID_4_">
													<use xlink:href="#SVGID_3_"  style="overflow:visible;"/>
												</clipPath>
												<g id="g554" class="st3">
													<g id="g556">
														<path id="path558" class="st4" d="M216,204.1c7.5,2.5,21.2,5,38.6,7.5c21.2,2.5,46.1,5,73.5,5
															c-1.2,2.5-13.7,2.5-39.8,1.2c-33.6-1.2-58.5-5-74.7-11.2c-2.5-1.2-3.7-2.5-3.7-2.5C211,202.9,213.5,202.9,216,204.1z"
															/>
													</g>
												</g>
											</g>
										</g>
									</g>
								</g>
							</g>
						</g>
					</g>
				</g>
			</g>
		</g>
	</g>
</g>
<g id="g332">
	<g id="g348">
		<g id="g360">
			<g>
				<g>
					<g>
						<defs>
							<rect id="SVGID_5_" x="187.3" y="190.6" width="249" height="77.2"/>
						</defs>
						<clipPath id="SVGID_6_">
							<use xlink:href="#SVGID_5_"  style="overflow:visible;"/>
						</clipPath>
						<g id="g362" class="st5">
							<g id="g364" transform="translate(0 -.66858)">
								<g id="g368">
									<g>
										<g>
											<g>
												<defs>
													<rect id="SVGID_7_" x="187.3" y="190.4" width="249" height="77.2"/>
												</defs>
												<clipPath id="SVGID_8_">
													<use xlink:href="#SVGID_7_"  style="overflow:visible;"/>
												</clipPath>
												<g id="g370" class="st6">
													<g id="g372">
														<path id="path374" class="st7" d="M412.7,207.9c2.5,7.5,8.7,16.2,18.7,28.6c-6.2,6.2-12.5,11.2-21.2,16.2
															c-5,2.5-12.5,5-22.4,5c-12.5,1.2-19.9,2.5-22.4,3.7c-5,1.2-12.5,2.5-22.4,1.2c-11.2-1.2-18.7-2.5-23.7-2.5
															c-2.5,0-10-2.5-19.9-6.2c-10-3.7-24.9-5-42.3-6.2c-16.2-1.2-28.6-2.5-36.1-6.2c0,0-5-2.5-12.5-10
															c-5-2.5-11.2-3.7-18.7-3.7c6.2-12.5,12.5-21.2,17.4-27.4v-3.7C341.7,196.6,410.2,200.4,412.7,207.9z"/>
													</g>
												</g>
											</g>
										</g>
									</g>
								</g>
							</g>
						</g>
					</g>
				</g>
			</g>
		</g>
	</g>
</g>
<g id="g22">
	
		<linearGradient id="path30_1_" gradientUnits="userSpaceOnUse" x1="156.1965" y1="615.8032" x2="457.5288" y2="615.8032" gradientTransform="matrix(1 0 0 -1 0 1017.625)">
		<stop  offset="0" style="stop-color:#C3292F"/>
		<stop  offset="0.6309" style="stop-color:#9D1E2F"/>
		<stop  offset="1" style="stop-color:#8A192E"/>
	</linearGradient>
	<path id="path30" class="st8" d="M433.9,236.7c8.7,8.7,14.9,17.4,17.4,26.1c3.7,10,6.2,23.7,6.2,41.1c0,16.2-1.2,56-5,119.5
		c-2.5,59.8-5,95.9-6.2,107.1c-1.2,13.7-7.5,26.1-17.4,38.6c-12.5,16.2-33.6,28.6-59.8,36.1c-21.2,6.2-42.3,8.7-62.3,7.5
		c-19.9,1.2-41.1-1.2-62.3-7.5c-26.1-7.5-47.3-19.9-59.8-36.1c-10-12.5-16.2-24.9-17.4-38.6c-1.2-11.2-3.7-47.3-6.2-107.1
		c-2.5-63.5-5-103.3-5-119.5c0-17.4,2.5-31.1,6.2-41.1c2.5-7.5,8.7-16.2,17.4-26.1c14.9-16.2,26.1-31.1,34.9-46.1l93.4,5l92.1-5
		C409,205.6,420.2,221.7,433.9,236.7z"/>
</g>
<g id="g32">
	<g id="g34">
		<g id="g40">
			<path id="path48" class="st9" d="M425.2,241.7c7.5,8.7,13.7,17.4,16.2,24.9c3.7,10,5,23.7,5,39.8c0,14.9-1.2,54.8-5,117
				c-2.5,54.8-3.7,89.7-5,103.3s-6.2,26.1-16.2,37.4c-13.7,16.2-32.4,28.6-57.3,36.1c-19.9,6.2-39.8,8.7-58.5,7.5
				c-18.7,1.2-38.6-1.2-58.5-7.5c-24.9-7.5-43.6-18.7-57.3-36.1c-10-12.5-14.9-24.9-16.2-37.4c1.2-10-1.2-44.8-3.7-103.3
				c-2.5-61-5-99.6-5-117c0-17.4,2.5-29.9,5-39.8c2.5-7.5,8.7-16.2,16.2-24.9c16.2-17.4,26.1-31.1,33.6-46.1l87.2,5l87.2-5
				C401.5,211.8,412.7,226.7,425.2,241.7z"/>
		</g>
	</g>
</g>
<g id="g376">
	<g id="g378">
		<g id="g384">
			<path id="path392" class="st10" d="M410.2,189.4c2.5,7.5,7.5,13.7,16.2,16.2c3.7,1.2,7.5,2.5,11.2,2.5c0,2.5-1.2,3.7-2.5,6.2
				c-2.5,3.7-6.2,6.2-13.7,7.5c-2.5,0-5,1.2-7.5,5c-2.5,2.5-6.2,3.7-10,3.7c-10,0-21.2,1.2-31.1,3.7c-3.7,1.2-10,3.7-18.7,7.5
				c-7.5,3.7-13.7,6.2-17.4,6.2c-10-1.2-17.4-2.5-21.2-1.2c-7.5,1.2-13.7,0-21.2-2.5c-14.9-7.5-29.9-7.5-44.8-5
				c-12.5,2.5-24.9,0-36.1-8.7c-5-3.7-10-5-13.7-6.2c-6.2,0-10,0-11.2-1.2c-2.5-2.5-6.2-5-8.7-10l-2.5-5
				c11.2-3.7,18.7-7.5,21.2-11.2c3.7-3.7,7.5-12.5,11.2-28.6c32.4,0,64.7,1.2,98.4,2.5C374.1,175.7,407.7,181.9,410.2,189.4z"/>
		</g>
	</g>
</g>
<g id="g394">
	<g id="g396">
		<g id="g402">
			<path id="path410" class="st11" d="M437.6,208c0,1.2-1.2,3.7-2.5,5c-2.5,3.7-6.2,6.2-12.5,7.5c-5-3.7-12.5-11.2-19.9-19.9
				c-2.5-2.5-6.2-2.5-12.5,1.2l-7.5,6.2l2.5,23.7l-12.5,2.5c-3.7,1.2-10,3.7-17.4,7.5c-7.5,3.7-12.5,5-16.2,6.2l2.5-11.2
				c3.7-8.7,6.2-16.2,7.5-24.9h-43.6c-1.2,5-5,11.2-11.2,18.7c-2.5,3.7-5,7.5-7.5,10c-13.7-3.7-27.4-3.7-38.6,0
				c-2.5,1.2-5,1.2-10,1.2l7.5-5c12.5-6.2,21.2-14.9,26.1-26.1l-14.9-7.5l-16.2,2.5l-12.5,8.7c-3.7,3.7-12.5,7.5-23.7,12.5
				c-7.5,0-12.5-1.2-16.2-3.7l-7.5-7.5l8.7-2.5c11.2-2.5,22.4-10,36.1-23.7l188,6.2c5,7.5,11.2,11.2,18.7,11.2
				C432.6,206.8,437.6,208,437.6,208z"/>
		</g>
	</g>
</g>
<g id="g456">
	<g id="g458">
		<g id="g464">
			
				<linearGradient id="path472_1_" gradientUnits="userSpaceOnUse" x1="197.2873" y1="-212.852" x2="414.8841" y2="-212.852" gradientTransform="matrix(1 0 0 -1 0 -20.3752)">
				<stop  offset="0" style="stop-color:#FEE5A3"/>
				<stop  offset="1" style="stop-color:#87733E"/>
			</linearGradient>
			<path id="path472" class="st12" d="M415.2,193.1c0,7.5-11.2,13.7-31.1,17.4c-21.2,5-47.3,7.5-77.2,7.5c-29.9,0-56-2.5-77.2-7.5
				s-32.4-11.2-32.4-17.4s11.2-13.7,32.4-18.7s46.1-7.5,77.2-7.5c29.9,0,56,2.5,77.2,7.5S415.2,185.6,415.2,193.1z"/>
		</g>
	</g>
</g>
<g id="g474">
	<g id="g476">
		<g id="g482">
			
				<linearGradient id="path494_1_" gradientUnits="userSpaceOnUse" x1="196.6958" y1="-192.3066" x2="416.7805" y2="-192.3066" gradientTransform="matrix(1 0 0 -1 0 -20.3752)">
				<stop  offset="0" style="stop-color:#4451A3"/>
				<stop  offset="0.3255" style="stop-color:#485CAA"/>
				<stop  offset="0.6" style="stop-color:#485AA8"/>
				<stop  offset="1" style="stop-color:#4753A4"/>
			</linearGradient>
			<path id="path494" class="st13" d="M417.7,138.3v44.8c-1.2,5-12.5,10-33.6,14.9c-22.4,5-48.6,7.5-77.2,7.5
				c-28.6,0-54.8-2.5-77.2-7.5c-21.2-5-32.4-10-32.4-16.2v-43.6H417.7z"/>
		</g>
	</g>
</g>
<g id="g496">
	<g id="g498">
		<g id="g504">
			
				<linearGradient id="path514_1_" gradientUnits="userSpaceOnUse" x1="-4296.9673" y1="2422.0552" x2="-4097.5083" y2="2422.0552" gradientTransform="matrix(-0.9973 7.340000e-02 7.340000e-02 0.9973 -4063.7173 -1968.657)">
				<stop  offset="0" style="stop-color:#4D63AE"/>
				<stop  offset="0.8157" style="stop-color:#4E60AC"/>
				<stop  offset="1" style="stop-color:#4C5FAB"/>
			</linearGradient>
			<path id="path514" class="st14" d="M416.4,138.3c0,6.2-11.2,11.2-32.4,14.9c-21.2,3.7-47.3,6.2-77.2,6.2
				c-31.1,0-57.3-2.5-78.4-6.2c-21.2-3.7-32.4-8.7-32.4-14.9s11.2-11.2,32.4-14.9c21.2-3.7,47.3-6.2,78.4-6.2
				c29.9,0,56,2.5,77.2,6.2C405.2,128.4,416.4,133.3,416.4,138.3z"/>
		</g>
	</g>
</g>
<path id="path560" class="st15" d="M213.5,570.4c8.7,5,13.7,8.7,14.9,13.7c1.2,5,0,7.5-2.5,7.5c-5,0-13.7-5-23.7-14.9
	c-5-5-5-7.5-1.2-8.7C203.5,566.7,208.5,567.9,213.5,570.4z"/>
<path id="path562" class="st15" d="M245.8,586.6c6.2,1.2,7.5,3.7,5,7.5c-2.5,3.7-5,3.7-7.5,1.2c-2.5-1.2-3.7-3.7-3.7-6.2
	S242.1,586.6,245.8,586.6z"/>
<g id="g564">
	<g id="g566">
		<g id="g572">
			<path id="path580" class="st10" d="M416.4,186.9c-3.7,5-13.7,10-28.6,13.7c-21.2,5-48.6,7.5-83.4,8.7
				c-48.6,0-83.4-6.2-107.1-16.2c-3.7-2.5-6.2-10-6.2-23.7c0-11.2,0-19.9,1.2-27.4c1.2-7.5,10-13.7,24.9-19.9
				c19.9-6.2,47.3-10,82.2-10c38.6,0,69.7,2.5,90.9,10c19.9,6.2,29.9,13.7,31.1,22.4C423.9,165.7,421.4,179.4,416.4,186.9z"/>
		</g>
	</g>
</g>
<g id="g582">
	<g id="g584">
		<g id="g590">
			<path id="path598" class="st11" d="M421.4,143.3v11.2c-17.4,16.2-28.6,28.6-33.6,37.4l-5,8.7c-11.2,2.5-21.2,3.7-31.1,5
				c21.2-26.1,37.4-43.6,49.8-51.1c10-5,16.2-10,18.7-13.7L421.4,143.3z"/>
		</g>
	</g>
</g>
<g id="g600">
	<g id="g602">
		<g id="g608">
			<path id="path616" class="st11" d="M207.2,145.8l68.5-33.6h36.1c-17.4,10-37.4,19.9-59.8,28.6c-8.7,5-18.7,7.5-27.4,10
				C211,162,201,174.4,193.6,185.6c-1.2-5-2.5-12.5-2.5-23.7c1.2-1.2,1.2-2.5,2.5-2.5C197.3,154.5,202.3,149.5,207.2,145.8z"/>
		</g>
	</g>
</g>
<g id="g618">
	<g id="g620">
		<g id="g626">
			<path id="path634" class="st11" d="M301.9,135.8c12.5-5,26.1-12.5,41.1-22.4l31.1,5c-24.9,14.9-41.1,23.7-47.3,26.1l-36.1,14.9
				c-12.5,5-23.7,14.9-33.6,26.1l-14.9,19.9c-7.5-2.5-16.2-3.7-28.6-7.5c12.5-14.9,22.4-26.1,31.1-33.6c5-3.7,8.7-6.2,12.5-7.5
				C255.8,157,301.9,135.8,301.9,135.8z"/>
		</g>
	</g>
</g>
<g id="g636">
	<g id="g638">
		<g id="g644">
			<path id="path652" class="st11" d="M309.4,169.4l84.7-47.3c7.5,2.5,12.5,5,17.4,8.7l-47.3,24.9c-19.9,10-34.9,22.4-46.1,38.6
				l-10,13.7h-32.4C290.7,189.4,300.6,175.7,309.4,169.4z"/>
		</g>
	</g>
</g>
<g id="g654">
	<g id="g656">
		<g id="g662">
			<path id="path670" class="st10" d="M308.1,159.5c-57.3,0-94.6-7.5-114.6-19.9c3.7-7.5,12.5-13.7,28.6-17.4
				c18.7-7.5,44.8-10,77.2-10c68.5,0,108.3,8.7,119.5,26.1C402.7,152,365.4,159.5,308.1,159.5z"/>
		</g>
	</g>
</g>
<g id="g672">
	<g id="g674">
		<g id="g680">
			<path id="path688" class="st11" d="M207.2,145.8l68.5-33.6h36.1c-17.4,10-37.4,19.9-59.8,28.6l-27.4,10L207.2,145.8L207.2,145.8z
				"/>
		</g>
	</g>
</g>
<g id="g690">
	<g id="g692">
		<g id="g698">
			<path id="path706" class="st11" d="M374.1,117.1c-6.2,2.5-16.2,7.5-28.6,13.7c-13.7,7.5-22.4,11.2-24.9,12.5l-29.9,14.9
				l-34.9-2.5l47.3-19.9c12.5-5,26.1-12.5,41.1-22.4v1.2l17.4,1.2l11.2,2.5C371.6,117.1,374.1,117.1,374.1,117.1z"/>
		</g>
	</g>
</g>
<g id="g708">
	<g id="g710">
		<g id="g716">
			<path id="path724" class="st11" d="M328,158.2l66-36.1l11.2,5l0,0l6.2,3.7l0,0l-43.6,23.7C369.1,155.7,328,158.2,328,158.2z"/>
		</g>
	</g>
</g>
<g>
	<g>
		<g>
			<g>
				<defs>
					<polygon id="SVGID_9_" points="432.6,500.7 450.1,286.5 143.7,286.5 143.7,511.9 					"/>
				</defs>
				<clipPath id="SVGID_10_">
					<use xlink:href="#SVGID_9_"  style="overflow:visible;"/>
				</clipPath>
				
					<linearGradient id="SVGID_11_" gradientUnits="userSpaceOnUse" x1="184.9078" y1="-419.5513" x2="424.843" y2="-419.5513" gradientTransform="matrix(1 0 0 -1 0 -20.3755)">
					<stop  offset="0" style="stop-color:#C3B395"/>
					<stop  offset="7.142900e-02" style="stop-color:#C7B89B"/>
					<stop  offset="0.1429" style="stop-color:#CBC1A3"/>
					<stop  offset="0.2143" style="stop-color:#D1C8AD"/>
					<stop  offset="0.2857" style="stop-color:#D8D0B7"/>
					<stop  offset="0.3571" style="stop-color:#D9D3B9"/>
					<stop  offset="0.4286" style="stop-color:#D9D3B9"/>
					<stop  offset="0.5" style="stop-color:#D9D3B9"/>
					<stop  offset="0.5714" style="stop-color:#D9D3B9"/>
					<stop  offset="0.6429" style="stop-color:#D6D0B6"/>
					<stop  offset="0.7143" style="stop-color:#D2C8AD"/>
					<stop  offset="0.7857" style="stop-color:#CDC1A6"/>
					<stop  offset="0.8571" style="stop-color:#C7B79C"/>
					<stop  offset="0.9286" style="stop-color:#C0AE8F"/>
					<stop  offset="1" style="stop-color:#BBAC8A"/>
				</linearGradient>
				<path class="st16" d="M425.2,425.9c0-1.2,0-2.5,0-3.7c0-1.2,0-2.5,0-3.7c-1.2-2.5-2.5-6.2-1.2-10c0-1.2,1.2-2.5,1.2-3.7
					c0-1.2,0-1.2-1.2-2.5c-1.2-2.5-2.5-5-1.2-7.5c0-2.5,1.2-3.7,2.5-5c0-2.5,0-3.7,0-6.2c0-1.2,0-3.7,0-5c0-2.5,0-3.7,0-5
					c0,0,0,0,0-1.2s0-2.5,0-3.7s-1.2-2.5-1.2-3.7c0-2.5,1.2-5,1.2-7.5c0-2.5,0-6.2,0-8.7c0-1.2,0-2.5,1.2-3.7
					c1.2-1.2,1.2-1.2,2.5-2.5c0-1.2-1.2-3.7-1.2-5c-1.2-2.5-1.2-3.7-1.2-6.2v-1.2c0,0,0,0,0-1.2c0-1.2,0-2.5,0-3.7
					c0-1.2,0-1.2,0-2.5c0,0,0-1.2-1.2-1.2c-2.5-1.2-5,0-7.5-1.2c-2.5,0-5-1.2-7.5-1.2s-5,1.2-7.5,1.2s-5,1.2-7.5,1.2s-3.7-1.2-5-2.5
					c-2.5,0-5,0-6.2,1.2c-2.5,1.2-5,1.2-7.5,1.2c-1.2,0-1.2-1.2-1.2-1.2c-2.5,1.2-6.2,1.2-8.7,1.2s-3.7,0-6.2-1.2
					c-1.2-1.2-3.7-1.2-6.2-1.2s-3.7,0-6.2,0c-1.2,0-2.5,1.2-5,1.2l0,0c0,0,0,0-1.2,0c-3.7,0-8.7,0-12.5-1.2H328l0,0h-1.2
					c-1.2,0-2.5-1.2-3.7,0c-1.2,0-1.2,1.2-2.5,1.2c-2.5,1.2-5,1.2-8.7,0c-3.7,3.7-5,3.7-6.2,3.7s-2.5,1.2-3.7,1.2
					c-2.5,1.2-6.2,0-8.7,1.2h-1.2c-3.7,1.2-7.5,2.5-12.5,1.2c-2.5,0-5-1.2-6.2-1.2c-2.5,0-5,0-6.2,0c-5,0-10,1.2-13.7,1.2
					c-1.2,0-1.2-1.2-1.2-1.2l0,0v-1.2l0,0c-2.5-1.2-5,0-8.7,0c-2.5,0-5,1.2-7.5,1.2c-2.5,1.2-3.7,1.2-6.2,2.5c-2.5,0-3.7,0-6.2-1.2
					c-1.2-1.2-2.5-2.5-5-2.5h-1.2c-2.5,0-3.7,1.2-6.2,1.2c-2.5,0-3.7,0-6.2-1.2c-1.2,0-1.2-1.2-1.2-2.5c0,0,0,0-1.2,0H201
					c-1.2,0-2.5,0-2.5,0c0,1.2,0,1.2-1.2,1.2c-2.5,0-5-1.2-7.5-1.2c0,1.2-1.2,2.5-1.2,5c0,2.5,1.2,3.7,1.2,6.2c1.2,3.7,0,6.2-1.2,10
					c0,1.2-1.2,3.7,0,5c0,1.2,1.2,2.5,1.2,5c0,1.2,0,3.7-1.2,5c2.5,3.7-1.2,7.5,0,11.2c0,2.5,1.2,5,1.2,7.5s0,5,1.2,7.5
					c0,2.5,1.2,5,1.2,7.5c0,1.2,0,2.5,0,3.7c0,1.2,0,2.5,0,3.7c0,3.7-1.2,7.5-3.7,10v1.2c0,1.2,0,3.7,0,5c0,0,0,0,0,1.2l0,0
					c1.2,0,1.2,0,1.2,1.2c1.2,2.5,0,3.7-1.2,5c0,1.2-1.2,1.2-1.2,2.5s0,2.5,0,3.7c0,1.2,1.2,2.5,2.5,3.7l1.2,1.2v1.2c0,0,0,0,1.2,0
					c1.2,1.2,0,3.7,0,5l0,0l0,0c1.2,0,2.5,1.2,1.2,2.5c0,1.2-2.5,3.7-2.5,5s0,2.5,0,3.7c0,1.2,0,2.5,0,2.5c1.2,1.2,1.2,1.2,2.5,2.5
					c2.5,2.5,1.2,6.2,0,8.7c0,1.2-1.2,3.7-1.2,5s-1.2,1.2-2.5,2.5c0,1.2,1.2,2.5,1.2,2.5c0,1.2,0,1.2,0,2.5c1.2,0,1.2,0,2.5,0
					c1.2,0,2.5,1.2,3.7,1.2c2.5,1.2,6.2,0,8.7,0l0,0c0,0,1.2-1.2,1.2,0c2.5,0,3.7,0,6.2-1.2c1.2-1.2,2.5-1.2,3.7-2.5
					c2.5,0,3.7,1.2,5,1.2c2.5,0,3.7,0,6.2,0c2.5,0,5,0,6.2,0c2.5,0,3.7-1.2,6.2-1.2c1.2,0,3.7,0,5,0c1.2,0,2.5,0,5,0l0,0
					c1.2,0,3.7,0,5,0c1.2,0,2.5,0,3.7-1.2c2.5-1.2,5-1.2,7.5,0l0,0c0,0,0,0,1.2,0c0,0,0,0,1.2,0c6.2-2.5,12.5-2.5,18.7-2.5
					c1.2,0,1.2,1.2,1.2,1.2l0,0c2.5-2.5,7.5-2.5,10-1.2c2.5,0,3.7,1.2,6.2,1.2c3.7,0,6.2,0,10,0h1.2l0,0c2.5,0,3.7-1.2,6.2-1.2
					c2.5,0,5,2.5,7.5,2.5s5-1.2,6.2-1.2c2.5,0,5,0,6.2,0s1.2,1.2,1.2,2.5c0,0,0,0,1.2,0c2.5,0,3.7-1.2,5-1.2s3.7,0,5,0l0,0
					c1.2,0,2.5-1.2,5-2.5c2.5,0,3.7,0,5,1.2c2.5,0,3.7,0,6.2,0c1.2,0,3.7,0,5,0c2.5,0,6.2-1.2,8.7-1.2c1.2,0,3.7,0,5,1.2
					c3.7,0,8.7,0,12.5-1.2c2.5,0,5-1.2,7.5,0c2.5,0,3.7,1.2,6.2,1.2l1.2-1.2c1.2-1.2,2.5-1.2,3.7-1.2c0-1.2-1.2-2.5-1.2-5
					c0-1.2,0-2.5,0-3.7c0-1.2,0-2.5-1.2-5c0-2.5,0-5,0-7.5c1.2-2.5,2.5-5,2.5-7.5s0-3.7,1.2-6.2c0,0,0,0,0-1.2s-1.2-1.2-1.2-2.5
					s0-3.7,1.2-5C425.2,430.9,425.2,428.4,425.2,425.9z"/>
			</g>
		</g>
	</g>
</g>
<g>
	<path id="path2536_1_" class="st17" d="M249.6,425.9c-3.7,16.2,6.2,32.4,22.4,34.9c16.2,3.7,31.1-7.5,34.9-23.7
		s-7.5-31.1-22.4-34.9C269.5,398.6,252.1,409.8,249.6,425.9z"/>
	<path id="path6236_1_" class="st18" d="M283.2,404.8c5,1.2,10,2.5,12.5,6.2c2.5,5-1.2,10-6.2,10c-5,0-10-3.7-14.9-5
		c-3.7-1.2-8.7-1.2-12.5,1.2c-5,2.5-8.7,7.5-8.7,12.5c0,2.5-1.2,3.7-1.2,6.2c-1.2-2.5,0-5,0-7.5c1.2-6.2,3.7-11.2,7.5-14.9
		c3.7-2.5,8.7-2.5,12.5,0c5,2.5,10,3.7,16.2,3.7c1.2,0,3.7-1.2,3.7-2.5c0-2.5-1.2-3.7-3.7-3.7c-6.2-2.5-14.9-3.7-21.2-1.2
		c-2.5,0,2.5-1.2,2.5-2.5C273.2,404.8,278.2,404.8,283.2,404.8L283.2,404.8z"/>
	
		<radialGradient id="path6819_3_" cx="-779.6396" cy="1787.202" r="23.7368" gradientTransform="matrix(-0.6163 -0.3718 -0.623 0.7007 896.2688 -1118.1853)" gradientUnits="userSpaceOnUse">
		<stop  offset="0" style="stop-color:#E79C9F"/>
		<stop  offset="1" style="stop-color:#8A181B;stop-opacity:0"/>
	</radialGradient>
	<path id="path6819_1_" class="st19" d="M257.1,422.2c-5,5-5,11.2,0,14.9c5,2.5,12.5,1.2,16.2-5c5-5,5-11.2,0-14.9
		C269.5,414.7,262,417.2,257.1,422.2z"/>
	<path id="path6829_1_" class="st20" d="M303.1,423.5c2.5,5,2.5,10,1.2,14.9c-2.5,12.5-14.9,21.2-29.9,21.2
		c14.9-3.7,26.1-12.5,28.6-26.1C303.1,430.9,303.1,427.2,303.1,423.5z"/>
	<g id="g3961_1_" transform="translate(42,20)">
		<path id="path12957_1_" class="st21" d="M232.5,391c0,1.2,2.5,2.5,5,3.7c3.7,1.2,6.2,0,6.2-1.2s-2.5-2.5-5-3.7
			C235,388.5,232.5,389.8,232.5,391z"/>
		<path id="path3319_1_" class="st22" d="M238.7,394.7c2.5-14.9,3.7-32.4,10-46.1c3.7-8.7,8.7-17.4,14.9-23.7
			c1.2-2.5-1.2-3.7-2.5-1.2c-5,5-10,12.5-12.5,21.2c-3.7,7.5-6.2,14.9-7.5,22.4c-1.2,8.7-3.7,17.4-5,24.9
			C236.2,393.5,237.5,394.7,238.7,394.7L238.7,394.7z"/>
		<path id="path3325_1_" class="st23" d="M259.9,330c5,0,6.2-5,10-6.2c3.7-2.5,1.2-7.5-3.7-6.2c-5,0-5,6.2-8.7,7.5
			C254.9,326.3,257.4,330,259.9,330L259.9,330z"/>
		<path id="path6226_1_" class="st24" d="M268.6,317.5c1.2,0,1.2,1.2,2.5,1.2c0,1.2,1.2,1.2,0,2.5c0,1.2-1.2,1.2-2.5,2.5l0,0
			c-1.2,1.2-2.5,2.5-3.7,3.7c-1.2,1.2-2.5,3.7-5,3.7l0,0c-1.2,0-2.5-1.2-3.7-2.5c0,0,0-1.2,0-2.5c0-1.2,0-1.2,1.2-1.2l0,0
			c1.2-1.2,2.5-2.5,3.7-3.7c1.2-1.2,2.5-3.7,5-3.7l0,0C267.4,316.3,268.6,316.3,268.6,317.5L268.6,317.5z M268.6,317.5
			c-1.2,0-1.2,0-2.5,0l0,0c-2.5,0-2.5,1.2-3.7,2.5c-1.2,1.2-2.5,3.7-3.7,5l0,0l-1.2,1.2v1.2c0,1.2,1.2,1.2,2.5,1.2
			c2.5,0,3.7-1.2,5-2.5s2.5-3.7,5-3.7l0,0c1.2,0,1.2-1.2,1.2-1.2c0-1.2,0-1.2,0-2.5C269.8,318.8,269.8,317.5,268.6,317.5
			L268.6,317.5z"/>
	</g>
	<path id="path2536_2_" class="st17" d="M369.1,425.9c3.7,16.2-7.5,31.1-22.4,34.9c-16.2,3.7-31.1-7.5-34.9-23.7
		c-3.7-16.2,7.5-31.1,22.4-34.9C349.2,398.6,365.4,409.8,369.1,425.9z"/>
	<path id="path6236_2_" class="st18" d="M335.5,404.8c-5,1.2-10,2.5-12.5,6.2c-2.5,5,1.2,10,6.2,10c5,0,10-3.7,14.9-5
		c3.7-1.2,8.7-1.2,12.5,1.2c5,2.5,8.7,7.5,8.7,12.5c0,2.5,1.2,3.7,1.2,6.2c1.2-2.5,0-5,0-7.5c-1.2-6.2-3.7-11.2-7.5-14.9
		c-3.7-2.5-8.7-2.5-12.5,0c-5,2.5-10,3.7-16.2,3.7c-1.2,0-3.7-1.2-3.7-2.5c0-2.5,1.2-3.7,3.7-3.7c6.2-2.5,14.9-3.7,21.2-1.2
		c2.5,0-2.5-1.2-2.5-2.5C345.5,404.8,340.5,403.5,335.5,404.8L335.5,404.8z"/>
	
		<radialGradient id="path6819_4_" cx="-102.1716" cy="2146.5544" r="23.7368" gradientTransform="matrix(0.6163 -0.3718 0.623 0.7007 -919.032 -1118.1853)" gradientUnits="userSpaceOnUse">
		<stop  offset="0" style="stop-color:#E79C9F"/>
		<stop  offset="1" style="stop-color:#8A181B;stop-opacity:0"/>
	</radialGradient>
	<path id="path6819_2_" class="st25" d="M361.7,422.2c5,5,5,11.2,0,14.9c-5,2.5-12.5,1.2-16.2-5c-5-5-5-11.2,0-14.9
		C349.2,414.7,356.7,417.2,361.7,422.2z"/>
	<path id="path6829_2_" class="st20" d="M315.6,423.5c-2.5,5-2.5,10-1.2,14.9c2.5,12.5,14.9,21.2,29.9,21.2
		c-14.9-3.7-26.1-12.5-28.6-26.1C315.6,430.9,315.6,427.2,315.6,423.5z"/>
	<path id="path12957_2_" class="st21" d="M344.2,411c0,1.2-2.5,2.5-5,3.7c-3.7,1.2-6.2,0-6.2-1.2s2.5-2.5,5-3.7
		C341.7,408.5,344.2,409.8,344.2,411z"/>
	<path id="path3319_2_" class="st22" d="M336.7,414.7c-2.5-14.9-3.7-32.4-10-46.1c-3.7-8.7-8.7-17.4-14.9-23.7
		c-1.2-2.5,1.2-3.7,2.5-1.2c6.2,6.2,10,13.7,13.7,22.4c3.7,7.5,6.2,14.9,7.5,22.4c1.2,8.7,3.7,17.4,5,24.9
		C340.5,413.5,339.2,414.7,336.7,414.7L336.7,414.7z"/>
	<path id="path3325_2_" class="st23" d="M316.8,350c-5,0-6.2-5-10-6.2c-3.7-2.5-1.2-7.5,3.7-6.2c5,0,5,6.2,8.7,7.5
		C321.8,346.3,319.3,350,316.8,350L316.8,350z"/>
	<path class="st24" d="M319.3,346.3c0-1.2,0-1.2-1.2-1.2l0,0c-1.2-1.2-2.5-2.5-3.7-3.7c-1.2-1.2-2.5-3.7-5-3.7l0,0
		c-1.2,0-2.5,0-2.5,0l0,0c-1.2,0-1.2,1.2-2.5,1.2l0,0c0,0,0,0,1.2,0l0,0l0,0l1.2-1.2l0,0c1.2,0,1.2,0,2.5,0l0,0
		c2.5,0,2.5,1.2,3.7,2.5s2.5,3.7,3.7,5l0,0C318.1,346.3,319.3,346.3,319.3,346.3c-1.2,0-1.2,1.2-1.2,1.2c0,1.2-1.2,1.2-2.5,1.2
		c-2.5,0-3.7-1.2-5-2.5s-1.2-1.2-2.5-2.5c0,0,0,0-1.2,1.2c1.2,1.2,1.2,1.2,2.5,2.5s2.5,2.5,5,2.5l0,0c1.2,0,2.5-1.2,3.7-2.5
		C319.3,347.5,320.6,347.5,319.3,346.3z"/>
</g>
<path class="st26" d="M22.1,811.8l45.1-177.9c6.3-25,16.2-31.3,41.2-25l175.1,43.8c13.5,3.4,25.7,3.8,39.4,1.3l99.9-18.3
	c11.1-2,20.4-5.7,28.4-13.6l48.6-48.6c6.1-6.1,9.7-13,11.1-21.6l4.7-27.9c0.5-3.2-0.5-6.2-3-8.4c-2.5-2.2-5.6-2.8-8.7-1.9
	c-8.3,2.5-15.2,8.6-18.8,17l-7.6,17.5l-63.1,39.4l-89.4-18.1L45.5,542.5L0,627.1v184.7H22.1z"/>
<path class="st27" d="M0,559l17-27.8c7.5-12.3,18.6-20,32.7-22.6l44.1-8.4c37.4-7.1,71.2-4.6,107.2,7.9l22.6,7.9
	c31.9,11.1,60.4,17.2,94,20.2c17.7,1.6,33,5.7,49.4,13.1l12.7,5.7c6.1,2.8,9.5,9.2,8.3,15.8l-0.7,3.8c-1.3,7-7.3,11.9-14.4,11.8
	l-25.4-0.3c-11.9-0.1-22.2-1.4-33.5-4c-46.5-11-88.5-11-135-0.1l-23.8,5.6c-24,5.6-46.5,2.5-67.9-9.6l-0.9-0.5
	c-9.6-5.4-20.2-6-30.3-1.6c-10.1,4.4-16,12.7-19.7,23.1L0,702V559z"/>
<path class="st1" d="M360.2,583c-6.5-0.4-0.3-20.6,5.9-18.6l13.9,4.3c5.1,1.6,0.7,15.5-4.6,15.2L360.2,583z"/>
<linearGradient id="path11_1_" gradientUnits="userSpaceOnUse" x1="1727.9954" y1="-73.1263" x2="1971.5126" y2="-73.1263" gradientTransform="matrix(0.85 0 0 -0.85 -729.6093 386.9976)">
	<stop  offset="0" style="stop-color:#FFFFFF;stop-opacity:0.298"/>
	<stop  offset="1" style="stop-color:#ADD9DC;stop-opacity:0.549"/>
</linearGradient>
<path id="path11" class="st28" d="M926.1,301.5c11.9,8.2,17.8,15.6,17.8,22.1l7,195.1c0,9-1.6,20.9-4.8,35.6
	c-3.9,17.2-8.7,29.5-14,36.7c-4,4.7-14.5,9.9-31.8,15.6c-19.4,6.1-38.6,9.2-57.7,9.2c-18.3-0.3-36.9-3.6-55.5-9.7
	c-16.5-5.4-26.5-10.4-30.2-15.1c-5.3-6.8-10-19-14-36.7c-3.2-14.4-4.8-26.2-4.8-35.6l6.5-195.1c0-6.5,5.9-13.8,17.8-22.1
	c10.8-7.6,22.1-12.7,34-15.6c7.2-1.8,12.9-2.9,17.2-3.2h61.5c4.3,0.3,10,1.4,17.2,3.2c11.8,2.9,23.2,8.1,33.9,15.6L926.1,301.5
	L926.1,301.5z"/>
<path id="path18" class="st29" d="M917,345.1c9.3-4.7,15.3-9.2,17.8-13.5l3.7,86.2c2.5,59.2,3.4,94.2,2.7,105
	c-1,17.6-7.9,40.1-20.5,67.4c-1.8,3.6-6.1,7.2-12.9,10.8c-13.6,7.2-33.4,10.8-59.3,10.8s-47.1-3.6-63.6-10.8l-17.2-10.8
	c-8.9-17.2-14.4-30.9-16.1-40.9l-3.2-25.3l5.9-189.7l15.1,11.8c16.1,7.9,38.8,11.9,67.9,11.9c34.5,0,61.1-4.3,79.8-12.9L917,345.1z"
	/>
<path id="path20" class="st30" d="M936.9,337v1.6c0,9-9,16.7-26.9,23.2c-17.5,6.5-39,9.6-64.7,9.6c-25.1,0-46.7-3.3-64.7-9.7
	c-17.9-6.5-26.9-14.2-26.9-23.2l0.5-1.7c1.5,7.9,11,14.5,28.5,20c17.5,5.4,38.6,8.1,62.5,8.1c24.5,0,45.6-2.7,63.2-8.1
	c17.6-5.4,27.2-12.1,28.6-19.9L936.9,337z"/>
<path id="path27" class="st31" d="M936.9,335.4c0,8.2-9,15.3-26.9,21c-17.9,5.8-39.4,8.7-64.7,8.7c-25.1,0-46.7-2.9-64.7-8.7
	c-17.9-5.8-26.9-12.7-26.9-21c0-7.9,9-14.9,27-21c18-5.8,39.5-8.8,64.7-8.8s46.7,2.9,64.7,8.7s27,12.7,27,21.1L936.9,335.4z"/>
<linearGradient id="path100_1_" gradientUnits="userSpaceOnUse" x1="1748.5421" y1="-72.4478" x2="1834.1674" y2="-72.4478" gradientTransform="matrix(0.85 0 0 -0.85 -729.6093 386.9976)">
	<stop  offset="0" style="stop-color:#FFFFFF;stop-opacity:0.639"/>
	<stop  offset="1" style="stop-color:#FFFFFF;stop-opacity:0"/>
</linearGradient>
<path id="path100" class="st32" d="M763.3,351.6c7.2,9.7,17.5,15.1,30.7,16.1l-0.5,18.9c-1.1,17.2-2.9,37-5.4,59.3
	c-2.5,22.3,3.6,45.7,18.3,70.1c7.2,12.2,14.8,22.1,22.7,29.6H812c-7.6,0-19-2.7-34.5-8.1l-21.1-8.1L763.3,351.6L763.3,351.6z"/>
<linearGradient id="path107_1_" gradientUnits="userSpaceOnUse" x1="1726.6002" y1="-72.7871" x2="1849.8807" y2="-72.7871" gradientTransform="matrix(0.85 0 0 -0.85 -729.6093 386.9976)">
	<stop  offset="0" style="stop-color:#FFFFFF"/>
	<stop  offset="1" style="stop-color:#ADD9DC"/>
</linearGradient>
<path id="path107" class="st33" d="M796.3,285.8c6.9-1.7,13.2-2.7,19.1-2.9c-4.7,0.4-10,1.3-15.9,2.9c-10.8,2.9-21.3,8.1-31.3,15.6
	c-10.8,8.2-16.2,15.6-16.2,22.1l-6.5,195.2c0,9,1.6,20.9,4.8,35.6c3.6,17.2,7.7,29.5,12.4,36.7c3.2,4.7,12.6,9.7,28,15.1
	c13.2,4.6,26.2,7.6,39,8.9c-14.2-1.2-28.5-4.2-42.8-8.9c-16.5-5.4-26.6-10.4-30.2-15.1c-5.4-6.8-10-19-14-36.7
	c-3.3-14.4-4.9-26.2-4.9-35.6l6.5-195.1c0-6.5,5.9-13.8,17.8-22.1c10.8-7.6,22.1-12.7,34-15.6L796.3,285.8L796.3,285.8z"/>
<linearGradient id="path114_1_" gradientUnits="userSpaceOnUse" x1="1852.037" y1="-72.7532" x2="1976.9666" y2="-72.7532" gradientTransform="matrix(0.85 0 0 -0.85 -729.6093 386.9976)">
	<stop  offset="0" style="stop-color:#FFFFFF"/>
	<stop  offset="1" style="stop-color:#ADD9DC"/>
</linearGradient>
<path id="path114" class="st34" d="M873.6,282.8c5.7,0.3,11.9,1.3,18.6,2.9c11.9,2.9,23.2,8.1,34,15.6c11.9,8.2,17.8,15.6,17.8,22.1
	l7,195.1c0,9-1.5,20.9-4.8,35.6c-3.9,17.2-8.7,29.5-14,36.7c-3.9,4.7-14.2,9.7-30.7,15.1c-14.9,4.7-29.7,7.7-44.2,8.9
	c13.1-1.3,26.4-4.3,39.9-8.9c15.5-5.4,25-10.4,28.5-15.1c5-6.8,9.3-19,12.9-36.7c2.9-14.4,4.3-26.2,4.3-35.6l-5.9-195.1
	c0-6.5-5.4-13.8-16.1-22.1c-10.4-7.6-21-12.7-31.8-15.6c-5.4-1.6-10.6-2.6-15.4-2.9H873.6L873.6,282.8z"/>
<linearGradient id="path121_1_" gradientUnits="userSpaceOnUse" x1="1753.7881" y1="65.1496" x2="1882.3959" y2="65.1496" gradientTransform="matrix(0.85 0 0 -0.85 -729.6093 386.9976)">
	<stop  offset="0" style="stop-color:#FFFFFF;stop-opacity:0.639"/>
	<stop  offset="1" style="stop-color:#FFFFFF;stop-opacity:0"/>
</linearGradient>
<path id="path121" class="st35" d="M870.7,357.3h-21c-29.5,0-54.1-4.1-73.8-12.4c-11.5-4.7-16.1-9.4-14-14.1c5-5.1,8.2-8.9,9.7-11.4
	c2.1-3.2,7.4-6.5,15.6-9.7c4.3-1.4,8.2-2.7,11.9-3.8l14.1,3.2c9,2.5,12.1,5.6,9.2,9.1c-4.3,5.8,10,12.5,43.1,20l-22.1,1.1
	c-16.6,1-25.3,1.8-26.4,2.1c-6.1,0.7-7.7,2.1-4.8,4.3c4.3,3.2,23.9,7,58.7,11.3L870.7,357.3z"/>
<linearGradient id="path128_1_" gradientUnits="userSpaceOnUse" x1="1771.4987" y1="-248.7418" x2="1882.4766" y2="-248.7418" gradientTransform="matrix(0.85 0 0 -0.85 -729.6093 386.9976)">
	<stop  offset="0" style="stop-color:#FFFFFF;stop-opacity:0.639"/>
	<stop  offset="1" style="stop-color:#FFFFFF;stop-opacity:0"/>
</linearGradient>
<path id="path128" class="st36" d="M806,595.8c18.7,6.5,40.3,8.4,64.7,5.9c-11.2,5.5-28,6.7-50.7,3.8c-19.4-2.5-32.5-5.7-39.3-9.6
	c-5.7-3.6-6.2-5.6-1.5-5.9c5.1-0.6,14,1.3,27,5.9L806,595.8z"/>
<linearGradient id="path135_1_" gradientUnits="userSpaceOnUse" x1="-8799.4355" y1="2683.3293" x2="-8763.2881" y2="2683.3293" gradientTransform="matrix(-0.85 0 0 0.85 -6551.8862 -1963.2526)">
	<stop  offset="0" style="stop-color:#FFFFFF;stop-opacity:0.639"/>
	<stop  offset="1" style="stop-color:#FFFFFF;stop-opacity:0"/>
</linearGradient>
<path id="path135" class="st37" d="M918.1,308.4c1.8,2.5,5.2,6.3,10.2,11.4c2.1,4.7-2.5,9.3-14,14l-18.9,6.5c2.9-8,2.9-16.1,0-24.3
	c-2.9-8.2-7.9-14.6-15.1-18.9l10.8-2.1l11.9,3.7c7.8,3.2,12.9,6.5,15.1,9.7V308.4z"/>
<linearGradient id="path142_1_" gradientUnits="userSpaceOnUse" x1="1744.4834" y1="-206.3363" x2="1833.2505" y2="-206.3363" gradientTransform="matrix(0.85 0 0 -0.85 -729.6093 386.9976)">
	<stop  offset="0" style="stop-color:#FFFFFF;stop-opacity:0.639"/>
	<stop  offset="1" style="stop-color:#FFFFFF;stop-opacity:0"/>
</linearGradient>
<path id="path142" class="st38" d="M759,536.5c6.5,3.6,13.7,6.6,21.6,9.1c15.8,4.7,31.8,7,48,7c-7.9,0.7-14.7,1.4-20.5,2.1
	c-11.1,1.4-17.4,3.6-18.9,6.5c-3.2,5.4-2.1,11.9,3.3,19.4c2.5,3.6,4.9,6.5,7.1,8.7c-10-2.5-19.4-5.2-28-8.1l-10.2-3.8l-2.2-7.5
	c-1.8-5-3.4-10.8-4.8-17.2c-1.4-8.2-1.6-13.5-0.5-15.6c1-1.8,2.8-1.9,5.4-0.5H759z"/>
<linearGradient id="path149_1_" gradientUnits="userSpaceOnUse" x1="-8815.9238" y1="2965.2412" x2="-8777.2393" y2="2965.2412" gradientTransform="matrix(-0.85 0 0 0.85 -6551.8862 -1963.2526)">
	<stop  offset="0" style="stop-color:#FFFFFF;stop-opacity:0.639"/>
	<stop  offset="1" style="stop-color:#FFFFFF;stop-opacity:0"/>
</linearGradient>
<path id="path149" class="st39" d="M938,528.3h4.8c0,11.2-2.9,21.4-8.7,30.7c-2.9,5.4-6.6,11-11.3,16.7c-1,1.5-3.6,4-7.5,7.6
	c-0.9,1-1.8,1.9-2.4,2.7c0.6-1.8,1-3.9,1.4-6.5c0-6.5,0.2-10.9,0.5-13.4v-10.8c0.3-3.2,0.2-5.2-0.5-5.9c-0.3-0.6-2.1-1.3-5.4-1.6
	c-7.9,0.7-13.8,0.7-17.8,0c2.5-1.8,6.3-3.4,11.3-4.8c2.5-0.7,6.3-2,11.4-3.8l10.2-4.9c6.9-1.4,11.5-3.4,14-5.9V528.3z"/>
<linearGradient id="path156_1_" gradientUnits="userSpaceOnUse" x1="1784.9429" y1="149.6553" x2="1915.8335" y2="149.6553" gradientTransform="matrix(0.85 0 0 -0.85 -729.6093 386.9976)">
	<stop  offset="0" style="stop-color:#FFFFFF;stop-opacity:0.298"/>
	<stop  offset="1" style="stop-color:#ADD9DC;stop-opacity:0.549"/>
</linearGradient>
<path id="path156" class="st40" d="M839.9,204.4l4.3,0.5l4.3-0.5c13.7,0,25.1,1.6,34.5,4.8c9,3.2,13.5,7,13.5,11.3
	c0,28.4,0.5,45.4,1.6,51.2c1.1,5,2.1,10.4,3.2,16.1c0.7,3.9,0.5,7-0.5,9.2c-5.8,10.8-22.3,16.8-49.6,18.3h-14
	c-28-1.5-44.4-7.6-49-18.4c-1.1-2.1-1.3-5.2-0.5-9.2c1.1-5.8,2-11.1,2.7-16.1c1.1-5.8,1.6-22.8,1.6-51.2c0-4.3,4.5-8.1,13.5-11.4
	c9.3-3.2,20.8-4.8,34.5-4.8L839.9,204.4z"/>
<linearGradient id="path163_1_" gradientUnits="userSpaceOnUse" x1="1794.3282" y1="117.3124" x2="1852.037" y2="117.3124" gradientTransform="matrix(0.85 0 0 -0.85 -729.6093 386.9976)">
	<stop  offset="0" style="stop-color:#FFFFFF;stop-opacity:0.639"/>
	<stop  offset="1" style="stop-color:#FFFFFF;stop-opacity:0"/>
</linearGradient>
<path id="path163" class="st41" d="M798.4,282l2.1-20.5l38.3,2.7c-1.4,2.9-4.3,5-8.7,6.5c-3.2,0.7-5.9,4.7-8.1,11.9
	c-2.1,6.8-2.7,12.7-1.6,17.8c1.4,6.9,9.9,10.6,25.3,11.4l-11.9,1c-5.8,0.7-12.7-0.2-21.1-2.7c-8.7-2.5-14.1-5.2-16.2-8.1
	c-1.8-2.1-2.4-5-1.7-8.7c1.4-4.3,2.5-8.1,3.2-11.3L798.4,282z"/>
<linearGradient id="path170_1_" gradientUnits="userSpaceOnUse" x1="-8116.7192" y1="4213.5127" x2="-8096.0708" y2="4213.5127" gradientTransform="matrix(-0.809 0.261 0.261 0.809 -6772.2993 -1012.6791)">
	<stop  offset="0" style="stop-color:#FFFFFF;stop-opacity:0.639"/>
	<stop  offset="1" style="stop-color:#FFFFFF;stop-opacity:0"/>
</linearGradient>
<path id="path170" class="st42" d="M892.2,255.6l0.5,17.2l3.3,12.4c1.4,5,1.4,8.4,0,10.3c-1.8,2.9-5.6,5.4-11.3,7.6
	c1.4-5,1.4-10.6,0-16.7c-1-6.7-2-11.6-2.7-14.5c-1.8-5.4-4.7-8.2-8.7-8.7l18.9-7.6L892.2,255.6z"/>
<linearGradient id="path177_1_" gradientUnits="userSpaceOnUse" x1="1753.2139" y1="178.4911" x2="1950.0569" y2="178.4911" gradientTransform="matrix(0.85 0 0 -0.85 -729.6093 386.9976)">
	<stop  offset="0" style="stop-color:#FFFFFF;stop-opacity:0.298"/>
	<stop  offset="1" style="stop-color:#ADD9DC;stop-opacity:0.549"/>
</linearGradient>
<path id="path177" class="st43" d="M904.6,202.3c15.8,7.6,23.7,16.5,23.7,26.9c0,10.8-8.2,20.1-24.8,28
	c-16.6,7.6-36.3,11.3-59.3,11.3c-23,0-42.7-3.8-59.3-11.4c-16.1-7.9-24.3-17.2-24.3-28c0-10.4,7.6-19.4,22.7-26.9l0.5,4.3v0.5
	l0.5,5.8v0.5l0.5,7.6v0.5l0.5,1l4.3,4.3h0.5l1.7,1.1l0.5,0.5l6.5,3.2l3.2,1.1h1.1l4.8,1.6l3.7,0.5l5.9,1.6h2.1l4.8,0.5l2.1,0.5
	l5.9,0.6h2.1c3.9,0,7,0.2,9.1,0.5c20.8,0.4,36.8-2.1,47.9-7.6c5.8-2.5,9.4-5.2,10.8-8.1v-4.3l1.7-16.7L904.6,202.3z"/>
<linearGradient id="path184_1_" gradientUnits="userSpaceOnUse" x1="1851.7831" y1="179.3053" x2="1950.4587" y2="179.3053" gradientTransform="matrix(0.85 0 0 -0.85 -729.6093 386.9976)">
	<stop  offset="0" style="stop-color:#FFFFFF"/>
	<stop  offset="1" style="stop-color:#ADD9DC"/>
</linearGradient>
<path id="path184" class="st44" d="M903.5,257.2c-10.7,4.9-22.8,8.1-36.4,9.7c12.1-1.7,23-5,32.6-9.7c15.5-7.9,23.2-17.2,23.2-28
	c0-9.7-6.3-17.9-18.9-24.8l0.6-2.1c15.8,7.6,23.7,16.6,23.7,26.9C928.3,240,920,249.3,903.5,257.2L903.5,257.2z"/>
<linearGradient id="path191_1_" gradientUnits="userSpaceOnUse" x1="1753.1079" y1="179.441" x2="1847.5979" y2="179.441" gradientTransform="matrix(0.85 0 0 -0.85 -729.6093 386.9976)">
	<stop  offset="0" style="stop-color:#FFFFFF"/>
	<stop  offset="1" style="stop-color:#ADD9DC"/>
</linearGradient>
<path id="path191" class="st45" d="M818.6,266.7c-13-1.9-24.6-5.4-34.8-10.6c-15.5-7.6-23.2-16.5-23.2-26.9s7.6-19.4,22.7-26.9v2.1
	c-11.9,7.5-17.8,15.7-17.8,24.7c0,10.4,7.5,19.4,22.2,26.9c9,5,19.3,8.4,31,10.6L818.6,266.7z"/>
<linearGradient id="path198_1_" gradientUnits="userSpaceOnUse" x1="1774.6696" y1="166.3391" x2="1841.2562" y2="166.3391" gradientTransform="matrix(0.85 0 0 -0.85 -729.6093 386.9976)">
	<stop  offset="0" style="stop-color:#FFFFFF;stop-opacity:0.639"/>
	<stop  offset="1" style="stop-color:#FFFFFF;stop-opacity:0"/>
</linearGradient>
<path id="path198" class="st46" d="M835.1,238.4l0.5,3.8c-7.2,1.1-12.9,2-17.2,2.7c-7.9,1.4-12.4,3.2-13.5,5.4
	c-1.8,3.9,0,8.8,5.4,14.5c-1.1,0-4.3-1-9.7-3.2c-9.7-3.6-16.4-9.9-20-18.9c-3.9-8.7-1.9-14,5.9-16.1c1.2-0.3,2.9,0.2,5.5,1.6
	c4.3,2.1,9.1,4.2,14.6,5.9c10.8,3.9,20.3,5.5,28.6,4.3L835.1,238.4z"/>
<linearGradient id="path205_1_" gradientUnits="userSpaceOnUse" x1="1929.7852" y1="169.5619" x2="1894.0183" y2="169.5619" gradientTransform="matrix(0.85 0 0 -0.85 -729.6093 386.9976)">
	<stop  offset="0" style="stop-color:#FFFFFF;stop-opacity:0.639"/>
	<stop  offset="1" style="stop-color:#FFFFFF;stop-opacity:0"/>
</linearGradient>
<path id="path205" class="st47" d="M903,226.5c7.9,2.1,9.9,7.6,5.9,16.1c-3.2,7.6-8.1,13.1-14.5,16.7c-1.9-10.8-7.5-18.7-16.7-23.7
	l5.3-1.6c5-1.8,9.9-3.8,14.5-5.9c2.1-1.4,3.9-2,5.4-1.6H903z"/>
<linearGradient id="path212_1_" gradientUnits="userSpaceOnUse" x1="-7777.3037" y1="1673.1243" x2="-7734.8149" y2="1673.1243" gradientTransform="matrix(-1 0 0 1 -6851.167 -1542.7775)">
	<stop  offset="0" style="stop-color:#C0A064"/>
	<stop  offset="1" style="stop-color:#716442"/>
</linearGradient>
<path id="path212" class="st48" d="M898.6,132.9h-0.6c-9.3,0-14.8-0.4-16.5-1.3c-1.7-0.9-2.1-1.9-1.3-3.2v-0.6l19.7,5.1H898.6z"/>
<path id="path214" class="st49" d="M775.5,139.2l10.8-4.4c11.4-4.2,26.4-7,45-8.2c17.4-1.7,33.6-1,48.8,1.9
	c-0.9,1.3-0.4,2.3,1.3,3.2c1.7,0.9,7.2,1.3,16.5,1.3h0.6c5.1,1.3,9.3,2.9,12.7,5.1c-2.5,5.1-6.3,8.5-11.4,10.2l-1.9,0.6l-0.6,0.6
	c-2.1-0.9-4.4-1.5-7-1.9l-2.5-0.6c-0.8-0.4-1.7-0.6-2.5-0.6h-0.6c-1.7-0.4-3.2-0.4-4.4,0h-1.3c-1.3-0.4-2.1-0.4-2.5,0l-0.6,1.3
	l0.6,1.9l1.3,2.5l2.5,1.3l0.6,1.3l1.3,1.3c0.4,0.4,0.9,0.6,1.3,0.6h-2.5c-4.2-1.3-6.6-2.1-7-2.5c-2.5-0.9-3.8-2.9-3.8-6.3
	c-0.9,0-1.7,0.6-2.5,1.9c-0.4,1.3-0.9,2.1-1.3,2.5s-1.3,0.9-2.5,1.3h-15.9c-16.9,0-26.6-0.2-29.2-0.6l-24.7-6.3
	c-5.5-0.9-9.7-2.3-12.7-4.4C779.5,140.1,777.6,139.2,775.5,139.2z M897.3,136.1c-0.4,0.9-0.4,1.5,0,1.9c4.6,0.9,7.4,0.2,8.2-1.9
	H897.3z M859.2,132.9c-0.9-1.3-2.1-1.9-3.8-1.9h-1.9l-0.6,1.9H859.2z M833.9,140.5c-3.4,0.4-4.8,1.7-4.4,3.8l15.2,0.6
	c1.7-0.4,2.9-1.5,3.8-3.2l-7-1.3C838.5,140.1,836,140.1,833.9,140.5z M821.8,131.6c-12.7,0-18.8,2.1-18.4,6.3
	c1.7,0.4,7.6,0.6,17.8,0.6c3.8,0,6.3-0.4,7.6-1.3c1.3-1.3,1.9-2.3,1.9-3.2c0-1.7-0.9-2.5-2.5-2.5H821.8z"/>
<linearGradient id="path221_1_" gradientUnits="userSpaceOnUse" x1="-7758.2788" y1="1679.9725" x2="-7748.7666" y2="1679.9725" gradientTransform="matrix(-1 0 0 1 -6851.167 -1542.7775)">
	<stop  offset="0" style="stop-color:#C0A064"/>
	<stop  offset="1" style="stop-color:#716442"/>
</linearGradient>
<path id="path221" class="st50" d="M897.3,136.1h8.2c-0.9,2.1-3.6,2.8-8.2,1.9C896.8,137.6,896.8,136.9,897.3,136.1z"/>
<linearGradient id="path228_1_" gradientUnits="userSpaceOnUse" x1="-4219.9048" y1="-2868.1692" x2="-4202.6807" y2="-2868.1692" gradientTransform="matrix(-0.11 -0.994 -0.994 0.11 -2428.8284 -3716.6731)">
	<stop  offset="0" style="stop-color:#C0A064"/>
	<stop  offset="1" style="stop-color:#716442"/>
</linearGradient>
<path id="path228" class="st51" d="M885.3,146.2c0.9,0.1,1.7,0.5,2.5,1.3l2.5,0.6c2.5,0.9,3.8,2.3,3.8,4.4c0,2.9-0.4,5.1-1.3,6.3
	c-2.1,2.9-4.4,3.6-7,1.9l-3.2-4.4h0.6c-0.5,0-0.9-0.2-1.3-0.6l-1.3-1.3l-0.6-1.3l-2.5-1.3l-1.3-2.5l-0.6-1.9
	c0.5-0.9,1.5-1.3,3.2-1.3h1.3c1.3-0.4,2.8-0.4,4.4,0C884.6,146.2,885.3,146.2,885.3,146.2z"/>
<path id="path230" class="st52" d="M875.7,147.5l0.6-1.3c0.4-0.4,1.3-0.4,2.5,0C877.2,146.2,876.1,146.6,875.7,147.5z M890.3,147.5
	c1.7,0.4,3.6,1,5.7,1.9v2.5c0,7.2-1.7,11-5.1,11.4c-2.5,0-4.2-0.9-5.1-2.5c2.5,1.7,4.8,1,7-1.9c0.9-1.3,1.3-3.4,1.3-6.3
	c0-2.1-1.3-3.6-3.8-4.4l-2.5-0.6c-0.8-0.8-1.7-1.2-2.5-1.3c0.9,0,1.7,0.2,2.5,0.6C887.8,146.8,890.3,147.5,890.3,147.5z"/>
<path id="path232" class="st53" d="M896,149.4h1.3l0.6-0.6v0.6c0,7.6-1.5,12.3-4.4,14c-2.1,0.9-5.5,1-10.2,0.6s-6.7-1.7-6.3-3.8
	c-5.5-1.7-9.9-2.5-13.3-2.5h-18.4c11,1.7,19.3,4,24.7,7c1.7,1.3,3.8,3.4,6.3,6.3c4.6,3.4,7,6.7,7,10.2c0,1.7-1.5,4.2-4.4,7.6
	c-3.4,2.9-5.1,5.5-5.1,7.6c0,1.3,0.6,2.8,1.9,4.4c0,1.7-1,3.6-3.2,5.7c-0.9,1.7-1.9,3.2-3.2,4.4c0,1.7,0.2,3.6,0.6,5.7
	c0.9,2.9-0.2,4.8-3.2,5.7c-1.7,0.4-3.4,0.2-5.1-0.6c-2.1-0.9-4-1.5-5.7-1.9l-3.8,3.8l-1.9,0.6l-2.5,1.3c-1.7,1.3-4.7,1.9-8.9,1.9
	c-3.4,2.5-6.6,3.8-9.5,3.8c-1.3,0-7.2-1-17.8-3.2c-1.7-0.4-2.8-0.6-3.2-0.6c-0.4,0-1-0.9-1.9-2.5c-0.9-2.5-1.5-3.8-1.9-3.8l-5.1-3.8
	c-3.8,2.1-7.6,2.1-11.4,0l-3.8-3.8l-1.3-13.3c0.4,1.3,1.5,2.8,3.2,4.4c2.9,2.9,5.9,4,8.9,3.2c1.3-0.4,2.8-1.5,4.4-3.2
	c3.4,5.1,7.8,8.2,13.3,9.5c1.7,0.4,4.2,0.9,7.6,1.3c2.9,0.9,4.4,2.3,4.4,4.4c2.5,0.9,4.4,0.4,5.7-1.3c0.9-2.9,1.9-4.7,3.2-5.1
	c2.1,2.1,5.1,2.3,8.9,0.6c0-5.1,1.9-8,5.7-8.9c1.7-0.4,3.2-0.9,4.4-1.3c1.3-0.4,2.1-1.5,2.5-3.2c1.7-3.4,1.5-6.6-0.6-9.5
	c0-1.7-0.9-2.9-2.5-3.8c-1.7-1.3-2.9-0.9-3.8,1.3c-2.9,0-5.1-2.1-6.3-6.3c-2.5-5.5-4-8.5-4.4-8.9c-2.9-4.2-8.5-8.2-16.5-12.1
	c-3.4-0.9-6.6-2.5-9.5-5.1l-0.6-0.6l-0.6-0.6c7.2,0.9,13.7,1.5,19.7,1.9l50.8-0.6h1.3l0.6,0.6h-0.6c0.9,1.7,1.9,2.9,3.2,3.8h0.6
	c0.9,1.7,2.5,2.5,5.1,2.5c3.4-0.4,5.1-4.2,5.1-11.4C896,151.9,896,149.4,896,149.4z M860.5,167.1c-2.9,0-4,2.3-3.2,7
	c0.9,3.8,2.5,6.1,5.1,7c2.5,0.4,3.8-1,3.8-4.4c0.4-4.2-0.6-7.4-3.2-9.5H860.5z M844,215.3c-2.9,3.8-3.4,6.6-1.3,8.2
	c2.5,1.7,4.8,0.6,7-3.2c-0.4-0.4-1.5-1.3-3.2-2.5L844,215.3z M859.9,203.2h3.8c1.3-3.4,0.6-5.3-1.9-5.7l-1.3-1.9
	C859.2,197,859,199.4,859.9,203.2z"/>
<path id="path234" class="st54" d="M897.3,149.4H896c-2.1-0.9-4-1.5-5.7-1.9C892.9,147.9,895.2,148.5,897.3,149.4z M783.1,200.1
	v-1.9l3.2-0.6c0.4-4.2-0.6-6.1-3.2-5.7c-1.3-8-2.3-14-3.2-17.8l-1.3-12.7l-1.9-11.4l-1.3-10.8l12.7,9.5c6.3,2.5,14,4.8,22.8,7
	l0.6,0.6c2.9,2.5,6.1,4.2,9.5,5.1c8,3.8,13.5,7.8,16.5,12.1c0.4,0.4,1.9,3.4,4.4,8.9c1.3,4.2,3.4,6.3,6.3,6.3
	c0.9-2.1,2.1-2.5,3.8-1.3c1.7,0.9,2.5,2.1,2.5,3.8c2.1,2.9,2.3,6.1,0.6,9.5c-0.4,1.7-1.3,2.8-2.5,3.2c-1.3,0.4-2.8,0.9-4.4,1.3
	c-3.8,0.9-5.7,3.8-5.7,8.9c-3.8,1.7-6.7,1.5-8.9-0.6c-1.3,0.4-2.3,2.1-3.2,5.1c-1.3,1.7-3.2,2.1-5.7,1.3c0-2.1-1.5-3.6-4.4-4.4
	c-3.4-0.4-5.9-0.9-7.6-1.3c-5.5-1.3-9.9-4.4-13.3-9.5c-1.7,1.7-3.2,2.8-4.4,3.2c-2.9,0.9-5.9-0.2-8.9-3.2
	C784.6,202.8,783.6,201.3,783.1,200.1z M882.7,156.4v0.6l-0.6-0.6H882.7z M911.3,138l-8.2,85.6l2.5-38.1l0.6-10.8
	C906.2,174.8,911.3,138,911.3,138z M789.5,164.6c-1.3,2.1-1.7,4.7-1.3,7.6c0.4,2.9,1.5,5.5,3.2,7.6c1.7,1.7,3.6,2.3,5.7,1.9
	c2.1,0,3.6-1.3,4.4-3.8c1.7-2.5,2.1-5.1,1.3-7.6c-0.4-2.9-1.5-5.3-3.2-7c-1.7-2.1-3.6-2.9-5.7-2.5
	C791.8,161.2,790.3,162.5,789.5,164.6z M799,196.3c1.3,2.9,4.2,4,8.9,3.2c1.3-5.9,0.6-9.5-1.9-10.8l-5.1-0.6
	c-1.3,0.4-2.1,1.7-2.5,3.8C797.9,193.6,798.2,195.1,799,196.3z M817.4,173.5c-7.2,3.8-8.7,9.3-4.4,16.5c3.8,7.6,9.7,9.9,17.8,7
	c3.8-0.9,5.1-5.9,3.8-15.2c-0.9-3.8-2.5-6.3-5.1-7.6c-1.3-0.4-4-0.6-8.2-0.6H817.4z"/>
<linearGradient id="path241_1_" gradientUnits="userSpaceOnUse" x1="-4220.3232" y1="-2866.2312" x2="-4203.0996" y2="-2866.2312" gradientTransform="matrix(-0.11 -0.994 -0.994 0.11 -2428.8284 -3716.6731)">
	<stop  offset="0" style="stop-color:#C0A064"/>
	<stop  offset="1" style="stop-color:#716442"/>
</linearGradient>
<path id="path241" class="st55" d="M882.7,157v-0.6l3.2,4.4h-0.6c-1.3-0.9-2.3-2.1-3.2-3.8C882.1,157,882.7,157,882.7,157z"/>
<path id="path243" class="st56" d="M785,222.3l-0.6-8.9l3.8,3.8c3.8,2.1,7.6,2.1,11.4,0l5.1,3.8c0.4,0,1,1.3,1.9,3.8
	c0.9,1.7,1.5,2.5,1.9,2.5c0.4,0,1.5,0.2,3.2,0.6c10.6,2.1,16.5,3.2,17.8,3.2c2.9,0,6.1-1.3,9.5-3.8c4.2,0,7.2-0.6,8.9-1.9l2.5-1.3
	l1.9-0.6l3.8-3.8c1.7,0.4,3.6,1,5.7,1.9c1.7,0.9,3.3,1,5.1,0.6c2.9-0.9,4-2.8,3.2-5.7c-0.4-2.1-0.6-4-0.6-5.7
	c1.3-1.3,2.3-2.8,3.2-4.4c2.1-2.1,3.2-4,3.2-5.7c-1.3-1.7-1.9-3.2-1.9-4.4c0-2.1,1.7-4.7,5.1-7.6c2.9-3.4,4.4-5.9,4.4-7.6
	c0-3.4-2.3-6.7-7-10.2c-2.5-2.9-4.6-5.1-6.3-6.3c-5.5-2.9-13.7-5.3-24.7-7h18.4c3.3,0,7.8,0.9,13.3,2.5c-0.4,2.1,1.7,3.4,6.3,3.8
	c4.6,0.4,8,0.2,10.2-0.6c2.9-1.7,4.4-6.3,4.4-14v-0.6l1.9-0.6l1.9,7c0,2.1-0.6,5.3-1.9,9.5c-0.8,2.9-1.3,7.4-1.3,13.3
	c0,1.7-0.4,3.2-1.3,4.4l-3.2,4.4c-0.4,1.3-0.6,5.3-0.6,12.1c0,0.4,0.4,1.9,1.3,4.4c0.9,1.7,1,3.2,0.6,4.4c-0.9,5.1-2.3,8.5-4.4,10.2
	c-0.4,0.4-1.9,1-4.4,1.9c-1.7,0.4-2.8,1.5-3.2,3.2c-2.9,0-6.3,1.3-10.2,3.8c-5.1,3.4-8,5.1-8.9,5.1c-2.9,1.3-11,1.9-24.1,1.9
	c-8.5,0-14.8-0.4-19-1.3c-3.8,0-6.7-0.2-8.9-0.6c-4.7-2.5-8-3.8-10.2-3.8l-8.2-2.5c-3.4-1.7-5.9-2.8-7.6-3.2
	C786.3,222.3,785,222.3,785,222.3z M885.3,189.3h-4.4c-2.1,0.4-3.4,2.3-3.8,5.7c0,2.5,1,4,3.2,4.4c3.4,1.3,5.5,0.4,6.3-2.5
	C886.9,194.4,886.5,191.9,885.3,189.3z"/>
<path id="path245" class="st57" d="M911.3,138l-5.1,36.8c-2.1,0-3.2,2.1-3.2,6.3c0.9,2.5,1.7,4,2.5,4.4l-2.5,38.1
	c-1.3,2.9-4.8,5.7-10.8,8.2c-11,5.1-27,7.4-48.2,7c-8.4,0-16.3-0.4-23.5-1.3l-7.6-1.3c-13.6-2.9-22.8-7.6-27.9-14h1.3
	c1.7,0.4,4.2,1.5,7.6,3.2l8.2,2.5c2.1,0,5.5,1.3,10.2,3.8c2.1,0.4,5.1,0.6,8.9,0.6c4.2,0.9,10.6,1.3,19,1.3
	c13.1,0,21.2-0.6,24.1-1.9c0.9,0,3.8-1.7,8.9-5.1c3.8-2.5,7.2-3.8,10.2-3.8c0.4-1.7,1.5-2.8,3.2-3.2c2.5-0.9,4-1.5,4.4-1.9
	c2.1-1.7,3.6-5.1,4.4-10.2c0.4-1.3,0.2-2.8-0.6-4.4c-0.9-2.5-1.3-4-1.3-4.4c0-6.7,0.2-10.8,0.6-12.1l3.2-4.4
	c0.9-1.3,1.3-2.8,1.3-4.4c0-5.9,0.4-10.3,1.3-13.3c1.3-4.2,1.9-7.4,1.9-9.5l-1.9-7C904.9,146.4,908.7,143,911.3,138z"/>
<linearGradient id="path252_1_" gradientUnits="userSpaceOnUse" x1="-7711.0342" y1="1674.7102" x2="-7704.6904" y2="1674.7102" gradientTransform="matrix(-1 0 0 1 -6851.167 -1542.7775)">
	<stop  offset="0" style="stop-color:#C0A064"/>
	<stop  offset="1" style="stop-color:#716442"/>
</linearGradient>
<path id="path252" class="st58" d="M859.2,132.9h-6.3l0.6-1.9h1.9C857.1,131,858.4,131.6,859.2,132.9z"/>
<path id="path254" class="st59" d="M811,155.7c-8.9-2.1-16.5-4.4-22.8-7l-12.7-9.5c2.1,0,4,0.9,5.7,2.5c2.9,2.1,7.2,3.6,12.7,4.4
	l24.7,6.3c2.5,0.4,12.3,0.6,29.2,0.6h15.9c1.3-0.4,2.1-0.9,2.5-1.3c0.4-0.4,0.9-1.3,1.3-2.5c0.9-1.3,1.7-1.9,2.5-1.9
	c0,3.4,1.3,5.5,3.8,6.3c0.4,0.4,2.8,1.3,7,2.5l-50.8,0.6c-5.9-0.4-12.5-1-19.7-1.9C810.4,155.1,811,155.7,811,155.7z M778.7,161.4
	l-0.6-0.6l-1.3-10.8L778.7,161.4z"/>
<linearGradient id="path261_1_" gradientUnits="userSpaceOnUse" x1="-4227.9019" y1="-2845.0122" x2="-4213.2275" y2="-2845.0122" gradientTransform="matrix(-0.108 -0.994 -0.994 0.108 -2421.9785 -3713.9084)">
	<stop  offset="0" style="stop-color:#C0A064"/>
	<stop  offset="1" style="stop-color:#716442"/>
</linearGradient>
<path id="path261" class="st60" d="M860.5,167.1h2.5c2.5,2.1,3.6,5.3,3.2,9.5c0,3.4-1.3,4.8-3.8,4.4c-2.5-0.9-4.2-3.2-5.1-7
	C856.5,169.4,857.5,167.1,860.5,167.1z"/>
<linearGradient id="path268_1_" gradientUnits="userSpaceOnUse" x1="-4274.5801" y1="-2854.915" x2="-4263.4185" y2="-2854.915" gradientTransform="matrix(-0.114 -0.994 -0.994 0.114 -2442.5278 -3722.2012)">
	<stop  offset="0" style="stop-color:#C0A064"/>
	<stop  offset="1" style="stop-color:#716442"/>
</linearGradient>
<path id="path268" class="st61" d="M885.3,189.3c1.3,2.5,1.7,5.1,1.3,7.6c-0.9,2.9-2.9,3.8-6.3,2.5c-2.1-0.4-3.2-1.9-3.2-4.4
	c0.4-3.4,1.7-5.3,3.8-5.7C880.8,189.3,885.3,189.3,885.3,189.3z"/>
<linearGradient id="path275_1_" gradientUnits="userSpaceOnUse" x1="-4233.9624" y1="-2888.4236" x2="-4222.1543" y2="-2888.4236" gradientTransform="matrix(-0.107 -0.994 -0.994 0.107 -2418.5537 -3712.5247)">
	<stop  offset="0" style="stop-color:#C0A064"/>
	<stop  offset="1" style="stop-color:#716442"/>
</linearGradient>
<path id="path275" class="st62" d="M906.2,174.8l-0.6,10.8c-0.9-0.4-1.7-1.9-2.5-4.4C903,176.8,904.1,174.8,906.2,174.8z"/>
<linearGradient id="path282_1_" gradientUnits="userSpaceOnUse" x1="-4323.6353" y1="-2745.8938" x2="-4316.2793" y2="-2745.8938" gradientTransform="matrix(-0.129 -0.992 -0.992 0.129 -2496.6658 -3736.0898)">
	<stop  offset="0" style="stop-color:#C0A064"/>
	<stop  offset="1" style="stop-color:#716442"/>
</linearGradient>
<path id="path282" class="st63" d="M783.1,198.2l-0.6-6.3h0.6c2.5-0.4,3.6,1.5,3.2,5.7L783.1,198.2z"/>
<linearGradient id="path289_1_" gradientUnits="userSpaceOnUse" x1="-7701.6738" y1="1685.3434" x2="-7682.332" y2="1685.3434" gradientTransform="matrix(-1 0 0 1 -6851.167 -1542.7775)">
	<stop  offset="0" style="stop-color:#C0A064"/>
	<stop  offset="1" style="stop-color:#716442"/>
</linearGradient>
<path id="path289" class="st64" d="M833.9,140.5c2.1-0.4,4.6-0.4,7.6,0l7,1.3c-0.9,1.7-2.1,2.8-3.8,3.2l-15.2-0.6
	C829,142.2,830.5,140.9,833.9,140.5z"/>
<linearGradient id="path296_1_" gradientUnits="userSpaceOnUse" x1="-7685.3506" y1="1677.8822" x2="-7656.8135" y2="1677.8822" gradientTransform="matrix(-1 0 0 1 -6851.167 -1542.7775)">
	<stop  offset="0" style="stop-color:#C0A064"/>
	<stop  offset="1" style="stop-color:#716442"/>
</linearGradient>
<path id="path296" class="st65" d="M821.8,131.6h6.3c1.7,0,2.5,0.9,2.5,2.5c0,0.9-0.6,1.9-1.9,3.2c-1.3,0.9-3.8,1.3-7.6,1.3
	c-10.2,0-16.1-0.2-17.8-0.6C803,133.7,809.1,131.6,821.8,131.6z"/>
<linearGradient id="path303_1_" gradientUnits="userSpaceOnUse" x1="-4246.4233" y1="-2771.9602" x2="-4224.0879" y2="-2771.9602" gradientTransform="matrix(-0.114 -0.994 -0.994 0.114 -2442.5278 -3722.2012)">
	<stop  offset="0" style="stop-color:#C0A064"/>
	<stop  offset="1" style="stop-color:#716442"/>
</linearGradient>
<path id="path303" class="st66" d="M789.5,164.6c0.9-2.1,2.3-3.4,4.4-3.8s4,0.4,5.7,2.5c1.7,1.7,2.8,4,3.2,7
	c0.9,2.5,0.4,5.1-1.3,7.6c-0.9,2.5-2.3,3.8-4.4,3.8c-2.1,0.4-4-0.2-5.7-1.9c-1.7-2.1-2.8-4.7-3.2-7.6
	C787.8,169.2,788.2,166.7,789.5,164.6z"/>
<linearGradient id="path310_1_" gradientUnits="userSpaceOnUse" x1="-4282.9751" y1="-2775.844" x2="-4269.5688" y2="-2775.844" gradientTransform="matrix(-0.118 -0.993 -0.993 0.118 -2457.6099 -3724.3074)">
	<stop  offset="0" style="stop-color:#C0A064"/>
	<stop  offset="1" style="stop-color:#716442"/>
</linearGradient>
<path id="path310" class="st67" d="M799,196.3c-0.9-1.3-1-2.8-0.6-4.4c0.4-2.1,1.3-3.4,2.5-3.8l5.1,0.6c2.5,1.3,3.2,4.8,1.9,10.8
	C803.2,200.3,800.2,199.3,799,196.3z"/>
<linearGradient id="path317_1_" gradientUnits="userSpaceOnUse" x1="-4283.749" y1="-2796.27" x2="-4256.9238" y2="-2796.27" gradientTransform="matrix(-0.118 -0.993 -0.993 0.118 -2457.6099 -3724.3074)">
	<stop  offset="0" style="stop-color:#C0A064"/>
	<stop  offset="1" style="stop-color:#716442"/>
</linearGradient>
<path id="path317" class="st68" d="M817.4,173.5h3.8c4.2,0,7,0.2,8.2,0.6c2.5,1.3,4.2,3.8,5.1,7.6c1.3,9.3,0,14.4-3.8,15.2
	c-8,2.9-14,0.6-17.8-7C808.7,182.8,810.2,177.3,817.4,173.5z"/>
<linearGradient id="path324_1_" gradientUnits="userSpaceOnUse" x1="-4235.4883" y1="-2829.7988" x2="-4225.9248" y2="-2829.7988" gradientTransform="matrix(-0.1 -0.995 -0.995 0.1 -2393.1973 -3706.2732)">
	<stop  offset="0" style="stop-color:#C0A064"/>
	<stop  offset="1" style="stop-color:#716442"/>
</linearGradient>
<path id="path324" class="st69" d="M844,215.3l2.5,2.5c1.7,1.3,2.8,2.1,3.2,2.5c-2.1,3.8-4.4,4.8-7,3.2
	C840.6,221.9,841,219.1,844,215.3z"/>
<linearGradient id="path331_1_" gradientUnits="userSpaceOnUse" x1="-4296.2046" y1="-2831.8518" x2="-4288.2266" y2="-2831.8518" gradientTransform="matrix(-0.119 -0.993 -0.993 0.119 -2461.0347 -3725.6907)">
	<stop  offset="0" style="stop-color:#C0A064"/>
	<stop  offset="1" style="stop-color:#716442"/>
</linearGradient>
<path id="path331" class="st70" d="M859.9,203.2c-0.9-3.8-0.6-6.3,0.6-7.6l1.3,1.9c2.5,0.4,3.2,2.3,1.9,5.7
	C863.7,203.2,859.9,203.2,859.9,203.2z"/>
<linearGradient id="path352_1_" gradientUnits="userSpaceOnUse" x1="1749.1122" y1="-51.5721" x2="1956.2546" y2="-51.5721" gradientTransform="matrix(0.85 5.000000e-03 0 -0.85 -729.6093 404.1219)">
	<stop  offset="0" style="stop-color:#F7ECC6"/>
	<stop  offset="8.000000e-03" style="stop-color:#F6EBC5"/>
	<stop  offset="0.196" style="stop-color:#E0D4AB"/>
	<stop  offset="0.365" style="stop-color:#D1C49B"/>
	<stop  offset="0.498" style="stop-color:#CCBF95"/>
	<stop  offset="0.624" style="stop-color:#D0C49B"/>
	<stop  offset="0.78" style="stop-color:#DED2AB"/>
	<stop  offset="0.957" style="stop-color:#F1E7C4"/>
	<stop  offset="1" style="stop-color:#F7EDCB"/>
</linearGradient>
<path id="path352" class="st71" d="M764.8,374.2l22.1,5.4c18.7,4,38.1,6.1,58.2,6.5c32-0.3,58.6-4,79.8-10.8l8.1,138l-11.3,11.9
	c-14,8.2-36.7,12.9-67.9,14l-3.2,0.6h-10.8l-3.8-0.5c-31.3-1.4-53.9-6.5-67.9-15.1l-11.2-11.8l8.1-138L764.8,374.2z"/>
<g>
	<path id="imagebot_25_1_" class="st72" d="M895.5,408.6c1.2-2.1,0.3-7,0.3-7s-2.2,0.8-4.1,2c-1.4-1.6-3.5-2.9-3.5-2.9
		s-1,2.1-1.4,4.3c-2.1-0.1-4.6,0.4-4.6,0.4s0.8,2.2,2,4.1c-1.6,1.4-3.1,3.5-3.1,3.5s2.1,1,4.3,1.4c-0.1,2.1,0.3,4.6,0.3,4.6
		s5.2-2,6-4.2c0.5-1.4,0.1-3.7-1.1-4.4c0,0,0,0,0-0.1c0,0,0,0,0-0.1c0,0,0,0,0.1,0c0,0,0.1,0,0.1,0.1c1.3,0.7,3.5-0.1,4.4-1.2
		C895.3,408.7,895.4,408.7,895.5,408.6L895.5,408.6z"/>
	<g id="imagebot_177_1_" transform="translate(0 2.44141) matrix(1 0 0 1 -4.88281 0)" class="st73">
		<path id="imagebot_40_1_" class="st74" d="M890.9,431.2c0,0,12.1-8.1,22-1c10,7,9.8,9.7,8.9,18.5s3.7,11,3.7,11"/>
		<path id="imagebot_22_1_" class="st74" d="M906.8,427.2c0,0-0.4-4.8-3.1-10.1c-2.7-5.3-8.6-9.8-8.6-9.8"/>
		<path id="imagebot_19_1_" class="st74" d="M905.2,419.3c0,0,1.2,3.1,6.6,1.6c5.4-1.4,3.8-9.3,3.8-9.3"/>
	</g>
	<path id="imagebot_28_1_" class="st72" d="M914.3,417.1c2.4,0,5.8-3.2,5.8-3.2s-1.7-1.4-3.6-2.2c0.6-2,0.7-4.2,0.7-4.2
		s-2.2,0.2-4.2,0.9c-0.9-1.8-2.4-3.5-2.4-3.5s-1.4,1.7-2.2,3.6c-2-0.6-4.3-0.7-4.3-0.7s0.2,2.2,0.9,4.1c-1.8,0.9-3.6,2.4-3.6,2.4
		s4,3.3,6.3,2.9c1.4-0.3,2.9-1.6,2.9-3.1l0,0c0,0,0,0,0.1,0l0,0v0.1c0,1.4,1.7,2.8,3.2,2.9C914.1,417.1,914.2,417.1,914.3,417.1
		L914.3,417.1z"/>
	<path id="imagebot_12_1_" class="st75" d="M912.9,415.7c1.2,0,3.2-1.7,3.2-1.7s-0.9-0.8-2-1.2c0.3-1,0.4-2.4,0.4-2.4
		s-1.2,0.1-2.2,0.5c-0.5-1-1.3-2-1.3-2s-0.8,0.9-1.2,2c-1-0.3-2.4-0.4-2.4-0.4s0.1,1.2,0.5,2.2c-1,0.5-2,1.3-2,1.3s2.1,1.7,3.5,1.6
		c0.7-0.1,1.6-0.9,1.6-1.6l0,0l0,0l0,0c0,0,0,0,0,0.1c0,0.8,0.9,1.4,1.7,1.6C912.8,415.7,912.9,415.7,912.9,415.7L912.9,415.7z"/>
	<g id="imagebot_156_1_">
		
			<linearGradient id="imagebot_136_2_" gradientUnits="userSpaceOnUse" x1="-1673.5165" y1="777.9993" x2="-1673.637" y2="777.8789" gradientTransform="matrix(66.315 107.6982 107.4637 -66.1707 28219.748 232191.5469)">
			<stop  offset="0" style="stop-color:#108040;stop-opacity:0.9961"/>
			<stop  offset="1" style="stop-color:#B4DA9F;stop-opacity:0.9961"/>
		</linearGradient>
		<path id="imagebot_136_1_" class="st76" d="M837.6,481.2c-4.2,0.5-8-2.5-8.4-6.7c-0.5-4.2,2.5-8,6.7-8.4c4.2-0.5,8,2.5,8.4,6.7
			C844.8,477,841.8,480.8,837.6,481.2z"/>
		
			<linearGradient id="imagebot_134_2_" gradientUnits="userSpaceOnUse" x1="-1673.1401" y1="777.5997" x2="-1673.2605" y2="777.4793" gradientTransform="matrix(66.315 107.6982 107.4638 -66.1707 28240.1133 232115.4688)">
			<stop  offset="0" style="stop-color:#108040;stop-opacity:0.9961"/>
			<stop  offset="1" style="stop-color:#B4DA9F;stop-opacity:0.9961"/>
		</linearGradient>
		<path id="imagebot_134_1_" class="st77" d="M840,472.1c-4.2,0.5-8-2.5-8.4-6.7c-0.5-4.2,2.5-8,6.7-8.4c4.2-0.5,8,2.5,8.4,6.7
			C847.2,467.8,844.2,471.5,840,472.1z"/>
		
			<linearGradient id="imagebot_132_2_" gradientUnits="userSpaceOnUse" x1="-1678.696" y1="782.7445" x2="-1678.8164" y2="782.6241" gradientTransform="matrix(14.203 125.7262 125.2977 -14.1546 -73380.875 222597.8906)">
			<stop  offset="0" style="stop-color:#108040;stop-opacity:0.9961"/>
			<stop  offset="1" style="stop-color:#B4DA9F;stop-opacity:0.9961"/>
		</linearGradient>
		<path id="imagebot_132_1_" class="st78" d="M845.2,463.3c-4.2,0.5-8-2.5-8.4-6.7c-0.5-4.2,2.5-8,6.7-8.4c4.2-0.5,8,2.5,8.4,6.7
			l0,0C852.3,459,849.3,462.8,845.2,463.3L845.2,463.3z"/>
		
			<linearGradient id="imagebot_130_2_" gradientUnits="userSpaceOnUse" x1="-1672.6309" y1="776.6017" x2="-1672.7512" y2="776.4813" gradientTransform="matrix(66.315 107.6981 107.4637 -66.1707 28323.7324 231977.75)">
			<stop  offset="0" style="stop-color:#108040;stop-opacity:0.9961"/>
			<stop  offset="1" style="stop-color:#B4DA9F;stop-opacity:0.9961"/>
		</linearGradient>
		<path id="imagebot_130_1_" class="st79" d="M850.1,455.4c-4.2,0.5-8-2.5-8.4-6.7c-0.5-4.2,2.5-8,6.7-8.4c4.2-0.5,8,2.5,8.4,6.7
			C857.3,451.2,854.2,455,850.1,455.4z"/>
		
			<linearGradient id="imagebot_128_2_" gradientUnits="userSpaceOnUse" x1="-1678.0511" y1="782.0187" x2="-1678.1715" y2="781.8983" gradientTransform="matrix(14.203 125.7262 125.2976 -14.1545 -73287.7656 222493.9688)">
			<stop  offset="0" style="stop-color:#108040;stop-opacity:0.9961"/>
			<stop  offset="1" style="stop-color:#B4DA9F;stop-opacity:0.9961"/>
		</linearGradient>
		<path id="imagebot_128_1_" class="st80" d="M856.4,450.7c-4.2,0.5-8-2.5-8.4-6.7c-0.5-4.2,2.5-8,6.7-8.4c4.2-0.4,8,2.5,8.4,6.7
			l0,0C863.5,446.4,860.6,450.2,856.4,450.7L856.4,450.7z"/>
		
			<linearGradient id="imagebot_126_2_" gradientUnits="userSpaceOnUse" x1="-1677.6368" y1="781.6824" x2="-1677.7573" y2="781.5621" gradientTransform="matrix(14.203 125.7262 125.2976 -14.1545 -73246.5703 222429.3594)">
			<stop  offset="0" style="stop-color:#108040;stop-opacity:0.9961"/>
			<stop  offset="1" style="stop-color:#B4DA9F;stop-opacity:0.9961"/>
		</linearGradient>
		<path id="imagebot_126_1_" class="st81" d="M861.3,442.9c-4.2,0.5-8-2.5-8.4-6.7c-0.5-4.2,2.5-8,6.7-8.4c4.2-0.5,8,2.5,8.4,6.7
			l0,0C868.5,438.7,865.5,442.5,861.3,442.9L861.3,442.9z"/>
		
			<linearGradient id="imagebot_124_2_" gradientUnits="userSpaceOnUse" x1="-1673.807" y1="778.5362" x2="-1673.9275" y2="778.4156" gradientTransform="matrix(66.315 107.6982 107.4637 -66.1707 28176.0762 232267.5312)">
			<stop  offset="0" style="stop-color:#108040;stop-opacity:0.9961"/>
			<stop  offset="1" style="stop-color:#B4DA9F;stop-opacity:0.9961"/>
		</linearGradient>
		<path id="imagebot_124_1_" class="st82" d="M832.4,490.3c-4.2,0.5-8-2.5-8.4-6.7c-0.5-4.2,2.5-8,6.7-8.4c4.2-0.5,8,2.5,8.4,6.7
			C839.5,486.1,836.5,489.8,832.4,490.3z"/>
		
			<linearGradient id="imagebot_122_2_" gradientUnits="userSpaceOnUse" x1="-1679.9485" y1="783.0884" x2="-1680.0691" y2="782.9681" gradientTransform="matrix(14.203 125.7262 125.2976 -14.1545 -73409.5 222782.3906)">
			<stop  offset="0" style="stop-color:#108040;stop-opacity:0.9961"/>
			<stop  offset="1" style="stop-color:#B4DA9F;stop-opacity:0.9961"/>
		</linearGradient>
		<path id="imagebot_122_1_" class="st83" d="M841.7,485.4c-4.2,0.5-8-2.5-8.4-6.7c-0.5-4.2,2.5-8,6.7-8.4s8,2.5,8.4,6.7l0,0
			C848.8,481.2,845.9,485,841.7,485.4L841.7,485.4z"/>
		
			<linearGradient id="imagebot_120_2_" gradientUnits="userSpaceOnUse" x1="-1679.2751" y1="782.7131" x2="-1679.3955" y2="782.5927" gradientTransform="matrix(14.203 125.7262 125.2977 -14.1546 -73367.0469 222680.125)">
			<stop  offset="0" style="stop-color:#108040;stop-opacity:0.9961"/>
			<stop  offset="1" style="stop-color:#B4DA9F;stop-opacity:0.9961"/>
		</linearGradient>
		<path id="imagebot_120_1_" class="st84" d="M846.9,473.2c-4.2,0.5-8-2.5-8.4-6.7c-0.5-4.2,2.5-8,6.7-8.4c4.2-0.5,8,2.5,8.4,6.7
			l0,0C854.1,468.9,851,472.7,846.9,473.2L846.9,473.2z"/>
		
			<linearGradient id="imagebot_118_2_" gradientUnits="userSpaceOnUse" x1="-1678.8616" y1="782.3777" x2="-1678.9819" y2="782.2573" gradientTransform="matrix(14.203 125.7262 125.2976 -14.1545 -73325.7812 222615.5156)">
			<stop  offset="0" style="stop-color:#108040;stop-opacity:0.9961"/>
			<stop  offset="1" style="stop-color:#B4DA9F;stop-opacity:0.9961"/>
		</linearGradient>
		<path id="imagebot_118_1_" class="st85" d="M851.8,465.3c-4.2,0.5-8-2.5-8.4-6.7c-0.5-4.2,2.5-8,6.7-8.4c4.2-0.5,8,2.5,8.4,6.7
			l0,0C859,461.2,856,464.9,851.8,465.3L851.8,465.3z"/>
		
			<linearGradient id="imagebot_116_2_" gradientUnits="userSpaceOnUse" x1="-1674.1554" y1="777.5032" x2="-1674.276" y2="777.3827" gradientTransform="matrix(66.3152 107.6985 107.4639 -66.1708 28328.748 232233.1094)">
			<stop  offset="0" style="stop-color:#108040;stop-opacity:0.9961"/>
			<stop  offset="1" style="stop-color:#B4DA9F;stop-opacity:0.9961"/>
		</linearGradient>
		<path id="imagebot_116_1_" class="st86" d="M850.6,486.1c-4.2,0.5-8-2.5-8.4-6.7c-0.5-4.2,2.5-8,6.7-8.4c4.2-0.5,8,2.5,8.4,6.7
			l0,0C857.8,481.9,854.9,485.7,850.6,486.1L850.6,486.1z"/>
		
			<linearGradient id="imagebot_114_2_" gradientUnits="userSpaceOnUse" x1="-1679.6699" y1="782.5278" x2="-1679.7903" y2="782.4073" gradientTransform="matrix(14.203 125.7262 125.2976 -14.1545 -73334.0938 222733.5)">
			<stop  offset="0" style="stop-color:#108040;stop-opacity:0.9961"/>
			<stop  offset="1" style="stop-color:#B4DA9F;stop-opacity:0.9961"/>
		</linearGradient>
		<path id="imagebot_114_1_" class="st87" d="M850.8,479.5c-4.2,0.5-8-2.5-8.4-6.7c-0.5-4.2,2.5-8,6.7-8.4c4.2-0.5,8,2.5,8.4,6.7
			l0,0C857.9,475.3,855,479.1,850.8,479.5L850.8,479.5z"/>
		
			<linearGradient id="imagebot_112_2_" gradientUnits="userSpaceOnUse" x1="-1674.3157" y1="776.9066" x2="-1674.4362" y2="776.7861" gradientTransform="matrix(66.3152 107.6985 107.464 -66.1708 28413.6602 232207.8125)">
			<stop  offset="0" style="stop-color:#108040;stop-opacity:0.9961"/>
			<stop  offset="1" style="stop-color:#B4DA9F;stop-opacity:0.9961"/>
		</linearGradient>
		<path id="imagebot_112_1_" class="st88" d="M861,483.1c-4.2,0.5-8-2.5-8.4-6.7c-0.5-4.2,2.5-8,6.7-8.4c4.2-0.5,8,2.5,8.4,6.7l0,0
			C868.1,478.8,865.1,482.5,861,483.1L861,483.1z"/>
		
			<linearGradient id="imagebot_110_2_" gradientUnits="userSpaceOnUse" x1="-1674.4323" y1="776.1495" x2="-1674.5526" y2="776.0292" gradientTransform="matrix(66.3152 107.6985 107.464 -66.1708 28514.9102 232165.0781)">
			<stop  offset="0" style="stop-color:#108040;stop-opacity:0.9961"/>
			<stop  offset="1" style="stop-color:#B4DA9F;stop-opacity:0.9961"/>
		</linearGradient>
		<path id="imagebot_110_1_" class="st89" d="M873.1,477.9c-4.2,0.5-8-2.5-8.4-6.7c-0.4-4.2,2.5-8,6.7-8.4c4.2-0.5,8,2.5,8.4,6.7
			l0,0C880.3,473.7,877.3,477.5,873.1,477.9L873.1,477.9z"/>
		
			<linearGradient id="imagebot_108_2_" gradientUnits="userSpaceOnUse" x1="-1679.5032" y1="781.6238" x2="-1679.6235" y2="781.5034" gradientTransform="matrix(14.203 125.7262 125.2977 -14.1546 -73208.1484 222695.1719)">
			<stop  offset="0" style="stop-color:#108040;stop-opacity:0.9961"/>
			<stop  offset="1" style="stop-color:#B4DA9F;stop-opacity:0.9961"/>
		</linearGradient>
		<path id="imagebot_108_1_" class="st90" d="M866,474.9c-4.2,0.5-8-2.5-8.4-6.7c-0.5-4.2,2.5-8,6.7-8.4c4.2-0.5,8,2.5,8.4,6.7l0,0
			C873.1,470.7,870.1,474.5,866,474.9L866,474.9z"/>
		
			<linearGradient id="imagebot_106_2_" gradientUnits="userSpaceOnUse" x1="-1679.2469" y1="782.0019" x2="-1679.3673" y2="781.8815" gradientTransform="matrix(14.203 125.7262 125.2977 -14.1546 -73266.1719 222664.6406)">
			<stop  offset="0" style="stop-color:#108040;stop-opacity:0.9961"/>
			<stop  offset="1" style="stop-color:#B4DA9F;stop-opacity:0.9961"/>
		</linearGradient>
		<path id="imagebot_106_1_" class="st91" d="M859,471.2c-4.2,0.5-8-2.5-8.4-6.7c-0.5-4.2,2.5-8,6.7-8.4c4.2-0.5,8,2.5,8.4,6.7l0,0
			C866.2,467,863.1,470.8,859,471.2L859,471.2z"/>
		
			<linearGradient id="imagebot_104_2_" gradientUnits="userSpaceOnUse" x1="-1678.6301" y1="781.9869" x2="-1678.7506" y2="781.8666" gradientTransform="matrix(14.203 125.7262 125.2977 -14.1546 -73274.0078 222576.25)">
			<stop  offset="0" style="stop-color:#108040;stop-opacity:0.9961"/>
			<stop  offset="1" style="stop-color:#B4DA9F;stop-opacity:0.9961"/>
		</linearGradient>
		<path id="imagebot_104_1_" class="st92" d="M858,460.6c-4.2,0.5-8-2.5-8.4-6.7c-0.5-4.2,2.5-8,6.7-8.4c4.2-0.5,8,2.5,8.4,6.7l0,0
			C865.2,456.4,862.2,460.1,858,460.6L858,460.6z"/>
		
			<linearGradient id="imagebot_102_2_" gradientUnits="userSpaceOnUse" x1="-1672.8921" y1="775.887" x2="-1673.0125" y2="775.7667" gradientTransform="matrix(66.315 107.6982 107.4637 -66.1706 28430.7949 231956.1562)">
			<stop  offset="0" style="stop-color:#108040;stop-opacity:0.9961"/>
			<stop  offset="1" style="stop-color:#B4DA9F;stop-opacity:0.9961"/>
		</linearGradient>
		<path id="imagebot_102_1_" class="st93" d="M863,452.8c-4.2,0.5-8-2.5-8.4-6.7c-0.5-4.2,2.5-8,6.7-8.4c4.2-0.5,8,2.5,8.4,6.7
			C870.1,448.6,867.2,452.3,863,452.8z"/>
		
			<linearGradient id="imagebot_100_2_" gradientUnits="userSpaceOnUse" x1="-1673.5891" y1="775.9746" x2="-1673.7097" y2="775.8542" gradientTransform="matrix(66.3152 107.6985 107.4639 -66.1708 28472.8262 232048.7188)">
			<stop  offset="0" style="stop-color:#108040;stop-opacity:0.9961"/>
			<stop  offset="1" style="stop-color:#B4DA9F;stop-opacity:0.9961"/>
		</linearGradient>
		<path id="imagebot_100_1_" class="st94" d="M868,463.9c-4.2,0.5-8-2.5-8.4-6.7c-0.5-4.2,2.5-8,6.7-8.4c4.2-0.5,8,2.5,8.4,6.7l0,0
			C875.2,459.7,872.2,463.5,868,463.9L868,463.9z"/>
		
			<linearGradient id="imagebot_98_2_" gradientUnits="userSpaceOnUse" x1="-1674.1122" y1="775.6106" x2="-1674.2327" y2="775.4902" gradientTransform="matrix(66.3152 107.6985 107.4639 -66.1707 28556.7168 232085.3594)">
			<stop  offset="0" style="stop-color:#108040;stop-opacity:0.9961"/>
			<stop  offset="1" style="stop-color:#B4DA9F;stop-opacity:0.9961"/>
		</linearGradient>
		<path id="imagebot_98_1_" class="st95" d="M878.2,468.4c-4.2,0.5-8-2.5-8.4-6.7c-0.5-4.2,2.5-8,6.7-8.4c4.2-0.5,8,2.5,8.4,6.7l0,0
			C885.3,464.1,882.3,467.8,878.2,468.4L878.2,468.4z"/>
		
			<linearGradient id="imagebot_96_2_" gradientUnits="userSpaceOnUse" x1="-1677.3134" y1="781.0945" x2="-1677.4337" y2="780.9741" gradientTransform="matrix(14.203 125.7262 125.2976 -14.1546 -73168.0859 222373.6406)">
			<stop  offset="0" style="stop-color:#108040;stop-opacity:0.9961"/>
			<stop  offset="1" style="stop-color:#B4DA9F;stop-opacity:0.9961"/>
		</linearGradient>
		<path id="imagebot_96_1_" class="st96" d="M870.8,436.2c-4.2,0.5-8-2.5-8.4-6.7c-0.5-4.2,2.5-8,6.7-8.4c4.2-0.5,8,2.5,8.4,6.7l0,0
			C877.9,432,875,435.8,870.8,436.2L870.8,436.2z"/>
		
			<linearGradient id="imagebot_84_2_" gradientUnits="userSpaceOnUse" x1="-1677.8547" y1="781.2572" x2="-1677.975" y2="781.1369" gradientTransform="matrix(14.203 125.7262 125.2977 -14.1546 -73182.6172 222453.7031)">
			<stop  offset="0" style="stop-color:#108040;stop-opacity:0.9961"/>
			<stop  offset="1" style="stop-color:#B4DA9F;stop-opacity:0.9961"/>
		</linearGradient>
		<path id="imagebot_84_1_" class="st97" d="M869,445.9c-4.2,0.5-8-2.5-8.4-6.7c-0.5-4.2,2.5-8,6.7-8.4c4.2-0.4,8,2.5,8.4,6.7l0,0
			C876.2,441.6,873.3,445.4,869,445.9L869,445.9z"/>
		
			<linearGradient id="imagebot_78_2_" gradientUnits="userSpaceOnUse" x1="-1678.5139" y1="781.1562" x2="-1678.6342" y2="781.0359" gradientTransform="matrix(14.203 125.7262 125.2975 -14.1545 -73157.3828 222546.2188)">
			<stop  offset="0" style="stop-color:#108040;stop-opacity:0.9961"/>
			<stop  offset="1" style="stop-color:#B4DA9F;stop-opacity:0.9961"/>
		</linearGradient>
		<path id="imagebot_78_1_" class="st98" d="M872.1,457.1c-4.2,0.5-8-2.5-8.4-6.7c-0.5-4.2,2.5-8,6.7-8.4s8,2.5,8.4,6.7l0,0
			C879.3,452.7,876.2,456.5,872.1,457.1L872.1,457.1z"/>
		
			<linearGradient id="imagebot_72_2_" gradientUnits="userSpaceOnUse" x1="-1673.6907" y1="775.1152" x2="-1673.8112" y2="774.9949" gradientTransform="matrix(66.3152 107.6985 107.4639 -66.1708 28585.4199 231996.5312)">
			<stop  offset="0" style="stop-color:#108040;stop-opacity:0.9961"/>
			<stop  offset="1" style="stop-color:#B4DA9F;stop-opacity:0.9961"/>
		</linearGradient>
		<path id="imagebot_72_1_" class="st99" d="M881.6,457.6c-4.2,0.5-8-2.5-8.4-6.7c-0.5-4.2,2.5-8,6.7-8.4c4.2-0.5,8,2.5,8.4,6.7l0,0
			C888.8,453.4,885.8,457.2,881.6,457.6L881.6,457.6z"/>
		
			<linearGradient id="imagebot_66_2_" gradientUnits="userSpaceOnUse" x1="-1679.5226" y1="780.5353" x2="-1679.6429" y2="780.4149" gradientTransform="matrix(14.203 125.7262 125.2976 -14.1546 -73052.7578 222680.4531)">
			<stop  offset="0" style="stop-color:#108040;stop-opacity:0.9961"/>
			<stop  offset="1" style="stop-color:#B4DA9F;stop-opacity:0.9961"/>
		</linearGradient>
		<path id="imagebot_66_1_" class="st100" d="M884.7,473.2c-4.2,0.5-8-2.5-8.4-6.7c-0.5-4.2,2.5-8,6.7-8.4c4.2-0.5,8,2.5,8.4,6.7
			l0,0C891.8,468.9,888.8,472.7,884.7,473.2L884.7,473.2z"/>
		
			<linearGradient id="imagebot_60_2_" gradientUnits="userSpaceOnUse" x1="-1678.9916" y1="780.223" x2="-1679.1118" y2="780.1027" gradientTransform="matrix(14.203 125.7262 125.2976 -14.1545 -73016.7422 222599.4219)">
			<stop  offset="0" style="stop-color:#108040;stop-opacity:0.9961"/>
			<stop  offset="1" style="stop-color:#B4DA9F;stop-opacity:0.9961"/>
		</linearGradient>
		<path id="imagebot_60_1_" class="st101" d="M889.1,463.4c-4.2,0.5-8-2.5-8.4-6.7c-0.5-4.2,2.5-8,6.7-8.4c4.2-0.5,8,2.5,8.4,6.7
			l0,0C896.2,459.2,893.2,462.9,889.1,463.4L889.1,463.4z"/>
		
			<linearGradient id="imagebot_54_2_" gradientUnits="userSpaceOnUse" x1="-1678.3397" y1="780.0311" x2="-1678.4601" y2="779.9106" gradientTransform="matrix(14.203 125.7262 125.2976 -14.1545 -72999.9375 222503.2031)">
			<stop  offset="0" style="stop-color:#108040;stop-opacity:0.9961"/>
			<stop  offset="1" style="stop-color:#B4DA9F;stop-opacity:0.9961"/>
		</linearGradient>
		<path id="imagebot_54_1_" class="st102" d="M891,451.8c-4.2,0.5-8-2.5-8.4-6.7c-0.5-4.2,2.5-8,6.7-8.4c4.2-0.5,8,2.5,8.4,6.7l0,0
			C898.2,447.5,895.2,451.3,891,451.8L891,451.8z"/>
		
			<linearGradient id="imagebot_48_2_" gradientUnits="userSpaceOnUse" x1="-1677.4299" y1="780.3154" x2="-1677.5503" y2="780.1949" gradientTransform="matrix(14.203 125.7262 125.2975 -14.1545 -73055.0781 222377.7188)">
			<stop  offset="0" style="stop-color:#108040;stop-opacity:0.9961"/>
			<stop  offset="1" style="stop-color:#B4DA9F;stop-opacity:0.9961"/>
		</linearGradient>
		<path id="imagebot_48_1_" class="st103" d="M884.4,436.7c-4.2,0.5-8-2.5-8.4-6.7c-0.5-4.2,2.5-8,6.7-8.4s8,2.5,8.4,6.7l0,0
			C891.5,432.4,888.5,436.2,884.4,436.7L884.4,436.7z"/>
		
			<linearGradient id="imagebot_34_2_" gradientUnits="userSpaceOnUse" x1="-1673.3127" y1="774.1395" x2="-1673.4331" y2="774.0191" gradientTransform="matrix(66.3152 107.6985 107.4639 -66.1708 28676.1387 231876.9062)">
			<stop  offset="0" style="stop-color:#108040;stop-opacity:0.9961"/>
			<stop  offset="1" style="stop-color:#B4DA9F;stop-opacity:0.9961"/>
		</linearGradient>
		<path id="imagebot_34_1_" class="st104" d="M892.5,443.3c-4.2,0.5-8-2.5-8.4-6.7c-0.4-4.2,2.5-8,6.7-8.4c4.2-0.5,8,2.5,8.4,6.7
			l0,0C899.7,438.9,896.7,442.8,892.5,443.3L892.5,443.3z"/>
		
			<linearGradient id="imagebot_10_2_" gradientUnits="userSpaceOnUse" x1="-1673.0651" y1="774.7621" x2="-1673.1855" y2="774.6418" gradientTransform="matrix(66.3152 107.6985 107.4639 -66.1708 28581.4043 231893.3438)">
			<stop  offset="0" style="stop-color:#108040;stop-opacity:0.9961"/>
			<stop  offset="1" style="stop-color:#B4DA9F;stop-opacity:0.9961"/>
		</linearGradient>
		<path id="imagebot_10_1_" class="st105" d="M881.1,445.2c-4.2,0.5-8-2.5-8.4-6.7c-0.5-4.2,2.5-8,6.7-8.4c4.2-0.5,8,2.5,8.4,6.7
			l0,0C888.2,441,885.3,444.7,881.1,445.2L881.1,445.2z"/>
	</g>
	<path id="imagebot_16_1_" class="st106" d="M893.2,408.8c0.7-1.1,0.2-3.9,0.2-3.9s-1.2,0.4-2.2,1.1c-0.8-0.9-2-1.6-2-1.6
		s-0.6,1.2-0.8,2.4c-1.2-0.1-2.5,0.2-2.5,0.2s0.4,1.2,1.1,2.2c-0.9,0.8-1.6,2-1.6,2s1.2,0.5,2.4,0.8c-0.1,1.2,0.2,2.5,0.2,2.5
		s2.9-1,3.3-2.4c0.3-0.8,0.1-2-0.6-2.4l0,0l0,0l0,0l0,0c0.7,0.4,1.8,0,2.4-0.7C893.2,409,893.2,409,893.2,408.8L893.2,408.8z"/>
</g>
<g>
	<path id="imagebot_25" class="st72" d="M792.7,436.5c-1.2-2.1-0.3-7-0.3-7s2.2,0.8,4.1,2c1.4-1.6,3.5-3.1,3.5-3.1s1,2.1,1.4,4.3
		c2.1-0.1,4.6,0.3,4.6,0.3s-0.8,2.2-2,4.1c1.6,1.4,3.1,3.5,3.1,3.5s-2.1,1-4.3,1.4c0.2,2.1-0.3,4.6-0.3,4.6s-5.2-1.8-6-4.1
		c-0.5-1.4-0.2-3.6,1.1-4.4c0,0,0,0,0-0.1c0,0,0,0,0-0.1c0,0,0,0-0.1,0c0,0-0.1,0-0.1,0.1c-1.3,0.7-3.3,0-4.4-1.2
		C792.8,436.7,792.8,436.6,792.7,436.5L792.7,436.5z"/>
	<g id="imagebot_177" transform="translate(0 2.44141) matrix(1 0 0 1 -4.88281 0)" class="st73">
		<path id="imagebot_40" class="st74" d="M807.2,458.9c0,0-12.1-7.8-22-0.8c-9.9,7.2-9.6,9.8-8.7,18.5c1,8.7-3.5,10.9-3.5,10.9"/>
		<path id="imagebot_22" class="st74" d="M791.4,455c0,0,0.4-4.8,2.9-10c2.5-5.3,8.5-9.9,8.5-9.9"/>
		<path id="imagebot_19" class="st74" d="M793,447.3c0,0-1.2,3.1-6.6,1.6c-5.4-1.4-3.8-9.2-3.8-9.2"/>
	</g>
	<path id="imagebot_28" class="st72" d="M774,445.2c-2.2,0-5.8-3.1-5.8-3.1s1.7-1.4,3.6-2.2c-0.6-2-0.8-4.2-0.8-4.2s2.2,0.2,4.2,0.9
		c0.9-1.8,2.4-3.5,2.4-3.5s1.4,1.7,2.4,3.5c2-0.6,4.2-0.8,4.2-0.8s-0.2,2.2-0.9,4.1c1.8,0.9,3.6,2.4,3.6,2.4s-4,3.3-6.2,2.9
		c-1.4-0.2-2.9-1.6-2.9-2.9l0,0c0,0,0,0-0.1,0l0,0v0.1c0,1.4-1.6,2.8-3.1,2.9C774.3,445.2,774.1,445.2,774,445.2L774,445.2z"/>
	<path id="imagebot_12" class="st75" d="M775.4,443.7c-1.2,0-3.2-1.7-3.2-1.7s0.9-0.8,2-1.2c-0.3-1-0.4-2.2-0.4-2.2s1.2,0.1,2.2,0.5
		c0.5-1,1.3-2,1.3-2s0.8,0.9,1.2,2c1-0.3,2.4-0.4,2.4-0.4s-0.1,1.2-0.5,2.2c1,0.5,2,1.3,2,1.3s-2.1,1.7-3.3,1.6
		c-0.7-0.1-1.6-0.9-1.6-1.6l0,0l0,0l0,0c0,0,0,0,0,0.1c0,0.7-0.9,1.4-1.6,1.6C775.6,443.6,775.6,443.7,775.4,443.7L775.4,443.7z"/>
	<g id="imagebot_156">
		
			<linearGradient id="imagebot_136_3_" gradientUnits="userSpaceOnUse" x1="-1684.6284" y1="759.7811" x2="-1684.748" y2="759.6616" gradientTransform="matrix(-65.4107 108.2498 -108.0142 -65.2683 -27284.4258 232453.5625)">
			<stop  offset="0" style="stop-color:#432979;stop-opacity:0.9961"/>
			<stop  offset="1" style="stop-color:#C6ABD2;stop-opacity:0.9961"/>
		</linearGradient>
		<path id="imagebot_136" class="st107" d="M850.8,508.2c4.2,0.4,7.8-2.5,8.2-6.7s-2.5-7.8-6.7-8.2c-4.2-0.4-7.8,2.5-8.2,6.7
			C843.7,504,846.6,507.7,850.8,508.2z"/>
		
			<linearGradient id="imagebot_134_3_" gradientUnits="userSpaceOnUse" x1="-1684.2515" y1="759.381" x2="-1684.371" y2="759.2615" gradientTransform="matrix(-65.4107 108.2498 -108.0143 -65.2684 -27305.416 232377.6562)">
			<stop  offset="0" style="stop-color:#432979;stop-opacity:0.9961"/>
			<stop  offset="1" style="stop-color:#C6ABD2;stop-opacity:0.9961"/>
		</linearGradient>
		<path id="imagebot_134" class="st108" d="M848.3,499.1c4.2,0.4,7.8-2.5,8.2-6.7c0.4-4.2-2.5-7.8-6.7-8.2s-7.8,2.5-8.2,6.7
			C841.1,494.9,844.1,498.7,848.3,499.1z"/>
		
			<linearGradient id="imagebot_132_3_" gradientUnits="userSpaceOnUse" x1="-1681.0171" y1="761.501" x2="-1681.1366" y2="761.3813" gradientTransform="matrix(-13.1495 125.8408 -125.4118 -13.1047 74232.3047 222009.375)">
			<stop  offset="0" style="stop-color:#432979;stop-opacity:0.9961"/>
			<stop  offset="1" style="stop-color:#C6ABD2;stop-opacity:0.9961"/>
		</linearGradient>
		<path id="imagebot_132" class="st109" d="M843.2,490.4c4.2,0.4,7.8-2.5,8.2-6.7s-2.5-7.8-6.7-8.2c-4.2-0.4-7.8,2.5-8.2,6.7l0,0
			C836,486.2,838.9,490,843.2,490.4L843.2,490.4z"/>
		
			<linearGradient id="imagebot_130_3_" gradientUnits="userSpaceOnUse" x1="-1683.7416" y1="758.3818" x2="-1683.8612" y2="758.2622" gradientTransform="matrix(-65.4107 108.2497 -108.0142 -65.2683 -27390.1914 232240.6094)">
			<stop  offset="0" style="stop-color:#432979;stop-opacity:0.9961"/>
			<stop  offset="1" style="stop-color:#C6ABD2;stop-opacity:0.9961"/>
		</linearGradient>
		<path id="imagebot_130" class="st110" d="M838.1,482.7c4.2,0.4,7.8-2.5,8.2-6.7c0.4-4.2-2.5-7.8-6.7-8.2s-7.8,2.5-8.2,6.7
			C831,478.6,834,482.2,838.1,482.7z"/>
		
			<linearGradient id="imagebot_128_3_" gradientUnits="userSpaceOnUse" x1="-1680.3712" y1="760.7742" x2="-1680.4908" y2="760.6546" gradientTransform="matrix(-13.1495 125.8408 -125.4117 -13.1047 74138.3438 221906.2344)">
			<stop  offset="0" style="stop-color:#432979;stop-opacity:0.9961"/>
			<stop  offset="1" style="stop-color:#C6ABD2;stop-opacity:0.9961"/>
		</linearGradient>
		<path id="imagebot_128" class="st111" d="M831.9,478c4.2,0.4,7.8-2.5,8.2-6.7c0.4-4.2-2.5-7.8-6.7-8.2s-7.8,2.5-8.2,6.7l0,0
			C824.8,473.8,827.8,477.6,831.9,478L831.9,478z"/>
		
			<linearGradient id="imagebot_126_3_" gradientUnits="userSpaceOnUse" x1="-1679.9565" y1="760.4374" x2="-1680.0762" y2="760.3179" gradientTransform="matrix(-13.1495 125.8408 -125.4117 -13.1047 74096.6016 221841.9688)">
			<stop  offset="0" style="stop-color:#432979;stop-opacity:0.9961"/>
			<stop  offset="1" style="stop-color:#C6ABD2;stop-opacity:0.9961"/>
		</linearGradient>
		<path id="imagebot_126" class="st112" d="M826.9,470.4c4.2,0.4,7.8-2.5,8.2-6.7c0.4-4.2-2.5-7.8-6.7-8.2c-4.2-0.4-7.8,2.5-8.2,6.7
			l0,0C819.8,466.2,822.7,470,826.9,470.4L826.9,470.4z"/>
		
			<linearGradient id="imagebot_124_3_" gradientUnits="userSpaceOnUse" x1="-1684.9196" y1="760.3189" x2="-1685.0392" y2="760.1992" gradientTransform="matrix(-65.4107 108.2498 -108.0142 -65.2683 -27240.1133 232529.1719)">
			<stop  offset="0" style="stop-color:#432979;stop-opacity:0.9961"/>
			<stop  offset="1" style="stop-color:#C6ABD2;stop-opacity:0.9961"/>
		</linearGradient>
		<path id="imagebot_124" class="st113" d="M856.1,517.1c4.2,0.4,7.8-2.5,8.2-6.7c0.4-4.2-2.5-7.8-6.7-8.2s-7.8,2.5-8.2,6.7
			C849,513.1,851.9,516.7,856.1,517.1z"/>
		
			<linearGradient id="imagebot_122_3_" gradientUnits="userSpaceOnUse" x1="-1682.2701" y1="761.8447" x2="-1682.3898" y2="761.725" gradientTransform="matrix(-13.1495 125.8408 -125.4117 -13.1047 74262.4844 222193.625)">
			<stop  offset="0" style="stop-color:#432979;stop-opacity:0.9961"/>
			<stop  offset="1" style="stop-color:#C6ABD2;stop-opacity:0.9961"/>
		</linearGradient>
		<path id="imagebot_122" class="st114" d="M846.7,512.5c4.2,0.4,7.8-2.5,8.2-6.7c0.4-4.2-2.5-7.8-6.7-8.2c-4.2-0.4-7.8,2.5-8.2,6.7
			l0,0C839.6,508.3,842.5,512,846.7,512.5L846.7,512.5z"/>
		
			<linearGradient id="imagebot_120_3_" gradientUnits="userSpaceOnUse" x1="-1681.5968" y1="761.4698" x2="-1681.7164" y2="761.3503" gradientTransform="matrix(-13.1495 125.8408 -125.4118 -13.1047 74219.1641 222091.7344)">
			<stop  offset="0" style="stop-color:#432979;stop-opacity:0.9961"/>
			<stop  offset="1" style="stop-color:#C6ABD2;stop-opacity:0.9961"/>
		</linearGradient>
		<path id="imagebot_120" class="st115" d="M841.5,500.2c4.2,0.4,7.8-2.5,8.2-6.7c0.4-4.2-2.5-7.8-6.7-8.2c-4.2-0.4-7.8,2.5-8.2,6.7
			l0,0C834.4,496.1,837.4,499.8,841.5,500.2L841.5,500.2z"/>
		
			<linearGradient id="imagebot_118_3_" gradientUnits="userSpaceOnUse" x1="-1681.1827" y1="761.1338" x2="-1681.3022" y2="761.0142" gradientTransform="matrix(-13.1495 125.8407 -125.4117 -13.1047 74177.375 222027.3906)">
			<stop  offset="0" style="stop-color:#432979;stop-opacity:0.9961"/>
			<stop  offset="1" style="stop-color:#C6ABD2;stop-opacity:0.9961"/>
		</linearGradient>
		<path id="imagebot_118" class="st116" d="M836.5,492.5c4.2,0.4,7.8-2.5,8.2-6.7c0.4-4.2-2.5-7.8-6.7-8.2c-4.2-0.4-7.8,2.5-8.2,6.7
			l0,0C829.4,488.4,832.4,492.1,836.5,492.5L836.5,492.5z"/>
		
			<linearGradient id="imagebot_116_3_" gradientUnits="userSpaceOnUse" x1="-1685.2683" y1="759.2847" x2="-1685.3878" y2="759.1652" gradientTransform="matrix(-65.4109 108.2501 -108.0143 -65.2684 -27393.0918 232496.0156)">
			<stop  offset="0" style="stop-color:#432979;stop-opacity:0.9961"/>
			<stop  offset="1" style="stop-color:#C6ABD2;stop-opacity:0.9961"/>
		</linearGradient>
		<path id="imagebot_116" class="st117" d="M837.8,513.2c4.2,0.4,7.8-2.5,8.2-6.7s-2.5-7.8-6.7-8.2c-4.2-0.4-7.8,2.5-8.2,6.7l0,0
			C830.7,509,833.6,512.8,837.8,513.2L837.8,513.2z"/>
		
			<linearGradient id="imagebot_114_3_" gradientUnits="userSpaceOnUse" x1="-1681.9913" y1="761.2835" x2="-1682.1111" y2="761.164" gradientTransform="matrix(-13.1495 125.8408 -125.4117 -13.1047 74186.6719 222145.3594)">
			<stop  offset="0" style="stop-color:#432979;stop-opacity:0.9961"/>
			<stop  offset="1" style="stop-color:#C6ABD2;stop-opacity:0.9961"/>
		</linearGradient>
		<path id="imagebot_114" class="st118" d="M837.6,506.7c4.2,0.4,7.8-2.5,8.2-6.7s-2.5-7.8-6.7-8.2s-7.8,2.5-8.2,6.7l0,0
			C830.5,502.4,833.6,506.2,837.6,506.7L837.6,506.7z"/>
		
			<linearGradient id="imagebot_112_3_" gradientUnits="userSpaceOnUse" x1="-1685.4282" y1="758.6871" x2="-1685.5479" y2="758.5676" gradientTransform="matrix(-65.4109 108.2501 -108.0144 -65.2685 -27478.1914 232471.4375)">
			<stop  offset="0" style="stop-color:#432979;stop-opacity:0.9961"/>
			<stop  offset="1" style="stop-color:#C6ABD2;stop-opacity:0.9961"/>
		</linearGradient>
		<path id="imagebot_112" class="st119" d="M827.6,510.2c4.2,0.4,7.8-2.5,8.2-6.7s-2.5-7.8-6.7-8.2c-4.2-0.4-7.8,2.5-8.2,6.7l0,0
			C820.5,506,823.4,509.8,827.6,510.2L827.6,510.2z"/>
		
			<linearGradient id="imagebot_110_3_" gradientUnits="userSpaceOnUse" x1="-1685.5447" y1="757.9293" x2="-1685.6642" y2="757.8097" gradientTransform="matrix(-65.4109 108.2501 -108.0144 -65.2685 -27579.8164 232429.5469)">
			<stop  offset="0" style="stop-color:#432979;stop-opacity:0.9961"/>
			<stop  offset="1" style="stop-color:#C6ABD2;stop-opacity:0.9961"/>
		</linearGradient>
		<path id="imagebot_110" class="st120" d="M815.5,505.2c4.2,0.4,7.8-2.5,8.2-6.7c0.4-4.2-2.5-7.8-6.7-8.2c-4.2-0.4-7.8,2.5-8.2,6.7
			l0,0C808.3,501,811.3,504.8,815.5,505.2L815.5,505.2z"/>
		
			<linearGradient id="imagebot_108_3_" gradientUnits="userSpaceOnUse" x1="-1681.8251" y1="760.3793" x2="-1681.9446" y2="760.2597" gradientTransform="matrix(-13.1495 125.8408 -125.4118 -13.1047 74060.3984 222108.0938)">
			<stop  offset="0" style="stop-color:#432979;stop-opacity:0.9961"/>
			<stop  offset="1" style="stop-color:#C6ABD2;stop-opacity:0.9961"/>
		</linearGradient>
		<path id="imagebot_108" class="st121" d="M822.5,502.2c4.2,0.4,7.8-2.5,8.2-6.7c0.4-4.2-2.5-7.8-6.7-8.2c-4.2-0.4-7.8,2.5-8.2,6.7
			l0,0C815.4,498.1,818.5,501.8,822.5,502.2L822.5,502.2z"/>
		
			<linearGradient id="imagebot_106_3_" gradientUnits="userSpaceOnUse" x1="-1681.5685" y1="760.7576" x2="-1681.6881" y2="760.638" gradientTransform="matrix(-13.1495 125.8408 -125.4118 -13.1047 74118.1719 222077.0938)">
			<stop  offset="0" style="stop-color:#432979;stop-opacity:0.9961"/>
			<stop  offset="1" style="stop-color:#C6ABD2;stop-opacity:0.9961"/>
		</linearGradient>
		<path id="imagebot_106" class="st122" d="M829.5,498.5c4.2,0.4,7.8-2.5,8.2-6.7s-2.5-7.8-6.7-8.2s-7.8,2.5-8.2,6.7l0,0
			C822.3,494.3,825.3,498.1,829.5,498.5L829.5,498.5z"/>
		
			<linearGradient id="imagebot_104_3_" gradientUnits="userSpaceOnUse" x1="-1680.9508" y1="760.7425" x2="-1681.0704" y2="760.6229" gradientTransform="matrix(-13.1495 125.8408 -125.4118 -13.1047 74125.2656 221988.625)">
			<stop  offset="0" style="stop-color:#432979;stop-opacity:0.9961"/>
			<stop  offset="1" style="stop-color:#C6ABD2;stop-opacity:0.9961"/>
		</linearGradient>
		<path id="imagebot_104" class="st123" d="M830.3,488c4.2,0.4,7.8-2.5,8.2-6.7s-2.5-7.8-6.7-8.2c-4.2-0.4-7.8,2.5-8.2,6.7l0,0
			C823.1,483.8,826.2,487.4,830.3,488L830.3,488z"/>
		
			<linearGradient id="imagebot_102_3_" gradientUnits="userSpaceOnUse" x1="-1684.0035" y1="757.6668" x2="-1684.123" y2="757.5473" gradientTransform="matrix(-65.4107 108.2498 -108.0141 -65.2683 -27497.4512 232219.9219)">
			<stop  offset="0" style="stop-color:#432979;stop-opacity:0.9961"/>
			<stop  offset="1" style="stop-color:#C6ABD2;stop-opacity:0.9961"/>
		</linearGradient>
		<path id="imagebot_102" class="st124" d="M825.3,480.2c4.2,0.4,7.8-2.5,8.2-6.7c0.4-4.2-2.5-7.8-6.7-8.2c-4.2-0.4-7.8,2.5-8.2,6.7
			C818.1,476.1,821.2,479.8,825.3,480.2z"/>
		
			<linearGradient id="imagebot_100_3_" gradientUnits="userSpaceOnUse" x1="-1684.7017" y1="757.755" x2="-1684.8212" y2="757.6354" gradientTransform="matrix(-65.4109 108.2501 -108.0143 -65.2684 -27538.7012 232312.8438)">
			<stop  offset="0" style="stop-color:#432979;stop-opacity:0.9961"/>
			<stop  offset="1" style="stop-color:#C6ABD2;stop-opacity:0.9961"/>
		</linearGradient>
		<path id="imagebot_100" class="st125" d="M820.4,491.2c4.2,0.4,7.8-2.5,8.2-6.7c0.4-4.2-2.5-7.8-6.7-8.2s-7.8,2.5-8.2,6.7l0,0
			C813.2,487.1,816.3,490.8,820.4,491.2L820.4,491.2z"/>
		
			<linearGradient id="imagebot_98_3_" gradientUnits="userSpaceOnUse" x1="-1685.2247" y1="757.3903" x2="-1685.3444" y2="757.2708" gradientTransform="matrix(-65.4109 108.2501 -108.0143 -65.2684 -27622.2793 232350.1719)">
			<stop  offset="0" style="stop-color:#432979;stop-opacity:0.9961"/>
			<stop  offset="1" style="stop-color:#C6ABD2;stop-opacity:0.9961"/>
		</linearGradient>
		<path id="imagebot_98" class="st126" d="M810.4,495.7c4.2,0.4,7.8-2.5,8.2-6.7s-2.5-7.8-6.7-8.2c-4.2-0.4-7.8,2.5-8.2,6.7l0,0
			C803.2,491.5,806.3,495.3,810.4,495.7L810.4,495.7z"/>
		
			<linearGradient id="imagebot_96_3_" gradientUnits="userSpaceOnUse" x1="-1679.6331" y1="759.8494" x2="-1679.7526" y2="759.7298" gradientTransform="matrix(-13.1495 125.8408 -125.4118 -13.1047 74017.6562 221786.9219)">
			<stop  offset="0" style="stop-color:#432979;stop-opacity:0.9961"/>
			<stop  offset="1" style="stop-color:#C6ABD2;stop-opacity:0.9961"/>
		</linearGradient>
		<path id="imagebot_96" class="st127" d="M817.4,463.7c4.2,0.4,7.8-2.5,8.2-6.7c0.4-4.2-2.5-7.8-6.7-8.2s-7.8,2.5-8.2,6.7l0,0
			C810.3,459.7,813.3,463.3,817.4,463.7L817.4,463.7z"/>
		
			<linearGradient id="imagebot_84_3_" gradientUnits="userSpaceOnUse" x1="-1680.1752" y1="760.0126" x2="-1680.2948" y2="759.893" gradientTransform="matrix(-13.1495 125.8408 -125.4118 -13.1047 74032.8438 221866.8594)">
			<stop  offset="0" style="stop-color:#432979;stop-opacity:0.9961"/>
			<stop  offset="1" style="stop-color:#C6ABD2;stop-opacity:0.9961"/>
		</linearGradient>
		<path id="imagebot_84" class="st128" d="M819.3,473.3c4.2,0.4,7.8-2.5,8.2-6.7c0.4-4.2-2.5-7.8-6.7-8.2s-7.8,2.5-8.2,6.7l0,0
			C812.1,469.2,815.1,472.9,819.3,473.3L819.3,473.3z"/>
		
			<linearGradient id="imagebot_78_3_" gradientUnits="userSpaceOnUse" x1="-1680.8345" y1="759.911" x2="-1680.9541" y2="759.7913" gradientTransform="matrix(-13.1495 125.8408 -125.4117 -13.1047 74008.4141 221959.5781)">
			<stop  offset="0" style="stop-color:#432979;stop-opacity:0.9961"/>
			<stop  offset="1" style="stop-color:#C6ABD2;stop-opacity:0.9961"/>
		</linearGradient>
		<path id="imagebot_78" class="st129" d="M816.3,484.4c4.2,0.4,7.8-2.5,8.2-6.7s-2.5-7.8-6.7-8.2c-4.2-0.4-7.8,2.5-8.2,6.7l0,0
			C809.2,480.3,812.2,484,816.3,484.4L816.3,484.4z"/>
		
			<linearGradient id="imagebot_72_3_" gradientUnits="userSpaceOnUse" x1="-1684.8029" y1="756.8945" x2="-1684.9224" y2="756.7748" gradientTransform="matrix(-65.4109 108.2501 -108.0143 -65.2685 -27651.7324 232261.5938)">
			<stop  offset="0" style="stop-color:#432979;stop-opacity:0.9961"/>
			<stop  offset="1" style="stop-color:#C6ABD2;stop-opacity:0.9961"/>
		</linearGradient>
		<path id="imagebot_72" class="st130" d="M806.9,485.1c4.2,0.4,7.8-2.5,8.2-6.7s-2.5-7.8-6.7-8.2c-4.2-0.4-7.8,2.5-8.2,6.7l0,0
			C799.8,481,802.7,484.7,806.9,485.1L806.9,485.1z"/>
		
			<linearGradient id="imagebot_66_3_" gradientUnits="userSpaceOnUse" x1="-1681.8444" y1="759.2896" x2="-1681.9639" y2="759.17" gradientTransform="matrix(-13.1495 125.8408 -125.4118 -13.1047 73904.9062 222094.6875)">
			<stop  offset="0" style="stop-color:#432979;stop-opacity:0.9961"/>
			<stop  offset="1" style="stop-color:#C6ABD2;stop-opacity:0.9961"/>
		</linearGradient>
		<path id="imagebot_66" class="st131" d="M803.9,500.6c4.2,0.4,7.8-2.5,8.2-6.7c0.4-4.2-2.5-7.8-6.7-8.2s-7.8,2.5-8.2,6.7l0,0
			C796.8,496.4,799.8,500.2,803.9,500.6L803.9,500.6z"/>
		
			<linearGradient id="imagebot_60_3_" gradientUnits="userSpaceOnUse" x1="-1681.3124" y1="758.9767" x2="-1681.4319" y2="758.8572" gradientTransform="matrix(-13.1495 125.8408 -125.4117 -13.1047 73868.2109 222013.9531)">
			<stop  offset="0" style="stop-color:#432979;stop-opacity:0.9961"/>
			<stop  offset="1" style="stop-color:#C6ABD2;stop-opacity:0.9961"/>
		</linearGradient>
		<path id="imagebot_60" class="st132" d="M799.6,490.9c4.2,0.4,7.8-2.5,8.2-6.7c0.4-4.2-2.5-7.8-6.7-8.2s-7.8,2.5-8.2,6.7l0,0
			C792.4,486.8,795.5,490.5,799.6,490.9L799.6,490.9z"/>
		
			<linearGradient id="imagebot_54_3_" gradientUnits="userSpaceOnUse" x1="-1680.6595" y1="758.7841" x2="-1680.7791" y2="758.6645" gradientTransform="matrix(-13.1495 125.8408 -125.4117 -13.1047 73850.6016 221917.875)">
			<stop  offset="0" style="stop-color:#432979;stop-opacity:0.9961"/>
			<stop  offset="1" style="stop-color:#C6ABD2;stop-opacity:0.9961"/>
		</linearGradient>
		<path id="imagebot_54" class="st133" d="M797.5,479.5c4.2,0.4,7.8-2.5,8.2-6.7c0.4-4.2-2.5-7.8-6.7-8.2c-4.2-0.4-7.8,2.5-8.2,6.7
			l0,0C790.4,475.3,793.3,479,797.5,479.5L797.5,479.5z"/>
		
			<linearGradient id="imagebot_48_3_" gradientUnits="userSpaceOnUse" x1="-1679.7491" y1="759.069" x2="-1679.8689" y2="758.9494" gradientTransform="matrix(-13.1495 125.8408 -125.4117 -13.1047 73904.7031 221791.9375)">
			<stop  offset="0" style="stop-color:#432979;stop-opacity:0.9961"/>
			<stop  offset="1" style="stop-color:#C6ABD2;stop-opacity:0.9961"/>
		</linearGradient>
		<path id="imagebot_48" class="st134" d="M803.9,464.4c4.2,0.4,7.8-2.5,8.2-6.7c0.4-4.2-2.5-7.8-6.7-8.2s-7.8,2.5-8.2,6.7l0,0
			C796.8,460.3,799.8,464,803.9,464.4L803.9,464.4z"/>
		
			<linearGradient id="imagebot_34_3_" gradientUnits="userSpaceOnUse" x1="-1684.425" y1="755.9184" x2="-1684.5448" y2="755.7988" gradientTransform="matrix(-65.4109 108.2501 -108.0143 -65.2684 -27743.4512 232142.7344)">
			<stop  offset="0" style="stop-color:#432979;stop-opacity:0.9961"/>
			<stop  offset="1" style="stop-color:#C6ABD2;stop-opacity:0.9961"/>
		</linearGradient>
		<path id="imagebot_34" class="st135" d="M795.9,470.9c4.2,0.4,7.8-2.5,8.2-6.7c0.4-4.2-2.5-7.8-6.7-8.2c-4.2-0.4-7.8,2.5-8.2,6.7
			l0,0C788.7,466.7,791.8,470.5,795.9,470.9L795.9,470.9z"/>
		
			<linearGradient id="imagebot_10_3_" gradientUnits="userSpaceOnUse" x1="-1684.1769" y1="756.5415" x2="-1684.2966" y2="756.4219" gradientTransform="matrix(-65.4109 108.2501 -108.0143 -65.2684 -27648.5762 232158.3906)">
			<stop  offset="0" style="stop-color:#432979;stop-opacity:0.9961"/>
			<stop  offset="1" style="stop-color:#C6ABD2;stop-opacity:0.9961"/>
		</linearGradient>
		<path id="imagebot_10" class="st136" d="M807.2,472.7c4.2,0.4,7.8-2.5,8.2-6.7c0.4-4.2-2.5-7.8-6.7-8.2c-4.2-0.4-7.8,2.5-8.2,6.7
			l0,0C800.1,468.6,803.1,472.3,807.2,472.7L807.2,472.7z"/>
	</g>
	<path id="imagebot_16" class="st106" d="M794.9,436.8c-0.7-1.1-0.2-3.8-0.2-3.8s1.2,0.4,2.2,1.1c0.8-0.9,1.8-1.6,1.8-1.6
		s0.6,1.2,0.8,2.4c1.2-0.1,2.4,0.2,2.4,0.2s-0.4,1.2-1,2.2c0.9,0.8,1.6,2,1.6,2s-1.1,0.5-2.4,0.8c0.1,1.2-0.1,2.4-0.1,2.4
		s-2.9-1-3.3-2.2c-0.3-0.8-0.1-2,0.6-2.4l0,0l0,0l0,0l0,0c-0.7,0.4-1.8,0-2.4-0.7C795.1,436.9,794.9,436.9,794.9,436.8L794.9,436.8z
		"/>
</g>
<path class="st26" d="M1134.8,810.8l-45.1-177.9c-6.3-25-16.2-31.3-41.2-25l-175.1,43.8c-13.5,3.4-25.7,3.8-39.4,1.3l-99.9-18.3
	c-11.1-2-20.4-5.7-28.4-13.6l-48.6-48.6c-6.1-6.1-9.7-13-11.1-21.6l-4.7-27.9c-0.5-3.2,0.5-6.2,3-8.4c2.5-2.2,5.6-2.8,8.7-1.9
	c8.3,2.5,15.2,8.6,18.8,17l7.6,17.5l63.1,39.4l89.4-18.1l279.4-26.9l45.5,84.6v184.7H1134.8z"/>
<path class="st27" d="M1156.9,560l-17-27.8c-7.5-12.3-18.6-20-32.7-22.6l-44.1-8.4c-37.4-7.1-71.2-4.6-107.2,7.9l-22.6,7.9
	c-31.9,11.1-60.4,17.2-94,20.2c-17.7,1.6-33,5.7-49.4,13.1l-12.7,5.7c-6.1,2.8-9.5,9.2-8.3,15.8l0.7,3.8c1.3,7,7.3,11.9,14.4,11.8
	l25.4-0.3c11.9-0.1,22.2-1.4,33.5-4c46.5-11,88.5-11,135-0.1l23.8,5.6c24,5.6,46.5,2.5,67.9-9.6l0.9-0.5c9.6-5.4,20.2-6,30.3-1.6
	c10.1,4.4,16,12.7,19.7,23.1l36.4,103V560z"/>
<path class="st1" d="M798,581.2c6.5-0.4,0.3-20.6-5.9-18.6l-13.9,4.3c-5.1,1.6-0.7,15.5,4.6,15.2L798,581.2z"/>
</svg>
