<?xml version="1.0" encoding="utf-8"?>
<!-- Generator: Adobe Illustrator 25.0.0, SVG Export Plug-In . SVG Version: 6.00 Build 0)  -->
<svg version="1.1" id="publicdomainvectors.org" xmlns="http://www.w3.org/2000/svg" xmlns:xlink="http://www.w3.org/1999/xlink"
	 x="0px" y="0px" viewBox="0 0 637.2 410.8" style="enable-background:new 0 0 637.2 410.8;" xml:space="preserve">
<style type="text/css">
	.st0{fill-rule:evenodd;clip-rule:evenodd;fill:#B8753F;}
	.st1{fill-rule:evenodd;clip-rule:evenodd;fill:#9D602A;}
	.st2{fill-rule:evenodd;clip-rule:evenodd;fill:#D5945E;}
	.st3{fill-rule:evenodd;clip-rule:evenodd;fill:#F9B870;}
	.st4{fill-rule:evenodd;clip-rule:evenodd;fill:#FAD08D;}
	.st5{fill-rule:evenodd;clip-rule:evenodd;fill:#DC9449;}
	.st6{fill-rule:evenodd;clip-rule:evenodd;fill:#B5743F;}
	.st7{fill-rule:evenodd;clip-rule:evenodd;fill:#4E4542;}
	.st8{fill-rule:evenodd;clip-rule:evenodd;fill:#998B86;}
	.st9{fill-rule:evenodd;clip-rule:evenodd;fill:#FEEAC7;}
</style>
<g>
	<rect y="365.3" class="st0" width="637.2" height="45.4"/>
	<rect y="116.2" class="st1" width="637.2" height="259.8"/>
	<rect x="0" y="168.6" class="st2" width="212.9" height="84.2"/>
	<path class="st3" d="M530.6,207.3c1.2,22.1-9,45.5-30.5,45.5H137.1c-21.5,0-31.7-23.4-30.5-45.5h0v-83.4h424L530.6,207.3
		L530.6,207.3z"/>
	<path class="st4" d="M137.1,84.5H500c40.8,0,40.8,84.2,0,84.2H137.1C96.3,168.6,96.3,84.5,137.1,84.5z"/>
	<path class="st5" d="M192.2,92.2h156.6c33.3,0,33.3,68.8,0,68.8H192.2C158.9,160.9,158.9,92.2,192.2,92.2z"/>
	<rect x="193.3" y="67.6" class="st6" width="33.5" height="69.3"/>
	<path class="st1" d="M201,122.3L201,122.3c8-5.5,19.1-3.4,24.6,4.6l23.2,34h-42.8l-9.6-14.1C190.9,138.8,192.9,127.7,201,122.3z"/>
	<polygon class="st7" points="190.3,6.9 203,6.9 308.2,160.9 261.5,160.9 190.3,75.6 	"/>
	<polygon class="st8" points="190.3,75.6 203,75.6 261.5,160.9 248.8,160.9 	"/>
	<polygon class="st1" points="261.5,160.9 261.3,90.5 308.2,160.9 	"/>
	<path class="st9" d="M261.5,160.9c-0.1-43.1,26.2-87.4,75.6-86.8c49.5-0.6,75.8,43.7,75.6,86.8l0.2-68.8
		c0.2-48.7-20.3-89.1-75.9-92.2c-55.6,3.1-76,43.5-75.9,92.2L261.5,160.9z"/>
</g>
</svg>
