<?xml version="1.0" encoding="utf-8"?>
<!-- Generator: Adobe Illustrator 25.0.0, SVG Export Plug-In . SVG Version: 6.00 Build 0)  -->
<svg version="1.1" id="publicdomainvectors.org" xmlns="http://www.w3.org/2000/svg" xmlns:xlink="http://www.w3.org/1999/xlink"
	 x="0px" y="0px" viewBox="0 0 352.5 511.9" style="enable-background:new 0 0 352.5 511.9;" xml:space="preserve">
<style type="text/css">
	.st0{fill-rule:evenodd;clip-rule:evenodd;fill:#DC9449;}
	.st1{fill-rule:evenodd;clip-rule:evenodd;fill:#C7803A;}
	.st2{fill-rule:evenodd;clip-rule:evenodd;fill:#7B491F;}
	.st3{fill-rule:evenodd;clip-rule:evenodd;fill:#6B3E18;}
	.st4{fill-rule:evenodd;clip-rule:evenodd;fill:#583214;}
	.st5{fill-rule:evenodd;clip-rule:evenodd;fill:#9D602A;}
	.st6{fill-rule:evenodd;clip-rule:evenodd;fill:#E3A860;}
	.st7{fill-rule:evenodd;clip-rule:evenodd;fill:#F9B870;}
	.st8{fill-rule:evenodd;clip-rule:evenodd;fill:#FDC588;}
	.st9{fill-rule:evenodd;clip-rule:evenodd;fill:#D99C50;}
	.st10{fill-rule:evenodd;clip-rule:evenodd;fill:#EBAD61;}
	.st11{fill-rule:evenodd;clip-rule:evenodd;fill:#333333;}
	.st12{fill-rule:evenodd;clip-rule:evenodd;fill:#010101;}
	.st13{fill-rule:evenodd;clip-rule:evenodd;fill:#CDCCCC;}
	.st14{fill-rule:evenodd;clip-rule:evenodd;fill:#B4B4B4;}
</style>
<path class="st0" d="M134.7,116.5C193.3,45.8,258.2-3.6,338.6,0.2c10.1,0.5,16,10.4,13.2,22.4c-0.5,2.2-1,4.4-1.5,6.6
	c-2.5,10.9-8.1,20.3-16.7,27.7c-8.5,7.4-17.6,10.6-26.6,9.6c-24.8-2.7-48.6,6.7-71.8,21.7c-8.5,5.5-14.8,13.1-19.1,23
	c-4,9.3-10,17.5-17.8,24.5c-11.1,9.8-22.8,14.4-34.8,13.8c-12.4-0.7-24.8-1-38.3,2.4C130.1,134,130,134.3,134.7,116.5z"/>
<path class="st1" d="M352.5,16c0.1,2.1-0.1,4.3-0.7,6.7c-0.5,2.2-1,4.4-1.5,6.6c-2.5,10.9-8.1,20.3-16.7,27.7
	c-8.5,7.4-17.6,10.6-26.6,9.6c-24.8-2.7-48.6,6.7-71.8,21.7c-8.5,5.5-14.8,13.1-19.1,23c-4,9.3-10,17.5-17.8,24.5
	c-11.1,9.8-22.8,14.4-34.8,13.8c-6.5-0.4-13.1-0.6-19.8-0.3c-2.4-15.1-4.7-48.8,9.3-45.7c16.4,3.6,23.3,33.4,41.1,7.5
	c21-30.5,25.9-41.7,64.3-51.6c28.5-6.4,42.7-8.3,69.5-22C341.9,29.8,347.8,23.4,352.5,16z"/>
<path class="st2" d="M211.8,494.5c-39-3.6-21.1,26.8-67.2,14.4c-20.4-5.8-19.8-5-40.6-3.7c-11,0.7-23-3.2-33.5-6.2
	c-14.6-4.2-32.3,2.1-44.5-13.7c-9.5-12.4-2.3-23.1-17.8-42.9C2.3,435-0.3,429.7,0,423.9V258l281.2,3.2v165.8c0,0.6,0,1.2,0,1.7v0
	c-0.1,2.3-0.5,4.7-1.3,7.5c-4.8,14.8-18.3,21.2-25.6,35.4c-6.8,13.2-8.6,20.9-25.5,23C223.2,495.4,217.5,495,211.8,494.5z"/>
<path class="st3" d="M211.8,494.5c-39-3.6-21.1,26.8-67.2,14.4c-20.4-5.8-19.8-5-40.6-3.7c-11,0.7-23-3.2-33.5-6.2
	c-14.6-4.2-32.3,2.1-44.5-13.7c-3.9-5.1-5-10-6-15.3c20.3,10,33.1-0.1,57.4-7.2c18.3-5.4,37.8-0.8,55.9,3.3
	c17.8,4.1,26.1,9.3,43-0.7c9.9-6.8,22.5-15.7,27.6-26.9c2.5-6.3,3-12.2,3.3-19c0.9-17.9-0.6-31,1.7-49.5c4.9-38.9-17.9-22.9-40-21.4
	c-21.7,1.5-29.1-13.3-11.4-25.4c16.1-11,40.6-19.6,60-22.4c9.5-1.3,26.3-2.7,33.1-9.7c5.6-5.8,7.5-17.6,9.2-30l21.6,0.2v165.8
	c0,0.6,0,1.2,0,1.7v0c-0.1,2.3-0.5,4.7-1.3,7.5c-4.8,14.8-18.3,21.2-25.6,35.4c-6.8,13.2-8.6,20.9-25.5,23
	C223.2,495.4,217.5,495,211.8,494.5z"/>
<path class="st4" d="M211.8,494.5c-39-3.6-21.1,26.8-67.2,14.4c-20.4-5.8-19.8-5-40.6-3.7c-4.7,0.3-9.6-0.2-14.4-1.2
	c20.8-6.7,29.3-6.1,52-5.2c11.3,0.3,20.3,0.1,30.1-6.1c17.4-11.1,14.4-12.6,36.3-18.8c33-9.4,35.8-17.5,46.6-49.9
	c9.5-28.2-0.2-57.4,10.4-78.5c11.5-20.1,13.8-22.3,14.6-45.6c0.2-5.6,0.5-12.6,1.8-19.4v146.6c0,0.6,0,1.2,0,1.7v0
	c-0.1,2.3-0.5,4.7-1.3,7.5c-4.8,14.8-18.3,21.2-25.6,35.4c-6.8,13.2-8.6,20.9-25.5,23C223.2,495.4,217.5,495,211.8,494.5z"/>
<path class="st5" d="M211.8,326.9c-39-3.6-21.1,26.8-67.2,14.4c-20.4-5.8-19.8-5-40.6-3.7c-11,0.7-23-3.2-33.5-6.2
	c-14.6-4.2-32.3,2.1-44.5-13.7c-9.5-12.4-2.3-23.1-17.8-42.9c-10.4-13.2-10.4-19.5-2.5-34.7c4.8-9.3,11.1-16.5,18.7-23.6
	c7.2-6.5,13.1-9.8,22.2-13.2c14-4.8,22.6-6.7,36.7-13.1c21.9-9.8,43.9-4.4,67.2-4.8l2.8-0.1c13.1-0.2,24.9,1.5,38.1,2
	c37.1,1.3,37,20.5,64.1,36.7c12.7,7.7,21.3,14,25.1,29.5c1.4,5.7,1.1,9.4-0.4,15c-4.8,14.8-18.3,21.2-25.6,35.4
	c-6.8,13.2-8.6,20.9-25.5,23C223.2,327.8,217.5,327.4,211.8,326.9z"/>
<path class="st6" d="M183.5,320.9c-15.8,11.7-14.6,14.4-36.2,8.2c-20.6-6.3-21.9-4.9-42.4-4.3c-10.2,0.3-19-3-28.6-6.1
	c-15.9-5.1-31.9,6.2-37.8-20.2c-2.9-12.8-3.9-17.1-8.7-29.4c-5.2-13.4-4.2-15.6,2.7-27.9c12-20.6,31.8-23.6,51.5-33.4
	c24.3-12.4,35.4-6,60.9-6.1l5.8,0c12.2-0.2,23.6,0.9,35.8,1.3c32,0.9,32.1,21.1,55.4,37.8c15,10.7,19.4,14.7,9,33
	c-3.2,5.7-5.5,9.7-8.1,15.7c-11.2,28.4-10.2,21.2-37,23.2C196.9,313.4,190.8,315.7,183.5,320.9z"/>
<path class="st7" d="M183.5,320.9c-15.8,11.7-14.6,14.4-36.2,8.2c-20.6-6.3-21.9-4.9-42.4-4.3c-10.2,0.3-19-3-28.6-6.1
	c-15.9-5.1-31.9,6.2-37.8-20.2c-2.9-12.8-3.9-17.1-8.7-29.4c-1.9-4.9-3-8.3-3.2-11.3c0.4-3.9,2.4-7.6,5.9-14
	c12-20.6,31.8-23.6,51.5-33.4c24.3-12.4,35.4-6,60.9-6.1l5.8,0c12.2-0.2,23.6,0.9,35.8,1.3c32,0.9,32.1,21.1,55.4,37.8
	c8.8,6.3,13.9,10.3,14.6,16.2c-0.4,3.7-2.2,8.1-5.6,14.1c-3.2,5.7-5.5,9.7-8.1,15.7c-11.2,28.4-10.2,21.2-37,23.2
	C196.9,313.4,190.8,315.7,183.5,320.9z"/>
<path class="st8" d="M183.5,320.9c-15.8,11.7-14.6,14.4-36.2,8.2c-10.6-3.2-16.1-4.4-21.8-4.8C107.6,309.7,97,291.4,97,271.5
	c0-27,19.7-51.2,50.6-67.1l3.1,0c12.2-0.2,23.6,0.9,35.8,1.3c32,0.9,32.1,21.1,55.4,37.8c8.8,6.3,13.9,10.3,14.6,16.2
	c-0.4,3.7-2.2,8.1-5.6,14.1c-3.2,5.7-5.5,9.7-8.1,15.7c-11.2,28.4-10.2,21.2-37,23.2C196.9,313.4,190.8,315.7,183.5,320.9z"/>
<path class="st7" d="M119.3,324.2c-1.7,0-3.6,0.1-5.7,0.2l2.9-23.4L119.3,324.2L119.3,324.2z M37.4,294.2c-0.5-2.4-1-4.5-1.5-6.4
	l45.2-10.3L37.4,294.2L37.4,294.2z M59.8,221c1.8-0.8,3.6-1.6,5.5-2.4l13.3,13.3L59.8,221L59.8,221z M134.2,204.1
	c1.4,0.1,2.9,0.2,4.5,0.2l-1.7,25L134.2,204.1L134.2,204.1z M214.6,215.8c0.9,0.8,1.8,1.7,2.7,2.7l-28.9,18.7L214.6,215.8
	L214.6,215.8z M246.4,281.9c-0.9,1.8-1.8,3.6-2.7,5.6l-43.1-15L246.4,281.9z"/>
<path class="st9" d="M141.3,203.2c27.7,0,52.7,6.6,70.9,17.4c18.4,10.9,29.8,26,29.8,42.7c0,16.7-11.4,31.8-29.8,42.7
	c-18.2,10.7-43.2,17.4-70.9,17.4c-27.7,0-52.7-6.6-70.9-17.4c-18.4-10.9-29.8-26-29.8-42.7c0-16.8,11.4-31.8,29.8-42.7
	C88.6,209.8,113.6,203.2,141.3,203.2L141.3,203.2z M134.8,242.3c-4.4,0-8.4,1.1-11.3,2.8c-3.2,1.9-5.1,4.5-5.1,7.5
	c0,3,2,5.7,5.1,7.5c2.9,1.7,6.9,2.8,11.3,2.8c4.4,0,8.4-1.1,11.3-2.8c3.2-1.9,5.1-4.5,5.1-7.5c0-3-2-5.7-5.1-7.5
	C143.1,243.4,139.1,242.3,134.8,242.3L134.8,242.3z M144.5,247.8c-2.4-1.4-5.9-2.3-9.7-2.3c-3.8,0-7.2,0.9-9.7,2.3
	c-2.2,1.3-3.6,3-3.6,4.8c0,1.8,1.4,3.5,3.6,4.8c2.4,1.4,5.9,2.3,9.7,2.3c3.8,0,7.2-0.9,9.7-2.3c2.2-1.3,3.6-3,3.6-4.8
	C148,250.8,146.7,249.1,144.5,247.8L144.5,247.8z M135.9,235.8c-8.3,0-15.8,2-21.2,5.2c-5.7,3.4-9.2,8.1-9.2,13.4
	c0,5.3,3.5,10,9.2,13.4c5.5,3.2,13,5.2,21.2,5.2c16.8,0,30.4-8.3,30.4-18.6c0-5.3-3.5-10-9.2-13.4
	C151.6,237.8,144.1,235.8,135.9,235.8L135.9,235.8z M155.5,243.7c-5-2.9-11.9-4.8-19.6-4.8c-7.7,0-14.6,1.8-19.6,4.8
	c-4.7,2.8-7.7,6.6-7.7,10.7s2.9,7.9,7.7,10.7c5,2.9,11.9,4.8,19.6,4.8c15.1,0,27.3-6.9,27.3-15.5
	C163.2,250.3,160.2,246.5,155.5,243.7L155.5,243.7z M137,229.3c-12.1,0-23.2,2.9-31.2,7.6c-8.2,4.9-13.3,11.7-13.3,19.3
	c0,7.6,5.1,14.4,13.3,19.3c8,4.7,19,7.6,31.2,7.6c12.1,0,23.2-2.9,31.1-7.6c8.2-4.9,13.3-11.7,13.3-19.3c0-7.6-5.1-14.4-13.3-19.3
	C160.1,232.2,149.1,229.3,137,229.3L137,229.3z M166.5,239.6c-7.5-4.4-18-7.2-29.6-7.2c-11.6,0-22,2.8-29.6,7.2
	c-7.3,4.3-11.8,10.2-11.8,16.6c0,6.4,4.5,12.3,11.8,16.6c7.5,4.4,18,7.2,29.6,7.2c11.6,0,22-2.8,29.6-7.2
	c7.3-4.3,11.8-10.2,11.8-16.6C178.3,249.8,173.8,243.9,166.5,239.6L166.5,239.6z M138,222.8c-16,0-30.5,3.8-41.1,10.1
	c-10.8,6.4-17.5,15.2-17.5,25.1c0,9.9,6.7,18.8,17.5,25.1c10.5,6.2,25.1,10.1,41.1,10.1c16,0,30.5-3.8,41.1-10.1
	c10.8-6.4,17.5-15.2,17.5-25.1c0-9.9-6.7-18.8-17.5-25.1C168.6,226.6,154.1,222.8,138,222.8L138,222.8z M177.5,235.5
	c-10.1-5.9-24-9.6-39.5-9.6c-15.5,0-29.4,3.7-39.5,9.6c-9.8,5.8-15.9,13.7-15.9,22.4c0,8.7,6.1,16.6,15.9,22.4
	c10.1,5.9,24,9.6,39.5,9.6c15.5,0,29.4-3.7,39.5-9.6c9.8-5.8,15.9-13.7,15.9-22.4C193.5,249.3,187.4,241.3,177.5,235.5L177.5,235.5z
	 M139.1,216.2c-19.9,0-37.9,4.8-51,12.5c-13.3,7.9-21.6,18.8-21.6,31c0,12.2,8.2,23.1,21.6,31c13.1,7.7,31.1,12.5,51,12.5
	c19.9,0,37.9-4.8,51-12.5c13.3-7.9,21.6-18.8,21.6-31c0-12.2-8.2-23.1-21.6-31C177.1,221,159,216.2,139.1,216.2L139.1,216.2z
	 M188.6,231.4c-12.6-7.4-30.1-12.1-49.4-12.1c-19.3,0-36.8,4.6-49.4,12.1c-12.4,7.3-20,17.3-20,28.3c0,11,7.7,21,20,28.3
	c12.6,7.4,30.1,12.1,49.4,12.1c19.3,0,36.8-4.6,49.4-12.1c12.4-7.3,20-17.3,20-28.3C208.6,248.7,200.9,238.7,188.6,231.4
	L188.6,231.4z M140.2,209.7c-23.8,0-45.3,5.7-61,14.9C63.4,234,53.5,247,53.5,261.5c0,14.5,9.8,27.5,25.7,36.9
	c15.6,9.2,37.2,14.9,61,14.9c23.8,0,45.3-5.7,61-14.9c15.9-9.4,25.7-22.4,25.7-36.9c0-14.5-9.8-27.5-25.7-36.9
	C185.5,215.4,164,209.7,140.2,209.7L140.2,209.7z M199.6,227.3c-15.2-9-36.2-14.5-59.4-14.5c-23.2,0-44.2,5.5-59.4,14.5
	c-14.9,8.8-24.2,20.9-24.2,34.2c0,13.3,9.2,25.3,24.2,34.2c15.2,9,36.2,14.5,59.4,14.5c23.2,0,44.2-5.5,59.4-14.5
	c14.9-8.8,24.2-20.9,24.2-34.2C223.7,248.2,214.5,236.1,199.6,227.3L199.6,227.3z M210.6,223.3c-17.7-10.5-42.2-16.9-69.3-16.9
	c-27.1,0-51.6,6.5-69.3,16.9c-17.5,10.3-28.3,24.5-28.3,40c0,15.6,10.8,29.7,28.3,40c17.7,10.5,42.2,16.9,69.3,16.9
	c27.1,0,51.6-6.5,69.3-16.9c17.5-10.3,28.3-24.5,28.3-40C238.9,247.7,228.1,233.6,210.6,223.3z"/>
<path class="st10" d="M149.5,203.4c24.4,1.2,46.4,7.5,62.7,17.2c18.4,10.9,29.8,26,29.8,42.7c0,16.7-11.4,31.8-29.8,42.7
	c-18.2,10.7-43.2,17.4-70.9,17.4c-6.2,0-12.2-0.3-18.1-1c-1.4-1.2-2.7-2.4-4-3.6c7.1,1,14.5,1.5,22.1,1.5c27.1,0,51.6-6.5,69.3-16.9
	c17.5-10.3,28.3-24.5,28.3-40c0-15.6-10.8-29.7-28.3-40c-17.2-10.1-40.7-16.5-66.7-16.9C145.7,205.3,147.6,204.4,149.5,203.4
	L149.5,203.4z M138.1,209.7c-1.7,1.1-3.4,2.2-5.1,3.3c2.4-0.1,4.7-0.2,7.2-0.2c23.2,0,44.2,5.5,59.4,14.5
	c14.9,8.8,24.2,20.9,24.2,34.2c0,13.3-9.2,25.3-24.2,34.2c-15.2,9-36.2,14.5-59.4,14.5c-11.1,0-21.8-1.3-31.5-3.6
	c0.9,1.3,1.9,2.6,2.9,3.9c8.9,1.9,18.6,2.9,28.6,2.9c23.8,0,45.3-5.7,61-14.9c15.9-9.4,25.7-22.4,25.7-36.9
	c0-14.5-9.8-27.5-25.7-36.9c-15.6-9.2-37.2-14.9-61-14.9C139.5,209.7,138.8,209.7,138.1,209.7L138.1,209.7z M128,216.7
	c-1.5,1.2-3,2.4-4.5,3.7c5-0.7,10.3-1,15.6-1c19.3,0,36.8,4.6,49.4,12.1c12.4,7.3,20,17.3,20,28.3c0,11-7.7,21-20,28.3
	c-12.6,7.4-30.1,12.1-49.4,12.1c-13.8,0-26.7-2.4-37.6-6.4c0.6,1.3,1.2,2.7,1.8,4c10.6,3.6,22.8,5.6,35.8,5.6
	c19.9,0,37.9-4.8,51-12.5c13.3-7.9,21.6-18.8,21.6-31c0-12.2-8.2-23.1-21.6-31c-13.1-7.7-31.1-12.5-51-12.5
	C135.3,216.2,131.6,216.4,128,216.7L128,216.7z M118.8,224.7c-1.4,1.4-2.7,2.8-4,4.2c7.1-1.9,14.9-3,23.2-3
	c15.5,0,29.4,3.7,39.5,9.6c9.8,5.8,15.9,13.7,15.9,22.4c0,8.7-6.1,16.6-15.9,22.4c-10.1,5.9-24,9.6-39.5,9.6
	c-15.5,0-29.4-3.7-39.5-9.6c-0.3-0.2-0.6-0.4-0.9-0.5c0.2,1.4,0.5,2.7,0.8,4.1c10.4,5.7,24.3,9.2,39.6,9.2c16,0,30.5-3.8,41.1-10.1
	c10.8-6.4,17.5-15.2,17.5-25.1c0-9.9-6.7-18.8-17.5-25.1c-10.5-6.2-25.1-10.1-41.1-10.1C131.3,222.8,124.8,223.4,118.8,224.7
	L118.8,224.7z M110,234.7c-1.4,1.8-2.6,3.7-3.8,5.6c0.4-0.3,0.8-0.5,1.2-0.7c7.5-4.4,18-7.2,29.6-7.2c11.6,0,22,2.8,29.6,7.2
	c7.3,4.3,11.8,10.2,11.8,16.6c0,6.4-4.5,12.3-11.8,16.6c-7.5,4.4-18,7.2-29.6,7.2c-11.6,0-22-2.8-29.6-7.2c-4.4-2.6-7.8-5.8-9.8-9.3
	c-0.2,1.6-0.4,3.2-0.5,4.8c2.2,2.7,5.2,5.1,8.7,7.2c8,4.7,19,7.6,31.2,7.6c12.1,0,23.2-2.9,31.1-7.6c8.2-4.9,13.3-11.7,13.3-19.3
	c0-7.6-5.1-14.4-13.3-19.3c-8-4.7-19-7.6-31.1-7.6C126.8,229.3,117.5,231.3,110,234.7L110,234.7z M134.8,242.3
	c-4.4,0-8.4,1.1-11.3,2.8c-3.2,1.9-5.1,4.5-5.1,7.5c0,3,2,5.7,5.1,7.5c2.9,1.7,6.9,2.8,11.3,2.8c4.4,0,8.4-1.1,11.3-2.8
	c3.2-1.9,5.1-4.5,5.1-7.5c0-3-2-5.7-5.1-7.5C143.1,243.4,139.1,242.3,134.8,242.3L134.8,242.3z M144.5,247.8
	c-2.4-1.4-5.9-2.3-9.7-2.3c-3.8,0-7.2,0.9-9.7,2.3c-2.2,1.3-3.6,3-3.6,4.8c0,1.8,1.4,3.5,3.6,4.8c2.4,1.4,5.9,2.3,9.7,2.3
	c3.8,0,7.2-0.9,9.7-2.3c2.2-1.3,3.6-3,3.6-4.8C148,250.8,146.7,249.1,144.5,247.8L144.5,247.8z M135.9,235.8c-8.3,0-15.8,2-21.2,5.2
	c-5.7,3.4-9.2,8.1-9.2,13.4c0,5.3,3.5,10,9.2,13.4c5.5,3.2,13,5.2,21.2,5.2c16.8,0,30.4-8.3,30.4-18.6c0-5.3-3.5-10-9.2-13.4
	C151.6,237.8,144.1,235.8,135.9,235.8L135.9,235.8z M155.5,243.7c-5-2.9-11.9-4.8-19.6-4.8c-7.7,0-14.6,1.8-19.6,4.8
	c-4.7,2.8-7.7,6.6-7.7,10.7s2.9,7.9,7.7,10.7c5,2.9,11.9,4.8,19.6,4.8c15.1,0,27.3-6.9,27.3-15.5
	C163.2,250.3,160.2,246.5,155.5,243.7z"/>
<path class="st5" d="M33.5,288.4l46.2-10.5L35.1,295C34.5,292.5,34,290.4,33.5,288.4L33.5,288.4z M113,325.8l2.9-23.9l2.9,23.7
	C117.1,325.7,115.2,325.8,113,325.8L113,325.8z M246.1,288.1L202,272.8l46.9,9.6C247.9,284.2,247,286.1,246.1,288.1L246.1,288.1z
	 M220.6,216.4l-31.1,20.1l28.3-23.1C218.8,214.4,219.7,215.4,220.6,216.4L220.6,216.4z M138.8,200.2l-1.9,28.3l-3.1-28.5
	C135.3,200.1,137,200.2,138.8,200.2L138.8,200.2z M61.6,215.6l15.5,15.5l-21.8-12.7C57.4,217.5,59.5,216.6,61.6,215.6z"/>
<path class="st5" d="M9.6,336.2c9.2-15,28.3,7.7,32.7,17.7c9.2,22.3,10.7,65.9-6.8,84.5c-11.4,12.1-24.1,6.3-27.1-10.1
	c-2.9-15.7-4.9-78.2,0.6-90.8L9.6,336.2z"/>
<path class="st11" d="M213.2,173.7c-29,2.5-35.5-12.1-49.4-51.9c-2.2-14.2-19.9-29.1-33.8-20.3l-56.1,35.9
	c-7.5,4.8-9.9,14.6-5.5,22.4c12.4,21.9,41.6,75.5,45,120l11.6,7.6l42.8-24.8C185.5,241.2,200.6,211.5,213.2,173.7z"/>
<path class="st0" d="M72.1,155.8c7.1-4,18.5,2.8,25.3,15.1c6.8,12.3,6.5,25.5-0.6,29.4c-7.1,4-18.5-2.8-25.3-15.1
	C64.7,172.9,64.9,159.7,72.1,155.8z"/>
<path class="st12" d="M213.2,173.7c-29,2.5-35.5-12.1-49.4-51.9c-1.8-11.9-14.7-24.4-27-22.8c6.2,4.8,11.7,11.6,11.5,24
	c-0.6,27.5-3.2,37.3-23.6,55.8c-37.3,33.6,13.1,26.8,34.4,22.2c39.2-8.5,32.1,20.4,20.9,45C192.5,226.6,203.6,202.6,213.2,173.7z"/>
<path class="st13" d="M213.2,173.7c-5.8,0.5-10.7,0.3-14.9-0.6c-16.3,46.2-37.6,87.5-73.4,114.3l42.8-24.8
	C185.5,241.2,200.6,211.5,213.2,173.7z"/>
<path class="st14" d="M213.2,173.7c-5.8,0.5-10.7,0.3-14.9-0.6c-3.9,10.9-8,21.6-12.5,31.8c6.6,8.5,1.2,25.6-5.9,41.1
	C192.5,226.6,203.6,202.6,213.2,173.7z"/>
</svg>
