<svg xmlns="http://www.w3.org/2000/svg" xmlns:xlink="http://www.w3.org/1999/xlink" version="1.1" x="0px" y="0px" viewBox="0 0 512 640" style="enable-background:new 0 0 512 512;" xml:space="preserve"><g><g><g><path d="M181.846,451.495c-2.128,0-4.23-0.966-5.605-2.8l-60-80c-2.319-3.093-1.693-7.48,1.4-9.8     c3.093-2.32,7.479-1.694,9.8,1.399l60,80c2.319,3.093,1.693,7.48-1.4,9.8C184.782,451.039,183.308,451.495,181.846,451.495z"/></g><g><path d="M221.846,451.495c-2.128,0-4.23-0.966-5.605-2.8l-60-80c-2.319-3.093-1.693-7.48,1.4-9.8     c3.093-2.32,7.48-1.694,9.8,1.399l60,80c2.319,3.093,1.693,7.48-1.4,9.8C224.782,451.039,223.308,451.495,221.846,451.495z"/></g><g><path d="M261.846,451.495c-2.128,0-4.229-0.966-5.604-2.8l-60-80c-2.319-3.093-1.693-7.48,1.4-9.8     c3.092-2.32,7.48-1.694,9.8,1.399l60,80c2.32,3.093,1.693,7.48-1.399,9.8C264.781,451.039,263.308,451.495,261.846,451.495z"/></g><g><path d="M341.836,451.495c-1.462,0-2.936-0.455-4.195-1.4c-3.093-2.319-3.72-6.707-1.399-9.8l60-80     c2.319-3.093,6.706-3.721,9.8-1.399c3.093,2.319,3.72,6.707,1.399,9.8l-60,80C346.065,450.528,343.964,451.495,341.836,451.495z"/></g><g><path d="M301.836,451.495c-1.462,0-2.936-0.455-4.195-1.4c-3.093-2.319-3.72-6.707-1.399-9.8l60-80     c2.319-3.093,6.705-3.721,9.8-1.399c3.093,2.319,3.72,6.707,1.399,9.8l-60,80C306.065,450.528,303.964,451.495,301.836,451.495z"/></g><g><path d="M261.836,451.495c-1.462,0-2.936-0.455-4.195-1.4c-3.093-2.319-3.719-6.707-1.399-9.8l60-80     c2.319-3.093,6.706-3.721,9.8-1.399c3.093,2.319,3.72,6.707,1.399,9.8l-60,80C266.065,450.528,263.964,451.495,261.836,451.495z"/></g><g><path d="M448.706,264.418c-2.678,0-5.233-1.545-6.396-4.148c-6.305-14.12-29.707-31.904-59.621-45.308     c-36.554-16.379-79.678-25.399-121.426-25.399c-41.17,0-83.895,8.907-120.303,25.081c-29.674,13.182-53.372,30.789-60.372,44.855     c-1.722,3.462-5.924,4.873-9.386,3.148c-3.461-1.722-4.871-5.924-3.148-9.385c8.621-17.324,33.751-36.544,67.222-51.413     c38.159-16.951,82.902-26.287,125.987-26.287c98.237,0,179.102,46.012,193.83,78.999c1.576,3.53-0.008,7.669-3.538,9.246     C450.629,264.222,449.659,264.418,448.706,264.418z"/></g><path d="M159.164,102.613L159.164,102.613c5.495-0.549,10.396,3.46,10.945,8.956l0,0    c0.549,5.495-3.46,10.396-8.956,10.945l0,0c-5.495,0.549-10.395-3.46-10.945-8.956l0,0    C149.659,108.063,153.668,103.163,159.164,102.613z"/><path d="M409.165,52.611L409.165,52.611c5.495-0.549,10.395,3.46,10.945,8.956l0,0    c0.55,5.495-3.46,10.396-8.955,10.945l0,0c-5.496,0.549-10.397-3.46-10.945-8.956l0,0C399.66,58.062,403.67,53.161,409.165,52.611    z"/><path d="M49.165,152.613L49.165,152.613c5.495-0.549,10.396,3.46,10.945,8.956l0,0    c0.549,5.495-3.46,10.395-8.956,10.945l0,0c-5.495,0.549-10.396-3.46-10.945-8.956l0,0    C39.66,158.063,43.669,153.163,49.165,152.613z"/><path d="M339.163,92.613L339.163,92.613c5.496-0.549,10.397,3.46,10.945,8.956l0,0    c0.55,5.495-3.46,10.396-8.955,10.945l0,0c-5.495,0.549-10.396-3.46-10.945-8.956l0,0    C329.658,98.063,333.668,93.163,339.163,92.613z"/><g><path d="M440.253,326.438H71.746c-21.276,0-38.586-17.31-38.586-38.587c0-21.276,17.31-38.586,38.586-38.586     c9.901,0,19.256,3.769,26.322,10.37c7.065-6.602,16.421-10.37,26.322-10.37s19.256,3.769,26.322,10.37     c7.066-6.602,16.421-10.37,26.322-10.37s19.256,3.769,26.322,10.37c7.065-6.602,16.421-10.37,26.322-10.37     c9.9,0,19.256,3.769,26.322,10.37c7.065-6.602,16.421-10.37,26.322-10.37c9.9,0,19.256,3.769,26.321,10.37     c7.065-6.601,16.421-10.37,26.321-10.37s19.256,3.769,26.322,10.37c7.065-6.602,16.421-10.37,26.322-10.37     c9.9,0,19.256,3.769,26.321,10.37c7.065-6.601,16.422-10.37,26.322-10.37c21.276,0,38.586,17.31,38.586,38.586     C478.839,309.128,461.529,326.438,440.253,326.438z M71.746,263.265c-13.557,0-24.586,11.029-24.586,24.586     c0,13.558,11.029,24.587,24.586,24.587h368.507c13.557,0,24.586-11.029,24.586-24.587c0-13.557-11.029-24.586-24.586-24.586     c-8.253,0-15.914,4.113-20.492,11.003c-1.298,1.952-3.486,3.126-5.83,3.126c-2.345,0-4.533-1.174-5.83-3.126     c-4.578-6.89-12.238-11.003-20.491-11.003s-15.914,4.113-20.492,11.003c-1.297,1.952-3.485,3.126-5.83,3.126     c-2.344,0-4.532-1.173-5.83-3.125c-4.579-6.891-12.239-11.004-20.492-11.004s-15.913,4.113-20.491,11.003     c-1.298,1.952-3.486,3.126-5.83,3.126c-2.345,0-4.533-1.174-5.83-3.126c-4.578-6.89-12.238-11.003-20.491-11.003     s-15.914,4.113-20.492,11.003c-1.297,1.952-3.485,3.126-5.83,3.126c-2.344,0-4.532-1.173-5.83-3.125     c-4.579-6.891-12.239-11.004-20.492-11.004s-15.914,4.113-20.492,11.003c-1.297,1.952-3.486,3.126-5.83,3.126     s-4.533-1.174-5.83-3.126c-4.579-6.89-12.239-11.003-20.492-11.003s-15.914,4.113-20.492,11.003     c-1.297,1.952-3.486,3.126-5.83,3.126s-4.533-1.174-5.83-3.126c-4.579-6.89-12.239-11.003-20.492-11.003     s-15.914,4.113-20.492,11.003c-1.297,1.952-3.486,3.126-5.83,3.126s-4.533-1.174-5.83-3.126     C87.659,267.378,79.999,263.265,71.746,263.265z"/></g><g><path d="M436.841,169.563c-17.645,0-32-14.355-32-32s14.355-32,32-32s32,14.355,32,32S454.485,169.563,436.841,169.563z      M436.841,119.563c-9.925,0-18,8.075-18,18s8.075,18,18,18s18-8.075,18-18S446.766,119.563,436.841,119.563z"/></g><g><path d="M93.478,109.563c-17.645,0-32-14.355-32-32s14.355-32,32-32s32,14.355,32,32S111.123,109.563,93.478,109.563z      M93.478,59.563c-9.925,0-18,8.075-18,18s8.075,18,18,18s18-8.075,18-18S103.403,59.563,93.478,59.563z"/></g><g><path d="M353.292,486.438H170.39c-32.117,0-60.132-20.596-69.711-51.251L65.16,321.525c-0.665-2.125-0.278-4.44,1.042-6.234     c1.319-1.794,3.413-2.854,5.64-2.854h380c2.227,0,4.32,1.06,5.64,2.854s1.706,4.109,1.042,6.234l-35.52,113.661     C413.424,465.841,385.409,486.438,353.292,486.438z M81.362,326.438l32.679,104.573c7.744,24.778,30.389,41.427,56.349,41.427     h182.902c25.961,0,48.605-16.648,56.348-41.427l32.68-104.573H81.362z"/></g><g><path d="M210.158,119.563c-1.75,0-3.501-0.652-4.86-1.963c-2.782-2.685-2.861-7.116-0.176-9.898     c3.45-3.595,13.249-15.808,12.941-24.395c-0.083-2.292-0.882-4.003-2.593-5.548c-7.246-6.539-11.082-14.165-11.401-22.667     c-0.564-15.027,10.551-26.863,11.024-27.36c2.667-2.799,7.099-2.903,9.897-0.236c2.792,2.662,2.903,7.078,0.254,9.877     c-0.171,0.185-7.562,8.25-7.182,17.265c0.195,4.619,2.415,8.782,6.787,12.728c4.505,4.065,6.997,9.416,7.206,15.472     c0.555,16.06-15.075,32.737-16.859,34.586C213.823,118.847,211.992,119.563,210.158,119.563z"/></g><g><path d="M260.158,139.563c-1.75,0-3.501-0.652-4.86-1.963c-2.782-2.685-2.861-7.116-0.176-9.898     c3.45-3.595,13.249-15.808,12.941-24.395c-0.083-2.292-0.883-4.003-2.594-5.548c-7.246-6.539-11.082-14.165-11.401-22.667     c-0.564-15.027,10.55-26.863,11.024-27.36c2.669-2.797,7.1-2.902,9.896-0.236c2.792,2.662,2.903,7.078,0.255,9.877     c-0.172,0.185-7.562,8.25-7.182,17.265c0.194,4.619,2.414,8.782,6.786,12.728c4.505,4.065,6.997,9.416,7.206,15.472     c0.556,16.06-15.074,32.737-16.858,34.586C263.823,138.847,261.991,139.563,260.158,139.563z"/></g><g><path d="M220.159,229.563c-1.792,0-3.583-0.684-4.95-2.05c-2.734-2.733-2.734-7.166,0-9.899l10-10     c2.733-2.733,7.166-2.733,9.899,0c2.734,2.733,2.734,7.166,0,9.899l-10,10C223.742,228.879,221.951,229.563,220.159,229.563z"/></g><g><path d="M260.159,229.563c-1.791,0-3.583-0.684-4.95-2.05c-2.734-2.733-2.734-7.166,0-9.899l10-10c2.734-2.733,7.166-2.733,9.9,0     c2.733,2.733,2.733,7.166,0,9.899l-10,10C263.742,228.879,261.95,229.563,260.159,229.563z"/></g><g><path d="M300.159,229.563c-1.791,0-3.583-0.684-4.95-2.05c-2.733-2.733-2.733-7.166,0-9.899l10-10c2.734-2.733,7.166-2.733,9.9,0     c2.733,2.733,2.733,7.166,0,9.899l-10,10C303.742,228.879,301.95,229.563,300.159,229.563z"/></g></g></g><text x="0" y="527" fill="#000000" font-size="5px" font-weight="bold" font-family="'Helvetica Neue', Helvetica, Arial-Unicode, Arial, Sans-serif">Created by Flatart</text><text x="0" y="532" fill="#000000" font-size="5px" font-weight="bold" font-family="'Helvetica Neue', Helvetica, Arial-Unicode, Arial, Sans-serif">from the Noun Project</text></svg>