<svg xmlns="http://www.w3.org/2000/svg" xmlns:xlink="http://www.w3.org/1999/xlink" xmlns:sketch="http://www.bohemiancoding.com/sketch/ns" viewBox="0 0 60 71.25" version="1.1" x="0px" y="0px"><title>45 - Beer Keg (Solid)</title><desc>Created with Sketch.</desc><g stroke="none" stroke-width="1" fill="none" fill-rule="evenodd" sketch:type="MSPage"><g sketch:type="MSLayerGroup" fill="#000000"><path d="M30.052,7.316 C30.187,7.725 30.569,8 31,8 L35,8 C35.431,8 35.812,7.725 35.948,7.316 L37.948,1.316 C38.051,1.012 37.999,0.676 37.812,0.415 C37.623,0.154 37.321,0 37,0 L29,0 C28.679,0 28.377,0.154 28.189,0.415 C28.001,0.676 27.949,1.012 28.052,1.316 L30.052,7.316" sketch:type="MSShapeGroup"/><path d="M56.741,52.318 L53.318,45.747 C53.824,45.537 54.33,45.326 54.812,45.097 L55.43,44.803 C55.532,44.754 55.626,44.687 55.707,44.606 C57.433,42.881 60,36.741 60,26.899 C60,17.683 57.774,11.26 55.707,9.192 C55.626,9.111 55.532,9.045 55.43,8.996 L54.812,8.703 C53.558,8.106 52.225,7.566 50.834,7.077 L50.962,7.628 C52.255,12.517 53,19.552 53,26.899 C53,33.856 52.325,40.51 51.151,45.376 C50.453,45.632 49.69,45.884 48.862,46.138 L49.044,45.615 C50.279,40.928 51,34.08 51,26.899 C51,19.717 50.279,12.868 49.021,8.11 L48.615,6.362 C47.884,6.145 47.138,5.945 46.379,5.758 L46.566,6.255 C48.12,11.276 49,18.779 49,26.899 C49,34.745 48.177,42.008 46.737,46.967 C46.543,46.884 46.325,46.856 46.108,46.909 C45.57,47.041 45.011,47.162 44.445,47.28 L44.704,46.802 C46.164,42.021 47,34.776 47,26.899 C47,18.972 46.152,11.684 44.676,6.903 L44.046,5.238 C42.418,4.911 40.733,4.653 39.011,4.453 L37.846,7.949 C37.438,9.175 36.294,10 35,10 L30,10 C29.025,9.753 28.482,8.934 28.154,7.947 L26.9,4.187 C25.58,4.282 24.273,4.415 22.987,4.583 L23.255,5.306 C24.976,10.166 26,18.233 26,26.899 C26,35.261 25.044,43.059 23.434,47.953 C22.971,47.89 22.509,47.83 22.039,47.756 C21.778,47.714 21.524,47.783 21.317,47.928 L21.407,47.731 C23.019,43.165 24,35.348 24,26.899 C24,18.448 23.019,10.631 21.375,5.987 L20.962,4.873 C20.356,4.973 19.761,5.088 19.167,5.205 L19.474,5.971 C21.088,10.996 22,18.6 22,26.899 C22,35.036 21.121,42.502 19.586,47.467 C19.456,47.348 19.304,47.254 19.126,47.216 C18.647,47.114 18.161,46.997 17.676,46.879 C19.133,42.16 20,34.729 20,26.899 C20,18.918 19.1,11.348 17.593,6.648 L17.187,5.637 C13.916,6.408 10.865,7.428 8.19,8.701 C8.072,8.758 7.965,8.835 7.86,8.914 C4.009,9.189 3.212,20.58 3.058,24.098 C1.312,24.486 0,26.042 0,27.904 L0,33 C0,33.553 0.447,34 1,34 L3.363,34 C3.826,38.366 4.992,44.653 7.847,44.877 C7.955,44.959 8.066,45.038 8.188,45.097 C9.987,45.953 11.954,46.685 14.028,47.313 L11.221,52.229 C11.185,52.291 11.157,52.357 11.135,52.427 C10.856,53.319 11.014,54.264 11.568,55.018 C12.122,55.772 12.976,56.203 13.911,56.203 C15.152,56.203 16.24,55.432 16.652,54.272 L19.769,48.722 C20.136,48.786 20.5,48.852 20.868,48.914 L20.898,48.846 C20.913,48.986 20.947,49.124 21.021,49.25 L23.982,54.281 C24.397,55.437 25.481,56.203 26.718,56.203 C27.654,56.203 28.507,55.772 29.062,55.018 C29.616,54.264 29.774,53.319 29.495,52.427 C29.463,52.324 29.414,52.228 29.352,52.14 L27.573,49.671 C28.87,49.751 30.178,49.799 31.5,49.799 C34.609,49.799 37.664,49.577 40.602,49.159 L38.569,52.228 C38.517,52.307 38.476,52.393 38.449,52.482 C38.169,53.375 38.328,54.32 38.881,55.073 C39.436,55.827 40.289,56.259 41.225,56.259 C42.468,56.259 43.556,55.484 43.967,54.32 L47.225,48.359 C47.324,48.178 47.359,47.975 47.338,47.777 C47.495,47.734 47.654,47.693 47.809,47.649 C47.816,47.664 47.814,47.681 47.822,47.695 L51.286,54.312 C51.696,55.481 52.786,56.259 54.032,56.259 C54.967,56.259 55.822,55.826 56.376,55.072 C56.93,54.318 57.087,53.374 56.808,52.482 C56.79,52.426 56.768,52.371 56.741,52.318 L56.741,52.318 Z M5.367,33.931 C5.372,33.929 5.375,33.925 5.38,33.923 C5.398,33.916 5.411,33.903 5.429,33.895 C5.517,33.852 5.597,33.799 5.669,33.733 C5.696,33.708 5.719,33.681 5.744,33.653 C5.799,33.59 5.844,33.523 5.882,33.448 C5.898,33.416 5.916,33.387 5.929,33.352 C5.971,33.242 6,33.125 6,33 L6,30.632 C6,30.283 6.283,30 6.632,30 L8,30 C8.553,30 9,29.553 9,29 L9,25 C9,24.447 8.553,24 8,24 L5.06,24 C5.416,15.228 7.244,11.13 7.97,10.912 C7.978,10.914 7.986,10.919 7.994,10.921 C8.315,10.994 8.722,11.586 9.131,12.651 C10.053,15.091 11,19.999 11,26.899 C11,33.874 10.033,38.806 9.102,41.219 C8.703,42.236 8.308,42.806 7.994,42.878 C7.987,42.88 7.98,42.884 7.973,42.886 C7.469,42.707 6.066,40.363 5.367,33.931 L5.367,33.931 Z M31,36 L35,36 C35.553,36 36,36.447 36,37 C36,37.553 35.553,38 35,38 L31,38 C30.447,38 30,37.553 30,37 C30,36.447 30.447,36 31,36 L31,36 Z M30,18.899 C30,18.347 30.447,17.899 31,17.899 L35,17.899 C35.553,17.899 36,18.347 36,18.899 C36,19.452 35.553,19.899 35,19.899 L31,19.899 C30.447,19.899 30,19.452 30,18.899 L30,18.899 Z M37,38 L41,38 C41.553,38 42,38.447 42,39 C42,39.553 41.553,40 41,40 L37,40 C36.447,40 36,39.553 36,39 C36,38.447 36.447,38 37,38 L37,38 Z M38,9.899 L43,9.899 C43.553,9.899 44,10.347 44,10.899 C44,11.452 43.553,11.899 43,11.899 L38,11.899 C37.447,11.899 37,11.452 37,10.899 C37,10.347 37.447,9.899 38,9.899 L38,9.899 Z M34,13.899 L43,13.899 C43.553,13.899 44,14.347 44,14.899 C44,15.452 43.553,15.899 43,15.899 L34,15.899 C33.447,15.899 33,15.452 33,14.899 C33,14.347 33.447,13.899 34,13.899 L34,13.899 Z M28,13.899 L30,13.899 C30.553,13.899 31,14.347 31,14.899 C31,15.452 30.553,15.899 30,15.899 L28,15.899 C27.447,15.899 27,15.452 27,14.899 C27,14.347 27.447,13.899 28,13.899 L28,13.899 Z M28,41 C28,40.447 28.447,40 29,40 L35,40 C35.553,40 36,40.447 36,41 C36,41.553 35.553,42 35,42 L29,42 C28.447,42 28,41.553 28,41 L28,41 Z M37,45 L32,45 C31.447,45 31,44.553 31,44 C31,43.447 31.447,43 32,43 L37,43 C37.553,43 38,43.447 38,44 C38,44.553 37.553,45 37,45 L37,45 Z M39,42 C39,41.447 39.447,41 40,41 L41,41 C41.553,41 42,41.447 42,42 C42,42.553 41.553,43 41,43 L40,43 C39.447,43 39,42.553 39,42 L39,42 Z" sketch:type="MSShapeGroup"/></g></g><text x="0" y="72" fill="#000000" font-size="5px" font-weight="bold" font-family="'Helvetica Neue', Helvetica, Arial-Unicode, Arial, Sans-serif">Created by Ben Davis</text><text x="0" y="77" fill="#000000" font-size="5px" font-weight="bold" font-family="'Helvetica Neue', Helvetica, Arial-Unicode, Arial, Sans-serif">from the Noun Project</text></svg>