<svg xmlns="http://www.w3.org/2000/svg" viewBox="0 0 64 80" x="0px" y="0px"><path d="M3,59H61a.99974.99974,0,0,0,1-1V54a.99974.99974,0,0,0-1-1H3a.99974.99974,0,0,0-1,1v4A.99974.99974,0,0,0,3,59Zm1-4H60v2H4Z"/><path d="M25.293,38.707a.99963.99963,0,0,0,1.41406,0L29,36.41406V38a1.00012,1.00012,0,0,0,.293.707L33.58594,43H31a1,1,0,0,0,0,2h4.58594l2,2H33a1,1,0,0,0,0,2h6.58594l1.707,1.707A.99928.99928,0,0,0,42,51H52a.99991.99991,0,0,0,.707-1.707l-17-17A.99928.99928,0,0,0,35,32H33.41406l2.293-2.293a.99962.99962,0,0,0,0-1.41406l-23-23a.99962.99962,0,0,0-1.41406,0l-9,9a.99962.99962,0,0,0,0,1.41406ZM34.58594,34l15,15H42.41406L31,37.58594V34.41406L31.41406,34Zm-1-5L26,36.58594,24.41406,35,32,27.41406ZM12,7.41406,30.58594,26,23,33.58594,4.41406,15Z"/><path d="M53.79688,30.05762a1.00145,1.00145,0,0,0-1.41407-.01612,4.42517,4.42517,0,0,0,0,6.3501,5.53137,5.53137,0,0,0,7.68848-.00049,6.351,6.351,0,0,0,0-9.1167,8.07774,8.07774,0,0,0-11.22656.00049,9.3595,9.3595,0,0,0,0,13.43994.99995.99995,0,1,0,1.39843-1.42968,7.35933,7.35933,0,0,1,0-10.58008,6.06477,6.06477,0,0,1,8.42969-.00049,4.35023,4.35023,0,0,1,0,6.25635,3.51745,3.51745,0,0,1-4.8916,0,2.42325,2.42325,0,0,1,0-3.48877A1.00029,1.00029,0,0,0,53.79688,30.05762Z"/><path d="M27,49h2a1,1,0,0,0,0-2H27a1,1,0,0,0,0,2Z"/><path d="M28,44a.99974.99974,0,0,0-1-1H25a1,1,0,0,0,0,2h2A.99974.99974,0,0,0,28,44Z"/><path d="M15,15a3,3,0,1,0-3,3A3.00328,3.00328,0,0,0,15,15Zm-3,1a1,1,0,1,1,1-1A1.001,1.001,0,0,1,12,16Z"/><path d="M23,30a1,1,0,0,0,.707-1.707l-8-8A.99989.99989,0,0,0,14.293,21.707l8,8A.99676.99676,0,0,0,23,30Z"/><text x="0" y="79" fill="#000000" font-size="5px" font-weight="bold" font-family="'Helvetica Neue', Helvetica, Arial-Unicode, Arial, Sans-serif">Created by Smalllike</text><text x="0" y="84" fill="#000000" font-size="5px" font-weight="bold" font-family="'Helvetica Neue', Helvetica, Arial-Unicode, Arial, Sans-serif">from the Noun Project</text></svg>