<svg xmlns="http://www.w3.org/2000/svg" xmlns:xlink="http://www.w3.org/1999/xlink" version="1.1" x="0px" y="0px" viewBox="0 0 512 640" enable-background="new 0 0 512 512" xml:space="preserve"><g><path d="M461.266,372.138c-23.688-23.65-132.707-132.068-159.682-159.031l-0.745-0.749c-2.915-2.942-8.003-8.069-14.934-10.925   c2.069-2.073,4.136-4.146,6.214-6.224c2.801-2.801,2.941-7.298,0.319-10.267c-0.293-0.332-0.543-0.626-0.77-0.892   c-0.507-0.595-1.032-1.21-1.628-1.797l-16.546-16.547c-33.645-33.645-67.286-67.288-100.98-100.939   c-1.663-1.647-3.299-2.93-4.947-3.889c-3.923-2.33-7.34-2.088-9.514-1.473c-2.184,0.616-5.235,2.204-7.402,6.323   c-1.023,1.982-2.254,5.052-2.312,8.362c-0.157,6.308-0.087,12.647-0.021,18.778l0.009,0.808c0.049,4.109-1.1,7.201-3.608,9.721   c-18.877,18.907-37.764,37.794-56.666,56.666c-2.41,2.409-5.079,3.424-8.683,3.307l-1.046-0.034   c-6.241-0.206-12.697-0.418-19.203,0.181c-4.612,0.417-10.812,3.104-13.544,8.048c-4.09,7.472,4.401,16.188,4.473,16.262   c15.069,15.312,30.868,31.074,46.962,46.852c10.907,10.667,22.061,18.629,34.101,24.345c7.074,3.354,14.708,6.351,23.097,6.351   c1.651,0,3.332-0.116,5.043-0.368c1.216-0.18,2.448-0.364,3.679-0.548c-7.556,11.165-16.318,24.289-17.65,27.049   c-0.581,1.204-0.83,2.542-0.72,3.875c0.454,5.521,1.604,10.905,2.717,16.112c0.429,2.01,0.864,4.042,1.264,6.108   c0.423,2.187,1.796,4.073,3.748,5.146c1.952,1.074,4.28,1.225,6.353,0.411l3.695-1.449c2.571-1.008,5.068-1.988,7.552-2.961   c0.791,3.938,1.574,7.825,2.383,11.833c0.439,2.172,1.815,4.039,3.761,5.1c1.944,1.061,4.259,1.207,6.324,0.4l11.239-4.399   c0.547,2.657,1.091,5.301,1.641,7.974l0.801,3.892c0.446,2.167,1.827,4.028,3.773,5.083c1.946,1.055,4.259,1.195,6.317,0.386   c3.848-1.513,7.523-2.955,11.188-4.391l0.036,0.177c0.788,3.866,1.568,7.689,2.371,11.645c0.44,2.171,1.817,4.036,3.763,5.095   c1.944,1.059,4.258,1.206,6.321,0.397l11.211-4.392l2.393,11.861c0.439,2.176,1.819,4.045,3.768,5.105   c1.951,1.061,4.271,1.204,6.333,0.39c3.843-1.515,7.522-2.963,11.211-4.414l2.409,11.847c0.441,2.176,1.825,4.045,3.777,5.103   c1.953,1.058,4.273,1.196,6.337,0.378c3.825-1.517,7.499-2.967,11.193-4.425c0.131,0.64,0.261,1.278,0.392,1.916   c0.677,3.308,1.35,6.602,2.045,9.979c0.446,2.167,1.826,4.027,3.771,5.082c1.946,1.055,4.257,1.197,6.316,0.388   c3.91-1.536,7.56-2.975,11.168-4.4c0.344,1.691,0.686,3.372,1.028,5.053l1.383,6.794c0.443,2.173,1.825,4.039,3.774,5.096   c1.949,1.056,4.265,1.197,6.33,0.383l8.709-3.444c0.826-0.327,1.65-0.653,2.478-0.98c0.001,0.004,0.002,0.009,0.003,0.014   c0.799,3.921,1.59,7.802,2.421,11.83c0.446,2.162,1.822,4.018,3.761,5.073c1.939,1.055,4.244,1.202,6.302,0.402   c3.823-1.487,7.534-2.924,11.237-4.357c0.811,3.945,1.603,7.809,2.417,11.791c0.442,2.162,1.814,4.019,3.75,5.077   c1.936,1.058,4.24,1.21,6.298,0.416c3.916-1.511,7.603-2.939,11.237-4.349c0.82,4.01,1.619,7.903,2.436,11.873   c0.447,2.176,1.837,4.042,3.794,5.095c1.105,0.594,2.327,0.895,3.552,0.895c0.945,0,1.893-0.179,2.79-0.539   c3.701-1.483,16.313-5.666,20.861-7.152c1.2-0.393,2.281-1.081,3.144-2.002c3.998-4.269,7.422-7.854,10.733-11.322   c9.855-10.32,17.651-18.483,30.858-34.625c2.702-2.741,6.103-6.944,6.105-12.546C467.539,379.067,463.958,374.826,461.266,372.138z    M157.062,250.165c-6.087,0.899-12.207-1.229-19.52-4.695c-10.513-4.991-20.34-12.029-30.036-21.511   c-15.655-15.346-31.032-30.681-45.738-45.611c5.178-0.381,10.477-0.205,16.061-0.021l1.042,0.034   c7.769,0.267,14.42-2.325,19.783-7.688c18.903-18.873,37.796-37.766,56.688-56.688c5.395-5.421,8.081-12.315,7.983-20.482   l-0.009-0.801c-0.057-5.232-0.116-10.62-0.03-15.952c33.218,33.177,66.407,66.368,99.6,99.561l13.461,13.461   c-1.354,1.356-2.706,2.711-4.057,4.065c-3.045,3.053-6.083,6.098-9.125,9.14c-0.02,0.02-0.041,0.041-0.061,0.061   c-0.037,0.037-0.074,0.072-0.11,0.11c-11.138,11.166-23.079,23.102-34.999,34.799c-0.325,0.318-1.736,1.097-4.045,1.481   c-14.044,2.364-30.362,5.095-46.29,7.597C170.679,248.121,163.747,249.177,157.062,250.165z M450.562,387.032   c-0.18,0.18-0.352,0.369-0.513,0.566c-12.981,15.882-20.635,23.896-30.324,34.042c-2.969,3.109-6.027,6.312-9.518,10.026   c-2.519,0.83-7.208,2.383-11.552,3.873c-0.801-3.908-1.612-7.876-2.47-12.09c-0.441-2.166-1.814-4.027-3.754-5.086   s-4.249-1.209-6.309-0.409l-1.062,0.413c-3.398,1.319-6.739,2.616-10.166,3.944c-0.789-3.845-1.586-7.717-2.433-11.805   c-0.447-2.16-1.821-4.013-3.758-5.067c-1.937-1.054-4.24-1.203-6.295-0.406l-6.378,2.469c-1.619,0.626-3.235,1.252-4.858,1.88   c-0.211-1.035-0.422-2.069-0.633-3.106c-0.587-2.883-1.179-5.788-1.794-8.787c-0.445-2.17-1.827-4.033-3.775-5.088   c-1.947-1.055-4.262-1.196-6.323-0.382c-3.692,1.456-7.247,2.863-10.807,4.271l-0.378,0.149c-0.792-3.89-1.588-7.801-2.417-11.848   c-0.445-2.172-1.827-4.035-3.776-5.091c-1.949-1.055-4.266-1.194-6.327-0.38l-2.979,1.177c-2.733,1.08-5.428,2.145-8.18,3.23   c-0.083-0.408-0.167-0.816-0.25-1.225c-0.717-3.506-1.438-7.028-2.189-10.68c-0.447-2.17-1.83-4.032-3.779-5.085   c-1.949-1.054-4.265-1.191-6.325-0.377l-7.772,3.07c-1.139,0.45-2.275,0.898-3.414,1.348l-2.407-11.828   c-0.441-2.171-1.82-4.035-3.766-5.094c-1.947-1.059-4.26-1.203-6.322-0.394c-3.82,1.499-7.498,2.943-11.21,4.404l-2.39-11.845   c-0.438-2.172-1.815-4.04-3.761-5.101c-1.946-1.061-4.261-1.208-6.325-0.399l-11.226,4.397c-0.198-0.971-0.396-1.942-0.594-2.915   l-1.816-8.913c-0.441-2.171-1.82-4.036-3.766-5.094c-1.946-1.059-4.26-1.201-6.323-0.394l-6.617,2.595   c-1.53,0.6-3.057,1.198-4.593,1.8c-0.806-3.917-1.611-7.825-2.446-11.863c-0.448-2.164-1.828-4.021-3.771-5.074   c-1.944-1.054-4.253-1.195-6.31-0.39l-11.197,4.383c-0.781-3.88-1.56-7.767-2.373-11.823c-0.436-2.174-1.811-4.044-3.755-5.108   c-1.946-1.064-4.262-1.212-6.327-0.406c-3.823,1.493-7.53,2.945-11.322,4.432c-0.689-3.277-1.311-6.44-1.691-9.535   c3.297-5.307,13.563-20.604,23.448-35.079c14.97-2.372,30.101-4.904,43.233-7.114c2.875-0.478,8.267-1.835,12.073-5.565   c11.586-11.37,23.167-22.939,34.017-33.814c7.007-1.908,12.171,2.522,17.668,8.071l0.8,0.804   c26.983,26.973,136.006,135.394,159.684,159.034c1.043,1.042,1.528,1.715,1.745,2.075   C452.19,385.203,451.682,385.917,450.562,387.032z M407.085,364.575h-0.029c-12.744,0-22.875,9.96-23.068,22.689   c-0.093,6.282,2.227,12.175,6.533,16.595c4.288,4.402,10.084,6.865,16.321,6.936c0.102,0.001,0.204,0.002,0.305,0.002   c12.666,0,22.771-9.783,23.069-22.424c0.135-6.451-2.19-12.458-6.545-16.916C419.348,367.033,413.46,364.589,407.085,364.575z    M407.135,395.796c-0.042,0-0.081,0.001-0.124-0.001c-2.221-0.025-4.262-0.879-5.747-2.403c-1.503-1.543-2.312-3.641-2.279-5.903   c0.067-4.439,3.612-7.914,8.064-7.914h0.01c2.308,0.005,4.396,0.845,5.882,2.365c1.518,1.554,2.327,3.727,2.277,6.099   C415.116,392.41,411.575,395.796,407.135,395.796z M200.447,206.56c-0.075,4.861,1.724,9.426,5.065,12.854   c3.327,3.414,7.818,5.321,12.646,5.371c0.073,0.001,0.146,0.001,0.219,0.001c9.819,0,17.652-7.591,17.877-17.39   c0.107-4.979-1.695-9.626-5.073-13.084c-3.355-3.433-7.912-5.329-12.833-5.337h-0.032   C208.432,188.975,200.585,196.698,200.447,206.56z M218.317,203.975h0.006c0.87,0.001,1.606,0.285,2.129,0.82   c0.547,0.56,0.825,1.348,0.806,2.268c-0.036,1.559-1.275,2.723-2.89,2.723c-0.019,0-0.039,0-0.055,0   c-1.035-0.011-1.691-0.463-2.059-0.841c-0.378-0.388-0.826-1.077-0.809-2.164C215.468,205.18,216.702,203.975,218.317,203.975z    M209.762,142.408c-7.012-7.377-13.671-14.03-20.361-20.34c-8.379-7.9-20.735-7.922-28.738-0.056   c-16.829,16.513-34.442,34.103-52.356,52.287c-7.73,7.865-7.911,19.714-0.422,28.184c6.92,7.801,15.729,11.806,26.181,11.903   c0.023,0,0.046,0,0.07,0c0.192,0,0.384-0.007,0.576-0.022c0.225-0.018,0.479-0.029,0.753-0.042   c1.057-0.052,2.505-0.124,4.092-0.417l1.304-0.243c2.58-0.477,5.249-0.97,8.008-1.896c21.242-7.149,40.64-20.142,61.043-40.888   C217.589,163.074,217.522,150.569,209.762,142.408z M199.219,160.356c-18.691,19.004-36.21,30.822-55.13,37.189   c-1.749,0.587-3.792,0.965-5.955,1.364l-1.342,0.25c-0.565,0.104-1.364,0.144-2.069,0.179c-0.277,0.014-0.541,0.027-0.789,0.042   c-6.071-0.118-10.789-2.3-14.82-6.845c-1.097-1.24-3.303-4.475-0.116-7.718c17.849-18.117,35.401-35.646,52.174-52.105   c1.19-1.169,2.451-1.636,3.664-1.636c1.603,0,3.121,0.816,4.273,1.902c6.488,6.12,12.958,12.584,19.781,19.763   C201.046,155.009,201.19,158.353,199.219,160.356z"/></g><text x="0" y="527" fill="#000000" font-size="5px" font-weight="bold" font-family="'Helvetica Neue', Helvetica, Arial-Unicode, Arial, Sans-serif">Created by Chunk Icons</text><text x="0" y="532" fill="#000000" font-size="5px" font-weight="bold" font-family="'Helvetica Neue', Helvetica, Arial-Unicode, Arial, Sans-serif">from the Noun Project</text></svg>