<svg xmlns="http://www.w3.org/2000/svg" xmlns:xlink="http://www.w3.org/1999/xlink" version="1.1" x="0px" y="0px" viewBox="0 0 64 80" style="enable-background:new 0 0 64 64;" xml:space="preserve"><g><path d="M32,27c1.654,0,3-1.346,3-3s-1.346-3-3-3s-3,1.346-3,3S30.346,27,32,27z M32,23c0.551,0,1,0.449,1,1s-0.449,1-1,1   s-1-0.449-1-1S31.449,23,32,23z"/><polygon points="37,35 33,35 33,31 35,31 35,29 29,29 29,31 31,31 31,35 27,35 27,37 31,37 31,49 33,49 33,37 37,37  "/><path d="M8,53c-1.654,0-3,1.346-3,3s1.346,3,3,3s3-1.346,3-3S9.654,53,8,53z M8,57c-0.551,0-1-0.449-1-1s0.449-1,1-1s1,0.449,1,1   S8.551,57,8,57z"/><path d="M56,53c-1.654,0-3,1.346-3,3s1.346,3,3,3s3-1.346,3-3S57.654,53,56,53z M56,57c-0.551,0-1-0.449-1-1s0.449-1,1-1   s1,0.449,1,1S56.551,57,56,57z"/><path d="M56,49c-0.695,0-1.366,0.105-2,0.295V28.816c1.161-0.414,2-1.514,2-2.816c0-0.352-0.072-0.686-0.184-1H58   c1.103,0,2-0.897,2-2v-2c0-1.103-0.897-2-2-2H38.256c-0.421-1.188-1.536-2-2.818-2h-6.877c-1.282,0-2.397,0.812-2.818,2h-6.276   C20.45,17.532,21,15.799,21,14V8.628c0-1.263-0.371-2.487-1.071-3.538c-0.838-1.258-2.101-2.18-3.555-2.595l-4.61-1.317   C11.351,1.06,10.922,1,10.492,1H9.834C7.706,1,5.859,2.442,5.342,4.507C5.196,5.091,4.851,5.612,4.369,5.974L2.396,7.453   C1.522,8.108,1,9.153,1,10.246c0,0.692,0.203,1.361,0.586,1.937l0.972,1.458C2.847,14.073,3,14.578,3,15.099v2.657   C3,18.179,3.073,18.595,3.186,19H3c-1.103,0-2,0.897-2,2v3c0,2.757,2.243,5,5,5h10c2.415,0,4.435-1.721,4.899-4h3.32l-7,28h-2.904   c-1.126-2.361-3.53-4-6.315-4c-3.86,0-7,3.14-7,7s3.14,7,7,7c2.785,0,5.189-1.639,6.315-4h35.37c1.126,2.361,3.53,4,6.315,4   c3.86,0,7-3.14,7-7S59.86,49,56,49z M49.685,53h-2.904l-7-28h10.403C50.072,25.314,50,25.648,50,26c0,1.302,0.839,2.402,2,2.816   v21.448C51.009,50.957,50.21,51.9,49.685,53z M54,26c0,0.551-0.449,1-1,1s-1-0.449-1-1s0.449-1,1-1S54,25.449,54,26z M58,23H39.281   l-0.5-2H58V23z M5,17.756v-2.657c0-0.918-0.269-1.806-0.778-2.568L3.25,11.073C3.086,10.827,3,10.541,3,10.246   c0-0.467,0.223-0.913,0.597-1.193l1.972-1.479C6.417,6.937,7.026,6.02,7.283,4.992C7.576,3.819,8.625,3,9.834,3h0.657   c0.245,0,0.488,0.034,0.722,0.101l4.61,1.317c0.998,0.285,1.865,0.918,2.44,1.781C18.746,6.921,19,7.761,19,8.628V14   c0,1.888-0.772,3.686-2.116,5H5.315C5.111,18.619,5,18.191,5,17.756z M19,23v1c0,1.654-1.346,3-3,3H6c-1.654,0-3-1.346-3-3v-3   h22.219l-0.5,2H19z M27.591,19.758c0.111-0.446,0.51-0.758,0.97-0.758h6.877c0.46,0,0.859,0.312,0.97,0.758L44.719,53H19.281   L27.591,19.758z M8,61c-2.757,0-5-2.243-5-5s2.243-5,5-5s5,2.243,5,5S10.757,61,8,61z M14.92,57c0.047-0.328,0.08-0.66,0.08-1   s-0.033-0.672-0.08-1h34.16C49.033,55.328,49,55.66,49,56s0.033,0.672,0.08,1H14.92z M56,61c-2.757,0-5-2.243-5-5s2.243-5,5-5   s5,2.243,5,5S58.757,61,56,61z"/><rect x="15" y="7" width="2" height="4"/><rect x="15" y="13" width="2" height="2"/></g><text x="0" y="79" fill="#000000" font-size="5px" font-weight="bold" font-family="'Helvetica Neue', Helvetica, Arial-Unicode, Arial, Sans-serif">Created by Eucalyp</text><text x="0" y="84" fill="#000000" font-size="5px" font-weight="bold" font-family="'Helvetica Neue', Helvetica, Arial-Unicode, Arial, Sans-serif">from the Noun Project</text></svg>