<svg xmlns="http://www.w3.org/2000/svg" xmlns:xlink="http://www.w3.org/1999/xlink" version="1.1" x="0px" y="0px" viewBox="0 0 100 125" style="enable-background:new 0 0 100 100;" xml:space="preserve"><path d="M92.2439728,44.0818329H49.0159416c-1.378418,0-2.5,1.121582-2.5,2.5v5.3642578h-6.9018555  c-1.378418,0-2.5,1.1210938-2.5,2.5v39.6328125c0,1.3789063,1.121582,2.5,2.5,2.5H82.841629c1.3789063,0,2.5-1.1210938,2.5-2.5  v-5.3642578h6.9023438c1.3789063,0,2.5-1.1210938,2.5-2.5V46.5818329  C94.7439728,45.2034149,93.622879,44.0818329,92.2439728,44.0818329z M82.341629,93.5789032H40.1140862V54.9460907h6.4018555  v31.2685547c0,1.3789063,1.121582,2.5,2.5,2.5H82.341629V93.5789032z M91.7439728,85.7146454H49.5159416v-3.3328247  c0.9962769,0.081543,1.5836182,0.3143311,2.2817383,0.5984497c0.9824219,0.3984375,2.0966797,0.8515625,4.2158203,0.8515625  s3.2333984-0.4521484,4.2167969-0.8515625c0.8681641-0.3535156,1.5546875-0.6318359,3.0878906-0.6318359  c1.5312538,0,2.2168007,0.2783203,3.0849648,0.6308594c0.9824219,0.3994141,2.0966797,0.8525391,4.2148438,0.8525391  c2.1201172,0,3.2353516-0.4521484,4.21875-0.8515625c0.8691406-0.3535156,1.5556641-0.6318359,3.0888672-0.6318359  c1.5351563,0,2.2216797,0.2783203,3.0908203,0.6318359c0.984375,0.3994141,2.0996094,0.8515625,4.2207031,0.8515625  s3.2363281-0.4521484,4.2197266-0.8515625c0.6994629-0.2841797,1.2884521-0.5170288,2.2871094-0.5985107V85.7146454z   M91.7439728,79.3733978c-1.6121216,0.0979004-2.5639038,0.4812622-3.4140625,0.8265991  c-0.8701172,0.3535156-1.5576172,0.6318359-3.0927734,0.6318359s-2.2226563-0.2783203-3.0927734-0.6318359  c-0.9833984-0.3994141-2.0986328-0.8515625-4.21875-0.8515625c-2.1191406,0-3.234375,0.4521484-4.2177734,0.8515625  c-0.8691406,0.3535156-1.5556641,0.6318359-3.0898438,0.6318359c-1.5322266,0-2.2177734-0.2783203-3.0859375-0.6318359  c-0.9824219-0.3984375-2.0957031-0.8515625-4.213871-0.8515625c-2.1191406,0-3.2333984,0.4521484-4.2167969,0.8515625  c-0.8681641,0.3535156-1.5546875,0.6318359-3.0878906,0.6318359c-1.5322266,0-2.21875-0.2783203-3.0869141-0.6318359  c-0.8493042-0.3444214-1.8005371-0.7283936-3.4106445-0.8265381V72.253891  c0.9962769,0.081543,1.5836182,0.3143311,2.2817383,0.5984497c0.9824219,0.3984375,2.0966797,0.8515625,4.2158203,0.8515625  s3.2333984-0.4521484,4.2167969-0.8515625c0.8681641-0.3535156,1.5546875-0.6318359,3.0878906-0.6318359  c1.5312538,0,2.2168007,0.2783203,3.0849648,0.6308594c0.9824219,0.3994141,2.0966797,0.8525391,4.2148438,0.8525391  c2.1201172,0,3.2353516-0.4521484,4.21875-0.8515625c0.8691406-0.3535156,1.5556641-0.6318359,3.0888672-0.6318359  c1.5351563,0,2.2216797,0.2783203,3.0908203,0.6318359c0.984375,0.3994141,2.0996094,0.8515625,4.2207031,0.8515625  s3.2363281-0.4521484,4.2197266-0.8515625c0.6994629-0.2841797,1.2884521-0.5170288,2.2871094-0.5985107V79.3733978z   M91.7439728,69.2454681c-1.6121216,0.0979004-2.5639038,0.4812622-3.4140625,0.8265991  c-0.8701172,0.3535156-1.5576172,0.6318359-3.0927734,0.6318359s-2.2226563-0.2783203-3.0927734-0.6318359  c-0.9833984-0.3994141-2.0986328-0.8515625-4.21875-0.8515625c-2.1191406,0-3.234375,0.4521484-4.2177734,0.8515625  c-0.8691406,0.3535156-1.5556641,0.6318359-3.0898438,0.6318359c-1.5322266,0-2.2177734-0.2783203-3.0859375-0.6318359  c-0.9824219-0.3984375-2.0957031-0.8515625-4.213871-0.8515625c-2.1191406,0-3.2333984,0.4521484-4.2167969,0.8515625  c-0.8681641,0.3535156-1.5546875,0.6318359-3.0878906,0.6318359c-1.5322266,0-2.21875-0.2783203-3.0869141-0.6318359  c-0.8493042-0.3444214-1.8005371-0.7283936-3.4106445-0.8265381v-7.1195679  c0.9962769,0.081543,1.5836182,0.3143311,2.2817383,0.5984497c0.9824219,0.3984375,2.0966797,0.8515625,4.2158203,0.8515625  s3.2333984-0.4521484,4.2167969-0.8515625c0.8681641-0.3535156,1.5546875-0.6318359,3.0878906-0.6318359  c1.5312538,0,2.2168007,0.2783203,3.0849648,0.6308594c0.9824219,0.3994141,2.0966797,0.8525391,4.2148438,0.8525391  c2.1201172,0,3.2353516-0.4521484,4.21875-0.8515625c0.8691406-0.3535156,1.5556641-0.6318359,3.0888672-0.6318359  c1.5351563,0,2.2216797,0.2783203,3.0908203,0.6318359c0.984375,0.3994141,2.0996094,0.8515625,4.2207031,0.8515625  s3.2363281-0.4521484,4.2197266-0.8515625c0.6994629-0.2841797,1.2884521-0.5170288,2.2871094-0.5985107V69.2454681z   M91.7439728,59.1175385c-1.6121216,0.0979004-2.5639038,0.4812622-3.4140625,0.8265991  c-0.8701172,0.3535156-1.5576172,0.6318359-3.0927734,0.6318359s-2.2226563-0.2783203-3.0927734-0.6318359  c-0.9833984-0.3994141-2.0986328-0.8515625-4.21875-0.8515625c-2.1191406,0-3.234375,0.4521484-4.2177734,0.8515625  c-0.8691406,0.3535156-1.5556641,0.6318359-3.0898438,0.6318359c-1.5322266,0-2.2177734-0.2783203-3.0859375-0.6318359  c-0.9824219-0.3984375-2.0957031-0.8515625-4.213871-0.8515625c-2.1191406,0-3.2333984,0.4521484-4.2167969,0.8515625  c-0.8681641,0.3535156-1.5546875,0.6318359-3.0878906,0.6318359c-1.5322266,0-2.21875-0.2783203-3.0869141-0.6318359  c-0.8493042-0.3444214-1.8005371-0.7283936-3.4106445-0.8265381v-7.1195679  c0.9962769,0.081543,1.5836182,0.3143311,2.2817383,0.5984497c0.9824219,0.3984375,2.0966797,0.8515625,4.2158203,0.8515625  s3.2333984-0.4521484,4.2167969-0.8515625c0.8681641-0.3535156,1.5546875-0.6318359,3.0878906-0.6318359  c1.5312538,0,2.2168007,0.2783203,3.0849648,0.6308594c0.9824219,0.3994141,2.0966797,0.8525391,4.2148438,0.8525391  c2.1201172,0,3.2353516-0.4521484,4.21875-0.8515625c0.8691406-0.3535156,1.5556641-0.6318359,3.0888672-0.6318359  c1.5351563,0,2.2216797,0.2783203,3.0908203,0.6318359c0.984375,0.3994141,2.0996094,0.8515625,4.2207031,0.8515625  s3.2363281-0.4521484,4.2197266-0.8515625c0.6994629-0.2841797,1.2884521-0.5170288,2.2871094-0.5985107V59.1175385z   M91.7439728,48.9896088c-1.6121216,0.0979614-2.5639038,0.4816895-3.4140625,0.8265991  c-0.8701172,0.3530273-1.5576172,0.6318359-3.0927734,0.6318359s-2.2226563-0.2788086-3.0927734-0.6318359  c-0.9833984-0.3989258-2.0986328-0.8515625-4.21875-0.8515625c-2.1191406,0-3.234375,0.4526367-4.2177734,0.8515625  c-0.8691406,0.3530273-1.5556641,0.6318359-3.0898438,0.6318359c-1.5322266,0-2.2177734-0.2788086-3.0859375-0.6313477  c-0.9824219-0.3994141-2.0957031-0.8520508-4.213871-0.8520508c-2.1191406,0-3.2333984,0.4526367-4.2167969,0.8520508  c-0.8681641,0.3525391-1.5546875,0.6313477-3.0878906,0.6313477c-1.5322266,0-2.21875-0.2788086-3.0869141-0.6313477  c-0.8493042-0.3452759-1.8005371-0.7290649-3.4106445-0.8270874v-1.9077759h42.2280312V48.9896088z M61.0125237,21.6990204  c0.007019-1.1021729-0.2105103-2.1691284-0.6257324-3.1536255c2.2258301-0.3026733,4.8010292-0.1221313,7.731205,0.5759888  c5.9912109,1.4287109,10.9921875,0.7802734,14.8681641-1.9243164c6.0195313-4.1987305,6.9873047-11.7802734,7.0253906-12.1010742  c0.0976563-0.8212891-0.4873047-1.5654294-1.3085938-1.6650388c-0.8164063-0.0932617-1.5683594,0.4853516-1.6699219,1.3066404  c-0.0078125,0.0654297-0.8681641,6.6000977-5.7832031,10.0126953c-3.1425781,2.1816406-7.3251953,2.6704102-12.4365234,1.453125  c-3.9363403-0.9384766-7.3856239-1.0550537-10.3245277-0.3692627c-1.4859619-1.3969116-3.4080811-2.1678467-5.4537964-2.1678467  c-0.0185547,0-0.0371094,0-0.0546875,0c-2.1386719,0.0141602-4.215332,0.90625-5.6967773,2.4467773L23.0042229,41.3411102  c-5.1245117,5.3242188-9.5322256,11.3041992-13.1010733,17.7729492l-4.4604492,8.0839844  c-0.3227539,0.5849609-0.2197266,1.3125,0.2529297,1.7851563c0.2885742,0.2890625,0.6723633,0.4394531,1.0610352,0.4394531  c0.2475586,0,0.496582-0.0615234,0.7241211-0.1865234l8.0839844-4.4599609  c6.4707022-3.5703125,12.4506826-7.9785156,17.7734375-13.1015625l25.2280273-24.2792969  C60.1062737,25.9123993,60.9978752,23.8367157,61.0125237,21.6990204z M56.4861565,25.2341766L31.2581291,49.5134735  c-5.1342773,4.9404297-10.9018555,9.1923828-17.1425781,12.6357422l-3.5375977,1.9521484l1.9521484-3.5380859  c3.4418945-6.2392578,7.6933584-12.0063477,12.635253-17.1420898L49.4451408,18.193161  c0.9248047-0.9614258,2.2207031-1.5180664,3.5546875-1.5268555c1.3642578-0.0136719,2.6044922,0.5092773,3.5537109,1.4580078  c0.9492188,0.9492188,1.4677734,2.2119141,1.4589844,3.5546875C58.0037346,23.0129852,57.447094,24.3088837,56.4861565,25.2341766z   M52.8699455,18.2944183c-0.000061,0-0.0001221,0-0.0001831,0c-1.1800537,0.000061-2.4220581,0.5653076-3.4075317,1.5508423  c-1.8364258,1.8364258-2.0667114,4.3758545-0.5355835,5.9069824c0.6547241,0.6546631,1.5422974,1.0152588,2.4993286,1.0152588  c1.1799927,0,2.4220581-0.5652466,3.4076538-1.5508423c1.8363647-1.8364258,2.0666504-4.3757935,0.5355835-5.9069214  C54.714489,18.655014,53.8268547,18.2944183,52.8699455,18.2944183z M52.7122917,23.0953217  c-0.4268188,0.4268799-0.9216919,0.6721802-1.286377,0.6721802c-0.1542969,0-0.2852783-0.0438843-0.3779297-0.1365967  c-0.3117065-0.3117065-0.0719604-1.0568237,0.5355225-1.6643066c0.4268799-0.4268799,0.9216919-0.6721802,1.286377-0.6721802  c0.1542969,0,0.2852783,0.0438843,0.3779907,0.1365967C53.5595207,21.7427216,53.3197746,22.4878387,52.7122917,23.0953217z"/><text x="0" y="115" fill="#000000" font-size="5px" font-weight="bold" font-family="'Helvetica Neue', Helvetica, Arial-Unicode, Arial, Sans-serif">Created by Llisole</text><text x="0" y="120" fill="#000000" font-size="5px" font-weight="bold" font-family="'Helvetica Neue', Helvetica, Arial-Unicode, Arial, Sans-serif">from the Noun Project</text></svg>