<svg xmlns="http://www.w3.org/2000/svg" xmlns:xlink="http://www.w3.org/1999/xlink" version="1.1" x="0px" y="0px" viewBox="0 0 100 125" enable-background="new 0 0 100 100" xml:space="preserve"><path d="M70.937,45.501c0.001-3.644-1.418-7.069-3.995-9.646c-2.257-2.258-5.164-3.627-8.298-3.932  c-0.482-2.236-2.065-4.064-4.151-4.895c0.255-2.843,1.466-5.224,1.478-5.248c0.19-0.365,0.223-0.795,0.087-1.185  c-0.135-0.39-0.425-0.708-0.802-0.876l-5.044-2.27c-0.723-0.327-1.573-0.033-1.942,0.668c-0.092,0.175-2.104,4.051-2.401,8.779  c-2.263,0.756-3.999,2.664-4.508,5.028c-6.892,0.679-12.295,6.506-12.295,13.574c0,2.587,1.755,4.767,4.135,5.426v12.059  c0,7.334,4.764,13.783,11.693,15.99c0.715,2.17,2.758,3.705,5.108,3.705c2.35,0,4.393-1.535,5.108-3.705  c6.931-2.209,11.693-8.658,11.691-15.99V50.928C69.182,50.268,70.937,48.088,70.937,45.501z M50.35,20.803l2.324,1.045  c-0.431,1.123-0.955,2.801-1.152,4.696h-2.62C49.13,24.185,49.836,22.081,50.35,20.803z M48.02,29.544h3.962  c1.572,0,2.926,0.956,3.51,2.316H44.512C45.096,30.5,46.448,29.544,48.02,29.544z M63.801,62.986  c0.002,6.273-4.245,11.76-10.329,13.342c-0.593,0.154-1.032,0.654-1.11,1.262c-0.152,1.191-1.167,2.092-2.36,2.092  s-2.209-0.9-2.36-2.092c-0.078-0.607-0.518-1.107-1.111-1.262c-6.082-1.58-10.33-7.066-10.33-13.342v-11.85h27.602V62.986z   M65.301,48.136H34.699c-1.453,0-2.635-1.183-2.635-2.635c0-5.864,4.767-10.635,10.628-10.642c0.004,0,0.008,0.001,0.013,0.001  h14.594c0.005,0,0.009-0.001,0.013-0.001c2.836,0.003,5.502,1.109,7.509,3.116c2.01,2.011,3.116,4.683,3.116,7.525  C67.937,46.954,66.754,48.136,65.301,48.136z"/><text x="0" y="115" fill="#000000" font-size="5px" font-weight="bold" font-family="'Helvetica Neue', Helvetica, Arial-Unicode, Arial, Sans-serif">Created by Sergey Demushkin</text><text x="0" y="120" fill="#000000" font-size="5px" font-weight="bold" font-family="'Helvetica Neue', Helvetica, Arial-Unicode, Arial, Sans-serif">from the Noun Project</text></svg>