<svg xmlns="http://www.w3.org/2000/svg" xmlns:xlink="http://www.w3.org/1999/xlink" version="1.1" x="0px" y="0px" viewBox="0 0 64 80" style="enable-background:new 0 0 64 64;" xml:space="preserve"><g><g><polygon points="29,56 15,56 15,50.709 17,50.709 17,54 27,54 27,50.709 29,50.709   "/></g><g><path d="M26,52h-8C8.626,52,1,44.374,1,35v-3h37.349v2H3v1c0,8.271,6.729,15,15,15h8c7.734,0,14.15-5.794,14.924-13.479    l1.99,0.201C42.037,45.432,34.766,52,26,52z"/></g><g><path d="M9.434,33.258L8.096,28.24C6.2,27.188,5,25.182,5,23c0-3.309,2.691-6,6-6s6,2.691,6,6c0,1.212-0.367,2.369-1.065,3.376    l1.698,6.366L15.7,33.258l-1.956-7.334l0.327-0.397C14.679,24.79,15,23.916,15,23c0-2.206-1.794-4-4-4s-4,1.794-4,4    c0,1.562,0.926,2.99,2.358,3.638l0.432,0.195l1.576,5.909L9.434,33.258z"/></g><g><rect x="2.504" y="38" width="38.992" height="2"/></g><g><path d="M54.781,56h-9.562L43,47v-5h14l-0.03,5.242L54.781,56z M46.781,54h6.438L55,46.877V44H45v2.877L46.781,54z"/></g><g><rect x="44" y="46" width="12" height="2"/></g><g><rect x="49" y="14" width="2" height="29"/></g><g><path d="M56,18h-7v-3c0-3.86,3.14-7,7-7h7v3C63,14.86,59.86,18,56,18z M51,16h5c2.757,0,5-2.243,5-5v-1h-5c-2.757,0-5,2.243-5,5    V16z"/></g><g><path d="M56,32h-7v-3c0-3.86,3.14-7,7-7h7v3C63,28.86,59.86,32,56,32z M51,30h5c2.757,0,5-2.243,5-5v-1h-5c-2.757,0-5,2.243-5,5    V30z"/></g><g><path d="M51,21h-7c-3.86,0-7-3.14-7-7v-3h7c3.86,0,7,3.14,7,7V21z M39,13v1c0,2.757,2.243,5,5,5h5v-1c0-2.757-2.243-5-5-5H39z"/></g><g><path d="M51,38h-7c-3.86,0-7-3.141-7-7v-3h7c3.86,0,7,3.14,7,7V38z M39,30v1c0,2.757,2.243,5,5,5h5v-1c0-2.757-2.243-5-5-5H39z"/></g></g><text x="0" y="79" fill="#000000" font-size="5px" font-weight="bold" font-family="'Helvetica Neue', Helvetica, Arial-Unicode, Arial, Sans-serif">Created by Eucalyp</text><text x="0" y="84" fill="#000000" font-size="5px" font-weight="bold" font-family="'Helvetica Neue', Helvetica, Arial-Unicode, Arial, Sans-serif">from the Noun Project</text></svg>