<svg xmlns="http://www.w3.org/2000/svg" xmlns:xlink="http://www.w3.org/1999/xlink" xml:space="preserve" version="1.1" style="shape-rendering:geometricPrecision;text-rendering:geometricPrecision;image-rendering:optimizeQuality;" viewBox="0 0 846.66 1058.325" x="0px" y="0px" fill-rule="evenodd" clip-rule="evenodd"><defs><style type="text/css">
   
    .fil0 {fill:black;fill-rule:nonzero}
   
  </style></defs><g><path class="fil0" d="M557.72 583.08l0.03 96.99 -66.41 -27.47 0 -42 66.38 -27.52zm168.5 -479.16c0,-31.04 47.18,-31.04 47.18,0 0,184.14 -142.89,337.06 -326.48,349.27l0 44.01 24.87 -0.01 -27.47 66.41 -42 0 -27.52 -66.38 24.92 -0.01 0 -44.02c-183.59,-12.23 -326.46,-165.15 -326.46,-349.27 0,-31.04 47.2,-31.04 47.2,0 0,167.24 135.61,302.87 302.87,302.87 167.28,0 302.89,-135.61 302.89,-302.87zm-239.94 494.4l-29.72 -29.7 27.45 -66.35 68.61 68.55 -66.34 27.5zm66.39 93.97l-68.55 68.61 -27.5 -66.36 29.7 -29.7 66.35 27.45zm-80.81 73.69l-96.99 0.03 27.48 -66.37 41.99 -0.02 27.52 66.36zm-109.21 -5.03l-68.59 -68.55 66.34 -27.5 29.72 29.69 -27.47 66.36zm-73.71 -80.81l-0.02 -96.99 66.38 27.46 0.02 42.01 -66.38 27.52zm5.05 -109.21l68.55 -68.61 27.5 66.34 -29.7 29.74 -66.35 -27.47zm151.99 5.88l32.15 32.09 0 45.36 -32.09 32.15 -45.36 0 -32.14 -32.11 -0.01 -45.34 32.11 -32.15 45.34 0z"/></g><text x="0" y="861.66" fill="#000000" font-size="5px" font-weight="bold" font-family="'Helvetica Neue', Helvetica, Arial-Unicode, Arial, Sans-serif">Created by pejyt</text><text x="0" y="866.66" fill="#000000" font-size="5px" font-weight="bold" font-family="'Helvetica Neue', Helvetica, Arial-Unicode, Arial, Sans-serif">from the Noun Project</text></svg>