<svg xmlns="http://www.w3.org/2000/svg" viewBox="0 0 64 80" x="0px" y="0px"><title>18-leather</title><g data-name="18-leather"><path d="M14,34H12V29.98C12,22.805.8,18.975.684,18.938a1,1,0,0,1-.528-1.486l7-10.993a1,1,0,0,1,1.358-.321A55.119,55.119,0,0,0,20.2,11.245a2.75,2.75,0,0,0,2.428-.532A3.45,3.45,0,0,0,24,8V1a1,1,0,0,1,1-1H39a1,1,0,0,1,1,1V8a3.45,3.45,0,0,0,1.371,2.713,2.754,2.754,0,0,0,2.429.532,42.133,42.133,0,0,0,5.905-2.159l.811,1.829a44.244,44.244,0,0,1-6.19,2.26,4.771,4.771,0,0,1-4.169-.872A5.464,5.464,0,0,1,38,8V2H26V8a5.464,5.464,0,0,1-2.157,4.3,4.774,4.774,0,0,1-4.168.872A54.727,54.727,0,0,1,8.33,8.34L2.5,17.488C5.674,18.78,14,22.853,14,29.98Z"/><path d="M51.677,43.518A10.71,10.71,0,0,1,50,37.976v-8c0-7.127,8.326-11.2,11.5-12.492L55.67,8.339c-.715.4-1.842,1.007-3.233,1.682l-.874-1.8C53.876,7.1,55.47,6.148,55.486,6.138a1,1,0,0,1,1.358.321l7,10.993a1,1,0,0,1-.528,1.486C63.2,18.975,52,22.805,52,29.98v8a8.75,8.75,0,0,0,1.39,4.508Z"/><path d="M55.324,47.847a23.783,23.783,0,0,1-2.089-2.169l1.53-1.287a22.018,22.018,0,0,0,1.913,1.985Z"/><path d="M56,64a1,1,0,0,1-.427-.1c-.028-.013-2.91-1.378-6.037-3.018A16.068,16.068,0,0,0,42,59c-2.743,0-6.478,1.892-9.293,4.707a1,1,0,0,1-1.414,0C28.478,60.892,24.743,59,22,59a16.068,16.068,0,0,0-7.535,1.886c-3.127,1.64-6.009,3-6.037,3.018a1,1,0,0,1-1.272-.367l-7-11a1,1,0,0,1,.4-1.431C.665,51.049,12,45.256,12,37.976V36h2v1.976c0,7.2-8.616,12.711-11.58,14.392l5.947,9.347c1.063-.514,3.059-1.493,5.168-2.6A18.063,18.063,0,0,1,22,57c3.053,0,6.893,1.79,10,4.618C35.107,58.79,38.947,57,42,57a18.063,18.063,0,0,1,8.465,2.114c2.109,1.108,4.1,2.087,5.168,2.6l5.949-9.349a37.542,37.542,0,0,1-4.193-2.788l1.218-1.586a33.941,33.941,0,0,0,4.842,3.114,1,1,0,0,1,.4,1.431l-7,11A1,1,0,0,1,56,64Z"/><path d="M29,5H27V4a1,1,0,0,1,1-1h1Z"/><path d="M20,16.7h-.126l.025-2H20a6.95,6.95,0,0,0,1.564-.18l.455,1.947A8.885,8.885,0,0,1,20,16.7Zm-2.269-.3a9.176,9.176,0,0,1-1.389-.49l-.555-.247L16.6,13.84l.554.247a7.32,7.32,0,0,0,1.087.383Zm6.314-.675-.9-1.785a7.16,7.16,0,0,0,1.4-.929l1.295,1.523A9.108,9.108,0,0,1,24.048,15.729Zm-10.015-.842-1.757-.781.813-1.828,1.757.782Zm13.274-1.931-1.62-1.174a6.831,6.831,0,0,0,.811-1.465l1.856.748A8.931,8.931,0,0,1,27.307,12.956Zm1.6-3.976L26.93,8.7A7.215,7.215,0,0,0,27,7.69V6.922h2V7.69A9.217,9.217,0,0,1,28.91,8.98Z"/><path d="M10.343,13.372,8.628,12.343l.515-.858a1,1,0,0,1,1.263-.4l.914.407-.812,1.827-.106-.047Z"/><rect x="7.861" y="13.5" width="1.277" height="2" transform="matrix(0.515, -0.857, 0.857, 0.515, -8.307, 14.325)"/><path d="M7.343,18.372l-.858-.515a1,1,0,0,1-.342-1.372l.514-.857,1.715,1.029Z"/><path d="M9.909,51.727,8.571,50.24,10.055,48.9l1.338,1.487Zm2.982-2.781L11.43,47.581a16.949,16.949,0,0,0,1.206-1.446l1.605,1.193A18.751,18.751,0,0,1,12.891,48.946ZM15.4,45.57l-1.726-1.008a17.674,17.674,0,0,0,.86-1.678l1.826.814A18.752,18.752,0,0,1,15.4,45.57Zm1.705-3.841-1.9-.609a16.836,16.836,0,0,0,.47-1.822l1.961.389A18.635,18.635,0,0,1,17.108,41.729Zm.823-4.127-1.993-.168Q16,36.711,16,35.983v-.461h2v.461C18,36.516,17.977,37.06,17.931,37.6ZM18,33.525H16v-2h2Zm-2-3.969a11.143,11.143,0,0,0-.191-1.819l1.964-.373A13.138,13.138,0,0,1,18,29.509Zm-.683-3.58a10.851,10.851,0,0,0-.773-1.654l1.734-1a12.891,12.891,0,0,1,.916,1.957ZM13.5,22.816a11.025,11.025,0,0,0-1.273-1.311L13.546,20a12.905,12.905,0,0,1,1.505,1.552Zm-2.753-2.4L9.055,19.4l1.029-1.715,1.728,1.038Z"/><path d="M6.657,54.372l-.514-.857a1,1,0,0,1,.188-1.258l.743-.669,1.338,1.486-.131.118.091.151Z"/><rect x="7.5" y="54.861" width="2" height="1.277" transform="matrix(0.857, -0.515, 0.515, 0.857, -27.354, 12.292)"/><path d="M10,59a1,1,0,0,1-.857-.485l-.515-.858,1.715-1.029.076.128.139-.056.742,1.858-.929.371A1.006,1.006,0,0,1,10,59Z"/><path d="M13.119,57.829l-.742-1.857,1.819-.728.742,1.858Zm15.771-.151L27.1,56.861l.834-1.818,1.784.816Zm-12.132-1.3-.742-1.857,1.82-.729.742,1.858Zm8.5-.4a7.429,7.429,0,0,0-1.586-.676l.564-1.918a9.472,9.472,0,0,1,2.012.855Zm-5-.847-.365-1.967a9.452,9.452,0,0,1,2.182-.146l-.1,2A7.452,7.452,0,0,0,20.258,55.125Z"/><path d="M32,59a.986.986,0,0,1-.415-.091l-.908-.415.832-1.818L32,56.9l.493-.225.832,1.818-.909.416A.991.991,0,0,1,32,59Z"/><path d="M50.873,57.826,49.054,57.1l.742-1.858,1.819.728Zm-15.766-.148-.832-1.819,1.783-.815.832,1.818ZM47.233,56.37l-1.819-.727.742-1.858,1.82.728Zm-8.5-.395-1-1.735a9.37,9.37,0,0,1,2.016-.86l.562,1.92A7.24,7.24,0,0,0,38.737,55.975Zm5-.852a7.488,7.488,0,0,0-1.72-.113l-.1-2a9.4,9.4,0,0,1,2.18.144Z"/><path d="M54,59a1.006,1.006,0,0,1-.371-.071l-.929-.371.742-1.858.139.056.076-.128,1.715,1.029-.515.858A1,1,0,0,1,54,59Z"/><rect x="54.862" y="54.5" width="1.277" height="2" transform="matrix(0.515, -0.857, 0.857, 0.515, -20.649, 74.524)"/><path d="M57.343,54.372l-1.715-1.029.091-.151-.131-.118,1.338-1.486.743.669a1,1,0,0,1,.188,1.258Z"/><path d="M54.1,51.738,52.62,50.4l1.338-1.486,1.483,1.336Zm-2.983-2.781a19.529,19.529,0,0,1-1.35-1.613l1.6-1.2a17.933,17.933,0,0,0,1.211,1.447Zm-2.516-3.37a18.96,18.96,0,0,1-.961-1.876l1.828-.811a16.76,16.76,0,0,0,.86,1.675Zm-1.711-3.844a19.114,19.114,0,0,1-.527-2.038l1.961-.393a17,17,0,0,0,.472,1.826Zm-.823-4.125C46.025,37.08,46,36.53,46,35.985v-.446h2v.444q0,.735.063,1.465ZM48,33.543H46v-2h2Zm0-3.973-2-.041a12.978,12.978,0,0,1,.224-2.15l1.964.373A11.129,11.129,0,0,0,48,29.57Zm.676-3.581L46.8,25.3a12.944,12.944,0,0,1,.913-1.958l1.736.994A10.88,10.88,0,0,0,48.679,25.989Zm1.808-3.162L48.94,21.56a12.964,12.964,0,0,1,1.5-1.552l1.317,1.506A10.966,10.966,0,0,0,50.487,22.827Zm2.746-2.4-1.056-1.7L53.9,17.693l1.03,1.715Z"/><path d="M56.657,18.372l-1.029-1.715,1.715-1.029.514.857a1,1,0,0,1-.342,1.372Z"/><rect x="54.499" y="13.861" width="2" height="1.277" transform="translate(0.45 30.624) rotate(-30.968)"/><path d="M53.657,13.372l-.059-.1-.106.047-.812-1.827.914-.407a1,1,0,0,1,1.263.4l.515.858Z"/><path d="M44,16.7a8.9,8.9,0,0,1-2.005-.229l.451-1.949A6.9,6.9,0,0,0,44,14.7h.116l.024,2Zm2.283-.3-.513-1.933a7.324,7.324,0,0,0,1.076-.38l.568-.253.813,1.828-.569.253A9.359,9.359,0,0,1,46.28,16.4Zm-6.314-.664a9.105,9.105,0,0,1-1.8-1.189l1.293-1.526a7.181,7.181,0,0,0,1.4.929Zm10.013-.855-.812-1.827,1.757-.781.812,1.828ZM36.7,12.969a8.846,8.846,0,0,1-1.049-1.889l1.854-.749a6.879,6.879,0,0,0,.812,1.461Zm-1.61-3.974A9.382,9.382,0,0,1,35,7.692V6.937h2V7.69a7.424,7.424,0,0,0,.073,1.024Z"/><path d="M37,5H35V3h1a1,1,0,0,1,1,1Z"/><rect x="31" y="3" width="2" height="2"/></g><text x="0" y="79" fill="#000000" font-size="5px" font-weight="bold" font-family="'Helvetica Neue', Helvetica, Arial-Unicode, Arial, Sans-serif">Created by Justicon</text><text x="0" y="84" fill="#000000" font-size="5px" font-weight="bold" font-family="'Helvetica Neue', Helvetica, Arial-Unicode, Arial, Sans-serif">from the Noun Project</text></svg>