<svg xmlns="http://www.w3.org/2000/svg" viewBox="0 0 64 80" x="0px" y="0px"><path d="M52,57a1,1,0,0,0,2,0,3.00328,3.00328,0,0,1,3-3,1,1,0,0,0,0-2,3.00328,3.00328,0,0,1-3-3,1,1,0,0,0-2,0,3.00328,3.00328,0,0,1-3,3,1,1,0,0,0,0,2A3.00328,3.00328,0,0,1,52,57Zm1-5.03094A5.02336,5.02336,0,0,0,54.03094,53,5.02336,5.02336,0,0,0,53,54.03094,5.02336,5.02336,0,0,0,51.96906,53,5.02336,5.02336,0,0,0,53,51.96906Z"/><path d="M6,49a1,1,0,0,0,2,0,3.00328,3.00328,0,0,1,3-3,1,1,0,0,0,0-2,3.00328,3.00328,0,0,1-3-3,1,1,0,0,0-2,0,3.00328,3.00328,0,0,1-3,3,1,1,0,0,0,0,2A3.00328,3.00328,0,0,1,6,49Zm1-5.03094A5.02336,5.02336,0,0,0,8.03094,45,5.02336,5.02336,0,0,0,7,46.03094,5.02336,5.02336,0,0,0,5.96906,45,5.02336,5.02336,0,0,0,7,43.96906Z"/><path d="M32,25a7,7,0,1,0,7,7A7.00818,7.00818,0,0,0,32,25Zm0,12a5,5,0,1,1,5-5A5.00588,5.00588,0,0,1,32,37Z"/><path d="M32,29a3,3,0,1,0,3,3A3.00328,3.00328,0,0,0,32,29Zm0,4a1,1,0,1,1,1-1A1.001,1.001,0,0,1,32,33Z"/><path d="M16,35a3,3,0,1,0-3-3A3.00328,3.00328,0,0,0,16,35Zm0-4a1,1,0,1,1-1,1A1.001,1.001,0,0,1,16,31Z"/><path d="M48,29a3,3,0,1,0,3,3A3.00328,3.00328,0,0,0,48,29Zm0,4a1,1,0,1,1,1-1A1.001,1.001,0,0,1,48,33Z"/><path d="M58,8H51.44366A3.95376,3.95376,0,0,0,52,6a4.00427,4.00427,0,0,0-4-4H16a4.00427,4.00427,0,0,0-4,4,3.95376,3.95376,0,0,0,.55634,2H6a4.00427,4.00427,0,0,0-4,4v8a4.00427,4.00427,0,0,0,4,4H8.076C8.0307,24.65979,8,25.32355,8,26c0,.74121.02734,1.50684.08154,2.27344.00312.04406.00922.08789.01294.132q.02481.30011.05835.59851l.00879.08062.05908.5727c.00782.084.01612.16894.02442.25293.01989.20312.04175.40625.06946.60937H8.31445c.03858.28516.08545.56836.13526.85156.02246.13184.0459.2627.06933.39453l.083.48243c.02673.16217.053.3233.08544.48645v.00085l.0005.002.00146.00684c.05518.27832.11621.55566.18018.832.06543.28284.13379.56378.20355.84571l.00446.01953.1123.47461c.0293.11193.06329.22668.09387.339.05457.20026.108.40076.1659.60047l.00341.01141c.09479.326.19666.66248.308,1.0199l.00012.00092.05176.17187.00049.001c.04345.13549.09216.27374.13733.40954.06561.19757.12957.39569.19812.59241.03155.09064.06591.18024.09814.27057.09064.25476.18189.50983.28357.78271l.00641.01776.00751.0207-.00013.00006.00049.001c.0506.13337.10993.26429.16181.39734.21661.55652.43695,1.11121.67511,1.6593l.00067-.0003.00128.00323.02014.04322.00037.00171.00146.00293.00086.00122q.43789,1.00149.92053,1.97924a48.782,48.782,0,0,0,4.88867,7.88868,46.42745,46.42745,0,0,0,4.53387,5.14972A2.99477,2.99477,0,0,0,23,62H41a2.99483,2.99483,0,0,0,1.24945-5.71893,45.87559,45.87559,0,0,0,4.23151-4.744,48.58272,48.58272,0,0,0,5.56787-9.0752A39.11906,39.11906,0,0,0,56,26c0-.67645-.0307-1.34021-.07593-2H58a4.00427,4.00427,0,0,0,4-4V12A4.00427,4.00427,0,0,0,58,8ZM48,25a7,7,0,1,0,3.78052,12.88214c-.41516,1.1496-.87781,2.29767-1.405,3.4372l-4.54737,2.53613-6.685-3.72852a.9954.9954,0,0,0-.97461,0l-6.67969,3.72754L24.81543,40.127a.99633.99633,0,0,0-.9751,0l-6.67724,3.72754-3.17933-1.77563q-.39981-.82315-.76794-1.66577c-.25934-.59571-.5022-1.19782-.73456-1.8042-.03253-.0849-.06408-.16077-.09692-.24811l-.00043-.00128.00037-.00012-.01227-.03382c-.05518-.14728-.10156-.29724-.15515-.445a6.99871,6.99871,0,1,0-2.12714-9.61486c-.00378-.04395-.00995-.08789-.01306-.1319v-.001H10.0766C10.02582,27.4046,10,26.68719,10,26a26.44492,26.44492,0,0,1,.2583-3.72656l2.4502,1.56836a.99753.99753,0,0,0,1.07812,0l5.7085-3.6543,5.70849,3.6543a.99754.99754,0,0,0,1.07813,0l5.71-3.6543,5.707,3.6543a1.00142,1.00142,0,0,0,1.07813.001l5.71191-3.65527,5.71728,3.65527a1.001,1.001,0,0,0,1.07715,0l2.4585-1.57226A26.47632,26.47632,0,0,1,54,26c0,.743-.03845,1.49725-.09552,2.25616A6.99481,6.99481,0,0,0,48,25Zm5,7a5,5,0,1,1-5-5A5.00588,5.00588,0,0,1,53,32ZM13.24756,18h.00006a.99583.99583,0,0,0,.539-.1582l5.7085-3.6543,5.70849,3.6543a.99754.99754,0,0,0,1.07813,0l5.71-3.6543,5.707,3.6543a1.00142,1.00142,0,0,0,1.07813.001l5.71191-3.65527,5.71728,3.65527a1.00366,1.00366,0,0,0,1.07715,0l1.1529-.73712a22.58152,22.58152,0,0,1,.91485,3.04047l-2.60632,1.66736-5.71729-3.65625a1.00185,1.00185,0,0,0-1.07763,0L38.23779,21.8125l-5.707-3.6543a.99753.99753,0,0,0-1.07812,0l-5.71,3.6543-5.7085-3.6543a.99754.99754,0,0,0-1.07813,0l-5.70849,3.6543-2.59912-1.66406a22.55734,22.55734,0,0,1,.91491-3.03974l1.14466.7331A.99886.99886,0,0,0,13.24756,18Zm-3.06067-2.78894-.00134.00183A22.94511,22.94511,0,0,0,9.1546,18H8V14h2.7818C10.57922,14.3855,10.37909,14.78418,10.18689,15.21106ZM11,32a5,5,0,1,1,5,5A5.00588,5.00588,0,0,1,11,32ZM53.813,15.21c-.19208-.42645-.392-.82477-.59442-1.21H56v4H54.84521A22.95978,22.95978,0,0,0,53.813,15.21Zm-2.19385.04395-.87451.55957-5.71729-3.65625a1.00185,1.00185,0,0,0-1.07763,0L38.23779,15.8125l-5.707-3.6543a.99753.99753,0,0,0-1.07812,0l-5.71,3.6543-5.7085-3.6543a.99754.99754,0,0,0-1.07813,0l-5.70849,3.6543-.868-.55591A16.933,16.933,0,0,1,16.3501,10H47.64941A16.93569,16.93569,0,0,1,51.61914,15.25391ZM14,6a2.00229,2.00229,0,0,1,2-2H48a2,2,0,0,1,0,4H16A2.00229,2.00229,0,0,1,14,6ZM6,22a2.00229,2.00229,0,0,1-2-2V12a2.00229,2.00229,0,0,1,2-2h7.51263a19.37847,19.37847,0,0,0-1.541,2H7a.99974.99974,0,0,0-1,1v6a.99974.99974,0,0,0,1,1H8.641c-.03052.14148-.0672.27911-.09558.42188-.10474.52679-.18988,1.05224-.26416,1.57812ZM19.51709,50.83105l4.81055-2.68554L31.001,51.87305a.99632.99632,0,0,0,.97509,0l6.67969-3.72754,5.51856,3.07715A42.23452,42.23452,0,0,1,39.62158,56H24.37842A42.47739,42.47739,0,0,1,19.51709,50.83105ZM41,60H23a1,1,0,0,1,0-2H41a1,1,0,0,1,0,2Zm4.42139-10.37207-6.27832-3.501a.9954.9954,0,0,0-.97461,0l-6.67969,3.72754L24.81543,46.127a.99633.99633,0,0,0-.9751,0l-5.55078,3.09864q-1.36963-1.87207-2.55029-3.875l.936.52246a.99633.99633,0,0,0,.9751,0l6.67725-3.72754L31.001,45.87305a.99632.99632,0,0,0,.97509,0l6.67969-3.72754,6.68506,3.72754a.99446.99446,0,0,0,.97412,0l2.42432-1.35157A46.33191,46.33191,0,0,1,45.42139,49.62793ZM60,20a2.00229,2.00229,0,0,1-2,2H55.71893c-.07434-.52661-.15954-1.05273-.26434-1.58008-.02832-.14215-.06482-.27905-.09528-.41992H57a.99974.99974,0,0,0,1-1V13a.99974.99974,0,0,0-1-1H52.02863a19.38728,19.38728,0,0,0-1.54126-2H58a2.00229,2.00229,0,0,1,2,2Z"/><text x="0" y="79" fill="#000000" font-size="5px" font-weight="bold" font-family="'Helvetica Neue', Helvetica, Arial-Unicode, Arial, Sans-serif">Created by Smalllike</text><text x="0" y="84" fill="#000000" font-size="5px" font-weight="bold" font-family="'Helvetica Neue', Helvetica, Arial-Unicode, Arial, Sans-serif">from the Noun Project</text></svg>