<svg xmlns="http://www.w3.org/2000/svg" xmlns:xlink="http://www.w3.org/1999/xlink" version="1.1" x="0px" y="0px" viewBox="0 0 66 82.5" style="enable-background:new 0 0 66 66;" xml:space="preserve"><g><path d="M60.1,40c-0.1-0.4-0.5-0.7-1-0.7h-4.8l-4.6-14c-0.1-0.4-0.5-0.7-1-0.7H44l-4.6-14c-0.1-0.4-0.5-0.7-1-0.7H27.5   c-0.4,0-0.8,0.3-1,0.7l-4.6,14h-4.8c-0.4,0-0.8,0.3-1,0.7l-4.6,14H6.8c-0.4,0-0.8,0.3-1,0.7L1,54.7C0.8,55.3,1.3,56,2,56   c54.6,0,7.3,0,62,0c0,0,0,0,0,0c0.8,0,1.2-0.8,0.9-1.5L60.1,40z M52.3,39.3c-6.6,0-11.3,0-17.9,0l4.1-12.7c0.3,0,9.9,0,9.6,0   L52.3,39.3z M43.3,51.8l-3.4-10.4h6.8L43.3,51.8z M33,37.1l-3.4-10.4h6.8L33,37.1z M28.2,12h9.6l4.1,12.7c-6.6,0-11.3,0-17.9,0   L28.2,12z M17.8,26.7c0.1,0,10,0,9.6,0l4.1,12.7c-6.6,0-11.3,0-17.9,0L17.8,26.7z M22.7,51.8l-3.4-10.4h6.8L22.7,51.8z M3.4,54   l4.1-12.7c0.1,0,10,0,9.6,0L21.3,54H3.4z M24,54l4.1-12.7c0.3,0,9.9,0,9.6,0L41.9,54H24z M44.7,54l4.1-12.7c0.3,0,9.9,0,9.6,0   L62.6,54H44.7z"/></g><text x="0" y="81" fill="#000000" font-size="5px" font-weight="bold" font-family="'Helvetica Neue', Helvetica, Arial-Unicode, Arial, Sans-serif">Created by ProSymbols</text><text x="0" y="86" fill="#000000" font-size="5px" font-weight="bold" font-family="'Helvetica Neue', Helvetica, Arial-Unicode, Arial, Sans-serif">from the Noun Project</text></svg>