<svg xmlns="http://www.w3.org/2000/svg" xmlns:xlink="http://www.w3.org/1999/xlink" version="1.1" x="0px" y="0px" viewBox="0 0 231.6 529.25" enable-background="new 0 0 231.6 423.4" xml:space="preserve"><path fill="#000000" d="M22.3,422.6"/><g><path fill="#000000" d="M136.5,42.9H95.1c-7.2,5.9-11.8,14.9-11.9,24.9h65.2C148.3,57.8,143.7,48.9,136.5,42.9z"/><path fill="#000000" d="M95.9,36.9h39.9c-4-7.5-11.5-12.5-20-12.5C107.3,24.4,99.9,29.5,95.9,36.9z"/><path fill="#000000" d="M112.1,190.4"/><path fill="#000000" d="M117.1,185c7.3,0,14.6,0.5,21.7,1.5L128,74.9v-0.4h-24.3L92.9,186.8C100.8,185.6,108.9,185,117.1,185z"/><path fill="#000000" d="M50.1,208.3l11.4,19.7c16.7-8,35.5-12.5,55.3-12.5c19,0,37.1,4.2,53.3,11.6l11.4-19.8   c-19.6-9.4-41.6-14.6-64.8-14.6C92.8,192.8,70.2,198.4,50.1,208.3z"/><path fill="#000000" d="M119.1,222.1V399h30.9V227.3C140,224,129.6,222.2,119.1,222.1z"/><path fill="#000000" d="M112.6,222.1V399H81.7V227.3C91.7,224,102,222.2,112.6,222.1z"/></g><text x="0" y="438.4" fill="#000000" font-size="5px" font-weight="bold" font-family="'Helvetica Neue', Helvetica, Arial-Unicode, Arial, Sans-serif">Created by GUSTAVO RIBEIRO VIEIRA</text><text x="0" y="443.4" fill="#000000" font-size="5px" font-weight="bold" font-family="'Helvetica Neue', Helvetica, Arial-Unicode, Arial, Sans-serif">from the Noun Project</text></svg>