<svg xmlns="http://www.w3.org/2000/svg" xmlns:xlink="http://www.w3.org/1999/xlink" version="1.1" x="0px" y="0px" viewBox="0 0 65 81.25" style="enable-background:new 0 0 65 65;" xml:space="preserve"><g><g><path d="M49.7,41.5L41,36c-0.5-0.3-1.1-0.5-1.7-0.6L34.7,35c3.8-6.1,5.3-8.4,5.9-9.4l7.2,3c0.9,0.4,2,0.4,2.9,0l7.4-3    c2.2-0.9,3-3.5,1.7-5.5c-1-1.5-3-2-4.6-1.4l-5.9,2.4l-23.5-9.9c-1-0.4-2.1-0.4-3.1,0.1L14.9,15c-1.9,0.9-2.7,3-2,4.9    c0.8,2,3.2,2.9,5.1,1.9l6.4-3l5,2.1l-9.6,13.7c-3,4.3,1.7,7.2,1.8,7.3l-3,4.8l-11,2.5c-2,0.4-3.3,2.4-2.9,4.5    c0.4,2,2.4,3.3,4.5,2.9l12.5-2.8c1-0.2,1.9-0.8,2.4-1.7c2.4-3.8,4.4-7.1,6.2-9.8l7.6,0.7l7.9,5c1.7,1.1,4.1,0.6,5.2-1.2    C52,44.9,51.5,42.6,49.7,41.5z M22.3,51c-0.2,0.4-0.7,0.7-1.1,0.8L8.7,54.6c-0.9,0.2-1.9-0.4-2.1-1.3C6.4,52.3,7,51.4,8,51.2    l11.4-2.6c0.3-0.1,0.5-0.2,0.6-0.4l3.8-6c0.3-0.5,0.1-1.1-0.3-1.4c-0.1-0.1-4.2-1.8-2.1-4.9L31.7,21c0.4-0.5,0.2-1.2-0.4-1.5    l-6.5-2.7c-0.3-0.1-0.6-0.1-0.8,0L17.1,20c-0.9,0.4-2,0-2.4-0.9c-0.3-0.8,0.1-1.9,1-2.3l7.8-3.7c0.4-0.2,1-0.2,1.4,0l23.9,10    c0.2,0.1,0.5,0.1,0.8,0l6.3-2.5c0.8-0.3,1.8-0.1,2.2,0.6c0.6,1,0.2,2.2-0.8,2.6l-7.4,3c-0.4,0.2-0.9,0.2-1.3,0l-8.1-3.4    c-0.5-0.2-1.1,0-1.3,0.6c-1.2,2.1,1.6-2.3-10.4,16.7c0,0,0,0,0,0C27,43.6,24.9,46.9,22.3,51z M49.2,45.6c-0.5,0.8-1.6,1.1-2.4,0.6    L38.7,41c-0.1-0.1-0.3-0.1-0.4-0.1l-6.8-0.6c0.8-1.2,1.5-2.3,2.1-3.3l5.7,0.5c0.3,0,0.5,0.1,0.8,0.3l8.6,5.4    C49.5,43.7,49.7,44.7,49.2,45.6z"/></g><g><path d="M37,13.4c3.2,2,7.6,1.1,9.7-2.2c2.1-3.3,1.1-7.6-2.2-9.7c-3.2-2-7.6-1.1-9.7,2.2C32.7,7.1,33.7,11.4,37,13.4z M36.5,4.8    c1.5-2.4,4.6-3,6.9-1.6c2.3,1.5,3,4.6,1.6,6.9c-1.5,2.4-4.6,3-6.9,1.6C35.7,10.3,35,7.2,36.5,4.8z"/></g><g><path d="M35.1,62.5h-1.5V46.8c0-0.6-0.4-1-1-1s-1,0.4-1,1v15.7h-1.5c-0.6,0-1,0.4-1,1s0.4,1,1,1h5c0.6,0,1-0.4,1-1    S35.7,62.5,35.1,62.5z"/></g><g><path d="M7.7,31.3c0-0.6-0.4-1-1-1H1.5c-0.6,0-1,0.4-1,1s0.4,1,1,1h5.2C7.3,32.3,7.7,31.8,7.7,31.3z"/></g><g><path d="M59.8,37.6c0-0.6-0.4-1-1-1h-4c-0.6,0-1,0.4-1,1s0.4,1,1,1h4C59.3,38.6,59.8,38.1,59.8,37.6z"/></g><g><path d="M63.5,54.6h-6.2c-0.6,0-1,0.4-1,1s0.4,1,1,1h6.2c0.6,0,1-0.4,1-1S64.1,54.6,63.5,54.6z"/></g></g><text x="0" y="80" fill="#000000" font-size="5px" font-weight="bold" font-family="'Helvetica Neue', Helvetica, Arial-Unicode, Arial, Sans-serif">Created by ProSymbols</text><text x="0" y="85" fill="#000000" font-size="5px" font-weight="bold" font-family="'Helvetica Neue', Helvetica, Arial-Unicode, Arial, Sans-serif">from the Noun Project</text></svg>