<svg xmlns="http://www.w3.org/2000/svg" xmlns:xlink="http://www.w3.org/1999/xlink" version="1.1" x="0px" y="0px" viewBox="0 0 64 80" style="enable-background:new 0 0 64 64;" xml:space="preserve"><path d="M40.005,15.706c-0.1,2.775,1.217,5.361,3.522,6.919C43.823,22.824,44,23.14,44,23.468V26c0,0.553,0.448,1,1,1h6  c0.552,0,1-0.447,1-1v-2.534c0-0.328,0.172-0.64,0.461-0.833C54.677,21.142,56,18.662,56,16c0-2.162-0.849-4.188-2.39-5.703  c-1.541-1.516-3.569-2.354-5.745-2.296C43.682,8.07,40.156,11.527,40.005,15.706z M47.898,10.001  c1.622-0.047,3.154,0.585,4.31,1.722S54,14.379,54,16c0,1.995-0.993,3.854-2.655,4.973C50.503,21.539,50,22.471,50,23.466V25h-4  v-1.532c0-0.993-0.506-1.929-1.354-2.501c-1.729-1.168-2.717-3.107-2.642-5.188C42.117,12.645,44.761,10.053,47.898,10.001z"/><path d="M46,16c0-1.103,0.897-2,2-2v-2c-2.206,0-4,1.794-4,4v1h2V16z"/><rect x="45" y="28" width="6" height="2"/><rect x="46" y="31" width="4" height="2"/><rect x="47" y="2" width="2" height="4"/><rect x="58" y="15" width="4" height="2"/><rect x="34" y="15" width="4" height="2"/><rect x="38.515" y="5.515" transform="matrix(0.7071 -0.7071 0.7071 0.7071 6.2599 30.1421)" width="2" height="4"/><rect x="54.486" y="6.515" transform="matrix(0.7071 -0.7071 0.7071 0.7071 11.2305 42.1422)" width="4" height="2"/><path d="M9,62h36c0.343,0,0.663-0.176,0.846-0.467c0.184-0.29,0.205-0.654,0.057-0.965l-0.212-0.443  c-1.61-3.368-1.538-7.354,0.195-10.661c0.163-0.31,0.151-0.682-0.03-0.981S45.35,48,45,48H35v-9c0-2.757-2.243-5-5-5h-0.54  c0.954-1.063,1.54-2.462,1.54-4c0-1.191-0.355-2.314-1-3.286v-4.327l1.316-0.439C31.725,21.812,32,21.431,32,21  s-0.275-0.812-0.684-0.948l-6-2c-0.206-0.068-0.427-0.068-0.633,0l-6,2C18.275,20.188,18,20.569,18,21s0.275,0.812,0.684,0.948  L20,22.387v4.327c-0.645,0.972-1,2.094-1,3.286c0,1.538,0.586,2.937,1.54,4H20c-2.757,0-5,2.243-5,5v9H9c-3.86,0-7,3.141-7,7  S5.14,62,9,62z M25,20.054L27.838,21L25,21.946L22.162,21L25,20.054z M24.684,23.948C24.787,23.982,24.893,24,25,24  s0.213-0.018,0.316-0.052L28,23.054V26h-6v-2.946L24.684,23.948z M21,30c0-0.719,0.193-1.399,0.544-2h6.911  C28.807,28.601,29,29.281,29,30c0,2.206-1.794,4-4,4S21,32.206,21,30z M17,39c0-1.654,1.346-3,3-3h10c1.654,0,3,1.346,3,3v9h-2v-9  h-2v9h-8v-9h-2v9h-2V39z M9,50h34.453c-1.227,3.204-1.229,6.79,0.007,10H9c-2.757,0-5-2.243-5-5S6.243,50,9,50z"/><rect x="10" y="52" width="23" height="2"/><rect x="18" y="56" width="22" height="2"/><text x="0" y="79" fill="#000000" font-size="5px" font-weight="bold" font-family="'Helvetica Neue', Helvetica, Arial-Unicode, Arial, Sans-serif">Created by Nithinan Tatah</text><text x="0" y="84" fill="#000000" font-size="5px" font-weight="bold" font-family="'Helvetica Neue', Helvetica, Arial-Unicode, Arial, Sans-serif">from the Noun Project</text></svg>