<svg id="Layer_1" data-name="Layer 1" xmlns="http://www.w3.org/2000/svg" viewBox="0 0 550 318.49"><defs><style>.cls-1{fill:#231f20;}</style></defs><path class="cls-1" d="M27.66,286l.56.33L31.1,310a2.16,2.16,0,0,0,.77,1.46,2.18,2.18,0,0,0,1.37.5H35v1H26v-1h.71c.2.38.41.25.62,0a1.11,1.11,0,0,0,.29-.88L26,293.34l-7.51,16.83s0,.16-.07.47-.18.77-.31,1.37-.25,1.27-.38,2H16.44L7.26,294.14,5.41,311a1.32,1.32,0,0,0,.59.93A1.22,1.22,0,0,0,7,312H8v1H0v-1H1.15a2.16,2.16,0,0,0,1.36-.5A2.21,2.21,0,0,0,3.29,310l2.8-24H7.35l9.9,21.38L26.92,286Z"/><path class="cls-1" d="M47,312.87V314H38v-1h1c.46-.48.88-.67,1.25-1a4.86,4.86,0,0,0,.73-1.46v-21a4.86,4.86,0,0,0-.73-1.46c-.37-.36-.79-.55-1.25-1.05H38v-1h9.4l0,1H45.91a1.82,1.82,0,0,0-1.31.55A2.13,2.13,0,0,0,44,289v21.72a2.23,2.23,0,0,0,.6,1.51,1.81,1.81,0,0,0,1.31.57Z"/><path class="cls-1" d="M73,286h9v1H80.41a10.74,10.74,0,0,1-1.21,1.05c-.36.35-.2,1.39-.2,1.39V309a13.53,13.53,0,0,0-.35,2.33c0,.75,0,1.28,0,1.6s0,.75-.06,1.08h-.83L58,292.66v18.19a.92.92,0,0,0,.37,1.27c.42.29,1.35-.12,1.35-.12H61v2H52v-2h1.26a1.63,1.63,0,0,0,1.17-.53,2,2,0,0,0,.57-1.4V290.4c0-.76,0-2.44,0-5l.87-.08L76,306.81V289.48a2.34,2.34,0,0,0-.56-1.39A7.59,7.59,0,0,1,74,287H73Z"/><path class="cls-1" d="M96,312.87V314H86v-1h1.5c.45-.48.87-.67,1.25-1s.25-1.46.25-1.46v-21s.13-1.09-.25-1.46A14.24,14.24,0,0,1,87.5,287H86v-1h9.87l0,1h-.92a1.82,1.82,0,0,0-1.31.55A2.13,2.13,0,0,0,93,289v21.72a2.23,2.23,0,0,0,.6,1.51,1.81,1.81,0,0,0,1.31.57Z"/><path class="cls-1" d="M126.66,286l.56.33L130.1,310a2.16,2.16,0,0,0,.77,1.46,2.18,2.18,0,0,0,1.37.5H134v1h-9v-1h1c.21.38.41.25.63,0a1.11,1.11,0,0,0,.28-.88l-1.63-17.81-7.5,16.83s0,.16-.08.47l-.3,1.37c-.13.59-.25,1.27-.38,2h-1.29l-9.17-19.86L104.66,311a1.39,1.39,0,0,0,.59.93,1.25,1.25,0,0,0,1,.07H107v1H99v-1h1.15a2.16,2.16,0,0,0,1.36-.5,2.21,2.21,0,0,0,.78-1.46l2.8-24h1.26l9.9,21.38L125.92,286Z"/><path class="cls-1" d="M166.34,312H167v1H157v-1h.86a1.09,1.09,0,0,0,.81-.45,1.54,1.54,0,0,0,.1-1.47l-2.3-6.08H146.6l-2.52,6.12a1.11,1.11,0,0,0,.06,1.05,1.58,1.58,0,0,0,.77.62,2.07,2.07,0,0,0,.79.21H147v1h-9v-1h.92a2.94,2.94,0,0,0,1.46-.48,3.63,3.63,0,0,0,1.34-1.67q9.12-21.59,9.4-22.26c.18-.45.34-.88.48-1.31a4,4,0,0,0,.21-1.28h1.38l10.35,24.85a3.93,3.93,0,0,0,1.36,1.67A2.85,2.85,0,0,0,166.34,312Zm-19.57-10H156l-4-10.76Z"/><path class="cls-1" d="M188.68,307h.82L187,314H170v-1h1.09a1.81,1.81,0,0,0,1.29-.57,2.18,2.18,0,0,0,.62-1.52V289.09a2.18,2.18,0,0,0-.62-1.52,1.81,1.81,0,0,0-1.29-.57H170v-1h9.36l0,1h-1c-.48.5-.9.69-1.27,1.05s0,1.46,0,1.46V312h4.89a6.78,6.78,0,0,0,3-.57,5.33,5.33,0,0,0,1.91-1.62C187.32,309.11,187.94,308.17,188.68,307Z"/><path class="cls-1" d="M202,312.87V314H192v-1h1.23c.46-.48.87-.67,1.25-1a3.29,3.29,0,0,0,.52-1.46v-21a3.29,3.29,0,0,0-.52-1.46,15.87,15.87,0,0,1-1.25-1.05H192v-1h9.61l0,1h-.66a1.82,1.82,0,0,0-1.31.55A2.13,2.13,0,0,0,199,289v21.72a2.23,2.23,0,0,0,.6,1.51,1.81,1.81,0,0,0,1.31.57Z"/><path class="cls-1" d="M213,295.14l7.43,6.86a5.73,5.73,0,0,1,1.57,2.34,7.82,7.82,0,0,1,.41,2.41,7.21,7.21,0,0,1-2,5.28,7.4,7.4,0,0,1-5.54,2.07,14.6,14.6,0,0,1-3.45-.49,7.27,7.27,0,0,1-3.38-1.79,3.26,3.26,0,0,1-.11-.48,19.3,19.3,0,0,1-.53-2.41,6.6,6.6,0,0,1,.23-2.93h.93a5.72,5.72,0,0,0,1.64,4.9,5.93,5.93,0,0,0,4.23,1.55,5.28,5.28,0,0,0,3.27-1.35,4.42,4.42,0,0,0,1.37-3.44,4.22,4.22,0,0,0-1.39-3.36l-7.42-6.91a6.55,6.55,0,0,1-1.72-2.49,7.39,7.39,0,0,1-.48-2.49,7,7,0,0,1,.81-3.26,6.77,6.77,0,0,1,2.47-2.61,7.54,7.54,0,0,1,4.06-1,22.87,22.87,0,0,1,2.3.17c1,.12,1.75.23,2.29.33h2v6h-1.46a3.89,3.89,0,0,0-1.71-3.17,5.48,5.48,0,0,0-3.14-1.12,3.58,3.58,0,0,0-2.84,1.32,4.48,4.48,0,0,0-1.12,2.93,5,5,0,0,0,.3,1.59A4.25,4.25,0,0,0,213,295.14Z"/><path class="cls-1" d="M234.47,286h15.35c.44,0,1.29,0,2.55,0l.1,5.16-1.47,0V290a2.05,2.05,0,0,0-.48-1.42,1.6,1.6,0,0,0-1.1-.58H243v22.55s-.08,1.08.3,1.44.79.53,1.25,1h1l0,1H236v-2h1.09a1.82,1.82,0,0,0,1.27-.52,2.11,2.11,0,0,0,.64-1.39V288h-6.5a6.11,6.11,0,0,0-1.14.77,1.4,1.4,0,0,0-.36,1.35v1l-2,0v-4.89c1.84,0,2.83,0,3.32-.29h2.15Z"/><path class="cls-1" d="M274,295.14l7.43,6.86a5.73,5.73,0,0,1,1.57,2.34,7.82,7.82,0,0,1,.41,2.41,7.21,7.21,0,0,1-2,5.28,7.4,7.4,0,0,1-5.54,2.07,14.6,14.6,0,0,1-3.45-.49,7.27,7.27,0,0,1-3.38-1.79,3.26,3.26,0,0,1-.11-.48,19.3,19.3,0,0,1-.53-2.41,6.6,6.6,0,0,1,.23-2.93h.93a5.72,5.72,0,0,0,1.64,4.9,5.93,5.93,0,0,0,4.23,1.55,5.28,5.28,0,0,0,3.27-1.35,4.42,4.42,0,0,0,1.37-3.44,4.22,4.22,0,0,0-1.39-3.36l-7.42-6.91a6.55,6.55,0,0,1-1.72-2.49,7.39,7.39,0,0,1-.48-2.49,7,7,0,0,1,.81-3.26,6.77,6.77,0,0,1,2.47-2.61,7.54,7.54,0,0,1,4.06-1,22.87,22.87,0,0,1,2.3.17c1,.12,1.75.23,2.29.33h2v6h-1.46a3.89,3.89,0,0,0-1.71-3.17,5.48,5.48,0,0,0-3.14-1.12,3.58,3.58,0,0,0-2.84,1.32,4.48,4.48,0,0,0-1.12,2.93,5,5,0,0,0,.3,1.59A4.25,4.25,0,0,0,274,295.14Z"/><path class="cls-1" d="M297,301.85V311a2.11,2.11,0,0,0,.59,1.46,1.72,1.72,0,0,0,1.27.55h1.55l0,1H291v-1h1.07c.46-.48.87-.67,1.25-1a4.39,4.39,0,0,0,.68-1.46v-21a4.32,4.32,0,0,0-.68-1.43,15.87,15.87,0,0,1-1.25-1.05H291v-1h9.45l0,1h-1s-.91.68-1.27,1a1,1,0,0,0-.12,1.45v9l8.63-9.78a.9.9,0,0,0,.15-.89c-.13-.24-.57-.83-.57-.83L305,288v-2h9v2h-.55a5.08,5.08,0,0,0-3.66,1.58l-9.58,9.67,11,12.27a5.11,5.11,0,0,0,3.75,1.35V314h-2.2a12.94,12.94,0,0,1-2.9-.36,6.69,6.69,0,0,1-3.44-2Z"/><path class="cls-1" d="M328,312.87V314H318v-1h1.28c.46-.48.88-.67,1.25-1a3,3,0,0,0,.47-1.46v-21a3,3,0,0,0-.47-1.46c-.37-.36-.79-.55-1.25-1.05H318v-1h9.66l0,1h-.71a1.82,1.82,0,0,0-1.31.55A2.13,2.13,0,0,0,325,289v21.72a2.23,2.23,0,0,0,.6,1.51,1.81,1.81,0,0,0,1.31.57Z"/><path class="cls-1" d="M350.68,307h.82L349,314H332v-1h1.09a1.81,1.81,0,0,0,1.29-.57,2.18,2.18,0,0,0,.62-1.52V289.09a2.18,2.18,0,0,0-.62-1.52,1.81,1.81,0,0,0-1.29-.57H332v-1h9.45l0,1h-1c-.48.5-.9.69-1.27,1.05s-.12,1.46-.12,1.46V312h4.89a6.78,6.78,0,0,0,3-.57,5.33,5.33,0,0,0,1.91-1.62C349.32,309.11,349.94,308.17,350.68,307Z"/><path class="cls-1" d="M372.68,307h.82L371,314H354v-1h1.09a1.81,1.81,0,0,0,1.29-.57,2.18,2.18,0,0,0,.62-1.52V289.09a2.18,2.18,0,0,0-.62-1.52,1.81,1.81,0,0,0-1.29-.57H354v-1h9.7l0,1h-1c-.48.5-.9.69-1.27,1.05s-.37,1.46-.37,1.46V312h4.89a6.78,6.78,0,0,0,3-.57,5.33,5.33,0,0,0,1.91-1.62C371.32,309.11,371.94,308.17,372.68,307Z"/><path class="cls-1" d="M386,312.87V314H376v-1h1.57c.46-.48.87-.67,1.25-1s.18-1.46.18-1.46v-21s.2-1.09-.18-1.46a15.87,15.87,0,0,1-1.25-1.05H376v-1H386l0,1h-1a1.82,1.82,0,0,0-1.31.55A2.13,2.13,0,0,0,383,289v21.72a2.23,2.23,0,0,0,.6,1.51,1.81,1.81,0,0,0,1.31.57Z"/><path class="cls-1" d="M412,286h8v1h-1a9.93,9.93,0,0,1-1.22,1.05,5.46,5.46,0,0,0-.74,1.39V309s.18,1.59.19,2.33,0,1.28,0,1.6,0,.75-.05,1.08h-.84L396,292.66v18.19a3,3,0,0,0,.92,1.27c.42.29,1.34-.12,1.34-.12H400v2h-9v-2h1.26a1.63,1.63,0,0,0,1.17-.53,2,2,0,0,0,.57-1.4V290.4c0-.76,0-2.44,0-5l.87-.08L415,306.81V289.48a5.43,5.43,0,0,0-1-1.39,7.59,7.59,0,0,1-1.44-1.09H412Z"/><path class="cls-1" d="M454,300.47V301h-.63s-1.28.67-1.37,1.55v6.33a10.83,10.83,0,0,1-2.44,2.44,13.74,13.74,0,0,1-3.79,1.94,16.19,16.19,0,0,1-5.21.77,14.21,14.21,0,0,1-10.27-4,14.1,14.1,0,0,1,10.27-24.25,17.67,17.67,0,0,1,5.53.76,17,17,0,0,1,4.21,2l-.19,5.43h-1.33a10.63,10.63,0,0,0-2.82-4.68,8,8,0,0,0-5.4-1.66,9.2,9.2,0,0,0-7.32,3.33,13.3,13.3,0,0,0-2.84,8.91q0,5.57,2.81,8.87a10.19,10.19,0,0,0,14.79.38v-6.6c.52-.86-.88-1.55-.88-1.55H446v-1h8Z"/><path class="cls-1" d="M477,300.92v9.59a1.39,1.39,0,0,0,.38,1.46,16,16,0,0,0,1.27,1h1l0,1H470v-1h1.33c.46-.48.88-.67,1.25-1a2.83,2.83,0,0,0,.42-1.46v-21a2.83,2.83,0,0,0-.42-1.46c-.37-.36-.79-.55-1.25-1.05h-1.06l.57-1h10.23a10.25,10.25,0,0,1,5.84,2.41,7.23,7.23,0,0,1,2.12,5.46,8,8,0,0,1-2,5.23c-1.31,1.59-2.42,2.39-3.33,2.39-.13,0,0,.25.38.66s.59.67.64.74l0,0c.07.13.33.48.76,1.06q.75,1.1,1.53,2.16c.52.71,1,1.4,1.55,2.07s1,1.22,1.35,1.65a10.86,10.86,0,0,0,2.14,1.91,10.28,10.28,0,0,0,2.88.74V314h-2.44a27.54,27.54,0,0,1-3.3-.93,8.88,8.88,0,0,1-2.29-1.39,11.79,11.79,0,0,1-1.54-1.55c-.15-.23-.54-.78-1.17-1.67s-1.29-1.82-2-2.8l-1.24-1.76c-.34-.5-.53-.79-.58-.89a6.87,6.87,0,0,0-2.09-1.56A11.08,11.08,0,0,0,477,300.92Zm0-1.55,1.29-.08c.5,0,1,0,1.4,0a7.18,7.18,0,0,0,3-.63,4.69,4.69,0,0,0,2.38-3,6.81,6.81,0,0,0,.23-2.2q-.25-5-4.17-5.42c-1.44-.05-2.7-.06-3.79,0H477Z"/><path class="cls-1" d="M505,301.26v9.25s0,1.09.35,1.46.79.55,1.27,1H508v1H498v-1h1.3c.46-.48.87-.67,1.25-1a3,3,0,0,0,.45-1.46V289.32a2.93,2.93,0,0,0-.48-1.32,12.1,12.1,0,0,1-1.22-1h-1l.53-1h9.89a10.92,10.92,0,0,1,6.14,2.45,7.31,7.31,0,0,1,2.24,5.61,6.39,6.39,0,0,1-1.31,4,9.22,9.22,0,0,1-3.34,2.73,10.31,10.31,0,0,1-4.3,1.08A13.61,13.61,0,0,1,505,301.26Zm0-1.62.61,0a11.55,11.55,0,0,0,2.65-.17,7.22,7.22,0,0,0,2.86-1.12,5.09,5.09,0,0,0,2-2.72,7.23,7.23,0,0,0,.23-2.24,6.47,6.47,0,0,0-1.25-4,4,4,0,0,0-3.3-1.44H505Z"/><path class="cls-1" d="M550,300.47V301h-.22s-1.27.67-.78,1.55v6.33c-1.17.86-2,1.67-3,2.44a13.59,13.59,0,0,1-3.79,1.94A16.14,16.14,0,0,1,537,314a14.23,14.23,0,0,1-10.27-4A14.1,14.1,0,0,1,537,285.8a17.74,17.74,0,0,1,5.54.76,17,17,0,0,1,4.2,2l-.19,5.43H545.2a10.65,10.65,0,0,0-2.83-4.68,8,8,0,0,0-5.4-1.66,9.16,9.16,0,0,0-7.31,3.33c-1.9,2.23-2.84,5.19-2.84,8.91s.93,6.67,2.8,8.87a9.43,9.43,0,0,0,7.35,3.37,11.74,11.74,0,0,0,8-3v-6.6c-.07-.86-1.47-1.55-1.47-1.55H542v-1h8Z"/><path class="cls-1" d="M250.52,126c-20.07-5-34.85-20.63-34.85-49.35,0-38.75,22.58-48.51,50.19-48.51,27.38,0,49.83,15.1,50.18,53.19.07,8.56-5,16.51-13.1,19.32C289.8,105.16,277,94.87,277,82.18c0-42.66-4.46-50.47-11.15-50.47S254.7,34,254.7,76.6c0,39.59,4.46,47.4,11.16,47.4H335v3.62c-6.69,0-11.15,7.81-11.15,56,0,38.75-22.31,54.08-54.09,54.08s-54.09-15.33-54.09-54.08C215.67,148,230.45,131,250.52,126Zm18.9,108.56c10.88,0,15.06-7.81,15.06-50.47,0-32.34,12-49.35,29.27-56H265.52c-6.69,0-11.15,7.81-11.15,56C254.37,226.7,258.55,234.51,269.42,234.51Z"/><path class="cls-1" d="M33,28H173V86h-1.91L129.78,32H124V218.23c0,10.5,2.6,17.22,13,17.22V238H70v-2.55c10.4,0,13-6.72,13-17.22V32H77.22L35.91,86H33Z"/><path class="cls-1" d="M377,28H517V86h-2.91L472.78,32H467V218.23c0,10.5,2.6,17.22,13,17.22V238H413v-2.55c10.4,0,13-6.72,13-17.22V32h-5.78L378.91,86H377Z"/><path class="cls-1" d="M543,266H8V0H543ZM14,260H536V6H14Z"/></svg>