<svg xmlns="http://www.w3.org/2000/svg" xmlns:xlink="http://www.w3.org/1999/xlink" version="1.1" x="0px" y="0px" viewBox="0 0 100 125" style="enable-background:new 0 0 100 100;" xml:space="preserve"><path d="M70.1766357,68.7910767c3.8303223-6.3721924,5.8272705-12.7434692,5.8272705-18.7964478  c0-6.0507202-1.9953613-12.4191895-5.8225098-18.7887573l8.9812012-8.9689331  c1.0671387,0.7489014,2.3112793,1.1375732,3.5629883,1.1375732c1.5908203,0,3.1816406-0.6049805,4.3935547-1.8144531  c3.2109375-3.2060547,2.7626953-10.2866211,2.7421875-10.5864258c-0.0341797-0.4926758-0.4228516-0.8867188-0.9150391-0.9277344  c-0.2978516-0.0249023-7.3046875-0.5683594-10.6132812,2.7363281c-0.0009766,0-0.0009766,0-0.0009766,0  c-1.1738281,1.1723633-1.8203125,2.730957-1.8203125,4.3891602c0,1.3415527,0.4299316,2.6143188,1.213501,3.6738281  l-8.6343994,8.6226196c-1.6697388-2.5550537-3.6237793-5.1057739-5.8730469-7.6314087  c-6.2734375-7.043457-12.4501953-11.3637695-12.7099609-11.5439453c-0.0365601-0.0253296-0.078186-0.0371094-0.1170044-0.0570679  c-0.0353394-0.0183105-0.0679321-0.0374146-0.1055908-0.0514526c-0.225647-0.0844727-0.4699097-0.0844727-0.6954956,0  c-0.0375977,0.0140381-0.0701294,0.0330811-0.1053467,0.0513916c-0.0388794,0.0199585-0.0805664,0.0317383-0.1171875,0.0571289  c-0.2597656,0.1801758-6.4365234,4.5004883-12.7099609,11.5439453c-2.2470093,2.5231323-4.1994629,5.0712891-5.868103,7.6237183  l-8.6275635-8.6149292C22.9451904,19.7857056,23.375,18.5129395,23.375,17.1713867  c0-1.6582031-0.6464844-3.2167969-1.8203125-4.3891602c0,0,0,0-0.0009766,0  c-3.3085938-3.3041992-10.3154297-2.7597656-10.6132812-2.7363281c-0.4921875,0.0410156-0.8808594,0.4350586-0.9150391,0.9277344  c-0.0205078,0.2998047-0.46875,7.3803711,2.7421875,10.5864258c1.2119141,1.2094727,2.8027344,1.8144531,4.3935547,1.8144531  c1.251709,0,2.4959106-0.3887329,3.5629883-1.1376343l8.9741211,8.9610596  c-3.8302612,6.3721924-5.8271484,12.7434082-5.8271484,18.7966919c0,6.0778809,2.0122681,12.4765625,5.8735352,18.874939  L10.2929688,88.2924805c-0.390625,0.3901367-0.390625,1.0234375-0.0009766,1.4140625C10.4873047,89.9023438,10.7441406,90,11,90  s0.5117188-0.0976562,0.7070312-0.2924805l19.1309814-19.1027832c1.6578369,2.5269775,3.5945435,5.0495605,5.8192139,7.5476074  c6.2734375,7.0439453,12.4501953,11.3642578,12.7099609,11.5444336c0.171875,0.1191406,0.3710938,0.1787109,0.5703125,0.1787109  s0.3984375-0.0595703,0.5703125-0.1787109c0.2597656-0.1801758,6.4365234-4.5004883,12.7099609-11.5444336  c2.2469482-2.5230713,4.1993408-5.071167,5.8679199-7.6235352l19.2072754,19.1787109C88.4882812,89.9023438,88.7441406,90,89,90  s0.5126953-0.0976562,0.7080078-0.293457c0.3896484-0.390625,0.3896484-1.0239258-0.0009766-1.4140625L70.1766357,68.7910767z   M79.7451172,14.1972656c2.0546875-2.0507812,6.2949219-2.2285156,8.1503906-2.1933594  c0.0136719,2.2270508-0.3486328,6.3022461-2.1904297,8.1411133c-1.6425781,1.640625-4.3164062,1.640625-5.9589844,0  c-0.7958984-0.7944336-1.234375-1.8505859-1.234375-2.9736328c0-1.1235352,0.4384766-2.1796875,1.234375-2.9741211H79.7451172z   M14.1816406,20.1450195c-1.8417969-1.8388672-2.2041016-5.9140625-2.1904297-8.1411133  c1.8603516-0.0380859,6.0957031,0.1425781,8.1503906,2.1933594H20.140625  c0.7958984,0.7944336,1.234375,1.8505859,1.234375,2.9741211c0,1.1230469-0.4384766,2.1791992-1.234375,2.9736328  C18.4980469,21.7856445,15.8242188,21.7856445,14.1816406,20.1450195z M64.9729614,72.8417358  c-5.973877-7.8154297-9.0100708-15.4981689-9.0100708-22.8471069c0-7.3501587,3.0372314-15.0342407,9.0130005-22.8509521  c4.8856812,6.3909302,9.0280151,14.3182983,9.0280151,22.8509521  C74.0039062,58.5217285,69.8598633,66.4491577,64.9729614,72.8417358z M63.6969604,25.5230713  c-6.1844482,7.9630737-9.4451294,15.8519897-9.7080078,23.4715576H50.9375V13.1104736  C53.5074463,15.1057129,58.8148804,19.5368652,63.6969604,25.5230713z M48.9375,13.1112671v35.8833618h-3.4020386  c-0.260376-7.5472412-3.4643555-15.3587646-9.5350342-23.244751C40.9307251,19.6513672,46.3364258,15.1325684,48.9375,13.1112671z   M34.7261353,27.3764648c5.8585205,7.7364502,8.8353882,15.3410034,8.8353882,22.6181641s-2.9768677,14.8815918-8.8352661,22.618042  c-4.8103027-6.3522949-8.8551636-14.1930542-8.8551636-22.618042C25.8710938,41.569458,29.9158325,33.7287598,34.7261353,27.3764648  z M36.0005493,74.2392578c6.0706177-7.8859253,9.2745361-15.6974487,9.5349121-23.2446289H48.9375v35.8829346  C46.3364868,84.8564453,40.9308472,80.3376465,36.0005493,74.2392578z M50.9375,86.8775635V50.9946289h3.0514526  c0.2628174,7.6184082,3.522583,15.5061035,9.7051392,23.4677734C58.8127441,80.4482422,53.5067749,84.8811035,50.9375,86.8775635z"/><path d="M34.7939453,56.0693359c3.3496094,0,6.0742188-2.7250977,6.0742188-6.074707s-2.7246094-6.074707-6.0742188-6.074707  s-6.0742188,2.7250977-6.0742188,6.074707S31.4443359,56.0693359,34.7939453,56.0693359z M34.7939453,45.9199219  c2.2460938,0,4.0742188,1.828125,4.0742188,4.074707s-1.828125,4.074707-4.0742188,4.074707s-4.0742188-1.828125-4.0742188-4.074707  S32.5478516,45.9199219,34.7939453,45.9199219z"/><path d="M64.9208984,43.9199219c-3.3496094,0-6.0742188,2.7250977-6.0742188,6.074707s2.7246094,6.074707,6.0742188,6.074707  s6.0751953-2.7250977,6.0751953-6.074707S68.2705078,43.9199219,64.9208984,43.9199219z M64.9208984,54.0693359  c-2.2460938,0-4.0742188-1.828125-4.0742188-4.074707s1.828125-4.074707,4.0742188-4.074707  c2.2470703,0,4.0751953,1.828125,4.0751953,4.074707S67.1679688,54.0693359,64.9208984,54.0693359z"/><text x="0" y="115" fill="#000000" font-size="5px" font-weight="bold" font-family="'Helvetica Neue', Helvetica, Arial-Unicode, Arial, Sans-serif">Created by Made x Made</text><text x="0" y="120" fill="#000000" font-size="5px" font-weight="bold" font-family="'Helvetica Neue', Helvetica, Arial-Unicode, Arial, Sans-serif">from the Noun Project</text></svg>