<svg xmlns="http://www.w3.org/2000/svg" viewBox="0 0 512 512">
	<path
		d="M441.524 287.071C441.524 469.72 256.007 512 256.007 512S70.489 469.72 70.489 287.071c0-13.428 1.421-25.813 4.12-37.208 2.66-11.212 6.558-21.446 11.564-30.781 56.177-9.882 113.005-14.81 169.834-14.81s113.657 4.928 169.834 14.81c5.006 9.335 8.904 19.569 11.564 30.781 2.698 11.394 4.119 23.78 4.119 37.208z"
		fill="#f7b239" />
	<path
		d="M425.841 219.083c-56.177-9.882-101.272-55.134-158.101-55.134-47.099 0-69.303 12.771-116.03 19.556-.593.086-13.748-15.732-14.341-15.644-3.718.546-8.153 14.965-11.868 15.556-1.022.162-10.578 1.227-11.599 1.392-4.309.699-23.429 33.518-27.73 34.274-5.006 9.335-8.904 19.569-11.564 30.781-2.699 11.394-4.12 23.78-4.12 37.208C70.489 469.72 256.007 512 256.007 512s-119.982-45.133-119.982-240.109c0-11.274.576-21.85 1.669-31.775a981.105 981.105 0 01118.313-7.161 980.279 980.279 0 01169.834 14.81c3.859.678 7.705 1.382 11.564 2.099-2.66-11.213-6.558-21.447-11.564-30.781z"
		fill="#e09b2d" />
	<path
		d="M256.38 130.254c-.154 0-.308-.004-.462-.01-5.391-.252-9.559-4.821-9.314-10.212.01-.236.961-23.864-6.366-48.24-9.207-30.629-26.8-48.246-52.29-52.361-5.331-.86-8.955-5.88-8.095-11.211.86-5.331 5.882-8.954 11.212-8.095 33.196 5.358 56.73 28.37 68.055 66.548 8.157 27.5 7.071 53.178 7.02 54.258a9.78 9.78 0 01-9.76 9.323z"
		fill="#995c0d" />
	<path
		d="M456.973 205.289c0 6.375-.652 12.855-1.995 19.373a980.279 980.279 0 00-198.972-20.39 980.279 980.279 0 00-198.985 20.39c-11.368-54.912 27.117-107.595 82.877-113.618a1080.115 1080.115 0 01232.203 0c49.151 5.306 84.872 46.869 84.872 94.245z"
		fill="#b27214" />
	<path
		d="M222.468 111.044a1080.12 1080.12 0 0174.817-5.456 1080.051 1080.051 0 00-157.386 5.456c-55.76 6.023-94.245 58.706-82.877 113.618a978.495 978.495 0 0180.805-13.246c-3.236-49.874 33.388-94.835 84.641-100.372z"
		fill="#995c0d" />
</svg>