<?xml version="1.0" encoding="utf-8"?>
<!-- Generator: Adobe Illustrator 25.0.0, SVG Export Plug-In . SVG Version: 6.00 Build 0)  -->
<svg version="1.1" id="publicdomainvectors.org" xmlns="http://www.w3.org/2000/svg" xmlns:xlink="http://www.w3.org/1999/xlink"
	 x="0px" y="0px" viewBox="0 0 425.8 591.5" style="enable-background:new 0 0 425.8 591.5;" xml:space="preserve">
<style type="text/css">
	.st0{fill-rule:evenodd;clip-rule:evenodd;fill:#1A1A1A;}
	.st1{fill-rule:evenodd;clip-rule:evenodd;fill:#333333;}
	.st2{fill-rule:evenodd;clip-rule:evenodd;fill:#996633;}
	.st3{fill-rule:evenodd;clip-rule:evenodd;fill:#AD7E4F;}
	.st4{fill-rule:evenodd;clip-rule:evenodd;fill:#C99B6D;}
	.st5{fill-rule:evenodd;clip-rule:evenodd;fill:#FFCC00;}
	.st6{fill-rule:evenodd;clip-rule:evenodd;fill:#FFD940;}
	.st7{fill-rule:evenodd;clip-rule:evenodd;fill:#FFE98F;}
	.st8{fill-rule:evenodd;clip-rule:evenodd;fill:#6C3300;}
	.st9{fill-rule:evenodd;clip-rule:evenodd;fill:#975526;}
	.st10{fill-rule:evenodd;clip-rule:evenodd;fill:#4F2D0A;}
	.st11{fill-rule:evenodd;clip-rule:evenodd;fill:#613A12;}
	.st12{fill-rule:evenodd;clip-rule:evenodd;fill:#7A5127;}
	.st13{fill-rule:evenodd;clip-rule:evenodd;fill:#D6AB00;}
</style>
<g>
	<path class="st0" d="M4.4,270.8L4.4,270.8c3.6-1.2,8.9,0.3,11.7,3.2l16.1,16.8c2.8,3,2.2,6.3-1.4,7.5l0,0
		c-3.6,1.2-8.9-0.3-11.7-3.2L3,278.3C0.1,275.4,0.7,272,4.4,270.8z"/>
	<path class="st1" d="M4.9,273.8L4.9,273.8c1.7-0.6,4.2,0.1,5.6,1.5L26.4,292c1.3,1.4,1.1,3-0.7,3.6l0,0c-1.7,0.6-4.2-0.1-5.6-1.5
		L4.3,277.4C2.9,276,3.2,274.4,4.9,273.8z"/>
	<path class="st0" d="M18,270.5L18,270.5c3.6-1.2,8.9,0.3,11.7,3.2c5.4,5.6,10.7,11.2,16.1,16.8c2.8,3,2.2,6.3-1.4,7.5c0,0,0,0,0,0
		c-3.6,1.2-8.9-0.3-11.7-3.2c-5.4-5.6-10.7-11.2-16.1-16.8C13.8,275.1,14.4,271.7,18,270.5z"/>
	<path class="st1" d="M18.6,273.5L18.6,273.5c1.7-0.6,4.2,0.1,5.6,1.5c5.3,5.5,10.6,11.1,15.9,16.6c1.3,1.4,1,3-0.7,3.6l0,0
		c-1.7,0.6-4.2-0.1-5.6-1.5c-5.3-5.5-10.6-11.1-15.9-16.6C16.6,275.6,16.9,274,18.6,273.5z"/>
	<path class="st0" d="M31.7,270.2L31.7,270.2c3.6-1.2,8.9,0.3,11.7,3.2c5.4,5.6,10.7,11.2,16.1,16.8c2.8,3,2.2,6.3-1.4,7.5
		c0,0,0,0,0,0c-3.6,1.2-8.9-0.3-11.7-3.2c-5.4-5.6-10.7-11.2-16.1-16.8C27.4,274.8,28.1,271.4,31.7,270.2z"/>
	<path class="st1" d="M32.3,273.2L32.3,273.2c1.7-0.6,4.2,0.1,5.6,1.5c5.3,5.5,10.6,11.1,15.9,16.6c1.3,1.4,1.1,3-0.7,3.6l0,0
		c-1.7,0.6-4.2-0.1-5.6-1.5c-5.3-5.5-10.6-11.1-15.9-16.6C30.3,275.3,30.6,273.7,32.3,273.2z"/>
	<path class="st0" d="M45.3,269.9C45.3,269.9,45.3,269.9,45.3,269.9c3.6-1.2,8.9,0.3,11.7,3.2c5.4,5.6,10.7,11.2,16.1,16.8
		c2.8,3,2.2,6.3-1.4,7.5l0,0c-3.6,1.2-8.9-0.3-11.7-3.2c-5.4-5.6-10.7-11.2-16.1-16.8C41.1,274.5,41.7,271.1,45.3,269.9z"/>
	<path class="st1" d="M45.9,272.9L45.9,272.9c1.7-0.6,4.2,0.1,5.6,1.5c5.3,5.5,10.6,11.1,15.9,16.6c1.3,1.4,1.1,3-0.7,3.6l0,0
		c-1.7,0.6-4.2-0.1-5.6-1.5c-5.3-5.5-10.6-11.1-15.9-16.6C43.9,275,44.2,273.4,45.9,272.9z"/>
	<path class="st0" d="M59,269.6C59,269.6,59,269.6,59,269.6c3.6-1.2,8.9,0.3,11.7,3.2c5.4,5.6,10.7,11.2,16.1,16.8
		c2.8,3,2.2,6.3-1.4,7.5c0,0,0,0,0,0c-3.6,1.2-8.9-0.3-11.7-3.2c-5.4-5.6-10.7-11.2-16.1-16.8C54.8,274.1,55.4,270.8,59,269.6z"/>
	<path class="st1" d="M59.6,272.5L59.6,272.5c1.7-0.6,4.2,0.1,5.6,1.5c5.3,5.5,10.6,11.1,15.9,16.6c1.3,1.4,1,3-0.7,3.6l0,0
		c-1.7,0.6-4.2-0.1-5.6-1.5c-5.3-5.5-10.6-11.1-15.9-16.6C57.6,274.7,57.9,273.1,59.6,272.5z"/>
	<path class="st0" d="M72.7,269.3L72.7,269.3c3.6-1.2,8.9,0.3,11.7,3.2l16.1,16.8c2.8,3,2.2,6.3-1.4,7.5l0,0
		c-3.6,1.2-8.9-0.3-11.7-3.2l-16.1-16.8C68.4,273.8,69.1,270.4,72.7,269.3z"/>
	<path class="st1" d="M73.3,272.2L73.3,272.2c1.7-0.6,4.2,0.1,5.6,1.5l15.9,16.6c1.3,1.4,1,3-0.7,3.6l0,0c-1.7,0.6-4.2-0.1-5.6-1.5
		l-15.9-16.6C71.2,274.4,71.5,272.8,73.3,272.2z"/>
</g>
<g>
	<path class="st2" d="M288.6,328.9c-4.8,29.8,13.9,72.2,0.9,99.8c-21.3,45.2-95.8,76.1-103.4,107.3c-7.6,31.2,10.6,39.7,24.7,39.4
		c14.1-0.3,29.4-9.6,21.1-28.8c21.2,19.1-1.2,44.4-25.7,45c-24.6,0.6-51.6-16.9-43.6-58.2c8-41.3,85.4-69.7,101.9-112.2
		c11.9-30.7-32.9-55-28.1-91C253.8,329.7,271.2,329.3,288.6,328.9z"/>
	<path class="st3" d="M280.4,333.3c-1.2,13.7,1.5,28.8,3.4,41.9c2.2,15.5,5.5,37-1.5,52c-8.3,17.6-25.3,32.9-40.2,45.1
		c-13.1,10.7-26.9,20.6-39.6,31.6c-9.3,8-20.9,19.2-23.9,31.4c-2.9,12-3.4,25.8,5.1,35.2c5.9,6.5,14.8,9.4,23.6,9.2
		c1.1,0,2.3-0.1,3.4-0.2c7.3-0.8,15-3.9,19.8-9.9c0.7-0.9,1.3-1.8,1.9-2.7c-1.2,5.7-5.3,10.6-10,14c-5.7,4.1-12.7,6.5-19.6,6.6
		c-11.6,0.3-23.2-3.8-31-12.2c-10.3-11-11.4-26.5-8.6-41.3c2.2-11.2,10.1-21.1,18.1-29c10.3-10.4,22.4-19.5,33.9-28.5
		c17.9-14,41.3-32.2,49.7-53.9c1.7-4.5,2.5-9,2.3-13.7c-0.7-15.2-11.9-29.7-19.4-42.1c-6-9.8-11.4-20.5-11-32.4
		C251.3,333.9,265.9,333.6,280.4,333.3z"/>
	<path class="st4" d="M273.3,337.5c-0.4,12.8,1.9,26.4,3.6,38.5c2.1,14.4,5.4,35.6-1.2,49.6c-8,16.9-24.7,31.9-39,43.6
		c-13.1,10.7-26.9,20.6-39.7,31.7c-10.1,8.7-22,20.4-25.3,33.6c-3.3,13.4-3.4,28.3,6,38.8c5.1,5.7,12.3,9,19.9,10.1
		c-9.6-0.3-19.1-4-25.6-10.9c-9.4-10.1-10.2-24.4-7.6-37.8c2-10.2,9.6-19.5,16.9-26.8c10.2-10.2,22.2-19.2,33.5-28.1
		c18.7-14.7,42.3-33.1,51.1-55.8c1.9-5,2.8-10.2,2.5-15.4c-0.8-16.2-11.9-30.7-19.9-44c-4.8-8-9.5-16.7-10.3-26.2
		C249.9,338.1,261.6,337.8,273.3,337.5z"/>
	<path class="st5" d="M161.9,556.6c7.5,1.1,16.8-3.4,22.4-6.6c3.6-2.1,2.4-6.6,0.3-5.9c-5.9,2-15.5,4-23.4,4.3
		C155.9,548.6,156.1,555.8,161.9,556.6z"/>
	<path class="st6" d="M161.9,556.6c7.5,1.1,16.8-3.4,22.4-6.6c2.1-1.2,2.5-3.2,2.2-4.6c-0.2,0-0.5,0-0.7,0c-6.4,2-16.7,4.1-25.3,4.4
		c-1.3,0-2.2,0.4-2.9,1C156.8,553.1,158.3,556.1,161.9,556.6z"/>
	<path class="st5" d="M164,564.7c7.6,0.1,14.7-3.9,21.1-7.7c4.7-2.8,3.1-9.1-1.4-6.7c-5.7,3.1-13.4,5.3-21.8,6.3
		C156.6,557.3,158.1,564.6,164,564.7z"/>
	<path class="st6" d="M164,564.7c7.6,0.1,14.7-3.9,21.1-7.7c2.4-1.4,3.2-3.8,2.7-5.4c-0.8-0.5-1.9-0.6-3.3,0.2
		c-6,3.1-14,5.4-22.8,6.3c-1.5,0.2-2.5,0.9-3,1.8C158.6,562.1,160.5,564.7,164,564.7z"/>
	<path class="st5" d="M167,571.2c7.6-1,14.6-3.2,20.4-7.8c4.3-3.4,2.1-9-2.3-6.4c-6.1,3.6-12.7,6.6-21.1,7.7
		C158.7,565.4,161.2,572,167,571.2z"/>
	<path class="st6" d="M167,571.2c7.6-1,14.6-3.2,20.4-7.8c2.2-1.7,2.7-4,2.1-5.5c-0.9-0.4-2.1-0.3-3.6,0.4
		c-6.6,3.6-13.8,6.6-22.9,7.7c-0.7,0.1-1.3,0.3-1.8,0.5C160.5,568.7,162.9,571.7,167,571.2z"/>
	<path class="st7" d="M166.9,570.8c4.7-0.5,9.1-1.7,12.7-4.2c1.4-0.9,1.7-2.1,1.3-2.9c-3.3,1.6-13.8,4.1-17.6,4.6
		C162.8,569.5,164.3,571.1,166.9,570.8z"/>
	<path class="st7" d="M164.5,563.9c5-0.6,9.6-1.8,13.4-4.4c1.4-1,1.8-2.2,1.4-3.1c-3.5,1.7-14.5,4.3-18.5,4.9
		C160.2,562.5,161.8,564.2,164.5,563.9z"/>
	<path class="st7" d="M162,555.8c5,0,9.6-0.8,13.7-2.9c1.5-0.8,2-2,1.7-2.9c-3.6,1.3-14.8,2.7-18.9,2.9
		C157.9,553.9,159.3,555.8,162,555.8z"/>
</g>
<g>
	<path class="st2" d="M290.2,259.1c-3.4-29.6,17.2-72.9,5.4-100c-19.3-44.2-92.4-71.8-98.6-102.7c-6.2-30.9,12.4-40.2,26.6-40.5
		c14.1-0.3,29,8.3,19.8,27.9c22.1-20.1,0.8-44.4-23.7-43.9c-24.6,0.6-52.4,19.3-46.3,60.3c6.2,41,82.3,65.8,96.9,107.7
		c10.5,30.1-35.5,56.6-32.3,92.4C255.4,259.9,272.8,259.5,290.2,259.1z"/>
	<path class="st3" d="M282.2,255.1c-0.5-13.7,2.8-28.9,5.3-42.1c3-15.6,7.2-37.2,0.8-52c-7.5-17.2-23.8-31.8-38.2-43.3
		c-12.6-10.1-26-19.3-38.2-29.8c-8.9-7.6-20.1-18.3-22.5-30.3c-2.4-11.9-2.2-25.6,6.7-35.5c6.2-6.8,15.2-10.1,24-10.3
		c1.1,0,2.3,0,3.4,0.1c7.3,0.5,14.9,3.2,19.4,9c0.7,0.9,1.2,1.7,1.7,2.7c-0.9-5.7-4.9-10.4-9.4-13.6c-5.5-3.9-12.4-5.9-19.3-5.8
		c-11.6,0.3-23.4,4.9-31.6,13.6C173.7,29.4,171.8,45,174,59.5c1.7,11.1,9.2,20.6,16.8,28.2c9.8,9.9,21.5,18.5,32.6,27
		c17.3,13.2,39.9,30.4,47.3,51.7c1.5,4.4,2.1,8.9,1.6,13.6c-1.4,15.2-13.2,30.2-21.3,43c-6.4,10.1-12.3,21.1-12.5,33
		C253.1,255.8,267.7,255.5,282.2,255.1z"/>
	<path class="st4" d="M275.3,251.2c0.2-12.8,3.1-26.5,5.4-38.7c2.8-14.6,7-35.9,1.1-49.6c-7.2-16.6-23.3-30.8-37.1-41.9
		c-12.6-10.1-26-19.4-38.3-29.9c-9.7-8.3-21.1-19.4-23.8-32.5c-2.7-13.3-2.1-28.2,7.8-39.1c5.4-6,12.7-9.6,20.4-11
		c-9.6,0.8-19.3,4.8-26.1,12.1c-9.9,10.5-11.3,24.9-9.3,38.2C176.8,69,184,77.9,191,84.9c9.7,9.8,21.3,18.3,32.2,26.6
		c18,13.8,40.9,31.2,48.6,53.5c1.7,4.9,2.3,10,1.8,15.3c-1.5,16.3-13.4,31.3-22,44.9c-5.2,8.2-10.3,17.2-11.5,26.7
		C251.9,251.8,263.6,251.5,275.3,251.2z"/>
	<path class="st5" d="M173.7,36.9c7.5-1.4,16.7,2.6,22.1,5.6c3.5,1.9,2.1,6.5,0,5.9c-5.8-1.7-15.3-3.3-23.3-3.3
		C167.3,45.2,167.9,38.1,173.7,36.9z"/>
	<path class="st6" d="M173.7,36.9c7.5-1.4,16.7,2.6,22.1,5.6c2,1.1,2.4,3.1,2,4.5c-0.2,0.1-0.5,0.1-0.7,0
		c-6.3-1.7-16.6-3.3-25.1-3.2c-1.3,0-2.2-0.3-2.9-0.9C168.5,40.7,170.1,37.6,173.7,36.9z"/>
	<path class="st5" d="M176.2,28.8c7.6-0.4,14.5,3.2,20.7,6.7c4.6,2.6,2.7,9-1.7,6.8c-5.6-2.8-13.1-4.7-21.5-5.3
		C168.5,36.6,170.3,29.1,176.2,28.8z"/>
	<path class="st6" d="M176.2,28.8c7.6-0.4,14.5,3.2,20.7,6.7c2.3,1.3,3,3.7,2.5,5.3c-0.8,0.5-1.9,0.6-3.3,0
		c-5.8-2.8-13.8-4.7-22.5-5.3c-1.5-0.1-2.5-0.7-2.9-1.6C170.7,31.6,172.7,29,176.2,28.8z"/>
	<path class="st5" d="M179.5,22.1c7.5,0.6,14.4,2.5,20,6.9c4.1,3.2,1.7,8.9-2.6,6.5c-5.9-3.3-12.4-6-20.7-6.7
		C171,28.4,173.7,21.7,179.5,22.1z"/>
	<path class="st6" d="M179.5,22.1c7.5,0.6,14.4,2.5,20,6.9c2.1,1.6,2.5,3.9,1.8,5.4c-0.9,0.4-2.1,0.4-3.5-0.3
		c-6.5-3.3-13.5-6-22.6-6.7c-0.7-0.1-1.3-0.2-1.8-0.4C172.9,25,175.5,21.8,179.5,22.1z"/>
	<path class="st7" d="M179.4,22.6c4.7,0.3,9,1.3,12.5,3.6c1.3,0.9,1.6,2.1,1.2,2.9c-3.3-1.4-13.7-3.4-17.5-3.8
		C175.2,24.1,176.8,22.4,179.4,22.6z"/>
	<path class="st7" d="M176.7,29.5c5,0.3,9.5,1.4,13.2,3.8c1.4,0.9,1.7,2.2,1.2,3c-3.4-1.5-14.4-3.6-18.3-4
		C172.3,31.1,174,29.4,176.7,29.5z"/>
	<path class="st7" d="M173.8,37.8c5-0.2,9.6,0.3,13.6,2.3c1.5,0.7,1.9,2,1.5,2.8c-3.6-1.1-14.7-2-18.8-2
		C169.6,39.8,171.1,37.9,173.8,37.8z"/>
</g>
<path class="st8" d="M17.4,294.7l365.6-8.3c3.1-0.1,5.5,2.4,5.4,5.4l0,0c-0.1,3.1-2.6,5.6-5.7,5.7l-365.5,8.3
	c-3.1,0.1-5.5-2.4-5.4-5.4l0,0C11.8,297.3,14.4,294.8,17.4,294.7z"/>
<path class="st9" d="M17.3,294.7c3.1-0.1,5.5,2.4,5.4,5.4c-0.1,3.1-2.6,5.6-5.7,5.7c-3.1,0.1-5.5-2.4-5.4-5.4
	C11.7,297.3,14.3,294.8,17.3,294.7z"/>
<path class="st5" d="M169.8,43.6c1-1.6,3-2.1,4.5-1.3c1.5,0.9,2,2.9,1,4.4L21.3,300.1L166,546.6c0.9,1.5,0.4,3.5-1.2,4.5
	c-1.6,1-3.6,0.5-4.5-1L14.7,302l-1-1.7l1-1.7L169.8,43.6z"/>
<path class="st6" d="M14.4,300.3l146.1,248.8c0.4,0.7,1.3,0.9,2,0.4c0.7-0.4,0.9-1.3,0.5-2L17.8,300.2L172.4,45.9
	c0.4-0.7,0.2-1.6-0.5-2c-0.7-0.4-1.6-0.1-2,0.6L14.4,300.3z"/>
<g>
	<path class="st0" d="M3,329.7L3,329.7c3.6,1,8.9-0.7,11.9-3.8l16.9-17.5c3-3.1,2.5-6.5-1.1-7.5l0,0c-3.6-1-8.9,0.7-11.9,3.8
		L2,322.3C-1,325.4-0.5,328.7,3,329.7z"/>
	<path class="st1" d="M3.7,326.7L3.7,326.7c1.7,0.5,4.2-0.3,5.6-1.8l16.7-17.4c1.4-1.5,1.2-3.1-0.5-3.5l0,0
		c-1.7-0.5-4.2,0.3-5.6,1.8L3.2,323.2C1.8,324.7,2,326.3,3.7,326.7z"/>
	<path class="st0" d="M16.7,329.4L16.7,329.4c3.6,1,8.9-0.7,11.9-3.8c5.6-5.8,11.2-11.7,16.9-17.5c3-3.1,2.5-6.5-1.1-7.5
		c0,0,0,0,0,0c-3.6-1-8.9,0.7-11.9,3.8c-5.6,5.8-11.2,11.7-16.9,17.5C12.6,325.1,13.1,328.4,16.7,329.4z"/>
	<path class="st1" d="M17.4,326.4L17.4,326.4c1.7,0.5,4.2-0.3,5.6-1.8c5.6-5.8,11.1-11.6,16.7-17.4c1.4-1.5,1.2-3.1-0.5-3.5l0,0
		c-1.7-0.5-4.2,0.3-5.6,1.8c-5.6,5.8-11.1,11.6-16.7,17.4C15.5,324.4,15.7,326,17.4,326.4z"/>
	<path class="st0" d="M30.3,329.1C30.3,329.1,30.3,329.1,30.3,329.1c3.6,1,8.9-0.7,11.9-3.8c5.6-5.8,11.3-11.7,16.9-17.5
		c3-3.1,2.5-6.5-1.1-7.5c0,0,0,0,0,0c-3.6-1-8.9,0.7-11.9,3.8c-5.6,5.8-11.2,11.7-16.9,17.5C26.3,324.8,26.8,328.1,30.3,329.1z"/>
	<path class="st1" d="M31.1,326.1L31.1,326.1c1.7,0.5,4.2-0.3,5.6-1.8c5.6-5.8,11.1-11.6,16.7-17.4c1.4-1.5,1.2-3.1-0.5-3.5l0,0
		c-1.7-0.5-4.2,0.3-5.6,1.8c-5.6,5.8-11.1,11.6-16.7,17.4C29.1,324.1,29.4,325.6,31.1,326.1z"/>
	<path class="st0" d="M44,328.8C44,328.8,44,328.8,44,328.8c3.6,1,8.9-0.7,11.9-3.8c5.6-5.8,11.3-11.7,16.9-17.5
		c3-3.1,2.5-6.5-1.1-7.5l0,0c-3.6-1-8.9,0.7-11.9,3.8c-5.6,5.8-11.2,11.7-16.9,17.5C40,324.4,40.4,327.8,44,328.8z"/>
	<path class="st1" d="M44.7,325.8L44.7,325.8c1.7,0.5,4.2-0.3,5.6-1.8c5.6-5.8,11.1-11.6,16.7-17.4c1.4-1.5,1.2-3.1-0.5-3.5l0,0
		c-1.7-0.5-4.2,0.3-5.6,1.8c-5.6,5.8-11.1,11.6-16.7,17.4C42.8,323.7,43,325.3,44.7,325.8z"/>
	<path class="st0" d="M57.7,328.5L57.7,328.5c3.6,1,8.9-0.7,11.9-3.8c5.6-5.8,11.3-11.7,16.9-17.5c3-3.1,2.5-6.5-1.1-7.5l0,0
		c-3.6-1-8.9,0.7-11.9,3.8c-5.6,5.8-11.3,11.7-16.9,17.5C53.6,324.1,54.1,327.5,57.7,328.5z"/>
	<path class="st1" d="M58.4,325.5L58.4,325.5c1.7,0.5,4.2-0.3,5.6-1.8c5.6-5.8,11.1-11.6,16.7-17.4c1.4-1.5,1.2-3.1-0.5-3.5l0,0
		c-1.7-0.5-4.2,0.3-5.6,1.8c-5.6,5.8-11.1,11.6-16.7,17.4C56.5,323.4,56.7,325,58.4,325.5z"/>
	<path class="st0" d="M71.3,328.2L71.3,328.2c3.6,1,8.9-0.7,11.9-3.8l16.9-17.5c3-3.1,2.5-6.5-1.1-7.5l0,0c-3.6-1-8.9,0.7-11.9,3.8
		l-16.9,17.5C67.3,323.8,67.8,327.2,71.3,328.2z"/>
	<path class="st1" d="M72,325.2L72,325.2c1.7,0.5,4.2-0.3,5.6-1.8L94.4,306c1.4-1.5,1.2-3.1-0.5-3.5l0,0c-1.7-0.5-4.2,0.3-5.6,1.8
		l-16.7,17.4C70.1,323.1,70.4,324.7,72,325.2z"/>
</g>
<g>
	<path class="st10" d="M290.4,250.2c-17.1-2.1-34.4-1.9-52.2,1.2c-3.2,0.6-7.1,3.9-6.2,10.4c3.7,26.1,3.4,42.7-1.5,67.1
		c-1.5,7.5,2.5,9.7,5.7,10.2c16.6,2.3,34,2.1,52.2-1.2c3.2-0.6,5.4-2.9,6.1-6.1c5.4-25.7,5.6-50.9,1.7-75.8
		C295.7,252.8,293.6,250.6,290.4,250.2z"/>
	<path class="st11" d="M272,255.7c-15.1-1.9-15.1-2-30.8,0.7c-2.9,0.5-6.3,3.4-5.5,9.2c3.2,23.1,3,37.7-1.4,59.4
		c-1.3,6.6,2.2,8.6,5,9c14.7,2,14.6,2.2,30.8-0.7c2.9-0.5,4.8-2.5,5.4-5.4c4.8-22.7,4.9-45.1,1.5-67.1
		C276.7,258,274.9,256,272,255.7z"/>
	<path class="st12" d="M257.9,262.1c-7.1-0.9-11-0.2-14.2,0.3c-2.4,0.4-5.3,2.9-4.6,7.8c2.7,19.4,2.5,31.8-1.1,50
		c-1.1,5.6,1.9,7.2,4.3,7.6c2.8,0.4,7,1,14.2-0.3c2.4-0.4,4-2.1,4.5-4.5c4-19.2,4.1-38,1.3-56.5C261.9,264,260.3,262.4,257.9,262.1z
		"/>
</g>
<polygon class="st5" points="425.8,290.8 388.5,306.7 351.3,322.6 352,292.5 352.7,262.4 389.2,276.6 "/>
<polygon class="st13" points="425.8,290.8 388.5,306.7 351.3,322.6 352,292.5 "/>
</svg>
