<?xml version="1.0" encoding="UTF-8" standalone="no"?>
<svg  xmlns="http://www.w3.org/2000/svg" viewBox="0 0 431.6 258.9" height="100%" width="100%">
<title>Hexenkessel: CSS organisieren, CSS Reset</title>
<circle r="18.97" cy="54.81" cx="162.3" style="fill:#469c41" />
<path d="M 119.2,70.33 A 107.7,107.7 0 0 0 103.7,125.7 107.7,107.7 0 0 0 211.3,233.4 107.7,107.7 0 0 0 319,125.7 107.7,107.7 0 0 0 303.5,70.33 l -184.3,0 z" style="fill:#ac8cc5" />
<rect ry="8.917" y="53.54" x="109.4" height="23.31" width="206" style="fill:#8574a2" />
<path d="m 121.1,199.9 c -4.9,0 -8.9,3.1 -8.9,8 0,5 4,7.7 8.9,7.7 l 8.7,0 0,20.9 c -4.5,1.2 -7.5,5.2 -7.5,9.7 0,5.8 4.7,10.3 10.3,10.3 5.6,0 10.4,-4.5 10.4,-10.3 0,-0.2 -0.3,-0.6 -0.3,-1 0.3,-0.2 0.3,-0.3 0.3,-0.6 l 0,-29 59.4,0 0,22.8 c -2.3,2 -3.6,4.8 -3.6,7.8 0,5.7 4.5,10.3 10.1,10.3 5.7,0 10.2,-4.6 10.2,-10.3 0,-3 -1.3,-5.8 -3.7,-7.8 l 0,-22.8 59.8,0 0,29 0,1.6 c 0,5.7 4.5,10.3 10.1,10.3 5.7,0 10.2,-4.6 10.2,-10.3 0,-4.3 -3,-8.3 -7.2,-9.7 l 0,-20.9 8.3,0 c 5.1,0 9,-2.7 9,-7.7 0,-4.9 -3.9,-8 -9,-8 z" style="opacity:0.265;fill:#b3b3b3" />
<path d="m 209.2,70.33 0,163.07 a 107.7,107.7 0 0 0 2.1,0 A 107.7,107.7 0 0 0 319,125.7 107.7,107.7 0 0 0 303.5,70.33 l -94.3,0 z" style="fill:#9770b6" />
<path d="m 265.1,70.33 a 108.6,108.6 0 0 1 1.2,13.77 108.6,108.6 0 0 1 -108.7,108.6 108.6,108.6 0 0 1 -34.8,-5.8 107.7,107.7 0 0 0 88.5,46.5 A 107.7,107.7 0 0 0 319,125.7 107.7,107.7 0 0 0 303.5,70.33 l -38.4,0 z" style="opacity:0.265;fill:#9384d8" />
<path d="m 265.1,70.33 a 108.6,108.6 0 0 1 1.2,13.77 108.6,108.6 0 0 1 -57.1,95.4 l 0,53.9 a 107.7,107.7 0 0 0 2.1,0 A 107.7,107.7 0 0 0 319,125.7 107.7,107.7 0 0 0 303.5,70.33 l -38.4,0 z" style="fill:#9066b1" />
<circle r="15.8" cy="121.5" cx="122.1" style="opacity:0.265;fill:#f9f9f9" />
<path d="m 266,70.33 a 117,120.9 0 0 1 0.2,5.16 117,120.9 0 0 1 -117,120.81 117,120.9 0 0 1 -20.8,-2 107.7,107.7 0 0 0 82.9,39.1 A 107.7,107.7 0 0 0 319,125.7 107.7,107.7 0 0 0 303.5,70.33 l -37.5,0 z" style="fill:#a27ebe;fill-opacity:0.5" />
<circle style="fill:#469c41" cx="225.3" cy="19.11" r="14.55" />
<circle r="12.88" cy="36.1" cx="98.4" style="fill:#469c41" />
<circle style="fill:#469c41" cx="343.6" cy="112.8" r="16.34" />
<circle style="fill:#469c41" cx="282.3" cy="41.17" r="8.492" />
<circle r="8.492" cy="143.9" cx="371.6" style="fill:#469c41" />
<circle style="fill:#469c41" cx="332.8" cy="189" r="8.492" />
<path d="m 209.2,53.54 0,23.29 97.3,0 c 5,0 8.8,-3.97 8.8,-8.92 l 0,-5.46 c 0,-4.94 -3.8,-8.91 -8.8,-8.91 z" style="fill:#71599a" />
<path d="m 121.1,199.9 c -4.9,0 -8.9,3.1 -8.9,8 0,5 4,7.7 8.9,7.7 l 8.7,0 0,20.9 c -4.5,1.2 -7.5,5.2 -7.5,9.7 0,5.8 4.7,10.3 10.3,10.3 5.6,0 10.4,-4.5 10.4,-10.3 0,-0.2 -0.3,-0.6 -0.3,-1 0.3,-0.2 0.3,-0.3 0.3,-0.6 l 0,-29 59.4,0 0,22.8 c -2.3,2 -3.6,4.8 -3.6,7.8 0,5.7 4.5,10.3 10.1,10.3 1.3,0 2.2,-0.1 3,-0.5 l 0,-56.1 -90.8,0 z" style="fill:#666666" />
<path d="m 210.2,199.9 0,56.6 c 5,-0.8 8.9,-5 8.9,-10.3 0,-3 -1.3,-5.8 -3.7,-7.8 l 0,-22.8 59.8,0 0,29 0,1.6 c 0,5.7 4.5,10.3 10.1,10.3 5.7,0 10.2,-4.6 10.2,-10.3 0,-4.3 -3,-8.3 -7.2,-9.7 l 0,-20.9 8.3,0 c 5.1,0 9,-2.7 9,-7.7 0,-4.9 -3.9,-8 -9,-8 l -86.4,0 z" style="fill:#333333" />
<path d="m 230.7,47.74 c -4.3,0 -7.8,3.41 -7.8,7.7 l 0,19.85 0,0 0,37.61 c 0,10.7 8.3,19.3 19.3,19.3 l 5.4,0 c 10.7,0 19,-8.6 19,-19.3 l 0,-31.97 0,0 0,-25.49 c 0,-4.29 -3.3,-7.7 -7.4,-7.7 l -28.5,0 z" style="fill:#7bd348" />
<ellipse ry="5.66" rx="5.225" cy="61.65" cx="233.6" style="fill:#b5e699" />
<path d="m 145.3,45.98 c -2.6,0 -4.7,2.15 -4.7,4.82 0,15.45 0.4,30.58 0.4,46.13 0,4.87 3.5,8.87 8.6,8.87 l 0.2,0 c 4.8,0 8.9,-4 8.9,-8.87 0,-9.9 0,-19.8 0,-29.69 l 0,0 c 0,-2.39 1.9,-3.73 4.2,-4.05 l 0.5,0 c 3,0.3 4.3,1.4 4.3,4.14 l 0,6.86 c 0.2,11.59 0.2,23.14 0.2,34.91 0,6.1 4.5,11 10.8,11 l 0.2,0 c 6,0 11.3,-4.9 11.3,-11 0.4,-19.3 -0.3,-38.06 -0.3,-57.09 0,-3.3 -2.6,-5.93 -6,-5.93 -12.7,0 -25.7,0 -38.6,0 z" style="fill:#b5e699" />
<ellipse style="fill:#d7f2c8" cx="150.5" cy="57.3" rx="5.225" ry="5.66" />
<path d="m 21.35,247.3 c -4.6,0 -8.5,2.7 -10.3,6.6 l 89.15,0 c -1.85,-3.9 -5.75,-6.6 -10.35,-6.6 l -68.5,0 z" style="fill:#469c41" />
<path style="fill:#469c41" d="m 308.1,248.1 c -4.6,0 -8.5,2.7 -10.3,6.6 l 79.2,0 c -1.9,-3.9 -5.8,-6.6 -10.4,-6.6 z" />
<path d="m 348.6,247 c -5.3,0 -9.9,3.2 -12,7.7 l 92.3,0 c -2.2,-4.5 -6.8,-7.7 -12.1,-7.7 z" style="fill:#62bc5d" />
</svg>
