<?xml version="1.0" encoding="UTF-8" standalone="no"?>
<!-- Created with Inkscape (http://www.inkscape.org/) -->
<svg xmlns:inkscape="http://www.inkscape.org/namespaces/inkscape" xmlns:rdf="http://www.w3.org/1999/02/22-rdf-syntax-ns#" xmlns="http://www.w3.org/2000/svg" xmlns:xlink="http://www.w3.org/1999/xlink" xmlns:ns1="http://sozi.baierouge.fr" xmlns:cc="http://creativecommons.org/ns#" xmlns:sodipodi="http://sodipodi.sourceforge.net/DTD/sodipodi-0.dtd" xmlns:dc="http://purl.org/dc/elements/1.1/" id="svg2" xml:space="preserve" viewBox="0 0 64.321 30.344" version="1.1" inkscape:version="0.91 r13725">
  <g id="g10" transform="matrix(1.25 0 0 -1.25 0 30.344)">
    <g id="g12">
      <path id="path14" style="fill-rule:evenodd;fill:#504f52" d="m28.656 16.861c-0.718 0.375-1.265 0.801-1.64 1.282-0.746 0.961-0.746 2.359 0 4.199l5.121-0.281c0.211-0.266 0.707-0.52 1.476-0.758 0.828-0.293 1.375-0.547 1.645-0.762 0.769-0.664 1.383-1.305 1.84-1.918 0.425-0.535 1.066-1.785 1.918-3.762 0.691-1.546 0.984-2.972 0.879-4.277-0.586 0.106-1.305 0.481-2.161 1.117-0.933 0.801-1.597 1.348-2 1.641-0.636 0.48-1.293 0.812-1.957 1-0.882 0.266-1.336 0.402-1.363 0.402-0.051 0.024-0.398 0.172-1.039 0.438-0.371 0.16-0.691 0.347-0.961 0.562-0.316 0.289-0.906 0.664-1.758 1.117z" inkscape:connector-curvature="0"/>
      <path id="path16" style="fill-rule:evenodd;fill:#3d3d3f" d="m32.176 15.303c-0.293 0.133-0.828 0.437-1.602 0.918-0.426 0.265-0.679 0.453-0.758 0.558-0.132 0.188-0.199 0.524-0.199 1.004 0 0.453 0.012 0.758 0.039 0.918 0.082 0.266 0.254 0.492 0.52 0.68 0.48 0.293 1.039 0.375 1.679 0.242 0.668-0.109 1.161-0.402 1.481-0.883 0.242-0.32 0.469-0.824 0.68-1.519 0-0.641 0.054-1.211 0.16-1.719-0.024-0.133-0.106-0.32-0.238-0.559l-0.04-0.082c-0.589 0.028-1.164 0.172-1.722 0.442z" inkscape:connector-curvature="0"/>
      <path id="path18" style="fill-rule:evenodd;fill:#7c7d80" d="m27.574 21.022c-0.824 0.613-0.89 1.175-0.199 1.679 1.734 1.149 3.441 1.668 5.121 1.563 2.961-0.215 5.149-0.602 6.559-1.16 0.718-0.321 1.64-0.95 2.761-1.883 0.508-0.317 1.84-0.906 4-1.758 0.481-0.188 1.266-0.52 2.36-1 0.984-0.426 1.785-0.668 2.398-0.719 0.481-0.109 0.774-0.187 0.883-0.242-0.242-1.359-0.656-2.398-1.242-3.121-0.746-0.984-2.051-1.906-3.918-2.758-1.629-0.723-3.746-1.043-6.359-0.961-1.922 1.758-3.028 2.828-3.321 3.199-0.801 0.856-1.336 1.52-1.601 2-0.161 0.243-0.321 0.641-0.481 1.2-0.16 0.586-0.293 0.988-0.398 1.203-0.508 0.933-1.067 1.558-1.68 1.879-0.75 0.398-1.519 0.304-2.32-0.282v-0.039l-0.242-0.039c-1.305 0.664-2.079 1.078-2.321 1.239z" inkscape:connector-curvature="0"/>
      <path id="path20" style="fill-rule:evenodd;fill:#afafb0" d="m41.816 13.303c0.508 0.16 1.211 0.398 2.122 0.719 0.746 0.293 1.41 0.652 2 1.082 0.878 0.613 1.437 1.199 1.679 1.757 0.028 0.082 0.16 0.629 0.399 1.641 1.093-0.453 1.949-0.707 2.558-0.758 0.485-0.109 0.774-0.187 0.883-0.242-0.242-1.359-0.652-2.398-1.242-3.121-0.746-0.984-2.051-1.906-3.918-2.758-1.629-0.723-3.746-1.043-6.359-0.961l-2.122 1.918c0.399 0.028 0.934 0.121 1.598 0.281 1.07 0.082 1.867 0.227 2.402 0.442z" inkscape:connector-curvature="0"/>
      <path id="path22" style="fill-rule:evenodd;fill:#c6c6c7" d="m43.414 11.861c0.402 0 1.027-0.199 1.883-0.597l-0.922-0.281c-0.586 0.507-0.906 0.8-0.961 0.878z" inkscape:connector-curvature="0"/>
      <path id="path24" style="fill-rule:evenodd;fill:#c6c6c7" d="m40.496 11.061c0.266-0.078 0.559-0.227 0.879-0.438h-0.719l-0.16 0.438z" inkscape:connector-curvature="0"/>
      <path id="path26" style="fill-rule:evenodd;fill:#c6c6c7" d="m48.137 16.74c1.547-0.238 2.558-0.371 3.039-0.398-0.16-0.586-0.414-1.149-0.762-1.68l-3.078 1.481c0.586 0.027 1.492-0.028 2.719-0.16-0.957 0.238-1.598 0.492-1.918 0.757z" inkscape:connector-curvature="0"/>
      <path id="path28" style="fill-rule:evenodd;fill:#c6c6c7" d="m45.055 12.104c0.375-0.055 0.816-0.204 1.32-0.442l-0.078-0.043-0.801-0.316c-0.266 0.265-0.414 0.531-0.441 0.801z" inkscape:connector-curvature="0"/>
      <path id="path30" style="fill-rule:evenodd;fill:#c6c6c7" d="m46.855 11.9-1.082 0.801c0.641-0.082 1.282-0.199 1.922-0.359l-0.84-0.442z" inkscape:connector-curvature="0"/>
      <path id="path32" style="fill-rule:evenodd;fill:#c6c6c7" d="m43.215 10.74c-0.641-0.05-1.117-0.078-1.438-0.078-0.16 0.266-0.429 0.613-0.8 1.039-0.403 0.508-0.68 0.867-0.84 1.082 0.746-0.586 1.773-1.269 3.078-2.043z" inkscape:connector-curvature="0"/>
      <path id="path34" style="fill-rule:evenodd;fill:#c6c6c7" d="m48.297 12.701c-0.481 0.266-0.84 0.481-1.082 0.641-0.426 0.266-0.758 0.535-1 0.801 0.398 0.05 0.894-0.028 1.48-0.243 0.321-0.105 0.813-0.304 1.481-0.597l-0.879-0.602z" inkscape:connector-curvature="0"/>
      <path id="path36" style="fill-rule:evenodd;fill:#c6c6c7" d="m48.055 18.502c1.043-0.453 1.883-0.707 2.519-0.762 0.481-0.105 0.774-0.183 0.883-0.238l-0.121-0.602-1.199 0.243c-0.586 0.16-1.282 0.613-2.082 1.359z" inkscape:connector-curvature="0"/>
      <path id="path38" style="fill-rule:evenodd;fill:#9b9c9e" d="m40.137 10.662-0.801 1.481c0.078-0.055 0.266-0.106 0.559-0.16 0.054 0.187 0.066 0.308 0.043 0.359 0.851-0.613 1.371-1.188 1.558-1.719h-0.199c-0.508 0.188-0.762 0.199-0.762 0.039h-0.398z" inkscape:connector-curvature="0"/>
      <path id="path40" style="fill-rule:evenodd;fill:#9b9c9e" d="m44.016 10.943 0.082-0.043-0.922-0.16c-0.801 0.668-1.215 1.176-1.238 1.52 0.398 0.082 0.785-0.067 1.16-0.438 0.531-0.558 0.84-0.855 0.918-0.879z" inkscape:connector-curvature="0"/>
      <path id="path42" style="fill-rule:evenodd;fill:#9b9c9e" d="m49.137 14.541c0.265 0.082 0.597-0.012 1-0.281l-0.879-0.879c-0.215 0.348-0.645 0.652-1.281 0.922-0.774 0.344-1.27 0.597-1.481 0.758 0.531 0.027 1.399-0.2 2.598-0.68l0.043 0.16z" inkscape:connector-curvature="0"/>
      <path id="path44" style="fill-rule:evenodd;fill:#9b9c9e" d="m44.734 12.662-0.117-0.199c-0.082-0.109-0.336-0.055-0.762 0.16-0.398 0.211-0.664 0.426-0.796 0.641 0.238 0.051 0.515-0.016 0.839-0.203 0.45-0.239 0.731-0.371 0.836-0.399z" inkscape:connector-curvature="0"/>
      <path id="path46" style="fill-rule:evenodd;fill:#9b9c9e" d="m46.336 12.861c-0.348 0.188-0.602 0.336-0.762 0.442-0.316 0.187-0.531 0.375-0.636 0.558 0.425-0.183 1.089-0.625 2-1.32l-0.602 0.32z" inkscape:connector-curvature="0"/>
      <path id="path48" style="fill-rule:evenodd;fill:#95929b" d="m27.574 21.022c-0.824 0.613-0.89 1.175-0.199 1.679 0.668 0.43 1.281 0.746 1.84 0.961-0.664-0.508-1.078-0.879-1.238-1.121-0.321-0.371-0.332-0.734-0.039-1.078 0.132-0.188 0.425-0.441 0.878-0.762 0.481-0.347 0.813-0.531 1-0.558 0.321 0 0.801 0.16 1.442 0.48l0.719-0.16v-0.039h0.039l0.043-0.043 0.039-0.078c-0.614 0.215-1.27 0.066-1.961-0.442v-0.039l-0.239-0.039c-1.308 0.664-2.082 1.078-2.324 1.239z" inkscape:connector-curvature="0"/>
      <path id="path50" style="fill-rule:evenodd;fill:#95929b" d="m37.617 13.303 0.559-1.043c-0.828 0.773-1.348 1.308-1.559 1.601-0.109 0.133-0.441 0.52-1 1.161 0.641-0.692 1.305-1.266 2-1.719z" inkscape:connector-curvature="0"/>
      <path id="path52" style="fill-rule:evenodd;fill:#737475" d="m37.938 20.943c0.265-0.136 0.492-0.187 0.679-0.16v0.957c0.133-0.078 0.332-0.211 0.598-0.398 0.269-0.16 0.496-0.238 0.683-0.238v0.519c0.426-0.133 1-0.453 1.719-0.961 0.668-0.445 1.207-0.738 1.617-0.879-0.207 0.051-0.347-0.031-0.418-0.242l1.122-0.519h-1.161c0.024-0.161 0.227-0.399 0.598-0.719l-0.16-0.039c0.027-0.133 0.242-0.309 0.64-0.52-0.906 0.16-1.574 0.227-2 0.199 0.083-0.16 0.27-0.308 0.559-0.441 0.27-0.16 0.43-0.305 0.484-0.441-0.695-0.157-1.695-0.211-3-0.157 0-0.242 0.133-0.429 0.399-0.562h-0.559c-0.269 0-0.414-0.051-0.441-0.16-0.027-0.078 0-0.172 0.078-0.278 0.109-0.136 0.148-0.242 0.121-0.32-0.027-0.215-0.133-0.32-0.32-0.32-0.266 0.051-0.465 0.078-0.598 0.078-0.082-0.16-0.203-0.184-0.359-0.078-0.242 0.133-0.414 0.183-0.52 0.16 0.051-0.242 0-0.359-0.16-0.359-0.109-0.028-0.242 0.011-0.402 0.117-0.051 0.027-0.117 0.109-0.199 0.242-0.051 0.078-0.133 0.117-0.239 0.117-0.082 0-0.203-0.051-0.363-0.16-0.16-0.106-0.293-0.16-0.398-0.16-0.161 0.137-0.282 0.226-0.36 0.281-0.055 0.027-0.148 0.066-0.281 0.121-0.051 0.027-0.121 0.106-0.199 0.238-0.055 0.137-0.106 0.36-0.16 0.684-0.051 0.293-0.122 0.52-0.2 0.68l-0.199-0.203c0.106 0.214 0.078 0.562-0.082 1.043-0.187 0.507-0.32 0.851-0.398 1.039 0.183-0.371 0.332-0.598 0.437-0.68 0.055 0.215 0.066 0.375 0.043 0.48 0.348-0.16 0.57-0.254 0.68-0.281 0.027 0.215-0.016 0.469-0.121 0.762-0.133 0.348-0.227 0.598-0.282 0.758 0.137-0.051 0.375-0.254 0.723-0.598 0.051 0.133 0.012 0.344-0.121 0.637-0.106 0.269-0.148 0.48-0.121 0.64 0.16-0.078 0.363-0.226 0.601-0.437 0.266-0.242 0.465-0.402 0.602-0.481v0.2c0.16-0.082 0.332-0.121 0.52-0.121l0.039 0.32c0.265-0.11 0.492-0.149 0.679-0.121 0.157 0.347 0.223 0.601 0.2 0.761z" inkscape:connector-curvature="0"/>
      <path id="path54" style="fill-rule:evenodd;fill:#656869" d="m40.617 20.104c0.028 0.183 0.028 0.332 0 0.437 0.426-0.266 0.797-0.574 1.117-0.918-0.211-0.027-0.371-0.027-0.476 0l0.117-0.203c-0.105 0.027-0.238-0.039-0.398-0.199l-0.321-0.278-0.64-0.402c0.082-0.133-0.016-0.254-0.282-0.359-0.32-0.133-0.507-0.254-0.558-0.36l0.16-0.039c-0.027-0.054-0.227-0.175-0.602-0.363h0.403c-0.028-0.211-0.188-0.344-0.481-0.398h-0.718c0-0.215 0.039-0.399 0.117-0.559-0.719 0.051-1.239 0.039-1.559-0.043-0.906-0.211-1.398-0.184-1.48 0.082v0.121c0.082 0.051 0.132 0.094 0.16 0.117 0.051 0.028 0.066 0.094 0.039 0.203l0.32 0.04 0.039 0.48c0.27-0.109 0.43-0.066 0.485 0.117 0.023 0.27 0.039 0.481 0.039 0.641 0.504-0.344 0.945-0.504 1.316-0.481 0.43 0.055 0.656 0.176 0.684 0.364 0.16 0 0.25 0.066 0.277 0.199v0.398c0.32-0.187 0.641-0.187 0.961 0 0.055 0.028 0.148 0.121 0.281 0.282 0.106 0.16 0.16 0.281 0.16 0.359 0.239-0.055 0.399 0.027 0.481 0.238 0.027 0.082 0.039 0.281 0.039 0.602l0.32-0.078z" inkscape:connector-curvature="0"/>
      <path id="path56" style="fill-rule:evenodd;fill:#8e8f90" d="m39.055 23.104 0.8-0.442v-0.043c-0.828 0.242-1.453 0.43-1.878 0.563-0.75 0.215-1.415 0.254-2 0.121l-0.039-0.281c-0.188-0.028-0.309-0.028-0.364 0 0.028-0.106 0.121-0.215 0.281-0.321 0.161-0.105 0.243-0.211 0.243-0.32-0.668 0.027-1.16 0.016-1.481-0.039v-0.238l-0.922-0.082 0.082-0.2c-0.054-0.054-0.203-0.132-0.441-0.242-0.215-0.105-0.359-0.16-0.441-0.16 0-0.211-0.051-0.383-0.161-0.516h-1.238l0.238-0.16-0.519 0.039c0.027 0.078 0.109 0.172 0.242 0.282 0.105 0.078 0.16 0.171 0.16 0.277 0.399 0 0.641 0.027 0.719 0.078 0.055 0.027 0.066 0.109 0.039 0.242 0 0.133 0.016 0.227 0.039 0.281 0.109 0.106 0.375 0.2 0.801 0.278 0.32 0.054 0.469 0.226 0.441 0.523l0.282 0.039v0.16l0.597-0.039c-0.051 0.106-0.183 0.211-0.398 0.317-0.215 0.133-0.348 0.254-0.399 0.359l0.598 0.043c-0.133 0.051-0.266 0.133-0.398 0.238-0.083 0.082-0.227 0.11-0.442 0.082 0.027 0.051-0.094 0.106-0.359 0.161-0.266 0.05-0.414 0.105-0.442 0.16 2.879-0.215 5-0.602 6.36-1.16z" inkscape:connector-curvature="0"/>
      <path id="path58" style="fill-rule:evenodd;fill:#613c12" d="m10.918 1.432 1.121 0.16-0.082-0.082c0.082-0.16 0.082-0.32 0-0.481-0.613-0.078-0.961 0.055-1.039 0.403z" inkscape:connector-curvature="0"/>
      <path id="path60" style="fill-rule:evenodd;fill:#613c12" d="m16.797 6.15c0.105 0.106 0.492 0.266 1.16 0.481l-0.039-0.121 0.801-0.078c0-0.481-0.645-0.574-1.922-0.282z" inkscape:connector-curvature="0"/>
      <path id="path62" style="fill-rule:evenodd;fill:#613c12" d="m21.836 6.791c0.105-0.426-0.117-0.574-0.68-0.441-0.426 0.082-0.801 0.226-1.121 0.441 0.027 0.16 0.176 0.242 0.442 0.242 0.16 0 0.375-0.015 0.64-0.043l0.039 0.043 0.68-0.242z" inkscape:connector-curvature="0"/>
      <path id="path64" style="fill-rule:evenodd;fill:#613c12" d="m19.156 7.592c0.215-0.082 0.321-0.199 0.321-0.359-0.536-0.055-0.918 0.039-1.161 0.277 0.106 0.055 0.321 0.082 0.641 0.082h0.199z" inkscape:connector-curvature="0"/>
      <path id="path66" style="fill-rule:evenodd;fill:#613c12" d="m20.836 9.233c-0.613 0-1.133 0.171-1.559 0.515l1.161-0.238-0.68 0.199c0.133-0.027 0.371-0.051 0.719-0.078 0.293-0.027 0.414-0.16 0.359-0.398z" inkscape:connector-curvature="0"/>
      <path id="path68" style="fill-rule:evenodd;fill:#613c12" d="m24.836 6.83 0.121 0.203c0.477 0.051 0.813 0.024 1-0.082-0.109-0.082-0.48-0.121-1.121-0.121z" inkscape:connector-curvature="0"/>
      <path id="path70" style="fill-rule:evenodd;fill:#613c12" d="m30.035 5.19v0.16c0.32 0.133 0.625 0.187 0.918 0.16 0-0.188-0.105-0.293-0.32-0.32h-0.598z" inkscape:connector-curvature="0"/>
      <path id="path72" style="fill-rule:evenodd;fill:#613c12" d="m28.156 2.791 0.199 0.203 0.399 0.039-0.16 0.039c0.535 0.051 0.785-0.039 0.761-0.281-0.402-0.055-0.8-0.055-1.199 0z" inkscape:connector-curvature="0"/>
      <path id="path74" style="fill-rule:evenodd;fill:#613c12" d="m22.438 0.233c0.105 0.132 0.281 0.25 0.519 0.359l-0.043-0.199c0.723 0 1.254-0.055 1.602-0.16l-0.039-0.161c-0.907-0.132-1.586-0.078-2.039 0.161z" inkscape:connector-curvature="0"/>
      <path id="path76" style="fill-rule:evenodd;fill:#613c12" d="m10.238 7.311c0.051 0.187 0.266 0.308 0.637 0.359 0.187 0.055 0.469 0.109 0.844 0.16l-0.563-0.238c0.16-0.027 0.414-0.043 0.762-0.043l-0.043-0.238c-0.609-0.161-1.156-0.161-1.637 0z" inkscape:connector-curvature="0"/>
      <path id="path78" style="fill-rule:evenodd;fill:#613c12" d="m3.918 2.193c-0.027-0.293-0.266-0.453-0.719-0.48-0.426 0-0.746 0.078-0.961 0.238 0.188 0.082 0.52 0.188 1 0.321l0.68-0.079z" inkscape:connector-curvature="0"/>
      <path id="path80" style="fill-rule:evenodd;fill:#613c12" d="m24.914 3.393c-0.023 0.05-0.012 0.132 0.043 0.238h0.398c0-0.293-0.148-0.371-0.441-0.238z" inkscape:connector-curvature="0"/>
      <path id="path82" style="fill-rule:evenodd;fill:#613c12" d="m24.234 4.912c0 0.266 0.161 0.371 0.481 0.321l-0.199-0.043 0.32-0.04c-0.027-0.238-0.227-0.32-0.602-0.238z" inkscape:connector-curvature="0"/>
      <path id="path84" style="fill-rule:evenodd;fill:#a86c25" d="m10.676 1.713c0.347 0.105 0.734 0.16 1.16 0.16l-0.078-0.082c0.078-0.16 0.078-0.308 0-0.441-0.613-0.133-0.973-0.012-1.082 0.363z" inkscape:connector-curvature="0"/>
      <path id="path86" style="fill-rule:evenodd;fill:#a86c25" d="m16.559 6.432c0.105 0.078 0.503 0.238 1.199 0.48l-0.082-0.121 0.801-0.078c0-0.457-0.641-0.547-1.918-0.281z" inkscape:connector-curvature="0"/>
      <path id="path88" style="fill-rule:evenodd;fill:#a86c25" d="m21.957 7.15c0.105-0.425-0.121-0.574-0.68-0.441-0.375 0.082-0.734 0.215-1.082 0.402 0.028 0.161 0.16 0.239 0.403 0.239 0.16 0 0.371-0.012 0.636-0.039l0.043 0.082 0.68-0.243z" inkscape:connector-curvature="0"/>
      <path id="path90" style="fill-rule:evenodd;fill:#a86c25" d="m18.957 7.869c0.215-0.105 0.32-0.211 0.32-0.32-0.507-0.106-0.894-0.024-1.16 0.242 0.188 0.106 0.399 0.133 0.641 0.082h0.199v-0.004z" inkscape:connector-curvature="0"/>
      <path id="path92" style="fill-rule:evenodd;fill:#a86c25" d="m20.637 9.549c-0.614-0.051-1.133 0.121-1.563 0.519l1.16-0.277-0.679 0.199c0.133-0.027 0.375-0.043 0.718-0.043 0.297-0.023 0.415-0.156 0.364-0.398z" inkscape:connector-curvature="0"/>
      <path id="path94" style="fill-rule:evenodd;fill:#a86c25" d="m24.637 7.15c0.051 0.083 0.093 0.149 0.117 0.2 0.535 0 0.867-0.039 1-0.117-0.184-0.11-0.559-0.133-1.117-0.083z" inkscape:connector-curvature="0"/>
      <path id="path96" style="fill-rule:evenodd;fill:#a86c25" d="m30.035 5.51v0.16c0.211 0.109 0.52 0.16 0.918 0.16-0.023-0.215-0.133-0.332-0.32-0.359-0.078 0-0.278 0.012-0.598 0.039z" inkscape:connector-curvature="0"/>
      <path id="path98" style="fill-rule:evenodd;fill:#a86c25" d="m27.953 3.072c0.027 0.078 0.094 0.145 0.203 0.2l0.399 0.039-0.2 0.039c0.532 0.054 0.801-0.039 0.801-0.278h-1.203z" inkscape:connector-curvature="0"/>
      <path id="path100" style="fill-rule:evenodd;fill:#a86c25" d="m22.234 0.51c0.11 0.187 0.282 0.308 0.524 0.363l-0.082-0.203c0.746 0 1.281-0.039 1.597-0.117 0.028-0.082 0.028-0.149 0-0.203-0.851-0.106-1.531-0.051-2.039 0.16z" inkscape:connector-curvature="0"/>
      <path id="path102" style="fill-rule:evenodd;fill:#a86c25" d="m10.039 7.592c0.051 0.215 0.25 0.348 0.598 0.398 0.215 0.028 0.496 0.067 0.84 0.121l-0.52-0.242h0.719v-0.277c-0.637-0.16-1.184-0.16-1.637 0z" inkscape:connector-curvature="0"/>
      <path id="path104" style="fill-rule:evenodd;fill:#a86c25" d="m3.719 2.471c-0.028-0.293-0.266-0.453-0.719-0.481-0.453 0-0.773 0.082-0.961 0.243l1 0.316 0.68-0.078z" inkscape:connector-curvature="0"/>
      <path id="path106" style="fill-rule:evenodd;fill:#a86c25" d="m24.875 3.592 0.039 0.281 0.441-0.039c0-0.242-0.16-0.324-0.48-0.242z" inkscape:connector-curvature="0"/>
      <path id="path108" style="fill-rule:evenodd;fill:#a86c25" d="m24.035 5.19c-0.027 0.269 0.121 0.375 0.442 0.32l-0.204-0.039h0.364c-0.028-0.293-0.227-0.387-0.602-0.281z" inkscape:connector-curvature="0"/>
      <path id="path110" style="fill-rule:evenodd;fill:#613c12" d="m8.879 11.791c0.531 0.106 0.918 0.16 1.16 0.16l-0.082-0.082c0.082-0.16 0.082-0.304 0-0.437-0.613-0.133-0.973-0.016-1.078 0.359z" inkscape:connector-curvature="0"/>
      <path id="path112" style="fill-rule:evenodd;fill:#613c12" d="m14.758 16.51c0.133 0.133 0.531 0.293 1.199 0.48l-0.082-0.121 0.801-0.078c0-0.457-0.641-0.547-1.918-0.281z" inkscape:connector-curvature="0"/>
      <path id="path114" style="fill-rule:evenodd;fill:#613c12" d="m19.836 17.147c0.082-0.426-0.16-0.571-0.719-0.438-0.375 0.082-0.734 0.227-1.082 0.438 0.027 0.16 0.16 0.242 0.403 0.242 0.16 0 0.371-0.012 0.636-0.039l0.082 0.039 0.68-0.242z" inkscape:connector-curvature="0"/>
      <path id="path116" style="fill-rule:evenodd;fill:#613c12" d="m17.156 17.947c0.215-0.105 0.321-0.211 0.321-0.316-0.508-0.109-0.895-0.027-1.161 0.238 0.188 0.106 0.403 0.133 0.641 0.078h0.199z" inkscape:connector-curvature="0"/>
      <path id="path118" style="fill-rule:evenodd;fill:#613c12" d="m18.797 19.631c-0.586-0.055-1.094 0.117-1.52 0.516l1.161-0.278-0.68 0.199c0.133-0.027 0.371-0.039 0.719-0.039 0.293-0.054 0.398-0.187 0.32-0.398z" inkscape:connector-curvature="0"/>
      <path id="path120" style="fill-rule:evenodd;fill:#613c12" d="m22.836 17.229c0 0.054 0.039 0.121 0.121 0.199 0.531 0 0.867-0.039 1-0.117-0.187-0.11-0.562-0.137-1.121-0.082z" inkscape:connector-curvature="0"/>
      <path id="path122" style="fill-rule:evenodd;fill:#613c12" d="m28.035 15.588c-0.055 0.055-0.055 0.109 0 0.16 0.238 0.133 0.547 0.176 0.918 0.121-0.023-0.187-0.133-0.293-0.32-0.32-0.078 0-0.278 0.016-0.598 0.039z" inkscape:connector-curvature="0"/>
      <path id="path124" style="fill-rule:evenodd;fill:#613c12" d="m26.156 13.15c0.024 0.079 0.09 0.145 0.199 0.2l0.399 0.039-0.199 0.043c0.531 0.051 0.8-0.043 0.8-0.282-0.402-0.054-0.8-0.054-1.199 0z" inkscape:connector-curvature="0"/>
      <path id="path126" style="fill-rule:evenodd;fill:#613c12" d="m20.438 10.592c0.05 0.133 0.226 0.25 0.519 0.359l-0.082-0.203c0.746 0 1.281-0.039 1.602-0.117 0.027-0.082 0.027-0.148 0-0.199-0.856-0.11-1.536-0.055-2.039 0.16z" inkscape:connector-curvature="0"/>
      <path id="path128" style="fill-rule:evenodd;fill:#613c12" d="m8.238 17.67c0.055 0.211 0.254 0.344 0.602 0.398 0.211 0.028 0.492 0.067 0.84 0.122l-0.52-0.243c0.317 0 0.559-0.011 0.719-0.039v-0.242c-0.641-0.156-1.188-0.156-1.641 0.004z" inkscape:connector-curvature="0"/>
      <path id="path130" style="fill-rule:evenodd;fill:#613c12" d="m1.922 12.549c-0.027-0.293-0.27-0.453-0.723-0.481-0.453 0-0.785 0.082-1 0.243 0.215 0.078 0.547 0.187 1 0.32l0.723-0.082z" inkscape:connector-curvature="0"/>
      <path id="path132" style="fill-rule:evenodd;fill:#613c12" d="m22.875 13.748 0.039 0.242h0.441c0-0.242-0.16-0.32-0.48-0.242z" inkscape:connector-curvature="0"/>
      <path id="path134" style="fill-rule:evenodd;fill:#613c12" d="m22.234 15.268c-0.023 0.269 0.121 0.375 0.442 0.32l-0.199-0.039 0.32-0.039c0-0.266-0.188-0.348-0.563-0.242z" inkscape:connector-curvature="0"/>
      <path id="path136" style="fill-rule:evenodd;fill:#a86c25" d="m8.676 12.068c0.32 0.11 0.695 0.161 1.121 0.161l-0.039-0.079c0.027-0.16 0.027-0.308 0-0.441-0.641-0.051-1 0.066-1.082 0.359z" inkscape:connector-curvature="0"/>
      <path id="path138" style="fill-rule:evenodd;fill:#a86c25" d="m14.559 16.791c0.105 0.106 0.293 0.211 0.558 0.317 0.133 0.027 0.348 0.093 0.641 0.199l-0.082-0.16c0.347 0 0.613-0.024 0.801-0.079 0-0.32-0.641-0.414-1.918-0.277z" inkscape:connector-curvature="0"/>
      <path id="path140" style="fill-rule:evenodd;fill:#a86c25" d="m19.957 17.51c0.105-0.43-0.121-0.574-0.684-0.442-0.425 0.079-0.796 0.227-1.117 0.442 0.028 0.16 0.172 0.238 0.442 0.238 0.132 0 0.332-0.012 0.597-0.039l0.078 0.039 0.684-0.238z" inkscape:connector-curvature="0"/>
      <path id="path142" style="fill-rule:evenodd;fill:#a86c25" d="m16.957 18.229c0.211-0.051 0.32-0.161 0.32-0.321-0.558-0.05-0.961 0.028-1.203 0.242 0.242 0.079 0.469 0.106 0.684 0.079h0.199z" inkscape:connector-curvature="0"/>
      <path id="path144" style="fill-rule:evenodd;fill:#a86c25" d="m18.598 19.908c-0.563-0.054-1.082 0.121-1.563 0.52l1.16-0.281-0.636 0.199c0.132-0.024 0.371-0.039 0.718-0.039 0.293-0.024 0.399-0.16 0.321-0.399z" inkscape:connector-curvature="0"/>
      <path id="path146" style="fill-rule:evenodd;fill:#a86c25" d="m22.637 17.51c0 0.078 0.039 0.144 0.121 0.199 0.531 0 0.851-0.039 0.957-0.121-0.106-0.078-0.281-0.117-0.52-0.117-0.238 0.023-0.425 0.039-0.558 0.039z" inkscape:connector-curvature="0"/>
      <path id="path148" style="fill-rule:evenodd;fill:#a86c25" d="m28.035 15.869c-0.027 0.078-0.027 0.133 0 0.16 0.211 0.106 0.508 0.161 0.879 0.161 0-0.293-0.293-0.399-0.879-0.321z" inkscape:connector-curvature="0"/>
      <path id="path150" style="fill-rule:evenodd;fill:#a86c25" d="m25.957 13.432c0.023 0.105 0.09 0.183 0.199 0.238l0.399 0.039h-0.2c0.532 0.055 0.801-0.039 0.801-0.277h-1.199z" inkscape:connector-curvature="0"/>
      <path id="path152" style="fill-rule:evenodd;fill:#a86c25" d="m20.234 10.908c0.11 0.16 0.282 0.27 0.524 0.321l-0.082-0.2c0.719 0 1.254-0.039 1.597-0.121 0.028-0.078 0.028-0.144 0-0.199-0.878-0.105-1.554-0.039-2.039 0.199z" inkscape:connector-curvature="0"/>
      <path id="path154" style="fill-rule:evenodd;fill:#a86c25" d="m8 17.947c0.078 0.215 0.293 0.348 0.637 0.403 0.476 0.07 0.75 0.125 0.82 0.16l-0.5-0.281h0.719v-0.243c-0.531-0.183-1.09-0.199-1.676-0.039z" inkscape:connector-curvature="0"/>
      <path id="path156" style="fill-rule:evenodd;fill:#a86c25" d="m1.68 12.869c-0.028-0.293-0.266-0.453-0.719-0.48-0.426-0.028-0.75 0.043-0.961 0.199 0.188 0.109 0.52 0.215 1 0.32l0.68-0.039z" inkscape:connector-curvature="0"/>
      <path id="path158" style="fill-rule:evenodd;fill:#a86c25" d="m22.875 13.947c-0.027 0.082-0.012 0.176 0.039 0.282h0.402c0.051-0.293-0.093-0.387-0.441-0.282z" inkscape:connector-curvature="0"/>
      <path id="path160" style="fill-rule:evenodd;fill:#a86c25" d="m22.035 15.588c-0.027 0.215 0.121 0.32 0.442 0.32l-0.2-0.078h0.321c0-0.265-0.188-0.347-0.563-0.242z" inkscape:connector-curvature="0"/>
      <path id="path162" style="fill-rule:evenodd;fill:#613c12" d="m26.836 10.748c0.48 0.11 0.867 0.16 1.16 0.16l-0.082-0.078c0.055-0.109 0.055-0.254 0-0.441-0.613-0.133-0.973-0.012-1.078 0.359z" inkscape:connector-curvature="0"/>
      <path id="path164" style="fill-rule:evenodd;fill:#613c12" d="m31.676 8.99c0.133 0.133 0.531 0.293 1.199 0.481l-0.082-0.121 0.801-0.082c0-0.453-0.641-0.547-1.918-0.278z" inkscape:connector-curvature="0"/>
      <path id="path166" style="fill-rule:evenodd;fill:#613c12" d="m36.754 9.631c0.078-0.43-0.16-0.574-0.719-0.441-0.375 0.078-0.734 0.226-1.082 0.441 0.027 0.156 0.16 0.238 0.402 0.238 0.157 0 0.372-0.015 0.637-0.039l0.082 0.039 0.68-0.238z" inkscape:connector-curvature="0"/>
      <path id="path168" style="fill-rule:evenodd;fill:#613c12" d="m34.074 10.428c0.215-0.106 0.321-0.211 0.321-0.317-0.508-0.109-0.895-0.027-1.161 0.239 0.106 0.054 0.321 0.082 0.641 0.082h0.199v-0.004z" inkscape:connector-curvature="0"/>
      <path id="path170" style="fill-rule:evenodd;fill:#613c12" d="m51.074 14.229c-0.586-0.055-1.094 0.121-1.519 0.519l1.16-0.281-0.68 0.203c0.133-0.027 0.371-0.043 0.719-0.043 0.293-0.051 0.398-0.184 0.32-0.398z" inkscape:connector-curvature="0"/>
      <path id="path172" style="fill-rule:evenodd;fill:#613c12" d="m47.434 12.709c0 0.055 0.039 0.106 0.117 0.16 0.48 0.051 0.816 0.028 1-0.082-0.184-0.105-0.559-0.133-1.117-0.078z" inkscape:connector-curvature="0"/>
      <path id="path174" style="fill-rule:evenodd;fill:#613c12" d="m45.992 14.51c-0.027 0.051-0.027 0.121 0 0.199 0.266 0.133 0.559 0.172 0.879 0.121 0-0.187-0.105-0.293-0.32-0.32h-0.559z" inkscape:connector-curvature="0"/>
      <path id="path176" style="fill-rule:evenodd;fill:#613c12" d="m44.113 12.111 0.199 0.2 0.399 0.039-0.199 0.039c0.531 0.054 0.8-0.039 0.8-0.278-0.402-0.054-0.8-0.054-1.199 0z" inkscape:connector-curvature="0"/>
      <path id="path178" style="fill-rule:evenodd;fill:#613c12" d="m38.395 9.549c0.05 0.133 0.226 0.254 0.519 0.359l-0.082-0.199c0.746 0 1.281-0.051 1.598-0.16 0.054-0.051 0.054-0.106 0-0.16-0.903-0.106-1.582-0.051-2.035 0.16z" inkscape:connector-curvature="0"/>
      <path id="path180" style="fill-rule:evenodd;fill:#613c12" d="m26.195 16.631c0.051 0.184 0.254 0.305 0.598 0.359 0.215 0.051 0.496 0.106 0.84 0.157l-0.52-0.239c0.321 0 0.563-0.011 0.723-0.039v-0.238c-0.641-0.16-1.188-0.16-1.641 0z" inkscape:connector-curvature="0"/>
      <path id="path182" style="fill-rule:evenodd;fill:#613c12" d="m19.836 11.51c-0.027-0.293-0.266-0.453-0.719-0.481-0.426 0-0.746 0.082-0.961 0.243 0.215 0.078 0.547 0.183 1 0.316l0.68-0.078z" inkscape:connector-curvature="0"/>
      <path id="path184" style="fill-rule:evenodd;fill:#613c12" d="m40.832 12.709c-0.027 0.055-0.012 0.133 0.039 0.238h0.441c0-0.238-0.16-0.316-0.48-0.238z" inkscape:connector-curvature="0"/>
      <path id="path186" style="fill-rule:evenodd;fill:#613c12" d="m40.191 14.229c-0.027 0.269 0.121 0.375 0.442 0.32l-0.199-0.039 0.32-0.039c0-0.27-0.188-0.348-0.563-0.242z" inkscape:connector-curvature="0"/>
      <path id="path188" style="fill-rule:evenodd;fill:#a86c25" d="m26.637 11.029c0.316 0.11 0.691 0.161 1.117 0.161l-0.039-0.079c0.051-0.16 0.039-0.308-0.043-0.441-0.61-0.078-0.957 0.039-1.035 0.359z" inkscape:connector-curvature="0"/>
      <path id="path190" style="fill-rule:evenodd;fill:#a86c25" d="m31.473 9.268c0.054 0.054 0.453 0.226 1.199 0.519l-0.078-0.16c0.347 0 0.613-0.023 0.801-0.078 0-0.27-0.282-0.402-0.84-0.402-0.028 0.003-0.387 0.043-1.082 0.121z" inkscape:connector-curvature="0"/>
      <path id="path192" style="fill-rule:evenodd;fill:#a86c25" d="m36.871 9.99c0.082-0.425-0.16-0.574-0.719-0.441-0.371 0.082-0.73 0.226-1.078 0.441 0.028 0.16 0.16 0.239 0.399 0.239 0.16 0 0.375-0.012 0.64-0.039l0.082 0.039 0.676-0.239z" inkscape:connector-curvature="0"/>
      <path id="path194" style="fill-rule:evenodd;fill:#a86c25" d="m33.875 10.709c0.184-0.055 0.293-0.16 0.316-0.32-0.558-0.051-0.957 0.027-1.199 0.238 0.242 0.082 0.469 0.109 0.68 0.082h0.203z" inkscape:connector-curvature="0"/>
      <path id="path196" style="fill-rule:evenodd;fill:#a86c25" d="m50.875 14.51c-0.563-0.055-1.082 0.117-1.563 0.519l1.161-0.281-0.641 0.199c0.133-0.027 0.375-0.039 0.723-0.039 0.265-0.027 0.371-0.16 0.32-0.398z" inkscape:connector-curvature="0"/>
      <path id="path198" style="fill-rule:evenodd;fill:#a86c25" d="m47.23 12.99 0.082 0.2c0.559 0 0.895-0.04 1-0.122-0.214-0.105-0.574-0.132-1.082-0.078z" inkscape:connector-curvature="0"/>
      <path id="path200" style="fill-rule:evenodd;fill:#a86c25" d="m45.992 14.83c-0.054 0.051-0.054 0.106 0 0.16 0.211 0.106 0.508 0.16 0.879 0.16 0-0.292-0.293-0.402-0.879-0.32z" inkscape:connector-curvature="0"/>
      <path id="path202" style="fill-rule:evenodd;fill:#a86c25" d="m43.871 12.389 0.242 0.242 0.399 0.039h-0.2c0.532 0.051 0.801-0.039 0.801-0.281h-1.242z" inkscape:connector-curvature="0"/>
      <path id="path204" style="fill-rule:evenodd;fill:#a86c25" d="m38.152 9.869c0.188 0.188 0.375 0.293 0.559 0.321l-0.078-0.2c0.719 0 1.25-0.043 1.597-0.121v-0.199c-0.902-0.105-1.597-0.039-2.078 0.199z" inkscape:connector-curvature="0"/>
      <path id="path206" style="fill-rule:evenodd;fill:#a86c25" d="m25.957 16.908c0.078 0.215 0.289 0.348 0.637 0.399 0.476 0.074 0.75 0.125 0.82 0.16l-0.5-0.277h0.719v-0.243c-0.531-0.183-1.09-0.199-1.676-0.039z" inkscape:connector-curvature="0"/>
      <path id="path208" style="fill-rule:evenodd;fill:#a86c25" d="m19.637 11.791c-0.028-0.293-0.266-0.453-0.719-0.48-0.43 0-0.75 0.078-0.961 0.238 0.188 0.109 0.52 0.215 1 0.32l0.68-0.078z" inkscape:connector-curvature="0"/>
      <path id="path210" style="fill-rule:evenodd;fill:#a86c25" d="m40.832 12.908c-0.027 0.082-0.012 0.176 0.039 0.282l0.402-0.04c0.028-0.269-0.121-0.347-0.441-0.242z" inkscape:connector-curvature="0"/>
      <path id="path212" style="fill-rule:evenodd;fill:#a86c25" d="m39.992 14.51c-0.027 0.238 0.121 0.359 0.442 0.359l-0.204-0.082h0.321c0.004-0.289-0.184-0.383-0.559-0.277z" inkscape:connector-curvature="0"/>
      <path id="path214" style="fill-rule:evenodd;fill:#ad8319" d="m7.133 13.217 2.426-1.684c-0.715-2.355-1.36-3.879-1.942-4.57-0.961-1.105-2.137-0.895-3.527 0.621-0.383 0.426-0.645 1.047-0.778 1.856-0.16 0.82-0.14 1.496 0.059 2.019 0.234 0.598 0.75 1.012 1.551 1.246 1.012 0.184 1.746 0.352 2.211 0.512z" inkscape:connector-curvature="0"/>
      <path id="path216" style="fill-rule:evenodd;fill:#8a561a" d="m7.332 7.576c0.02 0.883-0.191 1.719-0.637 2.5-0.449 0.785-1.105 1.317-1.976 1.598l-1.164 0.172c0.105 0.277 0.425 0.625 0.961 1.043 1.078 0.804 2.691 1.511 4.832 2.121 2.203 0.609 4.8 0.933 7.793 0.973 1.75-0.004 4.336-0.059 7.761-0.172 3.395-0.039 6.524 0.125 9.383 0.5l1.164-0.532c0.77-0.496 1.129-1.058 1.086-1.691-0.055-1.012-0.379-1.969-0.969-2.867l-9.121 0.488c-3.902 0.227-6.133 0.344-6.691 0.356-2.719-0.028-5.078-0.411-7.074-1.153-1.239-0.457-2.528-1.324-3.868-2.594-0.675-0.648-1.226-1.253-1.652-1.816 0.106 0.277 0.164 0.633 0.172 1.074z" inkscape:connector-curvature="0"/>
      <path id="path218" style="fill-rule:evenodd;fill:#613c12" d="m7.16 6.502c0.305 0.859 0.258 1.82-0.14 2.879 0.449 0.312 0.91 0.695 1.371 1.152-0.239-0.121-0.477-0.183-0.715-0.183-0.117 0-0.321 0.011-0.61 0.031 0.489 0.625 1.372 1.152 2.657 1.59 1.687 0.594 2.879 1.105 3.566 1.539-0.125-0.485-0.418-0.867-0.879-1.149 0.621 0.207 1.297 0.309 2.028 0.317 1.847 0.187 3.23 0.308 4.148 0.363-0.727 0.031-1.449 0.133-2.164 0.309 0.902 0.445 2.305 0.484 4.199 0.113 2.363-0.453 3.809-0.66 4.332-0.621-0.691-0.074-1.375-0.317-2.055-0.727l0.914-0.226c-2.23 0.179-4.066 0.222-5.507 0.129-2.11-0.118-3.985-0.485-5.625-1.102-1.239-0.461-2.528-1.328-3.868-2.598-0.675-0.648-1.226-1.253-1.652-1.816z" inkscape:connector-curvature="0"/>
      <path id="path220" style="fill-rule:evenodd;fill:#613c12" d="m28.332 12.736c-0.547-0.027-1.328 0.106-2.344 0.399-1.086 0.269-1.875 0.418-2.363 0.449 0.324-0.008 1.348-0.066 3.078-0.176 1.121-0.078 2.133-0.074 3.039 0.016 2.039 0.273 3.539 0.633 4.5 1.082 0.645 0.336 0.973 0.797 0.996 1.379 0.883-0.492 1.317-1.094 1.297-1.797-0.055-1.012-0.375-1.969-0.969-2.867l-10.5 0.586c0.774 0.004 1.93 0.027 3.469 0.074 2.66-0.152 4.535 0.094 5.629 0.746-0.836 0.234-1.785 0.328-2.844 0.285-0.632-0.012-1.629-0.074-2.988-0.176z" inkscape:connector-curvature="0"/>
      <path id="path222" style="fill-rule:evenodd;fill:#a86c25" d="m5.691 13.647c0.473 0.242 1.082 0.507 1.817 0.796l-3.903-2.578-0.05-0.019c0.082 0.226 0.308 0.504 0.675 0.828l1.461 0.973z" inkscape:connector-curvature="0"/>
      <path id="path224" style="fill-rule:evenodd;fill:#a86c25" d="m23.746 14.373c-0.668-0.086-3.605 0.07-8.816 0.469-3.438 0.269-6.246-0.367-8.43-1.906 0.281 0.277 0.703 0.797 1.262 1.562 0.379 0.172 0.91 0.34 1.586 0.512 2.191 0.644 4.925 0.973 8.203 0.992-0.383-0.168-0.672-0.336-0.875-0.504 0.668-0.152 1.851-0.32 3.547-0.5 1.488-0.168 2.664-0.379 3.523-0.625z" inkscape:connector-curvature="0"/>
      <path id="path226" style="fill-rule:evenodd;fill:#a86c25" d="m26.676 14.803c0.824-0.141 1.551-0.082 2.183 0.172 0.559 0.23 0.895 0.554 1.012 0.972 1.609 0.067 2.774 0.164 3.488 0.289-0.297-0.242-0.757-0.418-1.375-0.527-0.347-0.039-0.836-0.094-1.464-0.172l1.843-0.687c-0.238 0-1.191-0.184-2.855-0.551-1.063-0.219-2.004-0.051-2.832 0.504z" inkscape:connector-curvature="0"/>
      <path id="path228" style="fill-rule:evenodd;fill:#a86c25" d="m10.848 13.979c0.218-0.024 0.492-0.047 0.812-0.067 0.492-0.031 0.906 0.031 1.25 0.188-2.172-1.633-4.359-2.309-6.566-2.024 0.25 0.145 1.062 0.414 2.445 0.801 1.07 0.324 1.754 0.691 2.059 1.102z" inkscape:connector-curvature="0"/>
      <path id="path230" style="fill-rule:evenodd;fill:#a86c25" d="m31.375 12.217-2.379 0.148c0.297 0.243 0.859 0.352 1.68 0.332 0.765-0.019 1.367-0.152 1.808-0.402-0.273-0.312-0.961-0.445-2.07-0.402-1.219 0.121-2.035 0.183-2.449 0.179 0.39 0.075 0.945 0.114 1.66 0.118 1.047 0.019 1.633 0.027 1.75 0.027z" inkscape:connector-curvature="0"/>
    </g>
  </g>
<metadata><rdf:RDF><cc:Work><dc:format>image/svg+xml</dc:format><dc:type rdf:resource="http://purl.org/dc/dcmitype/StillImage"/><cc:license rdf:resource="http://creativecommons.org/licenses/publicdomain/"/><dc:publisher><cc:Agent rdf:about="http://openclipart.org/"><dc:title>Openclipart</dc:title></cc:Agent></dc:publisher></cc:Work><cc:License rdf:about="http://creativecommons.org/licenses/publicdomain/"><cc:permits rdf:resource="http://creativecommons.org/ns#Reproduction"/><cc:permits rdf:resource="http://creativecommons.org/ns#Distribution"/><cc:permits rdf:resource="http://creativecommons.org/ns#DerivativeWorks"/></cc:License></rdf:RDF></metadata></svg>
