<?xml version="1.0" encoding="utf-8"?>
<!-- Generator: Adobe Illustrator 25.0.0, SVG Export Plug-In . SVG Version: 6.00 Build 0)  -->
<svg version="1.1"
	 id="svg2" xmlns:cc="http://creativecommons.org/ns#" xmlns:dc="http://purl.org/dc/elements/1.1/" xmlns:inkscape="http://www.inkscape.org/namespaces/inkscape" xmlns:ns1="http://sozi.baierouge.fr" xmlns:rdf="http://www.w3.org/1999/02/22-rdf-syntax-ns#" xmlns:sodipodi="http://sodipodi.sourceforge.net/DTD/sodipodi-0.dtd"
	 xmlns="http://www.w3.org/2000/svg" xmlns:xlink="http://www.w3.org/1999/xlink" x="0px" y="0px" viewBox="0 0 24.2 40.2"
	 style="enable-background:new 0 0 24.2 40.2;" xml:space="preserve">
<style type="text/css">
	.st0{clip-path:url(#SVGID_2_);}
	.st1{clip-path:url(#SVGID_4_);}
	.st2{fill-rule:evenodd;clip-rule:evenodd;fill:#FFFFFF;}
	.st3{clip-path:url(#SVGID_6_);}
	.st4{clip-path:url(#SVGID_8_);}
	.st5{fill-rule:evenodd;clip-rule:evenodd;fill:#333362;}
	.st6{fill-rule:evenodd;clip-rule:evenodd;fill:url(#path30_1_);}
	.st7{fill:none;}
	.st8{fill-rule:evenodd;clip-rule:evenodd;fill:#E85252;}
	.st9{fill-rule:evenodd;clip-rule:evenodd;fill:#710000;}
	.st10{fill-rule:evenodd;clip-rule:evenodd;fill:url(#path472_1_);}
	.st11{fill-rule:evenodd;clip-rule:evenodd;fill:url(#path494_1_);}
	.st12{fill-rule:evenodd;clip-rule:evenodd;fill:url(#path514_1_);}
	.st13{fill-rule:evenodd;clip-rule:evenodd;fill:#F8EFE5;}
	.st14{clip-path:url(#SVGID_10_);fill:url(#SVGID_11_);}
	.st15{fill:#A4101B;}
	.st16{opacity:0.439;fill:#EBB4B5;enable-background:new    ;}
	.st17{fill:url(#path6819_3_);}
	.st18{opacity:0.6516;fill:#5B050B;enable-background:new    ;}
	.st19{opacity:0.3031;fill-rule:evenodd;clip-rule:evenodd;enable-background:new    ;}
	.st20{fill-rule:evenodd;clip-rule:evenodd;fill:#9E6800;}
	.st21{fill-rule:evenodd;clip-rule:evenodd;fill:#764500;}
	.st22{fill-rule:evenodd;clip-rule:evenodd;fill:#3E1B13;}
	.st23{fill:url(#path6819_4_);}
</style>
<g id="g516">
	<g id="g532">
		<g id="g544">
			<g>
				<g>
					<defs>
						<rect id="SVGID_1_" x="3.7" y="6.3" width="11.2" height="2.5"/>
					</defs>
					<clipPath id="SVGID_2_">
						<use xlink:href="#SVGID_1_"  style="overflow:visible;"/>
					</clipPath>
					<g id="g546" class="st0">
						<g id="g548" transform="translate(0 -.66858)">
							<g id="g552">
								<g>
									<g>
										<defs>
											<rect id="SVGID_3_" x="3.7" y="6.9" width="11.2" height="2.5"/>
										</defs>
										<clipPath id="SVGID_4_">
											<use xlink:href="#SVGID_3_"  style="overflow:visible;"/>
										</clipPath>
										<g id="g554" class="st1">
											<g id="g556">
												<path id="path558" inkscape:connector-curvature="0" class="st2" d="M4.8,8c0.6,0.2,1.7,0.4,3.1,0.6
													C9.6,8.8,11.6,9,13.8,9c-0.1,0.2-1.1,0.2-3.2,0.1C7.9,9,5.9,8.7,4.6,8.2C4.4,8.1,4.3,8,4.3,8C4.4,7.9,4.6,7.9,4.8,8z"/>
											</g>
										</g>
									</g>
								</g>
							</g>
						</g>
					</g>
				</g>
			</g>
		</g>
	</g>
</g>
<g id="g332">
	<g id="g348">
		<g id="g360">
			<g>
				<g>
					<defs>
						<rect id="SVGID_5_" x="2.5" y="6.3" width="20" height="6.2"/>
					</defs>
					<clipPath id="SVGID_6_">
						<use xlink:href="#SVGID_5_"  style="overflow:visible;"/>
					</clipPath>
					<g id="g362" class="st3">
						<g id="g364" transform="translate(0 -.66858)">
							<g id="g368">
								<g>
									<g>
										<defs>
											<rect id="SVGID_7_" x="2.5" y="6.9" width="20" height="6.2"/>
										</defs>
										<clipPath id="SVGID_8_">
											<use xlink:href="#SVGID_7_"  style="overflow:visible;"/>
										</clipPath>
										<g id="g370" class="st4">
											<g id="g372">
												<path id="path374" inkscape:connector-curvature="0" class="st5" d="M20.6,8.3c0.2,0.6,0.7,1.3,1.5,2.3
													c-0.5,0.5-1,0.9-1.7,1.3c-0.4,0.2-1,0.4-1.8,0.4c-1,0.1-1.6,0.2-1.8,0.3c-0.4,0.1-1,0.2-1.8,0.1
													c-0.9-0.1-1.5-0.2-1.9-0.2c-0.2,0-0.8-0.2-1.6-0.5s-2-0.4-3.4-0.5c-1.3-0.1-2.3-0.2-2.9-0.5c0,0-0.4-0.2-1-0.8
													C3.8,10,3.3,9.9,2.7,9.9c0.5-1,1-1.7,1.4-2.2V7.4C14.9,7.4,20.4,7.7,20.6,8.3z"/>
											</g>
										</g>
									</g>
								</g>
							</g>
						</g>
					</g>
				</g>
			</g>
		</g>
	</g>
</g>
<g id="g22">
	<linearGradient id="path30_1_" gradientUnits="userSpaceOnUse" x1="0" y1="23.2625" x2="24.2" y2="23.2625">
		<stop  offset="0" style="stop-color:#C3282F"/>
		<stop  offset="0.6309" style="stop-color:#9C1D2E"/>
		<stop  offset="1" style="stop-color:#8A182D"/>
	</linearGradient>
	<path id="path30" inkscape:connector-curvature="0" class="st6" d="M22.3,10c0.7,0.7,1.2,1.4,1.4,2.1c0.3,0.8,0.5,1.9,0.5,3.3
		c0,1.3-0.1,4.5-0.4,9.6c-0.2,4.8-0.4,7.7-0.5,8.6c-0.1,1.1-0.6,2.1-1.4,3.1c-1,1.3-2.7,2.3-4.8,2.9c-1.7,0.5-3.4,0.7-5,0.6
		c-1.6,0.1-3.3-0.1-5-0.6C5,39,3.3,38,2.3,36.7c-0.8-1-1.3-2-1.4-3.1c-0.1-0.9-0.3-3.8-0.5-8.6C0.2,19.9,0,16.7,0,15.4
		c0-1.4,0.2-2.5,0.5-3.3c0.2-0.6,0.7-1.3,1.4-2.1C3.1,8.7,4,7.5,4.7,6.3l7.5,0.4l7.4-0.4C20.3,7.5,21.2,8.8,22.3,10z"/>
</g>
<g id="g32">
	<g id="g34">
		<g id="g40">
			<path id="path48" inkscape:connector-curvature="0" class="st7" d="M21.6,10.4c0.6,0.7,1.1,1.4,1.3,2c0.3,0.8,0.4,1.9,0.4,3.2
				c0,1.2-0.1,4.4-0.4,9.4c-0.2,4.4-0.3,7.2-0.4,8.3s-0.5,2.1-1.3,3c-1.1,1.3-2.6,2.3-4.6,2.9c-1.6,0.5-3.2,0.7-4.7,0.6
				c-1.5,0.1-3.1-0.1-4.7-0.6c-2-0.6-3.5-1.5-4.6-2.9c-0.8-1-1.2-2-1.3-3C1.4,32.5,1.2,29.7,1,25c-0.2-4.9-0.4-8-0.4-9.4
				s0.2-2.4,0.4-3.2c0.2-0.6,0.7-1.3,1.3-2C3.6,9,4.4,7.9,5,6.7l7,0.4l7-0.4C19.7,8,20.6,9.2,21.6,10.4z"/>
		</g>
	</g>
</g>
<g id="g376">
	<g id="g378">
		<g id="g384">
			<path id="path392" inkscape:connector-curvature="0" class="st8" d="M20.4,6.2c0.2,0.6,0.6,1.1,1.3,1.3c0.3,0.1,0.6,0.2,0.9,0.2
				c0,0.2-0.1,0.3-0.2,0.5c-0.2,0.3-0.5,0.5-1.1,0.6c-0.2,0-0.4,0.1-0.6,0.4c-0.2,0.2-0.5,0.3-0.8,0.3c-0.8,0-1.7,0.1-2.5,0.3
				c-0.3,0.1-0.8,0.3-1.5,0.6c-0.6,0.3-1.1,0.5-1.4,0.5c-0.8-0.1-1.4-0.2-1.7-0.1c-0.6,0.1-1.1,0-1.7-0.2C9.9,10,8.7,10,7.5,10.2
				c-1,0.2-2,0-2.9-0.7C4.2,9.2,3.8,9.1,3.5,9C3,9,2.7,9,2.6,8.9C2.4,8.7,2.1,8.5,1.9,8.1L1.7,7.7c0.9-0.3,1.5-0.6,1.7-0.9
				c0.3-0.3,0.6-1,0.9-2.3c2.6,0,5.2,0.1,7.9,0.2C17.5,5.1,20.2,5.6,20.4,6.2z"/>
		</g>
	</g>
</g>
<g id="g394">
	<g id="g396">
		<g id="g402">
			<path id="path410" inkscape:connector-curvature="0" class="st9" d="M22.6,7.7c0,0.1-0.1,0.3-0.2,0.4c-0.2,0.3-0.5,0.5-1,0.6
				c-0.4-0.3-1-0.9-1.6-1.6c-0.2-0.2-0.5-0.2-1,0.1l-0.6,0.5l0.2,1.9l-1,0.2c-0.3,0.1-0.8,0.3-1.4,0.6s-1,0.4-1.3,0.5l0.2-0.9
				c0.3-0.7,0.5-1.3,0.6-2H12c-0.1,0.4-0.4,0.9-0.9,1.5c-0.2,0.3-0.4,0.6-0.6,0.8c-1.1-0.3-2.2-0.3-3.1,0c-0.2,0.1-0.4,0.1-0.8,0.1
				L7.2,10c1-0.5,1.7-1.2,2.1-2.1L8.1,7.3L6.8,7.5l-1,0.7c-0.3,0.3-1,0.6-1.9,1c-0.6,0-1-0.1-1.3-0.3L2,8.3l0.7-0.2
				c0.9-0.2,1.8-0.8,2.9-1.9l15.1,0.5c0.4,0.6,0.9,0.9,1.5,0.9C22.2,7.6,22.6,7.7,22.6,7.7z"/>
		</g>
	</g>
</g>
<g id="g456">
	<g id="g458">
		<g id="g464">
			
				<linearGradient id="path472_1_" gradientUnits="userSpaceOnUse" x1="3.3" y1="1044.4503" x2="20.7752" y2="1044.4503" gradientTransform="matrix(1 0 0 1 0 -1038.0002)">
				<stop  offset="0" style="stop-color:#FFE5A3"/>
				<stop  offset="1" style="stop-color:#87733D"/>
			</linearGradient>
			<path id="path472" inkscape:connector-curvature="0" class="st10" d="M20.8,6.5c0,0.6-0.9,1.1-2.5,1.4c-1.7,0.4-3.8,0.6-6.2,0.6
				S7.6,8.3,5.9,7.9S3.3,7,3.3,6.5S4.2,5.4,5.9,5s3.7-0.6,6.2-0.6c2.4,0,4.5,0.2,6.2,0.6C20,5.4,20.8,5.9,20.8,6.5z"/>
		</g>
	</g>
</g>
<g id="g474">
	<g id="g476">
		<g id="g482">
			
				<linearGradient id="path494_1_" gradientUnits="userSpaceOnUse" x1="3.2525" y1="1042.8003" x2="20.9275" y2="1042.8003" gradientTransform="matrix(1 0 0 1 0 -1038.0002)">
				<stop  offset="0" style="stop-color:#2B2BE2"/>
				<stop  offset="0.3255" style="stop-color:#3045FF"/>
				<stop  offset="0.6" style="stop-color:#3241F6"/>
				<stop  offset="1" style="stop-color:#3636E0"/>
			</linearGradient>
			<path id="path494" inkscape:connector-curvature="0" class="st11" d="M21,2.1v3.6c-0.1,0.4-1,0.8-2.7,1.2
				c-1.8,0.4-3.9,0.6-6.2,0.6S7.7,7.3,5.9,6.9C4.2,6.5,3.3,6.1,3.3,5.6V2.1H21z"/>
		</g>
	</g>
</g>
<g id="g496">
	<g id="g498">
		<g id="g504">
			
				<linearGradient id="path514_1_" gradientUnits="userSpaceOnUse" x1="-3726.0732" y1="-1177.2021" x2="-3710.0547" y2="-1177.2021" gradientTransform="matrix(-0.9973 7.340000e-02 -7.340000e-02 -0.9973 -3782.8857 -898.9801)">
				<stop  offset="0" style="stop-color:#3B5BFF"/>
				<stop  offset="0.8157" style="stop-color:#3B52FF"/>
				<stop  offset="1" style="stop-color:#3B4FFF"/>
			</linearGradient>
			<path id="path514" inkscape:connector-curvature="0" class="st12" d="M20.9,2.1c0,0.5-0.9,0.9-2.6,1.2s-3.8,0.5-6.2,0.5
				c-2.5,0-4.6-0.2-6.3-0.5S3.2,2.6,3.2,2.1s0.9-0.9,2.6-1.2s3.8-0.5,6.3-0.5c2.4,0,4.5,0.2,6.2,0.5C20,1.3,20.9,1.7,20.9,2.1z"/>
		</g>
	</g>
</g>
<path id="path560" inkscape:connector-curvature="0" class="st13" d="M4.6,36.8c0.7,0.4,1.1,0.7,1.2,1.1c0.1,0.4,0,0.6-0.2,0.6
	c-0.4,0-1.1-0.4-1.9-1.2c-0.4-0.4-0.4-0.6-0.1-0.7C3.8,36.5,4.2,36.6,4.6,36.8z"/>
<path id="path562" inkscape:connector-curvature="0" class="st13" d="M7.2,38.1c0.5,0.1,0.6,0.3,0.4,0.6C7.4,39,7.2,39,7,38.8
	c-0.2-0.1-0.3-0.3-0.3-0.5S6.9,38.1,7.2,38.1z"/>
<g id="g564">
	<g id="g566">
		<g id="g572">
			<path id="path580" inkscape:connector-curvature="0" class="st8" d="M20.9,6c-0.3,0.4-1.1,0.8-2.3,1.1c-1.7,0.4-3.9,0.6-6.7,0.7
				C8,7.8,5.2,7.3,3.3,6.5C3,6.3,2.8,5.7,2.8,4.6c0-0.9,0-1.6,0.1-2.2s0.8-1.1,2-1.6C6.5,0.3,8.7,0,11.5,0c3.1,0,5.6,0.2,7.3,0.8
				c1.6,0.5,2.4,1.1,2.5,1.8C21.5,4.3,21.3,5.4,20.9,6z"/>
		</g>
	</g>
</g>
<g id="g582">
	<g id="g584">
		<g id="g590">
			<path id="path598" inkscape:connector-curvature="0" class="st9" d="M21.3,2.5v0.9c-1.4,1.3-2.3,2.3-2.7,3l-0.4,0.7
				c-0.9,0.2-1.7,0.3-2.5,0.4c1.7-2.1,3-3.5,4-4.1C20.5,3,21,2.6,21.2,2.3L21.3,2.5z"/>
		</g>
	</g>
</g>
<g id="g600">
	<g id="g602">
		<g id="g608">
			<path id="path616" inkscape:connector-curvature="0" class="st9" d="M4.1,2.7L9.6,0h2.9c-1.4,0.8-3,1.6-4.8,2.3
				C7,2.7,6.2,2.9,5.5,3.1C4.4,4,3.6,5,3,5.9C2.9,5.5,2.8,4.9,2.8,4C2.9,3.9,2.9,3.8,3,3.8C3.3,3.4,3.7,3,4.1,2.7z"/>
		</g>
	</g>
</g>
<g id="g618">
	<g id="g620">
		<g id="g626">
			<path id="path634" inkscape:connector-curvature="0" class="st9" d="M11.7,1.9c1-0.4,2.1-1,3.3-1.8l2.5,0.4
				c-2,1.2-3.3,1.9-3.8,2.1l-2.9,1.2C9.8,4.2,8.9,5,8.1,5.9L6.9,7.5C6.3,7.3,5.6,7.2,4.6,6.9c1-1.2,1.8-2.1,2.5-2.7
				c0.4-0.3,0.7-0.5,1-0.6C8,3.6,11.7,1.9,11.7,1.9z"/>
		</g>
	</g>
</g>
<g id="g636">
	<g id="g638">
		<g id="g644">
			<path id="path652" inkscape:connector-curvature="0" class="st9" d="M12.3,4.6l6.8-3.8c0.6,0.2,1,0.4,1.4,0.7l-3.8,2
				c-1.6,0.8-2.8,1.8-3.7,3.1l-0.8,1.1H9.6C10.8,6.2,11.6,5.1,12.3,4.6z"/>
		</g>
	</g>
</g>
<g id="g654">
	<g id="g656">
		<g id="g662">
			<path id="path670" inkscape:connector-curvature="0" class="st8" d="M12.2,3.8C7.6,3.8,4.6,3.2,3,2.2c0.3-0.6,1-1.1,2.3-1.4
				C6.8,0.2,8.9,0,11.5,0c5.5,0,8.7,0.7,9.6,2.1C19.8,3.2,16.8,3.8,12.2,3.8z"/>
		</g>
	</g>
</g>
<g id="g672">
	<g id="g674">
		<g id="g680">
			<path id="path688" inkscape:connector-curvature="0" class="st9" d="M4.1,2.7L9.6,0h2.9c-1.4,0.8-3,1.6-4.8,2.3L5.5,3.1L4.1,2.7
				L4.1,2.7z"/>
		</g>
	</g>
</g>
<g id="g690">
	<g id="g692">
		<g id="g698">
			<path id="path706" inkscape:connector-curvature="0" class="st9" d="M17.5,0.4C17,0.6,16.2,1,15.2,1.5c-1.1,0.6-1.8,0.9-2,1
				l-2.4,1.2L8,3.5l3.8-1.6c1-0.4,2.1-1,3.3-1.8v0.1l1.4,0.1l0.9,0.2C17.3,0.4,17.5,0.4,17.5,0.4z"/>
		</g>
	</g>
</g>
<g id="g708">
	<g id="g710">
		<g id="g716">
			<path id="path724" inkscape:connector-curvature="0" class="st9" d="M13.8,3.7l5.3-2.9L20,1.2l0,0l0.5,0.3l0,0L17,3.4
				C17.1,3.5,13.8,3.7,13.8,3.7z"/>
		</g>
	</g>
</g>
<g>
	<g>
		<g>
			<defs>
				<polygon id="SVGID_9_" points="22.2,31.2 23.6,14 -1,14 -1,32.1 				"/>
			</defs>
			<clipPath id="SVGID_10_">
				<use xlink:href="#SVGID_9_"  style="overflow:visible;"/>
			</clipPath>
			
				<linearGradient id="SVGID_11_" gradientUnits="userSpaceOnUse" x1="2.3058" y1="1061.0505" x2="21.575" y2="1061.0505" gradientTransform="matrix(1 0 0 1 0 -1038.0005)">
				<stop  offset="0" style="stop-color:#C2B294"/>
				<stop  offset="7.142900e-02" style="stop-color:#C7B89B"/>
				<stop  offset="0.1429" style="stop-color:#CBC1A3"/>
				<stop  offset="0.2143" style="stop-color:#D2C8AD"/>
				<stop  offset="0.2857" style="stop-color:#D8CFB6"/>
				<stop  offset="0.3571" style="stop-color:#D9D2B8"/>
				<stop  offset="0.4286" style="stop-color:#D9D2B8"/>
				<stop  offset="0.5" style="stop-color:#D9D2B8"/>
				<stop  offset="0.5714" style="stop-color:#D9D2B8"/>
				<stop  offset="0.6429" style="stop-color:#D6CFB5"/>
				<stop  offset="0.7143" style="stop-color:#D3C8AD"/>
				<stop  offset="0.7857" style="stop-color:#CDC1A6"/>
				<stop  offset="0.8571" style="stop-color:#C7B79C"/>
				<stop  offset="0.9286" style="stop-color:#BFAD8F"/>
				<stop  offset="1" style="stop-color:#BBAC89"/>
			</linearGradient>
			<path class="st14" d="M21.6,25.2c0-0.1,0-0.2,0-0.3c0-0.1,0-0.2,0-0.3c-0.1-0.2-0.2-0.5-0.1-0.8c0-0.1,0.1-0.2,0.1-0.3
				c0-0.1,0-0.1-0.1-0.2c-0.1-0.2-0.2-0.4-0.1-0.6c0-0.2,0.1-0.3,0.2-0.4c0-0.2,0-0.3,0-0.5c0-0.1,0-0.3,0-0.4c0-0.2,0-0.3,0-0.4
				c0,0,0,0,0-0.1s0-0.2,0-0.3c0-0.1-0.1-0.2-0.1-0.3c0-0.2,0.1-0.4,0.1-0.6s0-0.5,0-0.7c0-0.1,0-0.2,0.1-0.3
				c0.1-0.1,0.1-0.1,0.2-0.2c0-0.1-0.1-0.3-0.1-0.4c-0.1-0.2-0.1-0.3-0.1-0.5v-0.1c0,0,0,0,0-0.1s0-0.2,0-0.3c0-0.1,0-0.1,0-0.2
				c0,0,0-0.1-0.1-0.1c-0.2-0.1-0.4,0-0.6-0.1c-0.2,0-0.4-0.1-0.6-0.1s-0.4,0.1-0.6,0.1s-0.4,0.1-0.6,0.1s-0.3-0.1-0.4-0.2
				c-0.2,0-0.4,0-0.5,0.1c-0.2,0.1-0.4,0.1-0.6,0.1c-0.1,0-0.1-0.1-0.1-0.1c-0.2,0.1-0.5,0.1-0.7,0.1s-0.3,0-0.5-0.1
				c-0.1-0.1-0.3-0.1-0.5-0.1c-0.2,0-0.3,0-0.5,0c-0.1,0-0.2,0.1-0.4,0.1l0,0c0,0,0,0-0.1,0c-0.3,0-0.7,0-1-0.1h-0.1l0,0h-0.1
				c-0.1,0-0.2-0.1-0.3,0c-0.1,0-0.1,0.1-0.2,0.1c-0.2,0.1-0.4,0.1-0.7,0C12.2,17,12.1,17,12,17s-0.2,0.1-0.3,0.1
				c-0.2,0.1-0.5,0-0.7,0.1h-0.1c-0.3,0.1-0.6,0.2-1,0.1c-0.2,0-0.4-0.1-0.5-0.1c-0.2,0-0.4,0-0.5,0c-0.4,0-0.8,0.1-1.1,0.1
				c-0.1,0-0.1-0.1-0.1-0.1l0,0v-0.1l0,0c-0.2-0.1-0.4,0-0.7,0c-0.2,0-0.4,0.1-0.6,0.1c-0.2,0.1-0.3,0.1-0.5,0.2
				c-0.2,0-0.3,0-0.5-0.1c-0.1-0.1-0.2-0.2-0.4-0.2H4.9c-0.2,0-0.3,0.1-0.5,0.1s-0.3,0-0.5-0.1c-0.1,0-0.1-0.1-0.1-0.2
				c0,0,0,0-0.1,0H3.6c-0.1,0-0.2,0-0.2,0c0,0.1,0,0.1-0.1,0.1c-0.2,0-0.4-0.1-0.6-0.1c0,0.1-0.1,0.2-0.1,0.4c0,0.2,0.1,0.3,0.1,0.5
				c0.1,0.3,0,0.5-0.1,0.8c0,0.1-0.1,0.3,0,0.4c0,0.1,0.1,0.2,0.1,0.4c0,0.1,0,0.3-0.1,0.4c0.2,0.3-0.1,0.6,0,0.9
				c0,0.2,0.1,0.4,0.1,0.6s0,0.4,0.1,0.6c0,0.2,0.1,0.4,0.1,0.6c0,0.1,0,0.2,0,0.3c0,0.1,0,0.2,0,0.3c0,0.3-0.1,0.6-0.3,0.8V24
				c0,0.1,0,0.3,0,0.4c0,0,0,0,0,0.1l0,0c0.1,0,0.1,0,0.1,0.1c0.1,0.2,0,0.3-0.1,0.4c0,0.1-0.1,0.1-0.1,0.2s0,0.2,0,0.3
				c0,0.1,0.1,0.2,0.2,0.3l0.1,0.1V26c0,0,0,0,0.1,0c0.1,0.1,0,0.3,0,0.4l0,0l0,0c0.1,0,0.2,0.1,0.1,0.2c0,0.1-0.2,0.3-0.2,0.4
				s0,0.2,0,0.3c0,0.1,0,0.2,0,0.2c0.1,0.1,0.1,0.1,0.2,0.2c0.2,0.2,0.1,0.5,0,0.7c0,0.1-0.1,0.3-0.1,0.4S2.8,28.9,2.7,29
				c0,0.1,0.1,0.2,0.1,0.2c0,0.1,0,0.1,0,0.2c0.1,0,0.1,0,0.2,0c0.1,0,0.2,0.1,0.3,0.1c0.2,0.1,0.5,0,0.7,0l0,0c0,0,0.1-0.1,0.1,0
				c0.2,0,0.3,0,0.5-0.1c0.1-0.1,0.2-0.1,0.3-0.2c0.2,0,0.3,0.1,0.4,0.1c0.2,0,0.3,0,0.5,0s0.4,0,0.5,0c0.2,0,0.3-0.1,0.5-0.1
				c0.1,0,0.3,0,0.4,0s0.2,0,0.4,0l0,0c0.1,0,0.3,0,0.4,0c0.1,0,0.2,0,0.3-0.1c0.2-0.1,0.4-0.1,0.6,0l0,0c0,0,0,0,0.1,0
				c0,0,0,0,0.1,0c0.5-0.2,1-0.2,1.5-0.2c0.1,0,0.1,0.1,0.1,0.1l0,0c0.2-0.2,0.6-0.2,0.8-0.1c0.2,0,0.3,0.1,0.5,0.1
				c0.3,0,0.5,0,0.8,0h0.1l0,0c0.2,0,0.3-0.1,0.5-0.1s0.4,0.2,0.6,0.2c0.2,0,0.4-0.1,0.5-0.1c0.2,0,0.4,0,0.5,0s0.1,0.1,0.1,0.2
				c0,0,0,0,0.1,0c0.2,0,0.3-0.1,0.4-0.1c0.1,0,0.3,0,0.4,0l0,0c0.1,0,0.2-0.1,0.4-0.2c0.2,0,0.3,0,0.4,0.1c0.2,0,0.3,0,0.5,0
				c0.1,0,0.3,0,0.4,0c0.2,0,0.5-0.1,0.7-0.1c0.1,0,0.3,0,0.4,0.1c0.3,0,0.7,0,1-0.1c0.2,0,0.4-0.1,0.6,0c0.2,0,0.3,0.1,0.5,0.1
				l0.1-0.1c0.1-0.1,0.2-0.1,0.3-0.1c0-0.1-0.1-0.2-0.1-0.4c0-0.1,0-0.2,0-0.3c0-0.1,0-0.2-0.1-0.4c0-0.2,0-0.4,0-0.6
				c0.1-0.2,0.2-0.4,0.2-0.6s0-0.3,0.1-0.5c0,0,0,0,0-0.1s-0.1-0.1-0.1-0.2s0-0.3,0.1-0.4C21.6,25.6,21.6,25.4,21.6,25.2z"/>
		</g>
	</g>
</g>
<g>
	<path id="path2536_1_" inkscape:connector-curvature="0" class="st15" d="M7.5,25.2C7.2,26.5,8,27.8,9.3,28
		c1.3,0.3,2.5-0.6,2.8-1.9c0.3-1.3-0.6-2.5-1.8-2.8S7.7,23.9,7.5,25.2z"/>
	<path id="path6236_1_" inkscape:connector-curvature="0" class="st16" d="M10.2,23.5c0.4,0.1,0.8,0.2,1,0.5
		c0.2,0.4-0.1,0.8-0.5,0.8c-0.4,0-0.8-0.3-1.2-0.4c-0.3-0.1-0.7-0.1-1,0.1c-0.4,0.2-0.7,0.6-0.7,1c0,0.2-0.1,0.3-0.1,0.5
		c-0.1-0.2,0-0.4,0-0.6c0.1-0.5,0.3-0.9,0.6-1.2c0.3-0.2,0.7-0.2,1,0c0.4,0.2,0.8,0.3,1.3,0.3c0.1,0,0.3-0.1,0.3-0.2
		c0-0.2-0.1-0.3-0.3-0.3c-0.5-0.2-1.2-0.3-1.7-0.1c-0.2,0,0.2-0.1,0.2-0.2C9.4,23.5,9.8,23.5,10.2,23.5L10.2,23.5z"/>
	
		<radialGradient id="path6819_3_" cx="103.1185" cy="-538.789" r="1.9063" gradientTransform="matrix(-0.6163 -0.3718 0.623 -0.7007 407.8217 -314.1482)" gradientUnits="userSpaceOnUse">
		<stop  offset="0" style="stop-color:#E79B9E"/>
		<stop  offset="1" style="stop-color:#890F18;stop-opacity:0"/>
	</radialGradient>
	<path id="path6819_1_" inkscape:connector-curvature="0" class="st17" d="M8.1,24.9c-0.4,0.4-0.4,0.9,0,1.2c0.4,0.2,1,0.1,1.3-0.4
		c0.4-0.4,0.4-0.9,0-1.2C9.1,24.3,8.5,24.5,8.1,24.9z"/>
	<path id="path6829_1_" inkscape:connector-curvature="0" class="st18" d="M11.8,25c0.2,0.4,0.2,0.8,0.1,1.2c-0.2,1-1.2,1.7-2.4,1.7
		c1.2-0.3,2.1-1,2.3-2.1C11.8,25.6,11.8,25.3,11.8,25z"/>
	<g id="g3961_1_" transform="translate(42,20)">
		<path id="path12957_1_" inkscape:connector-curvature="0" class="st19" d="M-32.5,4c0,0.1,0.2,0.2,0.4,0.3c0.3,0.1,0.5,0,0.5-0.1
			c0-0.1-0.2-0.2-0.4-0.3C-32.3,3.8-32.5,3.9-32.5,4z"/>
		<path id="path3319_1_" inkscape:connector-curvature="0" class="st20" d="M-32,4.3c0.2-1.2,0.3-2.6,0.8-3.7
			c0.3-0.7,0.7-1.4,1.2-1.9c0.1-0.2-0.1-0.3-0.2-0.1C-30.6-1-31-0.4-31.2,0.3c-0.3,0.6-0.5,1.2-0.6,1.8c-0.1,0.7-0.3,1.4-0.4,2
			C-32.2,4.2-32.1,4.3-32,4.3L-32,4.3z"/>
		<path id="path3325_1_" inkscape:connector-curvature="0" class="st21" d="M-30.3-0.9c0.4,0,0.5-0.4,0.8-0.5
			c0.3-0.2,0.1-0.6-0.3-0.5c-0.4,0-0.4,0.5-0.7,0.6C-30.7-1.2-30.5-0.9-30.3-0.9L-30.3-0.9z"/>
		<path id="path6226_1_" inkscape:connector-curvature="0" class="st22" d="M-29.6-1.9c0.1,0,0.1,0.1,0.2,0.1c0,0.1,0.1,0.1,0,0.2
			c0,0.1-0.1,0.1-0.2,0.2c0,0,0,0,0,0c-0.1,0.1-0.2,0.2-0.3,0.3C-30-1-30.1-0.8-30.3-0.8c0,0,0,0,0,0c-0.1,0-0.2-0.1-0.3-0.2
			c0,0,0-0.1,0-0.2c0-0.1,0-0.1,0.1-0.1c0,0,0,0,0,0c0.1-0.1,0.2-0.2,0.3-0.3c0.1-0.1,0.2-0.3,0.4-0.3c0,0,0,0,0,0
			C-29.7-2-29.6-2-29.6-1.9L-29.6-1.9z M-29.6-1.9c-0.1,0-0.1,0-0.2,0c0,0,0,0,0,0c-0.2,0-0.2,0.1-0.3,0.2c-0.1,0.1-0.2,0.3-0.3,0.4
			c0,0,0,0,0,0c0,0-0.1,0.1-0.1,0.1c0,0,0,0.1,0,0.1c0,0.1,0.1,0.1,0.2,0.1c0.2,0,0.3-0.1,0.4-0.2c0.1-0.1,0.2-0.3,0.4-0.3l0,0
			c0.1,0,0.1-0.1,0.1-0.1c0-0.1,0-0.1,0-0.2C-29.5-1.8-29.5-1.9-29.6-1.9L-29.6-1.9z"/>
	</g>
	<path id="path2536_2_" inkscape:connector-curvature="0" class="st15" d="M17.1,25.2c0.3,1.3-0.6,2.5-1.8,2.8
		c-1.3,0.3-2.5-0.6-2.8-1.9c-0.3-1.3,0.6-2.5,1.8-2.8S16.8,23.9,17.1,25.2z"/>
	<path id="path6236_2_" inkscape:connector-curvature="0" class="st16" d="M14.4,23.5c-0.4,0.1-0.8,0.2-1,0.5
		c-0.2,0.4,0.1,0.8,0.5,0.8c0.4,0,0.8-0.3,1.2-0.4c0.3-0.1,0.7-0.1,1,0.1c0.4,0.2,0.7,0.6,0.7,1c0,0.2,0.1,0.3,0.1,0.5
		c0.1-0.2,0-0.4,0-0.6c-0.1-0.5-0.3-0.9-0.6-1.2c-0.3-0.2-0.7-0.2-1,0c-0.4,0.2-0.8,0.3-1.3,0.3c-0.1,0-0.3-0.1-0.3-0.2
		c0-0.2,0.1-0.3,0.3-0.3c0.5-0.2,1.2-0.3,1.7-0.1c0.2,0-0.2-0.1-0.2-0.2C15.2,23.5,14.8,23.4,14.4,23.5L14.4,23.5z"/>
	
		<radialGradient id="path6819_4_" cx="-62.438" cy="-450.933" r="1.9063" gradientTransform="matrix(0.6163 -0.3718 -0.623 -0.7007 -226.4605 -314.1482)" gradientUnits="userSpaceOnUse">
		<stop  offset="0" style="stop-color:#E79B9E"/>
		<stop  offset="1" style="stop-color:#890F18;stop-opacity:0"/>
	</radialGradient>
	<path id="path6819_2_" inkscape:connector-curvature="0" class="st23" d="M16.5,24.9c0.4,0.4,0.4,0.9,0,1.2c-0.4,0.2-1,0.1-1.3-0.4
		c-0.4-0.4-0.4-0.9,0-1.2C15.5,24.3,16.1,24.5,16.5,24.9z"/>
	<path id="path6829_2_" inkscape:connector-curvature="0" class="st18" d="M12.8,25c-0.2,0.4-0.2,0.8-0.1,1.2c0.2,1,1.2,1.7,2.4,1.7
		c-1.2-0.3-2.1-1-2.3-2.1C12.8,25.6,12.8,25.3,12.8,25z"/>
	<path id="path12957_2_" inkscape:connector-curvature="0" class="st19" d="M15.1,24c0,0.1-0.2,0.2-0.4,0.3c-0.3,0.1-0.5,0-0.5-0.1
		c0-0.1,0.2-0.2,0.4-0.3C14.9,23.8,15.1,23.9,15.1,24z"/>
	<path id="path3319_2_" inkscape:connector-curvature="0" class="st20" d="M14.5,24.3c-0.2-1.2-0.3-2.6-0.8-3.7
		c-0.3-0.7-0.7-1.4-1.2-1.9c-0.1-0.2,0.1-0.3,0.2-0.1c0.5,0.5,0.8,1.1,1.1,1.8c0.3,0.6,0.5,1.2,0.6,1.8c0.1,0.7,0.3,1.4,0.4,2
		C14.8,24.2,14.7,24.3,14.5,24.3L14.5,24.3z"/>
	<path id="path3325_2_" inkscape:connector-curvature="0" class="st21" d="M12.9,19.1c-0.4,0-0.5-0.4-0.8-0.5
		c-0.3-0.2-0.1-0.6,0.3-0.5c0.4,0,0.4,0.5,0.7,0.6C13.3,18.8,13.1,19.1,12.9,19.1L12.9,19.1z"/>
	<path class="st22" d="M13.1,18.8c0-0.1,0-0.1-0.1-0.1c0,0,0,0,0,0c-0.1-0.1-0.2-0.2-0.3-0.3c-0.1-0.1-0.2-0.3-0.4-0.3c0,0,0,0,0,0
		c-0.1,0-0.2,0-0.2,0h0c-0.1,0-0.1,0.1-0.2,0.1c0,0,0,0,0,0c0,0,0,0,0.1,0c0,0,0,0,0,0c0,0,0,0,0,0c0,0,0.1-0.1,0.1-0.1h0
		c0.1,0,0.1,0,0.2,0c0,0,0,0,0,0c0.2,0,0.2,0.1,0.3,0.2c0.1,0.1,0.2,0.3,0.3,0.4c0,0,0,0,0,0C13,18.8,13.1,18.8,13.1,18.8
		c-0.1,0-0.1,0.1-0.1,0.1c0,0.1-0.1,0.1-0.2,0.1c-0.2,0-0.3-0.1-0.4-0.2c-0.1-0.1-0.1-0.1-0.2-0.2c0,0,0,0-0.1,0.1
		c0.1,0.1,0.1,0.1,0.2,0.2c0.1,0.1,0.2,0.2,0.4,0.2c0,0,0,0,0,0c0.1,0,0.2-0.1,0.3-0.2C13.1,18.9,13.2,18.9,13.1,18.8z"/>
</g>
</svg>
