<?xml version="1.0" encoding="utf-8"?>
<!-- Generator: Adobe Illustrator 25.0.0, SVG Export Plug-In . SVG Version: 6.00 Build 0)  -->
<svg version="1.1" id="Publicdomainvectors.org" xmlns="http://www.w3.org/2000/svg" xmlns:xlink="http://www.w3.org/1999/xlink"
	 x="0px" y="0px" viewBox="0 0 235.9 278.3" style="enable-background:new 0 0 235.9 278.3;" xml:space="preserve">
<style type="text/css">
	.st0{fill-rule:evenodd;clip-rule:evenodd;fill:#FFFFFF;}
	.st1{fill-rule:evenodd;clip-rule:evenodd;fill:#F2A659;}
	.st2{fill-rule:evenodd;clip-rule:evenodd;fill:#D18B45;}
	.st3{fill-rule:evenodd;clip-rule:evenodd;fill:#BF7934;}
	.st4{fill-rule:evenodd;clip-rule:evenodd;fill:#B36C26;}
	.st5{fill-rule:evenodd;clip-rule:evenodd;fill:#A86018;}
	.st6{fill-rule:evenodd;clip-rule:evenodd;fill:#1F1308;}
	.st7{clip-path:url(#SVGID_2_);fill-rule:evenodd;clip-rule:evenodd;fill:url(#SVGID_3_);}
	.st8{fill:#A4101B;}
	.st9{opacity:0.439;fill:#EBB4B5;enable-background:new    ;}
	.st10{fill:url(#path6819_3_);}
	.st11{opacity:0.6516;fill:#5B050B;enable-background:new    ;}
	.st12{opacity:0.3031;fill-rule:evenodd;clip-rule:evenodd;enable-background:new    ;}
	.st13{fill-rule:evenodd;clip-rule:evenodd;fill:#9E6800;}
	.st14{fill-rule:evenodd;clip-rule:evenodd;fill:#764500;}
	.st15{fill-rule:evenodd;clip-rule:evenodd;fill:#3E1B13;}
	.st16{fill:url(#path6819_4_);}
</style>
<polygon class="st0" points="104.6,359.2 105.2,363.1 109,363.7 105.2,364.3 104.6,368.1 104,364.3 100.1,363.7 104,363.1 "/>
<polygon class="st0" points="248.2,380.2 249.3,387.4 256.4,388.5 249.3,389.6 248.2,396.7 247,389.6 239.9,388.5 247,387.4 "/>
<g>
	<rect x="155.5" class="st1" width="23.7" height="13.9"/>
	<rect x="150.5" y="5.9" class="st2" width="33.8" height="13.9"/>
	<path class="st2" d="M199.5,11.2c21.7,33.9,35.2,81.2,35.2,133.6s-13.5,99.7-35.2,133.6H36.4c-21.7-34-35.3-81.3-35.3-133.7
		S14.6,45,36.3,11.1h163.2V11.2z"/>
	<path class="st3" d="M187.7,11.2c18.6,33.9,30.2,81.2,30.2,133.6s-11.6,99.7-30.2,133.6H48.2C29.6,244.4,18,197.1,18,144.7
		S29.6,45,48.2,11.1h139.5V11.2z"/>
	<path class="st4" d="M171,11.2c14.1,33.9,22.9,81.2,22.9,133.6s-8.8,99.7-22.9,133.6H64.9C50.7,244.4,42,197.1,42,144.7
		S50.8,45,64.9,11.1H171V11.2z"/>
	<path class="st5" d="M141.7,11.2C148,45.1,152,92.4,152,144.7c0,52.4-3.9,99.7-10.3,133.6H94.2c-6.3-33.9-10.3-81.2-10.3-133.6
		S87.8,45,94.2,11.1h47.5V11.2z"/>
	<path class="st6" d="M199.5,11.2c5.6,8.7,10.7,18.4,15.1,28.8H21.3c4.4-10.4,9.5-20,15.1-28.8L199.5,11.2L199.5,11.2z M234.3,128.7
		c0.3,5.3,0.4,10.6,0.4,16c0,4.3-0.1,8.5-0.3,12.8H1.4c-0.2-4.2-0.3-8.5-0.3-12.8c0-5.4,0.1-10.7,0.4-16H234.3L234.3,128.7z
		 M214.6,249.6c-4.4,10.4-9.5,20-15.1,28.8H36.4c-5.6-8.7-10.7-18.4-15.1-28.8L214.6,249.6L214.6,249.6z"/>
</g>
<g>
	<g>
		<defs>
			<polygon id="SVGID_1_" points="221.9,222.9 235.9,58 0,58 0,231.5 			"/>
		</defs>
		<clipPath id="SVGID_2_">
			<use xlink:href="#SVGID_1_"  style="overflow:visible;"/>
		</clipPath>
		
			<linearGradient id="SVGID_3_" gradientUnits="userSpaceOnUse" x1="-2296.4207" y1="-272.0031" x2="-2296.9497" y2="-93.4434" gradientTransform="matrix(2.024178e-16 -1.1019 -1.0483 -1.925717e-16 -73.8674 -2382.2561)">
			<stop  offset="0" style="stop-color:#C2B294"/>
			<stop  offset="7.142900e-02" style="stop-color:#C7B89B"/>
			<stop  offset="0.1429" style="stop-color:#CBC1A3"/>
			<stop  offset="0.2143" style="stop-color:#D2C8AD"/>
			<stop  offset="0.2857" style="stop-color:#D8CFB6"/>
			<stop  offset="0.3571" style="stop-color:#D9D2B8"/>
			<stop  offset="0.4286" style="stop-color:#D9D2B8"/>
			<stop  offset="0.5" style="stop-color:#D9D2B8"/>
			<stop  offset="0.5714" style="stop-color:#D9D2B8"/>
			<stop  offset="0.6429" style="stop-color:#D6CFB5"/>
			<stop  offset="0.7143" style="stop-color:#D3C8AD"/>
			<stop  offset="0.7857" style="stop-color:#CDC1A6"/>
			<stop  offset="0.8571" style="stop-color:#C7B79C"/>
			<stop  offset="0.9286" style="stop-color:#BFAD8F"/>
			<stop  offset="1" style="stop-color:#BBAC89"/>
		</linearGradient>
		<path class="st7" d="M211.2,167.8c-0.2-0.9-0.4-1.6-0.4-2.5s0.1-1.6-0.3-2.5c-1.4-2.4-1.6-5-1.2-7.7c0.2-1.2,0.6-2.2,1.3-3.1
			c-0.2-0.5-0.4-1-0.6-1.5c-0.6-1.8-1.7-3.6-1.3-5.6c0.3-1.5,1.2-2.7,1.5-4.2c0.3-1.6,0-2.9-0.5-4.5c-0.4-1.3-0.1-2.5,0.2-3.7
			c0.4-1.4,0.5-2.8,0.2-4.3c-0.1-0.2-0.1-0.3-0.1-0.5c0-0.9-0.1-1.7-0.4-2.6c-0.3-1-0.8-1.9-1-2.9c-0.3-1.9,0.5-3.6,0.8-5.4
			c0.4-2.4-0.3-4.6-0.4-6.9c0-0.9,0.1-1.7,0.6-2.4c0.5-0.8,1.3-1.4,1.5-2.4c0.3-1.3-0.8-2.5-1.4-3.6c-0.9-1.5-1.3-3-1-4.8
			c0.1-0.3,0.2-0.7,0.3-1c-0.2-0.2-0.3-0.4-0.3-0.7c-0.1-0.9-0.2-1.9-0.2-2.8c0-0.7,0.3-1.2,0.4-1.8c-0.1-0.4-0.3-0.9-0.6-1.3
			c-1.7-0.6-3.6-0.4-5.4-0.6c-1.9-0.2-3.7-0.9-5.5-1c-2.1-0.1-4.1,0.7-6,1.2c-1.7,0.5-3.8,1.1-5.6,0.8c-1.5-0.2-2.6-1.4-4.1-1.8
			c-1.7-0.4-3.4,0.1-5.1,0.6c-1.8,0.6-3.5,1.2-5.4,1.4c-0.9,0.1-1.3-0.6-1.2-1.3c-2.2,0.7-4.4,1.2-6.7,1.1c-1.6,0-3-0.3-4.4-1.1
			c-1.4-0.8-2.8-1.2-4.4-1.2c-1.6,0-3.1,0.2-4.6,0.4c-1.1,0.4-2.3,0.7-3.5,0.7c-0.1,0-0.2,0-0.4,0s-0.5,0.1-0.7,0.1
			c-3.3,0.4-6.5,0-9.6-1c-0.3-0.1-0.5-0.2-0.8-0.3h-0.1c-0.3,0.3-0.7,0.4-1.1,0.2c-0.9-0.4-1.6-0.5-2.4,0c-0.7,0.4-1.3,1-2.1,1.4
			c-2.1,1.1-4.3,0.9-6.6,0.2c-1.1-0.3-2.2-0.7-3.4-0.5c-1,0.2-1.9,0.7-2.9,1.1c-2.2,0.7-4.5,0.4-6.7,0.7c-0.3,0.2-0.6,0.3-0.9,0.5
			c-3,1.4-5.9,1.6-9.2,0.9c-1.7-0.4-3.4-0.9-5.2-1.1c-1.7-0.2-3.4-0.1-5.1,0.1c-3.6,0.3-7.3,0.9-10.9,0.6c-0.6,0-1.3-0.5-1.2-1.2
			c0-0.1,0-0.1,0-0.2c-0.3-0.3-0.4-0.7-0.3-1.1c-0.1,0-0.1,0-0.2,0c-1.9-0.5-4.3-0.1-6.3,0.1c-1.9,0.2-3.8,0.5-5.7,0.8
			c-1.6,0.6-3.3,1.3-5,1.6c-1.6,0.3-3.1,0.1-4.5-0.7c-1.2-0.7-2.2-1.5-3.6-1.8c-0.4,0-0.7,0-1-0.1c-1.6,0-3.2,0.6-4.7,0.8
			c-1.7,0.3-3.3,0.1-4.9-0.6c-0.7-0.3-0.8-1-0.5-1.5c-0.2-0.1-0.5-0.3-0.7-0.5c-0.3,0.1-0.6,0.1-0.9,0.2c-0.2,0-0.4,0-0.5,0
			c-1.7,2.1-4.1,3.2-6.9,3.1c-1,0-2-0.2-3.1-0.2h-0.1c0,0.2-0.1,0.4-0.1,0.6c0,0.5,0.1,1,0.1,1.6c0.2,1,0.6,2,1,3
			c1,2.7-0.4,4.9-1.3,7.5c-0.5,1.4-0.7,2.6-0.4,4c0.3,1.2,0.6,2.3,0.7,3.5c0.1,1.3-0.3,2.4-0.7,3.6c1.7,2.5-0.5,5.9-0.5,8.7
			c0,2,1.1,3.9,1.3,5.9c0.2,2.1,0.2,4.2,0.7,6.2c0.4,2,1.1,4,1,6c0,1-0.3,2-0.4,3s0.1,2,0.2,2.9c0.3,3.2-0.8,5.6-2.6,8
			c0.2,0.3,0.3,0.7,0.2,1.1c-0.3,1.2-0.1,2.4-0.4,3.6c0,0.2-0.1,0.3-0.2,0.5c0.1,0,0.1-0.1,0.2-0.1c0.5-0.2,1.1,0.1,1.4,0.6
			c0.9,1.4,0.1,3-0.7,4.3c-0.4,0.6-0.8,1.1-1.1,1.7c-0.4,1-0.2,2.1,0.1,3.1c0.3,1.1,1.3,2.1,1.7,3.3c0.3,0.2,0.5,0.6,0.7,0.9
			c0.1,0.3,0.3,0.6,0.4,1c0.2,0.1,0.4,0.2,0.6,0.4c1,1.2,0.4,2.9-0.3,4.2c0,0.1,0,0.2,0,0.4v0.1c0.7,0,1.5,0.7,1.2,1.5
			c-0.4,1.2-1.7,2.6-1.7,3.9c0,0.8,0.3,1.7,0.2,2.5c0,0.8-0.2,1.5-0.4,2.3c0.7,0.6,1.3,1.3,1.8,2c1.6,2.3,0.7,4.6-0.1,7.1
			c-0.4,1.3-0.6,2.6-1.2,3.8c-0.4,0.8-1.1,1.4-1.6,2.1c0.4,0.7,0.8,1.5,1,2.3c0.1,0.5,0.1,1.1-0.1,1.8c0.5,0.1,1,0.2,1.5,0.3
			c0.9,0.3,1.8,0.8,2.7,1.1c2.3,0.8,4.9,0.3,7.2-0.2c0.1,0,0.2,0,0.3,0c0.3-0.3,0.7-0.5,1.2-0.4c1.7,0.4,3,0.2,4.4-0.8
			c1-0.7,2-1.4,3.3-1.4c1.5,0,2.6,1,4,1.3c1.6,0.4,3.3,0.4,4.9,0.3c1.7-0.1,3.4,0,5.2,0c1.7,0,3.1-0.5,4.7-1.1
			c1.3-0.5,2.5-0.4,3.8-0.1c1.3,0.3,2.3,0.4,3.7,0.2c0.1,0,0.2,0,0.3,0c1.4-0.1,2.7,0.2,4,0.2c1.2,0,2.2-0.4,3.3-0.8
			c2.1-0.8,4.1-1.1,6,0.4c0.1,0.1,0.2,0.2,0.2,0.3c0.2-0.1,0.3-0.2,0.6-0.2c0.1-0.2,0.3-0.3,0.5-0.4c4.7-2.1,9.5-1.9,14.5-1.9
			c0.8,0,1.2,0.7,1.2,1.3h0.2c1.5-2.1,5.9-1.5,8-1.3c1.5,0.2,3,0.7,4.6,0.8c2.6,0.2,5.2-0.4,7.7-0.5c0.4,0,0.7,0.2,0.9,0.4l0,0
			c1.6-0.2,2.7-1.2,4.4-0.9c1.9,0.3,3.6,1.6,5.5,1.6c1.7,0,3.5-1,5.2-1.4c1.8-0.4,3.5-0.2,5.2,0.4c0.7,0.2,1,1,0.9,1.6
			c0.2,0,0.3,0,0.5,0c1.5,0,2.6-0.6,3.9-0.9c1.4-0.4,2.6-0.1,3.9,0.4c0.1-0.1,0.3-0.1,0.5-0.1c1.2-0.1,2.2-1.2,3.5-1.5
			c1.5-0.3,2.8,0.3,4.2,0.6c1.6,0.4,3.1,0.3,4.7,0.3c1.4,0,2.8,0.3,4.2,0.4c2.3,0.1,4.4-0.8,6.7-1c1.3-0.2,2.5,0,3.4,0.8
			c3.1-0.4,6.4-0.2,9.5-0.8c2.1-0.5,4-0.9,6.1-0.4c1.6,0.4,3.2,0.8,4.8,1.2c0.3-0.3,0.6-0.6,1-0.8c0.9-0.5,1.8-0.7,2.7-0.6
			c-0.4-1.2-1.1-2.2-0.9-3.5c0.2-1,0.4-2,0.3-3c-0.1-1.2-0.5-2.4-0.7-3.6c-0.4-2-0.2-3.8,0.3-5.8c0.6-2,1.5-4.1,1.4-6.2
			c-0.1-1.5-0.3-3.2,0.5-4.5c0.1-0.2,0.3-0.4,0.4-0.5c-0.4-0.7-0.9-1.4-1.1-2.2c-0.3-1.3,0.3-2.5,1.1-3.5
			C211.2,170.9,211.5,169.5,211.2,167.8z"/>
	</g>
</g>
<g>
	<path id="path2536_1_" class="st8" d="M77.9,167.8c-2.5,10.8,4.2,21.7,15,23.4c10.8,2.5,20.9-5,23.4-15.8c2.5-10.8-5-20.9-15-23.4
		S79.6,156.9,77.9,167.8z"/>
	<path id="path6236_1_" class="st9" d="M100.5,153.6c3.3,0.8,6.7,1.7,8.3,4.2c1.7,3.3-0.8,6.7-4.2,6.7s-6.7-2.5-10-3.3
		c-2.5-0.8-5.8-0.8-8.3,0.8c-3.3,1.7-5.8,5-5.8,8.3c0,1.7-0.8,2.5-0.8,4.2c-0.8-1.7,0-3.3,0-5c0.8-4.2,2.5-7.5,5-10
		c2.5-1.7,5.8-1.7,8.3,0c3.3,1.7,6.7,2.5,10.8,2.5c0.8,0,2.5-0.8,2.5-1.7c0-1.7-0.8-2.5-2.5-2.5c-4.2-1.7-10-2.5-14.2-0.8
		c-1.7,0,1.7-0.8,1.7-1.7C93.8,153.6,97.1,153.6,100.5,153.6L100.5,153.6z"/>
	
		<radialGradient id="path6819_3_" cx="-2217.4043" cy="1206.4149" r="15.9006" gradientTransform="matrix(-0.6163 -0.3718 -0.623 0.7007 -527.8466 -1503.308)" gradientUnits="userSpaceOnUse">
		<stop  offset="0" style="stop-color:#E79B9E"/>
		<stop  offset="1" style="stop-color:#890F18;stop-opacity:0"/>
	</radialGradient>
	<path id="path6819_1_" class="st10" d="M82.9,165.3c-3.3,3.3-3.3,7.5,0,10c3.3,1.7,8.3,0.8,10.8-3.3c3.3-3.3,3.3-7.5,0-10
		C91.3,160.3,86.3,161.9,82.9,165.3z"/>
	<path id="path6829_1_" class="st11" d="M113.8,166.1c1.7,3.3,1.7,6.7,0.8,10c-1.7,8.3-10,14.2-20,14.2c10-2.5,17.5-8.3,19.2-17.5
		C113.8,171.1,113.8,168.6,113.8,166.1z"/>
	<g id="g3961_1_" transform="translate(42,20)">
		<path id="path12957_1_" class="st12" d="M52.6,137.8c0,0.8,1.7,1.7,3.3,2.5c2.5,0.8,4.2,0,4.2-0.8s-1.7-1.7-3.3-2.5
			C54.3,136.1,52.6,136.9,52.6,137.8z"/>
		<path id="path3319_1_" class="st13" d="M56.8,140.3c1.7-10,2.5-21.7,6.7-30.9c2.5-5.8,5.8-11.7,10-15.8c0.8-1.7-0.8-2.5-1.7-0.8
			c-3.3,3.3-6.7,8.3-8.3,14.2c-2.5,5-4.2,10-5,15c-0.8,5.8-2.5,11.7-3.3,16.7C55.1,139.4,56,140.3,56.8,140.3L56.8,140.3z"/>
		<path id="path3325_1_" class="st14" d="M71,96.9c3.3,0,4.2-3.3,6.7-4.2c2.5-1.7,0.8-5-2.5-4.2c-3.3,0-3.3,4.2-5.8,5
			C67.6,94.4,69.3,96.9,71,96.9L71,96.9z"/>
		<path id="path6226_1_" class="st15" d="M76.8,88.6c0.8,0,0.8,0.8,1.7,0.8c0,0.8,0.8,0.8,0,1.7c0,0.8-0.8,0.8-1.7,1.7l0,0
			c-0.8,0.8-1.7,1.7-2.5,2.5c-0.8,0.8-1.7,2.5-3.3,2.5l0,0c-0.8,0-1.7-0.8-2.5-1.7c0,0,0-0.8,0-1.7s0-0.8,0.8-0.8l0,0
			c0.8-0.8,1.7-1.7,2.5-2.5c0.8-0.8,1.7-2.5,3.3-2.5l0,0C76,87.7,76.8,87.7,76.8,88.6L76.8,88.6z M76.8,88.6c-0.8,0-0.8,0-1.7,0l0,0
			c-1.7,0-1.7,0.8-2.5,1.7c-0.8,0.8-1.7,2.5-2.5,3.3l0,0l-0.8,0.8v0.8c0,0.8,0.8,0.8,1.7,0.8c1.7,0,2.5-0.8,3.3-1.7
			c0.8-0.8,1.7-2.5,3.3-2.5l0,0c0.8,0,0.8-0.8,0.8-0.8c0-0.8,0-0.8,0-1.7C77.6,89.4,77.6,88.6,76.8,88.6L76.8,88.6z"/>
	</g>
	<path id="path2536_2_" class="st8" d="M158,167.8c2.5,10.8-5,20.9-15,23.4c-10.8,2.5-20.9-5-23.4-15.8c-2.5-10.8,5-20.9,15-23.4
		C144.7,149.4,155.5,156.9,158,167.8z"/>
	<path id="path6236_2_" class="st9" d="M135.5,153.6c-3.3,0.8-6.7,1.7-8.3,4.2c-1.7,3.3,0.8,6.7,4.2,6.7s6.7-2.5,10-3.3
		c2.5-0.8,5.8-0.8,8.3,0.8c3.3,1.7,5.8,5,5.8,8.3c0,1.7,0.8,2.5,0.8,4.2c0.8-1.7,0-3.3,0-5c-0.8-4.2-2.5-7.5-5-10
		c-2.5-1.7-5.8-1.7-8.3,0c-3.3,1.7-6.7,2.5-10.8,2.5c-0.8,0-2.5-0.8-2.5-1.7c0-1.7,0.8-2.5,2.5-2.5c4.2-1.7,10-2.5,14.2-0.8
		c1.7,0-1.7-0.8-1.7-1.7C142.2,153.6,138.8,152.8,135.5,153.6L135.5,153.6z"/>
	
		<radialGradient id="path6819_4_" cx="-383.3824" cy="2179.4888" r="15.9006" gradientTransform="matrix(0.6163 -0.3718 0.623 0.7007 -972.7922 -1503.308)" gradientUnits="userSpaceOnUse">
		<stop  offset="0" style="stop-color:#E79B9E"/>
		<stop  offset="1" style="stop-color:#890F18;stop-opacity:0"/>
	</radialGradient>
	<path id="path6819_2_" class="st16" d="M153,165.3c3.3,3.3,3.3,7.5,0,10c-3.3,1.7-8.3,0.8-10.8-3.3c-3.3-3.3-3.3-7.5,0-10
		C144.7,160.3,149.7,161.9,153,165.3z"/>
	<path id="path6829_2_" class="st11" d="M122.1,166.1c-1.7,3.3-1.7,6.7-0.8,10c1.7,8.3,10,14.2,20,14.2c-10-2.5-17.5-8.3-19.2-17.5
		C122.1,171.1,122.1,168.6,122.1,166.1z"/>
	<path id="path12957_2_" class="st12" d="M141.3,157.8c0,0.8-1.7,1.7-3.3,2.5c-2.5,0.8-4.2,0-4.2-0.8s1.7-1.7,3.3-2.5
		C139.7,156.1,141.3,156.9,141.3,157.8z"/>
	<path id="path3319_2_" class="st13" d="M136.3,160.3c-1.7-10-2.5-21.7-6.7-30.9c-2.5-5.8-5.8-11.7-10-15.8
		c-0.8-1.7,0.8-2.5,1.7-0.8c4.2,4.2,6.7,9.2,9.2,15c2.5,5,4.2,10,5,15c0.8,5.8,2.5,11.7,3.3,16.7C138.8,159.4,138,160.3,136.3,160.3
		L136.3,160.3z"/>
	<path id="path3325_2_" class="st14" d="M123,116.9c-3.3,0-4.2-3.3-6.7-4.2c-2.5-1.7-0.8-5,2.5-4.2c3.3,0,3.3,4.2,5.8,5
		C126.3,114.4,124.6,116.9,123,116.9L123,116.9z"/>
	<path class="st15" d="M124.6,114.4c0-0.8,0-0.8-0.8-0.8l0,0c-0.8-0.8-1.7-1.7-2.5-2.5c-0.8-0.8-1.7-2.5-3.3-2.5l0,0
		c-0.8,0-1.7,0-1.7,0l0,0c-0.8,0-0.8,0.8-1.7,0.8l0,0c0,0,0,0,0.8,0l0,0l0,0l0.8-0.8l0,0c0.8,0,0.8,0,1.7,0l0,0
		c1.7,0,1.7,0.8,2.5,1.7c0.8,0.8,1.7,2.5,2.5,3.3l0,0C123.8,114.4,124.6,114.4,124.6,114.4c-0.8,0-0.8,0.8-0.8,0.8
		c0,0.8-0.8,0.8-1.7,0.8c-1.7,0-2.5-0.8-3.3-1.7c-0.8-0.8-0.8-0.8-1.7-1.7c0,0,0,0-0.8,0.8c0.8,0.8,0.8,0.8,1.7,1.7
		c0.8,0.8,1.7,1.7,3.3,1.7l0,0c0.8,0,1.7-0.8,2.5-1.7C124.6,115.2,125.5,115.2,124.6,114.4z"/>
</g>
</svg>
