<?xml version="1.0" encoding="utf-8"?>
<!-- Generator: Adobe Illustrator 25.0.0, SVG Export Plug-In . SVG Version: 6.00 Build 0)  -->
<svg version="1.1" id="publicdomainvectors.org" xmlns="http://www.w3.org/2000/svg" xmlns:xlink="http://www.w3.org/1999/xlink"
	 x="0px" y="0px" viewBox="0 0 473.6 392.5" style="enable-background:new 0 0 473.6 392.5;" xml:space="preserve">
<style type="text/css">
	.st0{fill-rule:evenodd;clip-rule:evenodd;fill:#FEBB12;}
	.st1{fill-rule:evenodd;clip-rule:evenodd;fill:#FFCD05;}
	.st2{fill-rule:evenodd;clip-rule:evenodd;fill:#FEF081;}
	.st3{fill-rule:evenodd;clip-rule:evenodd;fill:#E0D7D4;}
	.st4{fill-rule:evenodd;clip-rule:evenodd;fill:#342E2A;}
	.st5{fill-rule:evenodd;clip-rule:evenodd;fill:#D55527;}
	.st6{fill-rule:evenodd;clip-rule:evenodd;fill:#7D706A;}
	.st7{fill-rule:evenodd;clip-rule:evenodd;fill:#4E4542;}
	.st8{fill-rule:evenodd;clip-rule:evenodd;fill:url(#SVGID_1_);}
</style>
<g>
	<path class="st0" d="M263.4,355.5l0.2-0.4c9-17,11.5-36.7,7.2-55.4c-2.2-9.5-5.9-18.5-11.1-26.7c-5.5-8.8-7-19.5-3.9-29.5l-5.8,3.3
		c-9.7,5.6-16.7,14.8-19.6,25.6c-1.9,7.1-8.8,11.7-16.1,10.8c-7.3-1-12.8-7.2-12.8-14.5c0-8.9,3.5-17.5,9.8-23.8
		c11.6-11.7,15.1-29.2,8.8-44.4c-6.3-15.2-21.2-25.1-37.7-25.1l4.1,4.9c6.6,8,8.3,18.9,4.5,28.5s-12.6,16.3-22.9,17.6
		c-10.3,1.2-20.4-3.2-26.4-11.6c-3.3-4.6-4-10.5-2.1-15.7l-6.5,7.6c-13,15.1-15.7,36.4-7.1,54.2c10.9,22.4,7.4,49.2-8.9,68.1
		c-9.5,11-12,26.4-6.4,39.9c5.6,13.4,18.3,22.6,32.8,23.6c0,0,89.9-12.5,91.1-12.3l4.8-2.2C250.2,373,257.9,365.8,263.4,355.5z"/>
	<path class="st1" d="M152.5,368.2c14.3-2,28.6-4,42.9-5.9c10.4-1.4,20.7-2.8,31.1-4.2c2.9-0.4,7.6-1.2,12-1.6l1.6-0.7
		c24.3-10.9,23.8-51,2.5-71.9c0.5,13.5-8.6,19.1-21.9,17.4c-17.8-2.3-31.1-17.5-31.1-35.4c0-9.4,14.5-21.8,13.5-39.4
		c-16.2,24.6-56.5,29.8-68.9,8.3c-10.4,27.9,40.8,66.9,8.1,104.9c-4.3,5-5.4,12-2.9,18.1C141.7,363.3,146.7,367.2,152.5,368.2z"/>
	<path class="st2" d="M163.9,336.9l2.6-13.3c4.2-21-10.3-41.2,0-57.2c1.2,19.1,4.7,34,22.9,44.5c13.1,7.5,29.1,8,42.6,1.3l1.3,5.7
		c3.3,14.7-5.2,29.4-19.6,33.9L163.9,336.9z"/>
</g>
<path class="st3" d="M324.7,42.4L455.1,0.7c7.1-2.3,14.7,1.3,17.5,8.1s-0.2,14.5-6.7,18.1L343.1,96.5L324.7,42.4z"/>
<polygon class="st4" points="272.5,46 322.2,35.7 363.7,70.3 342.3,121.7 "/>
<path class="st5" d="M4.6,165.7L15.2,193c14.5,37.6,44.2,67.3,81.8,81.8c24.2,9.3,49.6,14.7,75.1,16c25.5-1.3,50.9-6.7,75.1-16
	c37.6-14.5,67.3-44.2,81.8-81.8l10.6-27.4C117.6,202.5,226.6,202.5,4.6,165.7z"/>
<path class="st6" d="M172.1,216.9c79.8,0,144.9-41.3,144.9-91.9s-65.1-91.9-144.9-91.9c-79.9,0-145,41.3-145,91.9
	S92.2,216.9,172.1,216.9z"/>
<path class="st7" d="M292.2,176.5c-26.1,24.4-70.1,40.5-120.1,40.5S78,200.9,52,176.5c-0.8-3.5-1.2-7.1-1.2-10.8
	c0-42.5,54.3-76.9,121.3-76.9s121.3,34.4,121.3,76.9C293.4,169.3,293,172.9,292.2,176.5z"/>
<radialGradient id="SVGID_1_" cx="-4.75" cy="690.5" r="2.25" gradientUnits="userSpaceOnUse">
	<stop  offset="1" style="stop-color:#FCF33F"/>
	<stop  offset="1" style="stop-color:#FCF33F;stop-opacity:0.667"/>
</radialGradient>
<path class="st8" d="M149.2,225.5c11.1,6.6,25.6,8,38.3,3.7c12.7-4.2,21.8-13.6,24.3-24.7c2.1-9.9,13.1-16.7,25.2-15.8
	c20.2,1.6,38.2-10.2,40.9-26.7c2.8-16.6-10.8-32-30.6-34.9c-23.6-3.5-46-11.2-65.6-22.8c-13.9-8.2-32.1-10-47.9-4.7
	c-15.9,5.3-27.4,17-30.4,31c-3,13.8-13.9,25.4-29.3,31.3c-13.4,5-21.6,16.3-20.8,28.3c0.8,12,10.4,22.6,24.3,26.4
	c7.2,2,14.8,2,21.8,0.2c15.1-3.8,30-2.1,43.3,5L149.2,225.5z"/>
<path class="st3" d="M172,21.9C77,21.9,0,74.3,0,139s77,117.1,172,117.1S344,203.7,344,139C344.1,74.3,267.1,21.9,172,21.9z
	 M172,217.3c-79.8,0-144.9-41.3-144.9-91.9S92.2,33.5,172,33.5s144.9,41.3,144.9,91.9C317,176,251.9,217.3,172,217.3z"/>
</svg>
