<?xml version="1.0" encoding="utf-8"?>
<!-- Generator: Adobe Illustrator 25.0.0, SVG Export Plug-In . SVG Version: 6.00 Build 0)  -->
<svg version="1.1" id="Publicdomainvectors.org" xmlns="http://www.w3.org/2000/svg" xmlns:xlink="http://www.w3.org/1999/xlink"
	 x="0px" y="0px" viewBox="0 0 220.2 220.2" style="enable-background:new 0 0 220.2 220.2;" xml:space="preserve">
<style type="text/css">
	.st0{fill-rule:evenodd;clip-rule:evenodd;fill:#DDBDDA;}
	.st1{fill-rule:evenodd;clip-rule:evenodd;fill:#F2DBEB;}
</style>
<path class="st0" d="M196,31.9c37.3,37.3,30.7,104.2-14.6,149.5C136.1,226.7,69.2,233.3,31.9,196C-5.4,158.7,1.2,91.8,46.5,46.5
	C91.8,1.2,158.7-5.4,196,31.9L196,31.9z M179,48.9C149.5,19.4,96.4,24.5,60.5,60.5c-35.9,35.9-41.1,89-11.5,118.6
	c29.5,29.6,82.6,24.4,118.6-11.5C203.4,131.5,208.6,78.5,179,48.9z"/>
<path class="st0" d="M176.1,47.5c29.2,29.5,24.1,82.4-11.4,118.2c-35.5,35.8-87.9,41-117.1,11.5C18.5,147.7,23.6,94.8,59,59
	C94.5,23.2,146.9,18,176.1,47.5L176.1,47.5z M162.8,60.9C139.7,37.5,98.1,41.6,70,70c-28.1,28.4-32.2,70.4-9,93.7
	c23.1,23.4,64.7,19.3,92.8-9.1C181.9,126.2,185.9,84.2,162.8,60.9z"/>
<path class="st1" d="M188.3,24.2c37.3,37.3,30.7,104.2-14.6,149.5C128.4,219,61.5,225.5,24.2,188.3C-13.1,151-6.6,84.1,38.8,38.8
	C84.1-6.6,151-13.1,188.3,24.2L188.3,24.2z M171.3,41.2C141.7,11.6,88.7,16.8,52.7,52.7c-35.9,35.9-41.1,89-11.5,118.6
	c29.5,29.6,82.6,24.4,118.6-11.6C195.7,123.8,200.8,70.7,171.3,41.2z"/>
<path class="st0" d="M161.5,59.7c23.1,23.3,19.1,65.3-9,93.7c-28.1,28.4-69.6,32.5-92.8,9.1c-23.1-23.3-19.1-65.3,9-93.7
	C96.8,40.4,138.4,36.3,161.5,59.7L161.5,59.7z M150.9,70.3C132.6,51.8,99.7,55,77.4,77.5c-22.3,22.5-25.5,55.8-7.2,74.3
	c18.3,18.5,51.3,15.3,73.6-7.2C166.1,122.1,169.3,88.8,150.9,70.3z"/>
<path class="st1" d="M170.3,43c28.9,29.1,23.8,81.5-11.3,116.9c-35.1,35.4-86.9,40.5-115.8,11.4C14.4,142.1,19.4,89.8,54.5,54.4
	C89.6,19,141.4,13.9,170.3,43L170.3,43z M157.1,56.3c-22.9-23.1-64-19.1-91.8,9c-27.8,28.1-31.8,69.6-8.9,92.7
	c22.9,23.1,64,19.1,91.8-9C176,120.9,180,79.4,157.1,56.3z"/>
<path class="st0" d="M150.5,69.3c18.4,18.5,15.2,51.7-7.2,74.2c-22.4,22.5-55.6,25.7-74,7.2C50.9,132.2,54.1,99,76.5,76.5
	C98.9,54,132.1,50.8,150.5,69.3L150.5,69.3z M142.1,77.7c-14.6-14.7-40.9-12.1-58.7,5.7c-17.8,17.8-20.3,44.2-5.7,58.9
	c14.6,14.7,40.9,12.1,58.7-5.7C154.2,118.7,156.7,92.4,142.1,77.7z"/>
<path class="st1" d="M156.2,57.4c22.4,22.6,18.5,63.3-8.8,90.8c-27.3,27.5-67.6,31.5-90,8.8C35,134.5,38.9,93.8,66.2,66.3
	C93.4,38.8,133.7,34.8,156.2,57.4L156.2,57.4z M145.9,67.8c-17.8-17.9-49.7-14.8-71.4,7c-21.6,21.8-24.7,54.1-7,72
	c17.8,17.9,49.7,14.8,71.4-7C160.6,117.9,163.7,85.7,145.9,67.8z"/>
<path class="st0" d="M141.3,77.3c14.4,14,11.9,39.3-5.6,56.3c-17.5,17.1-43.3,19.5-57.7,5.5c-14.4-14-11.9-39.3,5.6-56.3
	C101.1,65.8,126.9,63.3,141.3,77.3L141.3,77.3z M134.7,83.7c-11.4-11.1-31.9-9.2-45.8,4.4c-13.9,13.5-15.9,33.5-4.5,44.7
	c11.4,11.1,31.9,9.2,45.8-4.4C144.2,114.9,146.2,94.9,134.7,83.7z"/>
<path class="st1" d="M147.2,67.7c17.7,17.8,14.6,49.7-6.9,71.4c-21.6,21.6-53.4,24.7-71.2,7C51.3,128.2,54.4,96.2,76,74.6
	C97.6,53,129.4,49.9,147.2,67.7L147.2,67.7z M139.1,75.8C125,61.7,99.7,64.1,82.6,81.3c-17.1,17.2-19.6,42.5-5.5,56.6
	c14.1,14.1,39.3,11.6,56.4-5.5C150.7,115.2,153.1,89.9,139.1,75.8z"/>
<g>
	<path class="st0" d="M134.2,85.1c10.9,11,9,30.7-4.2,44c-13.2,13.3-32.7,15.3-43.6,4.3c-10.9-11-9-30.7,4.2-44
		C103.8,76,123.3,74.1,134.2,85.1L134.2,85.1z M129.2,90.1c-8.6-8.7-24.1-7.2-34.6,3.4c-10.5,10.6-12,26.2-3.4,34.9
		c8.6,8.7,24.1,7.2,34.6-3.4C136.4,114.4,137.9,98.8,129.2,90.1z"/>
	<path class="st1" d="M131.9,82.8c10.9,11,9,30.7-4.2,44c-13.2,13.3-32.7,15.3-43.6,4.3c-10.9-11-9-30.7,4.2-44
		C101.6,73.7,121.1,71.8,131.9,82.8L131.9,82.8z M127,87.8c-8.6-8.7-24.1-7.2-34.6,3.4c-10.5,10.6-12,26.2-3.4,34.9
		c8.6,8.7,24.1,7.2,34.6-3.4C134.1,112.1,135.6,96.5,127,87.8z"/>
</g>
<path class="st1" d="M138.7,77c13.9,13.5,11.4,37.9-5.4,54.3c-16.9,16.5-41.8,18.8-55.7,5.3C63.7,123.1,66.1,98.7,83,82.3
	C99.9,65.8,124.8,63.4,138.7,77L138.7,77z M132.3,83.1c-11-10.7-30.8-8.9-44.1,4.2c-13.4,13.1-15.3,32.3-4.3,43.1
	c11,10.7,30.8,8.9,44.1-4.2C141.4,113.2,143.3,93.9,132.3,83.1z"/>
</svg>
