<?xml version="1.0" encoding="utf-8"?>
<!-- Generator: Adobe Illustrator 25.0.0, SVG Export Plug-In . SVG Version: 6.00 Build 0)  -->
<svg version="1.1" id="Layer_1" xmlns="http://www.w3.org/2000/svg" xmlns:xlink="http://www.w3.org/1999/xlink" x="0px" y="0px"
	 viewBox="0 0 482.2 586.1" style="enable-background:new 0 0 482.2 586.1;" xml:space="preserve">
<style type="text/css">
	.st0{fill-rule:evenodd;clip-rule:evenodd;fill:#623B15;}
	.st1{fill-rule:evenodd;clip-rule:evenodd;fill:#442811;}
	.st2{fill-rule:evenodd;clip-rule:evenodd;fill:#A66127;}
	.st3{fill-rule:evenodd;clip-rule:evenodd;fill:#F29E73;}
	.st4{fill-rule:evenodd;clip-rule:evenodd;fill:#935323;}
	.st5{fill-rule:evenodd;clip-rule:evenodd;fill:#FBC4A7;}
	.st6{fill-rule:evenodd;clip-rule:evenodd;fill:#C98536;}
	.st7{fill-rule:evenodd;clip-rule:evenodd;fill:#452C14;}
	.st8{fill-rule:evenodd;clip-rule:evenodd;fill:#5E3C17;}
</style>
<ellipse transform="matrix(0.7071 -0.7071 0.7071 0.7071 -99.8597 241.083)" class="st0" cx="241.1" cy="241.1" rx="241.1" ry="241.1"/>
<ellipse transform="matrix(0.7071 -0.7071 0.7071 0.7071 -104.3446 304.776)" class="st1" cx="315.7" cy="278.3" rx="143.2" ry="143.2"/>
<ellipse transform="matrix(0.7071 -0.7071 0.7071 0.7071 -99.8597 241.083)" class="st2" cx="241.1" cy="241.1" rx="143.2" ry="143.2"/>
<path class="st3" d="M114.5,291.9c-11.3-16.9-14.1-42.3-23-53.1c4.7-14.7,3.1-15.3,11.8-34.6c10-22.2-5.7-60.1-18.4-23
	c-8.7,25.3-29.6,37.2-29.9,69.4c7.8,22.1,17.2,44.8,28.3,66L114.5,291.9z"/>
<ellipse transform="matrix(0.7071 -0.7071 0.7071 0.7071 -115.933 257.0161)" class="st4" cx="252.3" cy="268.5" rx="81.5" ry="81.5"/>
<path class="st5" d="M208.7,399.5c28.2-25.3,22.6-69-5.5-94.4c-17.7-15.9-30.4-28.3-45-51.6c-23.4-30.5-50.5,0-26.3,26.3
	c15.8,14.2,21.8,23.7,26.6,38.8c-11.4-1.2-32.8-11.4-44-28.4c-1.8-17-10.2-35.9-15.3-44.8c5.9-13.1,5.2-12.3,15.3-29.2
	c11.6-19.4,1.1-56.2-14.6-23.3c-10.7,22.5-32,29.7-35.8,59.5c12.7,55.8,35.7,115.9,70.5,149.5l-25.4,118.1l89.9,65.9L208.7,399.5z"
	/>
<path class="st3" d="M367.5,291.9c11.3-16.9,14.1-42.3,23-53.1c-4.7-14.7-3.1-15.3-11.8-34.6c-10-22.2,5.7-60.1,18.4-23
	c8.7,25.3,29.6,37.2,29.9,69.4c-7.8,22.1-17.2,44.8-28.3,66L367.5,291.9z"/>
<path class="st5" d="M273.3,399.5c-28.2-25.3-22.6-69,5.5-94.4c17.7-15.9,30.4-28.3,45-51.6c23.4-30.5,50.5,0,26.3,26.3
	c-15.8,14.2-21.8,23.7-26.6,38.8c11.4-1.2,32.8-11.4,44-28.4c1.8-17,10.2-35.9,15.3-44.8c-5.9-13.1-5.2-12.3-15.3-29.2
	c-11.6-19.4-1.1-56.2,14.6-23.3c10.7,22.5,32,29.7,35.8,59.5c-12.7,55.8-35.7,115.9-70.5,149.5l25.4,118.1l-89.9,65.9L273.3,399.5z"
	/>
<ellipse transform="matrix(0.9869 -0.1612 0.1612 0.9869 -35.7106 42.0169)" class="st6" cx="241.1" cy="241.1" rx="81.5" ry="81.5"/>
<ellipse transform="matrix(0.7071 -0.7071 0.7071 0.7071 -99.8597 241.083)" class="st7" cx="241.1" cy="241.1" rx="55.6" ry="55.6"/>
<path class="st8" d="M283.7,205.3c8.1,9.7,13,22.1,13,35.8c0,30.7-24.9,55.6-55.6,55.6c-0.3,0-0.6,0-0.8,0c-8.1-9.7-13-22.1-13-35.8
	c0-30.7,24.9-55.6,55.6-55.6C283.2,205.3,283.4,205.3,283.7,205.3z"/>
</svg>
