<?xml version="1.0" encoding="utf-8"?>
<!-- Generator: Adobe Illustrator 25.0.0, SVG Export Plug-In . SVG Version: 6.00 Build 0)  -->
<svg version="1.1" id="Publicdomainvectors.org" xmlns="http://www.w3.org/2000/svg" xmlns:xlink="http://www.w3.org/1999/xlink"
	 x="0px" y="0px" viewBox="0 0 235.9 278.3" style="enable-background:new 0 0 235.9 278.3;" xml:space="preserve">
<style type="text/css">
	.st0{fill-rule:evenodd;clip-rule:evenodd;fill:#FFFFFF;}
	.st1{fill-rule:evenodd;clip-rule:evenodd;fill:#F2A659;}
	.st2{fill-rule:evenodd;clip-rule:evenodd;fill:#D18B45;}
	.st3{fill-rule:evenodd;clip-rule:evenodd;fill:#BF7934;}
	.st4{fill-rule:evenodd;clip-rule:evenodd;fill:#B36C26;}
	.st5{fill-rule:evenodd;clip-rule:evenodd;fill:#A86018;}
	.st6{fill-rule:evenodd;clip-rule:evenodd;fill:#1F1308;}
	.st7{clip-path:url(#SVGID_2_);fill-rule:evenodd;clip-rule:evenodd;fill:url(#SVGID_3_);}
	.st8{fill:#3F7F00;}
	.st9{opacity:0.97;}
	.st10{fill:#7F3F00;fill-opacity:0;stroke:#3F7F00;stroke-width:2;stroke-miterlimit:10;}
	.st11{opacity:0.5;fill:#7FFF00;stroke:#00FF00;stroke-linecap:round;stroke-linejoin:round;enable-background:new    ;}
	.st12{fill:url(#imagebot_136_1_);}
	.st13{fill:url(#imagebot_134_1_);}
	.st14{fill:url(#imagebot_132_1_);}
	.st15{fill:url(#imagebot_130_1_);}
	.st16{fill:url(#imagebot_128_1_);}
	.st17{fill:url(#imagebot_126_1_);}
	.st18{fill:url(#imagebot_124_1_);}
	.st19{fill:url(#imagebot_122_1_);}
	.st20{fill:url(#imagebot_120_1_);}
	.st21{fill:url(#imagebot_118_1_);}
	.st22{fill:url(#imagebot_116_1_);}
	.st23{fill:url(#imagebot_114_1_);}
	.st24{fill:url(#imagebot_112_1_);}
	.st25{fill:url(#imagebot_110_1_);}
	.st26{fill:url(#imagebot_108_1_);}
	.st27{fill:url(#imagebot_106_1_);}
	.st28{fill:url(#imagebot_104_1_);}
	.st29{fill:url(#imagebot_102_1_);}
	.st30{fill:url(#imagebot_100_1_);}
	.st31{fill:url(#imagebot_98_1_);}
	.st32{fill:url(#imagebot_96_1_);}
	.st33{fill:url(#imagebot_84_1_);}
	.st34{fill:url(#imagebot_78_1_);}
	.st35{fill:url(#imagebot_72_1_);}
	.st36{fill:url(#imagebot_66_1_);}
	.st37{fill:url(#imagebot_60_1_);}
	.st38{fill:url(#imagebot_54_1_);}
	.st39{fill:url(#imagebot_48_1_);}
	.st40{fill:url(#imagebot_34_1_);}
	.st41{fill:url(#imagebot_10_1_);}
	
		.st42{opacity:0.5;fill:#7FFF00;stroke:#7FFF00;stroke-linecap:round;stroke-linejoin:round;stroke-opacity:0;enable-background:new    ;}
</style>
<polygon class="st0" points="104.6,359.2 105.2,363.1 109,363.7 105.2,364.3 104.6,368.1 104,364.3 100.1,363.7 104,363.1 "/>
<polygon class="st0" points="248.2,380.2 249.3,387.4 256.4,388.5 249.3,389.6 248.2,396.7 247,389.6 239.9,388.5 247,387.4 "/>
<g>
	<rect x="155.5" class="st1" width="23.7" height="13.9"/>
	<rect x="150.5" y="5.9" class="st2" width="33.8" height="13.9"/>
	<path class="st2" d="M199.5,11.2c21.7,33.9,35.2,81.2,35.2,133.6c0,52.4-13.5,99.7-35.2,133.6H36.4C14.7,244.4,1.1,197.1,1.1,144.7
		c0-52.4,13.5-99.7,35.2-133.6H199.5z"/>
	<path class="st3" d="M187.7,11.2c18.6,33.9,30.2,81.2,30.2,133.6c0,52.4-11.6,99.7-30.2,133.6H48.2C29.6,244.4,18,197.1,18,144.7
		c0-52.4,11.6-99.7,30.2-133.6H187.7z"/>
	<path class="st4" d="M171,11.2c14.1,33.9,22.9,81.2,22.9,133.6c0,52.4-8.8,99.7-22.9,133.6H64.9C50.7,244.4,42,197.1,42,144.7
		c0-52.4,8.8-99.7,22.9-133.6H171z"/>
	<path class="st5" d="M141.7,11.2C148,45.1,152,92.4,152,144.7c0,52.4-3.9,99.7-10.3,133.6H94.2c-6.3-33.9-10.3-81.2-10.3-133.6
		c0-52.4,3.9-99.7,10.3-133.6H141.7z"/>
	<path class="st6" d="M199.5,11.2c5.6,8.7,10.7,18.4,15.1,28.8H21.3c4.4-10.4,9.5-20,15.1-28.8H199.5L199.5,11.2z M234.3,128.7
		c0.3,5.3,0.4,10.6,0.4,16c0,4.3-0.1,8.5-0.3,12.8H1.4c-0.2-4.2-0.3-8.5-0.3-12.8c0-5.4,0.1-10.7,0.4-16H234.3L234.3,128.7z
		 M214.6,249.6c-4.4,10.4-9.5,20-15.1,28.8H36.4c-5.6-8.7-10.7-18.4-15.1-28.8H214.6z"/>
</g>
<g>
	<defs>
		<polygon id="SVGID_1_" points="221.9,222.9 235.9,58 0,58 0,231.5 		"/>
	</defs>
	<clipPath id="SVGID_2_">
		<use xlink:href="#SVGID_1_"  style="overflow:visible;"/>
	</clipPath>
	
		<linearGradient id="SVGID_3_" gradientUnits="userSpaceOnUse" x1="-1092.5392" y1="149.9003" x2="-1093.0681" y2="-28.6594" gradientTransform="matrix(2.024178e-16 -1.1019 1.0483 1.925717e-16 54.2886 -1055.5582)">
		<stop  offset="0" style="stop-color:#C2B294"/>
		<stop  offset="7.142900e-02" style="stop-color:#C7B89B"/>
		<stop  offset="0.1429" style="stop-color:#CBC1A3"/>
		<stop  offset="0.2143" style="stop-color:#D2C8AD"/>
		<stop  offset="0.2857" style="stop-color:#D8CFB6"/>
		<stop  offset="0.3571" style="stop-color:#D9D2B8"/>
		<stop  offset="0.4286" style="stop-color:#D9D2B8"/>
		<stop  offset="0.5" style="stop-color:#D9D2B8"/>
		<stop  offset="0.5714" style="stop-color:#D9D2B8"/>
		<stop  offset="0.6429" style="stop-color:#D6CFB5"/>
		<stop  offset="0.7143" style="stop-color:#D3C8AD"/>
		<stop  offset="0.7857" style="stop-color:#CDC1A6"/>
		<stop  offset="0.8571" style="stop-color:#C7B79C"/>
		<stop  offset="0.9286" style="stop-color:#BFAD8F"/>
		<stop  offset="1" style="stop-color:#BBAC89"/>
	</linearGradient>
	<path class="st7" d="M211.2,167.8c-0.2-0.9-0.4-1.6-0.4-2.5c0-0.9,0.1-1.6-0.3-2.5c-1.4-2.4-1.6-5-1.2-7.7c0.2-1.2,0.6-2.2,1.3-3.1
		c-0.2-0.5-0.4-1-0.6-1.5c-0.6-1.8-1.7-3.6-1.3-5.6c0.3-1.5,1.2-2.7,1.5-4.2c0.3-1.6,0-2.9-0.5-4.5c-0.4-1.3-0.1-2.5,0.2-3.7
		c0.4-1.4,0.5-2.8,0.2-4.3c-0.1-0.2-0.1-0.3-0.1-0.5c0-0.9-0.1-1.7-0.4-2.6c-0.3-1-0.8-1.9-1-2.9c-0.3-1.9,0.5-3.6,0.8-5.4
		c0.4-2.4-0.3-4.6-0.4-6.9c0-0.9,0.1-1.7,0.6-2.4c0.5-0.8,1.3-1.4,1.5-2.4c0.3-1.3-0.8-2.5-1.4-3.6c-0.9-1.5-1.3-3-1-4.8
		c0.1-0.3,0.2-0.7,0.3-1c-0.2-0.2-0.3-0.4-0.3-0.7c-0.1-0.9-0.2-1.9-0.2-2.8c0-0.7,0.3-1.2,0.4-1.8c-0.1-0.4-0.3-0.9-0.6-1.3
		c-1.7-0.6-3.6-0.4-5.4-0.6c-1.9-0.2-3.7-0.9-5.5-1c-2.1-0.1-4.1,0.7-6,1.2c-1.7,0.5-3.8,1.1-5.6,0.8c-1.5-0.2-2.6-1.4-4.1-1.8
		c-1.7-0.4-3.4,0.1-5.1,0.6c-1.8,0.6-3.5,1.2-5.4,1.4c-0.9,0.1-1.3-0.6-1.2-1.3c-2.2,0.7-4.4,1.2-6.7,1.1c-1.6,0-3-0.3-4.4-1.1
		c-1.4-0.8-2.8-1.2-4.4-1.2c-1.6,0-3.1,0.2-4.6,0.4c-1.1,0.4-2.3,0.7-3.5,0.7c-0.1,0-0.2,0-0.4,0c-0.2,0-0.5,0.1-0.7,0.1
		c-3.3,0.4-6.5,0-9.6-1c-0.3-0.1-0.5-0.2-0.8-0.3c0,0-0.1,0-0.1,0c-0.3,0.3-0.7,0.4-1.1,0.2c-0.9-0.4-1.6-0.5-2.4,0
		c-0.7,0.4-1.3,1-2.1,1.4c-2.1,1.1-4.3,0.9-6.6,0.2c-1.1-0.3-2.2-0.7-3.4-0.5c-1,0.2-1.9,0.7-2.9,1.1c-2.2,0.7-4.5,0.4-6.7,0.7
		c-0.3,0.2-0.6,0.3-0.9,0.5c-3,1.4-5.9,1.6-9.2,0.9c-1.7-0.4-3.4-0.9-5.2-1.1c-1.7-0.2-3.4-0.1-5.1,0.1c-3.6,0.3-7.3,0.9-10.9,0.6
		c-0.6,0-1.3-0.5-1.2-1.2c0-0.1,0-0.1,0-0.2c-0.3-0.3-0.4-0.7-0.3-1.1c-0.1,0-0.1,0-0.2,0c-1.9-0.5-4.3-0.1-6.3,0.1
		c-1.9,0.2-3.8,0.5-5.7,0.8c-1.6,0.6-3.3,1.3-5,1.6c-1.6,0.3-3.1,0.1-4.5-0.7c-1.2-0.7-2.2-1.5-3.6-1.8c-0.4,0-0.7,0-1-0.1
		c-1.6,0-3.2,0.6-4.7,0.8c-1.7,0.3-3.3,0.1-4.9-0.6c-0.7-0.3-0.8-1-0.5-1.5c-0.2-0.1-0.5-0.3-0.7-0.5c-0.3,0.1-0.6,0.1-0.9,0.2
		c-0.2,0-0.4,0-0.5,0c-1.7,2.1-4.1,3.2-6.9,3.1c-1,0-2-0.2-3.1-0.2c0,0-0.1,0-0.1,0c0,0.2-0.1,0.4-0.1,0.6c0,0.5,0.1,1,0.1,1.6
		c0.2,1,0.6,2,1,3c1,2.7-0.4,4.9-1.3,7.5c-0.5,1.4-0.7,2.6-0.4,4c0.3,1.2,0.6,2.3,0.7,3.5c0.1,1.3-0.3,2.4-0.7,3.6
		c1.7,2.5-0.5,5.9-0.5,8.7c0,2,1.1,3.9,1.3,5.9c0.2,2.1,0.2,4.2,0.7,6.2c0.4,2,1.1,4,1,6c0,1-0.3,2-0.4,3c-0.1,1,0.1,2,0.2,2.9
		c0.3,3.2-0.8,5.6-2.6,8c0.2,0.3,0.3,0.7,0.2,1.1c-0.3,1.2-0.1,2.4-0.4,3.6c0,0.2-0.1,0.3-0.2,0.5c0.1,0,0.1-0.1,0.2-0.1
		c0.5-0.2,1.1,0.1,1.4,0.6c0.9,1.4,0.1,3-0.7,4.3c-0.4,0.6-0.8,1.1-1.1,1.7c-0.4,1-0.2,2.1,0.1,3.1c0.3,1.1,1.3,2.1,1.7,3.3
		c0.3,0.2,0.5,0.6,0.7,0.9c0.1,0.3,0.3,0.6,0.4,1c0.2,0.1,0.4,0.2,0.6,0.4c1,1.2,0.4,2.9-0.3,4.2c0,0.1,0,0.2,0,0.4c0,0,0,0.1,0,0.1
		c0.7,0,1.5,0.7,1.2,1.5c-0.4,1.2-1.7,2.6-1.7,3.9c0,0.8,0.3,1.7,0.2,2.5c0,0.8-0.2,1.5-0.4,2.3c0.7,0.6,1.3,1.3,1.8,2
		c1.6,2.3,0.7,4.6-0.1,7.1c-0.4,1.3-0.6,2.6-1.2,3.8c-0.4,0.8-1.1,1.4-1.6,2.1c0.4,0.7,0.8,1.5,1,2.3c0.1,0.5,0.1,1.1-0.1,1.8
		c0.5,0.1,1,0.2,1.5,0.3c0.9,0.3,1.8,0.8,2.7,1.1c2.3,0.8,4.9,0.3,7.2-0.2c0.1,0,0.2,0,0.3,0c0.3-0.3,0.7-0.5,1.2-0.4
		c1.7,0.4,3,0.2,4.4-0.8c1-0.7,2-1.4,3.3-1.4c1.5,0,2.6,1,4,1.3c1.6,0.4,3.3,0.4,4.9,0.3c1.7-0.1,3.4,0,5.2,0c1.7,0,3.1-0.5,4.7-1.1
		c1.3-0.5,2.5-0.4,3.8-0.1c1.3,0.3,2.3,0.4,3.7,0.2c0.1,0,0.2,0,0.3,0c1.4-0.1,2.7,0.2,4,0.2c1.2,0,2.2-0.4,3.3-0.8
		c2.1-0.8,4.1-1.1,6,0.4c0.1,0.1,0.2,0.2,0.2,0.3c0.2-0.1,0.3-0.2,0.6-0.2c0.1-0.2,0.3-0.3,0.5-0.4c4.7-2.1,9.5-1.9,14.5-1.9
		c0.8,0,1.2,0.7,1.2,1.3l0.2,0c1.5-2.1,5.9-1.5,8-1.3c1.5,0.2,3,0.7,4.6,0.8c2.6,0.2,5.2-0.4,7.7-0.5c0.4,0,0.7,0.2,0.9,0.4
		c0,0,0,0,0,0c1.6-0.2,2.7-1.2,4.4-0.9c1.9,0.3,3.6,1.6,5.5,1.6c1.7,0,3.5-1,5.2-1.4c1.8-0.4,3.5-0.2,5.2,0.4c0.7,0.2,1,1,0.9,1.6
		c0.2,0,0.3,0,0.5,0c1.5,0,2.6-0.6,3.9-0.9c1.4-0.4,2.6-0.1,3.9,0.4c0.1-0.1,0.3-0.1,0.5-0.1c1.2-0.1,2.2-1.2,3.5-1.5
		c1.5-0.3,2.8,0.3,4.2,0.6c1.6,0.4,3.1,0.3,4.7,0.3c1.4,0,2.8,0.3,4.2,0.4c2.3,0.1,4.4-0.8,6.7-1c1.3-0.2,2.5,0,3.4,0.8
		c3.1-0.4,6.4-0.2,9.5-0.8c2.1-0.5,4-0.9,6.1-0.4c1.6,0.4,3.2,0.8,4.8,1.2c0.3-0.3,0.6-0.6,1-0.8c0.9-0.5,1.8-0.7,2.7-0.6
		c-0.4-1.2-1.1-2.2-0.9-3.5c0.2-1,0.4-2,0.3-3c-0.1-1.2-0.5-2.4-0.7-3.6c-0.4-2-0.2-3.8,0.3-5.8c0.6-2,1.5-4.1,1.4-6.2
		c-0.1-1.5-0.3-3.2,0.5-4.5c0.1-0.2,0.3-0.4,0.4-0.5c-0.4-0.7-0.9-1.4-1.1-2.2c-0.3-1.3,0.3-2.5,1.1-3.5
		C211.2,170.9,211.5,169.5,211.2,167.8z"/>
</g>
<g>
	<path id="imagebot_25" class="st8" d="M146.1,113.8c1.2-2.1,0.3-6.9,0.3-6.9s-2.2,0.8-4,2c-1.4-1.6-3.4-3-3.4-3s-1,2.1-1.4,4.2
		c-2.1-0.1-4.5,0.3-4.5,0.3s0.8,2.2,1.9,4c-1.6,1.4-3,3.4-3,3.4s2.1,1,4.2,1.4c-0.2,2.1,0.3,4.5,0.3,4.5s5.1-1.8,5.9-4
		c0.5-1.4,0.2-3.5-1.1-4.3c0,0,0,0,0-0.1c0,0,0,0,0-0.1c0,0,0,0,0.1,0c0,0,0.1,0,0.1,0.1c1.3,0.7,3.3,0,4.3-1.2
		C146,114,146,113.9,146.1,113.8L146.1,113.8z"/>
	<g id="imagebot_177" transform="translate(0 2.44141) matrix(1 0 0 1 -4.88281 0)" class="st9">
		<path id="imagebot_40" class="st10" d="M141.6,135.7c0,0,11.8-7.7,21.5-0.8c9.7,7,9.4,9.6,8.5,18.1c-1,8.5,3.4,10.7,3.4,10.7"/>
		<path id="imagebot_22" class="st10" d="M157.1,131.9c0,0-0.4-4.7-2.9-9.8c-2.5-5.2-8.3-9.7-8.3-9.7"/>
		<path id="imagebot_19" class="st10" d="M155.5,124.3c0,0,1.2,3,6.5,1.6c5.3-1.4,3.7-9,3.7-9"/>
	</g>
	<path id="imagebot_28" class="st8" d="M164.4,122.3c2.2,0,5.7-3,5.7-3s-1.7-1.4-3.5-2.2c0.6-1.9,0.8-4.1,0.8-4.1s-2.2,0.2-4.1,0.9
		c-0.9-1.8-2.4-3.4-2.4-3.4s-1.4,1.7-2.3,3.4c-1.9-0.6-4.1-0.8-4.1-0.8s0.2,2.2,0.9,4c-1.8,0.9-3.5,2.4-3.5,2.4s3.9,3.2,6.1,2.8
		c1.4-0.2,2.9-1.6,2.9-2.9c0,0,0,0,0,0c0,0,0,0,0.1,0c0,0,0,0,0,0c0,0,0,0.1,0,0.1c0,1.4,1.6,2.7,3,2.9
		C164.1,122.3,164.3,122.3,164.4,122.3L164.4,122.3z"/>
	<path id="imagebot_12" class="st11" d="M163,120.9c1.2,0,3.1-1.7,3.1-1.7s-0.9-0.8-1.9-1.2c0.3-1,0.4-2.2,0.4-2.2s-1.2,0.1-2.2,0.5
		c-0.5-1-1.3-1.9-1.3-1.9s-0.8,0.9-1.2,1.9c-1-0.3-2.3-0.4-2.3-0.4s0.1,1.2,0.5,2.2c-1,0.5-1.9,1.3-1.9,1.3s2.1,1.7,3.3,1.5
		c0.7-0.1,1.6-0.9,1.6-1.6c0,0,0,0,0,0c0,0,0,0,0,0c0,0,0,0,0,0c0,0,0,0,0,0.1c0,0.7,0.9,1.4,1.6,1.6
		C162.9,120.8,162.9,120.9,163,120.9L163,120.9z"/>
	<g id="imagebot_156">
		
			<linearGradient id="imagebot_136_1_" gradientUnits="userSpaceOnUse" x1="-807.2923" y1="686.2715" x2="-807.4094" y2="686.1544" gradientTransform="matrix(65.4107 108.2498 108.0142 -65.2683 -21222.8379 132360.1562)">
			<stop  offset="0" style="stop-color:#3F007F;stop-opacity:0.9961"/>
			<stop  offset="1" style="stop-color:#D4AAFF;stop-opacity:0.9961"/>
		</linearGradient>
		<path id="imagebot_136" class="st12" d="M89.2,184c-4.1,0.4-7.7-2.5-8.1-6.6c-0.4-4.1,2.5-7.7,6.6-8.1c4.1-0.4,7.7,2.5,8.1,6.6
			C96.2,179.9,93.3,183.6,89.2,184z"/>
		
			<linearGradient id="imagebot_134_1_" gradientUnits="userSpaceOnUse" x1="-806.9146" y1="685.8705" x2="-807.0317" y2="685.7534" gradientTransform="matrix(65.4107 108.2498 108.0143 -65.2684 -21201.834 132284.25)">
			<stop  offset="0" style="stop-color:#3F007F;stop-opacity:0.9961"/>
			<stop  offset="1" style="stop-color:#D4AAFF;stop-opacity:0.9961"/>
		</linearGradient>
		<path id="imagebot_134" class="st13" d="M91.7,175.1c-4.1,0.4-7.7-2.5-8.1-6.6c-0.4-4.1,2.5-7.7,6.6-8.1c4.1-0.4,7.7,2.5,8.1,6.6
			C98.7,171,95.8,174.7,91.7,175.1z"/>
		
			<linearGradient id="imagebot_132_1_" gradientUnits="userSpaceOnUse" x1="-807.7479" y1="687.6574" x2="-807.865" y2="687.5403" gradientTransform="matrix(13.1495 125.8408 125.4118 -13.1047 -75514.7734 110824.9766)">
			<stop  offset="0" style="stop-color:#3F007F;stop-opacity:0.9961"/>
			<stop  offset="1" style="stop-color:#D4AAFF;stop-opacity:0.9961"/>
		</linearGradient>
		<path id="imagebot_132" class="st14" d="M96.7,166.6c-4.1,0.4-7.7-2.5-8.1-6.6s2.5-7.7,6.6-8.1c4.1-0.4,7.7,2.5,8.1,6.6l0,0
			C103.7,162.5,100.8,166.2,96.7,166.6L96.7,166.6z"/>
		
			<linearGradient id="imagebot_130_1_" gradientUnits="userSpaceOnUse" x1="-806.4028" y1="684.8681" x2="-806.5199" y2="684.751" gradientTransform="matrix(65.4107 108.2497 108.0142 -65.2683 -21117.0762 132147.2969)">
			<stop  offset="0" style="stop-color:#3F007F;stop-opacity:0.9961"/>
			<stop  offset="1" style="stop-color:#D4AAFF;stop-opacity:0.9961"/>
		</linearGradient>
		<path id="imagebot_130" class="st15" d="M101.6,159.1c-4.1,0.4-7.7-2.5-8.1-6.6c-0.4-4.1,2.5-7.7,6.6-8.1c4.1-0.4,7.7,2.5,8.1,6.6
			C108.6,155,105.7,158.6,101.6,159.1z"/>
		
			<linearGradient id="imagebot_128_1_" gradientUnits="userSpaceOnUse" x1="-807.1003" y1="686.9286" x2="-807.2174" y2="686.8115" gradientTransform="matrix(13.1495 125.8408 125.4117 -13.1047 -75420.8125 110721.8281)">
			<stop  offset="0" style="stop-color:#3F007F;stop-opacity:0.9961"/>
			<stop  offset="1" style="stop-color:#D4AAFF;stop-opacity:0.9961"/>
		</linearGradient>
		<path id="imagebot_128" class="st16" d="M107.7,154.5c-4.1,0.4-7.7-2.5-8.1-6.6c-0.4-4.1,2.5-7.7,6.6-8.1s7.7,2.5,8.1,6.6l0,0
			C114.7,150.4,111.8,154.1,107.7,154.5L107.7,154.5z"/>
		
			<linearGradient id="imagebot_126_1_" gradientUnits="userSpaceOnUse" x1="-806.6846" y1="686.5911" x2="-806.8017" y2="686.474" gradientTransform="matrix(13.1495 125.8408 125.4117 -13.1047 -75379.0703 110657.5703)">
			<stop  offset="0" style="stop-color:#3F007F;stop-opacity:0.9961"/>
			<stop  offset="1" style="stop-color:#D4AAFF;stop-opacity:0.9961"/>
		</linearGradient>
		<path id="imagebot_126" class="st17" d="M112.6,147c-4.1,0.4-7.7-2.5-8.1-6.6s2.5-7.7,6.6-8.1c4.1-0.4,7.7,2.5,8.1,6.6l0,0
			C119.6,142.9,116.7,146.6,112.6,147L112.6,147z"/>
		
			<linearGradient id="imagebot_124_1_" gradientUnits="userSpaceOnUse" x1="-807.584" y1="686.8104" x2="-807.7011" y2="686.6932" gradientTransform="matrix(65.4107 108.2498 108.0142 -65.2683 -21267.1465 132435.7656)">
			<stop  offset="0" style="stop-color:#3F007F;stop-opacity:0.9961"/>
			<stop  offset="1" style="stop-color:#D4AAFF;stop-opacity:0.9961"/>
		</linearGradient>
		<path id="imagebot_124" class="st18" d="M84,192.8c-4.1,0.4-7.7-2.5-8.1-6.6c-0.4-4.1,2.5-7.7,6.6-8.1c4.1-0.4,7.7,2.5,8.1,6.6
			C91,188.8,88.1,192.4,84,192.8z"/>
		
			<linearGradient id="imagebot_122_1_" gradientUnits="userSpaceOnUse" x1="-809.0047" y1="688.0022" x2="-809.1218" y2="687.8851" gradientTransform="matrix(13.1495 125.8408 125.4117 -13.1047 -75544.9531 111009.2188)">
			<stop  offset="0" style="stop-color:#3F007F;stop-opacity:0.9961"/>
			<stop  offset="1" style="stop-color:#D4AAFF;stop-opacity:0.9961"/>
		</linearGradient>
		<path id="imagebot_122" class="st19" d="M93.2,188.2c-4.1,0.4-7.7-2.5-8.1-6.6c-0.4-4.1,2.5-7.7,6.6-8.1c4.1-0.4,7.7,2.5,8.1,6.6
			v0C100.2,184.1,97.3,187.7,93.2,188.2L93.2,188.2z"/>
		
			<linearGradient id="imagebot_120_1_" gradientUnits="userSpaceOnUse" x1="-808.329" y1="687.6258" x2="-808.4461" y2="687.5087" gradientTransform="matrix(13.1495 125.8408 125.4118 -13.1047 -75501.6328 110907.3281)">
			<stop  offset="0" style="stop-color:#3F007F;stop-opacity:0.9961"/>
			<stop  offset="1" style="stop-color:#D4AAFF;stop-opacity:0.9961"/>
		</linearGradient>
		<path id="imagebot_120" class="st20" d="M98.3,176.2c-4.1,0.4-7.7-2.5-8.1-6.6s2.5-7.7,6.6-8.1c4.1-0.4,7.7,2.5,8.1,6.6l0,0
			C105.3,172.2,102.3,175.8,98.3,176.2L98.3,176.2z"/>
		
			<linearGradient id="imagebot_118_1_" gradientUnits="userSpaceOnUse" x1="-807.9134" y1="687.2886" x2="-808.0305" y2="687.1714" gradientTransform="matrix(13.1495 125.8407 125.4117 -13.1047 -75459.8438 110843.0625)">
			<stop  offset="0" style="stop-color:#3F007F;stop-opacity:0.9961"/>
			<stop  offset="1" style="stop-color:#D4AAFF;stop-opacity:0.9961"/>
		</linearGradient>
		<path id="imagebot_118" class="st21" d="M103.2,168.7c-4.1,0.4-7.7-2.5-8.1-6.6c-0.4-4.1,2.5-7.7,6.6-8.1c4.1-0.4,7.7,2.5,8.1,6.6
			l0,0C110.2,164.6,107.2,168.3,103.2,168.7L103.2,168.7z"/>
		
			<linearGradient id="imagebot_116_1_" gradientUnits="userSpaceOnUse" x1="-807.9339" y1="685.7737" x2="-808.051" y2="685.6566" gradientTransform="matrix(65.4109 108.2501 108.0143 -65.2684 -21114.3438 132402.3438)">
			<stop  offset="0" style="stop-color:#3F007F;stop-opacity:0.9961"/>
			<stop  offset="1" style="stop-color:#D4AAFF;stop-opacity:0.9961"/>
		</linearGradient>
		<path id="imagebot_116" class="st22" d="M101.9,188.9c-4.1,0.4-7.7-2.5-8.1-6.6c-0.4-4.1,2.5-7.7,6.6-8.1s7.7,2.5,8.1,6.6v0
			C108.9,184.8,106,188.5,101.9,188.9L101.9,188.9z"/>
		
			<linearGradient id="imagebot_114_1_" gradientUnits="userSpaceOnUse" x1="-808.7247" y1="687.4391" x2="-808.8419" y2="687.322" gradientTransform="matrix(13.1495 125.8408 125.4117 -13.1047 -75469.1406 110960.9609)">
			<stop  offset="0" style="stop-color:#3F007F;stop-opacity:0.9961"/>
			<stop  offset="1" style="stop-color:#D4AAFF;stop-opacity:0.9961"/>
		</linearGradient>
		<path id="imagebot_114" class="st23" d="M102.1,182.5c-4.1,0.4-7.7-2.5-8.1-6.6s2.5-7.7,6.6-8.1c4.1-0.4,7.7,2.5,8.1,6.6l0,0
			C109.1,178.4,106.1,182.1,102.1,182.5L102.1,182.5z"/>
		
			<linearGradient id="imagebot_112_1_" gradientUnits="userSpaceOnUse" x1="-808.0944" y1="685.1745" x2="-808.2115" y2="685.0574" gradientTransform="matrix(65.4109 108.2501 108.0144 -65.2685 -21029.2227 132377.7656)">
			<stop  offset="0" style="stop-color:#3F007F;stop-opacity:0.9961"/>
			<stop  offset="1" style="stop-color:#D4AAFF;stop-opacity:0.9961"/>
		</linearGradient>
		<path id="imagebot_112" class="st24" d="M111.9,186c-4.1,0.4-7.7-2.5-8.1-6.6s2.5-7.7,6.6-8.1c4.1-0.4,7.7,2.5,8.1,6.6l0,0
			C118.9,181.9,116,185.6,111.9,186L111.9,186z"/>
		
			<linearGradient id="imagebot_110_1_" gradientUnits="userSpaceOnUse" x1="-808.2111" y1="684.4145" x2="-808.3282" y2="684.2974" gradientTransform="matrix(65.4109 108.2501 108.0144 -65.2685 -20927.6094 132335.875)">
			<stop  offset="0" style="stop-color:#3F007F;stop-opacity:0.9961"/>
			<stop  offset="1" style="stop-color:#D4AAFF;stop-opacity:0.9961"/>
		</linearGradient>
		<path id="imagebot_110" class="st25" d="M123.8,181.1c-4.1,0.4-7.7-2.5-8.1-6.6s2.5-7.7,6.6-8.1c4.1-0.4,7.7,2.5,8.1,6.6l0,0
			C130.8,177,127.9,180.7,123.8,181.1L123.8,181.1z"/>
		
			<linearGradient id="imagebot_108_1_" gradientUnits="userSpaceOnUse" x1="-808.5577" y1="686.5321" x2="-808.6748" y2="686.415" gradientTransform="matrix(13.1495 125.8408 125.4118 -13.1047 -75342.8672 110923.6953)">
			<stop  offset="0" style="stop-color:#3F007F;stop-opacity:0.9961"/>
			<stop  offset="1" style="stop-color:#D4AAFF;stop-opacity:0.9961"/>
		</linearGradient>
		<path id="imagebot_108" class="st26" d="M116.9,178.1c-4.1,0.4-7.7-2.5-8.1-6.6c-0.4-4.1,2.5-7.7,6.6-8.1c4.1-0.4,7.7,2.5,8.1,6.6
			l0,0C123.9,174.1,120.9,177.7,116.9,178.1L116.9,178.1z"/>
		
			<linearGradient id="imagebot_106_1_" gradientUnits="userSpaceOnUse" x1="-808.3007" y1="686.9118" x2="-808.4178" y2="686.7947" gradientTransform="matrix(13.1495 125.8408 125.4118 -13.1047 -75400.6406 110892.6953)">
			<stop  offset="0" style="stop-color:#3F007F;stop-opacity:0.9961"/>
			<stop  offset="1" style="stop-color:#D4AAFF;stop-opacity:0.9961"/>
		</linearGradient>
		<path id="imagebot_106" class="st27" d="M110.1,174.5c-4.1,0.4-7.7-2.5-8.1-6.6s2.5-7.7,6.6-8.1s7.7,2.5,8.1,6.6l0,0
			C117.1,170.4,114.2,174.1,110.1,174.5L110.1,174.5z"/>
		
			<linearGradient id="imagebot_104_1_" gradientUnits="userSpaceOnUse" x1="-807.6816" y1="686.8969" x2="-807.7987" y2="686.7798" gradientTransform="matrix(13.1495 125.8408 125.4118 -13.1047 -75407.7344 110804.2266)">
			<stop  offset="0" style="stop-color:#3F007F;stop-opacity:0.9961"/>
			<stop  offset="1" style="stop-color:#D4AAFF;stop-opacity:0.9961"/>
		</linearGradient>
		<path id="imagebot_104" class="st28" d="M109.3,164.2c-4.1,0.4-7.7-2.5-8.1-6.6c-0.4-4.1,2.5-7.7,6.6-8.1c4.1-0.4,7.7,2.5,8.1,6.6
			l0,0C116.3,160.1,113.3,163.7,109.3,164.2L109.3,164.2z"/>
		
			<linearGradient id="imagebot_102_1_" gradientUnits="userSpaceOnUse" x1="-806.6652" y1="684.1509" x2="-806.7823" y2="684.0338" gradientTransform="matrix(65.4107 108.2498 108.0141 -65.2683 -21009.8242 132126.5156)">
			<stop  offset="0" style="stop-color:#3F007F;stop-opacity:0.9961"/>
			<stop  offset="1" style="stop-color:#D4AAFF;stop-opacity:0.9961"/>
		</linearGradient>
		<path id="imagebot_102" class="st29" d="M114.2,156.6c-4.1,0.4-7.7-2.5-8.1-6.6c-0.4-4.1,2.5-7.7,6.6-8.1c4.1-0.4,7.7,2.5,8.1,6.6
			C121.2,152.6,118.2,156.2,114.2,156.6z"/>
		
			<linearGradient id="imagebot_100_1_" gradientUnits="userSpaceOnUse" x1="-807.3651" y1="684.239" x2="-807.4822" y2="684.1219" gradientTransform="matrix(65.4109 108.2501 108.0143 -65.2684 -20968.7266 132219.1719)">
			<stop  offset="0" style="stop-color:#3F007F;stop-opacity:0.9961"/>
			<stop  offset="1" style="stop-color:#D4AAFF;stop-opacity:0.9961"/>
		</linearGradient>
		<path id="imagebot_100" class="st30" d="M119,167.4c-4.1,0.4-7.7-2.5-8.1-6.6c-0.4-4.1,2.5-7.7,6.6-8.1s7.7,2.5,8.1,6.6v0
			C126,163.4,123,167,119,167.4L119,167.4z"/>
		
			<linearGradient id="imagebot_98_1_" gradientUnits="userSpaceOnUse" x1="-807.8901" y1="683.8738" x2="-808.0073" y2="683.7567" gradientTransform="matrix(65.4109 108.2501 108.0143 -65.2684 -20885.1445 132256.5)">
			<stop  offset="0" style="stop-color:#3F007F;stop-opacity:0.9961"/>
			<stop  offset="1" style="stop-color:#D4AAFF;stop-opacity:0.9961"/>
		</linearGradient>
		<path id="imagebot_98" class="st31" d="M128.8,171.8c-4.1,0.4-7.7-2.5-8.1-6.6c-0.4-4.1,2.5-7.7,6.6-8.1s7.7,2.5,8.1,6.6l0,0
			C135.8,167.7,132.8,171.4,128.8,171.8L128.8,171.8z"/>
		
			<linearGradient id="imagebot_96_1_" gradientUnits="userSpaceOnUse" x1="-806.3598" y1="686.001" x2="-806.4769" y2="685.8839" gradientTransform="matrix(13.1495 125.8408 125.4118 -13.1047 -75300.125 110602.5234)">
			<stop  offset="0" style="stop-color:#3F007F;stop-opacity:0.9961"/>
			<stop  offset="1" style="stop-color:#D4AAFF;stop-opacity:0.9961"/>
		</linearGradient>
		<path id="imagebot_96" class="st32" d="M121.9,140.5c-4.1,0.4-7.7-2.5-8.1-6.6s2.5-7.7,6.6-8.1s7.7,2.5,8.1,6.6l0,0
			C128.9,136.5,125.9,140.1,121.9,140.5L121.9,140.5z"/>
		
			<linearGradient id="imagebot_84_1_" gradientUnits="userSpaceOnUse" x1="-806.9034" y1="686.1647" x2="-807.0206" y2="686.0475" gradientTransform="matrix(13.1495 125.8408 125.4118 -13.1047 -75315.3125 110682.4531)">
			<stop  offset="0" style="stop-color:#3F007F;stop-opacity:0.9961"/>
			<stop  offset="1" style="stop-color:#D4AAFF;stop-opacity:0.9961"/>
		</linearGradient>
		<path id="imagebot_84" class="st33" d="M120.1,149.9c-4.1,0.4-7.7-2.5-8.1-6.6s2.5-7.7,6.6-8.1c4.1-0.4,7.7,2.5,8.1,6.6l0,0
			C127.1,145.8,124.2,149.5,120.1,149.9L120.1,149.9z"/>
		
			<linearGradient id="imagebot_78_1_" gradientUnits="userSpaceOnUse" x1="-807.5647" y1="686.0629" x2="-807.6818" y2="685.9457" gradientTransform="matrix(13.1495 125.8408 125.4117 -13.1047 -75290.8828 110775.1719)">
			<stop  offset="0" style="stop-color:#3F007F;stop-opacity:0.9961"/>
			<stop  offset="1" style="stop-color:#D4AAFF;stop-opacity:0.9961"/>
		</linearGradient>
		<path id="imagebot_78" class="st34" d="M123,160.8c-4.1,0.4-7.7-2.5-8.1-6.6s2.5-7.7,6.6-8.1c4.1-0.4,7.7,2.5,8.1,6.6l0,0
			C130,156.7,127,160.3,123,160.8L123,160.8z"/>
		
			<linearGradient id="imagebot_72_1_" gradientUnits="userSpaceOnUse" x1="-807.4672" y1="683.3768" x2="-807.5843" y2="683.2596" gradientTransform="matrix(65.4109 108.2501 108.0143 -65.2685 -20855.6992 132167.9219)">
			<stop  offset="0" style="stop-color:#3F007F;stop-opacity:0.9961"/>
			<stop  offset="1" style="stop-color:#D4AAFF;stop-opacity:0.9961"/>
		</linearGradient>
		<path id="imagebot_72" class="st35" d="M132.2,161.4c-4.1,0.4-7.7-2.5-8.1-6.6s2.5-7.7,6.6-8.1c4.1-0.4,7.7,2.5,8.1,6.6l0,0
			C139.2,157.4,136.3,161,132.2,161.4L132.2,161.4z"/>
		
			<linearGradient id="imagebot_66_1_" gradientUnits="userSpaceOnUse" x1="-808.5774" y1="685.4398" x2="-808.6945" y2="685.3227" gradientTransform="matrix(13.1495 125.8408 125.4118 -13.1047 -75187.375 110910.2891)">
			<stop  offset="0" style="stop-color:#3F007F;stop-opacity:0.9961"/>
			<stop  offset="1" style="stop-color:#D4AAFF;stop-opacity:0.9961"/>
		</linearGradient>
		<path id="imagebot_66" class="st36" d="M135.1,176.6c-4.1,0.4-7.7-2.5-8.1-6.6c-0.4-4.1,2.5-7.7,6.6-8.1c4.1-0.4,7.7,2.5,8.1,6.6
			l0,0C142.1,172.5,139.1,176.2,135.1,176.6L135.1,176.6z"/>
		
			<linearGradient id="imagebot_60_1_" gradientUnits="userSpaceOnUse" x1="-808.0437" y1="685.1258" x2="-808.1608" y2="685.0087" gradientTransform="matrix(13.1495 125.8408 125.4117 -13.1047 -75150.6797 110829.5469)">
			<stop  offset="0" style="stop-color:#3F007F;stop-opacity:0.9961"/>
			<stop  offset="1" style="stop-color:#D4AAFF;stop-opacity:0.9961"/>
		</linearGradient>
		<path id="imagebot_60" class="st37" d="M139.4,167.1c-4.1,0.4-7.7-2.5-8.1-6.6c-0.4-4.1,2.5-7.7,6.6-8.1c4.1-0.4,7.7,2.5,8.1,6.6
			l0,0C146.4,163.1,143.4,166.7,139.4,167.1L139.4,167.1z"/>
		
			<linearGradient id="imagebot_54_1_" gradientUnits="userSpaceOnUse" x1="-807.3897" y1="684.9332" x2="-807.5068" y2="684.8161" gradientTransform="matrix(13.1495 125.8408 125.4117 -13.1047 -75133.0703 110733.4766)">
			<stop  offset="0" style="stop-color:#3F007F;stop-opacity:0.9961"/>
			<stop  offset="1" style="stop-color:#D4AAFF;stop-opacity:0.9961"/>
		</linearGradient>
		<path id="imagebot_54" class="st38" d="M141.4,155.9c-4.1,0.4-7.7-2.5-8.1-6.6s2.5-7.7,6.6-8.1c4.1-0.4,7.7,2.5,8.1,6.6l0,0
			C148.4,151.8,145.5,155.4,141.4,155.9L141.4,155.9z"/>
		
			<linearGradient id="imagebot_48_1_" gradientUnits="userSpaceOnUse" x1="-806.4764" y1="685.2186" x2="-806.5936" y2="685.1015" gradientTransform="matrix(13.1495 125.8408 125.4117 -13.1047 -75187.1719 110607.5312)">
			<stop  offset="0" style="stop-color:#3F007F;stop-opacity:0.9961"/>
			<stop  offset="1" style="stop-color:#D4AAFF;stop-opacity:0.9961"/>
		</linearGradient>
		<path id="imagebot_48" class="st39" d="M135.1,141.1c-4.1,0.4-7.7-2.5-8.1-6.6s2.5-7.7,6.6-8.1c4.1-0.4,7.7,2.5,8.1,6.6l0,0
			C142.1,137.1,139.2,140.7,135.1,141.1L135.1,141.1z"/>
		
			<linearGradient id="imagebot_34_1_" gradientUnits="userSpaceOnUse" x1="-807.0881" y1="682.3977" x2="-807.2053" y2="682.2806" gradientTransform="matrix(65.4109 108.2501 108.0143 -65.2684 -20763.9824 132049.0625)">
			<stop  offset="0" style="stop-color:#3F007F;stop-opacity:0.9961"/>
			<stop  offset="1" style="stop-color:#D4AAFF;stop-opacity:0.9961"/>
		</linearGradient>
		<path id="imagebot_34" class="st40" d="M143,147.5c-4.1,0.4-7.7-2.5-8.1-6.6s2.5-7.7,6.6-8.1c4.1-0.4,7.7,2.5,8.1,6.6l0,0
			C150,143.4,147,147.1,143,147.5L143,147.5z"/>
		
			<linearGradient id="imagebot_10_1_" gradientUnits="userSpaceOnUse" x1="-806.8392" y1="683.0224" x2="-806.9564" y2="682.9053" gradientTransform="matrix(65.4109 108.2501 108.0143 -65.2684 -20858.8574 132064.7188)">
			<stop  offset="0" style="stop-color:#3F007F;stop-opacity:0.9961"/>
			<stop  offset="1" style="stop-color:#D4AAFF;stop-opacity:0.9961"/>
		</linearGradient>
		<path id="imagebot_10" class="st41" d="M131.9,149.3c-4.1,0.4-7.7-2.5-8.1-6.6s2.5-7.7,6.6-8.1c4.1-0.4,7.7,2.5,8.1,6.6l0,0
			C138.9,145.3,135.9,148.9,131.9,149.3L131.9,149.3z"/>
	</g>
	<path id="imagebot_16" class="st42" d="M143.9,114.1c0.7-1.1,0.2-3.7,0.2-3.7s-1.2,0.4-2.2,1.1c-0.8-0.9-1.8-1.6-1.8-1.6
		s-0.6,1.2-0.8,2.3c-1.2-0.1-2.4,0.2-2.4,0.2s0.4,1.2,1,2.2c-0.9,0.8-1.6,1.9-1.6,1.9s1.1,0.5,2.3,0.8c-0.1,1.2,0.1,2.4,0.1,2.4
		s2.8-1,3.2-2.2c0.3-0.8,0.1-1.9-0.6-2.3c0,0,0,0,0,0c0,0,0,0,0,0c0,0,0,0,0,0c0,0,0,0,0,0c0.7,0.4,1.8,0,2.3-0.7
		C143.8,114.2,143.9,114.2,143.9,114.1L143.9,114.1z"/>
</g>
</svg>
