<?xml version="1.0" encoding="utf-8"?>
<!-- Generator: Adobe Illustrator 25.0.0, SVG Export Plug-In . SVG Version: 6.00 Build 0)  -->
<svg version="1.1"
	 id="svg2" xmlns:cc="http://creativecommons.org/ns#" xmlns:dc="http://purl.org/dc/elements/1.1/" xmlns:inkscape="http://www.inkscape.org/namespaces/inkscape" xmlns:ns1="http://sozi.baierouge.fr" xmlns:rdf="http://www.w3.org/1999/02/22-rdf-syntax-ns#" xmlns:sodipodi="http://sodipodi.sourceforge.net/DTD/sodipodi-0.dtd"
	 xmlns="http://www.w3.org/2000/svg" xmlns:xlink="http://www.w3.org/1999/xlink" x="0px" y="0px" viewBox="0 0 369.5 849.8"
	 style="enable-background:new 0 0 369.5 849.8;" xml:space="preserve">
<style type="text/css">
	.st0{fill-rule:evenodd;clip-rule:evenodd;fill:url(#path11_1_);}
	.st1{fill-rule:evenodd;clip-rule:evenodd;fill:url(#path18_1_);}
	.st2{fill-rule:evenodd;clip-rule:evenodd;fill:#FDF895;}
	.st3{fill-rule:evenodd;clip-rule:evenodd;fill:url(#path27_1_);}
	.st4{fill-rule:evenodd;clip-rule:evenodd;fill:url(#path100_1_);}
	.st5{fill-rule:evenodd;clip-rule:evenodd;fill:url(#path107_1_);}
	.st6{fill-rule:evenodd;clip-rule:evenodd;fill:url(#path114_1_);}
	.st7{fill-rule:evenodd;clip-rule:evenodd;fill:url(#path121_1_);}
	.st8{fill-rule:evenodd;clip-rule:evenodd;fill:url(#path128_1_);}
	.st9{fill-rule:evenodd;clip-rule:evenodd;fill:url(#path135_1_);}
	.st10{fill-rule:evenodd;clip-rule:evenodd;fill:url(#path142_1_);}
	.st11{fill-rule:evenodd;clip-rule:evenodd;fill:url(#path149_1_);}
	.st12{fill-rule:evenodd;clip-rule:evenodd;fill:url(#path156_1_);}
	.st13{fill-rule:evenodd;clip-rule:evenodd;fill:url(#path163_1_);}
	.st14{fill-rule:evenodd;clip-rule:evenodd;fill:url(#path170_1_);}
	.st15{fill-rule:evenodd;clip-rule:evenodd;fill:url(#path177_1_);}
	.st16{fill-rule:evenodd;clip-rule:evenodd;fill:url(#path184_1_);}
	.st17{fill-rule:evenodd;clip-rule:evenodd;fill:url(#path191_1_);}
	.st18{fill-rule:evenodd;clip-rule:evenodd;fill:url(#path198_1_);}
	.st19{fill-rule:evenodd;clip-rule:evenodd;fill:url(#path205_1_);}
	.st20{fill-rule:evenodd;clip-rule:evenodd;fill:url(#path212_1_);}
	.st21{fill-rule:evenodd;clip-rule:evenodd;fill:#A78A56;}
	.st22{fill-rule:evenodd;clip-rule:evenodd;fill:url(#path221_1_);}
	.st23{fill-rule:evenodd;clip-rule:evenodd;fill:url(#path228_1_);}
	.st24{fill-rule:evenodd;clip-rule:evenodd;fill:#615031;}
	.st25{fill-rule:evenodd;clip-rule:evenodd;fill:#8B7347;}
	.st26{fill-rule:evenodd;clip-rule:evenodd;fill:#A58D54;}
	.st27{fill-rule:evenodd;clip-rule:evenodd;fill:url(#path241_1_);}
	.st28{fill-rule:evenodd;clip-rule:evenodd;fill:#735E39;}
	.st29{fill-rule:evenodd;clip-rule:evenodd;fill:#4D4027;}
	.st30{fill-rule:evenodd;clip-rule:evenodd;fill:url(#path252_1_);}
	.st31{fill-rule:evenodd;clip-rule:evenodd;fill:#CBA769;}
	.st32{fill-rule:evenodd;clip-rule:evenodd;fill:url(#path261_1_);}
	.st33{fill-rule:evenodd;clip-rule:evenodd;fill:url(#path268_1_);}
	.st34{fill-rule:evenodd;clip-rule:evenodd;fill:url(#path275_1_);}
	.st35{fill-rule:evenodd;clip-rule:evenodd;fill:url(#path282_1_);}
	.st36{fill-rule:evenodd;clip-rule:evenodd;fill:url(#path289_1_);}
	.st37{fill-rule:evenodd;clip-rule:evenodd;fill:url(#path296_1_);}
	.st38{fill-rule:evenodd;clip-rule:evenodd;fill:url(#path303_1_);}
	.st39{fill-rule:evenodd;clip-rule:evenodd;fill:url(#path310_1_);}
	.st40{fill-rule:evenodd;clip-rule:evenodd;fill:url(#path317_1_);}
	.st41{fill-rule:evenodd;clip-rule:evenodd;fill:url(#path324_1_);}
	.st42{fill-rule:evenodd;clip-rule:evenodd;fill:url(#path331_1_);}
	.st43{fill-rule:evenodd;clip-rule:evenodd;fill:url(#path352_1_);}
	.st44{fill-rule:evenodd;clip-rule:evenodd;fill:#1E3621;}
	.st45{fill-rule:evenodd;clip-rule:evenodd;fill:url(#path5240_1_);}
	.st46{fill-rule:evenodd;clip-rule:evenodd;fill:url(#path5242_1_);}
	.st47{fill-rule:evenodd;clip-rule:evenodd;fill:#FBEEE6;}
	.st48{fill-rule:evenodd;clip-rule:evenodd;fill:url(#path5752_1_);}
	.st49{fill-rule:evenodd;clip-rule:evenodd;fill:url(#path5754_1_);}
	.st50{fill-rule:evenodd;clip-rule:evenodd;fill:#E3001B;stroke:#D40000;stroke-width:2.7273;stroke-linejoin:round;}
	.st51{fill:#D00018;}
	.st52{fill:#EA3D25;}
	.st53{fill-rule:evenodd;clip-rule:evenodd;fill:#EA3D25;}
	.st54{fill-rule:evenodd;clip-rule:evenodd;fill:#4E9A06;}
	.st55{fill:none;stroke:#2D8F20;stroke-width:2.0856;}
	.st56{fill-rule:evenodd;clip-rule:evenodd;fill:#9C151C;}
	.st57{fill-rule:evenodd;clip-rule:evenodd;fill:#E10119;}
	.st58{opacity:0.3473;fill:#9C151C;enable-background:new    ;}
	.st59{opacity:0.3473;fill:#FCAF3E;enable-background:new    ;}
	.st60{fill-rule:evenodd;clip-rule:evenodd;fill:#639F1B;}
	.st61{opacity:0.5076;fill-rule:evenodd;clip-rule:evenodd;fill:#8AE234;enable-background:new    ;}
	.st62{fill-rule:evenodd;clip-rule:evenodd;fill:#77C127;}
	.st63{fill-rule:evenodd;clip-rule:evenodd;fill:#829A6B;}
	.st64{fill-rule:evenodd;clip-rule:evenodd;fill:#552F53;}
	.st65{fill-rule:evenodd;clip-rule:evenodd;fill:url(#path6689_1_);}
	.st66{fill:#774666;}
	.st67{fill-rule:evenodd;clip-rule:evenodd;fill:#93B279;}
	.st68{fill-rule:evenodd;clip-rule:evenodd;fill:url(#path5138_1_);}
	.st69{fill-rule:evenodd;clip-rule:evenodd;fill:#1A8025;stroke:#00582A;stroke-width:2.8112;stroke-linejoin:round;}
	.st70{fill:#00652B;}
	.st71{opacity:0.3435;fill:#FCE94F;enable-background:new    ;}
	.st72{opacity:0.3435;fill-rule:evenodd;clip-rule:evenodd;fill:#FCE94F;enable-background:new    ;}
	.st73{fill:none;stroke:#2D8F20;stroke-width:2.1498;}
</style>
<sodipodi:namedview  bordercolor="#666666" borderopacity="1" gridtolerance="10" guidetolerance="10" id="namedview369" inkscape:current-layer="svg2" inkscape:cx="8.408" inkscape:cy="19.320253" inkscape:pageopacity="0" inkscape:pageshadow="2" inkscape:window-height="645" inkscape:window-maximized="0" inkscape:window-width="785" inkscape:window-x="0" inkscape:window-y="0" inkscape:zoom="6.1077403" objecttolerance="10" pagecolor="#ffffff" showgrid="false">
	</sodipodi:namedview>
<linearGradient id="path11_1_" gradientUnits="userSpaceOnUse" x1="843.0957" y1="1216.8301" x2="1265.3442" y2="1216.8301" gradientTransform="matrix(0.85 0 0 0.85 -714.3 -473.3056)">
	<stop  offset="0" style="stop-color:#FFFFFF;stop-opacity:0.298"/>
	<stop  offset="1" style="stop-color:#ABD9DB;stop-opacity:0.549"/>
</linearGradient>
<path id="path11" inkscape:connector-curvature="0" class="st0" d="M326.5,304.9c20.6,14.3,30.8,27.1,30.8,38.3l12.2,338.3
	c0,15.6-2.8,36.2-8.4,61.7c-6.8,29.9-15,51.1-24.3,63.6c-6.9,8.1-25.2,17.2-55.2,27.1c-33.6,10.6-67,15.9-100,15.9
	c-31.8-0.6-63.9-6.2-96.3-16.8c-28.6-9.3-46-18.1-52.3-26.2c-9.2-11.8-17.4-33-24.2-63.6c-5.5-24.9-8.4-45.5-8.4-61.7l11.2-338.3
	c0-11.2,10.3-24,30.9-38.3c18.7-13.1,38.3-22.1,58.9-27.1c12.5-3.1,22.4-5,29.9-5.6H238c7.5,0.6,17.4,2.5,29.9,5.6
	c20.5,5,40.2,14,58.8,27.1L326.5,304.9L326.5,304.9z"/>
<radialGradient id="path18_1_" cx="1058.8223" cy="-372.7463" r="245.4045" gradientTransform="matrix(0.85 0 0 -0.85 -714.3 283.2656)" gradientUnits="userSpaceOnUse">
	<stop  offset="0" style="stop-color:#FBF128;stop-opacity:0.667"/>
	<stop  offset="0.988" style="stop-color:#999214;stop-opacity:0.847"/>
</radialGradient>
<path id="path18" inkscape:connector-curvature="0" class="st1" d="M310.6,380.6c16.2-8.1,26.5-15.9,30.9-23.4l6.5,149.5
	c4.4,102.7,5.9,163.4,4.7,182.1c-1.8,30.6-13.7,69.5-35.5,116.8c-3.1,6.2-10.6,12.4-22.4,18.7C271.2,836.7,236.9,843,192,843
	s-81.6-6.2-110.2-18.7l-29.9-18.7c-15.5-29.9-24.9-53.6-28-71l-5.6-43.9l10.3-329l26.2,20.5c28,13.7,67.3,20.6,117.7,20.6
	c59.8,0,105.9-7.5,138.3-22.4L310.6,380.6z"/>
<path id="path20" inkscape:connector-curvature="0" class="st2" d="M345.2,366.5v2.8c0,15.6-15.6,29-46.7,40.2
	c-30.3,11.2-67.7,16.7-112.2,16.7c-43.5,0-80.9-5.7-112.2-16.9c-31-11.2-46.6-24.6-46.6-40.2l0.9-2.9c2.6,13.7,19.1,25.2,49.5,34.6
	c30.3,9.3,66.9,14,108.4,14c42.4,0,79-4.6,109.5-14c30.6-9.3,47.1-20.9,49.6-34.5L345.2,366.5z"/>
<radialGradient id="path27_1_" cx="1085.8293" cy="1786.7206" r="217.634" gradientTransform="matrix(0.74 0.419 0.419 -0.74 -1388.0637 1179.9772)" gradientUnits="userSpaceOnUse">
	<stop  offset="0" style="stop-color:#FCF33F;stop-opacity:0.667"/>
	<stop  offset="0.988" style="stop-color:#FBF128;stop-opacity:0.847"/>
</radialGradient>
<path id="path27" inkscape:connector-curvature="0" class="st3" d="M345.2,363.7c0,14.3-15.6,26.5-46.7,36.4
	c-31,10-68.4,15-112.2,15c-43.5,0-80.9-5-112.2-15c-31-10-46.6-22.1-46.6-36.4c0-13.7,15.6-25.8,46.8-36.4
	c31.2-10.1,68.5-15.2,112.2-15.2s81,5,112.2,15s46.8,22.1,46.8,36.5L345.2,363.7z"/>
<linearGradient id="path100_1_" gradientUnits="userSpaceOnUse" x1="878.7229" y1="1215.6537" x2="1027.1935" y2="1215.6537" gradientTransform="matrix(0.85 0 0 0.85 -714.3 -473.3056)">
	<stop  offset="0" style="stop-color:#FFFFFF;stop-opacity:0.639"/>
	<stop  offset="1" style="stop-color:#FFFFFF;stop-opacity:0"/>
</linearGradient>
<path id="path100" inkscape:connector-curvature="0" class="st4" d="M44.2,391.8c12.5,16.8,30.3,26.2,53.3,28l-0.9,32.7
	c-1.9,29.9-5,64.2-9.3,102.8c-4.4,38.7,6.2,79.2,31.8,121.5c12.5,21.2,25.7,38.3,39.4,51.4h-29.9c-13.1,0-33-4.7-59.8-14l-36.5-14
	L44.2,391.8L44.2,391.8z"/>
<linearGradient id="path107_1_" gradientUnits="userSpaceOnUse" x1="840.6766" y1="1216.2419" x2="1054.4397" y2="1216.2419" gradientTransform="matrix(0.85 0 0 0.85 -714.3 -473.3056)">
	<stop  offset="0" style="stop-color:#FFFFFF"/>
	<stop  offset="1" style="stop-color:#ABD9DB"/>
</linearGradient>
<path id="path107" inkscape:connector-curvature="0" class="st5" d="M101.3,277.7c11.9-3,22.9-4.7,33.2-5.1
	c-8.1,0.7-17.3,2.3-27.6,5.1c-18.7,5-36.9,14-54.3,27.1c-18.7,14.3-28.1,27.1-28.1,38.3L13.2,681.5c0,15.6,2.8,36.2,8.4,61.7
	c6.2,29.9,13.3,51.1,21.5,63.6c5.6,8.1,21.8,16.8,48.6,26.2c22.9,7.9,45.4,13.1,67.7,15.4c-24.6-2.1-49.4-7.3-74.3-15.4
	c-28.6-9.3-46.1-18.1-52.3-26.2c-9.3-11.8-17.4-33-24.3-63.6C2.8,718.3,0,697.7,0,681.5l11.2-338.3c0-11.2,10.3-24,30.8-38.3
	c18.7-13.1,38.3-22.1,58.9-27.1h0.4V277.7z"/>
<linearGradient id="path114_1_" gradientUnits="userSpaceOnUse" x1="1058.1787" y1="1216.1831" x2="1274.8013" y2="1216.1831" gradientTransform="matrix(0.85 0 0 0.85 -714.3 -473.3056)">
	<stop  offset="0" style="stop-color:#FFFFFF"/>
	<stop  offset="1" style="stop-color:#ABD9DB"/>
</linearGradient>
<path id="path114" inkscape:connector-curvature="0" class="st6" d="M235.4,272.6c9.9,0.5,20.6,2.2,32.2,5.1
	c20.6,5,40.2,14,58.9,27.1c20.6,14.3,30.8,27.1,30.8,38.3l12.2,338.3c0,15.6-2.6,36.2-8.4,61.7c-6.8,29.9-15,51.1-24.2,63.6
	c-6.8,8.1-24.6,16.8-53.2,26.2c-25.9,8.1-51.5,13.3-76.6,15.4c22.7-2.3,45.7-7.5,69.2-15.4c26.8-9.3,43.3-18.1,49.5-26.2
	c8.7-11.8,16.2-33,22.4-63.6c5-24.9,7.5-45.5,7.5-61.7l-10.2-338.3c0-11.2-9.3-24-28-38.3c-18-13.1-36.4-22.1-55.1-27.1
	c-9.4-2.8-18.3-4.5-26.7-5.1L235.4,272.6L235.4,272.6z"/>
<linearGradient id="path121_1_" gradientUnits="userSpaceOnUse" x1="887.8192" y1="977.0654" x2="1110.8197" y2="977.0654" gradientTransform="matrix(0.85 0 0 0.85 -714.3 -473.3056)">
	<stop  offset="0" style="stop-color:#FFFFFF;stop-opacity:0.639"/>
	<stop  offset="1" style="stop-color:#FFFFFF;stop-opacity:0"/>
</linearGradient>
<path id="path121" inkscape:connector-curvature="0" class="st7" d="M230.3,401.7h-36.4c-51.1,0-93.8-7.1-128-21.5
	c-19.9-8.1-28-16.3-24.3-24.4c8.7-8.8,14.3-15.4,16.8-19.7c3.7-5.6,12.8-11.2,27.1-16.8c7.5-2.5,14.3-4.6,20.6-6.6l24.4,5.6
	c15.6,4.4,20.9,9.7,16,15.8c-7.5,10,17.4,21.6,74.8,34.6l-38.3,1.9c-28.7,1.8-43.9,3.1-45.8,3.7c-10.6,1.2-13.4,3.7-8.4,7.5
	c7.5,5.6,41.4,12.2,101.8,19.6L230.3,401.7z"/>
<linearGradient id="path128_1_" gradientUnits="userSpaceOnUse" x1="918.5285" y1="1521.34" x2="1110.9596" y2="1521.34" gradientTransform="matrix(0.85 0 0 0.85 -714.3 -473.3056)">
	<stop  offset="0" style="stop-color:#FFFFFF;stop-opacity:0.639"/>
	<stop  offset="1" style="stop-color:#FFFFFF;stop-opacity:0"/>
</linearGradient>
<path id="path128" inkscape:connector-curvature="0" class="st8" d="M118.1,815.2c32.4,11.2,69.8,14.6,112.2,10.3
	c-19.4,9.5-48.6,11.7-87.9,6.6c-33.6-4.4-56.4-9.9-68.2-16.7c-9.9-6.2-10.8-9.7-2.6-10.3c8.8-1.1,24.3,2.2,46.8,10.3L118.1,815.2z"
	/>
<linearGradient id="path135_1_" gradientUnits="userSpaceOnUse" x1="-7873.1313" y1="-1615.7933" x2="-7810.4546" y2="-1615.7933" gradientTransform="matrix(-0.85 0 0 -0.85 -6363.0713 -1040.5745)">
	<stop  offset="0" style="stop-color:#FFFFFF;stop-opacity:0.639"/>
	<stop  offset="1" style="stop-color:#FFFFFF;stop-opacity:0"/>
</linearGradient>
<path id="path135" inkscape:connector-curvature="0" class="st9" d="M312.5,317c3.1,4.4,9,11,17.7,19.7c3.7,8.1-4.4,16.2-24.3,24.3
	l-32.7,11.2c5-13.9,5-27.9,0-42.2c-5-14.3-13.7-25.3-26.2-32.8l18.7-3.7l20.6,6.5c13.6,5.6,22.4,11.2,26.2,16.8L312.5,317z"/>
<linearGradient id="path142_1_" gradientUnits="userSpaceOnUse" x1="871.6852" y1="1447.8107" x2="1025.6036" y2="1447.8107" gradientTransform="matrix(0.85 0 0 0.85 -714.3 -473.3056)">
	<stop  offset="0" style="stop-color:#FFFFFF;stop-opacity:0.639"/>
	<stop  offset="1" style="stop-color:#FFFFFF;stop-opacity:0"/>
</linearGradient>
<path id="path142" inkscape:connector-curvature="0" class="st10" d="M36.7,712.4c11.2,6.2,23.7,11.5,37.4,15.8
	c27.4,8.1,55.2,12.2,83.2,12.2c-13.7,1.2-25.5,2.5-35.5,3.7c-19.3,2.5-30.2,6.2-32.7,11.2c-5.5,9.3-3.7,20.6,5.7,33.6
	c4.4,6.2,8.5,11.2,12.3,15c-17.4-4.4-33.6-9-48.6-14l-17.7-6.6l-3.8-13c-3.1-8.7-5.9-18.7-8.4-29.9c-2.5-14.3-2.8-23.4-0.9-27.1
	c1.8-3.1,4.9-3.3,9.3-0.9H36.7z"/>
<linearGradient id="path149_1_" gradientUnits="userSpaceOnUse" x1="-7901.7217" y1="-2104.6169" x2="-7834.645" y2="-2104.6169" gradientTransform="matrix(-0.85 0 0 -0.85 -6363.0713 -1040.5745)">
	<stop  offset="0" style="stop-color:#FFFFFF;stop-opacity:0.639"/>
	<stop  offset="1" style="stop-color:#FFFFFF;stop-opacity:0"/>
</linearGradient>
<path id="path149" inkscape:connector-curvature="0" class="st11" d="M347.1,698.3h8.4c0,19.4-5,37.1-15,53.3
	c-5,9.3-11.5,19-19.6,29c-1.8,2.6-6.2,7-13,13.2c-1.5,1.7-3.1,3.3-4.2,4.6c1.1-3.1,1.8-6.8,2.4-11.2c0-11.2,0.3-18.9,0.9-23.3v-18.7
	c0.6-5.5,0.3-9-0.9-10.3c-0.6-1.1-3.7-2.2-9.4-2.7c-13.7,1.3-24,1.3-30.8,0c4.4-3.1,10.9-5.9,19.6-8.4c4.4-1.3,11-3.4,19.7-6.6
	l17.6-8.5c11.9-2.4,19.9-5.9,24.3-10.2V698.3z"/>
<linearGradient id="path156_1_" gradientUnits="userSpaceOnUse" x1="941.8402" y1="830.5361" x2="1168.7991" y2="830.5361" gradientTransform="matrix(0.85 0 0 0.85 -714.3 -473.3056)">
	<stop  offset="0" style="stop-color:#FFFFFF;stop-opacity:0.298"/>
	<stop  offset="1" style="stop-color:#ABD9DB;stop-opacity:0.549"/>
</linearGradient>
<path id="path156" inkscape:connector-curvature="0" class="st12" d="M177,136.6l7.5,0.9l7.5-0.9c23.7,0,43.6,2.8,59.8,8.4
	c15.6,5.6,23.4,12.1,23.4,19.6c0,49.2,0.9,78.8,2.8,88.8c1.9,8.7,3.7,18.1,5.6,28c1.3,6.8,0.9,12.1-0.9,15.9
	c-10,18.7-38.6,29.2-86,31.7h-24.3c-48.6-2.6-77-13.2-85-31.9c-1.9-3.7-2.2-9-0.9-15.9c1.9-10,3.4-19.3,4.7-28
	c1.9-10,2.8-39.6,2.8-88.8c0-7.5,7.8-14.1,23.4-19.7c16.2-5.6,36.1-8.4,59.8-8.4L177,136.6z"/>
<linearGradient id="path163_1_" gradientUnits="userSpaceOnUse" x1="958.1141" y1="886.6173" x2="1058.1787" y2="886.6173" gradientTransform="matrix(0.85 0 0 0.85 -714.3 -473.3056)">
	<stop  offset="0" style="stop-color:#FFFFFF;stop-opacity:0.639"/>
	<stop  offset="1" style="stop-color:#FFFFFF;stop-opacity:0"/>
</linearGradient>
<path id="path163" inkscape:connector-curvature="0" class="st13" d="M105,271.2l3.7-35.5l66.4,4.7c-2.5,5-7.5,8.7-15,11.2
	c-5.6,1.3-10.3,8.1-14,20.6c-3.7,11.8-4.7,22.1-2.8,30.8c2.5,11.9,17.1,18.4,43.9,19.7l-20.6,1.8c-10,1.3-22.1-0.3-36.5-4.7
	c-15-4.4-24.4-9-28.1-14c-3.1-3.7-4.2-8.7-2.9-15c2.5-7.5,4.4-14,5.6-19.6L105,271.2z"/>
<linearGradient id="path170_1_" gradientUnits="userSpaceOnUse" x1="-7218.875" y1="-2852.0134" x2="-7183.0718" y2="-2852.0134" gradientTransform="matrix(-0.809 0.261 -0.261 -0.809 -6313.9287 -159.6405)">
	<stop  offset="0" style="stop-color:#FFFFFF;stop-opacity:0.639"/>
	<stop  offset="1" style="stop-color:#FFFFFF;stop-opacity:0"/>
</linearGradient>
<path id="path170" inkscape:connector-curvature="0" class="st14" d="M267.6,225.4l0.9,29.9l5.7,21.5c2.4,8.7,2.4,14.6,0,17.8
	c-3.1,5-9.7,9.3-19.6,13.1c2.5-8.7,2.5-18.4,0-29c-1.8-11.7-3.4-20.2-4.6-25.1c-3.1-9.3-8.1-14.3-15-15l32.8-13.1L267.6,225.4z"/>
<linearGradient id="path177_1_" gradientUnits="userSpaceOnUse" x1="886.8235" y1="780.5359" x2="1228.141" y2="780.5359" gradientTransform="matrix(0.85 0 0 0.85 -714.3 -473.3056)">
	<stop  offset="0" style="stop-color:#FFFFFF;stop-opacity:0.298"/>
	<stop  offset="1" style="stop-color:#ABD9DB;stop-opacity:0.549"/>
</linearGradient>
<path id="path177" inkscape:connector-curvature="0" class="st15" d="M289.1,132.9c27.4,13.1,41.1,28.6,41.1,46.7
	c0,18.7-14.3,34.9-43,48.6c-28.7,13.1-62.9,19.6-102.8,19.6s-74.1-6.6-102.8-19.7c-28-13.7-42.1-29.9-42.1-48.6
	c0-18,13.1-33.6,39.3-46.7l0.9,7.5v0.9l0.9,10.1v0.9l0.9,13.1v0.9l0.9,1.8l7.5,7.5h0.9l2.9,1.9l0.9,0.9l11.2,5.6l5.5,1.9h1.9
	l8.4,2.8l6.5,0.9l10.3,2.8h3.7l8.4,0.9l3.7,0.9l10.3,1h3.7c6.8,0,12.1,0.3,15.8,0.9c36.1,0.7,63.8-3.7,83.1-13.1
	c10-4.3,16.3-9,18.7-14v-7.5l3-28.9L289.1,132.9z"/>
<linearGradient id="path184_1_" gradientUnits="userSpaceOnUse" x1="1057.7384" y1="779.1243" x2="1228.8379" y2="779.1243" gradientTransform="matrix(0.85 0 0 0.85 -714.3 -473.3056)">
	<stop  offset="0" style="stop-color:#FFFFFF"/>
	<stop  offset="1" style="stop-color:#ABD9DB"/>
</linearGradient>
<path id="path184" inkscape:connector-curvature="0" class="st16" d="M287.2,228.2c-18.6,8.5-39.6,14.1-63.1,16.8
	c20.9-3,39.8-8.7,56.5-16.8c26.8-13.7,40.2-29.9,40.2-48.6c0-16.8-11-31.1-32.8-43l1-3.7c27.4,13.1,41.1,28.7,41.1,46.7
	C330.3,198.3,315.9,214.5,287.2,228.2L287.2,228.2z"/>
<linearGradient id="path191_1_" gradientUnits="userSpaceOnUse" x1="886.6397" y1="778.889" x2="1050.4813" y2="778.889" gradientTransform="matrix(0.85 0 0 0.85 -714.3 -473.3056)">
	<stop  offset="0" style="stop-color:#FFFFFF"/>
	<stop  offset="1" style="stop-color:#ABD9DB"/>
</linearGradient>
<path id="path191" inkscape:connector-curvature="0" class="st17" d="M140,244.6c-22.5-3.3-42.6-9.4-60.3-18.3
	c-26.8-13.1-40.2-28.6-40.2-46.7s13.1-33.6,39.3-46.7v3.7c-20.6,13-30.9,27.3-30.9,42.9c0,18,13,33.6,38.5,46.6
	c15.6,8.6,33.5,14.6,53.8,18.3L140,244.6z"/>
<linearGradient id="path198_1_" gradientUnits="userSpaceOnUse" x1="924.0266" y1="801.6071" x2="1039.4852" y2="801.6071" gradientTransform="matrix(0.85 0 0 0.85 -714.3 -473.3056)">
	<stop  offset="0" style="stop-color:#FFFFFF;stop-opacity:0.639"/>
	<stop  offset="1" style="stop-color:#FFFFFF;stop-opacity:0"/>
</linearGradient>
<path id="path198" inkscape:connector-curvature="0" class="st18" d="M168.6,195.5l0.9,6.6c-12.4,1.9-22.4,3.4-29.9,4.7
	c-13.7,2.5-21.5,5.6-23.4,9.3c-3.1,6.8,0,15.3,9.3,25.2c-1.9,0-7.5-1.8-16.8-5.6c-16.8-6.2-28.4-17.2-34.6-32.7
	c-6.8-15-3.3-24.3,10.3-28c2-0.6,5.1,0.3,9.5,2.8c7.5,3.7,15.8,7.3,25.3,10.3c18.7,6.8,35.2,9.5,49.6,7.5L168.6,195.5z"/>
<linearGradient id="path205_1_" gradientUnits="userSpaceOnUse" x1="1192.9906" y1="796.0188" x2="1130.9725" y2="796.0188" gradientTransform="matrix(0.85 0 0 0.85 -714.3 -473.3056)">
	<stop  offset="0" style="stop-color:#FFFFFF;stop-opacity:0.639"/>
	<stop  offset="1" style="stop-color:#FFFFFF;stop-opacity:0"/>
</linearGradient>
<path id="path205" inkscape:connector-curvature="0" class="st19" d="M286.3,174.9c13.7,3.7,17.2,13.1,10.3,28
	c-5.6,13.1-14,22.7-25.2,29c-3.3-18.7-13-32.4-29-41.1l9.2-2.8c8.7-3.1,17.2-6.6,25.2-10.3c3.7-2.5,6.8-3.4,9.3-2.8L286.3,174.9z"/>
<linearGradient id="path212_1_" gradientUnits="userSpaceOnUse" x1="-6973.5371" y1="-470.9775" x2="-6899.8638" y2="-470.9775" gradientTransform="matrix(-1 0 0 -1 -6647.0425 -462.7775)">
	<stop  offset="0" style="stop-color:#C1A064"/>
	<stop  offset="1" style="stop-color:#706341"/>
</linearGradient>
<path id="path212" inkscape:connector-curvature="0" class="st20" d="M278.7,12.6h-1.1c-16.1,0-25.6-0.7-28.6-2.2s-3.7-3.3-2.2-5.5
	V3.8l34.1,8.8H278.7z"/>
<path id="path214" inkscape:connector-curvature="0" class="st21" d="M65.3,23.6L84,15.9c19.8-7.3,45.8-12.1,78.1-14.3
	c30.1-2.9,58.3-1.8,84.7,3.3c-1.5,2.2-0.7,4,2.2,5.5s12.4,2.2,28.6,2.2h1.1c8.8,2.2,16.1,5.1,22,8.8c-4.4,8.8-11,14.7-19.8,17.6
	l-3.3,1.1l-1.1,1.1c-3.7-1.5-7.7-2.6-12.1-3.3l-4.4-1.1c-1.4-0.7-2.9-1.1-4.4-1.1h-1.1c-2.9-0.7-5.5-0.7-7.7,0h-2.2
	c-2.2-0.7-3.7-0.7-4.4,0l-1.1,2.2l1.1,3.3l2.2,4.4l4.4,2.2l1.1,2.2l2.2,2.2c0.7,0.7,1.5,1.1,2.2,1.1h-4.4
	c-7.3-2.2-11.4-3.7-12.1-4.4c-4.4-1.5-6.6-5.1-6.6-11c-1.5,0-2.9,1.1-4.4,3.3c-0.7,2.2-1.5,3.7-2.2,4.4s-2.2,1.5-4.4,2.2h-27.5
	c-29.3,0-46.2-0.4-50.6-1.1l-42.9-11c-9.5-1.5-16.9-4-22-7.7C72.3,25.1,69,23.6,65.3,23.6z M276.5,18.1c-0.7,1.5-0.7,2.6,0,3.3
	c8,1.5,12.8,0.4,14.3-3.3H276.5z M210.5,12.6c-1.5-2.2-3.7-3.3-6.6-3.3h-3.3l-1.1,3.3H210.5z M166.5,25.8c-5.9,0.7-8.4,2.9-7.7,6.6
	l26.4,1.1c2.9-0.7,5.1-2.6,6.6-5.5l-12.1-2.2C174.6,25.1,170.2,25.1,166.5,25.8z M145.6,10.4c-22,0-32.6,3.7-31.9,11
	c2.9,0.7,13.2,1.1,30.8,1.1c6.6,0,11-0.7,13.2-2.2c2.2-2.2,3.3-4,3.3-5.5c0-2.9-1.5-4.4-4.4-4.4H145.6z"/>
<linearGradient id="path221_1_" gradientUnits="userSpaceOnUse" x1="-6940.5493" y1="-482.852" x2="-6924.0552" y2="-482.852" gradientTransform="matrix(-1 0 0 -1 -6647.0425 -462.7775)">
	<stop  offset="0" style="stop-color:#C1A064"/>
	<stop  offset="1" style="stop-color:#706341"/>
</linearGradient>
<path id="path221" inkscape:connector-curvature="0" class="st22" d="M276.5,18.1h14.3c-1.5,3.7-6.2,4.8-14.3,3.3
	C275.7,20.7,275.7,19.6,276.5,18.1z"/>
<linearGradient id="path228_1_" gradientUnits="userSpaceOnUse" x1="-3908.449" y1="3204.8149" x2="-3878.5837" y2="3204.8149" gradientTransform="matrix(-0.11 -0.994 0.994 -0.11 -3358.0591 -3468.6665)">
	<stop  offset="0" style="stop-color:#C1A064"/>
	<stop  offset="1" style="stop-color:#706341"/>
</linearGradient>
<path id="path228" inkscape:connector-curvature="0" class="st23" d="M255.6,35.7c1.5,0.1,3,0.8,4.4,2.2l4.4,1.1
	c4.4,1.5,6.6,4,6.6,7.7c0,5.1-0.7,8.8-2.2,11c-3.7,5.1-7.7,6.2-12.1,3.3l-5.5-7.7h1.1c-0.8,0-1.5-0.4-2.2-1.1l-2.2-2.2l-1.1-2.2
	l-4.4-2.2l-2.2-4.4l-1.1-3.3c0.8-1.5,2.6-2.2,5.5-2.2h2.2c2.2-0.7,4.8-0.7,7.7,0C254.5,35.7,255.6,35.7,255.6,35.7z"/>
<path id="path230" inkscape:connector-curvature="0" class="st24" d="M239.1,37.9l1.1-2.2c0.7-0.7,2.2-0.7,4.4,0
	C241.7,35.7,239.8,36.4,239.1,37.9z M264.4,37.9c2.9,0.7,6.2,1.8,9.9,3.3v4.4c0,12.4-2.9,19.1-8.8,19.8c-4.4,0-7.3-1.5-8.8-4.4
	c4.4,2.9,8.4,1.8,12.1-3.3c1.5-2.2,2.2-5.9,2.2-11c0-3.7-2.2-6.2-6.6-7.7l-4.4-1.1c-1.4-1.4-2.9-2.1-4.4-2.2c1.5,0,3,0.4,4.4,1.1
	C260,36.8,264.4,37.9,264.4,37.9z"/>
<path id="path232" inkscape:connector-curvature="0" class="st25" d="M274.3,41.2h2.2l1.1-1.1v1.1c0,13.2-2.6,21.3-7.7,24.2
	c-3.7,1.5-9.5,1.8-17.6,1.1c-8.1-0.7-11.7-2.9-11-6.6c-9.5-2.9-17.2-4.4-23.1-4.4h-31.9c19,2.9,33.4,7,42.9,12.1
	c2.9,2.2,6.6,5.9,11,11c8,5.9,12.1,11.7,12.1,17.6c0,2.9-2.6,7.3-7.7,13.2c-5.9,5.1-8.8,9.5-8.8,13.2c0,2.2,1.1,4.8,3.3,7.7
	c0,2.9-1.8,6.2-5.5,9.9c-1.5,2.9-3.3,5.5-5.5,7.7c0,2.9,0.4,6.2,1.1,9.9c1.5,5.1-0.4,8.4-5.5,9.9c-2.9,0.7-5.9,0.4-8.8-1.1
	c-3.7-1.5-6.9-2.6-9.9-3.3l-6.6,6.6l-3.3,1.1l-4.4,2.2c-2.9,2.2-8.1,3.3-15.4,3.3c-5.9,4.4-11.4,6.6-16.5,6.6
	c-2.2,0-12.4-1.8-30.8-5.5c-2.9-0.7-4.8-1.1-5.5-1.1s-1.8-1.5-3.3-4.4c-1.5-4.4-2.6-6.6-3.3-6.6l-8.8-6.6c-6.6,3.7-13.2,3.7-19.8,0
	l-6.6-6.6l-2.2-23.1c0.7,2.2,2.6,4.8,5.5,7.7c5.1,5.1,10.3,7,15.4,5.5c2.2-0.7,4.8-2.6,7.7-5.5c5.9,8.8,13.6,14.3,23.1,16.5
	c2.9,0.7,7.3,1.5,13.2,2.2c5.1,1.5,7.7,4,7.7,7.7c4.4,1.5,7.7,0.7,9.9-2.2c1.5-5.1,3.3-8.1,5.5-8.8c3.7,3.7,8.8,4,15.4,1.1
	c0-8.8,3.3-13.9,9.9-15.4c2.9-0.7,5.5-1.5,7.7-2.2s3.7-2.6,4.4-5.5c2.9-5.9,2.6-11.4-1.1-16.5c0-2.9-1.5-5.1-4.4-6.6
	c-2.9-2.2-5.1-1.5-6.6,2.2c-5.1,0-8.8-3.7-11-11c-4.4-9.5-7-14.7-7.7-15.4c-5.1-7.3-14.7-14.3-28.6-20.9c-5.9-1.5-11.4-4.4-16.5-8.8
	l-1.1-1.1l-1.1-1.1c12.5,1.5,23.8,2.6,34.1,3.3l88-1.1h2.2l1.1,1.1h-1.1c1.5,2.9,3.3,5.1,5.5,6.6h1.1c1.5,2.9,4.4,4.4,8.8,4.4
	c5.9-0.7,8.8-7.3,8.8-19.8C274.3,45.6,274.3,41.2,274.3,41.2z M212.7,72c-5.1,0-6.9,4-5.5,12.1c1.5,6.6,4.4,10.6,8.8,12.1
	c4.4,0.7,6.6-1.8,6.6-7.7c0.7-7.3-1.1-12.8-5.5-16.5H212.7z M184.1,155.5c-5.1,6.6-5.9,11.4-2.2,14.3c4.4,2.9,8.4,1.1,12.1-5.5
	c-0.7-0.7-2.6-2.2-5.5-4.4L184.1,155.5z M211.6,134.6h6.6c2.2-5.9,1.1-9.2-3.3-9.9l-2.2-3.3C210.5,123.7,210.1,128,211.6,134.6z"/>
<path id="path234" inkscape:connector-curvature="0" class="st26" d="M276.5,41.2h-2.2c-3.7-1.5-7-2.6-9.9-3.3
	C268.8,38.6,272.8,39.7,276.5,41.2z M78.5,129.1v-3.3l5.5-1.1c0.7-7.3-1.1-10.6-5.5-9.9c-2.2-13.9-4-24.2-5.5-30.8l-2.2-22
	l-3.3-19.8l-2.2-18.7l22,16.5c11,4.4,24.2,8.4,39.6,12.1l1.1,1.1c5.1,4.4,10.6,7.3,16.5,8.8c13.9,6.6,23.4,13.6,28.6,20.9
	c0.7,0.7,3.3,5.9,7.7,15.4c2.2,7.3,5.9,11,11,11c1.5-3.7,3.7-4.4,6.6-2.2c2.9,1.5,4.4,3.7,4.4,6.6c3.7,5.1,4,10.6,1.1,16.5
	c-0.7,2.9-2.2,4.8-4.4,5.5s-4.8,1.5-7.7,2.2c-6.6,1.5-9.9,6.6-9.9,15.4c-6.6,2.9-11.7,2.6-15.4-1.1c-2.2,0.7-4,3.7-5.5,8.8
	c-2.2,2.9-5.5,3.7-9.9,2.2c0-3.7-2.6-6.2-7.7-7.7c-5.9-0.7-10.3-1.5-13.2-2.2c-9.5-2.2-17.2-7.7-23.1-16.5c-2.9,2.9-5.5,4.8-7.7,5.5
	c-5.1,1.5-10.3-0.4-15.4-5.5C81.1,133.9,79.3,131.3,78.5,129.1z M251.2,53.3v1.1l-1.1-1.1H251.2z M300.7,21.4l-14.3,148.4l4.4-66
	l1.1-18.7C291.9,85.2,300.7,21.4,300.7,21.4z M89.5,67.6c-2.2,3.7-2.9,8.1-2.2,13.2c0.7,5.1,2.6,9.5,5.5,13.2c2.9,2.9,6.2,4,9.9,3.3
	c3.7,0,6.2-2.2,7.7-6.6c2.9-4.4,3.7-8.8,2.2-13.2c-0.7-5.1-2.6-9.2-5.5-12.1c-2.9-3.7-6.2-5.1-9.9-4.4C93.6,61.7,91,63.9,89.5,67.6z
	 M106,122.6c2.2,5.1,7.3,6.9,15.4,5.5c2.2-10.3,1.1-16.5-3.3-18.7l-8.8-1.1c-2.2,0.7-3.7,2.9-4.4,6.6
	C104.2,117.8,104.6,120.4,106,122.6z M137.9,83c-12.5,6.6-15,16.1-7.7,28.6c6.6,13.2,16.9,17.2,30.8,12.1c6.6-1.5,8.8-10.3,6.6-26.4
	c-1.5-6.6-4.4-11-8.8-13.2c-2.2-0.7-6.9-1.1-14.3-1.1H137.9z"/>
<linearGradient id="path241_1_" gradientUnits="userSpaceOnUse" x1="-3909.1748" y1="3201.4546" x2="-3879.3096" y2="3201.4546" gradientTransform="matrix(-0.11 -0.994 0.994 -0.11 -3358.0591 -3468.6665)">
	<stop  offset="0" style="stop-color:#C1A064"/>
	<stop  offset="1" style="stop-color:#706341"/>
</linearGradient>
<path id="path241" inkscape:connector-curvature="0" class="st27" d="M251.2,54.4v-1.1l5.5,7.7h-1.1c-2.2-1.5-4-3.7-5.5-6.6
	C250.1,54.4,251.2,54.4,251.2,54.4z"/>
<path id="path243" inkscape:connector-curvature="0" class="st28" d="M81.8,167.6l-1.1-15.4l6.6,6.6c6.6,3.7,13.2,3.7,19.8,0
	l8.8,6.6c0.7,0,1.8,2.2,3.3,6.6c1.5,2.9,2.6,4.4,3.3,4.4s2.6,0.4,5.5,1.1c18.3,3.7,28.6,5.5,30.8,5.5c5.1,0,10.6-2.2,16.5-6.6
	c7.3,0,12.4-1.1,15.4-3.3l4.4-2.2l3.3-1.1l6.6-6.6c2.9,0.7,6.2,1.8,9.9,3.3c2.9,1.5,5.8,1.8,8.8,1.1c5.1-1.5,7-4.8,5.5-9.9
	c-0.7-3.7-1.1-7-1.1-9.9c2.2-2.2,4-4.8,5.5-7.7c3.7-3.7,5.5-6.9,5.5-9.9c-2.2-2.9-3.3-5.5-3.3-7.7c0-3.7,2.9-8.1,8.8-13.2
	c5.1-5.9,7.7-10.3,7.7-13.2c0-5.9-4-11.7-12.1-17.6c-4.4-5.1-8-8.8-11-11c-9.5-5.1-23.8-9.2-42.8-12.1h31.9c5.8,0,13.5,1.5,23.1,4.4
	c-0.7,3.7,2.9,5.9,11,6.6c8,0.7,13.9,0.4,17.6-1.1c5.1-2.9,7.7-11,7.7-24.2V40l3.3-1.1l3.3,12.1c0,3.7-1.1,9.2-3.3,16.5
	c-1.4,5.1-2.2,12.8-2.2,23.1c0,2.9-0.7,5.5-2.2,7.7l-5.5,7.7c-0.7,2.2-1.1,9.2-1.1,20.9c0,0.7,0.7,3.3,2.2,7.7
	c1.5,2.9,1.8,5.5,1.1,7.7c-1.5,8.8-4,14.7-7.7,17.6c-0.7,0.7-3.3,1.8-7.7,3.3c-2.9,0.7-4.8,2.6-5.5,5.5c-5.1,0-11,2.2-17.6,6.6
	c-8.8,5.9-13.9,8.8-15.4,8.8c-5.1,2.2-19.1,3.3-41.8,3.3c-14.7,0-25.7-0.7-33-2.2c-6.6,0-11.7-0.4-15.4-1.1
	c-8.1-4.4-13.9-6.6-17.6-6.6l-14.3-4.4c-5.9-2.9-10.3-4.8-13.2-5.5C84,167.6,81.8,167.6,81.8,167.6z M255.6,110.5h-7.7
	c-3.7,0.7-5.9,4-6.6,9.9c0,4.4,1.8,7,5.5,7.7c5.9,2.2,9.5,0.7,11-4.4C258.5,119.3,257.8,114.9,255.6,110.5z"/>
<path id="path245" inkscape:connector-curvature="0" class="st29" d="M300.7,21.4l-8.8,63.8c-3.7,0-5.5,3.7-5.5,11
	c1.5,4.4,2.9,7,4.4,7.7l-4.4,66c-2.2,5.1-8.4,9.9-18.7,14.3c-19,8.8-46.9,12.8-83.6,12.1c-14.6,0-28.2-0.7-40.7-2.2l-13.2-2.2
	c-23.5-5.1-39.6-13.2-48.4-24.2H84c2.9,0.7,7.3,2.6,13.2,5.5l14.3,4.4c3.7,0,9.5,2.2,17.6,6.6c3.7,0.7,8.8,1.1,15.4,1.1
	c7.3,1.5,18.3,2.2,33,2.2c22.7,0,36.7-1.1,41.8-3.3c1.5,0,6.6-2.9,15.4-8.8c6.6-4.4,12.4-6.6,17.6-6.6c0.7-2.9,2.6-4.8,5.5-5.5
	c4.4-1.5,6.9-2.6,7.7-3.3c3.7-2.9,6.2-8.8,7.7-17.6c0.7-2.2,0.4-4.8-1.1-7.7c-1.5-4.4-2.2-6.9-2.2-7.7c0-11.7,0.4-18.7,1.1-20.9
	l5.5-7.7c1.5-2.2,2.2-4.8,2.2-7.7c0-10.3,0.7-17.9,2.2-23.1c2.2-7.3,3.3-12.8,3.3-16.5L280.9,39C289.7,36.1,296.3,30.2,300.7,21.4z"
	/>
<linearGradient id="path252_1_" gradientUnits="userSpaceOnUse" x1="-6858.6289" y1="-473.7275" x2="-6847.6289" y2="-473.7275" gradientTransform="matrix(-1 0 0 -1 -6647.0425 -462.7775)">
	<stop  offset="0" style="stop-color:#C1A064"/>
	<stop  offset="1" style="stop-color:#706341"/>
</linearGradient>
<path id="path252" inkscape:connector-curvature="0" class="st30" d="M210.5,12.6h-11l1.1-3.3h3.3C206.8,9.3,209,10.4,210.5,12.6z"
	/>
<path id="path254" inkscape:connector-curvature="0" class="st31" d="M126.9,52.2c-15.4-3.7-28.6-7.7-39.6-12.1l-22-16.5
	c3.7,0,7,1.5,9.9,4.4c5.1,3.7,12.4,6.2,22,7.7l42.9,11c4.4,0.7,21.3,1.1,50.6,1.1h27.5c2.2-0.7,3.7-1.5,4.4-2.2s1.5-2.2,2.2-4.4
	c1.5-2.2,2.9-3.3,4.4-3.3c0,5.9,2.2,9.5,6.6,11c0.7,0.7,4.8,2.2,12.1,4.4l-88,1.1c-10.3-0.7-21.6-1.8-34.1-3.3
	C125.8,51.1,126.9,52.2,126.9,52.2z M70.8,62.1L69.7,61l-2.2-18.7L70.8,62.1z"/>
<linearGradient id="path261_1_" gradientUnits="userSpaceOnUse" x1="-3929.7649" y1="3162.2568" x2="-3904.3201" y2="3162.2568" gradientTransform="matrix(-0.108 -0.994 0.994 -0.108 -3351.4133 -3467.9993)">
	<stop  offset="0" style="stop-color:#C1A064"/>
	<stop  offset="1" style="stop-color:#706341"/>
</linearGradient>
<path id="path261" inkscape:connector-curvature="0" class="st32" d="M212.7,72h4.4c4.4,3.7,6.2,9.2,5.5,16.5c0,5.9-2.2,8.4-6.6,7.7
	c-4.4-1.5-7.3-5.5-8.8-12.1C205.7,76,207.5,72,212.7,72z"/>
<linearGradient id="path268_1_" gradientUnits="userSpaceOnUse" x1="-3988.3962" y1="3186.7278" x2="-3969.043" y2="3186.7278" gradientTransform="matrix(-0.114 -0.994 0.994 -0.114 -3371.3501 -3469.9993)">
	<stop  offset="0" style="stop-color:#C1A064"/>
	<stop  offset="1" style="stop-color:#706341"/>
</linearGradient>
<path id="path268" inkscape:connector-curvature="0" class="st33" d="M255.6,110.5c2.2,4.4,2.9,8.8,2.2,13.2
	c-1.5,5.1-5.1,6.6-11,4.4c-3.7-0.7-5.5-3.3-5.5-7.7c0.7-5.9,2.9-9.2,6.6-9.9C247.9,110.5,255.6,110.5,255.6,110.5z"/>
<linearGradient id="path275_1_" gradientUnits="userSpaceOnUse" x1="-3944.0034" y1="3236.3389" x2="-3923.5286" y2="3236.3389" gradientTransform="matrix(-0.107 -0.994 0.994 -0.107 -3348.0906 -3467.6643)">
	<stop  offset="0" style="stop-color:#C1A064"/>
	<stop  offset="1" style="stop-color:#706341"/>
</linearGradient>
<path id="path275" inkscape:connector-curvature="0" class="st34" d="M291.9,85.2l-1.1,18.7c-1.5-0.7-2.9-3.3-4.4-7.7
	C286.4,88.8,288.2,85.2,291.9,85.2z"/>
<linearGradient id="path282_1_" gradientUnits="userSpaceOnUse" x1="-4015.5225" y1="3009.7214" x2="-4002.7671" y2="3009.7214" gradientTransform="matrix(-0.129 -0.992 0.992 -0.129 -3421.8596 -3468.3599)">
	<stop  offset="0" style="stop-color:#C1A064"/>
	<stop  offset="1" style="stop-color:#706341"/>
</linearGradient>
<path id="path282" inkscape:connector-curvature="0" class="st35" d="M78.5,125.8l-1.1-11h1.1c4.4-0.7,6.2,2.6,5.5,9.9L78.5,125.8z"
	/>
<linearGradient id="path289_1_" gradientUnits="userSpaceOnUse" x1="-6842.3984" y1="-492.165" x2="-6808.8604" y2="-492.165" gradientTransform="matrix(-1 0 0 -1 -6647.0425 -462.7775)">
	<stop  offset="0" style="stop-color:#C1A064"/>
	<stop  offset="1" style="stop-color:#706341"/>
</linearGradient>
<path id="path289" inkscape:connector-curvature="0" class="st36" d="M166.5,25.8c3.7-0.7,8-0.7,13.2,0l12.1,2.2
	c-1.5,2.9-3.7,4.8-6.6,5.5l-26.4-1.1C158.1,28.7,160.6,26.5,166.5,25.8z"/>
<linearGradient id="path296_1_" gradientUnits="userSpaceOnUse" x1="-6814.0947" y1="-479.2275" x2="-6764.6123" y2="-479.2275" gradientTransform="matrix(-1 0 0 -1 -6647.0425 -462.7775)">
	<stop  offset="0" style="stop-color:#C1A064"/>
	<stop  offset="1" style="stop-color:#706341"/>
</linearGradient>
<path id="path296" inkscape:connector-curvature="0" class="st37" d="M145.6,10.4h11c2.9,0,4.4,1.5,4.4,4.4c0,1.5-1.1,3.3-3.3,5.5
	c-2.2,1.5-6.6,2.2-13.2,2.2c-17.6,0-27.9-0.4-30.8-1.1C113,14.1,123.6,10.4,145.6,10.4z"/>
<linearGradient id="path303_1_" gradientUnits="userSpaceOnUse" x1="-3939.5737" y1="3042.8877" x2="-3900.8455" y2="3042.8877" gradientTransform="matrix(-0.114 -0.994 0.994 -0.114 -3371.3501 -3469.9993)">
	<stop  offset="0" style="stop-color:#C1A064"/>
	<stop  offset="1" style="stop-color:#706341"/>
</linearGradient>
<path id="path303" inkscape:connector-curvature="0" class="st38" d="M89.5,67.6c1.5-3.7,4-5.9,7.7-6.6c3.7-0.7,6.9,0.7,9.9,4.4
	c2.9,2.9,4.8,7,5.5,12.1c1.5,4.4,0.7,8.8-2.2,13.2c-1.5,4.4-4,6.6-7.7,6.6c-3.7,0.7-7-0.4-9.9-3.3c-2.9-3.7-4.8-8.1-5.5-13.2
	C86.6,75.6,87.3,71.2,89.5,67.6z"/>
<linearGradient id="path310_1_" gradientUnits="userSpaceOnUse" x1="-3986.8784" y1="3050.9316" x2="-3963.6326" y2="3050.9316" gradientTransform="matrix(-0.118 -0.993 0.993 -0.118 -3384.9751 -3468.0122)">
	<stop  offset="0" style="stop-color:#C1A064"/>
	<stop  offset="1" style="stop-color:#706341"/>
</linearGradient>
<path id="path310" inkscape:connector-curvature="0" class="st39" d="M106,122.6c-1.5-2.2-1.8-4.8-1.1-7.7c0.7-3.7,2.2-5.9,4.4-6.6
	l8.8,1.1c4.4,2.2,5.5,8.4,3.3,18.7C113.3,129.5,108.2,127.7,106,122.6z"/>
<linearGradient id="path317_1_" gradientUnits="userSpaceOnUse" x1="-3988.22" y1="3086.3494" x2="-3941.7065" y2="3086.3494" gradientTransform="matrix(-0.118 -0.993 0.993 -0.118 -3384.9751 -3468.0122)">
	<stop  offset="0" style="stop-color:#C1A064"/>
	<stop  offset="1" style="stop-color:#706341"/>
</linearGradient>
<path id="path317" inkscape:connector-curvature="0" class="st40" d="M137.9,83h6.6c7.3,0,12.1,0.4,14.3,1.1
	c4.4,2.2,7.3,6.6,8.8,13.2c2.2,16.1,0,24.9-6.6,26.4c-13.9,5.1-24.2,1.1-30.8-12.1C122.9,99.1,125.4,89.6,137.9,83z"/>
<linearGradient id="path324_1_" gradientUnits="userSpaceOnUse" x1="-3973.9766" y1="3130.2944" x2="-3957.3945" y2="3130.2944" gradientTransform="matrix(-0.1 -0.995 0.995 -0.1 -3324.4973 -3468.6526)">
	<stop  offset="0" style="stop-color:#C1A064"/>
	<stop  offset="1" style="stop-color:#706341"/>
</linearGradient>
<path id="path324" inkscape:connector-curvature="0" class="st41" d="M184.1,155.5l4.4,4.4c2.9,2.2,4.8,3.7,5.5,4.4
	c-3.7,6.6-7.7,8.4-12.1,5.5C178.2,166.9,178.9,162.1,184.1,155.5z"/>
<linearGradient id="path331_1_" gradientUnits="userSpaceOnUse" x1="-4006.1165" y1="3149.3201" x2="-3992.2834" y2="3149.3201" gradientTransform="matrix(-0.119 -0.993 0.993 -0.119 -3388.2979 -3468.3467)">
	<stop  offset="0" style="stop-color:#C1A064"/>
	<stop  offset="1" style="stop-color:#706341"/>
</linearGradient>
<path id="path331" inkscape:connector-curvature="0" class="st42" d="M211.6,134.6c-1.5-6.6-1.1-11,1.1-13.2l2.2,3.3
	c4.4,0.7,5.5,4,3.3,9.9C218.2,134.6,211.6,134.6,211.6,134.6z"/>
<linearGradient id="path352_1_" gradientUnits="userSpaceOnUse" x1="879.7113" y1="1207.5087" x2="1238.8878" y2="1207.5087" gradientTransform="matrix(0.85 5.000000e-03 0 0.85 -714.3 -456.6915)">
	<stop  offset="0" style="stop-color:#F8ECC6"/>
	<stop  offset="8.000000e-03" style="stop-color:#F7EBC5"/>
	<stop  offset="0.196" style="stop-color:#DFD3AB"/>
	<stop  offset="0.365" style="stop-color:#D1C49B"/>
	<stop  offset="0.498" style="stop-color:#CCBF95"/>
	<stop  offset="0.624" style="stop-color:#D0C49B"/>
	<stop  offset="0.78" style="stop-color:#DDD1AA"/>
	<stop  offset="0.957" style="stop-color:#F2E7C4"/>
	<stop  offset="1" style="stop-color:#F8EDCB"/>
</linearGradient>
<path id="path352" inkscape:connector-curvature="0" class="st43" d="M46.7,431l38.4,9.3c32.4,6.9,66,10.6,100.9,11.2
	c55.4-0.6,101.6-6.9,138.3-18.7l14,239.3l-19.6,20.6C294.5,707,255.1,715.1,201,717l-5.5,1.1h-18.7l-6.6-0.9
	C116,714.7,76.7,706,52.5,691L33,670.5l14-239.3L46.7,431z"/>
<g>
	<g id="g5192" transform="matrix(.93926 -.019679 .019679 .93926 -310.2 45.369)">
		<g id="g5194">
			<g id="g5196">
				<g id="g5198">
					<g id="g5200">
						<g id="g5202">
							<g id="g5204">
								<g id="g5206">
									<g id="g5208">
										<g id="g5210">
											<g id="g5212" transform="translate(211.36 24.351)">
												<g id="g5214">
													<g id="g5216">
														<g id="g5218">
															<g id="g5220">
																<g id="g5222">
																	<g id="g5224">
																		<g id="g5226">
																			<g id="g5228">
																				<g id="g5230">
																					<g id="g5232" transform="matrix(-.81058 .58563 -.58563 -.81058 1309.5 375.13)">
																						<g id="g5234">
																							<g id="g5236">
																								<path id="path5238" class="st44" d="M962.1,358.4c-19.4-6.1-10.3,24.8-76.6,24.3c-7.1,0.1-8.2-0.4-10.4,0.5
																									s-1,2-3.7,3.6c-2.7,1.6-10.5,2.4-15.4,4.6c-4.9,2.2-11.6,8.3-16.8,10.3c-5.3,2.1-12.2,1.4-17.6,3.4
																									c-5.4,2-13.9,8.7-17.7,10.4c-3.8,1.7-4.6,0.2-6.8,2.1c-2.2,1.9-4.9,8.1-5.1,11.1c-0.2,3,2.3,3.4,2.1,7.3
																									c-0.2,3.8-6.9,10-6.6,16.8c0.3,6.7,7.8,19.6,12,24.1c4.2,4.5,7.4,5,12,7.2c4.6,2.2,13,5.5,19,6.9
																									c6,1.4,15.1,2.2,20.5,2.5c5.4,0.3,15.6-0.3,15.6-0.3s17.5-5.5,21.7-8.4c4.2-2.9,5.8-5.6,7-7.7
																									c1.2-2.1-0.1-4.1,1.5-5.3c1.6-1.2,3.9,1.8,7.8,0.1c3.9-1.8,9.6-10.8,13.5-15.8c4-5,10-13.1,13-17.5
																									c11.4-11.8,12-27.5,13.3-36.9C945.7,392.4,997.7,381.2,962.1,358.4L962.1,358.4z"/>
																							</g>
																							
																								<linearGradient id="path5240_1_" gradientUnits="userSpaceOnUse" x1="1883.2798" y1="42.8524" x2="1759.3003" y2="115.4212" gradientTransform="matrix(-0.7759 -0.5298 -0.5298 0.7759 2411.9968 1360.2279)">
																								<stop  offset="0" style="stop-color:#2F7022"/>
																								<stop  offset="1" style="stop-color:#2F7022;stop-opacity:0"/>
																							</linearGradient>
																							<path id="path5240" class="st45" d="M931.9,385.2c0.7-3.2-5.5,1.3-12.5,1.8c-6.9,0.5-27.3-0.5-33.8-0.4
																								c-6.5,0.1-7.5-0.4-9.4,0.4c-1.9,0.8-0.9,1.8-3.4,3.3c-2.5,1.5-9.5,2.2-13.9,4.2c-4.4,2-10.5,7.5-15.3,9.4
																								c-4.8,1.9-11.1,1.3-15.9,3.1c-4.9,1.8-12.6,7.9-16,9.4c-3.4,1.5-4.2,0.1-6.2,1.9s-4.4,7.4-4.6,10
																								c-0.2,2.7,2,3.1,1.9,6.6c-0.2,3.5-6.2,9.1-5.9,15.2c0.3,6.1,7.1,17.8,10.8,21.9c3.8,4.1,6.7,4.5,10.9,6.5
																								c4.2,2,11.8,5,17.2,6.2c5.4,1.3,13.6,2,18.6,2.3c4.9,0.2,14.1-0.3,14.1-0.3s15.9-5,19.7-7.6
																								c3.8-2.6,5.3-5.1,6.3-7c1-1.9-0.1-3.7,1.3-4.8c1.4-1.1,3.5,1.7,7.1,0.1c3.5-1.6,8.7-9.8,12.3-14.3
																								c3.6-4.5,9-11.9,11.8-15.9c2.8-4,5.4-8.4,7-10.5c1.5-2.1,1.5,0.7,3-3.7c1.5-4.4,5.9-22-0.8-25.9
																								c-6.7-3.9-17.7,12.7-22.8,12.3c-5.1-0.4-6.4,1.1-6.4-4.9C906.8,398.7,931.2,388.8,931.9,385.2L931.9,385.2z"
																								/>
																						</g>
																					</g>
																				</g>
																			</g>
																		</g>
																	</g>
																</g>
															</g>
														</g>
													</g>
												</g>
											</g>
										</g>
									</g>
								</g>
							</g>
						</g>
					</g>
				</g>
			</g>
		</g>
		
			<linearGradient id="path5242_1_" gradientUnits="userSpaceOnUse" x1="1130.5103" y1="-76.3622" x2="1195.2023" y2="58.7419" gradientTransform="matrix(0.9391 -2.495354e-02 -2.495354e-02 -0.9391 -532.2735 584.1447)">
			<stop  offset="0" style="stop-color:#2FB022"/>
			<stop  offset="1" style="stop-color:#2F7022;stop-opacity:0"/>
		</linearGradient>
		<path id="path5242" class="st46" d="M540.7,631.2c1.3,3,3.7-4.3,9.1-8.7c5.4-4.4,22.4-15.6,27.6-19.5c5.2-3.9,6.3-4,7.4-5.9
			c1.1-1.8-0.4-2,0.8-4.7c1.2-2.6,6.4-7.3,8.8-11.6c2.4-4.2,4.1-12.2,6.9-16.5c2.8-4.3,8.2-7.5,11.1-11.9c2.9-4.4,5.6-13.8,7.5-17
			c1.9-3.2,3.3-2.6,3.9-5.1s-0.7-8.5-2.1-10.8c-1.4-2.3-3.5-1.3-5.4-4.2c-1.9-2.9-0.3-11-4.1-15.8c-3.8-4.8-16.1-10.3-21.6-11.4
			c-5.5-1.1-8.1,0.2-12.7,1.1c-4.6,0.8-12.5,2.9-17.6,5c-5.1,2.1-12.2,6.4-16.4,9c-4.1,2.7-11.3,8.5-11.3,8.5s-9.9,13.4-11.5,17.7
			c-1.5,4.3-1.3,7.2-1.1,9.4c0.3,2.1,2.2,2.9,1.7,4.7c-0.5,1.7-3.8,0.7-5.8,4.1c-1.9,3.4-1.3,13-1.6,18.8
			c-0.3,5.8-0.3,14.9-0.3,19.8c0.1,4.9,0.5,10,0.5,12.6s-1.6,0.3-0.3,4.7c1.4,4.4,8.1,21.3,15.8,20.5c7.7-0.8,6.9-20.7,11.3-23.4
			c4.4-2.7,4.5-4.6,8.1,0.2C553.2,605.6,539.3,627.9,540.7,631.2L540.7,631.2z"/>
		<path id="path5244" class="st47" d="M546.9,615.1c0,0,20.1-11,19.3-12.6c-1-2.1-18.1,8.4-18.1,8.4l3.9-5.5c0,0,14.8-9.6,20-13.7
			c5.3-4.2,16.5-12.2,15.1-13.7c-1.2-1.2-15.6,12.1-21.3,15.6c-5.7,3.5-16.2,8.8-16.2,8.8l5.6-8.3c0,0,47.9-32.8,46.3-34.2
			c-2.1-1.9-47.6,31.3-47.6,31.3l4-13.7l14.6-20.5c0,0,10.5,1.2,16.7-0.6c6.2-1.8,24.1-10.2,22.5-13.5c-0.4-0.9-17.7,9.9-23.7,11.2
			c-6,1.3-14.7-0.4-14.7-0.4l7.6-12.7c0,0,33.3-33.3,32.3-35.2c-1.1-2.1-33.7,32.1-33.1,33c0,0.1-1.9-9.8-1.4-15.1
			c0.5-5.2,6.3-18.3,6.3-18.3s9.4-15,8.7-15.7c-1-0.9-8.5,9.1-11.5,14.7c-3,5.6-7.2,16.5-7.5,22.6c-0.3,6.1,2.5,10,2.3,13.8
			c-0.2,3.8-13,20.3-13,20.3l-3.8-8.8c-1.6-3.6-1.4,2.5,1.4,12.3L550,584.7l8.2-37.4l1.6-5.3c0,0-0.3,1.3,0.6-1
			c0.8-2.3,1.7-9.1,3-15c1.4-5.9,6.1-22.9,6.1-22.9s7.9-13.2,6.9-13.4c-1.5-0.3-7.2,10-7.2,10l-5,17.3l-6.6-10.4c0,0-1.1-10-2-10
			c-1.3,0.1,0.7,13.9,0.7,13.9l6.1,9l-2.1,13.3l-6.2-2.2c0,0-4.1-15.5-5.7-14.8c-2,0.8,4,16.2,4,16.2l6.4,3.2c0,0-4.7,17.6-4.8,17.6
			c-0.5-0.1-5.4-10-7.9-15.8c-2.5-5.9-5.5-23.2-7.1-23.1c-1.4,0,2.8,21,5.2,27.4c2.5,6.3,9,13.3,9.1,14.9c0,0.4-2.6,13.3-3.9,13.6
			c-1.6,0.4-4.8-4.6-6.2-3.3c-2.3,2,5.9,8.1,5.9,8.1s-1.4,9.4-1.8,10.3c-0.4,1.1-3.5-5.5-5.1-4.3c-1.8,1.4,3.2,6.8,3.2,6.8
			l-3.8,11.9l-1.8-25.1c0,0-0.9-16.2-2.3-20.3c-1.5-4.1-3.4-10.8-3.4-10.8l-2.2-12.9c0,0-2-4.2-3.3-3.5s1.5,5.4,1.5,5.4
			s2.5,13.4,0.7,13.3c-1.6-0.1-6.2-9.1-8.5-9.3c-2.3-0.2-3-0.6-1.2,1.3c2,2.2,9.4,10.4,9.4,10.4s3.5,4.6,5.4,12.3
			c1.9,7.7,3,39.2,3,39.2l0.7,2.2l-1.4,3.1c0,0-5-16.6-7.4-21.6c-2.3-5-4.7-12.1-7.2-12c-2.8,0.1,5.2,13.1,6.8,19
			c1.6,5.8,3.6,19.8,3.6,19.8l-17.9,44.1c0,0-3.8,14.3,0.3,17.7c4.2,3.4,11.2,1,14.9-3.1c3.7-4.1,2.6-11.6,4.7-19.7
			C538.1,640.6,546.9,615.1,546.9,615.1L546.9,615.1z"/>
	</g>
	<g id="g5704" transform="matrix(-.93926 -.019679 -.019679 .93926 792.12 11.369)">
		<g id="g5706">
			<g id="g5708">
				<g id="g5710">
					<g id="g5712">
						<g id="g5714">
							<g id="g5716">
								<g id="g5718">
									<g id="g5720">
										<g id="g5722">
											<g id="g5724" transform="translate(211.36 24.351)">
												<g id="g5726">
													<g id="g5728">
														<g id="g5730">
															<g id="g5732">
																<g id="g5734">
																	<g id="g5736">
																		<g id="g5738">
																			<g id="g5740">
																				<g id="g5742">
																					<g id="g5744" transform="matrix(-.81058 .58563 -.58563 -.81058 1309.5 375.13)">
																						<g id="g5746">
																							<g id="g5748">
																								<path id="path5750" class="st44" d="M881.7,279.3c-18.8-7.9-12.6,23.7-78.5,16.9c-7.1-0.5-8.2-1.2-10.4-0.5
																									c-2.2,0.7-1.2,1.9-4.1,3.3c-2.9,1.4-10.7,1.4-15.7,3.2c-5.1,1.7-12.3,7.1-17.7,8.7
																									c-5.4,1.5-12.3,0.2-17.8,1.8c-5.6,1.5-14.7,7.4-18.6,8.6c-3.9,1.3-4.6-0.3-7,1.4c-2.4,1.7-5.6,7.6-6.1,10.5
																									c-0.5,2.9,1.9,3.6,1.4,7.4c-0.5,3.8-7.8,9.3-8.1,16.1c-0.3,6.7,5.9,20.3,9.6,25.2c3.7,4.9,6.9,5.7,11.3,8.3
																									c4.4,2.6,12.4,6.7,18.2,8.7c5.8,2,14.8,3.6,20.2,4.4c5.4,0.8,15.5,1.2,15.5,1.2s18-3.9,22.4-6.3
																									c4.4-2.4,6.4-5,7.7-7c1.3-2,0.3-4.1,2-5.1c1.7-1,3.7,2.2,7.8,0.8c4.1-1.4,10.5-9.9,15-14.5
																									c4.4-4.6,11.2-12.1,14.6-16.2c12.5-10.7,14.6-26.2,16.8-35.5C862.2,311.6,915,305.4,881.7,279.3
																									L881.7,279.3z"/>
																							</g>
																							
																								<linearGradient id="path5752_1_" gradientUnits="userSpaceOnUse" x1="1465.9272" y1="1000.6473" x2="1341.9478" y2="1073.2162" gradientTransform="matrix(0.7759 -0.5298 0.5298 0.7759 -823.0585 313.5565)">
																								<stop  offset="0" style="stop-color:#2F7022"/>
																								<stop  offset="1" style="stop-color:#2F7022;stop-opacity:0"/>
																							</linearGradient>
																							<path id="path5752" class="st48" d="M849.2,303.2c1-3.1-5.6,0.8-12.6,0.6c-7-0.2-27.1-3.1-33.6-3.6
																								c-6.5-0.5-7.4-1.1-9.4-0.4c-2,0.7-1.1,1.7-3.7,3c-2.6,1.2-9.7,1.3-14.3,2.9c-4.6,1.6-11.1,6.5-16.1,7.9
																								c-4.9,1.4-11.1,0.2-16.2,1.6c-5,1.4-13.3,6.7-16.9,7.8c-3.6,1.2-4.2-0.3-6.3,1.3c-2.1,1.5-5.1,6.9-5.6,9.5
																								c-0.5,2.6,1.7,3.3,1.2,6.7c-0.5,3.4-7.1,8.5-7.4,14.6c-0.3,6.1,5.4,18.4,8.7,22.8c3.4,4.4,6.2,5.2,10.2,7.6
																								c4,2.4,11.3,6.1,16.5,7.8c5.2,1.8,13.4,3.3,18.3,4c4.9,0.7,14.1,1.1,14.1,1.1s16.3-3.5,20.3-5.7
																								c4-2.2,5.8-4.6,7-6.3c1.2-1.8,0.3-3.7,1.8-4.6c1.5-0.9,3.4,2,7,0.7c3.7-1.3,9.5-8.9,13.6-13.1
																								c4-4.2,10.1-11,13.3-14.7c3.2-3.7,6.2-7.9,7.9-9.8c1.7-1.9,1.4,0.8,3.3-3.4c1.9-4.2,8-21.3,1.6-25.8
																								c-6.3-4.5-18.9,11-23.9,10.1c-5-0.9-6.5,0.5-5.9-5.5C822.9,314.2,848.1,306.6,849.2,303.2L849.2,303.2z"/>
																						</g>
																					</g>
																				</g>
																			</g>
																		</g>
																	</g>
																</g>
															</g>
														</g>
													</g>
												</g>
											</g>
										</g>
									</g>
								</g>
							</g>
						</g>
					</g>
				</g>
			</g>
		</g>
		
			<linearGradient id="path5754_1_" gradientUnits="userSpaceOnUse" x1="1810.1709" y1="-3.1699" x2="1874.863" y2="131.9342" gradientTransform="matrix(-0.9391 -2.495354e-02 2.495354e-02 -0.9391 2347.0901 687.1033)">
			<stop  offset="0" style="stop-color:#2FB022"/>
			<stop  offset="1" style="stop-color:#2F7022;stop-opacity:0"/>
		</linearGradient>
		<path id="path5754" class="st49" d="M656,649.3c1,3.1,4.1-3.9,9.9-7.8c5.8-3.9,23.8-13.4,29.3-16.8c5.5-3.4,6.6-3.4,7.9-5.1
			c1.2-1.7-0.2-2,1.2-4.6s7.1-6.7,9.9-10.7c2.8-4,5.2-11.8,8.4-15.8c3.2-4,8.9-6.7,12.2-10.8c3.3-4.1,6.9-13.2,9.1-16.2
			c2.2-3,3.6-2.3,4.4-4.7c0.8-2.5,0.1-8.6-1.1-11c-1.2-2.4-3.3-1.6-5-4.7c-1.6-3.1,0.8-11-2.6-16.1c-3.3-5.1-15.1-11.7-20.4-13.4
			c-5.3-1.6-8.1-0.5-12.7-0.1c-4.6,0.4-12.7,1.7-18,3.3c-5.3,1.6-12.8,5.2-17.1,7.4c-4.4,2.3-12,7.4-12,7.4s-11.2,12.4-13.1,16.5
			c-1.9,4.1-2,7.1-1.9,9.2c0.1,2.2,2,3.1,1.3,4.8c-0.7,1.7-3.9,0.3-6.1,3.5c-2.2,3.2-2.5,12.8-3.3,18.6c-0.8,5.7-1.8,14.8-2.2,19.7
			c-0.4,4.8-0.4,10-0.7,12.6c-0.3,2.6-1.6,0.2-0.7,4.7c0.9,4.5,6,22,13.8,21.9c7.8-0.1,8.8-20,13.4-22.2c4.6-2.2,5-4.2,8,1
			C670.9,625,654.9,645.9,656,649.3L656,649.3z"/>
		<path id="path5756" class="st47" d="M663.7,633.9c0,0,21-9.1,20.4-10.7c-0.8-2.2-18.8,6.6-18.8,6.6l4.4-5.1
			c0,0,15.6-8.1,21.2-11.8c5.6-3.6,17.6-10.6,16.3-12.2c-1.1-1.3-16.6,10.5-22.7,13.5c-6.1,3-17,7.2-17,7.2l6.3-7.7
			c0,0,50.8-28.1,49.4-29.6c-1.9-2.1-50.3,26.6-50.3,26.6l5.3-13.3l16.5-19c0,0,10.4,2.2,16.7,1c6.3-1.2,24.9-7.9,23.6-11.3
			c-0.3-0.9-18.6,8.2-24.7,8.9c-6.1,0.7-14.6-1.8-14.6-1.8l8.8-11.9c0,0,36.3-30,35.5-31.9c-0.9-2.2-36.6,28.8-36.1,29.7
			c0,0.1-1-10,0.1-15.1c1-5.2,8-17.6,8-17.6s10.8-14,10.1-14.8c-0.9-1-9.3,8.3-12.8,13.6c-3.5,5.3-8.7,15.7-9.6,21.8
			c-0.9,6.1,1.5,10.2,1,14c-0.6,3.7-14.9,19-14.9,19l-3-9.1c-1.2-3.8-1.7,2.3,0.2,12.3l-13.4,19.1l11.7-36.5l2-5.1
			c0,0-0.4,1.3,0.6-0.9c1-2.2,2.5-8.9,4.4-14.7c1.9-5.7,8.3-22.2,8.3-22.2s9.1-12.4,8.1-12.7c-1.4-0.4-8.1,9.3-8.1,9.3l-6.6,16.7
			l-5.6-10.9c0,0-0.1-10.1-1-10.1c-1.3,0-0.6,13.9-0.6,13.9l5.2,9.5l-3.4,13l-6-2.8c0,0-2.6-15.8-4.3-15.3c-2,0.6,2.5,16.5,2.5,16.5
			l6.1,3.8c0,0-6.4,17.1-6.4,17.1c-0.5-0.2-4.5-10.4-6.4-16.5c-1.9-6.1-3.3-23.6-4.9-23.7c-1.4-0.1,0.8,21.2,2.6,27.7
			c1.8,6.5,7.7,14.1,7.7,15.7c0,0.4-3.9,13-5.1,13.2c-1.7,0.2-4.3-5-5.9-3.9c-2.4,1.7,5.1,8.6,5.1,8.6s-2.3,9.2-2.7,10
			c-0.5,1-3-5.8-4.6-4.7c-1.9,1.2,2.6,7.1,2.6,7.1l-4.9,11.5l0.6-25.2c0,0,0.7-16.2-0.4-20.4c-1.1-4.2-2.4-11.1-2.4-11.1l-1-13.1
			c0,0-1.5-4.4-3-3.8s1,5.5,1,5.5s1.2,13.6-0.6,13.3c-1.6-0.3-5.3-9.6-7.6-10c-2.3-0.4-2.9-0.9-1.3,1.2c1.8,2.4,8.4,11.2,8.4,11.2
			s3,4.9,4.2,12.8c1.2,7.8-0.7,39.3-0.7,39.3l0.4,2.3l-1.7,2.9c0,0-3.5-17-5.3-22.2c-1.8-5.2-3.5-12.5-6-12.6
			c-2.8-0.1,4,13.6,5,19.5c1,6,1.7,20.1,1.7,20.1l-22,42.2c0,0-5.2,13.9-1.4,17.7c3.8,3.8,11.1,2,15.1-1.6c4-3.7,3.7-11.3,6.6-19.2
			C652.6,658.5,663.7,633.9,663.7,633.9L663.7,633.9z"/>
	</g>
</g>
<g id="g6603" transform="matrix(-1.1339 .43807 .40977 1.2123 775.5 -203.13)">
	<path id="path6605" class="st50" d="M675.8,373.3c-0.3,1.3-0.4,4.4-0.4,5.2c1.2,1.4,4.4,0,5.5,1c1.1,1,1.4,3.5,0.7,4.5
		c-0.2-0.3-1.4,1-3,1.3c-1.8,0.4-4.9-1.3-7-0.9c-2.1,0.4-4.9,1.9-6.1,3.4c-1.2,1.5-1.5,2.3-1.8,5.7c-0.3,3.4,1.4,12.3,2.1,16.8
		c0.7,4.5,1,10.7,2.7,13.1c1.7,2.4,3.4,2.7,5.4,3.4c2,0.8,5.8,0.8,7.5,1.3c1.7,0.5,2.7,2,4,1.7c1.3-0.3,2.4-1.9,2.9-2.7
		c0.8-0.6,2.2,1.4,3.4,1.6c1.2,0.3,2-0.1,4.5-1.3s6.5-6.7,8.3-9.8c1.7-3.1,2.9-6.3,3.5-10.2c0.6-3.9,0.6-12-0.5-15.4
		c-1.1-3.4-3-6.1-4.8-7.1c-1.8-1-4-0.5-5.4-0.2c-1.3,0.3-2.4-0.5-3.3-0.7c-0.7-0.2-3.3-1-5.5-1.2c-1.2-1.3-1-3.5-2-5.1
		c-1-1.6-2.1-3.8-3.8-4.6C680.9,372.2,676.1,371.9,675.8,373.3L675.8,373.3z"/>
	<path id="path6607" class="st51" d="M679.6,386.2c-4.2,2.9-6.8,9.9-7.4,20.1c-0.6,11.3,6.1,19.3,11.4,21c-8.4-12.2-9-17.2-8.3-23.6
		C676.1,397.3,677.4,391,679.6,386.2L679.6,386.2z"/>
	<path id="path6609" class="st51" d="M689.5,384.8c4.4,2.5,7.6,9.3,8.9,19.4c1.5,11.2-4.5,19.8-9.7,22c4.5-13.6,5.2-18.3,4.5-24.5
		C692.6,395.4,692.1,389.4,689.5,384.8L689.5,384.8z"/>
	<path id="path6611" class="st52" d="M666.6,401.4c-3.2-7,0.4-18.1,10.4-13.9C672.1,388.4,669.6,392.4,666.6,401.4z"/>
	<path id="path6613" class="st53" d="M680.5,388.7c-1-2.1,6.4-3.9,8.5-2c2,1.9-0.1,9.5-1.4,9.6C686.6,396.3,681.4,390.6,680.5,388.7
		L680.5,388.7z"/>
	<path id="path6615" class="st54" d="M676.7,372.9c-0.9,0.9-1.6,4.1-0.6,5.2c1,1,3.7-0.8,5,0.2c1.3,1,0.6,6.4,1.9,5.5
		c1.4-1,2.8-0.6,4.3-0.4c1.5,0.2-2-7.5-3.4-8.9c-1.4-1.4-2.5-1.2-3.6-1.5C679.1,372.8,677.6,372.1,676.7,372.9L676.7,372.9z"/>
	<path id="path6617" class="st55" d="M676.1,376.8c0,0,2.9,1,5-0.7c1.9-1.5,3,6.6,3,6.6"/>
</g>
<g id="g4690_1_" transform="matrix(.81528 -.031647 .018689 .85159 177.74 372.69)">
	<path id="path4692_1_" class="st56" d="M86.6,256c0.9,2.2,0.1,7.8,1,9.1c0.9,1.4,11.9-1.3,18.4,2.9c6.5,4.2,14.5,15.8,10.1,26.4
		c-4.4,10.6-19.5,19.3-28.1,19.7c-15.6,0.6-25.1-3.2-31.4-18.4c-1.7-5.9-2.1-7.6-0.8-14.1c3.4-12.9,13.6-15.1,25.3-17.1
		c4.8-1-2-7.3,0.2-8.3C83.2,255.8,86.6,255.2,86.6,256L86.6,256z"/>
	<path id="path4694_1_" class="st57" d="M85.6,256.8c0.8,2.1,0.1,7.6,2.4,9c2,1.2,11.3-1.2,17.6,2.7c6.2,4,13.8,15,9.6,25.1
		c-4.2,10.1-18.6,18.3-26.8,18.7c-14.8,0.6-23.9-3.1-29.9-17.5c-1.6-5.6-2-7.2-0.8-13.4c3.2-12.3,13-14.4,24.1-16.3
		c4.6-0.9-1.9-7,0.2-7.9C83.7,257,85.5,256.1,85.6,256.8L85.6,256.8z"/>
	<path id="path4696_1_" class="st58" d="M76.7,267.7c-10.9,1.9-18.1,13-16.2,24.8c1.9,11.8,12.3,19.9,23.2,18
		c0.3,1.2-13.5-9.1-16.2-19.1c-1.7-10.7,1.5-20.7,10.7-23.9C77.7,267.6,77.2,267.6,76.7,267.7L76.7,267.7z"/>
	<path id="path4698_1_" class="st59" d="M95.2,269.2c-1.4,0.1-2.8,0.3-4,0.7c5,3.6,8.6,10.9,9,19.3c0.2,4.8-0.6,9.3-2.2,13.1
		c9-1,15.8-8.5,15.4-17.3C112.9,275.9,104.8,268.8,95.2,269.2z"/>
	<path id="path4700_1_" class="st60" d="M82.4,257.3c-0.1,0.8,1.1,4.4,1.3,5.8c0.2,1.4,0.6,1.9-0.9,2.2c-1.5,0.3-2.6,0.6-4,0.7
		c-1.3,0.1-2.6-0.1-3.3,1c-0.7,1-1.4,1.9-1.9,2.9c-0.5,1,0.9,0.3,2,0.2c1.1-0.1,3.8-2,4.6-1c0.7,1-1,6.9-0.1,7.2
		c0.8,0.2,3.5-5.8,5.2-5.9c1.7-0.1,4.2,5,5.1,5.1c0.9,0-0.2-4.6,0.4-4.8c0.7-0.2,3,3.7,3.5,3.7c0.5-0.1-0.7-3.8-0.5-4.1
		c0.1-0.4,2.2,0.6,1.2-0.3c-1-0.9-0.9-2.4-2.7-2.7c-1.8-0.3-4.4-0.3-5.6-1.9c-1.2-1.6-0.8-6.5-1.3-7.9C84.7,257,82.7,257,82.4,257.3
		L82.4,257.3z"/>
	<path id="path4702_1_" class="st61" d="M82.5,266.6c1.4,0.8-1.7-2.8-5.6,0.3c-3.9,3-1.9,4.1-1.7,2.7
		C75.4,268.4,81.1,265.9,82.5,266.6L82.5,266.6z"/>
	<path id="path4704_1_" class="st61" d="M85.7,267.2c-1.3,0.9,1.4-1.9,5.6,0.6C97.2,273.2,87.5,266.7,85.7,267.2z"/>
	<path id="path4706_1_" class="st62" d="M83.5,266.4l-2.1,2.7l-0.5,5.2L83.5,266.4L83.5,266.4z"/>
	<path id="path4708_1_" class="st62" d="M84.1,266.8l3,1.6l2.6,4.6L84.1,266.8L84.1,266.8z"/>
</g>
<g id="g4710_1_" transform="matrix(.81528 -.031647 .018689 .85159 230.27 381.78)">
	<path id="path4712_1_" class="st56" d="M40.5,279.2c0.9,2.2,0.1,7.8,1,9.1c0.9,1.4,11.9-1.3,18.4,2.9c6.5,4.2,14.5,15.8,10.1,26.4
		c-4.4,10.6-19.5,19.3-28.1,19.7c-15.6,0.6-25.1-3.2-31.4-18.4c-1.7-5.9-2.1-7.6-0.8-14.1c3.4-12.9,13.6-15.1,25.3-17.1
		c4.8-1-2-7.3,0.2-8.3C37,279,40.4,278.4,40.5,279.2L40.5,279.2z"/>
	<path id="path4714_1_" class="st57" d="M39.4,280c0.8,2.1,0.1,7.6,2.4,9c2,1.2,11.3-1.2,17.6,2.7c6.2,4,13.8,15,9.6,25.1
		c-4.2,10.1-18.6,18.3-26.8,18.7c-14.8,0.6-23.9-3.1-29.9-17.5c-1.6-5.6-2-7.2-0.8-13.4c3.2-12.3,13-14.4,24.1-16.3
		c4.6-0.9-1.9-7,0.2-7.9C37.6,280.1,39.4,279.2,39.4,280L39.4,280z"/>
	<path id="path4716_1_" class="st58" d="M30.5,290.9c-10.9,1.9-18.1,13-16.2,24.8c1.9,11.8,12.3,19.9,23.2,18
		c0.3,1.2-13.5-9.1-16.2-19.1c-1.7-10.7,1.5-20.7,10.7-23.9C31.5,290.7,31,290.8,30.5,290.9L30.5,290.9z"/>
	<path id="path4719_1_" class="st59" d="M49,292.4c-1.4,0.1-2.8,0.3-4,0.7c5,3.6,8.6,10.9,9,19.3c0.2,4.8-0.6,9.3-2.2,13.1
		c9-1,15.8-8.5,15.4-17.3C66.8,299,58.6,292,49,292.4z"/>
	<path id="path4721_1_" class="st60" d="M36.2,280.4c-0.1,0.8,1.1,4.4,1.3,5.8c0.2,1.4,0.6,1.9-0.9,2.2c-1.5,0.3-2.6,0.6-4,0.7
		c-1.3,0.1-2.6-0.1-3.3,1c-0.7,1-1.4,1.9-1.9,2.9c-0.5,1,0.9,0.3,2,0.2c1.1-0.1,3.8-2,4.6-1c0.7,1-1,6.9-0.1,7.2
		c0.8,0.2,3.5-5.8,5.2-5.9s4.2,5,5.1,5.1c0.9,0-0.2-4.6,0.4-4.8c0.7-0.2,3,3.7,3.5,3.7c0.5-0.1-0.7-3.8-0.5-4.1
		c0.1-0.4,2.2,0.6,1.2-0.3c-1-0.9-0.9-2.4-2.7-2.7c-1.8-0.3-4.4-0.3-5.6-1.9s-0.8-6.5-1.3-7.9C38.6,280.1,36.6,280.2,36.2,280.4
		L36.2,280.4z"/>
	<path id="path4723_1_" class="st61" d="M36.3,289.8c1.4,0.8-1.7-2.8-5.6,0.3c-3.9,3-1.9,4.1-1.7,2.7
		C29.3,291.5,35,289.1,36.3,289.8L36.3,289.8z"/>
	<path id="path4725_1_" class="st61" d="M39.6,290.3c-1.3,0.9,1.4-1.9,5.6,0.6C51.1,296.4,41.4,289.9,39.6,290.3z"/>
	<path id="path4727_1_" class="st62" d="M37.3,289.5l-2.1,2.7l-0.5,5.2L37.3,289.5L37.3,289.5z"/>
	<path id="path4729_1_" class="st62" d="M38,290l3,1.6l2.6,4.6L38,290L38,290z"/>
</g>
<g>
	<g id="g23037" transform="matrix(1.0494 -1.1052 1.1052 1.0494 -403.17 317.76)">
		<g id="g22987">
			<g id="g22938" transform="translate(-28.217 203.16)">
				<g id="g22890">
					<g id="g7960" transform="matrix(.38929 .12586 .13758 -.42554 264.98 -94.759)">
						<g id="g4451" transform="matrix(2.1954 0 0 2.1954 -976.17 200.6)">
							<path id="path3995" class="st63" d="M409.6-359.4c0.6-0.9-1.1-7.7-1.2-8.5c-0.2-0.8,0-0.2,0-0.2s0.2,0.2-0.1-0.2
								s-1-2.5-1.8-2.6c-0.8-0.1-1.5,0.4-1.6,1.1s1.2,1.3,1.7,2.5c0.4,1.1,0,4.4,0.8,5C408.1-361.6,408.9-358.5,409.6-359.4
								L409.6-359.4z"/>
							<path id="path3997-5" class="st63" d="M403.1-358.4c1-1-0.3-9.6-1.4-10.6c-1.1-1-1-1-2,0.1c-1,1.1,0.9,8.2,1.6,7.2
								C402-362.6,402.1-357.4,403.1-358.4L403.1-358.4z"/>
							<path id="path3999-5" class="st63" d="M402.3-345.3l0.7-8c0,0-2.9,1.9-3.5,2.8c-0.7,0.9,0,4.9,0.9,5.5
								C401.3-344.3,402.3-345.3,402.3-345.3L402.3-345.3z"/>
							<path id="path6687" class="st64" d="M402.9-347.2c0.3-1.5-2.8-3.8-2.9-5.3c-0.1-1.5,0.3-2.7,1.4-3.5s4,0.6,5.3-0.2
								c1.3-0.8,2-2.8,2.5-4c0.4-1.2-0.2-2.6,0.6-3.9s4.4-2.6,4.8-4c0.4-1.4-1-0.4-1.4-3.5c-0.3-3.1,2.4-10.2,2.6-16.8
								c0.2-6.6-1-20.2-2.3-26.9c-1.3-6.6-2.8-12.8-5.5-17.3c-2.7-4.4-7.4-9.8-11.7-11.7c-4.3-1.9-10.4-2.3-14.4-0.6
								c-4,1.7-8.2,6.3-10,10.7c-1.8,4.4-1,12.3-0.3,16.8c0.7,4.5,2.6,8.8,4.2,13c1.7,4.2,5.3,9.3,7,14.9c1.7,5.6,2.2,18.7,3.6,22.4
								c1.3,3.7,1.5,2.2,1.8,3.1c0.3,0.9-0.4,1.4,0.4,2.8c0.8,1.3,5.1,3.1,5.9,4.7c0.8,1.6,0.7,3.2,0,4.2c-0.7,1-3.1,0-3.5,1.4
								c-0.4,1.4,1.9,3.9,3.3,4.9s3.8,2,5.3,1.7C400.9-344.7,402.6-345.7,402.9-347.2L402.9-347.2z"/>
							
								<linearGradient id="path6689_1_" gradientUnits="userSpaceOnUse" x1="-147.0864" y1="311.575" x2="-134.5932" y2="266.5781" gradientTransform="matrix(-1.2502 0.2351 -0.2931 -1.3826 284.8732 24.3896)">
								<stop  offset="0" style="stop-color:#3A2D49"/>
								<stop  offset="1" style="stop-color:#3A2D49;stop-opacity:0"/>
							</linearGradient>
							<path id="path6689" class="st65" d="M403.1-352.4c0.3-1.4-2.7-3.6-2.8-5c-0.1-1.4,0.2-2.5,1.2-3.2c1-0.7,3.7,0.6,4.9-0.1
								c1.2-0.7,1.8-2.6,2.2-3.7c0.4-1.1-0.2-2.4,0.5-3.7s4.1-2.3,4.4-3.7c0.3-1.4-1-0.4-1.3-3.3c-0.4-2.9,2.1-9.5,2.2-15.7
								c0.1-6.2-1.3-19-2.6-25.3c-1.3-6.3-2.8-12.1-5.4-16.3c-2.6-4.2-7.1-9.4-11.1-11.2c-4-1.8-9.7-2.3-13.5-0.8
								c-3.7,1.5-7.6,5.8-9.2,9.9c-1.6,4.1-0.7,11.5,0,15.8c0.7,4.3,2.6,8.3,4.2,12.3c1.6,4,5.1,8.8,6.8,14.1
								c1.7,5.3,2.4,17.6,3.7,21.1c1.3,3.5,1.4,2.1,1.7,2.9c0.3,0.9-0.3,1.3,0.4,2.6c0.7,1.3,4.8,3,5.5,4.5c0.7,1.5,0.7,3,0.1,3.9
								s-2.9-0.1-3.2,1.2c-0.4,1.3,1.9,3.7,3.2,4.7c1.3,1,3.6,1.9,5,1.7C401.3-350.1,402.8-351,403.1-352.4L403.1-352.4z"/>
							<path id="path6691" class="st66" d="M410.1-417.4c-4.3-21.7-15.6-23.6-25-26c12.5,14.1,19.7,16.4,25.3,65
								C413.1-401.4,412.5-404.3,410.1-417.4L410.1-417.4z"/>
							<path id="path6693" class="st67" d="M413.4-367.5c0.4-1.4,0.7-2.9-1.4-3.5c-2.1-0.6-5.8,6.9-8.4,6.6
								c-2.6-0.3-2.6-3.7-3.9-5.2c-1.4-1.4-3.4-3.9-5.1-4.2s-3.6,0.4-4.1,1.5c-0.5,1.2,2.7,2.8,1.5,3.7c-1.2,0.9-3.5-3.5-4.7-3.3
								c-1.2,0.2-1.2,0.6-1.4,2c-0.2,1.4,1.7,5.4,2.3,6.5c0.6,1.1,0.6,0.5,0.8,0.9c0.1,0.4,0.1,0.4,0.7,1.7c0.6,1.3,5.1,3,5.9,4.7
								c0.7,1.7,0.2,3.4-0.6,4.4s-3.3-0.6-3.9,0.9c-0.6,1.6,2.8,4.8,4.3,5.6c1.5,0.8,3.3,0.5,4.4,0.2c1.1-0.3,2.1-0.2,2.5-1.7
								c0.3-1.4-3.3-4.3-3.4-6c-0.1-1.7,0.3-3.2,1.6-4.1c1.4-0.8,4.5,1.7,6.2,0.5c1.7-1.2,0.8-5.6,2-7.4
								C409.7-365.3,413-366.1,413.4-367.5L413.4-367.5z"/>
							<path id="path6695" class="st63" d="M405.8-357.2c1.1-0.7,0.3-4.2,0.9-5.5c0.6-1.4,3-2.5,2.9-3.5c-0.1-1,1.4-1.4,0.4-1.3
								c-1,0.1-4.5,3.2-5,3.8c-0.5,0.6-0.1,0.1-0.2,0.2c0,0.1,0.2-0.6,0,0.3c-0.2,0.9-0.5,4.5,0.1,5.7
								C405.6-356.4,404.7-356.5,405.8-357.2L405.8-357.2z"/>
							<path id="path6697" class="st63" d="M401.1-362.9c0.2-1.1-4.5-6.3-5-6.9c-0.5-0.7-0.1-0.1-0.1-0.2c0,0,0.3,0.1-0.2-0.1
								c-0.4-0.2-2.1-1.7-2.8-1.5c-0.7,0.2-1.1,1-0.9,1.7c0.2,0.7,1.7,0.6,2.6,1.4s2,3.9,3,4.1S400.9-361.9,401.1-362.9L401.1-362.9
								z"/>
							<path id="path6699" class="st63" d="M395.8-359.1c0.4-1.4-4.6-8.4-6.1-8.7c-1.5-0.3-1.3-0.4-1.7,1s4.5,6.8,4.7,5.6
								C392.9-362.3,395.3-357.7,395.8-359.1L395.8-359.1z"/>
							<path id="path6701" class="st63" d="M401.1-347.2l-3.1-7.4c0,0-1.7,3-1.9,4.1c-0.2,1.1,2.2,4.3,3.4,4.5
								C400.6-345.9,401.1-347.2,401.1-347.2L401.1-347.2z"/>
						</g>
					</g>
				</g>
			</g>
		</g>
	</g>
	<g id="g5114" transform="matrix(1.0494 1.1052 1.1052 -1.0494 -316.5 769.99)">
		<g id="g5116">
			<g id="g5118" transform="translate(-28.217 203.16)">
				<g id="g5120">
					<g id="g5122" transform="matrix(.38929 .12586 .13758 -.42554 264.98 -94.759)">
						<g id="g5128" transform="matrix(2.1954 0 0 2.1954 -976.17 200.6)">
							<path id="path5130" class="st63" d="M425.9-359.6c-0.8,0.8-0.5,7.7-0.5,8.6c0,0.8,0,0.2,0,0.2c0,0.1-0.1-0.3,0.1,0.2
								c0.2,0.5,0.5,2.6,1.2,2.9s1.5-0.1,1.8-0.8s-0.9-1.5-1.1-2.7c-0.2-1.2,0.9-4.3,0.2-5.1C426.9-357.1,426.8-360.3,425.9-359.6
								L425.9-359.6z"/>
							<path id="path5132" class="st63" d="M432.5-359.4c-1.2,0.8-1.7,9.5-0.8,10.6c0.9,1.2,0.7,1.1,1.9,0.2
								c1.2-0.9,0.8-8.2-0.1-7.3C432.7-355.1,433.7-360.3,432.5-359.4L432.5-359.4z"/>
							<path id="path5134" class="st63" d="M435.9-372.1l-2.3,7.8c0,0,3.2-1.4,4-2.2s1-4.8,0.2-5.6
								C437.1-372.9,435.9-372.1,435.9-372.1L435.9-372.1z"/>
							<path id="path5136" class="st64" d="M435-370.4c-0.6,1.5,2,4.2,1.7,5.7c-0.2,1.4-0.8,2.6-2.1,3.2c-1.2,0.6-3.8-1.2-5.2-0.7
								c-1.4,0.5-2.6,2.4-3.2,3.5c-0.7,1.1-0.4,2.6-1.4,3.8s-4.9,1.8-5.5,3.1c-0.7,1.4,0.9,0.6,0.6,3.6c-0.3,3.1-4.4,9.6-6,16
								c-1.6,6.4-3.2,20-3.2,26.8c0,6.7,0.2,13.1,1.9,17.9c1.8,4.8,5.3,10.9,9.1,13.5c3.8,2.6,9.7,4,14.1,3c4.3-0.9,9.4-4.8,12-8.8
								c2.6-4,3.5-11.9,3.7-16.4c0.3-4.5-0.7-9.1-1.5-13.5c-0.8-4.4-3.3-10-3.8-15.8c-0.6-5.8,1.6-18.7,1-22.6
								c-0.5-3.9-1-2.4-1.1-3.3c-0.1-0.9,0.7-1.3,0.2-2.8c-0.5-1.5-4.4-3.9-4.8-5.6c-0.4-1.7,0-3.3,0.8-4.1c0.9-0.9,3,0.5,3.7-0.8
								c0.7-1.3-1.1-4.1-2.3-5.4c-1.1-1.3-3.3-2.6-4.9-2.6C437.4-372.5,435.6-371.8,435-370.4L435-370.4z"/>
							
								<linearGradient id="path5138_1_" gradientUnits="userSpaceOnUse" x1="-57.0743" y1="213.0011" x2="-44.5811" y2="257.998" gradientTransform="matrix(0.6877 -1.0919 -1.1753 -0.7478 730.4756 -176.9568)">
								<stop  offset="0" style="stop-color:#3A2D49"/>
								<stop  offset="1" style="stop-color:#3A2D49;stop-opacity:0"/>
							</linearGradient>
							<path id="path5138" class="st68" d="M433.8-365.3c-0.5,1.4,1.9,4,1.7,5.4s-0.7,2.4-1.9,3c-1.1,0.5-3.5-1.2-4.8-0.8
								c-1.3,0.5-2.3,2.2-3,3.3c-0.6,1.1-0.3,2.4-1.2,3.5c-0.9,1.1-4.5,1.6-5.1,2.9c-0.6,1.3,0.9,0.5,0.6,3.5c-0.2,2.9-4,9-5.3,15.1
								c-1.4,6.1-2.6,18.9-2.6,25.3c0.1,6.4,0.3,12.4,2,17c1.7,4.6,5.1,10.4,8.7,12.9c3.6,2.5,9.1,3.9,13.1,3.1
								c4-0.8,8.6-4.4,11-8.1c2.4-3.7,3-11.2,3.2-15.5c0.2-4.3-0.8-8.6-1.6-12.8s-3.2-9.5-3.8-15c-0.6-5.5,1.2-17.7,0.6-21.3
								c-0.6-3.7-1-2.3-1.1-3.2c-0.1-0.9,0.6-1.2,0.1-2.6c-0.5-1.4-4.1-3.8-4.5-5.4c-0.4-1.6-0.1-3.1,0.7-3.9
								c0.8-0.8,2.8,0.5,3.4-0.7c0.6-1.2-1.1-3.9-2.2-5.1c-1.1-1.2-3.1-2.5-4.5-2.5C436-367.3,434.3-366.6,433.8-365.3L433.8-365.3z
								"/>
							<path id="path5140" class="st66" d="M413.6-302.7c-0.2,22.1,10.5,25.8,19.3,29.8c-9.4-15.9-16-19.5-11.6-68.2
								C413.9-318.9,413.9-315.9,413.6-302.7L413.6-302.7z"/>
							<path id="path5142" class="st67" d="M420.6-352.2c-0.7,1.4-1.3,2.7,0.6,3.6c1.9,0.9,7.1-5.8,9.6-5.1c2.4,0.7,1.8,4.1,2.8,5.7
								c1,1.6,2.6,4.5,4.1,5c1.5,0.5,3.6,0.2,4.4-0.8c0.7-1.1-2.1-3.2-0.8-3.9s2.7,4.1,4,4.1c1.2,0,1.3-0.4,1.8-1.7
								c0.5-1.3-0.6-5.6-1-6.8c-0.4-1.1-0.5-0.6-0.6-1c0-0.4,0-0.4-0.3-1.8c-0.3-1.4-4.4-3.8-4.8-5.6c-0.4-1.8,0.5-3.4,1.5-4.2
								c1-0.8,3.1,1.2,4-0.3c0.9-1.4-1.7-5.2-3.1-6.3c-1.3-1-3.2-1-4.3-0.9c-1.1,0.1-2.1-0.1-2.8,1.2c-0.6,1.4,2.4,4.8,2.2,6.4
								c-0.2,1.7-0.9,3.1-2.4,3.7c-1.5,0.6-4.1-2.5-6-1.6c-1.9,0.9-2,5.4-3.4,6.9C424.6-353.8,421.2-353.5,420.6-352.2L420.6-352.2z
								"/>
							<path id="path5144" class="st63" d="M430.1-361.1c-1.2,0.5-1.1,4-2,5.3c-0.9,1.3-3.5,2-3.6,3c-0.1,1-1.7,1.1-0.6,1.2
								c1,0.1,5-2.4,5.7-2.9c0.6-0.5,0.2-0.1,0.2-0.2c0-0.1-0.3,0.6,0.1-0.3c0.4-0.8,1.4-4.3,1.1-5.6
								C430.5-361.8,431.3-361.6,430.1-361.1L430.1-361.1z"/>
							<path id="path5146" class="st63" d="M433.6-354.6c-0.4,1,3.1,6.9,3.5,7.7c0.4,0.7,0.1,0.1,0.1,0.2c0,0-0.2-0.2,0.2,0.1
								c0.4,0.3,1.7,2,2.4,1.9c0.8-0.1,1.3-0.8,1.3-1.5s-1.6-0.9-2.3-1.8c-0.7-0.9-1.2-4.2-2.2-4.5
								C435.6-352.9,433.9-355.6,433.6-354.6L433.6-354.6z"/>
							<path id="path5148" class="st63" d="M439.6-357.5c-0.7,1.3,2.9,9,4.2,9.6c1.4,0.6,1.2,0.7,1.9-0.7c0.7-1.4-3.1-7.5-3.5-6.4
								C441.8-353.8,440.3-358.7,439.6-357.5L439.6-357.5z"/>
							<path id="path5150" class="st63" d="M436.8-370.1l1.5,7.8c0,0,2.3-2.6,2.7-3.7c0.4-1.1-1.3-4.6-2.4-5
								C437.5-371.3,436.8-370.1,436.8-370.1L436.8-370.1z"/>
						</g>
					</g>
				</g>
			</g>
		</g>
	</g>
</g>
<g id="g3949" transform="matrix(1.2166 .13680 .029881 1.2056 -150.13 -72.67)">
	<path id="path3951" class="st69" d="M278.9,531c-0.2,1.3,0.1,4.4,0.1,5.2c1.3,1.3,4.4-0.4,5.6,0.5c1.2,0.9,1.7,3.3,1.1,4.4
		c-0.3-0.3-1.3,1.1-2.9,1.6c-1.8,0.6-5.1-0.8-7.1-0.2c-2,0.6-4.7,2.4-5.8,4c-1.1,1.6-1.2,2.4-1.2,5.8c0,3.4,2.6,12,3.8,16.4
		c1.2,4.4,2,10.5,4,12.7c1.9,2.2,3.7,2.3,5.7,2.9c2,0.6,5.9,0.2,7.7,0.5c1.8,0.3,2.9,1.7,4.2,1.3c1.2-0.4,2.2-2.1,2.7-2.9
		c0.8-0.6,2.4,1.1,3.6,1.3c1.3,0.2,2-0.3,4.4-1.7c2.4-1.4,5.9-7.3,7.3-10.5c1.4-3.2,2.3-6.5,2.5-10.4c0.2-3.9-0.6-11.9-2-15.2
		c-1.5-3.3-3.6-5.7-5.5-6.5c-1.9-0.8-4.1-0.1-5.4,0.3s-2.5-0.2-3.4-0.4c-0.7-0.1-3.5-0.7-5.6-0.6c-1.4-1.2-1.3-3.4-2.5-4.9
		c-1.2-1.5-2.5-3.6-4.3-4.2C283.9,529.5,279.1,529.6,278.9,531L278.9,531z"/>
	<path id="path3953" class="st70" d="M284,543.3c-3.9,3.2-5.9,10.4-5.4,20.5c0.5,11.2,8,18.5,13.4,19.7
		c-9.6-11.3-10.7-16.1-10.6-22.5C281.6,554.7,282.3,548.3,284,543.3L284,543.3z"/>
	<path id="path3955" class="st70" d="M293.8,541.1c4.7,2,8.5,8.4,10.8,18.3c2.6,10.9-2.6,19.9-7.6,22.6c3.2-13.9,3.5-18.5,2.2-24.6
		C298,551.2,296.8,545.4,293.8,541.1L293.8,541.1z"/>
	<path id="path3957" class="st71" d="M272.4,559.6c-3.9-6.6-1.3-17.9,9-14.7C276.7,546.2,274.6,550.4,272.4,559.6z"/>
	<path id="path3959" class="st72" d="M285.1,545.7c-1.2-2,6.1-4.4,8.3-2.8c2.2,1.6,0.9,9.4-0.4,9.6
		C292,552.7,286.2,547.5,285.1,545.7L285.1,545.7z"/>
	<path id="path3961" class="st54" d="M279.8,530.6c-0.8,0.9-1.2,4.2-0.1,5.2c1.1,0.9,3.7-1.1,5-0.2c1.4,0.9,1.2,6.2,2.5,5.2
		c1.3-1.1,2.7-0.8,4.3-0.8c1.5,0.1-2.7-7.2-4.3-8.4c-1.6-1.2-2.7-1-3.8-1.1C282.2,530.3,280.6,529.6,279.8,530.6L279.8,530.6z"/>
	<path id="path3963" class="st73" d="M279.6,534.4c0,0,3,0.7,5-1.2c1.8-1.7,3.7,6.3,3.7,6.3"/>
</g>
<g id="g4991_1_" transform="matrix(-1.2166 .13680 -.029881 1.2056 970.36 5.119)">
	<path id="path4993_1_" class="st69" d="M690.6,420.8c-0.3,1.3-0.4,4.4-0.4,5.2c1.2,1.4,4.4,0,5.5,1c1.1,1,1.4,3.5,0.7,4.5
		c-0.2-0.3-1.4,1-3,1.3c-1.8,0.4-4.9-1.3-7-0.9c-2.1,0.4-4.8,1.9-6.1,3.4c-1.2,1.5-1.4,2.3-1.7,5.7c-0.3,3.4,1.4,12.4,2.2,16.9
		c0.7,4.5,1,10.7,2.7,13.2c1.7,2.5,3.4,2.7,5.4,3.4s5.8,0.8,7.5,1.3c1.7,0.5,2.7,2,4,1.7c1.3-0.3,2.4-1.9,2.9-2.7
		c0.8-0.6,2.2,1.4,3.4,1.7c1.2,0.3,2-0.1,4.5-1.3c2.5-1.2,6.5-6.8,8.2-9.9c1.7-3.1,2.9-6.4,3.4-10.3c0.6-3.9,0.6-12.1-0.6-15.5
		c-1.1-3.4-3-6.1-4.8-7.1c-1.8-1-4-0.5-5.3-0.3c-1.3,0.3-2.4-0.5-3.3-0.7c-0.7-0.2-3.3-1-5.5-1.2c-1.2-1.3-1-3.5-2-5.1
		c-1-1.6-2.1-3.9-3.8-4.7S690.9,419.4,690.6,420.8L690.6,420.8z"/>
	<path id="path4995_1_" class="st70" d="M694.5,433.8c-4.2,2.9-6.8,9.9-7.3,20.2c-0.5,11.4,6.1,19.4,11.4,21.2
		c-8.4-12.3-9-17.3-8.3-23.7C691,445,692.4,438.6,694.5,433.8L694.5,433.8z"/>
	<path id="path4997_1_" class="st70" d="M704.4,432.4c4.4,2.5,7.6,9.3,8.9,19.5c1.5,11.3-4.5,19.9-9.6,22
		c4.4-13.7,5.1-18.3,4.4-24.6C707.5,443.1,706.9,437,704.4,432.4L704.4,432.4z"/>
	<path id="path4999_1_" class="st71" d="M681.5,449.1c-3.2-7.1,0.4-18.2,10.3-13.9C687,436,684.6,440,681.5,449.1z"/>
	<path id="path5001_1_" class="st72" d="M695.4,436.3c-1-2.1,6.4-3.9,8.4-2c2,1.9,0,9.6-1.3,9.6C701.5,444,696.3,438.2,695.4,436.3
		L695.4,436.3z"/>
	<path id="path5003_1_" class="st54" d="M691.6,420.5c-0.9,0.9-1.6,4.2-0.6,5.2s3.7-0.8,5,0.2c1.3,1,0.6,6.4,2,5.5
		c1.4-1,2.7-0.6,4.3-0.4c1.5,0.2-2-7.5-3.4-8.9c-1.4-1.4-2.5-1.2-3.6-1.5C694,420.4,692.5,419.6,691.6,420.5L691.6,420.5z"/>
	<path id="path5005_1_" class="st73" d="M691,424.3c0,0,2.9,1,5-0.7c1.9-1.5,3,6.7,3,6.7"/>
</g>
</svg>
