<?xml version="1.0" encoding="utf-8"?>
<!-- Generator: Adobe Illustrator 25.0.0, SVG Export Plug-In . SVG Version: 6.00 Build 0)  -->
<svg version="1.1" id="Publicdomainvectors.org" xmlns="http://www.w3.org/2000/svg" xmlns:xlink="http://www.w3.org/1999/xlink"
	 x="0px" y="0px" viewBox="0 0 235.9 278.3" style="enable-background:new 0 0 235.9 278.3;" xml:space="preserve">
<style type="text/css">
	.st0{fill-rule:evenodd;clip-rule:evenodd;fill:#FFFFFF;}
	.st1{fill-rule:evenodd;clip-rule:evenodd;fill:#F2A659;}
	.st2{fill-rule:evenodd;clip-rule:evenodd;fill:#D18B45;}
	.st3{fill-rule:evenodd;clip-rule:evenodd;fill:#BF7934;}
	.st4{fill-rule:evenodd;clip-rule:evenodd;fill:#B36C26;}
	.st5{fill-rule:evenodd;clip-rule:evenodd;fill:#A86018;}
	.st6{fill-rule:evenodd;clip-rule:evenodd;fill:#1F1308;}
	.st7{clip-path:url(#SVGID_2_);fill-rule:evenodd;clip-rule:evenodd;fill:url(#SVGID_3_);}
	.st8{fill:#3F7F00;}
	.st9{opacity:0.97;}
	.st10{fill:#7F3F00;fill-opacity:0;stroke:#3F7F00;stroke-width:2;stroke-miterlimit:10;}
	.st11{opacity:0.5;fill:#7FFF00;stroke:#00FF00;stroke-linecap:round;stroke-linejoin:round;enable-background:new    ;}
	.st12{fill:url(#imagebot_136_2_);}
	.st13{fill:url(#imagebot_134_2_);}
	.st14{fill:url(#imagebot_132_2_);}
	.st15{fill:url(#imagebot_130_2_);}
	.st16{fill:url(#imagebot_128_2_);}
	.st17{fill:url(#imagebot_126_2_);}
	.st18{fill:url(#imagebot_124_2_);}
	.st19{fill:url(#imagebot_122_2_);}
	.st20{fill:url(#imagebot_120_2_);}
	.st21{fill:url(#imagebot_118_2_);}
	.st22{fill:url(#imagebot_116_2_);}
	.st23{fill:url(#imagebot_114_2_);}
	.st24{fill:url(#imagebot_112_2_);}
	.st25{fill:url(#imagebot_110_2_);}
	.st26{fill:url(#imagebot_108_2_);}
	.st27{fill:url(#imagebot_106_2_);}
	.st28{fill:url(#imagebot_104_2_);}
	.st29{fill:url(#imagebot_102_2_);}
	.st30{fill:url(#imagebot_100_2_);}
	.st31{fill:url(#imagebot_98_2_);}
	.st32{fill:url(#imagebot_96_2_);}
	.st33{fill:url(#imagebot_84_2_);}
	.st34{fill:url(#imagebot_78_2_);}
	.st35{fill:url(#imagebot_72_2_);}
	.st36{fill:url(#imagebot_66_2_);}
	.st37{fill:url(#imagebot_60_2_);}
	.st38{fill:url(#imagebot_54_2_);}
	.st39{fill:url(#imagebot_48_2_);}
	.st40{fill:url(#imagebot_34_2_);}
	.st41{fill:url(#imagebot_10_2_);}
	
		.st42{opacity:0.5;fill:#7FFF00;stroke:#7FFF00;stroke-linecap:round;stroke-linejoin:round;stroke-opacity:0;enable-background:new    ;}
</style>
<polygon class="st0" points="104.6,359.2 105.2,363.1 109,363.7 105.2,364.3 104.6,368.1 104,364.3 100.1,363.7 104,363.1 "/>
<polygon class="st0" points="248.2,380.2 249.3,387.4 256.4,388.5 249.3,389.6 248.2,396.7 247,389.6 239.9,388.5 247,387.4 "/>
<g>
	<rect x="155.5" class="st1" width="23.7" height="13.9"/>
	<rect x="150.5" y="5.9" class="st2" width="33.8" height="13.9"/>
	<path class="st2" d="M199.5,11.2c21.7,33.9,35.2,81.2,35.2,133.6c0,52.4-13.5,99.7-35.2,133.6H36.4C14.7,244.4,1.1,197.1,1.1,144.7
		c0-52.4,13.5-99.7,35.2-133.6H199.5z"/>
	<path class="st3" d="M187.7,11.2c18.6,33.9,30.2,81.2,30.2,133.6c0,52.4-11.6,99.7-30.2,133.6H48.2C29.6,244.4,18,197.1,18,144.7
		c0-52.4,11.6-99.7,30.2-133.6H187.7z"/>
	<path class="st4" d="M171,11.2c14.1,33.9,22.9,81.2,22.9,133.6c0,52.4-8.8,99.7-22.9,133.6H64.9C50.7,244.4,42,197.1,42,144.7
		c0-52.4,8.8-99.7,22.9-133.6H171z"/>
	<path class="st5" d="M141.7,11.2C148,45.1,152,92.4,152,144.7c0,52.4-3.9,99.7-10.3,133.6H94.2c-6.3-33.9-10.3-81.2-10.3-133.6
		c0-52.4,3.9-99.7,10.3-133.6H141.7z"/>
	<path class="st6" d="M199.5,11.2c5.6,8.7,10.7,18.4,15.1,28.8H21.3c4.4-10.4,9.5-20,15.1-28.8H199.5L199.5,11.2z M234.3,128.7
		c0.3,5.3,0.4,10.6,0.4,16c0,4.3-0.1,8.5-0.3,12.8H1.4c-0.2-4.2-0.3-8.5-0.3-12.8c0-5.4,0.1-10.7,0.4-16H234.3L234.3,128.7z
		 M214.6,249.6c-4.4,10.4-9.5,20-15.1,28.8H36.4c-5.6-8.7-10.7-18.4-15.1-28.8H214.6z"/>
</g>
<g>
	<defs>
		<polygon id="SVGID_1_" points="221.9,222.9 235.9,58 0,58 0,231.5 		"/>
	</defs>
	<clipPath id="SVGID_2_">
		<use xlink:href="#SVGID_1_"  style="overflow:visible;"/>
	</clipPath>
	
		<linearGradient id="SVGID_3_" gradientUnits="userSpaceOnUse" x1="-1092.5392" y1="149.9003" x2="-1093.0681" y2="-28.6594" gradientTransform="matrix(2.024178e-16 -1.1019 1.0483 1.925717e-16 54.2886 -1055.5582)">
		<stop  offset="0" style="stop-color:#C2B294"/>
		<stop  offset="7.142900e-02" style="stop-color:#C7B89B"/>
		<stop  offset="0.1429" style="stop-color:#CBC1A3"/>
		<stop  offset="0.2143" style="stop-color:#D2C8AD"/>
		<stop  offset="0.2857" style="stop-color:#D8CFB6"/>
		<stop  offset="0.3571" style="stop-color:#D9D2B8"/>
		<stop  offset="0.4286" style="stop-color:#D9D2B8"/>
		<stop  offset="0.5" style="stop-color:#D9D2B8"/>
		<stop  offset="0.5714" style="stop-color:#D9D2B8"/>
		<stop  offset="0.6429" style="stop-color:#D6CFB5"/>
		<stop  offset="0.7143" style="stop-color:#D3C8AD"/>
		<stop  offset="0.7857" style="stop-color:#CDC1A6"/>
		<stop  offset="0.8571" style="stop-color:#C7B79C"/>
		<stop  offset="0.9286" style="stop-color:#BFAD8F"/>
		<stop  offset="1" style="stop-color:#BBAC89"/>
	</linearGradient>
	<path class="st7" d="M211.2,167.8c-0.2-0.9-0.4-1.6-0.4-2.5c0-0.9,0.1-1.6-0.3-2.5c-1.4-2.4-1.6-5-1.2-7.7c0.2-1.2,0.6-2.2,1.3-3.1
		c-0.2-0.5-0.4-1-0.6-1.5c-0.6-1.8-1.7-3.6-1.3-5.6c0.3-1.5,1.2-2.7,1.5-4.2c0.3-1.6,0-2.9-0.5-4.5c-0.4-1.3-0.1-2.5,0.2-3.7
		c0.4-1.4,0.5-2.8,0.2-4.3c-0.1-0.2-0.1-0.3-0.1-0.5c0-0.9-0.1-1.7-0.4-2.6c-0.3-1-0.8-1.9-1-2.9c-0.3-1.9,0.5-3.6,0.8-5.4
		c0.4-2.4-0.3-4.6-0.4-6.9c0-0.9,0.1-1.7,0.6-2.4c0.5-0.8,1.3-1.4,1.5-2.4c0.3-1.3-0.8-2.5-1.4-3.6c-0.9-1.5-1.3-3-1-4.8
		c0.1-0.3,0.2-0.7,0.3-1c-0.2-0.2-0.3-0.4-0.3-0.7c-0.1-0.9-0.2-1.9-0.2-2.8c0-0.7,0.3-1.2,0.4-1.8c-0.1-0.4-0.3-0.9-0.6-1.3
		c-1.7-0.6-3.6-0.4-5.4-0.6c-1.9-0.2-3.7-0.9-5.5-1c-2.1-0.1-4.1,0.7-6,1.2c-1.7,0.5-3.8,1.1-5.6,0.8c-1.5-0.2-2.6-1.4-4.1-1.8
		c-1.7-0.4-3.4,0.1-5.1,0.6c-1.8,0.6-3.5,1.2-5.4,1.4c-0.9,0.1-1.3-0.6-1.2-1.3c-2.2,0.7-4.4,1.2-6.7,1.1c-1.6,0-3-0.3-4.4-1.1
		c-1.4-0.8-2.8-1.2-4.4-1.2c-1.6,0-3.1,0.2-4.6,0.4c-1.1,0.4-2.3,0.7-3.5,0.7c-0.1,0-0.2,0-0.4,0c-0.2,0-0.5,0.1-0.7,0.1
		c-3.3,0.4-6.5,0-9.6-1c-0.3-0.1-0.5-0.2-0.8-0.3c0,0-0.1,0-0.1,0c-0.3,0.3-0.7,0.4-1.1,0.2c-0.9-0.4-1.6-0.5-2.4,0
		c-0.7,0.4-1.3,1-2.1,1.4c-2.1,1.1-4.3,0.9-6.6,0.2c-1.1-0.3-2.2-0.7-3.4-0.5c-1,0.2-1.9,0.7-2.9,1.1c-2.2,0.7-4.5,0.4-6.7,0.7
		c-0.3,0.2-0.6,0.3-0.9,0.5c-3,1.4-5.9,1.6-9.2,0.9c-1.7-0.4-3.4-0.9-5.2-1.1c-1.7-0.2-3.4-0.1-5.1,0.1c-3.6,0.3-7.3,0.9-10.9,0.6
		c-0.6,0-1.3-0.5-1.2-1.2c0-0.1,0-0.1,0-0.2c-0.3-0.3-0.4-0.7-0.3-1.1c-0.1,0-0.1,0-0.2,0c-1.9-0.5-4.3-0.1-6.3,0.1
		c-1.9,0.2-3.8,0.5-5.7,0.8c-1.6,0.6-3.3,1.3-5,1.6c-1.6,0.3-3.1,0.1-4.5-0.7c-1.2-0.7-2.2-1.5-3.6-1.8c-0.4,0-0.7,0-1-0.1
		c-1.6,0-3.2,0.6-4.7,0.8c-1.7,0.3-3.3,0.1-4.9-0.6c-0.7-0.3-0.8-1-0.5-1.5c-0.2-0.1-0.5-0.3-0.7-0.5c-0.3,0.1-0.6,0.1-0.9,0.2
		c-0.2,0-0.4,0-0.5,0c-1.7,2.1-4.1,3.2-6.9,3.1c-1,0-2-0.2-3.1-0.2c0,0-0.1,0-0.1,0c0,0.2-0.1,0.4-0.1,0.6c0,0.5,0.1,1,0.1,1.6
		c0.2,1,0.6,2,1,3c1,2.7-0.4,4.9-1.3,7.5c-0.5,1.4-0.7,2.6-0.4,4c0.3,1.2,0.6,2.3,0.7,3.5c0.1,1.3-0.3,2.4-0.7,3.6
		c1.7,2.5-0.5,5.9-0.5,8.7c0,2,1.1,3.9,1.3,5.9c0.2,2.1,0.2,4.2,0.7,6.2c0.4,2,1.1,4,1,6c0,1-0.3,2-0.4,3c-0.1,1,0.1,2,0.2,2.9
		c0.3,3.2-0.8,5.6-2.6,8c0.2,0.3,0.3,0.7,0.2,1.1c-0.3,1.2-0.1,2.4-0.4,3.6c0,0.2-0.1,0.3-0.2,0.5c0.1,0,0.1-0.1,0.2-0.1
		c0.5-0.2,1.1,0.1,1.4,0.6c0.9,1.4,0.1,3-0.7,4.3c-0.4,0.6-0.8,1.1-1.1,1.7c-0.4,1-0.2,2.1,0.1,3.1c0.3,1.1,1.3,2.1,1.7,3.3
		c0.3,0.2,0.5,0.6,0.7,0.9c0.1,0.3,0.3,0.6,0.4,1c0.2,0.1,0.4,0.2,0.6,0.4c1,1.2,0.4,2.9-0.3,4.2c0,0.1,0,0.2,0,0.4c0,0,0,0.1,0,0.1
		c0.7,0,1.5,0.7,1.2,1.5c-0.4,1.2-1.7,2.6-1.7,3.9c0,0.8,0.3,1.7,0.2,2.5c0,0.8-0.2,1.5-0.4,2.3c0.7,0.6,1.3,1.3,1.8,2
		c1.6,2.3,0.7,4.6-0.1,7.1c-0.4,1.3-0.6,2.6-1.2,3.8c-0.4,0.8-1.1,1.4-1.6,2.1c0.4,0.7,0.8,1.5,1,2.3c0.1,0.5,0.1,1.1-0.1,1.8
		c0.5,0.1,1,0.2,1.5,0.3c0.9,0.3,1.8,0.8,2.7,1.1c2.3,0.8,4.9,0.3,7.2-0.2c0.1,0,0.2,0,0.3,0c0.3-0.3,0.7-0.5,1.2-0.4
		c1.7,0.4,3,0.2,4.4-0.8c1-0.7,2-1.4,3.3-1.4c1.5,0,2.6,1,4,1.3c1.6,0.4,3.3,0.4,4.9,0.3c1.7-0.1,3.4,0,5.2,0c1.7,0,3.1-0.5,4.7-1.1
		c1.3-0.5,2.5-0.4,3.8-0.1c1.3,0.3,2.3,0.4,3.7,0.2c0.1,0,0.2,0,0.3,0c1.4-0.1,2.7,0.2,4,0.2c1.2,0,2.2-0.4,3.3-0.8
		c2.1-0.8,4.1-1.1,6,0.4c0.1,0.1,0.2,0.2,0.2,0.3c0.2-0.1,0.3-0.2,0.6-0.2c0.1-0.2,0.3-0.3,0.5-0.4c4.7-2.1,9.5-1.9,14.5-1.9
		c0.8,0,1.2,0.7,1.2,1.3l0.2,0c1.5-2.1,5.9-1.5,8-1.3c1.5,0.2,3,0.7,4.6,0.8c2.6,0.2,5.2-0.4,7.7-0.5c0.4,0,0.7,0.2,0.9,0.4
		c0,0,0,0,0,0c1.6-0.2,2.7-1.2,4.4-0.9c1.9,0.3,3.6,1.6,5.5,1.6c1.7,0,3.5-1,5.2-1.4c1.8-0.4,3.5-0.2,5.2,0.4c0.7,0.2,1,1,0.9,1.6
		c0.2,0,0.3,0,0.5,0c1.5,0,2.6-0.6,3.9-0.9c1.4-0.4,2.6-0.1,3.9,0.4c0.1-0.1,0.3-0.1,0.5-0.1c1.2-0.1,2.2-1.2,3.5-1.5
		c1.5-0.3,2.8,0.3,4.2,0.6c1.6,0.4,3.1,0.3,4.7,0.3c1.4,0,2.8,0.3,4.2,0.4c2.3,0.1,4.4-0.8,6.7-1c1.3-0.2,2.5,0,3.4,0.8
		c3.1-0.4,6.4-0.2,9.5-0.8c2.1-0.5,4-0.9,6.1-0.4c1.6,0.4,3.2,0.8,4.8,1.2c0.3-0.3,0.6-0.6,1-0.8c0.9-0.5,1.8-0.7,2.7-0.6
		c-0.4-1.2-1.1-2.2-0.9-3.5c0.2-1,0.4-2,0.3-3c-0.1-1.2-0.5-2.4-0.7-3.6c-0.4-2-0.2-3.8,0.3-5.8c0.6-2,1.5-4.1,1.4-6.2
		c-0.1-1.5-0.3-3.2,0.5-4.5c0.1-0.2,0.3-0.4,0.4-0.5c-0.4-0.7-0.9-1.4-1.1-2.2c-0.3-1.3,0.3-2.5,1.1-3.5
		C211.2,170.9,211.5,169.5,211.2,167.8z"/>
</g>
<g>
	<path id="imagebot_25_1_" class="st8" d="M143.3,111.9c1.2-2.1,0.3-6.9,0.3-6.9s-2.2,0.8-4,2c-1.4-1.6-3.4-2.9-3.4-2.9
		s-1,2.1-1.4,4.2c-2.1-0.1-4.5,0.4-4.5,0.4s0.8,2.2,2,4c-1.6,1.4-3,3.4-3,3.4s2.1,1,4.2,1.4c-0.1,2.1,0.3,4.5,0.3,4.5
		s5.1-1.9,5.9-4.1c0.5-1.4,0.1-3.6-1.1-4.3c0,0,0,0,0-0.1c0,0,0,0,0-0.1c0,0,0,0,0.1,0c0,0,0.1,0,0.1,0.1c1.3,0.7,3.4-0.1,4.3-1.2
		C143.1,112.1,143.2,112,143.3,111.9L143.3,111.9z"/>
	<g id="imagebot_177_1_" transform="translate(0 2.44141) matrix(1 0 0 1 -4.88281 0)" class="st9">
		<path id="imagebot_40_1_" class="st10" d="M138.9,134c0,0,11.8-7.9,21.6-1c9.8,6.9,9.6,9.5,8.7,18.1c-0.9,8.6,3.6,10.8,3.6,10.8"
			/>
		<path id="imagebot_22_1_" class="st10" d="M154.5,130.1c0,0-0.4-4.7-3-9.9c-2.6-5.2-8.4-9.6-8.4-9.6"/>
		<path id="imagebot_19_1_" class="st10" d="M152.9,122.4c0,0,1.2,3,6.5,1.6c5.3-1.4,3.7-9.1,3.7-9.1"/>
	</g>
	<path id="imagebot_28_1_" class="st8" d="M161.7,120.3c2.3,0,5.7-3.1,5.7-3.1s-1.7-1.4-3.5-2.2c0.6-1.9,0.7-4.1,0.7-4.1
		s-2.2,0.2-4.1,0.9c-0.9-1.8-2.4-3.4-2.4-3.4s-1.4,1.7-2.2,3.5c-1.9-0.6-4.2-0.7-4.2-0.7s0.2,2.2,0.9,4c-1.8,0.9-3.5,2.4-3.5,2.4
		s3.9,3.2,6.2,2.8c1.4-0.3,2.9-1.6,2.9-3c0,0,0,0,0,0c0,0,0,0,0.1,0c0,0,0,0,0,0c0,0,0,0.1,0,0.1c0,1.4,1.7,2.7,3.1,2.9
		C161.5,120.3,161.6,120.3,161.7,120.3L161.7,120.3z"/>
	<path id="imagebot_12_1_" class="st11" d="M160.3,118.9c1.2,0,3.1-1.7,3.1-1.7s-0.9-0.8-1.9-1.2c0.3-1,0.4-2.3,0.4-2.3
		s-1.2,0.1-2.2,0.5c-0.5-1-1.3-1.9-1.3-1.9s-0.8,0.9-1.2,1.9c-1-0.3-2.3-0.4-2.3-0.4s0.1,1.2,0.5,2.2c-1,0.5-1.9,1.3-1.9,1.3
		s2.1,1.7,3.4,1.5c0.7-0.1,1.6-0.9,1.6-1.6c0,0,0,0,0,0c0,0,0,0,0,0c0,0,0,0,0,0c0,0,0,0,0,0.1c0,0.8,0.9,1.4,1.7,1.6
		C160.2,118.9,160.3,118.9,160.3,118.9L160.3,118.9z"/>
	<g id="imagebot_156_1_">
		
			<linearGradient id="imagebot_136_2_" gradientUnits="userSpaceOnUse" x1="-807.1844" y1="686.0488" x2="-807.3024" y2="685.9309" gradientTransform="matrix(66.315 107.6982 107.4637 -66.1707 -20100.9141 132506.6719)">
			<stop  offset="0" style="stop-color:#007F00;stop-opacity:0.9961"/>
			<stop  offset="1" style="stop-color:#AAFFAA;stop-opacity:0.9961"/>
		</linearGradient>
		<path id="imagebot_136_1_" class="st12" d="M86.6,183c-4.1,0.5-7.8-2.5-8.2-6.6c-0.5-4.1,2.5-7.8,6.6-8.2c4.1-0.5,7.8,2.5,8.2,6.6
			C93.6,178.9,90.7,182.6,86.6,183z"/>
		
			<linearGradient id="imagebot_134_2_" gradientUnits="userSpaceOnUse" x1="-806.8071" y1="685.6482" x2="-806.925" y2="685.5303" gradientTransform="matrix(66.315 107.6982 107.4638 -66.1707 -20080.5469 132430.5938)">
			<stop  offset="0" style="stop-color:#007F00;stop-opacity:0.9961"/>
			<stop  offset="1" style="stop-color:#AAFFAA;stop-opacity:0.9961"/>
		</linearGradient>
		<path id="imagebot_134_1_" class="st13" d="M89,174.1c-4.1,0.5-7.8-2.5-8.2-6.6c-0.5-4.1,2.5-7.8,6.6-8.2c4.1-0.5,7.8,2.5,8.2,6.6
			C96,169.9,93.1,173.6,89,174.1z"/>
		
			<linearGradient id="imagebot_132_2_" gradientUnits="userSpaceOnUse" x1="-807.5565" y1="687.5021" x2="-807.6744" y2="687.3842" gradientTransform="matrix(14.203 125.7262 125.2977 -14.1546 -74571.3047 111426.9453)">
			<stop  offset="0" style="stop-color:#007F00;stop-opacity:0.9961"/>
			<stop  offset="1" style="stop-color:#AAFFAA;stop-opacity:0.9961"/>
		</linearGradient>
		<path id="imagebot_132_1_" class="st14" d="M94,165.5c-4.1,0.5-7.8-2.5-8.2-6.6c-0.5-4.1,2.5-7.8,6.6-8.2c4.1-0.5,7.8,2.5,8.2,6.6
			l0,0C101,161.3,98.1,165,94,165.5L94,165.5z"/>
		
			<linearGradient id="imagebot_130_2_" gradientUnits="userSpaceOnUse" x1="-806.2957" y1="684.6467" x2="-806.4136" y2="684.5288" gradientTransform="matrix(66.315 107.6981 107.4637 -66.1707 -19996.9375 132292.9375)">
			<stop  offset="0" style="stop-color:#007F00;stop-opacity:0.9961"/>
			<stop  offset="1" style="stop-color:#AAFFAA;stop-opacity:0.9961"/>
		</linearGradient>
		<path id="imagebot_130_1_" class="st15" d="M98.9,157.8c-4.1,0.5-7.8-2.5-8.2-6.6c-0.5-4.1,2.5-7.8,6.6-8.2
			c4.1-0.5,7.8,2.5,8.2,6.6C105.9,153.7,102.9,157.4,98.9,157.8z"/>
		
			<linearGradient id="imagebot_128_2_" gradientUnits="userSpaceOnUse" x1="-806.9094" y1="686.7739" x2="-807.0273" y2="686.656" gradientTransform="matrix(14.203 125.7262 125.2976 -14.1545 -74478.2031 111323.0156)">
			<stop  offset="0" style="stop-color:#007F00;stop-opacity:0.9961"/>
			<stop  offset="1" style="stop-color:#AAFFAA;stop-opacity:0.9961"/>
		</linearGradient>
		<path id="imagebot_128_1_" class="st16" d="M105,153.2c-4.1,0.5-7.8-2.5-8.2-6.6c-0.5-4.1,2.5-7.8,6.6-8.2s7.8,2.5,8.2,6.6l0,0
			C112,149,109.1,152.7,105,153.2L105,153.2z"/>
		
			<linearGradient id="imagebot_126_2_" gradientUnits="userSpaceOnUse" x1="-806.4941" y1="686.4368" x2="-806.6121" y2="686.3189" gradientTransform="matrix(14.203 125.7262 125.2976 -14.1545 -74437.0078 111258.4062)">
			<stop  offset="0" style="stop-color:#007F00;stop-opacity:0.9961"/>
			<stop  offset="1" style="stop-color:#AAFFAA;stop-opacity:0.9961"/>
		</linearGradient>
		<path id="imagebot_126_1_" class="st17" d="M109.8,145.6c-4.1,0.5-7.8-2.5-8.2-6.6c-0.5-4.1,2.5-7.8,6.6-8.2
			c4.1-0.5,7.8,2.5,8.2,6.6l0,0C116.9,141.4,113.9,145.1,109.8,145.6L109.8,145.6z"/>
		
			<linearGradient id="imagebot_124_2_" gradientUnits="userSpaceOnUse" x1="-807.4758" y1="686.5872" x2="-807.5938" y2="686.4692" gradientTransform="matrix(66.315 107.6982 107.4637 -66.1707 -20144.5859 132582.6562)">
			<stop  offset="0" style="stop-color:#007F00;stop-opacity:0.9961"/>
			<stop  offset="1" style="stop-color:#AAFFAA;stop-opacity:0.9961"/>
		</linearGradient>
		<path id="imagebot_124_1_" class="st18" d="M81.5,192c-4.1,0.5-7.8-2.5-8.2-6.6c-0.5-4.1,2.5-7.8,6.6-8.2c4.1-0.5,7.8,2.5,8.2,6.6
			C88.5,187.8,85.5,191.5,81.5,192z"/>
		
			<linearGradient id="imagebot_122_2_" gradientUnits="userSpaceOnUse" x1="-808.8121" y1="687.8466" x2="-808.9301" y2="687.7287" gradientTransform="matrix(14.203 125.7262 125.2976 -14.1545 -74599.9375 111611.4297)">
			<stop  offset="0" style="stop-color:#007F00;stop-opacity:0.9961"/>
			<stop  offset="1" style="stop-color:#AAFFAA;stop-opacity:0.9961"/>
		</linearGradient>
		<path id="imagebot_122_1_" class="st19" d="M90.6,187.2c-4.1,0.5-7.8-2.5-8.2-6.6c-0.5-4.1,2.5-7.8,6.6-8.2s7.8,2.5,8.2,6.6l0,0
			C97.6,183.1,94.7,186.8,90.6,187.2L90.6,187.2z"/>
		
			<linearGradient id="imagebot_120_2_" gradientUnits="userSpaceOnUse" x1="-808.1371" y1="687.4705" x2="-808.255" y2="687.3526" gradientTransform="matrix(14.203 125.7262 125.2977 -14.1546 -74557.4766 111509.1797)">
			<stop  offset="0" style="stop-color:#007F00;stop-opacity:0.9961"/>
			<stop  offset="1" style="stop-color:#AAFFAA;stop-opacity:0.9961"/>
		</linearGradient>
		<path id="imagebot_120_1_" class="st20" d="M95.7,175.2c-4.1,0.5-7.8-2.5-8.2-6.6c-0.5-4.1,2.5-7.8,6.6-8.2
			c4.1-0.5,7.8,2.5,8.2,6.6l0,0C102.7,171,99.7,174.7,95.7,175.2L95.7,175.2z"/>
		
			<linearGradient id="imagebot_118_2_" gradientUnits="userSpaceOnUse" x1="-807.7218" y1="687.1336" x2="-807.8397" y2="687.0157" gradientTransform="matrix(14.203 125.7262 125.2976 -14.1545 -74516.2188 111444.5625)">
			<stop  offset="0" style="stop-color:#007F00;stop-opacity:0.9961"/>
			<stop  offset="1" style="stop-color:#AAFFAA;stop-opacity:0.9961"/>
		</linearGradient>
		<path id="imagebot_118_1_" class="st21" d="M100.5,167.5c-4.1,0.5-7.8-2.5-8.2-6.6c-0.5-4.1,2.5-7.8,6.6-8.2
			c4.1-0.5,7.8,2.5,8.2,6.6l0,0C107.5,163.4,104.6,167.1,100.5,167.5L100.5,167.5z"/>
		
			<linearGradient id="imagebot_116_2_" gradientUnits="userSpaceOnUse" x1="-807.8254" y1="685.5515" x2="-807.9434" y2="685.4335" gradientTransform="matrix(66.3152 107.6985 107.4639 -66.1708 -19992.0703 132547.9531)">
			<stop  offset="0" style="stop-color:#007F00;stop-opacity:0.9961"/>
			<stop  offset="1" style="stop-color:#AAFFAA;stop-opacity:0.9961"/>
		</linearGradient>
		<path id="imagebot_116_1_" class="st22" d="M99.4,187.9c-4.1,0.5-7.8-2.5-8.2-6.6c-0.5-4.1,2.5-7.8,6.6-8.2
			c4.1-0.5,7.8,2.5,8.2,6.6v0C106.4,183.7,103.5,187.4,99.4,187.9L99.4,187.9z"/>
		
			<linearGradient id="imagebot_114_2_" gradientUnits="userSpaceOnUse" x1="-808.5324" y1="687.2841" x2="-808.6503" y2="687.1661" gradientTransform="matrix(14.203 125.7262 125.2976 -14.1545 -74524.5312 111562.5391)">
			<stop  offset="0" style="stop-color:#007F00;stop-opacity:0.9961"/>
			<stop  offset="1" style="stop-color:#AAFFAA;stop-opacity:0.9961"/>
		</linearGradient>
		<path id="imagebot_114_1_" class="st23" d="M99.5,181.4c-4.1,0.5-7.8-2.5-8.2-6.6c-0.5-4.1,2.5-7.8,6.6-8.2
			c4.1-0.5,7.8,2.5,8.2,6.6v0C106.5,177.3,103.6,181,99.5,181.4L99.5,181.4z"/>
		
			<linearGradient id="imagebot_112_2_" gradientUnits="userSpaceOnUse" x1="-807.9857" y1="684.9528" x2="-808.1036" y2="684.8349" gradientTransform="matrix(66.3152 107.6985 107.464 -66.1708 -19907.1582 132522.6562)">
			<stop  offset="0" style="stop-color:#007F00;stop-opacity:0.9961"/>
			<stop  offset="1" style="stop-color:#AAFFAA;stop-opacity:0.9961"/>
		</linearGradient>
		<path id="imagebot_112_1_" class="st24" d="M109.5,184.9c-4.1,0.5-7.8-2.5-8.2-6.6c-0.5-4.1,2.5-7.8,6.6-8.2
			c4.1-0.5,7.8,2.5,8.2,6.6l0,0C116.5,180.7,113.5,184.4,109.5,184.9L109.5,184.9z"/>
		
			<linearGradient id="imagebot_110_2_" gradientUnits="userSpaceOnUse" x1="-808.1024" y1="684.1935" x2="-808.2203" y2="684.0756" gradientTransform="matrix(66.3152 107.6985 107.464 -66.1708 -19805.8984 132479.9219)">
			<stop  offset="0" style="stop-color:#007F00;stop-opacity:0.9961"/>
			<stop  offset="1" style="stop-color:#AAFFAA;stop-opacity:0.9961"/>
		</linearGradient>
		<path id="imagebot_110_1_" class="st25" d="M121.4,179.8c-4.1,0.5-7.8-2.5-8.2-6.6s2.5-7.8,6.6-8.2c4.1-0.5,7.8,2.5,8.2,6.6l0,0
			C128.4,175.7,125.5,179.4,121.4,179.8L121.4,179.8z"/>
		
			<linearGradient id="imagebot_108_2_" gradientUnits="userSpaceOnUse" x1="-808.3655" y1="686.3778" x2="-808.4834" y2="686.2599" gradientTransform="matrix(14.203 125.7262 125.2977 -14.1546 -74398.5781 111524.2188)">
			<stop  offset="0" style="stop-color:#007F00;stop-opacity:0.9961"/>
			<stop  offset="1" style="stop-color:#AAFFAA;stop-opacity:0.9961"/>
		</linearGradient>
		<path id="imagebot_108_1_" class="st26" d="M114.4,176.9c-4.1,0.5-7.8-2.5-8.2-6.6c-0.5-4.1,2.5-7.8,6.6-8.2
			c4.1-0.5,7.8,2.5,8.2,6.6v0C121.4,172.8,118.5,176.5,114.4,176.9L114.4,176.9z"/>
		
			<linearGradient id="imagebot_106_2_" gradientUnits="userSpaceOnUse" x1="-808.1088" y1="686.7572" x2="-808.2267" y2="686.6393" gradientTransform="matrix(14.203 125.7262 125.2977 -14.1546 -74456.6016 111493.6953)">
			<stop  offset="0" style="stop-color:#007F00;stop-opacity:0.9961"/>
			<stop  offset="1" style="stop-color:#AAFFAA;stop-opacity:0.9961"/>
		</linearGradient>
		<path id="imagebot_106_1_" class="st27" d="M107.5,173.3c-4.1,0.5-7.8-2.5-8.2-6.6c-0.5-4.1,2.5-7.8,6.6-8.2
			c4.1-0.5,7.8,2.5,8.2,6.6l0,0C114.6,169.2,111.6,172.9,107.5,173.3L107.5,173.3z"/>
		
			<linearGradient id="imagebot_104_2_" gradientUnits="userSpaceOnUse" x1="-807.4902" y1="686.7422" x2="-807.6082" y2="686.6243" gradientTransform="matrix(14.203 125.7262 125.2977 -14.1546 -74464.4375 111405.2969)">
			<stop  offset="0" style="stop-color:#007F00;stop-opacity:0.9961"/>
			<stop  offset="1" style="stop-color:#AAFFAA;stop-opacity:0.9961"/>
		</linearGradient>
		<path id="imagebot_104_1_" class="st28" d="M106.6,162.9c-4.1,0.5-7.8-2.5-8.2-6.6c-0.5-4.1,2.5-7.8,6.6-8.2
			c4.1-0.5,7.8,2.5,8.2,6.6l0,0C113.6,158.8,110.7,162.4,106.6,162.9L106.6,162.9z"/>
		
			<linearGradient id="imagebot_102_2_" gradientUnits="userSpaceOnUse" x1="-806.5579" y1="683.9302" x2="-806.6758" y2="683.8123" gradientTransform="matrix(66.315 107.6982 107.4637 -66.1706 -19889.8652 132271.2656)">
			<stop  offset="0" style="stop-color:#007F00;stop-opacity:0.9961"/>
			<stop  offset="1" style="stop-color:#AAFFAA;stop-opacity:0.9961"/>
		</linearGradient>
		<path id="imagebot_102_1_" class="st29" d="M111.5,155.3c-4.1,0.5-7.8-2.5-8.2-6.6c-0.5-4.1,2.5-7.8,6.6-8.2
			c4.1-0.5,7.8,2.5,8.2,6.6C118.5,151.1,115.6,154.8,111.5,155.3z"/>
		
			<linearGradient id="imagebot_100_2_" gradientUnits="userSpaceOnUse" x1="-807.2571" y1="684.0182" x2="-807.3751" y2="683.9003" gradientTransform="matrix(66.3152 107.6985 107.4639 -66.1708 -19847.9922 132363.5625)">
			<stop  offset="0" style="stop-color:#007F00;stop-opacity:0.9961"/>
			<stop  offset="1" style="stop-color:#AAFFAA;stop-opacity:0.9961"/>
		</linearGradient>
		<path id="imagebot_100_1_" class="st30" d="M116.4,166.1c-4.1,0.5-7.8-2.5-8.2-6.6c-0.5-4.1,2.5-7.8,6.6-8.2
			c4.1-0.5,7.8,2.5,8.2,6.6v0C123.4,162,120.5,165.7,116.4,166.1L116.4,166.1z"/>
		
			<linearGradient id="imagebot_98_2_" gradientUnits="userSpaceOnUse" x1="-807.7817" y1="683.6533" x2="-807.8997" y2="683.5354" gradientTransform="matrix(66.3152 107.6985 107.4639 -66.1707 -19764.1016 132400.2031)">
			<stop  offset="0" style="stop-color:#007F00;stop-opacity:0.9961"/>
			<stop  offset="1" style="stop-color:#AAFFAA;stop-opacity:0.9961"/>
		</linearGradient>
		<path id="imagebot_98_1_" class="st31" d="M126.3,170.5c-4.1,0.5-7.8-2.5-8.2-6.6c-0.5-4.1,2.5-7.8,6.6-8.2
			c4.1-0.5,7.8,2.5,8.2,6.6l0,0C133.3,166.3,130.4,170,126.3,170.5L126.3,170.5z"/>
		
			<linearGradient id="imagebot_96_2_" gradientUnits="userSpaceOnUse" x1="-806.1697" y1="685.8472" x2="-806.2876" y2="685.7293" gradientTransform="matrix(14.203 125.7262 125.2976 -14.1546 -74358.5234 111202.6953)">
			<stop  offset="0" style="stop-color:#007F00;stop-opacity:0.9961"/>
			<stop  offset="1" style="stop-color:#AAFFAA;stop-opacity:0.9961"/>
		</linearGradient>
		<path id="imagebot_96_1_" class="st32" d="M119.1,139c-4.1,0.5-7.8-2.5-8.2-6.6c-0.5-4.1,2.5-7.8,6.6-8.2c4.1-0.5,7.8,2.5,8.2,6.6
			l0,0C126.1,134.9,123.2,138.6,119.1,139L119.1,139z"/>
		
			<linearGradient id="imagebot_84_2_" gradientUnits="userSpaceOnUse" x1="-806.7128" y1="686.0107" x2="-806.8307" y2="685.8928" gradientTransform="matrix(14.203 125.7262 125.2977 -14.1546 -74373.0469 111282.7578)">
			<stop  offset="0" style="stop-color:#007F00;stop-opacity:0.9961"/>
			<stop  offset="1" style="stop-color:#AAFFAA;stop-opacity:0.9961"/>
		</linearGradient>
		<path id="imagebot_84_1_" class="st33" d="M117.4,148.5c-4.1,0.5-7.8-2.5-8.2-6.6c-0.5-4.1,2.5-7.8,6.6-8.2s7.8,2.5,8.2,6.6l0,0
			C124.4,144.3,121.5,148,117.4,148.5L117.4,148.5z"/>
		
			<linearGradient id="imagebot_78_2_" gradientUnits="userSpaceOnUse" x1="-807.3734" y1="685.909" x2="-807.4913" y2="685.7911" gradientTransform="matrix(14.203 125.7262 125.2975 -14.1545 -74347.8359 111375.2578)">
			<stop  offset="0" style="stop-color:#007F00;stop-opacity:0.9961"/>
			<stop  offset="1" style="stop-color:#AAFFAA;stop-opacity:0.9961"/>
		</linearGradient>
		<path id="imagebot_78_1_" class="st34" d="M120.4,159.4c-4.1,0.5-7.8-2.5-8.2-6.6c-0.5-4.1,2.5-7.8,6.6-8.2s7.8,2.5,8.2,6.6l0,0
			C127.4,155.2,124.4,158.9,120.4,159.4L120.4,159.4z"/>
		
			<linearGradient id="imagebot_72_2_" gradientUnits="userSpaceOnUse" x1="-807.3591" y1="683.1567" x2="-807.4771" y2="683.0388" gradientTransform="matrix(66.3152 107.6985 107.4639 -66.1708 -19735.3965 132311.375)">
			<stop  offset="0" style="stop-color:#007F00;stop-opacity:0.9961"/>
			<stop  offset="1" style="stop-color:#AAFFAA;stop-opacity:0.9961"/>
		</linearGradient>
		<path id="imagebot_72_1_" class="st35" d="M129.7,160c-4.1,0.5-7.8-2.5-8.2-6.6c-0.5-4.1,2.5-7.8,6.6-8.2c4.1-0.5,7.8,2.5,8.2,6.6
			l0,0C136.7,155.8,133.8,159.5,129.7,160L129.7,160z"/>
		
			<linearGradient id="imagebot_66_2_" gradientUnits="userSpaceOnUse" x1="-808.3852" y1="685.2865" x2="-808.5031" y2="685.1686" gradientTransform="matrix(14.203 125.7262 125.2976 -14.1546 -74243.1953 111509.5078)">
			<stop  offset="0" style="stop-color:#007F00;stop-opacity:0.9961"/>
			<stop  offset="1" style="stop-color:#AAFFAA;stop-opacity:0.9961"/>
		</linearGradient>
		<path id="imagebot_66_1_" class="st36" d="M132.7,175.2c-4.1,0.5-7.8-2.5-8.2-6.6c-0.5-4.1,2.5-7.8,6.6-8.2
			c4.1-0.5,7.8,2.5,8.2,6.6l0,0C139.7,171,136.8,174.7,132.7,175.2L132.7,175.2z"/>
		
			<linearGradient id="imagebot_60_2_" gradientUnits="userSpaceOnUse" x1="-807.8521" y1="684.9728" x2="-807.97" y2="684.8549" gradientTransform="matrix(14.203 125.7262 125.2976 -14.1545 -74207.1797 111428.4609)">
			<stop  offset="0" style="stop-color:#007F00;stop-opacity:0.9961"/>
			<stop  offset="1" style="stop-color:#AAFFAA;stop-opacity:0.9961"/>
		</linearGradient>
		<path id="imagebot_60_1_" class="st37" d="M137,165.6c-4.1,0.5-7.8-2.5-8.2-6.6c-0.5-4.1,2.5-7.8,6.6-8.2c4.1-0.5,7.8,2.5,8.2,6.6
			l0,0C144,161.5,141,165.2,137,165.6L137,165.6z"/>
		
			<linearGradient id="imagebot_54_2_" gradientUnits="userSpaceOnUse" x1="-807.1986" y1="684.7805" x2="-807.3165" y2="684.6625" gradientTransform="matrix(14.203 125.7262 125.2976 -14.1545 -74190.375 111332.25)">
			<stop  offset="0" style="stop-color:#007F00;stop-opacity:0.9961"/>
			<stop  offset="1" style="stop-color:#AAFFAA;stop-opacity:0.9961"/>
		</linearGradient>
		<path id="imagebot_54_1_" class="st38" d="M138.9,154.3c-4.1,0.5-7.8-2.5-8.2-6.6c-0.5-4.1,2.5-7.8,6.6-8.2
			c4.1-0.5,7.8,2.5,8.2,6.6l0,0C145.9,150.1,143,153.8,138.9,154.3L138.9,154.3z"/>
		
			<linearGradient id="imagebot_48_2_" gradientUnits="userSpaceOnUse" x1="-806.2862" y1="685.0656" x2="-806.4041" y2="684.9476" gradientTransform="matrix(14.203 125.7262 125.2975 -14.1545 -74245.5312 111206.7578)">
			<stop  offset="0" style="stop-color:#007F00;stop-opacity:0.9961"/>
			<stop  offset="1" style="stop-color:#AAFFAA;stop-opacity:0.9961"/>
		</linearGradient>
		<path id="imagebot_48_1_" class="st39" d="M132.4,139.5c-4.1,0.5-7.8-2.5-8.2-6.6c-0.5-4.1,2.5-7.8,6.6-8.2s7.8,2.5,8.2,6.6l0,0
			C139.4,135.3,136.5,139,132.4,139.5L132.4,139.5z"/>
		
			<linearGradient id="imagebot_34_2_" gradientUnits="userSpaceOnUse" x1="-806.9804" y1="682.1785" x2="-807.0983" y2="682.0606" gradientTransform="matrix(66.3152 107.6985 107.4639 -66.1708 -19644.6797 132191.75)">
			<stop  offset="0" style="stop-color:#007F00;stop-opacity:0.9961"/>
			<stop  offset="1" style="stop-color:#AAFFAA;stop-opacity:0.9961"/>
		</linearGradient>
		<path id="imagebot_34_1_" class="st40" d="M140.4,145.9c-4.1,0.5-7.8-2.5-8.2-6.6s2.5-7.8,6.6-8.2c4.1-0.5,7.8,2.5,8.2,6.6l0,0
			C147.4,141.7,144.5,145.4,140.4,145.9L140.4,145.9z"/>
		
			<linearGradient id="imagebot_10_2_" gradientUnits="userSpaceOnUse" x1="-806.7318" y1="682.8026" x2="-806.8497" y2="682.6847" gradientTransform="matrix(66.3152 107.6985 107.4639 -66.1708 -19739.4199 132208.1875)">
			<stop  offset="0" style="stop-color:#007F00;stop-opacity:0.9961"/>
			<stop  offset="1" style="stop-color:#AAFFAA;stop-opacity:0.9961"/>
		</linearGradient>
		<path id="imagebot_10_1_" class="st41" d="M129.2,147.8c-4.1,0.5-7.8-2.5-8.2-6.6c-0.5-4.1,2.5-7.8,6.6-8.2
			c4.1-0.5,7.8,2.5,8.2,6.6l0,0C136.2,143.7,133.3,147.3,129.2,147.8L129.2,147.8z"/>
	</g>
	<path id="imagebot_16_1_" class="st42" d="M141,112.2c0.7-1.1,0.2-3.8,0.2-3.8s-1.2,0.4-2.2,1.1c-0.8-0.9-1.9-1.6-1.9-1.6
		s-0.6,1.2-0.8,2.3c-1.2-0.1-2.5,0.2-2.5,0.2s0.4,1.2,1.1,2.2c-0.9,0.8-1.6,1.9-1.6,1.9s1.2,0.5,2.3,0.8c-0.1,1.2,0.2,2.5,0.2,2.5
		s2.8-1,3.3-2.3c0.3-0.8,0.1-1.9-0.6-2.3c0,0,0,0,0,0c0,0,0,0,0,0c0,0,0,0,0,0c0,0,0,0,0,0c0.7,0.4,1.8,0,2.4-0.7
		C141,112.3,141,112.3,141,112.2L141,112.2z"/>
</g>
</svg>
