<?xml version="1.0" encoding="utf-8"?>
<!-- Generator: Adobe Illustrator 25.0.0, SVG Export Plug-In . SVG Version: 6.00 Build 0)  -->
<svg version="1.1" id="Publicdomainvectors.org" xmlns="http://www.w3.org/2000/svg" xmlns:xlink="http://www.w3.org/1999/xlink"
	 x="0px" y="0px" viewBox="0 0 232.1 248.7" style="enable-background:new 0 0 232.1 248.7;" xml:space="preserve">
<style type="text/css">
	.st0{fill:none;}
	.st1{fill:#002F2F;}
	.st2{fill:#498C12;}
	.st3{fill:#416B1C;}
	.st4{fill:#51A709;}
	.st5{fill:#FFFFFF;}
	.st6{fill:#345E09;}
	.st7{fill:url(#SVGID_1_);}
</style>
<pattern  x="-184.5" y="-176.1" width="600" height="600" patternUnits="userSpaceOnUse" id="Unnamed_Pattern" viewBox="82.3 -644.4 600 600" style="overflow:visible;">
	<g>
		<rect x="82.3" y="-644.4" class="st0" width="600" height="600"/>
		<path class="st1" d="M577.6-698.1c-3.9,10.5-29.8,68.4-126.7,63.4l-0.9,3.2C486.6-630.3,556-636.7,577.6-698.1z"/>
		<path class="st1" d="M514.8-642.2c3.9-10,5.1-20.4,4.2-31.3h1c1.2,11.6,0.2,22.8-3.7,33.3L514.8-642.2z"/>
		<path class="st1" d="M506.9-639.5c15.5,8.9,42.5,21.8,61.2,23l1.2,0.8c-19.5,1.7-48.3-15.3-65.8-21.5L506.9-639.5z"/>
		
			<ellipse transform="matrix(0.4274 -0.9041 0.9041 0.4274 920.1696 173.9451)" class="st2" cx="597.4" cy="-639.5" rx="37.4" ry="47.5"/>
		<path class="st3" d="M613.4-605.6c23.7-11.2,35.8-35.4,26.9-54.1c-3.1-6.5-8.3-11.5-14.8-14.8c2.1,2.3,3.9,4.8,5.3,7.7
			c8.8,18.7-3.2,42.9-26.9,54.1c-15.4,7.3-32,7.3-44.1,1.2C571.4-599,593.3-596.1,613.4-605.6z"/>
		
			<ellipse transform="matrix(0.4274 -0.9041 0.9041 0.4274 902.3598 169.5161)" class="st4" cx="585" cy="-627.6" rx="17.9" ry="27.4"/>
		<path class="st5" d="M584.2-619c5.7-2.7,8.9-7.9,7.1-11.6c-1.8-3.7-7.8-4.5-13.5-1.9c-5.7,2.7-8.9,7.9-7.1,11.6
			C572.5-617.2,578.5-616.3,584.2-619z"/>
		<path class="st6" d="M563.7-586c-39.7-32.3-64.1-38.3-64.1-38.3s9.1,35,48.9,67.2c39.7,32.3,70.2,35,70.2,35
			S603.4-553.7,563.7-586z"/>
		<path class="st6" d="M463.8-576.9c10.8-23.5,6.2-47.1,6.2-47.1s-26.1,14.6-36.9,38.1c-10.8,23.5-11.6,40-11.6,40
			S453-553.3,463.8-576.9z"/>
		<path class="st6" d="M473-698.2c-10.7-29.4-39.5-43.3-39.5-43.3s-2,25.1,8.8,54.5c10.7,29.4,34.8,47.7,34.8,47.7
			S483.7-668.7,473-698.2z"/>
		<path class="st1" d="M433.5-741.9c0,0,36.3,102.8,48.6,108.6l0.2-1.9C482.3-635.2,469.7-648,433.5-741.9z"/>
		<path class="st1" d="M422.8-548.1c0,0,54.6-75.5,51.1-86l-1.6,0.9C472.3-633.1,470.7-618.8,422.8-548.1z"/>
		<path class="st1" d="M618.7-522c0,0-81.3-57.7-131.9-112h3.5C490.3-634,521.3-598.1,618.7-522z"/>
		<path class="st1" d="M277.6-698.1c-3.9,10.5-29.8,68.4-126.7,63.4l-0.9,3.2C186.6-630.3,256-636.7,277.6-698.1z"/>
		<path class="st1" d="M214.8-642.2c3.9-10,5.1-20.4,4.2-31.3h1c1.2,11.6,0.2,22.8-3.7,33.3L214.8-642.2z"/>
		<path class="st1" d="M206.9-639.5c15.5,8.9,42.5,21.8,61.2,23l1.2,0.8c-19.5,1.7-48.3-15.3-65.8-21.5L206.9-639.5z"/>
		
			<ellipse transform="matrix(0.4274 -0.9041 0.9041 0.4274 748.3966 -97.2708)" class="st2" cx="297.4" cy="-639.5" rx="37.4" ry="47.5"/>
		<path class="st3" d="M313.4-605.6c23.7-11.2,35.8-35.4,26.9-54.1c-3.1-6.5-8.3-11.5-14.8-14.8c2.1,2.3,3.9,4.8,5.3,7.7
			c8.8,18.7-3.2,42.9-26.9,54.1c-15.4,7.3-32,7.3-44.1,1.2C271.4-599,293.3-596.1,313.4-605.6z"/>
		
			<ellipse transform="matrix(0.4274 -0.9041 0.9041 0.4274 730.5879 -101.7)" class="st4" cx="285" cy="-627.6" rx="17.9" ry="27.4"/>
		<path class="st5" d="M284.2-619c5.7-2.7,8.9-7.9,7.1-11.6c-1.8-3.7-7.8-4.5-13.5-1.9c-5.7,2.7-8.9,7.9-7.1,11.6
			C272.5-617.2,278.5-616.3,284.2-619z"/>
		<path class="st6" d="M263.7-586c-39.7-32.3-64.1-38.3-64.1-38.3s9.1,35,48.9,67.2c39.7,32.3,70.2,35,70.2,35
			S303.4-553.7,263.7-586z"/>
		<path class="st6" d="M163.8-576.9c10.8-23.5,6.2-47.1,6.2-47.1s-26.1,14.6-36.9,38.1c-10.8,23.5-11.6,40-11.6,40
			S153-553.3,163.8-576.9z"/>
		<path class="st6" d="M173-698.2c-10.7-29.4-39.5-43.3-39.5-43.3s-2,25.1,8.8,54.5c10.7,29.4,34.8,47.7,34.8,47.7
			S183.7-668.7,173-698.2z"/>
		<path class="st1" d="M133.5-741.9c0,0,36.3,102.8,48.6,108.6l0.2-1.9C182.3-635.2,169.7-648,133.5-741.9z"/>
		<path class="st1" d="M122.8-548.1c0,0,54.6-75.5,51.1-86l-1.6,0.9C172.3-633.1,170.7-618.8,122.8-548.1z"/>
		<path class="st1" d="M318.7-522c0,0-81.3-57.7-131.9-112h3.5C190.3-634,221.3-598.1,318.7-522z"/>
		<path class="st1" d="M727.6-398.1c-3.9,10.5-29.8,68.4-126.7,63.4l-0.9,3.2C636.6-330.3,706-336.7,727.6-398.1z"/>
		<path class="st1" d="M664.8-342.2c3.9-10,5.1-20.4,4.2-31.3h1c1.2,11.6,0.2,22.8-3.7,33.3L664.8-342.2z"/>
		<path class="st1" d="M656.9-339.5c15.5,8.9,42.5,21.8,61.2,23l1.2,0.8c-19.5,1.7-48.3-15.3-65.8-21.6L656.9-339.5z"/>
		<ellipse class="st2" cx="671.7" cy="-419.2" rx="37.4" ry="47.5"/>
		<path class="st3" d="M709.1-419.2c0-26.2-16.8-47.5-37.4-47.5c-7.2,0-14,2.6-19.7,7.1c2.9-0.9,6-1.5,9.2-1.5
			c20.7,0,37.4,21.3,37.4,47.5c0,17.1-7.1,32-17.7,40.4C697.1-378.4,709.1-397,709.1-419.2z"/>
		<ellipse class="st4" cx="657.4" cy="-407.1" rx="17.9" ry="27.4"/>
		<ellipse class="st5" cx="657.4" cy="-402.7" rx="7.4" ry="11.4"/>
		<path class="st6" d="M713.7-286c-39.7-32.3-64.1-38.3-64.1-38.3s9.1,35,48.9,67.2c39.7,32.3,70.2,35,70.2,35
			S753.4-253.7,713.7-286z"/>
		<path class="st6" d="M613.8-276.9c10.8-23.5,6.2-47.1,6.2-47.1s-26.1,14.6-36.9,38.1c-10.8,23.5-11.6,40-11.6,40
			S603-253.3,613.8-276.9z"/>
		<path class="st6" d="M623-398.2c-10.7-29.4-39.5-43.3-39.5-43.3s-2,25.1,8.8,54.5c10.7,29.4,34.8,47.7,34.8,47.7
			S633.7-368.7,623-398.2z"/>
		<path class="st1" d="M583.5-441.9c0,0,36.3,102.8,48.6,108.6l0.2-1.9C632.3-335.2,619.7-348,583.5-441.9z"/>
		<path class="st1" d="M572.8-248.1c0,0,54.6-75.5,51.1-86l-1.6,0.9C622.3-333.1,620.7-318.8,572.8-248.1z"/>
		<path class="st1" d="M768.7-222c0,0-81.3-57.7-131.9-112h3.5C640.3-334,671.3-298.1,768.7-222z"/>
		<path class="st1" d="M427.6-398.1c-3.9,10.5-29.8,68.4-126.7,63.4l-0.9,3.2C336.6-330.3,406-336.7,427.6-398.1z"/>
		<path class="st1" d="M427.7-398.4c0.1-0.4,0.2-0.7,0.3-0.9C427.9-399,427.8-398.7,427.7-398.4z"/>
		<path class="st1" d="M428.1-399.6c0,0.1-0.1,0.2-0.1,0.3C428-399.4,428.1-399.5,428.1-399.6z"/>
		
			<ellipse transform="matrix(0.839 -0.5442 0.5442 0.839 293.3097 168.8856)" class="st2" cx="432" cy="-411.2" rx="37.4" ry="47.5"/>
		<path class="st3" d="M463.4-390.8c14.3-22,11.8-49-5.6-60.2c-6.1-3.9-13.1-5.4-20.4-4.8c3,0.8,5.9,2.1,8.5,3.8
			c17.3,11.2,19.8,38.2,5.6,60.2c-9.3,14.3-23.4,23-36.9,24.2C431.2-363.1,451.4-372.2,463.4-390.8z"/>
		
			<ellipse transform="matrix(0.839 -0.5441 0.5441 0.839 284.1873 168.1642)" class="st4" cx="426.3" cy="-396.1" rx="17.9" ry="27.4"/>
		
			<ellipse transform="matrix(0.839 -0.5442 0.5442 0.839 281.781 167.4521)" class="st5" cx="423.8" cy="-392.4" rx="7.4" ry="11.4"/>
		<path class="st1" d="M364.8-342.2c3.9-10,5.1-20.4,4.2-31.3h1c1.2,11.6,0.2,22.8-3.7,33.3L364.8-342.2z"/>
		<path class="st1" d="M356.9-339.5c15.5,8.9,42.5,21.8,61.2,23l1.2,0.8c-19.5,1.7-48.3-15.3-65.8-21.6L356.9-339.5z"/>
		<ellipse class="st2" cx="371.7" cy="-419.2" rx="37.4" ry="47.5"/>
		<path class="st3" d="M409.1-419.2c0-26.2-16.8-47.5-37.4-47.5c-7.2,0-14,2.6-19.7,7.1c2.9-0.9,6-1.5,9.2-1.5
			c20.7,0,37.4,21.3,37.4,47.5c0,17.1-7.1,32-17.7,40.4C397.1-378.4,409.1-397,409.1-419.2z"/>
		<ellipse class="st4" cx="357.4" cy="-407.1" rx="17.9" ry="27.4"/>
		<path class="st5" d="M364.8-402.7c0-6.3-3.3-11.4-7.4-11.4c-4.1,0-7.4,5.1-7.4,11.4c0,6.3,3.3,11.4,7.4,11.4
			C361.5-391.3,364.8-396.4,364.8-402.7z"/>
		
			<ellipse transform="matrix(0.4274 -0.9041 0.9041 0.4274 563.068 210.1105)" class="st2" cx="447.4" cy="-339.5" rx="37.4" ry="47.5"/>
		<path class="st3" d="M463.4-305.6c23.7-11.2,35.8-35.4,26.9-54.1c-3.1-6.5-8.3-11.5-14.8-14.8c2.1,2.3,3.9,4.8,5.3,7.7
			c8.8,18.7-3.2,42.9-26.9,54.1c-15.4,7.3-32,7.3-44.1,1.2C421.4-299,443.3-296.1,463.4-305.6z"/>
		
			<ellipse transform="matrix(0.4274 -0.9041 0.9041 0.4274 545.2595 205.6809)" class="st4" cx="435" cy="-327.6" rx="17.9" ry="27.4"/>
		<path class="st5" d="M434.2-319c5.7-2.7,8.9-7.9,7.1-11.6c-1.8-3.7-7.8-4.5-13.5-1.9c-5.7,2.7-8.9,7.9-7.1,11.6
			C422.5-317.2,428.5-316.3,434.2-319z"/>
		<path class="st6" d="M413.7-286c-39.7-32.3-64.1-38.3-64.1-38.3s9.1,35,48.9,67.2c39.7,32.3,70.2,35,70.2,35
			S453.4-253.7,413.7-286z"/>
		<path class="st6" d="M313.8-276.9c10.8-23.5,6.2-47.1,6.2-47.1s-26.1,14.6-36.9,38.1c-10.8,23.5-11.6,40-11.6,40
			S303-253.3,313.8-276.9z"/>
		<path class="st6" d="M323-398.2c-10.7-29.4-39.5-43.3-39.5-43.3s-2,25.1,8.8,54.5c10.7,29.4,34.8,47.7,34.8,47.7
			S333.7-368.7,323-398.2z"/>
		<path class="st1" d="M283.5-441.9c0,0,36.3,102.8,48.6,108.6l0.2-1.9C332.3-335.2,319.7-348,283.5-441.9z"/>
		<path class="st1" d="M272.8-248.1c0,0,54.6-75.5,51.1-86l-1.6,0.9C322.3-333.1,320.7-318.8,272.8-248.1z"/>
		<path class="st1" d="M468.7-222c0,0-81.3-57.7-131.9-112h3.5C340.3-334,371.3-298.1,468.7-222z"/>
		<path class="st1" d="M127.6-398.1c-3.9,10.5-29.8,68.4-126.7,63.4L0-331.4C36.6-330.3,106-336.7,127.6-398.1z"/>
		<path class="st1" d="M127.7-398.4c0.1-0.4,0.2-0.7,0.3-0.9C127.9-399,127.8-398.7,127.7-398.4z"/>
		<path class="st1" d="M128.1-399.6c0,0.1-0.1,0.2-0.1,0.3C128-399.4,128.1-399.5,128.1-399.6z"/>
		<ellipse transform="matrix(0.839 -0.5442 0.5442 0.839 245.0056 5.64)" class="st2" cx="132" cy="-411.2" rx="37.4" ry="47.5"/>
		<path class="st3" d="M163.4-390.8c14.3-22,11.8-49-5.6-60.2c-6.1-3.9-13.1-5.4-20.4-4.8c3,0.8,5.9,2.1,8.5,3.8
			c17.3,11.2,19.8,38.2,5.6,60.2c-9.3,14.3-23.4,23-36.9,24.2C131.2-363.1,151.4-372.2,163.4-390.8z"/>
		
			<ellipse transform="matrix(0.839 -0.5441 0.5441 0.839 235.8836 4.9198)" class="st4" cx="126.3" cy="-396.1" rx="17.9" ry="27.4"/>
		
			<ellipse transform="matrix(0.839 -0.5442 0.5442 0.839 233.4762 4.2066)" class="st5" cx="123.8" cy="-392.4" rx="7.4" ry="11.4"/>
		<path class="st1" d="M56.9-339.5c15.5,8.9,42.5,21.8,61.2,23l1.2,0.8C99.8-314,71-331,53.4-337.2L56.9-339.5z"/>
		<ellipse class="st2" cx="71.7" cy="-419.2" rx="37.4" ry="47.5"/>
		<path class="st3" d="M109.1-419.2c0-26.2-16.8-47.5-37.4-47.5c-7.2,0-14,2.6-19.7,7.1c2.9-0.9,6-1.5,9.2-1.5
			c20.7,0,37.4,21.3,37.4,47.5c0,17.1-7.1,32-17.7,40.4C97.1-378.4,109.1-397,109.1-419.2z"/>
		
			<ellipse transform="matrix(0.4274 -0.9041 0.9041 0.4274 391.2944 -61.1054)" class="st2" cx="147.4" cy="-339.5" rx="37.4" ry="47.5"/>
		<path class="st3" d="M163.4-305.6c23.7-11.2,35.8-35.4,26.9-54.1c-3.1-6.5-8.3-11.5-14.8-14.8c2.1,2.3,3.9,4.8,5.3,7.7
			c8.8,18.7-3.2,42.9-26.9,54.1c-15.4,7.3-32,7.3-44.1,1.2C121.4-299,143.3-296.1,163.4-305.6z"/>
		
			<ellipse transform="matrix(0.4274 -0.9041 0.9041 0.4274 373.4862 -65.535)" class="st4" cx="135" cy="-327.6" rx="17.9" ry="27.4"/>
		<path class="st5" d="M134.2-319c5.7-2.7,8.9-7.9,7.1-11.6c-1.8-3.7-7.8-4.5-13.5-1.9c-5.7,2.7-8.9,7.9-7.1,11.6
			C122.5-317.2,128.5-316.3,134.2-319z"/>
		<path class="st6" d="M113.7-286c-39.7-32.3-64.1-38.3-64.1-38.3s9.1,35,48.9,67.2c39.7,32.3,70.2,35,70.2,35
			S153.4-253.7,113.7-286z"/>
		<path class="st1" d="M168.7-222c0,0-81.3-57.7-131.9-112h3.5C40.3-334,71.3-298.1,168.7-222z"/>
		<path class="st1" d="M577.6-98.1c-3.9,10.5-29.8,68.4-126.7,63.4l-0.9,3.2C486.6-30.3,556-36.7,577.6-98.1z"/>
		<path class="st1" d="M577.7-98.4c0.1-0.4,0.2-0.7,0.3-0.9C577.9-99,577.8-98.7,577.7-98.4z"/>
		<path class="st1" d="M578.1-99.6c0,0.1-0.1,0.2-0.1,0.3C578-99.4,578.1-99.5,578.1-99.6z"/>
		
			<ellipse transform="matrix(0.839 -0.5442 0.5442 0.839 154.2157 298.812)" class="st2" cx="582" cy="-111.2" rx="37.4" ry="47.5"/>
		<path class="st3" d="M613.4-90.8c14.3-22,11.8-49-5.6-60.2c-6.1-3.9-13.1-5.4-20.4-4.8c3,0.8,5.9,2.1,8.5,3.8
			c17.3,11.2,19.8,38.2,5.6,60.2c-9.3,14.3-23.4,23-36.9,24.2C581.2-63.1,601.4-72.2,613.4-90.8z"/>
		
			<ellipse transform="matrix(0.839 -0.5441 0.5441 0.839 145.0931 298.0883)" class="st4" cx="576.3" cy="-96.1" rx="17.9" ry="27.4"/>
		
			<ellipse transform="matrix(0.839 -0.5442 0.5442 0.839 142.6874 297.379)" class="st5" cx="573.8" cy="-92.4" rx="7.4" ry="11.4"/>
		<path class="st1" d="M514.8-42.2c3.9-10,5.1-20.4,4.2-31.3h1c1.2,11.6,0.2,22.8-3.7,33.3L514.8-42.2z"/>
		<ellipse class="st2" cx="521.7" cy="-119.2" rx="37.4" ry="47.5"/>
		<path class="st3" d="M559.1-119.2c0-26.2-16.8-47.5-37.4-47.5c-7.2,0-14,2.6-19.7,7.1c2.9-0.9,6-1.5,9.2-1.5
			c20.7,0,37.4,21.3,37.4,47.5c0,17.1-7.1,32-17.7,40.4C547.1-78.4,559.1-97,559.1-119.2z"/>
		<ellipse class="st4" cx="507.4" cy="-107.1" rx="17.9" ry="27.4"/>
		<ellipse class="st5" cx="507.4" cy="-102.7" rx="7.4" ry="11.4"/>
		
			<ellipse transform="matrix(0.4274 -0.9041 0.9041 0.4274 377.7373 517.4913)" class="st2" cx="597.4" cy="-39.5" rx="37.4" ry="47.5"/>
		<path class="st3" d="M613.4-5.6c23.7-11.2,35.8-35.4,26.9-54.1c-3.1-6.5-8.3-11.5-14.8-14.8c2.1,2.3,3.9,4.8,5.3,7.7
			c8.8,18.7-3.2,42.9-26.9,54.1c-15.4,7.3-32,7.3-44.1,1.2C571.4,1,593.3,3.9,613.4-5.6z"/>
		
			<ellipse transform="matrix(0.4274 -0.9041 0.9041 0.4274 359.9279 513.0611)" class="st4" cx="585" cy="-27.6" rx="17.9" ry="27.4"/>
		<path class="st6" d="M473-98.2c-10.7-29.4-39.5-43.3-39.5-43.3s-2,25.1,8.8,54.5C453-57.5,477-39.3,477-39.3S483.7-68.7,473-98.2z
			"/>
		<path class="st1" d="M433.5-141.9c0,0,36.3,102.8,48.6,108.6l0.2-1.9C482.3-35.2,469.7-48,433.5-141.9z"/>
		<path class="st1" d="M277.6-98.1c-3.9,10.5-29.8,68.4-126.7,63.4l-0.9,3.2C186.6-30.3,256-36.7,277.6-98.1z"/>
		<path class="st1" d="M277.7-98.4c0.1-0.4,0.2-0.7,0.3-0.9C277.9-99,277.8-98.7,277.7-98.4z"/>
		<path class="st1" d="M278.1-99.6c0,0.1-0.1,0.2-0.1,0.3C278-99.4,278.1-99.5,278.1-99.6z"/>
		
			<ellipse transform="matrix(0.839 -0.5442 0.5442 0.839 105.9119 135.5667)" class="st2" cx="282" cy="-111.2" rx="37.4" ry="47.5"/>
		<path class="st3" d="M313.4-90.8c14.3-22,11.8-49-5.6-60.2c-6.1-3.9-13.1-5.4-20.4-4.8c3,0.8,5.9,2.1,8.5,3.8
			c17.3,11.2,19.8,38.2,5.6,60.2c-9.3,14.3-23.4,23-36.9,24.2C281.2-63.1,301.4-72.2,313.4-90.8z"/>
		
			<ellipse transform="matrix(0.839 -0.5441 0.5441 0.839 96.791 134.8451)" class="st4" cx="276.3" cy="-96.1" rx="17.9" ry="27.4"/>
		<path class="st5" d="M280.1-88.4c3.4-5.3,3.4-11.4,0-13.6c-3.4-2.2-9,0.2-12.4,5.5c-3.4,5.3-3.4,11.4,0,13.6
			C271.1-80.6,276.7-83.1,280.1-88.4z"/>
		<path class="st1" d="M214.8-42.2c3.9-10,5.1-20.4,4.2-31.3h1c1.2,11.6,0.2,22.8-3.7,33.3L214.8-42.2z"/>
		<ellipse class="st2" cx="221.7" cy="-119.2" rx="37.4" ry="47.5"/>
		<path class="st3" d="M259.1-119.2c0-26.2-16.8-47.5-37.4-47.5c-7.2,0-14,2.6-19.7,7.1c2.9-0.9,6-1.5,9.2-1.5
			c20.7,0,37.4,21.3,37.4,47.5c0,17.1-7.1,32-17.7,40.4C247.1-78.4,259.1-97,259.1-119.2z"/>
		<ellipse class="st4" cx="207.4" cy="-107.1" rx="17.9" ry="27.4"/>
		<ellipse class="st5" cx="207.4" cy="-102.7" rx="7.4" ry="11.4"/>
		
			<ellipse transform="matrix(0.4274 -0.9041 0.9041 0.4274 205.9647 246.276)" class="st2" cx="297.4" cy="-39.5" rx="37.4" ry="47.5"/>
		<path class="st3" d="M313.4-5.6c23.7-11.2,35.8-35.4,26.9-54.1c-3.1-6.5-8.3-11.5-14.8-14.8c2.1,2.3,3.9,4.8,5.3,7.7
			c8.8,18.7-3.2,42.9-26.9,54.1c-15.4,7.3-32,7.3-44.1,1.2C271.4,1,293.3,3.9,313.4-5.6z"/>
		
			<ellipse transform="matrix(0.4274 -0.9041 0.9041 0.4274 188.1562 241.8462)" class="st4" cx="285" cy="-27.6" rx="17.9" ry="27.4"/>
		<path class="st6" d="M173-98.2c-10.7-29.4-39.5-43.3-39.5-43.3s-2,25.1,8.8,54.5C153-57.5,177-39.3,177-39.3S183.7-68.7,173-98.2z
			"/>
		<path class="st1" d="M133.5-141.9c0,0,36.3,102.8,48.6,108.6l0.2-1.9C182.3-35.2,169.7-48,133.5-141.9z"/>
	</g>
</pattern>
<pattern  id="SVGID_1_" xlink:href="#Unnamed_Pattern" patternTransform="matrix(1 0 0 -1 0 -439.2762)">
</pattern>
<rect x="-13.5" y="-4.1" class="st7" width="257" height="287"/>
</svg>
