<?xml version="1.0" encoding="UTF-8" standalone="no"?>
<svg
   xmlns:dc="http://purl.org/dc/elements/1.1/"
   xmlns:cc="http://creativecommons.org/ns#"
   xmlns:rdf="http://www.w3.org/1999/02/22-rdf-syntax-ns#"
   xmlns:svg="http://www.w3.org/2000/svg"
   xmlns="http://www.w3.org/2000/svg"
   xmlns:sodipodi="http://sodipodi.sourceforge.net/DTD/sodipodi-0.dtd"
   xmlns:inkscape="http://www.inkscape.org/namespaces/inkscape"
   version="1.1"
   id="svg2"
   xml:space="preserve"
   width="1333.3333"
   height="1333.3333"
   viewBox="0 0 1333.3333 1333.3333"
   sodipodi:docname="T&amp;T .ai"><metadata
     id="metadata8"><rdf:RDF><cc:Work
         rdf:about=""><dc:format>image/svg+xml</dc:format><dc:type
           rdf:resource="http://purl.org/dc/dcmitype/StillImage" /></cc:Work></rdf:RDF></metadata><defs
     id="defs6"><clipPath
       clipPathUnits="userSpaceOnUse"
       id="clipPath18"><path
         d="M 0,1000 H 1000 V 0 H 0 Z"
         id="path16" /></clipPath></defs><sodipodi:namedview
     pagecolor="#ffffff"
     bordercolor="#666666"
     borderopacity="1"
     objecttolerance="10"
     gridtolerance="10"
     guidetolerance="10"
     inkscape:pageopacity="0"
     inkscape:pageshadow="2"
     inkscape:window-width="640"
     inkscape:window-height="480"
     id="namedview4" /><g
     id="g10"
     inkscape:groupmode="layer"
     inkscape:label="T&amp;T "
     transform="matrix(1.3333333,0,0,-1.3333333,0,1333.3333)"><g
       id="g12"><g
         id="g14"
         clip-path="url(#clipPath18)"><g
           id="g20"
           transform="translate(644.188,412.2358)"><path
             d="m 0,0 h -2.083 l -55.19,53.349 c 6.995,11.027 13.325,22.694 18.852,34.749 l 16.366,29.663 5.063,9.177 h -10.481 -58.7 -3.542 l -1.794,-3.054 -12.701,-21.627 -0.176,-0.299 -0.141,-0.318 c -0.247,-0.555 -0.49,-1.092 -0.726,-1.609 l -52.399,51.173 c -6.234,6.451 -10.822,12.157 -13.641,16.963 -2.51,4.274 -3.783,8.302 -3.783,11.971 0,3.236 1.075,5.683 3.381,7.703 2.517,2.203 5.675,3.274 9.656,3.274 3.816,0 6.709,-1.036 8.837,-3.161 2.066,-2.069 2.992,-5.226 2.83,-9.65 l -0.233,-6.413 h 6.417 55.268 5.946 l 0.237,5.941 c 0.5,12.57 -2.313,24.312 -8.363,34.898 -4.518,7.906 -10.754,14.668 -18.605,20.189 L 0,232.919 Z M 6.187,239.106 H 3.613 -139.522 c 6.715,-1.43 12.826,-3.579 18.334,-6.446 10.985,-5.723 19.223,-13.388 24.716,-22.999 5.493,-9.613 8.008,-20.141 7.552,-31.582 h -55.268 c 0.225,6.179 -1.32,10.925 -4.635,14.246 -3.32,3.315 -7.723,4.977 -13.216,4.977 -5.492,0 -10.073,-1.603 -13.731,-4.806 -3.664,-3.207 -5.493,-7.327 -5.493,-12.358 0,-4.806 1.545,-9.842 4.635,-15.104 3.089,-5.267 7.949,-11.328 14.589,-18.194 l 58.701,-57.328 c 0.456,1.142 1.084,2.515 1.888,4.119 0.8,1.599 1.658,3.433 2.575,5.493 l 12.702,21.626 h 58.7 L -43.95,90.885 C -50.129,77.379 -57.226,64.565 -65.233,52.438 L -4.585,-6.187 H 6.187 V 191.236 H 68.605 V -6.187 h 59.751 v 197.423 h 64.993 v 47.87 z"
             style="fill:#231f20;fill-opacity:1;fill-rule:nonzero;stroke:none"
             id="path22" /></g><g
           id="g24"
           transform="translate(355.812,412.2358)"><path
             d="m 0,0 v 232.919 h 73.763 c -7.508,-5.089 -13.611,-11.306 -18.218,-18.571 -6.561,-10.345 -9.888,-21.97 -9.888,-34.553 0,-8.727 1.403,-16.904 4.166,-24.302 2.032,-5.456 5.092,-11.093 9.125,-16.826 C 45.009,130.938 34.148,121.292 26.607,109.926 17.836,96.708 13.389,81.755 13.389,65.482 13.389,49.422 17.496,35.154 25.592,23.077 31.821,13.773 40.148,6.041 50.422,0 Z m 30.733,26.52 c -7.44,11.097 -11.156,24.083 -11.156,38.962 0,15.104 4.06,28.777 12.186,41.022 8.121,12.241 20.307,22.255 36.559,30.038 -5.953,7.321 -10.185,14.358 -12.701,21.111 -2.521,6.748 -3.776,14.129 -3.776,22.142 0,11.441 2.971,21.852 8.925,31.239 5.948,9.381 14.589,16.761 25.918,22.141 5.508,2.614 11.52,4.587 18.029,5.931 H -3.613 -6.187 -193.349 v -47.87 h 64.992 V -6.187 h 59.752 V 191.236 H -6.187 V -6.187 H 85.684 C 77.313,-4.672 69.577,-2.356 62.487,0.773 48.755,6.834 38.167,15.417 30.733,26.52"
             style="fill:#27aae1;fill-opacity:1;fill-rule:nonzero;stroke:none"
             id="path26" /></g><g
           id="g28"
           transform="translate(530.7651,412.2358)"><path
             d="M 0,0 C 5.213,2.653 10.235,5.666 15.05,9.032 L 24.52,0 Z m -38.428,-6.187 h 78.4 L 15.578,17.079 C -0.219,5.026 -18.229,-2.712 -38.428,-6.187"
             style="fill:#231f20;fill-opacity:1;fill-rule:nonzero;stroke:none"
             id="path30" /></g><g
           id="g32"
           transform="translate(446.2021,464.7202)"><path
             d="m 0,0 c -5.373,4.644 -7.985,10.243 -7.985,17.117 0,10.886 5.739,19.651 17.516,26.697 L 54.207,0.57 C 44.929,-4.682 34.734,-7.248 23.246,-7.248 13.243,-7.248 5.64,-4.877 0,0 m 10.544,51.445 c -16.478,-8.469 -24.716,-19.91 -24.716,-34.328 0,-8.7 3.374,-15.963 10.127,-21.798 6.747,-5.836 15.844,-8.754 27.291,-8.754 15.329,0 28.948,4.344 40.85,13.045 z"
             style="fill:#27aae1;fill-opacity:1;fill-rule:nonzero;stroke:none"
             id="path34" /></g><g
           id="g36"
           transform="translate(188.9497,383.2412)"><path
             d="m 0,0 v -6.683 h -9.073 v -27.559 h -8.341 v 27.559 h -9.073 V 0 Z"
             style="fill:#231f20;fill-opacity:1;fill-rule:nonzero;stroke:none"
             id="path38" /></g><g
           id="g40"
           transform="translate(214.752,361.4863)"><path
             d="M 0,0 -4.244,12.536 -8.438,0 Z m 2.146,-6.439 h -12.78 l -2.048,-6.048 h -8.731 L -9.024,21.755 H 0.634 L 13.023,-12.487 H 4.195 Z"
             style="fill:#231f20;fill-opacity:1;fill-rule:nonzero;stroke:none"
             id="path42" /></g><g
           id="g44"
           transform="translate(266.1147,383.2412)"><path
             d="M 0,0 -12.146,-34.242 H -22.584 L -34.729,0 h 8.877 L -17.365,-25.853 -8.829,0 Z"
             style="fill:#231f20;fill-opacity:1;fill-rule:nonzero;stroke:none"
             id="path46" /></g><g
           id="g48"
           transform="translate(280.3579,376.5586)"><path
             d="m 0,0 v -6.926 h 11.17 v -6.439 H 0 v -7.512 H 12.633 V -27.56 H -8.341 V 6.683 H 12.633 V 0 Z"
             style="fill:#231f20;fill-opacity:1;fill-rule:nonzero;stroke:none"
             id="path50" /></g><g
           id="g52"
           transform="translate(309.1846,367.8271)"><path
             d="M 0,0 H 5.17 C 6.699,0 7.845,0.374 8.609,1.122 9.373,1.87 9.756,2.927 9.756,4.292 9.756,5.593 9.373,6.617 8.609,7.366 7.845,8.113 6.699,8.488 5.17,8.488 H 0 Z M 9.121,-18.828 2,-5.902 H 0 V -18.828 H -8.341 V 15.414 H 5.658 c 2.699,0 5,-0.472 6.902,-1.415 1.902,-0.943 3.325,-2.236 4.268,-3.877 0.943,-1.643 1.415,-3.472 1.415,-5.488 0,-2.276 -0.643,-4.309 -1.927,-6.097 -1.285,-1.789 -3.179,-3.057 -5.683,-3.805 l 7.903,-13.56 z"
             style="fill:#231f20;fill-opacity:1;fill-rule:nonzero;stroke:none"
             id="path54" /></g><g
           id="g56"
           transform="translate(365.7173,348.999)"><path
             d="m 0,0 h -8.341 l -13.95,21.121 V 0 h -8.341 v 34.242 h 8.341 L -8.341,13.023 V 34.242 H 0 Z"
             style="fill:#231f20;fill-opacity:1;fill-rule:nonzero;stroke:none"
             id="path58" /></g><g
           id="g60"
           transform="translate(379.8628,349.8774)"><path
             d="m 0,0 c -1.984,0.812 -3.569,2.016 -4.756,3.609 -1.187,1.593 -1.813,3.512 -1.878,5.756 h 8.878 c 0.13,-1.268 0.569,-2.236 1.317,-2.902 0.748,-0.667 1.723,-1 2.926,-1 1.236,0 2.211,0.284 2.927,0.853 0.715,0.569 1.073,1.358 1.073,2.366 0,0.845 -0.285,1.545 -0.853,2.098 -0.57,0.553 -1.269,1.008 -2.098,1.365 -0.829,0.358 -2.008,0.764 -3.536,1.22 -2.212,0.683 -4.017,1.365 -5.415,2.049 -1.398,0.682 -2.602,1.69 -3.609,3.023 -1.009,1.334 -1.513,3.074 -1.513,5.22 0,3.187 1.155,5.682 3.464,7.487 2.309,1.805 5.317,2.708 9.024,2.708 3.772,0 6.812,-0.903 9.121,-2.708 2.309,-1.805 3.544,-4.316 3.707,-7.536 H 9.755 C 9.69,24.713 9.284,25.583 8.536,26.218 7.788,26.852 6.829,27.169 5.658,27.169 4.65,27.169 3.836,26.9 3.219,26.364 2.601,25.827 2.292,25.055 2.292,24.047 c 0,-1.106 0.521,-1.968 1.562,-2.586 1.04,-0.617 2.666,-1.284 4.877,-1.999 2.211,-0.748 4.007,-1.463 5.39,-2.146 1.382,-0.683 2.577,-1.675 3.585,-2.976 1.008,-1.301 1.512,-2.975 1.512,-5.024 C 19.218,7.365 18.722,5.593 17.73,4 16.738,2.406 15.299,1.138 13.414,0.195 11.527,-0.749 9.3,-1.22 6.731,-1.22 4.227,-1.22 1.983,-0.813 0,0"
             style="fill:#231f20;fill-opacity:1;fill-rule:nonzero;stroke:none"
             id="path62" /></g><g
           id="g64"
           transform="translate(438.5903,361.4863)"><path
             d="M 0,0 -4.244,12.536 -8.438,0 Z m 2.146,-6.439 h -12.78 l -2.049,-6.048 h -8.731 l 12.39,34.242 H 0.634 L 13.023,-12.487 H 4.195 Z"
             style="fill:#231f20;fill-opacity:1;fill-rule:nonzero;stroke:none"
             id="path66" /></g><g
           id="g68"
           transform="translate(488.4409,348.999)"><path
             d="m 0,0 h -8.341 l -13.95,21.121 V 0 h -8.341 v 34.242 h 8.341 L -8.341,13.023 V 34.242 H 0 Z"
             style="fill:#231f20;fill-opacity:1;fill-rule:nonzero;stroke:none"
             id="path70" /></g><g
           id="g72"
           transform="translate(516.5854,358.8037)"><path
             d="m 0,0 c 1.756,1.723 2.634,4.162 2.634,7.316 0,3.154 -0.878,5.61 -2.634,7.366 -1.756,1.755 -4.211,2.634 -7.365,2.634 h -3.951 V -2.585 h 3.951 c 3.154,0 5.609,0.86 7.365,2.585 m 2.634,22.291 c 2.699,-1.431 4.788,-3.439 6.268,-6.024 1.479,-2.585 2.219,-5.569 2.219,-8.951 0,-3.349 -0.74,-6.325 -2.219,-8.926 C 7.422,-4.212 5.324,-6.228 2.61,-7.659 -0.106,-9.09 -3.252,-9.805 -6.829,-9.805 h -12.828 v 34.242 h 12.828 c 3.61,0 6.764,-0.715 9.463,-2.146"
             style="fill:#231f20;fill-opacity:1;fill-rule:nonzero;stroke:none"
             id="path74" /></g><g
           id="g76"
           transform="translate(572.2397,383.2412)"><path
             d="m 0,0 v -6.683 h -9.073 v -27.559 h -8.341 v 27.559 h -9.072 V 0 Z"
             style="fill:#231f20;fill-opacity:1;fill-rule:nonzero;stroke:none"
             id="path78" /></g><g
           id="g80"
           transform="translate(587.2139,367.8271)"><path
             d="M 0,0 H 5.17 C 6.698,0 7.845,0.374 8.609,1.122 9.373,1.87 9.755,2.927 9.755,4.292 9.755,5.593 9.373,6.617 8.609,7.366 7.845,8.113 6.698,8.488 5.17,8.488 H 0 Z M 9.121,-18.828 2,-5.902 H 0 V -18.828 H -8.341 V 15.414 H 5.658 c 2.698,0 4.999,-0.472 6.902,-1.415 1.902,-0.943 3.324,-2.236 4.268,-3.877 0.943,-1.643 1.415,-3.472 1.415,-5.488 0,-2.276 -0.643,-4.309 -1.927,-6.097 -1.285,-1.789 -3.179,-3.057 -5.683,-3.805 l 7.902,-13.56 z"
             style="fill:#231f20;fill-opacity:1;fill-rule:nonzero;stroke:none"
             id="path82" /></g><g
           id="g84"
           transform="translate(621.4551,376.5586)"><path
             d="m 0,0 v -6.926 h 11.17 v -6.439 H 0 v -7.512 H 12.633 V -27.56 H -8.341 V 6.683 H 12.633 V 0 Z"
             style="fill:#231f20;fill-opacity:1;fill-rule:nonzero;stroke:none"
             id="path86" /></g><g
           id="g88"
           transform="translate(661.1104,361.4863)"><path
             d="M 0,0 -4.244,12.536 -8.438,0 Z m 2.146,-6.439 h -12.78 l -2.048,-6.048 h -8.732 l 12.39,34.242 H 0.634 L 13.023,-12.487 H 4.195 Z"
             style="fill:#231f20;fill-opacity:1;fill-rule:nonzero;stroke:none"
             id="path90" /></g><g
           id="g92"
           transform="translate(685.9873,349.8774)"><path
             d="M 0,0 C -1.984,0.812 -3.569,2.016 -4.756,3.609 -5.944,5.202 -6.569,7.121 -6.634,9.365 H 2.244 C 2.373,8.097 2.812,7.129 3.56,6.463 c 0.748,-0.667 1.724,-1 2.927,-1 1.236,0 2.211,0.284 2.927,0.853 0.715,0.569 1.073,1.358 1.073,2.366 0,0.845 -0.285,1.545 -0.854,2.098 -0.57,0.553 -1.268,1.008 -2.097,1.365 -0.829,0.358 -2.008,0.764 -3.537,1.22 -2.211,0.683 -4.016,1.365 -5.414,2.049 -1.398,0.682 -2.602,1.69 -3.609,3.023 -1.009,1.334 -1.513,3.074 -1.513,5.22 0,3.187 1.154,5.682 3.464,7.487 2.308,1.805 5.317,2.708 9.023,2.708 3.773,0 6.813,-0.903 9.122,-2.708 2.308,-1.805 3.544,-4.316 3.707,-7.536 H 9.755 c -0.066,1.105 -0.472,1.975 -1.219,2.61 -0.749,0.634 -1.707,0.951 -2.878,0.951 -1.009,0 -1.822,-0.269 -2.439,-0.805 -0.618,-0.537 -0.927,-1.309 -0.927,-2.317 0,-1.106 0.52,-1.968 1.561,-2.586 1.04,-0.617 2.666,-1.284 4.877,-1.999 2.212,-0.748 4.008,-1.463 5.391,-2.146 1.381,-0.683 2.577,-1.675 3.585,-2.976 1.007,-1.301 1.512,-2.975 1.512,-5.024 C 19.218,7.365 18.722,5.593 17.73,4 16.738,2.406 15.299,1.138 13.414,0.195 11.527,-0.749 9.299,-1.22 6.731,-1.22 4.227,-1.22 1.983,-0.813 0,0"
             style="fill:#231f20;fill-opacity:1;fill-rule:nonzero;stroke:none"
             id="path94" /></g><g
           id="g96"
           transform="translate(720.96,383.2412)"><path
             d="m 0,0 v -20.486 c 0,-2.049 0.504,-3.627 1.512,-4.732 1.008,-1.106 2.488,-1.658 4.439,-1.658 1.951,0 3.446,0.552 4.487,1.658 1.041,1.105 1.562,2.683 1.562,4.732 V 0 h 8.341 v -20.438 c 0,-3.057 -0.651,-5.642 -1.951,-7.756 -1.302,-2.114 -3.049,-3.707 -5.244,-4.78 -2.195,-1.073 -4.643,-1.609 -7.341,-1.609 -2.7,0 -5.114,0.528 -7.243,1.585 -2.131,1.056 -3.813,2.65 -5.049,4.78 -1.237,2.13 -1.853,4.723 -1.853,7.78 V 0 Z"
             style="fill:#231f20;fill-opacity:1;fill-rule:nonzero;stroke:none"
             id="path98" /></g><g
           id="g100"
           transform="translate(757.9331,367.8271)"><path
             d="M 0,0 H 5.17 C 6.699,0 7.845,0.374 8.609,1.122 9.373,1.87 9.756,2.927 9.756,4.292 9.756,5.593 9.373,6.617 8.609,7.366 7.845,8.113 6.699,8.488 5.17,8.488 H 0 Z M 9.121,-18.828 2,-5.902 H 0 V -18.828 H -8.341 V 15.414 H 5.658 c 2.699,0 5,-0.472 6.902,-1.415 1.902,-0.943 3.325,-2.236 4.268,-3.877 0.943,-1.643 1.415,-3.472 1.415,-5.488 0,-2.276 -0.643,-4.309 -1.927,-6.097 -1.285,-1.789 -3.179,-3.057 -5.683,-3.805 l 7.903,-13.56 z"
             style="fill:#231f20;fill-opacity:1;fill-rule:nonzero;stroke:none"
             id="path102" /></g><g
           id="g104"
           transform="translate(792.1748,376.5586)"><path
             d="m 0,0 v -6.926 h 11.17 v -6.439 H 0 v -7.512 H 12.633 V -27.56 H -8.341 V 6.683 H 12.633 V 0 Z"
             style="fill:#231f20;fill-opacity:1;fill-rule:nonzero;stroke:none"
             id="path106" /></g><g
           id="g108"
           transform="translate(818.3188,349.8774)"><path
             d="M 0,0 C -1.984,0.812 -3.569,2.016 -4.756,3.609 -5.944,5.202 -6.569,7.121 -6.634,9.365 H 2.244 C 2.373,8.097 2.812,7.129 3.56,6.463 c 0.748,-0.667 1.724,-1 2.927,-1 1.236,0 2.211,0.284 2.927,0.853 0.715,0.569 1.073,1.358 1.073,2.366 0,0.845 -0.285,1.545 -0.854,2.098 -0.569,0.553 -1.268,1.008 -2.097,1.365 -0.829,0.358 -2.008,0.764 -3.536,1.22 -2.212,0.683 -4.017,1.365 -5.415,2.049 -1.398,0.682 -2.602,1.69 -3.609,3.023 -1.009,1.334 -1.513,3.074 -1.513,5.22 0,3.187 1.155,5.682 3.464,7.487 2.308,1.805 5.317,2.708 9.023,2.708 3.773,0 6.813,-0.903 9.122,-2.708 2.308,-1.805 3.544,-4.316 3.707,-7.536 H 9.755 C 9.69,24.713 9.284,25.583 8.536,26.218 7.788,26.852 6.829,27.169 5.658,27.169 4.649,27.169 3.836,26.9 3.219,26.364 2.601,25.827 2.292,25.055 2.292,24.047 c 0,-1.106 0.52,-1.968 1.561,-2.586 1.041,-0.617 2.666,-1.284 4.878,-1.999 2.211,-0.748 4.007,-1.463 5.39,-2.146 1.381,-0.683 2.577,-1.675 3.585,-2.976 1.008,-1.301 1.512,-2.975 1.512,-5.024 C 19.218,7.365 18.722,5.593 17.73,4 16.738,2.406 15.299,1.138 13.414,0.195 11.527,-0.749 9.299,-1.22 6.731,-1.22 4.227,-1.22 1.983,-0.813 0,0"
             style="fill:#231f20;fill-opacity:1;fill-rule:nonzero;stroke:none"
             id="path110" /></g></g></g></g></svg>
