<?xml version="1.0" encoding="utf-8"?>
<!-- Generator: Adobe Illustrator 25.0.0, SVG Export Plug-In . SVG Version: 6.00 Build 0)  -->
<svg version="1.1" id="publicdomainvectors.org" xmlns="http://www.w3.org/2000/svg" xmlns:xlink="http://www.w3.org/1999/xlink"
	 x="0px" y="0px" viewBox="0 0 473.6 467.5" style="enable-background:new 0 0 473.6 467.5;" xml:space="preserve">
<style type="text/css">
	.st0{fill-rule:evenodd;clip-rule:evenodd;fill:#E0D7D4;}
	.st1{fill-rule:evenodd;clip-rule:evenodd;fill:#342E2A;}
	.st2{fill-rule:evenodd;clip-rule:evenodd;fill:#D55527;}
	.st3{fill-rule:evenodd;clip-rule:evenodd;fill:#7D706A;}
	.st4{fill-rule:evenodd;clip-rule:evenodd;fill:#4E4542;}
	.st5{fill-rule:evenodd;clip-rule:evenodd;fill:#A15D38;}
	.st6{fill-rule:evenodd;clip-rule:evenodd;fill:#B56E47;}
	.st7{fill-rule:evenodd;clip-rule:evenodd;fill:#CCAB98;}
	.st8{fill-rule:evenodd;clip-rule:evenodd;fill:#FEE6D9;}
	.st9{fill-rule:evenodd;clip-rule:evenodd;fill:#DDC3B4;}
</style>
<path class="st0" d="M324.6,219l130.4-41.7c7.1-2.3,14.7,1.3,17.5,8.1c2.8,6.8-0.2,14.5-6.7,18.1L343,273.2L324.6,219z"/>
<polygon class="st1" points="272.5,222.7 322.2,212.3 363.6,246.9 342.3,298.3 "/>
<path class="st2" d="M4.6,342.3l10.6,27.4c14.5,37.6,44.2,67.3,81.8,81.8c24.2,9.3,49.6,14.7,75.1,16c25.5-1.3,50.9-6.7,75.1-16
	c37.6-14.5,67.3-44.2,81.8-81.8l10.6-27.4C117.5,379.1,226.5,379.1,4.6,342.3z"/>
<ellipse class="st0" cx="172" cy="315.3" rx="172" ry="117.1"/>
<path class="st3" d="M172,393.5c79.8,0,144.9-41.3,144.9-91.9c0-50.6-65.1-91.9-144.9-91.9c-79.8,0-144.9,41.3-144.9,91.9
	C27.1,352.3,92.2,393.5,172,393.5z"/>
<path class="st4" d="M292.2,353.1c-26.1,24.4-70.1,40.5-120.1,40.5c-50,0-94.1-16.1-120.1-40.5c-0.8-3.5-1.2-7.1-1.2-10.8
	c0-42.5,54.3-76.9,121.3-76.9c67,0,121.3,34.4,121.3,76.9C293.4,345.9,293,349.5,292.2,353.1z"/>
<path class="st1" d="M162.1,384.2c10,5.9,23,7.2,34.4,3.3c11.4-3.8,19.6-12.2,21.8-22.2c1.9-8.9,11.8-15,22.6-14.2
	c18.1,1.4,34.3-9.2,36.7-24c2.5-14.9-9.7-28.7-27.5-31.3c-21.2-3.1-41.3-10.1-58.9-20.5c-12.5-7.4-28.8-9-43-4.2
	c-14.3,4.8-24.6,15.3-27.3,27.8c-2.7,12.4-12.5,22.8-26.3,28.1c-12,4.5-19.4,14.6-18.7,25.4c0.7,10.8,9.3,20.3,21.8,23.7
	c6.5,1.8,13.3,1.8,19.6,0.2c13.6-3.4,26.9-1.9,38.9,4.5L162.1,384.2z"/>
<path class="st5" d="M152.4,374.7c10,5.9,23,7.2,34.4,3.3c11.4-3.8,19.6-12.2,21.8-22.2c1.9-8.9,11.8-15,22.6-14.2
	c18.1,1.4,34.3-9.2,36.7-24c0.3-1.6,0.4-3.2,0.3-4.8h0v-33h-27.5v6.5c-0.1,0-0.3,0-0.4-0.1c-21.2-3.1-41.3-10.1-58.9-20.5
	c-12.5-7.4-28.8-9-43-4.2c-14.3,4.8-24.6,15.3-27.3,27.9c-1.8,8.1-6.6,15.4-13.7,21v-5.2H66.2v35c-0.1,0.9-0.1,1.8,0,2.7
	c0.7,10.8,9.3,20.3,21.8,23.7c6.5,1.8,13.3,1.8,19.6,0.2c13.6-3.4,26.9-1.9,38.9,4.5L152.4,374.7z"/>
<path class="st6" d="M162.3,378.8c6,1.6,12.3,1.8,18.5,0.7v-50.6h-18.5V378.8L162.3,378.8z M236.8,341.7c4.5-0.3,8.9-1.3,12.8-2.9
	v-53.1h-8.8v0.6c-0.1,0-0.3,0-0.4-0.1c-1.2-0.2-2.4-0.4-3.6-0.6h0V341.7L236.8,341.7z M96.2,368c3.8,0.2,7.6-0.2,11.3-1.1
	c4.9-1.2,9.8-1.8,14.6-1.8v-45.6H96.2V368z"/>
<path class="st7" d="M152.4,340.7c10,5.9,23,7.2,34.4,3.3c11.4-3.8,19.6-12.2,21.8-22.2c1.9-8.9,11.8-15,22.6-14.2
	c18.1,1.4,34.3-9.2,36.7-24c2.5-14.9-9.7-28.7-27.5-31.3c-21.2-3.1-41.3-10.1-58.9-20.5c-12.5-7.4-28.8-9-43-4.2
	c-14.3,4.8-24.6,15.3-27.3,27.9c-2.7,12.4-12.5,22.8-26.3,28.1c-12,4.5-19.4,14.6-18.7,25.4c0.7,10.9,9.3,20.3,21.8,23.7
	c6.5,1.8,13.3,1.8,19.6,0.2c13.6-3.4,26.9-1.9,38.9,4.5L152.4,340.7z"/>
<path class="st5" d="M154.5,334.1c9.3,5.5,21.1,6.3,31,3c7.4-2.5,16.4-8.5,18.5-18.2c1.4-6.5,5.5-11.3,10.4-14.4
	c5.2-3.3,11.3-4.5,17.2-4.1c7.3,0.6,15.2-1,21.6-5.2c4.6-3,9.1-7.8,10.1-14.2c0.3-1.6,0.3-3.3,0.1-5c-0.7-5-3.6-9.2-7-12.2
	c-4.7-4.2-10.7-6.5-16.6-7.4c-20.8-3.1-41.5-9.9-60.4-21c-11.9-7-27-8.1-39.7-3.8c-9.7,3.3-21.2,11.1-23.9,23.8
	c-3.6,16.5-16.7,27.2-29.5,32.1c-7,2.6-16,9.4-15.4,19.6c0.6,10.3,10.7,16.5,18.1,18.6c5.7,1.6,11.8,1.6,17.5,0.2
	c14.1-3.6,28.6-2.2,41.8,4.9L154.5,334.1L154.5,334.1z"/>
<path class="st7" d="M141.7,269.6l0.6-4.9c0.1-0.9-0.2-1.8-0.7-2.6c-0.7-1-1.8-1.9-3.2-2.5c-1.5-0.7-3.2-1-4.8-0.9
	c-1.7,0.1-3.3,0.5-4.7,1.2c-2.5,1.3-5.3,2-8.2,1.9c-2.8,0-5.6-0.7-8.1-2.2l1.5-3.8c2,1.1,4.3,1.7,6.6,1.7c2.4,0,4.7-0.5,6.7-1.6
	c1.8-1,3.9-1.5,6-1.6c2.1-0.1,4.3,0.3,6.2,1.2c2,0.9,3.6,2.2,4.7,3.8c1.2,1.7,1.7,3.8,1.5,5.9l-0.6,4.9L141.7,269.6L141.7,269.6z
	 M179.6,271l10.6-0.6c1-0.1,1.9-0.4,2.7-1c0.8-0.6,1.5-1.4,2-2.4l0,0c0.5-1,0.7-2.1,0.8-3.3c0-1.1-0.2-2.3-0.6-3.3
	c-0.8-1.8-1.1-3.7-1.1-5.7c0-2,0.5-3.9,1.3-5.6l0,0c0.8-1.7,2.2-3.2,3.8-4.2c1.7-1.1,3.6-1.8,5.3-1.9l0.2,4.2
	c-1.2,0.1-2.6,0.6-3.8,1.4c-1.1,0.7-2,1.6-2.5,2.6v0c-0.5,1.1-0.8,2.4-0.8,3.6c0,1.2,0.2,2.5,0.7,3.6c0.7,1.7,1.1,3.5,1,5.3
	c0,1.8-0.4,3.7-1.2,5.3v0c-0.8,1.6-1.9,3-3.2,3.9c-1.3,1-2.8,1.5-4.4,1.6l-10.6,0.6L179.6,271L179.6,271z M178,288.7l2.5,5
	c0.5,0.9,1.2,1.7,2,2.4c0.9,0.7,2,1.2,3.3,1.5c1.3,0.3,2.6,0.3,3.8,0.1c1.2-0.2,2.4-0.6,3.4-1.3c2.1-1.4,4.5-2.3,7-2.7
	c2.5-0.4,5.1-0.3,7.6,0.3c2.5,0.6,4.8,1.7,6.8,3.2c2,1.5,3.6,3.4,4.8,5.7l-3,2.2c-0.8-1.7-2.1-3.1-3.6-4.3c-1.6-1.2-3.5-2.1-5.6-2.6
	c-2.1-0.5-4.3-0.6-6.4-0.2c-2.1,0.3-4.1,1.1-5.8,2.2c-1.4,0.9-3,1.5-4.6,1.8c-1.6,0.3-3.3,0.2-4.9-0.2c-1.7-0.4-3.2-1.1-4.5-2.1
	c-1.3-1-2.4-2.3-3.2-3.8l-2.5-5L178,288.7L178,288.7z M153.5,294.1l-10.1,2.4c-1,0.2-2,0.7-2.8,1.3c-0.8,0.6-1.5,1.3-2,2.2
	c-0.5,0.8-0.8,1.7-0.9,2.6c-0.1,0.9,0,1.8,0.2,2.6c0.8,2.5,1,5,0.7,7.5c-0.3,2.5-1.1,4.9-2.4,7.1c-1.2,2.1-2.8,3.8-4.6,5.3
	c-2,1.6-4.2,2.9-6.6,4l-1.2-4c2.2-0.9,4.2-2.1,5.9-3.5c1.5-1.2,2.8-2.6,3.7-4.3c1-1.6,1.6-3.4,1.8-5.3v0c0.2-1.8,0.1-3.7-0.5-5.5
	c-0.5-1.5-0.6-3.1-0.4-4.7c0.2-1.6,0.7-3.1,1.5-4.4c0.8-1.3,1.8-2.4,3-3.3c1.2-0.9,2.5-1.5,4-1.8l7.3-1.7L153.5,294.1z"/>
<path class="st8" d="M160,295.5c14.2,0,25.7-7.3,25.7-16.1c0-8.9-11.5-16.1-25.7-16.1c-14.2,0-25.7,7.3-25.7,16.1
	C134.3,288.3,145.8,295.5,160,295.5z"/>
<path class="st9" d="M160,289.8c9.1,0,16.5-4.6,16.5-10.3c0-5.7-7.4-10.3-16.5-10.3c-9.1,0-16.5,4.6-16.5,10.3
	C143.5,285.1,150.9,289.8,160,289.8z"/>
<path class="st7" d="M160,269.1c3.5,0,6.7,0.7,9.4,1.8c-10.6,0.3-19.1,6.1-19.1,13.2c0,1.4,0.3,2.8,0.9,4c-4.6-1.8-7.7-5.1-7.7-8.7
	C143.5,273.7,150.9,269.1,160,269.1z"/>
</svg>
