<?xml version="1.0" encoding="utf-8"?>
<!-- Generator: Adobe Illustrator 25.0.0, SVG Export Plug-In . SVG Version: 6.00 Build 0)  -->
<svg version="1.1" id="publicdomainvectors.org" xmlns="http://www.w3.org/2000/svg" xmlns:xlink="http://www.w3.org/1999/xlink"
	 x="0px" y="0px" viewBox="0 0 473.6 467.5" style="enable-background:new 0 0 473.6 467.5;" xml:space="preserve">
<style type="text/css">
	.st0{fill-rule:evenodd;clip-rule:evenodd;fill:#E0D7D4;}
	.st1{fill-rule:evenodd;clip-rule:evenodd;fill:#342E2A;}
	.st2{fill-rule:evenodd;clip-rule:evenodd;fill:#D55527;}
	.st3{fill-rule:evenodd;clip-rule:evenodd;fill:#7D706A;}
	.st4{fill-rule:evenodd;clip-rule:evenodd;fill:#4E4542;}
</style>
<path class="st0" d="M324.6,219l130.4-41.7c7.1-2.3,14.7,1.3,17.5,8.1c2.8,6.8-0.2,14.5-6.7,18.1L343,273.2L324.6,219z"/>
<polygon class="st1" points="272.5,222.7 322.2,212.3 363.6,246.9 342.3,298.3 "/>
<path class="st2" d="M4.6,342.3l10.6,27.4c14.5,37.6,44.2,67.3,81.8,81.8c24.2,9.3,49.6,14.7,75.1,16c25.5-1.3,50.9-6.7,75.1-16
	c37.6-14.5,67.3-44.2,81.8-81.8l10.6-27.4C117.5,379.1,226.5,379.1,4.6,342.3z"/>
<ellipse class="st0" cx="172" cy="315.3" rx="172" ry="117.1"/>
<path class="st3" d="M172,393.5c79.8,0,144.9-41.3,144.9-91.9c0-50.6-65.1-91.9-144.9-91.9c-79.8,0-144.9,41.3-144.9,91.9
	C27.1,352.3,92.2,393.5,172,393.5z"/>
<path class="st4" d="M292.2,353.1c-26.1,24.4-70.1,40.5-120.1,40.5c-50,0-94.1-16.1-120.1-40.5c-0.8-3.5-1.2-7.1-1.2-10.8
	c0-42.5,54.3-76.9,121.3-76.9c67,0,121.3,34.4,121.3,76.9C293.4,345.9,293,349.5,292.2,353.1z"/>
<path class="st1" d="M162.1,384.2c10,5.9,23,7.2,34.4,3.3c11.4-3.8,19.6-12.2,21.8-22.2c1.9-8.9,11.8-15,22.6-14.2
	c18.1,1.4,34.3-9.2,36.7-24c2.5-14.9-9.7-28.7-27.5-31.3c-21.2-3.1-41.3-10.1-58.9-20.5c-12.5-7.4-28.8-9-43-4.2
	c-14.3,4.8-24.6,15.3-27.3,27.8c-2.7,12.4-12.5,22.8-26.3,28.1c-12,4.5-19.4,14.6-18.7,25.4c0.7,10.8,9.3,20.3,21.8,23.7
	c6.5,1.8,13.3,1.8,19.6,0.2c13.6-3.4,26.9-1.9,38.9,4.5L162.1,384.2z"/>
</svg>
