<?xml version="1.0" encoding="utf-8"?>
<!-- Generator: Adobe Illustrator 25.0.0, SVG Export Plug-In . SVG Version: 6.00 Build 0)  -->
<svg version="1.1" id="publicdomainvectors.org" xmlns="http://www.w3.org/2000/svg" xmlns:xlink="http://www.w3.org/1999/xlink"
	 x="0px" y="0px" viewBox="0 0 328.2 328.2" style="enable-background:new 0 0 328.2 328.2;" xml:space="preserve">
<style type="text/css">
	.st0{fill-rule:evenodd;clip-rule:evenodd;fill:#D9AB57;}
	.st1{fill-rule:evenodd;clip-rule:evenodd;fill:#634206;}
	.st2{fill-rule:evenodd;clip-rule:evenodd;fill:#A66F08;}
	.st3{fill-rule:evenodd;clip-rule:evenodd;fill:#7A5105;}
	.st4{fill-rule:evenodd;clip-rule:evenodd;fill:#DEA131;}
	.st5{fill-rule:evenodd;clip-rule:evenodd;fill:#FCC358;}
	.st6{fill-rule:evenodd;clip-rule:evenodd;fill:#FFD587;}
	.st7{fill-rule:evenodd;clip-rule:evenodd;fill:#FFFFFF;}
	.st8{fill-rule:evenodd;clip-rule:evenodd;fill:#FFBB00;}
</style>
<ellipse transform="matrix(0.7071 -0.7071 0.7071 0.7071 -67.964 164.0798)" class="st0" cx="164.1" cy="164.1" rx="164.1" ry="164.1"/>
<ellipse transform="matrix(0.7071 -0.7071 0.7071 0.7071 -67.9641 164.08)" class="st1" cx="164.1" cy="164.1" rx="150.2" ry="150.2"/>
<ellipse transform="matrix(0.7071 -0.7071 0.7071 0.7071 -67.964 164.0797)" class="st2" cx="164.1" cy="164.1" rx="135.2" ry="135.2"/>
<path class="st3" d="M164.1,272.1c59.5,0,108-48.5,108-108c0-59.5-48.5-108-108-108c-59.5,0-108,48.5-108,108
	C56.1,223.6,104.6,272.1,164.1,272.1z"/>
<path class="st4" d="M146.3,208.8c-8.4,2.3-16.9,0.9-23.9-3.2c-0.9-0.5-1.7-1-2.5-1.6c-0.5-0.1-1-0.2-1.6-0.4l-25,25
	c-3.8,3.8-6.2,8.6-7.1,13.6c-0.9,5-0.3,10.4,2,15.2c2.3,4.9,5.9,8.8,10.4,11.3c4.4,2.6,9.6,3.8,15,3.3c5.4-0.5,10.3-2.6,14.2-5.9
	c3.9-3.3,6.9-7.8,8.3-13c4-15,13.8-27,26.3-34.2c2.3-1.3,4.7-2.5,7.2-3.5c-1.7-4.8-2.9-9.7-3.7-14.6c-6.6,2.4-13.4,4-20.3,4.7
	L146.3,208.8L146.3,208.8z M112.2,196.4l-0.2-0.3l-0.3,0.1L112.2,196.4L112.2,196.4z M109.4,191.5c-0.7-1.6-1.3-3.3-1.8-5
	c-2.3-8.4-0.9-16.9,3.2-23.9l0,0c4-7,10.7-12.4,19.2-14.7c4.4-1.2,8.3-3.5,11.3-6.7c-0.4-0.5-0.7-1-1.1-1.5
	c-2.7,0.8-5.5,1.2-8.2,1.2c-7.5,0-15.1-2.9-20.8-8.6c-0.6-0.6-1.2-1.2-1.8-1.7c-6.1,1.2-12.2,0.7-17.8-1.3c-4.6-1.7-8.8-4.4-12.3-8
	c-0.6,0.1-1.3,0.2-1.9,0.3L77,122v0c-5.3,9.2-7.2,19.7-5.9,29.7c1.3,10,5.9,19.6,13.4,27.1c6.1,6.1,13,11,20.4,14.5
	C106.4,192.8,108,192.2,109.4,191.5L109.4,191.5z M112.7,185.2c-1.9-7-0.7-14.1,2.6-20v0c3.4-5.8,9-10.4,16-12.3
	c4.8-1.3,9.1-3.7,12.6-7c2,4.7,2.7,9.7,2,14.6c-0.5,3.5-1.6,7-3.4,10.1c-8.4,7.5-18,13.8-28.3,18.7
	C113.6,188,113.1,186.6,112.7,185.2L112.7,185.2z M116.9,193.9c2.7-1.3,5.3-2.7,7.9-4.1l-6.2,6.2C118,195.3,117.4,194.6,116.9,193.9
	L116.9,193.9z M147.6,129.9c-1.8,1.5-3.8,2.7-5.8,3.6c-3.1-3.1-6.7-5.5-10.7-7.2c-6.3-2.6-13.4-3.3-20.4-1.6c-6.8-5.2-14.8-8.2-23-9
	c-2.1-0.2-4.2-0.2-6.4-0.1l0,0c5-6.1,11.4-10.8,18.5-13.7c9.3-3.9,19.9-4.7,30.2-2c5.4,1.4,10,4.6,13.2,8.8
	c3.2,4.2,5.1,9.5,5.1,15.1C148.3,126,148,128,147.6,129.9L147.6,129.9z M152.2,132.8c-1,3.2-2.5,6.2-4.5,8.9
	c3.2,6.1,4.3,12.9,3.4,19.5c-0.1,0.4-0.1,0.8-0.2,1.2c13-14.1,22.7-31.3,27.8-50.4c3.2-11.8,1.2-23.8-4.4-33.7v0
	c-5.7-9.8-15.1-17.5-26.9-20.7l1.4-5.1c13.2,3.5,23.8,12.1,30.1,23.1l0,0c6.3,11,8.5,24.4,5,37.6c-5.8,21.6-17.1,40.9-32.4,56.2
	c-1.5,1.5-3.1,3.1-4.8,4.5c-1.3,2.2-3,4.3-4.9,6.2l-19.1,19.1c5,1,10,1.5,15,1.5c9.3,0,18.6-1.7,27.4-5.1c-0.3-2.7-0.4-5.5-0.4-8.2
	c0-21.6,8.2-43.2,24.7-59.6c3.9-3.9,8.2-7.5,12.8-10.6c-2.1-3.4-3.7-7-4.8-11c-1.9-7-1.8-14.2,0-21c1.8-6.8,5.4-13.1,10.5-18.2
	c3.7-3.7,8.4-6.1,13.4-7c5-0.9,10.2-0.3,15,2c4.8,2.2,8.6,5.8,11.1,10.2c2.5,4.4,3.7,9.5,3.3,14.7c-0.5,5.3-2.5,10.1-5.8,13.9
	c-3.2,3.9-7.6,6.7-12.7,8.1c-7.4,2-14.5,4.9-21,8.7l0,0c-0.5,0.3-1,0.6-1.5,0.9c0.6,0.7,1.3,1.5,2,2.2c4.3,4.3,9.8,7.5,15.9,9.2
	c12.2,3.3,22,11.2,27.9,21.4l0,0c5.1,8.9,7.3,19.5,5.6,30.2c4.6,5.3,8,11.7,9.8,18.7c2.8,10.6,1.9,21.5-2,31.2
	c-4,9.6-11.1,18-20.6,23.5c-9.5,5.5-20.3,7.5-30.7,6.1c-10.4-1.4-20.3-6-28-13.8c-7.9-7.9-13.9-17-18-26.6c-2.2,0.9-4.4,2-6.5,3.2
	c-11.3,6.5-20.2,17.4-23.8,31.1c-1.7,6.3-5.2,11.6-10,15.6c-4.7,4-10.7,6.5-17.1,7.1c-6.4,0.6-12.7-0.9-18.1-4
	c-5.4-3.1-9.8-7.8-12.5-13.6c-2.7-5.9-3.5-12.3-2.4-18.4c1.1-6.1,4-11.9,8.5-16.4l23-23c-2.7-0.9-5.3-1.9-7.8-3
	c-3.1,1.1-6.3,2.1-9.5,2.9c-10.3,2.8-20.8,1.6-29.9-2.6c-9.1-4.2-16.7-11.6-21.2-21.2c-4.5-9.6-5.2-20.2-2.6-29.9
	c2.6-9.7,8.5-18.5,17.2-24.6c4.8-3.3,10-5.6,15.4-6.8c0.3-0.4,0.5-0.8,0.8-1.2c-3.3-5.3-4.9-11.3-4.9-17.3c0-6.6,2-13.2,5.9-18.8
	c4-5.7,9.5-9.8,15.7-12c6.2-2.3,13.1-2.6,19.7-0.9c7.8,2.1,15.4,5.2,22.3,9.3c7,4,13.4,9,19.2,14.7c5.7,5.7,8.6,13.3,8.6,20.8
	c0,7.5-2.9,15.1-8.6,20.8C152.6,132.5,152.4,132.6,152.2,132.8L152.2,132.8z M147.3,105.7c-3.9-5.1-9.5-9-16-10.7
	c-11.4-3.1-23.2-2.1-33.5,2.2c-7.4,3.1-14.1,7.8-19.5,14c-2.1-4-3.1-8.4-3.1-12.8c0-5.5,1.7-11.1,5-15.8c3.3-4.7,8-8.2,13.2-10.1
	c5.2-1.9,11-2.2,16.6-0.7c7.4,2,14.5,4.9,21.1,8.7c6.6,3.8,12.7,8.5,18.1,13.9c4.7,4.7,7.1,10.9,7.1,17.1c0,3.8-0.9,7.5-2.6,11
	C153.2,116.3,151,110.5,147.3,105.7L147.3,105.7z M65.9,152.3c1.5,11.1,6.5,21.8,14.9,30.2c5.3,5.3,11.1,9.7,17.3,13.2
	c-1.4,0.4-2.8,0.8-4.2,1.2c-9,2.4-18.3,1.4-26.3-2.3c-8-3.7-14.7-10.2-18.7-18.7c-4-8.5-4.6-17.8-2.3-26.3
	c2.3-8.5,7.5-16.3,15.1-21.6c2.7-1.9,5.7-3.4,8.7-4.6C66.1,132.6,64.7,142.6,65.9,152.3L65.9,152.3z M170.1,193.5
	c7.5-3.6,14.5-8.5,20.8-14.7c6-6,13.4-10.2,21.4-12.3c8-2.1,16.5-2.2,24.7,0c7.2,1.9,13.7,5.5,19.2,10.3c0.5-8.1-1.5-16-5.4-22.8v0
	c-5.2-9-13.8-16-24.7-18.9c-7-1.9-13.3-5.6-18.2-10.5c-0.9-1-1.9-1.9-2.7-3c-4.3,3-8.4,6.3-12.1,10.1
	c-15.4,15.4-23.2,35.7-23.2,55.9C169.9,189.5,170,191.5,170.1,193.5L170.1,193.5z M194.6,182.5c-7.1,7.1-15.2,12.6-23.9,16.5
	c0.7,5.1,2,10.1,3.7,14.9c9.6-2.9,20.2-3.2,30.6-0.4c10.8,2.9,21.8,1.1,30.8-4.1c9-5.2,16-13.8,18.9-24.7c0.2-0.6,0.3-1.1,0.4-1.7
	c-0.2-0.2-0.4-0.4-0.6-0.6c-5.2-5.2-11.7-9-19-11c-7.3-2-14.9-1.9-22,0C206.6,173.4,200,177.1,194.6,182.5L194.6,182.5z
	 M265.7,201.5c-1.3-4.9-3.5-9.5-6.3-13.5c-3.6,11.4-11.2,20.4-20.8,26c-10.2,5.9-22.6,7.9-34.8,4.6c-9.3-2.5-18.7-2.3-27.3,0.2
	c3.9,8.9,9.4,17.3,16.7,24.6c6.9,7,15.8,11.1,25,12.3c9.2,1.2,18.9-0.5,27.4-5.4c8.5-4.9,14.8-12.4,18.4-21
	C267.4,220.8,268.2,211,265.7,201.5L265.7,201.5z M206.5,114.4c0.7-0.4,1.3-0.8,2-1.2h0c7-4,14.5-7.1,22.3-9.2
	c4-1.1,7.5-3.4,10.1-6.4c2.6-3.1,4.2-6.9,4.6-11c0.4-4.2-0.6-8.2-2.6-11.7c-2-3.4-5-6.3-8.8-8.1c-3.8-1.8-7.9-2.3-11.8-1.6
	c-3.9,0.7-7.6,2.6-10.6,5.5c-4.5,4.5-7.6,10-9.2,15.9c-1.6,5.9-1.6,12.2,0,18.3C203.3,108.3,204.7,111.5,206.5,114.4L206.5,114.4z
	 M135.9,135.3c-1.3,0.2-2.6,0.3-3.9,0.3c-5.9,0-11.7-2.1-16.3-6.3c4.6-0.5,9.2,0.2,13.4,2C131.5,132.3,133.8,133.7,135.9,135.3
	L135.9,135.3z M93.3,124.3c-2.2-0.8-4.3-1.9-6.3-3.2l0.2,0c5.5,0.5,10.8,2.1,15.7,4.9C99.6,126,96.3,125.4,93.3,124.3z"/>
<path class="st5" d="M61.8,209.1c-4.5-3.4-7.2-8.2-7.9-13.3c-0.7-5.1,0.5-10.5,3.9-15c3.4-4.5,8.2-7.2,13.3-7.9
	c5.1-0.7,10.5,0.5,15,3.9c2.8,2.1,6.2,3.3,9.6,3.6c3.4,0.3,6.9-0.4,10-2c3.2-1.7,5.7-4.1,7.4-7.1c1.7-3,2.6-6.4,2.5-10
	c-0.1-1.6-0.3-3.2-0.8-4.7c-0.5,0-1,0-1.5,0c-9.7-0.1-19.4-3.2-27.4-9.5c-8.1-6.2-13.6-14.8-16.1-24.2c-2.5-9.4-2-19.5,1.9-29
	c3.9-9.4,10.7-17,19-21.9c8.4-4.9,18.3-7.1,28.4-5.9c13.7,1.7,26,7.9,35.2,17.1c9.2,9.2,15.5,21.5,17.1,35.2
	c0.8,6.6,2.9,12.8,6.1,18.4c3.2,5.6,7.6,10.5,12.9,14.5c7.1,5.4,15.6,8.3,24.1,8.8c3.6,0.2,7.3,0,10.9-0.7c-0.4-1.6-1-3.1-1.7-4.5
	c-2.4-5-6.6-9.1-12-11.5c-4.9-2.1-9.1-5.2-12.5-9.1c-3.4-3.9-5.9-8.5-7.3-13.7c-1.4-5.1-1.5-10.4-0.5-15.4c1-5.1,3.1-9.9,6.3-14.1
	c4.7-6.3,11.1-10.8,18.2-13.3c7.1-2.5,14.9-2.8,22.5-0.8c7.6,2,14.2,6.3,19.1,12c4.9,5.7,8.2,12.8,9.1,20.6
	c1.2,9.9-0.6,19.7-4.9,28.3c-4.3,8.6-11,15.9-19.7,20.9h0c-3.4,2-7.1,3.5-10.8,4.6c0.2,3.1-0.1,6.3-0.9,9.4
	c-1.9,7-6.2,12.7-11.8,16.5c-5.6,3.8-12.6,5.6-19.7,4.8c-5.7-0.7-11.1-2.2-16.1-4.4c-2.5,3.1-5.5,5.7-8.9,7.7
	c-6,3.5-13.1,5.1-20.4,4.3c-8.6-1-16.8,1.3-23.4,5.9c-6.6,4.7-11.5,11.7-13.3,20.1c-1.8,8.4-0.3,16.9,3.7,23.9
	c4,7,10.6,12.5,18.8,15.1c8.2,2.6,16.8,1.9,24.1-1.4c7.3-3.4,13.5-9.4,16.9-17.3c2.1-5,5.6-9.1,9.9-11.9c4.3-2.9,9.5-4.5,14.9-4.5
	c5.4,0,10.5,1.6,14.9,4.5c4.3,2.9,7.8,7,9.9,11.9c1.8,4.1,2.2,8.5,1.5,12.8c-0.7,4.2-2.6,8.3-5.6,11.6c-3,3.3-6.8,5.6-11,6.7
	c-4.1,1.1-8.6,1.1-12.9-0.3c-3.8-1.2-7.1-3.3-9.7-6.1v0c-2.6-2.8-4.6-6.2-5.5-10l5.1-1.3c0.8,2.9,2.2,5.6,4.3,7.7l0,0
	c2,2.1,4.6,3.8,7.4,4.7c3.3,1,6.7,1.1,9.9,0.2c3.2-0.9,6.2-2.6,8.5-5.2c2.3-2.6,3.8-5.7,4.3-8.9c0.6-3.3,0.2-6.7-1.2-9.9
	c-1.7-4-4.5-7.3-8-9.6c-3.5-2.3-7.6-3.6-12-3.6c-4.4,0-8.5,1.3-12,3.6c-3.5,2.3-6.3,5.6-8,9.6c-3.9,9.2-11,16.1-19.5,20
	c-8.5,3.9-18.4,4.7-27.9,1.7c-9.5-3-17.1-9.4-21.8-17.5c-4.7-8.1-6.4-17.8-4.3-27.6c2.1-9.8,7.8-17.9,15.4-23.3
	c7.6-5.4,17.2-8.1,27.1-6.9c6.1,0.7,12.1-0.6,17.2-3.6c2.5-1.5,4.8-3.4,6.8-5.6c-4.7-2.6-9-5.9-12.8-9.6
	c-8.9-8.9-14.8-20.6-16.4-33.7l-0.1-0.7c-2.8,0.9-5.4,2.3-7.8,4.1c-6.2,4.7-13.4,7.6-20.7,8.6c0.4,1.6,0.7,3.2,0.7,4.9
	c0.2,4.6-1,9-3.1,12.8c-2.2,3.8-5.4,7-9.5,9.1c-4,2.1-8.5,3-12.9,2.6c-4.4-0.3-8.6-1.9-12.3-4.7c-3.3-2.5-7.3-3.4-11.1-2.9
	c-3.8,0.5-7.4,2.5-9.9,5.9c-2.5,3.3-3.4,7.3-2.9,11.1c0.5,3.8,2.5,7.4,5.9,9.9L61.8,209.1L61.8,209.1z M116.6,148.5
	c0.6,0.8,1.1,1.7,1.5,2.5c6.9-0.8,13.7-3.4,19.5-7.8c3-2.3,6.4-4,9.9-5.1c-1.8-6.6-5.3-12.5-10-17.2c-6-6-14-10.1-23-11.2
	c-3.9-0.5-7.7,0.5-10.8,2.6c-3.1,2.1-5.4,5.2-6.4,9c-1,3.8-0.6,7.7,1.1,11c1.6,3.3,4.4,6.1,8,7.6C110.6,142,114.1,144.9,116.6,148.5
	L116.6,148.5z M112.2,151.3c-1.9-2.7-4.6-4.9-7.8-6.3c-4.8-2.1-8.5-5.7-10.7-10.2c-2.2-4.4-2.8-9.6-1.4-14.7c1.4-5.1,4.5-9.3,8.6-12
	c4.1-2.8,9.1-4.1,14.3-3.5c10.1,1.2,19.2,5.8,26.1,12.7c5.4,5.4,9.4,12.1,11.4,19.7c1.6-0.2,3.2-0.3,4.8-0.3
	c5.8,0,11.6,1.6,16.7,4.8c-0.4-0.7-0.9-1.4-1.3-2.1c-3.6-6.2-5.9-13.1-6.8-20.4c-1.5-12.5-7.2-23.7-15.6-32.1
	c-8.4-8.4-19.6-14.1-32.1-15.6c-9-1.1-17.8,0.9-25.1,5.2c-7.4,4.3-13.4,11-16.8,19.4c-3.4,8.4-3.8,17.3-1.6,25.6
	c2.2,8.3,7.1,15.9,14.2,21.4C95.8,148.2,104,151,112.2,151.3L112.2,151.3z M153.7,142.2c0.1,0.4,0.1,0.8,0.2,1.2
	c1.4,11.9,6.9,22.6,14.9,30.7c3.6,3.6,7.7,6.6,12.1,9c0.6-1.1,1.2-2.2,1.6-3.3c2.3-5.7,2.6-11.8,1.1-17.5
	c-1.5-5.7-4.8-10.8-9.7-14.6c-4.9-3.8-10.7-5.7-16.6-5.7C156.2,142,154.9,142.1,153.7,142.2L153.7,142.2z M185.7,185.4
	c4.3,1.8,8.9,3,13.8,3.6c5.9,0.7,11.6-0.8,16.2-3.9c4.6-3.1,8.1-7.8,9.7-13.5c0.6-2.3,0.9-4.6,0.8-6.9c-4,0.7-8,1-12,0.7
	c-9.6-0.6-18.9-3.9-26.9-9.9l-0.6-0.5c0.9,1.9,1.7,3.9,2.2,5.9c1.8,6.7,1.5,14-1.3,20.8C186.9,183,186.3,184.2,185.7,185.4
	L185.7,185.4z M228.4,152.7c0.9,1.8,1.5,3.6,2,5.5c3.1-1,6.1-2.3,9-3.9l0,0c7.7-4.5,13.8-11,17.6-18.7c3.8-7.7,5.5-16.4,4.4-25.3
	c-0.8-6.7-3.6-12.9-7.9-17.8c-4.3-4.9-10-8.6-16.5-10.3c-6.6-1.8-13.3-1.4-19.5,0.7c-6.1,2.1-11.7,6-15.7,11.5
	c-2.7,3.6-4.5,7.7-5.3,12c-0.8,4.3-0.7,8.8,0.5,13.1c1.2,4.3,3.3,8.3,6.1,11.6c2.9,3.3,6.5,6,10.6,7.7
	C220.3,141.5,225.4,146.6,228.4,152.7z"/>
<path class="st6" d="M108.5,259.8c-4.6,4.6-10.6,6.9-16.6,6.9c-6,0-12-2.3-16.6-6.9c-4.6-4.6-6.9-10.6-6.9-16.6c0-6,2.3-12,6.9-16.6
	c9.7-9.7,14.5-22.3,14.5-35c0-12.7-4.8-25.3-14.5-35c-7.2-7.2-10.8-16.6-10.8-26s3.6-18.9,10.8-26c7.2-7.2,16.6-10.8,26-10.8h0
	l0-0.2c-0.9-7.1,0.4-14.5,4.2-21.1c3.8-6.6,9.6-11.5,16.2-14.1c6.6-2.6,13.9-3,20.8-0.5l-1.8,4.9c-5.7-2-11.7-1.7-17.1,0.4
	c-5.5,2.2-10.4,6.3-13.6,11.9c-3.2,5.5-4.3,11.8-3.5,17.8c0.1,0.4,0.1,0.8,0.2,1.2c7.6,1.1,14.9,4.6,20.7,10.4
	c4.9,4.9,8.8,10.4,11.6,16.2c4.8,0.5,9.6,0.1,14.4-1.2c9.7-2.6,19.5-1,27.6,3.6c8.1,4.7,14.3,12.4,16.9,22.1
	c1.7,6.2,5.7,11.1,10.8,14.1c5.1,3,11.4,4,17.6,2.3c3.1-0.8,5.9-2.3,8.3-4.1c-3.2-5.7-4.4-12.1-3.6-18.3c0.7-5.5,3-10.8,6.8-15.2
	c-1.7-2-3.7-3.6-5.9-4.9l0,0c-5.1-3-11.4-4-17.6-2.3c-6,1.6-12.2,1.1-17.6-1.2c-5.5-2.3-10.2-6.3-13.3-11.7
	c-3.1-5.4-4.2-11.5-3.4-17.3c0.8-5.9,3.4-11.5,7.8-15.9c4.9-4.9,11-8.4,17.5-10.1c6.5-1.7,13.5-1.8,20.2,0
	c6.8,1.8,12.8,5.3,17.5,10.1c4.8,4.8,8.3,10.8,10.1,17.5c1.8,6.7,1.7,13.7,0,20.2c-1.6,5.8-4.5,11.3-8.6,15.9
	c1.4,2.3,2.4,4.7,3.2,7.4c2,7.6,0.8,15.3-2.8,21.6c-1,1.7-2.2,3.3-3.5,4.8c2.5,3.1,5.8,5.5,9.4,6.9c4.8,2,10.1,2.4,15.4,1
	c3.8-1,7.7-1,11.4,0c3.7,1,7.1,2.9,9.8,5.7c2.8,2.8,4.7,6.2,5.7,9.8c1,3.7,1,7.6,0,11.4c-1,3.8-3,7.2-5.7,9.8
	c-2.7,2.7-6.1,4.7-9.8,5.7C272,210,267,213,263,217c-4,4-6.9,9-8.4,14.6c-1.1,4.2-3.5,7.7-6.6,10.4c-3.1,2.6-7.1,4.3-11.4,4.7
	c-4.3,0.4-8.5-0.6-12-2.7l0,0c-3.6-2.1-6.5-5.2-8.3-9.1c-1.8-3.9-2.3-8.2-1.6-12.2c0.7-4.1,2.6-7.9,5.7-10.9
	c3.3-3.3,5.1-7.5,5.5-11.8c0.4-4.3-0.7-8.8-3.4-12.6c-2.6-3.8-6.5-6.3-10.7-7.5c-4.2-1.1-8.8-0.8-13,1.1c-4.2,2-7.4,5.3-9.2,9.2
	c-1.8,3.9-2.3,8.5-1.1,13c1.8,6.7,1.7,13.7,0,20.1c-1.7,6.5-5.2,12.5-10.1,17.5c-4.9,4.9-11,8.3-17.5,10.1c-6.5,1.7-13.4,1.8-20.1,0
	c-6.6-1.8-12.5-5.2-17.2-9.9c-4.7-4.7-8.1-10.6-9.9-17.2c-1.8-6.6-1.7-13.4,0-19.8c1.7-6.4,5.1-12.3,9.9-17.2
	c10.9-10.9,16.3-25.1,16.3-39.3c0-7.5-1.5-15-4.5-22c-1.4-0.2-2.8-0.5-4.2-0.9c-7.6-2-14.6-6-20.4-11.8c-4-4-6.8-8.8-8.3-13.9
	c-0.4,0-0.8,0-1.2,0c-8.1,0-16.2,3.1-22.3,9.3c-6.2,6.2-9.3,14.3-9.3,22.3c0,8.1,3.1,16.2,9.3,22.3c10.7,10.7,16,24.7,16,38.7
	c0,14-5.3,28-16,38.7c-3.6,3.6-5.3,8.2-5.3,12.9c0,4.7,1.8,9.4,5.3,12.9c3.6,3.6,8.2,5.4,12.9,5.4c4.7,0,9.4-1.8,12.9-5.4
	L108.5,259.8L108.5,259.8z M123.7,108.1c-4.4-4.4-9.7-7.2-15.4-8.5c1.4,3.4,3.5,6.7,6.2,9.4c5,5,11.2,8.6,17.9,10.4
	C130.1,115.4,127.1,111.6,123.7,108.1L123.7,108.1z M141.3,126c2.6,6.9,3.9,14.1,3.9,21.4c0,15.6-5.9,31.1-17.8,43
	c-4.2,4.2-7.1,9.3-8.6,14.8c-1.5,5.5-1.5,11.4,0,17.1c1.5,5.7,4.5,10.8,8.6,14.8c4,4,9.1,7,14.8,8.6c5.8,1.6,11.8,1.5,17.4,0
	c5.6-1.5,10.8-4.5,15.1-8.7c4.3-4.3,7.2-9.5,8.7-15.1c1.5-5.6,1.6-11.6,0-17.4c-1.5-5.7-0.9-11.5,1.4-16.5c2.3-5,6.4-9.3,11.7-11.7
	c5.3-2.5,11.2-2.9,16.5-1.4c5.3,1.4,10.2,4.7,13.6,9.5c3.4,4.8,4.8,10.5,4.3,16c-0.5,5.5-2.9,10.9-7,15.1c-2.3,2.3-3.7,5.1-4.2,8.1
	c-0.5,3-0.2,6.2,1.2,9.1c1.4,2.9,3.5,5.2,6.2,6.8h0c2.6,1.5,5.7,2.3,8.9,2c3.2-0.3,6.1-1.5,8.5-3.5c2.3-2,4.1-4.6,4.9-7.7
	c1.7-6.5,5.2-12.3,9.8-16.9c4.6-4.6,10.4-8,16.9-9.8c2.9-0.8,5.4-2.3,7.5-4.3c2-2,3.6-4.6,4.3-7.5c0.8-2.9,0.7-5.9,0-8.7
	c-0.7-2.8-2.2-5.4-4.3-7.5c-2.1-2.1-4.7-3.6-7.5-4.3c-2.8-0.7-5.8-0.8-8.7,0c-6.4,1.7-12.9,1.2-18.7-1.2c-4.3-1.8-8.2-4.6-11.2-8.2
	c-2.9,2.2-6.2,3.9-9.9,4.9c-7.6,2-15.3,0.8-21.6-2.8c-6.3-3.6-11.2-9.7-13.3-17.3c-2.2-8.3-7.6-14.9-14.5-18.9
	c-6.9-4-15.3-5.3-23.6-3.1C150.3,125.7,145.8,126.2,141.3,126L141.3,126z M236.3,139.9c-0.6,4.6,0.1,9.4,2.3,13.7
	c0.7-0.9,1.3-1.8,1.9-2.8c3-5.1,4-11.4,2.3-17.6c-0.4-1.7-1.1-3.2-1.8-4.7C238.4,131.9,236.8,135.8,236.3,139.9L236.3,139.9z
	 M241.4,120.1c3.2-3.8,5.4-8.2,6.7-12.9c1.5-5.7,1.6-11.7,0-17.5c-1.6-5.8-4.6-11-8.8-15.2c-4.1-4.1-9.3-7.2-15.2-8.8
	c-5.8-1.6-11.9-1.5-17.5,0c-5.6,1.5-10.9,4.5-15.2,8.8c-3.6,3.6-5.7,8.1-6.3,12.8c-0.6,4.7,0.3,9.7,2.8,14.1
	c2.5,4.4,6.3,7.6,10.8,9.4c4.4,1.8,9.4,2.2,14.3,0.9c7.6-2,15.3-0.8,21.6,2.8h0C237.1,116,239.4,117.9,241.4,120.1z"/>
<path class="st4" d="M48.5,216.1c0-5,2-9.5,5.3-12.7c3.3-3.3,7.8-5.3,12.7-5.3c5,0,9.5,2,12.7,5.3c3.3,3.3,5.3,7.8,5.3,12.7
	c0,5.9,2.4,11.3,6.3,15.2c3.9,3.9,9.3,6.3,15.2,6.3v0c5.9,0,11.3-2.4,15.2-6.3c3.9-3.9,6.3-9.3,6.3-15.2c0-7.5,2-14.8,5.7-21.1
	c3.6-6.3,8.9-11.7,15.5-15.5c4.5-2.6,9.5-3.9,14.5-3.9c5,0,10,1.3,14.5,3.9c4.5,2.6,8.1,6.3,10.6,10.6v0c2.5,4.4,3.9,9.4,3.9,14.5
	c0,4.2,1.3,8.1,3.6,11.3c2.3,3.2,5.5,5.8,9.4,7.2c3.9,1.4,8,1.5,11.8,0.5c3.8-1,7.3-3.2,10-6.4c2.7-3.2,4.2-7,4.5-11
	c0.3-4-0.5-8-2.6-11.6c-2.6-4.4-3.8-9.3-3.8-14.3c0-4.9,1.3-9.8,3.8-14.3l0,0c2.6-4.4,6.2-8,10.4-10.4c4.3-2.5,9.2-3.8,14.3-3.8
	c2.8,0,5.4-0.9,7.4-2.5c2.1-1.6,3.6-3.9,4.4-6.5c0.7-2.7,0.5-5.4-0.5-7.8c-1-2.4-2.8-4.5-5.2-5.9l0,0c-10.3-5.9-22-7.1-32.6-4.3
	c-10.6,2.8-20.1,9.7-26.1,20c-4,7-10.2,12.2-17.2,15.1c-7.1,2.9-15.1,3.6-22.8,1.5c-7.8-2.1-14.4-6.7-19-12.7
	c-4.6-6.1-7.4-13.6-7.4-21.7c0-5.6,1.5-11,4.2-15.7l0,0c2.7-4.7,6.6-8.7,11.5-11.5c4.5-2.6,8.7-5.8,12.4-9.5
	c3.7-3.7,6.9-7.9,9.5-12.4c3.8-6.5,4.5-14,2.7-20.7c-1.8-6.7-6.2-12.8-12.7-16.6c-6.5-3.8-14-4.5-20.7-2.7
	c-6.7,1.8-12.8,6.2-16.6,12.7c-4,6.9-6,14.7-6,22.5c0,7.8,2,15.5,6,22.5c3.2,5.6,4.4,11.9,3.6,18c-0.8,6.1-3.5,11.9-8.1,16.4
	c-4.6,4.5-10.4,7.3-16.4,8.1c-6.1,0.8-12.4-0.3-18-3.6c-4.7-2.7-10.1-3.5-15.1-2.7c-5,0.9-9.8,3.5-13.3,7.7
	c-3.5,4.2-5.2,9.3-5.2,14.4c0,5.1,1.7,10.3,5.2,14.4c3.5,4.2,8.2,6.8,13.3,7.7c5.1,0.9,10.4,0.1,15.1-2.7c3.7-2.2,7.9-3.2,12.1-3.2
	c4.2,0,8.3,1.1,12.1,3.2c3.7,2.1,6.7,5.2,8.8,8.8c2.1,3.6,3.2,7.7,3.2,12h0c0,0.9,0,1.8-0.1,2.8c-0.1,1-0.2,1.9-0.4,2.7l-5.1-1
	c0.1-0.8,0.3-1.5,0.3-2.3c0.1-0.7,0.1-1.5,0.1-2.3h0c0-3.4-0.9-6.6-2.5-9.4c-1.6-2.8-4-5.2-6.9-6.9c-2.9-1.7-6.2-2.5-9.4-2.5
	c-3.3,0-6.5,0.8-9.4,2.5c-5.8,3.4-12.4,4.4-18.6,3.3c-6.2-1.1-12.1-4.3-16.4-9.5c-4.3-5.1-6.5-11.5-6.5-17.8
	c0-6.3,2.2-12.6,6.5-17.8c4.3-5.1,10.2-8.4,16.4-9.5c6.2-1.1,12.8-0.1,18.6,3.3c4.6,2.6,9.7,3.6,14.7,2.9c4.9-0.6,9.7-2.9,13.4-6.6
	c3.7-3.7,6-8.5,6.6-13.4c0.7-4.9-0.3-10.1-2.9-14.7c-4.5-7.8-6.7-16.4-6.7-25.1c0-8.7,2.2-17.3,6.7-25.1c4.5-7.8,11.7-13,19.7-15.1
	c8-2.2,16.9-1.2,24.7,3.3c7.8,4.5,13,11.7,15.2,19.7c2.2,8,1.2,16.9-3.3,24.7c-2.9,5-6.3,9.5-10.3,13.5c-4,4-8.5,7.5-13.5,10.3
	c-4,2.3-7.3,5.7-9.6,9.6v0c-2.3,3.9-3.5,8.4-3.5,13.1c0,6.9,2.3,13.3,6.3,18.5c4,5.2,9.6,9.1,16.2,10.8c6.6,1.8,13.5,1.2,19.5-1.3
	c6-2.5,11.2-6.9,14.7-12.9c6.6-11.5,17.3-19.2,29.2-22.4c11.9-3.2,25-1.8,36.5,4.8h0c3.4,2,6,5,7.4,8.4c1.4,3.5,1.8,7.4,0.7,11.2
	c-1,3.8-3.3,7-6.2,9.3c-3,2.3-6.7,3.6-10.6,3.6c-4.2,0-8.2,1.1-11.6,3.1c-3.5,2-6.5,4.9-8.5,8.5v0c-2.1,3.6-3.1,7.6-3.1,11.6
	c0,4,1,8.1,3.1,11.7c2.6,4.5,3.7,9.7,3.3,14.6c-0.4,5-2.4,9.8-5.7,13.9c-3.4,4-7.8,6.8-12.7,8.1c-4.8,1.3-10.1,1.1-15-0.7
	c-4.9-1.8-9-5-11.9-9.1c-2.9-4.1-4.5-9.1-4.5-14.3c0-4.3-1.1-8.4-3.2-11.9l0,0c-2.1-3.6-5-6.6-8.7-8.7c-3.7-2.1-7.8-3.2-11.9-3.2
	c-4.1,0-8.2,1.1-11.9,3.2c-5.7,3.3-10.4,8-13.6,13.6c-3.2,5.5-5,11.9-5,18.5c0,7.4-3,14.1-7.8,18.9c-4.8,4.8-11.5,7.8-18.9,7.8v0
	c-7.4,0-14.1-3-18.9-7.8c-4.8-4.8-7.8-11.5-7.8-18.9c0-3.5-1.4-6.7-3.7-9c-2.3-2.3-5.5-3.7-9-3.7c-3.5,0-6.7,1.4-9,3.7
	c-2.3,2.3-3.7,5.5-3.7,9H48.5z"/>
<path class="st5" d="M132,269.1c-6.1-1.6-11-5.6-14-10.7c-2.9-5.1-3.9-11.3-2.3-17.5c1.6-6.1,5.6-11,10.7-14
	c5.1-2.9,11.3-3.9,17.5-2.3c2.7,0.7,5.5,0.6,8-0.3c2.5-0.9,4.8-2.6,6.4-4.9c1.6-2.3,2.4-5,2.4-7.6c0-2.7-0.8-5.4-2.4-7.6
	c-1.6-2.3-3.9-4-6.4-4.8c-2.5-0.8-5.2-0.9-7.8,0c-4.9,1.6-10.1,1.4-14.7-0.3c-4.6-1.7-8.6-5-11.2-9.5v0c-1.5-2.6-2.4-5.4-2.8-8.2
	c-4,2.3-7.7,5.2-10.9,8.8c-5.2,5.8-11.8,9.8-19,11.7c-7.2,1.9-14.9,1.8-22.3-0.6c-6.9-2.3-12.3-7.1-15.5-13
	c-3.2-6-4.2-13.1-2.4-20.1l0-0.1c1.9-7,6.4-12.7,12.2-16.1c5.9-3.4,13.1-4.6,20.6-2.6l0.1,0c9.2,1.9,18.4,0.2,26-4.2h0
	c7.7-4.4,13.8-11.6,16.7-20.6c2-6,5.4-11.3,9.9-15.6c4-3.7,8.7-6.6,14-8.4c-0.2-3,0-6.1,0.6-9.1c1.7-8.1,6.1-15.1,12.2-20.1
	c0.9-0.7,1.9-1.4,2.9-2.1c-5.3-3.6-10.2-7.8-14.6-12.7c-3.3-3.7-7.7-6.2-12.4-7.2c-4.7-1-9.6-0.6-14.2,1.5c-4.6,2-8.3,5.4-10.6,9.6
	v0c-2.4,4.1-3.5,9-3,14c0.5,5,2.6,9.5,5.8,13.1c3.2,3.5,7.5,6.1,12.4,7.1l-1,5.1c-6-1.2-11.3-4.4-15.2-8.7c-3.9-4.3-6.5-9.9-7.2-16
	c-0.7-6.1,0.7-12.1,3.6-17.2l0,0c2.9-5.1,7.4-9.2,13-11.7c5.6-2.5,11.7-3,17.5-1.8c5.7,1.2,11.1,4.2,15.2,8.8
	c4.7,5.3,10.1,9.8,15.9,13.4c4.3-1.9,9.1-2.9,14-2.9c8.3,0,16,2.9,22.1,7.9c2,1.7,3.9,3.6,5.5,5.7c6.3-0.3,12.5-1.5,18.7-3.5
	c4.4-1.5,9-1.4,13.2-0.1c4.2,1.4,8,4,10.7,7.8c2.7,3.8,4.1,8.2,4.1,12.6c0,4.4-1.4,8.8-4.1,12.6c-2.7,3.8-6.5,6.4-10.7,7.8
	c-4.2,1.4-8.8,1.4-13.2,0c-3.8-1.3-7.7-1.1-11.3,0.2c-3.5,1.3-6.6,3.9-8.6,7.3l0,0c-0.9,1.5-1.5,3.2-1.9,4.8c3,0.9,5.9,2.2,8.6,3.8
	l0,0c8.3,4.8,14.9,12.4,18.4,21.9c3.8,0.4,7.7,0.2,11.6-0.6c6.9-1.4,13.8,0,19.5,3.4c5.6,3.5,10,9,11.8,15.9
	c1.8,6.9,0.8,13.8-2.3,19.6c-3.1,5.8-8.4,10.5-15.2,12.7c-6,2-11.3,5.3-15.6,9.6c-4.3,4.3-7.7,9.7-9.6,15.6
	c-2.5,7.5-7.7,13.4-14.2,16.9c-6.5,3.5-14.3,4.6-22,2.6c-7.7-2.1-13.8-6.9-17.7-13.2c-3.9-6.3-5.4-14-3.8-21.8
	c0.8-4.1,0.7-8.2-0.4-12.1c-1-3.9-3-7.6-5.8-10.7c-4-4.5-8.9-8.1-14.3-10.5c-5.4-2.4-11.3-3.7-17.4-3.7c-5.5,0-10.8,1-15.7,3
	c0,2.7,0.8,5.5,2.2,8l0,0c2,3.4,5,5.9,8.5,7.2c3.5,1.3,7.4,1.5,11.1,0.2c3.7-1.2,7.6-1.1,11.1,0.1c3.5,1.2,6.7,3.6,9,6.8
	c2.2,3.2,3.4,6.9,3.4,10.6c0,3.7-1.1,7.4-3.4,10.6c-2.2,3.2-5.4,5.5-8.9,6.8c-3.5,1.3-7.4,1.5-11.1,0.5c-4.7-1.3-9.5-0.5-13.5,1.8
	c-3.9,2.3-7,6-8.3,10.8c-1.3,4.7-0.5,9.5,1.8,13.5c2.3,3.9,6.1,7,10.8,8.3L132,269.1L132,269.1z M115.6,175.3l0-0.3
	c0.8-4.8,3.2-9.4,7-12.9c7.2-6.4,16.2-9.6,25.3-9.6c9,0,18.1,3.2,25.3,9.6c4.3,3.8,9,7.2,13.9,10h0c4.9,2.8,10.2,5.2,15.6,7
	c3.5,1.1,7.1,1.3,10.5,0.5c3.4-0.8,6.6-2.6,9.2-5.1c2.6-2.6,4.3-5.8,5.1-9.2c0.7-2.8,0.7-5.8,0.1-8.7c-1.2-0.2-2.3-0.5-3.5-0.8
	c-6.5-1.7-12.6-5-17.7-9.6c-3.9-3.5-6.3-8.1-7.1-13c-0.2-1-0.3-2.1-0.3-3.1c-4.6-0.9-9.4-0.9-14.2,0.1c-5.5,1.1-11,0.9-16.2-0.7
	c-5.2-1.6-10-4.4-13.9-8.3c-3.9-3.9-6.8-8.7-8.3-13.9c-0.2-0.6-0.3-1.2-0.5-1.8c-4.2,1.5-8.1,3.9-11.3,6.9
	c-3.8,3.6-6.8,8.2-8.5,13.4c-3.4,10.2-10.3,18.4-19.1,23.4l0,0c-8.7,5-19.3,7-29.8,4.8l-0.2,0l-0.1,0c-6.1-1.6-11.9-0.7-16.6,2
	c-4.7,2.7-8.3,7.3-9.8,12.9l0,0.1c-1.5,5.7-0.7,11.5,1.9,16.3c2.6,4.8,7,8.7,12.6,10.5c6.4,2.1,13.1,2.2,19.3,0.6
	c6.2-1.7,12-5.1,16.4-10.1C105,181.8,110,178,115.6,175.3L115.6,175.3z M126.2,166.1c-2.1,1.9-3.7,4.3-4.6,6.8
	c4.7-1.5,9.7-2.3,14.7-2.3c6.8,0,13.4,1.5,19.5,4.2c6.1,2.7,11.6,6.7,16.1,11.8c3.3,3.7,5.6,8.1,6.9,12.8c1.3,4.7,1.4,9.6,0.4,14.5
	c-1.3,6.4,0,12.8,3.2,18c3.2,5.2,8.3,9.2,14.6,10.9c6.3,1.7,12.8,0.8,18.1-2.1c5.4-2.9,9.7-7.8,11.7-14c2.2-6.8,6-12.8,10.9-17.7
	c4.9-4.9,10.9-8.7,17.7-10.9c5.4-1.8,9.7-5.5,12.2-10.2c2.5-4.7,3.3-10.3,1.8-15.8c-1.5-5.5-5-10-9.5-12.8
	c-4.5-2.8-10.1-3.9-15.7-2.8c-3.7,0.8-7.5,1-11.2,0.8c0.5,3.1,0.3,6.3-0.4,9.3c-1,4.3-3.2,8.4-6.5,11.7c-3.3,3.3-7.3,5.5-11.7,6.5
	c-4.3,1-9,0.9-13.4-0.6c-5.8-1.9-11.3-4.4-16.6-7.5l0,0c-5.3-3-10.2-6.6-14.8-10.7c-6.2-5.5-14-8.3-21.8-8.3
	C140.2,157.8,132.4,160.6,126.2,166.1L126.2,166.1z M225.6,150.8c-3.2-7-8.5-12.6-14.9-16.3h0c-2-1.1-4.1-2.1-6.2-2.9
	c0,0.3,0.1,0.6,0.1,0.8c0.6,3.7,2.4,7.2,5.4,9.9C214.5,146.4,219.9,149.3,225.6,150.8L225.6,150.8L225.6,150.8z M183.9,125.3
	c5.3-1.1,10.7-1.1,15.8-0.2c0.5-2.1,1.3-4.2,2.4-6.2v0c2.6-4.5,6.6-7.8,11.2-9.6c4.6-1.8,9.8-2,14.8-0.3c3.3,1.1,6.8,1.1,10,0
	c3.2-1,6-3,8.1-5.9c2.1-2.8,3.1-6.2,3.1-9.5c0-3.4-1-6.7-3.1-9.5c-2.1-2.8-4.9-4.8-8.1-5.9c-3.2-1-6.7-1.1-10,0.1
	c-5.6,1.9-11.3,3-17,3.6c1.5,2.9,2.7,6.1,3.4,9.4c1,4.6,0.4,9.2-1.5,13.3c-1.8,4.1-4.9,7.6-9,10h0c-4.1,2.4-8.7,3.3-13.1,2.8
	c-4.5-0.5-8.8-2.3-12.3-5.4c-4.1-3.6-8.9-6.1-14.1-7.3c-4.4-1-8.9-1.2-13.4-0.3c0.1,0.6,0.3,1.1,0.4,1.7c1.3,4.4,3.7,8.4,7,11.7
	c3.3,3.3,7.4,5.7,11.7,7C174.6,126,179.3,126.2,183.9,125.3L183.9,125.3z M150.9,92.3c-0.5,2.3-0.6,4.5-0.6,6.8
	c5.1-0.9,10.4-0.8,15.3,0.4c6,1.4,11.6,4.3,16.4,8.5c2.7,2.4,6,3.8,9.3,4.1c3.4,0.3,6.9-0.3,10-2.1l0,0c3.1-1.8,5.4-4.5,6.8-7.6
	c1.4-3.1,1.8-6.7,1.1-10.2c-0.8-3.7-2.2-7.1-4.1-10.1c-7.2,0.1-14.4-0.8-21.3-2.6c-6.3-1.7-12.3-4.2-18-7.4
	c-1.6,0.9-3.1,1.9-4.6,3.1C156.1,79.4,152.3,85.4,150.9,92.3L150.9,92.3z M180.1,68.5c-2.7,0-5.4,0.4-7.9,1.1
	c4.2,2.1,8.6,3.7,13,4.9c5.1,1.4,10.3,2.2,15.6,2.4c-0.6-0.6-1.2-1.1-1.9-1.7C193.8,71,187.2,68.5,180.1,68.5z"/>
<path class="st7" d="M158.4,157.4c19.2,0,34.7,27.2,34.7,46.4c0,19.2-15.5,34.7-34.7,34.7c-19.2,0-34.7-15.5-34.7-34.7
	C123.7,184.7,139.2,157.4,158.4,157.4z"/>
<path class="st8" d="M158.4,230.4c12.1,0,21.9-9.8,21.9-21.9c0-12.1-9.8-21.9-21.9-21.9c-12.1,0-21.9,9.8-21.9,21.9
	C136.4,220.5,146.3,230.4,158.4,230.4z"/>
<path class="st7" d="M216.8,142.2c14.6-12.4,44.1-1.8,56.5,12.8c12.4,14.6,10.7,36.5-3.9,48.9c-14.6,12.4-36.5,10.7-48.9-3.9
	C208.1,185.5,202.2,154.6,216.8,142.2z"/>
<path class="st8" d="M235.7,164.4c9.2-7.9,23-6.8,30.9,2.5c7.9,9.2,6.8,23-2.5,30.9c-9.2,7.9-23,6.8-30.9-2.5
	C225.4,186.1,226.5,172.2,235.7,164.4z"/>
<path class="st6" d="M112.6,249.9c0-4.7,1.9-9,5-12.1c3.1-3.1,7.4-5,12.1-5c4.7,0,9,1.9,12.1,5c3.1,3.1,5,7.4,5,12.1
	c0,5,0.7,10,2,14.9c1.3,4.8,3.2,9.5,5.7,13.8c2.2,3.9,5.4,7,9.1,9.1l0,0c3.7,2.1,8,3.3,12.5,3.3c4.5,0,8.8-1.2,12.5-3.3l0,0
	c0.5-0.3,1-0.6,1.6-1c-2.5,0.5-5.2,0.7-7.8,0.7c-4.4,0-8.7-1.3-12.4-3.4c-3.7-2.1-6.8-5.3-9-9.1l0,0c-2.2-3.8-3.3-8.1-3.3-12.4
	c0-4.3,1-8.6,3.2-12.4c4.7-8.4,8.4-17.3,10.8-26.6l0.3-1c-5.6-4.8-11.7-9.1-18.1-12.9l-0.3-0.2c-4.9-2.9-8.6-6.9-11.2-11.5
	c-3.4,0.8-6.8,2.1-9.9,3.8l0,0c-7.4,4.3-15.3,7.5-23.5,9.7c-8.2,2.2-16.6,3.3-25.2,3.3v0c-9.1,0-18-2.4-25.6-6.9l0,0
	c-7.7-4.4-14.2-10.8-18.8-18.7v0l-0.1-0.2l0,0l-0.1-0.2l0,0c-4.8-8.6-5.8-18.3-3.4-27.1c2.4-8.8,8.1-16.8,16.5-21.8
	c5.2-3.1,10.9-5.1,16.8-5.9c5.9-0.8,11.9-0.5,17.8,1.1c5.8,1.6,11.3,4.3,16,7.9c4.7,3.6,8.7,8.2,11.7,13.5
	c4.1,7.2,9.9,13.1,16.8,17.2c2.4,1.4,4.9,2.6,7.4,3.5c0.6-3.3,1.7-6.5,3.4-9.6v0c0,0,0.5-0.9,0.5-0.9c4.1-6.9,10.5-11.7,17.6-13.9
	c-4.5-5.2-9.9-9.5-15.9-12.7l-0.1,0c-5.9-3.3-10.3-8.4-12.7-14.3c-2.5-5.9-3.1-12.6-1.3-19.1c1.7-6.5,5.6-12,10.7-15.9
	c5.1-3.9,11.4-6.1,18.2-6c8.2,0.1,16,2.3,22.9,6.3c2.6,1.5,5.1,3.3,7.5,5.3c1.3-1.1,2.8-2.1,4.3-3h0c8.5-4.9,18.1-7.4,27.6-7.4
	s19,2.5,27.6,7.4h0c8.5,4.9,15.4,11.9,20.2,20.2c4.8,8.3,7.4,17.7,7.4,27.6c0,9.6-3.9,18.3-10.2,24.7c-3.7,3.7-8.1,6.5-13.1,8.3
	c-0.2,1.6-0.7,3.2-1.3,4.7c-1.7,3.9-4.6,7.3-8.5,9.5l-2.6-4.6c2.9-1.6,5-4.1,6.3-7c0.2-0.4,0.3-0.8,0.5-1.2
	c-1.9,0.3-3.9,0.5-5.9,0.5c-10.4,0-20.7-1.4-30.7-4l-0.1,0l10.7,18.5l0,0l0,0c3.3,5.7,4,12.3,2.4,18.2c-0.9,3.3-2.5,6.4-4.7,9.1
	c0.3,0.9,0.5,1.8,0.8,2.7c2.2,8.3,3.4,16.8,3.5,25.5c0.1,5.5-1,10.9-3,15.8c-2,5-5.1,9.6-8.9,13.4c-3.1,3.1-6.7,5.7-10.6,7.6
	c-2.6,3.8-6,6.9-9.9,9.2h0c-4.5,2.6-9.7,4.1-15.1,4.1c-5.4,0-10.6-1.4-15.1-4.1h0c-4.5-2.6-8.3-6.4-11-11.1
	c-2.8-4.8-4.9-9.8-6.3-15.1c-1.4-5.3-2.1-10.7-2.1-16.2c0-3.3-1.3-6.2-3.5-8.4c-2.1-2.1-5.1-3.5-8.4-3.5c-3.3,0-6.2,1.3-8.4,3.5
	c-2.1,2.1-3.5,5.1-3.5,8.4H112.6L112.6,249.9z M197.4,279l0.2-0.4c2.2-3.8,3.3-8.2,3.3-12.5h0c0-4.3-1.1-8.6-3.3-12.5l0,0
	c-5.3-9.1-11.7-17.5-19.1-24.9c-0.8-0.8-1.6-1.5-2.4-2.3c-2.6,9.1-6.2,17.9-10.9,26.2c-1.7,3.1-2.6,6.4-2.6,9.8
	c0,3.4,0.9,6.7,2.7,9.8v0c1.7,3,4.2,5.5,7.2,7.2c2.9,1.7,6.3,2.7,9.8,2.7c4.8,0.1,9.5-0.9,13.8-2.6C196.6,279.4,197,279.2,197.4,279
	L197.4,279z M206.2,266.1L206.2,266.1c0,2.7-0.4,5.5-1.1,8.1c0.9-0.8,1.9-1.6,2.7-2.5c3.4-3.4,6-7.4,7.8-11.7
	c1.8-4.4,2.7-9.1,2.6-13.8c-0.1-8.2-1.2-16.3-3.3-24.2l0-0.1c-0.6,0.4-1.2,0.8-1.9,1.2l0,0l-0.3,0.2c-5.7,3.3-12.3,4-18.2,2.4
	c-5.8-1.6-11-5.3-14.4-10.9l0,0l-0.2-0.3c-0.3-0.4-0.5-0.9-0.8-1.3c-0.4,2.5-0.9,4.9-1.4,7.3c1.6,1.4,3.1,2.9,4.6,4.4
	c7.7,7.7,14.4,16.4,19.9,25.9v0C204.9,255.7,206.2,260.9,206.2,266.1L206.2,266.1z M156.7,205.3c5.8,3.4,11.4,7.2,16.5,11.5
	c0.6-3,1.1-6,1.5-9.1c-1.2-1.2-2.4-2.3-3.7-3.3c-3.6-2.8-7.7-4.8-12.2-6c-3.6-1-7.3-1.3-10.9-1.1c2.1,3.1,5,5.9,8.5,7.9L156.7,205.3
	L156.7,205.3z M140,193.2c-0.3-0.8-0.5-1.6-0.8-2.4c-0.7-2.6-1.1-5.3-1.1-8.1c-3.4-1.1-6.6-2.6-9.6-4.4
	c-7.7-4.5-14.2-11.1-18.8-19.1c-2.6-4.7-6.1-8.7-10.3-11.9c-4.1-3.2-8.9-5.6-14.1-7c-5.2-1.4-10.5-1.7-15.7-1
	c-5.2,0.7-10.3,2.5-14.9,5.2c-7.3,4.3-12.1,11.1-14.1,18.6c-2,7.6-1.2,15.9,2.9,23.2l0,0l0.1,0.2h0l0.1,0.2l0,0
	c4.1,7.1,10,12.9,16.8,16.8h0c6.9,4,14.8,6.2,23,6.2v0c8.1,0,16.1-1.1,23.9-3.1c7.8-2.1,15.2-5.2,22.2-9.2h0
	C132.9,195.5,136.4,194.1,140,193.2L140,193.2z M144.3,189.4c0.3,1,0.6,1.9,0.9,2.8c5-0.6,10-0.2,14.9,1.1c5.1,1.4,9.9,3.7,14,6.9
	c0.4,0.3,0.8,0.6,1.1,0.9c0.1-2,0.2-4,0.2-6c0.1-4.7-0.4-9.2-1.3-13.7c-6.2,2.6-12.9,3.9-19.8,3.9c-3.7,0-7.4-0.4-10.9-1.2
	C143.5,186,143.8,187.7,144.3,189.4L144.3,189.4z M146.7,170c-1.6,2.8-2.6,5.8-3,8.8c3.5,0.8,7.1,1.3,10.7,1.3
	c6.5,0,12.8-1.3,18.5-3.8c-1.4-4.8-3.3-9.3-5.8-13.6c-1.1-1.9-2.2-3.7-3.5-5.4c-0.4,0.1-0.7,0.2-1.1,0.3
	c-6.2,1.7-11.8,5.6-15.4,11.5v0.4L146.7,170L146.7,170z M165.9,151.7c6.1-0.7,12.5,0.5,18.3,3.6h0l0.6,0.4l0,0
	c2.6,1.5,5.2,2.9,7.9,4.1c0.6-0.9,1.2-1.9,1.8-2.9c0.2-0.4,0.5-0.9,0.7-1.3L182.8,134c-4.1-7.1-4.9-15.2-3-22.5
	c1.1-4.1,3.1-7.9,5.8-11.3c-2-1.7-4.1-3.2-6.4-4.5c-6.1-3.5-13.1-5.5-20.3-5.6c-5.6-0.1-10.8,1.8-15,4.9c-4.2,3.2-7.3,7.7-8.8,13.1
	c-1.4,5.4-1,10.9,1.1,15.7c2,4.8,5.6,9,10.4,11.7C154.1,139.5,160.6,145.1,165.9,151.7L165.9,151.7z M182.3,160.2
	c-4-2.3-8.4-3.4-12.7-3.5c0.7,1.1,1.4,2.3,2.1,3.5c2.5,4.3,4.5,8.9,5.9,13.8c4.5-2.6,8.5-5.9,11.9-9.9c-2.2-1.1-4.4-2.3-6.6-3.5h0
	L182.3,160.2L182.3,160.2z M197.6,162c0.6,0.3,1.2,0.5,1.8,0.7l-1.1-1.9C198.1,161.3,197.8,161.7,197.6,162L197.6,162z M207,165.5
	l0.2,0.1c2.7-4,6.3-7.3,10.3-9.6c4.7-2.8,10.2-4.3,15.9-4.4c4.5,0,8.7,1.4,12.1,4c3.4,2.6,6,6.3,7.1,10.6c0.2,0.8,0.4,1.6,0.5,2.4
	c3.5-1.5,6.7-3.7,9.4-6.3c5.4-5.4,8.7-12.8,8.7-21c0-8.9-2.4-17.5-6.7-25c-4.3-7.5-10.6-13.8-18.3-18.3l0,0
	c-7.7-4.5-16.3-6.7-25-6.7s-17.3,2.2-25,6.7l0,0c-1.1,0.7-2.2,1.4-3.2,2.2c2.1,2.3,4,4.9,5.7,7.7c4.7,7.9,7.1,16.9,7.2,25.8
	c0.1,7.4-1.5,14.9-4.7,21.8L207,165.5L207,165.5z M203.5,169.9c-3.1-1-6.1-2.2-9-3.5c-4,4.9-8.8,9-14.2,12.1l0,0
	c-0.4,0.2-0.8,0.5-1.2,0.7c1.2,5.2,1.8,10.6,1.7,16c0,3.6-0.2,7.2-0.6,10.7c1.5,1.8,2.9,3.7,4.1,5.8l0.2,0.3
	c2.6,4.5,6.8,7.5,11.4,8.7c4.6,1.2,9.8,0.7,14.2-1.9l0,0c1.2-0.7,2.2-1.4,3.2-2.3c-2-5.9-4.5-11.7-7.6-17.1
	c-2.8-4.9-4.2-10.4-4.1-15.9c0-4.2,0.9-8.5,2.6-12.5L203.5,169.9L203.5,169.9z M212.5,167.1c9.4,2.5,19.2,3.8,29.1,3.8
	c2.2,0,4.4-0.2,6.5-0.7c-0.1-0.9-0.2-1.8-0.5-2.7c-0.9-3.2-2.7-5.9-5.2-7.8c-2.5-1.9-5.6-3-8.9-2.9c-4.7,0.1-9.3,1.4-13.3,3.7
	C217.3,162.2,214.6,164.4,212.5,167.1L212.5,167.1z M189.4,103.9c-2.1,2.7-3.6,5.7-4.5,8.9c-1.6,6-0.9,12.7,2.4,18.6l10.6,18.3
	c1.9-5.2,2.8-10.6,2.8-16.1c-0.1-8-2.2-16-6.4-23.2C192.8,108.1,191.2,105.9,189.4,103.9L189.4,103.9z M217,193.3l-9.3-16.2
	c-0.5,2.1-0.8,4.3-0.8,6.5c0,4.6,1.1,9.2,3.5,13.4c2.7,4.8,5,9.7,6.9,14.8c0.7-1.3,1.3-2.8,1.7-4.2c1.2-4.5,0.7-9.5-1.7-13.9
	L217,193.3z"/>
<path class="st6" d="M90.5,173.8c-5.9-1.6-10.6-5.4-13.4-10.3c-2.8-4.9-3.8-10.8-2.2-16.7c1.5-5.5,4.9-10,9.2-12.9
	c4.5-3.1,10-4.4,15-3.5c4.8,0.9,9.7,0.6,14.3-0.8c4.5-1.4,8.8-3.9,12.3-7.4c3.5-3.5,6-7.7,7.4-12.3c1.4-4.6,1.7-9.5,0.8-14.3
	c-1.9-10.1-0.5-20.2,3.6-29.1c4.1-8.9,10.9-16.6,19.8-21.7l0,0c8.9-5.1,18.9-7.2,28.7-6.3c9.8,0.9,19.3,4.8,27,11.5
	c4.6,4,8.3,8.9,10.8,14.3c2.5,5.4,3.8,11.4,3.8,17.5c0,6.1-1.3,12-3.8,17.5c-2.5,5.4-6.1,10.3-10.8,14.3c-5.3,4.5-8.5,10.6-9.6,17
	c-1.1,6.4,0,13.3,3.4,19.3c3.5,6,8.8,10.3,14.9,12.6c6.1,2.3,13,2.5,19.6,0.2c5.4-1.9,11.1-2.2,16.4-1c5.4,1.2,10.4,3.8,14.6,7.7
	c4.1,3.9,7,8.9,8.4,14.2c1.4,5.3,1.4,11-0.2,16.5c-1.6,5.5-4.7,10.3-8.8,13.9c-4.1,3.7-9.2,6.3-14.8,7.3c-2.4,0.5-4.7,1.4-6.7,2.8
	c-2,1.4-3.7,3.2-4.9,5.4c-1.2,2.2-2,4.5-2.2,6.9c-0.2,2.4,0.1,4.9,0.9,7.2c1.5,4.4,1.8,9.1,0.8,13.4c-1,4.4-3.2,8.5-6.5,11.8
	c-3.3,3.3-7.4,5.5-11.8,6.5c-4.4,1-9,0.8-13.4-0.8c-11.5-4-20.6-11.9-26.3-21.8c-5.7-9.9-8-21.8-5.7-33.7c1.4-7.4,0.4-14.8-2.6-21.3
	c-3-6.5-7.9-12.1-14.4-15.9c-6.5-3.8-13.8-5.2-21-4.6c-7.1,0.7-14,3.5-19.7,8.4c-2.5,2.1-4.4,4.7-5.7,7.6c-1.3,2.9-2,6.1-2,9.3
	c0,3.3,0.7,6.4,2,9.3c1.3,2.9,3.3,5.5,5.7,7.6c3.6,3.1,6.2,7.1,7.6,11.4c1.4,4.4,1.6,9.1,0.5,13.7c-1.1,4.6-3.5,8.8-6.7,12
	c-3.2,3.2-7.3,5.6-12,6.7c-4.6,1.1-9.4,0.9-13.7-0.5c-4.4-1.4-8.3-4-11.4-7.6l4-3.4c2.5,2.9,5.6,4.9,9.1,6c3.5,1.1,7.2,1.3,10.9,0.4
	c3.7-0.9,6.9-2.8,9.5-5.3c2.6-2.6,4.5-5.8,5.3-9.5c0.9-3.7,0.7-7.4-0.4-10.9c-1.1-3.5-3.2-6.6-6-9.1c-3-2.6-5.4-5.8-7.1-9.4
	c-1.6-3.6-2.5-7.5-2.5-11.5c0-4,0.9-7.9,2.5-11.5c1.6-3.6,4-6.8,7.1-9.4c6.5-5.6,14.5-8.8,22.7-9.6c8.2-0.8,16.6,1,24,5.3
	c7.5,4.3,13.2,10.7,16.6,18.2c3.4,7.5,4.6,16,3,24.4c-2,10.7,0,21.3,5.1,30.1c5.1,8.8,13.3,15.9,23.5,19.5c3.5,1.2,7.1,1.4,10.6,0.6
	c3.4-0.8,6.6-2.5,9.2-5.1c2.6-2.6,4.3-5.8,5.1-9.2c0.8-3.4,0.6-7.1-0.6-10.6c-1.1-3.1-1.5-6.3-1.2-9.4c0.3-3.2,1.3-6.3,2.9-9.1
	c1.6-2.8,3.8-5.2,6.4-7c2.6-1.8,5.6-3.1,8.8-3.7c4.6-0.9,8.8-3,12.2-6.1c3.4-3,5.9-7,7.3-11.5c1.3-4.5,1.3-9.2,0.2-13.6
	c-1.2-4.4-3.5-8.5-7-11.7c-3.4-3.3-7.6-5.4-12.1-6.4c-4.5-1-9.2-0.7-13.6,0.9c-7.7,2.7-15.9,2.5-23.1-0.2
	c-7.2-2.7-13.6-7.8-17.7-14.9c-4.1-7.1-5.4-15.1-4.1-22.7c1.3-7.6,5.2-14.8,11.4-20.1c4.1-3.5,7.2-7.8,9.4-12.5
	c2.2-4.7,3.3-9.9,3.3-15.3c0-5.4-1.2-10.6-3.3-15.3c-2.2-4.7-5.4-9-9.4-12.5c-7-6-15.4-9.4-24.1-10.2c-8.7-0.8-17.7,1-25.6,5.6h0
	c-7.9,4.6-14,11.4-17.6,19.4c-3.6,7.9-4.9,17-3.2,26c1.1,5.7,0.7,11.4-1,16.8c-1.7,5.4-4.6,10.3-8.7,14.4c-4.1,4.1-9,7-14.4,8.7
	c-5.4,1.7-11.1,2-16.8,1c-3.7-0.7-7.7,0.3-11.1,2.6c-3.3,2.2-5.9,5.7-7.1,9.9c-1.2,4.5-0.5,9,1.7,12.8c2.1,3.7,5.7,6.6,10.2,7.8
	L90.5,173.8z"/>
</svg>
